<?xml version="1.0" encoding="UTF-8" standalone="no"?>
<svg width="100%" height="100%" viewBox="0 0 200 200" preserveAspectRatio="xMidYMid meet" xmlns="http://www.w3.org/2000/svg">
    <path d="M 97.08 100.00 L 97.39 101.77 L 97.41 101.90 L 98.73 103.13 L 98.96 103.34 L 100.75 103.52 L 101.22 103.56 L 102.77 102.63 L 103.32 102.30 L 103.99 100.63 L 104.29 99.88 L 103.83 98.14 L 103.59 97.20 L 102.18 96.08 L 101.30 95.39 L 99.50 95.33 L 98.23 95.29 L 96.75 96.31 L 95.59 97.12 L 95.01 98.83 L 94.52 100.31 L 95.07 102.02 L 95.59 103.63 L 97.06 104.68 L 98.52 105.73 L 98.55 105.74 L 100.35 105.71 L 102.15 105.68 L 102.31 105.68 L 103.74 104.58 L 105.17 103.49 L 105.40 103.31 L 105.89 101.58 L 106.39 99.85 L 106.50 99.45 L 105.88 97.77 L 105.25 96.08 L 105.06 95.58 L 103.55 94.60 L 102.04 93.62 L 101.50 93.26 L 99.70 93.37 L 97.91 93.47 L 97.15 93.52 L 95.76 94.67 L 94.38 95.82 L 93.71 96.38 L 93.28 98.13 L 92.85 99.88 L 92.62 100.83 L 93.31 102.49 L 94.00 104.15 L 94.42 105.16 L 95.96 106.08 L 97.51 107.01 L 98.53 107.62 L 100.32 107.45 L 102.11 107.28 L 103.39 107.16 L 104.74 105.96 L 106.08 104.76 L 107.11 103.83 L 107.48 102.07 L 107.85 100.31 L 108.15 98.85 L 107.41 97.22 L 106.66 95.58 L 106.00 94.14 L 104.43 93.27 L 102.85 92.39 L 101.39 91.58 L 99.60 91.80 L 97.82 92.03 L 96.06 92.26 L 94.76 93.50 L 93.46 94.74 L 92.15 95.99 L 92.11 96.03 L 91.80 97.80 L 91.48 99.57 L 91.17 101.35 L 91.14 101.50 L 91.94 103.11 L 92.74 104.73 L 93.54 106.34 L 93.65 106.56 L 95.25 107.38 L 96.85 108.21 L 98.45 109.04 L 98.75 109.19 L 100.53 108.91 L 102.30 108.62 L 104.08 108.34 L 104.50 108.27 L 105.77 106.99 L 107.03 105.71 L 108.30 104.43 L 108.66 104.06 L 108.92 102.28 L 109.18 100.50 L 109.44 98.72 L 109.53 98.11 L 108.69 96.52 L 107.84 94.93 L 106.99 93.35 L 106.66 92.72 L 105.04 91.94 L 103.42 91.17 L 101.79 90.39 L 101.07 90.04 L 99.30 90.37 L 97.54 90.71 L 95.77 91.04 L 94.89 91.21 L 93.66 92.52 L 92.43 93.84 L 91.21 95.16 L 90.53 95.88 L 90.32 97.67 L 90.11 99.46 L 89.90 101.24 L 89.78 102.32 L 90.67 103.89 L 91.56 105.45 L 92.45 107.02 L 93.03 108.05 L 94.68 108.78 L 96.32 109.52 L 97.97 110.25 L 99.14 110.77 L 100.90 110.39 L 102.66 110.01 L 104.42 109.63 L 105.78 109.33 L 106.97 107.98 L 108.16 106.63 L 109.35 105.28 L 110.34 104.16 L 110.50 102.37 L 110.66 100.58 L 110.83 98.78 L 110.97 97.18 L 110.04 95.64 L 109.11 94.10 L 108.17 92.56 L 107.28 91.09 L 105.62 90.40 L 103.96 89.71 L 102.30 89.03 L 100.63 88.34 L 100.60 88.32 L 98.85 88.75 L 97.11 89.18 L 95.36 89.61 L 93.61 90.04 L 93.46 90.07 L 92.31 91.46 L 91.16 92.84 L 90.00 94.22 L 88.85 95.60 L 88.67 95.81 L 88.56 97.60 L 88.45 99.40 L 88.33 101.20 L 88.22 102.99 L 88.19 103.39 L 89.17 104.90 L 90.14 106.42 L 91.11 107.93 L 92.08 109.45 L 92.37 109.89 L 94.05 110.53 L 95.73 111.18 L 97.41 111.82 L 99.09 112.47 L 99.70 112.70 L 101.44 112.23 L 103.17 111.75 L 104.91 111.27 L 106.64 110.80 L 107.41 110.59 L 108.52 109.18 L 109.64 107.77 L 110.76 106.36 L 111.88 104.95 L 112.46 104.22 L 112.52 102.42 L 112.59 100.62 L 112.65 98.82 L 112.72 97.02 L 112.76 95.95 L 111.75 94.46 L 110.73 92.97 L 109.72 91.49 L 108.71 90.00 L 108.02 88.99 L 106.33 88.39 L 104.63 87.79 L 102.93 87.19 L 101.23 86.59 L 99.94 86.13 L 98.22 86.65 L 96.49 87.17 L 94.77 87.69 L 93.05 88.21 L 91.58 88.66 L 90.50 90.10 L 89.42 91.54 L 88.34 92.98 L 87.26 94.41 L 86.25 95.77 L 86.23 97.57 L 86.21 99.37 L 86.20 101.17 L 86.18 102.97 L 86.16 104.77 L 86.16 104.82 L 87.21 106.28 L 88.26 107.74 L 89.32 109.20 L 90.37 110.66 L 91.42 112.13 L 91.55 112.31 L 93.26 112.86 L 94.97 113.42 L 96.69 113.97 L 98.40 114.53 L 100.11 115.08 L 100.49 115.20 L 102.20 114.64 L 103.91 114.07 L 105.62 113.50 L 107.32 112.94 L 109.03 112.37 L 109.58 112.19 L 110.62 110.72 L 111.66 109.25 L 112.70 107.78 L 113.74 106.31 L 114.78 104.85 L 115.22 104.23 L 115.19 102.43 L 115.16 100.63 L 115.13 98.83 L 115.10 97.03 L 115.07 95.23 L 115.05 94.28 L 113.96 92.85 L 112.87 91.42 L 111.78 89.98 L 110.69 88.55 L 109.60 87.12 L 108.91 86.21 L 107.18 85.70 L 105.46 85.20 L 103.73 84.69 L 102.00 84.18 L 100.28 83.67 L 98.99 83.29 L 97.30 83.91 L 95.61 84.52 L 93.92 85.13 L 92.23 85.75 L 90.53 86.36 L 89.09 86.89 L 88.09 88.38 L 87.09 89.88 L 86.08 91.37 L 85.09 92.87 L 84.08 94.37 L 83.12 95.82 L 83.20 97.61 L 83.28 99.41 L 83.36 101.21 L 83.44 103.01 L 83.52 104.81 L 83.60 106.61 L 83.60 106.76 L 84.73 108.16 L 85.86 109.56 L 86.99 110.96 L 88.12 112.37 L 89.25 113.77 L 90.38 115.17 L 90.61 115.46 L 92.35 115.92 L 94.09 116.38 L 95.83 116.84 L 97.57 117.30 L 99.31 117.76 L 101.05 118.22 L 101.62 118.37 L 103.30 117.70 L 104.97 117.04 L 106.64 116.38 L 108.32 115.72 L 109.99 115.06 L 111.67 114.40 L 112.42 114.11 L 113.38 112.58 L 114.34 111.06 L 115.30 109.54 L 116.26 108.01 L 117.21 106.49 L 118.17 104.96 L 118.72 104.09 L 118.59 102.29 L 118.46 100.50 L 118.33 98.70 L 118.20 96.91 L 118.07 95.11 L 117.94 93.32 L 117.85 92.05 L 116.68 90.68 L 115.51 89.31 L 114.34 87.94 L 113.17 86.58 L 112.00 85.21 L 110.83 83.84 L 109.86 82.70 L 108.11 82.28 L 106.35 81.87 L 104.60 81.46 L 102.85 81.05 L 101.10 80.64 L 99.34 80.23 L 97.65 79.84 L 96.00 80.54 L 94.34 81.25 L 92.69 81.96 L 91.03 82.66 L 89.38 83.37 L 87.72 84.08 L 86.06 84.79 L 85.90 84.86 L 84.98 86.41 L 84.07 87.96 L 83.15 89.51 L 82.24 91.06 L 81.33 92.61 L 80.41 94.16 L 79.50 95.71 L 79.28 96.08 L 79.46 97.87 L 79.64 99.66 L 79.83 101.45 L 80.01 103.24 L 80.19 105.03 L 80.37 106.82 L 80.55 108.61 L 80.62 109.29 L 81.83 110.62 L 83.04 111.96 L 84.24 113.29 L 85.45 114.63 L 86.66 115.96 L 87.87 117.30 L 89.07 118.63 L 89.70 119.32 L 91.46 119.68 L 93.22 120.04 L 94.99 120.40 L 96.75 120.76 L 98.51 121.12 L 100.28 121.48 L 102.04 121.84 L 103.20 122.07 L 104.83 121.32 L 106.47 120.56 L 108.10 119.81 L 109.73 119.05 L 111.37 118.30 L 113.00 117.54 L 114.64 116.79 L 115.94 116.19 L 116.81 114.61 L 117.68 113.03 L 118.55 111.46 L 119.42 109.88 L 120.29 108.30 L 121.16 106.73 L 122.03 105.15 L 122.84 103.67 L 122.61 101.88 L 122.38 100.10 L 122.14 98.31 L 121.91 96.53 L 121.67 94.74 L 121.44 92.96 L 121.21 91.17 L 120.97 89.39 L 120.95 89.23 L 119.71 87.93 L 118.46 86.63 L 117.21 85.33 L 115.97 84.03 L 114.72 82.73 L 113.48 81.44 L 112.23 80.14 L 110.98 78.84 L 110.69 78.53 L 108.92 78.22 L 107.15 77.92 L 105.37 77.61 L 103.60 77.30 L 101.82 76.99 L 100.05 76.68 L 98.28 76.37 L 96.50 76.07 L 95.83 75.95 L 94.22 76.75 L 92.60 77.55 L 90.99 78.36 L 89.38 79.16 L 87.77 79.96 L 86.16 80.76 L 84.55 81.57 L 82.94 82.37 L 82.08 82.80 L 81.26 84.40 L 80.44 86.00 L 79.61 87.60 L 78.79 89.20 L 77.97 90.80 L 77.15 92.40 L 76.33 94.00 L 75.50 95.61 L 74.94 96.69 L 75.23 98.47 L 75.52 100.25 L 75.80 102.03 L 76.09 103.80 L 76.38 105.58 L 76.66 107.36 L 76.95 109.13 L 77.23 110.91 L 77.47 112.39 L 78.76 113.65 L 80.04 114.91 L 81.32 116.17 L 82.61 117.43 L 83.89 118.70 L 85.18 119.96 L 86.46 121.22 L 87.74 122.48 L 89.00 123.72 L 90.78 123.97 L 92.57 124.23 L 94.35 124.49 L 96.13 124.74 L 97.91 125.00 L 99.69 125.25 L 101.47 125.51 L 103.26 125.76 L 105.04 126.02 L 105.27 126.05 L 106.86 125.20 L 108.45 124.35 L 110.03 123.50 L 111.62 122.65 L 113.21 121.80 L 114.79 120.95 L 116.38 120.10 L 117.97 119.25 L 119.55 118.40 L 120.01 118.16 L 120.78 116.54 L 121.55 114.91 L 122.33 113.29 L 123.10 111.66 L 123.88 110.04 L 124.65 108.41 L 125.43 106.79 L 126.20 105.16 L 126.98 103.54 L 127.31 102.83 L 126.97 101.06 L 126.63 99.29 L 126.30 97.53 L 125.96 95.76 L 125.62 93.99 L 125.28 92.22 L 124.94 90.46 L 124.60 88.69 L 124.26 86.92 L 124.06 85.88 L 122.74 84.66 L 121.42 83.43 L 120.10 82.21 L 118.78 80.99 L 117.46 79.77 L 116.14 78.54 L 114.82 77.32 L 113.49 76.10 L 112.17 74.87 L 111.20 73.97 L 109.41 73.77 L 107.62 73.56 L 105.83 73.36 L 104.04 73.16 L 102.25 72.96 L 100.47 72.76 L 98.68 72.55 L 96.89 72.35 L 95.10 72.15 L 93.51 71.97 L 91.94 72.87 L 90.38 73.76 L 88.82 74.66 L 87.26 75.56 L 85.70 76.45 L 84.14 77.35 L 82.58 78.25 L 81.02 79.14 L 79.46 80.04 L 77.90 80.94 L 77.83 80.98 L 77.11 82.62 L 76.38 84.27 L 75.66 85.92 L 74.93 87.57 L 74.21 89.21 L 73.48 90.86 L 72.75 92.51 L 72.03 94.16 L 71.30 95.80 L 70.58 97.45 L 70.44 97.77 L 70.83 99.53 L 71.22 101.28 L 71.61 103.04 L 72.01 104.80 L 72.40 106.55 L 72.79 108.31 L 73.18 110.07 L 73.57 111.82 L 73.97 113.58 L 74.36 115.34 L 74.49 115.94 L 75.85 117.13 L 77.21 118.31 L 78.56 119.49 L 79.92 120.67 L 81.28 121.86 L 82.63 123.04 L 83.99 124.22 L 85.35 125.40 L 86.70 126.59 L 88.06 127.77 L 88.73 128.35 L 90.52 128.50 L 92.32 128.65 L 94.11 128.80 L 95.91 128.95 L 97.70 129.10 L 99.49 129.25 L 101.29 129.39 L 103.08 129.54 L 104.88 129.69 L 106.67 129.84 L 107.82 129.94 L 109.36 128.99 L 110.89 128.05 L 112.42 127.10 L 113.95 126.16 L 115.49 125.22 L 117.02 124.27 L 118.55 123.33 L 120.09 122.39 L 121.62 121.44 L 123.15 120.50 L 124.37 119.76 L 125.04 118.09 L 125.72 116.42 L 126.39 114.75 L 127.07 113.08 L 127.74 111.41 L 128.42 109.74 L 129.09 108.08 L 129.77 106.41 L 130.45 104.74 L 131.12 103.07 L 131.76 101.51 L 131.31 99.76 L 130.87 98.02 L 130.42 96.27 L 129.98 94.53 L 129.53 92.78 L 129.09 91.04 L 128.64 89.30 L 128.20 87.55 L 127.75 85.81 L 127.31 84.06 L 126.86 82.32 L 126.83 82.17 L 125.43 81.03 L 124.04 79.89 L 122.65 78.75 L 121.26 77.61 L 119.87 76.46 L 118.48 75.32 L 117.08 74.18 L 115.69 73.04 L 114.30 71.90 L 112.91 70.76 L 111.52 69.62 L 111.20 69.36 L 109.40 69.26 L 107.60 69.17 L 105.81 69.07 L 104.01 68.98 L 102.21 68.88 L 100.41 68.79 L 98.62 68.69 L 96.82 68.60 L 95.02 68.50 L 93.22 68.41 L 91.43 68.32 L 90.76 68.28 L 89.25 69.27 L 87.75 70.26 L 86.25 71.25 L 84.74 72.24 L 83.24 73.23 L 81.73 74.22 L 80.23 75.21 L 78.73 76.19 L 77.22 77.18 L 75.72 78.17 L 74.21 79.16 L 73.44 79.67 L 72.82 81.36 L 72.19 83.05 L 71.57 84.73 L 70.94 86.42 L 70.32 88.11 L 69.69 89.80 L 69.07 91.49 L 68.44 93.17 L 67.82 94.86 L 67.19 96.55 L 66.57 98.24 L 66.16 99.34 L 66.65 101.07 L 67.15 102.80 L 67.65 104.53 L 68.14 106.26 L 68.64 107.99 L 69.14 109.72 L 69.63 111.45 L 70.13 113.18 L 70.63 114.91 L 71.13 116.64 L 71.62 118.37 L 72.02 119.74 L 73.44 120.84 L 74.87 121.94 L 76.29 123.04 L 77.72 124.14 L 79.14 125.24 L 80.57 126.34 L 81.99 127.44 L 83.42 128.54 L 84.85 129.64 L 86.27 130.73 L 87.70 131.83 L 89.02 132.86 L 90.82 132.90 L 92.62 132.94 L 94.42 132.98 L 96.22 133.02 L 98.02 133.06 L 99.82 133.10 L 101.62 133.14 L 103.42 133.18 L 105.22 133.22 L 107.02 133.26 L 108.82 133.30 L 110.62 133.34 L 110.73 133.34 L 112.21 132.31 L 113.68 131.28 L 115.16 130.24 L 116.63 129.21 L 118.10 128.17 L 119.58 127.14 L 121.05 126.11 L 122.52 125.07 L 124.00 124.04 L 125.47 123.00 L 126.94 121.97 L 128.42 120.94 L 128.71 120.73 L 129.28 119.03 L 129.86 117.32 L 130.43 115.61 L 131.00 113.91 L 131.58 112.20 L 132.15 110.50 L 132.73 108.79 L 133.30 107.08 L 133.87 105.38 L 134.45 103.67 L 135.02 101.97 L 135.60 100.26 L 135.78 99.70 L 135.24 97.98 L 134.69 96.27 L 134.14 94.55 L 133.59 92.84 L 133.04 91.12 L 132.49 89.41 L 131.94 87.70 L 131.40 85.98 L 130.85 84.27 L 130.30 82.55 L 129.75 80.84 L 129.20 79.12 L 128.95 78.34 L 127.49 77.28 L 126.03 76.23 L 124.58 75.17 L 123.12 74.12 L 121.66 73.06 L 120.20 72.01 L 118.74 70.95 L 117.29 69.89 L 115.83 68.84 L 114.37 67.78 L 112.91 66.73 L 111.45 65.67 L 110.60 65.05 L 108.80 65.07 L 107.00 65.08 L 105.20 65.09 L 103.40 65.11 L 101.60 65.12 L 99.80 65.13 L 98.00 65.15 L 96.20 65.16 L 94.40 65.18 L 92.60 65.19 L 90.80 65.20 L 89.00 65.22 L 87.72 65.23 L 86.28 66.30 L 84.84 67.38 L 83.40 68.46 L 81.96 69.54 L 80.51 70.61 L 79.07 71.69 L 77.63 72.77 L 76.19 73.85 L 74.75 74.93 L 73.31 76.00 L 71.86 77.08 L 70.42 78.16 L 69.22 79.06 L 68.70 80.78 L 68.18 82.50 L 67.65 84.22 L 67.13 85.95 L 66.61 87.67 L 66.09 89.39 L 65.56 91.11 L 65.04 92.84 L 64.52 94.56 L 64.00 96.28 L 63.47 98.00 L 62.95 99.73 L 62.45 101.37 L 63.05 103.06 L 63.65 104.76 L 64.25 106.46 L 64.85 108.16 L 65.45 109.85 L 66.05 111.55 L 66.65 113.25 L 67.25 114.94 L 67.85 116.64 L 68.45 118.34 L 69.05 120.04 L 69.65 121.73 L 70.25 123.43 L 70.29 123.55 L 71.78 124.56 L 73.27 125.57 L 74.76 126.58 L 76.25 127.60 L 77.74 128.61 L 79.23 129.62 L 80.72 130.63 L 82.20 131.64 L 83.69 132.65 L 85.18 133.66 L 86.67 134.68 L 88.16 135.69 L 89.65 136.70 L 89.93 136.89 L 91.72 136.82 L 93.52 136.75 L 95.32 136.68 L 97.12 136.62 L 98.92 136.55 L 100.72 136.48 L 102.52 136.41 L 104.32 136.35 L 106.11 136.28 L 107.91 136.21 L 109.71 136.14 L 111.51 136.08 L 113.31 136.01 L 113.85 135.99 L 115.26 134.87 L 116.67 133.75 L 118.07 132.63 L 119.48 131.51 L 120.89 130.39 L 122.30 129.27 L 123.71 128.15 L 125.12 127.03 L 126.53 125.91 L 127.94 124.79 L 129.35 123.66 L 130.75 122.54 L 132.16 121.42 L 132.74 120.97 L 133.21 119.23 L 133.68 117.49 L 134.15 115.75 L 134.62 114.02 L 135.09 112.28 L 135.56 110.54 L 136.04 108.80 L 136.51 107.07 L 136.98 105.33 L 137.45 103.59 L 137.92 101.86 L 138.39 100.12 L 138.86 98.38 L 139.10 97.48 L 138.45 95.80 L 137.80 94.12 L 137.15 92.45 L 136.50 90.77 L 135.85 89.09 L 135.20 87.41 L 134.55 85.73 L 133.90 84.05 L 133.25 82.38 L 132.60 80.70 L 131.95 79.02 L 131.30 77.34 L 130.65 75.66 L 130.25 74.62 L 128.73 73.65 L 127.21 72.68 L 125.69 71.72 L 124.17 70.75 L 122.65 69.78 L 121.13 68.82 L 119.62 67.85 L 118.10 66.88 L 116.58 65.92 L 115.06 64.95 L 113.54 63.98 L 112.02 63.02 L 110.51 62.05 L 109.40 61.35 L 107.61 61.47 L 105.81 61.59 L 104.02 61.71 L 102.22 61.83 L 100.43 61.95 L 98.63 62.07 L 96.83 62.20 L 95.04 62.32 L 93.24 62.44 L 91.45 62.56 L 89.65 62.68 L 87.85 62.80 L 86.06 62.92 L 84.57 63.02 L 83.20 64.18 L 81.82 65.35 L 80.45 66.51 L 79.07 67.67 L 77.70 68.83 L 76.32 69.99 L 74.95 71.16 L 73.57 72.32 L 72.20 73.48 L 70.82 74.64 L 69.45 75.80 L 68.08 76.96 L 66.70 78.13 L 65.43 79.20 L 65.01 80.95 L 64.59 82.70 L 64.17 84.45 L 63.75 86.20 L 63.33 87.95 L 62.92 89.70 L 62.50 91.45 L 62.08 93.20 L 61.66 94.95 L 61.24 96.70 L 60.82 98.46 L 60.40 100.21 L 59.98 101.96 L 59.56 103.71 L 59.56 103.74 L 60.26 105.40 L 60.96 107.06 L 61.66 108.72 L 62.36 110.37 L 63.05 112.03 L 63.75 113.69 L 64.45 115.35 L 65.15 117.01 L 65.85 118.67 L 66.55 120.33 L 67.25 121.98 L 67.95 123.64 L 68.65 125.30 L 69.35 126.96 L 69.43 127.15 L 70.98 128.07 L 72.52 128.99 L 74.07 129.91 L 75.62 130.83 L 77.16 131.75 L 78.71 132.67 L 80.26 133.59 L 81.80 134.52 L 83.35 135.44 L 84.90 136.36 L 86.44 137.28 L 87.99 138.20 L 89.53 139.12 L 91.08 140.04 L 91.39 140.23 L 93.19 140.05 L 94.98 139.88 L 96.77 139.71 L 98.56 139.53 L 100.35 139.36 L 102.14 139.18 L 103.94 139.01 L 105.73 138.84 L 107.52 138.66 L 109.31 138.49 L 111.10 138.31 L 112.89 138.14 L 114.68 137.96 L 116.48 137.79 L 117.00 137.74 L 118.34 136.54 L 119.68 135.34 L 121.02 134.13 L 122.36 132.93 L 123.70 131.73 L 125.04 130.53 L 126.38 129.33 L 127.72 128.12 L 129.06 126.92 L 130.40 125.72 L 131.74 124.52 L 133.07 123.32 L 134.42 122.11 L 135.76 120.91 L 136.26 120.46 L 136.63 118.70 L 136.99 116.94 L 137.36 115.17 L 137.73 113.41 L 138.09 111.65 L 138.46 109.89 L 138.83 108.12 L 139.20 106.36 L 139.56 104.60 L 139.93 102.84 L 140.30 101.08 L 140.66 99.31 L 141.03 97.55 L 141.40 95.79 L 141.57 94.98 L 140.82 93.34 L 140.07 91.71 L 139.32 90.07 L 138.57 88.43 L 137.83 86.79 L 137.08 85.16 L 136.33 83.52 L 135.58 81.88 L 134.83 80.25 L 134.08 78.61 L 133.34 76.97 L 132.59 75.34 L 131.84 73.70 L 131.09 72.06 L 130.69 71.18 L 129.11 70.30 L 127.54 69.43 L 125.97 68.55 L 124.39 67.68 L 122.82 66.80 L 121.25 65.93 L 119.68 65.05 L 118.10 64.18 L 116.53 63.30 L 114.96 62.42 L 113.39 61.55 L 111.81 60.67 L 110.24 59.80 L 108.67 58.92 L 107.69 58.38 L 105.91 58.61 L 104.12 58.84 L 102.34 59.06 L 100.55 59.29 L 98.77 59.52 L 96.98 59.74 L 95.20 59.97 L 93.41 60.20 L 91.62 60.42 L 89.84 60.65 L 88.05 60.88 L 86.27 61.10 L 84.48 61.33 L 82.70 61.56 L 81.46 61.72 L 80.15 62.96 L 78.85 64.20 L 77.54 65.44 L 76.24 66.68 L 74.93 67.92 L 73.63 69.16 L 72.33 70.40 L 71.02 71.64 L 69.72 72.88 L 68.41 74.12 L 67.11 75.36 L 65.81 76.60 L 64.50 77.84 L 63.20 79.09 L 62.20 80.04 L 61.88 81.81 L 61.56 83.58 L 61.25 85.35 L 60.93 87.13 L 60.62 88.90 L 60.30 90.67 L 59.99 92.44 L 59.67 94.22 L 59.36 95.99 L 59.04 97.76 L 58.73 99.53 L 58.41 101.30 L 58.09 103.08 L 57.78 104.85 L 57.51 106.34 L 58.31 107.95 L 59.11 109.57 L 59.90 111.18 L 60.70 112.80 L 61.49 114.41 L 62.29 116.03 L 63.09 117.64 L 63.88 119.25 L 64.68 120.87 L 65.47 122.48 L 66.27 124.10 L 67.06 125.71 L 67.86 127.33 L 68.66 128.94 L 69.38 130.41 L 70.98 131.24 L 72.58 132.07 L 74.17 132.90 L 75.77 133.73 L 77.37 134.56 L 78.97 135.39 L 80.56 136.22 L 82.16 137.04 L 83.76 137.87 L 85.36 138.70 L 86.96 139.53 L 88.55 140.36 L 90.15 141.19 L 91.75 142.02 L 93.31 142.83 L 95.09 142.55 L 96.87 142.27 L 98.65 141.99 L 100.43 141.72 L 102.20 141.44 L 103.98 141.16 L 105.76 140.88 L 107.54 140.60 L 109.32 140.32 L 111.09 140.04 L 112.87 139.76 L 114.65 139.49 L 116.43 139.21 L 118.21 138.93 L 119.99 138.65 L 120.07 138.64 L 121.33 137.36 L 122.60 136.08 L 123.87 134.80 L 125.14 133.52 L 126.40 132.25 L 127.67 130.97 L 128.94 129.69 L 130.21 128.41 L 131.47 127.13 L 132.74 125.86 L 134.01 124.58 L 135.28 123.30 L 136.54 122.02 L 137.81 120.74 L 139.08 119.47 L 139.22 119.33 L 139.48 117.55 L 139.74 115.77 L 140.01 113.98 L 140.27 112.20 L 140.54 110.42 L 140.80 108.64 L 141.06 106.86 L 141.33 105.08 L 141.59 103.30 L 141.86 101.52 L 142.12 99.74 L 142.38 97.96 L 142.65 96.18 L 142.91 94.40 L 143.18 92.62 L 143.22 92.31 L 142.38 90.72 L 141.54 89.13 L 140.69 87.54 L 139.85 85.95 L 139.01 84.36 L 138.17 82.77 L 137.33 81.18 L 136.48 79.59 L 135.64 78.00 L 134.80 76.40 L 133.96 74.81 L 133.11 73.22 L 132.27 71.63 L 131.43 70.04 L 130.59 68.45 L 130.39 68.08 L 128.77 67.30 L 127.15 66.52 L 125.53 65.73 L 123.91 64.95 L 122.29 64.17 L 120.67 63.38 L 119.04 62.60 L 117.42 61.82 L 115.80 61.04 L 114.18 60.25 L 112.56 59.47 L 110.94 58.69 L 109.32 57.91 L 107.70 57.12 L 106.08 56.34 L 105.60 56.11 L 103.83 56.44 L 102.06 56.77 L 100.29 57.10 L 98.52 57.43 L 96.75 57.76 L 94.99 58.09 L 93.22 58.42 L 91.45 58.75 L 89.68 59.08 L 87.91 59.41 L 86.14 59.74 L 84.37 60.07 L 82.60 60.40 L 80.83 60.73 L 79.06 61.06 L 78.44 61.17 L 77.21 62.49 L 75.98 63.80 L 74.75 65.12 L 73.52 66.43 L 72.29 67.74 L 71.06 69.06 L 69.83 70.37 L 68.60 71.69 L 67.37 73.00 L 66.14 74.31 L 64.91 75.63 L 63.68 76.94 L 62.45 78.26 L 61.22 79.57 L 59.99 80.88 L 59.48 81.42 L 59.27 83.21 L 59.06 85.00 L 58.85 86.78 L 58.63 88.57 L 58.42 90.36 L 58.21 92.14 L 57.99 93.93 L 57.78 95.72 L 57.57 97.51 L 57.36 99.29 L 57.14 101.08 L 56.93 102.87 L 56.72 104.66 L 56.51 106.44 L 56.29 108.23 L 56.20 109.06 L 57.08 110.63 L 57.97 112.19 L 58.86 113.76 L 59.74 115.32 L 60.63 116.89 L 61.52 118.46 L 62.41 120.02 L 63.29 121.59 L 64.18 123.15 L 65.07 124.72 L 65.96 126.29 L 66.84 127.85 L 67.73 129.42 L 68.62 130.98 L 69.51 132.55 L 69.97 133.36 L 71.61 134.10 L 73.25 134.83 L 74.89 135.57 L 76.54 136.31 L 78.18 137.04 L 79.82 137.78 L 81.46 138.51 L 83.11 139.25 L 84.75 139.99 L 86.39 140.72 L 88.04 141.46 L 89.68 142.19 L 91.32 142.93 L 92.96 143.67 L 94.61 144.40 L 95.55 144.82 L 97.31 144.44 L 99.07 144.06 L 100.82 143.68 L 102.58 143.30 L 104.34 142.92 L 106.10 142.54 L 107.86 142.16 L 109.62 141.78 L 111.38 141.40 L 113.14 141.02 L 114.90 140.64 L 116.66 140.26 L 118.42 139.88 L 120.18 139.50 L 121.94 139.12 L 123.04 138.88 L 124.23 137.54 L 125.42 136.19 L 126.61 134.84 L 127.81 133.49 L 129.00 132.14 L 130.19 130.79 L 131.38 129.44 L 132.58 128.10 L 133.77 126.75 L 134.96 125.40 L 136.15 124.05 L 137.34 122.70 L 138.54 121.35 L 139.73 120.01 L 140.92 118.66 L 141.73 117.74 L 141.89 115.95 L 142.05 114.16 L 142.22 112.36 L 142.38 110.57 L 142.54 108.78 L 142.70 106.99 L 142.86 105.19 L 143.03 103.40 L 143.19 101.61 L 143.35 99.82 L 143.51 98.02 L 143.67 96.23 L 143.83 94.44 L 144.00 92.65 L 144.16 90.85 L 144.28 89.55 L 143.34 88.01 L 142.41 86.46 L 141.48 84.92 L 140.55 83.38 L 139.62 81.84 L 138.69 80.30 L 137.76 78.76 L 136.82 77.22 L 135.89 75.68 L 134.96 74.14 L 134.03 72.60 L 133.10 71.06 L 132.17 69.52 L 131.24 67.98 L 130.30 66.44 L 129.58 65.24 L 127.92 64.55 L 126.25 63.86 L 124.59 63.17 L 122.93 62.48 L 121.26 61.79 L 119.60 61.10 L 117.94 60.41 L 116.28 59.73 L 114.61 59.04 L 112.95 58.35 L 111.29 57.66 L 109.62 56.97 L 107.96 56.28 L 106.30 55.59 L 104.64 54.90 L 103.25 54.33 L 101.51 54.76 L 99.76 55.19 L 98.01 55.62 L 96.26 56.05 L 94.51 56.48 L 92.77 56.91 L 91.02 57.33 L 89.27 57.76 L 87.52 58.19 L 85.77 58.62 L 84.03 59.05 L 82.28 59.48 L 80.53 59.91 L 78.78 60.34 L 77.03 60.77 L 75.49 61.15 L 74.34 62.53 L 73.18 63.91 L 72.03 65.30 L 70.88 66.68 L 69.72 68.06 L 68.57 69.44 L 67.41 70.82 L 66.26 72.20 L 65.11 73.58 L 63.95 74.97 L 62.80 76.35 L 61.64 77.73 L 60.49 79.11 L 59.34 80.49 L 58.18 81.87 L 57.11 83.16 L 57.00 84.96 L 56.88 86.75 L 56.77 88.55 L 56.66 90.35 L 56.55 92.14 L 56.44 93.94 L 56.33 95.74 L 56.22 97.53 L 56.10 99.33 L 55.99 101.13 L 55.88 102.92 L 55.77 104.72 L 55.66 106.52 L 55.55 108.31 L 55.43 110.11 L 55.32 111.87 L 56.30 113.39 L 57.27 114.90 L 58.25 116.42 L 59.22 117.93 L 60.20 119.44 L 61.17 120.96 L 62.14 122.47 L 63.12 123.98 L 64.09 125.50 L 65.07 127.01 L 66.04 128.52 L 67.01 130.04 L 67.99 131.55 L 68.96 133.07 L 69.94 134.58 L 70.91 136.09 L 70.94 136.14 L 72.63 136.79 L 74.31 137.43 L 75.99 138.07 L 77.67 138.71 L 79.35 139.36 L 81.03 140.00 L 82.71 140.64 L 84.40 141.28 L 86.08 141.93 L 87.76 142.57 L 89.44 143.21 L 91.12 143.85 L 92.80 144.50 L 94.48 145.14 L 96.17 145.78 L 97.85 146.42 L 97.99 146.48 L 99.73 146.00 L 101.46 145.52 L 103.20 145.05 L 104.93 144.57 L 106.67 144.09 L 108.40 143.61 L 110.14 143.13 L 111.87 142.65 L 113.61 142.18 L 115.34 141.70 L 117.08 141.22 L 118.81 140.74 L 120.55 140.26 L 122.29 139.79 L 124.02 139.31 L 125.76 138.83 L 125.99 138.76 L 127.11 137.35 L 128.23 135.94 L 129.34 134.52 L 130.45 133.11 L 131.57 131.70 L 132.68 130.29 L 133.80 128.87 L 134.92 127.46 L 136.03 126.05 L 137.15 124.63 L 138.26 123.22 L 139.38 121.81 L 140.49 120.39 L 141.61 118.98 L 142.72 117.57 L 143.84 116.15 L 144.05 115.89 L 144.11 114.09 L 144.17 112.29 L 144.23 110.49 L 144.29 108.69 L 144.35 106.89 L 144.42 105.09 L 144.48 103.30 L 144.54 101.50 L 144.60 99.70 L 144.66 97.90 L 144.72 96.10 L 144.79 94.30 L 144.85 92.50 L 144.91 90.70 L 144.97 88.90 L 145.03 87.10 L 145.05 86.67 L 144.03 85.18 L 143.02 83.70 L 142.00 82.21 L 140.98 80.73 L 139.97 79.24 L 138.95 77.75 L 137.94 76.27 L 136.92 74.78 L 135.90 73.30 L 134.89 71.81 L 133.87 70.32 L 132.86 68.84 L 131.84 67.35 L 130.83 65.87 L 129.81 64.38 L 128.79 62.89 L 128.49 62.45 L 126.79 61.86 L 125.10 61.26 L 123.40 60.67 L 121.70 60.07 L 120.00 59.47 L 118.30 58.88 L 116.60 58.28 L 114.91 57.69 L 113.21 57.09 L 111.51 56.50 L 109.81 55.90 L 108.11 55.30 L 106.41 54.71 L 104.71 54.11 L 103.02 53.52 L 101.32 52.92 L 100.72 52.71 L 99.00 53.24 L 97.28 53.76 L 95.56 54.29 L 93.84 54.82 L 92.11 55.34 L 90.39 55.87 L 88.67 56.39 L 86.95 56.92 L 85.23 57.44 L 83.51 57.97 L 81.79 58.50 L 80.06 59.02 L 78.34 59.55 L 76.62 60.07 L 74.90 60.60 L 73.18 61.13 L 72.48 61.34 L 71.40 62.78 L 70.33 64.23 L 69.25 65.67 L 68.18 67.11 L 67.10 68.56 L 66.03 70.00 L 64.95 71.44 L 63.87 72.89 L 62.80 74.33 L 61.72 75.77 L 60.65 77.22 L 59.57 78.66 L 58.49 80.10 L 57.42 81.54 L 56.34 82.99 L 55.27 84.43 L 54.77 85.10 L 54.76 86.90 L 54.75 88.70 L 54.73 90.50 L 54.72 92.30 L 54.71 94.10 L 54.70 95.90 L 54.69 97.70 L 54.67 99.50 L 54.66 101.30 L 54.65 103.10 L 54.64 104.90 L 54.63 106.70 L 54.61 108.50 L 54.60 110.30 L 54.59 112.10 L 54.58 113.90 L 54.57 114.84 L 55.63 116.29 L 56.68 117.75 L 57.74 119.21 L 58.79 120.67 L 59.85 122.12 L 60.91 123.58 L 61.96 125.04 L 63.02 126.50 L 64.08 127.95 L 65.13 129.41 L 66.19 130.87 L 67.24 132.33 L 68.30 133.78 L 69.36 135.24 L 70.41 136.70 L 71.47 138.16 L 72.08 139.00 L 73.80 139.55 L 75.51 140.10 L 77.23 140.65 L 78.94 141.20 L 80.65 141.75 L 82.37 142.30 L 84.08 142.85 L 85.80 143.39 L 87.51 143.94 L 89.23 144.49 L 90.94 145.04 L 92.65 145.59 L 94.37 146.14 L 96.08 146.69 L 97.80 147.24 L 99.51 147.79 L 100.61 148.14 L 102.32 147.57 L 104.02 146.99 L 105.73 146.42 L 107.44 145.85 L 109.14 145.27 L 110.85 144.70 L 112.56 144.13 L 114.26 143.56 L 115.97 142.98 L 117.67 142.41 L 119.38 141.84 L 121.09 141.26 L 122.79 140.69 L 124.50 140.12 L 126.21 139.55 L 127.91 138.97 L 129.11 138.57 L 130.15 137.10 L 131.18 135.63 L 132.22 134.15 L 133.26 132.68 L 134.29 131.21 L 135.33 129.74 L 136.36 128.27 L 137.40 126.79 L 138.44 125.32 L 139.47 123.85 L 140.51 122.38 L 141.54 120.91 L 142.58 119.43 L 143.62 117.96 L 144.65 116.49 L 145.69 115.02 L 146.48 113.89 L 146.44 112.09 L 146.41 110.29 L 146.37 108.49 L 146.33 106.69 L 146.30 104.89 L 146.26 103.09 L 146.22 101.29 L 146.19 99.49 L 146.15 97.69 L 146.11 95.89 L 146.07 94.09 L 146.04 92.29 L 146.00 90.49 L 145.96 88.69 L 145.93 86.89 L 145.89 85.09 L 145.86 83.59 L 144.76 82.17 L 143.67 80.74 L 142.57 79.31 L 141.48 77.88 L 140.38 76.45 L 139.29 75.02 L 138.19 73.60 L 137.09 72.17 L 136.00 70.74 L 134.90 69.31 L 133.81 67.88 L 132.71 66.45 L 131.62 65.03 L 130.52 63.60 L 129.43 62.17 L 128.33 60.74 L 127.34 59.45 L 125.61 58.95 L 123.89 58.45 L 122.16 57.95 L 120.43 57.45 L 118.70 56.94 L 116.97 56.44 L 115.24 55.94 L 113.51 55.44 L 111.79 54.94 L 110.06 54.43 L 108.33 53.93 L 106.60 53.43 L 104.87 52.93 L 103.14 52.43 L 101.41 51.92 L 99.69 51.42 L 98.01 50.93 L 96.32 51.55 L 94.63 52.17 L 92.94 52.79 L 91.25 53.41 L 89.56 54.03 L 87.87 54.65 L 86.18 55.27 L 84.49 55.88 L 82.80 56.50 L 81.11 57.12 L 79.42 57.74 L 77.72 58.36 L 76.03 58.98 L 74.34 59.60 L 72.65 60.22 L 70.96 60.84 L 69.27 61.46 L 69.20 61.48 L 68.21 62.98 L 67.21 64.48 L 66.22 65.98 L 65.22 67.48 L 64.22 68.98 L 63.23 70.48 L 62.23 71.98 L 61.24 73.48 L 60.24 74.98 L 59.25 76.48 L 58.25 77.98 L 57.26 79.48 L 56.26 80.98 L 55.26 82.48 L 54.27 83.98 L 53.27 85.48 L 52.28 86.98 L 52.16 87.15 L 52.25 88.95 L 52.33 90.75 L 52.42 92.54 L 52.51 94.34 L 52.59 96.14 L 52.68 97.94 L 52.76 99.74 L 52.85 101.53 L 52.93 103.33 L 53.02 105.13 L 53.11 106.93 L 53.19 108.73 L 53.28 110.52 L 53.36 112.32 L 53.45 114.12 L 53.54 115.92 L 53.62 117.72 L 53.64 118.06 L 54.77 119.46 L 55.91 120.86 L 57.04 122.26 L 58.17 123.65 L 59.31 125.05 L 60.44 126.45 L 61.57 127.85 L 62.71 129.25 L 63.84 130.64 L 64.98 132.04 L 66.11 133.44 L 67.24 134.84 L 68.38 136.24 L 69.51 137.63 L 70.65 139.03 L 71.78 140.43 L 72.91 141.83 L 73.22 142.21 L 74.96 142.66 L 76.70 143.12 L 78.44 143.57 L 80.19 144.03 L 81.93 144.48 L 83.67 144.94 L 85.41 145.39 L 87.15 145.85 L 88.89 146.30 L 90.64 146.76 L 92.38 147.21 L 94.12 147.67 L 95.86 148.12 L 97.60 148.58 L 99.34 149.03 L 101.08 149.49 L 102.83 149.94 L 103.44 150.10 L 105.11 149.44 L 106.78 148.77 L 108.46 148.11 L 110.13 147.45 L 111.80 146.78 L 113.47 146.12 L 115.15 145.45 L 116.82 144.79 L 118.49 144.12 L 120.17 143.46 L 121.84 142.79 L 123.51 142.13 L 125.18 141.46 L 126.86 140.80 L 128.53 140.14 L 130.20 139.47 L 131.88 138.81 L 132.60 138.52 L 133.56 136.99 L 134.51 135.47 L 135.47 133.94 L 136.42 132.41 L 137.37 130.89 L 138.33 129.36 L 139.28 127.83 L 140.24 126.31 L 141.19 124.78 L 142.15 123.26 L 143.10 121.73 L 144.06 120.20 L 145.01 118.68 L 145.97 117.15 L 146.92 115.63 L 147.88 114.10 L 148.83 112.57 L 149.32 111.78 L 149.19 109.99 L 149.06 108.19 L 148.92 106.40 L 148.79 104.60 L 148.65 102.81 L 148.52 101.01 L 148.38 99.22 L 148.25 97.42 L 148.11 95.63 L 147.98 93.83 L 147.84 92.04 L 147.71 90.24 L 147.58 88.45 L 147.44 86.65 L 147.31 84.86 L 147.17 83.06 L 147.04 81.27 L 146.96 80.18 L 145.78 78.81 L 144.61 77.45 L 143.44 76.08 L 142.27 74.71 L 141.10 73.34 L 139.93 71.98 L 138.76 70.61 L 137.59 69.24 L 136.42 67.88 L 135.24 66.51 L 134.07 65.14 L 132.90 63.78 L 131.73 62.41 L 130.56 61.04 L 129.39 59.68 L 128.22 58.31 L 127.05 56.94 L 126.23 55.99 L 124.48 55.58 L 122.72 55.18 L 120.97 54.77 L 119.22 54.36 L 117.46 53.95 L 115.71 53.54 L 113.96 53.14 L 112.20 52.73 L 110.45 52.32 L 108.70 51.91 L 106.94 51.50 L 105.19 51.10 L 103.44 50.69 L 101.68 50.28 L 99.93 49.87 L 98.18 49.47 L 96.42 49.06 L 95.04 48.74 L 93.39 49.45 L 91.73 50.16 L 90.08 50.87 L 88.42 51.57 L 86.77 52.28 L 85.12 52.99 L 83.46 53.70 L 81.81 54.41 L 80.15 55.12 L 78.50 55.83 L 76.84 56.54 L 75.19 57.25 L 73.54 57.96 L 71.88 58.67 L 70.23 59.38 L 68.57 60.09 L 66.92 60.80 L 65.46 61.43 L 64.54 62.98 L 63.63 64.53 L 62.72 66.08 L 61.80 67.63 L 60.89 69.18 L 59.98 70.73 L 59.07 72.29 L 58.15 73.84 L 57.24 75.39 L 56.33 76.94 L 55.41 78.49 L 54.50 80.04 L 53.59 81.59 L 52.68 83.15 L 51.76 84.70 L 50.85 86.25 L 49.94 87.80 L 49.04 89.32 L 49.22 91.11 L 49.41 92.90 L 49.59 94.69 L 49.77 96.48 L 49.96 98.28 L 50.14 100.07 L 50.32 101.86 L 50.50 103.65 L 50.69 105.44 L 50.87 107.23 L 51.05 109.02 L 51.24 110.81 L 51.42 112.60 L 51.60 114.39 L 51.79 116.18 L 51.97 117.97 L 52.15 119.76 L 52.34 121.55 L 52.35 121.70 L 53.56 123.03 L 54.77 124.37 L 55.97 125.70 L 57.18 127.04 L 58.39 128.37 L 59.60 129.71 L 60.81 131.04 L 62.01 132.38 L 63.22 133.71 L 64.43 135.05 L 65.64 136.38 L 66.84 137.71 L 68.05 139.05 L 69.26 140.38 L 70.47 141.72 L 71.68 143.05 L 72.88 144.39 L 74.09 145.72 L 74.31 145.97 L 76.08 146.33 L 77.84 146.69 L 79.61 147.05 L 81.37 147.41 L 83.13 147.77 L 84.90 148.13 L 86.66 148.49 L 88.42 148.85 L 90.19 149.21 L 91.95 149.57 L 93.71 149.93 L 95.48 150.29 L 97.24 150.65 L 99.01 151.01 L 100.77 151.37 L 102.53 151.73 L 104.30 152.09 L 106.06 152.45 L 106.57 152.56 L 108.20 151.80 L 109.84 151.05 L 111.47 150.29 L 113.11 149.54 L 114.74 148.79 L 116.38 148.03 L 118.01 147.28 L 119.65 146.52 L 121.28 145.77 L 122.91 145.02 L 124.55 144.26 L 126.18 143.51 L 127.82 142.75 L 129.45 142.00 L 131.09 141.24 L 132.72 140.49 L 134.36 139.74 L 135.99 138.98 L 136.64 138.68 L 137.51 137.11 L 138.38 135.53 L 139.25 133.96 L 140.12 132.38 L 140.99 130.80 L 141.86 129.23 L 142.73 127.65 L 143.60 126.08 L 144.47 124.50 L 145.34 122.93 L 146.21 121.35 L 147.08 119.78 L 147.96 118.20 L 148.83 116.63 L 149.70 115.05 L 150.57 113.47 L 151.44 111.90 L 152.31 110.32 L 152.75 109.52 L 152.52 107.74 L 152.29 105.95 L 152.05 104.17 L 151.82 102.38 L 151.59 100.60 L 151.36 98.81 L 151.13 97.03 L 150.90 95.24 L 150.66 93.46 L 150.43 91.67 L 150.20 89.89 L 149.97 88.10 L 149.74 86.32 L 149.51 84.53 L 149.28 82.75 L 149.04 80.96 L 148.81 79.18 L 148.58 77.39 L 148.44 76.29 L 147.19 74.98 L 145.95 73.68 L 144.71 72.38 L 143.46 71.08 L 142.22 69.78 L 140.97 68.48 L 139.73 67.18 L 138.49 65.88 L 137.24 64.57 L 136.00 63.27 L 134.76 61.97 L 133.51 60.67 L 132.27 59.37 L 131.03 58.07 L 129.78 56.77 L 128.54 55.47 L 127.29 54.16 L 126.05 52.86 L 125.14 51.91 L 123.36 51.59 L 121.59 51.28 L 119.82 50.97 L 118.05 50.66 L 116.27 50.35 L 114.50 50.03 L 112.73 49.72 L 110.95 49.41 L 109.18 49.10 L 107.41 48.79 L 105.64 48.47 L 103.86 48.16 L 102.09 47.85 L 100.32 47.54 L 98.55 47.23 L 96.77 46.91 L 95.00 46.60 L 93.23 46.29 L 91.72 46.02 L 90.10 46.82 L 88.49 47.62 L 86.88 48.42 L 85.26 49.22 L 83.65 50.01 L 82.04 50.81 L 80.42 51.61 L 78.81 52.41 L 77.20 53.21 L 75.58 54.01 L 73.97 54.81 L 72.36 55.60 L 70.74 56.40 L 69.13 57.20 L 67.52 58.00 L 65.90 58.80 L 64.29 59.60 L 62.68 60.39 L 61.11 61.17 L 60.28 62.77 L 59.45 64.37 L 58.63 65.97 L 57.80 67.56 L 56.97 69.16 L 56.14 70.76 L 55.32 72.36 L 54.49 73.96 L 53.66 75.56 L 52.84 77.16 L 52.01 78.75 L 51.18 80.35 L 50.35 81.95 L 49.53 83.55 L 48.70 85.15 L 47.87 86.75 L 47.05 88.35 L 46.22 89.94 L 45.39 91.54 L 45.31 91.70 L 45.59 93.47 L 45.87 95.25 L 46.15 97.03 L 46.43 98.81 L 46.71 100.59 L 46.99 102.36 L 47.27 104.14 L 47.55 105.92 L 47.83 107.70 L 48.11 109.48 L 48.39 111.25 L 48.67 113.03 L 48.95 114.81 L 49.23 116.59 L 49.52 118.37 L 49.80 120.14 L 50.08 121.92 L 50.36 123.70 L 50.64 125.48 L 50.70 125.87 L 51.98 127.14 L 53.25 128.40 L 54.53 129.67 L 55.81 130.94 L 57.09 132.20 L 58.37 133.47 L 59.65 134.74 L 60.93 136.00 L 62.21 137.27 L 63.48 138.54 L 64.76 139.80 L 66.04 141.07 L 67.32 142.34 L 68.60 143.60 L 69.88 144.87 L 71.16 146.14 L 72.44 147.40 L 73.71 148.67 L 74.99 149.94 L 75.44 150.38 L 77.22 150.64 L 79.00 150.90 L 80.78 151.17 L 82.56 151.43 L 84.34 151.69 L 86.12 151.96 L 87.90 152.22 L 89.68 152.48 L 91.46 152.75 L 93.24 153.01 L 95.02 153.27 L 96.80 153.54 L 98.58 153.80 L 100.36 154.06 L 102.14 154.33 L 103.93 154.59 L 105.71 154.86 L 107.49 155.12 L 109.27 155.38 L 110.11 155.51 L 111.70 154.67 L 113.29 153.82 L 114.89 152.98 L 116.48 152.14 L 118.07 151.30 L 119.66 150.45 L 121.25 149.61 L 122.84 148.77 L 124.43 147.93 L 126.02 147.09 L 127.61 146.24 L 129.20 145.40 L 130.79 144.56 L 132.38 143.72 L 133.97 142.87 L 135.57 142.03 L 137.16 141.19 L 138.75 140.35 L 140.34 139.51 L 141.30 139.00 L 142.08 137.38 L 142.87 135.75 L 143.65 134.13 L 144.43 132.51 L 145.22 130.89 L 146.00 129.27 L 146.78 127.65 L 147.57 126.03 L 148.35 124.41 L 149.13 122.79 L 149.92 121.17 L 150.70 119.55 L 151.48 117.93 L 152.26 116.31 L 153.05 114.68 L 153.83 113.06 L 154.61 111.44 L 155.40 109.82 L 156.18 108.20 L 156.76 107.00 L 156.43 105.23 L 156.10 103.46 L 155.77 101.69 L 155.44 99.93 L 155.11 98.16 L 154.78 96.39 L 154.46 94.62 L 154.13 92.85 L 153.80 91.08 L 153.47 89.31 L 153.14 87.54 L 152.81 85.77 L 152.48 84.00 L 152.15 82.23 L 151.83 80.46 L 151.50 78.69 L 151.17 76.92 L 150.84 75.15 L 150.51 73.38 L 150.22 71.83 L 148.91 70.60 L 147.60 69.37 L 146.28 68.14 L 144.97 66.91 L 143.66 65.68 L 142.34 64.45 L 141.03 63.22 L 139.72 61.98 L 138.40 60.75 L 137.09 59.52 L 135.78 58.29 L 134.46 57.06 L 133.15 55.83 L 131.84 54.60 L 130.52 53.37 L 129.21 52.13 L 127.90 50.90 L 126.59 49.67 L 125.27 48.44 L 123.96 47.21 L 123.95 47.20 L 122.16 46.98 L 120.37 46.77 L 118.58 46.56 L 116.80 46.34 L 115.01 46.13 L 113.22 45.91 L 111.44 45.70 L 109.65 45.48 L 107.86 45.27 L 106.07 45.05 L 104.29 44.84 L 102.50 44.63 L 100.71 44.41 L 98.93 44.20 L 97.14 43.98 L 95.35 43.77 L 93.56 43.55 L 91.78 43.34 L 89.99 43.13 L 88.20 42.91 L 87.94 42.88 L 86.37 43.77 L 84.80 44.65 L 83.24 45.54 L 81.67 46.42 L 80.10 47.31 L 78.53 48.19 L 76.97 49.08 L 75.40 49.97 L 73.83 50.85 L 72.27 51.74 L 70.70 52.62 L 69.13 53.51 L 67.57 54.39 L 66.00 55.28 L 64.43 56.17 L 62.86 57.05 L 61.30 57.94 L 59.73 58.82 L 58.16 59.71 L 56.60 60.59 L 56.14 60.85 L 55.41 62.49 L 54.67 64.13 L 53.93 65.78 L 53.19 67.42 L 52.45 69.06 L 51.72 70.70 L 50.98 72.34 L 50.24 73.98 L 49.50 75.63 L 48.76 77.27 L 48.03 78.91 L 47.29 80.55 L 46.55 82.19 L 45.81 83.84 L 45.07 85.48 L 44.34 87.12 L 43.60 88.76 L 42.86 90.40 L 42.12 92.04 L 41.38 93.69 L 41.07 94.39 L 41.44 96.15 L 41.82 97.91 L 42.20 99.67 L 42.58 101.43 L 42.96 103.19 L 43.33 104.95 L 43.71 106.71 L 44.09 108.47 L 44.47 110.23 L 44.84 111.99 L 45.22 113.75 L 45.60 115.51 L 45.98 117.27 L 46.36 119.03 L 46.73 120.79 L 47.11 122.55 L 47.49 124.31 L 47.87 126.07 L 48.24 127.83 L 48.62 129.59 L 48.84 130.60 L 50.19 131.80 L 51.53 132.99 L 52.88 134.18 L 54.23 135.38 L 55.57 136.57 L 56.92 137.77 L 58.27 138.96 L 59.61 140.16 L 60.96 141.35 L 62.31 142.55 L 63.65 143.74 L 65.00 144.93 L 66.35 146.13 L 67.69 147.32 L 69.04 148.52 L 70.39 149.71 L 71.73 150.90 L 73.08 152.10 L 74.43 153.29 L 75.77 154.49 L 76.74 155.35 L 78.53 155.51 L 80.33 155.67 L 82.12 155.84 L 83.91 156.00 L 85.70 156.17 L 87.50 156.33 L 89.29 156.50 L 91.08 156.66 L 92.87 156.83 L 94.67 156.99 L 96.46 157.16 L 98.25 157.32 L 100.04 157.49 L 101.84 157.65 L 103.63 157.81 L 105.42 157.98 L 107.21 158.14 L 109.00 158.31 L 110.80 158.47 L 112.59 158.64 L 114.14 158.78 L 115.68 157.85 L 117.22 156.92 L 118.76 155.99 L 120.31 155.06 L 121.85 154.14 L 123.39 153.21 L 124.93 152.28 L 126.47 151.35 L 128.01 150.42 L 129.56 149.49 L 131.10 148.56 L 132.64 147.63 L 134.18 146.70 L 135.72 145.77 L 137.26 144.85 L 138.81 143.92 L 140.35 142.99 L 141.89 142.06 L 143.43 141.13 L 144.97 140.20 L 146.52 139.27 L 146.53 139.26 L 147.23 137.60 L 147.92 135.94 L 148.61 134.28 L 149.30 132.61 L 149.99 130.95 L 150.68 129.29 L 151.38 127.63 L 152.07 125.97 L 152.76 124.30 L 153.45 122.64 L 154.14 120.98 L 154.84 119.32 L 155.53 117.66 L 156.22 116.00 L 156.91 114.33 L 157.60 112.67 L 158.30 111.01 L 158.99 109.35 L 159.68 107.69 L 160.37 106.03 L 161.06 104.36 L 161.17 104.10 L 160.75 102.35 L 160.32 100.60 L 159.89 98.85 L 159.47 97.11 L 159.04 95.36 L 158.61 93.61 L 158.19 91.86 L 157.76 90.11 L 157.33 88.36 L 156.91 86.61 L 156.48 84.86 L 156.05 83.12 L 155.63 81.37 L 155.20 79.62 L 154.77 77.87 L 154.35 76.12 L 153.92 74.37 L 153.49 72.62 L 153.07 70.88 L 152.64 69.13 L 152.21 67.38 L 152.08 66.84 L 150.70 65.68 L 149.32 64.53 L 147.94 63.37 L 146.56 62.21 L 145.18 61.06 L 143.81 59.90 L 142.43 58.75 L 141.05 57.59 L 139.67 56.43 L 138.29 55.28 L 136.91 54.12 L 135.53 52.97 L 134.15 51.81 L 132.77 50.65 L 131.39 49.50 L 130.01 48.34 L 128.63 47.18 L 127.25 46.03 L 125.87 44.87 L 124.49 43.72 L 123.11 42.56 L 122.48 42.03 L 120.68 41.92 L 118.89 41.80 L 117.09 41.69 L 115.29 41.57 L 113.50 41.46 L 111.70 41.34 L 109.90 41.23 L 108.11 41.11 L 106.31 41.00 L 104.52 40.89 L 102.72 40.77 L 100.92 40.66 L 99.13 40.54 L 97.33 40.43 L 95.53 40.31 L 93.74 40.20 L 91.94 40.08 L 90.14 39.97 L 88.35 39.86 L 86.55 39.74 L 84.76 39.63 L 83.66 39.56 L 82.15 40.53 L 80.63 41.50 L 79.12 42.47 L 77.60 43.44 L 76.09 44.42 L 74.57 45.39 L 73.06 46.36 L 71.54 47.33 L 70.03 48.30 L 68.51 49.28 L 67.00 50.25 L 65.48 51.22 L 63.97 52.19 L 62.45 53.16 L 60.94 54.14 L 59.42 55.11 L 57.91 56.08 L 56.39 57.05 L 54.88 58.02 L 53.36 58.99 L 51.85 59.97 L 50.70 60.70 L 50.05 62.39 L 49.41 64.07 L 48.76 65.75 L 48.12 67.43 L 47.47 69.11 L 46.83 70.79 L 46.18 72.47 L 45.54 74.15 L 44.89 75.83 L 44.25 77.51 L 43.60 79.19 L 42.96 80.87 L 42.31 82.55 L 41.67 84.23 L 41.02 85.91 L 40.38 87.59 L 39.73 89.27 L 39.08 90.95 L 38.44 92.63 L 37.79 94.31 L 37.15 95.99 L 36.56 97.52 L 37.04 99.26 L 37.51 101.00 L 37.99 102.73 L 38.47 104.47 L 38.94 106.20 L 39.42 107.94 L 39.89 109.68 L 40.37 111.41 L 40.84 113.15 L 41.32 114.88 L 41.80 116.62 L 42.27 118.36 L 42.75 120.09 L 43.22 121.83 L 43.70 123.56 L 44.17 125.30 L 44.65 127.04 L 45.13 128.77 L 45.60 130.51 L 46.08 132.24 L 46.55 133.98 L 47.03 135.72 L 47.06 135.83 L 48.47 136.94 L 49.88 138.06 L 51.29 139.18 L 52.70 140.29 L 54.12 141.41 L 55.53 142.53 L 56.94 143.64 L 58.35 144.76 L 59.76 145.88 L 61.17 146.99 L 62.58 148.11 L 64.00 149.23 L 65.41 150.34 L 66.82 151.46 L 68.23 152.58 L 69.64 153.70 L 71.05 154.81 L 72.47 155.93 L 73.88 157.05 L 75.29 158.16 L 76.70 159.28 L 78.11 160.40 L 78.41 160.64 L 80.21 160.70 L 82.01 160.76 L 83.81 160.83 L 85.61 160.89 L 87.41 160.95 L 89.21 161.02 L 91.01 161.08 L 92.81 161.15 L 94.60 161.21 L 96.40 161.27 L 98.20 161.34 L 100.00 161.40 L 101.80 161.46 L 103.60 161.53 L 105.40 161.59 L 107.20 161.66 L 109.00 161.72 L 110.79 161.78 L 112.59 161.85 L 114.39 161.91 L 116.19 161.97 L 117.99 162.04 L 118.65 162.06 L 120.14 161.05 L 121.62 160.03 L 123.11 159.02 L 124.60 158.00 L 126.08 156.99 L 127.57 155.98 L 129.06 154.96 L 130.55 153.95 L 132.03 152.93 L 133.52 151.92 L 135.01 150.90 L 136.49 149.89 L 137.98 148.88 L 139.47 147.86 L 140.95 146.85 L 142.44 145.83 L 143.93 144.82 L 145.42 143.80 L 146.90 142.79 L 148.39 141.77 L 149.88 140.76 L 151.36 139.75 L 152.13 139.22 L 152.73 137.52 L 153.33 135.82 L 153.93 134.13 L 154.52 132.43 L 155.12 130.73 L 155.72 129.03 L 156.32 127.33 L 156.91 125.64 L 157.51 123.94 L 158.11 122.24 L 158.70 120.54 L 159.30 118.84 L 159.90 117.15 L 160.50 115.45 L 161.09 113.75 L 161.69 112.05 L 162.29 110.35 L 162.88 108.66 L 163.48 106.96 L 164.08 105.26 L 164.68 103.56 L 165.27 101.86 L 165.67 100.73 L 165.15 99.01 L 164.62 97.28 L 164.10 95.56 L 163.58 93.84 L 163.05 92.12 L 162.53 90.40 L 162.00 88.67 L 161.48 86.95 L 160.95 85.23 L 160.43 83.51 L 159.90 81.79 L 159.38 80.07 L 158.85 78.34 L 158.33 76.62 L 157.80 74.90 L 157.28 73.18 L 156.75 71.46 L 156.23 69.73 L 155.70 68.01 L 155.18 66.29 L 154.66 64.57 L 154.13 62.85 L 153.70 61.43 L 152.26 60.36 L 150.81 59.28 L 149.37 58.20 L 147.93 57.13 L 146.49 56.05 L 145.04 54.97 L 143.60 53.90 L 142.16 52.82 L 140.72 51.75 L 139.27 50.67 L 137.83 49.59 L 136.39 48.52 L 134.95 47.44 L 133.50 46.36 L 132.06 45.29 L 130.62 44.21 L 129.17 43.13 L 127.73 42.06 L 126.29 40.98 L 124.85 39.91 L 123.40 38.83 L 121.96 37.75 L 120.56 36.71 L 118.76 36.69 L 116.96 36.68 L 115.16 36.67 L 113.36 36.66 L 111.56 36.64 L 109.76 36.63 L 107.96 36.62 L 106.16 36.61 L 104.36 36.59 L 102.56 36.58 L 100.76 36.57 L 98.96 36.55 L 97.16 36.54 L 95.36 36.53 L 93.56 36.52 L 91.76 36.50 L 89.96 36.49 L 88.16 36.48 L 86.36 36.47 L 84.56 36.45 L 82.76 36.44 L 80.96 36.43 L 79.16 36.42 L 78.94 36.42 L 77.48 37.47 L 76.03 38.53 L 74.57 39.58 L 73.11 40.64 L 71.65 41.70 L 70.19 42.75 L 68.74 43.81 L 67.28 44.86 L 65.82 45.92 L 64.36 46.98 L 62.91 48.03 L 61.45 49.09 L 59.99 50.15 L 58.53 51.20 L 57.08 52.26 L 55.62 53.31 L 54.16 54.37 L 52.70 55.43 L 51.25 56.48 L 49.79 57.54 L 48.33 58.59 L 46.87 59.65 L 45.42 60.71 L 45.02 60.99 L 44.47 62.71 L 43.92 64.42 L 43.37 66.14 L 42.82 67.85 L 42.28 69.56 L 41.73 71.28 L 41.18 72.99 L 40.63 74.71 L 40.08 76.42 L 39.53 78.14 L 38.98 79.85 L 38.43 81.56 L 37.89 83.28 L 37.34 84.99 L 36.79 86.71 L 36.24 88.42 L 35.69 90.14 L 35.14 91.85 L 34.59 93.56 L 34.05 95.28 L 33.50 96.99 L 32.95 98.71 L 32.40 100.42 L 32.17 101.14 L 32.74 102.85 L 33.32 104.56 L 33.89 106.26 L 34.46 107.97 L 35.04 109.67 L 35.61 111.38 L 36.18 113.09 L 36.76 114.79 L 37.33 116.50 L 37.90 118.20 L 38.48 119.91 L 39.05 121.62 L 39.62 123.32 L 40.20 125.03 L 40.77 126.74 L 41.35 128.44 L 41.92 130.15 L 42.49 131.85 L 43.07 133.56 L 43.64 135.27 L 44.21 136.97 L 44.79 138.68 L 45.36 140.39 L 45.68 141.35 L 47.16 142.39 L 48.63 143.42 L 50.10 144.46 L 51.58 145.49 L 53.05 146.53 L 54.52 147.56 L 55.99 148.60 L 57.47 149.63 L 58.94 150.67 L 60.41 151.70 L 61.89 152.74 L 63.36 153.77 L 64.83 154.81 L 66.30 155.84 L 67.78 156.88 L 69.25 157.91 L 70.72 158.95 L 72.20 159.98 L 73.67 161.02 L 75.14 162.05 L 76.61 163.09 L 78.09 164.12 L 79.56 165.16 L 80.61 165.90 L 82.41 165.86 L 84.21 165.82 L 86.01 165.78 L 87.81 165.74 L 89.61 165.70 L 91.41 165.66 L 93.21 165.62 L 95.01 165.59 L 96.81 165.55 L 98.61 165.51 L 100.41 165.47 L 102.21 165.43 L 104.01 165.39 L 105.81 165.35 L 107.61 165.31 L 109.41 165.28 L 111.21 165.24 L 113.00 165.20 L 114.80 165.16 L 116.60 165.12 L 118.40 165.08 L 120.20 165.04 L 122.00 165.00 L 123.55 164.97 L 124.98 163.87 L 126.41 162.78 L 127.83 161.68 L 129.26 160.58 L 130.69 159.48 L 132.11 158.39 L 133.54 157.29 L 134.97 156.19 L 136.39 155.09 L 137.82 154.00 L 139.25 152.90 L 140.67 151.80 L 142.10 150.71 L 143.53 149.61 L 144.95 148.51 L 146.38 147.41 L 147.81 146.32 L 149.23 145.22 L 150.66 144.12 L 152.09 143.02 L 153.52 141.93 L 154.94 140.83 L 156.37 139.73 L 157.80 138.63 L 157.80 138.63 L 158.30 136.90 L 158.80 135.17 L 159.30 133.44 L 159.80 131.71 L 160.30 129.98 L 160.80 128.25 L 161.30 126.52 L 161.80 124.79 L 162.30 123.07 L 162.80 121.34 L 163.30 119.61 L 163.80 117.88 L 164.30 116.15 L 164.79 114.42 L 165.29 112.69 L 165.79 110.96 L 166.29 109.23 L 166.79 107.50 L 167.29 105.77 L 167.79 104.04 L 168.29 102.31 L 168.79 100.58 L 169.29 98.85 L 169.79 97.13 L 169.86 96.87 L 169.24 95.18 L 168.62 93.49 L 168.00 91.80 L 167.37 90.11 L 166.75 88.42 L 166.13 86.74 L 165.51 85.05 L 164.89 83.36 L 164.26 81.67 L 163.64 79.98 L 163.02 78.29 L 162.40 76.60 L 161.78 74.91 L 161.15 73.22 L 160.53 71.53 L 159.91 69.85 L 159.29 68.16 L 158.67 66.47 L 158.04 64.78 L 157.42 63.09 L 156.80 61.40 L 156.18 59.71 L 155.55 58.02 L 154.93 56.33 L 154.75 55.84 L 153.25 54.85 L 151.75 53.86 L 150.25 52.87 L 148.74 51.87 L 147.24 50.88 L 145.74 49.89 L 144.24 48.90 L 142.74 47.91 L 141.24 46.91 L 139.73 45.92 L 138.23 44.93 L 136.73 43.94 L 135.23 42.94 L 133.73 41.95 L 132.22 40.96 L 130.72 39.97 L 129.22 38.98 L 127.72 37.98 L 126.22 36.99 L 124.72 36.00 L 123.21 35.01 L 121.71 34.01 L 120.21 33.02 L 118.71 32.03 L 118.06 31.60 L 116.27 31.69 L 114.47 31.79 L 112.67 31.88 L 110.87 31.97 L 109.07 32.06 L 107.28 32.15 L 105.48 32.24 L 103.68 32.33 L 101.88 32.42 L 100.09 32.51 L 98.29 32.60 L 96.49 32.69 L 94.69 32.78 L 92.90 32.87 L 91.10 32.96 L 89.30 33.05 L 87.50 33.14 L 85.70 33.23 L 83.91 33.32 L 82.11 33.41 L 80.31 33.50 L 78.51 33.59 L 76.72 33.68 L 74.92 33.77 L 73.90 33.82 L 72.50 34.96 L 71.11 36.10 L 69.71 37.24 L 68.32 38.38 L 66.93 39.51 L 65.53 40.65 L 64.14 41.79 L 62.74 42.93 L 61.35 44.06 L 59.95 45.20 L 58.56 46.34 L 57.16 47.48 L 55.77 48.62 L 54.37 49.75 L 52.98 50.89 L 51.58 52.03 L 50.19 53.17 L 48.79 54.30 L 47.40 55.44 L 46.00 56.58 L 44.61 57.72 L 43.21 58.86 L 41.82 59.99 L 40.42 61.13 L 39.44 61.93 L 38.99 63.68 L 38.54 65.42 L 38.09 67.16 L 37.64 68.90 L 37.20 70.65 L 36.75 72.39 L 36.30 74.13 L 35.85 75.88 L 35.40 77.62 L 34.95 79.36 L 34.50 81.11 L 34.05 82.85 L 33.60 84.59 L 33.15 86.33 L 32.70 88.08 L 32.25 89.82 L 31.80 91.56 L 31.35 93.31 L 30.90 95.05 L 30.45 96.79 L 30.00 98.53 L 29.55 100.28 L 29.10 102.02 L 28.65 103.76 L 28.28 105.22 L 28.95 106.89 L 29.62 108.56 L 30.29 110.24 L 30.96 111.91 L 31.63 113.58 L 32.30 115.25 L 32.97 116.92 L 33.64 118.59 L 34.31 120.26 L 34.98 121.93 L 35.65 123.60 L 36.32 125.27 L 36.99 126.94 L 37.66 128.61 L 38.33 130.28 L 39.00 131.95 L 39.67 133.62 L 40.34 135.29 L 41.01 136.96 L 41.68 138.63 L 42.35 140.31 L 43.02 141.98 L 43.69 143.65 L 44.36 145.32 L 45.01 146.94 L 46.54 147.89 L 48.07 148.83 L 49.60 149.78 L 51.13 150.73 L 52.66 151.68 L 54.19 152.63 L 55.72 153.58 L 57.25 154.53 L 58.78 155.47 L 60.31 156.42 L 61.84 157.37 L 63.37 158.32 L 64.90 159.27 L 66.43 160.22 L 67.96 161.17 L 69.49 162.12 L 71.02 163.06 L 72.55 164.01 L 74.08 164.96 L 75.61 165.91 L 77.14 166.86 L 78.67 167.81 L 80.20 168.76 L 81.73 169.71 L 83.26 170.65 L 83.41 170.75 L 85.21 170.61 L 87.00 170.47 L 88.80 170.32 L 90.59 170.18 L 92.38 170.04 L 94.18 169.90 L 95.97 169.76 L 97.77 169.61 L 99.56 169.47 L 101.36 169.33 L 103.15 169.19 L 104.94 169.05 L 106.74 168.90 L 108.53 168.76 L 110.33 168.62 L 112.12 168.48 L 113.92 168.34 L 115.71 168.19 L 117.51 168.05 L 119.30 167.91 L 121.09 167.77 L 122.89 167.63 L 124.68 167.48 L 126.48 167.34 L 128.27 167.20 L 128.68 167.17 L 130.05 165.99 L 131.41 164.81 L 132.77 163.64 L 134.13 162.46 L 135.49 161.28 L 136.85 160.10 L 138.21 158.93 L 139.58 157.75 L 140.94 156.57 L 142.30 155.39 L 143.66 154.22 L 145.02 153.04 L 146.38 151.86 L 147.75 150.68 L 149.11 149.51 L 150.47 148.33 L 151.83 147.15 L 153.19 145.97 L 154.55 144.80 L 155.91 143.62 L 157.28 142.44 L 158.64 141.26 L 160.00 140.09 L 161.36 138.91 L 162.72 137.73 L 163.21 137.31 L 163.61 135.56 L 164.00 133.80 L 164.40 132.05 L 164.80 130.29 L 165.20 128.54 L 165.60 126.78 L 166.00 125.03 L 166.40 123.27 L 166.80 121.52 L 167.20 119.76 L 167.60 118.01 L 168.00 116.25 L 168.40 114.50 L 168.80 112.74 L 169.19 110.99 L 169.59 109.23 L 169.99 107.47 L 170.39 105.72 L 170.79 103.96 L 171.19 102.21 L 171.59 100.45 L 171.99 98.70 L 172.39 96.94 L 172.79 95.19 L 173.19 93.43 L 173.38 92.59 L 172.66 90.94 L 171.94 89.29 L 171.23 87.64 L 170.51 85.99 L 169.79 84.34 L 169.07 82.69 L 168.35 81.04 L 167.63 79.39 L 166.92 77.74 L 166.20 76.09 L 165.48 74.44 L 164.76 72.79 L 164.04 71.13 L 163.33 69.48 L 162.61 67.83 L 161.89 66.18 L 161.17 64.53 L 160.45 62.88 L 159.74 61.23 L 159.02 59.58 L 158.30 57.93 L 157.58 56.28 L 156.86 54.63 L 156.14 52.98 L 155.43 51.33 L 154.99 50.33 L 153.44 49.43 L 151.88 48.53 L 150.33 47.62 L 148.77 46.72 L 147.21 45.81 L 145.66 44.91 L 144.10 44.01 L 142.54 43.10 L 140.99 42.20 L 139.43 41.29 L 137.87 40.39 L 136.32 39.48 L 134.76 38.58 L 133.20 37.68 L 131.65 36.77 L 130.09 35.87 L 128.54 34.96 L 126.98 34.06 L 125.42 33.15 L 123.87 32.25 L 122.31 31.35 L 120.75 30.44 L 119.20 29.54 L 117.64 28.63 L 116.08 27.73 L 114.96 27.08 L 113.17 27.27 L 111.38 27.46 L 109.59 27.66 L 107.80 27.85 L 106.01 28.04 L 104.22 28.24 L 102.43 28.43 L 100.65 28.63 L 98.86 28.82 L 97.07 29.01 L 95.28 29.21 L 93.49 29.40 L 91.70 29.59 L 89.91 29.79 L 88.12 29.98 L 86.33 30.17 L 84.54 30.37 L 82.75 30.56 L 80.96 30.76 L 79.17 30.95 L 77.38 31.14 L 75.59 31.34 L 73.80 31.53 L 72.01 31.72 L 70.22 31.92 L 68.72 32.08 L 67.40 33.30 L 66.07 34.51 L 64.74 35.73 L 63.42 36.94 L 62.09 38.16 L 60.76 39.38 L 59.43 40.59 L 58.11 41.81 L 56.78 43.02 L 55.45 44.24 L 54.13 45.46 L 52.80 46.67 L 51.47 47.89 L 50.15 49.10 L 48.82 50.32 L 47.49 51.54 L 46.16 52.75 L 44.84 53.97 L 43.51 55.19 L 42.18 56.40 L 40.86 57.62 L 39.53 58.83 L 38.20 60.05 L 36.87 61.27 L 35.55 62.48 L 34.28 63.64 L 33.94 65.41 L 33.59 67.17 L 33.24 68.94 L 32.89 70.70 L 32.54 72.47 L 32.19 74.24 L 31.84 76.00 L 31.49 77.77 L 31.15 79.53 L 30.80 81.30 L 30.45 83.07 L 30.10 84.83 L 29.75 86.60 L 29.40 88.36 L 29.06 90.13 L 28.71 91.90 L 28.36 93.66 L 28.01 95.43 L 27.66 97.19 L 27.31 98.96 L 26.96 100.73 L 26.61 102.49 L 26.27 104.26 L 25.92 106.02 L 25.57 107.79 L 25.22 109.55 L 25.20 109.67 L 25.96 111.30 L 26.73 112.93 L 27.49 114.56 L 28.26 116.19 L 29.02 117.81 L 29.79 119.44 L 30.56 121.07 L 31.32 122.70 L 32.09 124.33 L 32.85 125.96 L 33.62 127.59 L 34.38 129.22 L 35.15 130.85 L 35.91 132.48 L 36.68 134.11 L 37.44 135.74 L 38.21 137.36 L 38.97 138.99 L 39.74 140.62 L 40.51 142.25 L 41.27 143.88 L 42.04 145.51 L 42.80 147.14 L 43.57 148.77 L 44.33 150.40 L 45.10 152.03 L 45.23 152.31 L 46.81 153.17 L 48.39 154.03 L 49.98 154.89 L 51.56 155.75 L 53.14 156.61 L 54.72 157.47 L 56.30 158.33 L 57.88 159.18 L 59.47 160.04 L 61.05 160.90 L 62.63 161.76 L 64.21 162.62 L 65.79 163.48 L 67.38 164.34 L 68.96 165.20 L 70.54 166.06 L 72.12 166.92 L 73.70 167.78 L 75.28 168.63 L 76.87 169.49 L 78.45 170.35 L 80.03 171.21 L 81.61 172.07 L 83.19 172.93 L 84.77 173.79 L 86.36 174.65 L 86.80 174.89 L 88.58 174.64 L 90.37 174.40 L 92.15 174.15 L 93.93 173.91 L 95.72 173.66 L 97.50 173.42 L 99.28 173.17 L 101.07 172.93 L 102.85 172.68 L 104.63 172.44 L 106.42 172.20 L 108.20 171.95 L 109.98 171.71 L 111.77 171.46 L 113.55 171.21 L 115.33 170.97 L 117.12 170.72 L 118.90 170.48 L 120.68 170.23 L 122.47 169.99 L 124.25 169.74 L 126.03 169.50 L 127.82 169.25 L 129.60 169.01 L 131.38 168.76 L 133.17 168.52 L 133.86 168.43 L 135.15 167.17 L 136.44 165.92 L 137.73 164.66 L 139.02 163.41 L 140.31 162.16 L 141.60 160.90 L 142.90 159.65 L 144.19 158.39 L 145.48 157.14 L 146.77 155.89 L 148.06 154.63 L 149.35 153.38 L 150.64 152.12 L 151.94 150.87 L 153.23 149.62 L 154.52 148.36 L 155.81 147.11 L 157.10 145.86 L 158.39 144.60 L 159.68 143.35 L 160.98 142.09 L 162.27 140.84 L 163.56 139.59 L 164.85 138.33 L 166.14 137.08 L 167.43 135.82 L 168.06 135.21 L 168.36 133.44 L 168.66 131.66 L 168.96 129.89 L 169.25 128.11 L 169.55 126.34 L 169.85 124.56 L 170.15 122.79 L 170.45 121.01 L 170.74 119.24 L 171.04 117.46 L 171.34 115.69 L 171.64 113.91 L 171.93 112.13 L 172.23 110.36 L 172.53 108.58 L 172.83 106.81 L 173.12 105.03 L 173.42 103.26 L 173.72 101.48 L 174.02 99.71 L 174.31 97.93 L 174.61 96.16 L 174.91 94.38 L 175.21 92.61 L 175.51 90.83 L 175.80 89.06 L 175.98 88.01 L 175.17 86.41 L 174.35 84.80 L 173.54 83.19 L 172.73 81.59 L 171.92 79.98 L 171.11 78.37 L 170.29 76.77 L 169.48 75.16 L 168.67 73.56 L 167.86 71.95 L 167.05 70.34 L 166.23 68.74 L 165.42 67.13 L 164.61 65.52 L 163.80 63.92 L 162.99 62.31 L 162.17 60.70 L 161.36 59.10 L 160.55 57.49 L 159.74 55.88 L 158.93 54.28 L 158.12 52.67 L 157.30 51.06 L 156.49 49.46 L 155.68 47.85 L 154.87 46.24 L 154.31 45.14 L 152.71 44.33 L 151.10 43.52 L 149.49 42.70 L 147.89 41.89 L 146.28 41.08 L 144.68 40.27 L 143.07 39.45 L 141.47 38.64 L 139.86 37.83 L 138.25 37.01 L 136.65 36.20 L 135.04 35.39 L 133.44 34.57 L 131.83 33.76 L 130.22 32.95 L 128.62 32.13 L 127.01 31.32 L 125.41 30.51 L 123.80 29.69 L 122.20 28.88 L 120.59 28.07 L 118.98 27.25 L 117.38 26.44 L 115.77 25.63 L 114.17 24.81 L 112.56 24.00 L 111.31 23.37 L 109.53 23.66 L 107.76 23.96 L 105.98 24.26 L 104.21 24.55 L 102.43 24.85 L 100.66 25.14 L 98.88 25.44 L 97.11 25.74 L 95.33 26.03 L 93.55 26.33 L 91.78 26.62 L 90.00 26.92 L 88.23 27.22 L 86.45 27.51 L 84.68 27.81 L 82.90 28.10 L 81.13 28.40 L 79.35 28.70 L 77.57 28.99 L 75.80 29.29 L 74.02 29.59 L 72.25 29.88 L 70.47 30.18 L 68.70 30.47 L 66.92 30.77 L 65.15 31.07 L 63.60 31.32 L 62.34 32.61 L 61.09 33.91 L 59.83 35.20 L 58.58 36.49 L 57.32 37.78 L 56.07 39.07 L 54.81 40.36 L 53.56 41.65 L 52.31 42.94 L 51.05 44.23 L 49.80 45.52 L 48.54 46.81 L 47.29 48.10 L 46.03 49.39 L 44.78 50.68 L 43.52 51.97 L 42.27 53.26 L 41.01 54.55 L 39.76 55.84 L 38.50 57.13 L 37.25 58.42 L 35.99 59.71 L 34.74 61.00 L 33.48 62.30 L 32.23 63.59 L 30.97 64.88 L 29.77 66.12 L 29.52 67.90 L 29.27 69.68 L 29.03 71.47 L 28.78 73.25 L 28.53 75.03 L 28.29 76.81 L 28.04 78.60 L 27.79 80.38 L 27.55 82.16 L 27.30 83.95 L 27.05 85.73 L 26.81 87.51 L 26.56 89.30 L 26.31 91.08 L 26.07 92.86 L 25.82 94.64 L 25.57 96.43 L 25.33 98.21 L 25.08 99.99 L 24.83 101.78 L 24.59 103.56 L 24.34 105.34 L 24.10 107.13 L 23.85 108.91 L 23.60 110.69 L 23.36 112.48 L 23.11 114.26 L 23.10 114.34 L 23.96 115.93 L 24.81 117.51 L 25.67 119.09 L 26.53 120.67 L 27.39 122.26 L 28.24 123.84 L 29.10 125.42 L 29.96 127.00 L 30.82 128.59 L 31.67 130.17 L 32.53 131.75 L 33.39 133.33 L 34.25 134.92 L 35.10 136.50 L 35.96 138.08 L 36.82 139.66 L 37.68 141.25 L 38.54 142.83 L 39.39 144.41 L 40.25 145.99 L 41.11 147.58 L 41.97 149.16 L 42.82 150.74 L 43.68 152.32 L 44.54 153.91 L 45.40 155.49 L 46.25 157.07 L 46.37 157.28 L 48.00 158.05 L 49.63 158.82 L 51.25 159.58 L 52.88 160.35 L 54.51 161.12 L 56.14 161.88 L 57.77 162.65 L 59.40 163.42 L 61.03 164.18 L 62.65 164.95 L 64.28 165.72 L 65.91 166.48 L 67.54 167.25 L 69.17 168.02 L 70.80 168.79 L 72.42 169.55 L 74.05 170.32 L 75.68 171.09 L 77.31 171.85 L 78.94 172.62 L 80.57 173.39 L 82.20 174.15 L 83.82 174.92 L 85.45 175.69 L 87.08 176.45 L 88.71 177.22 L 90.34 177.99 L 90.69 178.15 L 92.45 177.80 L 94.22 177.46 L 95.99 177.11 L 97.75 176.76 L 99.52 176.42 L 101.29 176.07 L 103.05 175.72 L 104.82 175.38 L 106.58 175.03 L 108.35 174.68 L 110.12 174.34 L 111.88 173.99 L 113.65 173.64 L 115.42 173.29 L 117.18 172.95 L 118.95 172.60 L 120.71 172.25 L 122.48 171.91 L 124.25 171.56 L 126.01 171.21 L 127.78 170.87 L 129.55 170.52 L 131.31 170.17 L 133.08 169.83 L 134.84 169.48 L 136.61 169.13 L 138.38 168.78 L 138.90 168.68 L 140.12 167.36 L 141.33 166.03 L 142.55 164.70 L 143.77 163.38 L 144.99 162.05 L 146.20 160.73 L 147.42 159.40 L 148.64 158.08 L 149.86 156.75 L 151.07 155.42 L 152.29 154.10 L 153.51 152.77 L 154.72 151.45 L 155.94 150.12 L 157.16 148.79 L 158.38 147.47 L 159.59 146.14 L 160.81 144.82 L 162.03 143.49 L 163.25 142.16 L 164.46 140.84 L 165.68 139.51 L 166.90 138.19 L 168.12 136.86 L 169.33 135.54 L 170.55 134.21 L 171.77 132.88 L 172.22 132.39 L 172.42 130.60 L 172.61 128.81 L 172.81 127.02 L 173.00 125.23 L 173.20 123.44 L 173.40 121.65 L 173.59 119.86 L 173.79 118.07 L 173.98 116.29 L 174.18 114.50 L 174.37 112.71 L 174.57 110.92 L 174.76 109.13 L 174.96 107.34 L 175.15 105.55 L 175.35 103.76 L 175.54 101.97 L 175.74 100.18 L 175.94 98.39 L 176.13 96.60 L 176.33 94.81 L 176.52 93.02 L 176.72 91.23 L 176.91 89.44 L 177.11 87.66 L 177.30 85.87 L 177.50 84.08 L 177.59 83.27 L 176.68 81.72 L 175.78 80.16 L 174.88 78.60 L 173.98 77.04 L 173.07 75.49 L 172.17 73.93 L 171.27 72.37 L 170.37 70.82 L 169.46 69.26 L 168.56 67.70 L 167.66 66.14 L 166.75 64.59 L 165.85 63.03 L 164.95 61.47 L 164.05 59.91 L 163.14 58.36 L 162.24 56.80 L 161.34 55.24 L 160.44 53.69 L 159.53 52.13 L 158.63 50.57 L 157.73 49.01 L 156.83 47.46 L 155.92 45.90 L 155.02 44.34 L 154.12 42.78 L 153.22 41.23 L 152.74 40.41 L 151.09 39.69 L 149.45 38.97 L 147.80 38.25 L 146.15 37.53 L 144.50 36.81 L 142.85 36.09 L 141.20 35.37 L 139.55 34.65 L 137.90 33.93 L 136.25 33.21 L 134.60 32.49 L 132.95 31.77 L 131.30 31.05 L 129.65 30.33 L 128.00 29.61 L 126.35 28.89 L 124.70 28.17 L 123.05 27.45 L 121.40 26.73 L 119.75 26.01 L 118.10 25.29 L 116.45 24.57 L 114.80 23.85 L 113.15 23.13 L 111.50 22.41 L 109.85 21.69 L 108.20 20.97 L 107.22 20.55 L 105.47 20.94 L 103.71 21.34 L 101.96 21.74 L 100.20 22.14 L 98.45 22.53 L 96.69 22.93 L 94.93 23.33 L 93.18 23.73 L 91.42 24.12 L 89.67 24.52 L 87.91 24.92 L 86.16 25.31 L 84.40 25.71 L 82.64 26.11 L 80.89 26.51 L 79.13 26.90 L 77.38 27.30 L 75.62 27.70 L 73.87 28.10 L 72.11 28.49 L 70.36 28.89 L 68.60 29.29 L 66.84 29.68 L 65.09 30.08 L 63.33 30.48 L 61.58 30.88 L 59.82 31.27 L 58.66 31.54 L 57.48 32.90 L 56.30 34.26 L 55.12 35.62 L 53.94 36.98 L 52.76 38.34 L 51.58 39.70 L 50.41 41.06 L 49.23 42.42 L 48.05 43.78 L 46.87 45.14 L 45.69 46.50 L 44.51 47.86 L 43.33 49.22 L 42.15 50.58 L 40.97 51.94 L 39.79 53.30 L 38.61 54.66 L 37.43 56.02 L 36.26 57.38 L 35.08 58.74 L 33.90 60.10 L 32.72 61.46 L 31.54 62.82 L 30.36 64.18 L 29.18 65.54 L 28.00 66.90 L 26.82 68.26 L 25.96 69.25 L 25.82 71.04 L 25.67 72.84 L 25.53 74.63 L 25.39 76.43 L 25.24 78.22 L 25.10 80.02 L 24.95 81.81 L 24.81 83.60 L 24.66 85.40 L 24.52 87.19 L 24.38 88.99 L 24.23 90.78 L 24.09 92.57 L 23.94 94.37 L 23.80 96.16 L 23.65 97.96 L 23.51 99.75 L 23.37 101.55 L 23.22 103.34 L 23.08 105.13 L 22.93 106.93 L 22.79 108.72 L 22.64 110.52 L 22.50 112.31 L 22.36 114.10 L 22.21 115.90 L 22.07 117.69 L 21.95 119.12 L 22.90 120.65 L 23.85 122.18 L 24.79 123.71 L 25.74 125.24 L 26.68 126.78 L 27.63 128.31 L 28.58 129.84 L 29.52 131.37 L 30.47 132.90 L 31.42 134.43 L 32.36 135.96 L 33.31 137.49 L 34.26 139.02 L 35.20 140.55 L 36.15 142.09 L 37.10 143.62 L 38.04 145.15 L 38.99 146.68 L 39.94 148.21 L 40.88 149.74 L 41.83 151.27 L 42.78 152.80 L 43.72 154.33 L 44.67 155.86 L 45.62 157.39 L 46.56 158.93 L 47.51 160.46 L 48.32 161.77 L 49.99 162.45 L 51.66 163.12 L 53.33 163.79 L 55.00 164.46 L 56.67 165.14 L 58.34 165.81 L 60.01 166.48 L 61.68 167.15 L 63.35 167.83 L 65.02 168.50 L 66.69 169.17 L 68.36 169.85 L 70.03 170.52 L 71.70 171.19 L 73.37 171.86 L 75.04 172.54 L 76.71 173.21 L 78.38 173.88 L 80.05 174.56 L 81.71 175.23 L 83.38 175.90 L 85.05 176.57 L 86.72 177.25 L 88.39 177.92 L 90.06 178.59 L 91.73 179.26 L 93.40 179.94 L 94.94 180.56 L 96.68 180.11 L 98.43 179.66 L 100.17 179.22 L 101.91 178.77 L 103.66 178.32 L 105.40 177.87 L 107.14 177.43 L 108.89 176.98 L 110.63 176.53 L 112.37 176.09 L 114.12 175.64 L 115.86 175.19 L 117.61 174.75 L 119.35 174.30 L 121.09 173.85 L 122.84 173.40 L 124.58 172.96 L 126.32 172.51 L 128.07 172.06 L 129.81 171.62 L 131.55 171.17 L 133.30 170.72 L 135.04 170.28 L 136.79 169.83 L 138.53 169.38 L 140.27 168.93 L 142.02 168.49 L 143.73 168.05 L 144.87 166.66 L 146.01 165.26 L 147.15 163.87 L 148.29 162.48 L 149.43 161.08 L 150.57 159.69 L 151.71 158.30 L 152.85 156.91 L 153.99 155.51 L 155.13 154.12 L 156.27 152.73 L 157.41 151.33 L 158.55 149.94 L 159.69 148.55 L 160.83 147.15 L 161.97 145.76 L 163.11 144.37 L 164.25 142.98 L 165.39 141.58 L 166.53 140.19 L 167.67 138.80 L 168.81 137.40 L 169.95 136.01 L 171.09 134.62 L 172.23 133.22 L 173.37 131.83 L 174.51 130.44 L 175.65 129.05 L 175.70 128.99 L 175.79 127.19 L 175.88 125.39 L 175.98 123.60 L 176.07 121.80 L 176.16 120.00 L 176.26 118.20 L 176.35 116.41 L 176.44 114.61 L 176.54 112.81 L 176.63 111.01 L 176.72 109.22 L 176.82 107.42 L 176.91 105.62 L 177.00 103.82 L 177.10 102.02 L 177.19 100.23 L 177.28 98.43 L 177.38 96.63 L 177.47 94.83 L 177.56 93.04 L 177.66 91.24 L 177.75 89.44 L 177.84 87.64 L 177.94 85.85 L 178.03 84.05 L 178.12 82.25 L 178.22 80.45 L 178.31 78.66 L 178.32 78.48 L 177.33 76.98 L 176.34 75.47 L 175.35 73.97 L 174.36 72.46 L 173.37 70.96 L 172.38 69.46 L 171.39 67.95 L 170.40 66.45 L 169.41 64.95 L 168.42 63.44 L 167.43 61.94 L 166.44 60.44 L 165.45 58.93 L 164.46 57.43 L 163.48 55.93 L 162.49 54.42 L 161.50 52.92 L 160.51 51.41 L 159.52 49.91 L 158.53 48.41 L 157.54 46.90 L 156.55 45.40 L 155.56 43.90 L 154.57 42.39 L 153.58 40.89 L 152.59 39.39 L 151.60 37.88 L 150.61 36.38 L 150.46 36.14 L 148.77 35.52 L 147.08 34.89 L 145.39 34.27 L 143.70 33.64 L 142.02 33.02 L 140.33 32.39 L 138.64 31.77 L 136.95 31.14 L 135.26 30.52 L 133.58 29.89 L 131.89 29.27 L 130.20 28.64 L 128.51 28.02 L 126.83 27.39 L 125.14 26.77 L 123.45 26.14 L 121.76 25.52 L 120.07 24.89 L 118.39 24.27 L 116.70 23.64 L 115.01 23.02 L 113.32 22.39 L 111.63 21.77 L 109.95 21.14 L 108.26 20.52 L 106.57 19.89 L 104.88 19.26 L 103.19 18.64 L 102.84 18.51 L 101.11 19.00 L 99.38 19.50 L 97.65 20.00 L 95.92 20.49 L 94.19 20.99 L 92.46 21.48 L 90.73 21.98 L 89.00 22.48 L 87.27 22.97 L 85.54 23.47 L 83.81 23.97 L 82.07 24.46 L 80.34 24.96 L 78.61 25.45 L 76.88 25.95 L 75.15 26.45 L 73.42 26.94 L 71.69 27.44 L 69.96 27.93 L 68.23 28.43 L 66.50 28.93 L 64.77 29.42 L 63.04 29.92 L 61.31 30.41 L 59.58 30.91 L 57.85 31.41 L 56.12 31.90 L 54.39 32.40 L 53.93 32.53 L 52.83 33.96 L 51.73 35.38 L 50.63 36.80 L 49.53 38.23 L 48.43 39.65 L 47.33 41.08 L 46.23 42.50 L 45.13 43.93 L 44.03 45.35 L 42.93 46.78 L 41.83 48.20 L 40.73 49.63 L 39.63 51.05 L 38.53 52.47 L 37.43 53.90 L 36.33 55.32 L 35.23 56.75 L 34.13 58.17 L 33.03 59.60 L 31.93 61.02 L 30.83 62.45 L 29.73 63.87 L 28.63 65.30 L 27.53 66.72 L 26.43 68.15 L 25.33 69.57 L 24.23 70.99 L 23.12 72.42 L 22.77 72.87 L 22.73 74.67 L 22.69 76.47 L 22.65 78.27 L 22.60 80.07 L 22.56 81.87 L 22.52 83.67 L 22.48 85.47 L 22.43 87.27 L 22.39 89.07 L 22.35 90.87 L 22.31 92.67 L 22.26 94.47 L 22.22 96.27 L 22.18 98.07 L 22.14 99.87 L 22.09 101.67 L 22.05 103.46 L 22.01 105.26 L 21.97 107.06 L 21.92 108.86 L 21.88 110.66 L 21.84 112.46 L 21.80 114.26 L 21.75 116.06 L 21.71 117.86 L 21.67 119.66 L 21.63 121.46 L 21.58 123.26 L 21.57 123.93 L 22.60 125.40 L 23.63 126.88 L 24.66 128.35 L 25.69 129.83 L 26.72 131.30 L 27.76 132.78 L 28.79 134.25 L 29.82 135.73 L 30.85 137.20 L 31.88 138.68 L 32.91 140.15 L 33.95 141.63 L 34.98 143.10 L 36.01 144.58 L 37.04 146.05 L 38.07 147.53 L 39.10 149.00 L 40.13 150.48 L 41.17 151.95 L 42.20 153.43 L 43.23 154.90 L 44.26 156.38 L 45.29 157.85 L 46.32 159.33 L 47.36 160.81 L 48.39 162.28 L 49.42 163.76 L 50.45 165.23 L 50.89 165.85 L 52.59 166.43 L 54.30 167.01 L 56.00 167.59 L 57.71 168.16 L 59.41 168.74 L 61.12 169.32 L 62.82 169.90 L 64.53 170.47 L 66.23 171.05 L 67.94 171.63 L 69.64 172.21 L 71.34 172.78 L 73.05 173.36 L 74.75 173.94 L 76.46 174.52 L 78.16 175.09 L 79.87 175.67 L 81.57 176.25 L 83.28 176.83 L 84.98 177.40 L 86.69 177.98 L 88.39 178.56 L 90.10 179.14 L 91.80 179.71 L 93.51 180.29 L 95.21 180.87 L 96.92 181.45 L 98.62 182.02 L 99.43 182.30 L 101.15 181.75 L 102.86 181.21 L 104.58 180.66 L 106.30 180.12 L 108.01 179.58 L 109.73 179.03 L 111.44 178.49 L 113.16 177.94 L 114.87 177.40 L 116.59 176.85 L 118.31 176.31 L 120.02 175.76 L 121.74 175.22 L 123.45 174.67 L 125.17 174.13 L 126.88 173.59 L 128.60 173.04 L 130.32 172.50 L 132.03 171.95 L 133.75 171.41 L 135.46 170.86 L 137.18 170.32 L 138.89 169.77 L 140.61 169.23 L 142.32 168.68 L 144.04 168.14 L 145.76 167.60 L 147.47 167.05 L 148.37 166.76 L 149.43 165.31 L 150.49 163.85 L 151.55 162.40 L 152.61 160.94 L 153.67 159.49 L 154.73 158.03 L 155.79 156.58 L 156.85 155.12 L 157.91 153.67 L 158.97 152.22 L 160.03 150.76 L 161.09 149.30 L 162.15 147.85 L 163.21 146.39 L 164.27 144.94 L 165.33 143.49 L 166.39 142.03 L 167.45 140.58 L 168.51 139.12 L 169.57 137.67 L 170.63 136.21 L 171.69 134.76 L 172.75 133.30 L 173.81 131.85 L 174.87 130.39 L 175.93 128.94 L 176.99 127.48 L 178.05 126.03 L 178.66 125.19 L 178.65 123.39 L 178.64 121.59 L 178.64 119.79 L 178.63 117.99 L 178.62 116.19 L 178.61 114.39 L 178.60 112.59 L 178.60 110.79 L 178.59 108.99 L 178.58 107.19 L 178.57 105.39 L 178.57 103.59 L 178.56 101.79 L 178.55 99.99 L 178.54 98.19 L 178.53 96.39 L 178.53 94.59 L 178.52 92.79 L 178.51 90.99 L 178.50 89.19 L 178.49 87.39 L 178.49 85.59 L 178.48 83.79 L 178.47 81.99 L 178.46 80.19 L 178.45 78.39 L 178.45 76.59 L 178.44 74.79 L 178.43 73.66 L 177.36 72.21 L 176.29 70.77 L 175.22 69.32 L 174.14 67.88 L 173.07 66.43 L 172.00 64.98 L 170.93 63.54 L 169.85 62.09 L 168.78 60.65 L 167.71 59.20 L 166.64 57.76 L 165.56 56.31 L 164.49 54.86 L 163.42 53.42 L 162.35 51.97 L 161.27 50.53 L 160.20 49.08 L 159.13 47.64 L 158.06 46.19 L 156.99 44.74 L 155.91 43.30 L 154.84 41.85 L 153.77 40.41 L 152.70 38.96 L 151.62 37.52 L 150.55 36.07 L 149.48 34.63 L 148.41 33.18 L 147.68 32.20 L 145.96 31.67 L 144.24 31.14 L 142.52 30.61 L 140.80 30.08 L 139.08 29.55 L 137.36 29.02 L 135.63 28.49 L 133.92 27.96 L 132.19 27.43 L 130.47 26.90 L 128.75 26.37 L 127.03 25.84 L 125.31 25.32 L 123.59 24.79 L 121.87 24.26 L 120.15 23.73 L 118.43 23.20 L 116.71 22.67 L 114.99 22.14 L 113.27 21.61 L 111.55 21.08 L 109.83 20.55 L 108.11 20.02 L 106.39 19.49 L 104.67 18.96 L 102.95 18.43 L 101.23 17.90 L 99.51 17.37 L 98.25 16.99 L 96.55 17.58 L 94.85 18.17 L 93.15 18.76 L 91.45 19.35 L 89.75 19.95 L 88.05 20.54 L 86.36 21.13 L 84.65 21.72 L 82.95 22.32 L 81.26 22.91 L 79.56 23.50 L 77.86 24.09 L 76.16 24.68 L 74.46 25.28 L 72.76 25.87 L 71.06 26.46 L 69.36 27.05 L 67.66 27.65 L 65.96 28.24 L 64.26 28.83 L 62.56 29.42 L 60.86 30.01 L 59.16 30.61 L 57.46 31.20 L 55.76 31.79 L 54.06 32.38 L 52.36 32.98 L 50.66 33.57 L 49.33 34.03 L 48.31 35.51 L 47.30 37.00 L 46.28 38.48 L 45.26 39.97 L 44.24 41.45 L 43.22 42.93 L 42.20 44.42 L 41.18 45.90 L 40.16 47.39 L 39.15 48.87 L 38.13 50.35 L 37.11 51.84 L 36.09 53.32 L 35.07 54.81 L 34.05 56.29 L 33.03 57.77 L 32.01 59.26 L 31.00 60.74 L 29.98 62.23 L 28.96 63.71 L 27.94 65.19 L 26.92 66.68 L 25.90 68.16 L 24.88 69.65 L 23.86 71.13 L 22.85 72.61 L 21.83 74.10 L 20.81 75.58 L 19.96 76.81 L 20.02 78.61 L 20.08 80.41 L 20.13 82.21 L 20.19 84.01 L 20.25 85.81 L 20.31 87.61 L 20.37 89.41 L 20.42 91.21 L 20.48 93.01 L 20.54 94.81 L 20.60 96.60 L 20.66 98.40 L 20.71 100.20 L 20.77 102.00 L 20.83 103.80 L 20.89 105.60 L 20.95 107.40 L 21.01 109.20 L 21.06 111.00 L 21.12 112.80 L 21.18 114.60 L 21.24 116.39 L 21.30 118.19 L 21.35 119.99 L 21.41 121.79 L 21.47 123.59 L 21.53 125.39 L 21.59 127.19 L 21.64 128.78 L 22.75 130.19 L 23.86 131.61 L 24.97 133.02 L 26.09 134.44 L 27.20 135.85 L 28.31 137.27 L 29.42 138.68 L 30.54 140.10 L 31.65 141.51 L 32.76 142.93 L 33.87 144.34 L 34.98 145.76 L 36.10 147.18 L 37.21 148.59 L 38.32 150.01 L 39.43 151.42 L 40.55 152.84 L 41.66 154.25 L 42.77 155.67 L 43.88 157.08 L 45.00 158.50 L 46.11 159.91 L 47.22 161.33 L 48.33 162.74 L 49.45 164.16 L 50.56 165.57 L 51.67 166.99 L 52.78 168.40 L 53.82 169.73 L 55.56 170.21 L 57.29 170.69 L 59.03 171.17 L 60.76 171.65 L 62.50 172.14 L 64.23 172.62 L 65.96 173.10 L 67.70 173.58 L 69.43 174.06 L 71.17 174.54 L 72.90 175.02 L 74.64 175.51 L 76.37 175.99 L 78.10 176.47 L 79.84 176.95 L 81.57 177.43 L 83.31 177.91 L 85.04 178.39 L 86.78 178.88 L 88.51 179.36 L 90.25 179.84 L 91.98 180.32 L 93.71 180.80 L 95.45 181.28 L 97.18 181.77 L 98.92 182.25 L 100.65 182.73 L 102.39 183.21 L 104.10 183.69 L 105.78 183.05 L 107.47 182.41 L 109.15 181.77 L 110.83 181.13 L 112.51 180.49 L 114.20 179.85 L 115.88 179.21 L 117.56 178.57 L 119.24 177.93 L 120.93 177.29 L 122.61 176.66 L 124.29 176.02 L 125.98 175.38 L 127.66 174.74 L 129.34 174.10 L 131.02 173.46 L 132.71 172.82 L 134.39 172.18 L 136.07 171.54 L 137.75 170.90 L 139.44 170.26 L 141.12 169.62 L 142.80 168.98 L 144.48 168.34 L 146.17 167.71 L 147.85 167.07 L 149.53 166.43 L 151.22 165.79 L 152.90 165.15 L 152.97 165.12 L 153.95 163.61 L 154.92 162.10 L 155.90 160.59 L 156.88 159.07 L 157.86 157.56 L 158.83 156.05 L 159.81 154.54 L 160.79 153.03 L 161.77 151.52 L 162.74 150.00 L 163.72 148.49 L 164.70 146.98 L 165.67 145.47 L 166.65 143.96 L 167.63 142.45 L 168.61 140.94 L 169.58 139.42 L 170.56 137.91 L 171.54 136.40 L 172.51 134.89 L 173.49 133.38 L 174.47 131.86 L 175.45 130.35 L 176.42 128.84 L 177.40 127.33 L 178.38 125.82 L 179.36 124.31 L 180.33 122.80 L 181.31 121.28 L 181.41 121.14 L 181.30 119.34 L 181.19 117.54 L 181.08 115.75 L 180.97 113.95 L 180.87 112.15 L 180.76 110.36 L 180.65 108.56 L 180.54 106.76 L 180.43 104.96 L 180.33 103.17 L 180.22 101.37 L 180.11 99.58 L 180.00 97.78 L 179.89 95.98 L 179.79 94.18 L 179.68 92.39 L 179.57 90.59 L 179.46 88.79 L 179.36 87.00 L 179.25 85.20 L 179.14 83.40 L 179.03 81.61 L 178.92 79.81 L 178.82 78.01 L 178.71 76.22 L 178.60 74.42 L 178.49 72.62 L 178.39 70.83 L 178.28 69.03 L 178.26 68.75 L 177.11 67.37 L 175.96 65.99 L 174.81 64.60 L 173.66 63.22 L 172.51 61.83 L 171.35 60.45 L 170.20 59.07 L 169.05 57.68 L 167.90 56.30 L 166.75 54.92 L 165.60 53.53 L 164.45 52.15 L 163.30 50.76 L 162.15 49.38 L 160.99 48.00 L 159.84 46.61 L 158.69 45.23 L 157.54 43.84 L 156.39 42.46 L 155.24 41.08 L 154.09 39.69 L 152.94 38.31 L 151.79 36.92 L 150.64 35.54 L 149.48 34.16 L 148.33 32.77 L 147.18 31.39 L 146.03 30.01 L 144.88 28.62 L 144.64 28.33 L 142.89 27.90 L 141.14 27.46 L 139.40 27.03 L 137.65 26.59 L 135.90 26.16 L 134.15 25.73 L 132.41 25.30 L 130.66 24.86 L 128.91 24.43 L 127.17 24.00 L 125.42 23.56 L 123.67 23.13 L 121.93 22.70 L 120.18 22.26 L 118.43 21.83 L 116.68 21.39 L 114.94 20.96 L 113.19 20.53 L 111.44 20.10 L 109.70 19.66 L 107.95 19.23 L 106.20 18.79 L 104.45 18.36 L 102.71 17.93 L 100.96 17.49 L 99.21 17.06 L 97.47 16.63 L 95.72 16.20 L 93.97 15.76 L 93.50 15.64 L 91.84 16.33 L 90.17 17.02 L 88.51 17.70 L 86.84 18.39 L 85.18 19.07 L 83.52 19.76 L 81.85 20.44 L 80.19 21.13 L 78.52 21.81 L 76.86 22.50 L 75.19 23.19 L 73.53 23.87 L 71.86 24.56 L 70.20 25.24 L 68.54 25.93 L 66.87 26.61 L 65.21 27.30 L 63.54 27.98 L 61.88 28.67 L 60.21 29.35 L 58.55 30.04 L 56.89 30.73 L 55.22 31.41 L 53.56 32.10 L 51.89 32.78 L 50.23 33.47 L 48.56 34.15 L 46.90 34.84 L 45.23 35.52 L 44.69 35.75 L 43.75 37.29 L 42.82 38.83 L 41.88 40.36 L 40.95 41.90 L 40.01 43.44 L 39.08 44.98 L 38.14 46.52 L 37.21 48.05 L 36.27 49.59 L 35.34 51.13 L 34.40 52.67 L 33.46 54.21 L 32.53 55.74 L 31.59 57.28 L 30.66 58.82 L 29.72 60.36 L 28.79 61.90 L 27.85 63.43 L 26.92 64.97 L 25.98 66.51 L 25.05 68.05 L 24.11 69.59 L 23.18 71.12 L 22.24 72.66 L 21.31 74.20 L 20.37 75.74 L 19.44 77.28 L 18.50 78.81 L 17.57 80.35 L 17.20 80.95 L 17.36 82.75 L 17.52 84.54 L 17.68 86.33 L 17.83 88.13 L 17.99 89.92 L 18.15 91.71 L 18.30 93.51 L 18.46 95.30 L 18.62 97.09 L 18.78 98.88 L 18.93 100.68 L 19.09 102.47 L 19.25 104.26 L 19.41 106.06 L 19.56 107.85 L 19.72 109.64 L 19.88 111.44 L 20.04 113.23 L 20.19 115.02 L 20.35 116.82 L 20.51 118.61 L 20.67 120.40 L 20.82 122.19 L 20.98 123.99 L 21.14 125.78 L 21.29 127.57 L 21.45 129.37 L 21.61 131.16 L 21.77 132.95 L 21.84 133.77 L 23.03 135.12 L 24.22 136.47 L 25.40 137.82 L 26.59 139.17 L 27.78 140.53 L 28.97 141.88 L 30.16 143.23 L 31.35 144.58 L 32.54 145.93 L 33.73 147.28 L 34.91 148.64 L 36.10 149.99 L 37.29 151.34 L 38.48 152.69 L 39.67 154.04 L 40.86 155.39 L 42.05 156.75 L 43.24 158.10 L 44.43 159.45 L 45.61 160.80 L 46.80 162.15 L 47.99 163.50 L 49.18 164.85 L 50.37 166.21 L 51.56 167.56 L 52.75 168.91 L 53.93 170.26 L 55.12 171.61 L 56.31 172.96 L 56.93 173.67 L 58.69 174.05 L 60.44 174.43 L 62.20 174.82 L 63.96 175.21 L 65.72 175.59 L 67.48 175.98 L 69.24 176.36 L 70.99 176.75 L 72.75 177.13 L 74.51 177.52 L 76.27 177.90 L 78.03 178.29 L 79.79 178.67 L 81.54 179.06 L 83.30 179.44 L 85.06 179.83 L 86.82 180.21 L 88.58 180.60 L 90.34 180.98 L 92.09 181.37 L 93.85 181.75 L 95.61 182.14 L 97.37 182.52 L 99.13 182.91 L 100.89 183.29 L 102.64 183.68 L 104.40 184.06 L 106.16 184.45 L 107.92 184.83 L 108.95 185.06 L 110.59 184.33 L 112.24 183.60 L 113.88 182.87 L 115.53 182.13 L 117.17 181.40 L 118.82 180.67 L 120.46 179.94 L 122.11 179.21 L 123.75 178.48 L 125.40 177.75 L 127.04 177.02 L 128.69 176.29 L 130.33 175.56 L 131.98 174.82 L 133.62 174.09 L 135.27 173.36 L 136.91 172.63 L 138.56 171.90 L 140.20 171.17 L 141.85 170.44 L 143.49 169.71 L 145.14 168.98 L 146.78 168.25 L 148.43 167.51 L 150.07 166.78 L 151.72 166.05 L 153.36 165.32 L 155.01 164.59 L 156.65 163.86 L 157.72 163.38 L 158.62 161.82 L 159.51 160.26 L 160.40 158.69 L 161.29 157.13 L 162.19 155.57 L 163.08 154.00 L 163.97 152.44 L 164.86 150.88 L 165.76 149.31 L 166.65 147.75 L 167.54 146.19 L 168.43 144.62 L 169.33 143.06 L 170.22 141.50 L 171.11 139.93 L 172.00 138.37 L 172.90 136.81 L 173.79 135.24 L 174.68 133.68 L 175.57 132.12 L 176.47 130.56 L 177.36 128.99 L 178.25 127.43 L 179.14 125.87 L 180.04 124.30 L 180.93 122.74 L 181.82 121.18 L 182.71 119.61 L 183.61 118.05 L 184.25 116.92 L 184.05 115.13 L 183.84 113.34 L 183.63 111.55 L 183.43 109.77 L 183.22 107.98 L 183.01 106.19 L 182.81 104.40 L 182.60 102.61 L 182.39 100.83 L 182.19 99.04 L 181.98 97.25 L 181.77 95.46 L 181.57 93.67 L 181.36 91.89 L 181.15 90.10 L 180.95 88.31 L 180.74 86.52 L 180.53 84.73 L 180.33 82.94 L 180.12 81.16 L 179.91 79.37 L 179.71 77.58 L 179.50 75.79 L 179.29 74.00 L 179.09 72.22 L 178.88 70.43 L 178.67 68.64 L 178.47 66.85 L 178.26 65.06 L 178.10 63.64 L 176.87 62.32 L 175.65 61.00 L 174.42 59.68 L 173.20 58.37 L 171.97 57.05 L 170.74 55.73 L 169.52 54.41 L 168.29 53.09 L 167.07 51.77 L 165.84 50.46 L 164.62 49.14 L 163.39 47.82 L 162.17 46.50 L 160.94 45.18 L 159.72 43.86 L 158.49 42.54 L 157.26 41.23 L 156.04 39.91 L 154.81 38.59 L 153.59 37.27 L 152.36 35.95 L 151.14 34.63 L 149.91 33.31 L 148.69 32.00 L 147.46 30.68 L 146.24 29.36 L 145.01 28.04 L 143.79 26.72 L 142.56 25.40 L 141.49 24.26 L 139.73 23.92 L 137.96 23.58 L 136.19 23.25 L 134.42 22.91 L 132.65 22.57 L 130.88 22.24 L 129.12 21.90 L 127.35 21.56 L 125.58 21.23 L 123.81 20.89 L 122.04 20.55 L 120.28 20.22 L 118.51 19.88 L 116.74 19.54 L 114.97 19.21 L 113.20 18.87 L 111.43 18.53 L 109.67 18.20 L 107.90 17.86 L 106.13 17.52 L 104.36 17.19 L 102.59 16.85 L 100.82 16.51 L 99.06 16.18 L 97.29 15.84 L 95.52 15.50 L 93.75 15.17 L 91.98 14.83 L 90.22 14.49 L 88.54 14.17 L 86.92 14.95 L 85.29 15.72 L 83.67 16.50 L 82.04 17.28 L 80.42 18.05 L 78.79 18.83 L 77.17 19.60 L 75.55 20.38 L 73.92 21.15 L 72.30 21.93 L 70.67 22.71 L 69.05 23.48 L 67.43 24.26 L 65.80 25.03 L 64.18 25.81 L 62.55 26.59 L 60.93 27.36 L 59.30 28.14 L 57.68 28.91 L 56.06 29.69 L 54.43 30.47 L 52.81 31.24 L 51.18 32.02 L 49.56 32.79 L 47.93 33.57 L 46.31 34.34 L 44.69 35.12 L 43.06 35.90 L 41.44 36.67 L 39.81 37.45 L 39.77 37.47 L 38.92 39.06 L 38.07 40.64 L 37.22 42.23 L 36.37 43.82 L 35.52 45.40 L 34.68 46.99 L 33.83 48.58 L 32.98 50.16 L 32.13 51.75 L 31.28 53.34 L 30.43 54.93 L 29.58 56.51 L 28.73 58.10 L 27.88 59.69 L 27.03 61.27 L 26.18 62.86 L 25.33 64.45 L 24.48 66.03 L 23.63 67.62 L 22.79 69.21 L 21.94 70.80 L 21.09 72.38 L 20.24 73.97 L 19.39 75.56 L 18.54 77.14 L 17.69 78.73 L 16.84 80.32 L 15.99 81.91 L 15.14 83.49 L 14.29 85.08 L 14.20 85.25 L 14.46 87.03 L 14.71 88.81 L 14.97 90.60 L 15.22 92.38 L 15.48 94.16 L 15.73 95.94 L 15.99 97.72 L 16.24 99.50 L 16.50 101.29 L 16.76 103.07 L 17.01 104.85 L 17.27 106.63 L 17.52 108.41 L 17.78 110.19 L 18.03 111.98 L 18.29 113.76 L 18.54 115.54 L 18.80 117.32 L 19.06 119.10 L 19.31 120.89 L 19.57 122.67 L 19.82 124.45 L 20.08 126.23 L 20.33 128.01 L 20.59 129.79 L 20.84 131.58 L 21.10 133.36 L 21.35 135.14 L 21.61 136.92 L 21.87 138.70 L 21.91 139.04 L 23.18 140.33 L 24.44 141.61 L 25.70 142.90 L 26.96 144.18 L 28.22 145.47 L 29.48 146.75 L 30.74 148.03 L 32.00 149.32 L 33.26 150.60 L 34.52 151.89 L 35.79 153.17 L 37.05 154.46 L 38.31 155.74 L 39.57 157.03 L 40.83 158.31 L 42.09 159.59 L 43.35 160.88 L 44.61 162.16 L 45.87 163.45 L 47.14 164.73 L 48.40 166.02 L 49.66 167.30 L 50.92 168.59 L 52.18 169.87 L 53.44 171.15 L 54.70 172.44 L 55.96 173.72 L 57.22 175.01 L 58.48 176.29 L 59.75 177.58 L 60.09 177.93 L 61.87 178.22 L 63.65 178.51 L 65.43 178.80 L 67.20 179.08 L 68.98 179.37 L 70.76 179.66 L 72.53 179.95 L 74.31 180.24 L 76.09 180.53 L 77.86 180.81 L 79.64 181.10 L 81.42 181.39 L 83.19 181.68 L 84.97 181.97 L 86.75 182.25 L 88.52 182.54 L 90.30 182.83 L 92.08 183.12 L 93.85 183.41 L 95.63 183.69 L 97.41 183.98 L 99.18 184.27 L 100.96 184.56 L 102.74 184.85 L 104.51 185.14 L 106.29 185.42 L 108.07 185.71 L 109.84 186.00 L 111.62 186.29 L 113.40 186.58 L 114.05 186.68 L 115.65 185.86 L 117.25 185.04 L 118.85 184.22 L 120.46 183.40 L 122.06 182.58 L 123.66 181.76 L 125.26 180.94 L 126.87 180.12 L 128.47 179.30 L 130.07 178.48 L 131.67 177.66 L 133.28 176.84 L 134.88 176.02 L 136.48 175.20 L 138.08 174.38 L 139.69 173.56 L 141.29 172.74 L 142.89 171.92 L 144.49 171.10 L 146.10 170.28 L 147.70 169.46 L 149.30 168.64 L 150.90 167.82 L 152.50 167.00 L 154.11 166.18 L 155.71 165.36 L 157.31 164.54 L 158.91 163.72 L 160.52 162.90 L 162.12 162.08 L 162.85 161.71 L 163.65 160.10 L 164.46 158.49 L 165.27 156.88 L 166.07 155.27 L 166.88 153.66 L 167.68 152.05 L 168.49 150.44 L 169.29 148.83 L 170.10 147.22 L 170.91 145.61 L 171.71 144.00 L 172.52 142.39 L 173.32 140.78 L 174.13 139.17 L 174.93 137.56 L 175.74 135.95 L 176.54 134.34 L 177.35 132.73 L 178.15 131.12 L 178.96 129.51 L 179.77 127.90 L 180.57 126.29 L 181.38 124.68 L 182.18 123.08 L 182.99 121.47 L 183.79 119.86 L 184.60 118.25 L 185.40 116.64 L 186.21 115.03 L 187.02 113.42 L 187.46 112.53 L 187.16 110.76 L 186.85 108.98 L 186.55 107.21 L 186.24 105.44 L 185.94 103.66 L 185.63 101.89 L 185.33 100.11 L 185.03 98.34 L 184.72 96.56 L 184.42 94.79 L 184.11 93.02 L 183.81 91.24 L 183.50 89.47 L 183.20 87.69 L 182.90 85.92 L 182.59 84.15 L 182.29 82.37 L 181.98 80.60 L 181.68 78.82 L 181.38 77.05 L 181.07 75.28 L 180.77 73.50 L 180.46 71.73 L 180.16 69.95 L 179.85 68.18 L 179.55 66.41 L 179.25 64.63 L 178.94 62.86 L 178.64 61.08 L 178.33 59.31 L 178.14 58.16 L 176.84 56.91 L 175.55 55.67 L 174.25 54.42 L 172.95 53.17 L 171.66 51.92 L 170.36 50.67 L 169.07 49.42 L 167.77 48.17 L 166.48 46.92 L 165.18 45.67 L 163.88 44.42 L 162.59 43.17 L 161.29 41.92 L 160.00 40.67 L 158.70 39.42 L 157.41 38.17 L 156.11 36.92 L 154.81 35.67 L 153.52 34.42 L 152.22 33.18 L 150.93 31.93 L 149.63 30.68 L 148.34 29.43 L 147.04 28.18 L 145.74 26.93 L 144.45 25.68 L 143.15 24.43 L 141.86 23.18 L 140.56 21.93 L 139.26 20.68 L 138.30 19.75 L 136.52 19.51 L 134.73 19.27 L 132.95 19.03 L 131.17 18.79 L 129.38 18.56 L 127.60 18.32 L 125.81 18.08 L 124.03 17.84 L 122.25 17.60 L 120.46 17.36 L 118.68 17.12 L 116.89 16.88 L 115.11 16.64 L 113.33 16.40 L 111.54 16.16 L 109.76 15.92 L 107.97 15.68 L 106.19 15.44 L 104.41 15.20 L 102.62 14.96 L 100.84 14.72 L 99.05 14.48 L 97.27 14.25 L 95.48 14.01 L 93.70 13.77 L 91.92 13.53 L 90.13 13.29 L 88.35 13.05 L 86.56 12.81 L 84.78 12.57 L 83.27 12.37 L 81.70 13.23 L 80.12 14.09 L 78.54 14.96 L 76.96 15.82 L 75.38 16.69 L 73.80 17.55 L 72.22 18.41 L 70.64 19.28 L 69.06 20.14 L 67.48 21.00 L 65.90 21.87 L 64.32 22.73 L 62.74 23.59 L 61.16 24.46 L 59.58 25.32 L 58.01 26.18 L 56.43 27.05 L 54.85 27.91 L 53.27 28.77 L 51.69 29.64 L 50.11 30.50 L 48.53 31.37 L 46.95 32.23 L 45.37 33.09 L 43.79 33.96 L 42.21 34.82 L 40.63 35.68 L 39.05 36.55 L 37.47 37.41 L 35.89 38.27 L 34.40 39.09 L 33.64 40.72 L 32.87 42.36 L 32.11 43.99 L 31.35 45.62 L 30.59 47.25 L 29.83 48.88 L 29.07 50.51 L 28.31 52.14 L 27.55 53.77 L 26.79 55.40 L 26.02 57.04 L 25.26 58.67 L 24.50 60.30 L 23.74 61.93 L 22.98 63.56 L 22.22 65.19 L 21.46 66.82 L 20.70 68.45 L 19.94 70.08 L 19.17 71.72 L 18.41 73.35 L 17.65 74.98 L 16.89 76.61 L 16.13 78.24 L 15.37 79.87 L 14.61 81.50 L 13.85 83.13 L 13.08 84.77 L 12.32 86.40 L 11.56 88.03 L 10.81 87.93 L 10.76 89.73 L 10.76 89.75 L 11.11 91.51 L 11.47 93.28 L 11.82 95.04 L 12.17 96.81 L 12.52 98.57 L 12.88 100.34 L 13.23 102.10 L 13.58 103.87 L 13.93 105.63 L 14.29 107.40 L 14.64 109.16 L 14.99 110.93 L 15.34 112.69 L 15.70 114.46 L 16.05 116.22 L 16.40 117.99 L 16.75 119.75 L 17.11 121.52 L 17.46 123.28 L 17.81 125.05 L 18.17 126.81 L 18.52 128.58 L 18.87 130.34 L 19.22 132.11 L 19.58 133.87 L 19.93 135.64 L 20.28 137.40 L 20.63 139.17 L 20.99 140.93 L 21.34 142.70 L 20.90 142.94 L 21.78 144.51 L 22.10 145.07 L 23.43 146.28 L 24.76 147.50 L 26.09 148.71 L 27.42 149.92 L 28.75 151.14 L 30.07 152.35 L 31.40 153.56 L 32.73 154.78 L 34.06 155.99 L 35.39 157.21 L 36.72 158.42 L 38.05 159.63 L 39.38 160.85 L 40.71 162.06 L 42.04 163.27 L 43.37 164.49 L 44.70 165.70 L 46.03 166.91 L 47.36 168.13 L 48.69 169.34 L 50.02 170.55 L 51.35 171.77 L 52.68 172.98 L 54.01 174.19 L 55.33 175.41 L 56.66 176.62 L 57.99 177.83 L 59.32 179.05 L 60.65 180.26 L 61.98 181.47 L 61.98 181.47 L 61.94 181.56 L 63.59 182.29 L 64.88 182.87 L 66.67 183.06 L 68.46 183.25 L 70.25 183.44 L 72.04 183.63 L 73.83 183.82 L 75.62 184.01 L 77.41 184.20 L 79.20 184.39 L 80.99 184.58 L 82.78 184.77 L 84.57 184.96 L 86.36 185.15 L 88.15 185.34 L 89.94 185.53 L 91.73 185.72 L 93.52 185.91 L 95.31 186.10 L 97.10 186.29 L 98.89 186.49 L 100.68 186.68 L 102.47 186.87 L 104.26 187.06 L 106.05 187.25 L 107.84 187.44 L 109.63 187.63 L 111.42 187.82 L 113.21 188.01 L 115.00 188.20 L 115.09 188.73 L 116.86 188.38 L 118.62 188.04 L 119.43 187.88 L 121.18 187.47 L 121.87 187.30 L 123.42 186.40 L 124.98 185.49 L 126.53 184.58 L 128.09 183.68 L 129.64 182.77 L 131.20 181.86 L 132.75 180.96 L 134.31 180.05 L 135.86 179.15 L 137.42 178.24 L 138.97 177.33 L 140.53 176.43 L 142.08 175.52 L 143.64 174.61 L 145.19 173.71 L 146.75 172.80 L 148.30 171.89 L 149.86 170.99 L 151.41 170.08 L 152.97 169.17 L 154.52 168.27 L 156.08 167.36 L 157.63 166.45 L 159.19 165.55 L 160.74 164.64 L 162.30 163.73 L 162.91 164.36 L 164.17 163.07 L 165.42 161.78 L 165.99 161.20 L 167.18 159.85 L 168.37 158.50 L 168.92 157.88 L 170.04 156.48 L 171.16 155.07 L 171.67 154.43 L 171.51 153.17 L 172.22 151.52 L 172.94 149.87 L 173.66 148.22 L 174.37 146.57 L 175.09 144.92 L 175.80 143.27 L 176.52 141.61 L 177.24 139.96 L 177.95 138.31 L 178.67 136.66 L 179.38 135.01 L 180.10 133.36 L 180.82 131.70 L 181.53 130.05 L 182.25 128.40 L 182.97 126.75 L 183.68 125.10 L 184.40 123.45 L 185.11 121.80 L 185.83 120.14 L 186.55 118.49 L 187.26 116.84 L 187.98 115.19 L 188.70 113.54 L 188.97 113.58 L 189.20 111.80 L 189.43 110.01 L 189.53 109.20 L 189.67 107.40 L 189.81 105.61 L 189.87 104.80 L 189.92 103.00 L 189.98 101.20 L 190.00 100.38 L 189.16 99.22 L 188.76 97.47 L 188.36 95.71 L 187.95 93.96 L 187.55 92.20 L 187.15 90.45 L 186.75 88.69 L 186.35 86.94 L 185.95 85.18 L 185.55 83.43 L 185.15 81.67 L 184.75 79.92 L 184.35 78.16 L 183.94 76.41 L 183.54 74.65 L 183.14 72.90 L 182.74 71.14 L 182.34 69.39 L 181.94 67.63 L 181.54 65.88 L 181.14 64.12 L 180.74 62.37 L 180.34 60.62 L 180.34 60.62 L 180.81 60.38 L 179.98 58.79 L 179.15 57.19 L 178.77 56.46 L 177.86 54.91 L 176.95 53.36 L 176.54 52.65 L 175.55 51.14 L 174.57 49.64 L 174.12 48.95 L 173.07 47.50 L 172.01 46.04 L 171.53 45.38 L 170.59 45.44 L 169.22 44.27 L 167.86 43.09 L 166.50 41.91 L 165.14 40.74 L 163.78 39.56 L 162.41 38.38 L 161.05 37.21 L 159.69 36.03 L 158.33 34.85 L 156.96 33.68 L 155.60 32.50 L 154.24 31.32 L 152.88 30.15 L 151.52 28.97 L 150.15 27.80 L 148.79 26.62 L 147.43 25.44 L 146.07 24.27 L 144.70 23.09 L 143.34 21.91 L 143.34 21.91 L 143.68 21.31 L 142.08 20.47 L 140.49 19.64 L 139.76 19.26 L 138.13 18.50 L 136.50 17.75 L 135.75 17.41 L 134.08 16.73 L 132.42 16.06 L 131.66 15.75 L 129.96 15.16 L 128.26 14.57 L 127.49 14.30 L 125.70 14.09 L 123.91 13.87 L 123.14 13.78 L 121.35 13.64 L 119.55 13.50 L 117.76 13.35 L 115.96 13.21 L 114.17 13.07 L 112.37 12.93 L 110.58 12.79 L 108.78 12.65 L 106.99 12.51 L 105.20 12.37 L 103.40 12.22 L 101.61 12.08 L 99.81 11.94 L 98.02 11.80 L 96.22 11.66 L 94.43 11.52 L 92.63 11.38 L 90.84 11.24 L 90.76 10.48 L 88.98 10.70 L 87.19 10.93 L 86.38 11.04 L 84.61 11.35 L 82.84 11.67 L 82.03 11.81 L 80.28 12.21 L 78.52 12.62 L 77.73 12.80 L 75.99 13.29 L 74.26 13.78 L 73.47 14.00 L 71.77 14.57 L 70.06 15.14 L 69.29 15.40 L 67.75 16.33 L 66.21 17.27 L 66.03 17.37 L 64.50 18.32 L 62.97 19.27 L 61.44 20.22 L 59.91 21.17 L 58.38 22.12 L 56.85 23.07 L 55.32 24.02 L 53.79 24.96 L 52.27 25.91 L 50.73 26.86 L 49.21 27.81 L 47.68 28.76 L 46.15 29.71 L 44.62 30.66 L 43.09 31.61 L 41.56 32.56 L 41.56 32.56 L 41.06 31.98 L 39.73 33.19 L 38.40 34.41 L 37.80 34.96 L 36.53 36.23 L 35.26 37.51 L 34.68 38.09 L 33.47 39.42 L 32.27 40.76 L 31.72 41.37 L 30.58 42.76 L 29.44 44.16 L 28.93 44.79 L 27.86 46.24 L 26.79 47.68 L 26.30 48.34 L 25.30 49.84 L 24.31 51.34 L 23.86 52.02 L 23.22 53.70 L 22.69 55.08 L 22.02 56.75 L 21.35 58.42 L 20.68 60.09 L 20.01 61.76 L 19.34 63.43 L 18.67 65.10 L 18.00 66.77 L 17.33 68.44 L 16.66 70.12 L 15.99 71.79 L 15.32 73.46 L 14.65 75.13 L 13.98 76.80 L 13.31 78.47 L 12.65 78.31 L 12.26 80.06 L 11.87 81.82 L 11.69 82.62 L 11.39 84.39 L 11.09 86.17 L 10.95 86.97 L 10.73 88.76 L 10.51 90.55 L 10.42 91.36 L 10.29 93.15 L 10.16 94.95 L 10.10 95.76 L 10.06 97.56 L 10.02 99.36 L 10.00 100.18 L 10.05 101.98 L 10.10 103.78 L 10.12 104.60 L 10.25 106.39 L 10.39 108.19 L 10.45 109.00 L 10.68 110.79 L 10.90 112.57 L 11.00 113.38 L 11.98 114.89 L 12.17 115.17 L 12.62 116.92 L 13.07 118.66 L 13.52 120.40 L 13.97 122.15 L 14.42 123.89 L 14.86 125.63 L 15.31 127.37 L 15.76 129.12" 
          fill="none" 
          stroke="currentColor" 
          stroke-width="0.5"/>
</svg>