<?xml version="1.0" encoding="UTF-8" standalone="no"?>
<svg width="100%" height="100%" viewBox="0 0 200 200" preserveAspectRatio="xMidYMid meet" xmlns="http://www.w3.org/2000/svg">
    <path d="M 10.00 100.00 L 10.04 98.20 L 10.09 96.40 L 10.11 95.58 L 10.24 93.79 L 10.37 91.99 L 10.43 91.18 L 10.65 89.39 L 10.87 87.61 L 10.97 86.79 L 11.28 85.02 L 11.59 83.25 L 11.73 82.44 L 12.12 80.69 L 12.52 78.93 L 12.70 78.13 L 13.18 76.40 L 13.66 74.66 L 13.88 73.87 L 14.44 72.17 L 15.00 70.46 L 15.26 69.68 L 15.91 68.00 L 16.56 66.32 L 16.85 65.56 L 17.58 63.91 L 18.31 62.27 L 18.64 61.52 L 19.45 59.91 L 20.26 58.31 L 20.63 57.57 L 21.51 56.01 L 22.40 54.44 L 22.80 53.73 L 23.77 52.21 L 24.73 50.69 L 25.17 50.00 L 26.20 48.53 L 27.24 47.06 L 27.71 46.39 L 28.82 44.97 L 29.93 43.55 L 30.43 42.90 L 31.60 41.54 L 32.78 40.18 L 33.31 39.56 L 34.56 38.26 L 35.80 36.95 L 36.36 36.36 L 37.66 35.12 L 38.97 33.88 L 39.56 33.31 L 40.92 32.14 L 42.29 30.96 L 42.90 30.43 L 44.32 29.32 L 45.74 28.21 L 46.39 27.71 L 47.86 26.67 L 49.33 25.64 L 50.00 25.17 L 51.52 24.20 L 53.04 23.24 L 53.73 22.80 L 55.30 21.92 L 56.86 21.03 L 57.57 20.63 L 59.18 19.82 L 60.79 19.01 L 61.52 18.64 L 63.17 17.91 L 64.81 17.18 L 65.56 16.85 L 67.24 16.20 L 68.92 15.56 L 69.68 15.26 L 71.39 14.70 L 73.10 14.13 L 73.87 13.88 L 75.61 13.40 L 77.34 12.92 L 78.13 12.70 L 79.89 12.30 L 81.64 11.91 L 82.44 11.73 L 84.21 11.42 L 85.99 11.11 L 86.79 10.97 L 88.58 10.75 L 90.37 10.53 L 91.18 10.43 L 92.97 10.30 L 94.77 10.17 L 95.58 10.11 L 97.38 10.06 L 99.18 10.02 L 100.00 10.00 L 101.80 10.04 L 103.60 10.09 L 104.42 10.11 L 106.21 10.24 L 108.01 10.37 L 108.82 10.43 L 110.61 10.65 L 112.39 10.87 L 113.20 10.97 L 114.98 11.28 L 116.75 11.59 L 117.56 11.73 L 119.31 12.12 L 121.07 12.52 L 121.87 12.70 L 123.60 13.18 L 125.34 13.66 L 126.13 13.88 L 127.83 14.44 L 129.54 15.00 L 130.32 15.26 L 132.00 15.91 L 133.68 16.56 L 134.44 16.85 L 136.09 17.58 L 137.73 18.31 L 138.48 18.64 L 140.09 19.45 L 141.69 20.26 L 142.43 20.63 L 143.99 21.51 L 145.56 22.40 L 146.27 22.80 L 147.79 23.77 L 149.31 24.73 L 150.00 25.17 L 151.47 26.20 L 152.94 27.24 L 153.61 27.71 L 155.03 28.82 L 156.45 29.93 L 157.10 30.43 L 158.46 31.60 L 159.82 32.78 L 160.44 33.31 L 161.74 34.56 L 163.05 35.80 L 163.64 36.36 L 164.88 37.66 L 166.12 38.97 L 166.69 39.56 L 167.86 40.92 L 169.04 42.29 L 169.57 42.90 L 170.68 44.32 L 171.79 45.74 L 172.29 46.39 L 173.32 47.86 L 174.36 49.33 L 174.83 50.00 L 175.80 51.52 L 176.76 53.04 L 177.20 53.73 L 178.08 55.30 L 178.97 56.86 L 179.37 57.57 L 180.18 59.18 L 180.99 60.79 L 181.36 61.52 L 181.57 62.89 L 179.97 63.73 L 178.75 64.37 L 178.52 65.09 L 176.93 65.93 L 175.34 66.76 L 173.74 67.60 L 172.15 68.44 L 170.55 69.27 L 168.96 70.11 L 167.71 70.77 L 166.99 70.54 L 165.40 71.38 L 163.80 72.22 L 162.21 73.05 L 160.62 73.89 L 159.94 74.24 L 159.72 74.96 L 158.12 75.80 L 156.53 76.63 L 154.93 77.47 L 153.34 78.31 L 151.75 79.14 L 150.15 79.98 L 148.56 80.81 L 146.97 81.65 L 145.37 82.49 L 143.78 83.32 L 142.18 84.16 L 140.59 85.00 L 139.00 85.83 L 137.40 86.67 L 135.81 87.51 L 134.21 88.34 L 132.62 89.18 L 131.03 90.02 L 129.43 90.85 L 127.84 91.69 L 126.25 92.52 L 124.65 93.36 L 123.06 94.20 L 121.46 95.03 L 119.87 95.87 L 118.28 96.71 L 116.68 97.54 L 115.99 97.91 L 115.54 99.34 L 115.79 99.81 L 115.57 100.53 L 115.34 101.24 L 115.59 101.71 L 115.37 102.43 L 114.92 103.86 L 114.70 104.58 L 114.47 105.30 L 114.03 106.73 L 113.80 107.45 L 113.58 108.16 L 113.35 108.88 L 113.13 109.60 L 112.66 109.85 L 112.44 110.56 L 111.50 111.06 L 111.27 111.77 L 109.68 112.61 L 108.09 113.45 L 106.49 114.28 L 104.90 115.12 L 103.75 115.72 L 103.03 115.50 L 102.09 115.99 L 101.38 115.77 L 100.91 116.01 L 100.19 115.79 L 99.72 116.04 L 99.00 115.81 L 98.53 116.06 L 97.82 115.84 L 96.38 115.39 L 95.67 115.17 L 94.95 114.94 L 94.23 114.72 L 92.80 114.27 L 92.08 114.05 L 91.37 113.83 L 91.12 113.35 L 90.40 113.13 L 90.15 112.66 L 89.44 112.44 L 88.94 111.50 L 88.23 111.27 L 87.39 109.68 L 86.55 108.09 L 86.25 107.51 L 84.66 108.35 L 83.07 109.19 L 81.47 110.02 L 79.88 110.86 L 78.28 111.70 L 76.69 112.53 L 75.10 113.37 L 73.50 114.20 L 71.91 115.04 L 70.31 115.88 L 68.72 116.71 L 67.45 117.38 L 68.28 118.98 L 69.12 120.57 L 69.96 122.16 L 70.65 123.49 L 71.37 123.72 L 72.11 125.13 L 72.83 125.35 L 73.32 126.29 L 74.04 126.52 L 74.53 127.46 L 75.25 127.68 L 75.74 128.62 L 76.46 128.84 L 76.71 129.31 L 77.42 129.54 L 77.67 130.01 L 78.39 130.23 L 78.63 130.70 L 79.35 130.92 L 79.60 131.39 L 81.03 131.84 L 81.28 132.31 L 82.71 132.76 L 82.96 133.23 L 84.68 133.76 L 85.11 133.90 L 85.36 134.37 L 86.07 134.59 L 87.79 135.13 L 88.22 135.26 L 88.94 135.49 L 89.66 135.71 L 91.38 136.25 L 91.81 136.38 L 92.52 136.60 L 93.24 136.83 L 94.67 137.27 L 95.14 137.03 L 96.58 137.47 L 97.05 137.23 L 98.48 137.67 L 98.95 137.43 L 99.67 137.65 L 100.14 137.40 L 100.86 137.63 L 101.33 137.38 L 102.04 137.60 L 102.51 137.36 L 103.23 137.58 L 104.17 137.09 L 104.89 137.31 L 105.83 136.82 L 106.55 137.04 L 107.49 136.55 L 108.20 136.77 L 109.61 136.03 L 110.33 136.25 L 111.92 135.42 L 113.52 134.58 L 115.11 133.74 L 116.71 132.91 L 118.30 132.07 L 119.89 131.24 L 121.49 130.40 L 123.02 129.59 L 123.25 128.88 L 124.66 128.14 L 124.88 127.42 L 126.29 126.68 L 126.52 125.96 L 126.99 125.72 L 127.21 125.00 L 128.15 124.50 L 128.37 123.79 L 128.84 123.54 L 129.07 122.82 L 129.54 122.58 L 129.76 121.86 L 130.23 121.61 L 130.45 120.90 L 130.92 120.65 L 131.37 119.22 L 131.84 118.97 L 132.29 117.54 L 132.76 117.29 L 133.29 115.57 L 133.43 115.14 L 133.90 114.89 L 134.12 114.17 L 134.35 113.46 L 134.57 112.74 L 134.79 112.02 L 135.02 111.31 L 135.96 110.81 L 135.02 111.31 L 134.79 112.02 L 134.57 112.74 L 134.35 113.46 L 134.12 114.17 L 133.90 114.89 L 133.43 115.14 L 132.89 116.86 L 132.76 117.29 L 132.29 117.54 L 131.84 118.97 L 131.37 119.22 L 130.92 120.65 L 130.45 120.90 L 130.23 121.61 L 129.76 121.86 L 129.54 122.58 L 129.07 122.82 L 128.84 123.54 L 128.37 123.79 L 128.15 124.50 L 127.21 125.00 L 126.99 125.72 L 126.52 125.96 L 126.29 126.68 L 124.88 127.42 L 124.66 128.14 L 123.25 128.88 L 123.02 129.59 L 121.43 130.43 L 119.84 131.27 L 118.24 132.10 L 116.91 132.80 L 117.16 133.27 L 116.69 133.52 L 117.16 133.27 L 118.00 134.86 L 118.83 136.46 L 119.67 138.05 L 120.50 139.65 L 121.34 141.24 L 122.18 142.83 L 123.01 144.43 L 123.85 146.02 L 124.69 147.62 L 125.52 149.21 L 126.36 150.80 L 126.78 151.61 L 125.19 152.44 L 123.59 153.28 L 122.00 154.12 L 120.41 154.95 L 119.26 155.55 L 118.54 155.33 L 116.95 156.17 L 116.19 156.57 L 115.47 156.34 L 114.06 157.08 L 113.35 156.86 L 112.41 157.35 L 111.69 157.13 L 110.75 157.62 L 110.03 157.40 L 109.09 157.89 L 108.37 157.67 L 107.43 158.16 L 106.72 157.94 L 105.78 158.43 L 105.06 158.21 L 104.59 158.46 L 103.87 158.23 L 103.40 158.48 L 102.69 158.25 L 102.22 158.50 L 101.50 158.28 L 101.03 158.52 L 100.31 158.30 L 99.84 158.55 L 99.13 158.32 L 98.65 158.57 L 97.94 158.35 L 97.47 158.59 L 96.03 158.15 L 95.56 158.39 L 94.85 158.17 L 94.38 158.42 L 92.66 157.88 L 92.23 157.75 L 91.76 157.99 L 90.04 157.46 L 89.61 157.32 L 89.13 157.57 L 88.42 157.35 L 87.70 157.12 L 86.98 156.90 L 86.27 156.68 L 85.55 156.45 L 84.12 156.01 L 83.65 156.25 L 82.93 156.03 L 82.21 155.81 L 81.50 155.58 L 80.06 155.14 L 79.35 154.91 L 78.63 154.69 L 77.91 154.47 L 77.19 154.24 L 76.48 154.02 L 76.23 153.55 L 74.51 153.01 L 74.08 152.88 L 73.83 152.41 L 72.12 151.87 L 71.68 151.74 L 71.44 151.27 L 70.72 151.04 L 70.47 150.57 L 69.04 150.13 L 68.79 149.66 L 68.07 149.43 L 67.83 148.96 L 67.11 148.74 L 66.86 148.27 L 66.15 148.05 L 65.90 147.58 L 65.18 147.35 L 64.94 146.88 L 64.22 146.66 L 63.97 146.19 L 63.26 145.96 L 63.01 145.50 L 62.29 145.27 L 61.80 144.33 L 61.08 144.11 L 60.59 143.17 L 59.87 142.94 L 59.38 142.00 L 58.66 141.78 L 58.17 140.84 L 57.45 140.62 L 56.96 139.68 L 56.24 139.45 L 55.50 138.04 L 54.78 137.82 L 53.95 136.22 L 53.80 135.94 L 54.63 137.53 L 54.78 137.82 L 55.50 138.04 L 56.24 139.45 L 56.96 139.68 L 57.45 140.62 L 58.17 140.84 L 58.66 141.78 L 59.38 142.00 L 59.87 142.94 L 60.59 143.17 L 61.08 144.11 L 61.80 144.33 L 62.29 145.27 L 63.01 145.50 L 63.26 145.96 L 63.97 146.19 L 64.22 146.66 L 64.94 146.88 L 65.18 147.35 L 65.90 147.58 L 66.15 148.05 L 66.86 148.27 L 67.11 148.74 L 67.83 148.96 L 68.07 149.43 L 68.79 149.66 L 69.04 150.13 L 70.47 150.57 L 70.72 151.04 L 71.44 151.27 L 71.68 151.74 L 73.40 152.27 L 73.83 152.41 L 74.08 152.88 L 75.80 153.41 L 76.23 153.55 L 76.48 154.02 L 77.19 154.24 L 77.91 154.47 L 78.63 154.69 L 79.35 154.91 L 80.06 155.14 L 81.50 155.58 L 82.21 155.81 L 82.93 156.03 L 83.65 156.25 L 84.12 156.01 L 85.55 156.45 L 86.27 156.68 L 86.98 156.90 L 87.70 157.12 L 88.42 157.35 L 89.13 157.57 L 89.61 157.32 L 91.32 157.86 L 91.76 157.99 L 92.23 157.75 L 93.94 158.28 L 94.38 158.42 L 94.85 158.17 L 95.56 158.39 L 96.03 158.15 L 97.47 158.59 L 97.94 158.35 L 98.65 158.57 L 99.13 158.32 L 99.84 158.55 L 100.31 158.30 L 101.03 158.52 L 101.50 158.28 L 102.22 158.50 L 102.69 158.25 L 103.40 158.48 L 103.87 158.23 L 104.59 158.46 L 105.06 158.21 L 105.78 158.43 L 106.72 157.94 L 107.43 158.16 L 108.37 157.67 L 109.09 157.89 L 110.03 157.40 L 110.75 157.62 L 111.69 157.13 L 112.41 157.35 L 113.35 156.86 L 114.06 157.08 L 115.47 156.34 L 116.19 156.57 L 117.78 155.73 L 118.54 155.33 L 119.26 155.55 L 120.85 154.72 L 122.45 153.88 L 124.04 153.05 L 125.63 152.21 L 127.23 151.37 L 128.82 150.54 L 130.42 149.70 L 132.01 148.86 L 133.60 148.03 L 133.83 147.91 L 134.06 147.19 L 135.65 146.35 L 136.88 145.71 L 137.10 144.99 L 138.51 144.25 L 138.74 143.54 L 140.15 142.80 L 140.37 142.08 L 141.31 141.58 L 141.53 140.87 L 142.47 140.37 L 142.70 139.66 L 143.64 139.16 L 143.86 138.45 L 144.33 138.20 L 144.55 137.48 L 145.03 137.24 L 145.25 136.52 L 146.19 136.03 L 146.41 135.31 L 146.88 135.06 L 147.10 134.35 L 147.58 134.10 L 147.80 133.38 L 148.02 132.67 L 148.49 132.42 L 148.72 131.70 L 149.19 131.46 L 149.63 130.02 L 150.10 129.77 L 150.33 129.06 L 150.80 128.81 L 151.33 127.09 L 151.47 126.66 L 151.94 126.41 L 152.47 124.69 L 152.61 124.26 L 153.08 124.02 L 153.30 123.30 L 153.53 122.58 L 153.75 121.87 L 153.97 121.15 L 154.20 120.43 L 154.42 119.71 L 154.89 119.47 L 155.11 118.75 L 155.34 118.03 L 155.56 117.32 L 155.78 116.60 L 156.01 115.88 L 156.45 114.45 L 156.68 113.73 L 156.90 113.02 L 157.12 112.30 L 157.35 111.58 L 157.10 111.11 L 157.32 110.40 L 157.77 108.96 L 157.52 108.49 L 158.06 106.77 L 158.19 106.34 L 157.95 105.87 L 158.17 105.15 L 157.92 104.68 L 158.37 103.25 L 158.12 102.78 L 158.35 102.06 L 158.10 101.59 L 158.32 100.87 L 158.08 100.40 L 158.30 99.69 L 158.52 98.97 L 158.28 98.50 L 158.52 98.97 L 158.30 99.69 L 158.08 100.40 L 158.32 100.87 L 158.10 101.59 L 158.35 102.06 L 158.12 102.78 L 158.37 103.25 L 157.92 104.68 L 158.17 105.15 L 157.95 105.87 L 158.19 106.34 L 157.66 108.06 L 157.52 108.49 L 157.77 108.96 L 157.32 110.40 L 157.10 111.11 L 157.35 111.58 L 157.12 112.30 L 156.90 113.02 L 156.68 113.73 L 156.45 114.45 L 156.01 115.88 L 155.78 116.60 L 155.56 117.32 L 155.34 118.03 L 155.11 118.75 L 154.89 119.47 L 154.42 119.71 L 154.20 120.43 L 153.97 121.15 L 153.75 121.87 L 153.53 122.58 L 153.30 123.30 L 153.08 124.02 L 152.61 124.26 L 152.07 125.98 L 151.94 126.41 L 151.47 126.66 L 150.93 128.38 L 150.80 128.81 L 150.33 129.06 L 150.10 129.77 L 149.63 130.02 L 149.19 131.46 L 148.72 131.70 L 148.49 132.42 L 148.02 132.67 L 147.80 133.38 L 147.58 134.10 L 147.10 134.35 L 146.88 135.06 L 146.41 135.31 L 146.19 136.03 L 145.25 136.52 L 145.03 137.24 L 144.55 137.48 L 144.33 138.20 L 143.86 138.45 L 143.64 139.16 L 142.70 139.66 L 142.47 140.37 L 141.53 140.87 L 141.31 141.58 L 140.37 142.08 L 140.15 142.80 L 138.74 143.54 L 138.51 144.25 L 137.10 144.99 L 136.88 145.71 L 135.28 146.55 L 134.06 147.19 L 133.83 147.91 L 132.24 148.74 L 130.65 149.58 L 129.05 150.42 L 127.46 151.25 L 126.78 151.61 L 125.94 150.01 L 125.11 148.42 L 124.27 146.83 L 123.44 145.23 L 122.60 143.64 L 121.76 142.04 L 120.93 140.45 L 120.09 138.86 L 119.25 137.26 L 118.42 135.67 L 117.58 134.07 L 116.91 132.80 L 116.44 133.05 L 116.69 133.52 L 116.44 133.05 L 114.85 133.88 L 113.25 134.72 L 111.66 135.56 L 110.33 136.25 L 109.61 136.03 L 108.20 136.77 L 107.49 136.55 L 106.55 137.04 L 105.83 136.82 L 104.89 137.31 L 104.17 137.09 L 103.23 137.58 L 102.51 137.36 L 102.04 137.60 L 101.33 137.38 L 100.86 137.63 L 100.14 137.40 L 99.67 137.65 L 98.95 137.43 L 98.48 137.67 L 97.05 137.23 L 96.58 137.47 L 95.14 137.03 L 94.67 137.27 L 93.24 136.83 L 92.52 136.60 L 91.81 136.38 L 90.09 135.84 L 89.66 135.71 L 88.94 135.49 L 88.22 135.26 L 86.50 134.73 L 86.07 134.59 L 85.36 134.37 L 85.11 133.90 L 83.39 133.36 L 82.96 133.23 L 82.71 132.76 L 81.28 132.31 L 81.03 131.84 L 79.60 131.39 L 79.35 130.92 L 78.63 130.70 L 78.39 130.23 L 77.67 130.01 L 77.42 129.54 L 76.71 129.31 L 76.46 128.84 L 75.74 128.62 L 75.25 127.68 L 74.53 127.46 L 74.04 126.52 L 73.32 126.29 L 72.83 125.35 L 72.11 125.13 L 71.37 123.72 L 70.65 123.49 L 69.82 121.90 L 68.98 120.31 L 68.14 118.71 L 67.31 117.12 L 66.47 115.53 L 65.64 113.93 L 64.80 112.34 L 63.99 110.80 L 64.22 110.08 L 63.48 108.67 L 63.70 107.96 L 63.21 107.01 L 63.43 106.30 L 62.94 105.36 L 63.16 104.64 L 62.91 104.17 L 63.14 103.45 L 62.64 102.51 L 62.87 101.80 L 62.62 101.33 L 62.84 100.61 L 62.60 100.14 L 62.82 99.42 L 62.57 98.95 L 63.02 97.52 L 62.77 97.05 L 63.22 95.61 L 62.97 95.14 L 63.51 93.43 L 63.64 92.99 L 63.40 92.52 L 63.62 91.81 L 64.16 90.09 L 64.29 89.66 L 64.51 88.94 L 64.74 88.22 L 65.27 86.50 L 65.41 86.07 L 65.63 85.35 L 65.85 84.64 L 66.08 83.92 L 66.55 83.67 L 67.00 82.24 L 67.46 81.99 L 67.91 80.56 L 68.38 80.31 L 68.61 79.60 L 69.08 79.35 L 69.30 78.63 L 69.77 78.39 L 69.99 77.67 L 70.93 77.18 L 71.16 76.46 L 71.63 76.21 L 71.85 75.50 L 72.79 75.00 L 73.01 74.28 L 73.48 74.04 L 73.71 73.32 L 74.18 73.07 L 73.71 73.32 L 73.48 74.04 L 73.01 74.28 L 72.79 75.00 L 71.85 75.50 L 71.63 76.21 L 71.16 76.46 L 70.93 77.18 L 69.99 77.67 L 69.77 78.39 L 69.30 78.63 L 69.08 79.35 L 68.61 79.60 L 68.38 80.31 L 67.91 80.56 L 67.46 81.99 L 67.00 82.24 L 66.55 83.67 L 66.08 83.92 L 65.85 84.64 L 65.63 85.35 L 65.41 86.07 L 64.87 87.79 L 64.74 88.22 L 64.51 88.94 L 64.29 89.66 L 63.75 91.38 L 63.62 91.81 L 63.40 92.52 L 63.64 92.99 L 63.11 94.71 L 62.97 95.14 L 63.22 95.61 L 62.77 97.05 L 63.02 97.52 L 62.57 98.95 L 62.82 99.42 L 62.60 100.14 L 62.84 100.61 L 62.62 101.33 L 62.87 101.80 L 62.64 102.51 L 63.14 103.45 L 62.91 104.17 L 63.16 104.64 L 62.94 105.36 L 63.43 106.30 L 63.21 107.01 L 63.70 107.96 L 63.48 108.67 L 64.22 110.08 L 63.99 110.80 L 64.83 112.39 L 65.67 113.99 L 66.50 115.58 L 67.34 117.18 L 67.45 117.38 L 69.04 116.55 L 70.63 115.71 L 72.23 114.87 L 73.82 114.04 L 75.42 113.20 L 77.01 112.36 L 78.60 111.53 L 80.20 110.69 L 81.79 109.85 L 83.39 109.02 L 84.98 108.18 L 85.78 107.76 L 86.01 107.04 L 85.17 105.45 L 84.33 103.86 L 84.28 103.75 L 84.50 103.03 L 84.01 102.09 L 84.23 101.38 L 83.99 100.91 L 84.21 100.19 L 83.96 99.72 L 84.19 99.00 L 83.94 98.53 L 84.16 97.82 L 84.61 96.38 L 84.83 95.67 L 85.06 94.95 L 85.28 94.23 L 85.73 92.80 L 85.95 92.08 L 86.42 91.84 L 86.64 91.12 L 87.11 90.87 L 87.34 90.15 L 88.28 89.66 L 88.50 88.94 L 89.44 88.45 L 89.67 87.73 L 91.26 86.90 L 92.85 86.06 L 94.45 85.22 L 94.84 85.02 L 95.55 85.24 L 96.97 84.50 L 97.68 84.73 L 98.62 84.23 L 99.34 84.46 L 99.81 84.21 L 100.53 84.43 L 101.24 84.66 L 101.71 84.41 L 102.43 84.63 L 103.86 85.08 L 104.58 85.30 L 105.30 85.53 L 106.73 85.97 L 107.45 86.20 L 108.16 86.42 L 108.88 86.65 L 109.13 87.11 L 109.85 87.34 L 110.09 87.81 L 110.81 88.03 L 112.40 87.19 L 113.16 86.80 L 113.88 87.02 L 115.47 86.18 L 117.06 85.35 L 118.66 84.51 L 120.25 83.68 L 121.85 82.84 L 123.28 82.09 L 123.50 81.37 L 125.10 80.53 L 126.69 79.70 L 128.29 78.86 L 129.88 78.02 L 131.47 77.19 L 133.07 76.35 L 133.38 76.19 L 134.09 76.41 L 135.69 75.58 L 137.28 74.74 L 138.88 73.90 L 140.47 73.07 L 142.06 72.23 L 143.66 71.39 L 144.91 70.74 L 145.13 70.02 L 146.73 69.18 L 148.32 68.35 L 148.42 68.29 L 148.65 67.58 L 147.93 67.35 L 147.09 65.76 L 146.70 65.00 L 145.98 64.78 L 145.14 63.19 L 144.99 62.90 L 144.28 62.68 L 143.54 61.26 L 142.82 61.04 L 142.08 59.63 L 141.36 59.41 L 140.87 58.47 L 140.15 58.24 L 139.66 57.30 L 138.94 57.08 L 138.45 56.14 L 137.73 55.92 L 137.48 55.45 L 136.77 55.22 L 136.52 54.75 L 135.80 54.53 L 135.31 53.59 L 134.59 53.36 L 134.35 52.90 L 133.63 52.67 L 132.91 52.45 L 132.67 51.98 L 131.95 51.75 L 131.70 51.28 L 130.98 51.06 L 130.74 50.59 L 130.02 50.37 L 129.77 49.90 L 128.34 49.45 L 128.09 48.98 L 126.38 48.44 L 125.94 48.31 L 125.70 47.84 L 124.26 47.39 L 123.55 47.17 L 123.30 46.70 L 122.58 46.47 L 121.87 46.25 L 121.15 46.03 L 120.43 45.80 L 119.00 45.36 L 118.75 44.89 L 118.03 44.66 L 117.32 44.44 L 116.60 44.22 L 115.88 43.99 L 114.45 43.55 L 113.73 43.32 L 113.02 43.10 L 112.30 42.88 L 111.58 42.65 L 111.11 42.90 L 110.40 42.68 L 108.96 42.23 L 108.49 42.48 L 106.77 41.94 L 106.34 41.81 L 105.87 42.05 L 105.15 41.83 L 104.68 42.08 L 103.25 41.63 L 102.78 41.88 L 102.06 41.65 L 101.59 41.90 L 100.87 41.68 L 100.40 41.92 L 99.69 41.70 L 98.97 41.48 L 98.50 41.72 L 97.78 41.50 L 96.84 41.99 L 96.13 41.77 L 95.66 42.02 L 94.94 41.79 L 94.47 42.04 L 93.75 41.82 L 92.81 42.31 L 92.10 42.09 L 91.16 42.58 L 90.44 42.36 L 89.50 42.85 L 88.78 42.63 L 87.37 43.37 L 86.65 43.14 L 85.24 43.88 L 84.53 43.66 L 82.93 44.50 L 82.65 44.65 L 81.93 44.42 L 80.33 45.26 L 79.58 45.66 L 78.86 45.43 L 77.27 46.27 L 75.67 47.10 L 74.08 47.94 L 72.49 48.78 L 70.89 49.61 L 69.30 50.45 L 67.70 51.29 L 67.11 51.60 L 66.88 52.32 L 65.29 53.15 L 64.53 53.55 L 64.31 54.27 L 62.72 55.10 L 62.43 55.25 L 62.20 55.97 L 60.79 56.71 L 60.57 57.43 L 59.63 57.92 L 59.41 58.64 L 58.47 59.13 L 58.24 59.85 L 57.30 60.34 L 57.08 61.06 L 56.14 61.55 L 55.92 62.27 L 54.98 62.76 L 54.75 63.48 L 54.28 63.73 L 54.06 64.44 L 53.59 64.69 L 53.36 65.41 L 52.90 65.65 L 52.67 66.37 L 52.20 66.62 L 51.98 67.33 L 51.51 67.58 L 51.28 68.30 L 50.81 68.55 L 50.59 69.26 L 50.12 69.51 L 49.67 70.94 L 49.20 71.19 L 48.98 71.91 L 48.51 72.15 L 47.97 73.87 L 47.84 74.30 L 47.37 74.55 L 46.92 75.98 L 46.70 76.70 L 46.23 76.95 L 46.00 77.66 L 45.78 78.38 L 45.56 79.10 L 45.33 79.82 L 44.89 81.25 L 44.66 81.97 L 44.44 82.68 L 43.97 82.93 L 43.75 83.65 L 43.30 85.08 L 43.08 85.80 L 42.85 86.51 L 42.63 87.23 L 42.41 87.95 L 42.18 88.66 L 42.43 89.13 L 41.89 90.85 L 41.76 91.29 L 42.01 91.76 L 41.47 93.47 L 41.34 93.91 L 41.58 94.38 L 41.36 95.09 L 41.61 95.56 L 41.16 97.00 L 41.41 97.47 L 41.18 98.18 L 41.43 98.65 L 41.21 99.37 L 41.45 99.84 L 41.23 100.56 L 41.48 101.03 L 41.25 101.75 L 41.50 102.22 L 41.28 102.93 L 41.52 103.40 L 41.30 104.12 L 41.54 104.59 L 41.32 105.31 L 41.82 106.25 L 41.59 106.96 L 42.09 107.90 L 41.86 108.62 L 42.36 109.56 L 42.13 110.28 L 42.63 111.22 L 42.40 111.94 L 42.90 112.88 L 42.67 113.59 L 43.41 115.00 L 43.19 115.72 L 44.03 117.31 L 44.17 117.60 L 43.34 116.01 L 43.19 115.72 L 43.41 115.00 L 42.67 113.59 L 42.90 112.88 L 42.40 111.94 L 42.63 111.22 L 42.13 110.28 L 42.36 109.56 L 41.86 108.62 L 42.09 107.90 L 41.59 106.96 L 41.82 106.25 L 41.32 105.31 L 41.54 104.59 L 41.30 104.12 L 41.52 103.40 L 41.28 102.93 L 41.50 102.22 L 41.25 101.75 L 41.48 101.03 L 41.23 100.56 L 41.45 99.84 L 41.21 99.37 L 41.43 98.65 L 41.18 98.18 L 41.41 97.47 L 41.16 97.00 L 41.61 95.56 L 41.36 95.09 L 41.58 94.38 L 41.34 93.91 L 41.87 92.19 L 42.01 91.76 L 41.76 91.29 L 42.30 89.57 L 42.43 89.13 L 42.18 88.66 L 42.41 87.95 L 42.63 87.23 L 42.85 86.51 L 43.08 85.80 L 43.30 85.08 L 43.75 83.65 L 43.97 82.93 L 44.44 82.68 L 44.66 81.97 L 44.89 81.25 L 45.33 79.82 L 45.56 79.10 L 45.78 78.38 L 46.00 77.66 L 46.23 76.95 L 46.70 76.70 L 46.92 75.98 L 47.37 74.55 L 47.84 74.30 L 48.38 72.59 L 48.51 72.15 L 48.98 71.91 L 49.20 71.19 L 49.67 70.94 L 50.12 69.51 L 50.59 69.26 L 50.81 68.55 L 51.28 68.30 L 51.51 67.58 L 51.98 67.33 L 52.20 66.62 L 52.67 66.37 L 52.90 65.65 L 53.36 65.41 L 53.59 64.69 L 54.06 64.44 L 54.28 63.73 L 54.75 63.48 L 54.98 62.76 L 55.92 62.27 L 56.14 61.55 L 57.08 61.06 L 57.30 60.34 L 58.24 59.85 L 58.47 59.13 L 59.41 58.64 L 59.63 57.92 L 60.57 57.43 L 60.79 56.71 L 62.20 55.97 L 62.43 55.25 L 64.02 54.42 L 64.31 54.27 L 64.53 53.55 L 66.13 52.71 L 66.88 52.32 L 67.11 51.60 L 68.70 50.76 L 70.29 49.93 L 71.89 49.09 L 73.48 48.25 L 75.08 47.42 L 76.67 46.58 L 78.26 45.75 L 78.86 45.43 L 79.58 45.66 L 81.17 44.82 L 81.93 44.42 L 82.65 44.65 L 84.24 43.81 L 84.53 43.66 L 85.24 43.88 L 86.65 43.14 L 87.37 43.37 L 88.78 42.63 L 89.50 42.85 L 90.44 42.36 L 91.16 42.58 L 92.10 42.09 L 92.81 42.31 L 93.75 41.82 L 94.47 42.04 L 94.94 41.79 L 95.66 42.02 L 96.13 41.77 L 96.84 41.99 L 97.78 41.50 L 98.50 41.72 L 98.97 41.48 L 99.69 41.70 L 100.40 41.92 L 100.87 41.68 L 101.59 41.90 L 102.06 41.65 L 102.78 41.88 L 103.25 41.63 L 104.68 42.08 L 105.15 41.83 L 105.87 42.05 L 106.34 41.81 L 108.06 42.34 L 108.49 42.48 L 108.96 42.23 L 110.40 42.68 L 111.11 42.90 L 111.58 42.65 L 112.30 42.88 L 113.02 43.10 L 113.73 43.32 L 114.45 43.55 L 115.88 43.99 L 116.60 44.22 L 117.32 44.44 L 118.03 44.66 L 118.75 44.89 L 119.00 45.36 L 120.43 45.80 L 121.15 46.03 L 121.87 46.25 L 122.58 46.47 L 123.30 46.70 L 123.55 47.17 L 124.26 47.39 L 125.70 47.84 L 125.94 48.31 L 127.66 48.85 L 128.09 48.98 L 128.34 49.45 L 129.77 49.90 L 130.02 50.37 L 130.74 50.59 L 130.98 51.06 L 131.70 51.28 L 131.95 51.75 L 132.67 51.98 L 132.91 52.45 L 133.63 52.67 L 134.35 52.90 L 134.59 53.36 L 135.31 53.59 L 135.80 54.53 L 136.52 54.75 L 136.77 55.22 L 137.48 55.45 L 137.73 55.92 L 138.45 56.14 L 138.94 57.08 L 139.66 57.30 L 140.15 58.24 L 140.87 58.47 L 141.36 59.41 L 142.08 59.63 L 142.82 61.04 L 143.54 61.26 L 144.28 62.68 L 144.99 62.90 L 145.83 64.49 L 145.98 64.78 L 146.70 65.00 L 147.53 66.60 L 147.93 67.35 L 148.65 67.58 L 148.42 68.29 L 146.83 69.13 L 145.24 69.97 L 145.13 70.02 L 144.91 70.74 L 143.31 71.57 L 141.72 72.41 L 140.13 73.25 L 138.53 74.08 L 136.94 74.92 L 135.34 75.76 L 134.09 76.41 L 133.38 76.19 L 131.78 77.02 L 130.19 77.86 L 129.62 78.16 L 128.88 76.75 L 128.16 76.53 L 127.42 75.12 L 126.70 74.89 L 125.96 73.48 L 125.24 73.26 L 125.00 72.79 L 124.28 72.57 L 123.79 71.63 L 123.07 71.40 L 122.82 70.93 L 122.11 70.71 L 121.86 70.24 L 121.14 70.02 L 120.90 69.55 L 120.18 69.32 L 119.93 68.85 L 118.50 68.41 L 118.25 67.94 L 116.82 67.49 L 116.57 67.02 L 114.85 66.48 L 114.42 66.35 L 114.17 65.88 L 113.46 65.65 L 112.74 65.43 L 112.02 65.21 L 111.31 64.98 L 110.59 64.76 L 109.87 64.54 L 109.16 64.31 L 108.44 64.09 L 107.72 63.87 L 107.01 63.64 L 105.57 63.20 L 105.10 63.44 L 103.67 63.00 L 103.20 63.24 L 101.76 62.80 L 101.29 63.04 L 100.58 62.82 L 100.11 63.07 L 99.39 62.84 L 98.92 63.09 L 98.20 62.87 L 97.73 63.11 L 97.02 62.89 L 96.08 63.38 L 95.36 63.16 L 94.89 63.41 L 94.17 63.18 L 93.23 63.68 L 92.51 63.45 L 93.23 63.68 L 94.17 63.18 L 94.89 63.41 L 95.36 63.16 L 96.08 63.38 L 97.02 62.89 L 97.73 63.11 L 98.20 62.87 L 98.92 63.09 L 99.39 62.84 L 100.11 63.07 L 100.58 62.82 L 101.29 63.04 L 101.76 62.80 L 103.20 63.24 L 103.67 63.00 L 105.10 63.44 L 105.57 63.20 L 107.01 63.64 L 107.72 63.87 L 108.44 64.09 L 109.16 64.31 L 109.87 64.54 L 110.59 64.76 L 111.31 64.98 L 112.02 65.21 L 112.74 65.43 L 113.46 65.65 L 114.17 65.88 L 114.42 66.35 L 116.14 66.88 L 116.57 67.02 L 116.82 67.49 L 118.25 67.94 L 118.50 68.41 L 119.93 68.85 L 120.18 69.32 L 120.90 69.55 L 121.14 70.02 L 121.86 70.24 L 122.11 70.71 L 122.82 70.93 L 123.07 71.40 L 123.79 71.63 L 124.28 72.57 L 125.00 72.79 L 125.24 73.26 L 125.96 73.48 L 126.70 74.89 L 127.42 75.12 L 128.16 76.53 L 128.88 76.75 L 129.62 78.16 L 128.02 79.00 L 126.43 79.84 L 124.83 80.67 L 123.50 81.37 L 123.28 82.09 L 121.69 82.92 L 120.09 83.76 L 118.50 84.60 L 116.90 85.43 L 115.31 86.27 L 113.88 87.02 L 113.16 86.80 L 111.57 87.63 L 110.81 88.03 L 110.09 87.81 L 109.85 87.34 L 109.13 87.11 L 108.88 86.65 L 108.16 86.42 L 107.45 86.20 L 106.73 85.97 L 105.30 85.53 L 104.58 85.30 L 103.86 85.08 L 102.43 84.63 L 101.71 84.41 L 101.24 84.66 L 100.53 84.43 L 99.81 84.21 L 99.34 84.46 L 98.62 84.23 L 97.68 84.73 L 96.97 84.50 L 95.55 85.24 L 94.84 85.02 L 93.24 85.86 L 91.65 86.69 L 90.06 87.53 L 89.67 87.73 L 89.44 88.45 L 88.50 88.94 L 88.28 89.66 L 87.34 90.15 L 87.11 90.87 L 86.64 91.12 L 86.42 91.84 L 85.95 92.08 L 85.73 92.80 L 85.28 94.23 L 85.06 94.95 L 84.83 95.67 L 84.61 96.38 L 84.16 97.82 L 83.94 98.53 L 84.19 99.00 L 83.96 99.72 L 84.21 100.19 L 83.99 100.91 L 84.23 101.38 L 84.01 102.09 L 84.50 103.03 L 84.28 103.75 L 85.12 105.35 L 85.95 106.94 L 86.01 107.04 L 85.78 107.76 L 86.25 107.51 L 86.01 107.04 L 86.84 108.64 L 87.68 110.23 L 88.23 111.27 L 88.94 111.50 L 89.44 112.44 L 90.15 112.66 L 90.40 113.13 L 91.12 113.35 L 91.37 113.83 L 92.08 114.05 L 92.80 114.27 L 94.23 114.72 L 94.95 114.94 L 95.67 115.17 L 96.38 115.39 L 97.82 115.84 L 98.53 116.06 L 99.00 115.81 L 99.72 116.04 L 100.19 115.79 L 100.91 116.01 L 101.38 115.77 L 102.09 115.99 L 103.03 115.50 L 103.75 115.72 L 105.35 114.88 L 106.94 114.05 L 108.53 113.21 L 110.13 112.37 L 111.27 111.77 L 111.50 111.06 L 112.44 110.56 L 112.66 109.85 L 113.13 109.60 L 113.35 108.88 L 113.58 108.16 L 113.80 107.45 L 114.03 106.73 L 114.47 105.30 L 114.70 104.58 L 114.92 103.86 L 115.37 102.43 L 115.59 101.71 L 115.34 101.24 L 115.57 100.53 L 115.79 99.81 L 115.54 99.34 L 115.99 97.91 L 117.58 97.07 L 119.18 96.23 L 120.77 95.40 L 122.37 94.56 L 123.96 93.72 L 125.55 92.89 L 127.15 92.05 L 128.74 91.21 L 130.34 90.38 L 131.93 89.54 L 133.52 88.71 L 135.12 87.87 L 136.71 87.03 L 138.30 86.20 L 139.90 85.36 L 141.49 84.52 L 143.09 83.69 L 144.68 82.85 L 146.27 82.01 L 147.87 81.18 L 149.46 80.34 L 151.06 79.50 L 152.65 78.67 L 154.24 77.83 L 155.84 77.00 L 157.43 76.16 L 159.02 75.32 L 159.72 74.96 L 159.94 74.24 L 161.53 73.41 L 163.13 72.57 L 163.23 72.52 L 162.39 70.92 L 161.56 69.33 L 160.72 67.73 L 159.89 66.14 L 159.05 64.55 L 158.21 62.95 L 157.80 62.17 L 157.09 61.95 L 156.25 60.35 L 155.61 59.13 L 154.89 58.90 L 154.05 57.31 L 153.90 57.02 L 153.19 56.80 L 152.44 55.39 L 151.73 55.17 L 150.89 53.57 L 150.74 53.29 L 150.02 53.06 L 149.53 52.12 L 148.81 51.90 L 148.07 50.49 L 147.36 50.26 L 147.11 49.79 L 146.39 49.57 L 145.90 48.63 L 145.18 48.41 L 144.69 47.47 L 143.97 47.24 L 143.73 46.77 L 143.01 46.55 L 142.76 46.08 L 142.04 45.86 L 141.80 45.39 L 141.08 45.16 L 140.83 44.69 L 140.12 44.47 L 139.87 44.00 L 139.15 43.78 L 138.91 43.30 L 138.19 43.08 L 137.94 42.61 L 137.23 42.39 L 136.98 41.92 L 135.55 41.47 L 135.30 41.00 L 134.58 40.78 L 134.34 40.31 L 132.90 39.86 L 132.66 39.39 L 130.94 38.85 L 130.51 38.72 L 130.26 38.25 L 129.54 38.03 L 128.83 37.80 L 128.11 37.58 L 127.86 37.11 L 127.14 36.89 L 126.43 36.66 L 125.71 36.44 L 124.99 36.21 L 124.75 35.74 L 124.03 35.52 L 122.31 34.99 L 120.59 34.45 L 118.87 33.91 L 117.16 33.38 L 116.86 33.29 L 116.14 33.06 L 115.43 32.84 L 114.71 32.62 L 113.99 32.39 L 113.28 32.17 L 112.81 32.42 L 112.09 32.19 L 111.37 31.97 L 110.66 31.75 L 110.19 31.99 L 108.47 31.46 L 108.03 31.32 L 107.56 31.57 L 106.13 31.12 L 105.66 31.37 L 104.94 31.15 L 104.47 31.39 L 103.04 30.95 L 102.57 31.19 L 101.85 30.97 L 101.38 31.22 L 100.67 30.99 L 100.20 31.24 L 99.48 31.02 L 99.01 31.26 L 98.29 31.04 L 97.82 31.29 L 97.10 31.06 L 96.63 31.31 L 95.92 31.09 L 95.45 31.33 L 94.73 31.11 L 94.26 31.35 L 93.54 31.13 L 92.60 31.63 L 91.89 31.40 L 90.95 31.90 L 90.23 31.67 L 89.29 32.17 L 88.57 31.94 L 87.63 32.44 L 86.91 32.21 L 85.97 32.71 L 85.26 32.48 L 83.66 33.32 L 83.38 33.47 L 82.66 33.25 L 81.25 33.99 L 80.53 33.76 L 78.94 34.60 L 78.65 34.75 L 77.93 34.52 L 76.34 35.36 L 75.11 36.01 L 74.40 35.78 L 72.80 36.62 L 71.21 37.45 L 69.62 38.29 L 68.02 39.13 L 66.43 39.96 L 64.83 40.80 L 63.24 41.64 L 61.70 42.44 L 61.48 43.16 L 59.89 44.00 L 58.66 44.64 L 58.43 45.36 L 56.84 46.19 L 56.55 46.34 L 56.33 47.06 L 54.92 47.80 L 54.70 48.52 L 53.29 49.26 L 53.06 49.98 L 51.65 50.72 L 51.43 51.43 L 50.49 51.93 L 50.26 52.64 L 49.32 53.14 L 49.10 53.85 L 48.63 54.10 L 48.41 54.82 L 47.47 55.31 L 47.24 56.03 L 46.30 56.52 L 46.08 57.24 L 45.61 57.48 L 45.39 58.20 L 44.92 58.45 L 44.69 59.17 L 44.22 59.41 L 44.00 60.13 L 43.53 60.38 L 43.30 61.09 L 42.84 61.34 L 42.61 62.06 L 42.14 62.30 L 41.92 63.02 L 41.45 63.27 L 41.00 64.70 L 40.53 64.95 L 40.31 65.66 L 39.84 65.91 L 39.39 67.34 L 38.92 67.59 L 38.38 69.31 L 38.25 69.74 L 37.78 69.99 L 37.56 70.70 L 37.33 71.42 L 37.11 72.14 L 36.64 72.39 L 36.42 73.10 L 36.19 73.82 L 35.97 74.54 L 35.74 75.25 L 35.52 75.97 L 35.05 76.22 L 34.52 77.94 L 33.98 79.65 L 33.44 81.37 L 32.91 83.09 L 32.82 83.39 L 32.59 84.10 L 32.37 84.82 L 32.15 85.54 L 31.92 86.25 L 31.70 86.97 L 31.95 87.44 L 31.72 88.16 L 31.50 88.87 L 31.28 89.59 L 31.52 90.06 L 30.99 91.78 L 30.85 92.21 L 31.10 92.68 L 30.65 94.12 L 30.90 94.59 L 30.68 95.30 L 30.92 95.77 L 30.70 96.49 L 30.48 97.21 L 30.72 97.68 L 30.50 98.39 L 30.75 98.86 L 30.52 99.58 L 30.77 100.05 L 30.55 100.77 L 30.79 101.24 L 30.57 101.95 L 30.82 102.43 L 30.59 103.14 L 30.84 103.61 L 30.61 104.33 L 30.86 104.80 L 30.64 105.52 L 31.13 106.46 L 30.91 107.17 L 31.16 107.64 L 30.93 108.36 L 31.43 109.30 L 31.20 110.02 L 31.69 110.96 L 31.47 111.67 L 31.96 112.62 L 31.74 113.33 L 32.48 114.74 L 32.26 115.46 L 33.00 116.87 L 32.78 117.59 L 33.61 119.18 L 33.76 119.47 L 33.54 120.19 L 34.38 121.78 L 34.77 122.54 L 34.55 123.25 L 35.39 124.85 L 36.22 126.44 L 37.06 128.03 L 37.89 129.63 L 38.73 131.22 L 39.24 132.19 L 40.83 131.35 L 42.42 130.51 L 44.02 129.68 L 45.61 128.84 L 47.21 128.00 L 48.80 127.17 L 50.39 126.33 L 51.99 125.49 L 53.58 124.66 L 55.17 123.82 L 56.77 122.99 L 58.04 122.32 L 58.88 123.91 L 59.72 125.50 L 60.55 127.10 L 61.39 128.69 L 61.50 128.90 L 62.21 129.12 L 63.05 130.72 L 63.20 131.00 L 63.92 131.23 L 64.66 132.64 L 65.38 132.86 L 65.87 133.80 L 66.58 134.02 L 67.08 134.97 L 67.80 135.19 L 68.29 136.13 L 69.01 136.35 L 69.25 136.82 L 69.97 137.05 L 70.46 137.99 L 71.18 138.21 L 71.43 138.68 L 72.14 138.90 L 72.39 139.37 L 73.11 139.60 L 73.82 139.82 L 74.07 140.29 L 74.79 140.51 L 75.03 140.98 L 75.75 141.21 L 76.47 141.43 L 76.71 141.90 L 77.43 142.12 L 78.15 142.35 L 78.39 142.82 L 80.11 143.35 L 80.55 143.49 L 80.79 143.96 L 82.51 144.49 L 84.23 145.03 L 85.95 145.57 L 87.67 146.10 L 89.39 146.64 L 91.10 147.17 L 92.82 147.71 L 92.98 147.76 L 93.45 147.51 L 94.17 147.73 L 94.88 147.96 L 95.35 147.71 L 96.07 147.93 L 96.79 148.16 L 97.26 147.91 L 97.97 148.13 L 98.45 147.89 L 99.16 148.11 L 99.88 148.34 L 100.35 148.09 L 101.07 148.31 L 101.54 148.07 L 102.25 148.29 L 103.19 147.79 L 103.91 148.02 L 104.38 147.77 L 105.10 148.00 L 106.04 147.50 L 106.75 147.72 L 107.70 147.23 L 108.41 147.45 L 109.35 146.96 L 110.07 147.18 L 111.66 146.35 L 111.95 146.20 L 110.36 147.03 L 110.07 147.18 L 109.35 146.96 L 108.41 147.45 L 107.70 147.23 L 106.75 147.72 L 106.04 147.50 L 105.10 148.00 L 104.38 147.77 L 103.91 148.02 L 103.19 147.79 L 102.25 148.29 L 101.54 148.07 L 101.07 148.31 L 100.35 148.09 L 99.88 148.34 L 99.16 148.11 L 98.45 147.89 L 97.97 148.13 L 97.26 147.91 L 96.79 148.16 L 96.07 147.93 L 95.35 147.71 L 94.88 147.96 L 94.17 147.73 L 93.45 147.51 L 92.98 147.76 L 91.26 147.22 L 89.54 146.69 L 87.82 146.15 L 86.11 145.61 L 84.39 145.08 L 82.67 144.54 L 80.95 144.01 L 80.79 143.96 L 80.55 143.49 L 78.83 142.95 L 78.39 142.82 L 78.15 142.35 L 77.43 142.12 L 76.71 141.90 L 76.47 141.43 L 75.75 141.21 L 75.03 140.98 L 74.79 140.51 L 74.07 140.29 L 73.82 139.82 L 73.11 139.60 L 72.39 139.37 L 72.14 138.90 L 71.43 138.68 L 71.18 138.21 L 70.46 137.99 L 69.97 137.05 L 69.25 136.82 L 69.01 136.35 L 68.29 136.13 L 67.80 135.19 L 67.08 134.97 L 66.58 134.02 L 65.87 133.80 L 65.38 132.86 L 64.66 132.64 L 63.92 131.23 L 63.20 131.00 L 62.36 129.41 L 62.21 129.12 L 61.50 128.90 L 60.66 127.30 L 59.82 125.71 L 58.99 124.12 L 58.15 122.52 L 57.80 121.85 L 57.33 122.09 L 57.80 121.85 L 56.96 120.25 L 56.12 118.66 L 55.29 117.06 L 54.45 115.47 L 54.34 115.26 L 54.57 114.55 L 53.73 112.95 L 53.58 112.67 L 53.80 111.95 L 53.06 110.54 L 53.29 109.82 L 52.79 108.88 L 53.02 108.17 L 52.52 107.23 L 52.75 106.51 L 52.25 105.57 L 52.48 104.85 L 52.23 104.38 L 52.45 103.66 L 51.96 102.72 L 52.18 102.01 L 51.93 101.54 L 52.16 100.82 L 51.91 100.35 L 52.13 99.63 L 52.36 98.92 L 52.11 98.45 L 52.34 97.73 L 52.09 97.26 L 52.31 96.54 L 52.54 95.82 L 52.29 95.35 L 52.51 94.64 L 52.74 93.92 L 52.49 93.45 L 53.02 91.73 L 53.16 91.30 L 52.91 90.83 L 53.45 89.11 L 53.98 87.39 L 54.52 85.67 L 55.06 83.96 L 55.59 82.24 L 56.13 80.52 L 56.49 79.36 L 56.96 79.11 L 57.41 77.68 L 57.88 77.43 L 58.10 76.71 L 58.32 76.00 L 58.79 75.75 L 59.02 75.03 L 59.49 74.79 L 59.71 74.07 L 59.93 73.35 L 60.40 73.11 L 60.63 72.39 L 61.10 72.14 L 61.32 71.43 L 62.26 70.93 L 62.48 70.22 L 62.95 69.97 L 63.18 69.25 L 64.12 68.76 L 64.34 68.04 L 65.28 67.55 L 65.51 66.83 L 66.45 66.34 L 66.67 65.62 L 68.08 64.88 L 68.30 64.17 L 69.71 63.42 L 69.94 62.71 L 71.53 61.87 L 71.82 61.72 L 72.04 61.00 L 73.63 60.17 L 75.23 59.33 L 76.82 58.49 L 78.42 57.66 L 80.01 56.82 L 81.60 55.99 L 82.86 55.33 L 83.57 55.55 L 85.17 54.72 L 85.45 54.57 L 86.17 54.79 L 87.76 53.95 L 88.05 53.80 L 88.77 54.03 L 90.18 53.29 L 90.89 53.51 L 91.83 53.02 L 92.55 53.24 L 93.49 52.75 L 94.21 52.97 L 94.68 52.72 L 95.40 52.95 L 96.34 52.45 L 97.05 52.68 L 97.52 52.43 L 98.24 52.65 L 98.71 52.41 L 99.43 52.63 L 99.90 52.38 L 100.61 52.61 L 101.09 52.36 L 101.80 52.58 L 102.52 52.81 L 102.99 52.56 L 103.71 52.78 L 104.42 53.01 L 104.89 52.76 L 105.61 52.98 L 106.33 53.21 L 106.80 52.96 L 108.51 53.50 L 108.95 53.63 L 109.42 53.38 L 111.14 53.92 L 112.85 54.45 L 114.57 54.99 L 116.29 55.53 L 118.01 56.06 L 119.73 56.60 L 120.89 56.96 L 121.14 57.43 L 121.85 57.65 L 122.57 57.88 L 123.29 58.10 L 123.53 58.57 L 124.25 58.79 L 124.50 59.26 L 125.21 59.49 L 125.93 59.71 L 126.18 60.18 L 126.89 60.40 L 127.14 60.87 L 127.86 61.10 L 128.10 61.57 L 128.82 61.79 L 129.07 62.26 L 129.78 62.48 L 130.28 63.42 L 130.99 63.65 L 131.24 64.12 L 131.96 64.34 L 132.20 64.81 L 132.92 65.04 L 133.17 65.51 L 132.92 65.04 L 132.20 64.81 L 131.96 64.34 L 131.24 64.12 L 130.99 63.65 L 130.28 63.42 L 129.78 62.48 L 129.07 62.26 L 128.82 61.79 L 128.10 61.57 L 127.86 61.10 L 127.14 60.87 L 126.89 60.40 L 126.18 60.18 L 125.93 59.71 L 125.21 59.49 L 124.50 59.26 L 124.25 58.79 L 123.53 58.57 L 123.29 58.10 L 122.57 57.88 L 121.85 57.65 L 121.14 57.43 L 120.89 56.96 L 119.17 56.42 L 117.45 55.89 L 115.73 55.35 L 114.01 54.82 L 112.30 54.28 L 110.58 53.75 L 109.42 53.38 L 108.95 53.63 L 107.23 53.09 L 106.80 52.96 L 106.33 53.21 L 105.61 52.98 L 104.89 52.76 L 104.42 53.01 L 103.71 52.78 L 102.99 52.56 L 102.52 52.81 L 101.80 52.58 L 101.09 52.36 L 100.61 52.61 L 99.90 52.38 L 99.43 52.63 L 98.71 52.41 L 98.24 52.65 L 97.52 52.43 L 97.05 52.68 L 96.34 52.45 L 95.40 52.95 L 94.68 52.72 L 94.21 52.97 L 93.49 52.75 L 92.55 53.24 L 91.83 53.02 L 90.89 53.51 L 90.18 53.29 L 88.77 54.03 L 88.05 53.80 L 86.46 54.64 L 86.17 54.79 L 85.45 54.57 L 83.86 55.40 L 83.57 55.55 L 82.86 55.33 L 81.26 56.17 L 79.67 57.00 L 78.07 57.84 L 77.68 58.04 L 77.93 58.51 L 77.46 58.76 L 77.93 58.51 L 78.77 60.11 L 79.16 60.86 L 79.88 61.09 L 80.62 62.50 L 80.40 63.22 L 81.23 64.81 L 82.07 66.40 L 82.91 68.00 L 83.74 69.59 L 84.58 71.19 L 84.59 71.21 L 85.31 71.43 L 85.80 72.37 L 85.58 73.09 L 86.41 74.68 L 87.25 76.28 L 87.55 76.85 L 85.96 77.69 L 84.36 78.52 L 84.26 78.58 L 84.04 79.29 L 82.63 80.04 L 82.40 80.75 L 80.99 81.49 L 80.77 82.21 L 80.30 82.45 L 80.08 83.17 L 79.13 83.67 L 78.91 84.38 L 78.44 84.63 L 78.22 85.35 L 77.75 85.59 L 77.52 86.31 L 77.05 86.56 L 76.61 87.99 L 76.14 88.24 L 75.60 89.95 L 75.24 91.10 L 74.77 91.35 L 74.24 93.07 L 73.70 94.79 L 73.21 96.37 L 73.46 96.84 L 73.01 98.27 L 73.26 98.74 L 73.03 99.46 L 73.28 99.93 L 73.06 100.65 L 73.30 101.12 L 73.08 101.83 L 73.57 102.77 L 73.08 101.83 L 73.30 101.12 L 73.06 100.65 L 73.28 99.93 L 73.03 99.46 L 73.26 98.74 L 73.01 98.27 L 73.46 96.84 L 73.21 96.37 L 73.75 94.65 L 74.28 92.93 L 74.77 91.35 L 75.24 91.10 L 75.78 89.39 L 76.14 88.24 L 76.61 87.99 L 77.05 86.56 L 77.52 86.31 L 77.75 85.59 L 78.22 85.35 L 78.44 84.63 L 78.91 84.38 L 79.13 83.67 L 80.08 83.17 L 80.30 82.45 L 80.77 82.21 L 80.99 81.49 L 82.40 80.75 L 82.63 80.04 L 84.04 79.29 L 84.26 78.58 L 85.85 77.74 L 87.45 76.90 L 89.04 76.07 L 90.64 75.23 L 90.84 75.12 L 91.56 75.35 L 93.15 74.51 L 93.44 74.36 L 94.16 74.58 L 95.10 74.09 L 95.82 74.31 L 96.75 73.82 L 97.47 74.04 L 97.94 73.80 L 98.66 74.02 L 99.13 73.77 L 99.85 74.00 L 100.32 73.75 L 101.03 73.97 L 101.50 73.73 L 102.94 74.17 L 103.41 73.93 L 105.13 74.46 L 106.27 74.82 L 106.75 74.57 L 108.46 75.11 L 110.18 75.64 L 111.76 76.14 L 110.05 75.60 L 108.33 75.07 L 106.75 74.57 L 106.27 74.82 L 104.56 74.28 L 103.41 73.93 L 102.94 74.17 L 101.50 73.73 L 101.03 73.97 L 100.32 73.75 L 99.85 74.00 L 99.13 73.77 L 98.66 74.02 L 97.94 73.80 L 97.47 74.04 L 96.75 73.82 L 95.82 74.31 L 95.10 74.09 L 94.16 74.58 L 93.44 74.36 L 91.85 75.20 L 91.56 75.35 L 90.84 75.12 L 89.25 75.96 L 87.66 76.80 L 87.55 76.85 L 86.72 75.26 L 85.88 73.66 L 85.58 73.09 L 85.80 72.37 L 85.31 71.43 L 84.59 71.21 L 83.76 69.61 L 82.92 68.02 L 82.08 66.43 L 81.25 64.83 L 80.41 63.24 L 80.40 63.22 L 80.62 62.50 L 79.88 61.09 L 79.16 60.86 L 78.33 59.27 L 77.68 58.04 L 77.21 58.29 L 77.46 58.76 L 77.21 58.29 L 75.62 59.13 L 74.03 59.96 L 72.43 60.80 L 72.04 61.00 L 71.82 61.72 L 70.22 62.56 L 69.94 62.71 L 69.71 63.42 L 68.30 64.17 L 68.08 64.88 L 66.67 65.62 L 66.45 66.34 L 65.51 66.83 L 65.28 67.55 L 64.34 68.04 L 64.12 68.76 L 63.18 69.25 L 62.95 69.97 L 62.48 70.22 L 62.26 70.93 L 61.32 71.43 L 61.10 72.14 L 60.63 72.39 L 60.40 73.11 L 59.93 73.35 L 59.71 74.07 L 59.49 74.79 L 59.02 75.03 L 58.79 75.75 L 58.32 76.00 L 58.10 76.71 L 57.88 77.43 L 57.41 77.68 L 56.96 79.11 L 56.49 79.36 L 55.95 81.08 L 55.42 82.80 L 54.88 84.51 L 54.35 86.23 L 53.81 87.95 L 53.27 89.67 L 52.91 90.83 L 53.16 91.30 L 52.62 93.02 L 52.49 93.45 L 52.74 93.92 L 52.51 94.64 L 52.29 95.35 L 52.54 95.82 L 52.31 96.54 L 52.09 97.26 L 52.34 97.73 L 52.11 98.45 L 52.36 98.92 L 52.13 99.63 L 51.91 100.35 L 52.16 100.82 L 51.93 101.54 L 52.18 102.01 L 51.96 102.72 L 52.45 103.66 L 52.23 104.38 L 52.48 104.85 L 52.25 105.57 L 52.75 106.51 L 52.52 107.23 L 53.02 108.17 L 52.79 108.88 L 53.29 109.82 L 53.06 110.54 L 53.80 111.95 L 53.58 112.67 L 54.42 114.26 L 54.57 114.55 L 54.34 115.26 L 55.18 116.86 L 56.02 118.45 L 56.85 120.05 L 57.69 121.64 L 58.04 122.32 L 57.57 122.56 L 57.33 122.09 L 57.57 122.56 L 55.98 123.40 L 54.39 124.24 L 52.79 125.07 L 51.20 125.91 L 49.60 126.75 L 48.01 127.58 L 46.42 128.42 L 44.82 129.25 L 43.23 130.09 L 41.63 130.93 L 40.04 131.76 L 39.24 132.19 L 40.07 133.78 L 40.91 135.37 L 41.75 136.97 L 42.58 138.56 L 43.42 140.16 L 43.43 140.18 L 44.15 140.40 L 44.98 142.00 L 45.38 142.75 L 46.10 142.98 L 46.93 144.57 L 47.09 144.86 L 47.80 145.08 L 48.54 146.49 L 49.26 146.71 L 50.00 148.12 L 50.72 148.35 L 51.21 149.29 L 51.93 149.51 L 52.17 149.98 L 52.89 150.21 L 53.63 151.62 L 54.35 151.84 L 54.59 152.31 L 55.31 152.53 L 55.80 153.47 L 56.52 153.70 L 56.77 154.17 L 57.48 154.39 L 57.73 154.86 L 58.45 155.08 L 58.69 155.55 L 59.41 155.78 L 59.66 156.25 L 60.37 156.47 L 60.62 156.94 L 61.34 157.17 L 61.59 157.64 L 62.30 157.86 L 62.55 158.33 L 63.27 158.55 L 63.98 158.78 L 64.23 159.25 L 65.66 159.69 L 65.91 160.16 L 66.63 160.39 L 66.87 160.86 L 68.59 161.39 L 69.02 161.53 L 69.27 162.00 L 69.99 162.22 L 70.70 162.44 L 71.42 162.67 L 71.67 163.14 L 72.39 163.36 L 73.10 163.58 L 73.82 163.81 L 74.54 164.03 L 75.25 164.26 L 75.50 164.72 L 77.22 165.26 L 78.94 165.80 L 80.66 166.33 L 82.37 166.87 L 83.39 167.18 L 84.10 167.41 L 84.82 167.63 L 85.54 167.85 L 86.25 168.08 L 86.97 168.30 L 87.44 168.05 L 88.16 168.28 L 88.87 168.50 L 89.59 168.72 L 90.06 168.48 L 91.78 169.01 L 92.21 169.15 L 92.68 168.90 L 94.12 169.35 L 94.59 169.10 L 95.30 169.32 L 95.77 169.08 L 96.49 169.30 L 97.21 169.52 L 97.68 169.28 L 98.39 169.50 L 98.86 169.25 L 99.58 169.48 L 100.05 169.23 L 100.77 169.45 L 101.24 169.21 L 101.96 169.43 L 102.43 169.18 L 103.14 169.41 L 103.61 169.16 L 104.33 169.39 L 104.80 169.14 L 105.52 169.36 L 106.46 168.87 L 107.17 169.09 L 107.64 168.84 L 108.36 169.07 L 109.30 168.57 L 110.02 168.80 L 110.96 168.31 L 111.67 168.53 L 112.62 168.03 L 113.33 168.26 L 114.74 167.52 L 115.46 167.74 L 116.87 167.00 L 117.59 167.22 L 119.18 166.39 L 119.47 166.24 L 120.18 166.46 L 121.78 165.62 L 122.54 165.23 L 123.25 165.45 L 124.85 164.61 L 126.44 163.78 L 128.03 162.94 L 129.63 162.11 L 131.22 161.27 L 132.82 160.43 L 134.41 159.60 L 136.00 158.76 L 137.60 157.92 L 139.19 157.09 L 139.71 156.82 L 139.93 156.10 L 141.53 155.26 L 142.28 154.87 L 142.51 154.15 L 144.10 153.31 L 144.39 153.16 L 144.61 152.45 L 146.20 151.61 L 146.49 151.46 L 146.71 150.74 L 147.65 150.25 L 147.88 149.53 L 149.29 148.79 L 149.51 148.07 L 149.98 147.83 L 150.21 147.11 L 151.15 146.62 L 151.37 145.90 L 152.31 145.41 L 152.53 144.69 L 153.00 144.44 L 153.23 143.73 L 153.70 143.48 L 153.92 142.76 L 154.39 142.52 L 154.61 141.80 L 155.08 141.55 L 155.31 140.83 L 155.78 140.59 L 156.00 139.87 L 156.47 139.62 L 156.70 138.91 L 157.16 138.66 L 157.39 137.94 L 157.86 137.70 L 158.08 136.98 L 158.31 136.26 L 158.78 136.02 L 159.00 135.30 L 159.47 135.05 L 159.92 133.62 L 160.39 133.37 L 160.92 131.65 L 161.06 131.22 L 161.53 130.98 L 161.97 129.54 L 162.20 128.83 L 162.67 128.58 L 163.11 127.14 L 163.34 126.43 L 163.56 125.71 L 163.79 124.99 L 164.26 124.75 L 164.48 124.03 L 165.01 122.31 L 165.55 120.59 L 166.09 118.87 L 166.62 117.16 L 166.71 116.86 L 166.94 116.14 L 167.16 115.43 L 167.38 114.71 L 167.61 113.99 L 167.83 113.28 L 167.58 112.81 L 167.81 112.09 L 168.03 111.37 L 168.25 110.66 L 168.01 110.19 L 168.54 108.47 L 168.68 108.03 L 168.43 107.57 L 168.88 106.13 L 168.63 105.66 L 168.85 104.94 L 168.61 104.47 L 169.05 103.04 L 168.81 102.57 L 169.03 101.85 L 168.78 101.38 L 169.01 100.67 L 168.76 100.20 L 168.98 99.48 L 168.74 99.01 L 168.96 98.29 L 168.71 97.82 L 168.94 97.10 L 168.69 96.63 L 168.91 95.92 L 168.67 95.45 L 168.89 94.73 L 168.65 94.26 L 168.87 93.54 L 168.37 92.60 L 168.60 91.89 L 168.10 90.95 L 168.33 90.23 L 167.83 89.29 L 168.06 88.57 L 167.56 87.63 L 167.79 86.91 L 167.05 85.50 L 167.27 84.79 L 166.78 83.85 L 166.06 83.62 L 164.47 84.46 L 162.87 85.30 L 161.28 86.13 L 159.69 86.97 L 158.09 87.81 L 156.50 88.64 L 154.90 89.48 L 153.31 90.31 L 151.72 91.15 L 150.12 91.99 L 148.53 92.82 L 146.93 93.66 L 145.34 94.50 L 143.75 95.33 L 142.15 96.17 L 140.56 97.01 L 138.97 97.84 L 137.37 98.68 L 135.78 99.51 L 134.18 100.35 L 132.59 101.19 L 131.00 102.02 L 129.40 102.86 L 127.81 103.70 L 126.57 104.35 L 126.34 105.06 L 125.87 105.31 L 125.34 107.03 L 124.80 108.75 L 124.27 110.47 L 123.73 112.19 L 123.64 112.48 L 123.17 112.73 L 122.72 114.16 L 122.25 114.41 L 122.03 115.12 L 121.56 115.37 L 121.33 116.09 L 120.86 116.34 L 120.64 117.05 L 120.17 117.30 L 119.95 118.02 L 119.01 118.51 L 118.78 119.23 L 117.84 119.72 L 117.62 120.44 L 116.03 121.27 L 114.43 122.11 L 112.84 122.95 L 111.24 123.78 L 109.65 124.62 L 108.06 125.45 L 107.28 125.86 L 106.56 125.64 L 105.15 126.38 L 104.43 126.16 L 103.49 126.65 L 102.78 126.43 L 102.30 126.67 L 101.59 126.45 L 101.12 126.70 L 100.40 126.47 L 99.93 126.72 L 99.21 126.50 L 98.74 126.74 L 97.31 126.30 L 96.84 126.54 L 95.12 126.01 L 93.97 125.65 L 93.50 125.90 L 91.78 125.36 L 90.06 124.83 L 88.35 124.29 L 87.77 124.11 L 87.52 123.64 L 86.09 123.19 L 85.84 122.72 L 85.12 122.50 L 84.88 122.03 L 84.16 121.80 L 83.91 121.33 L 83.19 121.11 L 82.70 120.17 L 83.19 121.11 L 83.91 121.33 L 84.16 121.80 L 84.88 122.03 L 85.12 122.50 L 85.84 122.72 L 86.09 123.19 L 87.52 123.64 L 87.77 124.11 L 89.48 124.64 L 91.20 125.18 L 92.92 125.72 L 93.50 125.90 L 93.97 125.65 L 95.69 126.19 L 96.84 126.54 L 97.31 126.30 L 98.74 126.74 L 99.21 126.50 L 99.93 126.72 L 100.40 126.47 L 101.12 126.70 L 101.59 126.45 L 102.30 126.67 L 102.78 126.43 L 103.49 126.65 L 104.43 126.16 L 105.15 126.38 L 106.56 125.64 L 107.28 125.86 L 108.87 125.03 L 110.46 124.19 L 112.06 123.35 L 113.65 122.52 L 115.24 121.68 L 116.84 120.85 L 117.62 120.44 L 117.84 119.72 L 118.78 119.23 L 119.01 118.51 L 119.95 118.02 L 120.17 117.30 L 120.64 117.05 L 120.86 116.34 L 121.33 116.09 L 121.56 115.37 L 122.03 115.12 L 122.25 114.41 L 122.72 114.16 L 123.17 112.73 L 123.64 112.48 L 124.17 110.76 L 124.71 109.04 L 125.25 107.33 L 125.78 105.61 L 125.87 105.31 L 126.34 105.06 L 126.57 104.35 L 128.16 103.51 L 129.75 102.68 L 131.35 101.84 L 132.94 101.00 L 134.54 100.17 L 136.13 99.33 L 137.72 98.49 L 139.32 97.66 L 140.91 96.82 L 142.51 95.98 L 144.10 95.15 L 145.69 94.31 L 146.78 93.74 L 147.03 94.21 L 146.81 94.93 L 147.55 96.34 L 147.32 97.05 L 147.57 97.52 L 147.35 98.24 L 147.59 98.71 L 147.37 99.43 L 147.62 99.90 L 147.39 100.61 L 147.64 101.09 L 147.42 101.80 L 147.19 102.52 L 147.44 102.99 L 147.22 103.71 L 146.99 104.42 L 147.24 104.89 L 147.02 105.61 L 146.79 106.33 L 147.04 106.80 L 146.50 108.51 L 146.37 108.95 L 146.62 109.42 L 146.08 111.14 L 145.55 112.85 L 145.01 114.57 L 144.47 116.29 L 143.94 118.01 L 143.40 119.73 L 142.87 121.45 L 142.82 121.61 L 142.35 121.85 L 142.12 122.57 L 141.90 123.29 L 141.43 123.53 L 141.21 124.25 L 140.98 124.97 L 140.51 125.21 L 140.29 125.93 L 140.07 126.65 L 139.60 126.89 L 139.37 127.61 L 138.90 127.86 L 138.68 128.57 L 138.21 128.82 L 137.99 129.54 L 137.52 129.78 L 137.29 130.50 L 136.35 130.99 L 136.13 131.71 L 135.66 131.96 L 135.44 132.67 L 134.49 133.17 L 134.27 133.88 L 133.33 134.38 L 133.11 135.09 L 131.51 135.93 L 131.23 136.08 L 132.82 135.25 L 133.11 135.09 L 133.33 134.38 L 134.27 133.88 L 134.49 133.17 L 135.44 132.67 L 135.66 131.96 L 136.13 131.71 L 136.35 130.99 L 137.29 130.50 L 137.52 129.78 L 137.99 129.54 L 138.21 128.82 L 138.68 128.57 L 138.90 127.86 L 139.37 127.61 L 139.60 126.89 L 140.07 126.65 L 140.29 125.93 L 140.51 125.21 L 140.98 124.97 L 141.21 124.25 L 141.43 123.53 L 141.90 123.29 L 142.12 122.57 L 142.35 121.85 L 142.82 121.61 L 143.35 119.89 L 143.89 118.17 L 144.42 116.45 L 144.96 114.73 L 145.50 113.01 L 146.03 111.29 L 146.57 109.58 L 146.62 109.42 L 146.37 108.95 L 146.91 107.23 L 147.04 106.80 L 146.79 106.33 L 147.02 105.61 L 147.24 104.89 L 146.99 104.42 L 147.22 103.71 L 147.44 102.99 L 147.19 102.52 L 147.42 101.80 L 147.64 101.09 L 147.39 100.61 L 147.62 99.90 L 147.37 99.43 L 147.59 98.71 L 147.35 98.24 L 147.57 97.52 L 147.32 97.05 L 147.55 96.34 L 146.81 94.93 L 147.03 94.21 L 146.78 93.74 L 148.38 92.90 L 149.97 92.07 L 151.57 91.23 L 153.16 90.39 L 154.75 89.56 L 156.35 88.72 L 157.13 88.31 L 157.35 87.59 L 157.13 88.31 L 157.60 88.06 L 157.35 87.59 L 157.60 88.06 L 159.19 87.23 L 160.79 86.39 L 162.38 85.55 L 163.97 84.72 L 165.57 83.88 L 166.06 83.62 L 166.78 83.85 L 167.27 84.79 L 167.05 85.50 L 167.79 86.91 L 167.56 87.63 L 168.06 88.57 L 167.83 89.29 L 168.33 90.23 L 168.10 90.95 L 168.60 91.89 L 168.37 92.60 L 168.87 93.54 L 168.65 94.26 L 168.89 94.73 L 168.67 95.45 L 168.91 95.92 L 168.69 96.63 L 168.94 97.10 L 168.71 97.82 L 168.96 98.29 L 168.74 99.01 L 168.98 99.48 L 168.76 100.20 L 169.01 100.67 L 168.78 101.38 L 169.03 101.85 L 168.81 102.57 L 169.05 103.04 L 168.61 104.47 L 168.85 104.94 L 168.63 105.66 L 168.88 106.13 L 168.43 107.57 L 168.68 108.03 L 168.14 109.75 L 168.01 110.19 L 168.25 110.66 L 168.03 111.37 L 167.81 112.09 L 167.58 112.81 L 167.83 113.28 L 167.61 113.99 L 167.38 114.71 L 167.16 115.43 L 166.94 116.14 L 166.71 116.86 L 166.18 118.58 L 165.64 120.30 L 165.11 122.02 L 164.57 123.73 L 164.48 124.03 L 164.26 124.75 L 163.79 124.99 L 163.56 125.71 L 163.34 126.43 L 163.11 127.14 L 162.67 128.58 L 162.20 128.83 L 161.97 129.54 L 161.53 130.98 L 161.06 131.22 L 160.52 132.94 L 160.39 133.37 L 159.92 133.62 L 159.47 135.05 L 159.00 135.30 L 158.78 136.02 L 158.31 136.26 L 158.08 136.98 L 157.86 137.70 L 157.39 137.94 L 157.16 138.66 L 156.70 138.91 L 156.47 139.62 L 156.00 139.87 L 155.78 140.59 L 155.31 140.83 L 155.08 141.55 L 154.61 141.80 L 154.39 142.52 L 153.92 142.76 L 153.70 143.48 L 153.23 143.73 L 153.00 144.44 L 152.53 144.69 L 152.31 145.41 L 151.37 145.90 L 151.15 146.62 L 150.21 147.11 L 149.98 147.83 L 149.51 148.07 L 149.29 148.79 L 147.88 149.53 L 147.65 150.25 L 146.71 150.74 L 146.49 151.46 L 144.90 152.29 L 144.61 152.45 L 144.39 153.16 L 142.79 154.00 L 142.51 154.15 L 142.28 154.87 L 140.69 155.70 L 139.93 156.10 L 139.71 156.82 L 138.12 157.65 L 136.52 158.49 L 134.93 159.32 L 133.33 160.16 L 131.74 161.00 L 130.15 161.83 L 128.55 162.67 L 126.96 163.51 L 125.36 164.34 L 123.77 165.18 L 123.25 165.45 L 122.54 165.23 L 120.94 166.06 L 120.18 166.46 L 119.47 166.24 L 117.87 167.07 L 117.59 167.22 L 116.87 167.00 L 115.46 167.74 L 114.74 167.52 L 113.33 168.26 L 112.62 168.03 L 111.67 168.53 L 110.96 168.31 L 110.02 168.80 L 109.30 168.57 L 108.36 169.07 L 107.64 168.84 L 107.17 169.09 L 106.46 168.87 L 105.52 169.36 L 104.80 169.14 L 104.33 169.39 L 103.61 169.16 L 103.14 169.41 L 102.43 169.18 L 101.96 169.43 L 101.24 169.21 L 100.77 169.45 L 100.05 169.23 L 99.58 169.48 L 98.86 169.25 L 98.39 169.50 L 97.68 169.28 L 97.21 169.52 L 96.49 169.30 L 95.77 169.08 L 95.30 169.32 L 94.59 169.10 L 94.12 169.35 L 92.68 168.90 L 92.21 169.15 L 90.49 168.61 L 90.06 168.48 L 89.59 168.72 L 88.87 168.50 L 88.16 168.28 L 87.44 168.05 L 86.97 168.30 L 86.25 168.08 L 85.54 167.85 L 84.82 167.63 L 84.10 167.41 L 83.39 167.18 L 81.67 166.65 L 79.95 166.11 L 78.23 165.58 L 76.51 165.04 L 75.50 164.72 L 75.25 164.26 L 74.54 164.03 L 73.82 163.81 L 73.10 163.58 L 72.39 163.36 L 71.67 163.14 L 71.42 162.67 L 70.70 162.44 L 69.99 162.22 L 69.27 162.00 L 69.02 161.53 L 67.31 160.99 L 66.87 160.86 L 66.63 160.39 L 65.91 160.16 L 65.66 159.69 L 64.23 159.25 L 63.98 158.78 L 63.27 158.55 L 62.55 158.33 L 62.30 157.86 L 61.59 157.64 L 61.34 157.17 L 60.62 156.94 L 60.37 156.47 L 59.66 156.25 L 59.41 155.78 L 58.69 155.55 L 58.45 155.08 L 57.73 154.86 L 57.48 154.39 L 56.77 154.17 L 56.52 153.70 L 55.80 153.47 L 55.31 152.53 L 54.59 152.31 L 54.35 151.84 L 53.63 151.62 L 52.89 150.21 L 52.17 149.98 L 51.93 149.51 L 51.21 149.29 L 50.72 148.35 L 50.00 148.12 L 49.26 146.71 L 48.54 146.49 L 47.80 145.08 L 47.09 144.86 L 46.25 143.26 L 46.10 142.98 L 45.38 142.75 L 44.54 141.16 L 44.15 140.40 L 43.43 140.18 L 42.59 138.58 L 41.76 136.99 L 40.92 135.40 L 40.09 133.80 L 39.25 132.21 L 38.41 130.61 L 37.58 129.02 L 36.74 127.43 L 35.90 125.83 L 35.07 124.24 L 34.55 123.25 L 34.77 122.54 L 33.94 120.94 L 33.54 120.19 L 33.76 119.47 L 32.93 117.87 L 32.78 117.59 L 33.00 116.87 L 32.26 115.46 L 32.48 114.74 L 31.74 113.33 L 31.96 112.62 L 31.47 111.67 L 31.69 110.96 L 31.20 110.02 L 31.43 109.30 L 30.93 108.36 L 31.16 107.64 L 30.91 107.17 L 31.13 106.46 L 30.64 105.52 L 30.86 104.80 L 30.61 104.33 L 30.84 103.61 L 30.59 103.14 L 30.82 102.43 L 30.57 101.95 L 30.79 101.24 L 30.55 100.77 L 30.77 100.05 L 30.52 99.58 L 30.75 98.86 L 30.50 98.39 L 30.72 97.68 L 30.48 97.21 L 30.70 96.49 L 30.92 95.77 L 30.68 95.30 L 30.90 94.59 L 30.65 94.12 L 31.10 92.68 L 30.85 92.21 L 31.39 90.49 L 31.52 90.06 L 31.28 89.59 L 31.50 88.87 L 31.72 88.16 L 31.95 87.44 L 31.70 86.97 L 31.92 86.25 L 32.15 85.54 L 32.37 84.82 L 32.59 84.10 L 32.82 83.39 L 33.35 81.67 L 33.89 79.95 L 34.42 78.23 L 34.96 76.51 L 35.05 76.22 L 35.52 75.97 L 35.74 75.25 L 35.97 74.54 L 36.19 73.82 L 36.42 73.10 L 36.64 72.39 L 37.11 72.14 L 37.33 71.42 L 37.56 70.70 L 37.78 69.99 L 38.25 69.74 L 38.78 68.02 L 38.92 67.59 L 39.39 67.34 L 39.84 65.91 L 40.31 65.66 L 40.53 64.95 L 41.00 64.70 L 41.45 63.27 L 41.92 63.02 L 42.14 62.30 L 42.61 62.06 L 42.84 61.34 L 43.30 61.09 L 43.53 60.38 L 44.00 60.13 L 44.22 59.41 L 44.69 59.17 L 44.92 58.45 L 45.39 58.20 L 45.61 57.48 L 46.08 57.24 L 46.30 56.52 L 47.24 56.03 L 47.47 55.31 L 48.41 54.82 L 48.63 54.10 L 49.10 53.85 L 49.32 53.14 L 50.26 52.64 L 50.49 51.93 L 51.43 51.43 L 51.65 50.72 L 53.06 49.98 L 53.29 49.26 L 54.70 48.52 L 54.92 47.80 L 56.33 47.06 L 56.55 46.34 L 58.15 45.51 L 58.43 45.36 L 58.66 44.64 L 60.25 43.81 L 61.48 43.16 L 61.70 42.44 L 63.30 41.61 L 64.89 40.77 L 66.48 39.93 L 68.08 39.10 L 69.67 38.26 L 71.27 37.43 L 72.86 36.59 L 74.40 35.78 L 75.11 36.01 L 76.71 35.17 L 77.93 34.52 L 78.65 34.75 L 80.25 33.91 L 80.53 33.76 L 81.25 33.99 L 82.66 33.25 L 83.38 33.47 L 84.97 32.63 L 85.26 32.48 L 85.97 32.71 L 86.91 32.21 L 87.63 32.44 L 88.57 31.94 L 89.29 32.17 L 90.23 31.67 L 90.95 31.90 L 91.89 31.40 L 92.60 31.63 L 93.54 31.13 L 94.26 31.35 L 94.73 31.11 L 95.45 31.33 L 95.92 31.09 L 96.63 31.31 L 97.10 31.06 L 97.82 31.29 L 98.29 31.04 L 99.01 31.26 L 99.48 31.02 L 100.20 31.24 L 100.67 30.99 L 101.38 31.22 L 101.85 30.97 L 102.57 31.19 L 103.04 30.95 L 104.47 31.39 L 104.94 31.15 L 105.66 31.37 L 106.13 31.12 L 107.56 31.57 L 108.03 31.32 L 109.75 31.86 L 110.19 31.99 L 110.66 31.75 L 111.37 31.97 L 112.09 32.19 L 112.81 32.42 L 113.28 32.17 L 113.99 32.39 L 114.71 32.62 L 115.43 32.84 L 116.14 33.06 L 116.86 33.29 L 118.58 33.82 L 120.30 34.36 L 122.02 34.89 L 123.73 35.43 L 124.03 35.52 L 124.75 35.74 L 124.99 36.21 L 125.71 36.44 L 126.43 36.66 L 127.14 36.89 L 127.86 37.11 L 128.11 37.58 L 128.83 37.80 L 129.54 38.03 L 130.26 38.25 L 130.51 38.72 L 132.22 39.26 L 132.66 39.39 L 132.90 39.86 L 134.34 40.31 L 134.58 40.78 L 135.30 41.00 L 135.55 41.47 L 136.98 41.92 L 137.23 42.39 L 137.94 42.61 L 138.19 43.08 L 138.91 43.30 L 139.15 43.78 L 139.87 44.00 L 140.12 44.47 L 140.83 44.69 L 141.08 45.16 L 141.80 45.39 L 142.04 45.86 L 142.76 46.08 L 143.01 46.55 L 143.73 46.77 L 143.97 47.24 L 144.69 47.47 L 145.18 48.41 L 145.90 48.63 L 146.39 49.57 L 147.11 49.79 L 147.36 50.26 L 148.07 50.49 L 148.81 51.90 L 149.53 52.12 L 150.02 53.06 L 150.74 53.29 L 151.58 54.88 L 151.73 55.17 L 152.44 55.39 L 153.19 56.80 L 153.90 57.02 L 154.74 58.62 L 154.89 58.90 L 155.61 59.13 L 156.44 60.72 L 157.09 61.95 L 157.80 62.17 L 158.64 63.77 L 159.48 65.36 L 160.31 66.95 L 161.15 68.55 L 161.98 70.14 L 162.82 71.74 L 163.23 72.52 L 164.82 71.68 L 166.42 70.84 L 166.99 70.54 L 167.71 70.77 L 169.30 69.93 L 170.90 69.09 L 172.49 68.26 L 172.88 68.05 L 173.62 69.46 L 173.40 70.18 L 174.23 71.77 L 175.07 73.37 L 175.12 73.47 L 174.90 74.19 L 175.74 75.78 L 175.89 76.07 L 175.67 76.78 L 176.50 78.38 L 176.65 78.67 L 176.43 79.38 L 177.17 80.79 L 176.95 81.51 L 177.69 82.92 L 177.46 83.64 L 177.95 84.58 L 177.73 85.29 L 178.47 86.70 L 178.25 87.42 L 178.74 88.36 L 178.52 89.08 L 178.77 89.55 L 178.54 90.27 L 179.04 91.21 L 178.81 91.92 L 179.06 92.39 L 178.83 93.11 L 179.33 94.05 L 179.11 94.77 L 179.35 95.24 L 179.13 95.95 L 179.38 96.42 L 179.15 97.14 L 179.40 97.61 L 179.18 98.33 L 179.42 98.80 L 179.20 99.52 L 179.44 99.99 L 179.22 100.70 L 179.47 101.17 L 179.02 102.61 L 179.27 103.08 L 179.04 103.79 L 179.29 104.26 L 179.07 104.98 L 179.31 105.45 L 179.09 106.17 L 178.87 106.89 L 179.11 107.36 L 178.89 108.07 L 178.67 108.79 L 178.91 109.26 L 178.69 109.98 L 178.47 110.69 L 178.24 111.41 L 178.49 111.88 L 178.27 112.60 L 178.04 113.31 L 177.82 114.03 L 178.07 114.50 L 177.84 115.22 L 177.62 115.93 L 177.40 116.65 L 177.17 117.37 L 177.42 117.84 L 177.20 118.56 L 176.66 120.27 L 176.13 121.99 L 175.59 123.71 L 175.05 125.43 L 174.52 127.15 L 174.07 128.59 L 173.84 129.31 L 173.62 130.03 L 173.40 130.74 L 173.17 131.46 L 172.73 132.89 L 172.26 133.14 L 172.03 133.86 L 171.81 134.57 L 171.59 135.29 L 171.12 135.54 L 170.89 136.25 L 170.67 136.97 L 170.45 137.69 L 169.98 137.93 L 169.75 138.65 L 169.53 139.37 L 169.06 139.61 L 168.84 140.33 L 168.61 141.05 L 168.14 141.30 L 167.92 142.01 L 167.45 142.26 L 167.23 142.98 L 166.76 143.22 L 166.31 144.66 L 165.84 144.90 L 165.61 145.62 L 165.14 145.87 L 164.92 146.58 L 164.45 146.83 L 164.23 147.55 L 163.76 147.79 L 163.53 148.51 L 163.06 148.76 L 162.84 149.47 L 162.37 149.72 L 162.15 150.44 L 161.21 150.93 L 160.98 151.65 L 160.51 151.90 L 160.29 152.61 L 159.35 153.11 L 159.12 153.82 L 158.66 154.07 L 158.43 154.79 L 157.49 155.28 L 157.27 156.00 L 156.33 156.49 L 156.10 157.21 L 154.69 157.95 L 154.47 158.66 L 153.06 159.40 L 152.84 160.12 L 151.43 160.86 L 151.20 161.58 L 149.61 162.41 L 148.85 162.81 L 148.63 163.53 L 147.03 164.36 L 145.81 165.01 L 145.58 165.73 L 143.99 166.56 L 142.40 167.40 L 140.80 168.24 L 139.21 169.07 L 137.61 169.91 L 136.02 170.75 L 134.43 171.58 L 132.83 172.42 L 131.24 173.25 L 129.64 174.09 L 128.19 174.86 L 127.47 174.63 L 125.88 175.47 L 124.65 176.11 L 123.93 175.89 L 122.34 176.72 L 121.58 177.12 L 120.86 176.90 L 119.45 177.64 L 118.74 177.42 L 117.80 177.91 L 117.08 177.69 L 115.67 178.43 L 114.95 178.20 L 114.01 178.70 L 113.29 178.47 L 112.36 178.97 L 111.64 178.74 L 110.70 179.24 L 109.98 179.01 L 109.51 179.26 L 108.79 179.04 L 107.85 179.53 L 107.14 179.31 L 106.67 179.55 L 105.95 179.33 L 105.01 179.82 L 104.29 179.60 L 103.82 179.84 L 103.11 179.62 L 102.63 179.87 L 101.92 179.64 L 101.45 179.89 L 100.73 179.67 L 100.26 179.92 L 99.54 179.69 L 99.07 179.94 L 97.64 179.49 L 97.17 179.74 L 96.45 179.52 L 95.98 179.76 L 95.27 179.54 L 94.80 179.78 L 94.08 179.56 L 93.36 179.34 L 92.89 179.58 L 92.18 179.36 L 91.46 179.14 L 90.99 179.38 L 90.27 179.16 L 89.55 178.94 L 88.84 178.71 L 88.37 178.96 L 87.65 178.74 L 86.93 178.51 L 86.22 178.29 L 85.75 178.54 L 84.31 178.09 L 83.60 177.87 L 82.88 177.64 L 82.41 177.89 L 81.69 177.67 L 80.97 177.44 L 79.26 176.91 L 77.54 176.37 L 75.82 175.84 L 74.10 175.30 L 72.38 174.77 L 71.65 174.54 L 70.94 174.31 L 70.22 174.09 L 69.50 173.87 L 68.79 173.64 L 67.35 173.20 L 67.11 172.73 L 66.39 172.50 L 65.67 172.28 L 64.96 172.06 L 64.71 171.59 L 63.28 171.14 L 62.56 170.92 L 62.31 170.45 L 61.59 170.22 L 60.88 170.00 L 60.63 169.53 L 59.91 169.31 L 59.67 168.84 L 58.95 168.61 L 58.23 168.39 L 57.99 167.92 L 57.27 167.70 L 57.02 167.23 L 55.59 166.78 L 55.34 166.31 L 54.63 166.08 L 54.38 165.61 L 53.66 165.39 L 53.42 164.92 L 52.70 164.70 L 52.45 164.23 L 51.74 164.00 L 51.49 163.53 L 50.77 163.31 L 50.28 162.37 L 49.56 162.15 L 49.31 161.68 L 48.60 161.45 L 48.10 160.51 L 47.39 160.29 L 47.14 159.82 L 46.42 159.60 L 45.93 158.66 L 45.21 158.43 L 44.72 157.49 L 44.00 157.27 L 43.51 156.33 L 42.79 156.10 L 42.05 154.69 L 41.34 154.47 L 40.84 153.53 L 40.13 153.31 L 39.38 151.90 L 38.67 151.67 L 37.83 150.08 L 37.44 149.32 L 36.72 149.10 L 35.88 147.50 L 35.24 146.28 L 34.52 146.05 L 33.68 144.46 L 32.85 142.87 L 32.01 141.27 L 31.17 139.68 L 30.34 138.08 L 29.50 136.49 L 28.67 134.90 L 27.83 133.30 L 26.99 131.71 L 26.16 130.11 L 25.32 128.52 L 25.14 128.19 L 25.37 127.47 L 24.53 125.88 L 23.89 124.65 L 24.11 123.93 L 23.28 122.34 L 22.88 121.58 L 23.10 120.86 L 22.36 119.45 L 22.58 118.74 L 22.09 117.80 L 22.31 117.08 L 21.57 115.67 L 21.80 114.95 L 21.31 114.01 L 21.53 113.29 L 21.03 112.36 L 21.26 111.64 L 20.76 110.70 L 20.99 109.98 L 20.74 109.51 L 20.96 108.79 L 20.47 107.85 L 20.69 107.14 L 20.45 106.67 L 20.67 105.95 L 20.18 105.01 L 20.40 104.29 L 20.16 103.82 L 20.38 103.10 L 20.13 102.63 L 20.36 101.92 L 20.11 101.45 L 20.33 100.73 L 20.08 100.26 L 20.31 99.54 L 20.06 99.07 L 20.51 97.64 L 20.26 97.17 L 20.48 96.45 L 20.24 95.98 L 20.46 95.27 L 20.22 94.80 L 20.44 94.08 L 20.66 93.36 L 20.42 92.89 L 20.64 92.17 L 20.86 91.46 L 20.62 90.99 L 20.84 90.27 L 21.06 89.55 L 21.29 88.84 L 21.04 88.37 L 21.26 87.65 L 21.49 86.93 L 21.71 86.22 L 21.46 85.75 L 21.91 84.31 L 22.13 83.60 L 22.36 82.88 L 22.11 82.41 L 22.33 81.69 L 22.56 80.97 L 23.09 79.26 L 23.63 77.54 L 24.16 75.82 L 24.70 74.10 L 25.23 72.38 L 25.46 71.65 L 25.69 70.94 L 25.91 70.22 L 26.13 69.50 L 26.36 68.79 L 26.58 68.07 L 27.05 67.82 L 27.27 67.11 L 27.50 66.39 L 27.72 65.67 L 28.19 65.43 L 28.73 63.71 L 28.86 63.28 L 29.33 63.03 L 29.55 62.31 L 29.78 61.59 L 30.25 61.35 L 30.47 60.63 L 30.94 60.39 L 31.16 59.67 L 31.39 58.95 L 31.86 58.70 L 32.08 57.99 L 32.55 57.74 L 33.00 56.31 L 33.47 56.06 L 33.69 55.34 L 34.16 55.10 L 34.39 54.38 L 34.86 54.13 L 35.08 53.42 L 35.55 53.17 L 35.77 52.45 L 36.24 52.21 L 36.47 51.49 L 37.41 51.00 L 37.63 50.28 L 38.10 50.03 L 38.32 49.31 L 39.26 48.82 L 39.49 48.10 L 39.96 47.86 L 40.18 47.14 L 41.12 46.65 L 41.34 45.93 L 42.29 45.44 L 42.51 44.72 L 43.45 44.23 L 43.67 43.51 L 45.08 42.77 L 45.31 42.05 L 46.25 41.56 L 46.47 40.84 L 47.88 40.10 L 48.10 39.38 L 49.70 38.55 L 49.98 38.40 L 50.21 37.68 L 51.80 36.85 L 52.09 36.70 L 52.31 35.98 L 53.91 35.14 L 55.50 34.30 L 55.60 34.25 L 55.83 33.53 L 57.42 32.70 L 59.01 31.86 L 60.61 31.02 L 62.20 30.19 L 63.80 29.35 L 65.39 28.52 L 66.98 27.68 L 68.58 26.84 L 69.46 26.38 L 70.18 26.60 L 71.77 25.77 L 73.37 24.93 L 73.47 24.88 L 74.19 25.10 L 75.78 24.26 L 76.07 24.11 L 76.78 24.33 L 78.38 23.50 L 78.67 23.35 L 79.38 23.57 L 80.79 22.83 L 81.51 23.05 L 82.92 22.31 L 83.64 22.54 L 85.05 21.80 L 85.76 22.02 L 86.70 21.53 L 87.42 21.75 L 88.36 21.26 L 89.08 21.48 L 89.55 21.23 L 90.27 21.46 L 91.21 20.96 L 91.92 21.19 L 92.39 20.94 L 93.11 21.17 L 94.05 20.67 L 94.77 20.89 L 95.24 20.65 L 95.95 20.87 L 96.42 20.62 L 97.14 20.85 L 97.61 20.60 L 98.33 20.82 L 98.80 20.58 L 99.52 20.80 L 99.99 20.56 L 100.70 20.78 L 101.17 20.53 L 102.61 20.98 L 103.08 20.73 L 103.79 20.96 L 104.26 20.71 L 104.98 20.93 L 105.45 20.69 L 106.17 20.91 L 106.89 21.13 L 107.36 20.89 L 108.07 21.11 L 108.79 21.33 L 109.26 21.09 L 109.98 21.31 L 110.69 21.53 L 111.41 21.76 L 111.88 21.51 L 112.60 21.73 L 113.31 21.96 L 114.03 22.18 L 114.50 21.93 L 115.22 22.16 L 115.93 22.38 L 116.65 22.60 L 117.37 22.83 L 117.84 22.58 L 118.56 22.80 L 120.27 23.34 L 121.99 23.87 L 123.71 24.41 L 125.43 24.95 L 127.15 25.48 L 128.59 25.93 L 129.31 26.16 L 130.03 26.38 L 130.74 26.60 L 131.46 26.83 L 132.18 27.05 L 132.42 27.52 L 133.14 27.74 L 133.86 27.97 L 134.57 28.19 L 134.82 28.66 L 136.25 29.11 L 136.97 29.33 L 137.22 29.80 L 137.93 30.02 L 138.65 30.25 L 138.90 30.72 L 140.33 31.16 L 140.58 31.63 L 141.30 31.86 L 141.54 32.33 L 142.26 32.55 L 142.51 33.02 L 143.94 33.47 L 144.19 33.94 L 144.90 34.16 L 145.15 34.63 L 145.87 34.86 L 146.11 35.33 L 146.83 35.55 L 147.08 36.02 L 147.79 36.24 L 148.04 36.71 L 148.76 36.94 L 149.01 37.41 L 149.72 37.63 L 150.22 38.57 L 150.93 38.79 L 151.18 39.26 L 151.90 39.49 L 152.39 40.43 L 153.11 40.65 L 153.35 41.12 L 154.07 41.34 L 154.56 42.29 L 155.28 42.51 L 155.77 43.45 L 156.49 43.67 L 157.23 45.08 L 157.95 45.31 L 158.69 46.72 L 159.40 46.94 L 160.14 48.35 L 160.86 48.57 L 161.70 50.17 L 161.85 50.46 L 162.56 50.68 L 163.40 52.27 L 163.55 52.56 L 164.27 52.78 L 165.10 54.38 L 165.94 55.97 L 166.00 56.07 L 166.71 56.30 L 167.55 57.89 L 167.70 58.18 L 166.86 56.58 L 166.71 56.30 L 166.00 56.07 L 165.16 54.48 L 164.32 52.89 L 164.27 52.78 L 163.55 52.56 L 162.72 50.97 L 162.56 50.68 L 161.85 50.46 L 161.01 48.86 L 160.86 48.57 L 160.14 48.35 L 159.40 46.94 L 158.69 46.72 L 157.95 45.31 L 157.23 45.08 L 156.49 43.67 L 155.77 43.45 L 155.28 42.51 L 154.56 42.29 L 154.07 41.34 L 153.35 41.12 L 153.11 40.65 L 152.39 40.43 L 151.90 39.49 L 151.18 39.26 L 150.93 38.79 L 150.22 38.57 L 149.72 37.63 L 149.01 37.41 L 148.76 36.94 L 148.04 36.71 L 147.79 36.24 L 147.08 36.02 L 146.83 35.55 L 146.11 35.33 L 145.87 34.86 L 145.15 34.63 L 144.90 34.16 L 144.19 33.94 L 143.94 33.47 L 142.51 33.02 L 142.26 32.55 L 141.54 32.33 L 141.30 31.86 L 140.58 31.63 L 140.33 31.16 L 138.90 30.72 L 138.65 30.25 L 137.93 30.02 L 137.22 29.80 L 136.97 29.33 L 136.25 29.11 L 134.82 28.66 L 134.57 28.19 L 133.86 27.97 L 133.14 27.74 L 132.42 27.52 L 132.18 27.05 L 131.46 26.83 L 130.74 26.60 L 130.03 26.38 L 129.31 26.16 L 128.59 25.93 L 126.87 25.40 L 125.16 24.86 L 123.44 24.32 L 121.72 23.79 L 120.00 23.25 L 118.56 22.80 L 117.84 22.58 L 117.37 22.83 L 116.65 22.60 L 115.93 22.38 L 115.22 22.16 L 114.50 21.93 L 114.03 22.18 L 113.31 21.96 L 112.60 21.73 L 111.88 21.51 L 111.41 21.76 L 110.69 21.53 L 109.98 21.31 L 109.26 21.09 L 108.79 21.33 L 108.07 21.11 L 107.36 20.89 L 106.89 21.13 L 106.17 20.91 L 105.45 20.69 L 104.98 20.93 L 104.26 20.71 L 103.79 20.96 L 103.08 20.73 L 102.61 20.98 L 101.17 20.53 L 100.70 20.78 L 99.99 20.56 L 99.52 20.80 L 98.80 20.58 L 98.33 20.82 L 97.61 20.60 L 97.14 20.85 L 96.42 20.62 L 95.95 20.87 L 95.24 20.65 L 94.77 20.89 L 94.05 20.67 L 93.11 21.17 L 92.39 20.94 L 91.92 21.19 L 91.21 20.96 L 90.27 21.46 L 89.55 21.23 L 89.08 21.48 L 88.36 21.26 L 87.42 21.75 L 86.70 21.53 L 85.76 22.02 L 85.05 21.80 L 83.64 22.54 L 82.92 22.31 L 81.51 23.05 L 80.79 22.83 L 79.38 23.57 L 78.67 23.35 L 77.07 24.18 L 76.78 24.33 L 76.07 24.11 L 74.47 24.95 L 74.19 25.10 L 73.47 24.88 L 71.88 25.71 L 70.28 26.55 L 70.18 26.60 L 69.46 26.38 L 67.87 27.21 L 66.27 28.05 L 64.68 28.89 L 63.09 29.72 L 61.49 30.56 L 59.90 31.40 L 58.31 32.23 L 56.71 33.07 L 55.83 33.53 L 55.60 34.25 L 54.01 35.09 L 52.42 35.92 L 52.31 35.98 L 52.09 36.70 L 50.50 37.53 L 50.21 37.68 L 49.98 38.40 L 48.39 39.23 L 48.10 39.38 L 47.88 40.10 L 46.47 40.84 L 46.25 41.56 L 45.31 42.05 L 45.08 42.77 L 43.67 43.51 L 43.45 44.23 L 42.51 44.72 L 42.29 45.44 L 41.34 45.93 L 41.12 46.65 L 40.18 47.14 L 39.96 47.86 L 39.49 48.10 L 39.26 48.82 L 38.32 49.31 L 38.10 50.03 L 37.63 50.28 L 37.41 51.00 L 36.47 51.49 L 36.24 52.21 L 35.77 52.45 L 35.55 53.17 L 35.08 53.42 L 34.86 54.13 L 34.39 54.38 L 34.16 55.10 L 33.69 55.34 L 33.47 56.06 L 33.00 56.31 L 32.55 57.74 L 32.08 57.99 L 31.86 58.70 L 31.39 58.95 L 31.16 59.67 L 30.94 60.39 L 30.47 60.63 L 30.25 61.35 L 29.78 61.59 L 29.55 62.31 L 29.33 63.03 L 28.86 63.28 L 28.32 64.99 L 28.19 65.43 L 27.72 65.67 L 27.50 66.39 L 27.27 67.11 L 27.05 67.82 L 26.58 68.07 L 26.36 68.79 L 26.13 69.50 L 25.91 70.22 L 25.69 70.94 L 25.46 71.65 L 24.93 73.37 L 24.39 75.09 L 23.85 76.81 L 23.32 78.53 L 22.78 80.25 L 22.56 80.97 L 22.33 81.69 L 22.11 82.41 L 22.36 82.88 L 22.13 83.60 L 21.91 84.31 L 21.46 85.75 L 21.71 86.22 L 21.49 86.93 L 21.26 87.65 L 21.04 88.37 L 21.29 88.84 L 21.06 89.55 L 20.84 90.27 L 20.62 90.99 L 20.86 91.46 L 20.64 92.17 L 20.42 92.89 L 20.66 93.36 L 20.44 94.08 L 20.22 94.80 L 20.46 95.27 L 20.24 95.98 L 20.48 96.45 L 20.26 97.17 L 20.51 97.64 L 20.06 99.07 L 20.31 99.54 L 20.08 100.26 L 20.33 100.73 L 20.11 101.45 L 20.36 101.92 L 20.13 102.63 L 20.38 103.10 L 20.16 103.82 L 20.40 104.29 L 20.18 105.01 L 20.67 105.95 L 20.45 106.67 L 20.69 107.14 L 20.47 107.85 L 20.96 108.79 L 20.74 109.51 L 20.99 109.98 L 20.76 110.70 L 21.26 111.64 L 21.03 112.36 L 21.53 113.29 L 21.31 114.01 L 21.80 114.95 L 21.57 115.67 L 22.31 117.08 L 22.09 117.80 L 22.58 118.74 L 22.36 119.45 L 23.10 120.86 L 22.88 121.58 L 23.72 123.17 L 24.11 123.93 L 23.89 124.65 L 24.73 126.24 L 25.37 127.47 L 25.14 128.19 L 25.98 129.78 L 26.82 131.38 L 27.65 132.97 L 28.49 134.56 L 29.33 136.16 L 30.16 137.75 L 31.00 139.34 L 31.84 140.94 L 32.67 142.53 L 33.51 144.13 L 34.35 145.72 L 34.52 146.05 L 35.24 146.28 L 36.07 147.87 L 36.72 149.10 L 37.44 149.32 L 38.27 150.92 L 38.67 151.67 L 39.38 151.90 L 40.13 153.31 L 40.84 153.53 L 41.34 154.47 L 42.05 154.69 L 42.79 156.10 L 43.51 156.33 L 44.00 157.27 L 44.72 157.49 L 45.21 158.43 L 45.93 158.66 L 46.42 159.60 L 47.14 159.82 L 47.39 160.29 L 48.10 160.51 L 48.60 161.45 L 49.31 161.68 L 49.56 162.15 L 50.28 162.37 L 50.77 163.31 L 51.49 163.53 L 51.74 164.00 L 52.45 164.23 L 52.70 164.70 L 53.42 164.92 L 53.66 165.39 L 54.38 165.61 L 54.63 166.08 L 55.34 166.31 L 55.59 166.78 L 57.02 167.23 L 57.27 167.70 L 57.99 167.92 L 58.23 168.39 L 58.95 168.61 L 59.67 168.84 L 59.91 169.31 L 60.63 169.53 L 60.88 170.00 L 61.59 170.22 L 62.31 170.45 L 62.56 170.92 L 63.28 171.14 L 64.71 171.59 L 64.96 172.06 L 65.67 172.28 L 66.39 172.50 L 67.11 172.73 L 67.35 173.20 L 68.79 173.64 L 69.50 173.87 L 70.22 174.09 L 70.94 174.31 L 71.65 174.54 L 73.37 175.07 L 75.09 175.61 L 76.81 176.15 L 78.53 176.68 L 80.25 177.22 L 80.97 177.44 L 81.69 177.67 L 82.41 177.89 L 82.88 177.64 L 83.60 177.87 L 84.31 178.09 L 85.75 178.54 L 86.22 178.29 L 86.93 178.51 L 87.65 178.74 L 88.37 178.96 L 88.84 178.71 L 89.55 178.94 L 90.27 179.16 L 90.99 179.38 L 91.46 179.14 L 92.18 179.36 L 92.89 179.58 L 93.36 179.34 L 94.08 179.56 L 94.80 179.78 L 95.27 179.54 L 95.98 179.76 L 96.45 179.52 L 97.17 179.74 L 97.64 179.49 L 99.07 179.94 L 99.54 179.69 L 100.26 179.92 L 100.73 179.67 L 101.45 179.89 L 101.92 179.64 L 102.63 179.87 L 103.11 179.62 L 103.82 179.84 L 104.29 179.60 L 105.01 179.82 L 105.95 179.33 L 106.67 179.55 L 107.14 179.31 L 107.85 179.53 L 108.79 179.04 L 109.51 179.26 L 109.98 179.01 L 110.70 179.24 L 111.64 178.74 L 112.36 178.97 L 113.29 178.47 L 114.01 178.70 L 114.95 178.20 L 115.67 178.43 L 117.08 177.69 L 117.80 177.91 L 118.74 177.42 L 119.45 177.64 L 120.86 176.90 L 121.58 177.12 L 123.18 176.28 L 123.93 175.89 L 124.65 176.11 L 126.24 175.28 L 127.47 174.63 L 128.19 174.86 L 129.78 174.02 L 131.38 173.18 L 132.97 172.35 L 134.56 171.51 L 136.16 170.67 L 137.75 169.84 L 139.34 169.00 L 140.94 168.16 L 142.53 167.33 L 144.13 166.49 L 145.58 165.73 L 145.81 165.01 L 147.40 164.17 L 148.63 163.53 L 148.85 162.81 L 150.44 161.98 L 151.20 161.58 L 151.43 160.86 L 152.84 160.12 L 153.06 159.40 L 154.47 158.66 L 154.69 157.95 L 156.10 157.21 L 156.33 156.49 L 157.27 156.00 L 157.49 155.28 L 158.43 154.79 L 158.66 154.07 L 159.12 153.82 L 159.35 153.11 L 160.29 152.61 L 160.51 151.90 L 160.98 151.65 L 161.21 150.93 L 162.15 150.44 L 162.37 149.72 L 162.84 149.47 L 163.06 148.76 L 163.53 148.51 L 163.76 147.79 L 164.23 147.55 L 164.45 146.83 L 164.92 146.58 L 165.14 145.87 L 165.61 145.62 L 165.84 144.90 L 166.31 144.66 L 166.76 143.22 L 167.23 142.98 L 167.45 142.26 L 167.92 142.01 L 168.14 141.30 L 168.61 141.05 L 168.84 140.33 L 169.06 139.61 L 169.53 139.37 L 169.75 138.65 L 169.98 137.93 L 170.45 137.69 L 170.67 136.97 L 170.89 136.25 L 171.12 135.54 L 171.59 135.29 L 171.81 134.57 L 172.03 133.86 L 172.26 133.14 L 172.73 132.89 L 173.17 131.46 L 173.40 130.74 L 173.62 130.03 L 173.84 129.31 L 174.07 128.59 L 174.60 126.87 L 175.14 125.16 L 175.68 123.44 L 176.21 121.72 L 176.75 120.00 L 177.20 118.56 L 177.42 117.84 L 177.17 117.37 L 177.40 116.65 L 177.62 115.93 L 177.84 115.22 L 178.07 114.50 L 177.82 114.03 L 178.04 113.31 L 178.27 112.60 L 178.49 111.88 L 178.24 111.41 L 178.47 110.69 L 178.69 109.98 L 178.91 109.26 L 178.67 108.79 L 178.89 108.07 L 179.11 107.36 L 178.87 106.89 L 179.09 106.17 L 179.31 105.45 L 179.07 104.98 L 179.29 104.26 L 179.04 103.79 L 179.27 103.08 L 179.02 102.61 L 179.47 101.17 L 179.22 100.70 L 179.44 99.99 L 179.20 99.52 L 179.42 98.80 L 179.18 98.33 L 179.40 97.61 L 179.15 97.14 L 179.38 96.42 L 179.13 95.95 L 179.35 95.24 L 179.11 94.77 L 179.33 94.05 L 178.83 93.11 L 179.06 92.39 L 178.81 91.92 L 179.04 91.21 L 178.54 90.27 L 178.77 89.55 L 178.52 89.08 L 178.74 88.36 L 178.25 87.42 L 178.47 86.70 L 177.73 85.29 L 177.95 84.58 L 177.46 83.64 L 177.69 82.92 L 176.95 81.51 L 177.17 80.79 L 176.43 79.38 L 176.65 78.67 L 175.82 77.07 L 175.67 76.78 L 175.89 76.07 L 175.05 74.47 L 174.90 74.19 L 175.12 73.47 L 174.29 71.88 L 173.45 70.28 L 173.40 70.18 L 173.62 69.46 L 172.88 68.05 L 174.47 67.22 L 176.07 66.38 L 177.66 65.54 L 178.52 65.09 L 178.75 64.37 L 180.34 63.54 L 181.57 62.89" 
          fill="none" 
          stroke="currentColor" 
          stroke-width="0.5"/>
</svg>