<?xml version="1.0" encoding="UTF-8" standalone="no"?>
<svg width="100%" height="100%" viewBox="0 0 200 200" preserveAspectRatio="xMidYMid meet" xmlns="http://www.w3.org/2000/svg">
    <path d="M 100.00 100.00 L 100.00 100.00 L 151.90 98.87 L 168.85 98.88 L 162.52 71.14 L 147.25 78.50 L 146.26 76.47 L 161.55 69.11 L 143.81 46.86 L 133.24 60.13 L 136.06 62.67 L 144.45 53.98 L 154.70 66.95 L 148.54 70.66 L 141.95 61.83 L 148.54 70.66 L 154.70 66.95 L 144.45 53.98 L 136.06 62.67 L 131.48 58.72 L 142.06 45.46 L 116.42 33.12 L 112.65 49.65 L 128.37 56.54 L 134.98 46.43 L 120.06 39.32 L 117.80 46.15 L 127.88 50.61 L 117.80 46.15 L 120.06 39.32 L 134.98 46.43 L 128.37 56.54 L 110.45 49.15 L 114.23 32.63 L 85.77 32.63 L 89.55 49.15 L 93.29 48.53 L 91.73 36.56 L 108.26 36.63 L 107.33 43.76 L 96.32 43.40 L 107.33 43.76 L 108.26 36.63 L 91.73 36.56 L 93.29 48.53 L 87.35 49.65 L 83.59 33.13 L 57.95 45.47 L 68.52 58.72 L 83.71 50.72 L 79.92 39.25 L 65.06 46.49 L 68.99 52.51 L 78.76 47.41 L 68.99 52.51 L 65.06 46.49 L 79.92 39.25 L 83.71 50.72 L 66.76 60.13 L 56.20 46.87 L 38.45 69.11 L 53.73 76.47 L 55.58 73.15 L 45.24 66.91 L 55.60 54.03 L 60.60 59.20 L 53.45 67.59 L 60.60 59.20 L 55.60 54.03 L 45.24 66.91 L 55.58 73.15 L 52.75 78.50 L 37.48 71.14 L 31.15 98.88 L 48.10 98.87 L 51.32 82.01 L 39.99 77.82 L 36.38 93.95 L 43.54 94.63 L 45.64 83.81 L 43.54 94.63 L 36.41 93.72 L 39.99 77.82 L 51.32 82.01 L 48.10 101.13 L 31.15 101.12 L 37.47 128.87 L 52.75 121.50 L 51.32 117.99 L 39.99 122.18 L 36.38 106.05 L 43.54 105.37 L 45.64 116.19 L 43.54 105.37 L 36.38 106.05 L 39.99 122.18 L 51.32 117.99 L 53.73 123.53 L 38.46 130.88 L 56.19 153.14 L 66.76 139.87 L 55.58 126.85 L 45.24 133.09 L 55.60 145.97 L 60.60 140.80 L 53.45 132.41 L 60.60 140.80 L 55.60 145.97 L 45.24 133.09 L 55.58 126.85 L 68.52 141.28 L 57.95 154.53 L 83.58 166.88 L 87.35 150.35 L 83.71 149.28 L 79.92 160.75 L 65.06 153.51 L 68.99 147.49 L 78.76 152.59 L 68.99 147.49 L 65.06 153.51 L 79.92 160.75 L 83.71 149.28 L 89.55 150.85 L 85.77 167.38 L 114.23 167.38 L 110.72 150.78 L 93.29 151.47 L 91.73 163.44 L 108.26 163.37 L 107.33 156.24 L 96.32 156.60 L 107.33 156.24 L 108.26 163.37 L 91.73 163.44 L 93.29 151.47 L 112.65 150.35 L 116.42 166.88 L 142.06 154.54 L 131.48 141.28 L 128.37 143.46 L 134.98 153.57 L 120.06 160.68 L 117.80 153.85 L 127.88 149.39 L 117.80 153.85 L 120.06 160.68 L 134.98 153.57 L 128.37 143.46 L 133.24 139.87 L 143.80 153.13 L 161.55 130.89 L 146.27 123.53 L 136.06 137.33 L 144.45 146.02 L 154.70 133.05 L 148.54 129.34 L 141.95 138.17 L 148.54 129.34 L 154.70 133.05 L 144.45 146.02 L 136.06 137.33 L 147.25 121.50 L 162.53 128.87 L 168.84 101.52 L 151.90 101.13 L 151.54 104.90 L 163.69 106.06 L 159.95 122.15 L 153.20 119.66 L 156.00 109.00 L 153.20 119.66 L 159.95 122.15 L 163.69 106.06 L 151.67 104.91 L 151.67 95.09 L 163.69 93.94 L 159.95 77.85 L 153.20 80.34 L 156.00 91.00 L 153.20 80.34 L 160.02 78.07 L 163.69 93.94 L 151.67 95.09 L 151.18 91.36 L 150.39 87.55 L 149.46 84.27 L 148.38 81.21 L 146.76 77.48 L 145.15 74.39 L 141.52 68.85 L 138.77 65.49 L 136.06 62.67 L 133.24 60.13 L 128.37 56.54 L 120.36 52.26 L 111.83 49.46 L 104.26 48.27 L 96.17 48.24 L 87.03 49.74 L 79.39 52.37 L 72.33 56.09 L 64.61 62.04 L 58.99 68.19 L 53.32 77.31 L 49.20 89.34 L 48.16 102.64 L 50.25 114.79 L 53.64 123.34 L 61.37 134.66 L 70.67 142.82 L 81.73 148.58 L 91.42 151.15 L 101.65 151.88 L 116.84 149.10 L 126.81 144.44 L 132.36 140.58 L 140.18 132.85 L 147.95 119.86 L 151.26 108.16 L 151.60 105.56 L 151.78 103.02 L 151.90 100.00 L 180.83 99.99 L 180.78 99.99 L 180.74 100.01 L 180.70 100.05 L 180.68 100.09 L 180.66 100.14 L 180.66 100.21 L 180.68 100.27 L 180.71 100.34 L 180.76 100.40 L 180.82 100.45 L 180.90 100.49 L 180.99 100.52 L 181.10 100.53 L 181.21 100.53 L 181.31 100.49 L 181.43 100.43 L 181.53 100.35 L 181.63 100.25 L 181.71 100.13 L 181.76 100.00 L 181.80 99.84 L 181.81 99.67 L 181.78 99.50 L 181.74 99.33 L 181.64 99.16 L 181.53 99.00 L 181.40 98.86 L 181.22 98.74 L 181.03 98.64 L 180.81 98.58 L 180.58 98.56 L 180.34 98.58 L 180.10 98.64 L 179.86 98.73 L 179.64 98.86 L 179.45 99.04 L 179.27 99.25 L 179.13 99.50 L 179.03 99.77 L 178.97 100.06 L 178.97 100.37 L 179.00 100.68 L 179.09 100.98 L 179.23 101.27 L 179.42 101.55 L 179.67 101.78 L 179.95 101.99 L 180.27 102.15 L 180.61 102.26 L 180.98 102.31 L 181.35 102.31 L 181.73 102.24 L 182.11 102.11 L 182.45 101.91 L 182.77 101.66 L 183.06 101.36 L 183.30 101.01 L 183.47 100.62 L 183.57 100.19 L 183.62 99.75 L 183.59 99.30 L 183.49 98.85 L 183.32 98.41 L 183.07 98.00 L 182.76 97.64 L 182.39 97.33 L 181.96 97.07 L 181.49 96.88 L 180.99 96.77 L 180.47 96.73 L 179.95 96.79 L 179.44 96.93 L 178.94 97.16 L 178.48 97.45 L 178.07 97.84 L 177.72 98.27 L 177.44 98.77 L 177.25 99.31 L 177.15 99.89 L 177.14 100.48 L 177.21 101.08 L 177.39 101.66 L 177.66 102.21 L 178.02 102.72 L 178.46 103.17 L 178.98 103.54 L 179.56 103.84 L 180.18 104.04 L 180.82 104.15 L 181.49 104.14 L 182.15 104.03 L 182.80 103.80 L 183.41 103.47 L 183.97 103.06 L 184.45 102.55 L 184.86 101.97 L 185.17 101.32 L 185.36 100.61 L 185.45 99.89 L 185.41 99.14 L 185.28 98.41 L 185.02 97.70 L 184.64 97.03 L 184.16 96.44 L 183.57 95.92 L 182.90 95.49 L 182.18 95.17 L 181.40 94.97 L 180.60 94.90 L 179.79 94.96 L 178.99 95.14 L 178.21 95.46 L 177.50 95.89 L 176.85 96.44 L 176.30 97.10 L 175.87 97.84 L 175.53 98.64 L 175.34 99.49 L 175.28 100.37 L 175.37 101.26 L 175.61 102.12 L 175.97 102.96 L 176.46 103.72 L 177.09 104.40 L 177.81 104.98 L 178.63 105.44 L 179.50 105.76 L 180.44 105.95 L 181.39 105.99 L 182.36 105.87 L 183.29 105.60 L 184.17 105.17 L 184.98 104.61 L 185.70 103.92 L 186.31 103.12 L 186.79 102.23 L 187.10 101.27 L 187.27 100.26 L 187.28 99.22 L 187.13 98.19 L 186.80 97.20 L 186.33 96.27 L 185.69 95.41 L 184.94 94.66 L 184.06 94.03 L 183.09 93.55 L 182.04 93.22 L 180.96 93.08 L 179.86 93.10 L 178.75 93.30 L 177.70 93.67 L 176.70 94.20 L 175.81 94.90 L 175.03 95.74 L 174.39 96.69 L 173.90 97.74 L 173.58 98.87 L 173.45 100.03 L 173.50 101.20 L 173.75 102.37 L 174.18 103.49 L 174.78 104.53 L 175.54 105.47 L 176.45 106.27 L 177.49 106.93 L 178.63 107.42 L 179.83 107.73 L 181.06 107.84 L 182.32 107.74 L 183.55 107.45 L 184.72 106.96 L 185.81 106.29 L 186.79 105.46 L 187.62 104.48 L 188.28 103.35 L 188.76 102.14 L 189.05 100.86 L 189.13 99.54 L 189.01 98.22 L 188.67 96.93 L 188.12 95.69 L 187.37 94.57 L 186.47 93.56 L 185.40 92.70 L 184.21 92.03 L 182.91 91.55 L 181.54 91.28 L 180.17 91.22 L 178.76 91.40 L 177.41 91.79 L 176.12 92.40 L 174.95 93.22 L 173.92 94.21 L 173.04 95.35 L 172.35 96.63 L 171.88 98.01 L 171.64 99.45 L 171.83 102.17 L 172.88 104.73 L 174.52 106.75 L 177.36 108.55 L 179.99 109.17 L 182.81 108.98 L 184.93 108.23 L 186.77 107.01 L 188.41 105.18 L 189.06 104.05 L 189.96 102.52 L 190.00 100.13 L 189.99 98.50 L 189.28 96.43 L 188.48 94.92 L 186.96 93.17 L 185.51 92.10 L 183.86 91.31 L 182.38 90.92 L 180.79 90.79 L 180.12 90.82 L 177.46 91.41 L 175.60 92.38 L 174.45 93.32 L 173.40 94.50 L 172.78 95.45 L 172.15 96.80 L 171.76 98.73 L 171.58 100.00 L 168.86 100.00 L 151.90 100.00 L 151.83 97.81 L 146.76 77.48 L 136.06 62.67 L 132.36 59.42 L 150.39 36.80 L 150.36 36.83 L 150.35 36.88 L 150.35 36.93 L 150.37 36.98 L 150.40 37.03 L 150.45 37.07 L 150.51 37.10 L 150.59 37.11 L 150.66 37.11 L 150.74 37.09 L 150.83 37.06 L 150.91 37.01 L 150.98 36.93 L 151.04 36.84 L 151.08 36.73 L 151.11 36.60 L 151.11 36.47 L 151.09 36.34 L 151.05 36.20 L 150.98 36.07 L 150.88 35.95 L 150.75 35.83 L 150.60 35.75 L 150.44 35.68 L 150.24 35.64 L 150.06 35.63 L 149.86 35.65 L 149.66 35.71 L 149.46 35.80 L 149.28 35.94 L 149.12 36.10 L 148.98 36.31 L 148.87 36.53 L 148.80 36.77 L 148.76 37.02 L 148.78 37.29 L 148.83 37.55 L 148.94 37.82 L 149.09 38.07 L 149.29 38.29 L 149.52 38.49 L 149.78 38.66 L 150.07 38.78 L 150.39 38.85 L 150.73 38.87 L 151.06 38.83 L 151.40 38.73 L 151.73 38.58 L 152.03 38.39 L 152.30 38.14 L 152.53 37.83 L 152.71 37.49 L 152.84 37.12 L 152.90 36.73 L 152.91 36.32 L 152.85 35.91 L 152.72 35.50 L 152.53 35.12 L 152.26 34.78 L 151.94 34.47 L 151.57 34.21 L 151.16 34.00 L 150.71 33.87 L 150.23 33.81 L 149.75 33.83 L 149.28 33.92 L 148.81 34.10 L 148.37 34.35 L 147.97 34.66 L 147.62 35.05 L 147.34 35.49 L 147.13 35.98 L 147.00 36.51 L 146.94 37.05 L 146.98 37.61 L 147.11 38.16 L 147.32 38.68 L 147.63 39.17 L 148.02 39.61 L 148.47 39.99 L 148.98 40.31 L 149.55 40.53 L 150.15 40.66 L 150.77 40.70 L 151.40 40.63 L 152.01 40.46 L 152.60 40.19 L 153.15 39.83 L 153.63 39.40 L 154.05 38.87 L 154.37 38.28 L 154.60 37.63 L 154.72 36.95 L 154.74 36.26 L 154.65 35.56 L 154.44 34.88 L 154.13 34.24 L 153.70 33.64 L 153.19 33.13 L 152.59 32.69 L 151.93 32.34 L 151.21 32.10 L 150.45 31.98 L 149.68 31.98 L 148.91 32.11 L 148.16 32.37 L 147.46 32.74 L 146.82 33.22 L 146.27 33.80 L 145.80 34.48 L 145.45 35.22 L 145.21 36.02 L 145.11 36.85 L 145.13 37.70 L 145.30 38.54 L 145.61 39.34 L 146.03 40.10 L 146.58 40.78 L 147.23 41.37 L 147.98 41.85 L 148.80 42.21 L 149.68 42.44 L 150.58 42.54 L 151.51 42.48 L 152.41 42.28 L 153.27 41.92 L 154.08 41.43 L 154.81 40.82 L 155.43 40.10 L 155.94 39.27 L 156.30 38.37 L 156.52 37.42 L 156.59 36.43 L 156.49 35.44 L 156.25 34.47 L 155.86 33.54 L 155.30 32.69 L 154.62 31.93 L 153.81 31.28 L 152.91 30.75 L 151.93 30.39 L 150.91 30.18 L 149.84 30.14 L 148.78 30.26 L 147.74 30.56 L 146.76 31.01 L 145.85 31.63 L 145.06 32.39 L 144.39 33.26 L 143.86 34.25 L 143.49 35.30 L 143.29 36.42 L 143.27 37.55 L 143.45 38.68 L 143.80 39.78 L 144.31 40.82 L 144.99 41.77 L 145.82 42.59 L 146.77 43.28 L 147.83 43.81 L 148.97 44.18 L 150.16 44.36 L 151.37 44.35 L 152.57 44.14 L 153.73 43.74 L 154.82 43.15 L 155.81 42.41 L 156.67 41.51 L 157.38 40.47 L 157.92 39.33 L 158.26 38.10 L 158.42 36.83 L 158.38 35.55 L 158.13 34.29 L 157.66 33.07 L 157.01 31.94 L 156.20 30.91 L 155.22 30.03 L 154.10 29.30 L 152.88 28.76 L 151.58 28.42 L 150.23 28.30 L 148.88 28.38 L 147.54 28.68 L 146.27 29.19 L 145.08 29.91 L 144.02 30.81 L 143.12 31.85 L 142.38 33.06 L 141.85 34.36 L 141.52 35.75 L 141.43 37.17 L 141.56 38.60 L 141.91 40.00 L 142.48 41.33 L 143.26 42.56 L 144.24 43.65 L 146.48 45.19 L 149.14 45.97 L 151.74 45.95 L 154.92 44.85 L 157.04 43.18 L 158.66 40.86 L 159.39 38.73 L 159.58 36.53 L 159.17 34.11 L 158.70 32.90 L 158.06 31.23 L 156.22 29.72 L 154.93 28.71 L 152.88 27.97 L 151.20 27.66 L 148.88 27.75 L 147.14 28.22 L 145.50 29.02 L 144.27 29.93 L 143.17 31.09 L 142.78 31.63 L 141.58 34.09 L 141.18 36.14 L 141.19 37.63 L 141.46 39.19 L 141.82 40.27 L 142.49 41.59 L 143.75 43.10 L 144.63 44.04 L 142.93 46.16 L 132.36 59.42 L 129.92 57.64 L 111.83 49.46 L 98.58 48.25 L 88.45 49.40 L 82.00 21.20 L 82.01 21.24 L 82.05 21.28 L 82.09 21.31 L 82.13 21.33 L 82.19 21.33 L 82.25 21.32 L 82.31 21.29 L 82.37 21.24 L 82.42 21.18 L 82.46 21.11 L 82.49 21.02 L 82.49 20.92 L 82.47 20.82 L 82.44 20.71 L 82.38 20.62 L 82.30 20.52 L 82.20 20.44 L 82.08 20.36 L 81.94 20.31 L 81.80 20.29 L 81.64 20.29 L 81.47 20.32 L 81.31 20.38 L 81.16 20.46 L 81.01 20.59 L 80.89 20.73 L 80.77 20.90 L 80.70 21.09 L 80.65 21.30 L 80.65 21.53 L 80.67 21.76 L 80.74 21.99 L 80.85 22.21 L 80.99 22.42 L 81.17 22.61 L 81.38 22.76 L 81.62 22.89 L 81.90 22.97 L 82.19 23.00 L 82.49 22.99 L 82.79 22.93 L 83.08 22.83 L 83.36 22.68 L 83.61 22.48 L 83.84 22.23 L 84.01 21.93 L 84.15 21.61 L 84.23 21.26 L 84.27 20.91 L 84.25 20.54 L 84.15 20.17 L 83.99 19.82 L 83.79 19.48 L 83.52 19.19 L 83.20 18.93 L 82.84 18.72 L 82.45 18.57 L 82.03 18.48 L 81.59 18.48 L 81.15 18.53 L 80.71 18.66 L 80.30 18.86 L 79.91 19.12 L 79.57 19.45 L 79.28 19.84 L 79.06 20.27 L 78.91 20.75 L 78.83 21.25 L 78.82 21.76 L 78.91 22.27 L 79.08 22.76 L 79.33 23.24 L 79.66 23.67 L 80.05 24.05 L 80.52 24.37 L 81.02 24.61 L 81.56 24.77 L 82.14 24.84 L 82.73 24.81 L 83.31 24.69 L 83.87 24.48 L 84.40 24.18 L 84.88 23.80 L 85.29 23.33 L 85.63 22.80 L 85.88 22.22 L 86.04 21.58 L 86.10 20.93 L 86.06 20.28 L 85.90 19.63 L 85.64 19.01 L 85.28 18.43 L 84.82 17.91 L 84.29 17.46 L 83.69 17.10 L 83.04 16.83 L 82.33 16.68 L 81.60 16.64 L 80.88 16.72 L 80.16 16.92 L 79.48 17.21 L 78.84 17.62 L 78.27 18.14 L 77.80 18.75 L 77.42 19.43 L 77.16 20.18 L 77.01 20.95 L 76.98 21.76 L 77.09 22.55 L 77.33 23.33 L 77.69 24.07 L 78.17 24.76 L 78.75 25.36 L 79.43 25.87 L 80.19 26.26 L 81.01 26.52 L 81.86 26.66 L 82.74 26.66 L 83.61 26.52 L 84.45 26.24 L 85.25 25.82 L 85.97 25.27 L 86.61 24.63 L 87.14 23.87 L 87.55 23.03 L 87.81 22.14 L 87.93 21.21 L 87.90 20.25 L 87.73 19.32 L 87.40 18.40 L 86.92 17.56 L 86.31 16.79 L 85.58 16.13 L 84.75 15.58 L 83.84 15.16 L 82.87 14.89 L 81.86 14.80 L 80.83 14.86 L 79.82 15.08 L 78.85 15.46 L 77.96 15.99 L 77.15 16.67 L 76.46 17.48 L 75.89 18.38 L 75.47 19.38 L 75.22 20.43 L 75.14 21.52 L 75.23 22.61 L 75.50 23.68 L 75.94 24.71 L 76.54 25.66 L 77.28 26.51 L 78.16 27.23 L 79.15 27.80 L 80.22 28.21 L 81.36 28.45 L 82.52 28.52 L 83.68 28.39 L 84.82 28.07 L 85.90 27.57 L 86.89 26.91 L 87.77 26.09 L 88.52 25.14 L 89.10 24.07 L 89.51 22.91 L 89.74 21.69 L 89.77 20.46 L 89.60 19.23 L 89.24 18.02 L 88.68 16.89 L 87.93 15.86 L 87.04 14.94 L 86.02 14.17 L 84.87 13.58 L 83.63 13.19 L 82.34 12.99 L 81.02 12.99 L 79.72 13.20 L 78.46 13.62 L 77.27 14.24 L 76.20 15.04 L 75.26 16.03 L 74.48 17.13 L 73.88 18.36 L 73.49 19.68 L 73.31 21.05 L 73.35 22.44 L 73.61 23.79 L 74.09 25.13 L 74.77 26.36 L 75.65 27.48 L 76.71 28.44 L 77.91 29.23 L 79.22 29.82 L 80.62 30.21 L 82.06 30.36 L 83.53 30.28 L 86.13 29.49 L 88.39 27.89 L 90.00 25.85 L 91.12 22.68 L 91.14 19.97 L 90.33 17.27 L 89.12 15.37 L 87.52 13.84 L 85.37 12.66 L 84.13 12.27 L 82.44 11.73 L 80.10 12.23 L 78.51 12.60 L 76.66 13.75 L 75.36 14.87 L 73.99 16.74 L 73.27 18.39 L 72.87 20.17 L 72.83 21.70 L 73.04 23.28 L 73.22 23.93 L 74.39 26.40 L 75.75 27.99 L 76.92 28.91 L 78.30 29.67 L 79.37 30.06 L 80.82 30.37 L 82.79 30.32 L 84.07 30.22 L 84.68 32.87 L 88.45 49.40 L 67.95 59.46 L 54.66 74.81 L 53.24 77.48 L 27.17 64.94 L 27.21 64.96 L 27.26 64.96 L 27.31 64.94 L 27.35 64.92 L 27.39 64.88 L 27.42 64.82 L 27.43 64.75 L 27.43 64.68 L 27.42 64.60 L 27.38 64.53 L 27.33 64.45 L 27.26 64.39 L 27.17 64.33 L 27.06 64.29 L 26.95 64.28 L 26.82 64.28 L 26.69 64.31 L 26.56 64.36 L 26.44 64.43 L 26.33 64.53 L 26.23 64.65 L 26.15 64.80 L 26.10 64.97 L 26.07 65.14 L 26.08 65.34 L 26.11 65.52 L 26.17 65.71 L 26.27 65.89 L 26.40 66.06 L 26.58 66.21 L 26.77 66.33 L 27.00 66.42 L 27.24 66.48 L 27.49 66.49 L 27.75 66.47 L 28.00 66.40 L 28.25 66.29 L 28.49 66.12 L 28.70 65.92 L 28.87 65.68 L 29.01 65.41 L 29.12 65.11 L 29.17 64.80 L 29.17 64.48 L 29.12 64.15 L 29.00 63.82 L 28.83 63.52 L 28.61 63.24 L 28.36 62.99 L 28.05 62.77 L 27.70 62.62 L 27.33 62.52 L 26.94 62.48 L 26.54 62.50 L 26.14 62.59 L 25.76 62.74 L 25.39 62.95 L 25.06 63.23 L 24.78 63.57 L 24.55 63.95 L 24.38 64.37 L 24.27 64.81 L 24.24 65.28 L 24.29 65.75 L 24.41 66.22 L 24.61 66.66 L 24.89 67.08 L 25.23 67.45 L 25.63 67.78 L 26.08 68.02 L 26.57 68.20 L 27.10 68.30 L 27.64 68.31 L 28.18 68.24 L 28.72 68.08 L 29.22 67.83 L 29.69 67.51 L 30.10 67.10 L 30.44 66.63 L 30.71 66.10 L 30.90 65.53 L 30.99 64.92 L 30.99 64.31 L 30.89 63.70 L 30.68 63.10 L 30.38 62.54 L 29.99 62.03 L 29.52 61.57 L 28.98 61.20 L 28.38 60.91 L 27.73 60.73 L 27.05 60.65 L 26.35 60.68 L 25.67 60.81 L 25.02 61.06 L 24.40 61.41 L 23.84 61.86 L 23.36 62.41 L 22.97 63.03 L 22.67 63.71 L 22.48 64.43 L 22.40 65.18 L 22.46 65.95 L 22.63 66.70 L 22.93 67.42 L 23.35 68.09 L 23.86 68.69 L 24.48 69.21 L 25.16 69.62 L 25.93 69.93 L 26.73 70.11 L 27.56 70.16 L 28.40 70.07 L 29.22 69.87 L 30.00 69.51 L 30.71 69.03 L 31.36 68.45 L 31.90 67.77 L 32.33 67.00 L 32.64 66.16 L 32.81 65.28 L 32.83 64.37 L 32.72 63.47 L 32.46 62.59 L 32.06 61.75 L 31.52 60.99 L 30.87 60.31 L 30.11 59.74 L 29.27 59.29 L 28.35 58.98 L 27.39 58.82 L 26.41 58.82 L 25.44 58.98 L 24.49 59.29 L 23.59 59.74 L 22.78 60.33 L 22.07 61.06 L 21.48 61.90 L 21.03 62.83 L 20.72 63.82 L 20.58 64.86 L 20.60 65.91 L 20.80 66.96 L 21.16 67.96 L 21.68 68.91 L 22.34 69.76 L 23.14 70.51 L 24.06 71.11 L 25.06 71.57 L 26.14 71.87 L 27.25 71.99 L 28.38 71.94 L 29.49 71.71 L 30.55 71.28 L 31.54 70.70 L 32.44 69.97 L 33.22 69.10 L 33.84 68.11 L 34.30 67.02 L 34.58 65.86 L 34.68 64.67 L 34.59 63.48 L 34.32 62.30 L 33.84 61.18 L 33.19 60.14 L 32.38 59.20 L 31.43 58.40 L 30.36 57.77 L 29.20 57.30 L 27.96 57.03 L 26.69 56.97 L 25.42 57.10 L 24.18 57.42 L 23.00 57.95 L 21.92 58.67 L 20.96 59.56 L 20.14 60.59 L 19.49 61.74 L 19.03 62.99 L 18.78 64.30 L 18.74 65.64 L 18.92 66.99 L 19.30 68.28 L 19.89 69.52 L 20.67 70.65 L 21.63 71.64 L 22.75 72.48 L 23.96 73.12 L 25.31 73.57 L 26.70 73.81 L 28.12 73.82 L 29.53 73.59 L 30.89 73.14 L 32.18 72.50 L 33.35 71.64 L 34.37 70.61 L 35.22 69.41 L 36.22 66.88 L 36.39 64.12 L 35.79 61.58 L 34.01 58.73 L 31.92 57.02 L 29.29 55.98 L 27.05 55.74 L 24.86 56.04 L 22.59 56.98 L 21.52 57.71 L 20.04 58.70 L 18.97 60.83 L 18.27 62.31 L 18.01 64.48 L 18.08 66.19 L 18.69 68.43 L 19.53 70.02 L 20.67 71.44 L 21.84 72.43 L 23.21 73.25 L 23.83 73.51 L 26.49 74.13 L 28.58 74.06 L 30.03 73.72 L 31.49 73.11 L 32.46 72.52 L 33.60 71.58 L 34.79 70.01 L 35.51 68.95 L 37.96 70.12 L 53.24 77.48 L 52.04 80.25 L 48.10 100.00 L 51.31 117.99 L 53.24 122.52 L 27.18 135.08 L 27.22 135.06 L 27.25 135.02 L 27.27 134.97 L 27.28 134.93 L 27.27 134.87 L 27.24 134.81 L 27.20 134.76 L 27.14 134.72 L 27.07 134.68 L 26.99 134.66 L 26.90 134.65 L 26.80 134.67 L 26.70 134.71 L 26.61 134.76 L 26.53 134.84 L 26.45 134.94 L 26.39 135.06 L 26.35 135.19 L 26.32 135.33 L 26.33 135.48 L 26.37 135.63 L 26.44 135.79 L 26.53 135.94 L 26.65 136.07 L 26.81 136.18 L 26.97 136.27 L 27.16 136.35 L 27.37 136.38 L 27.58 136.38 L 27.81 136.33 L 28.02 136.26 L 28.23 136.13 L 28.43 135.98 L 28.60 135.80 L 28.74 135.58 L 28.84 135.34 L 28.91 135.07 L 28.93 134.78 L 28.90 134.50 L 28.82 134.21 L 28.69 133.93 L 28.53 133.67 L 28.32 133.43 L 28.07 133.23 L 27.78 133.07 L 27.45 132.95 L 27.11 132.90 L 26.75 132.89 L 26.39 132.94 L 26.04 133.04 L 25.70 133.21 L 25.39 133.45 L 25.11 133.73 L 24.88 134.05 L 24.70 134.42 L 24.58 134.81 L 24.51 135.24 L 24.53 135.66 L 24.62 136.09 L 24.77 136.51 L 24.99 136.90 L 25.28 137.27 L 25.61 137.58 L 26.02 137.84 L 26.46 138.03 L 26.93 138.15 L 27.43 138.20 L 27.93 138.17 L 28.43 138.06 L 28.91 137.86 L 29.36 137.58 L 29.76 137.23 L 30.11 136.82 L 30.39 136.35 L 30.60 135.83 L 30.72 135.28 L 30.76 134.71 L 30.70 134.14 L 30.54 133.57 L 30.29 133.03 L 29.97 132.53 L 29.55 132.08 L 29.07 131.70 L 28.53 131.40 L 27.93 131.19 L 27.31 131.07 L 26.66 131.06 L 26.01 131.15 L 25.38 131.33 L 24.78 131.63 L 24.24 132.02 L 23.75 132.50 L 23.34 133.07 L 23.02 133.68 L 22.80 134.35 L 22.69 135.05 L 22.70 135.76 L 22.83 136.49 L 23.07 137.18 L 23.42 137.83 L 23.86 138.43 L 24.40 138.96 L 25.03 139.40 L 25.73 139.73 L 26.48 139.94 L 27.26 140.03 L 28.05 140.00 L 28.84 139.85 L 29.59 139.57 L 30.30 139.16 L 30.94 138.65 L 31.50 138.03 L 31.96 137.32 L 32.31 136.55 L 32.51 135.72 L 32.59 134.87 L 32.54 134.00 L 32.34 133.14 L 32.01 132.33 L 31.55 131.57 L 30.96 130.88 L 30.27 130.30 L 29.49 129.82 L 28.64 129.48 L 27.74 129.27 L 26.80 129.21 L 25.87 129.30 L 24.95 129.54 L 24.07 129.92 L 23.25 130.44 L 22.53 131.10 L 21.92 131.86 L 21.44 132.72 L 21.09 133.65 L 20.88 134.63 L 20.84 135.64 L 20.97 136.65 L 21.26 137.63 L 21.70 138.57 L 22.28 139.43 L 23.01 140.18 L 23.84 140.82 L 24.79 141.32 L 25.79 141.67 L 26.86 141.85 L 27.94 141.87 L 29.02 141.70 L 30.07 141.36 L 31.05 140.87 L 31.95 140.21 L 32.74 139.42 L 33.41 138.50 L 33.92 137.49 L 34.25 136.39 L 34.41 135.26 L 34.40 134.10 L 34.20 132.95 L 33.81 131.84 L 33.25 130.81 L 32.52 129.86 L 31.66 129.04 L 30.66 128.37 L 29.57 127.85 L 28.40 127.52 L 27.18 127.38 L 25.94 127.43 L 24.73 127.68 L 23.56 128.11 L 22.47 128.73 L 21.49 129.54 L 20.65 130.49 L 19.96 131.56 L 19.44 132.73 L 19.12 133.98 L 19.01 135.28 L 19.10 136.58 L 19.39 137.86 L 19.89 139.09 L 20.58 140.23 L 21.45 141.24 L 22.47 142.11 L 23.64 142.81 L 24.89 143.32 L 26.22 143.63 L 27.59 143.72 L 28.97 143.59 L 30.32 143.24 L 31.58 142.69 L 32.77 141.92 L 33.82 140.98 L 34.72 139.88 L 35.41 138.63 L 35.91 137.28 L 36.21 135.88 L 36.27 134.43 L 36.10 132.98 L 35.69 131.58 L 34.34 129.21 L 32.28 127.36 L 29.93 126.25 L 26.59 125.86 L 23.95 126.43 L 21.49 127.84 L 19.91 129.44 L 18.78 131.34 L 18.10 133.70 L 18.00 134.99 L 17.85 136.77 L 18.86 138.93 L 19.58 140.40 L 21.11 141.95 L 22.49 142.96 L 24.62 143.89 L 26.38 144.22 L 28.21 144.21 L 29.71 143.91 L 31.21 143.35 L 31.80 143.04 L 33.94 141.34 L 35.18 139.66 L 35.83 138.32 L 36.26 136.80 L 36.41 135.68 L 36.38 134.19 L 35.90 132.28 L 35.51 131.06 L 37.96 129.88 L 53.24 122.52 L 55.58 126.85 L 68.47 141.23 L 77.49 146.77 L 86.11 150.01 L 88.45 150.60 L 82.02 178.80 L 82.03 178.76 L 82.02 178.71 L 82.00 178.67 L 81.96 178.63 L 81.91 178.60 L 81.85 178.59 L 81.78 178.59 L 81.71 178.61 L 81.64 178.64 L 81.58 178.69 L 81.51 178.76 L 81.47 178.84 L 81.43 178.95 L 81.42 179.05 L 81.43 179.17 L 81.46 179.29 L 81.52 179.41 L 81.59 179.53 L 81.68 179.63 L 81.81 179.72 L 81.95 179.79 L 82.12 179.83 L 82.29 179.84 L 82.47 179.84 L 82.66 179.78 L 82.83 179.71 L 83.00 179.61 L 83.16 179.47 L 83.29 179.30 L 83.39 179.10 L 83.47 178.88 L 83.50 178.64 L 83.51 178.39 L 83.47 178.15 L 83.38 177.90 L 83.26 177.67 L 83.09 177.45 L 82.88 177.25 L 82.64 177.10 L 82.37 176.98 L 82.07 176.90 L 81.76 176.87 L 81.45 176.89 L 81.13 176.96 L 80.82 177.08 L 80.53 177.27 L 80.27 177.50 L 80.04 177.78 L 79.86 178.08 L 79.72 178.43 L 79.64 178.80 L 79.63 179.19 L 79.67 179.58 L 79.79 179.96 L 79.96 180.33 L 80.19 180.67 L 80.48 180.99 L 80.83 181.24 L 81.22 181.44 L 81.64 181.58 L 82.09 181.65 L 82.55 181.66 L 83.00 181.59 L 83.46 181.43 L 83.89 181.21 L 84.27 180.92 L 84.62 180.55 L 84.91 180.14 L 85.13 179.68 L 85.27 179.18 L 85.34 178.66 L 85.32 178.13 L 85.21 177.60 L 85.01 177.08 L 84.74 176.60 L 84.39 176.16 L 83.97 175.78 L 83.48 175.47 L 82.94 175.24 L 82.36 175.10 L 81.77 175.04 L 81.16 175.08 L 80.56 175.22 L 79.99 175.46 L 79.45 175.79 L 78.97 176.21 L 78.56 176.71 L 78.22 177.27 L 77.97 177.87 L 77.83 178.52 L 77.79 179.20 L 77.87 179.88 L 78.05 180.55 L 78.34 181.18 L 78.72 181.77 L 79.20 182.29 L 79.76 182.74 L 80.41 183.09 L 81.10 183.33 L 81.83 183.46 L 82.57 183.49 L 83.32 183.40 L 84.06 183.18 L 84.75 182.84 L 85.39 182.39 L 85.95 181.83 L 86.42 181.19 L 86.79 180.48 L 87.04 179.72 L 87.16 178.91 L 87.16 178.09 L 87.03 177.26 L 86.76 176.47 L 86.37 175.72 L 85.85 175.03 L 85.23 174.45 L 84.52 173.94 L 83.73 173.56 L 82.88 173.31 L 82.00 173.20 L 81.10 173.24 L 80.21 173.41 L 79.35 173.72 L 78.55 174.17 L 77.83 174.75 L 77.20 175.44 L 76.69 176.23 L 76.30 177.10 L 76.05 178.02 L 75.95 178.99 L 76.01 179.95 L 76.23 180.91 L 76.60 181.82 L 77.11 182.68 L 77.75 183.45 L 78.51 184.11 L 79.38 184.64 L 80.33 185.03 L 81.34 185.26 L 82.37 185.35 L 83.41 185.25 L 84.43 184.99 L 85.41 184.57 L 86.31 184.00 L 87.12 183.28 L 87.80 182.44 L 88.35 181.49 L 88.74 180.47 L 88.96 179.39 L 89.01 178.27 L 88.88 177.16 L 88.58 176.07 L 88.11 175.04 L 87.46 174.10 L 86.67 173.26 L 85.76 172.55 L 84.74 171.98 L 83.63 171.60 L 82.46 171.39 L 81.27 171.38 L 80.09 171.54 L 78.95 171.90 L 77.86 172.43 L 76.87 173.14 L 76.00 174.00 L 75.27 175.00 L 74.71 176.11 L 74.32 177.29 L 74.13 178.53 L 74.14 179.80 L 74.36 181.05 L 74.77 182.26 L 75.36 183.39 L 76.14 184.42 L 77.08 185.32 L 78.16 186.06 L 79.34 186.63 L 80.61 187.00 L 81.93 187.18 L 83.26 187.13 L 84.58 186.87 L 85.86 186.39 L 87.04 185.73 L 88.11 184.89 L 89.04 183.87 L 89.79 182.71 L 90.35 181.44 L 90.71 180.11 L 90.86 178.70 L 90.78 177.29 L 90.47 175.90 L 89.93 174.58 L 89.19 173.35 L 88.28 172.24 L 87.18 171.29 L 85.95 170.52 L 84.59 169.96 L 81.90 169.55 L 79.17 170.00 L 76.83 171.15 L 74.45 173.52 L 73.25 175.94 L 72.81 178.73 L 73.08 180.97 L 73.86 183.04 L 75.28 185.04 L 76.23 185.93 L 77.53 187.15 L 79.84 187.71 L 81.44 188.07 L 83.61 187.84 L 85.26 187.39 L 87.31 186.30 L 88.67 185.13 L 89.81 183.69 L 90.51 182.34 L 91.00 180.82 L 91.13 180.16 L 91.14 177.43 L 90.60 175.40 L 89.95 174.07 L 89.03 172.78 L 88.24 171.96 L 87.06 171.06 L 85.27 170.25 L 84.07 169.78 L 84.68 167.13 L 88.45 150.60 L 91.42 151.15 L 110.72 150.78 L 129.58 142.51 L 132.36 140.58 L 150.40 163.19 L 150.38 163.15 L 150.33 163.13 L 150.28 163.12 L 150.23 163.13 L 150.18 163.15 L 150.13 163.19 L 150.09 163.24 L 150.06 163.31 L 150.04 163.39 L 150.04 163.47 L 150.05 163.56 L 150.09 163.65 L 150.15 163.74 L 150.22 163.82 L 150.32 163.88 L 150.44 163.93 L 150.56 163.96 L 150.70 163.98 L 150.84 163.97 L 150.98 163.92 L 151.13 163.86 L 151.27 163.76 L 151.38 163.63 L 151.49 163.48 L 151.56 163.31 L 151.62 163.12 L 151.64 162.93 L 151.63 162.72 L 151.58 162.51 L 151.48 162.30 L 151.37 162.11 L 151.20 161.93 L 151.01 161.77 L 150.79 161.65 L 150.54 161.56 L 150.29 161.51 L 150.01 161.51 L 149.73 161.55 L 149.45 161.64 L 149.19 161.78 L 148.95 161.97 L 148.73 162.19 L 148.54 162.44 L 148.40 162.73 L 148.31 163.06 L 148.27 163.40 L 148.29 163.75 L 148.37 164.10 L 148.49 164.43 L 148.67 164.76 L 148.91 165.05 L 149.21 165.30 L 149.54 165.51 L 149.92 165.66 L 150.31 165.75 L 150.72 165.79 L 151.15 165.75 L 151.56 165.64 L 151.96 165.46 L 152.33 165.22 L 152.67 164.91 L 152.96 164.56 L 153.19 164.16 L 153.36 163.70 L 153.45 163.23 L 153.46 162.75 L 153.39 162.25 L 153.24 161.77 L 153.03 161.30 L 152.73 160.88 L 152.36 160.51 L 151.93 160.19 L 151.44 159.94 L 150.92 159.78 L 150.37 159.69 L 149.81 159.69 L 149.25 159.78 L 148.70 159.97 L 148.19 160.25 L 147.72 160.61 L 147.30 161.04 L 146.95 161.54 L 146.69 162.09 L 146.52 162.69 L 146.44 163.32 L 146.47 163.96 L 146.61 164.59 L 146.83 165.21 L 147.15 165.77 L 147.57 166.29 L 148.07 166.74 L 148.66 167.11 L 149.29 167.38 L 149.97 167.55 L 150.66 167.62 L 151.37 167.57 L 152.07 167.41 L 152.74 167.12 L 153.36 166.73 L 153.93 166.25 L 154.41 165.68 L 154.81 165.04 L 155.09 164.32 L 155.26 163.57 L 155.30 162.79 L 155.21 162.00 L 155.01 161.24 L 154.69 160.51 L 154.25 159.84 L 153.69 159.24 L 153.05 158.73 L 152.32 158.32 L 151.53 158.03 L 150.70 157.86 L 149.84 157.84 L 148.99 157.96 L 148.16 158.21 L 147.37 158.58 L 146.65 159.09 L 146.01 159.71 L 145.47 160.44 L 145.06 161.24 L 144.76 162.10 L 144.62 163.01 L 144.62 163.94 L 144.77 164.86 L 145.06 165.75 L 145.50 166.60 L 146.06 167.37 L 146.76 168.05 L 147.56 168.60 L 148.44 169.03 L 149.38 169.31 L 150.36 169.45 L 151.37 169.42 L 152.36 169.25 L 153.32 168.89 L 154.21 168.39 L 155.02 167.76 L 155.74 166.99 L 156.31 166.12 L 156.74 165.17 L 157.02 164.13 L 157.13 163.07 L 157.08 161.99 L 156.85 160.94 L 156.45 159.92 L 155.89 158.98 L 155.19 158.13 L 154.34 157.39 L 153.40 156.80 L 152.36 156.36 L 151.26 156.09 L 150.11 156.00 L 148.97 156.10 L 147.84 156.37 L 146.76 156.82 L 145.77 157.44 L 144.88 158.22 L 144.13 159.14 L 143.52 160.17 L 143.08 161.29 L 142.82 162.47 L 142.76 163.68 L 142.90 164.90 L 143.22 166.10 L 143.73 167.23 L 144.42 168.26 L 145.27 169.19 L 146.26 169.97 L 147.38 170.58 L 148.58 171.02 L 149.84 171.26 L 151.13 171.29 L 152.41 171.12 L 153.66 170.73 L 154.85 170.16 L 155.93 169.40 L 156.89 168.48 L 157.69 167.41 L 158.30 166.22 L 158.73 164.92 L 158.95 163.59 L 158.95 162.22 L 158.74 160.86 L 158.30 159.55 L 157.65 158.32 L 156.84 157.21 L 155.83 156.22 L 154.68 155.40 L 153.40 154.77 L 152.03 154.37 L 150.61 154.18 L 149.17 154.21 L 147.75 154.47 L 146.38 154.96 L 145.09 155.67 L 143.09 157.51 L 141.75 159.93 L 141.18 162.47 L 141.55 165.81 L 142.70 168.26 L 144.61 170.34 L 146.52 171.53 L 148.63 172.21 L 151.08 172.35 L 152.36 172.16 L 154.12 171.91 L 156.01 170.45 L 157.28 169.42 L 158.45 167.58 L 159.14 166.01 L 159.56 163.73 L 159.49 161.93 L 159.08 160.15 L 158.46 158.76 L 157.58 157.42 L 157.14 156.92 L 155.01 155.20 L 153.09 154.36 L 151.64 154.04 L 150.06 153.95 L 148.93 154.06 L 147.49 154.42 L 145.74 155.31 L 144.63 155.96 L 142.93 153.83 L 132.22 140.40 L 146.27 123.53 L 149.94 111.65 L 151.90 100.00 L 150.78 100.00 L 149.88 100.26 L 150.09 100.00 L 149.88 99.74 L 148.91 99.46 L 149.36 100.00 L 148.91 100.54 L 147.95 100.82 L 148.64 100.00 L 147.95 99.18 L 146.99 98.90 L 147.91 100.00 L 146.99 101.10 L 146.04 101.38 L 147.18 100.00 L 146.04 98.62 L 145.08 98.34 L 146.45 100.00 L 145.08 101.66 L 144.12 101.95 L 145.72 100.00 L 144.12 98.06 L 143.16 97.78 L 144.99 100.00 L 143.16 102.22 L 142.20 102.50 L 144.26 100.00 L 142.20 97.50 L 141.23 97.22 L 143.53 100.00 L 141.23 102.78 L 140.28 103.07 L 142.80 100.00 L 140.28 96.94 L 139.32 96.66 L 142.07 100.00 L 139.32 103.35 L 138.36 103.63 L 141.35 100.00 L 138.36 96.37 L 137.40 96.10 L 140.62 100.00 L 137.40 103.91 L 136.44 104.19 L 139.89 100.00 L 136.44 95.82 L 135.48 95.53 L 139.16 100.00 L 135.48 104.46 L 134.52 104.75 L 138.43 100.00 L 134.52 95.25 L 133.56 94.98 L 137.70 100.00 L 133.56 105.03 L 132.60 105.31 L 136.97 100.00 L 132.60 94.69 L 131.64 94.41 L 136.24 100.00 L 131.64 105.59 L 130.68 105.87 L 135.51 100.00 L 130.68 94.13 L 129.72 93.85 L 134.78 100.00 L 129.72 106.15 L 128.77 106.43 L 134.06 100.00 L 128.77 93.57 L 127.80 93.29 L 133.33 100.00 L 127.80 106.71 L 126.84 106.99 L 132.60 100.00 L 126.84 93.01 L 125.88 92.73 L 131.87 100.00 L 125.88 107.27 L 124.92 107.55 L 131.14 100.00 L 124.92 92.45 L 123.96 92.17 L 130.41 100.00 L 123.96 107.83 L 123.00 108.11 L 129.68 100.00 L 123.00 91.89 L 122.05 91.61 L 128.95 100.00 L 122.05 108.39 L 121.08 108.67 L 128.22 100.00 L 121.08 91.33 L 120.12 91.05 L 127.49 100.00 L 120.12 108.95 L 119.16 109.23 L 126.77 100.00 L 119.16 90.77 L 119.16 91.66 L 126.04 100.00 L 119.16 108.34 L 119.16 107.46 L 125.31 100.00 L 119.16 92.54 L 119.16 93.42 L 124.58 100.00 L 119.16 106.58 L 119.16 105.69 L 123.85 100.00 L 119.16 94.31 L 119.16 95.19 L 123.12 100.00 L 119.16 104.81 L 119.16 103.92 L 122.39 100.00 L 119.16 96.08 L 119.16 96.96 L 121.66 100.00 L 119.16 103.04 L 119.17 102.15 L 120.93 100.00 L 119.17 97.85 L 119.16 98.73 L 120.20 100.00 L 119.16 101.27 L 119.17 100.38 L 119.48 100.00 L 106.26 92.15 L 131.66 60.30 L 131.66 60.30 L 131.30 61.17 L 131.23 60.83 L 130.89 60.84 L 130.07 61.42 L 130.78 61.40 L 130.92 62.10 L 130.54 63.02 L 130.32 61.97 L 129.26 62.00 L 128.44 62.57 L 129.87 62.54 L 130.16 63.95 L 129.79 64.87 L 129.41 63.11 L 127.62 63.14 L 126.81 63.72 L 128.96 63.68 L 129.40 65.79 L 129.03 66.72 L 128.50 64.25 L 125.99 64.29 L 125.17 64.87 L 128.05 64.82 L 128.65 67.64 L 128.27 68.57 L 127.60 65.39 L 124.35 65.45 L 123.53 66.03 L 127.14 65.96 L 127.88 69.50 L 127.51 70.42 L 126.69 66.53 L 122.72 66.60 L 121.90 67.17 L 126.23 67.10 L 127.13 71.34 L 126.75 72.27 L 125.78 67.67 L 121.08 67.75 L 120.26 68.33 L 125.32 68.24 L 126.37 73.20 L 125.99 74.12 L 124.87 68.81 L 119.45 68.90 L 118.63 69.48 L 124.41 69.38 L 125.61 75.05 L 125.24 75.97 L 123.96 69.95 L 117.81 70.05 L 116.99 70.63 L 123.51 70.52 L 124.85 76.90 L 124.48 77.82 L 123.05 71.09 L 116.18 71.20 L 115.36 71.78 L 122.60 71.66 L 124.10 78.75 L 123.72 79.67 L 122.14 72.23 L 114.54 72.35 L 113.72 72.93 L 121.69 72.80 L 123.34 80.60 L 122.96 81.52 L 121.23 73.37 L 112.91 73.50 L 112.09 74.08 L 120.78 73.94 L 122.58 82.44 L 122.20 83.37 L 120.32 74.51 L 111.27 74.66 L 110.46 75.23 L 119.87 75.08 L 121.82 84.30 L 121.44 85.22 L 119.41 75.65 L 109.64 75.81 L 108.82 76.38 L 118.96 76.22 L 121.06 86.15 L 120.68 87.07 L 118.51 76.79 L 108.00 76.96 L 107.19 77.53 L 118.05 77.36 L 120.31 87.99 L 119.92 88.92 L 117.60 77.93 L 106.37 78.11 L 105.55 78.69 L 117.14 78.50 L 119.54 89.85 L 119.16 90.77 L 116.69 79.07 L 104.73 79.27 L 105.42 79.82 L 116.23 79.64 L 118.47 90.22 L 117.78 89.67 L 115.78 80.21 L 106.12 80.37 L 106.81 80.92 L 115.32 80.78 L 117.09 89.12 L 116.40 88.57 L 114.87 81.35 L 107.50 81.47 L 108.19 82.02 L 114.42 81.92 L 115.70 88.02 L 115.01 87.46 L 113.96 82.49 L 108.88 82.58 L 109.58 83.12 L 113.51 83.06 L 114.32 86.91 L 113.63 86.36 L 113.05 83.63 L 110.27 83.67 L 110.96 84.23 L 112.60 84.20 L 112.94 85.81 L 112.25 85.25 L 112.14 84.77 L 97.76 90.21 L 88.70 50.50 L 88.70 50.50 L 89.16 51.31 L 88.85 51.16 L 88.65 51.43 L 88.59 52.43 L 89.01 51.87 L 89.64 52.19 L 90.13 53.07 L 89.18 52.58 L 88.53 53.43 L 88.47 54.43 L 89.34 53.29 L 90.62 53.94 L 91.10 54.81 L 89.50 54.01 L 88.41 55.42 L 88.35 56.42 L 89.66 54.72 L 91.59 55.68 L 92.08 56.55 L 89.82 55.43 L 88.29 57.42 L 88.23 58.42 L 89.99 56.14 L 92.56 57.43 L 93.05 58.30 L 90.15 56.85 L 88.17 59.42 L 88.11 60.42 L 90.31 57.56 L 93.54 59.18 L 94.03 60.05 L 90.47 58.27 L 88.05 61.42 L 87.99 62.41 L 90.64 58.98 L 94.51 60.92 L 95.00 61.80 L 90.80 59.69 L 87.93 63.41 L 87.87 64.41 L 90.96 60.40 L 95.49 62.67 L 95.97 63.55 L 91.12 61.11 L 87.81 65.41 L 87.75 66.41 L 91.28 61.82 L 96.46 64.42 L 96.95 65.29 L 91.45 62.53 L 87.69 67.40 L 87.63 68.40 L 91.61 63.24 L 97.43 66.17 L 97.92 67.04 L 91.77 63.96 L 87.57 69.40 L 87.51 70.40 L 91.93 64.67 L 98.41 67.91 L 98.89 68.78 L 92.10 65.38 L 87.45 71.39 L 87.39 72.39 L 92.26 66.09 L 99.38 69.66 L 99.87 70.53 L 92.42 66.80 L 87.33 73.39 L 87.27 74.39 L 92.58 67.51 L 100.35 71.40 L 100.84 72.27 L 92.74 68.22 L 87.21 75.38 L 87.16 76.38 L 92.91 68.93 L 101.33 73.15 L 101.81 74.03 L 93.07 69.64 L 87.10 77.38 L 87.04 78.38 L 93.23 70.35 L 102.30 74.90 L 102.79 75.77 L 93.39 71.06 L 86.98 79.38 L 86.91 80.37 L 93.56 71.77 L 103.27 76.64 L 103.76 77.52 L 93.72 72.48 L 86.86 81.37 L 86.80 82.37 L 93.88 73.19 L 104.25 78.39 L 104.73 79.27 L 94.04 73.91 L 86.74 83.37 L 87.60 83.18 L 94.21 74.62 L 103.87 79.46 L 103.01 79.66 L 94.37 75.33 L 88.46 82.98 L 89.33 82.78 L 94.53 76.04 L 102.15 79.86 L 101.28 80.05 L 94.69 76.75 L 90.19 82.58 L 91.05 82.39 L 94.85 77.46 L 100.42 80.25 L 99.56 80.45 L 95.02 78.17 L 91.91 82.19 L 92.77 81.99 L 95.18 78.88 L 98.70 80.64 L 97.83 80.84 L 95.34 79.59 L 93.64 81.79 L 94.50 81.60 L 95.50 80.30 L 96.97 81.03 L 96.11 81.23 L 95.67 81.01 L 90.95 95.64 L 54.25 77.97 L 54.25 77.97 L 55.18 78.12 L 54.87 78.27 L 54.95 78.59 L 55.70 79.26 L 55.52 78.58 L 56.17 78.29 L 57.15 78.45 L 56.18 78.90 L 56.44 79.93 L 57.18 80.60 L 56.84 79.22 L 58.14 78.62 L 59.12 78.78 L 57.49 79.53 L 57.92 81.27 L 58.67 81.94 L 58.15 79.85 L 60.11 78.94 L 61.09 79.10 L 58.81 80.16 L 59.41 82.61 L 60.15 83.28 L 59.46 80.48 L 62.08 79.27 L 63.07 79.44 L 60.12 80.80 L 60.89 83.95 L 61.64 84.62 L 60.78 81.11 L 64.06 79.60 L 65.04 79.76 L 61.43 81.43 L 62.38 85.29 L 63.12 85.95 L 62.09 81.75 L 66.02 79.92 L 67.01 80.09 L 62.75 82.06 L 63.87 86.62 L 64.61 87.29 L 63.40 82.38 L 68.00 80.25 L 68.99 80.42 L 64.06 82.69 L 65.36 87.96 L 66.10 88.63 L 64.72 83.01 L 69.97 80.59 L 70.96 80.74 L 65.38 83.33 L 66.84 89.30 L 67.59 89.97 L 66.03 83.64 L 71.95 80.91 L 72.93 81.07 L 66.69 83.96 L 68.33 90.64 L 69.07 91.30 L 67.35 84.28 L 73.92 81.24 L 74.90 81.40 L 68.00 84.59 L 69.81 91.97 L 70.56 92.64 L 68.66 84.91 L 75.89 81.57 L 76.87 81.73 L 69.32 85.22 L 71.29 93.31 L 72.04 93.98 L 69.97 85.54 L 77.86 81.89 L 78.85 82.06 L 70.63 85.86 L 72.78 94.65 L 73.53 95.32 L 71.29 86.17 L 79.83 82.22 L 80.82 82.39 L 71.94 86.49 L 74.27 95.99 L 75.01 96.66 L 72.60 86.81 L 81.81 82.55 L 82.79 82.71 L 73.26 87.12 L 75.76 97.32 L 76.50 97.99 L 73.91 87.44 L 83.78 82.87 L 84.76 83.04 L 74.57 87.76 L 77.24 98.66 L 77.99 99.33 L 75.23 88.07 L 85.75 83.21 L 86.74 83.37 L 75.88 88.39 L 78.73 100.00 L 79.12 99.20 L 76.54 88.70 L 86.36 84.17 L 85.97 84.96 L 77.20 89.02 L 79.50 98.41 L 79.88 97.61 L 77.85 89.34 L 85.59 85.76 L 85.20 86.56 L 78.51 89.65 L 80.27 96.81 L 80.65 96.02 L 79.17 89.97 L 84.82 87.36 L 84.44 88.15 L 79.83 90.29 L 81.04 95.22 L 81.42 94.42 L 80.48 90.60 L 84.05 88.95 L 83.67 89.74 L 81.14 90.92 L 81.80 93.62 L 82.18 92.83 L 81.80 91.23 L 83.28 90.54 L 82.90 91.34 L 82.45 91.55 L 90.95 104.36 L 54.25 122.03 L 54.25 122.03 L 54.95 121.40 L 54.87 121.74 L 55.18 121.88 L 56.17 121.71 L 55.52 121.42 L 55.70 120.73 L 56.44 120.07 L 56.18 121.10 L 57.15 121.55 L 58.14 121.38 L 56.84 120.79 L 57.18 119.40 L 57.92 118.73 L 57.50 120.47 L 59.12 121.22 L 60.11 121.06 L 58.15 120.16 L 58.67 118.06 L 59.41 117.39 L 58.81 119.84 L 61.09 120.89 L 62.08 120.73 L 59.47 119.52 L 60.15 116.72 L 60.89 116.05 L 60.12 119.21 L 63.07 120.56 L 64.06 120.40 L 60.78 118.89 L 61.64 115.38 L 62.38 114.71 L 61.44 118.57 L 65.04 120.24 L 66.02 120.07 L 62.09 118.26 L 63.12 114.05 L 63.87 113.38 L 62.75 117.94 L 67.01 119.91 L 68.00 119.75 L 63.41 117.62 L 64.61 112.71 L 65.36 112.04 L 64.06 117.31 L 68.99 119.58 L 69.97 119.42 L 64.72 116.99 L 66.10 111.37 L 66.84 110.70 L 65.38 116.68 L 70.96 119.26 L 71.95 119.09 L 66.03 116.36 L 67.59 110.03 L 68.33 109.36 L 66.69 116.04 L 72.93 118.93 L 73.92 118.76 L 67.35 115.73 L 69.07 108.70 L 69.81 108.03 L 68.00 115.41 L 74.90 118.60 L 75.89 118.43 L 68.66 115.09 L 70.56 107.36 L 71.29 106.69 L 69.32 114.78 L 76.87 118.27 L 77.86 118.11 L 69.97 114.46 L 72.04 106.02 L 72.78 105.35 L 70.63 114.15 L 78.85 117.94 L 79.83 117.78 L 71.29 113.83 L 73.53 104.68 L 74.27 104.01 L 71.94 113.51 L 80.82 117.61 L 81.81 117.45 L 72.60 113.20 L 75.01 103.34 L 75.76 102.68 L 73.26 112.88 L 82.79 117.29 L 83.78 117.12 L 73.91 112.56 L 76.50 102.01 L 77.24 101.34 L 74.57 112.25 L 84.76 116.96 L 85.75 116.79 L 75.23 111.93 L 77.99 100.67 L 78.73 100.00 L 75.89 111.61 L 86.74 116.63 L 86.36 115.83 L 76.54 111.30 L 79.12 100.80 L 79.50 101.59 L 77.20 110.98 L 85.97 115.04 L 85.59 114.24 L 77.86 110.67 L 79.88 102.39 L 80.27 103.19 L 78.51 110.35 L 85.20 113.44 L 84.82 112.64 L 79.17 110.03 L 80.65 103.98 L 81.04 104.78 L 79.83 109.72 L 84.44 111.85 L 84.05 111.05 L 80.48 109.40 L 81.42 105.58 L 81.80 106.38 L 81.14 109.08 L 83.67 110.26 L 83.28 109.46 L 81.80 108.77 L 82.18 107.17 L 82.57 107.97 L 82.45 108.45 L 97.77 109.79 L 88.70 149.51 L 88.70 149.51 L 88.65 148.57 L 88.86 148.84 L 89.16 148.69 L 89.64 147.81 L 89.02 148.13 L 88.59 147.57 L 88.53 146.57 L 89.18 147.42 L 90.13 146.93 L 90.62 146.06 L 89.34 146.71 L 88.47 145.57 L 88.41 144.58 L 89.50 146.00 L 91.10 145.19 L 91.59 144.32 L 89.67 145.28 L 88.35 143.58 L 88.29 142.58 L 89.83 144.57 L 92.08 143.45 L 92.56 142.57 L 89.99 143.86 L 88.23 141.58 L 88.17 140.58 L 90.15 143.15 L 93.05 141.70 L 93.54 140.82 L 90.32 142.44 L 88.11 139.58 L 88.05 138.58 L 90.48 141.73 L 94.03 139.95 L 94.51 139.08 L 90.64 141.02 L 87.99 137.59 L 87.93 136.59 L 90.80 140.31 L 95.00 138.20 L 95.49 137.33 L 90.96 139.60 L 87.87 135.59 L 87.81 134.59 L 91.13 138.89 L 95.97 136.45 L 96.46 135.58 L 91.29 138.18 L 87.75 133.59 L 87.69 132.60 L 91.45 137.47 L 96.95 134.71 L 97.43 133.83 L 91.61 136.76 L 87.63 131.60 L 87.57 130.60 L 91.77 136.05 L 97.92 132.96 L 98.41 132.09 L 91.94 135.33 L 87.51 129.60 L 87.45 128.61 L 92.10 134.62 L 98.89 131.22 L 99.38 130.34 L 92.26 133.91 L 87.39 127.61 L 87.33 126.61 L 92.42 133.20 L 99.87 129.47 L 100.35 128.60 L 92.59 132.49 L 87.27 125.61 L 87.21 124.62 L 92.75 131.78 L 100.84 127.73 L 101.33 126.85 L 92.91 131.07 L 87.16 123.62 L 87.10 122.62 L 93.07 130.36 L 101.81 125.97 L 102.30 125.10 L 93.23 129.65 L 87.04 121.62 L 86.98 120.62 L 93.40 128.94 L 102.79 124.23 L 103.27 123.36 L 93.56 128.23 L 86.91 119.63 L 86.86 118.63 L 93.72 127.52 L 103.76 122.48 L 104.25 121.61 L 93.88 126.81 L 86.80 117.63 L 86.74 116.63 L 94.05 126.10 L 104.73 120.73 L 103.87 120.54 L 94.21 125.38 L 87.60 116.82 L 88.46 117.02 L 94.37 124.67 L 103.01 120.34 L 102.15 120.14 L 94.53 123.96 L 89.33 117.22 L 90.19 117.42 L 94.69 123.25 L 101.28 119.95 L 100.42 119.75 L 94.86 122.54 L 91.05 117.61 L 91.91 117.81 L 95.02 121.83 L 99.56 119.55 L 98.70 119.36 L 95.18 121.12 L 92.77 118.01 L 93.64 118.21 L 95.34 120.41 L 97.83 119.16 L 96.97 118.97 L 95.50 119.70 L 94.50 118.40 L 95.36 118.60 L 95.67 118.99 L 106.26 107.85 L 131.66 139.70 L 131.66 139.70 L 130.89 139.16 L 131.24 139.16 L 131.30 138.83 L 130.92 137.90 L 130.78 138.59 L 130.07 138.58 L 129.26 138.00 L 130.33 138.02 L 130.54 136.98 L 130.16 136.05 L 129.87 137.45 L 128.44 137.43 L 127.62 136.86 L 129.42 136.88 L 129.79 135.13 L 129.40 134.21 L 128.96 136.31 L 126.81 136.28 L 125.99 135.71 L 128.51 135.74 L 129.03 133.28 L 128.65 132.36 L 128.05 135.17 L 125.17 135.13 L 124.35 134.55 L 127.60 134.60 L 128.27 131.43 L 127.89 130.50 L 127.14 134.03 L 123.53 133.97 L 122.72 133.40 L 126.69 133.46 L 127.51 129.58 L 127.13 128.66 L 126.23 132.89 L 121.90 132.83 L 121.08 132.25 L 125.78 132.32 L 126.75 127.73 L 126.37 126.80 L 125.33 131.75 L 120.26 131.67 L 119.45 131.10 L 124.87 131.18 L 125.99 125.88 L 125.61 124.95 L 124.42 130.61 L 118.63 130.52 L 117.81 129.95 L 123.96 130.04 L 125.24 124.03 L 124.85 123.10 L 123.51 129.47 L 116.99 129.37 L 116.18 128.80 L 123.05 128.90 L 124.47 122.18 L 124.10 121.25 L 122.60 128.33 L 115.36 128.22 L 114.54 127.65 L 122.14 127.76 L 123.72 120.33 L 123.34 119.40 L 121.69 127.19 L 113.72 127.07 L 112.91 126.50 L 121.23 126.63 L 122.96 118.48 L 122.58 117.56 L 120.78 126.06 L 112.09 125.92 L 111.27 125.34 L 120.33 125.49 L 122.20 116.63 L 121.82 115.70 L 119.87 124.92 L 110.46 124.77 L 109.64 124.19 L 119.42 124.35 L 121.44 114.78 L 121.06 113.85 L 118.96 123.78 L 108.82 123.62 L 108.00 123.04 L 118.51 123.21 L 120.68 112.93 L 120.31 112.01 L 118.05 122.64 L 107.19 122.47 L 106.37 121.89 L 117.60 122.07 L 119.92 111.08 L 119.54 110.15 L 117.14 121.50 L 105.55 121.31 L 104.73 120.73 L 116.69 120.93 L 119.16 109.23 L 118.47 109.78 L 116.23 120.36 L 105.42 120.18 L 106.12 119.63 L 115.78 119.79 L 117.78 110.33 L 117.09 110.88 L 115.33 119.22 L 106.81 119.08 L 107.50 118.53 L 114.87 118.65 L 116.40 111.43 L 115.70 111.98 L 114.42 118.08 L 108.19 117.98 L 108.88 117.42 L 113.96 117.51 L 115.01 112.54 L 114.32 113.09 L 113.51 116.94 L 109.57 116.88 L 110.27 116.33 L 113.05 116.37 L 113.63 113.64 L 112.94 114.19 L 112.60 115.80 L 110.96 115.77 L 111.65 115.22 L 112.14 115.23 L 110.04 100.00 L 121.29 99.98 L 112.12 82.52 L 98.73 78.77 L 82.61 87.76 L 81.26 110.06 L 97.64 121.14 L 115.50 114.56 L 120.66 99.52 L 121.08 97.36 L 120.58 94.76 L 119.75 92.25 L 118.62 89.87 L 117.19 87.65 L 115.51 85.63 L 113.58 83.83 L 111.46 82.28 L 109.17 81.00 L 106.73 80.02 L 104.19 79.37 L 101.59 79.04 L 98.97 79.03 L 96.38 79.33 L 93.84 79.95 L 91.40 80.88 L 89.11 82.12 L 86.99 83.64 L 85.07 85.40 L 83.38 87.38 L 81.95 89.54 L 80.81 91.87 L 79.97 94.33 L 79.45 96.87 L 79.24 99.45 L 79.35 102.03 L 79.77 104.58 L 80.51 107.05 L 81.56 109.40 L 82.89 111.61 L 84.49 113.63 L 86.31 115.44 L 88.34 117.02 L 90.55 118.32 L 92.91 119.32 L 95.37 120.03 L 97.90 120.42 L 100.46 120.51 L 103.00 120.29 L 105.50 119.74 L 107.89 118.88 L 110.17 117.73 L 112.27 116.31 L 114.20 114.65 L 115.90 112.77 L 117.35 110.68 L 118.52 108.43 L 119.40 106.06 L 119.98 103.60 L 120.26 101.08 L 120.23 98.56 L 119.87 96.06 L 119.20 93.63 L 118.24 91.30 L 117.00 89.11 L 115.50 87.10 L 113.77 85.28 L 111.82 83.69 L 109.70 82.38 L 107.42 81.33 L 105.04 80.57 L 102.58 80.11 L 100.09 79.96 L 97.60 80.12 L 95.16 80.60 L 92.79 81.38 L 90.54 82.43 L 88.44 83.76 L 86.52 85.33 L 84.81 87.13 L 83.35 89.13 L 82.16 91.29 L 81.23 93.59 L 80.60 95.97 L 80.25 98.42 L 80.23 100.88 L 80.52 103.33 L 81.11 105.71 L 81.98 108.01 L 83.13 110.18 L 84.53 112.19 L 86.18 114.00 L 88.04 115.59 L 90.09 116.93 L 92.28 118.02 L 94.58 118.82 L 96.96 119.34 L 99.39 119.55 L 101.82 119.45 L 104.22 119.04 L 106.55 118.35 L 108.77 117.38 L 110.86 116.15 L 112.77 114.66 L 114.48 112.95 L 115.95 111.04 L 117.17 108.95 L 118.14 106.74 L 118.83 104.43 L 119.21 102.06 L 119.30 99.66 L 119.08 97.27 L 118.57 94.92 L 117.78 92.66 L 116.72 90.51 L 115.40 88.52 L 113.84 86.71 L 112.06 85.11 L 110.10 83.75 L 108.00 82.64 L 105.77 81.79 L 103.46 81.23 L 101.10 80.96 L 98.73 81.00 L 96.38 81.33 L 94.10 81.94 L 91.90 82.83 L 89.84 83.98 L 87.94 85.38 L 86.24 87.01 L 84.75 88.84 L 83.50 90.83 L 82.50 92.96 L 81.77 95.19 L 81.33 97.49 L 81.19 99.83 L 81.34 102.17 L 81.77 104.47 L 82.49 106.69 L 83.46 108.81 L 84.70 110.79 L 86.18 112.59 L 87.87 114.18 L 89.74 115.57 L 91.76 116.71 L 93.90 117.59 L 96.14 118.20 L 98.43 118.51 L 100.74 118.53 L 103.04 118.28 L 105.28 117.74 L 107.44 116.94 L 109.48 115.87 L 111.36 114.55 L 113.06 113.01 L 114.56 111.27 L 115.84 109.36 L 116.87 107.32 L 117.63 105.16 L 118.11 102.93 L 118.30 100.65 L 118.22 98.37 L 117.86 96.13 L 117.24 93.94 L 116.33 91.85 L 115.17 89.90 L 113.78 88.11 L 112.18 86.50 L 110.40 85.11 L 108.46 83.94 L 106.40 83.03 L 104.23 82.39 L 102.01 82.03 L 99.76 81.94 L 97.52 82.13 L 95.32 82.58 L 93.20 83.32 L 91.19 84.31 L 89.33 85.55 L 87.62 87.00 L 86.12 88.65 L 84.82 90.47 L 83.77 92.44 L 82.99 94.52 L 82.46 96.68 L 82.21 98.89 L 82.22 101.11 L 82.51 103.31 L 83.07 105.45 L 83.90 107.50 L 84.98 109.43 L 86.29 111.21 L 87.80 112.81 L 89.49 114.22 L 91.35 115.40 L 93.34 116.34 L 95.43 117.02 L 97.58 117.43 L 99.77 117.58 L 101.95 117.46 L 104.10 117.06 L 106.18 116.41 L 108.16 115.49 L 110.01 114.33 L 111.70 112.96 L 113.21 111.40 L 114.51 109.66 L 115.58 107.78 L 116.40 105.77 L 116.97 103.68 L 117.28 101.54 L 117.32 99.38 L 117.09 97.24 L 116.60 95.14 L 115.84 93.13 L 114.84 91.22 L 113.63 89.45 L 112.20 87.85 L 110.59 86.45 L 108.81 85.25 L 106.90 84.29 L 104.89 83.58 L 102.80 83.11 L 100.68 82.91 L 98.56 82.98 L 96.46 83.31 L 94.42 83.90 L 92.47 84.75 L 90.64 85.81 L 88.96 87.09 L 87.46 88.58 L 86.15 90.23 L 85.07 92.04 L 84.22 93.97 L 83.60 95.98 L 83.25 98.05 L 83.14 100.15 L 83.32 102.24 L 83.75 104.29 L 84.43 106.27 L 85.34 108.15 L 86.49 109.89 L 87.83 111.49 L 89.36 112.89 L 91.06 114.09 L 92.89 115.08 L 94.83 115.83 L 96.84 116.33 L 98.89 116.59 L 100.96 116.57 L 103.00 116.29 L 105.00 115.78 L 106.92 115.02 L 108.72 114.03 L 110.39 112.83 L 111.88 111.42 L 113.19 109.84 L 114.29 108.11 L 115.17 106.26 L 115.82 104.33 L 116.22 102.33 L 116.36 100.29 L 116.24 98.26 L 115.88 96.26 L 115.28 94.32 L 114.44 92.47 L 113.38 90.74 L 112.11 89.17 L 110.65 87.77 L 109.04 86.56 L 107.29 85.55 L 105.43 84.78 L 103.49 84.23 L 101.51 83.94 L 99.50 83.91 L 97.51 84.11 L 95.56 84.56 L 93.68 85.25 L 91.90 86.16 L 90.26 87.29 L 88.77 88.62 L 87.46 90.12 L 86.34 91.76 L 85.44 93.53 L 84.76 95.39 L 84.33 97.32 L 84.14 99.29 L 84.20 101.27 L 84.50 103.22 L 85.04 105.11 L 85.80 106.93 L 86.79 108.63 L 87.98 110.19 L 89.36 111.58 L 90.89 112.80 L 92.56 113.82 L 94.34 114.63 L 96.20 115.20 L 98.12 115.53 L 100.07 115.61 L 102.01 115.47 L 103.91 115.08 L 105.75 114.47 L 107.49 113.63 L 109.11 112.57 L 110.59 111.32 L 111.90 109.90 L 113.02 108.34 L 113.95 106.65 L 114.65 104.86 L 115.11 103.00 L 115.34 101.09 L 115.34 99.18 L 115.10 97.28 L 114.64 95.43 L 113.94 93.65 L 113.02 91.99 L 111.90 90.45 L 110.61 89.05 L 109.16 87.83 L 107.57 86.80 L 105.86 85.98 L 104.07 85.38 L 102.22 85.02 L 100.34 84.87 L 98.46 84.97 L 96.60 85.29 L 94.81 85.84 L 93.10 86.62 L 91.51 87.60 L 90.04 88.77 L 88.74 90.10 L 87.60 91.59 L 86.67 93.20 L 85.95 94.92 L 85.45 96.71 L 85.18 98.54 L 85.13 100.40 L 85.30 102.24 L 85.71 104.04 L 86.35 105.78 L 87.20 107.42 L 88.23 108.94 L 89.45 110.32 L 90.82 111.54 L 92.33 112.58 L 93.97 113.41 L 95.69 114.03 L 97.47 114.44 L 99.28 114.63 L 101.11 114.59 L 102.91 114.32 L 104.66 113.83 L 106.33 113.12 L 107.90 112.21 L 109.34 111.12 L 110.65 109.87 L 111.78 108.46 L 112.71 106.92 L 113.46 105.28 L 113.99 103.56 L 114.31 101.79 L 114.40 100.00 L 113.93 93.32 L 113.50 92.63 L 114.62 92.96 L 114.18 94.04 L 114.47 94.80 L 115.37 92.60 L 113.09 91.93 L 112.62 91.20 L 116.14 92.23 L 114.74 95.62 L 114.98 96.52 L 116.89 91.87 L 112.06 90.45 L 111.40 89.68 L 117.64 91.50 L 115.18 97.52 L 115.32 98.66 L 118.41 91.14 L 110.60 88.86 L 109.59 87.97 L 119.16 90.77 L 115.38 100.00 L 113.91 106.72 L 114.18 105.96 L 114.62 107.04 L 113.50 107.37 L 113.09 108.07 L 115.37 107.40 L 114.47 105.20 L 114.74 104.38 L 116.14 107.77 L 112.62 108.80 L 112.06 109.55 L 116.89 108.13 L 114.98 103.48 L 115.18 102.48 L 117.64 108.50 L 111.40 110.32 L 110.60 111.14 L 118.41 108.86 L 115.32 101.34 L 115.38 100.00 L 119.16 109.23 L 109.59 112.03 L 103.42 115.07 L 104.18 114.80 L 103.61 115.82 L 102.66 115.15 L 101.85 115.27 L 103.80 116.64 L 104.96 114.56 L 105.77 114.26 L 103.98 117.46 L 100.99 115.35 L 100.06 115.38 L 104.17 118.28 L 106.62 113.88 L 107.53 113.41 L 104.36 119.09 L 99.04 115.35 L 97.90 115.24 L 104.55 119.92 L 108.51 112.82 L 109.59 112.03 L 104.73 120.73 L 96.58 115.00 L 90.35 112.07 L 91.03 112.50 L 89.88 112.69 L 89.81 111.52 L 89.22 110.97 L 89.36 113.34 L 91.71 112.95 L 92.45 113.40 L 88.83 114.00 L 88.62 110.34 L 88.01 109.63 L 88.31 114.66 L 93.28 113.83 L 94.21 114.25 L 87.79 115.31 L 87.40 108.82 L 86.78 107.86 L 87.26 115.97 L 95.28 114.64 L 96.58 115.00 L 86.74 116.63 L 86.14 106.67 L 84.55 99.98 L 84.64 100.78 L 83.77 100.00 L 84.64 99.22 L 84.70 98.41 L 82.94 100.00 L 84.70 101.59 L 84.82 102.45 L 82.09 100.00 L 84.82 97.55 L 84.99 96.63 L 81.25 100.00 L 84.99 103.37 L 85.25 104.35 L 80.42 100.00 L 85.25 95.64 L 85.61 94.56 L 79.57 100.00 L 85.61 105.44 L 86.14 106.67 L 78.73 100.00 L 86.14 93.33 L 90.38 87.90 L 89.81 88.48 L 89.88 87.31 L 91.03 87.50 L 91.71 87.05 L 89.36 86.66 L 89.22 89.03 L 88.62 89.66 L 88.83 86.00 L 92.45 86.60 L 93.28 86.17 L 88.31 85.34 L 88.01 90.37 L 87.40 91.18 L 87.79 84.69 L 94.21 85.75 L 95.28 85.36 L 87.26 84.03 L 86.78 92.14 L 86.14 93.33 L 86.74 83.37 L 96.58 85.00 L 103.46 84.94 L 102.66 84.85 L 103.61 84.18 L 104.18 85.20 L 104.96 85.44 L 103.80 83.36 L 101.85 84.73 L 100.99 84.65 L 103.99 82.54 L 105.77 85.74 L 106.62 86.12 L 104.17 81.72 L 100.06 84.62 L 99.04 84.65 L 104.36 80.91 L 107.53 86.59 L 108.51 87.18 L 104.55 80.08 L 97.90 84.76 L 96.58 85.00 L 104.73 79.27 L 109.59 87.98 L 109.79 87.73 L 108.02 86.58 L 106.11 85.69 L 104.12 85.06 L 102.06 84.71 L 99.99 84.65 L 97.93 84.86 L 95.93 85.33 L 94.02 86.07 L 92.24 87.06 L 90.61 88.27 L 89.18 89.69 L 87.95 91.28 L 86.94 93.01 L 86.17 94.85 L 85.67 96.77 L 85.44 98.73 L 85.47 100.70 L 85.76 102.63 L 86.30 104.51 L 87.09 106.28 L 88.11 107.92 L 89.34 109.39 L 90.74 110.69 L 92.30 111.78 L 93.98 112.65 L 95.76 113.29 L 97.59 113.67 L 99.45 113.80 L 101.31 113.67 L 103.12 113.31 L 104.86 112.71 L 106.49 111.89 L 107.99 110.85 L 109.32 109.63 L 110.48 108.24 L 111.44 106.73 L 112.18 105.10 L 112.69 103.40 L 112.95 101.66 L 113.00 99.90 L 112.80 98.16 L 112.38 96.48 L 111.73 94.87 L 110.87 93.38 L 109.83 92.03 L 108.62 90.82 L 107.27 89.80 L 105.80 88.97 L 104.25 88.36 L 102.63 87.96 L 100.98 87.78 L 99.33 87.83 L 97.71 88.09 L 96.15 88.57 L 94.69 89.25 L 93.33 90.13 L 92.10 91.16 L 91.04 92.34 L 90.14 93.65 L 89.44 95.06 L 88.94 96.55 L 88.65 98.08 L 88.56 99.62 L 88.67 101.16 L 88.99 102.66 L 89.52 104.09 L 90.22 105.42 L 91.10 106.64 L 92.12 107.74 L 93.27 108.68 L 94.53 109.45 L 95.87 110.03 L 97.28 110.42 L 98.71 110.63 L 100.15 110.65 L 101.57 110.46 L 102.95 110.09 L 104.25 109.54 L 105.45 108.82 L 106.55 107.96 L 107.51 106.96 L 108.33 105.85 L 108.98 104.65 L 109.45 103.38 L 109.75 102.06 L 109.87 100.72 L 109.82 99.39 L 109.59 98.09 L 109.18 96.85 L 108.60 95.67 L 107.88 94.60 L 107.04 93.63 L 106.08 92.79 L 105.01 92.10 L 103.88 91.55 L 102.69 91.18 L 101.47 90.96 L 100.24 90.90 L 99.02 91.03 L 97.84 91.31 L 96.72 91.74 L 95.67 92.32 L 94.71 93.02 L 93.87 93.84 L 93.15 94.76 L 92.57 95.76 L 92.13 96.82 L 91.84 97.93 L 91.70 99.05 L 91.71 100.18 L 91.88 101.28 L 92.20 102.33 L 92.64 103.34 L 93.21 104.26 L 93.90 105.09 L 94.68 105.82 L 95.55 106.42 L 96.49 106.90 L 97.47 107.25 L 98.48 107.46 L 99.50 107.53 L 100.51 107.46 L 101.49 107.25 L 102.43 106.92 L 103.31 106.47 L 104.12 105.92 L 104.83 105.27 L 105.44 104.52 L 105.94 103.71 L 106.32 102.85 L 106.58 101.96 L 106.72 101.04 L 106.74 100.13 L 106.62 99.23 L 106.39 98.37 L 106.06 97.55 L 105.62 96.78 L 105.08 96.10 L 104.46 95.50 L 103.77 95.00 L 103.03 94.60 L 102.25 94.30 L 101.45 94.11 L 100.64 94.04 L 99.84 94.07 L 99.05 94.22 L 98.30 94.47 L 97.60 94.80 L 96.96 95.23 L 96.39 95.73 L 95.90 96.30 L 95.50 96.92 L 95.18 97.59 L 94.97 98.28 L 94.84 98.98 L 94.83 99.69 L 94.89 100.38 L 95.06 101.05 L 95.31 101.68 L 95.63 102.27 L 96.04 102.80 L 96.50 103.25 L 97.01 103.65 L 97.56 103.95 L 98.14 104.19 L 98.74 104.34 L 99.35 104.40 L 99.94 104.37 L 100.52 104.28 L 101.08 104.10 L 101.60 103.86 L 102.07 103.56 L 102.48 103.19 L 102.83 102.78 L 103.12 102.33 L 103.35 101.85 L 103.51 101.36 L 103.60 100.86 L 103.62 100.36 L 103.57 99.88 L 103.45 99.41 L 103.27 98.98 L 103.04 98.58 L 102.77 98.22 L 102.45 97.90 L 102.11 97.63 L 101.73 97.43 L 101.34 97.28 L 100.94 97.19 L 100.55 97.16 L 100.16 97.19 L 99.78 97.25 L 99.42 97.37 L 99.10 97.53 L 98.80 97.73 L 98.55 97.97 L 98.34 98.24 L 98.18 98.52 L 98.05 98.81 L 97.97 99.11 L 97.93 99.41 L 97.93 99.71 L 97.98 99.99 L 98.06 100.25 L 98.18 100.49 L 98.32 100.70 L 98.49 100.88 L 98.68 101.04 L 98.88 101.16 L 99.08 101.25 L 99.29 101.30 L 99.50 101.32 L 99.69 101.30 L 99.87 101.27 L 100.04 101.21 L 100.20 101.13 L 100.33 101.03 L 100.43 100.91 L 100.52 100.79 L 100.57 100.66 L 100.61 100.54 L 100.61 100.41 L 100.61 100.30 L 100.57 100.19 L 100.53 100.10 L 100.47 100.02 L 100.40 99.97 L 100.33 99.93 L 100.25 99.91 L 100.18 99.91 L 100.11 99.92 L 100.05 99.96 L 100.00 100.00" 
          fill="none" 
          stroke="currentColor" 
          stroke-width="0.5"/>
</svg>