<?xml version="1.0" encoding="UTF-8" standalone="no"?>
<svg width="100%" height="100%" viewBox="0 0 200 200" preserveAspectRatio="xMidYMid meet" xmlns="http://www.w3.org/2000/svg">
    <path d="M 10.00 100.00 L 10.33 100.00 L 10.00 100.00 L 10.42 99.15 L 10.62 98.82 L 10.52 98.30 L 10.72 97.97 L 10.61 97.45 L 11.15 96.54 L 11.21 96.45 L 11.10 95.94 L 11.65 95.03 L 12.19 94.12 L 12.73 93.21 L 13.10 92.61 L 13.60 92.45 L 14.00 91.79 L 14.51 91.64 L 14.91 90.97 L 15.41 90.82 L 15.61 90.49 L 16.11 90.34 L 16.31 90.00 L 16.82 89.85 L 17.02 89.52 L 17.52 89.37 L 17.72 89.03 L 18.23 88.88 L 18.43 88.55 L 18.93 88.40 L 19.13 88.07 L 19.63 87.92 L 20.14 87.77 L 20.34 87.43 L 20.84 87.28 L 21.04 86.95 L 21.55 86.80 L 21.95 86.13 L 22.45 85.98 L 22.99 85.07 L 23.25 84.65 L 23.75 84.50 L 24.15 83.83 L 24.66 83.68 L 25.06 83.01 L 25.56 82.86 L 25.76 82.53 L 26.77 82.23 L 27.27 82.08 L 28.29 81.77 L 28.79 81.62 L 29.09 81.81 L 29.59 81.66 L 29.90 81.84 L 30.40 81.69 L 30.71 81.87 L 31.21 81.72 L 32.12 82.26 L 33.03 82.81 L 33.94 83.35 L 34.57 83.73 L 35.07 83.58 L 35.37 83.76 L 35.88 83.61 L 36.89 83.30 L 37.39 83.15 L 37.90 83.00 L 38.40 82.85 L 38.60 82.52 L 39.61 82.22 L 39.81 81.89 L 40.31 81.73 L 40.51 81.40 L 41.02 81.25 L 41.52 81.10 L 41.72 80.77 L 42.23 80.62 L 42.42 80.28 L 42.93 80.13 L 43.13 79.80 L 43.63 79.65 L 44.03 78.98 L 44.54 78.83 L 44.74 78.50 L 45.24 78.35 L 45.64 77.68 L 45.43 76.65 L 45.83 75.98 L 45.72 75.47 L 46.12 74.80 L 46.02 74.28 L 46.56 73.38 L 46.62 73.28 L 46.51 72.77 L 47.05 71.86 L 47.31 71.43 L 47.81 71.28 L 48.01 70.95 L 48.52 70.80 L 49.06 69.89 L 49.12 69.80 L 49.62 69.65 L 50.16 68.74 L 50.71 67.83 L 51.25 66.92 L 51.80 66.02 L 52.34 65.11 L 52.81 64.32 L 53.32 64.17 L 53.72 63.50 L 54.22 63.35 L 54.42 63.02 L 54.93 62.87 L 55.13 62.53 L 55.63 62.38 L 55.83 62.05 L 56.33 61.90 L 56.53 61.56 L 57.04 61.41 L 57.54 61.26 L 57.74 60.93 L 58.25 60.78 L 58.45 60.45 L 59.46 60.14 L 59.96 59.99 L 60.16 59.66 L 60.66 59.51 L 61.68 59.21 L 62.18 59.06 L 62.68 58.91 L 63.69 58.60 L 64.19 58.45 L 64.70 58.30 L 65.20 58.15 L 65.51 58.33 L 66.01 58.18 L 66.62 58.55 L 67.12 58.40 L 68.03 58.94 L 68.04 58.95 L 68.54 58.79 L 69.45 59.34 L 69.46 59.34 L 69.96 59.19 L 70.27 59.38 L 70.77 59.22 L 71.08 59.41 L 71.58 59.26 L 71.88 59.44 L 72.39 59.29 L 72.69 59.47 L 73.20 59.32 L 73.70 59.17 L 74.01 59.35 L 75.02 59.05 L 75.52 58.90 L 76.53 58.60 L 76.83 58.78 L 77.34 58.63 L 77.84 58.48 L 78.35 58.33 L 78.65 58.51 L 79.66 58.21 L 79.97 58.39 L 80.47 58.24 L 80.97 58.09 L 81.28 58.27 L 81.78 58.12 L 82.39 58.49 L 82.90 58.34 L 83.20 58.52 L 83.71 58.37 L 84.32 58.73 L 84.82 58.58 L 85.43 58.95 L 85.93 58.80 L 86.54 59.16 L 87.05 59.01 L 87.35 59.19 L 87.86 59.04 L 88.47 59.41 L 88.97 59.26 L 89.28 59.44 L 89.78 59.29 L 90.39 59.65 L 90.89 59.50 L 91.50 59.87 L 92.01 59.72 L 92.62 60.08 L 93.12 59.93 L 93.73 60.30 L 94.23 60.15 L 95.14 60.69 L 96.05 61.23 L 96.96 61.78 L 97.87 62.32 L 98.78 62.87 L 99.69 63.41 L 100.59 63.95 L 101.50 64.50 L 102.41 65.04 L 103.32 65.59 L 103.99 65.99 L 104.09 66.50 L 105.00 67.05 L 105.01 67.05 L 105.51 66.90 L 106.05 65.99 L 106.31 65.57 L 106.20 65.05 L 106.40 64.72 L 106.30 64.20 L 106.70 63.53 L 106.59 63.02 L 107.14 62.11 L 107.19 62.02 L 107.09 61.50 L 107.63 60.59 L 108.17 59.69 L 108.48 59.17 L 108.18 58.99 L 108.07 58.47 L 108.62 57.56 L 109.16 56.65 L 109.27 56.47 L 109.78 56.32 L 110.32 55.41 L 110.37 55.32 L 110.88 55.17 L 111.28 54.50 L 111.78 54.35 L 111.98 54.02 L 112.49 53.87 L 112.89 53.20 L 113.39 53.05 L 113.89 52.90 L 114.09 52.57 L 115.10 52.27 L 115.30 51.93 L 115.81 51.78 L 116.82 51.48 L 117.32 51.33 L 117.82 51.18 L 118.84 50.88 L 119.34 50.73 L 119.84 50.58 L 120.15 50.76 L 121.16 50.46 L 121.66 50.31 L 122.16 50.16 L 122.67 50.00 L 122.97 50.19 L 123.99 49.88 L 124.49 49.73 L 124.79 49.92 L 125.29 49.77 L 126.31 49.46 L 126.81 49.31 L 127.11 49.50 L 127.62 49.35 L 128.12 49.20 L 128.43 49.38 L 129.43 49.08 L 129.74 49.26 L 130.24 49.11 L 130.75 48.96 L 131.05 49.14 L 131.56 48.99 L 131.86 49.17 L 132.37 49.02 L 132.87 48.87 L 133.88 48.57 L 134.89 48.27 L 135.39 48.12 L 135.70 48.30 L 136.20 48.15 L 136.51 48.33 L 137.01 48.18 L 137.32 48.36 L 137.82 48.21 L 138.12 48.39 L 138.63 48.24 L 138.93 48.43 L 139.95 48.12 L 140.45 47.97 L 140.95 47.82 L 141.96 47.52 L 142.26 47.70 L 143.27 47.40 L 143.88 47.77 L 143.68 48.10 L 143.89 49.13 L 144.80 49.68 L 144.81 49.68 L 145.31 49.53 L 145.86 48.62 L 145.91 48.53 L 145.81 48.01 L 146.31 47.86 L 147.22 48.41 L 147.22 48.41 L 147.33 48.93 L 148.24 49.47 L 149.15 50.01 L 149.46 50.20 L 149.57 50.72 L 149.87 50.90 L 149.98 51.42 L 150.08 51.93 L 150.39 52.12 L 150.60 53.15 L 150.70 53.66 L 150.81 54.18 L 151.02 55.22 L 151.12 55.73 L 151.23 56.24 L 151.44 57.28 L 151.54 57.79 L 151.65 58.31 L 151.25 58.97 L 151.36 59.49 L 151.16 59.82 L 151.26 60.34 L 151.06 60.67 L 151.27 61.70 L 151.38 62.22 L 151.59 63.26 L 151.69 63.77 L 151.15 64.67 L 150.89 65.10 L 150.39 65.25 L 149.38 65.55 L 148.47 65.01 L 148.16 64.82 L 147.76 65.49 L 147.26 65.64 L 146.35 65.09 L 145.44 64.55 L 145.43 64.54 L 145.32 64.03 L 144.42 63.48 L 144.41 63.48 L 144.31 62.96 L 143.40 62.42 L 142.49 61.88 L 142.17 61.69 L 141.67 61.84 L 141.36 61.65 L 140.86 61.80 L 139.84 62.11 L 139.35 62.26 L 138.84 62.41 L 138.34 62.56 L 138.14 62.89 L 137.63 63.04 L 137.43 63.38 L 136.93 63.53 L 136.53 64.19 L 136.03 64.34 L 135.63 65.01 L 135.12 65.16 L 134.72 65.83 L 134.22 65.98 L 133.82 66.65 L 133.32 66.80 L 132.77 67.70 L 132.72 67.80 L 132.21 67.95 L 131.81 68.61 L 131.31 68.76 L 130.76 69.67 L 130.22 70.58 L 129.68 71.49 L 129.13 72.40 L 128.71 73.10 L 128.82 73.61 L 128.27 74.52 L 128.22 74.61 L 128.33 75.13 L 127.93 75.79 L 128.03 76.31 L 127.83 76.64 L 127.94 77.16 L 128.15 78.20 L 128.25 78.71 L 128.36 79.22 L 129.27 79.77 L 129.27 79.77 L 129.48 80.81 L 129.69 81.83 L 129.15 82.74 L 128.60 83.65 L 128.30 84.17 L 129.20 84.71 L 129.21 84.71 L 129.71 84.56 L 130.32 84.93 L 130.83 84.78 L 131.74 85.32 L 132.64 85.86 L 132.96 86.05 L 133.07 86.57 L 133.97 87.11 L 134.29 87.30 L 134.39 87.82 L 135.30 88.36 L 136.21 88.90 L 137.12 89.45 L 137.44 89.64 L 137.54 90.16 L 138.45 90.70 L 138.76 90.89 L 138.87 91.40 L 139.78 91.95 L 140.09 92.13 L 140.19 92.65 L 141.10 93.19 L 141.11 93.20 L 141.21 93.71 L 142.12 94.26 L 142.12 94.26 L 142.23 94.78 L 143.14 95.32 L 143.14 95.32 L 143.25 95.84 L 144.16 96.38 L 144.16 96.39 L 144.27 96.90 L 145.18 97.45 L 145.18 97.45 L 145.29 97.97 L 146.20 98.51 L 146.20 98.51 L 146.31 99.03 L 147.22 99.57 L 147.22 99.58 L 147.33 100.09 L 148.24 100.64 L 148.55 100.82 L 148.65 101.34 L 149.56 101.88 L 150.18 102.25 L 150.28 102.77 L 151.19 103.31 L 152.10 103.85 L 152.11 103.86 L 152.21 104.38 L 153.12 104.92 L 154.03 105.47 L 154.65 105.84 L 154.76 106.35 L 155.67 106.90 L 156.57 107.44 L 157.48 107.98 L 157.50 108.00 L 157.61 108.51 L 158.51 109.06 L 158.52 109.06 L 158.63 109.57 L 158.08 110.48 L 157.83 110.91 L 157.32 111.06 L 156.78 111.97 L 156.72 112.06 L 156.83 112.57 L 156.28 113.48 L 156.23 113.57 L 156.44 114.61 L 156.55 115.12 L 156.85 115.30 L 156.96 115.82 L 157.86 116.36 L 157.87 116.37 L 158.37 116.22 L 158.57 115.88 L 159.08 115.73 L 159.62 114.82 L 160.08 114.07 L 159.97 113.55 L 160.17 113.22 L 159.96 112.18 L 159.85 111.67 L 159.75 111.15 L 159.64 110.64 L 159.84 110.30 L 159.64 110.64 L 159.75 111.15 L 159.85 111.67 L 160.07 112.71 L 160.17 113.22 L 159.97 113.55 L 160.08 114.07 L 159.53 114.97 L 159.08 115.73 L 158.57 115.88 L 158.37 116.22 L 157.87 116.37 L 156.96 115.82 L 156.96 115.82 L 156.85 115.30 L 156.55 115.12 L 156.33 114.08 L 156.23 113.57 L 156.77 112.67 L 156.83 112.57 L 156.72 112.06 L 157.27 111.15 L 157.32 111.06 L 157.83 110.91 L 158.37 110.00 L 158.63 109.57 L 159.23 109.94 L 159.74 109.79 L 160.65 110.33 L 161.56 110.88 L 161.87 111.07 L 161.98 111.58 L 162.59 111.95 L 163.09 111.80 L 163.40 111.98 L 163.90 111.83 L 164.81 112.37 L 165.72 112.92 L 166.63 113.46 L 167.53 114.00 L 168.17 114.38 L 168.27 114.90 L 169.18 115.44 L 169.19 115.45 L 169.29 115.96 L 170.20 116.51 L 170.21 116.51 L 170.31 117.03 L 170.92 117.39 L 171.03 117.91 L 171.93 118.45 L 171.94 118.45 L 172.05 118.97 L 172.35 119.15 L 172.46 119.67 L 173.06 120.03 L 173.17 120.55 L 173.78 120.91 L 173.88 121.43 L 174.19 121.61 L 174.29 122.13 L 174.51 123.17 L 174.72 124.19 L 174.82 124.71 L 175.03 125.74 L 175.33 125.92 L 175.44 126.44 L 175.55 126.95 L 175.85 127.14 L 176.06 128.17 L 176.37 128.35 L 176.47 128.87 L 176.58 129.38 L 176.79 130.42 L 176.89 130.93 L 177.20 131.11 L 177.30 131.63 L 177.41 132.14 L 177.51 132.66 L 177.82 132.84 L 178.03 133.87 L 177.83 134.21 L 176.82 134.51 L 176.62 134.84 L 176.11 134.99 L 176.22 135.51 L 177.13 136.05 L 177.44 136.24 L 176.89 137.15 L 176.35 138.05 L 176.04 138.57 L 175.54 138.72 L 174.93 138.36 L 174.42 138.51 L 173.81 138.14 L 173.31 138.29 L 172.77 139.20 L 172.31 139.96 L 171.81 140.11 L 171.30 140.26 L 171.00 140.08 L 170.49 140.23 L 170.19 140.05 L 169.68 140.20 L 168.78 139.65 L 168.16 139.28 L 167.66 139.43 L 166.75 138.89 L 165.84 138.35 L 164.93 137.80 L 164.30 137.43 L 163.80 137.58 L 163.19 137.21 L 162.69 137.36 L 161.78 136.82 L 161.77 136.82 L 161.27 136.97 L 160.66 136.60 L 160.15 136.75 L 159.24 136.21 L 159.24 136.21 L 158.73 136.36 L 157.83 135.81 L 157.21 135.44 L 156.71 135.59 L 155.80 135.05 L 154.89 134.51 L 154.57 134.32 L 154.07 134.47 L 153.16 133.92 L 153.15 133.92 L 152.65 134.07 L 152.35 133.89 L 151.84 134.04 L 151.23 133.67 L 150.73 133.82 L 150.12 133.46 L 149.61 133.61 L 148.71 133.07 L 147.80 132.52 L 146.89 131.98 L 145.98 131.43 L 145.96 131.42 L 145.45 131.57 L 144.84 131.21 L 144.34 131.36 L 143.43 130.81 L 143.12 130.63 L 142.61 130.78 L 141.71 130.23 L 141.40 130.05 L 140.89 130.20 L 140.28 129.83 L 139.78 129.98 L 139.17 129.62 L 138.66 129.77 L 138.16 129.92 L 137.15 130.22 L 136.65 130.37 L 136.45 130.71 L 135.44 131.01 L 134.89 131.92 L 134.35 132.82 L 133.84 133.67 L 133.95 134.19 L 133.75 134.52 L 133.85 135.04 L 133.65 135.37 L 133.76 135.89 L 133.56 136.22 L 133.66 136.74 L 133.87 137.77 L 133.98 138.28 L 133.78 138.62 L 133.99 139.65 L 134.20 140.68 L 134.00 141.01 L 134.21 142.05 L 134.32 142.56 L 134.42 143.08 L 134.22 143.41 L 134.43 144.44 L 134.54 144.96 L 134.34 145.29 L 134.55 146.32 L 134.35 146.65 L 134.56 147.69 L 134.36 148.02 L 134.46 148.54 L 134.57 149.05 L 134.37 149.38 L 134.58 150.42 L 134.68 150.93 L 134.90 151.97 L 135.00 152.48 L 135.11 152.99 L 135.32 154.03 L 135.53 155.06 L 135.63 155.57 L 135.84 156.61 L 135.95 157.12 L 136.05 157.64 L 136.26 158.67 L 136.37 159.18 L 136.47 159.70 L 136.68 160.73 L 136.48 161.07 L 136.59 161.58 L 136.39 161.91 L 136.60 162.95 L 136.70 163.46 L 136.81 163.98 L 137.02 165.01 L 137.12 165.52 L 137.23 166.04 L 137.44 167.08 L 137.55 167.59 L 137.65 168.10 L 137.96 168.29 L 138.17 169.32 L 138.78 169.68 L 138.88 170.20 L 139.79 170.74 L 140.70 171.29 L 140.71 171.29 L 140.81 171.81 L 141.72 172.35 L 141.73 172.36 L 141.94 173.39 L 142.15 174.42 L 142.26 174.94 L 142.05 175.27 L 142.16 175.79 L 141.62 176.69 L 141.07 177.60 L 140.76 178.12 L 139.75 178.42 L 139.25 178.57 L 138.75 178.72 L 138.24 178.87 L 137.63 178.51 L 137.13 178.66 L 137.63 178.51 L 138.24 178.87 L 138.75 178.72 L 139.25 178.57 L 140.26 178.27 L 140.76 178.12 L 141.31 177.21 L 141.85 176.30 L 142.16 175.79 L 142.05 175.27 L 142.26 174.94 L 142.15 174.42 L 141.94 173.38 L 141.73 172.36 L 140.82 171.81 L 140.81 171.81 L 140.71 171.29 L 139.80 170.75 L 138.89 170.21 L 138.88 170.20 L 138.78 169.68 L 138.17 169.32 L 137.96 168.29 L 137.65 168.10 L 137.55 167.59 L 137.33 166.55 L 137.23 166.04 L 137.12 165.52 L 136.91 164.49 L 136.81 163.98 L 136.70 163.46 L 136.49 162.42 L 136.39 161.91 L 136.59 161.58 L 136.48 161.07 L 136.68 160.73 L 136.47 159.70 L 136.37 159.18 L 136.16 158.15 L 136.05 157.64 L 135.95 157.12 L 135.74 156.08 L 135.63 155.57 L 135.53 155.06 L 135.31 154.02 L 135.11 152.99 L 135.00 152.48 L 134.79 151.44 L 134.68 150.93 L 134.58 150.42 L 134.37 149.38 L 134.57 149.05 L 134.46 148.54 L 134.36 148.02 L 134.56 147.69 L 134.35 146.65 L 134.55 146.32 L 134.34 145.29 L 134.54 144.96 L 134.43 144.44 L 134.22 143.41 L 134.42 143.08 L 134.32 142.56 L 134.10 141.52 L 134.00 141.01 L 134.20 140.68 L 133.99 139.64 L 133.78 138.62 L 133.98 138.28 L 133.77 137.25 L 133.66 136.74 L 133.56 136.22 L 133.76 135.89 L 133.65 135.37 L 133.85 135.04 L 133.75 134.52 L 133.95 134.19 L 133.84 133.67 L 134.39 132.76 L 134.64 132.34 L 134.33 132.16 L 134.64 132.34 L 134.84 132.01 L 134.33 132.16 L 134.84 132.01 L 135.38 131.10 L 135.44 131.01 L 136.45 130.71 L 136.65 130.37 L 137.66 130.07 L 138.16 129.92 L 138.66 129.77 L 139.17 129.62 L 139.78 129.98 L 140.28 129.83 L 140.89 130.20 L 141.40 130.05 L 142.30 130.59 L 142.61 130.78 L 143.12 130.63 L 144.03 131.17 L 144.34 131.36 L 144.84 131.21 L 145.45 131.57 L 145.96 131.42 L 146.86 131.96 L 147.77 132.51 L 148.68 133.05 L 149.59 133.60 L 149.61 133.61 L 150.12 133.46 L 150.73 133.82 L 151.23 133.67 L 151.84 134.04 L 152.35 133.89 L 152.65 134.07 L 153.15 133.92 L 154.06 134.46 L 154.07 134.47 L 154.57 134.32 L 155.48 134.86 L 156.39 135.40 L 156.71 135.59 L 157.21 135.44 L 158.12 135.99 L 158.73 136.36 L 159.24 136.21 L 160.15 136.75 L 160.15 136.75 L 160.66 136.60 L 161.27 136.97 L 161.77 136.82 L 162.68 137.36 L 162.69 137.36 L 163.19 137.21 L 163.80 137.58 L 164.30 137.43 L 165.21 137.97 L 166.12 138.52 L 167.03 139.06 L 167.66 139.43 L 168.16 139.28 L 169.07 139.83 L 169.68 140.20 L 170.19 140.05 L 170.49 140.23 L 171.00 140.08 L 171.30 140.26 L 171.81 140.11 L 172.31 139.96 L 172.86 139.05 L 173.11 138.63 L 172.80 138.44 L 173.01 138.11 L 172.80 138.44 L 173.11 138.63 L 173.31 138.29 L 172.40 137.75 L 171.49 137.20 L 170.58 136.66 L 170.26 136.47 L 170.16 135.95 L 169.55 135.59 L 169.44 135.07 L 169.14 134.89 L 169.03 134.37 L 168.73 134.19 L 169.03 134.37 L 169.14 134.89 L 169.44 135.07 L 169.55 135.59 L 170.16 135.95 L 170.26 136.47 L 171.17 137.01 L 172.08 137.56 L 172.99 138.10 L 173.31 138.29 L 173.81 138.14 L 174.42 138.51 L 174.93 138.36 L 175.54 138.72 L 176.04 138.57 L 176.59 137.66 L 177.13 136.75 L 177.44 136.24 L 176.53 135.69 L 176.22 135.51 L 176.11 134.99 L 176.62 134.84 L 176.82 134.51 L 177.83 134.21 L 178.44 134.57 L 178.65 135.60 L 178.25 136.27 L 177.74 136.42 L 177.44 136.24 L 177.74 136.42 L 178.25 136.27 L 178.65 135.60 L 178.44 134.57 L 177.83 134.21 L 178.03 133.87 L 177.82 132.84 L 177.51 132.66 L 177.41 132.14 L 177.30 131.63 L 177.20 131.11 L 176.89 130.93 L 176.68 129.89 L 176.58 129.38 L 176.47 128.87 L 176.37 128.35 L 176.06 128.17 L 175.85 127.14 L 175.55 126.95 L 175.44 126.44 L 175.33 125.92 L 175.03 125.74 L 174.82 124.71 L 174.72 124.19 L 174.50 123.15 L 174.29 122.13 L 174.19 121.61 L 173.88 121.43 L 173.78 120.91 L 173.17 120.55 L 173.06 120.03 L 172.46 119.67 L 172.35 119.15 L 172.05 118.97 L 171.94 118.45 L 171.03 117.91 L 171.03 117.91 L 170.92 117.39 L 170.31 117.03 L 170.21 116.51 L 169.30 115.97 L 169.29 115.96 L 169.19 115.45 L 168.28 114.90 L 168.27 114.90 L 168.17 114.38 L 167.26 113.84 L 166.35 113.30 L 165.44 112.75 L 164.53 112.21 L 163.90 111.83 L 163.40 111.98 L 163.09 111.80 L 162.59 111.95 L 162.19 112.61 L 162.49 112.80 L 162.19 112.61 L 161.99 112.95 L 162.09 113.46 L 162.60 113.31 L 162.49 112.80 L 162.60 113.31 L 162.09 113.46 L 161.99 112.95 L 162.53 112.04 L 162.59 111.95 L 161.98 111.58 L 161.87 111.07 L 160.96 110.52 L 160.06 109.98 L 160.04 109.97 L 159.84 110.30 L 159.54 110.12 L 159.84 110.30 L 160.04 109.97 L 159.74 109.79 L 159.23 109.94 L 158.63 109.57 L 158.52 109.06 L 157.61 108.51 L 157.61 108.51 L 157.50 108.00 L 156.59 107.45 L 155.68 106.91 L 154.78 106.36 L 154.76 106.35 L 154.65 105.84 L 153.74 105.29 L 152.84 104.75 L 152.21 104.38 L 152.11 103.86 L 151.20 103.32 L 150.29 102.77 L 150.28 102.77 L 150.18 102.25 L 149.27 101.71 L 148.65 101.34 L 148.55 100.82 L 147.64 100.28 L 147.33 100.09 L 147.22 99.58 L 146.31 99.03 L 146.31 99.03 L 146.20 98.51 L 145.29 97.97 L 145.29 97.97 L 145.18 97.45 L 144.28 96.91 L 144.27 96.90 L 144.16 96.39 L 143.26 95.84 L 143.25 95.84 L 143.14 95.32 L 142.24 94.78 L 142.23 94.78 L 142.12 94.26 L 141.22 93.72 L 141.21 93.71 L 141.11 93.20 L 140.20 92.65 L 140.19 92.65 L 140.09 92.13 L 139.18 91.59 L 138.87 91.40 L 138.76 90.89 L 137.85 90.34 L 137.54 90.16 L 137.44 89.64 L 136.53 89.10 L 135.62 88.55 L 134.71 88.01 L 134.39 87.82 L 134.29 87.30 L 133.38 86.76 L 133.07 86.57 L 132.96 86.05 L 132.05 85.51 L 131.14 84.97 L 130.83 84.78 L 130.32 84.93 L 129.71 84.56 L 129.21 84.71 L 128.30 84.17 L 128.30 84.17 L 127.79 84.32 L 126.88 83.77 L 126.88 83.77 L 127.18 83.95 L 126.98 84.28 L 126.48 84.44 L 126.37 83.92 L 126.88 83.77 L 126.37 83.92 L 126.48 84.44 L 126.98 84.28 L 127.18 83.95 L 127.79 84.32 L 128.30 84.17 L 128.84 83.26 L 129.38 82.35 L 129.69 81.83 L 129.48 80.80 L 129.27 79.77 L 128.36 79.23 L 128.36 79.22 L 128.25 78.71 L 128.04 77.67 L 127.94 77.16 L 127.83 76.64 L 128.03 76.31 L 127.93 75.79 L 128.33 75.13 L 128.22 74.61 L 128.76 73.70 L 128.82 73.61 L 128.71 73.10 L 129.26 72.19 L 129.80 71.28 L 130.35 70.37 L 130.89 69.46 L 131.31 68.76 L 131.81 68.61 L 132.21 67.95 L 132.72 67.80 L 133.26 66.89 L 133.32 66.80 L 133.82 66.65 L 134.22 65.98 L 134.72 65.83 L 135.12 65.16 L 135.63 65.01 L 136.03 64.34 L 136.53 64.19 L 136.93 63.53 L 137.43 63.38 L 137.63 63.04 L 138.14 62.89 L 138.34 62.56 L 138.84 62.41 L 139.35 62.26 L 140.36 61.95 L 140.86 61.80 L 141.36 61.65 L 141.67 61.84 L 142.17 61.69 L 143.08 62.23 L 143.99 62.77 L 144.31 62.96 L 144.41 63.48 L 145.32 64.02 L 145.32 64.03 L 145.43 64.54 L 146.34 65.09 L 147.25 65.63 L 147.26 65.64 L 147.76 65.49 L 148.16 64.82 L 147.86 64.64 L 147.65 63.61 L 147.04 63.24 L 147.65 63.61 L 147.86 64.64 L 148.77 65.18 L 149.38 65.55 L 150.39 65.25 L 150.89 65.10 L 151.44 64.19 L 151.69 63.77 L 151.48 62.73 L 151.38 62.22 L 151.27 61.70 L 151.06 60.67 L 151.26 60.34 L 151.16 59.82 L 151.36 59.49 L 151.25 58.97 L 151.65 58.31 L 151.54 57.79 L 151.33 56.75 L 151.23 56.24 L 151.12 55.73 L 150.91 54.69 L 150.81 54.18 L 150.70 53.66 L 150.49 52.63 L 150.39 52.12 L 150.08 51.93 L 149.98 51.42 L 149.87 50.90 L 149.57 50.72 L 149.46 50.20 L 148.55 49.66 L 147.65 49.12 L 147.33 48.93 L 147.22 48.41 L 146.32 47.87 L 146.31 47.86 L 145.81 48.01 L 145.91 48.53 L 145.37 49.44 L 145.31 49.53 L 144.81 49.68 L 143.90 49.14 L 143.89 49.13 L 143.68 48.10 L 143.88 47.77 L 144.39 47.62 L 144.89 47.47 L 145.80 48.01 L 145.81 48.01 L 144.90 47.47 L 144.89 47.47 L 144.39 47.62 L 143.88 47.77 L 143.27 47.40 L 142.26 47.70 L 141.96 47.52 L 140.95 47.82 L 140.45 47.97 L 139.43 48.28 L 138.93 48.43 L 138.63 48.24 L 138.12 48.39 L 137.82 48.21 L 137.32 48.36 L 137.01 48.18 L 136.51 48.33 L 136.20 48.15 L 135.70 48.30 L 135.39 48.12 L 134.89 48.27 L 133.87 48.57 L 132.87 48.87 L 132.37 49.02 L 131.86 49.17 L 131.56 48.99 L 131.05 49.14 L 130.75 48.96 L 130.24 49.11 L 129.74 49.26 L 129.43 49.08 L 128.43 49.38 L 128.12 49.20 L 127.62 49.35 L 127.11 49.50 L 126.81 49.31 L 125.79 49.62 L 125.29 49.77 L 124.79 49.92 L 124.49 49.73 L 123.47 50.04 L 122.97 50.19 L 122.67 50.00 L 122.16 50.16 L 121.66 50.31 L 120.64 50.61 L 120.15 50.76 L 119.84 50.58 L 119.34 50.73 L 118.32 51.03 L 117.82 51.18 L 117.32 51.33 L 116.31 51.63 L 115.81 51.78 L 115.30 51.93 L 115.10 52.27 L 114.09 52.57 L 113.89 52.90 L 113.39 53.05 L 112.89 53.20 L 112.49 53.87 L 111.98 54.02 L 111.78 54.35 L 111.28 54.50 L 110.88 55.17 L 110.37 55.32 L 109.83 56.23 L 109.78 56.32 L 109.27 56.47 L 108.73 57.38 L 108.18 58.29 L 108.07 58.47 L 108.18 58.99 L 108.79 59.35 L 108.99 59.02 L 110.00 58.72 L 110.50 58.57 L 111.00 58.42 L 111.11 58.93 L 111.22 59.45 L 111.02 59.78 L 110.01 60.08 L 109.50 60.23 L 109.00 60.38 L 108.09 59.84 L 108.08 59.84 L 108.99 60.38 L 109.00 60.38 L 109.50 60.23 L 110.01 60.08 L 111.02 59.78 L 111.22 59.45 L 111.11 58.93 L 110.81 58.75 L 111.11 58.93 L 111.00 58.42 L 110.50 58.57 L 110.00 58.72 L 108.99 59.02 L 108.79 59.35 L 108.48 59.17 L 107.94 60.08 L 107.40 60.99 L 107.09 61.50 L 107.19 62.02 L 106.65 62.93 L 106.59 63.02 L 106.70 63.53 L 106.30 64.20 L 106.40 64.72 L 106.20 65.05 L 106.31 65.57 L 105.77 66.47 L 105.51 66.90 L 105.82 67.08 L 105.92 67.60 L 106.53 67.96 L 106.13 68.63 L 106.34 69.66 L 106.45 70.18 L 106.55 70.69 L 106.86 70.87 L 106.96 71.39 L 107.57 71.75 L 107.68 72.27 L 108.29 72.64 L 108.39 73.15 L 109.30 73.69 L 109.31 73.70 L 109.41 74.21 L 110.32 74.76 L 111.23 75.30 L 112.14 75.85 L 113.04 76.39 L 113.95 76.93 L 113.98 76.95 L 114.49 76.80 L 114.79 76.98 L 115.30 76.83 L 115.50 76.50 L 115.30 76.83 L 114.79 76.98 L 114.49 76.80 L 113.98 76.95 L 113.07 76.41 L 112.17 75.86 L 111.26 75.32 L 110.35 74.78 L 109.44 74.23 L 109.41 74.21 L 109.31 73.70 L 108.40 73.15 L 108.39 73.15 L 108.29 72.64 L 107.68 72.27 L 107.57 71.75 L 106.96 71.39 L 106.86 70.87 L 106.55 70.69 L 106.45 70.18 L 106.34 69.66 L 106.13 68.63 L 106.53 67.96 L 107.44 68.51 L 108.35 69.05 L 108.36 69.06 L 108.46 69.57 L 109.37 70.12 L 109.99 70.48 L 110.09 71.00 L 110.70 71.37 L 110.81 71.88 L 111.42 72.25 L 111.52 72.76 L 112.13 73.13 L 112.24 73.64 L 113.15 74.19 L 113.46 74.37 L 113.56 74.89 L 114.47 75.43 L 114.78 75.62 L 114.89 76.14 L 115.79 76.68 L 116.41 77.05 L 116.95 76.14 L 117.41 75.38 L 117.30 74.87 L 117.20 74.35 L 117.09 73.83 L 116.48 73.47 L 116.38 72.95 L 116.07 72.77 L 115.97 72.25 L 116.51 71.35 L 116.57 71.26 L 116.36 70.22 L 116.05 70.04 L 115.95 69.53 L 115.73 68.49 L 115.63 67.98 L 115.52 67.46 L 115.31 66.42 L 115.21 65.91 L 115.41 65.58 L 115.30 65.07 L 115.50 64.73 L 115.40 64.22 L 115.60 63.88 L 115.49 63.37 L 115.89 62.70 L 115.79 62.19 L 116.33 61.28 L 116.39 61.19 L 116.89 61.03 L 117.39 60.88 L 118.40 60.58 L 119.31 61.13 L 120.22 61.67 L 120.23 61.68 L 120.34 62.19 L 120.64 62.38 L 120.75 62.89 L 121.05 63.07 L 121.16 63.59 L 121.37 64.63 L 121.47 65.14 L 121.58 65.65 L 121.68 66.17 L 121.28 66.84 L 121.39 67.35 L 120.84 68.26 L 120.30 69.17 L 120.19 69.35 L 119.69 69.50 L 119.29 70.17 L 118.78 70.32 L 118.58 70.65 L 118.08 70.80 L 117.68 71.47 L 118.08 70.80 L 118.58 70.65 L 118.78 70.32 L 119.29 70.17 L 119.69 69.50 L 120.19 69.35 L 120.74 68.44 L 121.28 67.53 L 121.39 67.35 L 121.28 66.84 L 121.68 66.17 L 121.58 65.65 L 121.47 65.14 L 121.26 64.10 L 121.16 63.59 L 121.05 63.07 L 120.75 62.89 L 120.64 62.38 L 120.34 62.19 L 120.23 61.68 L 119.32 61.13 L 118.41 60.59 L 118.40 60.58 L 117.39 60.88 L 116.89 61.03 L 116.39 61.19 L 115.84 62.09 L 115.79 62.19 L 115.89 62.70 L 115.49 63.37 L 115.60 63.88 L 115.40 64.22 L 115.50 64.73 L 115.30 65.07 L 115.41 65.58 L 115.21 65.91 L 115.42 66.95 L 115.52 67.46 L 115.63 67.98 L 115.84 69.01 L 115.95 69.53 L 116.05 70.04 L 116.36 70.22 L 116.57 71.26 L 117.47 71.80 L 117.48 71.80 L 117.68 71.47 L 117.37 71.29 L 117.68 71.47 L 117.48 71.80 L 117.59 72.32 L 118.49 72.86 L 118.50 72.87 L 119.00 72.71 L 119.31 72.90 L 120.32 72.60 L 120.82 72.45 L 121.33 72.29 L 121.63 72.48 L 122.18 71.57 L 122.43 71.14 L 122.73 71.33 L 122.43 71.14 L 122.22 70.11 L 122.42 69.78 L 122.92 69.63 L 123.23 69.81 L 123.33 70.33 L 122.79 71.23 L 122.73 71.33 L 123.28 70.42 L 123.33 70.33 L 123.23 69.81 L 122.92 69.63 L 122.42 69.78 L 122.22 70.11 L 122.43 71.14 L 121.89 72.05 L 121.63 72.48 L 121.94 72.66 L 122.04 73.18 L 122.15 73.69 L 122.36 74.72 L 122.16 75.06 L 122.26 75.57 L 121.86 76.24 L 121.97 76.75 L 121.77 77.09 L 121.87 77.60 L 121.47 78.27 L 121.58 78.79 L 121.04 79.69 L 120.78 80.12 L 121.33 79.21 L 121.58 78.79 L 121.47 78.27 L 121.87 77.60 L 121.77 77.09 L 121.97 76.75 L 121.86 76.24 L 122.26 75.57 L 122.16 75.06 L 122.36 74.72 L 122.15 73.69 L 122.04 73.18 L 121.94 72.66 L 121.33 72.29 L 120.82 72.45 L 120.32 72.60 L 119.31 72.90 L 119.00 72.71 L 118.50 72.87 L 117.59 72.32 L 117.59 72.32 L 117.48 71.80 L 117.18 71.62 L 117.37 71.29 L 117.18 71.62 L 116.57 71.26 L 116.02 72.16 L 115.97 72.25 L 116.07 72.77 L 116.38 72.95 L 116.48 73.47 L 117.09 73.83 L 117.20 74.35 L 117.30 74.87 L 117.41 75.38 L 116.86 76.29 L 116.41 77.05 L 117.02 77.41 L 117.12 77.93 L 118.03 78.47 L 118.94 79.02 L 119.85 79.56 L 120.76 80.10 L 121.67 80.65 L 121.70 80.67 L 121.80 81.18 L 121.91 81.70 L 121.80 81.18 L 121.70 80.67 L 120.79 80.12 L 119.88 79.58 L 118.97 79.03 L 118.06 78.49 L 117.15 77.95 L 117.12 77.93 L 117.02 77.41 L 116.11 76.87 L 115.20 76.32 L 114.89 76.14 L 114.78 75.62 L 113.87 75.07 L 113.56 74.89 L 113.46 74.37 L 112.55 73.83 L 112.24 73.64 L 112.13 73.13 L 111.52 72.76 L 111.42 72.25 L 110.81 71.88 L 110.70 71.37 L 110.09 71.00 L 109.99 70.48 L 109.08 69.94 L 108.46 69.57 L 108.36 69.06 L 107.45 68.51 L 106.54 67.97 L 105.92 67.60 L 105.82 67.08 L 105.51 66.90 L 105.01 67.05 L 104.10 66.51 L 104.09 66.50 L 103.99 65.99 L 103.08 65.44 L 102.17 64.90 L 101.26 64.35 L 100.35 63.81 L 99.45 63.27 L 98.54 62.72 L 97.63 62.18 L 96.72 61.63 L 95.81 61.09 L 94.90 60.55 L 94.23 60.15 L 93.73 60.30 L 93.12 59.93 L 92.62 60.08 L 92.01 59.72 L 91.50 59.87 L 90.89 59.50 L 90.39 59.65 L 89.78 59.29 L 89.28 59.44 L 88.97 59.26 L 88.47 59.41 L 87.86 59.04 L 87.35 59.19 L 87.05 59.01 L 86.54 59.16 L 85.93 58.80 L 85.43 58.95 L 84.82 58.58 L 84.32 58.73 L 83.71 58.37 L 83.20 58.52 L 82.90 58.34 L 82.39 58.49 L 81.78 58.12 L 81.28 58.27 L 80.97 58.09 L 80.47 58.24 L 79.97 58.39 L 79.66 58.21 L 78.65 58.51 L 78.35 58.33 L 77.84 58.48 L 77.34 58.63 L 76.83 58.78 L 76.53 58.60 L 75.52 58.90 L 75.02 59.05 L 74.01 59.35 L 73.70 59.17 L 73.20 59.32 L 72.69 59.47 L 72.39 59.29 L 71.88 59.44 L 71.58 59.26 L 71.08 59.41 L 70.77 59.22 L 70.27 59.38 L 69.96 59.19 L 69.46 59.34 L 68.55 58.80 L 68.54 58.79 L 68.04 58.95 L 67.13 58.40 L 67.12 58.40 L 66.62 58.55 L 66.01 58.18 L 65.51 58.33 L 65.20 58.15 L 64.70 58.30 L 64.19 58.45 L 63.18 58.76 L 62.68 58.91 L 62.18 59.06 L 61.16 59.36 L 60.66 59.51 L 60.16 59.66 L 59.96 59.99 L 58.94 60.30 L 58.45 60.45 L 58.25 60.78 L 57.74 60.93 L 57.54 61.26 L 57.04 61.41 L 56.53 61.56 L 56.33 61.90 L 55.83 62.05 L 55.63 62.38 L 55.13 62.53 L 54.93 62.87 L 54.42 63.02 L 54.22 63.35 L 53.72 63.50 L 53.32 64.17 L 52.81 64.32 L 52.27 65.23 L 51.73 66.13 L 51.18 67.04 L 50.64 67.95 L 50.09 68.86 L 49.62 69.65 L 49.12 69.80 L 48.57 70.71 L 48.52 70.80 L 48.01 70.95 L 47.81 71.28 L 47.31 71.43 L 46.77 72.34 L 46.51 72.77 L 46.62 73.28 L 46.07 74.19 L 46.02 74.28 L 46.12 74.80 L 45.72 75.47 L 45.83 75.98 L 45.43 76.65 L 45.64 77.68 L 45.94 77.86 L 46.14 77.53 L 46.65 77.38 L 47.05 76.71 L 48.06 76.41 L 48.26 76.08 L 48.76 75.93 L 49.26 75.78 L 49.57 75.96 L 49.67 76.47 L 49.13 77.38 L 48.88 77.81 L 48.37 77.96 L 47.97 78.62 L 47.47 78.78 L 46.96 78.93 L 46.46 79.08 L 45.55 78.53 L 45.24 78.35 L 44.74 78.50 L 44.54 78.83 L 44.03 78.98 L 43.63 79.65 L 43.13 79.80 L 42.93 80.13 L 42.42 80.28 L 42.23 80.62 L 41.72 80.77 L 41.52 81.10 L 41.02 81.25 L 40.51 81.40 L 40.31 81.73 L 39.81 81.89 L 39.61 82.22 L 38.60 82.52 L 38.40 82.85 L 37.90 83.00 L 37.39 83.15 L 36.38 83.46 L 35.88 83.61 L 35.37 83.76 L 35.07 83.58 L 34.57 83.73 L 33.66 83.18 L 32.75 82.64 L 31.84 82.09 L 31.21 81.72 L 30.71 81.87 L 30.40 81.69 L 29.90 81.84 L 29.59 81.66 L 29.09 81.81 L 28.79 81.62 L 27.77 81.93 L 27.27 82.08 L 26.77 82.23 L 25.76 82.53 L 25.56 82.86 L 25.06 83.01 L 24.66 83.68 L 24.15 83.83 L 23.75 84.50 L 23.25 84.65 L 22.70 85.55 L 22.45 85.98 L 21.95 86.13 L 21.55 86.80 L 21.04 86.95 L 20.84 87.28 L 20.34 87.43 L 20.14 87.77 L 19.63 87.92 L 19.13 88.07 L 18.93 88.40 L 18.43 88.55 L 18.23 88.88 L 17.72 89.03 L 17.52 89.37 L 17.02 89.52 L 16.82 89.85 L 16.31 90.00 L 16.11 90.34 L 15.61 90.49 L 15.41 90.82 L 14.91 90.97 L 14.51 91.64 L 14.00 91.79 L 13.60 92.45 L 13.10 92.61 L 12.56 93.51 L 12.01 94.42 L 11.47 95.33 L 11.10 95.94 L 11.21 96.45 L 10.66 97.36 L 10.61 97.45 L 10.72 97.97 L 10.52 98.30 L 10.62 98.82 L 10.42 99.15 L 10.00 99.15 L 10.32 100.16 L 10.43 100.52 L 10.64 101.55 L 10.75 102.06 L 11.05 102.25 L 11.16 102.76 L 12.07 103.31 L 12.97 103.85 L 13.88 104.39 L 14.20 104.59 L 14.31 105.10 L 15.22 105.65 L 16.13 106.19 L 17.03 106.73 L 17.94 107.28 L 18.27 107.48 L 18.78 107.33 L 19.39 107.69 L 19.89 107.54 L 20.19 107.72 L 20.70 107.57 L 21.71 107.27 L 22.25 106.36 L 22.71 105.60 L 22.60 105.09 L 22.50 104.57 L 22.28 103.53 L 22.18 103.02 L 22.07 102.51 L 21.77 102.33 L 21.66 101.81 L 20.76 101.27 L 20.14 100.90 L 20.54 100.23 L 21.04 100.08 L 21.44 99.41 L 22.45 99.11 L 22.96 98.96 L 23.97 98.66 L 24.57 99.02 L 25.08 98.87 L 25.99 99.42 L 26.90 99.96 L 27.80 100.51 L 28.71 101.05 L 29.35 101.43 L 29.85 101.28 L 30.76 101.82 L 31.07 102.01 L 31.57 101.86 L 32.18 102.22 L 32.69 102.07 L 32.99 102.25 L 33.50 102.10 L 33.80 102.29 L 34.31 102.14 L 34.61 102.32 L 35.62 102.02 L 35.92 102.20 L 36.43 102.05 L 37.04 102.41 L 37.58 101.51 L 37.84 101.08 L 38.34 100.93 L 38.74 100.26 L 39.24 100.11 L 38.74 100.26 L 38.34 100.93 L 37.84 101.08 L 37.29 101.99 L 37.24 102.08 L 37.54 102.26 L 37.00 103.17 L 36.94 103.26 L 37.49 102.35 L 37.54 102.26 L 37.85 102.45 L 38.35 102.30 L 39.37 101.99 L 39.86 101.84 L 40.37 101.69 L 41.38 101.39 L 41.88 101.24 L 42.19 101.42 L 42.69 101.27 L 43.19 101.12 L 43.80 101.49 L 44.31 101.33 L 44.61 101.52 L 45.12 101.37 L 45.73 101.73 L 46.23 101.58 L 47.14 102.13 L 47.15 102.13 L 47.65 101.98 L 48.26 102.34 L 48.76 102.19 L 49.37 102.56 L 49.88 102.41 L 50.49 102.77 L 50.99 102.62 L 51.30 102.80 L 51.80 102.65 L 52.11 102.83 L 52.65 101.93 L 52.90 101.50 L 52.80 100.99 L 53.00 100.65 L 52.89 100.14 L 52.79 99.62 L 52.99 99.29 L 52.78 98.25 L 52.67 97.74 L 52.57 97.22 L 52.77 96.89 L 52.56 95.86 L 52.25 95.68 L 52.15 95.16 L 51.94 94.12 L 51.83 93.61 L 51.73 93.10 L 51.62 92.58 L 51.82 92.25 L 51.72 91.73 L 51.61 91.22 L 51.81 90.88 L 51.70 90.37 L 51.90 90.03 L 51.80 89.52 L 52.20 88.85 L 52.09 88.34 L 52.29 88.00 L 52.19 87.49 L 52.39 87.15 L 52.28 86.64 L 52.48 86.31 L 52.38 85.79 L 52.16 84.75 L 51.96 83.73 L 51.85 83.21 L 50.94 82.67 L 50.63 82.48 L 50.13 82.63 L 49.73 83.30 L 49.83 83.81 L 49.63 84.15 L 49.74 84.66 L 49.34 85.33 L 49.44 85.85 L 49.25 86.18 L 49.35 86.69 L 49.15 87.03 L 49.26 87.54 L 49.36 88.06 L 49.16 88.39 L 49.37 89.43 L 49.48 89.94 L 49.58 90.46 L 49.79 91.49 L 49.90 92.00 L 50.00 92.52 L 50.11 93.03 L 50.41 93.22 L 50.62 94.25 L 50.73 94.76 L 51.03 94.95 L 51.14 95.46 L 51.75 95.83 L 51.14 95.46 L 51.03 94.95 L 50.73 94.76 L 50.62 94.25 L 50.41 93.22 L 50.11 93.03 L 50.00 92.52 L 49.90 92.00 L 49.69 90.97 L 49.58 90.46 L 49.48 89.94 L 49.26 88.90 L 49.16 88.39 L 49.36 88.06 L 49.26 87.54 L 49.15 87.03 L 49.35 86.69 L 49.25 86.18 L 49.44 85.85 L 49.34 85.33 L 49.74 84.66 L 49.63 84.15 L 49.83 83.81 L 49.73 83.30 L 50.13 82.63 L 50.63 82.48 L 51.54 83.03 L 51.85 83.21 L 51.96 83.73 L 52.17 84.76 L 52.38 85.79 L 52.48 86.31 L 52.28 86.64 L 52.39 87.15 L 52.19 87.49 L 52.29 88.00 L 52.09 88.34 L 52.20 88.85 L 51.80 89.52 L 51.90 90.03 L 51.70 90.37 L 51.81 90.88 L 51.61 91.22 L 51.72 91.73 L 51.82 92.25 L 51.62 92.58 L 51.73 93.10 L 51.83 93.61 L 52.04 94.65 L 52.15 95.16 L 51.95 95.49 L 52.15 95.16 L 52.25 95.68 L 51.95 95.49 L 51.75 95.83 L 51.95 95.49 L 52.56 95.86 L 52.77 96.89 L 52.57 97.22 L 51.96 96.86 L 51.75 95.83 L 51.96 96.86 L 52.57 97.22 L 52.67 97.74 L 52.88 98.78 L 52.99 99.29 L 52.79 99.62 L 52.89 100.14 L 53.00 100.65 L 52.80 100.99 L 52.90 101.50 L 52.36 102.41 L 52.11 102.83 L 52.21 103.35 L 52.32 103.87 L 51.77 104.77 L 51.23 105.68 L 50.68 106.59 L 50.14 107.50 L 49.60 108.41 L 49.05 109.32 L 48.92 109.53 L 49.03 110.05 L 48.49 110.96 L 47.94 111.86 L 47.40 112.77 L 46.85 113.68 L 46.43 114.38 L 46.54 114.90 L 46.00 115.80 L 45.94 115.90 L 46.05 116.41 L 45.65 117.08 L 45.75 117.59 L 45.55 117.93 L 45.66 118.44 L 45.76 118.96 L 45.56 119.29 L 45.77 120.32 L 45.88 120.84 L 46.09 121.87 L 46.39 122.05 L 46.50 122.57 L 46.80 122.75 L 46.91 123.27 L 47.21 123.45 L 47.32 123.97 L 48.23 124.51 L 48.23 124.51 L 48.34 125.03 L 49.25 125.57 L 50.15 126.12 L 51.06 126.66 L 51.97 127.20 L 52.88 127.75 L 53.21 127.95 L 53.32 128.47 L 54.23 129.01 L 55.14 129.55 L 56.04 130.10 L 56.95 130.64 L 57.86 131.19 L 58.77 131.73 L 58.80 131.75 L 59.31 131.60 L 60.22 132.14 L 60.22 132.15 L 60.73 132.00 L 61.03 132.18 L 61.54 132.03 L 61.84 132.21 L 62.86 131.91 L 63.86 131.61 L 64.40 130.70 L 64.95 129.79 L 65.06 129.61 L 64.85 128.58 L 64.74 128.06 L 64.53 127.02 L 64.32 126.00 L 64.21 125.48 L 63.91 125.30 L 63.80 124.78 L 63.50 124.60 L 63.39 124.09 L 63.09 123.90 L 62.98 123.39 L 62.88 122.87 L 62.67 121.83 L 62.56 121.32 L 62.96 120.66 L 62.86 120.14 L 63.40 119.23 L 63.95 118.32 L 64.49 117.42 L 64.66 117.14 L 65.16 116.99 L 65.70 116.08 L 65.76 115.99 L 66.26 115.84 L 66.66 115.17 L 67.17 115.02 L 67.37 114.69 L 67.87 114.54 L 68.07 114.21 L 69.08 113.90 L 69.28 113.57 L 69.78 113.42 L 70.80 113.12 L 71.30 112.97 L 71.80 112.82 L 72.81 112.52 L 73.11 112.70 L 73.62 112.55 L 74.23 112.91 L 74.73 112.76 L 75.04 112.94 L 75.54 112.79 L 76.45 113.34 L 77.36 113.88 L 78.27 114.43 L 78.89 114.80 L 79.00 115.32 L 79.91 115.86 L 80.81 116.41 L 81.13 116.60 L 81.24 117.11 L 82.14 117.65 L 83.05 118.20 L 83.96 118.74 L 84.59 119.12 L 85.09 118.97 L 86.00 119.51 L 86.01 119.52 L 85.61 120.18 L 84.60 120.48 L 84.09 120.63 L 83.59 120.78 L 83.29 120.60 L 82.28 120.90 L 81.77 121.05 L 80.76 121.36 L 80.22 122.26 L 80.17 122.36 L 79.66 122.51 L 79.12 123.42 L 78.57 124.32 L 78.03 125.23 L 77.48 126.14 L 76.94 127.05 L 76.40 127.96 L 76.07 128.51 L 76.17 129.02 L 75.63 129.93 L 75.18 130.69 L 75.28 131.20 L 74.74 132.11 L 74.48 132.54 L 73.98 132.69 L 73.43 133.60 L 73.38 133.69 L 73.59 134.72 L 73.69 135.23 L 73.80 135.75 L 74.01 136.79 L 74.12 137.30 L 74.22 137.81 L 74.02 138.15 L 74.23 139.18 L 74.34 139.69 L 74.44 140.21 L 74.75 140.39 L 74.85 140.91 L 75.76 141.45 L 76.67 142.00 L 77.58 142.54 L 78.49 143.08 L 79.39 143.63 L 80.30 144.17 L 81.21 144.72 L 82.12 145.26 L 83.03 145.80 L 83.93 146.35 L 83.99 146.38 L 84.10 146.90 L 85.01 147.44 L 85.92 147.99 L 86.23 148.18 L 86.74 148.03 L 87.65 148.57 L 87.65 148.57 L 88.16 148.42 L 88.46 148.61 L 88.96 148.45 L 89.98 148.15 L 90.48 148.00 L 90.68 147.67 L 91.18 147.52 L 91.73 146.61 L 91.98 146.19 L 91.77 145.15 L 91.66 144.64 L 91.56 144.12 L 91.35 143.09 L 90.44 142.55 L 90.43 142.54 L 90.33 142.03 L 89.42 141.48 L 89.11 141.30 L 89.01 140.78 L 88.40 140.42 L 88.29 139.90 L 88.08 138.87 L 88.28 138.54 L 88.17 138.02 L 88.72 137.11 L 89.26 136.20 L 89.81 135.29 L 89.97 135.02 L 90.48 134.87 L 90.87 134.20 L 91.38 134.05 L 91.58 133.72 L 92.08 133.57 L 92.28 133.23 L 92.79 133.08 L 92.99 132.75 L 94.00 132.45 L 94.50 132.30 L 95.51 132.00 L 96.01 131.85 L 96.52 131.70 L 97.02 131.55 L 97.33 131.73 L 98.34 131.42 L 98.84 131.28 L 99.34 131.12 L 100.35 130.82 L 100.55 130.49 L 101.06 130.34 L 101.26 130.01 L 102.26 129.70 L 102.46 129.37 L 103.47 129.07 L 104.02 128.16 L 104.27 127.74 L 104.78 127.59 L 105.08 127.77 L 105.58 127.62 L 106.19 127.98 L 106.70 127.83 L 107.00 128.01 L 107.51 127.86 L 107.81 128.05 L 108.32 127.90 L 108.93 128.26 L 109.43 128.11 L 110.04 128.47 L 110.54 128.32 L 111.45 128.87 L 111.76 129.05 L 111.87 129.57 L 112.17 129.75 L 112.28 130.27 L 112.58 130.45 L 112.79 131.48 L 112.90 132.00 L 113.11 133.04 L 113.21 133.55 L 113.02 133.88 L 113.23 134.92 L 113.44 135.94 L 113.24 136.28 L 113.45 137.31 L 113.55 137.82 L 113.66 138.34 L 113.46 138.67 L 113.67 139.70 L 113.77 140.22 L 113.98 141.26 L 114.09 141.77 L 113.89 142.10 L 113.99 142.62 L 114.20 143.65 L 114.31 144.16 L 114.41 144.68 L 114.63 145.72 L 114.73 146.23 L 114.84 146.74 L 115.05 147.78 L 115.15 148.29 L 115.26 148.80 L 115.47 149.84 L 115.77 150.02 L 115.98 151.05 L 116.29 151.23 L 116.39 151.75 L 116.70 151.93 L 116.80 152.45 L 117.11 152.63 L 117.21 153.15 L 117.52 153.33 L 117.62 153.84 L 117.93 154.03 L 118.03 154.54 L 118.34 154.72 L 118.55 155.76 L 118.85 155.94 L 118.96 156.45 L 119.06 156.97 L 119.17 157.49 L 119.47 157.67 L 119.68 158.70 L 119.79 159.22 L 119.89 159.73 L 120.20 159.91 L 120.41 160.95 L 120.51 161.46 L 120.62 161.98 L 120.83 163.01 L 121.13 163.19 L 121.24 163.71 L 121.34 164.22 L 121.55 165.26 L 121.66 165.77 L 121.96 165.95 L 122.07 166.47 L 122.37 166.65 L 122.48 167.17 L 122.78 167.35 L 122.89 167.86 L 123.50 168.23 L 123.60 168.75 L 123.91 168.93 L 124.01 169.44 L 124.62 169.81 L 124.73 170.32 L 125.34 170.69 L 125.44 171.21 L 126.35 171.75 L 126.36 171.75 L 126.46 172.27 L 127.37 172.81 L 128.28 173.36 L 129.19 173.90 L 130.09 174.45 L 131.00 174.99 L 131.91 175.53 L 132.82 176.08 L 133.73 176.62 L 134.64 177.17 L 135.54 177.71 L 136.45 178.25 L 137.13 178.66 L 136.22 178.11 L 135.31 177.57 L 134.40 177.03 L 133.49 176.48 L 132.59 175.94 L 131.68 175.39 L 130.77 174.85 L 129.86 174.30 L 128.95 173.76 L 128.04 173.22 L 127.13 172.67 L 126.46 172.27 L 126.36 171.75 L 125.45 171.21 L 125.44 171.21 L 125.34 170.69 L 124.73 170.32 L 124.62 169.81 L 124.01 169.44 L 123.91 168.93 L 123.60 168.75 L 123.50 168.23 L 122.89 167.86 L 122.78 167.35 L 122.48 167.17 L 122.37 166.65 L 122.07 166.47 L 121.96 165.95 L 121.66 165.77 L 121.45 164.73 L 121.34 164.22 L 121.24 163.71 L 121.13 163.19 L 120.83 163.01 L 120.62 161.98 L 120.51 161.46 L 120.30 160.42 L 120.20 159.91 L 119.89 159.73 L 119.79 159.22 L 119.68 158.70 L 119.47 157.67 L 119.17 157.49 L 119.06 156.97 L 118.96 156.45 L 118.85 155.94 L 118.55 155.76 L 118.34 154.72 L 118.03 154.54 L 117.93 154.03 L 117.62 153.84 L 117.52 153.33 L 117.21 153.15 L 117.11 152.63 L 116.80 152.45 L 116.70 151.93 L 116.39 151.75 L 116.29 151.23 L 115.98 151.05 L 115.77 150.02 L 115.47 149.84 L 115.26 148.80 L 115.15 148.29 L 114.94 147.25 L 114.84 146.74 L 114.73 146.23 L 114.52 145.19 L 114.41 144.68 L 114.31 144.16 L 114.10 143.12 L 113.99 142.62 L 113.89 142.10 L 114.09 141.77 L 113.88 140.73 L 113.77 140.22 L 113.67 139.70 L 113.46 138.67 L 113.66 138.34 L 113.55 137.82 L 113.34 136.79 L 113.24 136.28 L 113.44 135.94 L 113.22 134.90 L 113.02 133.88 L 113.21 133.55 L 113.00 132.51 L 112.90 132.00 L 112.79 131.48 L 112.58 130.45 L 112.28 130.27 L 112.17 129.75 L 111.87 129.57 L 111.76 129.05 L 110.86 128.51 L 110.54 128.32 L 110.04 128.47 L 109.43 128.11 L 108.93 128.26 L 108.32 127.90 L 107.81 128.05 L 107.51 127.86 L 107.00 128.01 L 106.70 127.83 L 106.19 127.98 L 105.58 127.62 L 105.08 127.77 L 104.78 127.59 L 104.27 127.74 L 103.66 127.37 L 103.46 127.71 L 103.66 127.37 L 103.56 126.86 L 103.25 126.67 L 102.75 126.82 L 101.84 126.28 L 101.83 126.28 L 101.33 126.43 L 100.42 125.88 L 99.51 125.34 L 98.60 124.80 L 97.70 124.25 L 96.79 123.71 L 95.88 123.16 L 95.54 122.96 L 95.03 123.11 L 94.42 122.74 L 93.42 123.05 L 93.63 124.08 L 94.53 124.62 L 95.15 124.99 L 95.65 124.84 L 96.56 125.38 L 97.47 125.93 L 98.38 126.47 L 99.29 127.02 L 99.92 127.39 L 100.43 127.24 L 101.03 127.61 L 101.54 127.46 L 101.84 127.64 L 102.35 127.49 L 102.65 127.67 L 103.16 127.52 L 103.46 127.71 L 103.16 127.52 L 102.65 127.67 L 102.35 127.49 L 101.84 127.64 L 101.54 127.46 L 101.03 127.61 L 100.43 127.24 L 99.92 127.39 L 99.01 126.85 L 98.10 126.31 L 97.20 125.76 L 96.29 125.22 L 95.65 124.84 L 95.15 124.99 L 94.24 124.45 L 93.63 124.08 L 93.42 123.05 L 94.42 122.74 L 95.03 123.11 L 95.54 122.96 L 96.45 123.50 L 97.36 124.05 L 98.26 124.59 L 99.17 125.14 L 100.08 125.68 L 100.99 126.22 L 101.33 126.43 L 101.83 126.28 L 102.74 126.82 L 102.75 126.82 L 103.25 126.67 L 103.56 126.86 L 103.66 127.37 L 104.27 127.74 L 103.73 128.64 L 103.47 129.07 L 102.46 129.37 L 102.26 129.70 L 101.26 130.01 L 101.06 130.34 L 100.55 130.49 L 100.35 130.82 L 99.34 131.12 L 98.84 131.28 L 97.82 131.58 L 97.33 131.73 L 97.02 131.55 L 96.52 131.70 L 96.01 131.85 L 95.00 132.15 L 94.50 132.30 L 94.00 132.45 L 92.99 132.75 L 92.79 133.08 L 92.28 133.23 L 92.08 133.57 L 91.58 133.72 L 91.38 134.05 L 90.87 134.20 L 90.48 134.87 L 89.97 135.02 L 89.43 135.93 L 88.88 136.84 L 88.34 137.75 L 88.17 138.02 L 88.28 138.54 L 88.08 138.87 L 88.29 139.90 L 88.40 140.42 L 89.01 140.78 L 89.11 141.30 L 90.02 141.84 L 90.33 142.03 L 90.43 142.54 L 91.34 143.09 L 91.35 143.09 L 91.56 144.12 L 91.66 144.64 L 91.88 145.68 L 91.98 146.19 L 91.44 147.09 L 91.18 147.52 L 90.68 147.67 L 90.48 148.00 L 89.46 148.31 L 88.96 148.45 L 88.46 148.61 L 88.16 148.42 L 87.65 148.57 L 86.74 148.03 L 86.74 148.03 L 86.23 148.18 L 85.32 147.63 L 84.42 147.09 L 84.10 146.90 L 83.99 146.38 L 83.09 145.84 L 82.18 145.30 L 81.27 144.75 L 80.36 144.21 L 79.45 143.66 L 78.54 143.12 L 77.64 142.57 L 76.73 142.03 L 75.82 141.49 L 74.91 140.94 L 74.85 140.91 L 74.75 140.39 L 74.44 140.21 L 74.34 139.69 L 74.12 138.66 L 74.02 138.15 L 74.22 137.81 L 74.12 137.30 L 73.90 136.26 L 73.80 135.75 L 73.69 135.23 L 73.48 134.20 L 73.38 133.69 L 73.92 132.78 L 73.98 132.69 L 74.48 132.54 L 75.03 131.63 L 75.28 131.20 L 75.18 130.69 L 75.72 129.78 L 76.17 129.02 L 76.07 128.51 L 76.61 127.60 L 77.16 126.69 L 77.70 125.78 L 78.24 124.87 L 78.79 123.96 L 79.33 123.06 L 79.66 122.51 L 80.17 122.36 L 80.71 121.45 L 80.76 121.36 L 81.77 121.05 L 82.28 120.90 L 83.29 120.60 L 83.59 120.78 L 84.09 120.63 L 84.60 120.48 L 85.61 120.18 L 86.01 119.52 L 86.62 119.88 L 85.71 119.34 L 85.09 118.97 L 84.59 119.12 L 83.68 118.57 L 82.77 118.03 L 81.86 117.49 L 81.24 117.11 L 81.13 116.60 L 80.22 116.05 L 79.31 115.51 L 79.00 115.32 L 78.89 114.80 L 77.98 114.26 L 77.08 113.71 L 76.17 113.17 L 75.54 112.79 L 75.04 112.94 L 74.73 112.76 L 74.23 112.91 L 73.62 112.55 L 73.11 112.70 L 72.81 112.52 L 71.80 112.82 L 71.30 112.97 L 70.28 113.27 L 69.78 113.42 L 69.28 113.57 L 69.08 113.90 L 68.07 114.21 L 67.87 114.54 L 67.37 114.69 L 67.17 115.02 L 66.66 115.17 L 66.26 115.84 L 65.76 115.99 L 65.21 116.90 L 65.16 116.99 L 64.66 117.14 L 64.11 118.05 L 63.57 118.96 L 63.02 119.87 L 62.86 120.14 L 62.96 120.66 L 62.56 121.32 L 62.78 122.36 L 62.88 122.87 L 62.98 123.39 L 63.09 123.90 L 63.39 124.09 L 63.50 124.60 L 63.80 124.78 L 63.91 125.30 L 64.21 125.48 L 64.32 126.00 L 64.53 127.03 L 64.74 128.06 L 64.85 128.58 L 65.06 129.61 L 64.51 130.52 L 63.97 131.42 L 63.86 131.61 L 62.84 131.91 L 61.84 132.21 L 61.54 132.03 L 61.03 132.18 L 60.73 132.00 L 60.22 132.15 L 59.31 131.60 L 59.31 131.60 L 58.80 131.75 L 57.90 131.21 L 56.99 130.66 L 56.08 130.12 L 55.17 129.57 L 54.26 129.03 L 53.35 128.49 L 53.32 128.47 L 53.21 127.95 L 52.30 127.41 L 51.40 126.86 L 50.49 126.32 L 49.58 125.77 L 48.67 125.23 L 48.34 125.03 L 48.23 124.51 L 47.32 123.97 L 47.32 123.97 L 47.21 123.45 L 46.91 123.27 L 46.80 122.75 L 46.50 122.57 L 46.39 122.05 L 46.09 121.87 L 45.88 120.84 L 45.77 120.32 L 45.56 119.29 L 45.76 118.96 L 45.66 118.44 L 45.55 117.93 L 45.75 117.59 L 45.65 117.08 L 46.05 116.41 L 45.94 115.90 L 46.48 114.99 L 46.54 114.90 L 46.43 114.38 L 46.98 113.47 L 47.52 112.56 L 48.07 111.65 L 48.61 110.75 L 49.03 110.05 L 48.92 109.53 L 49.47 108.62 L 50.01 107.72 L 50.56 106.81 L 51.10 105.90 L 51.64 104.99 L 52.19 104.08 L 52.32 103.87 L 52.21 103.35 L 52.11 102.83 L 51.80 102.65 L 51.30 102.80 L 50.99 102.62 L 50.49 102.77 L 49.88 102.41 L 49.37 102.56 L 48.76 102.19 L 48.26 102.34 L 47.65 101.98 L 47.15 102.13 L 46.24 101.58 L 46.23 101.58 L 45.73 101.73 L 45.12 101.37 L 44.61 101.52 L 44.31 101.33 L 43.80 101.49 L 43.19 101.12 L 42.69 101.27 L 42.19 101.42 L 41.88 101.24 L 40.87 101.54 L 40.37 101.69 L 39.86 101.84 L 38.85 102.15 L 38.35 102.30 L 37.85 102.45 L 37.24 102.08 L 37.04 102.41 L 37.34 102.60 L 36.43 102.05 L 36.43 102.05 L 35.92 102.20 L 35.62 102.02 L 34.61 102.32 L 34.31 102.14 L 33.80 102.29 L 33.50 102.10 L 32.99 102.25 L 32.69 102.07 L 32.18 102.22 L 31.57 101.86 L 31.07 102.01 L 30.16 101.46 L 29.85 101.28 L 29.35 101.43 L 28.44 100.89 L 27.53 100.34 L 26.62 99.80 L 25.71 99.25 L 25.08 98.87 L 24.57 99.02 L 23.97 98.66 L 22.96 98.96 L 22.45 99.11 L 21.44 99.41 L 21.04 100.08 L 20.54 100.23 L 20.14 100.90 L 19.64 101.05 L 19.03 100.68 L 19.33 100.87 L 18.93 101.53 L 18.43 101.68 L 17.82 101.32 L 17.71 100.80 L 18.22 100.65 L 18.72 100.50 L 19.03 100.68 L 18.72 100.50 L 18.22 100.65 L 17.71 100.80 L 17.82 101.32 L 18.43 101.68 L 18.93 101.53 L 19.33 100.87 L 19.64 101.05 L 20.14 100.90 L 21.05 101.44 L 21.66 101.81 L 21.77 102.33 L 22.07 102.51 L 22.18 103.02 L 22.39 104.06 L 22.50 104.57 L 22.60 105.09 L 22.71 105.60 L 22.16 106.51 L 21.71 107.27 L 20.70 107.57 L 20.19 107.72 L 19.89 107.54 L 19.39 107.69 L 18.78 107.33 L 18.27 107.48 L 17.36 106.93 L 16.45 106.39 L 15.55 105.84 L 14.64 105.30 L 14.31 105.10 L 14.20 104.59 L 13.30 104.04 L 12.39 103.50 L 11.48 102.96 L 11.16 102.76 L 11.05 102.25 L 10.75 102.06 L 10.64 101.55 L 10.43 100.52 L 10.00 100.52 L 10.31 99.51 L 10.42 99.15 L 10.62 98.82 L 10.52 98.30 L 10.72 97.97 L 10.61 97.45 L 11.15 96.54 L 11.21 96.45 L 11.10 95.94 L 11.65 95.03 L 12.19 94.12 L 12.73 93.21 L 13.10 92.61 L 13.60 92.45 L 14.00 91.79 L 14.51 91.64 L 14.91 90.97 L 15.41 90.82 L 15.61 90.49 L 16.11 90.34 L 16.31 90.00 L 16.82 89.85 L 17.02 89.52 L 17.52 89.37 L 17.72 89.03 L 18.23 88.88 L 18.43 88.55 L 18.93 88.40 L 19.13 88.07 L 19.63 87.92 L 20.14 87.77 L 20.34 87.43 L 20.84 87.28 L 21.04 86.95 L 21.55 86.80 L 21.95 86.13 L 22.45 85.98 L 22.99 85.07 L 23.25 84.65 L 23.75 84.50 L 24.15 83.83 L 24.66 83.68 L 25.06 83.01 L 25.56 82.86 L 25.76 82.53 L 26.77 82.23 L 27.27 82.08 L 28.29 81.77 L 28.79 81.62 L 29.09 81.81 L 29.59 81.66 L 29.90 81.84 L 30.40 81.69 L 30.71 81.87 L 31.21 81.72 L 32.12 82.26 L 33.03 82.81 L 33.94 83.35 L 34.57 83.73 L 35.07 83.58 L 35.37 83.76 L 35.88 83.61 L 36.89 83.30 L 37.39 83.15 L 37.90 83.00 L 38.40 82.85 L 38.60 82.52 L 39.61 82.22 L 39.81 81.89 L 40.31 81.73 L 40.51 81.40 L 41.02 81.25 L 41.52 81.10 L 41.72 80.77 L 42.23 80.62 L 42.42 80.28 L 42.93 80.13 L 43.13 79.80 L 43.63 79.65 L 44.03 78.98 L 44.54 78.83 L 44.74 78.50 L 45.24 78.35 L 46.15 78.89 L 46.46 79.08 L 46.96 78.93 L 47.47 78.78 L 47.97 78.62 L 48.37 77.96 L 48.88 77.81 L 49.42 76.90 L 49.67 76.47 L 49.57 75.96 L 50.11 75.05 L 50.17 74.96 L 50.67 74.81 L 51.22 73.90 L 51.76 72.99 L 52.07 72.47 L 52.57 72.32 L 52.88 72.51 L 53.42 71.60 L 53.68 71.17 L 54.18 71.02 L 54.73 70.11 L 55.27 69.21 L 55.81 68.30 L 56.36 67.39 L 56.78 66.69 L 57.78 66.39 L 58.09 66.57 L 58.59 66.42 L 58.70 66.94 L 58.15 67.84 L 57.70 68.60 L 57.20 68.75 L 56.80 69.42 L 56.29 69.57 L 56.09 69.90 L 55.59 70.05 L 55.08 70.20 L 55.59 70.05 L 56.09 69.90 L 56.29 69.57 L 56.80 69.42 L 57.20 68.75 L 57.70 68.60 L 58.25 67.69 L 58.70 66.94 L 58.59 66.42 L 58.09 66.57 L 58.39 66.75 L 57.78 66.39 L 56.78 66.69 L 56.23 67.60 L 55.69 68.51 L 55.14 69.42 L 54.98 69.69 L 55.28 69.87 L 54.98 69.69 L 54.78 70.02 L 55.08 70.20 L 54.78 70.02 L 54.24 70.93 L 54.18 71.02 L 53.68 71.17 L 53.13 72.08 L 52.59 72.99 L 52.48 73.17 L 51.97 73.32 L 52.48 73.17 L 52.88 72.51 L 52.57 72.32 L 52.07 72.47 L 51.67 73.14 L 51.97 73.32 L 51.67 73.14 L 51.13 74.05 L 50.67 74.81 L 50.17 74.96 L 49.62 75.87 L 49.57 75.96 L 49.26 75.78 L 48.76 75.93 L 48.26 76.08 L 48.06 76.41 L 47.05 76.71 L 46.65 77.38 L 46.14 77.53 L 45.94 77.86 L 45.64 77.68 L 45.24 78.35 L 44.74 78.50 L 44.54 78.83 L 44.03 78.98 L 43.63 79.65 L 43.13 79.80 L 42.93 80.13 L 42.42 80.28 L 42.23 80.62 L 41.72 80.77 L 41.52 81.10 L 41.02 81.25 L 40.51 81.40 L 40.31 81.73 L 39.81 81.89 L 39.61 82.22 L 38.60 82.52 L 38.40 82.85 L 37.90 83.00 L 37.39 83.15 L 36.38 83.46 L 35.88 83.61 L 35.37 83.76 L 35.07 83.58 L 34.57 83.73 L 33.66 83.18 L 32.75 82.64 L 31.84 82.09 L 31.21 81.72 L 30.71 81.87 L 30.40 81.69 L 29.90 81.84 L 29.59 81.66 L 29.09 81.81 L 28.79 81.62 L 27.77 81.93 L 27.27 82.08 L 26.77 82.23 L 25.76 82.53 L 25.56 82.86 L 25.06 83.01 L 24.66 83.68 L 24.15 83.83 L 23.75 84.50 L 23.25 84.65 L 22.70 85.55 L 22.45 85.98 L 21.95 86.13 L 21.55 86.80 L 21.04 86.95 L 20.84 87.28 L 20.34 87.43 L 20.14 87.77 L 19.63 87.92 L 19.13 88.07 L 18.93 88.40 L 18.43 88.55 L 18.23 88.88 L 17.72 89.03 L 17.52 89.37 L 17.02 89.52 L 16.82 89.85 L 16.31 90.00 L 16.11 90.34 L 15.61 90.49 L 15.41 90.82 L 14.91 90.97 L 14.51 91.64 L 14.00 91.79 L 13.60 92.45 L 13.10 92.61 L 12.56 93.51 L 12.01 94.42 L 11.47 95.33 L 11.10 95.94 L 11.21 96.45 L 10.66 97.36 L 10.61 97.45 L 10.72 97.97 L 10.52 98.30 L 10.62 98.82 L 10.42 99.15" 
          fill="none" 
          stroke="currentColor" 
          stroke-width="0.5"/>
</svg>