<?xml version="1.0" encoding="UTF-8" standalone="no"?>
<svg width="100%" height="100%" viewBox="0 0 200 200" preserveAspectRatio="xMidYMid meet" xmlns="http://www.w3.org/2000/svg">
    <path d="M 100.00 100.00 L 99.99 91.14 L 100.03 91.01 L 100.05 92.13 L 100.05 93.85 L 100.05 94.00 L 100.05 95.22 L 100.05 95.90 L 100.05 97.82 L 100.05 100.98 L 100.05 104.03 L 100.05 105.48 L 100.05 107.38 L 100.05 108.39 L 100.05 111.25 L 100.05 114.22 L 100.05 115.79 L 100.05 117.13 L 100.05 118.98 L 100.05 121.19 L 100.05 123.29 L 100.05 124.74 L 100.05 126.32 L 100.05 128.34 L 100.04 130.13 L 100.05 131.57 L 100.05 133.93 L 100.05 135.82 L 100.04 137.31 L 100.05 139.02 L 100.04 140.82 L 100.05 142.28 L 100.05 143.51 L 100.04 144.63 L 100.05 145.62 L 100.05 147.22 L 100.05 148.47 L 100.58 148.30 L 100.59 147.22 L 100.59 145.62 L 100.58 144.64 L 100.59 143.51 L 100.59 142.28 L 100.59 140.82 L 100.59 139.03 L 100.59 137.31 L 100.59 135.82 L 100.59 133.93 L 100.59 131.58 L 100.59 130.14 L 100.59 128.33 L 100.59 126.33 L 100.59 124.73 L 100.59 123.29 L 100.59 121.19 L 100.59 118.98 L 100.59 117.13 L 100.59 115.79 L 100.59 114.22 L 100.59 111.25 L 100.59 108.39 L 100.59 107.38 L 100.59 105.48 L 100.59 104.03 L 100.59 100.98 L 100.59 97.82 L 100.59 95.90 L 100.59 95.22 L 100.59 94.00 L 100.59 93.85 L 100.59 92.13 L 100.59 91.23 L 100.59 91.02 L 101.13 90.94 L 101.12 91.23 L 101.12 92.13 L 101.12 93.86 L 101.13 93.99 L 101.12 95.23 L 101.12 95.90 L 101.13 97.82 L 101.13 100.98 L 101.12 104.03 L 101.12 105.47 L 101.13 107.38 L 101.12 108.38 L 101.13 111.25 L 101.13 114.22 L 101.12 115.79 L 101.12 117.13 L 101.12 118.98 L 101.13 121.18 L 101.13 123.29 L 101.12 124.73 L 101.12 126.33 L 101.13 128.34 L 101.12 130.13 L 101.12 131.57 L 101.12 133.93 L 101.12 135.82 L 101.12 137.32 L 101.12 139.03 L 101.13 140.82 L 101.12 142.29 L 101.13 143.51 L 101.12 144.63 L 101.13 145.62 L 101.12 147.22 L 101.12 147.66 L 101.20 147.50 L 101.67 146.55 L 101.67 145.62 L 101.67 144.64 L 101.67 143.51 L 101.67 142.29 L 101.67 140.82 L 101.67 139.02 L 101.66 137.31 L 101.67 135.82 L 101.67 133.93 L 101.67 131.57 L 101.67 130.13 L 101.66 128.34 L 101.67 126.33 L 101.67 124.74 L 101.67 123.29 L 101.67 121.18 L 101.67 118.98 L 101.67 117.13 L 101.67 115.79 L 101.67 114.21 L 101.67 111.25 L 101.67 108.39 L 101.67 107.38 L 101.67 105.48 L 101.67 104.03 L 101.67 100.98 L 101.67 97.82 L 101.67 95.90 L 101.67 95.22 L 101.67 94.00 L 101.67 93.85 L 101.67 92.13 L 101.67 91.24 L 101.67 90.82 L 102.22 90.63 L 102.21 91.25 L 102.21 92.13 L 102.21 93.85 L 102.21 93.99 L 102.21 95.22 L 102.21 95.90 L 102.21 97.82 L 102.20 100.98 L 102.21 104.03 L 102.21 105.48 L 102.21 107.38 L 102.21 108.39 L 102.21 111.25 L 102.21 114.21 L 102.21 115.79 L 102.21 117.13 L 102.21 118.98 L 102.21 121.18 L 102.21 123.29 L 102.21 124.73 L 102.21 126.32 L 102.21 128.34 L 102.21 130.13 L 102.21 131.58 L 102.20 133.93 L 102.21 135.82 L 102.21 137.31 L 102.21 139.02 L 102.21 140.82 L 102.20 142.28 L 102.21 143.51 L 102.21 144.91 L 102.75 142.66 L 102.75 142.28 L 102.75 140.82 L 102.75 139.03 L 102.75 137.31 L 102.75 135.82 L 102.75 133.94 L 102.75 131.57 L 102.75 130.13 L 102.75 128.33 L 102.75 126.33 L 102.75 124.73 L 102.75 123.29 L 102.75 121.18 L 102.75 118.98 L 102.75 117.12 L 102.75 115.79 L 102.75 114.22 L 102.75 111.25 L 102.75 108.39 L 102.75 107.38 L 102.75 105.48 L 102.75 104.03 L 102.75 100.98 L 102.75 97.82 L 102.75 95.90 L 102.75 95.23 L 102.74 94.00 L 102.75 93.85 L 102.75 90.98 L 103.29 94.03 L 103.29 95.23 L 103.29 95.90 L 103.28 97.82 L 103.29 100.98 L 103.29 104.03 L 103.29 105.48 L 103.29 107.38 L 103.29 108.39 L 103.29 111.25 L 103.29 114.21 L 103.29 115.79 L 103.29 117.13 L 103.29 118.98 L 103.29 121.18 L 103.29 123.29 L 103.29 124.74 L 103.29 126.33 L 103.29 128.34 L 103.29 130.13 L 103.29 131.57 L 103.29 133.93 L 103.29 135.82 L 103.29 137.31 L 103.29 139.03 L 103.29 139.62 L 103.78 135.75 L 103.83 135.38 L 103.83 133.93 L 103.83 131.58 L 103.83 130.13 L 103.83 128.34 L 103.83 126.33 L 103.83 124.73 L 103.83 123.29 L 103.83 121.18 L 103.83 118.98 L 103.83 117.13 L 103.83 115.79 L 103.83 114.22 L 103.83 111.25 L 103.83 108.38 L 103.83 107.38 L 103.83 105.47 L 103.83 104.03 L 103.83 100.98 L 103.83 99.02 L 104.37 104.01 L 104.37 105.47 L 104.37 107.38 L 104.37 108.39 L 104.37 111.25 L 104.37 114.21 L 104.37 115.79 L 104.37 117.13 L 104.37 118.98 L 104.37 121.18 L 104.37 123.29 L 104.37 124.74 L 104.37 126.33 L 104.37 129.03 L 104.57 124.65 L 104.66 121.32 L 104.61 118.68 L 105.04 118.65 L 106.68 118.52 L 109.45 118.40 L 112.25 118.39 L 115.65 118.53 L 119.10 118.87 L 123.78 119.61 L 126.76 120.26 L 131.62 121.64 L 135.99 123.24 L 139.81 124.94 L 142.41 126.28 L 144.82 127.62 L 148.47 129.95 L 151.99 132.53 L 154.15 134.31 L 156.39 136.31 L 157.56 137.46 L 158.26 134.87 L 157.14 137.03 L 157.39 137.92 L 157.03 138.66 L 156.39 136.31 L 158.36 132.47 L 158.17 130.70 L 155.64 135.62 L 156.65 139.31 L 156.25 139.90 L 154.89 134.95 L 157.83 129.23 L 157.44 127.94 L 154.15 134.31 L 155.84 140.43 L 155.41 140.92 L 153.42 133.70 L 156.98 126.79 L 156.50 125.73 L 152.70 133.10 L 154.98 141.38 L 154.53 141.79 L 151.99 132.53 L 155.99 124.75 L 155.47 123.84 L 151.27 131.97 L 154.08 142.18 L 153.62 142.54 L 150.57 131.44 L 154.92 122.99 L 154.36 122.18 L 149.87 130.93 L 153.15 142.88 L 152.68 143.19 L 149.17 130.43 L 153.81 121.42 L 153.24 120.70 L 148.47 129.95 L 152.20 143.48 L 151.71 143.75 L 147.78 129.49 L 152.67 120.01 L 152.09 119.36 L 147.10 129.03 L 151.22 144.00 L 150.72 144.24 L 146.43 128.61 L 151.50 118.73 L 150.92 118.13 L 145.75 128.18 L 150.23 144.46 L 149.72 144.66 L 145.08 127.77 L 150.33 117.56 L 149.74 117.00 L 144.40 127.38 L 149.21 144.84 L 148.70 145.01 L 143.74 127.00 L 149.15 116.47 L 148.56 115.96 L 143.08 126.63 L 148.18 145.17 L 147.66 145.31 L 142.42 126.27 L 147.98 115.47 L 147.38 115.00 L 141.76 125.92 L 147.14 145.44 L 146.62 145.59 L 141.11 125.58 L 146.80 114.54 L 146.20 114.10 L 140.46 125.26 L 146.08 145.67 L 145.55 145.79 L 139.81 124.94 L 145.61 113.68 L 145.02 113.26 L 139.17 124.63 L 145.01 145.85 L 144.47 145.93 L 138.52 124.34 L 144.43 112.87 L 143.84 112.49 L 137.89 124.05 L 143.93 145.99 L 143.38 146.03 L 137.25 123.77 L 143.25 112.12 L 142.66 111.76 L 136.62 123.50 L 142.83 146.08 L 142.28 146.11 L 135.99 123.24 L 142.07 111.42 L 141.48 111.08 L 135.36 122.99 L 141.72 146.13 L 141.17 146.14 L 134.73 122.75 L 140.90 110.77 L 140.31 110.45 L 134.10 122.51 L 140.60 146.14 L 140.05 146.13 L 133.48 122.28 L 139.73 110.16 L 139.14 109.86 L 132.86 122.06 L 139.48 146.11 L 138.91 146.09 L 132.24 121.85 L 138.55 109.59 L 137.99 109.29 L 131.62 121.64 L 138.35 146.05 L 137.77 146.00 L 131.01 121.45 L 137.39 109.06 L 136.80 108.81 L 130.40 121.26 L 137.20 145.94 L 136.62 145.88 L 129.79 121.08 L 136.22 108.57 L 135.67 108.29 L 129.18 120.90 L 136.03 145.80 L 135.45 145.72 L 128.57 120.73 L 135.06 108.12 L 134.48 107.91 L 127.97 120.57 L 134.86 145.62 L 134.28 145.53 L 127.36 120.41 L 133.85 107.82 L 133.09 107.97 L 126.76 120.26 L 133.69 145.41 L 133.09 145.28 L 126.16 120.12 L 132.34 108.11 L 131.61 108.24 L 125.57 119.99 L 132.50 145.16 L 131.90 145.01 L 124.97 119.86 L 130.88 108.36 L 130.17 108.47 L 124.37 119.73 L 131.30 144.86 L 130.69 144.70 L 123.78 119.61 L 129.47 108.57 L 128.77 108.66 L 123.19 119.49 L 130.09 144.53 L 129.48 144.35 L 122.60 119.39 L 128.08 108.75 L 127.41 108.82 L 122.02 119.29 L 128.86 144.16 L 128.25 143.96 L 121.43 119.19 L 126.73 108.89 L 126.07 108.95 L 120.84 119.10 L 127.63 143.75 L 127.01 143.52 L 120.26 119.02 L 125.42 109.00 L 124.77 109.04 L 119.68 118.94 L 126.38 143.29 L 125.75 143.04 L 119.10 118.87 L 124.13 109.08 L 123.50 109.11 L 118.52 118.80 L 125.13 142.79 L 124.49 142.52 L 117.94 118.73 L 122.89 109.14 L 122.27 109.16 L 117.37 118.68 L 123.85 142.23 L 123.21 141.94 L 116.79 118.62 L 121.66 109.17 L 121.06 109.17 L 116.22 118.58 L 122.56 141.63 L 121.91 141.30 L 115.65 118.53 L 120.47 109.17 L 119.89 109.16 L 115.08 118.50 L 121.26 140.96 L 120.60 140.61 L 114.51 118.46 L 119.32 109.13 L 118.75 109.11 L 113.94 118.44 L 119.94 140.24 L 119.28 139.85 L 113.37 118.42 L 118.19 109.07 L 117.64 109.02 L 112.81 118.40 L 118.61 139.46 L 117.93 139.05 L 112.25 118.39 L 117.09 108.97 L 116.56 108.91 L 111.68 118.38 L 117.24 138.59 L 116.56 138.12 L 111.12 118.38 L 116.03 108.84 L 115.51 108.77 L 110.57 118.38 L 115.86 137.63 L 115.16 137.11 L 110.01 118.39 L 115.00 108.70 L 114.49 108.61 L 109.45 118.40 L 114.45 136.56 L 113.73 135.99 L 108.89 118.41 L 113.99 108.52 L 113.50 108.41 L 108.34 118.43 L 113.00 135.37 L 112.26 134.72 L 107.78 118.46 L 113.01 108.30 L 112.54 108.19 L 107.23 118.49 L 111.51 134.02 L 110.74 133.26 L 106.68 118.52 L 112.07 108.06 L 111.61 107.93 L 106.13 118.56 L 109.95 132.43 L 109.14 131.52 L 105.59 118.61 L 111.16 107.79 L 110.72 107.63 L 105.04 118.65 L 108.30 130.50 L 107.41 129.31 L 104.49 118.71 L 110.11 107.80 L 109.47 108.16 L 104.54 117.74 L 104.54 116.88 L 108.82 108.58 L 108.11 109.07 L 104.54 116.01 L 104.55 114.82 L 107.01 110.02 L 105.54 111.72 L 104.56 113.62 L 104.56 120.98 L 106.40 127.66 L 105.27 125.59 L 104.52 122.44 L 104.63 121.06 L 104.61 120.16 L 104.64 118.77 L 104.62 117.15 L 104.62 113.75 L 104.62 111.07 L 104.53 108.19 L 104.51 105.30 L 104.46 103.84 L 104.26 102.30 L 104.09 100.36 L 104.00 99.94 L 105.07 99.23 L 106.47 98.29 L 108.85 96.77 L 110.80 95.58 L 112.77 94.43 L 114.78 93.30 L 116.83 92.20 L 118.90 91.13 L 121.02 90.09 L 123.72 88.84 L 125.92 87.87 L 128.16 86.94 L 130.44 86.05 L 132.77 85.19 L 135.14 84.36 L 137.56 83.58 L 140.03 82.84 L 142.53 82.13 L 144.45 81.63 L 147.05 81.01 L 149.71 80.43 L 152.43 79.90 L 154.51 79.54 L 157.33 79.11 L 160.23 78.73 L 163.95 78.34 L 167.02 78.11 L 170.16 77.95 L 173.42 77.87 L 176.03 77.85 L 176.20 77.87 L 176.00 76.88 L 175.91 77.86 L 176.23 78.14 L 176.27 78.87 L 175.08 77.86 L 175.32 75.24 L 174.59 74.18 L 174.24 77.86 L 176.25 79.56 L 176.17 80.20 L 173.42 77.87 L 173.84 73.37 L 173.08 72.73 L 172.59 77.88 L 176.06 80.81 L 175.91 81.41 L 171.78 77.90 L 172.32 72.18 L 171.55 71.73 L 170.97 77.92 L 175.74 81.97 L 175.55 82.51 L 170.16 77.95 L 170.79 71.33 L 170.03 70.99 L 169.37 77.98 L 175.34 83.03 L 175.11 83.55 L 168.58 78.02 L 169.27 70.69 L 168.51 70.43 L 167.80 78.06 L 174.87 84.05 L 174.60 84.54 L 167.02 78.11 L 167.75 70.21 L 167.01 70.01 L 166.24 78.16 L 174.33 85.01 L 174.04 85.48 L 165.47 78.22 L 166.26 69.83 L 165.51 69.68 L 164.71 78.28 L 173.74 85.93 L 173.43 86.37 L 163.95 78.34 L 164.77 69.55 L 164.03 69.43 L 163.19 78.41 L 173.11 86.81 L 172.78 87.24 L 162.45 78.48 L 163.30 69.34 L 162.57 69.26 L 161.70 78.56 L 172.45 87.67 L 172.10 88.08 L 160.96 78.64 L 161.85 69.20 L 161.13 69.14 L 160.23 78.73 L 171.75 88.49 L 171.40 88.90 L 159.49 78.81 L 160.40 69.11 L 159.69 69.08 L 158.77 78.91 L 171.03 89.29 L 170.65 89.68 L 158.05 79.01 L 158.98 69.07 L 158.27 69.07 L 157.33 79.11 L 170.27 90.07 L 169.88 90.45 L 156.62 79.21 L 157.57 69.07 L 156.87 69.09 L 155.91 79.31 L 169.49 90.82 L 169.09 91.19 L 155.21 79.43 L 156.17 69.12 L 155.48 69.15 L 154.51 79.54 L 168.69 91.56 L 168.28 91.92 L 153.81 79.66 L 154.79 69.19 L 154.10 69.24 L 153.12 79.78 L 167.86 92.28 L 167.45 92.63 L 152.43 79.90 L 153.42 69.30 L 152.74 69.37 L 151.75 80.03 L 167.03 92.98 L 166.60 93.32 L 151.06 80.16 L 152.07 69.44 L 151.39 69.52 L 150.38 80.30 L 166.16 93.66 L 165.72 94.00 L 149.71 80.43 L 150.72 69.60 L 150.06 69.69 L 149.04 80.57 L 165.28 94.33 L 164.83 94.66 L 148.37 80.71 L 149.40 69.80 L 148.74 69.90 L 147.71 80.86 L 164.38 94.99 L 163.93 95.31 L 147.05 81.01 L 148.09 70.01 L 147.43 70.12 L 146.40 81.16 L 163.46 95.63 L 163.00 95.94 L 145.74 81.32 L 146.78 70.24 L 146.14 70.36 L 145.10 81.47 L 162.54 96.25 L 162.06 96.56 L 144.45 81.63 L 145.49 70.49 L 144.85 70.63 L 143.81 81.80 L 161.59 96.86 L 161.11 97.16 L 143.17 81.96 L 144.21 70.77 L 143.58 70.91 L 142.53 82.13 L 160.62 97.46 L 160.13 97.76 L 141.90 82.30 L 142.95 71.06 L 142.32 71.22 L 141.27 82.48 L 159.64 98.05 L 159.14 98.34 L 140.64 82.66 L 141.70 71.37 L 141.08 71.53 L 140.03 82.84 L 158.65 98.62 L 158.15 98.90 L 139.40 83.02 L 140.46 71.70 L 139.84 71.87 L 138.78 83.20 L 157.64 99.18 L 157.13 99.46 L 138.17 83.39 L 139.23 72.05 L 138.62 72.22 L 137.56 83.58 L 156.62 99.73 L 156.10 100.00 L 136.95 83.77 L 138.01 72.41 L 137.41 72.59 L 136.35 83.97 L 155.57 100.27 L 155.05 100.53 L 135.75 84.17 L 136.81 72.79 L 136.21 72.98 L 135.14 84.36 L 154.53 100.79 L 153.99 101.05 L 134.55 84.57 L 135.62 73.18 L 135.02 73.38 L 133.96 84.77 L 153.46 101.31 L 152.92 101.55 L 133.36 84.98 L 134.43 73.58 L 133.84 73.79 L 132.77 85.19 L 152.38 101.80 L 151.84 102.05 L 132.19 85.40 L 133.26 74.01 L 132.67 74.23 L 131.60 85.61 L 151.28 102.29 L 150.73 102.53 L 131.03 85.83 L 132.09 74.45 L 131.51 74.67 L 130.44 86.05 L 150.17 102.77 L 149.62 103.00 L 129.87 86.27 L 130.94 74.90 L 130.36 75.14 L 129.30 86.49 L 149.05 103.23 L 148.49 103.46 L 128.73 86.72 L 129.79 75.37 L 129.23 75.60 L 128.16 86.94 L 147.91 103.68 L 147.34 103.90 L 127.60 87.17 L 128.66 75.85 L 128.10 76.09 L 127.04 87.41 L 146.76 104.12 L 146.17 104.33 L 126.48 87.64 L 127.53 76.35 L 126.98 76.60 L 125.92 87.87 L 145.59 104.54 L 145.00 104.75 L 125.37 88.11 L 126.43 76.86 L 125.87 77.12 L 124.82 88.35 L 144.41 104.95 L 143.81 105.16 L 124.27 88.60 L 125.32 77.38 L 124.77 77.66 L 123.72 88.84 L 143.20 105.35 L 142.60 105.55 L 123.17 89.09 L 124.22 77.93 L 123.67 78.21 L 122.63 89.34 L 141.99 105.74 L 141.37 105.93 L 122.10 89.59 L 123.14 78.49 L 122.59 78.78 L 121.56 89.84 L 140.76 106.11 L 140.14 106.29 L 121.02 90.09 L 122.05 79.07 L 121.51 79.37 L 120.49 90.35 L 139.51 106.47 L 138.88 106.64 L 119.96 90.61 L 120.98 79.67 L 120.45 79.97 L 119.43 90.87 L 138.23 106.80 L 137.59 106.97 L 118.90 91.13 L 119.92 80.28 L 119.39 80.60 L 118.38 91.39 L 136.95 107.13 L 136.29 107.29 L 117.86 91.66 L 118.87 80.91 L 118.34 81.24 L 117.34 91.93 L 135.64 107.44 L 134.98 107.58 L 116.83 92.20 L 117.82 81.57 L 117.30 81.91 L 116.31 92.47 L 134.31 107.72 L 133.64 107.86 L 115.80 92.74 L 116.78 82.25 L 116.26 82.60 L 115.29 93.02 L 132.96 107.99 L 132.27 108.12 L 114.78 93.30 L 115.75 82.96 L 115.24 83.32 L 114.27 93.58 L 131.58 108.24 L 130.88 108.36 L 113.77 93.86 L 114.72 83.69 L 114.21 84.07 L 113.27 94.14 L 130.17 108.46 L 129.46 108.57 L 112.77 94.43 L 113.70 84.46 L 113.20 84.85 L 112.27 94.71 L 128.74 108.67 L 128.01 108.76 L 111.78 95.00 L 112.69 85.26 L 112.19 85.67 L 111.29 95.29 L 127.27 108.84 L 126.52 108.91 L 110.80 95.58 L 111.69 86.10 L 111.18 86.53 L 110.31 95.88 L 125.77 108.98 L 125.00 109.04 L 109.82 96.17 L 110.68 86.99 L 110.18 87.46 L 109.34 96.47 L 124.23 109.09 L 123.43 109.12 L 108.85 96.77 L 109.68 87.93 L 109.18 88.43 L 108.38 97.07 L 122.63 109.15 L 121.81 109.17 L 107.90 97.37 L 108.68 88.96 L 108.19 89.49 L 107.42 97.68 L 120.98 109.17 L 120.13 109.16 L 106.95 97.98 L 107.68 90.07 L 107.19 90.68 L 106.47 98.29 L 119.26 109.13 L 118.36 109.08 L 106.00 98.60 L 106.69 91.31 L 106.18 92.01 L 105.54 98.91 L 117.44 109.00 L 116.50 108.91 L 105.07 99.23 L 105.67 92.77 L 105.16 93.63 L 104.60 99.54 L 115.51 108.78 L 114.48 108.61 L 104.15 99.86 L 104.64 94.63 L 104.55 94.84 L 104.08 95.96 L 104.05 96.23 L 103.87 100.00 L 113.38 108.39 L 112.21 108.10 L 104.21 101.33 L 104.26 102.08 L 110.90 107.70 L 109.35 107.10 L 104.30 102.82 L 105.12 103.99 L 106.09 105.04 L 107.07 105.85 L 109.35 107.10 L 110.37 107.50 L 107.86 106.69 L 106.88 106.26 L 105.98 105.55 L 104.98 104.41 L 104.21 103.04 L 103.89 100.05 L 103.98 99.17 L 103.58 95.72 L 103.26 93.26 L 102.90 91.36 L 102.75 90.75 L 102.34 90.62 L 102.22 90.59 L 101.57 90.82 L 101.02 90.93 L 100.51 91.01 L 99.96 90.96 L 99.95 91.23 L 99.96 92.13 L 99.95 93.85 L 99.95 94.00 L 99.95 95.22 L 99.95 95.90 L 99.95 97.82 L 99.95 100.98 L 99.95 104.03 L 99.95 105.48 L 99.96 107.38 L 99.95 108.39 L 99.96 111.25 L 99.95 114.22 L 99.95 115.79 L 99.96 117.13 L 99.95 118.98 L 99.96 121.19 L 99.96 123.29 L 99.96 124.74 L 99.96 126.32 L 99.95 128.34 L 99.95 130.13 L 99.96 131.57 L 99.96 133.93 L 99.95 135.82 L 99.96 137.31 L 99.95 139.02 L 99.96 140.82 L 99.95 142.28 L 99.96 143.51 L 99.96 144.63 L 99.95 145.62 L 99.95 147.22 L 99.96 148.47 L 99.45 148.27 L 99.44 147.22 L 99.44 145.62 L 99.44 144.64 L 99.44 143.51 L 99.44 142.28 L 99.44 140.82 L 99.44 139.03 L 99.44 137.31 L 99.44 135.82 L 99.44 133.93 L 99.44 131.58 L 99.44 130.13 L 99.44 128.34 L 99.44 126.33 L 99.44 124.73 L 99.44 123.29 L 99.44 121.18 L 99.44 118.98 L 99.44 117.13 L 99.44 115.79 L 99.44 114.22 L 99.44 111.25 L 99.44 108.39 L 99.44 107.38 L 99.44 105.48 L 99.44 104.03 L 99.44 100.98 L 99.44 97.82 L 99.44 95.90 L 99.44 95.23 L 99.44 94.00 L 99.44 93.85 L 99.44 92.13 L 99.44 91.22 L 99.45 91.01 L 98.97 90.94 L 98.97 91.21 L 98.97 92.13 L 98.97 93.85 L 98.97 94.00 L 98.97 95.22 L 98.97 95.90 L 98.97 97.82 L 98.97 100.98 L 98.97 104.03 L 98.97 105.47 L 98.97 107.38 L 98.97 108.39 L 98.97 111.25 L 98.97 114.22 L 98.97 115.79 L 98.97 117.12 L 98.97 118.98 L 98.97 121.18 L 98.97 123.29 L 98.97 124.74 L 98.97 126.32 L 98.97 128.34 L 98.97 130.13 L 98.97 131.57 L 98.96 133.93 L 98.96 135.82 L 98.97 137.31 L 98.97 139.03 L 98.97 140.82 L 98.97 142.28 L 98.96 143.51 L 98.96 144.64 L 98.96 145.62 L 98.97 147.65 L 98.47 146.62 L 98.47 145.62 L 98.47 144.63 L 98.47 143.51 L 98.47 142.28 L 98.47 140.82 L 98.47 139.03 L 98.47 137.31 L 98.47 135.82 L 98.47 133.93 L 98.47 131.57 L 98.47 130.13 L 98.47 128.34 L 98.47 126.33 L 98.47 124.74 L 98.47 123.29 L 98.47 121.18 L 98.47 118.98 L 98.47 117.12 L 98.47 115.79 L 98.47 114.22 L 98.47 111.25 L 98.47 108.38 L 98.47 107.38 L 98.47 105.48 L 98.47 104.03 L 98.47 100.98 L 98.47 97.82 L 98.47 95.90 L 98.47 95.23 L 98.47 94.00 L 98.47 93.85 L 98.47 92.13 L 98.47 91.21 L 98.47 90.94 L 97.90 90.64 L 97.89 91.21 L 97.89 92.13 L 97.89 93.85 L 97.89 94.00 L 97.89 95.23 L 97.88 95.90 L 97.89 97.82 L 97.89 100.98 L 97.88 104.03 L 97.89 105.47 L 97.89 107.38 L 97.89 108.39 L 97.89 111.25 L 97.89 114.22 L 97.89 115.79 L 97.89 117.12 L 97.89 118.98 L 97.89 121.18 L 97.89 123.29 L 97.89 124.74 L 97.89 126.32 L 97.89 128.33 L 97.89 130.13 L 97.89 131.57 L 97.89 133.93 L 97.89 135.82 L 97.89 137.32 L 97.89 139.03 L 97.89 140.82 L 97.89 142.28 L 97.89 143.51 L 97.89 144.91 L 97.35 142.67 L 97.35 142.28 L 97.35 140.82 L 97.35 139.02 L 97.35 137.31 L 97.35 135.82 L 97.35 133.93 L 97.35 131.57 L 97.35 130.13 L 97.35 128.33 L 97.35 126.33 L 97.35 124.73 L 97.35 123.29 L 97.35 121.18 L 97.35 118.99 L 97.35 117.13 L 97.35 115.79 L 97.35 114.22 L 97.35 111.25 L 97.35 108.38 L 97.35 107.38 L 97.35 105.48 L 97.35 104.03 L 97.35 100.98 L 97.34 97.82 L 97.34 95.90 L 97.35 95.22 L 97.35 94.00 L 97.35 93.85 L 97.35 92.13 L 97.35 91.03 L 96.80 94.12 L 96.80 95.22 L 96.80 95.90 L 96.80 97.82 L 96.80 100.98 L 96.80 104.03 L 96.80 105.48 L 96.80 107.38 L 96.80 108.38 L 96.80 111.25 L 96.80 114.22 L 96.80 115.79 L 96.80 117.13 L 96.80 118.98 L 96.80 121.18 L 96.80 123.29 L 96.80 124.73 L 96.80 126.33 L 96.80 128.34 L 96.80 130.13 L 96.80 131.57 L 96.80 133.93 L 96.80 135.82 L 96.80 137.31 L 96.80 139.57 L 96.27 135.38 L 96.27 133.93 L 96.27 131.58 L 96.27 130.14 L 96.27 128.34 L 96.27 126.32 L 96.27 124.74 L 96.27 123.29 L 96.27 121.18 L 96.27 118.98 L 96.27 117.13 L 96.27 115.79 L 96.27 114.22 L 96.27 111.25 L 96.27 108.39 L 96.27 107.38 L 96.26 105.48 L 96.27 104.03 L 96.27 100.98 L 96.27 98.42 L 95.73 104.97 L 95.73 107.38 L 95.73 108.39 L 95.73 111.25 L 95.73 114.21 L 95.73 115.79 L 95.73 117.12 L 95.73 118.98 L 95.73 121.18 L 95.73 123.29 L 95.73 124.73 L 95.73 126.32 L 95.73 128.75 L 95.53 124.65 L 95.43 121.32 L 95.46 118.70 L 94.94 118.66 L 93.30 118.53 L 90.53 118.40 L 87.73 118.39 L 84.33 118.54 L 80.88 118.86 L 76.19 119.61 L 73.21 120.27 L 68.35 121.65 L 63.99 123.24 L 60.17 124.94 L 57.56 126.28 L 55.16 127.62 L 51.51 129.95 L 48.00 132.53 L 45.83 134.31 L 43.59 136.31 L 42.41 137.46 L 41.72 134.86 L 42.84 137.04 L 42.59 137.93 L 42.95 138.65 L 43.59 136.31 L 41.61 132.47 L 41.81 130.70 L 44.34 135.62 L 43.33 139.31 L 43.73 139.89 L 45.09 134.95 L 42.15 129.23 L 42.54 127.94 L 45.83 134.31 L 44.14 140.43 L 44.56 140.92 L 46.55 133.69 L 43.00 126.78 L 43.48 125.72 L 47.28 133.10 L 45.00 141.38 L 45.44 141.79 L 48.00 132.53 L 43.99 124.75 L 44.51 123.84 L 48.71 131.98 L 45.90 142.19 L 46.36 142.54 L 49.42 131.45 L 45.06 122.98 L 45.61 122.18 L 50.11 130.93 L 46.82 142.88 L 47.30 143.19 L 50.81 130.44 L 46.17 121.42 L 46.74 120.70 L 51.51 129.95 L 47.78 143.48 L 48.27 143.75 L 52.19 129.49 L 47.31 120.01 L 47.90 119.36 L 52.88 129.04 L 48.75 144.00 L 49.26 144.24 L 53.56 128.60 L 48.48 118.73 L 49.06 118.13 L 54.23 128.18 L 49.76 144.45 L 50.26 144.66 L 54.90 127.77 L 49.65 117.56 L 50.24 117.00 L 55.58 127.38 L 50.77 144.84 L 51.28 145.01 L 56.24 127.00 L 50.83 116.47 L 51.42 115.96 L 56.90 126.63 L 51.80 145.17 L 52.32 145.31 L 57.56 126.27 L 52.00 115.47 L 52.60 115.00 L 58.22 125.92 L 52.84 145.45 L 53.36 145.58 L 58.87 125.58 L 53.18 114.54 L 53.78 114.10 L 59.52 125.25 L 53.90 145.67 L 54.43 145.79 L 60.17 124.94 L 54.37 113.68 L 54.96 113.26 L 60.81 124.63 L 54.97 145.85 L 55.52 145.92 L 61.45 124.33 L 55.55 112.87 L 56.14 112.49 L 62.09 124.05 L 56.06 145.98 L 56.60 146.04 L 62.73 123.77 L 56.73 112.12 L 57.32 111.76 L 63.37 123.50 L 57.15 146.08 L 57.70 146.10 L 63.99 123.24 L 57.91 111.42 L 58.50 111.08 L 64.62 122.99 L 58.25 146.13 L 58.81 146.14 L 65.25 122.75 L 59.08 110.76 L 59.67 110.45 L 65.88 122.51 L 59.37 146.14 L 59.93 146.13 L 66.50 122.29 L 60.25 110.15 L 60.84 109.85 L 67.12 122.06 L 60.50 146.11 L 61.07 146.08 L 67.73 121.85 L 61.42 109.59 L 62.00 109.29 L 68.35 121.65 L 61.64 146.05 L 62.21 146.00 L 68.97 121.45 L 62.59 109.06 L 63.18 108.81 L 69.58 121.26 L 62.79 145.94 L 63.36 145.87 L 70.20 121.08 L 63.76 108.57 L 64.31 108.29 L 70.80 120.90 L 63.94 145.80 L 64.53 145.71 L 71.41 120.73 L 64.92 108.12 L 65.50 107.91 L 72.01 120.57 L 65.11 145.63 L 65.70 145.52 L 72.61 120.41 L 66.13 107.82 L 66.89 107.97 L 73.21 120.27 L 66.29 145.41 L 66.89 145.29 L 73.82 120.12 L 67.64 108.11 L 68.37 108.24 L 74.41 119.98 L 67.48 145.16 L 68.08 145.01 L 75.01 119.85 L 69.10 108.36 L 69.81 108.47 L 75.60 119.73 L 68.68 144.86 L 69.29 144.70 L 76.19 119.61 L 70.51 108.57 L 71.22 108.66 L 76.79 119.50 L 69.90 144.54 L 70.50 144.35 L 77.37 119.39 L 71.90 108.75 L 72.58 108.82 L 77.96 119.29 L 71.12 144.16 L 71.73 143.96 L 78.55 119.19 L 73.25 108.89 L 73.91 108.95 L 79.14 119.10 L 72.35 143.75 L 72.98 143.52 L 79.72 119.02 L 74.56 109.00 L 75.21 109.04 L 80.30 118.94 L 73.60 143.29 L 74.23 143.04 L 80.88 118.86 L 75.85 109.08 L 76.48 109.11 L 81.46 118.80 L 74.86 142.79 L 75.49 142.52 L 82.04 118.74 L 77.10 109.14 L 77.71 109.16 L 82.62 118.68 L 76.13 142.23 L 76.77 141.94 L 83.19 118.63 L 78.32 109.17 L 78.92 109.17 L 83.76 118.58 L 77.42 141.63 L 78.07 141.30 L 84.33 118.54 L 79.51 109.17 L 80.09 109.16 L 84.90 118.50 L 78.72 140.96 L 79.38 140.61 L 85.47 118.47 L 80.67 109.14 L 81.23 109.11 L 86.04 118.44 L 80.04 140.24 L 80.70 139.85 L 86.61 118.41 L 81.79 109.07 L 82.34 109.02 L 87.17 118.40 L 81.37 139.46 L 82.05 139.05 L 87.73 118.39 L 82.88 108.97 L 83.42 108.91 L 88.30 118.38 L 82.73 138.59 L 83.43 138.11 L 88.86 118.38 L 83.95 108.84 L 84.47 108.77 L 89.42 118.38 L 84.12 137.63 L 84.82 137.11 L 89.97 118.39 L 84.98 108.70 L 85.50 108.61 L 90.53 118.40 L 85.53 136.56 L 86.25 135.98 L 91.09 118.41 L 85.99 108.52 L 86.48 108.41 L 91.64 118.43 L 86.98 135.37 L 87.72 134.72 L 92.19 118.46 L 86.97 108.30 L 87.44 108.19 L 92.75 118.49 L 88.47 134.02 L 89.24 133.26 L 93.30 118.53 L 87.91 108.06 L 88.37 107.93 L 93.85 118.56 L 90.03 132.43 L 90.84 131.52 L 94.40 118.61 L 88.83 107.78 L 89.27 107.63 L 94.94 118.66 L 91.68 130.49 L 92.57 129.31 L 95.49 118.71 L 89.87 107.80 L 90.50 108.16 L 95.44 117.74 L 95.44 116.87 L 91.17 108.58 L 91.87 109.08 L 95.44 116.00 L 95.43 114.82 L 92.96 110.03 L 94.45 111.72 L 95.42 113.63 L 95.42 120.99 L 93.58 127.66 L 94.71 125.60 L 95.46 122.43 L 95.47 121.77 L 95.44 120.44 L 95.50 119.08 L 95.46 118.54 L 95.48 117.14 L 95.48 113.76 L 95.48 111.07 L 95.57 108.19 L 95.57 104.53 L 95.74 103.17 L 96.10 101.21 L 96.19 100.10 L 96.16 100.08 L 94.91 99.23 L 93.51 98.29 L 91.13 96.77 L 89.19 95.58 L 87.21 94.43 L 85.20 93.30 L 83.15 92.20 L 81.08 91.13 L 78.96 90.09 L 76.26 88.84 L 74.06 87.87 L 71.82 86.95 L 69.53 86.05 L 67.21 85.19 L 64.84 84.36 L 62.42 83.58 L 59.96 82.83 L 57.45 82.13 L 55.53 81.64 L 52.93 81.01 L 50.27 80.43 L 47.55 79.90 L 45.47 79.54 L 42.65 79.10 L 39.75 78.73 L 36.03 78.34 L 32.96 78.11 L 29.81 77.95 L 26.56 77.87 L 23.95 77.85 L 23.78 77.87 L 23.98 76.88 L 24.07 77.86 L 23.75 78.14 L 23.71 78.88 L 24.90 77.86 L 24.66 75.24 L 25.39 74.18 L 25.74 77.86 L 23.74 79.56 L 23.81 80.20 L 26.56 77.87 L 26.15 73.38 L 26.90 72.73 L 27.39 77.88 L 23.92 80.82 L 24.06 81.40 L 28.20 77.90 L 27.66 72.18 L 28.43 71.73 L 29.00 77.92 L 24.23 81.96 L 24.43 82.51 L 29.81 77.95 L 29.19 71.33 L 29.95 70.99 L 30.61 77.98 L 24.64 83.04 L 24.88 83.55 L 31.40 78.02 L 30.71 70.69 L 31.47 70.43 L 32.18 78.06 L 25.12 84.05 L 25.38 84.53 L 32.96 78.11 L 32.23 70.20 L 32.97 70.00 L 33.74 78.16 L 25.65 85.01 L 25.95 85.47 L 34.51 78.22 L 33.73 69.83 L 34.47 69.68 L 35.27 78.28 L 26.24 85.93 L 26.55 86.38 L 36.03 78.34 L 35.21 69.54 L 35.94 69.44 L 36.79 78.41 L 26.87 86.81 L 27.19 87.24 L 37.53 78.48 L 36.68 69.34 L 37.41 69.26 L 38.28 78.56 L 27.53 87.66 L 27.88 88.08 L 39.02 78.64 L 38.13 69.19 L 38.85 69.15 L 39.75 78.73 L 28.23 88.49 L 28.58 88.91 L 40.48 78.81 L 39.58 69.11 L 40.29 69.09 L 41.21 78.91 L 28.96 89.29 L 29.33 89.68 L 41.93 79.01 L 41.00 69.07 L 41.71 69.07 L 42.65 79.10 L 29.71 90.07 L 30.10 90.45 L 43.36 79.21 L 42.41 69.08 L 43.11 69.09 L 44.07 79.32 L 30.48 90.83 L 30.89 91.20 L 44.78 79.43 L 43.81 69.12 L 44.50 69.15 L 45.47 79.54 L 31.29 91.56 L 31.70 91.92 L 46.17 79.66 L 45.19 69.19 L 45.87 69.25 L 46.86 79.78 L 32.11 92.28 L 32.53 92.63 L 47.55 79.90 L 46.56 69.30 L 47.24 69.37 L 48.23 80.03 L 32.96 92.98 L 33.38 93.32 L 48.92 80.16 L 47.91 69.44 L 48.59 69.52 L 49.60 80.29 L 33.82 93.67 L 34.26 94.00 L 50.27 80.43 L 49.26 69.61 L 49.92 69.69 L 50.94 80.57 L 34.70 94.33 L 35.15 94.66 L 51.61 80.72 L 50.59 69.79 L 51.24 69.90 L 52.27 80.86 L 35.60 94.99 L 36.06 95.31 L 52.93 81.01 L 51.90 70.00 L 52.55 70.12 L 53.58 81.16 L 36.51 95.63 L 36.98 95.94 L 54.24 81.32 L 53.20 70.24 L 53.85 70.37 L 54.88 81.48 L 37.45 96.25 L 37.92 96.56 L 55.53 81.64 L 54.49 70.49 L 55.13 70.63 L 56.17 81.80 L 38.39 96.86 L 38.87 97.16 L 56.81 81.97 L 55.77 70.77 L 56.40 70.91 L 57.45 82.13 L 39.36 97.46 L 39.85 97.76 L 58.08 82.31 L 57.03 71.06 L 57.66 71.22 L 58.71 82.48 L 40.34 98.05 L 40.84 98.34 L 59.34 82.66 L 58.28 71.37 L 58.90 71.54 L 59.96 82.83 L 41.34 98.62 L 41.83 98.90 L 60.58 83.02 L 59.52 71.70 L 60.14 71.87 L 61.20 83.20 L 42.34 99.18 L 42.85 99.46 L 61.81 83.39 L 60.75 72.05 L 61.36 72.23 L 62.42 83.58 L 43.36 99.73 L 43.88 100.00 L 63.03 83.77 L 61.97 72.41 L 62.57 72.60 L 63.63 83.97 L 44.41 100.27 L 44.93 100.53 L 64.23 84.17 L 63.17 72.79 L 63.77 72.98 L 64.84 84.36 L 45.46 100.79 L 45.98 101.05 L 65.43 84.57 L 64.37 73.18 L 64.96 73.38 L 66.02 84.77 L 46.52 101.30 L 47.06 101.55 L 66.62 84.98 L 65.56 73.59 L 66.14 73.80 L 67.21 85.19 L 47.61 101.80 L 48.15 102.05 L 67.79 85.40 L 66.73 74.01 L 67.31 74.23 L 68.38 85.62 L 48.70 102.29 L 49.25 102.53 L 68.95 85.83 L 67.89 74.44 L 68.47 74.67 L 69.53 86.05 L 49.80 102.76 L 50.37 103.00 L 70.11 86.27 L 69.04 74.90 L 69.62 75.14 L 70.68 86.49 L 50.93 103.23 L 51.50 103.45 L 71.25 86.72 L 70.19 75.37 L 70.75 75.60 L 71.82 86.95 L 52.07 103.68 L 52.64 103.90 L 72.38 87.17 L 71.32 75.85 L 71.88 76.09 L 72.94 87.41 L 53.22 104.12 L 53.81 104.33 L 73.50 87.64 L 72.45 76.35 L 73.00 76.60 L 74.06 87.87 L 54.39 104.54 L 54.98 104.75 L 74.61 88.11 L 73.56 76.86 L 74.11 77.12 L 75.16 88.35 L 55.57 104.96 L 56.18 105.16 L 75.72 88.60 L 74.67 77.39 L 75.21 77.66 L 76.26 88.84 L 56.77 105.36 L 57.38 105.55 L 76.81 89.09 L 75.76 77.93 L 76.30 78.21 L 77.35 89.34 L 57.99 105.74 L 58.61 105.93 L 77.89 89.59 L 76.85 78.49 L 77.39 78.78 L 78.42 89.84 L 59.23 106.11 L 59.85 106.29 L 78.96 90.09 L 77.93 79.07 L 78.46 79.37 L 79.49 90.35 L 60.48 106.47 L 61.11 106.64 L 80.02 90.61 L 79.00 79.67 L 79.53 79.97 L 80.55 90.87 L 61.75 106.81 L 62.38 106.97 L 81.08 91.13 L 80.06 80.28 L 80.59 80.59 L 81.60 91.40 L 63.03 107.13 L 63.68 107.29 L 82.12 91.66 L 81.12 80.92 L 81.64 81.25 L 82.64 91.93 L 64.34 107.44 L 65.00 107.58 L 83.15 92.20 L 82.16 81.57 L 82.69 81.91 L 83.67 92.47 L 65.67 107.72 L 66.35 107.86 L 84.18 92.74 L 83.20 82.25 L 83.72 82.60 L 84.69 93.02 L 67.02 107.99 L 67.71 108.12 L 85.20 93.30 L 84.23 82.96 L 84.75 83.32 L 85.71 93.58 L 68.40 108.24 L 69.11 108.35 L 86.21 93.86 L 85.26 83.69 L 85.77 84.07 L 86.71 94.14 L 69.81 108.47 L 70.52 108.57 L 87.21 94.43 L 86.28 84.46 L 86.78 84.85 L 87.71 94.71 L 71.24 108.67 L 71.97 108.76 L 88.20 95.00 L 87.29 85.26 L 87.80 85.67 L 88.69 95.29 L 72.71 108.84 L 73.46 108.91 L 89.19 95.58 L 88.30 86.10 L 88.80 86.54 L 89.67 95.88 L 74.21 108.98 L 74.98 109.04 L 90.16 96.17 L 89.30 86.99 L 89.80 87.45 L 90.64 96.47 L 75.75 109.09 L 76.55 109.12 L 91.13 96.77 L 90.30 87.94 L 90.80 88.44 L 91.60 97.07 L 77.35 109.15 L 78.17 109.17 L 92.08 97.37 L 91.29 88.95 L 91.79 89.50 L 92.56 97.68 L 79.00 109.17 L 79.85 109.16 L 93.03 97.98 L 92.29 90.07 L 92.79 90.67 L 93.51 98.29 L 80.72 109.13 L 81.62 109.08 L 93.98 98.60 L 93.30 91.32 L 93.80 92.01 L 94.44 98.91 L 82.54 109.00 L 83.48 108.91 L 94.91 99.23 L 94.30 92.77 L 94.82 93.62 L 95.37 99.54 L 84.47 108.78 L 85.51 108.61 L 95.84 99.86 L 95.35 94.64 L 95.90 95.95 L 96.16 100.08 L 86.60 108.39 L 87.77 108.11 L 96.02 101.11 L 95.94 101.89 L 89.08 107.71 L 90.63 107.10 L 95.68 102.82 L 94.87 103.99 L 93.89 105.04 L 92.91 105.85 L 91.80 106.55 L 90.87 107.03 L 91.84 106.63 L 92.96 105.98 L 93.91 105.20 L 94.79 104.22 L 95.77 102.87 L 96.04 101.73 L 96.18 100.37 L 96.09 99.66 L 96.13 99.31 L 96.34 96.97 L 96.64 94.87 L 96.84 93.52 L 97.09 92.01 L 97.49 90.61 L 98.32 90.86 L 99.74 90.99 L 99.99 90.91 L 100.02 84.91 L 99.95 85.00 L 99.95 85.02 L 99.95 85.03 L 99.95 85.05 L 99.96 85.08 L 99.98 85.10 L 100.00 85.11 L 100.03 85.12 L 100.06 85.13 L 100.09 85.13 L 100.13 85.12 L 100.16 85.11 L 100.19 85.09 L 100.22 85.06 L 100.25 85.02 L 100.27 84.97 L 100.28 84.93 L 100.29 84.87 L 100.28 84.82 L 100.27 84.77 L 100.24 84.71 L 100.20 84.67 L 100.16 84.62 L 100.10 84.58 L 100.03 84.56 L 99.96 84.54 L 99.88 84.54 L 99.81 84.54 L 99.73 84.57 L 99.66 84.60 L 99.59 84.65 L 99.53 84.72 L 99.48 84.79 L 99.44 84.88 L 99.42 84.97 L 99.41 85.07 L 99.42 85.17 L 99.44 85.27 L 99.49 85.37 L 99.55 85.45 L 99.63 85.53 L 99.72 85.60 L 99.83 85.66 L 99.94 85.68 L 100.06 85.70 L 100.18 85.70 L 100.31 85.67 L 100.43 85.62 L 100.54 85.55 L 100.64 85.46 L 100.72 85.35 L 100.79 85.23 L 100.84 85.09 L 100.87 84.95 L 100.87 84.81 L 100.84 84.66 L 100.79 84.51 L 100.71 84.37 L 100.61 84.25 L 100.50 84.14 L 100.36 84.06 L 100.21 83.99 L 100.04 83.95 L 99.87 83.95 L 99.70 83.97 L 99.53 84.02 L 99.37 84.09 L 99.22 84.20 L 99.09 84.32 L 98.98 84.47 L 98.90 84.65 L 98.85 84.83 L 98.83 85.03 L 98.83 85.22 L 98.88 85.42 L 98.95 85.60 L 99.06 85.78 L 99.19 85.93 L 99.36 86.06 L 99.54 86.17 L 99.75 86.24 L 99.96 86.28 L 100.18 86.29 L 100.40 86.25 L 100.61 86.18 L 100.81 86.07 L 100.99 85.93 L 101.15 85.75 L 101.28 85.56 L 101.38 85.34 L 101.44 85.11 L 101.46 84.87 L 101.43 84.62 L 101.37 84.38 L 101.26 84.16 L 101.12 83.95 L 100.94 83.76 L 100.74 83.60 L 100.51 83.47 L 100.26 83.40 L 99.99 83.36 L 99.72 83.37 L 99.45 83.42 L 99.20 83.51 L 98.96 83.65 L 98.74 83.83 L 98.56 84.05 L 98.41 84.29 L 98.31 84.57 L 98.25 84.85 L 98.23 85.14 L 98.27 85.43 L 98.36 85.72 L 98.49 85.99 L 98.67 86.23 L 98.89 86.45 L 99.14 86.63 L 99.42 86.76 L 99.72 86.84 L 100.04 86.88 L 100.36 86.86 L 100.67 86.79 L 100.97 86.66 L 101.25 86.49 L 101.49 86.27 L 101.70 86.01 L 101.86 85.72 L 101.98 85.40 L 102.04 85.06 L 102.04 84.72 L 101.99 84.38 L 101.87 84.05 L 101.70 83.75 L 101.49 83.46 L 101.23 83.22 L 100.93 83.02 L 100.60 82.88 L 100.25 82.80 L 99.88 82.77 L 99.52 82.81 L 99.16 82.89 L 98.81 83.05 L 98.50 83.25 L 98.23 83.53 L 98.00 83.82 L 97.82 84.17 L 97.70 84.54 L 97.65 84.92 L 97.65 85.31 L 97.73 85.70 L 97.87 86.07 L 98.07 86.42 L 98.33 86.73 L 98.63 87.00 L 98.98 87.21 L 99.36 87.36 L 99.76 87.44 L 100.18 87.46 L 100.59 87.41 L 101.00 87.30 L 101.38 87.11 L 101.72 86.86 L 102.02 86.56 L 102.27 86.21 L 102.46 85.81 L 102.58 85.39 L 102.64 84.97 L 102.61 84.52 L 102.51 84.09 L 102.34 83.68 L 102.11 83.29 L 101.81 82.95 L 101.46 82.66 L 101.07 82.44 L 100.63 82.28 L 100.18 82.20 L 99.71 82.19 L 99.25 82.26 L 98.80 82.40 L 98.39 82.61 L 98.01 82.91 L 97.68 83.26 L 97.42 83.66 L 97.22 84.10 L 97.09 84.57 L 97.05 85.05 L 97.09 85.55 L 97.22 86.02 L 97.42 86.47 L 97.69 86.89 L 98.03 87.26 L 98.42 87.57 L 98.87 87.80 L 99.36 87.97 L 99.86 88.04 L 100.38 88.04 L 100.88 87.95 L 101.37 87.78 L 101.83 87.52 L 102.23 87.19 L 102.58 86.80 L 102.87 86.35 L 103.07 85.86 L 103.20 85.33 L 103.22 84.80 L 103.16 84.26 L 103.01 83.74 L 102.78 83.25 L 102.47 82.80 L 102.09 82.40 L 101.64 82.07 L 101.14 81.83 L 100.61 81.67 L 100.05 81.60 L 99.49 81.61 L 98.93 81.73 L 98.40 81.94 L 97.91 82.23 L 97.47 82.61 L 97.10 83.05 L 96.81 83.54 L 96.60 84.09 L 96.49 84.66 L 96.47 85.25 L 96.55 85.83 L 96.72 86.40 L 96.99 86.93 L 97.35 87.41 L 97.78 87.83 L 98.28 88.17 L 98.82 88.42 L 99.41 88.59 L 100.02 88.64 L 100.63 88.61 L 101.23 88.46 L 101.80 88.23 L 102.33 87.89 L 102.79 87.47 L 103.18 86.98 L 103.48 86.44 L 103.69 85.84 L 103.80 85.21 L 103.80 84.58 L 103.70 83.94 L 103.49 83.33 L 103.19 82.77 L 102.79 82.25 L 102.31 81.82 L 101.76 81.47 L 101.16 81.21 L 100.52 81.04 L 99.86 81.00 L 99.20 81.06 L 98.56 81.24 L 97.95 81.51 L 97.39 81.88 L 96.90 82.34 L 96.50 82.89 L 96.19 83.49 L 95.98 84.14 L 95.88 84.82 L 95.89 85.50 L 96.03 86.18 L 96.27 86.82 L 96.62 87.42 L 97.06 87.96 L 97.58 88.42 L 98.18 88.79 L 98.84 89.05 L 99.53 89.20 L 100.24 89.23 L 100.95 89.15 L 101.63 88.95 L 102.27 88.63 L 102.86 88.21 L 103.37 87.70 L 103.80 87.11 L 104.11 86.46 L 104.32 85.75 L 104.40 85.03 L 104.36 84.30 L 104.21 83.57 L 103.93 82.89 L 103.54 82.25 L 103.05 81.69 L 102.47 81.22 L 101.82 80.84 L 101.12 80.57 L 100.37 80.44 L 99.61 80.42 L 98.86 80.53 L 98.13 80.77 L 97.45 81.12 L 96.84 81.58 L 96.31 82.14 L 95.88 82.78 L 95.56 83.50 L 95.35 84.25 L 95.28 85.03 L 95.35 85.81 L 95.53 86.58 L 95.85 87.30 L 96.27 87.96 L 96.81 88.56 L 97.45 89.04 L 98.15 89.42 L 98.91 89.68 L 99.71 89.82 L 100.51 89.81 L 101.31 89.67 L 102.08 89.39 L 102.79 89.00 L 103.44 88.50 L 103.99 87.89 L 104.43 87.19 L 104.75 86.42 L 104.94 85.61 L 104.99 84.79 L 104.91 83.96 L 104.69 83.15 L 104.33 82.39 L 103.85 81.69 L 103.27 81.08 L 102.59 80.58 L 101.83 80.19 L 101.01 79.95 L 100.17 79.83 L 99.31 79.85 L 98.46 80.02 L 97.66 80.33 L 96.91 80.77 L 96.25 81.33 L 95.68 82.00 L 95.23 82.74 L 94.91 83.55 L 94.73 84.41 L 94.70 85.30 L 94.81 86.17 L 95.07 87.03 L 95.46 87.82 L 95.99 88.54 L 96.63 89.16 L 97.36 89.68 L 98.17 90.07 L 99.04 90.32 L 99.94 90.42 L 100.85 90.36 L 101.74 90.15 L 102.58 89.81 L 103.36 89.33 L 104.04 88.72 L 104.62 88.01 L 105.07 87.20 L 105.39 86.33 L 105.56 85.42 L 105.57 84.48 L 105.42 83.57 L 105.13 82.67 L 104.69 81.84 L 104.12 81.09 L 103.43 80.45 L 102.64 79.93 L 101.77 79.55 L 100.85 79.31 L 99.90 79.23 L 98.95 79.31 L 98.02 79.55 L 97.14 79.94 L 96.33 80.47 L 95.62 81.12 L 95.03 81.90 L 94.57 82.75 L 94.27 83.68 L 94.12 84.65 L 94.13 85.63 L 94.46 87.04 L 95.05 88.20 L 95.46 88.75 L 96.11 89.42 L 96.79 89.93 L 97.41 90.28 L 98.37 90.65 L 99.45 90.85 L 100.24 90.84 L 101.32 90.72 L 102.41 90.35 L 103.38 89.80 L 104.29 89.01 L 104.91 88.23 L 105.51 87.07 L 105.84 85.72 L 105.85 84.27 L 105.46 82.76 L 104.90 81.69 L 104.05 80.69 L 103.45 80.19 L 102.99 79.89 L 103.02 78.57 L 103.24 76.94 L 103.63 75.40 L 104.14 74.02 L 105.01 72.32 L 106.14 70.71 L 107.56 69.19 L 108.89 68.11 L 110.22 67.27 L 112.12 66.38 L 113.85 65.85 L 115.98 65.51 L 117.69 65.48 L 119.17 65.61 L 119.37 65.64 L 119.18 66.23 L 120.25 66.73 L 120.73 65.82 L 120.45 64.98 L 119.44 64.93 L 119.33 65.63 L 117.85 65.48 L 115.42 65.57 L 113.50 65.94 L 111.57 66.63 L 110.22 67.27 L 108.89 68.11 L 107.34 69.40 L 106.14 70.71 L 104.86 72.60 L 104.14 74.02 L 103.24 76.94 L 103.01 79.23 L 102.99 79.89 L 102.12 79.47 L 101.27 79.21 L 100.37 79.08 L 99.24 79.12 L 98.25 79.33 L 97.56 79.59 L 96.99 79.88 L 96.98 79.23 L 96.74 76.94 L 95.85 74.02 L 95.12 72.59 L 93.85 70.71 L 92.64 69.40 L 91.10 68.12 L 89.77 67.27 L 88.41 66.64 L 86.48 65.94 L 84.56 65.57 L 82.13 65.48 L 80.65 65.63 L 80.54 64.93 L 79.53 64.98 L 79.25 65.82 L 79.74 66.73 L 80.81 66.23 L 80.61 65.64 L 80.81 65.61 L 82.30 65.47 L 84.01 65.51 L 86.13 65.84 L 87.86 66.38 L 89.77 67.27 L 91.10 68.12 L 92.42 69.19 L 93.85 70.71 L 94.97 72.32 L 95.85 74.02 L 96.36 75.40 L 96.74 76.94 L 96.96 78.57 L 96.99 79.88 L 96.35 80.33 L 95.81 80.81 L 95.03 81.77 L 94.48 82.88 L 94.15 84.13 L 94.09 84.97 L 94.30 86.34 L 94.76 87.62 L 95.32 88.57 L 96.26 89.53 L 97.41 90.28 L 98.37 90.65 L 99.45 90.85 L 100.00 91.00 L 100.00 99.98" 
          fill="none" 
          stroke="currentColor" 
          stroke-width="0.5"/>
</svg>