<?xml version="1.0" encoding="UTF-8" standalone="no"?>
<svg width="100%" height="100%" viewBox="0 0 200 200" preserveAspectRatio="xMidYMid meet" xmlns="http://www.w3.org/2000/svg">
    <path d="M 100.00 100.00 L 100.00 100.00 L 100.00 100.00 L 98.20 99.96 L 80.88 99.95 L 80.01 99.95 L 79.75 99.95 L 72.86 99.95 L 64.27 99.95 L 55.68 99.95 L 55.09 99.95 L 54.46 99.95 L 53.99 99.79 L 53.76 99.24 L 53.89 96.06 L 54.06 94.43 L 56.21 85.01 L 57.91 80.73 L 60.70 75.52 L 65.61 68.98 L 69.57 65.07 L 75.12 60.91 L 79.53 58.43 L 83.35 56.75 L 86.80 55.58 L 90.41 54.65 L 93.95 54.03 L 95.98 52.76 L 97.17 51.40 L 97.04 49.52 L 96.41 48.43 L 93.59 48.20 L 91.61 48.49 L 88.15 49.17 L 83.82 50.39 L 78.54 52.44 L 73.18 55.25 L 70.08 57.26 L 64.99 61.33 L 60.50 65.94 L 57.80 69.37 L 55.25 73.23 L 52.21 79.16 L 50.17 84.68 L 48.72 90.68 L 48.02 96.25 L 47.90 98.85 L 47.42 99.53 L 46.94 99.92 L 46.08 99.95 L 40.38 99.95 L 32.19 99.95 L 25.85 99.96 L 21.03 99.95 L 20.05 99.66 L 19.16 98.90 L 18.70 97.84 L 18.87 94.23 L 19.51 88.32 L 20.99 80.67 L 25.28 67.82 L 28.88 60.48 L 33.95 52.49 L 40.40 44.60 L 45.91 39.20 L 51.09 34.96 L 61.59 28.25 L 71.81 23.64 L 81.46 20.73 L 88.90 19.36 L 94.63 18.69 L 104.31 18.70 L 111.79 19.44 L 117.65 20.51 L 124.33 22.30 L 132.85 25.50 L 141.12 29.71 L 146.90 33.43 L 152.32 37.60 L 156.66 41.51 L 161.16 46.24 L 164.56 50.39 L 169.15 57.02 L 172.46 62.86 L 177.35 74.58 L 179.07 80.62 L 180.41 87.28 L 181.06 92.51 L 181.06 94.90 L 180.73 96.52 L 179.39 97.21 L 177.39 97.01 L 175.41 95.23 L 175.22 92.84 L 174.66 88.28 L 173.82 83.83 L 171.60 75.83 L 167.89 66.79 L 162.98 58.21 L 157.99 51.53 L 151.66 44.83 L 144.15 38.65 L 137.58 34.42 L 127.60 29.64 L 118.71 26.77 L 112.24 25.43 L 106.17 24.43 L 100.04 24.43 L 94.63 24.62 L 89.26 25.20 L 79.95 27.15 L 74.55 28.86 L 66.29 32.39 L 59.77 36.06 L 56.78 38.05 L 53.27 40.65 L 48.13 45.10 L 44.32 48.97 L 41.50 52.23 L 39.10 55.34 L 36.82 58.63 L 34.60 62.26 L 32.19 66.79 L 29.07 74.13 L 27.64 78.45 L 26.61 82.29 L 25.98 85.14 L 25.23 89.62 L 25.19 91.93 L 25.96 93.41 L 27.20 94.33 L 29.19 93.96 L 30.16 93.45 L 30.69 92.52 L 30.90 91.27 L 31.67 86.48 L 33.01 80.88 L 34.69 75.78 L 37.95 68.31 L 41.66 61.90 L 44.64 57.69 L 48.57 52.97 L 54.32 47.36 L 59.20 43.49 L 64.19 40.20 L 69.71 37.22 L 77.01 34.18 L 81.37 32.82 L 87.25 31.45 L 92.72 30.61 L 95.00 30.81 L 96.57 31.32 L 97.72 32.59 L 97.47 33.99 L 96.53 35.41 L 94.63 36.34 L 89.24 37.03 L 83.35 38.33 L 78.51 39.85 L 74.24 41.56 L 70.58 43.32 L 65.21 46.45 L 61.94 48.72 L 58.03 51.89 L 53.21 56.56 L 49.74 60.64 L 46.83 64.69 L 43.74 69.86 L 40.78 76.20 L 39.50 79.69 L 38.08 84.58 L 37.24 88.27 L 36.84 90.93 L 36.95 92.26 L 37.64 93.30 L 39.19 94.31 L 40.28 94.26 L 41.30 93.76 L 42.74 91.01 L 43.03 89.28 L 43.62 86.51 L 45.37 80.57 L 47.64 75.11 L 49.91 70.78 L 52.18 67.20 L 55.41 62.91 L 62.49 55.75 L 68.56 51.24 L 76.50 46.95 L 82.36 44.71 L 89.33 42.96 L 94.63 41.95 L 100.04 41.96 L 106.18 42.28 L 112.75 43.37 L 117.70 44.71 L 122.97 46.69 L 127.31 48.76 L 132.28 51.74 L 136.17 54.58 L 139.18 57.15 L 141.98 59.89 L 143.64 61.70 L 146.76 65.60 L 149.88 70.30 L 151.75 73.69 L 153.51 77.49 L 154.94 81.26 L 155.93 84.50 L 156.73 87.73 L 157.32 90.85 L 157.76 94.25 L 158.49 96.69 L 160.03 97.53 L 162.16 97.15 L 163.46 96.26 L 163.58 93.83 L 162.93 89.00 L 162.17 85.30 L 160.67 79.96 L 158.71 74.79 L 156.17 69.55 L 152.47 63.53 L 148.80 58.75 L 146.17 55.83 L 140.72 50.75 L 135.93 47.16 L 130.14 43.66 L 125.04 41.21 L 118.89 38.96 L 115.17 37.94 L 112.10 37.27 L 107.96 36.62 L 105.25 35.71 L 104.72 34.57 L 104.41 33.28 L 105.02 31.18 L 106.89 30.61 L 109.24 30.88 L 112.85 31.46 L 119.52 33.05 L 126.08 35.32 L 131.18 37.62 L 136.73 40.71 L 143.93 45.84 L 149.31 50.68 L 154.87 56.95 L 157.39 60.38 L 160.48 65.27 L 162.53 69.12 L 165.02 74.80 L 167.56 82.74 L 168.81 88.78 L 169.68 97.66 L 169.70 101.47 L 169.11 109.15 L 167.74 116.42 L 165.51 123.81 L 161.86 132.10 L 157.63 139.18 L 151.74 146.67 L 146.08 152.25 L 139.45 157.41 L 131.74 162.01 L 125.00 165.01 L 116.04 167.77 L 109.14 169.04 L 107.29 169.28 L 105.65 169.84 L 104.72 170.65 L 103.98 172.67 L 104.23 174.45 L 105.79 175.26 L 108.31 175.02 L 111.39 174.62 L 115.13 173.95 L 121.87 172.26 L 128.07 170.08 L 134.75 167.03 L 141.24 163.24 L 147.87 158.40 L 153.31 153.23 L 156.96 149.59 L 161.17 144.30 L 164.39 139.48 L 167.99 132.90 L 171.08 125.59 L 173.19 118.71 L 174.08 114.87 L 174.97 109.38 L 175.37 107.21 L 176.43 105.41 L 176.95 104.49 L 178.27 104.06 L 179.80 104.03 L 180.82 105.27 L 181.13 106.64 L 180.93 108.73 L 180.44 112.43 L 179.62 116.93 L 178.14 122.77 L 176.41 128.01 L 175.35 130.75 L 173.64 134.63 L 171.16 139.48 L 166.15 147.38 L 160.36 154.55 L 153.34 161.43 L 146.89 166.48 L 140.73 170.41 L 135.04 173.41 L 126.68 176.83 L 120.55 178.69 L 110.65 180.62 L 103.23 181.26 L 97.87 181.29 L 93.48 181.05 L 88.56 180.51 L 81.39 179.16 L 76.11 177.72 L 72.32 176.45 L 68.23 174.84 L 63.66 172.73 L 58.87 170.13 L 55.70 168.18 L 53.40 166.62 L 50.94 164.83 L 47.12 161.76 L 44.17 159.11 L 41.60 156.57 L 39.72 154.56 L 36.88 151.24 L 34.47 148.13 L 31.60 143.96 L 28.47 138.66 L 26.05 133.82 L 23.89 128.64 L 21.71 121.96 L 20.82 118.55 L 20.57 116.38 L 20.57 114.77 L 20.93 113.10 L 21.61 112.46 L 22.59 112.13 L 24.07 112.42 L 24.87 112.83 L 25.32 113.60 L 26.10 115.36 L 26.91 118.81 L 28.61 124.48 L 30.62 129.69 L 31.94 132.59 L 34.54 137.56 L 36.83 141.29 L 40.22 146.05 L 45.00 151.68 L 49.82 156.36 L 55.30 160.80 L 58.90 163.29 L 62.95 165.99 L 68.81 168.61 L 73.47 170.71 L 77.02 171.83 L 80.06 172.79 L 83.89 173.75 L 87.78 174.49 L 92.18 175.05 L 94.54 175.00 L 96.27 174.50 L 97.53 172.90 L 97.30 171.50 L 96.29 170.48 L 93.92 169.37 L 92.51 169.23 L 87.68 168.53 L 82.45 167.38 L 77.73 165.97 L 74.25 164.69 L 69.82 162.74 L 66.52 161.04 L 62.94 158.94 L 59.09 156.32 L 55.08 153.18 L 51.92 150.34 L 49.19 147.61 L 46.88 145.01 L 44.85 142.49 L 42.50 139.25 L 40.40 135.99 L 38.54 132.72 L 36.06 127.55 L 34.48 123.56 L 32.61 118.18 L 32.30 115.92 L 32.77 114.57 L 33.44 113.41 L 34.50 112.68 L 35.83 112.58 L 37.09 113.34 L 37.90 114.59 L 39.55 120.35 L 42.92 128.46 L 48.35 137.41 L 54.90 145.09 L 62.20 151.36 L 65.85 153.86 L 74.61 158.50 L 81.63 161.08 L 89.85 162.97 L 94.63 163.75 L 102.42 163.75 L 106.18 163.49 L 113.44 162.37 L 120.78 160.32 L 126.51 158.04 L 132.38 154.99 L 137.65 151.53 L 142.94 147.22 L 146.20 144.06 L 149.34 140.50 L 152.30 136.62 L 154.93 132.54 L 157.00 128.78 L 158.95 124.54 L 160.21 121.27 L 162.03 115.21 L 162.51 113.08 L 163.12 109.34 L 163.27 106.64 L 163.05 104.76 L 161.95 103.52 L 160.13 103.65 L 158.55 104.58 L 157.67 106.51 L 157.20 109.71 L 156.26 114.20 L 155.01 118.43 L 153.50 122.43 L 151.52 126.64 L 149.07 130.92 L 146.63 134.49 L 143.05 138.85 L 138.53 143.34 L 134.96 146.25 L 131.50 148.67 L 127.23 151.18 L 122.66 153.35 L 116.47 155.57 L 112.76 156.54 L 109.70 157.13 L 108.73 157.37 L 107.20 157.48 L 105.72 157.26 L 104.87 156.93 L 104.30 156.25 L 104.04 155.18 L 104.23 154.17 L 105.20 152.50 L 107.22 151.61 L 110.97 150.94 L 118.27 148.81 L 123.52 146.52 L 128.32 143.76 L 132.17 141.03 L 135.11 138.55 L 138.83 134.80 L 141.73 131.28 L 145.26 125.93 L 146.76 123.12 L 148.71 118.70 L 150.00 114.90 L 151.62 107.64 L 152.18 101.22 L 152.09 96.77 L 151.67 92.55 L 150.68 87.49 L 149.27 82.75 L 146.99 77.24 L 144.17 72.16 L 141.75 68.65 L 138.59 64.84 L 133.65 60.08 L 129.92 57.22 L 124.69 54.00 L 119.04 51.38 L 114.37 49.81 L 109.34 48.71 L 107.16 48.67 L 105.32 49.38 L 104.03 50.82 L 104.45 53.08 L 106.18 54.05 L 110.80 54.91 L 115.32 56.24 L 119.81 58.08 L 126.03 61.63 L 130.65 65.20 L 134.27 68.77 L 137.82 73.18 L 140.82 78.01 L 142.76 82.09 L 144.69 87.66 L 145.65 91.93 L 146.04 94.73 L 145.32 96.94 L 143.34 97.70 L 141.80 97.69 L 140.29 95.80 L 139.90 93.01 L 138.63 87.78 L 136.63 82.68 L 132.92 76.37 L 129.99 72.75 L 124.61 67.80 L 118.92 64.16 L 115.09 62.39 L 109.18 60.54 L 104.74 59.76 L 100.04 59.49 L 94.64 59.85 L 88.90 61.05 L 85.32 62.25 L 79.92 64.84 L 76.14 67.30 L 72.49 70.31 L 69.73 73.15 L 67.78 75.52 L 65.91 78.22 L 64.84 80.00 L 63.52 82.51 L 62.12 85.82 L 61.31 88.21 L 60.63 90.79 L 60.75 92.95 L 61.49 94.10 L 62.78 94.68 L 64.87 94.33 L 66.21 92.58 L 66.41 91.70 L 67.14 89.15 L 68.22 86.30 L 69.76 83.16 L 71.98 79.67 L 73.33 77.92 L 74.44 76.65 L 76.68 74.39 L 79.00 72.45 L 81.49 70.72 L 84.27 69.13 L 87.59 67.65 L 89.97 66.82 L 93.30 65.99 L 95.36 65.86 L 96.94 66.21 L 97.70 67.26 L 97.67 69.12 L 97.32 70.89 L 95.58 71.52 L 93.58 71.91 L 89.93 73.01 L 87.09 74.25 L 84.43 75.77 L 82.63 77.04 L 80.64 78.69 L 77.98 81.46 L 76.74 83.07 L 75.10 85.58 L 73.94 87.82 L 73.07 89.90 L 72.78 91.54 L 72.62 93.15 L 73.69 94.53 L 75.08 95.00 L 76.74 94.44 L 78.13 93.16 L 78.94 90.95 L 80.69 87.63 L 82.57 85.08 L 84.21 83.36 L 86.21 81.66 L 88.92 79.89 L 91.64 78.61 L 95.86 77.40 L 98.95 77.04 L 103.22 77.24 L 107.41 78.23 L 111.90 80.32 L 114.81 82.41 L 118.40 86.21 L 120.47 89.53 L 121.83 92.80 L 122.21 94.26 L 122.87 95.54 L 123.71 96.44 L 124.70 97.30 L 125.93 97.48 L 127.70 96.55 L 128.18 95.45 L 128.09 93.50 L 127.25 90.59 L 126.09 87.72 L 124.84 85.36 L 123.07 82.70 L 121.26 80.52 L 119.20 78.47 L 116.85 76.59 L 114.74 75.22 L 112.39 73.96 L 110.43 73.12 L 107.86 72.26 L 106.14 71.89 L 104.82 71.38 L 104.10 70.27 L 103.79 69.02 L 104.04 67.24 L 104.73 66.18 L 106.18 65.88 L 107.52 66.15 L 110.14 66.84 L 114.01 68.27 L 116.69 69.60 L 119.31 71.19 L 122.35 73.48 L 124.52 75.47 L 126.32 77.41 L 128.44 80.14 L 130.36 83.24 L 131.62 85.75 L 133.26 90.18 L 134.34 95.23 L 134.66 99.95 L 134.52 103.13 L 134.05 106.43 L 133.21 109.89 L 132.01 113.25 L 130.44 116.52 L 128.96 119.00 L 127.33 121.26 L 125.35 123.56 L 122.93 125.93 L 120.98 127.52 L 117.49 129.86 L 114.37 131.47 L 111.05 132.77 L 107.87 133.68 L 106.26 134.29 L 104.74 135.50 L 104.15 137.01 L 104.15 138.28 L 104.72 139.54 L 105.61 139.87 L 106.81 139.85 L 108.36 139.56 L 110.98 138.91 L 113.82 138.00 L 118.91 135.75 L 123.63 132.82 L 126.08 130.92 L 129.72 127.46 L 131.78 125.05 L 134.54 121.10 L 136.98 116.48 L 138.73 111.80 L 139.61 108.41 L 140.30 106.69 L 141.54 104.67 L 142.50 103.91 L 144.20 103.93 L 145.53 104.31 L 145.99 105.68 L 145.55 108.52 L 144.64 112.39 L 142.39 118.68 L 139.75 123.78 L 136.20 128.87 L 130.91 134.46 L 127.22 137.45 L 121.45 141.02 L 117.87 142.69 L 112.95 144.42 L 106.18 145.85 L 102.57 146.19 L 96.92 146.16 L 91.76 145.51 L 86.39 144.20 L 82.38 142.76 L 78.38 140.89 L 73.96 138.22 L 70.57 135.68 L 68.23 133.61 L 66.69 132.09 L 65.04 130.28 L 62.80 127.49 L 60.62 124.54 L 58.89 121.12 L 57.30 118.07 L 56.57 115.59 L 56.75 113.73 L 57.53 112.82 L 58.47 112.57 L 59.40 112.48 L 60.28 112.63 L 61.03 113.05 L 62.27 114.47 L 63.30 116.92 L 64.62 119.53 L 66.24 122.21 L 68.30 125.04 L 69.96 127.02 L 72.02 129.15 L 73.80 130.76 L 76.66 132.98 L 79.29 134.69 L 81.15 135.74 L 84.77 137.43 L 86.98 138.26 L 89.52 139.03 L 92.59 139.72 L 94.93 139.91 L 96.09 139.64 L 97.07 138.79 L 97.38 137.41 L 96.94 135.76 L 95.95 134.87 L 94.64 134.15 L 93.52 133.96 L 91.57 133.53 L 88.69 132.66 L 85.43 131.34 L 82.55 129.83 L 80.11 128.26 L 78.26 126.87 L 76.05 124.92 L 74.18 122.97 L 72.65 121.13 L 71.33 119.59 L 70.26 117.64 L 69.81 115.95 L 69.67 114.34 L 70.70 112.87 L 71.72 112.48 L 73.44 112.62 L 74.84 113.85 L 75.89 115.60 L 77.53 117.89 L 79.16 119.76 L 81.53 121.99 L 83.74 123.67 L 86.04 125.10 L 89.14 126.59 L 93.09 127.88 L 95.45 128.36 L 97.65 128.63 L 100.04 128.73 L 103.36 128.54 L 106.18 128.06 L 108.88 127.34 L 111.54 126.34 L 114.00 125.11 L 116.69 123.43 L 119.10 121.52 L 121.41 119.22 L 123.13 117.13 L 125.32 113.71 L 126.25 111.68 L 127.14 109.74 L 127.96 106.99 L 128.23 105.73 L 128.22 104.62 L 127.96 104.00 L 127.30 103.56 L 126.46 103.28 L 125.25 103.41 L 123.92 104.10 L 122.97 105.02 L 122.00 106.58 L 121.28 108.59 L 120.20 110.89 L 119.00 112.86 L 116.26 116.17 L 114.16 118.02 L 111.66 119.72 L 108.56 121.25 L 105.21 122.30 L 101.44 122.84 L 97.36 122.73 L 93.74 122.00 L 91.21 121.12 L 88.74 119.92 L 86.43 118.42 L 84.63 116.95 L 82.36 114.56 L 80.46 111.90 L 79.16 109.44 L 78.53 107.92 L 77.43 106.90 L 75.43 106.90 L 73.12 106.90 L 68.21 106.89 L 62.14 106.90 L 57.97 106.89 L 53.07 106.89 L 50.26 106.90 L 49.03 107.65 L 48.75 109.36 L 49.28 111.91 L 50.18 115.26 L 51.69 119.50 L 53.43 123.34 L 54.96 126.17 L 57.02 129.43 L 58.84 131.93 L 61.85 135.47 L 64.69 138.30 L 68.15 141.22 L 70.78 143.12 L 74.79 145.59 L 77.60 147.03 L 82.85 149.19 L 88.90 150.90 L 92.69 151.59 L 95.47 151.90 L 96.22 152.47 L 97.18 153.59 L 97.38 154.67 L 97.18 156.29 L 96.59 157.34 L 94.64 157.69 L 92.20 157.41 L 86.37 156.32 L 80.54 154.57 L 73.14 151.33 L 65.30 146.39 L 59.03 140.96 L 53.82 134.98 L 48.75 127.03 L 44.63 117.06 L 42.69 107.96 L 42.15 107.21 L 40.07 106.65 L 28.54 106.76 L 18.27 106.85 L 10.25 106.76 L 10.35 107.93 L 10.49 109.37 L 13.76 109.02 L 10.49 109.37 L 11.96 118.67 L 15.18 117.99 L 11.96 118.67 L 14.39 127.78 L 17.53 126.76 L 14.39 127.78 L 17.77 136.58 L 20.79 135.24 L 17.77 136.58 L 22.05 144.98 L 24.91 143.33 L 22.05 144.98 L 27.18 152.89 L 29.85 150.94 L 27.18 152.89 L 33.11 160.21 L 35.56 158.00 L 33.11 160.21 L 39.77 166.88 L 41.98 164.42 L 39.77 166.88 L 47.10 172.81 L 49.04 170.14 L 47.10 172.81 L 55.01 177.95 L 56.66 175.09 L 55.01 177.95 L 63.41 182.23 L 64.75 179.21 L 63.41 182.23 L 72.21 185.60 L 73.23 182.46 L 72.21 185.60 L 81.32 188.04 L 82.00 184.81 L 81.32 188.04 L 90.63 189.51 L 90.97 186.23 L 90.63 189.51 L 100.04 190.00 L 100.04 186.71 L 100.04 190.00 L 109.45 189.50 L 109.10 186.24 L 109.45 189.50 L 118.76 188.02 L 118.08 184.81 L 118.76 188.02 L 127.86 185.58 L 126.85 182.46 L 127.86 185.58 L 136.66 182.20 L 135.32 179.20 L 136.66 182.20 L 145.05 177.92 L 143.42 175.08 L 145.05 177.92 L 152.95 172.78 L 151.03 170.14 L 152.95 172.78 L 160.27 166.84 L 158.09 164.42 L 160.27 166.84 L 166.92 160.18 L 164.51 158.00 L 166.92 160.18 L 172.85 152.85 L 170.23 150.95 L 172.85 152.85 L 177.97 144.95 L 175.17 143.33 L 177.97 144.95 L 182.24 136.55 L 179.29 135.24 L 182.24 136.55 L 185.61 127.76 L 182.55 126.76 L 185.61 127.76 L 188.05 118.66 L 184.89 117.99 L 188.05 118.66 L 189.54 109.10 L 186.32 109.02 L 189.51 109.35 L 190.00 99.96 L 186.80 99.95 L 190.00 99.96 L 189.50 90.55 L 186.32 90.89 L 189.50 90.55 L 188.02 81.25 L 184.90 81.91 L 188.02 81.25 L 185.59 72.16 L 182.54 73.14 L 185.59 72.16 L 182.21 63.37 L 179.29 64.67 L 182.21 63.37 L 177.93 54.98 L 175.17 56.57 L 177.93 54.98 L 172.80 47.09 L 170.23 48.96 L 172.80 47.09 L 166.87 39.77 L 164.51 41.90 L 166.87 39.77 L 160.03 32.94 L 158.09 35.48 L 160.22 33.11 L 152.90 27.19 L 151.03 29.77 L 152.90 27.19 L 145.01 22.06 L 143.41 24.82 L 145.01 22.06 L 136.62 17.79 L 135.33 20.70 L 136.62 17.79 L 127.83 14.41 L 126.85 17.44 L 127.83 14.41 L 118.74 11.97 L 118.08 15.10 L 118.74 11.97 L 109.44 10.50 L 109.11 13.67 L 109.44 10.50 L 100.04 10.00 L 100.04 13.20 L 100.04 10.00 L 90.38 10.52 L 90.97 13.67 L 90.63 10.49 L 81.34 11.96 L 82.00 15.09 L 81.34 11.96 L 71.99 14.47 L 73.23 17.45 L 72.24 14.39 L 63.44 17.76 L 64.75 20.70 L 63.44 17.76 L 54.81 22.17 L 56.66 24.82 L 55.05 22.03 L 46.94 27.30 L 49.05 29.77 L 47.14 27.16 L 39.82 33.08 L 41.99 35.48 L 39.82 33.08 L 32.98 39.93 L 35.56 41.90 L 33.16 39.73 L 27.22 47.05 L 29.85 48.96 L 27.22 47.05 L 22.09 54.95 L 24.91 56.58 L 22.09 54.95 L 17.80 63.34 L 20.78 64.66 L 17.80 63.34 L 14.42 72.13 L 17.53 73.15 L 14.42 72.13 L 11.92 81.50 L 15.18 81.91 L 11.98 81.24 L 10.47 90.80 L 13.76 90.88 L 10.50 90.54 L 10.00 99.96 L 13.29 99.95 L 10.00 99.96 L 10.13 104.84 L 11.08 113.88 L 14.32 113.37 L 11.08 113.88 L 13.02 123.10 L 16.20 122.26 L 13.02 123.10 L 15.91 132.07 L 18.99 130.90 L 15.91 132.07 L 19.73 140.70 L 22.67 139.20 L 19.73 140.70 L 24.42 148.87 L 27.19 147.07 L 24.42 148.87 L 29.94 156.50 L 32.52 154.43 L 29.94 156.50 L 36.24 163.52 L 38.58 161.19 L 36.24 163.52 L 43.23 169.84 L 45.32 167.28 L 43.23 169.84 L 50.85 175.40 L 52.66 172.63 L 50.85 175.40 L 59.01 180.12 L 60.51 177.18 L 59.01 180.12 L 67.61 183.97 L 68.80 180.89 L 67.61 183.97 L 76.58 186.90 L 77.44 183.71 L 76.58 186.90 L 85.79 188.87 L 86.32 185.61 L 85.79 188.87 L 95.16 189.87 L 95.35 186.58 L 95.16 189.87 L 104.59 189.88 L 104.42 186.59 L 104.59 189.88 L 113.97 188.91 L 113.46 185.66 L 113.97 188.91 L 123.19 186.96 L 122.34 183.79 L 123.19 186.96 L 132.15 184.06 L 130.99 181.00 L 132.15 184.06 L 140.77 180.24 L 139.28 177.32 L 140.77 180.24 L 148.93 175.54 L 147.16 172.79 L 148.93 175.54 L 156.56 170.00 L 154.52 167.47 L 156.56 170.00 L 163.57 163.71 L 161.27 161.40 L 163.57 163.71 L 169.88 156.72 L 167.36 154.66 L 169.88 156.72 L 175.42 149.10 L 172.71 147.33 L 175.42 149.10 L 180.15 140.94 L 177.26 139.47 L 180.15 140.94 L 183.99 132.34 L 180.97 131.18 L 183.99 132.34 L 186.91 123.39 L 183.80 122.55 L 186.91 123.39 L 188.88 114.18 L 185.69 113.67 L 188.88 114.18 L 189.88 104.56 L 186.66 104.64 L 189.87 104.82 L 189.88 95.40 L 186.68 95.57 L 189.88 95.40 L 188.91 86.03 L 185.74 86.53 L 188.91 86.03 L 186.96 76.82 L 183.88 77.64 L 186.96 76.82 L 184.07 67.87 L 181.08 69.01 L 184.07 67.87 L 180.25 59.26 L 177.40 60.70 L 180.25 59.26 L 175.56 51.10 L 172.88 52.83 L 175.56 51.10 L 170.03 43.47 L 167.55 45.47 L 170.03 43.47 L 163.75 36.47 L 161.49 38.72 L 163.75 36.47 L 156.56 29.99 L 154.75 32.63 L 156.76 30.15 L 149.16 24.61 L 147.42 27.28 L 149.16 24.61 L 141.01 19.89 L 139.56 22.72 L 141.01 19.89 L 132.42 16.04 L 131.27 19.01 L 132.42 16.04 L 123.47 13.11 L 122.64 16.19 L 123.47 13.11 L 114.27 11.14 L 113.76 14.29 L 114.27 11.14 L 104.90 10.13 L 104.73 13.32 L 104.90 10.13 L 95.48 10.11 L 95.65 13.30 L 95.48 10.11 L 85.86 11.12 L 86.62 14.24 L 86.12 11.08 L 76.91 13.01 L 77.73 16.11 L 76.91 13.01 L 67.70 16.00 L 69.09 18.91 L 67.94 15.90 L 59.33 19.71 L 60.79 22.58 L 59.33 19.71 L 50.93 24.55 L 52.92 27.11 L 51.16 24.40 L 43.33 30.08 L 45.56 32.43 L 43.53 29.92 L 36.51 36.21 L 38.80 38.50 L 36.51 36.21 L 30.03 43.40 L 32.71 45.23 L 30.19 43.19 L 24.64 50.80 L 27.36 52.58 L 24.64 50.80 L 19.91 58.94 L 22.81 60.43 L 19.91 58.94 L 16.05 67.55 L 19.10 68.71 L 16.05 67.55 L 13.12 76.50 L 16.28 77.35 L 13.12 76.50 L 11.10 85.98 L 14.38 86.23 L 11.14 85.71 L 10.12 95.34 L 13.41 95.26 L 10.13 95.08 L 10.11 104.51 L 13.39 104.34 L 10.11 104.51 L 10.17 105.60 L 10.25 106.75 L 10.26 106.78 L 15.50 106.86 L 20.19 106.83 L 40.07 106.66 L 42.15 107.21 L 42.69 107.96 L 44.63 117.06 L 48.75 127.03 L 53.81 134.97 L 59.03 140.96 L 65.30 146.39 L 73.14 151.33 L 80.53 154.56 L 86.36 156.31 L 92.20 157.41 L 94.64 157.69 L 96.59 157.34 L 97.18 156.29 L 97.38 154.67 L 97.17 153.59 L 96.21 152.47 L 95.46 151.90 L 92.69 151.59 L 88.90 150.90 L 82.85 149.19 L 77.60 147.03 L 74.79 145.59 L 70.78 143.12 L 68.15 141.22 L 64.69 138.30 L 61.85 135.47 L 58.84 131.93 L 57.02 129.43 L 54.96 126.17 L 53.43 123.34 L 51.69 119.50 L 50.18 115.26 L 49.28 111.91 L 48.75 109.36 L 49.03 107.65 L 50.26 106.89 L 53.07 106.90 L 57.97 106.89 L 62.14 106.89 L 68.21 106.90 L 73.12 106.90 L 75.43 106.90 L 77.43 106.90 L 78.53 107.92 L 79.16 109.44 L 80.46 111.90 L 82.35 114.56 L 84.63 116.95 L 86.43 118.42 L 88.74 119.92 L 91.21 121.12 L 93.74 122.00 L 97.36 122.73 L 101.44 122.84 L 105.21 122.30 L 108.56 121.25 L 111.66 119.72 L 114.17 118.02 L 116.26 116.17 L 119.00 112.86 L 120.20 110.89 L 121.28 108.59 L 122.00 106.58 L 122.97 105.03 L 123.92 104.10 L 125.25 103.41 L 126.46 103.28 L 127.30 103.56 L 127.96 104.00 L 128.22 104.62 L 128.23 105.73 L 127.96 106.99 L 127.14 109.74 L 126.25 111.68 L 125.32 113.71 L 123.13 117.13 L 121.41 119.22 L 119.10 121.52 L 116.69 123.43 L 114.01 125.11 L 111.54 126.34 L 108.88 127.34 L 106.18 128.07 L 103.36 128.54 L 100.04 128.73 L 97.65 128.63 L 95.44 128.36 L 93.09 127.88 L 89.14 126.59 L 86.04 125.10 L 83.74 123.67 L 81.53 121.99 L 79.16 119.76 L 77.53 117.89 L 75.89 115.60 L 74.84 113.85 L 73.44 112.62 L 71.73 112.48 L 70.70 112.87 L 69.68 114.34 L 69.81 115.95 L 70.26 117.64 L 71.33 119.59 L 72.65 121.13 L 74.18 122.98 L 76.05 124.92 L 78.26 126.87 L 80.11 128.26 L 82.55 129.83 L 85.43 131.34 L 88.69 132.66 L 91.57 133.53 L 93.52 133.96 L 94.64 134.15 L 95.96 134.87 L 96.94 135.76 L 97.39 137.41 L 97.07 138.79 L 96.09 139.64 L 94.93 139.91 L 92.59 139.72 L 89.52 139.03 L 86.98 138.26 L 84.77 137.43 L 81.15 135.74 L 79.29 134.69 L 76.66 132.98 L 73.80 130.75 L 72.02 129.15 L 69.96 127.02 L 68.30 125.04 L 66.24 122.21 L 64.62 119.53 L 63.30 116.92 L 62.27 114.47 L 61.03 113.05 L 60.28 112.63 L 59.40 112.48 L 58.47 112.57 L 57.53 112.82 L 56.75 113.73 L 56.57 115.59 L 57.30 118.07 L 58.89 121.12 L 60.62 124.53 L 62.80 127.48 L 65.03 130.27 L 66.69 132.09 L 68.23 133.61 L 70.57 135.68 L 73.96 138.23 L 78.38 140.89 L 82.38 142.76 L 86.39 144.20 L 91.77 145.51 L 96.92 146.16 L 102.57 146.19 L 106.18 145.85 L 112.95 144.42 L 117.87 142.69 L 121.45 141.02 L 127.22 137.45 L 130.91 134.46 L 136.20 128.87 L 139.75 123.78 L 142.39 118.68 L 144.64 112.39 L 145.55 108.52 L 145.99 105.68 L 145.53 104.31 L 144.20 103.93 L 142.50 103.91 L 141.54 104.68 L 140.30 106.69 L 139.61 108.41 L 138.74 111.79 L 136.98 116.48 L 134.54 121.10 L 131.78 125.05 L 129.72 127.46 L 126.08 130.92 L 123.63 132.83 L 118.91 135.74 L 113.82 138.00 L 110.98 138.91 L 108.36 139.55 L 106.81 139.85 L 105.61 139.87 L 104.72 139.54 L 104.15 138.28 L 104.16 137.01 L 104.74 135.50 L 106.27 134.29 L 107.87 133.68 L 111.05 132.77 L 114.37 131.47 L 117.49 129.86 L 120.98 127.52 L 122.93 125.93 L 125.36 123.56 L 127.33 121.26 L 128.96 119.00 L 130.44 116.52 L 132.01 113.25 L 133.21 109.89 L 134.05 106.43 L 134.52 103.13 L 134.66 99.95 L 134.34 95.23 L 133.26 90.18 L 131.61 85.75 L 130.36 83.24 L 128.44 80.14 L 126.32 77.41 L 124.52 75.47 L 122.35 73.48 L 119.31 71.19 L 116.69 69.59 L 114.01 68.27 L 110.14 66.84 L 107.52 66.15 L 106.18 65.88 L 104.73 66.18 L 104.04 67.24 L 103.79 69.02 L 104.10 70.27 L 104.82 71.38 L 106.14 71.89 L 107.86 72.26 L 110.43 73.12 L 112.39 73.96 L 114.74 75.21 L 116.85 76.59 L 119.19 78.47 L 121.26 80.52 L 123.07 82.70 L 124.84 85.36 L 126.09 87.72 L 127.25 90.59 L 128.09 93.50 L 128.18 95.45 L 127.70 96.55 L 125.93 97.48 L 124.70 97.30 L 123.71 96.44 L 122.87 95.53 L 122.21 94.25 L 121.83 92.80 L 120.47 89.53 L 118.40 86.21 L 114.81 82.41 L 111.90 80.32 L 107.41 78.23 L 103.22 77.24 L 98.95 77.04 L 95.87 77.40 L 91.64 78.61 L 88.92 79.89 L 86.21 81.66 L 84.21 83.36 L 82.57 85.09 L 80.69 87.63 L 78.94 90.95 L 78.13 93.16 L 76.74 94.44 L 75.08 95.00 L 73.69 94.53 L 72.62 93.15 L 72.78 91.54 L 73.07 89.90 L 73.94 87.82 L 75.10 85.58 L 76.74 83.07 L 77.99 81.46 L 80.64 78.69 L 82.63 77.04 L 84.44 75.77 L 87.09 74.25 L 89.93 73.01 L 93.58 71.91 L 95.58 71.52 L 97.32 70.89 L 97.67 69.12 L 97.70 67.26 L 96.94 66.21 L 95.36 65.86 L 93.30 65.99 L 89.97 66.82 L 87.60 67.65 L 84.27 69.13 L 81.49 70.72 L 79.00 72.45 L 76.68 74.40 L 74.44 76.65 L 73.33 77.92 L 71.98 79.67 L 69.76 83.15 L 68.22 86.30 L 67.14 89.15 L 66.41 91.70 L 66.21 92.58 L 64.87 94.33 L 62.78 94.68 L 61.49 94.10 L 60.75 92.94 L 60.63 90.79 L 61.31 88.21 L 62.12 85.82 L 63.52 82.51 L 64.84 80.00 L 65.91 78.22 L 67.78 75.53 L 69.73 73.15 L 72.49 70.32 L 76.14 67.30 L 79.92 64.84 L 85.32 62.25 L 88.90 61.05 L 94.64 59.85 L 100.04 59.49 L 104.74 59.76 L 109.18 60.54 L 115.09 62.39 L 118.91 64.16 L 124.62 67.81 L 129.99 72.74 L 132.92 76.37 L 136.63 82.68 L 138.63 87.78 L 139.90 93.01 L 140.29 95.80 L 141.80 97.69 L 143.34 97.70 L 145.32 96.94 L 146.04 94.73 L 145.65 91.93 L 144.69 87.66 L 142.76 82.09 L 140.82 78.01 L 137.83 73.18 L 134.27 68.76 L 130.65 65.21 L 126.03 61.63 L 119.81 58.08 L 115.32 56.24 L 110.80 54.91 L 106.18 54.05 L 104.45 53.08 L 104.03 50.82 L 105.32 49.38 L 107.16 48.67 L 109.34 48.71 L 114.37 49.81 L 119.04 51.39 L 124.69 54.00 L 129.92 57.22 L 133.64 60.08 L 138.59 64.84 L 141.74 68.64 L 144.17 72.16 L 146.99 77.24 L 149.27 82.75 L 150.68 87.48 L 151.67 92.55 L 152.09 96.77 L 152.18 101.22 L 151.62 107.64 L 150.00 114.90 L 148.71 118.70 L 146.76 123.12 L 145.26 125.94 L 141.73 131.28 L 138.83 134.80 L 135.11 138.56 L 132.17 141.03 L 128.32 143.76 L 123.53 146.52 L 118.27 148.81 L 110.97 150.94 L 107.22 151.61 L 105.20 152.50 L 104.23 154.17 L 104.03 155.18 L 104.30 156.25 L 104.87 156.93 L 105.71 157.26 L 107.20 157.48 L 108.73 157.37 L 109.70 157.13 L 112.76 156.54 L 116.47 155.57 L 122.67 153.35 L 127.23 151.17 L 131.50 148.67 L 134.96 146.25 L 138.52 143.34 L 143.05 138.85 L 146.62 134.49 L 149.07 130.93 L 151.53 126.64 L 153.50 122.43 L 155.01 118.42 L 156.26 114.20 L 157.20 109.71 L 157.67 106.51 L 158.56 104.58 L 160.13 103.65 L 161.96 103.52 L 163.04 104.77 L 163.27 106.63 L 163.12 109.34 L 162.51 113.09 L 162.03 115.21 L 160.21 121.27 L 158.95 124.54 L 157.00 128.79 L 154.93 132.54 L 152.30 136.62 L 149.34 140.51 L 146.19 144.06 L 142.94 147.22 L 137.66 151.53 L 132.38 154.99 L 126.51 158.04 L 120.78 160.32 L 113.44 162.37 L 106.18 163.49 L 102.42 163.75 L 94.63 163.75 L 89.85 162.97 L 81.63 161.08 L 74.60 158.50 L 65.85 153.86 L 62.19 151.36 L 54.90 145.09 L 48.35 137.41 L 42.92 128.47 L 39.55 120.35 L 37.90 114.59 L 37.09 113.34 L 35.83 112.58 L 34.50 112.69 L 33.44 113.41 L 32.78 114.58 L 32.30 115.92 L 32.61 118.18 L 34.48 123.56 L 36.06 127.55 L 38.54 132.71 L 40.40 135.99 L 42.49 139.25 L 44.85 142.50 L 46.88 145.01 L 49.20 147.61 L 51.92 150.35 L 55.08 153.18 L 59.08 156.32 L 62.94 158.94 L 66.51 161.04 L 69.82 162.74 L 74.25 164.69 L 77.74 165.97 L 82.45 167.37 L 87.68 168.53 L 92.52 169.23 L 93.92 169.37 L 96.29 170.48 L 97.30 171.50 L 97.53 172.90 L 96.27 174.50 L 94.54 175.00 L 92.18 175.05 L 87.78 174.49 L 83.89 173.75 L 80.06 172.79 L 77.02 171.83 L 73.47 170.71 L 68.82 168.61 L 62.95 165.99 L 58.90 163.29 L 55.30 160.80 L 49.82 156.36 L 45.01 151.68 L 40.22 146.05 L 36.83 141.28 L 34.54 137.56 L 31.93 132.59 L 30.62 129.69 L 28.60 124.47 L 26.91 118.81 L 26.11 115.36 L 25.32 113.60 L 24.88 112.83 L 24.07 112.41 L 22.59 112.14 L 21.61 112.46 L 20.93 113.10 L 20.57 114.77 L 20.57 116.38 L 20.82 118.56 L 21.71 121.96 L 23.90 128.64 L 26.05 133.81 L 28.47 138.66 L 31.60 143.96 L 34.47 148.13 L 36.88 151.25 L 39.72 154.56 L 41.60 156.57 L 44.17 159.11 L 47.13 161.77 L 50.94 164.84 L 53.39 166.62 L 55.70 168.18 L 58.87 170.14 L 63.66 172.73 L 68.23 174.84 L 72.31 176.45 L 76.11 177.72 L 81.39 179.16 L 88.57 180.51 L 93.48 181.05 L 97.86 181.29 L 103.23 181.26 L 110.64 180.62 L 120.55 178.69 L 126.68 176.83 L 135.05 173.41 L 140.74 170.41 L 146.89 166.48 L 153.34 161.44 L 160.36 154.56 L 166.15 147.38 L 171.16 139.48 L 173.64 134.63 L 175.35 130.75 L 176.41 128.01 L 178.14 122.77 L 179.62 116.93 L 180.44 112.44 L 180.93 108.72 L 181.13 106.63 L 180.82 105.27 L 179.80 104.02 L 178.27 104.06 L 176.94 104.50 L 176.43 105.42 L 175.37 107.20 L 174.97 109.37 L 174.08 114.87 L 173.19 118.70 L 171.08 125.59 L 167.99 132.90 L 164.39 139.48 L 161.17 144.30 L 156.96 149.58 L 153.32 153.23 L 147.87 158.40 L 141.24 163.24 L 134.75 167.03 L 128.07 170.08 L 121.87 172.25 L 115.13 173.95 L 111.39 174.62 L 108.31 175.02 L 105.79 175.26 L 104.23 174.45 L 103.97 172.67 L 104.72 170.65 L 105.66 169.84 L 107.29 169.28 L 109.14 169.04 L 116.04 167.77 L 124.99 165.01 L 131.74 162.01 L 139.44 157.42 L 146.08 152.25 L 151.74 146.67 L 157.63 139.17 L 161.86 132.11 L 165.51 123.81 L 167.74 116.42 L 169.11 109.15 L 169.70 101.47 L 169.68 97.66 L 168.81 88.78 L 167.56 82.74 L 165.02 74.80 L 162.53 69.12 L 160.48 65.27 L 157.40 60.38 L 154.87 56.95 L 149.31 50.68 L 143.93 45.84 L 136.72 40.71 L 131.18 37.62 L 126.07 35.32 L 119.53 33.05 L 112.85 31.46 L 109.24 30.88 L 106.88 30.61 L 105.02 31.18 L 104.42 33.28 L 104.72 34.57 L 105.26 35.71 L 107.96 36.62 L 112.11 37.27 L 115.17 37.94 L 118.89 38.97 L 125.04 41.21 L 130.14 43.65 L 135.93 47.16 L 140.72 50.75 L 146.17 55.82 L 148.80 58.75 L 152.47 63.53 L 156.17 69.55 L 158.71 74.80 L 160.67 79.96 L 162.17 85.30 L 162.93 89.00 L 163.58 93.83 L 163.46 96.26 L 162.16 97.16 L 160.03 97.52 L 158.49 96.69 L 157.76 94.26 L 157.32 90.85 L 156.73 87.73 L 155.93 84.50 L 154.94 81.26 L 153.51 77.48 L 151.75 73.69 L 149.88 70.31 L 146.76 65.61 L 143.64 61.70 L 141.98 59.89 L 139.18 57.16 L 136.17 54.58 L 132.28 51.74 L 127.31 48.76 L 122.97 46.69 L 117.70 44.71 L 112.75 43.37 L 106.18 42.28 L 100.04 41.96 L 94.64 41.95 L 89.32 42.96 L 82.36 44.72 L 76.50 46.95 L 68.56 51.24 L 62.49 55.75 L 55.41 62.91 L 52.18 67.20 L 49.91 70.78 L 47.64 75.11 L 45.37 80.57 L 43.62 86.52 L 43.03 89.28 L 42.74 91.01 L 41.30 93.76 L 40.28 94.26 L 39.19 94.31 L 37.64 93.30 L 36.95 92.26 L 36.84 90.93 L 37.24 88.27 L 38.08 84.59 L 39.50 79.69 L 40.78 76.21 L 43.74 69.86 L 46.83 64.69 L 49.74 60.65 L 53.21 56.56 L 58.03 51.89 L 61.95 48.72 L 65.21 46.46 L 70.58 43.32 L 74.24 41.56 L 78.51 39.85 L 83.35 38.34 L 89.23 37.03 L 94.63 36.34 L 96.53 35.41 L 97.47 33.99 L 97.72 32.59 L 96.57 31.32 L 95.00 30.81 L 92.72 30.61 L 87.25 31.45 L 81.37 32.82 L 77.02 34.18 L 69.71 37.22 L 64.20 40.19 L 59.21 43.49 L 54.32 47.36 L 48.57 52.98 L 44.64 57.69 L 41.66 61.90 L 37.95 68.31 L 34.69 75.78 L 33.01 80.88 L 31.67 86.48 L 30.90 91.26 L 30.69 92.52 L 30.16 93.45 L 29.19 93.96 L 27.20 94.33 L 25.96 93.41 L 25.19 91.93 L 25.23 89.62 L 25.98 85.14 L 26.61 82.28 L 27.64 78.44 L 29.07 74.13 L 32.18 66.79 L 34.59 62.27 L 36.82 58.63 L 39.10 55.35 L 41.49 52.23 L 44.32 48.97 L 48.12 45.11 L 53.27 40.65 L 56.78 38.05 L 59.77 36.06 L 66.30 32.39 L 74.55 28.86 L 79.94 27.15 L 89.26 25.20 L 94.64 24.62 L 100.04 24.43 L 106.18 24.43 L 112.24 25.42 L 118.71 26.77 L 127.60 29.64 L 137.59 34.43 L 144.15 38.66 L 151.67 44.84 L 158.00 51.53 L 162.98 58.21 L 167.89 66.79 L 171.60 75.82 L 173.82 83.83 L 174.66 88.29 L 175.22 92.84 L 175.41 95.23 L 177.39 97.01 L 179.39 97.21 L 180.73 96.52 L 181.06 94.90 L 181.06 92.50 L 180.41 87.28 L 179.08 80.63 L 177.35 74.58 L 172.46 62.86 L 169.16 57.02 L 164.56 50.39 L 161.16 46.24 L 156.66 41.51 L 152.32 37.60 L 146.91 33.44 L 141.12 29.71 L 132.85 25.50 L 124.32 22.30 L 117.66 20.51 L 111.79 19.43 L 104.32 18.70 L 94.63 18.69 L 88.90 19.35 L 81.46 20.74 L 71.82 23.64 L 61.59 28.25 L 51.09 34.96 L 45.91 39.20 L 40.41 44.60 L 33.96 52.48 L 28.89 60.48 L 25.29 67.81 L 20.99 80.68 L 19.51 88.31 L 18.87 94.23 L 18.70 97.85 L 19.16 98.90 L 20.05 99.67 L 21.03 99.95 L 25.85 99.95 L 32.19 99.95 L 40.38 99.95 L 46.08 99.95 L 46.94 99.92 L 47.42 99.53 L 47.90 98.84 L 48.02 96.25 L 48.72 90.68 L 50.17 84.69 L 52.21 79.16 L 55.25 73.23 L 57.80 69.37 L 60.50 65.95 L 64.99 61.33 L 70.09 57.26 L 73.17 55.25 L 78.54 52.43 L 83.82 50.39 L 88.15 49.17 L 91.61 48.49 L 93.60 48.20 L 96.40 48.43 L 97.04 49.52 L 97.17 51.40 L 95.98 52.76 L 93.95 54.03 L 90.41 54.65 L 86.80 55.58 L 83.35 56.75 L 79.53 58.44 L 75.12 60.91 L 69.57 65.07 L 65.60 68.98 L 60.70 75.52 L 57.91 80.73 L 56.21 85.00 L 54.06 94.43 L 53.89 96.06 L 53.76 99.24 L 53.99 99.79 L 54.46 99.95 L 55.09 99.95 L 55.68 99.95 L 64.27 99.95 L 72.86 99.95 L 79.89 99.95 L 82.43 99.96 L 88.32 99.95 L 87.19 100.55 L 86.09 101.51 L 85.48 102.30 L 84.95 103.38 L 84.64 104.58 L 84.62 106.20 L 84.90 107.38 L 85.37 108.42 L 86.38 109.72 L 87.59 110.63 L 88.76 111.12 L 90.78 111.38 L 92.23 111.13 L 93.46 110.59 L 94.37 109.94 L 94.76 109.57 L 94.31 109.46 L 94.23 109.81 L 94.14 110.46 L 94.12 110.97 L 94.21 112.02 L 94.54 113.18 L 94.88 113.88 L 95.45 114.71 L 96.08 115.37 L 96.75 115.90 L 97.70 116.41 L 98.82 116.76 L 100.04 116.89 L 100.83 116.84 L 101.86 116.60 L 102.73 116.24 L 103.60 115.70 L 104.14 115.24 L 104.67 114.65 L 105.25 113.79 L 105.63 112.94 L 105.84 112.15 L 105.96 111.21 L 105.94 110.48 L 105.91 110.17 L 105.85 109.85 L 105.80 109.59 L 105.53 109.78 L 105.67 109.91 L 105.80 110.02 L 105.95 110.14 L 106.12 110.27 L 106.62 110.59 L 107.10 110.84 L 107.55 111.03 L 108.02 111.17 L 108.55 111.29 L 109.11 111.36 L 109.69 111.38 L 110.45 111.32 L 111.05 111.19 L 111.84 110.94 L 112.41 110.66 L 113.06 110.25 L 113.73 109.69 L 114.48 108.79 L 114.88 108.12 L 115.18 107.40 L 115.47 106.11 L 115.50 105.14 L 115.32 103.99 L 114.89 102.83 L 114.45 102.08 L 113.64 101.15 L 112.69 100.42 L 111.98 100.04 L 111.52 99.86 L 111.02 99.72 L 111.01 100.19 L 111.32 100.10 L 111.58 100.02 L 112.01 99.85 L 112.54 99.57 L 112.94 99.32 L 113.52 98.87 L 114.01 98.37 L 114.37 97.93 L 115.16 96.43 L 115.45 95.23 L 115.49 93.99 L 115.29 92.88 L 114.84 91.72 L 114.26 90.81 L 113.48 89.98 L 112.78 89.46 L 111.84 88.97 L 110.36 88.57 L 109.40 88.53 L 108.10 88.71 L 106.77 89.23 L 106.21 89.57 L 105.68 89.99 L 105.32 90.33 L 105.17 90.50 L 105.68 90.75 L 105.81 90.25 L 105.93 89.58 L 105.95 88.47 L 105.68 87.14 L 105.18 85.99 L 104.49 85.02 L 103.61 84.21 L 102.58 83.59 L 101.71 83.25 L 100.43 83.02 L 99.48 83.03 L 98.50 83.22 L 97.23 83.72 L 96.53 84.16 L 95.72 84.88 L 95.05 85.74 L 94.64 86.50 L 94.31 87.43 L 94.12 88.63 L 94.13 89.38 L 94.18 89.81 L 94.23 90.11 L 94.31 90.45 L 94.37 90.66 L 94.73 90.30 L 94.50 90.07 L 94.27 89.88 L 94.05 89.71 L 93.08 89.11 L 92.17 88.76 L 90.52 88.52 L 88.70 88.80 L 87.16 89.55 L 86.12 90.46 L 85.37 91.48 L 84.76 92.97 L 84.57 94.47 L 84.88 96.30 L 85.53 97.66 L 86.53 98.84 L 87.42 99.50 L 87.86 99.75 L 88.11 99.86 L 88.33 99.95 L 89.02 99.95 L 89.16 99.95 L 89.27 99.95 L 90.97 99.96 L 91.32 99.96 L 100.00 108.68 L 108.68 100.00 L 100.00 91.32 L 91.32 99.95 L 91.45 101.04 L 91.72 102.14 L 92.13 103.18 L 92.67 104.16 L 93.33 105.05 L 94.10 105.83 L 94.95 106.52 L 95.88 107.07 L 96.87 107.50 L 97.90 107.78 L 98.95 107.93 L 100.00 107.94 L 101.03 107.81 L 102.04 107.55 L 102.99 107.16 L 103.87 106.65 L 104.67 106.04 L 105.39 105.33 L 105.99 104.54 L 106.49 103.68 L 106.86 102.78 L 107.10 101.84 L 107.22 100.88 L 107.21 99.92 L 107.08 98.98 L 106.83 98.08 L 106.47 97.22 L 105.98 96.43 L 105.42 95.71 L 104.76 95.08 L 104.04 94.55 L 103.26 94.11 L 102.43 93.79 L 101.58 93.59 L 100.72 93.50 L 99.86 93.51 L 99.02 93.65 L 98.21 93.89 L 97.44 94.23 L 96.74 94.67 L 96.11 95.20 L 95.56 95.79 L 95.09 96.44 L 94.72 97.15 L 94.45 97.89 L 94.28 98.65 L 94.21 99.42 L 94.24 100.19 L 94.38 100.93 L 94.60 101.65 L 94.92 102.32 L 95.33 102.93 L 95.80 103.48 L 96.33 103.96 L 96.92 104.36 L 97.55 104.67 L 98.20 104.89 L 98.88 105.02 L 99.55 105.07 L 100.22 105.03 L 100.87 104.90 L 101.49 104.68 L 102.06 104.39 L 102.59 104.03 L 103.05 103.61 L 103.46 103.14 L 103.79 102.62 L 104.05 102.07 L 104.22 101.50 L 104.32 100.92 L 104.35 100.34 L 104.30 99.76 L 104.17 99.21 L 103.98 98.69 L 103.71 98.21 L 103.39 97.77 L 103.03 97.38 L 102.61 97.05 L 102.17 96.78 L 101.70 96.58 L 101.22 96.45 L 100.73 96.37 L 100.24 96.37 L 99.76 96.43 L 99.31 96.55 L 98.88 96.73 L 98.49 96.96 L 98.14 97.24 L 97.83 97.55 L 97.57 97.90 L 97.37 98.27 L 97.22 98.65 L 97.12 99.05 L 97.08 99.45 L 97.10 99.84 L 97.16 100.22 L 97.27 100.58 L 97.43 100.91 L 97.63 101.21 L 97.85 101.48 L 98.11 101.71 L 98.39 101.89 L 98.69 102.04 L 98.99 102.14 L 99.30 102.20 L 99.61 102.21 L 99.90 102.18 L 100.19 102.12 L 100.45 102.01 L 100.69 101.88 L 100.90 101.71 L 101.09 101.54 L 101.23 101.33 L 101.35 101.12 L 101.43 100.90 L 101.48 100.68 L 101.50 100.47 L 101.49 100.25 L 101.45 100.05 L 101.39 99.86 L 101.30 99.70 L 101.19 99.55 L 101.07 99.43 L 100.94 99.33 L 100.79 99.26 L 100.65 99.21 L 100.51 99.17 L 100.37 99.17 L 100.24 99.19 L 100.12 99.22 L 100.02 99.27 L 99.93 99.34 L 99.86 99.41 L 99.81 99.50 L 99.77 99.57 L 99.75 99.66 L 99.75 99.74 L 99.76 99.81 L 99.79 99.87 L 99.84 99.93 L 99.89 99.97 L 99.94 99.99 L 100.00 100.00" 
          fill="none" 
          stroke="currentColor" 
          stroke-width="0.5"/>
</svg>