<?xml version="1.0" encoding="UTF-8" standalone="no"?>
<svg width="100%" height="100%" viewBox="0 0 200 200" preserveAspectRatio="xMidYMid meet" xmlns="http://www.w3.org/2000/svg">
    <path d="M 10.00 100.00 L 10.00 100.00 L 10.05 97.14 L 10.18 94.29 L 10.41 91.44 L 10.72 88.61 L 11.13 85.78 L 11.63 82.97 L 12.21 80.17 L 12.88 77.40 L 13.65 74.64 L 14.49 71.92 L 15.43 69.22 L 16.45 66.55 L 17.55 63.92 L 18.74 61.32 L 20.00 58.76 L 21.35 56.24 L 22.78 53.77 L 24.29 51.34 L 25.87 48.96 L 27.53 46.64 L 29.26 44.37 L 31.06 42.15 L 32.93 39.99 L 34.86 37.89 L 36.87 35.86 L 38.93 33.89 L 41.06 31.98 L 43.25 30.15 L 45.50 28.38 L 47.79 26.69 L 50.15 25.07 L 52.55 23.52 L 55.00 22.06 L 57.50 20.67 L 60.03 19.36 L 62.61 18.13 L 65.23 16.99 L 67.88 15.93 L 70.56 14.95 L 73.28 14.06 L 76.02 13.25 L 78.78 12.54 L 81.57 11.91 L 84.37 11.37 L 87.19 10.92 L 90.02 10.55 L 92.87 10.28 L 95.72 10.10 L 98.57 10.01 L 101.43 10.01 L 104.28 10.10 L 107.13 10.28 L 109.98 10.55 L 112.81 10.92 L 115.63 11.37 L 118.43 11.91 L 121.22 12.54 L 123.98 13.25 L 126.72 14.06 L 129.44 14.95 L 132.12 15.93 L 134.77 16.99 L 137.39 18.13 L 139.97 19.36 L 142.50 20.67 L 145.00 22.06 L 147.45 23.52 L 149.85 25.07 L 152.21 26.69 L 154.50 28.38 L 156.75 30.15 L 158.94 31.98 L 161.07 33.89 L 163.13 35.86 L 165.14 37.89 L 167.07 39.99 L 168.94 42.15 L 170.74 44.37 L 172.47 46.64 L 174.13 48.96 L 175.71 51.34 L 177.22 53.77 L 178.65 56.24 L 180.00 58.76 L 181.26 61.32 L 182.45 63.92 L 183.55 66.55 L 184.57 69.22 L 185.51 71.92 L 186.35 74.64 L 187.12 77.40 L 187.79 80.17 L 188.37 82.97 L 188.87 85.78 L 189.28 88.61 L 189.59 91.44 L 189.82 94.29 L 189.95 97.14 L 190.00 100.00 L 190.00 100.00 L 189.95 102.86 L 189.82 105.71 L 189.59 108.56 L 189.28 111.39 L 188.87 114.22 L 188.37 117.03 L 187.79 119.83 L 187.12 122.60 L 186.35 125.36 L 185.51 128.08 L 184.57 130.78 L 183.55 133.45 L 182.45 136.08 L 181.26 138.68 L 180.00 141.24 L 178.65 143.76 L 177.22 146.23 L 175.71 148.66 L 174.13 151.04 L 172.47 153.36 L 170.74 155.63 L 168.94 157.85 L 167.07 160.01 L 165.14 162.11 L 163.13 164.14 L 161.07 166.11 L 158.94 168.02 L 156.75 169.85 L 154.50 171.62 L 152.21 173.31 L 149.85 174.93 L 147.45 176.48 L 145.00 177.94 L 142.50 179.33 L 139.97 180.64 L 137.39 181.87 L 134.77 183.01 L 132.12 184.07 L 129.44 185.05 L 126.72 185.94 L 123.98 186.75 L 121.22 187.46 L 118.43 188.09 L 115.63 188.63 L 112.81 189.08 L 109.98 189.45 L 107.13 189.72 L 104.28 189.90 L 101.43 189.99 L 98.57 189.99 L 95.72 189.90 L 92.87 189.72 L 90.02 189.45 L 87.19 189.08 L 84.37 188.63 L 81.57 188.09 L 78.78 187.46 L 76.02 186.75 L 73.28 185.94 L 70.56 185.05 L 67.88 184.07 L 65.23 183.01 L 62.61 181.87 L 60.03 180.64 L 57.50 179.33 L 55.00 177.94 L 52.55 176.48 L 50.15 174.93 L 47.79 173.31 L 45.50 171.62 L 43.25 169.85 L 41.06 168.02 L 38.93 166.11 L 36.87 164.14 L 34.86 162.11 L 32.93 160.01 L 31.06 157.85 L 29.26 155.63 L 27.53 153.36 L 25.87 151.04 L 24.29 148.66 L 22.78 146.23 L 21.35 143.76 L 20.00 141.24 L 18.74 138.68 L 17.55 136.08 L 16.45 133.45 L 15.43 130.78 L 14.49 128.08 L 13.65 125.36 L 12.88 122.60 L 12.21 119.83 L 11.63 117.03 L 11.13 114.22 L 10.72 111.39 L 10.41 108.56 L 10.18 105.71 L 10.05 102.86" 
          fill="none" 
          stroke="currentColor" 
          stroke-width="0.5"/>
</svg>