<?xml version="1.0" encoding="UTF-8" standalone="no"?>
<svg width="100%" height="100%" viewBox="0 0 200 200" preserveAspectRatio="xMidYMid meet" xmlns="http://www.w3.org/2000/svg">
    <path d="M 10.00 100.00 L 10.98 96.40 L 11.24 92.56 L 11.60 88.98 L 12.21 85.17 L 12.95 81.39 L 13.76 77.88 L 14.84 74.18 L 16.06 70.53 L 17.31 67.15 L 18.85 63.62 L 20.52 60.15 L 22.19 56.96 L 24.17 53.65 L 26.26 50.42 L 28.32 47.46 L 30.71 44.44 L 33.20 41.49 L 35.61 38.82 L 38.36 36.13 L 41.20 33.52 L 43.94 31.18 L 47.01 28.86 L 50.16 26.63 L 53.17 24.66 L 56.52 22.74 L 59.92 20.94 L 63.16 19.37 L 66.72 17.89 L 70.33 16.53 L 73.74 15.39 L 77.46 14.37 L 81.21 13.49 L 84.74 12.78 L 88.55 12.25 L 92.39 11.85 L 95.98 11.60 L 99.83 11.57 L 103.68 11.66 L 107.28 11.87 L 111.10 12.32 L 114.91 12.90 L 118.45 13.57 L 122.19 14.51 L 125.89 15.57 L 129.32 16.68 L 132.90 18.09 L 136.44 19.62 L 139.70 21.16 L 143.07 23.02 L 146.39 24.98 L 149.42 26.93 L 152.53 29.20 L 155.56 31.58 L 158.32 33.89 L 161.12 36.54 L 163.82 39.29 L 166.26 41.94 L 168.70 44.92 L 171.03 47.99 L 173.10 50.93 L 175.14 54.20 L 177.06 57.55 L 178.74 60.73 L 180.34 64.24 L 181.81 67.79 L 183.07 71.17 L 184.21 74.85 L 185.21 78.57 L 186.03 82.07 L 186.68 85.87 L 187.20 89.69 L 187.57 93.27 L 187.73 97.12 L 187.75 100.98 L 187.65 104.58 L 187.31 108.42 L 186.84 112.24 L 186.28 115.79 L 185.45 119.56 L 184.49 123.29 L 183.48 126.75 L 182.17 130.37 L 180.74 133.95 L 179.29 137.24 L 177.53 140.67 L 175.65 144.04 L 173.79 147.12 L 171.60 150.29 L 169.30 153.38 L 167.06 156.20 L 164.48 159.06 L 161.80 161.83 L 159.21 164.33 L 156.29 166.84 L 153.28 169.24 L 150.39 171.39 L 147.16 173.50 L 143.86 175.49 L 140.72 177.25 L 137.25 178.92 L 133.72 180.48 L 130.38 181.81 L 126.72 183.02 L 123.02 184.11 L 119.53 185.00 L 115.75 185.73 L 111.94 186.32 L 108.37 186.76 L 104.52 186.99 L 100.67 187.09 L 97.07 187.05 L 93.23 186.79 L 89.39 186.38 L 85.83 185.89 L 82.05 185.12 L 78.30 184.23 L 74.83 183.27 L 71.19 182.02 L 67.59 180.65 L 64.27 179.25 L 60.81 177.54 L 57.42 175.71 L 54.31 173.90 L 51.11 171.75 L 47.99 169.50 L 45.14 167.30 L 42.24 164.75 L 39.44 162.11 L 36.90 159.56 L 34.36 156.66 L 31.92 153.68 L 29.74 150.82 L 27.59 147.61 L 25.56 144.34 L 23.77 141.21 L 22.06 137.76 L 20.48 134.25 L 19.11 130.92 L 17.86 127.27 L 16.75 123.58 L 15.82 120.10 L 15.07 116.33 L 14.44 112.52 L 13.98 108.95 L 13.72 105.11 L 13.59 101.26 L 13.60 97.66 L 13.85 93.81 L 14.22 89.98 L 14.70 86.41 L 15.45 82.63 L 16.32 78.88 L 17.26 75.40 L 18.49 71.75 L 19.85 68.14 L 21.24 64.82 L 22.94 61.36 L 24.75 57.96 L 26.56 54.85 L 28.70 51.64 L 30.95 48.51 L 33.15 45.66 L 35.69 42.76 L 38.32 39.95 L 40.88 37.42 L 43.77 34.87 L 46.76 32.44 L 49.62 30.26 L 52.83 28.11 L 56.10 26.09 L 59.23 24.30 L 62.69 22.60 L 66.20 21.02 L 69.53 19.66 L 73.19 18.43 L 76.88 17.32 L 80.36 16.41 L 84.14 15.67 L 87.95 15.06 L 91.52 14.61 L 95.36 14.37 L 99.22 14.27 L 102.82 14.29 L 106.66 14.56 L 110.49 14.96 L 114.06 15.46 L 117.83 16.24 L 121.58 17.14 L 125.05 18.11 L 128.69 19.37 L 132.28 20.75 L 135.59 22.17 L 139.04 23.90 L 142.42 25.75 L 145.51 27.59 L 148.70 29.76 L 151.80 32.04 L 154.63 34.27 L 157.50 36.84 L 160.28 39.51 L 162.79 42.09 L 165.29 45.02 L 167.69 48.03 L 169.84 50.92 L 171.94 54.16 L 173.92 57.46 L 175.66 60.61 L 177.31 64.09 L 178.84 67.63 L 180.15 70.98 L 181.33 74.65 L 182.38 78.36 L 183.23 81.86 L 183.91 85.65 L 184.46 89.47 L 184.84 93.05 L 185.02 96.90 L 185.05 100.75 L 184.96 104.35 L 184.62 108.19 L 184.15 112.01 L 183.58 115.57 L 182.73 119.33 L 181.75 123.05 L 180.72 126.50 L 179.38 130.11 L 177.92 133.68 L 176.43 136.96 L 174.63 140.36 L 172.70 143.70 L 170.80 146.76 L 168.55 149.89 L 166.20 152.94 L 163.91 155.71 L 161.27 158.52 L 158.53 161.24 L 155.89 163.68 L 152.90 166.11 L 149.83 168.44 L 146.88 170.51 L 143.59 172.52 L 140.24 174.41 L 137.04 176.07 L 133.52 177.63 L 129.94 179.06 L 126.55 180.28 L 122.85 181.35 L 119.11 182.29 L 115.59 183.05 L 111.78 183.62 L 107.95 184.05 L 104.37 184.33 L 100.51 184.38 L 96.66 184.30 L 93.07 184.10 L 89.24 183.64 L 85.43 183.04 L 81.90 182.36 L 78.17 181.39 L 74.47 180.29 L 71.06 179.14 L 67.49 177.68 L 63.98 176.10 L 60.76 174.50 L 57.41 172.58 L 54.15 170.54 L 51.16 168.53 L 48.11 166.18 L 45.14 163.72 L 42.46 161.32 L 39.75 158.58 L 37.14 155.75 L 34.79 153.01 L 32.48 149.93 L 30.27 146.77 L 28.32 143.75 L 26.43 140.39 L 24.67 136.96 L 23.14 133.70 L 21.73 130.12 L 20.44 126.48 L 19.37 123.05 L 18.45 119.31 L 17.66 115.53 L 17.06 111.99 L 16.65 108.15 L 16.38 104.31 L 16.26 100.71 L 16.37 96.86 L 16.62 93.01 L 16.98 89.43 L 17.61 85.63 L 18.38 81.85 L 19.22 78.35 L 20.36 74.67 L 21.63 71.03 L 22.93 67.68 L 24.55 64.18 L 26.30 60.75 L 28.05 57.60 L 30.13 54.36 L 32.32 51.19 L 34.48 48.31 L 36.98 45.37 L 39.58 42.53 L 42.11 39.97 L 44.98 37.40 L 47.95 34.94 L 50.80 32.74 L 53.99 30.58 L 57.26 28.54 L 60.38 26.75 L 63.84 25.04 L 67.35 23.47 L 70.69 22.11 L 74.34 20.89 L 78.04 19.80 L 81.53 18.91 L 85.31 18.20 L 89.12 17.62 L 92.70 17.22 L 96.55 17.02 L 100.40 16.97 L 104.00 17.05 L 107.84 17.38 L 111.67 17.85 L 115.22 18.42 L 118.98 19.27 L 122.70 20.25 L 126.15 21.30 L 129.76 22.65 L 133.31 24.14 L 136.58 25.64 L 139.98 27.47 L 143.30 29.43 L 146.33 31.36 L 149.44 33.64 L 152.47 36.02 L 155.21 38.36 L 157.98 41.03 L 160.65 43.81 L 163.05 46.49 L 165.43 49.53 L 167.70 52.64 L 169.71 55.63 L 171.65 58.95 L 173.48 62.35 L 175.06 65.58 L 176.53 69.14 L 177.87 72.76 L 179.00 76.17 L 179.98 79.90 L 180.81 83.66 L 181.46 87.21 L 181.91 91.03 L 182.23 94.87 L 182.39 98.47 L 182.31 102.32 L 182.10 106.17 L 181.76 109.75 L 181.16 113.56 L 180.42 117.34 L 179.60 120.85 L 178.48 124.54 L 177.23 128.18 L 175.93 131.54 L 174.32 135.04 L 172.58 138.48 L 170.84 141.63 L 168.76 144.87 L 166.57 148.04 L 164.41 150.92 L 161.90 153.85 L 159.29 156.68 L 156.76 159.24 L 153.88 161.80 L 150.90 164.25 L 148.04 166.43 L 144.84 168.57 L 141.55 170.59 L 138.42 172.36 L 134.95 174.04 L 131.42 175.58 L 128.07 176.90 L 124.40 178.09 L 120.69 179.13 L 117.20 179.98 L 113.40 180.64 L 109.58 181.17 L 106.00 181.53 L 102.15 181.66 L 98.30 181.66 L 94.70 181.52 L 90.86 181.12 L 87.05 180.58 L 83.51 179.95 L 79.76 179.02 L 76.06 177.96 L 72.64 176.84 L 69.06 175.41 L 65.54 173.85 L 62.30 172.27 L 58.96 170.36 L 55.69 168.32 L 52.70 166.31 L 49.65 163.95 L 46.69 161.49 L 44.02 159.08 L 41.32 156.32 L 38.73 153.47 L 36.42 150.71 L 34.13 147.61 L 31.96 144.43 L 30.05 141.38 L 28.22 137.99 L 26.51 134.53 L 25.04 131.25 L 23.70 127.63 L 22.49 123.98 L 21.49 120.52 L 20.66 116.75 L 19.97 112.96 L 19.45 109.40 L 19.16 105.56 L 19.00 101.71 L 18.99 98.11 L 19.23 94.26 L 19.61 90.43 L 20.10 86.86 L 20.87 83.08 L 21.79 79.34 L 22.77 75.88 L 24.06 72.25 L 25.48 68.67 L 26.94 65.37 L 28.72 61.96 L 30.63 58.61 L 32.53 55.55 L 34.78 52.42 L 37.13 49.37 L 39.44 46.61 L 42.10 43.82 L 44.86 41.13 L 47.53 38.72 L 50.56 36.33 L 53.67 34.06 L 56.65 32.04 L 59.98 30.09 L 63.37 28.28 L 66.61 26.70 L 70.17 25.24 L 73.79 23.91 L 77.22 22.80 L 80.95 21.86 L 84.72 21.05 L 88.27 20.43 L 92.10 20.02 L 95.94 19.75 L 99.54 19.63 L 103.39 19.76 L 107.23 20.03 L 110.81 20.42 L 114.61 21.09 L 118.38 21.90 L 121.86 22.79 L 125.53 23.98 L 129.14 25.31 L 132.47 26.68 L 135.93 28.38 L 139.33 30.21 L 142.43 32.03 L 145.62 34.20 L 148.72 36.48 L 151.53 38.72 L 154.38 41.32 L 157.13 44.02 L 159.61 46.63 L 162.06 49.60 L 164.40 52.66 L 166.48 55.60 L 168.50 58.89 L 170.38 62.25 L 172.03 65.45 L 173.56 68.99 L 174.95 72.58 L 176.12 75.98 L 177.14 79.70 L 178.01 83.45 L 178.69 86.99 L 179.17 90.81 L 179.51 94.65 L 179.68 98.25 L 179.62 102.10 L 179.40 105.95 L 179.07 109.53 L 178.46 113.34 L 177.70 117.11 L 176.86 120.62 L 175.72 124.30 L 174.44 127.93 L 173.11 131.28 L 171.45 134.76 L 169.67 138.17 L 167.88 141.30 L 165.75 144.51 L 163.50 147.63 L 161.29 150.47 L 158.72 153.35 L 156.05 156.12 L 153.46 158.62 L 150.51 161.10 L 147.47 163.47 L 144.55 165.57 L 141.28 167.61 L 137.93 169.52 L 134.74 171.19 L 131.21 172.74 L 127.63 174.16 L 124.23 175.35 L 120.52 176.38 L 116.77 177.27 L 113.24 177.97 L 109.42 178.47 L 105.58 178.81 L 101.99 179.00 L 98.13 178.95 L 94.28 178.74 L 90.70 178.42 L 86.89 177.81 L 83.11 177.06 L 79.61 176.22 L 75.93 175.08 L 72.30 173.80 L 68.95 172.47 L 65.47 170.82 L 62.06 169.03 L 58.94 167.23 L 55.73 165.10 L 52.61 162.84 L 49.78 160.62 L 46.91 158.04 L 44.14 155.36 L 41.66 152.76 L 39.19 149.80 L 36.84 146.75 L 34.75 143.81 L 32.73 140.53 L 30.84 137.17 L 29.19 133.97 L 27.67 130.43 L 26.28 126.84 L 25.11 123.43 L 24.11 119.71 L 23.25 115.96 L 22.58 112.42 L 22.12 108.59 L 21.81 104.75 L 21.66 101.16 L 21.76 97.30 L 22.00 93.46 L 22.37 89.88 L 23.02 86.08 L 23.82 82.31 L 24.70 78.82 L 25.89 75.15 L 27.22 71.54 L 28.60 68.21 L 30.30 64.76 L 32.14 61.37 L 33.98 58.28 L 36.17 55.10 L 38.48 52.02 L 40.74 49.22 L 43.37 46.40 L 46.10 43.68 L 48.74 41.24 L 51.75 38.83 L 54.84 36.53 L 57.81 34.50 L 61.13 32.54 L 64.53 30.72 L 67.76 29.14 L 71.33 27.68 L 74.95 26.37 L 78.38 25.28 L 82.13 24.36 L 85.90 23.58 L 89.45 22.99 L 93.29 22.63 L 97.13 22.41 L 100.73 22.34 L 104.58 22.53 L 108.42 22.87 L 111.99 23.33 L 115.77 24.08 L 119.52 24.98 L 122.98 25.95 L 126.62 27.24 L 130.19 28.67 L 133.48 30.13 L 136.89 31.94 L 140.22 33.87 L 143.26 35.80 L 146.36 38.08 L 149.38 40.48 L 152.10 42.83 L 154.85 45.54 L 157.48 48.36 L 159.83 51.08 L 162.15 54.16 L 164.34 57.33 L 166.27 60.36 L 168.12 63.75 L 169.82 67.20 L 171.29 70.49 L 172.62 74.11 L 173.81 77.77 L 174.78 81.24 L 175.56 85.01 L 176.20 88.81 L 176.66 92.38 L 176.88 96.23 L 176.96 100.08 L 176.88 103.68 L 176.54 107.52 L 176.05 111.34 L 175.45 114.89 L 174.55 118.64 L 173.51 122.35 L 172.39 125.77 L 170.95 129.35 L 169.38 132.86 L 167.77 136.08 L 165.83 139.41 L 163.75 142.65 L 161.69 145.61 L 159.27 148.61 L 156.74 151.51 L 154.27 154.13 L 151.44 156.75 L 148.51 159.25 L 145.68 161.48 L 142.50 163.64 L 139.23 165.69 L 136.11 167.47 L 132.64 169.15 L 129.11 170.69 L 125.75 172.00 L 122.07 173.15 L 118.35 174.15 L 114.84 174.95 L 111.03 175.54 L 107.21 175.98 L 103.62 176.25 L 99.76 176.28 L 95.91 176.15 L 92.32 175.89 L 88.51 175.34 L 84.72 174.64 L 81.21 173.86 L 77.51 172.75 L 73.87 171.50 L 70.51 170.20 L 67.02 168.57 L 63.60 166.79 L 60.47 165.01 L 57.27 162.87 L 54.15 160.61 L 51.32 158.39 L 48.46 155.80 L 45.71 153.10 L 43.25 150.48 L 40.81 147.49 L 38.49 144.42 L 36.44 141.46 L 34.47 138.15 L 32.63 134.76 L 31.04 131.53 L 29.58 127.96 L 28.27 124.34 L 27.18 120.91 L 26.27 117.16 L 25.51 113.39 L 24.94 109.83 L 24.60 105.99 L 24.41 102.15 L 24.38 98.55 L 24.61 94.70 L 25.00 90.87 L 25.51 87.30 L 26.31 83.53 L 27.26 79.80 L 28.30 76.35 L 29.65 72.74 L 31.15 69.20 L 32.69 65.94 L 34.57 62.58 L 36.58 59.29 L 38.59 56.30 L 40.95 53.26 L 43.43 50.31 L 45.86 47.65 L 48.65 44.99 L 51.54 42.45 L 54.34 40.19 L 57.50 37.98 L 60.74 35.90 L 63.85 34.08 L 67.30 32.37 L 70.82 30.80 L 74.17 29.47 L 77.84 28.29 L 81.55 27.27 L 85.06 26.45 L 88.86 25.84 L 92.69 25.39 L 96.28 25.11 L 100.13 25.08 L 103.98 25.20 L 107.57 25.46 L 111.39 26.01 L 115.17 26.71 L 118.68 27.51 L 122.37 28.63 L 126.01 29.89 L 129.36 31.21 L 132.84 32.87 L 136.24 34.67 L 139.36 36.48 L 142.55 38.64 L 145.64 40.93 L 148.45 43.19 L 151.27 45.81 L 153.99 48.54 L 156.42 51.20 L 158.82 54.22 L 161.09 57.33 L 163.09 60.32 L 165.00 63.67 L 166.78 67.08 L 168.31 70.34 L 169.69 73.94 L 170.93 77.59 L 171.95 81.04 L 172.77 84.81 L 173.44 88.60 L 173.92 92.17 L 174.17 96.02 L 174.25 99.87 L 174.19 103.47 L 173.85 107.30 L 173.35 111.12 L 172.74 114.67 L 171.82 118.41 L 170.75 122.12 L 169.61 125.53 L 168.13 129.09 L 166.50 132.58 L 164.86 135.78 L 162.86 139.08 L 160.72 142.28 L 158.61 145.20 L 156.13 148.14 L 153.53 150.99 L 150.99 153.55 L 148.09 156.08 L 145.09 158.50 L 142.20 160.64 L 138.94 162.71 L 135.61 164.63 L 132.42 166.31 L 128.89 167.85 L 125.30 169.25 L 121.90 170.42 L 118.17 171.41 L 114.41 172.24 L 110.87 172.87 L 107.03 173.28 L 103.19 173.53 L 99.59 173.61 L 95.74 173.43 L 91.90 173.08 L 88.33 172.62 L 84.56 171.84 L 80.82 170.92 L 77.36 169.91 L 73.75 168.56 L 70.20 167.08 L 66.94 165.55 L 63.57 163.67 L 60.29 161.65 L 57.31 159.64 L 54.27 157.27 L 51.34 154.77 L 48.69 152.33 L 46.06 149.51 L 43.55 146.59 L 41.31 143.77 L 39.14 140.59 L 37.10 137.32 L 35.33 134.19 L 33.68 130.70 L 32.17 127.16 L 30.90 123.79 L 29.80 120.10 L 28.86 116.36 L 28.12 112.84 L 27.61 109.02 L 27.25 105.18 L 27.07 101.59 L 27.15 97.73 L 27.39 93.89 L 27.76 90.31 L 28.44 86.51 L 29.27 82.75 L 30.19 79.27 L 31.45 75.63 L 32.85 72.04 L 34.30 68.75 L 36.11 65.34 L 38.05 62.02 L 39.99 58.99 L 42.30 55.90 L 44.74 52.92 L 47.13 50.22 L 49.89 47.53 L 52.76 44.96 L 55.54 42.67 L 58.68 40.45 L 61.91 38.35 L 65.01 36.52 L 68.47 34.81 L 71.99 33.24 L 75.33 31.92 L 79.01 30.76 L 82.73 29.76 L 86.24 28.97 L 90.05 28.40 L 93.88 28.00 L 97.48 27.76 L 101.33 27.80 L 105.18 27.99 L 108.76 28.32 L 112.56 28.95 L 116.33 29.74 L 119.82 30.63 L 123.48 31.85 L 127.08 33.22 L 130.39 34.64 L 133.81 36.42 L 137.15 38.33 L 140.20 40.25 L 143.30 42.54 L 146.30 44.95 L 149.00 47.33 L 151.71 50.07 L 154.29 52.93 L 156.60 55.69 L 158.84 58.83 L 160.94 62.06 L 162.78 65.15 L 164.51 68.60 L 166.08 72.11 L 167.41 75.46 L 168.57 79.13 L 169.57 82.85 L 170.36 86.36 L 170.93 90.18 L 171.34 94.01 L 171.56 97.60 L 171.53 101.45 L 171.32 105.30 L 170.98 108.88 L 170.34 112.68 L 169.53 116.45 L 168.63 119.94 L 167.40 123.59 L 166.01 127.18 L 164.57 130.48 L 162.77 133.89 L 160.83 137.22 L 158.89 140.25 L 156.58 143.33 L 154.14 146.31 L 151.75 149.00 L 148.98 151.68 L 146.10 154.24 L 143.30 156.51 L 140.15 158.72 L 136.90 160.79 L 133.78 162.59 L 130.31 164.27 L 126.78 165.80 L 123.42 167.09 L 119.72 168.20 L 115.99 169.15 L 112.47 169.89 L 108.65 170.40 L 104.81 170.74 L 101.21 170.91 L 97.36 170.81 L 93.52 170.54 L 89.94 170.14 L 86.16 169.42 L 82.40 168.55 L 78.94 167.58 L 75.31 166.27 L 71.75 164.81 L 68.48 163.30 L 65.11 161.43 L 61.82 159.42 L 58.83 157.42 L 55.81 155.03 L 52.88 152.53 L 50.25 150.07 L 47.64 147.23 L 45.16 144.29 L 42.95 141.44 L 40.83 138.23 L 38.85 134.92 L 37.13 131.76 L 35.54 128.25 L 34.11 124.67 L 32.92 121.27 L 31.92 117.55 L 31.08 113.79 L 30.45 110.25 L 30.06 106.41 L 29.83 102.57 L 29.77 98.97 L 30.00 95.12 L 30.39 91.29 L 30.92 87.73 L 31.76 83.97 L 32.76 80.25 L 33.85 76.82 L 35.29 73.24 L 36.87 69.73 L 38.50 66.52 L 40.49 63.22 L 42.62 60.01 L 44.74 57.10 L 47.24 54.17 L 49.86 51.34 L 52.42 48.81 L 55.36 46.32 L 58.40 43.95 L 61.33 41.87 L 64.63 39.88 L 68.02 38.04 L 71.25 36.45 L 74.83 35.02 L 78.46 33.75 L 81.91 32.71 L 85.67 31.88 L 89.47 31.21 L 93.03 30.74 L 96.88 30.53 L 100.73 30.48 L 104.33 30.60 L 108.16 31.01 L 111.97 31.59 L 115.50 32.28 L 119.22 33.31 L 122.88 34.50 L 126.26 35.76 L 129.75 37.38 L 133.18 39.14 L 136.30 40.93 L 139.49 43.10 L 142.58 45.40 L 145.37 47.67 L 148.16 50.32 L 150.84 53.10 L 153.22 55.79 L 155.55 58.87 L 157.74 62.04 L 159.65 65.09 L 161.45 68.50 L 163.09 71.98 L 164.48 75.30 L 165.69 78.96 L 166.74 82.66 L 167.58 86.17 L 168.18 89.97 L 168.61 93.80 L 168.86 97.39 L 168.83 101.25 L 168.63 105.09 L 168.29 108.68 L 167.63 112.47 L 166.80 116.24 L 165.88 119.72 L 164.61 123.35 L 163.18 126.93 L 161.69 130.21 L 159.84 133.59 L 157.85 136.88 L 155.85 139.88 L 153.47 142.91 L 150.96 145.83 L 148.49 148.46 L 145.65 151.05 L 142.69 153.52 L 139.83 155.71 L 136.60 157.80 L 133.27 159.75 L 130.09 161.44 L 126.56 162.97 L 122.96 164.35 L 119.54 165.49 L 115.80 166.42 L 112.03 167.18 L 108.47 167.74 L 104.63 168.04 L 100.78 168.18 L 97.18 168.14 L 93.34 167.80 L 89.53 167.30 L 85.98 166.67 L 82.25 165.70 L 78.57 164.57 L 75.17 163.37 L 71.66 161.80 L 68.21 160.07 L 65.07 158.32 L 61.85 156.19 L 58.74 153.92 L 55.93 151.67 L 53.12 149.04 L 50.43 146.28 L 48.03 143.60 L 45.69 140.54 L 43.49 137.37 L 41.57 134.33 L 39.77 130.92 L 38.13 127.43 L 36.74 124.11 L 35.54 120.45 L 34.50 116.74 L 33.68 113.24 L 33.11 109.43 L 32.70 105.60 L 32.48 102.00 L 32.54 98.15 L 32.78 94.31 L 33.16 90.73 L 33.87 86.94 L 34.74 83.19 L 35.71 79.72 L 37.04 76.10 L 38.53 72.55 L 40.07 69.30 L 41.99 65.95 L 44.05 62.70 L 46.11 59.75 L 48.56 56.77 L 51.13 53.91 L 53.66 51.34 L 56.57 48.82 L 59.59 46.43 L 62.51 44.32 L 65.81 42.32 L 69.19 40.47 L 72.42 38.89 L 76.00 37.47 L 79.64 36.21 L 83.09 35.19 L 86.86 34.40 L 90.66 33.77 L 94.24 33.35 L 98.09 33.20 L 101.94 33.22 L 105.54 33.40 L 109.36 33.90 L 113.15 34.57 L 116.66 35.36 L 120.35 36.49 L 123.97 37.79 L 127.30 39.16 L 130.74 40.90 L 134.09 42.80 L 137.14 44.71 L 140.24 47.01 L 143.22 49.44 L 145.91 51.84 L 148.57 54.63 L 151.10 57.53 L 153.34 60.35 L 155.49 63.55 L 157.49 66.83 L 159.22 69.99 L 160.80 73.51 L 162.22 77.09 L 163.39 80.50 L 164.34 84.23 L 165.13 88.00 L 165.70 91.55 L 166.01 95.39 L 166.15 99.24 L 166.11 102.84 L 165.76 106.68 L 165.24 110.50 L 164.59 114.04 L 163.59 117.76 L 162.43 121.43 L 161.19 124.81 L 159.57 128.31 L 157.80 131.73 L 155.99 134.84 L 153.81 138.02 L 151.47 141.08 L 149.17 143.84 L 146.47 146.60 L 143.65 149.22 L 140.90 151.55 L 137.77 153.80 L 134.55 155.90 L 131.44 157.72 L 127.97 159.40 L 124.43 160.92 L 121.06 162.19 L 117.36 163.25 L 113.61 164.13 L 110.07 164.80 L 106.24 165.21 L 102.40 165.44 L 98.80 165.50 L 94.95 165.24 L 91.13 164.81 L 87.57 164.24 L 83.83 163.33 L 80.13 162.24 L 76.73 161.07 L 73.19 159.53 L 69.74 157.83 L 66.59 156.09 L 63.38 153.96 L 60.27 151.68 L 57.46 149.43 L 54.67 146.77 L 52.00 144.00 L 49.63 141.29 L 47.33 138.20 L 45.18 135.00 L 43.31 131.92 L 41.58 128.48 L 40.02 124.96 L 38.71 121.60 L 37.61 117.91 L 36.68 114.18 L 35.97 110.65 L 35.52 106.82 L 35.25 102.98 L 35.17 99.38 L 35.39 95.53 L 35.79 91.70 L 36.33 88.14 L 37.22 84.39 L 38.28 80.69 L 39.44 77.28 L 40.96 73.74 L 42.65 70.28 L 44.38 67.12 L 46.50 63.90 L 48.77 60.79 L 51.02 57.98 L 53.67 55.18 L 56.44 52.51 L 59.15 50.14 L 62.25 47.84 L 65.44 45.70 L 68.53 43.83 L 71.98 42.12 L 75.50 40.56 L 78.86 39.27 L 82.55 38.18 L 86.30 37.27 L 89.83 36.58 L 93.66 36.15 L 97.50 35.91 L 101.10 35.85 L 104.95 36.11 L 108.78 36.54 L 112.33 37.12 L 116.07 38.04 L 119.76 39.14 L 123.16 40.33 L 126.68 41.90 L 130.12 43.63 L 133.25 45.40 L 136.44 47.56 L 139.52 49.87 L 142.30 52.17 L 145.06 54.86 L 147.68 57.68 L 150.01 60.42 L 152.25 63.56 L 154.34 66.79 L 156.15 69.91 L 157.80 73.39 L 159.28 76.94 L 160.51 80.33 L 161.52 84.05 L 162.35 87.81 L 162.96 91.36 L 163.29 95.20 L 163.45 99.04 L 163.42 102.64 L 163.07 106.48 L 162.53 110.30 L 161.87 113.83 L 160.84 117.55 L 159.64 121.21 L 158.36 124.57 L 156.69 128.04 L 154.86 131.43 L 152.99 134.51 L 150.73 137.63 L 148.33 140.64 L 145.95 143.34 L 143.17 146.01 L 140.26 148.54 L 137.44 150.78 L 134.23 152.91 L 130.92 154.88 L 127.75 156.57 L 124.21 158.10 L 120.60 159.45 L 117.17 160.54 L 113.42 161.41 L 109.63 162.09 L 106.06 162.56 L 102.21 162.74 L 98.36 162.74 L 94.76 162.56 L 90.94 162.05 L 87.15 161.35 L 83.65 160.53 L 79.98 159.34 L 76.38 157.98 L 73.08 156.54 L 69.69 154.71 L 66.39 152.72 L 63.40 150.72 L 60.39 148.31 L 57.51 145.76 L 54.93 143.25 L 52.40 140.34 L 50.02 137.31 L 47.94 134.38 L 45.98 131.06 L 44.18 127.65 L 42.66 124.39 L 41.33 120.77 L 40.18 117.10 L 39.27 113.61 L 38.62 109.81 L 38.15 105.99 L 37.89 102.40 L 37.94 98.55 L 38.17 94.70 L 38.56 91.13 L 39.30 87.34 L 40.23 83.61 L 41.26 80.16 L 42.68 76.57 L 44.27 73.06 L 45.91 69.86 L 47.95 66.59 L 50.15 63.43 L 52.35 60.58 L 54.95 57.74 L 57.69 55.03 L 60.37 52.63 L 63.45 50.31 L 66.63 48.14 L 69.70 46.27 L 73.15 44.55 L 76.68 43.00 L 80.04 41.72 L 83.75 40.65 L 87.50 39.78 L 91.04 39.13 L 94.88 38.76 L 98.72 38.59 L 102.32 38.60 L 106.16 38.94 L 109.97 39.47 L 113.51 40.14 L 117.22 41.18 L 120.88 42.40 L 124.23 43.70 L 127.69 45.41 L 131.05 47.28 L 134.11 49.18 L 137.20 51.48 L 140.16 53.94 L 142.82 56.37 L 145.43 59.21 L 147.89 62.17 L 150.05 65.04 L 152.09 68.31 L 153.97 71.68 L 155.57 74.90 L 156.97 78.49 L 158.19 82.14 L 159.17 85.61 L 159.88 89.40 L 160.41 93.21 L 160.73 96.80 L 160.73 100.65 L 160.54 104.50 L 160.19 108.08 L 159.48 111.87 L 158.59 115.61 L 157.58 119.07 L 156.18 122.66 L 154.60 126.17 L 152.97 129.38 L 150.93 132.65 L 148.73 135.81 L 146.53 138.66 L 143.91 141.49 L 141.16 144.19 L 138.47 146.58 L 135.38 148.87 L 132.17 151.01 L 129.08 152.86 L 125.62 154.54 L 122.07 156.04 L 118.69 157.28 L 114.97 158.28 L 111.21 159.09 L 107.65 159.68 L 103.81 159.97 L 99.96 160.07 L 96.36 159.98 L 92.53 159.54 L 88.73 158.92 L 85.21 158.16 L 81.54 157.01 L 77.92 155.69 L 74.61 154.28 L 71.21 152.47 L 67.90 150.49 L 64.91 148.48 L 61.92 146.06 L 59.04 143.49 L 56.48 140.96 L 53.99 138.02 L 51.66 134.96 L 49.62 131.99 L 47.73 128.64 L 46.01 125.19 L 44.57 121.89 L 43.34 118.24 L 42.30 114.53 L 41.51 111.02 L 41.00 107.20 L 40.68 103.36 L 40.56 99.76 L 40.78 95.92 L 41.20 92.09 L 41.76 88.53 L 42.71 84.80 L 43.84 81.12 L 45.07 77.73 L 46.70 74.24 L 48.51 70.84 L 50.36 67.76 L 52.63 64.64 L 55.05 61.65 L 57.45 58.97 L 60.27 56.34 L 63.22 53.86 L 66.09 51.69 L 69.36 49.64 L 72.72 47.77 L 75.95 46.18 L 79.55 44.80 L 83.21 43.61 L 86.68 42.66 L 90.48 41.99 L 94.30 41.52 L 97.89 41.26 L 101.74 41.33 L 105.59 41.59 L 109.16 42.02 L 112.93 42.83 L 116.65 43.82 L 120.07 44.93 L 123.62 46.44 L 127.08 48.13 L 130.23 49.88 L 133.41 52.04 L 136.49 54.37 L 139.24 56.68 L 141.95 59.42 L 144.52 62.29 L 146.78 65.10 L 148.91 68.30 L 150.88 71.61 L 152.55 74.80 L 154.03 78.36 L 155.32 81.99 L 156.35 85.44 L 157.11 89.22 L 157.67 93.02 L 158.01 96.61 L 158.03 100.46 L 157.85 104.31 L 157.49 107.89 L 156.76 111.67 L 155.84 115.41 L 154.79 118.86 L 153.34 122.43 L 151.71 125.91 L 150.02 129.09 L 147.90 132.31 L 145.62 135.42 L 143.34 138.20 L 140.64 140.95 L 137.80 143.55 L 135.03 145.84 L 131.84 148.01 L 128.55 150.01 L 125.38 151.72 L 121.83 153.22 L 118.22 154.54 L 114.77 155.60 L 111.00 156.38 L 107.20 156.97 L 103.61 157.33 L 99.76 157.36 L 95.91 157.19 L 92.33 156.84 L 88.55 156.12 L 84.81 155.20 L 81.36 154.15 L 77.79 152.70 L 74.31 151.06 L 71.13 149.37 L 67.92 147.24 L 64.82 144.95 L 62.05 142.66 L 59.31 139.95 L 56.73 137.09 L 54.45 134.30 L 52.31 131.10 L 50.34 127.79 L 48.66 124.60 L 47.19 121.04 L 45.91 117.41 L 44.90 113.96 L 44.16 110.18 L 43.62 106.36 L 43.31 102.78 L 43.33 98.92 L 43.56 95.08 L 43.97 91.50 L 44.75 87.73 L 45.74 84.01 L 46.85 80.58 L 48.37 77.04 L 50.07 73.59 L 51.84 70.45 L 54.03 67.29 L 56.38 64.25 L 58.74 61.53 L 61.51 58.87 L 64.41 56.36 L 67.26 54.16 L 70.50 52.11 L 73.83 50.24 L 77.06 48.65 L 80.64 47.28 L 84.27 46.11 L 87.75 45.19 L 91.51 44.57 L 95.30 44.15 L 98.89 43.94 L 102.70 44.08 L 106.48 44.41 L 110.04 44.92 L 113.74 45.81 L 117.37 46.89 L 120.76 48.10 L 124.20 49.70 L 127.54 51.48 L 130.62 53.33 L 133.66 55.58 L 136.57 57.98 L 139.23 60.41 L 141.75 63.21 L 144.13 66.14 L 146.24 69.05 L 148.16 72.29 L 149.90 75.62 L 151.40 78.89 L 152.62 82.44 L 153.66 86.04 L 154.48 89.55 L 154.98 93.26 L 155.28 96.99 L 155.39 100.59 L 155.14 104.32 L 154.69 108.02 L 154.08 111.57 L 153.09 115.17 L 151.93 118.70 L 150.62 122.06 L 148.94 125.38 L 147.10 128.60 L 145.16 131.63 L 142.86 134.55 L 140.41 137.33 L 137.91 139.92 L 135.08 142.31 L 132.14 144.55 L 129.17 146.58 L 125.93 148.36 L 122.61 149.97 L 119.29 151.37 L 115.77 152.47 L 112.21 153.38 L 108.68 154.10 L 105.02 154.47 L 101.36 154.66 L 97.76 154.66 L 94.10 154.30 L 90.48 153.75 L 86.95 153.04 L 83.45 151.96 L 80.02 150.71 L 76.71 149.31 L 73.50 147.56 L 70.39 145.66 L 67.42 143.62 L 64.63 141.28 L 61.97 138.80 L 59.46 136.22 L 57.20 133.37 L 55.09 130.42 L 53.14 127.39 L 51.49 124.16 L 50.02 120.85 L 48.71 117.50 L 47.74 114.01 L 46.95 110.49 L 46.34 106.94 L 46.09 103.34 L 46.01 99.74 L 46.12 96.14 L 46.58 92.57 L 47.22 89.03 L 48.04 85.53 L 49.21 82.13 L 50.54 78.80 L 52.03 75.54 L 53.85 72.43 L 55.81 69.44 L 57.91 66.55 L 60.31 63.87 L 62.82 61.33 L 65.45 58.92 L 68.34 56.77 L 71.29 54.78 L 74.34 52.95 L 77.60 51.41 L 80.88 50.06 L 84.23 48.87 L 87.72 48.01 L 91.20 47.34 L 94.71 46.85 L 98.30 46.70 L 101.84 46.73 L 105.36 46.94 L 108.92 47.51 L 112.37 48.24 L 115.77 49.14 L 119.14 50.41 L 122.37 51.81 L 125.52 53.37 L 128.57 55.28 L 131.45 57.28 L 134.22 59.43 L 136.83 61.91 L 139.25 64.44 L 141.53 67.09 L 143.60 70.04 L 145.46 73.00 L 147.16 76.04 L 148.61 79.34 L 149.83 82.60 L 150.90 85.91 L 151.66 89.43 L 152.21 92.86 L 152.60 96.31 L 152.64 99.91 L 152.51 103.37 L 152.20 106.82 L 151.53 110.36 L 150.71 113.71 L 149.72 117.03 L 148.36 120.36 L 146.89 123.48 L 145.28 126.52 L 143.28 129.52 L 141.22 132.28 L 139.04 134.93 L 136.49 137.47 L 133.93 139.76 L 131.27 141.92 L 128.26 143.90 L 125.31 145.63 L 122.28 147.22 L 118.94 148.57 L 115.71 149.67 L 112.43 150.62 L 108.89 151.28 L 105.52 151.72 L 102.13 152.00 L 98.53 151.94 L 95.14 151.70 L 91.77 151.30 L 88.25 150.52 L 84.99 149.62 L 81.77 148.56 L 78.48 147.10 L 75.47 145.57 L 72.53 143.90 L 69.59 141.81 L 66.95 139.72 L 64.41 137.50 L 61.95 134.88 L 59.79 132.31 L 57.74 129.64 L 55.85 126.57 L 54.25 123.63 L 52.78 120.62 L 51.53 117.24 L 50.54 114.04 L 49.71 110.81 L 49.16 107.25 L 48.83 103.93 L 48.65 100.60 L 48.82 97.00 L 49.15 93.69 L 49.64 90.40 L 50.52 86.91 L 51.50 83.74 L 52.63 80.62 L 54.18 77.37 L 55.77 74.47 L 57.49 71.64 L 59.66 68.77 L 61.79 66.25 L 64.04 63.82 L 66.73 61.44 L 69.31 59.39 L 71.99 57.47 L 75.10 55.67 L 78.03 54.18 L 81.03 52.83 L 84.44 51.69 L 87.60 50.82 L 90.79 50.09 L 94.36 49.64 L 97.62 49.42 L 100.89 49.34 L 104.48 49.61 L 107.71 50.04 L 110.92 50.61 L 114.38 51.59 L 117.45 52.65 L 120.48 53.84 L 123.68 55.49 L 126.47 57.14 L 129.19 58.90 L 132.00 61.15 L 134.40 63.31 L 136.71 65.58 L 139.02 68.34 L 140.94 70.93 L 142.74 73.60 L 144.45 76.77 L 145.82 79.68 L 147.06 82.65 L 148.10 86.10 L 148.86 89.21 L 149.48 92.36 L 149.82 95.94 L 149.94 99.14 L 149.93 102.34 L 149.55 105.92 L 149.03 109.06 L 148.38 112.19 L 147.30 115.62 L 146.17 118.60 L 144.92 121.52 L 143.18 124.67 L 141.49 127.35 L 139.68 129.96 L 137.35 132.70 L 135.16 134.99 L 132.88 137.18 L 130.05 139.41 L 127.46 141.21 L 124.79 142.90 L 121.58 144.52 L 118.69 145.77 L 115.75 146.89 L 112.28 147.83 L 109.20 148.48 L 106.11 149.00 L 102.52 149.23 L 99.39 149.26 L 96.26 149.15 L 92.69 148.67 L 89.63 148.07 L 86.59 147.34 L 83.19 146.16 L 80.32 144.97 L 77.49 143.66 L 74.39 141.83 L 71.82 140.09 L 69.32 138.25 L 66.65 135.84 L 64.48 133.63 L 62.40 131.34 L 60.26 128.44 L 58.57 125.86 L 57.00 123.20 L 55.48 119.94 L 54.34 117.08 L 53.33 114.17 L 52.49 110.67 L 51.94 107.65 L 51.53 104.61 L 51.40 101.01 L 51.47 97.95 L 51.66 94.90 L 52.25 91.35 L 52.93 88.37 L 53.72 85.42 L 55.00 82.06 L 56.25 79.28 L 57.62 76.56 L 59.54 73.52 L 61.31 71.05 L 63.18 68.66 L 65.67 66.06 L 67.89 64.01 L 70.20 62.04 L 73.15 59.99 L 75.73 58.42 L 78.37 56.95 L 81.68 55.53 L 84.51 54.51 L 87.38 53.60 L 90.90 52.86 L 93.87 52.42 L 96.85 52.10 L 100.45 52.08 L 103.44 52.24 L 106.42 52.52 L 109.95 53.21 L 112.84 53.95 L 115.70 54.82 L 119.02 56.20 L 121.70 57.50 L 124.32 58.91 L 127.30 60.92 L 129.66 62.73 L 131.94 64.62 L 134.46 67.19 L 136.41 69.42 L 138.26 71.73 L 140.23 74.74 L 141.68 77.31 L 143.04 79.93 L 144.36 83.27 L 145.28 86.07 L 146.08 88.90 L 146.72 92.44 L 147.06 95.35 L 147.29 98.28 L 147.20 101.88 L 146.96 104.79 L 146.60 107.69 L 145.80 111.20 L 144.99 114.00 L 144.06 116.77 L 142.59 120.05 L 141.23 122.62 L 139.78 125.14 L 137.68 128.06 L 135.85 130.31 L 133.93 132.48 L 131.29 134.93 L 129.06 136.76 L 126.75 138.50 L 123.68 140.38 L 121.13 141.73 L 118.54 142.97 L 115.15 144.20 L 112.40 145.01 L 109.61 145.72 L 106.05 146.25 L 103.20 146.49 L 100.34 146.63 L 96.74 146.44 L 93.90 146.11 L 91.08 145.68 L 87.60 144.78 L 84.89 143.90 L 82.22 142.92 L 78.98 141.35 L 76.51 139.95 L 74.09 138.46 L 71.23 136.27 L 69.10 134.42 L 67.03 132.49 L 64.66 129.78 L 62.94 127.54 L 61.31 125.24 L 59.52 122.11 L 58.29 119.59 L 57.14 117.02 L 56.02 113.60 L 55.31 110.89 L 54.70 108.15 L 54.27 104.58 L 54.12 101.78 L 54.07 98.99 L 54.36 95.40 L 54.77 92.64 L 55.27 89.90 L 56.27 86.45 L 57.21 83.83 L 58.25 81.25 L 59.91 78.06 L 61.35 75.70 L 62.87 73.38 L 65.14 70.59 L 67.01 68.56 L 68.96 66.60 L 71.74 64.31 L 73.97 62.70 L 76.26 61.17 L 79.44 59.48 L 81.94 58.35 L 83.60 57.67 L 86.20 56.80 L 87.92 56.28 L 90.59 55.68 L 92.36 55.34 L 95.07 55.00 L 96.86 54.84 L 99.59 54.78 L 101.39 54.80 L 104.10 55.00 L 105.89 55.20 L 108.57 55.68 L 110.33 56.06 L 112.94 56.80 L 114.65 57.35 L 117.17 58.35 L 118.82 59.07 L 121.23 60.31 L 122.80 61.19 L 125.06 62.66 L 126.54 63.70 L 128.64 65.39 L 130.00 66.56 L 131.92 68.45 L 133.16 69.75 L 134.88 71.82 L 135.98 73.24 L 137.48 75.47 L 138.44 77.00 L 139.71 79.36 L 140.51 80.97 L 141.53 83.44 L 142.16 85.13 L 142.93 87.68 L 143.40 89.42 L 143.91 92.04 L 144.19 93.82 L 144.44 96.47 L 144.55 98.27 L 144.53 100.92 L 144.46 102.72 L 144.17 105.36 L 143.92 107.14 L 143.37 109.74 L 142.94 111.48 L 142.14 114.01 L 141.54 115.70 L 140.49 118.13 L 139.73 119.76 L 138.44 122.06 L 137.52 123.60 L 136.01 125.76 L 134.94 127.21 L 133.23 129.20 L 132.01 130.53 L 130.12 132.34 L 128.78 133.55 L 126.71 135.16 L 125.26 136.22 L 123.04 137.61 L 121.49 138.52 L 119.15 139.69 L 117.52 140.44 L 115.08 141.36 L 113.38 141.94 L 110.86 142.62 L 109.11 143.03 L 106.54 143.45 L 104.76 143.68 L 102.17 143.84 L 100.37 143.90 L 97.78 143.79 L 95.99 143.67 L 93.43 143.31 L 91.65 143.01 L 89.14 142.40 L 87.41 141.92 L 84.98 141.06 L 83.30 140.41 L 80.97 139.32 L 79.37 138.50 L 77.16 137.18 L 75.65 136.21 L 73.59 134.68 L 72.18 133.57 L 70.29 131.84 L 68.99 130.59 L 67.29 128.68 L 66.13 127.31 L 64.62 125.25 L 63.60 123.76 L 62.31 121.57 L 61.45 119.99 L 60.39 117.68 L 59.68 116.02 L 58.86 113.62 L 58.33 111.90 L 57.75 109.43 L 57.39 107.67 L 57.06 105.16 L 56.88 103.37 L 56.80 100.85 L 56.80 99.05 L 56.98 96.53 L 57.15 94.74 L 57.58 92.26 L 57.94 90.49 L 58.61 88.07 L 59.14 86.35 L 60.04 84.01 L 60.74 82.36 L 61.88 80.12 L 62.74 78.54 L 64.09 76.44 L 65.11 74.95 L 66.66 73.00 L 67.81 71.62 L 69.55 69.83 L 70.84 68.58 L 72.74 66.98 L 74.15 65.86 L 76.20 64.45 L 77.72 63.48 L 79.89 62.29 L 81.49 61.47 L 83.77 60.51 L 85.45 59.86 L 87.81 59.13 L 89.54 58.65 L 91.96 58.16 L 93.73 57.85 L 96.18 57.61 L 97.98 57.48 L 100.44 57.48 L 102.24 57.53 L 104.68 57.78 L 106.46 58.01 L 108.86 58.50 L 110.61 58.91 L 112.95 59.64 L 114.65 60.22 L 116.90 61.17 L 118.54 61.92 L 120.67 63.09 L 122.22 64.00 L 124.23 65.37 L 125.68 66.43 L 127.54 68.00 L 128.88 69.20 L 130.57 70.94 L 131.78 72.26 L 133.28 74.16 L 134.36 75.60 L 135.66 77.64 L 136.59 79.18 L 137.67 81.33 L 138.45 82.96 L 139.31 85.20 L 139.92 86.90 L 140.55 89.21 L 140.98 90.96 L 141.38 93.32 L 141.64 95.11 L 141.80 97.49 L 141.88 99.29 L 141.80 101.68 L 141.69 103.48 L 141.38 105.84 L 141.10 107.62 L 140.55 109.93 L 140.09 111.67 L 139.31 113.92 L 138.68 115.61 L 137.69 117.76 L 136.89 119.37 L 135.69 121.41 L 134.73 122.94 L 133.34 124.84 L 132.24 126.27 L 130.66 128.02 L 129.42 129.33 L 127.68 130.91 L 126.31 132.09 L 124.42 133.48 L 122.95 134.52 L 120.94 135.72 L 119.37 136.60 L 117.25 137.59 L 115.60 138.31 L 113.39 139.09 L 111.68 139.64 L 109.41 140.19 L 107.65 140.57 L 105.34 140.88 L 103.56 141.09 L 101.23 141.17 L 99.43 141.19 L 97.12 141.04 L 95.33 140.89 L 93.04 140.51 L 91.27 140.17 L 89.04 139.57 L 87.31 139.06 L 85.16 138.24 L 83.49 137.56 L 81.43 136.53 L 79.84 135.68 L 77.90 134.45 L 76.40 133.46 L 74.60 132.04 L 73.21 130.90 L 71.56 129.31 L 70.28 128.04 L 68.80 126.30 L 67.67 124.90 L 66.37 123.02 L 65.38 121.52 L 64.27 119.53 L 63.44 117.93 L 62.54 115.85 L 61.87 114.18 L 61.19 112.01 L 60.68 110.28 L 60.22 108.07 L 59.90 106.30 L 59.66 104.05 L 59.51 102.26 L 59.50 100.00 L 59.53 98.20 L 59.74 95.96 L 59.95 94.17 L 60.39 91.97 L 60.78 90.21 L 61.43 88.06 L 61.99 86.35 L 62.86 84.29 L 63.59 82.64 L 64.65 80.68 L 65.54 79.11 L 66.79 77.27 L 67.83 75.80 L 69.26 74.09 L 70.44 72.74 L 72.03 71.18 L 73.34 69.95 L 75.08 68.57 L 76.51 67.47 L 78.37 66.27 L 79.90 65.32 L 81.86 64.32 L 83.48 63.53 L 85.53 62.72 L 87.22 62.10 L 89.34 61.51 L 91.08 61.05 L 93.24 60.68 L 95.02 60.40 L 97.21 60.24 L 99.01 60.14 L 101.19 60.20 L 102.99 60.29 L 105.16 60.57 L 106.94 60.83 L 109.06 61.32 L 110.81 61.76 L 112.86 62.46 L 114.56 63.07 L 116.53 63.97 L 118.15 64.75 L 120.03 65.84 L 121.56 66.77 L 123.31 68.04 L 124.75 69.13 L 126.36 70.56 L 127.68 71.79 L 129.14 73.37 L 130.33 74.72 L 131.61 76.44 L 132.67 77.90 L 133.77 79.74 L 134.68 81.30 L 135.59 83.23 L 136.33 84.87 L 137.05 86.89 L 137.62 88.59 L 138.13 90.66 L 138.53 92.42 L 138.83 94.52 L 139.05 96.31 L 139.14 98.43 L 139.18 100.23 L 139.06 102.34 L 138.92 104.14 L 138.58 106.23 L 138.27 108.00 L 137.73 110.04 L 137.24 111.77 L 136.50 113.74 L 135.84 115.42 L 134.90 117.30 L 134.08 118.90 L 132.96 120.68 L 131.98 122.19 L 130.70 123.84 L 129.57 125.24 L 128.13 126.76 L 126.87 128.04 L 125.29 129.40 L 123.91 130.55 L 122.20 131.74 L 120.72 132.75 L 118.90 133.77 L 117.32 134.62 L 115.42 135.45 L 113.76 136.14 L 111.79 136.77 L 110.06 137.29 L 108.05 137.72 L 106.28 138.07 L 104.23 138.29 L 102.44 138.46 L 100.39 138.48 L 98.59 138.47 L 96.55 138.28 L 94.76 138.10 L 92.75 137.70 L 90.98 137.34 L 89.03 136.75 L 87.31 136.21 L 85.43 135.43 L 83.78 134.72 L 81.98 133.76 L 80.41 132.89 L 78.73 131.76 L 77.24 130.73 L 75.69 129.44 L 74.32 128.27 L 72.90 126.83 L 71.65 125.54 L 70.39 123.97 L 69.28 122.55 L 68.18 120.86 L 67.21 119.35 L 66.29 117.56 L 65.48 115.95 L 64.75 114.09 L 64.10 112.41 L 63.56 110.49 L 63.08 108.75 L 62.73 106.79 L 62.43 105.01 L 62.28 103.03 L 62.17 101.23 L 62.21 99.24 L 62.27 97.45 L 62.52 95.48 L 62.76 93.70 L 63.20 91.77 L 63.62 90.02 L 64.25 88.15 L 64.84 86.45 L 65.65 84.65 L 66.41 83.02 L 67.39 81.32 L 68.31 79.77 L 69.46 78.18 L 70.52 76.73 L 71.82 75.27 L 73.03 73.93 L 74.46 72.61 L 75.79 71.40 L 77.35 70.23 L 78.80 69.16 L 80.46 68.15 L 82.01 67.23 L 83.76 66.40 L 85.39 65.63 L 87.21 64.98 L 88.91 64.39 L 90.78 63.92 L 92.53 63.50 L 94.44 63.22 L 96.22 62.98 L 98.14 62.90 L 99.94 62.83 L 101.86 62.94 L 103.65 63.05 L 105.54 63.35 L 107.32 63.65 L 109.17 64.13 L 110.90 64.60 L 112.69 65.27 L 114.37 65.91 L 116.08 66.75 L 117.69 67.55 L 119.29 68.55 L 120.82 69.52 L 122.31 70.67 L 123.73 71.78 L 125.10 73.08 L 126.40 74.32 L 127.63 75.75 L 128.80 77.12 L 129.88 78.66 L 130.91 80.14 L 131.83 81.77 L 132.70 83.34 L 133.45 85.06 L 134.16 86.71 L 134.73 88.49 L 135.28 90.20 L 135.67 92.02 L 136.04 93.79 L 136.24 95.63 L 136.44 97.42 L 136.46 99.28 L 136.47 101.08 L 136.30 102.92 L 136.14 104.71 L 135.79 106.52 L 135.44 108.29 L 134.92 110.05 L 134.40 111.78 L 133.70 113.47 L 133.01 115.14 L 132.15 116.75 L 131.29 118.34 L 130.28 119.86 L 129.27 121.35 L 128.11 122.75 L 126.96 124.14 L 125.66 125.42 L 124.38 126.68 L 122.97 127.82 L 121.57 128.95 L 120.05 129.94 L 118.54 130.92 L 116.94 131.76 L 115.34 132.58 L 113.67 133.25 L 111.99 133.91 L 110.26 134.41 L 108.54 134.90 L 106.77 135.22 L 105.01 135.53 L 103.21 135.67 L 101.43 135.81 L 99.63 135.77 L 97.85 135.73 L 96.07 135.52 L 94.30 135.30 L 92.55 134.90 L 90.82 134.51 L 89.11 133.94 L 87.43 133.38 L 85.79 132.65 L 84.18 131.92 L 82.62 131.03 L 81.10 130.15 L 79.63 129.10 L 78.21 128.08 L 76.86 126.89 L 75.54 125.73 L 74.32 124.41 L 73.13 123.13 L 72.04 121.70 L 70.99 120.31 L 70.05 118.77 L 69.14 117.29 L 68.36 115.67 L 67.61 114.11 L 67.00 112.41 L 66.41 110.79 L 65.96 109.04 L 65.54 107.37 L 65.27 105.59 L 65.02 103.89 L 64.93 102.09 L 64.85 100.38 L 64.94 98.58 L 65.03 96.87 L 65.30 95.09 L 65.56 93.40 L 66.01 91.66 L 66.43 90.01 L 67.05 88.32 L 67.63 86.72 L 68.42 85.10 L 69.16 83.58 L 70.10 82.05 L 70.99 80.61 L 72.08 79.18 L 73.10 77.83 L 74.33 76.52 L 75.48 75.29 L 76.83 74.10 L 78.10 73.00 L 79.56 71.95 L 80.92 70.98 L 82.49 70.09 L 83.94 69.26 L 85.58 68.53 L 87.10 67.85 L 88.81 67.29 L 90.39 66.77 L 92.14 66.38 L 93.76 66.02 L 95.55 65.80 L 97.19 65.60 L 98.99 65.57 L 100.64 65.54 L 102.43 65.68 L 104.07 65.82 L 105.84 66.14 L 107.45 66.44 L 109.18 66.93 L 110.75 67.39 L 112.42 68.06 L 113.94 68.66 L 115.53 69.50 L 116.97 70.25 L 118.48 71.24 L 119.83 72.13 L 121.23 73.26 L 122.49 74.28 L 123.77 75.55 L 124.91 76.68 L 126.06 78.07 L 127.08 79.31 L 128.08 80.81 L 128.98 82.14 L 129.82 83.73 L 130.58 85.14 L 131.26 86.81 L 131.87 88.28 L 132.38 90.01 L 132.83 91.53 L 133.17 93.30 L 133.47 94.86 L 133.64 96.65 L 133.78 98.23 L 133.76 100.03 L 133.74 101.61 L 133.54 103.40 L 133.37 104.96 L 132.99 106.72 L 132.67 108.26 L 132.12 109.97 L 131.64 111.46 L 130.92 113.12 L 130.30 114.55 L 129.42 116.12 L 128.66 117.48 L 127.62 118.95 L 126.73 120.22 L 125.56 121.59 L 124.55 122.76 L 123.25 124.00 L 122.13 125.07 L 120.70 126.17 L 119.49 127.12 L 117.96 128.07 L 116.66 128.89 L 115.05 129.69 L 113.68 130.37 L 111.99 131.00 L 110.56 131.54 L 108.82 132.01 L 107.35 132.40 L 105.57 132.68 L 104.08 132.93 L 102.28 133.04 L 100.77 133.13 L 98.97 133.05 L 97.46 132.99 L 95.68 132.74 L 94.19 132.53 L 92.44 132.11 L 90.98 131.75 L 89.28 131.15 L 87.87 130.65 L 86.24 129.88 L 84.89 129.25 L 83.35 128.32 L 82.07 127.56 L 80.63 126.48 L 79.43 125.60 L 78.11 124.38 L 77.01 123.38 L 75.81 122.04 L 74.83 120.94 L 73.76 119.49 L 72.90 118.30 L 71.98 116.75 L 71.24 115.49 L 70.49 113.85 L 69.88 112.52 L 69.29 110.82 L 68.82 109.44 L 68.41 107.69 L 68.08 106.27 L 67.84 104.49 L 67.65 103.05 L 67.60 101.25 L 67.55 99.80 L 67.68 98.01 L 67.78 96.57 L 68.08 94.80 L 68.32 93.38 L 68.80 91.64 L 69.18 90.26 L 69.83 88.58 L 70.35 87.25 L 71.16 85.65 L 71.81 84.38 L 72.78 82.86 L 73.54 81.66 L 74.66 80.25 L 75.54 79.14 L 76.79 77.85 L 77.77 76.83 L 79.15 75.67 L 80.22 74.77 L 81.71 73.75 L 82.86 72.95 L 84.44 72.09 L 85.67 71.42 L 87.33 70.71 L 88.61 70.17 L 90.33 69.63 L 91.66 69.22 L 93.42 68.86 L 94.78 68.58 L 96.57 68.40 L 97.94 68.26 L 99.74 68.26 L 101.12 68.26 L 102.91 68.44 L 104.28 68.57 L 106.04 68.93 L 107.38 69.20 L 109.10 69.73 L 110.41 70.13 L 112.07 70.83 L 113.32 71.36 L 114.90 72.22 L 116.09 72.87 L 117.58 73.88 L 118.69 74.64 L 120.07 75.80 L 121.10 76.67 L 122.36 77.96 L 123.29 78.92 L 124.42 80.33 L 125.25 81.38 L 126.22 82.89 L 126.94 84.01 L 127.76 85.62 L 128.37 86.80 L 129.02 88.48 L 129.50 89.71 L 129.99 91.45 L 130.34 92.72 L 130.65 94.49 L 130.87 95.79 L 131.00 97.59 L 131.10 98.89 L 131.05 100.69 L 131.01 102.00 L 130.78 103.79 L 130.61 105.08 L 130.20 106.83 L 129.91 108.10 L 129.33 109.80 L 128.91 111.03 L 128.16 112.67 L 127.63 113.84 L 126.72 115.40 L 126.07 116.51 L 125.01 117.96 L 124.26 119.00 L 123.06 120.34 L 122.21 121.30 L 120.88 122.52 L 119.94 123.38 L 118.50 124.46 L 117.49 125.22 L 115.94 126.15 L 114.86 126.80 L 113.23 127.57 L 112.09 128.11 L 110.40 128.71 L 109.22 129.14 L 107.47 129.57 L 106.25 129.87 L 104.47 130.12 L 103.23 130.30 L 101.44 130.38 L 100.19 130.43 L 98.40 130.32 L 97.16 130.25 L 95.38 129.97 L 94.16 129.78 L 92.42 129.32 L 91.23 129.00 L 89.54 128.37 L 88.39 127.94 L 86.78 127.15 L 85.68 126.61 L 84.16 125.65 L 83.12 125.01 L 81.70 123.91 L 80.74 123.16 L 79.43 121.93 L 78.55 121.10 L 77.37 119.73 L 76.59 118.82 L 75.55 117.35 L 74.86 116.37 L 73.98 114.80 L 73.39 113.76 L 72.67 112.11 L 72.19 111.01 L 71.64 109.30 L 71.27 108.17 L 70.89 106.41 L 70.64 105.26 L 70.44 103.47 L 70.30 102.29 L 70.28 100.49 L 70.27 99.32 L 70.42 97.53 L 70.53 96.36 L 70.86 94.59 L 71.08 93.44 L 71.59 91.72 L 71.92 90.60 L 72.60 88.94 L 73.04 87.87 L 73.88 86.27 L 74.42 85.26 L 75.42 83.76 L 76.05 82.80 L 77.20 81.41 L 77.92 80.52 L 79.20 79.25 L 80.01 78.45 L 81.40 77.31 L 82.28 76.59 L 83.79 75.60 L 84.73 74.98 L 86.33 74.14 L 87.32 73.62 L 88.99 72.95 L 90.04 72.53 L 91.76 72.02 L 92.84 71.71 L 94.61 71.38 L 95.71 71.18 L 97.50 71.03 L 98.61 70.94 L 100.41 70.97 L 101.51 70.99 L 103.30 71.20 L 104.40 71.32 L 106.15 71.71 L 107.22 71.95 L 108.94 72.51 L 109.97 72.85 L 111.62 73.58 L 112.62 74.02 L 114.18 74.91 L 115.12 75.45 L 116.59 76.49 L 117.47 77.11 L 118.83 78.30 L 119.64 79.00 L 120.87 80.32 L 121.61 81.10 L 122.70 82.53 L 123.35 83.37 L 124.30 84.91 L 124.86 85.81 L 125.65 87.43 L 126.11 88.38 L 126.73 90.07 L 127.10 91.06 L 127.55 92.80 L 127.82 93.82 L 128.09 95.60 L 128.25 96.63 L 128.35 98.43 L 128.40 99.47 L 128.32 101.27 L 128.27 102.30 L 128.01 104.08 L 127.86 105.11 L 127.42 106.85 L 127.17 107.85 L 126.56 109.54 L 126.21 110.51 L 125.43 112.13 L 124.99 113.05 L 124.06 114.59 L 123.53 115.46 L 122.44 116.89 L 121.83 117.70 L 120.61 119.02 L 119.93 119.76 L 118.58 120.96 L 117.83 121.62 L 116.37 122.67 L 115.56 123.26 L 114.00 124.16 L 113.14 124.65 L 111.50 125.40 L 110.59 125.80 L 108.89 126.38 L 107.95 126.69 L 106.20 127.09 L 105.24 127.31 L 103.45 127.53 L 102.48 127.65 L 100.68 127.70 L 99.71 127.72 L 97.91 127.58 L 96.95 127.51 L 95.18 127.19 L 94.23 127.03 L 92.49 126.53 L 91.57 126.27 L 89.90 125.61 L 89.01 125.26 L 87.41 124.44 L 86.56 124.00 L 85.05 123.02 L 84.26 122.50 L 82.85 121.38 L 82.12 120.79 L 80.83 119.52 L 80.16 118.87 L 79.01 117.48 L 78.41 116.77 L 77.40 115.27 L 76.88 114.50 L 76.03 112.92 L 75.59 112.10 L 74.90 110.44 L 74.54 109.59 L 74.02 107.87 L 73.75 106.99 L 73.40 105.23 L 73.23 104.33 L 73.06 102.54 L 72.97 101.63 L 72.98 99.83 L 72.99 98.93 L 73.18 97.14 L 73.27 96.24 L 73.64 94.48 L 73.82 93.60 L 74.37 91.89 L 74.63 91.04 L 75.34 89.38 L 75.69 88.57 L 76.57 86.99 L 76.99 86.22 L 78.02 84.74 L 78.52 84.02 L 79.69 82.65 L 80.25 81.98 L 81.55 80.73 L 82.18 80.13 L 83.60 79.02 L 84.28 78.49 L 85.80 77.52 L 86.53 77.06 L 88.13 76.25 L 88.90 75.87 L 90.58 75.23 L 91.38 74.92 L 93.12 74.45 L 93.94 74.23 L 95.71 73.93 L 96.55 73.80 L 98.34 73.68 L 99.18 73.62 L 100.98 73.69 L 101.81 73.72 L 103.60 73.96 L 104.42 74.07 L 106.17 74.49 L 106.98 74.68 L 108.68 75.28 L 109.45 75.55 L 111.09 76.31 L 111.83 76.65 L 113.38 77.57 L 114.08 77.99 L 115.53 79.05 L 116.18 79.53 L 117.51 80.74 L 118.11 81.28 L 119.32 82.62 L 119.86 83.21 L 120.92 84.66 L 121.40 85.30 L 122.32 86.85 L 122.72 87.53 L 123.48 89.16 L 123.81 89.88 L 124.40 91.58 L 124.66 92.32 L 125.08 94.07 L 125.26 94.83 L 125.51 96.61 L 125.61 97.38 L 125.67 99.18 L 125.70 99.95 L 125.59 101.75 L 125.53 102.51 L 125.24 104.29 L 125.11 105.04 L 124.64 106.78 L 124.44 107.51 L 123.80 109.19 L 123.53 109.90 L 122.73 111.51 L 122.39 112.18 L 121.43 113.70 L 121.03 114.33 L 119.92 115.74 L 119.46 116.33 L 118.21 117.62 L 117.70 118.16 L 116.33 119.32 L 115.77 119.80 L 114.29 120.82 L 113.69 121.24 L 112.12 122.11 L 111.49 122.46 L 109.83 123.17 L 109.17 123.46 L 107.45 124.00 L 106.77 124.21 L 105.01 124.58 L 104.31 124.73 L 102.52 124.92 L 101.82 124.99 L 100.02 125.00 L 99.32 125.00 L 97.53 124.83 L 96.83 124.77 L 95.06 124.42 L 94.38 124.29 L 92.66 123.76 L 92.00 123.56 L 90.34 122.87 L 89.71 122.61 L 88.12 121.75 L 87.52 121.43 L 86.03 120.42 L 85.47 120.04 L 84.09 118.89 L 83.57 118.46 L 82.31 117.18 L 81.84 116.70 L 80.71 115.29 L 80.30 114.78 L 79.32 113.27 L 78.96 112.71 L 78.13 111.11 L 77.83 110.53 L 77.17 108.86 L 76.93 108.25 L 76.44 106.52 L 76.27 105.90 L 75.95 104.12 L 75.84 103.49 L 75.70 101.70 L 75.65 101.06 L 75.70 99.26 L 75.71 98.63 L 75.94 96.84 L 76.01 96.22 L 76.41 94.46 L 76.55 93.85 L 77.13 92.14 L 77.32 91.56 L 78.06 89.91 L 78.32 89.35 L 79.22 87.79 L 79.53 87.26 L 80.58 85.80 L 80.94 85.31 L 82.13 83.96 L 82.53 83.51 L 83.85 82.29 L 84.29 81.88 L 85.73 80.80 L 86.20 80.44 L 87.74 79.50 L 88.24 79.19 L 89.87 78.42 L 90.40 78.16 L 92.09 77.55 L 92.64 77.36 L 94.39 76.92 L 94.95 76.78 L 96.73 76.51 L 97.29 76.43 L 99.09 76.35 L 99.66 76.32 L 101.46 76.42 L 102.02 76.45 L 103.80 76.72 L 104.36 76.81 L 106.10 77.26 L 106.64 77.40 L 108.33 78.03 L 108.84 78.22 L 110.46 79.01 L 110.96 79.25 L 112.49 80.19 L 112.95 80.48 L 114.38 81.58 L 114.81 81.90 L 116.12 83.14 L 116.51 83.50 L 117.69 84.86 L 118.04 85.26 L 119.08 86.73 L 119.38 87.16 L 120.27 88.72 L 120.53 89.18 L 121.26 90.82 L 121.47 91.30 L 122.03 93.01 L 122.19 93.50 L 122.58 95.25 L 122.69 95.75 L 122.89 97.54 L 122.95 98.04 L 122.98 99.84 L 122.99 100.34 L 122.84 102.14 L 122.80 102.63 L 122.47 104.40 L 122.38 104.89 L 121.88 106.61 L 121.74 107.08 L 121.07 108.75 L 120.89 109.20 L 120.05 110.79 L 119.83 111.22 L 118.83 112.72 L 118.57 113.12 L 117.43 114.51 L 117.14 114.88 L 115.87 116.15 L 115.54 116.48 L 114.15 117.62 L 113.79 117.92 L 112.29 118.91 L 111.91 119.17 L 110.32 120.01 L 109.91 120.22 L 108.25 120.90 L 107.83 121.07 L 106.11 121.58 L 105.68 121.70 L 103.91 122.04 L 103.48 122.12 L 101.68 122.28 L 101.25 122.31 L 99.45 122.29 L 97.23 122.08 L 95.04 121.65 L 92.92 121.01 L 90.87 120.15 L 88.92 119.10 L 87.09 117.86 L 85.40 116.45 L 83.86 114.88 L 82.49 113.17 L 81.29 111.33 L 80.29 109.38 L 79.49 107.35 L 78.90 105.25 L 78.53 103.11 L 78.37 100.94 L 78.42 98.78 L 78.70 96.63 L 79.18 94.53 L 79.87 92.49 L 80.76 90.54 L 81.84 88.68 L 83.10 86.95 L 84.52 85.36 L 86.09 83.91 L 87.79 82.64 L 89.61 81.54 L 91.53 80.63 L 93.52 79.92 L 95.57 79.42 L 97.65 79.12 L 99.75 79.03 L 101.85 79.16 L 103.92 79.49 L 105.93 80.02 L 107.89 80.76 L 109.75 81.68 L 111.51 82.78 L 113.15 84.05 L 114.65 85.48 L 115.99 87.04 L 117.17 88.73 L 118.17 90.53 L 118.99 92.41 L 119.61 94.36 L 120.04 96.35 L 120.26 98.38 L 120.28 100.41 L 120.09 102.43 L 119.71 104.42 L 119.12 106.36 L 118.35 108.22 L 117.40 109.99 L 116.28 111.66 L 115.00 113.20 L 113.58 114.60 L 112.02 115.85 L 110.35 116.94 L 108.59 117.85 L 106.74 118.58 L 104.84 119.12 L 102.90 119.47 L 100.93 119.62 L 98.97 119.57 L 97.02 119.32 L 95.12 118.89 L 93.27 118.26 L 91.49 117.46 L 89.81 116.49 L 88.24 115.35 L 86.79 114.06 L 85.48 112.64 L 84.32 111.10 L 83.33 109.46 L 82.51 107.73 L 81.86 105.92 L 81.40 104.07 L 81.13 102.18 L 81.05 100.28 L 81.16 98.39 L 81.46 96.52 L 81.94 94.70 L 82.60 92.93 L 83.43 91.25 L 84.43 89.66 L 85.57 88.18 L 86.86 86.82 L 88.27 85.61 L 89.79 84.54 L 91.41 83.64 L 93.11 82.90 L 94.86 82.34 L 96.67 81.95 L 98.49 81.75 L 100.32 81.74 L 102.15 81.90 L 103.94 82.25 L 105.68 82.77 L 107.36 83.47 L 108.95 84.33 L 110.45 85.33 L 111.84 86.49 L 113.10 87.76 L 114.22 89.16 L 115.19 90.65 L 116.01 92.24 L 116.67 93.89 L 117.15 95.59 L 117.46 97.33 L 117.60 99.09 L 117.56 100.85 L 117.34 102.60 L 116.96 104.30 L 116.40 105.96 L 115.69 107.55 L 114.82 109.05 L 113.81 110.46 L 112.66 111.76 L 111.39 112.93 L 110.02 113.97 L 108.55 114.86 L 107.01 115.60 L 105.40 116.19 L 103.75 116.60 L 102.07 116.85 L 100.38 116.93 L 98.69 116.84 L 97.02 116.58 L 95.39 116.16 L 93.82 115.58 L 92.31 114.85 L 90.89 113.97 L 89.57 112.96 L 88.36 111.82 L 87.27 110.57 L 86.31 109.23 L 85.50 107.79 L 84.83 106.29 L 84.32 104.73 L 83.97 103.13 L 83.78 101.51 L 83.75 99.89 L 83.89 98.27 L 84.18 96.68 L 84.63 95.13 L 85.24 93.64 L 85.98 92.22 L 86.87 90.88 L 87.88 89.64 L 89.00 88.51 L 90.23 87.51 L 91.55 86.63 L 92.94 85.89 L 94.40 85.30 L 95.91 84.85 L 97.45 84.56 L 99.00 84.43 L 100.56 84.45 L 102.11 84.63 L 103.62 84.96 L 105.09 85.43 L 106.50 86.05 L 107.84 86.81 L 109.09 87.69 L 110.25 88.69 L 111.29 89.80 L 112.22 91.00 L 113.02 92.29 L 113.68 93.65 L 114.21 95.06 L 114.59 96.51 L 114.82 97.99 L 114.91 99.48 L 114.84 100.97 L 114.63 102.44 L 114.27 103.88 L 113.77 105.27 L 113.14 106.60 L 112.38 107.85 L 111.50 109.02 L 110.51 110.10 L 109.42 111.06 L 108.24 111.91 L 106.99 112.64 L 105.68 113.23 L 104.32 113.69 L 102.92 114.01 L 101.50 114.19 L 100.08 114.23 L 98.66 114.12 L 97.27 113.88 L 95.91 113.49 L 94.60 112.98 L 93.35 112.33 L 92.18 111.57 L 91.09 110.70 L 90.09 109.73 L 89.21 108.66 L 88.43 107.52 L 87.78 106.31 L 87.25 105.04 L 86.85 103.73 L 86.58 102.39 L 86.46 101.03 L 86.46 99.68 L 86.61 98.33 L 86.88 97.01 L 87.29 95.73 L 87.81 94.50 L 88.46 93.34 L 89.22 92.24 L 90.08 91.23 L 91.03 90.32 L 92.07 89.51 L 93.18 88.80 L 94.35 88.22 L 95.57 87.75 L 96.83 87.41 L 98.10 87.20 L 99.39 87.12 L 100.68 87.17 L 101.95 87.34 L 103.20 87.64 L 104.40 88.06 L 105.55 88.60 L 106.64 89.25 L 107.65 90.00 L 108.58 90.84 L 109.42 91.77 L 110.16 92.78 L 110.79 93.85 L 111.31 94.98 L 111.72 96.14 L 112.00 97.34 L 112.17 98.56 L 112.21 99.78 L 112.12 101.00 L 111.92 102.20 L 111.60 103.36 L 111.17 104.49 L 110.63 105.56 L 109.98 106.57 L 109.24 107.51 L 108.42 108.36 L 107.51 109.13 L 106.54 109.80 L 105.51 110.36 L 104.43 110.82 L 103.32 111.17 L 102.18 111.40 L 101.02 111.52 L 99.87 111.52 L 98.72 111.41 L 97.60 111.18 L 96.51 110.84 L 95.46 110.40 L 94.47 109.86 L 93.53 109.22 L 92.68 108.50 L 91.89 107.70 L 91.20 106.82 L 90.60 105.89 L 90.10 104.90 L 89.70 103.87 L 89.40 102.81 L 89.22 101.73 L 89.14 100.65 L 89.18 99.56 L 89.32 98.49 L 89.56 97.44 L 89.91 96.42 L 90.36 95.45 L 90.90 94.54 L 91.52 93.68 L 92.23 92.89 L 93.00 92.18 L 93.84 91.56 L 94.74 91.03 L 95.68 90.58 L 96.65 90.24 L 97.66 90.00 L 98.67 89.86 L 99.69 89.82 L 100.71 89.88 L 101.71 90.04 L 102.68 90.30 L 103.62 90.66 L 104.52 91.11 L 105.36 91.64 L 106.14 92.25 L 106.85 92.93 L 107.49 93.68 L 108.05 94.48 L 108.52 95.33 L 108.91 96.22 L 109.20 97.15 L 109.39 98.09 L 109.49 99.04 L 109.50 99.99 L 109.41 100.94 L 109.23 101.86 L 108.96 102.76 L 108.60 103.62 L 108.15 104.44 L 107.63 105.21 L 107.04 105.92 L 106.39 106.56 L 105.67 107.13 L 104.91 107.63 L 104.10 108.04 L 103.26 108.37 L 102.40 108.61 L 101.52 108.77 L 100.64 108.83 L 99.75 108.81 L 98.88 108.70 L 98.03 108.50 L 97.20 108.22 L 96.41 107.86 L 95.67 107.43 L 94.97 106.92 L 94.33 106.35 L 93.76 105.73 L 93.25 105.05 L 92.82 104.33 L 92.46 103.57 L 92.18 102.79 L 91.99 101.98 L 91.87 101.17 L 91.84 100.35 L 91.89 99.53 L 92.02 98.73 L 92.23 97.95 L 92.51 97.20 L 92.86 96.49 L 93.29 95.82 L 93.77 95.19 L 94.31 94.62 L 94.91 94.12 L 95.54 93.67 L 96.22 93.30 L 96.93 92.99 L 97.65 92.76 L 98.40 92.60 L 99.15 92.52 L 99.90 92.52 L 100.64 92.59 L 101.37 92.73 L 102.08 92.95 L 102.76 93.23 L 103.40 93.58 L 104.00 93.98 L 104.55 94.45 L 105.05 94.96 L 105.50 95.52 L 105.88 96.11 L 106.20 96.74 L 106.46 97.39 L 106.64 98.06 L 106.76 98.74 L 106.81 99.42 L 106.79 100.11 L 106.71 100.78 L 106.55 101.44 L 106.33 102.07 L 106.06 102.67 L 105.72 103.24 L 105.34 103.77 L 104.90 104.26 L 104.42 104.70 L 103.90 105.08 L 103.35 105.41 L 102.78 105.68 L 102.18 105.89 L 101.57 106.03 L 100.96 106.12 L 100.34 106.14 L 99.73 106.10 L 99.12 106.00 L 98.54 105.84 L 97.98 105.63 L 97.45 105.36 L 96.95 105.04 L 96.48 104.67 L 96.06 104.27 L 95.69 103.82 L 95.36 103.35 L 95.09 102.85 L 94.87 102.33 L 94.70 101.79 L 94.59 101.24 L 94.54 100.69 L 94.54 100.14 L 94.60 99.60 L 94.71 99.07 L 94.87 98.56 L 95.08 98.07 L 95.33 97.60 L 95.63 97.17 L 95.97 96.78 L 96.34 96.42 L 96.74 96.11 L 97.17 95.84 L 97.62 95.61 L 98.09 95.44 L 98.57 95.31 L 99.05 95.23 L 99.54 95.21 L 100.02 95.23 L 100.49 95.29 L 100.95 95.41 L 101.39 95.57 L 101.81 95.77 L 102.20 96.01 L 102.56 96.28 L 102.89 96.59 L 103.19 96.92 L 103.45 97.28 L 103.66 97.67 L 103.84 98.06 L 103.97 98.47 L 104.07 98.89 L 104.11 99.31 L 104.12 99.72 L 104.08 100.13 L 104.01 100.53 L 103.89 100.92 L 103.74 101.29 L 103.55 101.64 L 103.34 101.97 L 103.09 102.26 L 102.81 102.53 L 102.52 102.77 L 102.20 102.97 L 101.87 103.14 L 101.53 103.27 L 101.18 103.37 L 100.83 103.43 L 100.48 103.45 L 100.13 103.44 L 99.79 103.39 L 99.46 103.31 L 99.14 103.20 L 98.84 103.06 L 98.56 102.89 L 98.30 102.69 L 98.07 102.48 L 97.86 102.24 L 97.68 101.99 L 97.53 101.72 L 97.41 101.45 L 97.32 101.16 L 97.25 100.88 L 97.22 100.59 L 97.22 100.30 L 97.25 100.03 L 97.30 99.75 L 97.38 99.49 L 97.49 99.25 L 97.61 99.02 L 97.76 98.80 L 97.93 98.61 L 98.11 98.44 L 98.30 98.29 L 98.51 98.16 L 98.73 98.06 L 98.95 97.98 L 99.17 97.92 L 99.39 97.89 L 99.62 97.88 L 99.83 97.90 L 100.04 97.93 L 100.24 97.99 L 100.43 98.07 L 100.61 98.16 L 100.77 98.27 L 100.92 98.39 L 101.05 98.53 L 101.16 98.67 L 101.26 98.83 L 101.34 98.98 L 101.40 99.14 L 101.43 99.31 L 101.46 99.47 L 101.46 99.63 L 101.45 99.78 L 101.42 99.93 L 101.38 100.07 L 101.32 100.20 L 101.25 100.32 L 101.17 100.43 L 101.09 100.52 L 100.99 100.61 L 100.89 100.68 L 100.79 100.73 L 100.68 100.78 L 100.58 100.81 L 100.47 100.82 L 100.37 100.83 L 100.27 100.82 L 100.18 100.80 L 100.09 100.77 L 100.02 100.73 L 99.95 100.69 L 99.88 100.64 L 99.83 100.58 L 99.79 100.52 L 99.76 100.46 L 99.74 100.40 L 99.73 100.34 L 99.73 100.28 L 99.73 100.22 L 99.75 100.17 L 99.77 100.12 L 99.80 100.08 L 99.83 100.05 L 99.87 100.03 L 99.91 100.01" 
          fill="none" 
          stroke="currentColor" 
          stroke-width="0.5"/>
</svg>