<?xml version="1.0" encoding="UTF-8" standalone="no"?>
<svg width="100%" height="100%" viewBox="0 0 200 200" preserveAspectRatio="xMidYMid meet" xmlns="http://www.w3.org/2000/svg">
    <path d="M 10.00 100.00 L 10.04 98.20 L 10.09 96.40 L 10.11 95.58 L 10.24 93.79 L 10.37 91.99 L 10.43 91.18 L 10.65 89.39 L 10.87 87.61 L 10.97 86.79 L 11.28 85.02 L 11.59 83.25 L 11.73 82.44 L 12.12 80.69 L 12.52 78.93 L 12.70 78.13 L 13.18 76.40 L 13.66 74.66 L 13.88 73.87 L 14.44 72.17 L 15.00 70.46 L 15.26 69.68 L 15.91 68.00 L 16.56 66.32 L 16.85 65.56 L 17.58 63.91 L 18.31 62.27 L 18.64 61.52 L 19.45 59.91 L 20.26 58.30 L 20.63 57.57 L 21.51 56.01 L 22.40 54.44 L 22.80 53.73 L 23.77 52.21 L 24.73 50.69 L 25.17 50.00 L 26.20 48.53 L 27.24 47.06 L 27.71 46.39 L 29.16 45.32 L 29.28 45.24 L 28.38 46.80 L 27.48 48.36 L 26.58 49.92 L 25.68 51.48 L 24.78 53.04 L 23.88 54.60 L 22.98 56.15 L 22.08 57.71 L 21.18 59.27 L 20.28 60.83 L 19.38 62.39 L 18.48 63.95 L 18.48 63.95 L 17.69 63.60 L 17.00 65.26 L 16.31 66.93 L 16.00 67.68 L 15.40 69.38 L 14.79 71.07 L 14.52 71.84 L 14.00 73.57 L 13.48 75.29 L 13.24 76.07 L 12.80 77.82 L 12.37 79.56 L 12.17 80.36 L 11.80 82.12 L 11.61 83.04 L 12.51 81.48 L 13.41 79.92 L 14.31 78.36 L 15.21 76.80 L 16.11 75.24 L 17.01 73.68 L 17.91 72.12 L 18.81 70.57 L 19.71 69.01 L 20.61 67.45 L 21.51 65.89 L 22.41 64.33 L 23.31 62.77 L 24.21 61.21 L 25.11 59.65 L 26.01 58.09 L 26.91 56.54 L 27.81 54.98 L 28.71 53.42 L 29.61 51.86 L 30.51 50.30 L 31.41 48.74 L 32.31 47.18 L 33.21 45.62 L 34.11 44.07 L 35.01 42.51 L 35.91 40.95 L 36.81 39.39 L 37.71 37.83 L 38.61 36.27 L 39.51 34.71 L 40.41 33.15 L 40.11 32.82 L 41.49 31.65 L 42.86 30.49 L 43.48 29.96 L 44.91 28.86 L 46.34 27.77 L 46.99 27.27 L 48.45 26.23 L 48.65 26.09 L 47.75 27.65 L 46.85 29.20 L 45.95 30.76 L 45.05 32.32 L 44.15 33.88 L 43.25 35.44 L 42.35 37.00 L 41.45 38.56 L 40.55 40.12 L 39.65 41.68 L 38.75 43.23 L 37.85 44.79 L 36.95 46.35 L 36.05 47.91 L 35.15 49.47 L 34.25 51.03 L 33.35 52.59 L 32.45 54.15 L 31.55 55.71 L 30.65 57.26 L 29.75 58.82 L 28.85 60.38 L 27.95 61.94 L 27.05 63.50 L 26.15 65.06 L 25.25 66.62 L 24.35 68.18 L 23.45 69.74 L 22.55 71.29 L 21.65 72.85 L 20.75 74.41 L 19.85 75.97 L 18.95 77.53 L 18.05 79.09 L 17.15 80.65 L 16.25 82.21 L 15.35 83.76 L 14.45 85.32 L 13.55 86.88 L 12.65 88.44 L 11.75 90.00 L 10.85 91.56 L 10.85 91.56 L 10.40 91.52 L 10.28 93.31 L 10.15 95.11 L 10.09 95.92 L 10.05 97.72 L 10.02 99.52 L 10.00 100.23 L 10.90 98.67 L 11.80 97.11 L 12.70 95.55 L 13.60 94.00 L 14.50 92.44 L 15.40 90.88 L 16.30 89.32 L 17.20 87.76 L 18.10 86.20 L 19.00 84.64 L 19.90 83.08 L 20.80 81.52 L 21.70 79.96 L 22.60 78.41 L 23.50 76.85 L 24.40 75.29 L 25.30 73.73 L 26.20 72.17 L 27.10 70.61 L 28.00 69.05 L 28.90 67.49 L 29.80 65.94 L 30.70 64.38 L 31.60 62.82 L 32.50 61.26 L 33.40 59.70 L 34.30 58.14 L 35.20 56.58 L 36.10 55.02 L 37.00 53.46 L 37.90 51.91 L 38.80 50.35 L 39.70 48.79 L 40.60 47.23 L 41.50 45.67 L 42.40 44.11 L 43.30 42.55 L 44.20 40.99 L 45.10 39.44 L 46.00 37.88 L 46.90 36.32 L 47.80 34.76 L 48.70 33.20 L 49.60 31.64 L 50.50 30.08 L 51.40 28.52 L 52.30 26.96 L 53.20 25.41 L 54.10 23.85 L 55.00 22.29 L 55.00 22.29 L 54.90 22.12 L 56.48 21.25 L 58.06 20.39 L 58.78 20.00 L 60.39 19.19 L 61.16 18.81 L 60.26 20.37 L 59.36 21.93 L 58.46 23.49 L 57.57 25.04 L 56.67 26.60 L 55.76 28.16 L 54.86 29.72 L 53.96 31.28 L 53.07 32.84 L 52.17 34.40 L 51.26 35.96 L 50.36 37.52 L 49.47 39.07 L 48.56 40.63 L 47.67 42.19 L 46.77 43.75 L 45.87 45.31 L 44.96 46.87 L 44.07 48.43 L 43.16 49.99 L 42.27 51.55 L 41.37 53.10 L 40.46 54.66 L 39.57 56.22 L 38.67 57.78 L 37.77 59.34 L 36.87 60.90 L 35.96 62.46 L 35.07 64.02 L 34.16 65.57 L 33.26 67.13 L 32.37 68.69 L 31.47 70.25 L 30.56 71.81 L 29.67 73.37 L 28.77 74.93 L 27.87 76.49 L 26.97 78.05 L 26.07 79.60 L 25.17 81.16 L 24.27 82.72 L 23.37 84.28 L 22.46 85.84 L 21.57 87.40 L 20.67 88.96 L 19.77 90.52 L 18.86 92.08 L 17.96 93.63 L 17.07 95.19 L 16.16 96.75 L 15.27 98.31 L 14.37 99.87 L 13.47 101.43 L 12.57 102.99 L 11.66 104.55 L 10.77 106.11 L 10.76 106.11 L 10.21 106.14 L 10.38 107.94 L 10.54 109.73 L 10.62 110.54 L 10.85 112.33 L 10.94 113.00 L 11.84 111.44 L 12.74 109.88 L 13.64 108.32 L 14.54 106.76 L 15.44 105.20 L 16.34 103.64 L 17.24 102.09 L 18.14 100.53 L 19.04 98.97 L 19.94 97.41 L 20.84 95.85 L 21.74 94.29 L 22.64 92.73 L 23.54 91.17 L 24.44 89.62 L 25.34 88.06 L 26.24 86.50 L 27.14 84.94 L 28.04 83.38 L 28.94 81.82 L 29.84 80.26 L 30.74 78.70 L 31.64 77.14 L 32.54 75.58 L 33.44 74.03 L 34.34 72.47 L 35.24 70.91 L 36.14 69.35 L 37.04 67.79 L 37.94 66.23 L 38.84 64.67 L 39.74 63.11 L 40.64 61.56 L 41.54 60.00 L 42.44 58.44 L 43.34 56.88 L 44.24 55.32 L 45.14 53.76 L 46.04 52.20 L 46.94 50.64 L 47.84 49.08 L 48.74 47.53 L 49.64 45.97 L 50.54 44.41 L 51.44 42.85 L 52.34 41.29 L 53.24 39.73 L 54.14 38.17 L 55.04 36.61 L 55.94 35.05 L 56.84 33.50 L 57.74 31.94 L 58.64 30.38 L 59.54 28.82 L 60.44 27.26 L 61.34 25.70 L 62.24 24.14 L 63.14 22.58 L 64.04 21.03 L 64.94 19.47 L 65.84 17.91 L 66.73 16.38 L 68.41 15.75 L 70.10 15.13 L 70.87 14.84 L 71.98 14.47 L 71.08 16.03 L 70.18 17.59 L 69.28 19.15 L 68.38 20.71 L 67.48 22.27 L 66.58 23.82 L 65.68 25.38 L 64.78 26.94 L 63.88 28.50 L 62.98 30.06 L 62.08 31.62 L 61.18 33.18 L 60.28 34.74 L 59.38 36.30 L 58.48 37.85 L 57.58 39.41 L 56.68 40.97 L 55.78 42.53 L 54.88 44.09 L 53.98 45.65 L 53.08 47.21 L 52.18 48.77 L 51.28 50.33 L 50.38 51.88 L 49.48 53.44 L 48.58 55.00 L 47.68 56.56 L 46.78 58.12 L 45.88 59.68 L 44.98 61.24 L 44.08 62.80 L 43.18 64.35 L 42.28 65.91 L 41.38 67.47 L 40.48 69.03 L 39.58 70.59 L 38.68 72.15 L 37.78 73.71 L 36.88 75.27 L 35.98 76.83 L 35.08 78.38 L 34.18 79.94 L 33.28 81.50 L 32.38 83.06 L 31.48 84.62 L 30.58 86.18 L 29.68 87.74 L 28.78 89.30 L 27.88 90.86 L 26.98 92.41 L 26.08 93.97 L 25.18 95.53 L 24.28 97.09 L 23.38 98.65 L 22.48 100.21 L 21.58 101.77 L 20.68 103.33 L 19.78 104.88 L 18.88 106.44 L 17.98 108.00 L 17.08 109.56 L 16.18 111.12 L 15.28 112.68 L 14.38 114.24 L 13.48 115.80 L 12.58 117.36 L 11.72 117.53 L 12.12 119.28 L 12.51 121.04 L 12.69 121.84 L 13.14 123.58 L 13.14 123.58 L 14.05 122.02 L 14.94 120.47 L 15.84 118.91 L 16.74 117.35 L 17.65 115.79 L 18.54 114.23 L 19.44 112.67 L 20.34 111.11 L 21.25 109.55 L 22.14 108.00 L 23.05 106.44 L 23.95 104.88 L 24.84 103.32 L 25.74 101.76 L 26.64 100.20 L 27.54 98.64 L 28.44 97.08 L 29.34 95.52 L 30.25 93.97 L 31.14 92.41 L 32.05 90.85 L 32.95 89.29 L 33.85 87.73 L 34.74 86.17 L 35.65 84.61 L 36.54 83.05 L 37.44 81.50 L 38.34 79.94 L 39.24 78.38 L 40.15 76.82 L 41.04 75.26 L 41.94 73.70 L 42.84 72.14 L 43.74 70.58 L 44.64 69.02 L 45.55 67.47 L 46.45 65.91 L 47.34 64.35 L 48.24 62.79 L 49.14 61.23 L 50.04 59.67 L 50.94 58.11 L 51.84 56.55 L 52.75 54.99 L 53.64 53.44 L 54.54 51.88 L 55.45 50.32 L 56.34 48.76 L 57.24 47.20 L 58.15 45.64 L 59.04 44.08 L 59.94 42.52 L 60.84 40.96 L 61.74 39.41 L 62.64 37.85 L 63.54 36.29 L 64.44 34.73 L 65.34 33.17 L 66.24 31.61 L 67.15 30.05 L 68.04 28.49 L 68.94 26.94 L 69.84 25.38 L 70.74 23.82 L 71.64 22.26 L 72.54 20.70 L 73.44 19.14 L 74.34 17.58 L 75.24 16.02 L 76.14 14.46 L 77.00 12.99 L 78.75 12.57 L 80.50 12.15 L 81.29 11.97 L 81.81 11.86 L 80.91 13.42 L 80.01 14.98 L 79.11 16.53 L 78.21 18.09 L 77.31 19.65 L 76.41 21.21 L 75.51 22.77 L 74.61 24.33 L 73.71 25.89 L 72.81 27.45 L 71.91 29.00 L 71.01 30.56 L 70.11 32.12 L 69.21 33.68 L 68.31 35.24 L 67.41 36.80 L 66.51 38.36 L 65.61 39.92 L 64.71 41.48 L 63.81 43.03 L 62.91 44.59 L 62.01 46.15 L 61.11 47.71 L 60.21 49.27 L 59.31 50.83 L 58.41 52.39 L 57.51 53.95 L 56.61 55.51 L 55.71 57.06 L 54.81 58.62 L 53.91 60.18 L 53.01 61.74 L 52.11 63.30 L 51.21 64.86 L 50.31 66.42 L 49.41 67.98 L 48.51 69.54 L 47.61 71.09 L 46.71 72.65 L 45.81 74.21 L 44.91 75.77 L 44.01 77.33 L 43.11 78.89 L 42.21 80.45 L 41.31 82.01 L 40.41 83.56 L 39.51 85.12 L 38.61 86.68 L 37.71 88.24 L 36.81 89.80 L 35.91 91.36 L 35.01 92.92 L 34.11 94.48 L 33.21 96.04 L 32.31 97.59 L 31.41 99.15 L 30.51 100.71 L 29.61 102.27 L 28.71 103.83 L 27.81 105.39 L 26.91 106.95 L 26.01 108.51 L 25.11 110.07 L 24.21 111.62 L 23.31 113.18 L 22.41 114.74 L 21.51 116.30 L 20.61 117.86 L 19.71 119.42 L 18.81 120.98 L 17.91 122.54 L 17.01 124.10 L 16.11 125.65 L 15.21 127.21 L 14.57 128.32 L 15.18 130.01 L 15.79 131.70 L 16.06 132.47 L 16.17 132.75 L 17.07 131.19 L 17.97 129.63 L 18.87 128.07 L 19.77 126.51 L 20.67 124.95 L 21.57 123.39 L 22.47 121.84 L 23.37 120.28 L 24.27 118.72 L 25.17 117.16 L 26.07 115.60 L 26.97 114.04 L 27.87 112.48 L 28.77 110.92 L 29.67 109.36 L 30.57 107.81 L 31.47 106.25 L 32.37 104.69 L 33.27 103.13 L 34.17 101.57 L 35.07 100.01 L 35.97 98.45 L 36.87 96.89 L 37.77 95.33 L 38.67 93.78 L 39.57 92.22 L 40.47 90.66 L 41.37 89.10 L 42.27 87.54 L 43.17 85.98 L 44.07 84.42 L 44.97 82.86 L 45.87 81.30 L 46.77 79.75 L 47.67 78.19 L 48.57 76.63 L 49.47 75.07 L 50.37 73.51 L 51.27 71.95 L 52.17 70.39 L 53.07 68.83 L 53.97 67.28 L 54.87 65.72 L 55.77 64.16 L 56.67 62.60 L 57.57 61.04 L 58.47 59.48 L 59.37 57.92 L 60.27 56.36 L 61.17 54.80 L 62.07 53.25 L 62.97 51.69 L 63.87 50.13 L 64.77 48.57 L 65.67 47.01 L 66.57 45.45 L 67.47 43.89 L 68.37 42.33 L 69.27 40.77 L 70.17 39.22 L 71.07 37.66 L 71.97 36.10 L 72.87 34.54 L 73.77 32.98 L 74.67 31.42 L 75.57 29.86 L 76.47 28.30 L 77.37 26.74 L 78.27 25.19 L 79.17 23.63 L 80.07 22.07 L 80.97 20.51 L 81.87 18.95 L 82.77 17.39 L 83.67 15.83 L 84.57 14.27 L 85.47 12.72 L 86.37 11.16 L 86.35 11.04 L 88.14 10.81 L 89.92 10.58 L 90.73 10.48 L 90.93 10.46 L 90.03 12.02 L 89.13 13.58 L 88.23 15.14 L 87.33 16.69 L 86.43 18.25 L 85.53 19.81 L 84.63 21.37 L 83.73 22.93 L 82.83 24.49 L 81.93 26.05 L 81.03 27.61 L 80.13 29.17 L 79.23 30.72 L 78.33 32.28 L 77.43 33.84 L 76.53 35.40 L 75.63 36.96 L 74.73 38.52 L 73.83 40.08 L 72.93 41.64 L 72.03 43.19 L 71.13 44.75 L 70.23 46.31 L 69.33 47.87 L 68.43 49.43 L 67.53 50.99 L 66.63 52.55 L 65.73 54.11 L 64.83 55.67 L 63.93 57.22 L 63.03 58.78 L 62.13 60.34 L 61.23 61.90 L 60.33 63.46 L 59.43 65.02 L 58.53 66.58 L 57.63 68.14 L 56.73 69.69 L 55.83 71.25 L 54.93 72.81 L 54.03 74.37 L 53.13 75.93 L 52.23 77.49 L 51.33 79.05 L 50.43 80.61 L 49.53 82.17 L 48.63 83.72 L 47.73 85.28 L 46.83 86.84 L 45.93 88.40 L 45.03 89.96 L 44.13 91.52 L 43.23 93.08 L 42.33 94.64 L 41.43 96.20 L 40.53 97.75 L 39.63 99.31 L 38.73 100.87 L 37.83 102.43 L 36.93 103.99 L 36.03 105.55 L 35.13 107.11 L 34.23 108.67 L 33.33 110.23 L 32.43 111.78 L 31.53 113.34 L 30.63 114.90 L 29.73 116.46 L 28.83 118.02 L 27.93 119.58 L 27.03 121.14 L 26.13 122.70 L 25.23 124.25 L 24.33 125.81 L 23.43 127.37 L 22.53 128.93 L 21.63 130.49 L 20.73 132.05 L 19.83 133.61 L 18.93 135.17 L 18.03 136.73 L 17.92 136.92 L 18.70 138.54 L 19.47 140.16 L 19.80 140.85 L 20.70 139.29 L 21.60 137.73 L 22.50 136.17 L 23.40 134.61 L 24.30 133.05 L 25.20 131.50 L 26.10 129.94 L 27.00 128.38 L 27.90 126.82 L 28.80 125.26 L 29.70 123.70 L 30.60 122.14 L 31.50 120.58 L 32.40 119.03 L 33.30 117.47 L 34.20 115.91 L 35.10 114.35 L 36.00 112.79 L 36.90 111.23 L 37.80 109.67 L 38.70 108.11 L 39.60 106.55 L 40.50 105.00 L 41.40 103.44 L 42.30 101.88 L 43.20 100.32 L 44.10 98.76 L 45.00 97.20 L 45.90 95.64 L 46.80 94.08 L 47.70 92.53 L 48.60 90.97 L 49.50 89.41 L 50.40 87.85 L 51.30 86.29 L 52.20 84.73 L 53.10 83.17 L 54.00 81.61 L 54.90 80.05 L 55.80 78.50 L 56.70 76.94 L 57.60 75.38 L 58.50 73.82 L 59.40 72.26 L 60.30 70.70 L 61.20 69.14 L 62.10 67.58 L 63.00 66.02 L 63.90 64.47 L 64.80 62.91 L 65.70 61.35 L 66.60 59.79 L 67.50 58.23 L 68.40 56.67 L 69.30 55.11 L 70.20 53.55 L 71.10 51.99 L 72.00 50.44 L 72.90 48.88 L 73.80 47.32 L 74.70 45.76 L 75.60 44.20 L 76.50 42.64 L 77.40 41.08 L 78.30 39.52 L 79.20 37.97 L 80.10 36.41 L 81.00 34.85 L 81.90 33.29 L 82.80 31.73 L 83.70 30.17 L 84.60 28.61 L 85.50 27.05 L 86.40 25.49 L 87.30 23.94 L 88.20 22.38 L 89.10 20.82 L 90.00 19.26 L 90.90 17.70 L 91.80 16.14 L 92.70 14.58 L 93.60 13.02 L 94.50 11.46 L 95.28 10.12 L 97.08 10.07 L 98.88 10.02 L 99.51 10.00 L 98.61 11.56 L 97.71 13.12 L 96.81 14.68 L 95.91 16.24 L 95.01 17.80 L 94.11 19.35 L 93.21 20.91 L 92.31 22.47 L 91.41 24.03 L 90.51 25.59 L 89.61 27.15 L 88.71 28.71 L 87.81 30.27 L 86.91 31.82 L 86.01 33.38 L 85.11 34.94 L 84.21 36.50 L 83.31 38.06 L 82.41 39.62 L 81.51 41.18 L 80.61 42.74 L 79.71 44.30 L 78.81 45.85 L 77.91 47.41 L 77.01 48.97 L 76.11 50.53 L 75.21 52.09 L 74.31 53.65 L 73.41 55.21 L 72.51 56.77 L 71.61 58.33 L 70.71 59.88 L 69.81 61.44 L 68.91 63.00 L 68.01 64.56 L 67.11 66.12 L 66.21 67.68 L 65.31 69.24 L 64.41 70.80 L 63.51 72.35 L 62.61 73.91 L 61.71 75.47 L 60.81 77.03 L 59.91 78.59 L 59.01 80.15 L 58.11 81.71 L 57.21 83.27 L 56.31 84.83 L 55.41 86.38 L 54.51 87.94 L 53.61 89.50 L 52.71 91.06 L 51.81 92.62 L 50.91 94.18 L 50.01 95.74 L 49.11 97.30 L 48.21 98.86 L 47.31 100.41 L 46.41 101.97 L 45.51 103.53 L 44.61 105.09 L 43.71 106.65 L 42.81 108.21 L 41.91 109.77 L 41.01 111.33 L 40.11 112.88 L 39.21 114.44 L 38.31 116.00 L 37.41 117.56 L 36.51 119.12 L 35.61 120.68 L 34.71 122.24 L 33.81 123.80 L 32.91 125.36 L 32.01 126.91 L 31.11 128.47 L 30.21 130.03 L 29.31 131.59 L 28.41 133.15 L 27.51 134.71 L 26.61 136.27 L 25.71 137.83 L 24.81 139.39 L 23.91 140.94 L 23.01 142.50 L 22.11 144.06 L 21.66 144.31 L 22.59 145.86 L 23.51 147.40 L 23.93 148.10 L 24.83 146.54 L 25.73 144.98 L 26.63 143.42 L 27.53 141.86 L 28.43 140.31 L 29.33 138.75 L 30.23 137.19 L 31.13 135.63 L 32.03 134.07 L 32.93 132.51 L 33.83 130.95 L 34.73 129.39 L 35.63 127.84 L 36.53 126.28 L 37.43 124.72 L 38.33 123.16 L 39.23 121.60 L 40.13 120.04 L 41.03 118.48 L 41.93 116.92 L 42.83 115.36 L 43.73 113.81 L 44.63 112.25 L 45.53 110.69 L 46.43 109.13 L 47.33 107.57 L 48.23 106.01 L 49.13 104.45 L 50.03 102.89 L 50.93 101.33 L 51.83 99.78 L 52.73 98.22 L 53.63 96.66 L 54.53 95.10 L 55.43 93.54 L 56.33 91.98 L 57.23 90.42 L 58.13 88.86 L 59.03 87.31 L 59.93 85.75 L 60.83 84.19 L 61.73 82.63 L 62.63 81.07 L 63.53 79.51 L 64.43 77.95 L 65.33 76.39 L 66.23 74.83 L 67.13 73.28 L 68.03 71.72 L 68.93 70.16 L 69.83 68.60 L 70.73 67.04 L 71.63 65.48 L 72.53 63.92 L 73.43 62.36 L 74.33 60.80 L 75.23 59.25 L 76.13 57.69 L 77.03 56.13 L 77.93 54.57 L 78.83 53.01 L 79.73 51.45 L 80.63 49.89 L 81.53 48.33 L 82.43 46.78 L 83.33 45.22 L 84.23 43.66 L 85.13 42.10 L 86.03 40.54 L 86.93 38.98 L 87.83 37.42 L 88.73 35.86 L 89.63 34.30 L 90.53 32.75 L 91.43 31.19 L 92.33 29.63 L 93.23 28.07 L 94.13 26.51 L 95.03 24.95 L 95.93 23.39 L 96.83 21.83 L 97.73 20.28 L 98.63 18.72 L 99.53 17.16 L 100.43 15.60 L 101.33 14.04 L 102.23 12.48 L 103.13 10.92 L 103.13 10.92 L 103.16 10.06 L 104.96 10.16 L 106.75 10.27 L 107.57 10.32 L 107.63 10.33 L 106.73 11.88 L 105.83 13.44 L 104.93 15.00 L 104.03 16.56 L 103.13 18.12 L 102.23 19.68 L 101.33 21.24 L 100.43 22.80 L 99.53 24.35 L 98.63 25.91 L 97.73 27.47 L 96.83 29.03 L 95.93 30.59 L 95.03 32.15 L 94.13 33.71 L 93.23 35.27 L 92.33 36.83 L 91.43 38.38 L 90.53 39.94 L 89.63 41.50 L 88.73 43.06 L 87.83 44.62 L 86.93 46.18 L 86.03 47.74 L 85.13 49.30 L 84.23 50.85 L 83.33 52.41 L 82.43 53.97 L 81.53 55.53 L 80.63 57.09 L 79.73 58.65 L 78.83 60.21 L 77.93 61.77 L 77.03 63.33 L 76.13 64.88 L 75.23 66.44 L 74.33 68.00 L 73.43 69.56 L 72.53 71.12 L 71.63 72.68 L 70.73 74.24 L 69.83 75.80 L 68.93 77.36 L 68.03 78.91 L 67.13 80.47 L 66.23 82.03 L 65.33 83.59 L 64.43 85.15 L 63.53 86.71 L 62.63 88.27 L 61.73 89.83 L 60.83 91.38 L 59.93 92.94 L 59.03 94.50 L 58.13 96.06 L 57.23 97.62 L 56.33 99.18 L 55.43 100.74 L 54.53 102.30 L 53.63 103.86 L 52.73 105.41 L 51.83 106.97 L 50.93 108.53 L 50.03 110.09 L 49.13 111.65 L 48.23 113.21 L 47.33 114.77 L 46.43 116.33 L 45.53 117.89 L 44.63 119.44 L 43.73 121.00 L 42.83 122.56 L 41.93 124.12 L 41.03 125.68 L 40.13 127.24 L 39.23 128.80 L 38.33 130.36 L 37.43 131.91 L 36.53 133.47 L 35.63 135.03 L 34.73 136.59 L 33.83 138.15 L 32.93 139.71 L 32.03 141.27 L 31.13 142.83 L 30.23 144.39 L 29.33 145.94 L 28.43 147.50 L 27.53 149.06 L 26.63 150.62 L 26.63 150.62 L 25.92 151.11 L 26.98 152.57 L 28.04 154.03 L 28.48 154.63 L 29.38 153.07 L 30.28 151.51 L 31.18 149.95 L 32.08 148.39 L 32.98 146.83 L 33.88 145.28 L 34.78 143.72 L 35.68 142.16 L 36.58 140.60 L 37.48 139.04 L 38.38 137.48 L 39.28 135.92 L 40.18 134.36 L 41.08 132.81 L 41.98 131.25 L 42.88 129.69 L 43.78 128.13 L 44.68 126.57 L 45.58 125.01 L 46.48 123.45 L 47.38 121.89 L 48.28 120.33 L 49.18 118.78 L 50.08 117.22 L 50.98 115.66 L 51.88 114.10 L 52.78 112.54 L 53.68 110.98 L 54.58 109.42 L 55.48 107.86 L 56.38 106.30 L 57.28 104.75 L 58.18 103.19 L 59.08 101.63 L 59.98 100.07 L 60.88 98.51 L 61.78 96.95 L 62.68 95.39 L 63.58 93.83 L 64.48 92.28 L 65.38 90.72 L 66.28 89.16 L 67.18 87.60 L 68.08 86.04 L 68.98 84.48 L 69.88 82.92 L 70.78 81.36 L 71.68 79.80 L 72.58 78.25 L 73.48 76.69 L 74.38 75.13 L 75.28 73.57 L 76.18 72.01 L 77.08 70.45 L 77.98 68.89 L 78.88 67.33 L 79.78 65.77 L 80.68 64.22 L 81.58 62.66 L 82.48 61.10 L 83.38 59.54 L 84.28 57.98 L 85.18 56.42 L 86.08 54.86 L 86.98 53.30 L 87.88 51.75 L 88.78 50.19 L 89.68 48.63 L 90.58 47.07 L 91.48 45.51 L 92.38 43.95 L 93.28 42.39 L 94.18 40.83 L 95.08 39.27 L 95.98 37.71 L 96.88 36.16 L 97.78 34.60 L 98.68 33.04 L 99.58 31.48 L 100.48 29.92 L 101.38 28.36 L 102.28 26.80 L 103.18 25.24 L 104.08 23.69 L 104.98 22.13 L 105.88 20.57 L 106.78 19.01 L 107.68 17.45 L 108.58 15.89 L 109.48 14.33 L 110.38 12.77 L 111.28 11.22 L 111.34 10.72 L 113.12 10.98 L 114.90 11.25 L 115.37 11.32 L 114.47 12.88 L 113.57 14.44 L 112.67 16.00 L 111.77 17.56 L 110.87 19.12 L 109.97 20.68 L 109.07 22.23 L 108.17 23.79 L 107.27 25.35 L 106.37 26.91 L 105.47 28.47 L 104.57 30.03 L 103.67 31.59 L 102.77 33.15 L 101.87 34.71 L 100.97 36.26 L 100.07 37.82 L 99.17 39.38 L 98.27 40.94 L 97.37 42.50 L 96.47 44.06 L 95.57 45.62 L 94.67 47.18 L 93.77 48.74 L 92.87 50.29 L 91.97 51.85 L 91.07 53.41 L 90.17 54.97 L 89.27 56.53 L 88.37 58.09 L 87.47 59.65 L 86.57 61.21 L 85.67 62.76 L 84.77 64.32 L 83.87 65.88 L 82.97 67.44 L 82.07 69.00 L 81.17 70.56 L 80.27 72.12 L 79.37 73.68 L 78.47 75.24 L 77.57 76.79 L 76.67 78.35 L 75.77 79.91 L 74.87 81.47 L 73.97 83.03 L 73.07 84.59 L 72.17 86.15 L 71.27 87.71 L 70.37 89.26 L 69.47 90.82 L 68.57 92.38 L 67.67 93.94 L 66.77 95.50 L 65.87 97.06 L 64.97 98.62 L 64.07 100.18 L 63.17 101.74 L 62.27 103.29 L 61.37 104.85 L 60.47 106.41 L 59.57 107.97 L 58.67 109.53 L 57.77 111.09 L 56.87 112.65 L 55.97 114.21 L 55.07 115.77 L 54.17 117.32 L 53.27 118.88 L 52.37 120.44 L 51.47 122.00 L 50.57 123.56 L 49.67 125.12 L 48.77 126.68 L 47.87 128.24 L 46.97 129.79 L 46.07 131.35 L 45.17 132.91 L 44.27 134.47 L 43.37 136.03 L 42.47 137.59 L 41.57 139.15 L 40.67 140.71 L 39.77 142.27 L 38.87 143.82 L 37.97 145.38 L 37.07 146.94 L 36.17 148.50 L 35.27 150.06 L 34.37 151.62 L 33.47 153.18 L 32.57 154.74 L 31.67 156.30 L 30.89 157.65 L 32.07 159.01 L 33.25 160.37 L 33.39 160.52 L 34.29 158.96 L 35.19 157.40 L 36.09 155.84 L 36.99 154.29 L 37.89 152.73 L 38.79 151.17 L 39.69 149.61 L 40.59 148.05 L 41.49 146.49 L 42.39 144.93 L 43.29 143.37 L 44.19 141.82 L 45.09 140.26 L 45.99 138.70 L 46.89 137.14 L 47.79 135.58 L 48.69 134.02 L 49.59 132.46 L 50.49 130.90 L 51.39 129.34 L 52.29 127.79 L 53.19 126.23 L 54.09 124.67 L 54.99 123.11 L 55.89 121.55 L 56.79 119.99 L 57.69 118.43 L 58.59 116.87 L 59.49 115.31 L 60.39 113.76 L 61.29 112.20 L 62.19 110.64 L 63.09 109.08 L 63.99 107.52 L 64.89 105.96 L 65.79 104.40 L 66.69 102.84 L 67.59 101.29 L 68.49 99.73 L 69.39 98.17 L 70.29 96.61 L 71.19 95.05 L 72.09 93.49 L 72.99 91.93 L 73.89 90.37 L 74.79 88.81 L 75.69 87.26 L 76.59 85.70 L 77.49 84.14 L 78.39 82.58 L 79.29 81.02 L 80.19 79.46 L 81.09 77.90 L 81.99 76.34 L 82.89 74.78 L 83.79 73.23 L 84.69 71.67 L 85.59 70.11 L 86.49 68.55 L 87.39 66.99 L 88.29 65.43 L 89.19 63.87 L 90.09 62.31 L 90.99 60.76 L 91.89 59.20 L 92.79 57.64 L 93.69 56.08 L 94.59 54.52 L 95.49 52.96 L 96.39 51.40 L 97.29 49.84 L 98.19 48.28 L 99.09 46.73 L 99.99 45.17 L 100.89 43.61 L 101.79 42.05 L 102.69 40.49 L 103.59 38.93 L 104.49 37.37 L 105.39 35.81 L 106.29 34.25 L 107.19 32.70 L 108.09 31.14 L 108.99 29.58 L 109.89 28.02 L 110.79 26.46 L 111.69 24.90 L 112.59 23.34 L 113.49 21.78 L 114.39 20.22 L 115.29 18.67 L 116.19 17.11 L 117.09 15.55 L 117.99 13.99 L 118.89 12.43 L 119.11 12.05 L 120.86 12.47 L 122.61 12.89 L 122.76 12.93 L 121.86 14.48 L 120.96 16.04 L 120.06 17.60 L 119.16 19.16 L 118.26 20.72 L 117.36 22.28 L 116.46 23.84 L 115.56 25.40 L 114.66 26.95 L 113.76 28.51 L 112.86 30.07 L 111.96 31.63 L 111.06 33.19 L 110.16 34.75 L 109.26 36.31 L 108.36 37.87 L 107.46 39.43 L 106.56 40.98 L 105.66 42.54 L 104.76 44.10 L 103.86 45.66 L 102.96 47.22 L 102.06 48.78 L 101.16 50.34 L 100.26 51.90 L 99.36 53.45 L 98.46 55.01 L 97.56 56.57 L 96.66 58.13 L 95.76 59.69 L 94.86 61.25 L 93.96 62.81 L 93.06 64.37 L 92.16 65.93 L 91.26 67.48 L 90.36 69.04 L 89.46 70.60 L 88.56 72.16 L 87.66 73.72 L 86.76 75.28 L 85.86 76.84 L 84.96 78.40 L 84.06 79.96 L 83.16 81.51 L 82.26 83.07 L 81.36 84.63 L 80.46 86.19 L 79.56 87.75 L 78.66 89.31 L 77.76 90.87 L 76.86 92.43 L 75.96 93.99 L 75.06 95.54 L 74.16 97.10 L 73.26 98.66 L 72.36 100.22 L 71.46 101.78 L 70.56 103.34 L 69.66 104.90 L 68.76 106.46 L 67.86 108.01 L 66.96 109.57 L 66.06 111.13 L 65.16 112.69 L 64.26 114.25 L 63.36 115.81 L 62.46 117.37 L 61.56 118.93 L 60.66 120.49 L 59.76 122.04 L 58.86 123.60 L 57.96 125.16 L 57.06 126.72 L 56.16 128.28 L 55.26 129.84 L 54.36 131.40 L 53.46 132.96 L 52.56 134.51 L 51.66 136.07 L 50.76 137.63 L 49.86 139.19 L 48.96 140.75 L 48.06 142.31 L 47.16 143.87 L 46.26 145.43 L 45.36 146.99 L 44.46 148.55 L 43.56 150.10 L 42.66 151.66 L 41.76 153.22 L 40.86 154.78 L 39.96 156.34 L 39.06 157.90 L 38.16 159.46 L 37.26 161.02 L 36.36 162.57 L 36.36 162.57 L 35.83 163.10 L 37.11 164.36 L 38.40 165.61 L 38.63 165.84 L 39.53 164.28 L 40.43 162.72 L 41.33 161.16 L 42.23 159.60 L 43.13 158.04 L 44.03 156.48 L 44.93 154.92 L 45.83 153.36 L 46.73 151.80 L 47.63 150.25 L 48.53 148.69 L 49.43 147.13 L 50.33 145.57 L 51.23 144.01 L 52.13 142.45 L 53.03 140.89 L 53.93 139.33 L 54.83 137.78 L 55.73 136.22 L 56.63 134.66 L 57.53 133.10 L 58.43 131.54 L 59.33 129.98 L 60.23 128.42 L 61.13 126.86 L 62.03 125.30 L 62.93 123.75 L 63.83 122.19 L 64.73 120.63 L 65.63 119.07 L 66.53 117.51 L 67.43 115.95 L 68.33 114.39 L 69.23 112.83 L 70.13 111.28 L 71.03 109.72 L 71.93 108.16 L 72.83 106.60 L 73.73 105.04 L 74.63 103.48 L 75.53 101.92 L 76.43 100.36 L 77.33 98.80 L 78.23 97.25 L 79.13 95.69 L 80.03 94.13 L 80.93 92.57 L 81.83 91.01 L 82.73 89.45 L 83.63 87.89 L 84.53 86.33 L 85.43 84.77 L 86.33 83.22 L 87.23 81.66 L 88.13 80.10 L 89.03 78.54 L 89.93 76.98 L 90.83 75.42 L 91.73 73.86 L 92.63 72.30 L 93.53 70.74 L 94.43 69.19 L 95.33 67.63 L 96.23 66.07 L 97.13 64.51 L 98.03 62.95 L 98.93 61.39 L 99.83 59.83 L 100.73 58.27 L 101.63 56.72 L 102.53 55.16 L 103.43 53.60 L 104.33 52.04 L 105.23 50.48 L 106.13 48.92 L 107.03 47.36 L 107.93 45.80 L 108.83 44.24 L 109.73 42.69 L 110.63 41.13 L 111.53 39.57 L 112.43 38.01 L 113.33 36.45 L 114.23 34.89 L 115.13 33.33 L 116.03 31.77 L 116.93 30.22 L 117.83 28.66 L 118.73 27.10 L 119.63 25.54 L 120.53 23.98 L 121.43 22.42 L 122.33 20.86 L 123.23 19.30 L 124.13 17.74 L 125.03 16.19 L 125.93 14.63 L 126.33 13.94 L 128.04 14.50 L 129.75 15.06 L 129.83 15.09 L 128.93 16.64 L 128.03 18.20 L 127.13 19.76 L 126.23 21.32 L 125.33 22.88 L 124.43 24.44 L 123.53 26.00 L 122.63 27.56 L 121.73 29.12 L 120.83 30.67 L 119.93 32.23 L 119.03 33.79 L 118.13 35.35 L 117.23 36.91 L 116.33 38.47 L 115.43 40.03 L 114.53 41.59 L 113.63 43.15 L 112.73 44.70 L 111.83 46.26 L 110.93 47.82 L 110.03 49.38 L 109.13 50.94 L 108.23 52.50 L 107.33 54.06 L 106.43 55.62 L 105.53 57.17 L 104.63 58.73 L 103.73 60.29 L 102.83 61.85 L 101.93 63.41 L 101.03 64.97 L 100.13 66.53 L 99.23 68.09 L 98.33 69.65 L 97.43 71.21 L 96.53 72.76 L 95.63 74.32 L 94.73 75.88 L 93.83 77.44 L 92.93 79.00 L 92.03 80.56 L 91.13 82.12 L 90.23 83.68 L 89.33 85.23 L 88.43 86.79 L 87.53 88.35 L 86.63 89.91 L 85.73 91.47 L 84.83 93.03 L 83.93 94.59 L 83.03 96.15 L 82.13 97.71 L 81.23 99.26 L 80.33 100.82 L 79.43 102.38 L 78.53 103.94 L 77.63 105.50 L 76.73 107.06 L 75.83 108.62 L 74.93 110.18 L 74.03 111.73 L 73.13 113.29 L 72.23 114.85 L 71.33 116.41 L 70.43 117.97 L 69.53 119.53 L 68.63 121.09 L 67.73 122.65 L 66.83 124.21 L 65.93 125.76 L 65.03 127.32 L 64.13 128.88 L 63.23 130.44 L 62.33 132.00 L 61.43 133.56 L 60.53 135.12 L 59.63 136.68 L 58.73 138.23 L 57.83 139.79 L 56.93 141.35 L 56.03 142.91 L 55.13 144.47 L 54.23 146.03 L 53.33 147.59 L 52.43 149.15 L 51.53 150.71 L 50.63 152.26 L 49.73 153.82 L 48.83 155.38 L 47.93 156.94 L 47.03 158.50 L 46.13 160.06 L 45.23 161.62 L 44.33 163.18 L 43.43 164.74 L 42.53 166.29 L 41.63 167.85 L 41.63 167.85 L 41.30 168.23 L 42.69 169.37 L 44.08 170.52 L 44.19 170.61 L 45.09 169.05 L 45.99 167.49 L 46.89 165.93 L 47.79 164.37 L 48.69 162.81 L 49.59 161.26 L 50.49 159.70 L 51.39 158.14 L 52.29 156.58 L 53.19 155.02 L 54.09 153.46 L 54.99 151.90 L 55.89 150.34 L 56.79 148.78 L 57.69 147.23 L 58.59 145.67 L 59.49 144.11 L 60.39 142.55 L 61.29 140.99 L 62.19 139.43 L 63.09 137.87 L 63.99 136.31 L 64.89 134.75 L 65.79 133.20 L 66.69 131.64 L 67.59 130.08 L 68.49 128.52 L 69.39 126.96 L 70.29 125.40 L 71.19 123.84 L 72.09 122.28 L 72.99 120.72 L 73.89 119.17 L 74.79 117.61 L 75.69 116.05 L 76.59 114.49 L 77.49 112.93 L 78.39 111.37 L 79.29 109.81 L 80.19 108.25 L 81.09 106.70 L 81.99 105.14 L 82.89 103.58 L 83.79 102.02 L 84.69 100.46 L 85.59 98.90 L 86.49 97.34 L 87.39 95.78 L 88.29 94.22 L 89.19 92.67 L 90.09 91.11 L 90.99 89.55 L 91.89 87.99 L 92.79 86.43 L 93.69 84.87 L 94.59 83.31 L 95.49 81.75 L 96.39 80.19 L 97.29 78.64 L 98.19 77.08 L 99.09 75.52 L 99.99 73.96 L 100.89 72.40 L 101.79 70.84 L 102.69 69.28 L 103.59 67.72 L 104.49 66.17 L 105.39 64.61 L 106.29 63.05 L 107.19 61.49 L 108.09 59.93 L 108.99 58.37 L 109.89 56.81 L 110.79 55.25 L 111.69 53.69 L 112.59 52.14 L 113.49 50.58 L 114.39 49.02 L 115.29 47.46 L 116.19 45.90 L 117.09 44.34 L 117.99 42.78 L 118.89 41.22 L 119.79 39.66 L 120.69 38.11 L 121.59 36.55 L 122.49 34.99 L 123.39 33.43 L 124.29 31.87 L 125.19 30.31 L 126.09 28.75 L 126.99 27.19 L 127.89 25.64 L 128.79 24.08 L 129.69 22.52 L 130.59 20.96 L 131.49 19.40 L 132.39 17.84 L 133.24 16.36 L 134.90 17.06 L 136.56 17.76 L 136.59 17.77 L 135.69 19.33 L 134.79 20.89 L 133.89 22.45 L 132.99 24.01 L 132.09 25.57 L 131.19 27.13 L 130.29 28.69 L 129.39 30.24 L 128.49 31.80 L 127.59 33.36 L 126.69 34.92 L 125.79 36.48 L 124.89 38.04 L 123.99 39.60 L 123.09 41.16 L 122.19 42.71 L 121.29 44.27 L 120.39 45.83 L 119.49 47.39 L 118.59 48.95 L 117.69 50.51 L 116.79 52.07 L 115.89 53.63 L 114.99 55.19 L 114.09 56.74 L 113.19 58.30 L 112.29 59.86 L 111.39 61.42 L 110.49 62.98 L 109.59 64.54 L 108.69 66.10 L 107.79 67.66 L 106.89 69.22 L 105.99 70.77 L 105.09 72.33 L 104.19 73.89 L 103.29 75.45 L 102.39 77.01 L 101.49 78.57 L 100.59 80.13 L 99.69 81.69 L 98.79 83.24 L 97.89 84.80 L 96.99 86.36 L 96.09 87.92 L 95.19 89.48 L 94.29 91.04 L 93.39 92.60 L 92.49 94.16 L 91.59 95.72 L 90.69 97.27 L 89.79 98.83 L 88.89 100.39 L 87.99 101.95 L 87.09 103.51 L 86.19 105.07 L 85.29 106.63 L 84.39 108.19 L 83.49 109.74 L 82.59 111.30 L 81.69 112.86 L 80.79 114.42 L 79.89 115.98 L 78.99 117.54 L 78.09 119.10 L 77.19 120.66 L 76.29 122.22 L 75.39 123.78 L 74.49 125.33 L 73.59 126.89 L 72.69 128.45 L 71.79 130.01 L 70.89 131.57 L 69.99 133.13 L 69.09 134.69 L 68.19 136.25 L 67.29 137.80 L 66.39 139.36 L 65.49 140.92 L 64.59 142.48 L 63.69 144.04 L 62.79 145.60 L 61.89 147.16 L 60.99 148.72 L 60.09 150.28 L 59.19 151.83 L 58.29 153.39 L 57.39 154.95 L 56.49 156.51 L 55.59 158.07 L 54.69 159.63 L 53.79 161.19 L 52.89 162.75 L 51.99 164.31 L 51.09 165.86 L 50.19 167.42 L 49.29 168.98 L 48.39 170.54 L 47.49 172.10 L 47.08 172.80 L 48.56 173.83 L 50.04 174.86 L 50.05 174.87 L 50.95 173.31 L 51.85 171.75 L 52.75 170.19 L 53.65 168.63 L 54.55 167.07 L 55.45 165.51 L 56.35 163.95 L 57.25 162.39 L 58.15 160.84 L 59.05 159.28 L 59.95 157.72 L 60.85 156.16 L 61.75 154.60 L 62.65 153.04 L 63.55 151.48 L 64.45 149.92 L 65.35 148.37 L 66.25 146.81 L 67.15 145.25 L 68.05 143.69 L 68.95 142.13 L 69.85 140.57 L 70.75 139.01 L 71.65 137.45 L 72.55 135.89 L 73.45 134.34 L 74.35 132.78 L 75.25 131.22 L 76.15 129.66 L 77.05 128.10 L 77.95 126.54 L 78.85 124.98 L 79.75 123.42 L 80.65 121.86 L 81.55 120.31 L 82.45 118.75 L 83.35 117.19 L 84.25 115.63 L 85.15 114.07 L 86.05 112.51 L 86.95 110.95 L 87.85 109.39 L 88.75 107.84 L 89.65 106.28 L 90.55 104.72 L 91.45 103.16 L 92.35 101.60 L 93.25 100.04 L 94.15 98.48 L 95.05 96.92 L 95.95 95.36 L 96.85 93.81 L 97.75 92.25 L 98.65 90.69 L 99.55 89.13 L 100.45 87.57 L 101.35 86.01 L 102.25 84.45 L 103.15 82.89 L 104.05 81.34 L 104.95 79.78 L 105.85 78.22 L 106.75 76.66 L 107.65 75.10 L 108.55 73.54 L 109.45 71.98 L 110.35 70.42 L 111.25 68.86 L 112.15 67.31 L 113.05 65.75 L 113.95 64.19 L 114.85 62.63 L 115.75 61.07 L 116.65 59.51 L 117.55 57.95 L 118.45 56.39 L 119.35 54.83 L 120.25 53.28 L 121.15 51.72 L 122.05 50.16 L 122.95 48.60 L 123.85 47.04 L 124.75 45.48 L 125.65 43.92 L 126.55 42.36 L 127.45 40.80 L 128.35 39.25 L 129.25 37.69 L 130.15 36.13 L 131.05 34.57 L 131.95 33.01 L 132.85 31.45 L 133.75 29.89 L 134.65 28.33 L 135.55 26.78 L 136.45 25.22 L 137.35 23.66 L 138.25 22.10 L 139.15 20.54 L 139.86 19.31 L 141.46 20.14 L 143.05 20.97 L 143.06 20.97 L 142.16 22.53 L 141.26 24.08 L 140.36 25.64 L 139.46 27.20 L 138.56 28.76 L 137.66 30.32 L 136.76 31.88 L 135.86 33.44 L 134.96 35.00 L 134.06 36.56 L 133.16 38.12 L 132.26 39.67 L 131.36 41.23 L 130.46 42.79 L 129.56 44.35 L 128.66 45.91 L 127.76 47.47 L 126.86 49.03 L 125.96 50.59 L 125.06 52.14 L 124.16 53.70 L 123.26 55.26 L 122.36 56.82 L 121.46 58.38 L 120.56 59.94 L 119.66 61.50 L 118.76 63.06 L 117.86 64.62 L 116.96 66.17 L 116.06 67.73 L 115.16 69.29 L 114.26 70.85 L 113.36 72.41 L 112.46 73.97 L 111.56 75.53 L 110.66 77.09 L 109.76 78.65 L 108.86 80.20 L 107.96 81.76 L 107.06 83.32 L 106.16 84.88 L 105.26 86.44 L 104.36 88.00 L 103.46 89.56 L 102.56 91.12 L 101.66 92.67 L 100.76 94.23 L 99.86 95.79 L 98.96 97.35 L 98.06 98.91 L 97.16 100.47 L 96.26 102.03 L 95.36 103.59 L 94.46 105.15 L 93.56 106.70 L 92.66 108.26 L 91.76 109.82 L 90.86 111.38 L 89.96 112.94 L 89.06 114.50 L 88.16 116.06 L 87.26 117.62 L 86.36 119.18 L 85.46 120.73 L 84.56 122.29 L 83.66 123.85 L 82.76 125.41 L 81.86 126.97 L 80.96 128.53 L 80.06 130.09 L 79.16 131.65 L 78.26 133.21 L 77.36 134.76 L 76.46 136.32 L 75.56 137.88 L 74.66 139.44 L 73.76 141.00 L 72.86 142.56 L 71.96 144.12 L 71.06 145.68 L 70.16 147.23 L 69.26 148.79 L 68.36 150.35 L 67.46 151.91 L 66.56 153.47 L 65.66 155.03 L 64.76 156.59 L 63.86 158.15 L 62.96 159.70 L 62.06 161.26 L 61.16 162.82 L 60.26 164.38 L 59.36 165.94 L 58.46 167.50 L 57.56 169.06 L 56.66 170.62 L 55.76 172.18 L 54.86 173.73 L 53.96 175.29 L 53.09 176.81 L 54.64 177.71 L 56.19 178.62 L 57.09 177.06 L 57.99 175.50 L 58.89 173.94 L 59.79 172.38 L 60.69 170.83 L 61.59 169.27 L 62.49 167.71 L 63.39 166.15 L 64.29 164.59 L 65.19 163.03 L 66.09 161.47 L 66.99 159.91 L 67.89 158.35 L 68.79 156.80 L 69.69 155.24 L 70.59 153.68 L 71.49 152.12 L 72.39 150.56 L 73.29 149.00 L 74.19 147.44 L 75.09 145.88 L 75.99 144.33 L 76.89 142.77 L 77.79 141.21 L 78.69 139.65 L 79.59 138.09 L 80.49 136.53 L 81.39 134.97 L 82.29 133.41 L 83.19 131.85 L 84.09 130.30 L 84.99 128.74 L 85.89 127.18 L 86.79 125.62 L 87.69 124.06 L 88.59 122.50 L 89.49 120.94 L 90.39 119.38 L 91.29 117.83 L 92.19 116.27 L 93.09 114.71 L 93.99 113.15 L 94.89 111.59 L 95.79 110.03 L 96.69 108.47 L 97.59 106.91 L 98.49 105.35 L 99.39 103.79 L 100.29 102.24 L 101.19 100.68 L 102.09 99.12 L 102.99 97.56 L 103.89 96.00 L 104.79 94.44 L 105.69 92.88 L 106.59 91.32 L 107.49 89.77 L 108.39 88.21 L 109.29 86.65 L 110.19 85.09 L 111.09 83.53 L 111.99 81.97 L 112.89 80.41 L 113.79 78.85 L 114.69 77.29 L 115.59 75.74 L 116.49 74.18 L 117.39 72.62 L 118.29 71.06 L 119.19 69.50 L 120.09 67.94 L 120.99 66.38 L 121.89 64.82 L 122.79 63.26 L 123.69 61.71 L 124.59 60.15 L 125.49 58.59 L 126.39 57.03 L 127.29 55.47 L 128.19 53.91 L 129.09 52.35 L 129.99 50.80 L 130.89 49.24 L 131.79 47.68 L 132.69 46.12 L 133.59 44.56 L 134.49 43.00 L 135.39 41.44 L 136.29 39.88 L 137.19 38.32 L 138.09 36.77 L 138.99 35.21 L 139.89 33.65 L 140.79 32.09 L 141.69 30.53 L 142.59 28.97 L 143.49 27.41 L 144.39 25.85 L 145.29 24.29 L 146.18 22.75 L 147.71 23.71 L 149.24 24.66 L 149.24 24.66 L 148.34 26.22 L 147.44 27.78 L 146.54 29.34 L 145.64 30.90 L 144.74 32.46 L 143.84 34.02 L 142.94 35.57 L 142.04 37.13 L 141.14 38.69 L 140.24 40.25 L 139.34 41.81 L 138.44 43.37 L 137.54 44.93 L 136.64 46.49 L 135.74 48.05 L 134.84 49.60 L 133.94 51.16 L 133.04 52.72 L 132.14 54.28 L 131.24 55.84 L 130.34 57.40 L 129.44 58.96 L 128.54 60.52 L 127.64 62.08 L 126.74 63.63 L 125.84 65.19 L 124.94 66.75 L 124.04 68.31 L 123.14 69.87 L 122.24 71.43 L 121.34 72.99 L 120.44 74.55 L 119.54 76.11 L 118.64 77.66 L 117.74 79.22 L 116.84 80.78 L 115.94 82.34 L 115.04 83.90 L 114.14 85.46 L 113.24 87.02 L 112.34 88.58 L 111.44 90.13 L 110.54 91.69 L 109.64 93.25 L 108.74 94.81 L 107.84 96.37 L 106.94 97.93 L 106.04 99.49 L 105.14 101.05 L 104.24 102.61 L 103.34 104.16 L 102.44 105.72 L 101.54 107.28 L 100.64 108.84 L 99.74 110.40 L 98.84 111.96 L 97.94 113.52 L 97.04 115.08 L 96.14 116.64 L 95.24 118.19 L 94.34 119.75 L 93.44 121.31 L 92.54 122.87 L 91.64 124.43 L 90.74 125.99 L 89.84 127.55 L 88.94 129.11 L 88.04 130.67 L 87.14 132.22 L 86.24 133.78 L 85.34 135.34 L 84.44 136.90 L 83.54 138.46 L 82.64 140.02 L 81.74 141.58 L 80.84 143.14 L 79.94 144.69 L 79.04 146.25 L 78.14 147.81 L 77.24 149.37 L 76.34 150.93 L 75.44 152.49 L 74.54 154.05 L 73.64 155.61 L 72.74 157.17 L 71.84 158.72 L 70.94 160.28 L 70.04 161.84 L 69.14 163.40 L 68.24 164.96 L 67.34 166.52 L 66.44 168.08 L 65.54 169.64 L 64.64 171.20 L 63.74 172.75 L 62.84 174.31 L 61.94 175.87 L 61.04 177.43 L 60.14 178.99 L 59.38 180.31 L 61.00 181.09 L 62.62 181.87 L 62.63 181.87 L 63.53 180.32 L 64.43 178.76 L 65.33 177.20 L 66.23 175.64 L 67.13 174.08 L 68.03 172.52 L 68.93 170.96 L 69.83 169.40 L 70.73 167.85 L 71.63 166.29 L 72.53 164.73 L 73.43 163.17 L 74.33 161.61 L 75.23 160.05 L 76.13 158.49 L 77.03 156.93 L 77.93 155.37 L 78.83 153.81 L 79.73 152.26 L 80.63 150.70 L 81.53 149.14 L 82.43 147.58 L 83.33 146.02 L 84.23 144.46 L 85.13 142.90 L 86.03 141.34 L 86.93 139.79 L 87.83 138.23 L 88.73 136.67 L 89.63 135.11 L 90.53 133.55 L 91.43 131.99 L 92.33 130.43 L 93.23 128.87 L 94.13 127.31 L 95.03 125.76 L 95.93 124.20 L 96.83 122.64 L 97.73 121.08 L 98.63 119.52 L 99.53 117.96 L 100.43 116.40 L 101.33 114.84 L 102.23 113.29 L 103.13 111.73 L 104.03 110.17 L 104.93 108.61 L 105.83 107.05 L 106.73 105.49 L 107.63 103.93 L 108.53 102.37 L 109.43 100.81 L 110.33 99.26 L 111.23 97.70 L 112.13 96.14 L 113.03 94.58 L 113.93 93.02 L 114.83 91.46 L 115.73 89.90 L 116.63 88.34 L 117.53 86.78 L 118.43 85.23 L 119.33 83.67 L 120.23 82.11 L 121.13 80.55 L 122.03 78.99 L 122.93 77.43 L 123.83 75.87 L 124.73 74.31 L 125.63 72.76 L 126.53 71.20 L 127.43 69.64 L 128.33 68.08 L 129.23 66.52 L 130.13 64.96 L 131.03 63.40 L 131.93 61.84 L 132.83 60.28 L 133.73 58.73 L 134.63 57.17 L 135.53 55.61 L 136.43 54.05 L 137.33 52.49 L 138.23 50.93 L 139.13 49.37 L 140.03 47.81 L 140.93 46.25 L 141.83 44.70 L 142.73 43.14 L 143.63 41.58 L 144.53 40.02 L 145.43 38.46 L 146.33 36.90 L 147.23 35.34 L 148.13 33.78 L 149.03 32.23 L 149.93 30.67 L 150.83 29.11 L 151.73 27.55 L 152.22 26.70 L 153.66 27.77 L 155.11 28.85 L 155.13 28.86 L 154.23 30.42 L 153.33 31.98 L 152.43 33.54 L 151.53 35.10 L 150.63 36.65 L 149.73 38.21 L 148.83 39.77 L 147.93 41.33 L 147.03 42.89 L 146.13 44.45 L 145.23 46.01 L 144.33 47.57 L 143.43 49.13 L 142.53 50.68 L 141.63 52.24 L 140.73 53.80 L 139.83 55.36 L 138.93 56.92 L 138.03 58.48 L 137.13 60.04 L 136.23 61.60 L 135.33 63.15 L 134.43 64.71 L 133.53 66.27 L 132.63 67.83 L 131.73 69.39 L 130.83 70.95 L 129.93 72.51 L 129.03 74.07 L 128.13 75.63 L 127.23 77.18 L 126.33 78.74 L 125.43 80.30 L 124.53 81.86 L 123.63 83.42 L 122.73 84.98 L 121.83 86.54 L 120.93 88.10 L 120.03 89.66 L 119.13 91.21 L 118.23 92.77 L 117.33 94.33 L 116.43 95.89 L 115.53 97.45 L 114.63 99.01 L 113.73 100.57 L 112.83 102.13 L 111.93 103.68 L 111.03 105.24 L 110.13 106.80 L 109.23 108.36 L 108.33 109.92 L 107.43 111.48 L 106.53 113.04 L 105.63 114.60 L 104.73 116.16 L 103.83 117.71 L 102.93 119.27 L 102.03 120.83 L 101.13 122.39 L 100.23 123.95 L 99.33 125.51 L 98.43 127.07 L 97.53 128.63 L 96.63 130.19 L 95.73 131.74 L 94.83 133.30 L 93.93 134.86 L 93.03 136.42 L 92.13 137.98 L 91.23 139.54 L 90.33 141.10 L 89.43 142.66 L 88.53 144.21 L 87.63 145.77 L 86.73 147.33 L 85.83 148.89 L 84.93 150.45 L 84.03 152.01 L 83.13 153.57 L 82.23 155.13 L 81.33 156.69 L 80.43 158.24 L 79.53 159.80 L 78.63 161.36 L 77.73 162.92 L 76.83 164.48 L 75.93 166.04 L 75.03 167.60 L 74.13 169.16 L 73.23 170.72 L 72.33 172.27 L 71.43 173.83 L 70.53 175.39 L 69.63 176.95 L 68.73 178.51 L 67.83 180.07 L 66.93 181.63 L 66.03 183.19 L 65.96 183.31 L 67.64 183.96 L 69.32 184.61 L 69.36 184.62 L 70.26 183.06 L 71.16 181.51 L 72.06 179.95 L 72.96 178.39 L 73.86 176.83 L 74.76 175.27 L 75.66 173.71 L 76.56 172.15 L 77.46 170.59 L 78.36 169.03 L 79.26 167.48 L 80.16 165.92 L 81.06 164.36 L 81.96 162.80 L 82.86 161.24 L 83.76 159.68 L 84.66 158.12 L 85.56 156.56 L 86.46 155.00 L 87.36 153.45 L 88.26 151.89 L 89.16 150.33 L 90.06 148.77 L 90.96 147.21 L 91.86 145.65 L 92.76 144.09 L 93.66 142.53 L 94.56 140.98 L 95.46 139.42 L 96.36 137.86 L 97.26 136.30 L 98.16 134.74 L 99.06 133.18 L 99.96 131.62 L 100.86 130.06 L 101.76 128.50 L 102.66 126.95 L 103.56 125.39 L 104.46 123.83 L 105.36 122.27 L 106.26 120.71 L 107.16 119.15 L 108.06 117.59 L 108.96 116.03 L 109.86 114.47 L 110.76 112.92 L 111.66 111.36 L 112.56 109.80 L 113.46 108.24 L 114.36 106.68 L 115.26 105.12 L 116.16 103.56 L 117.06 102.00 L 117.96 100.44 L 118.86 98.89 L 119.76 97.33 L 120.66 95.77 L 121.56 94.21 L 122.46 92.65 L 123.36 91.09 L 124.26 89.53 L 125.16 87.97 L 126.06 86.42 L 126.96 84.86 L 127.86 83.30 L 128.76 81.74 L 129.66 80.18 L 130.56 78.62 L 131.46 77.06 L 132.36 75.50 L 133.26 73.94 L 134.16 72.39 L 135.06 70.83 L 135.96 69.27 L 136.86 67.71 L 137.76 66.15 L 138.66 64.59 L 139.56 63.03 L 140.46 61.47 L 141.36 59.91 L 142.26 58.36 L 143.16 56.80 L 144.06 55.24 L 144.96 53.68 L 145.86 52.12 L 146.76 50.56 L 147.66 49.00 L 148.56 47.44 L 149.46 45.88 L 150.36 44.33 L 151.26 42.77 L 152.16 41.21 L 153.06 39.65 L 153.96 38.09 L 154.86 36.53 L 155.76 34.97 L 156.66 33.41 L 157.56 31.86 L 158.07 31.24 L 159.43 32.43 L 160.72 33.57 L 159.82 35.13 L 158.92 36.69 L 158.02 38.25 L 157.12 39.81 L 156.22 41.37 L 155.32 42.92 L 154.42 44.48 L 153.52 46.04 L 152.62 47.60 L 151.72 49.16 L 150.82 50.72 L 149.92 52.28 L 149.02 53.84 L 148.12 55.40 L 147.22 56.95 L 146.32 58.51 L 145.42 60.07 L 144.52 61.63 L 143.62 63.19 L 142.72 64.75 L 141.82 66.31 L 140.92 67.87 L 140.02 69.43 L 139.12 70.98 L 138.22 72.54 L 137.32 74.10 L 136.42 75.66 L 135.52 77.22 L 134.62 78.78 L 133.72 80.34 L 132.82 81.90 L 131.92 83.45 L 131.02 85.01 L 130.12 86.57 L 129.22 88.13 L 128.32 89.69 L 127.42 91.25 L 126.52 92.81 L 125.62 94.37 L 124.72 95.93 L 123.82 97.48 L 122.92 99.04 L 122.02 100.60 L 121.12 102.16 L 120.22 103.72 L 119.32 105.28 L 118.42 106.84 L 117.52 108.40 L 116.62 109.95 L 115.72 111.51 L 114.82 113.07 L 113.92 114.63 L 113.02 116.19 L 112.12 117.75 L 111.22 119.31 L 110.32 120.87 L 109.42 122.43 L 108.52 123.98 L 107.62 125.54 L 106.72 127.10 L 105.82 128.66 L 104.92 130.22 L 104.02 131.78 L 103.12 133.34 L 102.22 134.90 L 101.32 136.46 L 100.42 138.01 L 99.52 139.57 L 98.62 141.13 L 97.72 142.69 L 96.82 144.25 L 95.92 145.81 L 95.02 147.37 L 94.12 148.93 L 93.22 150.49 L 92.32 152.04 L 91.42 153.60 L 90.52 155.16 L 89.62 156.72 L 88.72 158.28 L 87.82 159.84 L 86.92 161.40 L 86.02 162.96 L 85.12 164.51 L 84.22 166.07 L 83.32 167.63 L 82.42 169.19 L 81.52 170.75 L 80.62 172.31 L 79.72 173.87 L 78.82 175.43 L 77.92 176.99 L 77.02 178.54 L 76.12 180.10 L 75.22 181.66 L 74.32 183.22 L 73.42 184.78 L 72.83 185.80 L 74.56 186.31 L 76.29 186.82 L 76.39 186.85 L 77.29 185.29 L 78.19 183.73 L 79.09 182.17 L 79.99 180.61 L 80.89 179.05 L 81.79 177.49 L 82.69 175.93 L 83.59 174.38 L 84.49 172.82 L 85.39 171.26 L 86.29 169.70 L 87.19 168.14 L 88.09 166.58 L 88.99 165.02 L 89.89 163.46 L 90.79 161.90 L 91.69 160.35 L 92.59 158.79 L 93.49 157.23 L 94.39 155.67 L 95.29 154.11 L 96.19 152.55 L 97.09 150.99 L 97.99 149.43 L 98.89 147.88 L 99.79 146.32 L 100.69 144.76 L 101.59 143.20 L 102.49 141.64 L 103.39 140.08 L 104.29 138.52 L 105.19 136.96 L 106.09 135.40 L 106.99 133.85 L 107.89 132.29 L 108.79 130.73 L 109.69 129.17 L 110.59 127.61 L 111.49 126.05 L 112.39 124.49 L 113.29 122.93 L 114.19 121.37 L 115.09 119.82 L 115.99 118.26 L 116.89 116.70 L 117.79 115.14 L 118.69 113.58 L 119.59 112.02 L 120.49 110.46 L 121.39 108.90 L 122.29 107.34 L 123.19 105.79 L 124.09 104.23 L 124.99 102.67 L 125.89 101.11 L 126.79 99.55 L 127.69 97.99 L 128.59 96.43 L 129.49 94.87 L 130.39 93.32 L 131.29 91.76 L 132.19 90.20 L 133.09 88.64 L 133.99 87.08 L 134.89 85.52 L 135.79 83.96 L 136.69 82.40 L 137.59 80.84 L 138.49 79.29 L 139.39 77.73 L 140.29 76.17 L 141.19 74.61 L 142.09 73.05 L 142.99 71.49 L 143.89 69.93 L 144.79 68.37 L 145.69 66.82 L 146.59 65.26 L 147.49 63.70 L 148.39 62.14 L 149.29 60.58 L 150.19 59.02 L 151.09 57.46 L 151.99 55.90 L 152.89 54.34 L 153.79 52.79 L 154.69 51.23 L 155.59 49.67 L 156.49 48.11 L 157.39 46.55 L 158.29 44.99 L 159.19 43.43 L 160.09 41.87 L 160.99 40.31 L 161.89 38.76 L 162.79 37.20 L 163.40 36.13 L 164.65 37.42 L 165.91 38.71 L 166.01 38.82 L 165.11 40.38 L 164.21 41.94 L 163.31 43.49 L 162.41 45.05 L 161.51 46.61 L 160.61 48.17 L 159.71 49.73 L 158.81 51.29 L 157.91 52.85 L 157.01 54.41 L 156.11 55.97 L 155.21 57.52 L 154.31 59.08 L 153.41 60.64 L 152.51 62.20 L 151.61 63.76 L 150.71 65.32 L 149.81 66.88 L 148.91 68.44 L 148.01 70.00 L 147.11 71.55 L 146.21 73.11 L 145.31 74.67 L 144.41 76.23 L 143.51 77.79 L 142.61 79.35 L 141.71 80.91 L 140.81 82.47 L 139.91 84.03 L 139.01 85.58 L 138.11 87.14 L 137.21 88.70 L 136.31 90.26 L 135.41 91.82 L 134.51 93.38 L 133.61 94.94 L 132.71 96.50 L 131.81 98.05 L 130.91 99.61 L 130.01 101.17 L 129.11 102.73 L 128.21 104.29 L 127.31 105.85 L 126.41 107.41 L 125.51 108.97 L 124.61 110.53 L 123.71 112.08 L 122.81 113.64 L 121.91 115.20 L 121.01 116.76 L 120.11 118.32 L 119.21 119.88 L 118.31 121.44 L 117.41 123.00 L 116.51 124.56 L 115.61 126.11 L 114.71 127.67 L 113.81 129.23 L 112.91 130.79 L 112.01 132.35 L 111.11 133.91 L 110.21 135.47 L 109.31 137.03 L 108.41 138.59 L 107.51 140.14 L 106.61 141.70 L 105.71 143.26 L 104.81 144.82 L 103.91 146.38 L 103.01 147.94 L 102.11 149.50 L 101.21 151.06 L 100.31 152.61 L 99.41 154.17 L 98.51 155.73 L 97.61 157.29 L 96.71 158.85 L 95.81 160.41 L 94.91 161.97 L 94.01 163.53 L 93.11 165.09 L 92.21 166.64 L 91.31 168.20 L 90.41 169.76 L 89.51 171.32 L 88.61 172.88 L 87.71 174.44 L 86.81 176.00 L 85.91 177.56 L 85.01 179.11 L 84.11 180.67 L 83.21 182.23 L 82.31 183.79 L 81.41 185.35 L 80.51 186.91 L 80.02 187.75 L 80.02 187.75 L 81.78 188.12 L 83.55 188.48 L 83.74 188.52 L 84.64 186.96 L 85.54 185.40 L 86.44 183.84 L 87.34 182.28 L 88.24 180.72 L 89.14 179.16 L 90.03 177.61 L 90.94 176.05 L 91.84 174.49 L 92.74 172.93 L 93.64 171.37 L 94.54 169.81 L 95.44 168.25 L 96.34 166.69 L 97.24 165.13 L 98.14 163.58 L 99.04 162.02 L 99.94 160.46 L 100.84 158.90 L 101.74 157.34 L 102.64 155.78 L 103.54 154.22 L 104.44 152.66 L 105.34 151.11 L 106.24 149.55 L 107.14 147.99 L 108.03 146.43 L 108.94 144.87 L 109.84 143.31 L 110.74 141.75 L 111.64 140.19 L 112.54 138.63 L 113.44 137.08 L 114.34 135.52 L 115.23 133.96 L 116.14 132.40 L 117.03 130.84 L 117.94 129.28 L 118.84 127.72 L 119.73 126.16 L 120.63 124.60 L 121.53 123.05 L 122.44 121.49 L 123.34 119.93 L 124.24 118.37 L 125.13 116.81 L 126.04 115.25 L 126.93 113.69 L 127.84 112.13 L 128.73 110.58 L 129.64 109.02 L 130.53 107.46 L 131.43 105.90 L 132.34 104.34 L 133.24 102.78 L 134.13 101.22 L 135.04 99.66 L 135.93 98.10 L 136.83 96.55 L 137.73 94.99 L 138.63 93.43 L 139.53 91.87 L 140.44 90.31 L 141.33 88.75 L 142.24 87.19 L 143.13 85.63 L 144.03 84.07 L 144.93 82.52 L 145.83 80.96 L 146.73 79.40 L 147.63 77.84 L 148.53 76.28 L 149.43 74.72 L 150.33 73.16 L 151.23 71.60 L 152.14 70.04 L 153.04 68.49 L 153.93 66.93 L 154.83 65.37 L 155.74 63.81 L 156.63 62.25 L 157.53 60.69 L 158.43 59.13 L 159.33 57.57 L 160.24 56.02 L 161.13 54.46 L 162.03 52.90 L 162.93 51.34 L 163.83 49.78 L 164.73 48.22 L 165.63 46.66 L 166.54 45.10 L 167.43 43.54 L 168.33 41.99 L 168.61 41.75 L 169.75 43.15 L 170.88 44.55 L 170.96 44.64 L 170.06 46.20 L 169.16 47.76 L 168.26 49.32 L 167.36 50.88 L 166.46 52.43 L 165.56 53.99 L 164.66 55.55 L 163.76 57.11 L 162.86 58.67 L 161.96 60.23 L 161.06 61.79 L 160.16 63.35 L 159.26 64.90 L 158.36 66.46 L 157.46 68.02 L 156.56 69.58 L 155.66 71.14 L 154.76 72.70 L 153.86 74.26 L 152.96 75.82 L 152.06 77.38 L 151.16 78.93 L 150.26 80.49 L 149.36 82.05 L 148.46 83.61 L 147.56 85.17 L 146.66 86.73 L 145.76 88.29 L 144.86 89.85 L 143.96 91.40 L 143.06 92.96 L 142.16 94.52 L 141.26 96.08 L 140.36 97.64 L 139.46 99.20 L 138.56 100.76 L 137.66 102.32 L 136.76 103.88 L 135.86 105.43 L 134.96 106.99 L 134.06 108.55 L 133.16 110.11 L 132.26 111.67 L 131.36 113.23 L 130.46 114.79 L 129.56 116.35 L 128.66 117.91 L 127.76 119.46 L 126.86 121.02 L 125.96 122.58 L 125.06 124.14 L 124.16 125.70 L 123.26 127.26 L 122.36 128.82 L 121.46 130.38 L 120.56 131.94 L 119.66 133.49 L 118.76 135.05 L 117.86 136.61 L 116.96 138.17 L 116.06 139.73 L 115.16 141.29 L 114.26 142.85 L 113.36 144.41 L 112.46 145.96 L 111.56 147.52 L 110.66 149.08 L 109.76 150.64 L 108.86 152.20 L 107.96 153.76 L 107.06 155.32 L 106.16 156.88 L 105.26 158.44 L 104.36 159.99 L 103.46 161.55 L 102.56 163.11 L 101.66 164.67 L 100.76 166.23 L 99.86 167.79 L 98.96 169.35 L 98.06 170.91 L 97.16 172.47 L 96.26 174.02 L 95.36 175.58 L 94.46 177.14 L 93.56 178.70 L 92.66 180.26 L 91.76 181.82 L 90.86 183.38 L 89.96 184.94 L 89.06 186.49 L 88.16 188.05 L 87.54 189.13 L 89.33 189.34 L 91.11 189.55 L 91.43 189.59 L 92.33 188.03 L 93.23 186.47 L 94.13 184.91 L 95.03 183.35 L 95.93 181.80 L 96.83 180.24 L 97.73 178.68 L 98.63 177.12 L 99.53 175.56 L 100.43 174.00 L 101.33 172.44 L 102.23 170.88 L 103.13 169.33 L 104.03 167.77 L 104.93 166.21 L 105.83 164.65 L 106.73 163.09 L 107.63 161.53 L 108.53 159.97 L 109.43 158.41 L 110.33 156.85 L 111.23 155.30 L 112.13 153.74 L 113.03 152.18 L 113.93 150.62 L 114.83 149.06 L 115.73 147.50 L 116.63 145.94 L 117.53 144.38 L 118.43 142.83 L 119.33 141.27 L 120.23 139.71 L 121.13 138.15 L 122.03 136.59 L 122.93 135.03 L 123.83 133.47 L 124.73 131.91 L 125.63 130.35 L 126.53 128.80 L 127.43 127.24 L 128.33 125.68 L 129.23 124.12 L 130.13 122.56 L 131.03 121.00 L 131.93 119.44 L 132.83 117.88 L 133.73 116.32 L 134.63 114.77 L 135.53 113.21 L 136.43 111.65 L 137.33 110.09 L 138.23 108.53 L 139.13 106.97 L 140.03 105.41 L 140.93 103.85 L 141.83 102.30 L 142.73 100.74 L 143.63 99.18 L 144.53 97.62 L 145.43 96.06 L 146.33 94.50 L 147.23 92.94 L 148.13 91.38 L 149.03 89.82 L 149.93 88.27 L 150.83 86.71 L 151.73 85.15 L 152.63 83.59 L 153.53 82.03 L 154.43 80.47 L 155.33 78.91 L 156.23 77.35 L 157.13 75.80 L 158.03 74.24 L 158.93 72.68 L 159.83 71.12 L 160.73 69.56 L 161.63 68.00 L 162.53 66.44 L 163.43 64.88 L 164.33 63.32 L 165.23 61.77 L 166.13 60.21 L 167.03 58.65 L 167.93 57.09 L 168.83 55.53 L 169.73 53.97 L 170.63 52.41 L 171.53 50.85 L 172.43 49.29 L 173.30 47.78 L 174.31 49.27 L 175.33 50.76 L 175.55 51.09 L 174.65 52.65 L 173.75 54.21 L 172.85 55.77 L 171.95 57.33 L 171.05 58.88 L 170.15 60.44 L 169.25 62.00 L 168.35 63.56 L 167.45 65.12 L 166.55 66.68 L 165.65 68.24 L 164.75 69.80 L 163.85 71.35 L 162.95 72.91 L 162.05 74.47 L 161.15 76.03 L 160.25 77.59 L 159.35 79.15 L 158.45 80.71 L 157.55 82.27 L 156.65 83.83 L 155.75 85.38 L 154.85 86.94 L 153.95 88.50 L 153.05 90.06 L 152.15 91.62 L 151.25 93.18 L 150.35 94.74 L 149.45 96.30 L 148.55 97.86 L 147.65 99.41 L 146.75 100.97 L 145.85 102.53 L 144.95 104.09 L 144.05 105.65 L 143.15 107.21 L 142.25 108.77 L 141.35 110.33 L 140.45 111.88 L 139.55 113.44 L 138.65 115.00 L 137.75 116.56 L 136.85 118.12 L 135.95 119.68 L 135.05 121.24 L 134.15 122.80 L 133.25 124.36 L 132.35 125.91 L 131.45 127.47 L 130.55 129.03 L 129.65 130.59 L 128.75 132.15 L 127.85 133.71 L 126.95 135.27 L 126.05 136.83 L 125.15 138.39 L 124.25 139.94 L 123.35 141.50 L 122.45 143.06 L 121.55 144.62 L 120.65 146.18 L 119.75 147.74 L 118.85 149.30 L 117.95 150.86 L 117.05 152.42 L 116.15 153.97 L 115.25 155.53 L 114.35 157.09 L 113.45 158.65 L 112.55 160.21 L 111.65 161.77 L 110.75 163.33 L 109.85 164.89 L 108.95 166.44 L 108.05 168.00 L 107.15 169.56 L 106.25 171.12 L 105.35 172.68 L 104.45 174.24 L 103.55 175.80 L 102.65 177.36 L 101.75 178.92 L 100.85 180.47 L 99.95 182.03 L 99.05 183.59 L 98.15 185.15 L 97.25 186.71 L 96.35 188.27 L 95.45 189.83 L 95.42 189.88 L 97.22 189.93 L 99.02 189.98 L 99.51 190.00 L 100.41 188.44 L 101.31 186.88 L 102.21 185.32 L 103.11 183.76 L 104.01 182.20 L 104.91 180.65 L 105.81 179.09 L 106.71 177.53 L 107.61 175.97 L 108.51 174.41 L 109.41 172.85 L 110.31 171.29 L 111.21 169.73 L 112.11 168.17 L 113.01 166.62 L 113.91 165.06 L 114.81 163.50 L 115.71 161.94 L 116.61 160.38 L 117.51 158.82 L 118.41 157.26 L 119.31 155.70 L 120.21 154.15 L 121.11 152.59 L 122.01 151.03 L 122.91 149.47 L 123.81 147.91 L 124.71 146.35 L 125.61 144.79 L 126.51 143.23 L 127.41 141.67 L 128.31 140.12 L 129.21 138.56 L 130.11 137.00 L 131.01 135.44 L 131.91 133.88 L 132.81 132.32 L 133.71 130.76 L 134.61 129.20 L 135.51 127.64 L 136.41 126.09 L 137.31 124.53 L 138.21 122.97 L 139.11 121.41 L 140.01 119.85 L 140.91 118.29 L 141.81 116.73 L 142.71 115.17 L 143.61 113.61 L 144.51 112.06 L 145.41 110.50 L 146.31 108.94 L 147.21 107.38 L 148.11 105.82 L 149.01 104.26 L 149.91 102.70 L 150.81 101.14 L 151.71 99.58 L 152.61 98.03 L 153.51 96.47 L 154.41 94.91 L 155.31 93.35 L 156.21 91.79 L 157.11 90.23 L 158.01 88.67 L 158.91 87.11 L 159.81 85.56 L 160.71 84.00 L 161.61 82.44 L 162.51 80.88 L 163.41 79.32 L 164.31 77.76 L 165.21 76.20 L 166.11 74.64 L 167.01 73.08 L 167.91 71.53 L 168.81 69.97 L 169.71 68.41 L 170.61 66.85 L 171.51 65.29 L 172.41 63.73 L 173.31 62.17 L 174.21 60.61 L 175.11 59.05 L 176.01 57.50 L 176.91 55.94 L 177.69 54.57 L 178.57 56.15 L 179.44 57.72 L 179.73 58.25 L 178.83 59.81 L 177.93 61.37 L 177.03 62.93 L 176.13 64.48 L 175.23 66.04 L 174.33 67.60 L 173.43 69.16 L 172.53 70.72 L 171.63 72.28 L 170.73 73.84 L 169.83 75.40 L 168.93 76.95 L 168.03 78.51 L 167.13 80.07 L 166.23 81.63 L 165.33 83.19 L 164.43 84.75 L 163.53 86.31 L 162.63 87.87 L 161.73 89.43 L 160.83 90.98 L 159.93 92.54 L 159.03 94.10 L 158.13 95.66 L 157.23 97.22 L 156.33 98.78 L 155.43 100.34 L 154.53 101.90 L 153.63 103.46 L 152.73 105.01 L 151.83 106.57 L 150.93 108.13 L 150.03 109.69 L 149.13 111.25 L 148.23 112.81 L 147.33 114.37 L 146.43 115.93 L 145.53 117.49 L 144.63 119.04 L 143.73 120.60 L 142.83 122.16 L 141.93 123.72 L 141.03 125.28 L 140.13 126.84 L 139.23 128.40 L 138.33 129.96 L 137.43 131.51 L 136.53 133.07 L 135.63 134.63 L 134.73 136.19 L 133.83 137.75 L 132.93 139.31 L 132.03 140.87 L 131.13 142.43 L 130.23 143.99 L 129.33 145.54 L 128.43 147.10 L 127.53 148.66 L 126.63 150.22 L 125.73 151.78 L 124.83 153.34 L 123.93 154.90 L 123.03 156.46 L 122.13 158.02 L 121.23 159.57 L 120.33 161.13 L 119.43 162.69 L 118.53 164.25 L 117.63 165.81 L 116.73 167.37 L 115.83 168.93 L 114.93 170.49 L 114.03 172.05 L 113.13 173.60 L 112.23 175.16 L 111.33 176.72 L 110.43 178.28 L 109.53 179.84 L 108.63 181.40 L 107.73 182.96 L 106.83 184.52 L 105.93 186.07 L 105.03 187.63 L 104.13 189.19 L 104.16 189.90 L 105.96 189.78 L 107.76 189.66 L 108.03 189.64 L 108.93 188.08 L 109.83 186.52 L 110.73 184.96 L 111.63 183.41 L 112.53 181.85 L 113.43 180.29 L 114.33 178.73 L 115.23 177.17 L 116.13 175.61 L 117.03 174.05 L 117.93 172.49 L 118.83 170.94 L 119.73 169.38 L 120.63 167.82 L 121.53 166.26 L 122.43 164.70 L 123.33 163.14 L 124.23 161.58 L 125.13 160.02 L 126.03 158.46 L 126.93 156.91 L 127.83 155.35 L 128.73 153.79 L 129.63 152.23 L 130.53 150.67 L 131.43 149.11 L 132.33 147.55 L 133.23 145.99 L 134.13 144.44 L 135.03 142.88 L 135.93 141.32 L 136.83 139.76 L 137.73 138.20 L 138.63 136.64 L 139.53 135.08 L 140.43 133.52 L 141.33 131.96 L 142.23 130.41 L 143.13 128.85 L 144.03 127.29 L 144.93 125.73 L 145.83 124.17 L 146.73 122.61 L 147.63 121.05 L 148.53 119.49 L 149.43 117.93 L 150.33 116.38 L 151.23 114.82 L 152.13 113.26 L 153.03 111.70 L 153.93 110.14 L 154.83 108.58 L 155.73 107.02 L 156.63 105.46 L 157.53 103.90 L 158.43 102.35 L 159.33 100.79 L 160.23 99.23 L 161.13 97.67 L 162.03 96.11 L 162.93 94.55 L 163.83 92.99 L 164.73 91.43 L 165.63 89.88 L 166.53 88.32 L 167.43 86.76 L 168.33 85.20 L 169.23 83.64 L 170.13 82.08 L 171.03 80.52 L 171.93 78.96 L 172.83 77.40 L 173.73 75.85 L 174.63 74.29 L 175.53 72.73 L 176.43 71.17 L 177.33 69.61 L 178.23 68.05 L 179.13 66.49 L 180.03 64.93 L 180.93 63.37 L 181.65 62.13 L 182.36 63.78 L 183.08 65.43 L 183.41 66.18 L 183.43 66.24 L 182.53 67.80 L 181.63 69.36 L 180.73 70.92 L 179.83 72.48 L 178.93 74.04 L 178.03 75.60 L 177.13 77.15 L 176.23 78.71 L 175.33 80.27 L 174.43 81.83 L 173.53 83.39 L 172.63 84.95 L 171.73 86.51 L 170.83 88.07 L 169.93 89.62 L 169.03 91.18 L 168.13 92.74 L 167.23 94.30 L 166.33 95.86 L 165.43 97.42 L 164.53 98.98 L 163.63 100.54 L 162.73 102.10 L 161.83 103.65 L 160.93 105.21 L 160.03 106.77 L 159.13 108.33 L 158.23 109.89 L 157.33 111.45 L 156.43 113.01 L 155.53 114.57 L 154.63 116.13 L 153.73 117.68 L 152.83 119.24 L 151.93 120.80 L 151.03 122.36 L 150.13 123.92 L 149.23 125.48 L 148.33 127.04 L 147.43 128.60 L 146.53 130.15 L 145.63 131.71 L 144.73 133.27 L 143.83 134.83 L 142.93 136.39 L 142.03 137.95 L 141.13 139.51 L 140.23 141.07 L 139.33 142.63 L 138.43 144.18 L 137.53 145.74 L 136.63 147.30 L 135.73 148.86 L 134.83 150.42 L 133.93 151.98 L 133.03 153.54 L 132.13 155.10 L 131.23 156.66 L 130.33 158.21 L 129.43 159.77 L 128.53 161.33 L 127.63 162.89 L 126.73 164.45 L 125.83 166.01 L 124.93 167.57 L 124.03 169.13 L 123.13 170.69 L 122.23 172.24 L 121.33 173.80 L 120.43 175.36 L 119.53 176.92 L 118.63 178.48 L 117.73 180.04 L 116.83 181.60 L 115.93 183.16 L 115.03 184.71 L 114.13 186.27 L 113.23 187.83 L 112.48 189.13 L 114.26 188.84 L 116.03 188.54 L 116.84 188.41 L 117.08 188.36 L 117.98 186.81 L 118.88 185.25 L 119.78 183.69 L 120.68 182.13 L 121.58 180.57 L 122.48 179.01 L 123.38 177.45 L 124.28 175.89 L 125.18 174.34 L 126.08 172.78 L 126.98 171.22 L 127.88 169.66 L 128.78 168.10 L 129.68 166.54 L 130.58 164.98 L 131.48 163.42 L 132.38 161.86 L 133.28 160.31 L 134.18 158.75 L 135.08 157.19 L 135.98 155.63 L 136.88 154.07 L 137.78 152.51 L 138.68 150.95 L 139.58 149.39 L 140.48 147.83 L 141.38 146.28 L 142.28 144.72 L 143.18 143.16 L 144.08 141.60 L 144.98 140.04 L 145.88 138.48 L 146.78 136.92 L 147.68 135.36 L 148.58 133.81 L 149.48 132.25 L 150.38 130.69 L 151.28 129.13 L 152.18 127.57 L 153.08 126.01 L 153.98 124.45 L 154.88 122.89 L 155.78 121.33 L 156.68 119.78 L 157.58 118.22 L 158.48 116.66 L 159.38 115.10 L 160.28 113.54 L 161.18 111.98 L 162.08 110.42 L 162.98 108.86 L 163.88 107.30 L 164.78 105.75 L 165.68 104.19 L 166.58 102.63 L 167.48 101.07 L 168.38 99.51 L 169.28 97.95 L 170.18 96.39 L 171.08 94.83 L 171.98 93.28 L 172.88 91.72 L 173.78 90.16 L 174.68 88.60 L 175.58 87.04 L 176.48 85.48 L 177.38 83.92 L 178.28 82.36 L 179.18 80.80 L 180.08 79.25 L 180.98 77.69 L 181.88 76.13 L 182.78 74.57 L 183.68 73.01 L 184.58 71.45 L 185.07 70.61 L 185.61 72.32 L 186.16 74.04 L 186.40 74.82 L 186.53 75.26 L 185.63 76.82 L 184.73 78.38 L 183.83 79.94 L 182.93 81.50 L 182.03 83.06 L 181.13 84.62 L 180.23 86.18 L 179.33 87.73 L 178.43 89.29 L 177.53 90.85 L 176.63 92.41 L 175.73 93.97 L 174.83 95.53 L 173.93 97.09 L 173.03 98.65 L 172.13 100.21 L 171.23 101.76 L 170.33 103.32 L 169.43 104.88 L 168.53 106.44 L 167.63 108.00 L 166.73 109.56 L 165.83 111.12 L 164.93 112.68 L 164.03 114.24 L 163.13 115.79 L 162.23 117.35 L 161.33 118.91 L 160.43 120.47 L 159.53 122.03 L 158.63 123.59 L 157.73 125.15 L 156.83 126.71 L 155.93 128.26 L 155.03 129.82 L 154.13 131.38 L 153.23 132.94 L 152.33 134.50 L 151.43 136.06 L 150.53 137.62 L 149.63 139.18 L 148.73 140.74 L 147.83 142.29 L 146.93 143.85 L 146.03 145.41 L 145.13 146.97 L 144.23 148.53 L 143.33 150.09 L 142.43 151.65 L 141.53 153.21 L 140.63 154.77 L 139.73 156.32 L 138.83 157.88 L 137.93 159.44 L 137.03 161.00 L 136.13 162.56 L 135.23 164.12 L 134.33 165.68 L 133.43 167.24 L 132.53 168.79 L 131.63 170.35 L 130.73 171.91 L 129.83 173.47 L 128.93 175.03 L 128.03 176.59 L 127.13 178.15 L 126.23 179.71 L 125.33 181.27 L 124.43 182.82 L 123.53 184.38 L 122.63 185.94 L 121.85 187.31 L 123.58 186.83 L 125.32 186.35 L 126.10 186.13 L 126.61 185.98 L 127.51 184.42 L 128.41 182.86 L 129.31 181.30 L 130.22 179.75 L 131.12 178.19 L 132.02 176.63 L 132.92 175.07 L 133.82 173.51 L 134.72 171.96 L 135.63 170.40 L 136.53 168.84 L 137.43 167.28 L 138.33 165.72 L 139.23 164.17 L 140.13 162.61 L 141.04 161.05 L 141.94 159.49 L 142.84 157.93 L 143.74 156.38 L 144.64 154.82 L 145.54 153.26 L 146.44 151.70 L 147.35 150.14 L 148.25 148.59 L 149.15 147.03 L 150.05 145.47 L 150.95 143.91 L 151.85 142.35 L 152.76 140.80 L 153.66 139.24 L 154.56 137.68 L 155.46 136.12 L 156.36 134.56 L 157.26 133.01 L 158.17 131.45 L 159.07 129.89 L 159.97 128.33 L 160.87 126.78 L 161.77 125.22 L 162.67 123.66 L 163.58 122.10 L 164.48 120.54 L 165.38 118.99 L 166.28 117.43 L 167.18 115.87 L 168.08 114.31 L 168.99 112.75 L 169.89 111.20 L 170.79 109.64 L 171.69 108.08 L 172.59 106.52 L 173.49 104.96 L 174.39 103.41 L 175.30 101.85 L 176.20 100.29 L 177.10 98.73 L 178.00 97.17 L 178.90 95.62 L 179.80 94.06 L 180.71 92.50 L 181.61 90.94 L 182.51 89.38 L 183.41 87.83 L 184.31 86.27 L 185.21 84.71 L 186.11 83.15 L 187.02 81.60 L 187.80 80.24 L 188.16 82.00 L 188.51 83.77 L 188.67 84.57 L 188.84 85.62 L 187.94 87.18 L 187.04 88.74 L 186.14 90.30 L 185.24 91.85 L 184.33 93.41 L 183.43 94.97 L 182.53 96.53 L 181.63 98.09 L 180.73 99.64 L 179.83 101.20 L 178.92 102.76 L 178.02 104.32 L 177.12 105.88 L 176.22 107.43 L 175.32 108.99 L 174.42 110.55 L 173.51 112.11 L 172.61 113.66 L 171.71 115.22 L 170.81 116.78 L 169.91 118.34 L 169.01 119.90 L 168.10 121.45 L 167.20 123.01 L 166.30 124.57 L 165.40 126.13 L 164.50 127.68 L 163.60 129.24 L 162.69 130.80 L 161.79 132.36 L 160.89 133.92 L 159.99 135.47 L 159.09 137.03 L 158.18 138.59 L 157.28 140.15 L 156.38 141.71 L 155.48 143.26 L 154.58 144.82 L 153.68 146.38 L 152.78 147.94 L 151.87 149.49 L 150.97 151.05 L 150.07 152.61 L 149.17 154.17 L 148.27 155.73 L 147.36 157.28 L 146.46 158.84 L 145.56 160.40 L 144.66 161.96 L 143.76 163.52 L 142.86 165.07 L 141.95 166.63 L 141.05 168.19 L 140.15 169.75 L 139.25 171.30 L 138.35 172.86 L 137.45 174.42 L 136.54 175.98 L 135.64 177.54 L 134.74 179.09 L 133.84 180.65 L 132.94 182.21 L 132.03 183.77 L 131.78 184.20 L 133.45 183.52 L 135.12 182.85 L 135.88 182.54 L 137.24 181.93 L 138.14 180.38 L 139.04 178.82 L 139.95 177.26 L 140.85 175.70 L 141.75 174.14 L 142.65 172.59 L 143.55 171.03 L 144.46 169.47 L 145.36 167.91 L 146.26 166.36 L 147.16 164.80 L 148.06 163.24 L 148.97 161.68 L 149.87 160.12 L 150.77 158.57 L 151.67 157.01 L 152.57 155.45 L 153.48 153.89 L 154.38 152.34 L 155.28 150.78 L 156.18 149.22 L 157.08 147.66 L 157.98 146.11 L 158.89 144.55 L 159.79 142.99 L 160.69 141.43 L 161.59 139.87 L 162.49 138.32 L 163.40 136.76 L 164.30 135.20 L 165.20 133.64 L 166.10 132.09 L 167.00 130.53 L 167.91 128.97 L 168.81 127.41 L 169.71 125.85 L 170.61 124.30 L 171.51 122.74 L 172.42 121.18 L 173.32 119.62 L 174.22 118.07 L 175.12 116.51 L 176.02 114.95 L 176.93 113.39 L 177.83 111.84 L 178.73 110.28 L 179.63 108.72 L 180.53 107.16 L 181.43 105.60 L 182.34 104.05 L 183.24 102.49 L 184.14 100.93 L 185.04 99.37 L 185.94 97.82 L 186.85 96.26 L 187.75 94.70 L 188.65 93.14 L 189.55 91.58 L 189.61 91.58 L 189.73 93.38 L 189.85 95.17 L 189.91 95.99 L 189.97 97.79 L 189.98 98.03 L 189.08 99.59 L 188.17 101.14 L 187.27 102.70 L 186.37 104.26 L 185.47 105.82 L 184.57 107.37 L 183.66 108.93 L 182.76 110.49 L 181.86 112.05 L 180.96 113.60 L 180.06 115.16 L 179.15 116.72 L 178.25 118.28 L 177.35 119.83 L 176.45 121.39 L 175.55 122.95 L 174.64 124.51 L 173.74 126.07 L 172.84 127.62 L 171.94 129.18 L 171.03 130.74 L 170.13 132.30 L 169.23 133.85 L 168.33 135.41 L 167.43 136.97 L 166.52 138.53 L 165.62 140.08 L 164.72 141.64 L 163.82 143.20 L 162.92 144.76 L 162.01 146.31 L 161.11 147.87 L 160.21 149.43 L 159.31 150.99 L 158.40 152.54 L 157.50 154.10 L 156.60 155.66 L 155.70 157.22 L 154.80 158.78 L 153.89 160.33 L 152.99 161.89 L 152.09 163.45 L 151.19 165.01 L 150.29 166.56 L 149.38 168.12 L 148.48 169.68 L 147.58 171.24 L 146.68 172.79 L 145.78 174.35 L 144.87 175.91 L 143.97 177.47 L 143.07 179.02 L 143.07 179.02 L 143.07 179.03 L 144.63 178.13 L 146.19 177.23 L 146.90 176.82 L 148.42 175.85 L 149.41 175.22 L 150.31 173.67 L 151.22 172.11 L 152.12 170.55 L 153.02 168.99 L 153.92 167.44 L 154.83 165.88 L 155.73 164.32 L 156.63 162.76 L 157.53 161.21 L 158.43 159.65 L 159.34 158.09 L 160.24 156.53 L 161.14 154.98 L 162.04 153.42 L 162.95 151.86 L 163.85 150.30 L 164.75 148.75 L 165.65 147.19 L 166.56 145.63 L 167.46 144.07 L 168.36 142.52 L 169.26 140.96 L 170.16 139.40 L 171.07 137.84 L 171.97 136.29 L 172.87 134.73 L 173.77 133.17 L 174.68 131.61 L 175.58 130.06 L 176.48 128.50 L 177.38 126.94 L 178.29 125.38 L 179.19 123.83 L 180.09 122.27 L 180.99 120.71 L 181.90 119.15 L 182.80 117.60 L 183.70 116.04 L 184.60 114.48 L 185.51 112.92 L 186.41 111.37 L 187.31 109.81 L 188.21 108.25 L 189.11 106.69 L 189.11 106.69 L 189.75 106.74 L 189.57 108.53 L 189.39 110.32 L 189.31 111.14 L 189.05 112.92 L 188.86 114.31 L 187.95 115.87 L 187.05 117.43 L 186.15 118.98 L 185.24 120.54 L 184.34 122.10 L 183.44 123.65 L 182.54 125.21 L 181.63 126.77 L 180.73 128.33 L 179.83 129.88 L 178.93 131.44 L 178.02 133.00 L 177.12 134.56 L 176.22 136.11 L 175.31 137.67 L 174.41 139.23 L 173.51 140.78 L 172.61 142.34 L 171.70 143.90 L 170.80 145.46 L 169.90 147.01 L 169.00 148.57 L 168.09 150.13 L 167.19 151.69 L 166.29 153.24 L 165.39 154.80 L 164.48 156.36 L 163.58 157.92 L 162.68 159.47 L 161.77 161.03 L 160.87 162.59 L 159.97 164.14 L 159.07 165.70 L 158.16 167.26 L 157.26 168.82 L 156.58 169.99 L 157.95 168.83 L 159.32 167.66 L 159.95 167.13 L 161.26 165.90 L 162.57 164.67 L 163.17 164.11 L 164.42 162.81 L 165.67 161.52 L 166.24 160.93 L 166.99 159.30 L 167.32 158.59 L 168.23 157.03 L 169.13 155.48 L 170.03 153.92 L 170.94 152.36 L 171.84 150.81 L 172.74 149.25 L 173.64 147.69 L 174.55 146.14 L 175.45 144.58 L 176.35 143.02 L 177.26 141.46 L 178.16 139.91 L 179.06 138.35 L 179.97 136.79 L 180.87 135.24 L 181.77 133.68 L 182.68 132.12 L 183.58 130.57 L 184.48 129.01 L 185.39 127.45 L 185.39 127.45" 
          fill="none" 
          stroke="currentColor" 
          stroke-width="0.5"/>
</svg>