<?xml version="1.0" encoding="UTF-8" standalone="no"?>
<svg width="100%" height="100%" viewBox="0 0 200 200" preserveAspectRatio="xMidYMid meet" xmlns="http://www.w3.org/2000/svg">
    <path d="M 100.00 100.00 L 100.00 99.91 L 99.99 99.87 L 99.96 99.83 L 99.94 99.79 L 99.90 99.76 L 99.85 99.73 L 99.80 99.71 L 99.75 99.70 L 99.69 99.70 L 99.63 99.70 L 99.56 99.72 L 99.50 99.74 L 99.44 99.78 L 99.38 99.83 L 99.32 99.88 L 99.27 99.95 L 99.22 100.02 L 99.19 100.11 L 99.16 100.20 L 99.14 100.29 L 99.14 100.40 L 99.14 100.50 L 99.16 100.61 L 99.20 100.72 L 99.24 100.83 L 99.30 100.93 L 99.38 101.03 L 99.47 101.13 L 99.57 101.22 L 99.68 101.30 L 99.81 101.37 L 99.94 101.42 L 100.09 101.46 L 100.24 101.49 L 100.40 101.50 L 100.56 101.49 L 100.72 101.47 L 100.89 101.43 L 101.05 101.36 L 101.21 101.28 L 101.37 101.18 L 101.52 101.06 L 101.65 100.93 L 101.78 100.78 L 101.88 100.61 L 101.98 100.43 L 102.05 100.23 L 102.11 100.03 L 102.14 99.81 L 102.16 99.59 L 102.15 99.36 L 102.11 99.14 L 102.05 98.91 L 101.97 98.69 L 101.86 98.47 L 101.73 98.26 L 101.58 98.06 L 101.40 97.88 L 101.20 97.71 L 100.98 97.57 L 100.75 97.44 L 100.49 97.33 L 100.23 97.25 L 99.95 97.20 L 99.67 97.18 L 99.38 97.18 L 99.09 97.22 L 98.80 97.28 L 98.51 97.38 L 98.23 97.51 L 97.96 97.66 L 97.71 97.85 L 97.47 98.06 L 97.26 98.30 L 97.06 98.57 L 96.89 98.85 L 96.75 99.16 L 96.64 99.48 L 96.56 99.81 L 96.52 100.16 L 96.51 100.51 L 96.54 100.87 L 96.60 101.23 L 96.70 101.58 L 96.84 101.92 L 97.01 102.25 L 97.22 102.57 L 97.46 102.87 L 97.74 103.14 L 98.04 103.39 L 98.37 103.61 L 98.72 103.79 L 99.10 103.94 L 99.49 104.05 L 99.90 104.13 L 100.31 104.16 L 100.73 104.15 L 101.16 104.10 L 101.58 104.00 L 101.99 103.86 L 102.39 103.68 L 102.77 103.46 L 103.13 103.20 L 103.47 102.89 L 103.77 102.56 L 104.05 102.19 L 104.29 101.79 L 104.48 101.37 L 104.64 100.92 L 104.75 100.46 L 104.82 99.98 L 104.83 99.49 L 104.80 99.00 L 104.72 98.52 L 104.59 98.04 L 104.41 97.57 L 104.18 97.12 L 103.90 96.69 L 103.58 96.28 L 103.22 95.91 L 102.82 95.57 L 102.38 95.27 L 101.91 95.02 L 101.41 94.81 L 100.90 94.66 L 100.36 94.55 L 99.81 94.50 L 99.26 94.50 L 98.71 94.56 L 98.16 94.68 L 97.61 94.85 L 97.09 95.08 L 96.59 95.36 L 96.11 95.69 L 95.67 96.07 L 95.27 96.50 L 94.90 96.96 L 94.58 97.47 L 94.32 98.01 L 94.11 98.58 L 93.95 99.16 L 93.85 99.77 L 93.82 100.39 L 93.85 101.01 L 93.94 101.63 L 94.09 102.24 L 94.31 102.84 L 94.58 103.42 L 94.92 103.97 L 95.31 104.49 L 95.75 104.97 L 96.24 105.40 L 96.78 105.79 L 97.36 106.12 L 97.97 106.39 L 98.61 106.61 L 99.27 106.75 L 99.95 106.84 L 100.63 106.85 L 101.32 106.79 L 102.01 106.67 L 102.68 106.48 L 103.33 106.21 L 103.96 105.89 L 104.55 105.50 L 105.11 105.04 L 105.62 104.54 L 106.08 103.97 L 106.49 103.37 L 106.83 102.72 L 107.11 102.03 L 107.32 101.32 L 107.46 100.59 L 107.52 99.84 L 107.51 99.08 L 107.42 98.33 L 107.26 97.58 L 107.02 96.85 L 106.71 96.15 L 106.33 95.47 L 105.88 94.83 L 105.36 94.24 L 104.78 93.70 L 104.15 93.22 L 103.47 92.80 L 102.75 92.45 L 102.00 92.17 L 101.21 91.96 L 100.40 91.84 L 99.59 91.80 L 98.76 91.84 L 97.94 91.96 L 97.14 92.17 L 96.35 92.45 L 95.59 92.82 L 94.87 93.26 L 94.20 93.77 L 93.57 94.36 L 93.00 95.00 L 92.50 95.70 L 92.07 96.46 L 91.72 97.25 L 91.44 98.08 L 91.25 98.94 L 91.15 99.82 L 91.13 100.71 L 91.20 101.60 L 91.36 102.48 L 91.62 103.35 L 91.95 104.19 L 92.37 104.99 L 92.88 105.76 L 93.46 106.47 L 94.11 107.12 L 94.82 107.71 L 95.60 108.23 L 96.43 108.66 L 97.30 109.02 L 98.20 109.28 L 99.14 109.46 L 100.08 109.54 L 101.04 109.53 L 102.00 109.42 L 102.94 109.22 L 103.86 108.91 L 104.75 108.52 L 105.61 108.04 L 106.41 107.47 L 107.15 106.83 L 107.83 106.10 L 108.44 105.31 L 108.97 104.46 L 109.41 103.56 L 109.76 102.62 L 110.01 101.64 L 110.17 100.63 L 110.22 99.61 L 110.18 98.59 L 110.03 97.57 L 109.77 96.56 L 109.42 95.59 L 108.97 94.65 L 108.43 93.75 L 107.79 92.91 L 107.07 92.14 L 106.28 91.44 L 105.41 90.82 L 104.49 90.28 L 103.51 89.84 L 102.49 89.50 L 101.43 89.26 L 100.36 89.13 L 99.27 89.11 L 98.17 89.19 L 97.09 89.39 L 96.03 89.69 L 95.00 90.10 L 94.02 90.61 L 93.08 91.22 L 92.21 91.92 L 91.41 92.71 L 90.69 93.58 L 90.06 94.52 L 89.52 95.53 L 89.09 96.58 L 88.76 97.68 L 88.54 98.81 L 88.44 99.96 L 88.45 101.12 L 88.57 102.27 L 88.82 103.42 L 89.18 104.53 L 89.64 105.61 L 90.22 106.64 L 90.90 107.61 L 91.67 108.51 L 92.54 109.33 L 93.48 110.07 L 94.50 110.71 L 95.58 111.24 L 96.72 111.67 L 97.89 111.98 L 99.09 112.17 L 100.31 112.25 L 101.54 112.20 L 102.76 112.02 L 103.96 111.73 L 105.13 111.31 L 106.26 110.78 L 107.33 110.14 L 108.33 109.39 L 109.26 108.54 L 110.10 107.60 L 110.84 106.58 L 111.48 105.48 L 112.01 104.32 L 112.43 103.11 L 112.72 101.86 L 112.88 100.58 L 112.92 99.29 L 112.83 98.00 L 112.60 96.72 L 112.25 95.46 L 111.78 94.24 L 111.18 93.07 L 110.47 91.96 L 109.64 90.93 L 108.72 89.98 L 107.70 89.12 L 106.59 88.37 L 105.42 87.73 L 104.18 87.21 L 102.89 86.82 L 101.57 86.55 L 100.22 86.42 L 98.86 86.42 L 97.50 86.56 L 96.16 86.84 L 94.85 87.25 L 93.58 87.79 L 92.37 88.45 L 91.23 89.24 L 90.16 90.14 L 89.20 91.14 L 88.33 92.24 L 87.58 93.43 L 86.94 94.68 L 86.43 96.00 L 86.06 97.37 L 85.83 98.77 L 85.73 100.19 L 85.78 101.62 L 85.97 103.04 L 86.30 104.44 L 86.77 105.80 L 87.38 107.11 L 88.12 108.36 L 88.98 109.53 L 89.96 110.62 L 91.04 111.60 L 92.22 112.47 L 93.49 113.23 L 94.83 113.85 L 96.22 114.34 L 97.67 114.69 L 99.14 114.89 L 100.64 114.94 L 102.13 114.85 L 103.61 114.60 L 105.07 114.21 L 106.48 113.67 L 107.83 113.00 L 109.12 112.18 L 110.32 111.24 L 111.42 110.19 L 112.41 109.02 L 113.29 107.76 L 114.04 106.41 L 114.65 104.99 L 115.11 103.51 L 115.43 101.99 L 115.60 100.44 L 115.61 98.88 L 115.46 97.32 L 115.15 95.78 L 114.70 94.27 L 114.09 92.81 L 113.34 91.42 L 112.45 90.10 L 111.43 88.88 L 110.29 87.76 L 109.04 86.76 L 107.69 85.89 L 106.26 85.15 L 104.76 84.56 L 103.20 84.12 L 101.61 83.83 L 99.99 83.71 L 98.35 83.75 L 96.73 83.95 L 95.13 84.32 L 93.58 84.84 L 92.07 85.52 L 90.64 86.35 L 89.30 87.32 L 88.06 88.42 L 86.93 89.64 L 85.92 90.98 L 85.05 92.41 L 84.33 93.92 L 83.76 95.51 L 83.35 97.14 L 83.11 98.82 L 83.03 100.51 L 83.12 102.21 L 83.39 103.89 L 83.82 105.54 L 84.41 107.15 L 85.17 108.69 L 86.07 110.16 L 87.13 111.52 L 88.31 112.78 L 89.62 113.92 L 91.04 114.92 L 92.56 115.78 L 94.15 116.49 L 95.82 117.03 L 97.53 117.41 L 99.28 117.61 L 101.05 117.63 L 102.81 117.48 L 104.55 117.16 L 106.26 116.66 L 107.91 115.99 L 109.49 115.16 L 110.98 114.17 L 112.37 113.03 L 113.64 111.76 L 114.78 110.37 L 115.78 108.86 L 116.62 107.27 L 117.30 105.59 L 117.81 103.84 L 118.15 102.06 L 118.31 100.24 L 118.28 98.41 L 118.07 96.59 L 117.69 94.79 L 117.12 93.04 L 116.38 91.35 L 115.47 89.74 L 114.40 88.22 L 113.19 86.82 L 111.84 85.53 L 110.36 84.39 L 108.78 83.40 L 107.10 82.57 L 105.33 81.91 L 103.51 81.42 L 101.65 81.12 L 99.76 81.01 L 97.87 81.09 L 95.98 81.35 L 94.13 81.80 L 92.33 82.44 L 90.60 83.25 L 88.95 84.24 L 87.41 85.39 L 85.99 86.68 L 84.69 88.12 L 83.55 89.68 L 82.57 91.35 L 81.75 93.12 L 81.12 94.96 L 80.67 96.86 L 80.41 98.80 L 80.34 100.76 L 80.47 102.72 L 80.80 104.66 L 81.32 106.56 L 82.03 108.41 L 82.92 110.18 L 83.98 111.86 L 85.21 113.42 L 86.59 114.86 L 88.12 116.16 L 89.76 117.30 L 91.52 118.27 L 93.37 119.07 L 95.29 119.67 L 97.27 120.09 L 99.29 120.30 L 101.31 120.31 L 103.34 120.13 L 105.34 119.73 L 107.29 119.14 L 109.18 118.36 L 110.99 117.39 L 112.70 116.24 L 114.28 114.93 L 115.73 113.46 L 117.03 111.85 L 118.16 110.11 L 119.12 108.27 L 119.89 106.33 L 120.46 104.33 L 120.83 102.27 L 121.00 100.19 L 120.95 98.09 L 120.70 96.00 L 120.24 93.95 L 119.58 91.94 L 118.71 90.01 L 117.66 88.17 L 116.43 86.45 L 115.02 84.85 L 113.47 83.39 L 111.77 82.09 L 109.94 80.97 L 108.01 80.04 L 106.00 79.30 L 103.91 78.76 L 101.78 78.43 L 99.62 78.32 L 97.46 78.42 L 95.31 78.74 L 93.20 79.28 L 91.15 80.02 L 89.18 80.96 L 87.31 82.10 L 85.56 83.42 L 83.95 84.91 L 82.50 86.56 L 81.21 88.35 L 80.10 90.27 L 79.19 92.28 L 78.48 94.38 L 77.99 96.55 L 77.71 98.76 L 77.66 100.99 L 77.82 103.22 L 77.86 103.66 L 78.21 105.42 L 78.30 105.86 L 78.82 107.58 L 78.95 108.01 L 79.64 109.67 L 79.82 110.09 L 80.67 111.68 L 80.89 112.08 L 81.90 113.57 L 82.16 113.95 L 83.31 115.34 L 83.61 115.70 L 84.89 116.96 L 85.23 117.29 L 86.63 118.41 L 87.00 118.71 L 88.51 119.69 L 88.92 119.95 L 90.52 120.78 L 90.95 121.00 L 92.62 121.66 L 93.08 121.84 L 94.81 122.33 L 95.28 122.46 L 97.05 122.78 L 97.54 122.86 L 99.34 123.00 L 99.84 123.04 L 101.64 122.99 L 102.14 122.98 L 103.93 122.76 L 104.43 122.69 L 106.19 122.29 L 106.69 122.18 L 108.39 121.60 L 108.89 121.44 L 110.53 120.70 L 111.00 120.48 L 112.56 119.58 L 113.02 119.32 L 114.48 118.27 L 114.91 117.96 L 116.26 116.76 L 116.66 116.41 L 117.88 115.09 L 118.24 114.69 L 119.33 113.25 L 119.66 112.82 L 120.59 111.28 L 120.88 110.81 L 121.65 109.19 L 121.89 108.69 L 122.50 107.00 L 122.69 106.47 L 123.13 104.73 L 123.27 104.18 L 123.53 102.40 L 123.61 101.84 L 123.69 100.04 L 123.72 99.48 L 123.62 97.68 L 123.59 97.10 L 123.31 95.33 L 123.23 94.75 L 122.77 93.01 L 122.63 92.45 L 122.00 90.76 L 121.80 90.21 L 121.01 88.59 L 120.75 88.06 L 119.80 86.53 L 119.49 86.02 L 118.39 84.60 L 118.03 84.12 L 116.80 82.81 L 116.38 82.37 L 115.03 81.19 L 114.57 80.79 L 113.10 79.75 L 112.60 79.39 L 111.03 78.50 L 110.50 78.20 L 108.85 77.47 L 108.28 77.22 L 106.57 76.66 L 105.98 76.46 L 104.22 76.08 L 103.60 75.94 L 101.82 75.73 L 101.19 75.66 L 99.39 75.63 L 98.75 75.62 L 96.95 75.77 L 96.31 75.82 L 94.54 76.15 L 93.91 76.27 L 92.18 76.78 L 91.55 76.96 L 89.89 77.63 L 89.28 77.88 L 87.68 78.71 L 87.10 79.02 L 85.60 80.01 L 85.04 80.38 L 83.65 81.52 L 83.13 81.94 L 81.86 83.21 L 81.38 83.69 L 80.24 85.08 L 79.81 85.60 L 78.81 87.10 L 78.44 87.67 L 77.59 89.26 L 77.27 89.87 L 76.59 91.53 L 76.33 92.17 L 75.82 93.90 L 75.63 94.56 L 75.29 96.33 L 75.16 97.02 L 75.01 98.81 L 74.95 99.51 L 74.97 101.31 L 74.98 102.02 L 75.19 103.81 L 75.27 104.51 L 75.65 106.27 L 75.80 106.97 L 76.35 108.69 L 76.58 109.37 L 77.30 111.02 L 77.59 111.68 L 78.47 113.25 L 78.83 113.88 L 79.87 115.36 L 80.29 115.96 L 81.47 117.32 L 81.95 117.87 L 83.26 119.11 L 83.80 119.62 L 85.22 120.72 L 85.82 121.17 L 87.34 122.13 L 87.98 122.52 L 89.59 123.32 L 90.27 123.65 L 91.96 124.28 L 92.67 124.54 L 94.41 125.00 L 95.15 125.20 L 96.93 125.48 L 97.68 125.60 L 99.48 125.70 L 100.25 125.74 L 102.05 125.67 L 102.82 125.63 L 104.61 125.37 L 105.38 125.26 L 107.13 124.83 L 107.89 124.64 L 109.58 124.04 L 110.32 123.77 L 111.95 123.00 L 112.67 122.66 L 114.21 121.73 L 114.89 121.32 L 116.33 120.24 L 116.97 119.76 L 118.30 118.54 L 118.89 117.99 L 120.09 116.65 L 120.63 116.04 L 121.68 114.59 L 122.16 113.93 L 123.07 112.37 L 123.48 111.66 L 124.23 110.03 L 124.57 109.28 L 125.15 107.57 L 125.41 106.79 L 125.82 105.04 L 126.00 104.22 L 126.23 102.44 L 126.34 101.61 L 126.39 99.81 L 126.41 98.97 L 126.28 97.18 L 126.22 96.33 L 125.91 94.56 L 125.76 93.72 L 125.28 91.99 L 125.05 91.17 L 124.39 89.49 L 124.08 88.69 L 123.26 87.09 L 122.87 86.32 L 121.89 84.81 L 121.42 84.08 L 120.30 82.68 L 119.76 82.00 L 118.50 80.71 L 117.89 80.08 L 116.51 78.92 L 115.84 78.36 L 114.35 77.35 L 113.62 76.85 L 112.04 75.99 L 111.26 75.57 L 109.60 74.87 L 108.78 74.52 L 107.06 73.99 L 106.20 73.73 L 104.44 73.38 L 103.55 73.20 L 101.76 73.03 L 100.86 72.94 L 99.06 72.94 L 98.15 72.94 L 96.36 73.13 L 95.45 73.22 L 93.69 73.58 L 92.79 73.77 L 91.07 74.30 L 90.19 74.58 L 88.54 75.28 L 87.69 75.64 L 86.11 76.51 L 85.29 76.96 L 83.81 77.98 L 83.04 78.51 L 81.66 79.67 L 80.95 80.28 L 79.70 81.57 L 79.04 82.25 L 77.93 83.66 L 77.34 84.41 L 76.37 85.93 L 75.86 86.73 L 75.05 88.34 L 74.61 89.19 L 73.97 90.87 L 73.62 91.76 L 73.14 93.50 L 72.89 94.43 L 72.59 96.20 L 72.42 97.16 L 72.30 98.96 L 72.24 99.93 L 72.29 101.73 L 72.33 102.70 L 72.56 104.49 L 72.69 105.46 L 73.10 107.21 L 73.33 108.17 L 73.92 109.87 L 74.24 110.81 L 74.99 112.45 L 75.41 113.35 L 76.32 114.90 L 76.83 115.76 L 77.89 117.21 L 78.49 118.02 L 79.69 119.36 L 80.36 120.11 L 81.69 121.32 L 82.44 122.01 L 83.89 123.08 L 84.70 123.68 L 86.25 124.61 L 87.13 125.13 L 88.76 125.90 L 89.68 126.33 L 91.38 126.93 L 92.35 127.27 L 94.10 127.70 L 95.10 127.94 L 96.89 128.19 L 97.92 128.33 L 99.71 128.40 L 100.76 128.44 L 102.55 128.33 L 103.60 128.27 L 105.37 127.98 L 106.41 127.81 L 108.15 127.34 L 109.17 127.07 L 110.85 126.43 L 111.84 126.06 L 113.45 125.26 L 114.41 124.78 L 115.93 123.82 L 116.83 123.26 L 118.25 122.15 L 119.10 121.49 L 120.40 120.25 L 121.18 119.51 L 122.35 118.14 L 123.06 117.32 L 124.09 115.84 L 124.71 114.95 L 125.59 113.38 L 126.12 112.43 L 126.83 110.78 L 127.27 109.78 L 127.81 108.06 L 128.15 107.02 L 128.52 105.25 L 128.75 104.18 L 128.95 102.39 L 129.07 101.29 L 129.08 99.49 L 129.09 98.38 L 128.93 96.58 L 128.83 95.47 L 128.49 93.71 L 128.27 92.61 L 127.76 90.88 L 127.44 89.81 L 126.75 88.14 L 126.32 87.10 L 125.47 85.51 L 124.94 84.51 L 123.93 83.02 L 123.30 82.07 L 122.15 80.69 L 121.42 79.81 L 120.14 78.54 L 119.33 77.74 L 117.93 76.61 L 117.04 75.88 L 115.53 74.90 L 114.56 74.27 L 112.97 73.44 L 111.94 72.90 L 110.27 72.24 L 109.19 71.80 L 107.46 71.31 L 106.34 70.99 L 104.57 70.66 L 103.41 70.46 L 101.62 70.31 L 100.45 70.22 L 98.65 70.26 L 97.47 70.28 L 95.68 70.50 L 94.51 70.64 L 92.75 71.03 L 91.59 71.29 L 89.88 71.86 L 88.75 72.24 L 87.11 72.97 L 86.02 73.46 L 84.45 74.36 L 83.41 74.95 L 81.95 76.00 L 80.97 76.70 L 79.62 77.89 L 78.71 78.69 L 77.48 80.00 L 76.65 80.89 L 75.56 82.33 L 74.83 83.30 L 73.88 84.83 L 73.24 85.87 L 72.46 87.49 L 71.93 88.60 L 71.31 90.29 L 70.89 91.44 L 70.44 93.19 L 70.14 94.39 L 69.87 96.17 L 69.68 97.39 L 69.59 99.19 L 69.53 100.43 L 69.62 102.23 L 69.68 103.48 L 69.95 105.26 L 70.14 106.49 L 70.59 108.24 L 70.90 109.46 L 71.52 111.15 L 71.95 112.33 L 72.73 113.95 L 73.28 115.09 L 74.22 116.63 L 74.89 117.71 L 75.98 119.14 L 76.75 120.16 L 77.97 121.47 L 78.85 122.41 L 80.20 123.59 L 81.16 124.44 L 82.63 125.49 L 83.67 126.24 L 85.24 127.13 L 86.36 127.77 L 88.00 128.51 L 89.18 129.04 L 90.89 129.60 L 92.12 130.01 L 93.88 130.41 L 95.15 130.69 L 96.94 130.91 L 98.24 131.07 L 100.04 131.10 L 101.35 131.13 L 103.15 130.99 L 104.46 130.88 L 106.23 130.56 L 107.53 130.32 L 109.26 129.83 L 110.53 129.46 L 112.21 128.79 L 113.44 128.30 L 115.04 127.47 L 116.22 126.86 L 117.73 125.87 L 118.85 125.14 L 120.25 124.00 L 121.29 123.16 L 122.57 121.89 L 123.53 120.95 L 124.68 119.56 L 125.54 118.52 L 126.54 117.02 L 127.30 115.90 L 128.14 114.31 L 128.79 113.11 L 129.47 111.45 L 129.99 110.19 L 130.51 108.46 L 130.90 107.15 L 131.24 105.38 L 131.50 104.04 L 131.67 102.24 L 131.79 100.87 L 131.78 99.07 L 131.76 97.69 L 131.57 95.90 L 131.42 94.52 L 131.04 92.76 L 130.75 91.40 L 130.21 89.69 L 129.78 88.36 L 129.07 86.71 L 128.51 85.43 L 127.63 83.85 L 126.95 82.63 L 125.92 81.15 L 125.11 80.00 L 123.94 78.63 L 123.02 77.56 L 121.72 76.32 L 120.69 75.34 L 119.27 74.24 L 118.15 73.36 L 116.63 72.41 L 115.42 71.65 L 113.81 70.85 L 112.53 70.21 L 110.85 69.57 L 109.51 69.07 L 107.77 68.60 L 106.38 68.23 L 104.60 67.94 L 103.18 67.71 L 101.39 67.60 L 99.94 67.51 L 98.14 67.58 L 96.69 67.63 L 94.91 67.88 L 93.47 68.08 L 91.72 68.51 L 90.31 68.85 L 88.61 69.45 L 87.23 69.94 L 85.60 70.70 L 84.27 71.33 L 82.72 72.25 L 81.46 73.00 L 80.02 74.08 L 78.83 74.96 L 77.50 76.17 L 76.41 77.17 L 75.20 78.50 L 74.21 79.61 L 73.15 81.06 L 72.27 82.26 L 71.35 83.81 L 70.60 85.10 L 69.84 86.73 L 69.22 88.09 L 68.63 89.80 L 68.14 91.22 L 67.73 92.97 L 67.38 94.43 L 67.14 96.22 L 66.94 97.72 L 66.89 99.51 L 66.84 101.03 L 66.96 102.82 L 67.06 104.34 L 67.36 106.11 L 67.62 107.61 L 68.10 109.35 L 68.50 110.82 L 69.15 112.50 L 69.70 113.93 L 70.51 115.54 L 71.20 116.91 L 72.17 118.43 L 73.00 119.73 L 74.12 121.14 L 75.07 122.35 L 76.33 123.64 L 77.40 124.76 L 78.77 125.92 L 79.96 126.93 L 81.44 127.95 L 82.73 128.83 L 84.30 129.70 L 85.67 130.45 L 87.33 131.15 L 88.77 131.77 L 90.49 132.30 L 91.99 132.77 L 93.75 133.13 L 95.29 133.45 L 97.08 133.63 L 98.65 133.80 L 100.45 133.80 L 102.04 133.80 L 103.83 133.63 L 105.41 133.47 L 107.17 133.12 L 108.73 132.81 L 110.46 132.28 L 111.98 131.81 L 113.64 131.12 L 115.12 130.50 L 116.70 129.64 L 118.11 128.87 L 119.60 127.86 L 120.93 126.95 L 122.31 125.80 L 123.54 124.76 L 124.80 123.47 L 125.93 122.31 L 127.05 120.91 L 128.06 119.64 L 129.04 118.13 L 129.92 116.76 L 130.74 115.16 L 131.48 113.71 L 132.14 112.03 L 132.74 110.51 L 133.22 108.77 L 133.66 107.20 L 133.97 105.42 L 134.26 103.81 L 134.39 102.01 L 134.51 100.37 L 134.46 98.57 L 134.41 96.92 L 134.19 95.13 L 133.98 93.49 L 133.57 91.73 L 133.20 90.12 L 132.62 88.41 L 132.09 86.83 L 131.34 85.20 L 130.65 83.68 L 129.74 82.12 L 128.90 80.67 L 127.85 79.22 L 126.86 77.86 L 125.67 76.51 L 124.55 75.26 L 123.22 74.04 L 121.98 72.90 L 120.54 71.82 L 119.19 70.80 L 117.65 69.87 L 116.20 68.99 L 114.57 68.22 L 113.04 67.49 L 111.34 66.88 L 109.74 66.31 L 107.99 65.88 L 106.34 65.46 L 104.55 65.21 L 102.86 64.96 L 101.06 64.88 L 99.35 64.81 L 97.55 64.91 L 95.83 65.01 L 94.05 65.29 L 92.35 65.56 L 90.61 66.01 L 88.93 66.45 L 87.25 67.08 L 85.62 67.68 L 84.01 68.48 L 82.45 69.24 L 80.92 70.19 L 79.44 71.11 L 78.01 72.21 L 76.63 73.28 L 75.32 74.51 L 74.05 75.72 L 72.87 77.08 L 71.72 78.40 L 70.68 79.87 L 69.67 81.31 L 68.78 82.88 L 67.91 84.41 L 67.19 86.06 L 66.48 87.68 L 65.92 89.39 L 65.37 91.08 L 64.99 92.84 L 64.61 94.57 L 64.41 96.36 L 64.21 98.13 L 64.18 99.93 L 64.16 101.71 L 64.31 103.51 L 64.46 105.29 L 64.80 107.06 L 65.13 108.82 L 65.64 110.55 L 66.14 112.27 L 66.82 113.94 L 67.50 115.61 L 68.34 117.20 L 69.18 118.80 L 70.18 120.30 L 71.17 121.80 L 72.32 123.20 L 73.46 124.60 L 74.74 125.88 L 76.02 127.15 L 77.42 128.30 L 78.82 129.44 L 80.34 130.45 L 81.84 131.44 L 83.45 132.30 L 85.05 133.14 L 86.74 133.83 L 88.41 134.50 L 90.17 135.02 L 91.90 135.53 L 93.71 135.87 L 95.48 136.20 L 97.32 136.36 L 99.11 136.52 L 100.96 136.49 L 102.76 136.47 L 104.60 136.26 L 106.39 136.05 L 108.21 135.66 L 109.96 135.27 L 111.74 134.70 L 113.45 134.14 L 115.16 133.40 L 116.81 132.67 L 118.44 131.76 L 120.00 130.87 L 121.54 129.79 L 123.01 128.75 L 124.43 127.53 L 125.79 126.35 L 127.09 124.98 L 128.32 123.67 L 129.48 122.18 L 130.58 120.75 L 131.58 119.15 L 132.53 117.62 L 133.37 115.92 L 134.17 114.31 L 134.84 112.53 L 135.46 110.84 L 135.95 109.00 L 136.41 107.26 L 136.72 105.37 L 136.99 103.59 L 137.11 101.68 L 137.21 99.89 L 137.14 97.97 L 137.06 96.17 L 136.79 94.27 L 136.53 92.49 L 136.08 90.62 L 135.64 88.87 L 135.00 87.05 L 134.39 85.35 L 133.57 83.60 L 132.80 81.98 L 131.81 80.31 L 130.87 78.77 L 129.72 77.21 L 128.63 75.77 L 127.33 74.33 L 126.11 73.01 L 124.66 71.70 L 123.31 70.50 L 121.73 69.34 L 120.27 68.29 L 118.59 67.29 L 117.03 66.39 L 115.25 65.56 L 113.61 64.82 L 111.75 64.17 L 110.04 63.59 L 108.12 63.14 L 106.37 62.73 L 104.41 62.47 L 102.63 62.24 L 100.64 62.17 L 98.85 62.12 L 96.86 62.25 L 95.07 62.39 L 93.10 62.71 L 91.33 63.02 L 89.41 63.54 L 87.67 64.03 L 85.81 64.74 L 84.13 65.40 L 82.34 66.30 L 80.74 67.12 L 79.04 68.19 L 77.53 69.17 L 75.94 70.41 L 74.54 71.53 L 73.08 72.93 L 71.79 74.18 L 70.48 75.72 L 69.33 77.10 L 68.17 78.76 L 67.16 80.25 L 66.17 82.02 L 65.31 83.61 L 64.51 85.47 L 63.81 87.13 L 63.19 89.08 L 62.67 90.80 L 62.25 92.80 L 61.89 94.56 L 61.67 96.59 L 61.50 98.39 L 61.48 100.44 L 61.49 102.24 L 61.67 104.28 L 61.86 106.07 L 62.25 108.09 L 62.61 109.86 L 63.21 111.83 L 63.74 113.55 L 64.53 115.46 L 65.24 117.12 L 66.21 118.95 L 67.08 120.52 L 68.24 122.25 L 69.26 123.73 L 70.58 125.33 L 71.75 126.71 L 73.23 128.17 L 74.52 129.42 L 76.15 130.74 L 77.56 131.85 L 79.31 133.00 L 80.83 133.97 L 82.69 134.94 L 84.29 135.75 L 86.25 136.53 L 87.93 137.18 L 89.95 137.76 L 91.68 138.24 L 93.76 138.62 L 95.53 138.92 L 97.64 139.09 L 99.44 139.22 L 101.56 139.18 L 103.36 139.12 L 105.46 138.87 L 107.25 138.63 L 109.32 138.17 L 111.08 137.76 L 113.10 137.09 L 114.80 136.50 L 116.76 135.64 L 118.39 134.88 L 120.25 133.82 L 121.80 132.91 L 123.55 131.67 L 125.00 130.60 L 126.62 129.19 L 127.96 127.99 L 129.43 126.42 L 130.64 125.09 L 131.96 123.38 L 133.03 121.93 L 134.17 120.09 L 135.09 118.55 L 136.04 116.60 L 136.80 114.97 L 137.56 112.94 L 138.15 111.24 L 138.70 109.13 L 139.13 107.38 L 139.46 105.23 L 139.71 103.45 L 139.83 101.27 L 139.90 99.47 L 139.80 97.28 L 139.69 95.49 L 139.37 93.32 L 139.08 91.54 L 138.55 89.41 L 138.09 87.67 L 137.34 85.60 L 136.71 83.92 L 135.76 81.93 L 134.96 80.32 L 133.81 78.43 L 132.85 76.90 L 131.53 75.13 L 130.42 73.71 L 128.92 72.08 L 127.68 70.78 L 126.02 69.30 L 124.65 68.13 L 122.85 66.83 L 121.37 65.80 L 119.44 64.67 L 117.87 63.80 L 115.84 62.87 L 114.19 62.16 L 112.07 61.43 L 110.35 60.89 L 108.17 60.38 L 106.41 60.01 L 104.18 59.72 L 102.39 59.53 L 100.14 59.46 L 98.34 59.45 L 96.09 59.61 L 94.30 59.77 L 92.07 60.16 L 90.30 60.50 L 88.12 61.11 L 86.40 61.62 L 84.28 62.45 L 82.62 63.13 L 80.59 64.17 L 79.01 65.01 L 77.09 66.25 L 75.59 67.25 L 73.81 68.67 L 72.42 69.82 L 70.78 71.41 L 69.52 72.69 L 68.04 74.44 L 66.91 75.84 L 65.61 77.73 L 64.63 79.24 L 63.52 81.26 L 62.69 82.85 L 61.80 84.97 L 61.13 86.65 L 60.45 88.85 L 59.95 90.58 L 59.49 92.84 L 59.17 94.62 L 58.93 96.92 L 58.79 98.71 L 58.79 101.03 L 58.83 102.83 L 59.05 105.15 L 59.27 106.93 L 59.73 109.22 L 60.13 110.97 L 60.81 113.20 L 61.38 114.91 L 62.28 117.06 L 63.02 118.71 L 64.14 120.76 L 65.03 122.33 L 66.35 124.26 L 67.40 125.73 L 68.91 127.53 L 70.10 128.88 L 71.79 130.53 L 73.10 131.75 L 74.95 133.22 L 76.38 134.31 L 78.36 135.59 L 79.90 136.53 L 82.00 137.61 L 83.63 138.40 L 85.83 139.26 L 87.52 139.88 L 89.81 140.52 L 91.56 140.97 L 93.90 141.38 L 95.68 141.65 L 98.06 141.82 L 99.86 141.91 L 102.24 141.85 L 104.04 141.76 L 106.42 141.46 L 108.20 141.19 L 110.53 140.66 L 112.28 140.21 L 114.55 139.44 L 116.24 138.82 L 118.43 137.83 L 120.05 137.05 L 122.14 135.84 L 123.67 134.90 L 125.63 133.49 L 127.06 132.40 L 128.87 130.79 L 130.19 129.56 L 131.83 127.79 L 133.02 126.43 L 134.48 124.49 L 135.53 123.03 L 136.79 120.95 L 137.69 119.39 L 138.74 117.19 L 139.47 115.55 L 140.30 113.26 L 140.87 111.55 L 141.47 109.18 L 141.86 107.42 L 142.22 105.00 L 142.43 103.21 L 142.55 100.76 L 142.58 98.96 L 142.45 96.51 L 142.31 94.71 L 141.94 92.28 L 141.62 90.51 L 141.00 88.12 L 140.50 86.39 L 139.65 84.07 L 138.98 82.40 L 137.90 80.18 L 137.07 78.58 L 135.77 76.47 L 134.78 74.97 L 133.28 72.99 L 132.14 71.59 L 130.44 69.78 L 129.18 68.50 L 127.30 66.86 L 125.92 65.71 L 123.88 64.26 L 122.39 63.26 L 120.22 62.02 L 118.63 61.17 L 116.34 60.15 L 114.68 59.47 L 112.30 58.68 L 110.57 58.16 L 108.12 57.61 L 106.35 57.27 L 103.85 56.97 L 102.06 56.81 L 99.54 56.76 L 97.74 56.78 L 95.22 56.98 L 93.43 57.18 L 90.94 57.63 L 89.18 58.00 L 86.75 58.70 L 85.03 59.25 L 82.68 60.19 L 81.02 60.91 L 78.77 62.08 L 77.20 62.96 L 75.07 64.36 L 73.59 65.39 L 71.61 66.99 L 70.24 68.16 L 68.42 69.96 L 67.18 71.26 L 65.55 73.23 L 64.44 74.65 L 63.01 76.78 L 62.05 78.30 L 60.84 80.57 L 60.04 82.18 L 59.06 84.56 L 58.42 86.24 L 57.68 88.71 L 57.21 90.45 L 56.72 92.98 L 56.43 94.76 L 56.20 97.33 L 56.08 99.13 L 56.10 101.72 L 56.17 103.52 L 56.45 106.10 L 56.70 107.88 L 57.24 110.42 L 57.66 112.17 L 58.45 114.65 L 59.05 116.35 L 60.08 118.75 L 60.85 120.38 L 62.12 122.66 L 63.04 124.20 L 64.53 126.35 L 65.60 127.80 L 67.31 129.79 L 68.52 131.12 L 70.41 132.93 L 71.75 134.14 L 73.82 135.76 L 75.27 136.82 L 77.50 138.23 L 79.05 139.14 L 81.41 140.32 L 83.04 141.08 L 85.51 142.02 L 87.21 142.60 L 89.77 143.29 L 91.52 143.71 L 94.13 144.14 L 95.92 144.38 L 98.57 144.55 L 100.36 144.61 L 103.02 144.51 L 104.82 144.39 L 107.46 144.03 L 109.23 143.73 L 111.82 143.11 L 113.56 142.63 L 116.08 141.75 L 117.76 141.11 L 120.19 139.98 L 121.79 139.17 L 124.10 137.80 L 125.62 136.83 L 127.78 135.24 L 129.19 134.13 L 131.19 132.32 L 132.48 131.07 L 134.29 129.08 L 135.45 127.70 L 137.06 125.54 L 138.08 124.05 L 139.46 121.73 L 140.32 120.15 L 141.47 117.70 L 142.17 116.05 L 143.07 113.49 L 143.61 111.77 L 144.24 109.13 L 144.60 107.37 L 144.97 104.67 L 145.16 102.88 L 145.26 100.16 L 145.26 98.36 L 145.09 95.64 L 144.92 93.85 L 144.47 91.15 L 144.12 89.39 L 143.41 86.75 L 142.88 85.03 L 141.91 82.47 L 140.85 79.93 L 139.13 76.77 L 137.66 74.44 L 136.12 72.16 L 133.80 69.41 L 131.90 67.41 L 129.92 65.48 L 127.11 63.23 L 124.84 61.65 L 122.51 60.15 L 119.31 58.51 L 116.76 57.40 L 114.17 56.39 L 110.70 55.42 L 107.98 54.84 L 105.23 54.36 L 101.64 54.09 L 98.85 54.07 L 96.05 54.14 L 92.48 54.60 L 89.73 55.13 L 87.00 55.76 L 83.59 56.91 L 80.99 57.98 L 78.43 59.15 L 75.31 60.96 L 72.97 62.52 L 70.69 64.18 L 68.00 66.57 L 66.01 68.58 L 64.09 70.66 L 61.93 73.54 L 60.37 75.91 L 58.90 78.34 L 57.35 81.59 L 56.30 84.23 L 55.33 86.92 L 54.46 90.41 L 53.95 93.21 L 53.54 96.04 L 53.38 99.64 L 53.43 102.50 L 53.59 105.36 L 54.15 108.92 L 54.77 111.72 L 55.50 114.50 L 56.76 117.88 L 57.93 120.51 L 59.20 123.09 L 61.10 126.15 L 62.77 128.51 L 64.53 130.80 L 67.00 133.42 L 69.11 135.40 L 71.31 137.30 L 74.25 139.37 L 76.72 140.90 L 79.25 142.33 L 82.55 143.78 L 85.28 144.79 L 88.05 145.69 L 91.57 146.46 L 94.46 146.91 L 97.36 147.24 L 100.96 147.30 L 103.89 147.16 L 106.81 146.91 L 110.35 146.25 L 113.20 145.53 L 116.03 144.70 L 119.36 143.35 L 122.02 142.08 L 124.63 140.70 L 127.63 138.71 L 129.99 136.93 L 132.29 135.06 L 134.83 132.51 L 136.80 130.29 L 138.68 128.00 L 140.67 124.99 L 142.16 122.42 L 143.55 119.79 L 144.90 116.45 L 145.85 113.63 L 146.69 110.76 L 147.36 107.22 L 147.73 104.26 L 147.99 101.27 L 147.93 97.67 L 147.71 94.69 L 147.37 91.70 L 146.60 88.18 L 145.79 85.29 L 144.86 82.42 L 143.40 79.13 L 142.03 76.45 L 140.54 73.82 L 138.47 70.87 L 136.58 68.51 L 134.59 66.22 L 131.97 63.75 L 129.65 61.81 L 127.24 59.95 L 124.18 58.05 L 121.51 56.60 L 118.77 55.26 L 115.40 54.01 L 112.49 53.11 L 109.53 52.34 L 105.97 51.78 L 102.93 51.48 L 99.87 51.31 L 96.27 51.47 L 93.22 51.78 L 90.18 52.22 L 86.69 53.09 L 83.75 54.01 L 80.85 55.05 L 77.60 56.59 L 74.90 58.08 L 72.25 59.67 L 69.37 61.84 L 67.01 63.83 L 64.73 65.93 L 62.34 68.62 L 60.42 71.05 L 58.60 73.57 L 56.79 76.68 L 55.38 79.45 L 54.09 82.29 L 52.93 85.70 L 52.11 88.71 L 51.40 91.75 L 50.95 95.32 L 50.73 98.44 L 50.65 101.57 L 50.91 105.16 L 51.32 108.27 L 51.86 111.37 L 52.83 114.83 L 53.85 117.81 L 55.00 120.74 L 56.64 123.94 L 58.23 126.66 L 59.95 129.32 L 62.19 132.13 L 64.30 134.49 L 66.51 136.75 L 69.27 139.07 L 71.81 140.96 L 74.44 142.75 L 77.60 144.47 L 80.47 145.82 L 83.41 147.06 L 86.85 148.11 L 89.95 148.87 L 93.08 149.50 L 96.66 149.85 L 99.85 149.98 L 103.06 149.97 L 106.64 149.60 L 109.80 149.10 L 112.94 148.45 L 116.38 147.38 L 119.39 146.25 L 122.35 144.99 L 125.51 143.26 L 128.24 141.55 L 130.90 139.72 L 133.64 137.40 L 135.99 135.18 L 138.24 132.85 L 140.47 130.02 L 142.33 127.37 L 144.08 124.64 L 145.70 121.43 L 147.00 118.45 L 148.18 115.42 L 149.13 111.95 L 149.82 108.77 L 150.36 105.55 L 150.61 101.96 L 150.65 98.69 L 150.55 95.42 L 150.07 91.86 L 149.47 88.64 L 148.71 85.45 L 147.54 82.04 L 146.30 79.01 L 144.93 76.02 L 143.10 72.92 L 141.28 70.18 L 139.33 67.52 L 136.93 64.84 L 134.59 62.51 L 132.15 60.28 L 129.26 58.14 L 126.50 56.31 L 123.66 54.61 L 120.40 53.08 L 117.33 51.84 L 114.19 50.73 L 110.70 49.88 L 107.43 49.27 L 104.13 48.81 L 100.53 48.67 L 97.20 48.72 L 93.87 48.93 L 90.31 49.50 L 87.05 50.21 L 83.82 51.08 L 80.45 52.35 L 77.38 53.70 L 74.38 55.20 L 71.33 57.11 L 68.59 59.05 L 65.93 61.11 L 63.32 63.60 L 61.01 66.05 L 58.82 68.61 L 56.76 71.56 L 54.97 74.42 L 53.32 77.38 L 51.89 80.68 L 50.71 83.85 L 49.68 87.08 L 48.93 90.60 L 48.40 93.95 L 48.03 97.33 L 47.99 100.93 L 48.14 104.33 L 48.45 107.72 L 49.13 111.26 L 49.95 114.57 L 50.93 117.84 L 52.30 121.17 L 53.76 124.26 L 55.38 127.28 L 57.38 130.27 L 59.44 133.01 L 61.62 135.66 L 64.18 138.19 L 66.74 140.48 L 69.42 142.64 L 72.43 144.62 L 75.41 146.35 L 78.47 147.95 L 81.81 149.28 L 85.08 150.39 L 88.40 151.35 L 91.94 152.00 L 95.38 152.44 L 98.83 152.72 L 102.43 152.65 L 105.89 152.40 L 109.35 151.98 L 112.86 151.20 L 116.21 150.27 L 119.52 149.17 L 122.81 147.70 L 125.91 146.12 L 128.95 144.38 L 131.88 142.29 L 134.61 140.12 L 137.25 137.81 L 139.70 135.18 L 141.96 132.50 L 144.09 129.70 L 145.97 126.64 L 147.65 123.56 L 149.19 120.39 L 150.43 117.01 L 151.47 113.64 L 152.34 110.22 L 152.88 106.67 L 153.24 103.15 L 153.42 99.62 L 153.24 96.03 L 152.89 92.51 L 152.36 89.00 L 151.47 85.51 L 150.43 82.12 L 149.21 78.78 L 147.65 75.54 L 145.94 72.42 L 144.08 69.38 L 141.91 66.51 L 139.61 63.78 L 137.18 61.17 L 134.48 58.79 L 131.68 56.57 L 128.77 54.48 L 125.65 52.69 L 122.46 51.06 L 119.19 49.59 L 115.77 48.46 L 112.31 47.49 L 108.80 46.70 L 105.23 46.27 L 101.64 46.01 L 98.04 45.93 L 94.45 46.21 L 90.87 46.67 L 87.33 47.31 L 83.85 48.30 L 80.43 49.47 L 77.09 50.80 L 73.87 52.46 L 70.74 54.29 L 67.72 56.26 L 64.89 58.53 L 62.18 60.95 L 59.62 63.48 L 57.29 66.28 L 55.11 69.19 L 53.10 72.18 L 51.37 75.39 L 49.81 78.69 L 48.43 82.01 L 47.37 85.51 L 46.49 89.07 L 45.80 92.60 L 45.45 96.25 L 45.30 99.91 L 45.32 103.51 L 45.71 107.17 L 46.28 110.80 L 47.03 114.32 L 48.13 117.83 L 49.42 121.28 L 50.85 124.59 L 52.63 127.82 L 54.58 130.95 L 56.64 133.91 L 59.04 136.73 L 61.58 139.42 L 64.18 141.91 L 67.09 144.20 L 70.12 146.34 L 73.17 148.26 L 76.49 149.93 L 79.89 151.43 L 83.26 152.71 L 86.85 153.69 L 90.49 154.48 L 94.04 155.07 L 97.77 155.31 L 101.51 155.37 L 105.10 155.24 L 108.81 154.74 L 112.49 154.05 L 115.99 153.21 L 119.54 151.98 L 123.02 150.57 L 126.28 149.05 L 129.52 147.14 L 132.65 145.06 L 135.55 142.92 L 138.35 140.40 L 141.01 137.74 L 143.43 135.06 L 145.68 132.03 L 147.77 128.88 L 149.60 125.79 L 151.21 122.36 L 152.63 118.85 L 153.81 115.45 L 154.71 111.76 L 155.41 108.03 L 155.89 104.47 L 156.04 100.67 L 155.99 96.86 L 155.75 93.27 L 155.14 89.51 L 154.33 85.78 L 153.39 82.31 L 152.04 78.74 L 150.51 75.24 L 148.89 72.02 L 146.85 68.78 L 144.65 65.65 L 142.42 62.82 L 139.78 60.03 L 136.99 57.40 L 134.25 55.07 L 131.10 52.86 L 127.83 50.82 L 124.68 49.08 L 121.15 47.54 L 117.54 46.20 L 114.11 45.12 L 110.34 44.31 L 106.54 43.70 L 102.96 43.32 L 99.11 43.28 L 95.26 43.43 L 91.68 43.77 L 87.89 44.49 L 84.15 45.40 L 80.70 46.44 L 77.13 47.89 L 73.65 49.53 L 70.47 51.23 L 67.26 53.36 L 64.17 55.65 L 61.39 57.94 L 58.66 60.65 L 56.07 63.51 L 53.80 66.30 L 51.66 69.50 L 49.69 72.81 L 48.01 76.00 L 46.53 79.56 L 45.25 83.19 L 44.23 86.64 L 43.48 90.42 L 42.93 94.23 L 42.60 97.81 L 42.61 101.67 L 42.82 105.51 L 43.20 109.09 L 43.96 112.87 L 44.92 116.60 L 45.99 120.04 L 47.47 123.59 L 49.14 127.06 L 50.86 130.22 L 53.01 133.43 L 55.32 136.51 L 57.62 139.27 L 60.35 141.99 L 63.22 144.56 L 66.02 146.83 L 69.22 148.97 L 72.53 150.93 L 75.72 152.61 L 79.28 154.09 L 82.91 155.37 L 86.36 156.40 L 90.14 157.16 L 93.94 157.72 L 97.53 158.06 L 101.38 158.07 L 105.23 157.88 L 108.81 157.52 L 112.59 156.79 L 116.33 155.86 L 119.78 154.82 L 123.35 153.37 L 126.84 151.74 L 130.01 150.05 L 133.24 147.94 L 136.35 145.67 L 139.14 143.40 L 141.90 140.71 L 144.52 137.88 L 146.82 135.12 L 149.01 131.95 L 151.03 128.67 L 152.77 125.51 L 154.31 121.98 L 155.66 118.38 L 156.76 114.95 L 157.59 111.19 L 158.23 107.39 L 158.65 103.81 L 158.75 99.96 L 158.66 96.11 L 158.38 92.52 L 157.74 88.72 L 156.91 84.96 L 155.96 81.49 L 154.61 77.88 L 153.08 74.35 L 151.48 71.12 L 149.46 67.84 L 147.29 64.66 L 145.10 61.80 L 142.50 58.96 L 139.76 56.25 L 137.07 53.86 L 133.98 51.56 L 130.77 49.43 L 127.68 47.59 L 124.20 45.92 L 120.65 44.43 L 117.26 43.21 L 113.54 42.24 L 109.77 41.45 L 106.21 40.89 L 102.37 40.64 L 98.52 40.58 L 94.92 40.70 L 91.09 41.18 L 87.30 41.85 L 83.79 42.65 L 80.13 43.84 L 76.53 45.21 L 73.23 46.66 L 69.86 48.52 L 66.58 50.54 L 63.62 52.59 L 60.65 55.05 L 57.82 57.66 L 55.29 60.22 L 52.84 63.20 L 50.55 66.29 L 48.55 69.28 L 46.70 72.66 L 45.03 76.13 L 43.63 79.45 L 42.44 83.12 L 41.45 86.84 L 40.70 90.36 L 40.22 94.18 L 39.94 98.02 L 39.86 101.62 L 40.11 105.47 L 40.55 109.29 L 41.14 112.84 L 42.10 116.57 L 43.25 120.25 L 44.49 123.63 L 46.14 127.11 L 47.95 130.51 L 49.80 133.60 L 52.06 136.72 L 54.47 139.72 L 56.87 142.41 L 59.67 145.05 L 62.60 147.55 L 65.45 149.75 L 68.70 151.83 L 72.04 153.74 L 75.25 155.37 L 78.83 156.81 L 82.46 158.07 L 85.92 159.07 L 89.70 159.83 L 93.51 160.39 L 97.09 160.74 L 100.95 160.78 L 104.79 160.63 L 108.38 160.31 L 112.17 159.64 L 115.93 158.78 L 119.39 157.80 L 123.00 156.44 L 126.53 154.90 L 129.76 153.30 L 133.05 151.30 L 136.24 149.14 L 139.11 146.98 L 141.98 144.40 L 144.71 141.69 L 147.14 139.03 L 149.49 135.98 L 151.68 132.81 L 153.58 129.75 L 155.32 126.32 L 156.90 122.80 L 158.20 119.45 L 159.29 115.75 L 160.19 112.00 L 160.86 108.47 L 161.25 104.63 L 161.45 100.79 L 161.46 97.19 L 161.14 93.35 L 160.63 89.53 L 159.99 85.99 L 158.97 82.27 L 157.78 78.61 L 156.50 75.25 L 154.82 71.77 L 152.98 68.39 L 151.10 65.32 L 148.82 62.21 L 146.40 59.22 L 143.99 56.54 L 141.19 53.90 L 138.26 51.40 L 135.41 49.20 L 132.17 47.12 L 128.83 45.19 L 125.63 43.55 L 122.06 42.09 L 118.43 40.80 L 114.99 39.76 L 111.21 38.97 L 107.41 38.36 L 103.83 37.97 L 99.98 37.87 L 96.13 37.96 L 92.54 38.22 L 88.73 38.82 L 84.96 39.61 L 81.48 40.51 L 77.84 41.79 L 74.28 43.24 L 71.01 44.76 L 67.67 46.67 L 64.42 48.74 L 61.48 50.82 L 58.54 53.31 L 55.72 55.93 L 53.20 58.51 L 50.75 61.48 L 48.45 64.57 L 46.44 67.56 L 44.57 70.92 L 42.85 74.37 L 41.41 77.67 L 40.17 81.32 L 39.11 85.02 L 38.28 88.52 L 37.72 92.34 L 37.33 96.17 L 37.15 99.76 L 37.27 103.62 L 37.58 107.45 L 38.04 111.02 L 38.86 114.79 L 39.85 118.51 L 40.94 121.94 L 42.41 125.51 L 44.05 128.99 L 45.74 132.17 L 47.82 135.41 L 50.05 138.55 L 52.28 141.38 L 54.91 144.20 L 57.67 146.88 L 60.36 149.27 L 63.45 151.58 L 66.64 153.73 L 69.72 155.60 L 73.17 157.32 L 76.69 158.88 L 80.05 160.17 L 83.75 161.25 L 87.49 162.15 L 91.03 162.83 L 94.86 163.24 L 98.70 163.46 L 102.30 163.50 L 106.15 163.22 L 109.97 162.77 L 113.52 162.17 L 117.26 161.21 L 120.94 160.09 L 124.33 158.87 L 127.83 157.27 L 131.26 155.51 L 134.38 153.72 L 137.55 151.52 L 140.61 149.19 L 143.36 146.87 L 146.10 144.15 L 148.70 141.31 L 151.00 138.54 L 153.21 135.39 L 155.27 132.13 L 157.05 129.01 L 158.68 125.51 L 160.13 121.94 L 161.33 118.55 L 162.32 114.83 L 163.12 111.06 L 163.71 107.51 L 164.03 103.67 L 164.16 99.82 L 164.12 96.22 L 163.75 92.38 L 163.21 88.57 L 162.54 85.03 L 161.51 81.32 L 160.31 77.66 L 159.03 74.30 L 157.36 70.82 L 155.54 67.43 L 153.69 64.34 L 151.45 61.20 L 149.06 58.18 L 146.70 55.46 L 143.94 52.77 L 141.07 50.21 L 138.27 47.95 L 135.08 45.77 L 131.81 43.76 L 128.66 42.01 L 125.14 40.43 L 121.56 39.01 L 118.16 37.84 L 114.42 36.89 L 110.65 36.12 L 107.09 35.56 L 103.25 35.27 L 99.40 35.16 L 95.80 35.23 L 91.97 35.61 L 88.16 36.17 L 84.62 36.86 L 80.91 37.91 L 77.26 39.12 L 73.90 40.41 L 70.42 42.08 L 67.03 43.91 L 63.95 45.76 L 60.81 48.00 L 57.79 50.39 L 55.07 52.74 L 52.37 55.50 L 49.80 58.37 L 47.53 61.16 L 45.35 64.34 L 43.31 67.61 L 41.56 70.75 L 39.95 74.25 L 38.51 77.83 L 37.32 81.22 L 36.35 84.95 L 35.54 88.72 L 34.95 92.27 L 34.63 96.11 L 34.49 99.96 L 34.52 103.56 L 34.86 107.40 L 35.38 111.21 L 36.03 114.75 L 37.02 118.48 L 38.19 122.15 L 39.43 125.53 L 41.05 129.02 L 42.83 132.44 L 44.63 135.56 L 46.83 138.72 L 49.16 141.79 L 51.47 144.55 L 54.18 147.29 L 57.00 149.91 L 59.75 152.24 L 62.88 154.48 L 66.11 156.58 L 69.21 158.40 L 72.68 160.08 L 76.22 161.60 L 79.59 162.87 L 83.30 163.93 L 87.05 164.82 L 90.58 165.50 L 94.41 165.91 L 98.26 166.15 L 101.86 166.22 L 105.70 165.98 L 109.53 165.56 L 113.09 165.01 L 116.84 164.12 L 120.54 163.06 L 123.95 161.92 L 127.50 160.40 L 130.97 158.73 L 134.14 157.02 L 137.37 154.93 L 140.51 152.70 L 143.35 150.48 L 146.18 147.87 L 148.90 145.13 L 151.31 142.47 L 153.67 139.42 L 155.88 136.26 L 157.81 133.23 L 159.62 129.82 L 161.27 126.34 L 162.66 123.02 L 163.86 119.36 L 164.90 115.65 L 165.71 112.14 L 166.28 108.33 L 166.68 104.50 L 166.89 100.91 L 166.81 97.05 L 166.56 93.21 L 166.16 89.63 L 165.44 85.85 L 164.54 82.10 L 163.55 78.64 L 162.20 75.03 L 160.69 71.49 L 159.13 68.25 L 157.19 64.91 L 155.11 61.67 L 153.03 58.74 L 150.56 55.78 L 147.96 52.93 L 145.42 50.39 L 142.49 47.88 L 139.45 45.51 L 136.52 43.43 L 133.21 41.45 L 129.82 39.62 L 126.58 38.06 L 122.99 36.66 L 119.34 35.42 L 115.88 34.42 L 112.11 33.64 L 108.30 33.03 L 104.73 32.62 L 100.88 32.48 L 97.02 32.51 L 93.43 32.70 L 89.61 33.20 L 85.82 33.88 L 82.30 34.66 L 78.62 35.79 L 74.99 37.09 L 71.66 38.45 L 68.21 40.18 L 64.85 42.05 L 61.79 43.95 L 58.68 46.22 L 55.68 48.64 L 52.97 51.01 L 50.28 53.77 L 47.72 56.65 L 45.45 59.44 L 43.25 62.61 L 41.20 65.87 L 39.42 69.00 L 37.78 72.48 L 36.30 76.04 L 35.06 79.42 L 34.02 83.13 L 33.14 86.88 L 32.48 90.42 L 32.07 94.25 L 31.82 98.09 L 31.76 101.69 L 31.98 105.54 L 32.37 109.37 L 32.90 112.93 L 33.75 116.69 L 34.77 120.41 L 35.88 123.83 L 37.34 127.40 L 38.96 130.89 L 40.61 134.09 L 42.64 137.37 L 44.81 140.55 L 46.97 143.43 L 49.51 146.33 L 52.17 149.12 L 54.77 151.60 L 57.75 154.05 L 60.83 156.35 L 63.81 158.38 L 67.15 160.30 L 70.57 162.08 L 73.84 163.59 L 77.45 164.94 L 81.11 166.12 L 84.58 167.08 L 88.36 167.82 L 92.17 168.39 L 95.75 168.77 L 99.60 168.88 L 103.45 168.82 L 107.05 168.61 L 110.87 168.09 L 114.66 167.41 L 118.17 166.61 L 121.85 165.47 L 125.48 164.18 L 128.81 162.82 L 132.26 161.10 L 135.63 159.23 L 138.70 157.35 L 141.82 155.09 L 144.84 152.70 L 147.56 150.34 L 150.27 147.60 L 152.86 144.75 L 155.16 141.99 L 157.40 138.84 L 159.49 135.61 L 161.31 132.51 L 163.00 129.04 L 164.54 125.51 L 165.84 122.15 L 166.95 118.46 L 167.89 114.73 L 168.63 111.20 L 169.12 107.38 L 169.45 103.54 L 169.61 99.95 L 169.48 96.10 L 169.18 92.26 L 168.75 88.68 L 168.00 84.90 L 167.09 81.16 L 166.08 77.70 L 164.73 74.09 L 163.23 70.55 L 161.68 67.30 L 159.77 63.95 L 157.71 60.70 L 155.66 57.74 L 153.23 54.75 L 150.67 51.86 L 148.17 49.27 L 145.29 46.71 L 142.31 44.28 L 139.42 42.13 L 136.17 40.06 L 132.83 38.14 L 129.63 36.48 L 126.09 34.96 L 122.49 33.60 L 119.07 32.48 L 115.33 31.55 L 111.55 30.79 L 107.99 30.23 L 104.15 29.91 L 100.30 29.76 L 96.70 29.78 L 92.86 30.08 L 89.04 30.55 L 85.49 31.14 L 81.75 32.06 L 78.05 33.13 L 74.64 34.29 L 71.09 35.79 L 67.61 37.44 L 64.43 39.13 L 61.16 41.18 L 57.99 43.36 L 55.12 45.53 L 52.22 48.08 L 49.44 50.74 L 46.95 53.34 L 44.50 56.32 L 42.18 59.39 L 40.14 62.36 L 38.19 65.68 L 36.39 69.09 L 34.85 72.34 L 33.45 75.93 L 32.22 79.58 L 31.21 83.04 L 30.41 86.81 L 29.77 90.60 L 29.32 94.18 L 29.13 98.03 L 29.10 101.88 L 29.22 105.48 L 29.64 109.31 L 30.23 113.11 L 30.92 116.65 L 31.94 120.36 L 33.12 124.03 L 34.37 127.41 L 35.97 130.91 L 37.71 134.35 L 39.47 137.49 L 41.61 140.70 L 43.87 143.81 L 46.11 146.63 L 48.73 149.46 L 51.46 152.18 L 54.11 154.61 L 57.14 156.99 L 60.26 159.25 L 63.27 161.23 L 66.64 163.10 L 70.08 164.83 L 73.36 166.32 L 76.98 167.64 L 80.65 168.80 L 84.12 169.75 L 87.91 170.49 L 91.72 171.06 L 95.30 171.45 L 99.15 171.58 L 103.00 171.55 L 106.59 171.37 L 110.42 170.89 L 114.22 170.25 L 117.74 169.51 L 121.44 168.44 L 125.09 167.21 L 128.46 165.93 L 131.95 164.29 L 135.36 162.50 L 138.48 160.71 L 141.67 158.54 L 144.76 156.24 L 147.56 153.98 L 150.37 151.34 L 153.06 148.59 L 155.47 145.91 L 157.83 142.87 L 160.06 139.73 L 162.03 136.71 L 163.88 133.33 L 165.60 129.88 L 167.06 126.60 L 168.37 122.97 L 169.52 119.29 L 170.46 115.82 L 171.18 112.03 L 171.75 108.22 L 172.13 104.64 L 172.25 100.79 L 172.22 96.94 L 172.04 93.34 L 171.56 89.52 L 170.93 85.72 L 170.19 82.20 L 169.12 78.49 L 167.91 74.84 L 166.63 71.47 L 165.00 67.98 L 163.23 64.56 L 161.44 61.43 L 159.29 58.23 L 157.01 55.13 L 154.76 52.32 L 152.14 49.49 L 149.41 46.78 L 146.75 44.35 L 143.72 41.97 L 140.60 39.71 L 137.60 37.72 L 134.24 35.84 L 130.81 34.09 L 127.53 32.59 L 123.92 31.25 L 120.26 30.05 L 116.79 29.08 L 113.02 28.31 L 109.21 27.70 L 105.64 27.27 L 101.79 27.09 L 97.94 27.07 L 94.34 27.21 L 90.51 27.62 L 86.70 28.20 L 83.16 28.88 L 79.44 29.89 L 75.77 31.05 L 72.38 32.27 L 68.86 33.83 L 65.41 35.54 L 62.25 37.27 L 59.01 39.36 L 55.86 41.58 L 53.01 43.77 L 50.13 46.33 L 47.36 49.01 L 44.88 51.62 L 42.42 54.59 L 40.10 57.66 L 38.05 60.62 L 36.08 63.93 L 34.25 67.32 L 32.68 70.56 L 31.24 74.14 L 29.96 77.77 L 28.90 81.21 L 28.03 84.96 L 27.31 88.75 L 26.79 92.31 L 26.51 96.15 L 26.38 100.00 L 26.41 103.60 L 26.72 107.45 L 27.18 111.27 L 27.76 114.82 L 28.65 118.57 L 29.70 122.28 L 30.81 125.70 L 32.27 129.27 L 33.86 132.78 L 35.49 135.99 L 37.47 139.30 L 39.58 142.52 L 41.68 145.45 L 44.14 148.41 L 46.72 151.27 L 49.23 153.85 L 52.12 156.40 L 55.10 158.84 L 57.98 161.00 L 61.22 163.09 L 64.54 165.04 L 67.72 166.74 L 71.24 168.31 L 74.81 169.73 L 78.21 170.93 L 81.93 171.95 L 85.68 172.81 L 89.22 173.48 L 93.05 173.92 L 96.89 174.21 L 100.49 174.33 L 104.34 174.19 L 108.18 173.89 L 111.75 173.46 L 115.54 172.74 L 119.29 171.86 L 122.76 170.90 L 126.39 169.61 L 129.96 168.18 L 133.25 166.70 L 136.64 164.88 L 139.96 162.92 L 142.98 160.97 L 146.07 158.65 L 149.05 156.21 L 151.74 153.82 L 154.44 151.07 L 157.02 148.21 L 159.32 145.44 L 161.57 142.31 L 163.69 139.10 L 165.55 136.01 L 167.30 132.58 L 168.91 129.08 L 170.29 125.75 L 171.50 122.10 L 172.57 118.39 L 173.42 114.90 L 174.07 111.10 L 174.57 107.28 L 174.89 103.69 L 174.97 99.84 L 174.88 95.99 L 174.66 92.40 L 174.16 88.57 L 173.50 84.78 L 172.74 81.26 L 171.66 77.56 L 170.44 73.91 L 169.17 70.54 L 167.55 67.04 L 165.79 63.61 L 164.03 60.48 L 161.90 57.26 L 159.65 54.13 L 157.44 51.29 L 154.86 48.43 L 152.17 45.68 L 149.55 43.20 L 146.57 40.76 L 143.50 38.44 L 140.54 36.38 L 137.23 34.41 L 133.84 32.57 L 130.61 30.98 L 127.04 29.53 L 123.42 28.22 L 119.99 27.13 L 116.25 26.22 L 112.47 25.46 L 108.91 24.90 L 105.07 24.56 L 101.23 24.37 L 97.63 24.34 L 93.78 24.58 L 89.95 24.97 L 86.38 25.48 L 82.61 26.28 L 78.88 27.24 L 75.43 28.27 L 71.82 29.63 L 68.28 31.13 L 65.02 32.66 L 61.65 34.53 L 58.37 36.54 L 55.37 38.54 L 52.32 40.90 L 49.37 43.38 L 46.71 45.80 L 44.04 48.58 L 41.49 51.46 L 39.21 54.25 L 36.99 57.40 L 34.89 60.63 L 33.05 63.73 L 31.32 67.17 L 29.72 70.68 L 28.36 74.01 L 27.16 77.67 L 26.10 81.37 L 25.24 84.87 L 24.59 88.67 L 24.09 92.49 L 23.77 96.07 L 23.68 99.93 L 23.75 103.78 L 23.96 107.37 L 24.45 111.20 L 25.08 115.00 L 25.82 118.52 L 26.86 122.23 L 28.05 125.90 L 29.30 129.27 L 30.87 132.79 L 32.59 136.24 L 34.32 139.39 L 36.40 142.64 L 38.60 145.80 L 40.78 148.67 L 43.31 151.57 L 45.96 154.37 L 48.53 156.89 L 51.47 159.39 L 54.49 161.77 L 57.41 163.88 L 60.68 165.92 L 64.02 167.84 L 67.22 169.50 L 70.75 171.04 L 74.34 172.44 L 77.74 173.61 L 81.46 174.62 L 85.22 175.48 L 88.75 176.14 L 92.58 176.59 L 96.42 176.89 L 100.02 177.03 L 103.87 176.92 L 107.72 176.65 L 111.29 176.26 L 115.09 175.59 L 118.85 174.76 L 122.34 173.85 L 125.99 172.63 L 129.59 171.26 L 132.91 169.86 L 136.34 168.11 L 139.71 166.24 L 142.78 164.36 L 145.93 162.13 L 148.98 159.79 L 151.75 157.48 L 154.54 154.82 L 157.22 152.06 L 159.62 149.37 L 161.99 146.33 L 164.24 143.21 L 166.22 140.20 L 168.13 136.85 L 169.89 133.43 L 171.42 130.17 L 172.82 126.58 L 174.07 122.94 L 175.11 119.49 L 175.97 115.73 L 176.68 111.94 L 177.21 108.38 L 177.51 104.54 L 177.66 100.69 L 177.67 97.09 L 177.41 93.25 L 177.01 89.42 L 176.49 85.85 L 175.68 82.09 L 174.72 78.35 L 173.69 74.90 L 172.34 71.29 L 170.86 67.74 L 169.34 64.47 L 167.48 61.10 L 165.50 57.80 L 163.52 54.78 L 161.20 51.71 L 158.76 48.73 L 156.37 46.04 L 153.62 43.33 L 150.78 40.74 L 148.02 38.41 L 144.92 36.13 L 141.73 33.98 L 138.67 32.08 L 135.26 30.27 L 131.79 28.59 L 128.50 27.15 L 124.87 25.86 L 121.19 24.70 L 117.72 23.75 L 113.94 22.99 L 110.14 22.37 L 106.57 21.93 L 102.72 21.72 L 98.87 21.66 L 95.27 21.74 L 91.43 22.08 L 87.61 22.57 L 84.06 23.17 L 80.31 24.06 L 76.60 25.09 L 73.17 26.19 L 69.59 27.62 L 66.06 29.17 L 62.83 30.75 L 59.49 32.67 L 56.22 34.72 L 53.25 36.75 L 50.22 39.13 L 47.28 41.62 L 44.63 44.05 L 41.97 46.84 L 39.42 49.73 L 37.14 52.52 L 34.90 55.66 L 32.79 58.88 L 30.94 61.97 L 29.18 65.40 L 27.55 68.89 L 26.16 72.21 L 24.90 75.85 L 23.79 79.54 L 22.88 83.02 L 22.16 86.81 L 21.59 90.62 L 21.19 94.20 L 21.02 98.05 L 20.99 101.90 L 21.10 105.50 L 21.48 109.33 L 22.01 113.15 L 22.63 116.70 L 23.55 120.44 L 24.62 124.14 L 25.74 127.56 L 27.19 131.14 L 28.76 134.65 L 30.36 137.87 L 32.30 141.21 L 34.36 144.46 L 36.40 147.43 L 38.80 150.45 L 41.30 153.37 L 43.74 156.02 L 46.54 158.67 L 49.43 161.22 L 52.23 163.49 L 55.37 165.72 L 58.60 167.82 L 61.68 169.67 L 65.11 171.43 L 68.60 173.06 L 71.92 174.46 L 75.57 175.71 L 79.25 176.83 L 82.74 177.74 L 86.52 178.47 L 90.33 179.06 L 93.90 179.47 L 97.75 179.65 L 101.61 179.69 L 105.21 179.59 L 109.04 179.23 L 112.86 178.72 L 116.41 178.12 L 120.16 177.22 L 123.87 176.18 L 127.29 175.07 L 130.88 173.65 L 134.40 172.10 L 137.64 170.53 L 140.99 168.61 L 144.26 166.58 L 147.24 164.57 L 150.29 162.20 L 153.24 159.73 L 155.91 157.31 L 158.59 154.54 L 161.16 151.68 L 163.47 148.91 L 165.73 145.79 L 167.88 142.59 L 169.77 139.53 L 171.57 136.12 L 173.24 132.65 L 174.68 129.35 L 175.99 125.73 L 177.16 122.05 L 178.13 118.59 L 178.91 114.81 L 179.55 111.01 L 180.02 107.44 L 180.27 103.60 L 180.37 99.75 L 180.34 96.15 L 180.04 92.30 L 179.60 88.48 L 179.06 84.92 L 178.23 81.15 L 177.26 77.43 L 176.23 73.98 L 174.88 70.37 L 173.40 66.81 L 171.89 63.54 L 170.05 60.15 L 168.09 56.84 L 166.14 53.81 L 163.84 50.72 L 161.44 47.71 L 159.08 44.99 L 156.38 42.24 L 153.57 39.60 L 150.86 37.23 L 147.80 34.89 L 144.65 32.67 L 141.64 30.70 L 138.28 28.81 L 134.86 27.04 L 131.60 25.52 L 128.01 24.11 L 124.37 22.84 L 120.93 21.78 L 117.18 20.89 L 113.40 20.14 L 109.84 19.57 L 106.01 19.21 L 102.16 18.99 L 98.56 18.92 L 94.71 19.10 L 90.87 19.42 L 87.30 19.85 L 83.51 20.56 L 79.75 21.41 L 76.27 22.33 L 72.62 23.56 L 69.02 24.93 L 65.70 26.32 L 62.25 28.05 L 58.87 29.90 L 55.78 31.74 L 52.61 33.93 L 49.52 36.23 L 46.71 38.48 L 43.87 41.09 L 41.13 43.79 L 38.66 46.42 L 36.21 49.39 L 33.87 52.45 L 31.79 55.39 L 29.77 58.67 L 27.87 62.02 L 26.22 65.22 L 24.67 68.75 L 23.26 72.34 L 22.06 75.73 L 21.02 79.44 L 20.12 83.19 L 19.40 86.72 L 18.88 90.54 L 18.50 94.37 L 18.28 97.96 L 18.29 101.82 L 18.44 105.67 L 18.72 109.26 L 19.26 113.07 L 19.95 116.86 L 20.71 120.38 L 21.78 124.09 L 22.97 127.75 L 24.22 131.12 L 25.78 134.65 L 27.47 138.11 L 29.17 141.28 L 31.20 144.56 L 33.35 147.76 L 35.47 150.67 L 37.93 153.63 L 40.50 156.50 L 43.00 159.09 L 45.85 161.69 L 48.79 164.18 L 51.62 166.41 L 54.80 168.59 L 58.05 170.65 L 61.16 172.47 L 64.61 174.19 L 68.11 175.79 L 71.44 177.16 L 75.09 178.40 L 78.78 179.50 L 82.27 180.41 L 86.05 181.13 L 89.86 181.72 L 93.43 182.13 L 97.28 182.34 L 101.14 182.40 L 104.73 182.32 L 108.58 181.99 L 112.40 181.53 L 115.95 180.96 L 119.71 180.11 L 123.44 179.12 L 126.88 178.08 L 130.49 176.72 L 134.05 175.24 L 137.31 173.73 L 140.70 171.89 L 144.02 169.94 L 147.06 168.00 L 150.16 165.72 L 153.18 163.33 L 155.92 160.99 L 158.69 158.31 L 161.36 155.53 L 163.76 152.84 L 166.13 149.81 L 168.40 146.69 L 170.41 143.70 L 172.35 140.38 L 174.17 136.98 L 175.75 133.75 L 177.22 130.18 L 178.56 126.57 L 179.69 123.15 L 180.66 119.42 L 181.50 115.66 L 182.15 112.12 L 182.61 108.30 L 182.93 104.46 L 183.10 100.86 L 183.03 97.01 L 182.83 93.16 L 182.50 89.57 L 181.92 85.76 L 181.19 81.98 L 180.39 78.47 L 179.29 74.78 L 178.06 71.13 L 176.78 67.76 L 175.19 64.25 L 173.48 60.80 L 171.76 57.63 L 169.71 54.37 L 167.55 51.18 L 165.42 48.28 L 162.95 45.32 L 160.37 42.46 L 157.87 39.87 L 155.02 37.27 L 152.08 34.78 L 149.25 32.56 L 146.08 30.37 L 142.83 28.30 L 139.72 26.48 L 136.28 24.74 L 132.79 23.12 L 129.46 21.74 L 125.82 20.48 L 122.14 19.35 L 118.66 18.42 L 114.88 17.66 L 111.08 17.04 L 107.51 16.59 L 103.66 16.35 L 99.81 16.25 L 96.21 16.29 L 92.36 16.56 L 88.53 16.98 L 84.97 17.50 L 81.20 18.29 L 77.46 19.22 L 74.00 20.21 L 70.37 21.51 L 66.79 22.93 L 63.49 24.38 L 60.07 26.14 L 56.71 28.04 L 53.64 29.91 L 50.48 32.13 L 47.41 34.45 L 44.62 36.72 L 41.79 39.34 L 39.05 42.05 L 36.59 44.68 L 34.14 47.65 L 31.79 50.71 L 29.70 53.64 L 27.67 56.91 L 25.76 60.26 L 24.08 63.44 L 22.50 66.96 L 21.05 70.53 L 19.82 73.91 L 18.72 77.61 L 17.76 81.34 L 16.99 84.85 L 16.40 88.66 L 15.95 92.49 L 15.65 96.08 L 15.58 99.93 L 15.64 103.78 L 15.83 107.38 L 16.27 111.21 L 16.84 115.02 L 17.51 118.55 L 18.46 122.29 L 19.53 125.99 L 20.66 129.41 L 22.10 132.98 L 23.66 136.50 L 25.24 139.74 L 27.14 143.09 L 29.16 146.38 L 31.15 149.38 L 33.48 152.45 L 35.92 155.43 L 38.29 158.14 L 41.01 160.87 L 43.82 163.50 L 46.53 165.87 L 49.59 168.22 L 52.73 170.46 L 55.73 172.44 L 59.07 174.36 L 62.48 176.16 L 65.72 177.73 L 69.29 179.19 L 72.90 180.52 L 76.32 181.65 L 80.05 182.62 L 83.81 183.46 L 87.35 184.12 L 91.17 184.59 L 95.01 184.93 L 98.61 185.11 L 102.46 185.07 L 106.31 184.90 L 109.90 184.61 L 113.71 184.05 L 117.50 183.37 L 121.02 182.61 L 124.73 181.56 L 128.40 180.38 L 131.78 179.15 L 135.32 177.62 L 138.80 175.97 L 141.99 174.31 L 145.30 172.32 L 148.53 170.22 L 151.48 168.15 L 154.49 165.75 L 157.41 163.24 L 160.06 160.80 L 162.73 158.02 L 165.30 155.15 L 167.60 152.38 L 169.88 149.28 L 172.05 146.09 L 173.97 143.05 L 175.82 139.66 L 177.54 136.22 L 179.05 132.95 L 180.43 129.35 L 181.69 125.71 L 182.75 122.27 L 183.65 118.52 L 184.42 114.75 L 185.02 111.20 L 185.42 107.36 L 185.68 103.52 L 185.81 99.92 L 185.70 96.07 L 185.46 92.22 L 185.11 88.64 L 184.50 84.84 L 183.75 81.05 L 182.94 77.55 L 181.83 73.86 L 180.60 70.21 L 179.33 66.84 L 177.74 63.32 L 176.04 59.87 L 174.34 56.69 L 172.31 53.42 L 170.17 50.21 L 168.07 47.29 L 165.63 44.31 L 163.09 41.41 L 160.62 38.79 L 157.81 36.15 L 154.91 33.61 L 152.12 31.34 L 148.99 29.09 L 145.78 26.95 L 142.72 25.06 L 139.32 23.24 L 135.87 21.54 L 132.58 20.07 L 128.98 18.71 L 125.33 17.48 L 121.88 16.44 L 118.12 15.57 L 114.34 14.82 L 110.79 14.25 L 106.95 13.87 L 103.11 13.62 L 99.51 13.52 L 95.66 13.64 L 91.81 13.90 L 88.23 14.26 L 84.43 14.89 L 80.65 15.64 L 77.15 16.47 L 73.46 17.59 L 69.81 18.83 L 66.45 20.11 L 62.93 21.69 L 59.48 23.40 L 56.31 25.10 L 53.03 27.13 L 49.83 29.27 L 46.91 31.38 L 43.92 33.81 L 41.02 36.35 L 38.40 38.82 L 35.75 41.62 L 33.21 44.52 L 30.93 47.30 L 28.67 50.43 L 26.53 53.63 L 24.63 56.68 L 22.80 60.08 L 21.08 63.53 L 19.59 66.80 L 18.22 70.40 L 16.97 74.05 L 15.92 77.49 L 15.02 81.24 L 14.25 85.02 L 13.65 88.57 L 13.25 92.40 L 12.97 96.24 L 12.84 99.84 L 12.94 103.69 L 13.16 107.54 L 13.50 111.12 L 14.09 114.93 L 14.81 118.72 L 15.61 122.23 L 16.69 125.93 L 17.89 129.59 L 19.14 132.97 L 20.69 136.50 L 22.35 139.97 L 24.02 143.16 L 26.01 146.46 L 28.12 149.69 L 30.18 152.63 L 32.58 155.65 L 35.08 158.58 L 37.51 161.24 L 40.28 163.92 L 43.14 166.50 L 45.89 168.82 L 48.98 171.13 L 52.15 173.32 L 55.18 175.27 L 58.54 177.15 L 61.96 178.92 L 65.22 180.46 L 68.79 181.90 L 72.42 183.21 L 75.84 184.32 L 79.57 185.28 L 83.33 186.12 L 86.87 186.78 L 90.70 187.26 L 94.53 187.60 L 98.13 187.80 L 101.98 187.79 L 105.83 187.64 L 109.42 187.37 L 113.24 186.86 L 117.04 186.22 L 120.57 185.49 L 124.29 184.50 L 127.98 183.37 L 131.38 182.20 L 134.95 180.73 L 138.46 179.15 L 141.68 177.55 L 145.03 175.64 L 148.31 173.61 L 151.31 171.62 L 154.38 169.29 L 157.37 166.87 L 160.09 164.50 L 162.84 161.80 L 165.50 159.01 L 167.89 156.32 L 170.27 153.29 L 172.55 150.19 L 174.58 147.21 L 176.55 143.90 L 178.42 140.53 L 180.05 137.32 L 181.59 133.79 L 183.00 130.20 L 184.21 126.81 L 185.28 123.11 L 186.23 119.38 L 187.00 115.86 L 187.59 112.05 L 188.05 108.22 L 188.36 104.64 L 188.47 100.78 L 188.44 96.93 L 188.29 93.34 L 187.90 89.50 L 187.38 85.68 L 186.77 82.13 L 185.90 78.38 L 184.90 74.66 L 183.85 71.22 L 182.50 67.60 L 181.04 64.04 L 179.55 60.76 L 177.76 57.35 L 175.85 54.00 L 173.96 50.94 L 171.75 47.78 L 169.44 44.70 L 167.17 41.90 L 164.58 39.05 L 161.89 36.29 L 159.29 33.80 L 156.35 31.30 L 153.34 28.91 L 150.44 26.77 L 147.21 24.66 L 143.92 22.67 L 140.77 20.91 L 137.30 19.24 L 133.78 17.68 L 130.44 16.33 L 126.79 15.11 L 123.09 14.01 L 119.61 13.10 L 115.83 12.35 L 112.03 11.72 L 108.46 11.26 L 108.28 10.38" 
          fill="none" 
          stroke="currentColor" 
          stroke-width="0.5"/>
</svg>