<?xml version="1.0" encoding="UTF-8" standalone="no"?>
<svg width="100%" height="100%" viewBox="0 0 200 200" preserveAspectRatio="xMidYMid meet" xmlns="http://www.w3.org/2000/svg">
    <path d="M 10.00 100.00 L 10.40 100.45 L 10.81 100.89 L 11.21 101.32 L 11.61 101.75 L 12.01 102.18 L 12.41 102.61 L 12.81 103.03 L 13.21 103.45 L 13.61 103.87 L 14.01 104.28 L 14.40 104.69 L 14.80 105.09 L 15.19 105.50 L 15.59 105.89 L 15.98 106.29 L 16.37 106.68 L 16.76 107.07 L 17.15 107.45 L 17.54 107.83 L 17.93 108.21 L 18.32 108.59 L 18.71 108.96 L 19.09 109.33 L 19.48 109.69 L 19.86 110.05 L 20.25 110.41 L 20.63 110.76 L 21.01 111.12 L 21.39 111.47 L 21.77 111.81 L 22.15 112.15 L 22.53 112.49 L 22.91 112.83 L 23.29 113.16 L 23.66 113.49 L 24.04 113.81 L 24.41 114.14 L 24.79 114.45 L 25.16 114.77 L 25.53 115.08 L 25.90 115.39 L 26.27 115.70 L 26.64 116.00 L 27.01 116.30 L 27.38 116.60 L 27.75 116.90 L 28.11 117.19 L 28.48 117.47 L 28.84 117.76 L 29.21 118.04 L 29.57 118.32 L 29.93 118.60 L 30.29 118.87 L 30.65 119.14 L 31.37 119.67 L 32.09 120.19 L 32.80 120.69 L 33.51 121.19 L 34.21 121.67 L 34.91 122.14 L 35.61 122.60 L 36.30 123.05 L 36.99 123.48 L 37.68 123.91 L 38.36 124.32 L 39.04 124.72 L 39.72 125.12 L 40.39 125.50 L 41.06 125.86 L 41.73 126.22 L 42.39 126.57 L 43.05 126.90 L 43.70 127.23 L 44.36 127.54 L 45.00 127.84 L 45.65 128.14 L 46.29 128.42 L 46.93 128.69 L 47.56 128.96 L 48.19 129.21 L 48.82 129.45 L 49.44 129.69 L 50.06 129.91 L 50.67 130.12 L 51.29 130.32 L 51.90 130.52 L 52.50 130.69 L 53.10 130.87 L 53.70 131.04 L 54.29 131.19 L 54.89 131.34 L 55.47 131.47 L 56.05 131.59 L 56.63 131.72 L 57.21 131.82 L 57.78 131.92 L 58.35 132.01 L 58.91 132.10 L 59.47 132.17 L 60.03 132.23 L 60.59 132.29 L 61.13 132.33 L 61.68 132.38 L 62.22 132.41 L 62.76 132.42 L 63.30 132.44 L 63.83 132.45 L 64.35 132.44 L 64.88 132.44 L 65.40 132.42 L 65.91 132.39 L 66.42 132.36 L 66.93 132.32 L 67.43 132.27 L 67.94 132.21 L 68.43 132.15 L 68.92 132.07 L 69.41 132.00 L 69.90 131.91 L 70.38 131.82 L 70.86 131.72 L 71.33 131.61 L 71.80 131.50 L 72.26 131.38 L 72.73 131.25 L 73.18 131.11 L 73.64 130.98 L 74.09 130.83 L 74.53 130.67 L 74.97 130.52 L 75.41 130.35 L 75.84 130.17 L 76.28 130.00 L 76.70 129.81 L 77.12 129.62 L 77.54 129.43 L 77.96 129.22 L 78.37 129.01 L 78.77 128.80 L 79.18 128.58 L 79.57 128.35 L 79.97 128.12 L 80.36 127.89 L 80.74 127.64 L 81.13 127.40 L 81.50 127.15 L 81.88 126.89 L 82.25 126.63 L 82.61 126.36 L 82.97 126.09 L 83.33 125.82 L 83.69 125.53 L 84.03 125.25 L 84.38 124.96 L 84.72 124.66 L 85.06 124.36 L 85.39 124.06 L 85.72 123.75 L 86.04 123.44 L 86.69 122.81 L 87.31 122.16 L 87.91 121.49 L 88.50 120.81 L 89.07 120.12 L 89.62 119.40 L 90.16 118.69 L 90.68 117.95 L 91.17 117.20 L 91.67 116.45 L 92.14 115.69 L 92.58 114.91 L 93.02 114.13 L 93.44 113.33 L 93.83 112.53 L 94.22 111.72 L 94.58 110.91 L 94.92 110.09 L 95.26 109.26 L 95.57 108.43 L 95.85 107.60 L 96.14 106.76 L 96.40 105.92 L 96.63 105.07 L 96.86 104.23 L 97.06 103.38 L 97.24 102.54 L 97.42 101.69 L 97.57 100.84 L 97.69 100.00 L 98.27 101.80 L 98.85 103.59 L 98.85 104.41 L 98.82 105.24 L 98.77 106.06 L 98.72 106.89 L 98.64 107.72 L 98.53 108.56 L 98.43 109.39 L 98.30 110.23 L 98.14 111.06 L 97.99 111.90 L 97.81 112.73 L 97.60 113.56 L 97.39 114.39 L 97.16 115.21 L 96.89 116.03 L 96.63 116.85 L 96.35 117.66 L 96.03 118.47 L 95.72 119.27 L 95.38 120.07 L 95.01 120.85 L 94.64 121.63 L 94.25 122.40 L 93.83 123.16 L 93.41 123.92 L 92.96 124.66 L 92.49 125.38 L 92.01 126.11 L 91.51 126.82 L 90.98 127.51 L 90.45 128.19 L 89.90 128.86 L 89.32 129.51 L 88.73 130.16 L 88.12 130.78 L 87.48 131.38 L 86.85 131.98 L 86.18 132.55 L 85.49 133.10 L 84.80 133.65 L 84.08 134.17 L 83.33 134.66 L 82.96 134.90 L 82.58 135.14 L 82.19 135.37 L 81.80 135.60 L 81.41 135.82 L 81.00 136.03 L 80.60 136.24 L 80.19 136.45 L 79.78 136.65 L 79.36 136.84 L 78.94 137.03 L 78.51 137.21 L 78.08 137.39 L 77.65 137.56 L 77.20 137.72 L 76.76 137.88 L 76.31 138.03 L 75.85 138.17 L 75.39 138.31 L 74.93 138.45 L 74.46 138.57 L 73.99 138.69 L 73.51 138.81 L 73.02 138.91 L 72.54 139.01 L 72.04 139.10 L 71.54 139.18 L 71.04 139.27 L 70.54 139.34 L 70.02 139.40 L 69.51 139.46 L 68.99 139.51 L 68.46 139.55 L 67.93 139.59 L 67.40 139.61 L 66.85 139.63 L 66.31 139.64 L 65.76 139.65 L 65.21 139.64 L 64.65 139.63 L 64.09 139.61 L 63.51 139.58 L 62.94 139.55 L 62.37 139.51 L 61.78 139.45 L 61.19 139.39 L 60.60 139.33 L 60.00 139.24 L 59.40 139.16 L 58.80 139.07 L 58.18 138.96 L 57.57 138.85 L 56.95 138.73 L 56.32 138.60 L 55.69 138.46 L 55.05 138.32 L 54.41 138.15 L 53.77 137.99 L 53.12 137.82 L 52.46 137.63 L 51.80 137.44 L 51.14 137.23 L 50.47 137.01 L 49.79 136.80 L 49.11 136.56 L 48.43 136.32 L 47.74 136.07 L 47.05 135.81 L 46.34 135.53 L 45.64 135.25 L 44.93 134.96 L 44.22 134.65 L 43.50 134.34 L 42.78 134.02 L 42.05 133.68 L 41.32 133.34 L 40.58 132.98 L 39.83 132.61 L 38.34 131.85 L 37.58 131.45 L 36.82 131.05 L 36.05 130.63 L 35.27 130.19 L 34.89 129.97 L 34.50 129.75 L 34.10 129.52 L 33.71 129.29 L 33.32 129.06 L 32.93 128.83 L 32.53 128.59 L 32.13 128.35 L 31.74 128.11 L 31.34 127.86 L 30.94 127.61 L 30.53 127.36 L 30.13 127.11 L 29.73 126.85 L 29.32 126.59 L 28.91 126.33 L 28.51 126.06 L 28.10 125.79 L 27.69 125.52 L 27.28 125.24 L 26.86 124.96 L 26.45 124.69 L 26.03 124.40 L 25.62 124.11 L 25.20 123.82 L 24.78 123.53 L 24.36 123.23 L 23.94 122.94 L 23.51 122.63 L 23.09 122.33 L 22.66 122.02 L 22.24 121.71 L 21.81 121.39 L 21.38 121.08 L 20.95 120.76 L 20.52 120.43 L 20.09 120.11 L 19.65 119.78 L 19.22 119.44 L 18.78 119.11 L 18.34 118.77 L 17.90 118.42 L 17.46 118.08 L 17.02 117.73 L 16.58 117.37 L 16.13 117.02 L 15.69 116.66 L 15.24 116.30 L 16.15 118.13 L 17.06 119.97 L 17.97 121.80 L 18.89 123.63 L 19.80 125.47 L 20.71 127.30 L 21.62 129.13 L 22.53 130.97 L 23.01 131.25 L 23.48 131.52 L 23.95 131.80 L 24.42 132.07 L 24.89 132.34 L 25.36 132.60 L 25.82 132.86 L 26.29 133.12 L 26.75 133.38 L 27.21 133.63 L 27.67 133.88 L 28.12 134.13 L 28.58 134.38 L 29.03 134.62 L 29.48 134.86 L 29.94 135.09 L 30.39 135.33 L 30.83 135.56 L 31.28 135.79 L 31.72 136.01 L 32.16 136.24 L 32.61 136.46 L 33.05 136.68 L 33.48 136.89 L 33.92 137.10 L 34.35 137.31 L 34.79 137.52 L 35.22 137.72 L 35.65 137.93 L 36.08 138.12 L 36.50 138.32 L 36.93 138.52 L 37.35 138.71 L 37.77 138.89 L 38.19 139.08 L 38.61 139.26 L 39.45 139.63 L 40.27 139.98 L 41.09 140.31 L 41.91 140.64 L 42.72 140.96 L 43.51 141.26 L 44.31 141.57 L 45.10 141.86 L 45.88 142.13 L 47.43 142.66 L 48.19 142.91 L 48.95 143.15 L 49.70 143.38 L 50.45 143.60 L 51.19 143.82 L 51.92 144.02 L 52.65 144.21 L 53.37 144.40 L 54.08 144.58 L 54.79 144.74 L 55.50 144.90 L 56.19 145.05 L 56.88 145.18 L 57.57 145.32 L 58.25 145.44 L 58.92 145.55 L 59.59 145.66 L 60.25 145.76 L 60.90 145.85 L 61.56 145.93 L 62.20 146.00 L 62.83 146.07 L 63.47 146.13 L 64.09 146.17 L 64.71 146.21 L 65.33 146.25 L 65.94 146.27 L 66.54 146.29 L 67.14 146.30 L 67.73 146.30 L 68.31 146.29 L 68.89 146.28 L 69.47 146.26 L 70.03 146.23 L 70.60 146.20 L 71.15 146.16 L 71.70 146.11 L 72.25 146.06 L 72.79 145.99 L 73.32 145.92 L 73.85 145.85 L 74.38 145.76 L 74.89 145.67 L 75.41 145.58 L 75.91 145.47 L 76.41 145.36 L 76.91 145.25 L 77.40 145.13 L 77.88 144.99 L 78.36 144.86 L 78.83 144.72 L 79.30 144.57 L 79.76 144.42 L 80.22 144.26 L 80.67 144.09 L 81.12 143.93 L 81.56 143.75 L 81.99 143.57 L 82.42 143.38 L 82.85 143.19 L 83.26 142.99 L 83.68 142.79 L 84.09 142.58 L 84.49 142.36 L 84.89 142.14 L 85.28 141.92 L 85.67 141.69 L 86.44 141.22 L 87.18 140.73 L 87.88 140.21 L 88.59 139.69 L 89.27 139.14 L 89.91 138.57 L 90.56 138.00 L 91.17 137.40 L 91.76 136.78 L 92.34 136.16 L 92.90 135.52 L 93.42 134.86 L 93.95 134.20 L 94.44 133.52 L 94.91 132.82 L 95.38 132.12 L 95.82 131.40 L 96.23 130.67 L 96.63 129.94 L 97.02 129.20 L 97.37 128.44 L 97.72 127.68 L 98.05 126.91 L 98.34 126.13 L 98.64 125.35 L 98.91 124.57 L 99.15 123.77 L 99.40 122.97 L 99.61 122.17 L 99.80 121.36 L 99.99 120.55 L 100.16 119.74 L 100.29 118.92 L 100.43 118.11 L 100.54 117.29 L 100.63 116.47 L 100.71 115.65 L 100.77 114.84 L 100.81 114.02 L 100.84 113.21 L 100.85 112.40 L 100.83 111.59 L 100.82 110.78 L 100.78 109.98 L 100.72 109.19 L 100.65 108.39 L 100.57 107.61 L 100.45 106.83 L 101.45 108.25 L 102.44 109.66 L 102.65 110.38 L 102.84 111.12 L 103.00 111.87 L 103.17 112.61 L 103.32 113.37 L 103.44 114.14 L 103.56 114.90 L 103.66 115.67 L 103.74 116.45 L 103.82 117.24 L 103.87 118.02 L 103.90 118.81 L 103.93 119.60 L 103.94 120.40 L 103.92 121.19 L 103.90 121.99 L 103.85 122.78 L 103.78 123.58 L 103.71 124.38 L 103.61 125.17 L 103.49 125.96 L 103.36 126.76 L 103.21 127.55 L 103.04 128.33 L 102.86 129.11 L 102.65 129.89 L 102.42 130.66 L 102.19 131.43 L 101.92 132.20 L 101.63 132.95 L 101.34 133.71 L 101.02 134.45 L 100.67 135.18 L 100.32 135.91 L 99.94 136.63 L 99.53 137.34 L 99.12 138.04 L 98.68 138.73 L 98.20 139.40 L 97.73 140.08 L 97.23 140.73 L 96.69 141.37 L 96.15 142.01 L 95.58 142.63 L 94.98 143.22 L 94.38 143.82 L 93.74 144.39 L 93.07 144.95 L 92.40 145.50 L 91.70 146.03 L 90.96 146.53 L 90.59 146.78 L 90.21 147.02 L 89.82 147.26 L 89.44 147.50 L 89.04 147.73 L 88.64 147.95 L 88.23 148.18 L 87.82 148.39 L 87.40 148.60 L 86.97 148.81 L 86.54 149.02 L 86.10 149.21 L 85.66 149.40 L 85.21 149.59 L 84.75 149.77 L 84.29 149.95 L 83.83 150.12 L 83.35 150.28 L 82.87 150.44 L 82.39 150.60 L 81.89 150.74 L 81.39 150.89 L 80.89 151.03 L 80.37 151.16 L 79.86 151.29 L 79.33 151.40 L 78.80 151.52 L 78.27 151.63 L 77.72 151.73 L 77.17 151.82 L 76.62 151.91 L 76.05 152.00 L 75.48 152.07 L 74.91 152.14 L 74.32 152.21 L 73.73 152.26 L 73.14 152.31 L 72.54 152.36 L 71.92 152.39 L 71.31 152.42 L 70.69 152.45 L 70.06 152.46 L 69.42 152.47 L 68.78 152.47 L 68.13 152.47 L 67.48 152.46 L 66.81 152.44 L 66.14 152.41 L 65.47 152.38 L 64.78 152.33 L 64.09 152.28 L 63.39 152.23 L 62.69 152.16 L 61.97 152.09 L 61.26 152.01 L 60.53 151.92 L 59.80 151.82 L 59.06 151.73 L 58.31 151.61 L 57.56 151.49 L 56.80 151.37 L 56.03 151.23 L 55.25 151.08 L 52.88 150.60 L 52.08 150.42 L 51.27 150.24 L 50.45 150.04 L 49.62 149.84 L 48.79 149.62 L 47.95 149.40 L 47.10 149.17 L 46.24 148.93 L 45.38 148.68 L 44.94 148.55 L 44.51 148.42 L 44.07 148.29 L 43.63 148.15 L 43.19 148.02 L 42.74 147.88 L 42.30 147.74 L 41.85 147.59 L 41.40 147.44 L 40.95 147.30 L 40.49 147.15 L 40.04 146.99 L 39.58 146.84 L 39.12 146.68 L 38.66 146.52 L 38.20 146.35 L 37.73 146.19 L 37.27 146.02 L 36.80 145.85 L 36.33 145.68 L 35.85 145.50 L 35.38 145.33 L 34.90 145.14 L 34.43 144.96 L 33.95 144.78 L 33.46 144.59 L 32.98 144.40 L 32.49 144.21 L 32.01 144.01 L 31.51 143.81 L 32.80 145.18 L 34.09 146.54 L 35.38 147.90 L 36.67 149.26 L 37.96 150.63 L 39.25 151.99 L 40.54 153.35 L 41.83 154.71 L 42.33 154.83 L 42.82 154.95 L 43.30 155.06 L 43.79 155.17 L 44.28 155.28 L 44.76 155.39 L 45.24 155.50 L 45.71 155.60 L 46.19 155.70 L 46.66 155.80 L 47.13 155.90 L 47.60 156.00 L 48.07 156.09 L 48.53 156.18 L 48.99 156.27 L 49.45 156.36 L 49.91 156.44 L 50.37 156.53 L 50.82 156.61 L 51.27 156.69 L 51.72 156.76 L 52.17 156.84 L 52.62 156.91 L 53.06 156.98 L 53.94 157.13 L 54.81 157.25 L 55.67 157.37 L 56.53 157.49 L 57.38 157.60 L 58.21 157.69 L 59.05 157.79 L 59.87 157.87 L 60.68 157.95 L 61.49 158.02 L 63.07 158.13 L 63.85 158.18 L 64.63 158.23 L 65.39 158.26 L 66.15 158.29 L 66.90 158.31 L 67.63 158.32 L 68.37 158.33 L 69.10 158.33 L 69.81 158.32 L 70.52 158.31 L 71.23 158.29 L 71.92 158.26 L 72.61 158.23 L 73.29 158.19 L 73.95 158.14 L 74.62 158.09 L 75.28 158.04 L 75.92 157.97 L 76.57 157.90 L 77.20 157.83 L 77.82 157.74 L 78.44 157.66 L 79.05 157.56 L 79.65 157.46 L 80.25 157.36 L 80.84 157.25 L 81.42 157.13 L 82.00 157.01 L 82.57 156.88 L 83.12 156.75 L 83.68 156.61 L 84.23 156.47 L 84.76 156.32 L 85.30 156.16 L 85.82 156.01 L 86.33 155.84 L 86.85 155.67 L 87.35 155.50 L 87.84 155.32 L 88.34 155.13 L 88.82 154.95 L 89.29 154.75 L 89.77 154.55 L 90.23 154.35 L 90.68 154.14 L 91.13 153.93 L 91.57 153.72 L 92.01 153.49 L 92.44 153.27 L 92.86 153.04 L 93.27 152.80 L 93.69 152.57 L 94.09 152.33 L 94.48 152.08 L 94.87 151.83 L 95.26 151.58 L 95.63 151.32 L 96.00 151.06 L 96.37 150.79 L 96.72 150.52 L 97.43 149.98 L 98.10 149.42 L 98.74 148.83 L 99.38 148.25 L 99.97 147.64 L 100.54 147.02 L 101.10 146.40 L 101.63 145.76 L 102.12 145.11 L 102.61 144.45 L 103.07 143.78 L 103.50 143.10 L 103.92 142.42 L 104.32 141.72 L 104.68 141.01 L 105.04 140.30 L 105.36 139.58 L 105.66 138.85 L 105.96 138.12 L 106.22 137.38 L 106.46 136.63 L 106.69 135.89 L 106.90 135.13 L 107.07 134.37 L 107.25 133.61 L 107.39 132.85 L 107.51 132.08 L 107.63 131.31 L 107.72 130.54 L 107.79 129.77 L 107.85 129.00 L 107.89 128.22 L 107.90 127.45 L 107.91 126.68 L 107.90 125.91 L 107.86 125.14 L 107.82 124.37 L 107.75 123.60 L 107.67 122.84 L 107.58 122.08 L 107.47 121.32 L 107.33 120.58 L 107.20 119.83 L 107.04 119.09 L 106.86 118.35 L 106.69 117.62 L 106.49 116.90 L 106.27 116.19 L 106.05 115.47 L 105.81 114.77 L 105.55 114.09 L 105.29 113.40 L 105.01 112.72 L 104.71 112.07 L 105.96 113.04 L 107.20 114.02 L 107.57 114.61 L 107.93 115.21 L 108.27 115.83 L 108.61 116.45 L 108.93 117.09 L 109.23 117.74 L 109.54 118.39 L 109.82 119.05 L 110.09 119.72 L 110.36 120.40 L 110.60 121.08 L 110.83 121.78 L 111.06 122.47 L 111.27 123.18 L 111.45 123.89 L 111.64 124.61 L 111.80 125.33 L 111.94 126.06 L 112.08 126.79 L 112.20 127.52 L 112.29 128.26 L 112.38 129.00 L 112.45 129.74 L 112.49 130.49 L 112.53 131.23 L 112.55 131.98 L 112.54 132.73 L 112.53 133.48 L 112.49 134.23 L 112.43 134.98 L 112.36 135.73 L 112.27 136.48 L 112.14 137.23 L 112.02 137.97 L 111.86 138.72 L 111.68 139.46 L 111.50 140.19 L 111.28 140.93 L 111.03 141.66 L 110.79 142.38 L 110.51 143.10 L 110.19 143.82 L 109.88 144.53 L 109.53 145.23 L 109.15 145.93 L 108.77 146.62 L 108.36 147.31 L 107.90 147.98 L 107.45 148.65 L 106.96 149.31 L 106.44 149.96 L 105.91 150.61 L 105.35 151.24 L 104.75 151.86 L 104.14 152.47 L 103.50 153.07 L 102.82 153.66 L 102.48 153.95 L 102.13 154.24 L 101.77 154.52 L 101.41 154.80 L 101.04 155.08 L 100.66 155.36 L 100.28 155.63 L 99.89 155.90 L 99.49 156.16 L 99.08 156.43 L 98.67 156.69 L 98.25 156.94 L 97.82 157.19 L 97.39 157.44 L 96.95 157.68 L 96.50 157.93 L 96.05 158.16 L 95.58 158.40 L 95.11 158.63 L 94.64 158.85 L 94.15 159.07 L 93.66 159.29 L 93.16 159.51 L 92.65 159.71 L 92.14 159.92 L 91.62 160.12 L 91.08 160.32 L 90.55 160.51 L 90.01 160.70 L 89.45 160.89 L 88.89 161.07 L 88.32 161.24 L 87.74 161.41 L 87.16 161.58 L 86.57 161.74 L 85.97 161.90 L 85.36 162.05 L 84.75 162.20 L 84.12 162.34 L 83.49 162.48 L 82.85 162.61 L 82.20 162.74 L 81.55 162.86 L 80.88 162.98 L 80.21 163.09 L 79.53 163.20 L 78.84 163.30 L 78.14 163.40 L 77.44 163.49 L 76.72 163.58 L 75.99 163.66 L 75.27 163.73 L 74.53 163.80 L 73.77 163.87 L 73.02 163.93 L 72.25 163.98 L 71.48 164.02 L 69.90 164.10 L 69.10 164.13 L 68.29 164.16 L 67.47 164.17 L 66.64 164.18 L 65.81 164.19 L 64.96 164.19 L 64.11 164.18 L 63.25 164.17 L 62.37 164.15 L 61.49 164.12 L 61.04 164.11 L 60.60 164.09 L 60.15 164.07 L 59.70 164.05 L 59.24 164.03 L 58.79 164.01 L 58.33 163.98 L 57.87 163.95 L 57.40 163.93 L 56.94 163.90 L 56.47 163.86 L 56.00 163.83 L 55.53 163.80 L 55.06 163.76 L 54.58 163.72 L 54.10 163.68 L 53.62 163.64 L 53.13 163.59 L 54.63 164.45 L 56.12 165.31 L 57.61 166.16 L 59.11 167.02 L 60.60 167.87 L 62.09 168.73 L 63.58 169.59 L 65.08 170.44 L 65.54 170.42 L 66.01 170.39 L 66.47 170.36 L 66.93 170.33 L 67.38 170.30 L 67.83 170.27 L 68.74 170.20 L 69.63 170.13 L 70.50 170.05 L 71.38 169.97 L 72.24 169.88 L 73.08 169.78 L 73.93 169.69 L 74.76 169.59 L 75.58 169.48 L 76.39 169.37 L 77.20 169.25 L 77.99 169.12 L 78.78 169.00 L 80.31 168.73 L 81.08 168.60 L 81.82 168.45 L 82.56 168.30 L 83.29 168.15 L 84.01 167.99 L 84.72 167.83 L 85.43 167.67 L 86.12 167.50 L 86.80 167.32 L 87.48 167.14 L 88.15 166.96 L 88.80 166.77 L 89.46 166.59 L 90.10 166.39 L 90.73 166.19 L 91.36 165.99 L 91.97 165.79 L 92.57 165.58 L 93.18 165.37 L 93.77 165.15 L 94.35 164.93 L 94.92 164.71 L 95.49 164.48 L 96.04 164.25 L 96.59 164.02 L 97.14 163.78 L 97.66 163.54 L 98.19 163.30 L 98.71 163.05 L 99.21 162.80 L 99.72 162.55 L 100.21 162.29 L 100.69 162.03 L 101.17 161.77 L 101.64 161.50 L 102.10 161.23 L 102.56 160.96 L 103.00 160.69 L 103.44 160.41 L 103.87 160.13 L 104.29 159.85 L 104.71 159.57 L 105.12 159.28 L 105.52 158.99 L 105.91 158.69 L 106.30 158.40 L 106.68 158.10 L 107.05 157.80 L 107.41 157.50 L 107.77 157.20 L 108.12 156.89 L 108.46 156.58 L 108.80 156.27 L 109.13 155.95 L 109.78 155.32 L 110.39 154.68 L 110.95 154.03 L 111.52 153.38 L 112.05 152.71 L 112.54 152.04 L 113.03 151.36 L 113.48 150.68 L 113.90 149.99 L 114.31 149.30 L 114.68 148.60 L 115.02 147.89 L 115.36 147.19 L 115.67 146.48 L 115.94 145.76 L 116.21 145.04 L 116.44 144.32 L 116.65 143.60 L 116.85 142.87 L 117.02 142.14 L 117.16 141.41 L 117.29 140.68 L 117.40 139.95 L 117.48 139.22 L 117.55 138.49 L 117.60 137.76 L 117.62 137.03 L 117.64 136.30 L 117.63 135.57 L 117.59 134.84 L 117.55 134.12 L 117.49 133.39 L 117.40 132.68 L 117.31 131.96 L 117.19 131.24 L 117.05 130.54 L 116.91 129.83 L 116.75 129.13 L 116.56 128.43 L 116.38 127.74 L 116.17 127.05 L 115.94 126.38 L 115.71 125.70 L 115.46 125.03 L 115.19 124.38 L 114.92 123.72 L 114.62 123.07 L 114.32 122.44 L 114.01 121.81 L 113.68 121.19 L 113.34 120.58 L 112.99 119.97 L 112.63 119.38 L 112.26 118.80 L 111.88 118.22 L 111.49 117.66 L 111.09 117.12 L 110.69 116.57 L 110.27 116.04 L 109.84 115.53 L 111.19 116.07 L 112.54 116.60 L 113.02 117.03 L 113.49 117.48 L 113.94 117.95 L 114.40 118.41 L 114.84 118.90 L 115.28 119.40 L 115.71 119.90 L 116.13 120.42 L 116.54 120.95 L 116.95 121.48 L 117.34 122.03 L 117.72 122.60 L 118.09 123.16 L 118.45 123.74 L 118.80 124.33 L 119.14 124.92 L 119.47 125.53 L 119.78 126.14 L 120.09 126.76 L 120.38 127.39 L 120.65 128.02 L 120.92 128.66 L 121.16 129.31 L 121.39 129.97 L 121.62 130.63 L 121.82 131.30 L 122.00 131.97 L 122.18 132.65 L 122.34 133.33 L 122.47 134.02 L 122.61 134.71 L 122.71 135.40 L 122.79 136.10 L 122.87 136.81 L 122.93 137.51 L 122.95 138.22 L 122.98 138.93 L 122.97 139.65 L 122.94 140.37 L 122.90 141.08 L 122.84 141.80 L 122.74 142.52 L 122.65 143.25 L 122.52 143.97 L 122.36 144.69 L 122.20 145.41 L 122.00 146.14 L 121.78 146.86 L 121.55 147.58 L 121.28 148.30 L 120.98 149.02 L 120.68 149.74 L 120.34 150.45 L 119.97 151.17 L 119.59 151.88 L 119.18 152.59 L 118.73 153.29 L 118.27 153.99 L 117.78 154.69 L 117.25 155.38 L 116.71 156.07 L 116.14 156.76 L 115.52 157.44 L 115.21 157.77 L 114.89 158.11 L 114.56 158.45 L 114.23 158.78 L 113.88 159.11 L 113.53 159.44 L 113.18 159.78 L 112.81 160.10 L 112.44 160.43 L 112.06 160.76 L 111.67 161.08 L 111.28 161.40 L 110.88 161.72 L 110.47 162.04 L 110.05 162.35 L 109.62 162.67 L 109.19 162.98 L 108.74 163.29 L 108.30 163.60 L 107.84 163.91 L 107.37 164.21 L 106.90 164.52 L 106.42 164.82 L 105.93 165.12 L 105.43 165.41 L 104.92 165.71 L 104.41 166.00 L 103.89 166.29 L 103.35 166.58 L 102.81 166.86 L 102.27 167.15 L 101.71 167.43 L 101.14 167.71 L 100.57 167.98 L 99.98 168.26 L 99.39 168.53 L 98.79 168.80 L 98.18 169.06 L 97.56 169.32 L 96.94 169.58 L 96.30 169.84 L 95.65 170.10 L 95.00 170.35 L 94.34 170.60 L 93.66 170.84 L 92.98 171.09 L 92.29 171.33 L 91.59 171.56 L 90.88 171.80 L 90.16 172.03 L 89.43 172.26 L 87.95 172.71 L 87.19 172.93 L 86.43 173.14 L 85.65 173.36 L 84.86 173.56 L 84.07 173.77 L 83.26 173.97 L 82.44 174.17 L 81.62 174.37 L 80.79 174.56 L 79.94 174.75 L 79.09 174.93 L 78.23 175.12 L 77.35 175.29 L 78.88 175.66 L 80.42 176.02 L 81.96 176.39 L 83.50 176.75 L 85.03 177.12 L 86.57 177.48 L 88.11 177.85 L 89.65 178.21 L 90.46 177.93 L 91.26 177.64 L 92.04 177.34 L 92.82 177.05 L 93.59 176.75 L 94.34 176.45 L 95.09 176.15 L 95.83 175.85 L 96.55 175.54 L 97.28 175.24 L 98.68 174.62 L 100.05 173.99 L 100.72 173.68 L 101.38 173.36 L 102.04 173.04 L 102.67 172.72 L 103.31 172.40 L 103.94 172.08 L 104.55 171.75 L 105.16 171.42 L 105.75 171.09 L 106.34 170.76 L 106.92 170.43 L 107.49 170.10 L 108.05 169.77 L 108.60 169.43 L 109.15 169.09 L 109.68 168.76 L 110.21 168.42 L 110.73 168.08 L 111.23 167.73 L 111.73 167.39 L 112.23 167.05 L 112.71 166.70 L 113.18 166.36 L 113.65 166.01 L 114.11 165.66 L 114.56 165.31 L 115.00 164.96 L 115.43 164.61 L 115.86 164.26 L 116.28 163.90 L 116.68 163.55 L 117.09 163.19 L 117.48 162.84 L 117.87 162.48 L 118.25 162.12 L 118.62 161.77 L 118.98 161.41 L 119.33 161.05 L 119.68 160.69 L 120.02 160.33 L 120.35 159.96 L 120.68 159.60 L 120.99 159.24 L 121.30 158.88 L 121.61 158.51 L 121.90 158.15 L 122.19 157.78 L 122.47 157.42 L 122.74 157.05 L 123.01 156.69 L 123.27 156.32 L 123.52 155.96 L 124.01 155.22 L 124.47 154.49 L 124.89 153.75 L 125.30 153.02 L 125.68 152.29 L 126.01 151.55 L 126.35 150.82 L 126.65 150.08 L 126.91 149.35 L 127.17 148.62 L 127.40 147.89 L 127.59 147.16 L 127.78 146.43 L 127.93 145.70 L 128.05 144.98 L 128.17 144.26 L 128.26 143.54 L 128.32 142.83 L 128.37 142.11 L 128.40 141.40 L 128.39 140.70 L 128.39 139.99 L 128.35 139.30 L 128.29 138.60 L 128.23 137.91 L 128.14 137.23 L 128.02 136.55 L 127.90 135.87 L 127.76 135.20 L 127.59 134.54 L 127.42 133.88 L 127.22 133.23 L 127.00 132.59 L 126.79 131.94 L 126.55 131.31 L 126.29 130.69 L 126.02 130.07 L 125.74 129.45 L 125.44 128.86 L 125.13 128.26 L 124.81 127.67 L 124.47 127.09 L 124.13 126.52 L 123.77 125.96 L 123.40 125.41 L 123.02 124.86 L 122.63 124.32 L 122.23 123.80 L 121.82 123.28 L 121.40 122.78 L 120.97 122.29 L 120.53 121.80 L 120.09 121.33 L 119.63 120.87 L 119.17 120.42 L 118.70 119.98 L 118.22 119.55 L 117.75 119.13 L 117.26 118.73 L 116.76 118.34 L 116.27 117.96 L 115.76 117.59 L 115.26 117.25 L 117.92 117.49 L 118.45 117.76 L 118.97 118.04 L 119.50 118.34 L 120.02 118.64 L 120.53 118.97 L 121.04 119.31 L 121.56 119.65 L 122.06 120.01 L 122.55 120.38 L 123.05 120.76 L 123.54 121.15 L 124.01 121.57 L 124.49 121.98 L 124.96 122.40 L 125.41 122.85 L 125.87 123.29 L 126.31 123.75 L 126.74 124.23 L 127.17 124.70 L 127.58 125.20 L 127.98 125.70 L 128.38 126.21 L 128.77 126.73 L 129.14 127.26 L 129.50 127.80 L 129.85 128.34 L 130.19 128.91 L 130.52 129.47 L 130.83 130.04 L 131.12 130.63 L 131.41 131.22 L 131.69 131.82 L 131.93 132.43 L 132.18 133.04 L 132.41 133.66 L 132.61 134.29 L 132.82 134.93 L 132.99 135.57 L 133.15 136.22 L 133.30 136.88 L 133.42 137.54 L 133.52 138.22 L 133.62 138.89 L 133.69 139.57 L 133.73 140.27 L 133.78 140.96 L 133.79 141.66 L 133.77 142.37 L 133.75 143.08 L 133.70 143.79 L 133.62 144.52 L 133.53 145.24 L 133.42 145.97 L 133.27 146.71 L 133.12 147.44 L 132.93 148.19 L 132.71 148.93 L 132.49 149.68 L 132.23 150.44 L 131.93 151.20 L 131.63 151.96 L 131.30 152.72 L 130.92 153.49 L 130.55 154.26 L 130.14 155.03 L 129.68 155.80 L 129.45 156.19 L 129.21 156.58 L 128.96 156.97 L 128.71 157.36 L 128.45 157.75 L 128.18 158.14 L 127.91 158.53 L 127.63 158.92 L 127.34 159.31 L 127.04 159.71 L 126.74 160.10 L 126.43 160.49 L 126.11 160.88 L 125.78 161.28 L 125.45 161.67 L 125.11 162.07 L 124.76 162.46 L 124.40 162.85 L 124.04 163.25 L 123.66 163.64 L 123.28 164.04 L 122.89 164.43 L 122.50 164.83 L 122.09 165.22 L 121.68 165.62 L 121.26 166.01 L 120.82 166.41 L 120.39 166.80 L 119.94 167.20 L 119.48 167.59 L 119.03 167.99 L 118.55 168.38 L 118.07 168.78 L 117.59 169.17 L 117.09 169.57 L 116.58 169.96 L 116.07 170.36 L 115.55 170.75 L 115.01 171.14 L 114.47 171.54 L 113.92 171.93 L 113.36 172.32 L 112.80 172.72 L 112.22 173.11 L 111.63 173.50 L 111.04 173.89 L 110.44 174.28 L 109.82 174.67 L 109.20 175.06 L 107.92 175.84 L 106.61 176.62 L 105.94 177.01 L 105.26 177.39 L 104.58 177.78 L 103.87 178.16 L 103.17 178.55 L 102.45 178.93 L 101.72 179.32 L 103.17 179.25 L 104.62 179.17 L 106.07 179.10 L 107.52 179.03 L 108.97 178.96 L 110.42 178.89 L 111.88 178.81 L 113.33 178.74 L 113.97 178.28 L 114.60 177.82 L 115.22 177.35 L 115.84 176.89 L 116.44 176.43 L 117.03 175.97 L 118.20 175.06 L 118.76 174.60 L 119.32 174.14 L 119.87 173.69 L 120.41 173.23 L 120.94 172.78 L 121.46 172.32 L 121.97 171.87 L 122.48 171.42 L 122.98 170.97 L 123.46 170.52 L 123.94 170.07 L 124.41 169.62 L 124.87 169.17 L 125.33 168.72 L 125.77 168.28 L 126.20 167.83 L 126.64 167.39 L 127.06 166.94 L 127.46 166.50 L 127.87 166.06 L 128.27 165.62 L 128.65 165.18 L 129.03 164.74 L 129.41 164.31 L 129.76 163.87 L 130.12 163.44 L 130.47 163.00 L 130.81 162.57 L 131.14 162.14 L 131.47 161.71 L 131.78 161.28 L 132.10 160.85 L 132.40 160.42 L 132.69 160.00 L 132.98 159.57 L 133.26 159.15 L 133.53 158.73 L 133.80 158.30 L 134.05 157.89 L 134.30 157.47 L 134.55 157.05 L 134.78 156.63 L 135.01 156.22 L 135.24 155.81 L 135.45 155.39 L 135.66 154.98 L 136.07 154.16 L 136.44 153.35 L 136.77 152.55 L 137.10 151.75 L 137.39 150.95 L 137.64 150.17 L 137.90 149.38 L 138.11 148.61 L 138.29 147.84 L 138.47 147.07 L 138.62 146.32 L 138.73 145.57 L 138.84 144.82 L 138.92 144.09 L 138.96 143.36 L 139.01 142.63 L 139.02 141.92 L 139.00 141.21 L 138.99 140.51 L 138.94 139.82 L 138.86 139.14 L 138.79 138.45 L 138.68 137.78 L 138.55 137.13 L 138.42 136.47 L 138.26 135.82 L 138.08 135.19 L 137.89 134.56 L 137.68 133.94 L 137.45 133.33 L 137.22 132.72 L 136.96 132.13 L 136.69 131.55 L 136.41 130.97 L 136.11 130.40 L 135.79 129.85 L 135.48 129.29 L 135.14 128.75 L 134.78 128.23 L 134.43 127.71 L 134.05 127.20 L 133.66 126.70 L 133.27 126.21 L 132.87 125.73 L 132.44 125.26 L 132.02 124.80 L 131.59 124.35 L 131.14 123.92 L 130.69 123.49 L 130.23 123.07 L 129.76 122.67 L 129.29 122.27 L 128.81 121.89 L 128.32 121.52 L 127.82 121.15 L 127.32 120.80 L 126.82 120.47 L 126.31 120.14 L 125.79 119.83 L 125.27 119.53 L 124.75 119.23 L 124.22 118.96 L 123.69 118.70 L 123.16 118.44 L 122.63 118.20 L 122.09 117.97 L 121.55 117.75 L 121.02 117.55 L 120.48 117.36 L 122.89 116.90 L 123.43 117.01 L 123.97 117.13 L 124.51 117.28 L 125.05 117.42 L 125.59 117.58 L 126.13 117.76 L 126.67 117.94 L 127.21 118.14 L 127.74 118.36 L 128.28 118.58 L 128.81 118.81 L 129.34 119.06 L 129.86 119.32 L 130.39 119.59 L 130.90 119.88 L 131.42 120.16 L 131.93 120.47 L 132.93 121.11 L 133.43 121.45 L 133.91 121.81 L 134.40 122.17 L 134.87 122.54 L 135.33 122.93 L 135.79 123.32 L 136.24 123.73 L 136.68 124.15 L 137.12 124.58 L 137.54 125.02 L 137.95 125.47 L 138.36 125.93 L 138.75 126.40 L 139.13 126.89 L 139.51 127.38 L 139.87 127.89 L 140.21 128.41 L 140.55 128.93 L 140.87 129.47 L 141.17 130.02 L 141.47 130.57 L 141.75 131.14 L 142.01 131.72 L 142.27 132.30 L 142.51 132.90 L 142.72 133.52 L 142.94 134.13 L 143.13 134.76 L 143.29 135.40 L 143.45 136.04 L 143.59 136.70 L 143.70 137.37 L 143.81 138.05 L 143.90 138.73 L 143.95 139.44 L 144.00 140.14 L 144.03 140.85 L 144.02 141.58 L 144.02 142.31 L 143.98 143.06 L 143.91 143.81 L 143.84 144.57 L 143.74 145.34 L 143.60 146.13 L 143.46 146.91 L 143.29 147.71 L 143.09 148.53 L 142.88 149.34 L 142.63 150.16 L 142.35 151.00 L 142.21 151.42 L 142.06 151.84 L 141.90 152.27 L 141.74 152.69 L 141.57 153.12 L 141.39 153.56 L 141.21 153.99 L 141.03 154.42 L 140.83 154.86 L 140.63 155.30 L 140.42 155.74 L 140.20 156.19 L 139.98 156.63 L 139.75 157.08 L 139.51 157.53 L 139.27 157.98 L 139.01 158.44 L 138.75 158.89 L 138.49 159.35 L 138.22 159.81 L 137.93 160.28 L 137.65 160.74 L 137.35 161.21 L 137.05 161.68 L 136.74 162.15 L 136.42 162.62 L 136.10 163.09 L 135.77 163.57 L 135.43 164.05 L 135.07 164.53 L 134.72 165.01 L 134.36 165.50 L 133.98 165.98 L 133.61 166.47 L 133.22 166.96 L 132.82 167.46 L 132.42 167.95 L 132.01 168.45 L 131.59 168.94 L 131.16 169.44 L 130.73 169.95 L 130.28 170.45 L 129.83 170.96 L 129.37 171.46 L 128.89 171.97 L 128.42 172.48 L 127.93 173.00 L 127.43 173.51 L 126.93 174.03 L 125.89 175.07 L 125.37 175.59 L 124.83 176.12 L 124.28 176.64 L 126.81 175.78 L 129.34 174.92 L 131.87 174.06 L 134.40 173.20 L 135.30 172.05 L 135.74 171.49 L 136.17 170.92 L 136.59 170.36 L 136.99 169.80 L 137.40 169.24 L 137.80 168.69 L 138.18 168.14 L 138.56 167.59 L 138.93 167.04 L 139.30 166.50 L 139.66 165.96 L 140.00 165.43 L 140.34 164.90 L 140.68 164.36 L 141.00 163.84 L 141.32 163.31 L 141.63 162.79 L 141.94 162.27 L 142.23 161.76 L 142.52 161.24 L 142.80 160.73 L 143.08 160.22 L 143.35 159.72 L 143.61 159.22 L 143.86 158.72 L 144.11 158.22 L 144.35 157.73 L 144.58 157.24 L 144.80 156.75 L 145.02 156.27 L 145.23 155.79 L 145.44 155.31 L 145.64 154.83 L 145.83 154.36 L 146.02 153.89 L 146.20 153.42 L 146.37 152.96 L 146.53 152.50 L 146.69 152.04 L 146.84 151.58 L 146.99 151.13 L 147.14 150.68 L 147.27 150.23 L 147.40 149.79 L 147.52 149.35 L 147.63 148.91 L 147.86 148.04 L 148.05 147.18 L 148.21 146.34 L 148.36 145.50 L 148.49 144.68 L 148.57 143.88 L 148.66 143.07 L 148.72 142.28 L 148.75 141.52 L 148.77 140.75 L 148.77 139.99 L 148.73 139.26 L 148.70 138.52 L 148.63 137.81 L 148.54 137.11 L 148.45 136.41 L 148.33 135.72 L 148.19 135.06 L 148.04 134.39 L 147.87 133.75 L 147.68 133.12 L 147.48 132.49 L 147.26 131.87 L 147.02 131.28 L 146.78 130.68 L 146.51 130.10 L 146.23 129.54 L 145.95 128.98 L 145.64 128.44 L 145.32 127.91 L 144.99 127.39 L 144.65 126.88 L 144.29 126.39 L 143.92 125.90 L 143.55 125.43 L 143.15 124.97 L 142.76 124.51 L 142.35 124.08 L 141.92 123.65 L 141.50 123.23 L 141.06 122.83 L 140.61 122.44 L 140.16 122.06 L 139.70 121.69 L 139.23 121.34 L 138.76 120.99 L 138.27 120.66 L 137.78 120.34 L 137.29 120.03 L 136.79 119.73 L 136.28 119.45 L 135.77 119.17 L 135.25 118.90 L 134.73 118.66 L 134.21 118.41 L 133.68 118.18 L 133.15 117.97 L 132.62 117.76 L 132.09 117.57 L 131.55 117.40 L 131.02 117.22 L 130.48 117.06 L 129.94 116.92 L 129.40 116.78 L 128.86 116.66 L 128.32 116.56 L 127.79 116.45 L 127.25 116.37 L 126.72 116.30 L 126.18 116.23 L 125.65 116.18 L 125.13 116.14 L 127.15 115.13 L 127.65 115.09 L 128.17 115.08 L 128.69 115.07 L 129.20 115.07 L 129.73 115.09 L 130.25 115.12 L 130.78 115.16 L 131.31 115.21 L 131.84 115.27 L 132.38 115.34 L 132.91 115.42 L 133.45 115.52 L 133.98 115.62 L 134.52 115.74 L 135.05 115.87 L 135.58 116.01 L 136.12 116.16 L 136.65 116.33 L 137.18 116.50 L 137.70 116.69 L 138.23 116.89 L 138.75 117.10 L 139.27 117.32 L 139.78 117.56 L 140.29 117.80 L 140.79 118.06 L 141.29 118.34 L 141.79 118.61 L 142.28 118.91 L 142.76 119.22 L 143.24 119.53 L 143.71 119.87 L 144.17 120.21 L 144.63 120.56 L 145.08 120.93 L 145.52 121.32 L 145.95 121.71 L 146.38 122.11 L 146.79 122.54 L 147.20 122.96 L 147.59 123.41 L 147.97 123.87 L 148.35 124.33 L 148.72 124.81 L 149.06 125.31 L 149.41 125.81 L 149.74 126.33 L 150.05 126.87 L 150.35 127.41 L 150.65 127.97 L 150.92 128.55 L 151.18 129.13 L 151.43 129.73 L 151.66 130.35 L 151.89 130.97 L 152.09 131.61 L 152.27 132.27 L 152.45 132.92 L 152.61 133.60 L 152.74 134.30 L 152.87 135.00 L 152.97 135.72 L 153.05 136.46 L 153.13 137.20 L 153.18 137.96 L 153.20 138.74 L 153.22 139.52 L 153.22 140.33 L 153.18 141.15 L 153.14 141.97 L 153.07 142.81 L 152.97 143.68 L 152.87 144.54 L 152.74 145.43 L 152.57 146.34 L 152.49 146.79 L 152.40 147.25 L 152.30 147.71 L 152.20 148.18 L 152.09 148.65 L 151.97 149.12 L 151.86 149.60 L 151.73 150.08 L 151.60 150.56 L 151.46 151.05 L 151.32 151.54 L 151.16 152.04 L 151.01 152.53 L 150.85 153.04 L 150.67 153.54 L 150.50 154.05 L 150.32 154.56 L 150.13 155.08 L 149.94 155.60 L 149.74 156.13 L 149.52 156.65 L 149.31 157.18 L 149.09 157.72 L 148.86 158.26 L 148.63 158.80 L 148.39 159.35 L 148.14 159.90 L 147.89 160.45 L 147.63 161.01 L 147.36 161.57 L 147.08 162.13 L 146.80 162.70 L 146.51 163.27 L 146.22 163.85 L 145.91 164.43 L 145.60 165.01 L 145.28 165.60 L 144.96 166.19 L 144.62 166.78 L 144.29 167.38 L 143.94 167.98 L 143.58 168.59 L 145.61 167.19 L 147.64 165.80 L 149.67 164.40 L 151.70 163.01 L 151.97 162.38 L 152.22 161.76 L 152.46 161.15 L 152.70 160.54 L 152.94 159.94 L 153.16 159.34 L 153.38 158.74 L 153.60 158.15 L 153.80 157.56 L 154.00 156.98 L 154.20 156.40 L 154.38 155.82 L 154.57 155.25 L 154.74 154.69 L 154.91 154.13 L 155.08 153.57 L 155.24 153.02 L 155.39 152.47 L 155.53 151.93 L 155.67 151.39 L 155.81 150.85 L 155.94 150.32 L 156.06 149.80 L 156.17 149.28 L 156.29 148.76 L 156.40 148.24 L 156.49 147.74 L 156.59 147.23 L 156.68 146.73 L 156.76 146.23 L 156.84 145.74 L 156.91 145.25 L 156.98 144.77 L 157.04 144.29 L 157.10 143.81 L 157.15 143.35 L 157.20 142.88 L 157.24 142.41 L 157.28 141.96 L 157.31 141.50 L 157.34 141.05 L 157.36 140.61 L 157.40 139.72 L 157.40 138.85 L 157.39 138.01 L 157.37 137.17 L 157.32 136.36 L 157.25 135.57 L 157.18 134.77 L 157.08 134.01 L 156.95 133.26 L 156.83 132.52 L 156.68 131.80 L 156.51 131.10 L 156.33 130.40 L 156.14 129.72 L 155.92 129.07 L 155.71 128.42 L 155.47 127.79 L 155.21 127.18 L 154.95 126.57 L 154.67 125.99 L 154.37 125.42 L 154.07 124.86 L 153.75 124.32 L 153.42 123.80 L 153.09 123.28 L 152.74 122.78 L 152.37 122.30 L 152.00 121.82 L 151.62 121.36 L 151.22 120.93 L 150.82 120.49 L 150.41 120.07 L 149.99 119.68 L 149.57 119.28 L 149.13 118.91 L 148.68 118.55 L 148.23 118.20 L 147.78 117.86 L 147.31 117.55 L 146.84 117.23 L 146.36 116.93 L 145.88 116.65 L 145.39 116.38 L 144.90 116.12 L 144.40 115.88 L 143.90 115.64 L 143.39 115.42 L 142.88 115.21 L 142.36 115.01 L 141.85 114.83 L 141.33 114.66 L 140.81 114.49 L 140.28 114.35 L 139.76 114.21 L 139.23 114.08 L 138.70 113.97 L 138.17 113.87 L 137.65 113.78 L 137.12 113.70 L 136.59 113.63 L 136.06 113.57 L 135.53 113.52 L 135.01 113.49 L 134.49 113.46 L 133.96 113.45 L 133.45 113.45 L 132.93 113.46 L 132.42 113.47 L 131.91 113.51 L 131.40 113.54 L 130.90 113.59 L 130.40 113.66 L 129.91 113.72 L 129.42 113.80 L 128.94 113.89 L 130.49 112.49 L 130.93 112.34 L 131.39 112.21 L 131.85 112.08 L 132.32 111.96 L 132.79 111.85 L 133.27 111.76 L 133.76 111.66 L 134.24 111.58 L 134.74 111.52 L 135.23 111.45 L 135.73 111.40 L 136.24 111.36 L 136.75 111.33 L 137.26 111.31 L 137.77 111.30 L 138.28 111.30 L 138.80 111.31 L 139.32 111.34 L 139.84 111.36 L 140.36 111.41 L 140.88 111.47 L 141.40 111.53 L 141.92 111.61 L 142.44 111.70 L 142.96 111.80 L 143.48 111.91 L 143.99 112.04 L 144.51 112.17 L 145.02 112.32 L 145.53 112.49 L 146.05 112.66 L 146.55 112.84 L 147.05 113.05 L 147.55 113.25 L 148.05 113.48 L 148.54 113.72 L 149.03 113.97 L 149.51 114.23 L 149.99 114.52 L 150.46 114.80 L 150.93 115.11 L 151.39 115.43 L 151.84 115.76 L 152.29 116.11 L 152.73 116.48 L 153.16 116.84 L 153.59 117.23 L 154.01 117.65 L 154.42 118.06 L 154.82 118.49 L 155.21 118.95 L 155.60 119.41 L 155.97 119.89 L 156.33 120.39 L 156.69 120.89 L 157.03 121.42 L 157.36 121.97 L 157.69 122.51 L 158.00 123.09 L 158.29 123.68 L 158.59 124.28 L 158.86 124.90 L 159.12 125.55 L 159.38 126.20 L 159.61 126.87 L 159.83 127.56 L 160.05 128.26 L 160.24 128.98 L 160.42 129.73 L 160.59 130.48 L 160.74 131.25 L 160.87 132.05 L 161.00 132.85 L 161.10 133.68 L 161.18 134.54 L 161.26 135.39 L 161.32 136.27 L 161.34 137.18 L 161.36 137.63 L 161.37 138.10 L 161.37 138.56 L 161.37 139.03 L 161.36 139.51 L 161.35 139.99 L 161.34 140.47 L 161.32 140.96 L 161.29 141.46 L 161.26 141.95 L 161.23 142.46 L 161.19 142.97 L 161.15 143.48 L 161.10 144.00 L 161.04 144.52 L 160.99 145.05 L 160.92 145.58 L 160.85 146.12 L 160.78 146.66 L 160.70 147.21 L 160.62 147.76 L 160.53 148.32 L 160.43 148.88 L 160.33 149.45 L 160.23 150.02 L 160.12 150.60 L 160.00 151.18 L 159.88 151.77 L 159.76 152.36 L 159.62 152.96 L 159.49 153.56 L 159.34 154.16 L 159.19 154.78 L 159.04 155.39 L 158.88 156.02 L 158.71 156.65 L 160.17 154.91 L 161.64 153.17 L 163.10 151.43 L 164.56 149.69 L 164.64 149.07 L 164.72 148.45 L 164.78 147.85 L 164.85 147.24 L 164.91 146.64 L 164.96 146.06 L 165.01 145.47 L 165.05 144.88 L 165.09 144.31 L 165.13 143.74 L 165.16 143.17 L 165.18 142.62 L 165.21 142.06 L 165.22 141.51 L 165.23 140.97 L 165.24 140.43 L 165.25 139.90 L 165.25 139.37 L 165.24 138.85 L 165.24 138.33 L 165.22 137.82 L 165.21 137.32 L 165.19 136.82 L 165.16 136.32 L 165.13 135.83 L 165.10 135.34 L 165.06 134.87 L 165.02 134.39 L 164.98 133.92 L 164.93 133.46 L 164.88 132.99 L 164.82 132.54 L 164.76 132.09 L 164.70 131.64 L 164.63 131.20 L 164.56 130.77 L 164.41 129.91 L 164.24 129.07 L 164.06 128.27 L 163.87 127.46 L 163.66 126.68 L 163.43 125.93 L 163.21 125.18 L 162.96 124.46 L 162.70 123.77 L 162.43 123.08 L 162.15 122.41 L 161.86 121.77 L 161.56 121.13 L 161.24 120.52 L 160.91 119.93 L 160.58 119.35 L 160.24 118.79 L 159.88 118.25 L 159.52 117.72 L 159.15 117.21 L 158.76 116.72 L 158.38 116.24 L 157.98 115.78 L 157.57 115.34 L 157.16 114.91 L 156.74 114.50 L 156.31 114.11 L 155.88 113.72 L 155.43 113.35 L 154.98 113.01 L 154.53 112.67 L 154.08 112.35 L 153.61 112.05 L 153.14 111.75 L 152.67 111.47 L 152.19 111.22 L 151.71 110.96 L 151.22 110.73 L 150.73 110.51 L 150.24 110.30 L 149.74 110.10 L 149.24 109.93 L 148.74 109.76 L 148.23 109.60 L 147.72 109.47 L 147.22 109.33 L 146.71 109.21 L 145.69 109.02 L 145.17 108.94 L 144.66 108.88 L 144.15 108.82 L 143.64 108.77 L 143.13 108.74 L 142.62 108.72 L 142.11 108.70 L 141.60 108.71 L 141.09 108.72 L 140.59 108.74 L 140.09 108.77 L 139.59 108.81 L 139.09 108.86 L 138.60 108.93 L 138.11 109.00 L 137.62 109.08 L 137.14 109.18 L 136.66 109.27 L 136.19 109.38 L 135.73 109.51 L 135.26 109.63 L 134.80 109.77 L 134.35 109.92 L 133.90 110.07 L 133.46 110.23 L 133.03 110.40 L 132.60 110.58 L 132.18 110.76 L 131.78 110.96 L 132.81 109.33 L 133.54 108.86 L 134.32 108.42 L 135.15 108.02 L 135.56 107.83 L 135.98 107.64 L 136.41 107.47 L 136.84 107.29 L 137.28 107.13 L 137.73 106.98 L 138.18 106.83 L 138.64 106.69 L 139.10 106.57 L 139.56 106.44 L 140.03 106.33 L 140.51 106.24 L 140.98 106.14 L 141.46 106.06 L 141.95 105.99 L 142.43 105.92 L 142.92 105.87 L 143.42 105.84 L 143.91 105.80 L 144.41 105.78 L 144.91 105.78 L 145.41 105.77 L 145.91 105.79 L 146.41 105.82 L 146.91 105.85 L 147.42 105.90 L 148.43 106.03 L 148.93 106.12 L 149.43 106.23 L 149.94 106.33 L 150.44 106.46 L 150.94 106.60 L 151.44 106.74 L 151.93 106.91 L 152.43 107.09 L 152.92 107.28 L 153.41 107.49 L 153.90 107.71 L 154.39 107.94 L 154.87 108.19 L 155.34 108.47 L 155.82 108.74 L 156.29 109.03 L 156.75 109.35 L 157.22 109.67 L 157.68 110.01 L 158.12 110.38 L 158.57 110.75 L 159.01 111.14 L 159.45 111.55 L 159.88 111.97 L 160.30 112.41 L 160.72 112.88 L 161.13 113.34 L 161.53 113.84 L 161.92 114.36 L 162.31 114.88 L 162.69 115.42 L 163.06 116.00 L 163.43 116.57 L 163.79 117.17 L 164.13 117.80 L 164.47 118.43 L 164.80 119.09 L 165.11 119.78 L 165.43 120.46 L 165.73 121.18 L 166.01 121.93 L 166.29 122.67 L 166.56 123.45 L 166.81 124.26 L 167.06 125.07 L 167.29 125.91 L 167.51 126.78 L 167.62 127.21 L 167.72 127.66 L 167.82 128.11 L 167.92 128.56 L 168.01 129.02 L 168.10 129.49 L 168.19 129.95 L 168.28 130.43 L 168.36 130.91 L 168.43 131.40 L 168.51 131.89 L 168.58 132.39 L 168.65 132.89 L 168.71 133.40 L 168.77 133.92 L 168.83 134.43 L 168.88 134.96 L 168.93 135.49 L 168.98 136.03 L 169.02 136.57 L 169.06 137.12 L 169.10 137.67 L 169.13 138.23 L 169.16 138.80 L 169.19 139.37 L 169.21 139.95 L 169.22 140.54 L 169.24 141.12 L 169.25 141.72 L 169.25 142.32 L 170.13 140.42 L 171.01 138.51 L 171.90 136.61 L 172.78 134.71 L 172.70 134.13 L 172.62 133.56 L 172.53 133.01 L 172.44 132.45 L 172.34 131.90 L 172.25 131.36 L 172.15 130.82 L 172.05 130.29 L 171.94 129.77 L 171.83 129.25 L 171.72 128.73 L 171.61 128.23 L 171.50 127.73 L 171.38 127.23 L 171.26 126.74 L 171.13 126.26 L 171.01 125.78 L 170.88 125.31 L 170.75 124.84 L 170.61 124.38 L 170.47 123.93 L 170.34 123.48 L 170.20 123.03 L 170.05 122.60 L 169.76 121.73 L 169.46 120.89 L 169.14 120.08 L 168.82 119.28 L 168.49 118.51 L 168.15 117.77 L 167.80 117.03 L 167.45 116.32 L 167.08 115.64 L 166.71 114.96 L 166.34 114.31 L 165.95 113.70 L 165.56 113.08 L 165.16 112.49 L 164.75 111.93 L 164.34 111.37 L 163.93 110.84 L 163.50 110.34 L 163.07 109.83 L 162.64 109.36 L 162.20 108.91 L 161.75 108.46 L 161.30 108.04 L 160.85 107.65 L 160.39 107.25 L 159.93 106.88 L 159.46 106.54 L 158.99 106.19 L 158.52 105.87 L 158.04 105.58 L 157.56 105.28 L 157.08 105.01 L 156.60 104.76 L 156.11 104.52 L 155.62 104.29 L 155.13 104.09 L 154.64 103.89 L 154.14 103.71 L 153.65 103.55 L 153.15 103.39 L 152.65 103.25 L 152.15 103.13 L 151.66 103.02 L 151.16 102.92 L 150.66 102.84 L 150.16 102.77 L 149.66 102.71 L 149.17 102.67 L 148.67 102.63 L 148.17 102.61 L 147.68 102.61 L 147.19 102.60 L 146.70 102.62 L 146.21 102.65 L 145.72 102.68 L 145.24 102.73 L 144.76 102.79 L 144.28 102.85 L 143.81 102.93 L 143.34 103.03 L 142.87 103.12 L 142.40 103.23 L 141.94 103.35 L 141.49 103.48 L 141.03 103.61 L 140.59 103.76 L 140.15 103.91 L 139.71 104.08 L 139.28 104.25 L 138.85 104.42 L 138.43 104.61 L 138.02 104.81 L 137.20 105.20 L 136.41 105.64 L 135.67 106.12 L 134.93 106.60 L 134.23 107.11 L 133.59 107.65 L 134.12 105.96 L 134.67 105.36 L 135.28 104.79 L 135.93 104.24 L 136.58 103.70 L 137.28 103.18 L 138.02 102.70 L 138.77 102.23 L 139.55 101.79 L 140.37 101.39 L 140.78 101.20 L 141.19 101.01 L 141.62 100.84 L 142.04 100.67 L 142.48 100.51 L 142.92 100.36 L 143.36 100.21 L 143.80 100.08 L 144.26 99.96 L 144.71 99.84 L 145.17 99.74 L 145.63 99.65 L 146.10 99.56 L 146.57 99.49 L 147.04 99.43 L 147.52 99.37 L 147.99 99.33 L 148.48 99.31 L 148.96 99.29 L 149.45 99.28 L 149.93 99.29 L 150.42 99.31 L 150.92 99.34 L 151.41 99.39 L 151.90 99.44 L 152.40 99.51 L 152.90 99.60 L 153.39 99.69 L 153.89 99.81 L 154.39 99.94 L 154.89 100.07 L 155.39 100.23 L 155.88 100.40 L 156.38 100.58 L 156.88 100.78 L 157.38 101.01 L 157.87 101.23 L 158.37 101.48 L 158.86 101.75 L 159.35 102.02 L 159.85 102.32 L 160.33 102.64 L 160.82 102.96 L 161.31 103.31 L 161.79 103.68 L 162.27 104.05 L 162.75 104.45 L 163.22 104.88 L 163.69 105.31 L 164.16 105.77 L 164.62 106.25 L 165.09 106.74 L 165.54 107.25 L 165.99 107.79 L 166.44 108.33 L 166.89 108.90 L 167.33 109.51 L 167.76 110.11 L 168.19 110.74 L 168.62 111.41 L 169.04 112.07 L 169.45 112.77 L 169.86 113.50 L 170.27 114.23 L 170.66 114.99 L 171.05 115.79 L 171.24 116.18 L 171.44 116.59 L 171.62 117.00 L 171.81 117.42 L 172.00 117.84 L 172.18 118.27 L 172.37 118.71 L 172.55 119.15 L 172.73 119.59 L 172.91 120.04 L 173.08 120.50 L 173.25 120.97 L 173.43 121.44 L 173.60 121.91 L 173.76 122.40 L 173.93 122.88 L 174.10 123.38 L 174.26 123.88 L 174.42 124.38 L 174.58 124.89 L 174.73 125.42 L 174.89 125.94 L 175.04 126.47 L 175.19 127.01 L 175.52 125.10 L 175.86 123.19 L 176.19 121.28 L 176.52 119.37 L 176.31 118.87 L 176.10 118.38 L 175.89 117.90 L 175.68 117.43 L 175.46 116.96 L 175.24 116.50 L 175.03 116.03 L 174.81 115.58 L 174.59 115.14 L 174.37 114.70 L 174.14 114.27 L 173.92 113.84 L 173.70 113.42 L 173.47 113.00 L 173.24 112.59 L 173.02 112.19 L 172.79 111.79 L 172.56 111.40 L 172.10 110.62 L 171.63 109.87 L 171.16 109.16 L 170.69 108.45 L 170.22 107.77 L 169.74 107.13 L 169.26 106.48 L 168.77 105.86 L 168.28 105.28 L 167.79 104.70 L 167.30 104.15 L 166.81 103.62 L 166.31 103.10 L 165.81 102.61 L 165.31 102.15 L 164.81 101.69 L 164.31 101.25 L 163.80 100.85 L 163.30 100.44 L 162.79 100.06 L 162.29 99.71 L 161.78 99.36 L 161.27 99.04 L 160.76 98.74 L 160.25 98.44 L 159.74 98.17 L 159.23 97.92 L 158.72 97.67 L 158.22 97.45 L 157.71 97.25 L 157.20 97.05 L 156.69 96.87 L 156.19 96.72 L 155.68 96.57 L 155.18 96.44 L 154.68 96.33 L 154.18 96.22 L 153.68 96.13 L 153.18 96.07 L 152.68 96.00 L 152.19 95.95 L 151.70 95.93 L 151.21 95.90 L 150.73 95.89 L 150.25 95.90 L 149.76 95.92 L 149.29 95.95 L 148.81 95.99 L 148.34 96.04 L 147.88 96.10 L 147.41 96.18 L 146.95 96.26 L 146.50 96.36 L 146.05 96.47 L 145.60 96.58 L 145.15 96.71 L 144.72 96.85 L 144.28 96.99 L 143.85 97.15 L 143.43 97.32 L 143.01 97.49 L 142.60 97.67 L 142.19 97.86 L 141.38 98.25 L 140.60 98.68 L 139.87 99.16 L 139.13 99.63 L 138.43 100.15 L 137.77 100.69 L 137.12 101.24 L 136.51 101.82 L 135.94 102.41 L 135.38 103.01 L 134.87 103.64 L 134.41 104.27 L 134.49 102.63 L 134.85 101.97 L 135.27 101.31 L 135.74 100.67 L 136.20 100.03 L 136.72 99.40 L 137.29 98.80 L 137.85 98.20 L 138.46 97.63 L 139.12 97.09 L 139.77 96.54 L 140.47 96.03 L 141.20 95.56 L 141.93 95.10 L 142.70 94.67 L 143.51 94.29 L 144.32 93.92 L 145.16 93.59 L 146.02 93.33 L 146.46 93.19 L 146.90 93.08 L 147.35 92.97 L 147.80 92.87 L 148.25 92.79 L 149.18 92.65 L 149.65 92.60 L 150.12 92.56 L 150.60 92.53 L 151.08 92.51 L 151.56 92.51 L 152.05 92.52 L 152.54 92.54 L 153.03 92.58 L 153.53 92.63 L 154.03 92.69 L 154.54 92.77 L 155.04 92.86 L 155.55 92.96 L 156.06 93.09 L 156.58 93.22 L 157.09 93.37 L 157.61 93.55 L 158.13 93.72 L 158.66 93.92 L 159.18 94.14 L 159.71 94.37 L 160.24 94.61 L 160.77 94.89 L 161.30 95.16 L 161.83 95.46 L 162.37 95.78 L 162.90 96.11 L 163.44 96.46 L 163.98 96.84 L 164.52 97.22 L 165.06 97.63 L 165.60 98.07 L 166.14 98.51 L 166.68 98.98 L 167.22 99.47 L 167.76 99.97 L 168.30 100.50 L 168.84 101.06 L 169.38 101.61 L 169.92 102.20 L 170.46 102.83 L 171.00 103.45 L 171.54 104.10 L 172.07 104.79 L 172.61 105.48 L 173.15 106.20 L 173.68 106.96 L 173.95 107.34 L 174.21 107.72 L 174.48 108.12 L 174.74 108.51 L 175.01 108.92 L 175.27 109.33 L 175.54 109.74 L 175.80 110.16 L 176.07 110.60 L 176.33 111.03 L 176.59 111.47 L 176.85 111.92 L 176.70 110.13 L 176.55 108.34 L 176.40 106.55 L 176.25 104.77 L 175.95 104.37 L 175.64 103.98 L 175.34 103.60 L 175.03 103.22 L 174.73 102.85 L 174.43 102.49 L 174.12 102.13 L 173.82 101.77 L 173.51 101.43 L 173.21 101.08 L 172.91 100.74 L 172.61 100.42 L 172.00 99.76 L 171.40 99.14 L 170.80 98.54 L 170.20 97.95 L 169.61 97.39 L 169.01 96.86 L 168.42 96.34 L 167.83 95.84 L 167.24 95.37 L 166.66 94.90 L 166.07 94.46 L 165.49 94.06 L 164.91 93.65 L 164.34 93.27 L 163.77 92.91 L 163.19 92.56 L 162.63 92.24 L 162.06 91.94 L 161.50 91.64 L 160.94 91.37 L 160.39 91.12 L 159.83 90.88 L 159.28 90.66 L 158.74 90.46 L 158.20 90.26 L 157.66 90.09 L 157.12 89.94 L 156.59 89.79 L 156.06 89.67 L 155.54 89.56 L 155.02 89.46 L 154.50 89.38 L 153.99 89.32 L 153.49 89.26 L 152.98 89.22 L 152.49 89.20 L 151.99 89.18 L 151.50 89.18 L 151.02 89.20 L 150.54 89.22 L 150.06 89.26 L 149.59 89.31 L 149.12 89.37 L 148.66 89.44 L 148.21 89.53 L 147.76 89.62 L 147.31 89.73 L 146.88 89.85 L 146.00 90.10 L 145.16 90.41 L 144.36 90.76 L 143.55 91.12 L 142.78 91.54 L 142.05 91.99 L 141.32 92.45 L 140.63 92.95 L 139.98 93.49 L 139.33 94.02 L 138.72 94.60 L 138.15 95.19 L 137.59 95.79 L 137.07 96.42 L 136.60 97.06 L 136.12 97.70 L 135.70 98.36 L 135.32 99.03 L 134.95 99.70 L 134.62 100.37 L 134.35 101.05 L 134.04 99.56 L 134.22 98.88 L 134.45 98.20 L 134.73 97.51 L 135.01 96.83 L 135.35 96.14 L 135.73 95.47 L 136.11 94.80 L 136.53 94.14 L 137.01 93.50 L 137.48 92.86 L 138.00 92.24 L 138.56 91.65 L 139.13 91.06 L 139.74 90.49 L 140.39 89.97 L 141.04 89.44 L 141.73 88.95 L 142.46 88.51 L 143.19 88.07 L 143.97 87.68 L 144.78 87.34 L 145.59 87.00 L 146.44 86.71 L 147.33 86.49 L 147.78 86.38 L 148.23 86.29 L 148.69 86.21 L 149.15 86.13 L 149.62 86.07 L 150.10 86.03 L 150.59 85.99 L 151.07 85.96 L 151.57 85.96 L 152.07 85.95 L 152.57 85.97 L 153.09 86.00 L 153.60 86.04 L 154.13 86.10 L 154.66 86.17 L 155.19 86.25 L 155.73 86.35 L 156.27 86.47 L 156.82 86.59 L 157.37 86.74 L 157.94 86.90 L 158.50 87.07 L 159.07 87.26 L 159.65 87.48 L 160.22 87.70 L 160.81 87.94 L 161.40 88.21 L 161.99 88.47 L 162.59 88.77 L 163.20 89.09 L 163.80 89.41 L 164.42 89.75 L 165.04 90.13 L 165.66 90.51 L 166.28 90.91 L 166.92 91.34 L 167.55 91.78 L 168.19 92.24 L 168.83 92.73 L 169.48 93.22 L 170.13 93.75 L 170.79 94.30 L 171.45 94.85 L 172.11 95.44 L 172.78 96.06 L 173.12 96.37 L 173.46 96.69 L 173.79 97.01 L 174.13 97.34 L 174.47 97.67 L 174.81 98.01 L 174.26 96.45 L 173.71 94.88 L 173.17 93.31 L 172.62 91.74 L 172.25 91.46 L 171.89 91.18 L 171.52 90.91 L 171.16 90.64 L 170.80 90.37 L 170.44 90.12 L 169.72 89.61 L 169.02 89.13 L 168.32 88.68 L 167.62 88.23 L 166.93 87.81 L 166.26 87.41 L 165.58 87.02 L 164.91 86.66 L 164.25 86.32 L 163.59 85.98 L 162.94 85.67 L 162.30 85.39 L 161.66 85.10 L 161.03 84.84 L 160.41 84.61 L 159.79 84.38 L 159.18 84.17 L 158.58 83.99 L 157.98 83.80 L 157.39 83.64 L 156.81 83.51 L 156.22 83.37 L 155.65 83.26 L 155.09 83.16 L 154.53 83.07 L 153.98 83.00 L 153.44 82.95 L 152.90 82.90 L 152.37 82.87 L 151.85 82.86 L 151.33 82.85 L 150.82 82.86 L 150.32 82.89 L 149.83 82.92 L 149.34 82.97 L 148.86 83.03 L 148.38 83.10 L 147.91 83.18 L 147.46 83.28 L 147.00 83.38 L 146.55 83.49 L 146.12 83.62 L 145.68 83.75 L 145.25 83.90 L 144.84 84.06 L 144.01 84.37 L 143.22 84.75 L 142.48 85.17 L 141.74 85.60 L 141.04 86.07 L 140.39 86.58 L 139.73 87.09 L 139.12 87.65 L 138.56 88.23 L 137.99 88.81 L 137.47 89.42 L 137.00 90.06 L 136.52 90.69 L 136.09 91.35 L 135.71 92.02 L 135.33 92.69 L 135.00 93.37 L 134.71 94.06 L 134.42 94.75 L 134.18 95.44 L 133.99 96.13 L 133.79 96.82 L 133.65 97.51 L 133.55 98.18 L 132.92 96.92 L 132.94 96.26 L 133.00 95.59 L 133.11 94.90 L 133.22 94.22 L 133.37 93.53 L 133.57 92.83 L 133.77 92.14 L 134.01 91.44 L 134.30 90.75 L 134.59 90.06 L 134.93 89.38 L 135.31 88.72 L 135.70 88.05 L 136.13 87.40 L 136.60 86.78 L 137.08 86.15 L 137.61 85.55 L 138.18 84.98 L 138.75 84.41 L 139.37 83.87 L 140.03 83.38 L 140.70 82.88 L 141.41 82.42 L 142.17 82.02 L 142.93 81.61 L 143.74 81.25 L 144.60 80.95 L 145.03 80.80 L 145.47 80.67 L 145.92 80.55 L 146.38 80.43 L 146.84 80.33 L 147.32 80.24 L 147.79 80.15 L 148.28 80.08 L 148.78 80.02 L 149.28 79.97 L 149.80 79.93 L 150.32 79.92 L 150.85 79.90 L 151.39 79.90 L 151.94 79.92 L 152.49 79.94 L 153.05 79.98 L 153.62 80.04 L 154.20 80.10 L 154.78 80.18 L 155.38 80.29 L 155.98 80.39 L 156.59 80.52 L 157.21 80.66 L 157.84 80.81 L 158.47 80.98 L 159.12 81.18 L 159.77 81.37 L 160.43 81.59 L 161.10 81.83 L 161.77 82.08 L 162.46 82.34 L 163.16 82.64 L 163.85 82.93 L 164.56 83.25 L 165.29 83.60 L 166.01 83.95 L 166.74 84.32 L 167.49 84.72 L 168.24 85.12 L 169.00 85.55 L 169.77 86.01 L 168.92 84.73 L 168.07 83.45 L 167.22 82.16 L 166.37 80.88 L 165.57 80.53 L 164.80 80.21 L 164.03 79.92 L 163.27 79.62 L 162.52 79.35 L 161.79 79.10 L 161.05 78.86 L 160.33 78.64 L 159.63 78.44 L 158.93 78.24 L 158.24 78.07 L 157.56 77.91 L 156.89 77.76 L 156.23 77.63 L 155.59 77.52 L 154.94 77.42 L 154.31 77.33 L 153.69 77.26 L 153.08 77.20 L 152.48 77.15 L 151.89 77.12 L 151.30 77.10 L 150.73 77.09 L 150.17 77.10 L 149.61 77.11 L 149.07 77.14 L 148.54 77.19 L 148.01 77.23 L 147.49 77.30 L 146.99 77.38 L 146.48 77.46 L 145.99 77.55 L 145.52 77.67 L 145.04 77.78 L 144.58 77.91 L 144.13 78.05 L 143.68 78.19 L 143.25 78.35 L 142.83 78.52 L 142.40 78.69 L 142.00 78.87 L 141.60 79.06 L 140.81 79.45 L 140.07 79.89 L 139.39 80.38 L 138.70 80.86 L 138.07 81.38 L 137.48 81.94 L 136.90 82.49 L 136.36 83.08 L 135.88 83.70 L 135.39 84.31 L 134.96 84.96 L 134.57 85.61 L 134.18 86.27 L 133.84 86.95 L 133.55 87.63 L 133.25 88.32 L 133.01 89.01 L 132.80 89.71 L 132.60 90.40 L 132.44 91.10 L 132.33 91.79 L 132.22 92.48 L 132.15 93.16 L 132.12 93.83 L 132.10 94.50 L 132.12 95.15 L 132.17 95.78 L 131.32 94.79 L 131.20 94.19 L 131.11 93.56 L 131.06 92.92 L 131.01 92.27 L 131.00 91.61 L 131.03 90.93 L 131.06 90.26 L 131.13 89.57 L 131.25 88.88 L 131.37 88.18 L 131.53 87.49 L 131.73 86.79 L 131.94 86.10 L 132.19 85.41 L 132.49 84.73 L 132.79 84.05 L 133.14 83.39 L 133.53 82.74 L 133.93 82.09 L 134.38 81.46 L 134.88 80.85 L 135.38 80.25 L 135.93 79.67 L 136.53 79.12 L 137.14 78.58 L 137.80 78.07 L 138.51 77.60 L 139.23 77.13 L 140.00 76.70 L 140.83 76.32 L 141.25 76.13 L 141.68 75.95 L 142.12 75.79 L 142.56 75.62 L 143.02 75.47 L 143.50 75.33 L 143.97 75.20 L 144.46 75.07 L 144.97 74.96 L 145.47 74.85 L 145.99 74.76 L 146.53 74.68 L 147.06 74.61 L 147.61 74.54 L 148.18 74.50 L 148.75 74.46 L 149.33 74.43 L 149.93 74.42 L 150.53 74.41 L 151.14 74.42 L 151.78 74.44 L 152.41 74.47 L 153.06 74.52 L 153.72 74.58 L 154.39 74.65 L 155.07 74.73 L 155.76 74.84 L 156.46 74.94 L 157.18 75.07 L 157.91 75.22 L 158.64 75.37 L 159.39 75.54 L 160.16 75.73 L 160.93 75.92 L 161.71 76.14 L 162.51 76.37 L 161.46 75.41 L 160.40 74.45 L 159.35 73.48 L 158.29 72.52 L 157.50 72.38 L 156.72 72.27 L 155.96 72.18 L 155.21 72.08 L 154.47 72.01 L 153.75 71.95 L 153.03 71.90 L 152.33 71.86 L 151.65 71.84 L 150.97 71.82 L 150.30 71.82 L 149.66 71.84 L 149.01 71.85 L 148.38 71.89 L 147.77 71.94 L 147.17 71.99 L 146.57 72.05 L 146.00 72.13 L 145.43 72.21 L 144.87 72.31 L 144.33 72.42 L 143.79 72.53 L 143.27 72.65 L 142.76 72.79 L 142.26 72.93 L 141.77 73.08 L 141.29 73.25 L 140.82 73.41 L 140.37 73.59 L 139.93 73.78 L 139.49 73.97 L 139.06 74.17 L 138.65 74.38 L 138.24 74.59 L 137.85 74.81 L 137.47 75.04 L 136.72 75.51 L 136.03 76.01 L 135.39 76.55 L 134.76 77.09 L 134.18 77.66 L 133.66 78.25 L 133.14 78.85 L 132.67 79.47 L 132.26 80.11 L 131.85 80.75 L 131.49 81.41 L 131.18 82.08 L 130.87 82.76 L 130.61 83.44 L 130.40 84.13 L 130.19 84.82 L 130.02 85.51 L 129.90 86.20 L 129.78 86.89 L 129.70 87.58 L 129.67 88.26 L 129.63 88.94 L 129.64 89.61 L 129.68 90.26 L 129.73 90.92 L 129.81 91.56 L 129.93 92.17 L 130.05 92.79 L 130.21 93.38 L 130.39 93.94 L 129.41 93.23 L 129.16 92.72 L 128.95 92.16 L 128.77 91.59 L 128.58 91.01 L 128.43 90.40 L 128.32 89.78 L 128.20 89.15 L 128.12 88.51 L 128.08 87.85 L 128.04 87.19 L 128.04 86.52 L 128.08 85.84 L 128.12 85.16 L 128.20 84.47 L 128.33 83.78 L 128.46 83.10 L 128.63 82.41 L 128.85 81.72 L 129.08 81.04 L 129.35 80.36 L 129.67 79.70 L 130.00 79.03 L 130.37 78.38 L 130.81 77.74 L 131.24 77.11 L 131.73 76.49 L 132.28 75.90 L 132.83 75.30 L 133.44 74.74 L 134.12 74.20 L 134.79 73.66 L 135.52 73.16 L 136.33 72.69 L 136.73 72.46 L 137.15 72.23 L 137.58 72.02 L 138.02 71.81 L 138.47 71.60 L 138.94 71.41 L 139.41 71.22 L 139.90 71.04 L 140.40 70.87 L 140.91 70.70 L 141.43 70.54 L 141.97 70.39 L 142.52 70.25 L 143.08 70.12 L 143.66 70.00 L 144.23 69.88 L 144.83 69.77 L 145.45 69.68 L 146.07 69.59 L 146.70 69.51 L 147.36 69.45 L 148.02 69.39 L 148.69 69.34 L 149.39 69.31 L 150.09 69.28 L 150.80 69.26 L 151.54 69.26 L 152.28 69.26 L 153.03 69.28 L 153.81 69.32 L 151.48 68.05 L 149.16 66.77 L 148.41 66.83 L 147.68 66.90 L 146.97 66.99 L 146.26 67.07 L 145.58 67.17 L 144.91 67.28 L 144.25 67.39 L 143.61 67.51 L 142.98 67.65 L 142.36 67.79 L 141.76 67.94 L 141.18 68.10 L 140.59 68.26 L 140.03 68.43 L 139.49 68.61 L 138.95 68.79 L 138.42 68.98 L 137.92 69.19 L 137.42 69.39 L 136.93 69.60 L 136.47 69.83 L 136.00 70.05 L 135.55 70.28 L 135.12 70.52 L 134.69 70.76 L 134.28 71.01 L 133.89 71.27 L 133.49 71.52 L 133.12 71.79 L 132.76 72.06 L 132.04 72.60 L 131.39 73.18 L 130.80 73.77 L 130.22 74.37 L 129.69 74.99 L 129.23 75.62 L 128.77 76.25 L 128.37 76.91 L 128.02 77.57 L 127.67 78.23 L 127.38 78.91 L 127.15 79.59 L 126.91 80.27 L 126.72 80.95 L 126.58 81.64 L 126.44 82.32 L 126.35 83.01 L 126.31 83.69 L 126.26 84.36 L 126.26 85.04 L 126.29 85.70 L 126.33 86.36 L 126.41 87.00 L 126.52 87.63 L 126.63 88.27 L 126.78 88.88 L 126.96 89.47 L 127.13 90.06 L 127.35 90.62 L 127.58 91.16 L 127.82 91.69 L 128.09 92.20 L 128.38 92.67 L 127.33 92.25 L 127.00 91.83 L 126.69 91.37 L 126.40 90.88 L 126.12 90.39 L 125.85 89.87 L 125.62 89.32 L 125.38 88.77 L 125.17 88.20 L 124.99 87.60 L 124.82 87.01 L 124.67 86.39 L 124.57 85.76 L 124.46 85.12 L 124.39 84.48 L 124.36 83.82 L 124.33 83.16 L 124.34 82.48 L 124.40 81.81 L 124.46 81.13 L 124.56 80.45 L 124.71 79.76 L 124.87 79.08 L 125.07 78.40 L 125.33 77.72 L 125.59 77.04 L 125.90 76.36 L 126.28 75.70 L 126.65 75.03 L 127.08 74.37 L 127.58 73.73 L 128.08 73.09 L 128.64 72.46 L 129.58 71.55 L 129.91 71.25 L 130.26 70.96 L 130.61 70.67 L 130.98 70.38 L 131.37 70.10 L 131.75 69.82 L 132.15 69.54 L 132.58 69.27 L 133.00 69.01 L 133.44 68.74 L 133.90 68.49 L 134.36 68.24 L 134.84 67.99 L 135.34 67.75 L 135.84 67.51 L 136.36 67.28 L 136.90 67.06 L 137.44 66.84 L 138.00 66.63 L 138.59 66.43 L 139.17 66.22 L 139.77 66.03 L 140.39 65.85 L 141.02 65.66 L 141.67 65.49 L 142.33 65.33 L 143.00 65.16 L 143.69 65.01 L 144.41 64.87 L 142.03 64.23 L 139.64 63.59 L 138.98 63.80 L 138.33 64.03 L 137.71 64.26 L 137.08 64.50 L 136.48 64.74 L 135.91 64.98 L 135.33 65.23 L 134.77 65.49 L 134.23 65.75 L 133.70 66.01 L 133.18 66.28 L 132.69 66.55 L 132.20 66.83 L 131.72 67.11 L 131.27 67.40 L 130.82 67.68 L 130.38 67.97 L 129.97 68.27 L 129.56 68.57 L 129.16 68.87 L 128.79 69.18 L 128.41 69.49 L 128.06 69.80 L 127.72 70.11 L 127.04 70.74 L 126.44 71.39 L 125.90 72.05 L 125.36 72.70 L 124.89 73.37 L 124.49 74.05 L 124.08 74.73 L 123.74 75.41 L 123.45 76.09 L 123.17 76.78 L 122.94 77.47 L 122.77 78.15 L 122.60 78.84 L 122.47 79.52 L 122.40 80.20 L 122.33 80.88 L 122.30 81.55 L 122.32 82.21 L 122.34 82.87 L 122.40 83.52 L 122.51 84.16 L 122.61 84.79 L 122.74 85.41 L 122.92 86.01 L 123.09 86.61 L 123.30 87.19 L 123.53 87.74 L 123.76 88.30 L 124.03 88.83 L 124.31 89.33 L 124.60 89.84 L 124.91 90.31 L 125.24 90.75 L 125.57 91.19 L 125.92 91.60 L 126.28 91.97 L 125.24 91.82 L 124.85 91.50 L 124.48 91.14 L 124.11 90.75 L 123.75 90.36 L 123.40 89.94 L 123.07 89.49 L 122.74 89.03 L 122.43 88.55 L 122.14 88.04 L 121.86 87.53 L 121.60 86.99 L 121.36 86.43 L 121.13 85.87 L 120.93 85.29 L 120.77 84.68 L 120.60 84.08 L 120.47 83.46 L 120.38 82.82 L 120.29 82.19 L 120.24 81.54 L 120.23 80.87 L 120.23 80.21 L 120.27 79.54 L 120.36 78.85 L 120.45 78.17 L 120.59 77.48 L 120.79 76.79 L 120.99 76.09 L 121.24 75.39 L 121.56 74.69 L 121.87 74.00 L 122.25 73.30 L 122.69 72.60 L 123.13 71.91 L 123.64 71.21 L 124.22 70.53 L 124.51 70.19 L 124.82 69.85 L 125.14 69.51 L 125.47 69.17 L 125.82 68.83 L 126.18 68.50 L 126.54 68.17 L 126.93 67.84 L 127.33 67.51 L 127.73 67.18 L 128.15 66.86 L 128.60 66.54 L 129.04 66.22 L 129.50 65.90 L 129.99 65.59 L 130.47 65.27 L 130.98 64.97 L 131.51 64.66 L 132.03 64.36 L 132.58 64.06 L 133.15 63.76 L 133.73 63.47 L 134.32 63.18 L 134.94 62.90 L 132.64 62.83 L 130.35 62.76 L 129.79 63.10 L 129.25 63.45 L 128.74 63.79 L 128.22 64.14 L 127.73 64.49 L 127.25 64.84 L 126.78 65.19 L 126.33 65.55 L 125.90 65.90 L 125.47 66.26 L 125.06 66.62 L 124.67 66.97 L 124.28 67.33 L 123.91 67.69 L 123.56 68.05 L 123.21 68.41 L 122.88 68.77 L 122.57 69.14 L 122.26 69.50 L 121.96 69.86 L 121.69 70.22 L 121.41 70.59 L 121.15 70.95 L 120.91 71.31 L 120.43 72.04 L 120.02 72.76 L 119.67 73.48 L 119.33 74.21 L 119.04 74.92 L 118.82 75.63 L 118.59 76.34 L 118.43 77.05 L 118.31 77.74 L 118.20 78.43 L 118.14 79.11 L 118.13 79.78 L 118.11 80.45 L 118.15 81.11 L 118.23 81.75 L 118.30 82.39 L 118.42 83.02 L 118.58 83.62 L 118.74 84.23 L 118.93 84.82 L 119.16 85.38 L 119.38 85.94 L 119.64 86.48 L 119.92 87.00 L 120.20 87.52 L 120.51 88.01 L 120.84 88.47 L 121.17 88.93 L 121.52 89.37 L 121.89 89.77 L 122.26 90.17 L 122.64 90.55 L 123.03 90.88 L 123.42 91.22 L 123.82 91.52 L 124.23 91.79 L 123.26 91.87 L 122.84 91.66 L 122.42 91.41 L 122.01 91.13 L 121.59 90.84 L 121.19 90.52 L 120.79 90.17 L 120.40 89.82 L 120.01 89.44 L 119.64 89.03 L 119.28 88.62 L 118.93 88.17 L 118.60 87.71 L 118.27 87.24 L 117.96 86.74 L 117.69 86.22 L 117.41 85.70 L 117.16 85.15 L 116.94 84.58 L 116.72 84.01 L 116.54 83.42 L 116.40 82.81 L 116.25 82.20 L 116.14 81.57 L 116.08 80.92 L 116.02 80.27 L 116.00 79.60 L 116.04 78.92 L 116.07 78.24 L 116.15 77.54 L 116.29 76.83 L 116.43 76.12 L 116.62 75.39 L 116.88 74.66 L 117.13 73.93 L 117.44 73.18 L 117.83 72.43 L 118.21 71.67 L 118.65 70.91 L 119.17 70.14 L 119.43 69.76 L 119.71 69.37 L 120.01 68.99 L 120.30 68.60 L 120.62 68.21 L 120.95 67.82 L 121.29 67.44 L 121.64 67.05 L 122.02 66.66 L 122.39 66.27 L 122.78 65.88 L 123.20 65.49 L 123.61 65.09 L 124.05 64.70 L 124.50 64.31 L 124.96 63.92 L 125.44 63.53 L 125.94 63.14 L 123.84 63.56 L 121.75 63.99 L 121.31 64.42 L 120.90 64.85 L 120.50 65.27 L 120.11 65.70 L 119.73 66.12 L 119.38 66.55 L 119.02 66.97 L 118.69 67.39 L 118.37 67.80 L 118.05 68.22 L 117.76 68.64 L 117.48 69.05 L 117.20 69.46 L 116.94 69.87 L 116.70 70.27 L 116.46 70.68 L 116.23 71.08 L 116.03 71.48 L 115.61 72.28 L 115.27 73.06 L 114.98 73.83 L 114.70 74.60 L 114.48 75.35 L 114.32 76.09 L 114.15 76.83 L 114.05 77.55 L 113.99 78.25 L 113.94 78.95 L 113.94 79.64 L 113.98 80.30 L 114.02 80.96 L 114.11 81.61 L 114.24 82.23 L 114.37 82.85 L 114.55 83.45 L 114.75 84.02 L 114.96 84.60 L 115.20 85.15 L 115.47 85.68 L 115.74 86.21 L 116.04 86.71 L 116.36 87.18 L 116.69 87.66 L 117.04 88.11 L 117.40 88.52 L 117.77 88.94 L 118.16 89.33 L 118.55 89.69 L 118.95 90.05 L 119.36 90.38 L 119.78 90.68 L 120.20 90.97 L 120.62 91.24 L 121.05 91.47 L 121.48 91.70 L 121.91 91.90 L 122.33 92.06 L 121.47 92.34 L 121.04 92.23 L 120.61 92.08 L 120.17 91.90 L 119.74 91.72 L 119.30 91.51 L 118.86 91.27 L 118.43 91.03 L 118.00 90.75 L 117.58 90.45 L 117.15 90.14 L 116.74 89.80 L 116.34 89.44 L 115.95 89.07 L 115.56 88.67 L 115.20 88.25 L 114.83 87.82 L 114.49 87.37 L 114.17 86.89 L 113.86 86.41 L 113.56 85.90 L 113.30 85.36 L 113.04 84.83 L 112.81 84.27 L 112.62 83.68 L 112.42 83.09 L 112.27 82.48 L 112.15 81.84 L 112.04 81.20 L 111.96 80.54 L 111.94 79.86 L 111.91 79.17 L 111.94 78.47 L 112.01 77.74 L 112.09 77.01 L 112.22 76.25 L 112.41 75.48 L 112.59 74.71 L 112.84 73.91 L 113.15 73.10 L 113.30 72.69 L 113.48 72.28 L 113.66 71.86 L 113.85 71.44 L 114.06 71.02 L 114.28 70.60 L 114.50 70.17 L 114.74 69.74 L 115.00 69.30 L 115.26 68.87 L 115.53 68.43 L 115.83 67.98 L 116.12 67.54 L 116.43 67.09 L 116.77 66.63 L 117.10 66.18 L 117.45 65.72 L 117.82 65.26 L 116.01 66.08 L 114.20 66.90 L 113.89 67.39 L 113.60 67.87 L 113.33 68.34 L 113.06 68.81 L 112.81 69.28 L 112.57 69.74 L 112.34 70.20 L 112.12 70.65 L 111.92 71.10 L 111.72 71.55 L 111.54 71.99 L 111.37 72.43 L 111.04 73.30 L 110.77 74.14 L 110.56 74.96 L 110.35 75.78 L 110.20 76.57 L 110.11 77.34 L 110.01 78.11 L 109.97 78.85 L 109.98 79.56 L 109.98 80.27 L 110.04 80.96 L 110.14 81.62 L 110.24 82.28 L 110.38 82.91 L 110.56 83.51 L 110.74 84.12 L 110.96 84.69 L 111.21 85.24 L 111.46 85.79 L 111.74 86.31 L 112.05 86.80 L 112.36 87.29 L 112.70 87.75 L 113.06 88.18 L 113.41 88.62 L 113.79 89.02 L 114.19 89.39 L 114.59 89.77 L 115.00 90.11 L 115.42 90.42 L 115.85 90.74 L 116.28 91.02 L 116.72 91.27 L 117.16 91.52 L 117.60 91.75 L 118.05 91.94 L 118.49 92.13 L 118.94 92.29 L 119.37 92.41 L 119.81 92.54 L 120.25 92.64 L 120.67 92.70 L 119.94 93.14 L 119.11 93.10 L 118.23 92.94 L 117.33 92.66 L 116.88 92.52 L 116.43 92.36 L 115.98 92.16 L 115.53 91.96 L 115.08 91.73 L 114.64 91.47 L 114.20 91.21 L 113.76 90.92 L 113.34 90.60 L 112.92 90.28 L 112.51 89.93 L 112.12 89.55 L 111.73 89.16 L 111.35 88.75 L 111.00 88.31 L 110.65 87.87 L 110.32 87.40 L 110.02 86.89 L 109.72 86.39 L 109.44 85.85 L 109.20 85.29 L 108.96 84.72 L 108.76 84.13 L 108.59 83.50 L 108.42 82.87 L 108.30 82.22 L 108.21 81.53 L 108.13 80.84 L 108.08 80.12 L 108.09 79.37 L 108.10 78.62 L 108.16 77.84 L 108.27 77.03 L 108.38 76.21 L 108.55 75.37 L 108.78 74.50 L 108.89 74.06 L 109.02 73.61 L 109.16 73.16 L 109.30 72.71 L 109.46 72.25 L 109.64 71.78 L 109.81 71.31 L 110.01 70.83 L 110.21 70.35 L 110.42 69.86 L 110.65 69.37 L 110.89 68.87 L 109.41 69.99 L 107.93 71.11 L 107.75 71.62 L 107.58 72.12 L 107.44 72.61 L 107.29 73.10 L 107.16 73.58 L 107.04 74.05 L 106.92 74.52 L 106.82 74.98 L 106.73 75.43 L 106.64 75.88 L 106.56 76.32 L 106.50 76.76 L 106.38 77.62 L 106.31 78.46 L 106.29 79.25 L 106.27 80.05 L 106.30 80.81 L 106.37 81.53 L 106.45 82.26 L 106.56 82.95 L 106.72 83.60 L 106.88 84.26 L 107.07 84.88 L 107.30 85.47 L 107.53 86.06 L 107.79 86.61 L 108.09 87.13 L 108.38 87.66 L 108.70 88.14 L 109.04 88.60 L 109.39 89.06 L 109.76 89.48 L 110.14 89.87 L 110.53 90.26 L 110.94 90.62 L 111.36 90.95 L 111.78 91.28 L 112.21 91.58 L 112.65 91.84 L 113.09 92.11 L 113.54 92.35 L 114.00 92.55 L 114.45 92.76 L 114.91 92.94 L 115.36 93.08 L 115.82 93.23 L 116.27 93.35 L 116.72 93.44 L 117.62 93.61 L 118.49 93.68 L 119.29 93.63 L 118.71 94.17 L 117.94 94.30 L 117.10 94.33 L 116.22 94.24 L 115.77 94.20 L 115.32 94.13 L 114.87 94.04 L 114.41 93.94 L 113.95 93.82 L 113.49 93.66 L 113.03 93.51 L 112.57 93.33 L 112.12 93.11 L 111.66 92.90 L 111.21 92.66 L 110.77 92.38 L 110.33 92.11 L 109.90 91.80 L 109.48 91.46 L 109.07 91.12 L 108.67 90.75 L 108.28 90.34 L 107.90 89.94 L 107.54 89.50 L 107.20 89.02 L 106.86 88.55 L 106.55 88.04 L 106.26 87.50 L 105.98 86.95 L 105.72 86.37 L 105.50 85.75 L 105.28 85.14 L 105.09 84.48 L 104.94 83.79 L 104.79 83.10 L 104.68 82.37 L 104.62 81.60 L 104.55 80.83 L 104.53 80.02 L 104.55 79.17 L 104.58 78.32 L 104.65 77.43 L 104.78 76.50 L 104.84 76.03 L 104.92 75.56 L 105.01 75.07 L 105.10 74.59 L 105.20 74.09 L 105.32 73.58 L 104.20 74.90 L 103.08 76.23 L 103.01 76.73 L 102.97 77.22 L 102.93 77.69 L 102.90 78.17 L 102.87 78.64 L 102.86 79.09 L 102.84 80.00 L 102.86 80.87 L 102.93 81.69 L 103.00 82.51 L 103.11 83.29 L 103.25 84.02 L 103.40 84.76 L 103.58 85.45 L 103.80 86.11 L 104.02 86.76 L 104.27 87.37 L 104.55 87.95 L 104.83 88.52 L 105.14 89.05 L 105.48 89.55 L 105.81 90.05 L 106.17 90.51 L 106.54 90.93 L 106.92 91.35 L 107.32 91.74 L 107.73 92.09 L 108.14 92.45 L 108.57 92.77 L 109.01 93.05 L 109.45 93.34 L 109.90 93.59 L 110.35 93.81 L 110.81 94.04 L 111.27 94.23 L 111.73 94.39 L 112.19 94.55 L 112.66 94.68 L 113.12 94.78 L 113.58 94.88 L 114.04 94.96 L 114.49 95.01 L 114.94 95.05 L 115.38 95.08 L 115.81 95.07 L 116.67 95.06 L 117.49 94.95 L 118.22 94.76 L 117.80 95.37 L 117.12 95.63 L 116.34 95.82 L 115.51 95.91 L 114.68 96.00 L 113.79 96.00 L 112.87 95.89 L 112.42 95.84 L 111.95 95.76 L 111.49 95.65 L 111.02 95.54 L 110.56 95.40 L 110.09 95.23 L 109.63 95.07 L 109.17 94.87 L 108.72 94.63 L 108.26 94.40 L 107.81 94.14 L 107.38 93.84 L 106.94 93.54 L 106.52 93.20 L 106.11 92.83 L 105.70 92.46 L 105.30 92.05 L 104.93 91.61 L 104.55 91.16 L 104.20 90.67 L 103.86 90.15 L 103.53 89.62 L 103.22 89.06 L 102.94 88.45 L 102.66 87.84 L 102.41 87.19 L 102.19 86.50 L 101.97 85.80 L 101.78 85.07 L 101.63 84.28 L 101.48 83.50 L 101.36 82.66 L 101.29 81.78 L 101.25 81.34 L 101.23 80.89 L 101.21 80.43 L 101.19 79.97 L 101.19 79.49 L 101.19 79.00 L 100.43 80.43 L 99.67 81.86 L 99.72 82.33 L 99.77 82.79 L 99.84 83.24 L 99.90 83.68 L 99.97 84.11 L 100.06 84.53 L 100.22 85.37 L 100.42 86.16 L 100.65 86.91 L 100.88 87.65 L 101.14 88.34 L 101.42 88.99 L 101.71 89.64 L 102.02 90.24 L 102.35 90.79 L 102.69 91.35 L 103.05 91.87 L 103.42 92.34 L 103.80 92.81 L 104.19 93.25 L 104.60 93.64 L 105.01 94.03 L 105.44 94.39 L 105.88 94.70 L 106.31 95.02 L 106.76 95.30 L 107.21 95.55 L 107.67 95.79 L 108.13 96.00 L 108.59 96.18 L 109.05 96.36 L 109.52 96.51 L 109.99 96.63 L 110.46 96.74 L 110.92 96.83 L 111.38 96.89 L 111.84 96.95 L 112.30 96.98 L 112.75 96.99 L 113.64 97.00 L 114.51 96.92 L 115.30 96.74 L 116.10 96.57 L 116.83 96.32 L 117.47 96.00 L 117.21 96.64 L 116.63 97.01 L 115.94 97.33 L 115.19 97.57 L 114.43 97.81 L 113.61 97.98 L 112.74 98.06 L 112.30 98.09 L 111.86 98.11 L 111.40 98.10 L 110.95 98.08 L 110.49 98.05 L 110.03 97.98 L 109.56 97.91 L 109.09 97.81 L 108.63 97.69 L 108.16 97.56 L 107.69 97.40 L 107.22 97.21 L 106.76 97.02 L 106.30 96.79 L 105.84 96.53 L 105.39 96.26 L 104.94 95.97 L 104.50 95.63 L 104.06 95.29 L 103.63 94.91 L 103.22 94.49 L 102.81 94.07 L 102.41 93.61 L 102.02 93.11 L 101.64 92.60 L 101.28 92.06 L 100.93 91.46 L 100.59 90.86 L 100.27 90.22 L 99.97 89.53 L 99.67 88.84 L 99.40 88.10 L 99.15 87.31 L 98.90 86.51 L 98.69 85.67 L 98.50 84.77 L 98.09 86.23 L 97.67 87.69 L 97.94 88.53 L 98.24 89.32 L 98.56 90.06 L 98.88 90.80 L 99.22 91.49 L 99.58 92.13 L 99.94 92.76 L 100.32 93.35 L 100.71 93.89 L 101.11 94.43 L 101.52 94.92 L 101.94 95.37 L 102.36 95.82 L 102.80 96.22 L 103.24 96.58 L 103.68 96.95 L 104.14 97.27 L 104.60 97.55 L 105.05 97.83 L 105.52 98.08 L 105.99 98.29 L 106.46 98.50 L 106.93 98.67 L 107.40 98.81 L 107.87 98.95 L 108.34 99.05 L 108.81 99.13 L 109.27 99.21 L 109.74 99.25 L 110.19 99.27 L 111.11 99.31 L 112.00 99.24 L 112.83 99.09 L 113.67 98.93 L 114.45 98.68 L 115.16 98.38 L 115.87 98.07 L 116.50 97.70 L 117.02 97.28 L 116.91 97.92 L 116.44 98.37 L 115.87 98.79 L 115.21 99.16 L 114.56 99.52 L 113.82 99.83 L 113.03 100.07 L 112.23 100.30 L 111.38 100.45 L 110.48 100.51 L 110.04 100.53 L 109.58 100.53 L 109.12 100.50 L 108.66 100.48 L 108.19 100.42 L 107.72 100.33 L 107.25 100.24 L 106.78 100.12 L 106.30 99.97 L 105.83 99.81 L 105.35 99.62 L 104.88 99.40 L 104.40 99.17 L 103.93 98.90 L 103.46 98.60 L 103.00 98.29 L 102.53 97.94 L 102.08 97.55 L 101.63 97.16 L 101.18 96.73 L 100.74 96.25 L 100.30 95.77 L 99.88 95.24 L 99.47 94.66 L 99.05 94.09 L 98.65 93.46 L 98.27 92.78 L 97.89 92.10 L 97.52 91.36 L 97.17 90.57 L 97.07 91.99 L 96.97 93.40 L 97.39 94.13 L 97.82 94.80 L 98.26 95.42 L 98.70 96.04 L 99.15 96.60 L 99.61 97.12 L 100.07 97.63 L 100.53 98.10 L 101.00 98.52 L 101.47 98.94 L 101.95 99.31 L 102.43 99.64 L 102.91 99.98 L 103.39 100.26 L 103.88 100.51 L 104.36 100.76 L 104.85 100.97 L 105.33 101.14 L 105.81 101.32 L 106.29 101.45 L 106.77 101.55 L 107.25 101.66 L 107.72 101.73 L 108.19 101.77 L 109.12 101.84 L 110.02 101.80 L 110.88 101.66 L 111.74 101.53 L 112.56 101.29 L 113.31 100.99 L 114.06 100.69 L 114.74 100.32 L 115.34 99.90 L 115.94 99.48 L 116.46 99.02 L 116.87 98.55 L 116.89 99.15 L 116.54 99.65 L 116.08 100.15 L 115.54 100.61 L 115.00 101.06 L 114.37 101.49 L 113.67 101.85 L 112.97 102.22 L 112.20 102.52 L 111.38 102.74 L 110.56 102.96 L 109.68 103.09 L 108.77 103.10 L 108.31 103.11 L 107.85 103.09 L 107.37 103.04 L 106.90 102.99 L 106.42 102.90 L 105.93 102.78 L 105.45 102.66 L 104.96 102.51 L 104.46 102.32 L 103.97 102.13 L 103.47 101.90 L 102.48 101.35 L 101.98 101.04 L 101.48 100.68 L 100.98 100.32 L 100.48 99.92 L 99.99 99.47 L 99.49 99.01 L 99.00 98.51 L 98.51 97.96 L 98.03 97.41 L 97.54 96.81 L 97.07 96.15 L 97.43 98.78 L 97.95 99.37 L 98.48 99.90 L 99.01 100.39 L 99.53 100.87 L 100.06 101.30 L 100.58 101.69 L 101.11 102.08 L 101.63 102.42 L 102.15 102.72 L 102.66 103.01 L 103.18 103.27 L 103.69 103.48 L 104.20 103.69 L 104.70 103.87 L 105.20 104.00 L 105.70 104.14 L 106.19 104.24 L 106.68 104.31 L 107.16 104.37 L 107.63 104.41 L 108.10 104.41 L 108.56 104.41 L 109.02 104.39 L 109.46 104.34 L 110.34 104.23 L 111.18 104.02 L 111.96 103.73 L 112.74 103.44 L 113.46 103.07 L 114.10 102.65 L 114.74 102.23 L 115.31 101.76 L 115.80 101.27 L 116.28 100.77 L 116.68 100.25 L 116.97 99.73 L 117.11 100.28 L 116.87 100.81 L 116.53 101.35 L 116.11 101.88 L 115.69 102.40 L 115.18 102.91 L 114.59 103.38 L 114.00 103.85 L 113.34 104.27 L 112.61 104.63 L 111.89 104.98 L 111.09 105.27 L 110.24 105.46 L 109.82 105.55 L 109.38 105.62 L 108.93 105.66 L 108.47 105.70 L 108.01 105.72 L 107.54 105.70 L 107.06 105.68 L 106.57 105.64 L 106.08 105.55 L 105.58 105.47 L 105.07 105.35 L 104.56 105.20 L 104.04 105.04 L 103.52 104.85 L 102.99 104.61 L 102.45 104.38 L 101.92 104.10 L 101.37 103.78 L 100.83 103.46 L 100.27 103.09 L 99.72 102.68 L 99.16 102.26 L 98.60 101.80 L 98.04 101.28 L 98.86 103.63 L 99.46 104.07 L 100.05 104.47 L 100.63 104.81 L 101.20 105.16 L 101.77 105.46 L 102.33 105.71 L 102.89 105.97 L 103.44 106.19 L 103.98 106.36 L 104.52 106.54 L 105.04 106.67 L 105.56 106.77 L 106.07 106.87 L 106.58 106.93 L 107.07 106.97 L 107.56 107.00 L 108.03 107.00 L 108.50 106.97 L 109.42 106.91 L 110.29 106.73 L 111.10 106.47 L 111.91 106.20 L 112.65 105.85 L 113.33 105.43 L 114.00 105.02 L 114.61 104.54 L 115.13 104.04 L 115.66 103.53 L 116.10 102.99 L 116.47 102.44 L 116.83 101.89 L 117.10 101.33 L 117.29 100.80 L 117.51 101.28 L 117.38 101.82 L 117.17 102.38 L 116.87 102.94 L 116.56 103.51 L 116.18 104.07 L 115.72 104.62 L 115.25 105.16 L 114.71 105.68 L 114.09 106.14 L 113.48 106.61 L 112.79 107.02 L 112.03 107.36 L 111.27 107.69 L 110.44 107.95 L 109.54 108.10 L 109.10 108.17 L 108.63 108.22 L 108.15 108.23 L 107.68 108.25 L 107.18 108.24 L 106.67 108.19 L 106.16 108.15 L 105.64 108.07 L 105.10 107.95 L 104.56 107.84 L 104.01 107.68 L 103.44 107.49 L 102.88 107.30 L 102.30 107.06 L 101.70 106.78 L 101.11 106.51 L 100.51 106.19 L 99.89 105.82 L 101.08 107.83 L 101.72 108.12 L 102.33 108.37 L 102.93 108.58 L 103.53 108.79 L 104.12 108.96 L 104.69 109.09 L 105.25 109.23 L 105.80 109.32 L 106.33 109.38 L 106.87 109.44 L 107.38 109.47 L 107.88 109.46 L 108.38 109.46 L 108.86 109.42 L 109.32 109.36 L 109.79 109.29 L 110.23 109.20 L 110.66 109.09 L 111.51 108.86 L 112.29 108.53 L 113.00 108.13 L 113.71 107.73 L 114.34 107.27 L 114.90 106.76 L 115.45 106.25 L 115.93 105.69 L 116.33 105.12 L 116.73 104.55 L 117.06 103.97 L 117.30 103.39 L 117.54 102.82 L 117.70 102.25 L 117.78 101.73 L 118.07 102.13 L 118.05 102.65 L 117.94 103.21 L 117.76 103.79 L 117.58 104.37 L 117.31 104.97 L 116.98 105.56 L 116.64 106.15 L 116.22 106.73 L 115.73 107.28 L 115.23 107.82 L 114.66 108.34 L 114.01 108.79 L 113.36 109.24 L 112.63 109.63 L 111.82 109.94 L 111.42 110.09 L 111.00 110.22 L 110.55 110.33 L 110.11 110.44 L 109.65 110.52 L 109.17 110.57 L 108.68 110.63 L 108.18 110.65 L 107.66 110.64 L 107.14 110.64 L 106.59 110.60 L 106.03 110.53 L 105.47 110.45 L 104.89 110.35 L 104.29 110.20 L 103.69 110.06 L 103.07 109.87 L 102.43 109.65 L 103.89 111.28 L 104.53 111.44 L 105.15 111.55 L 105.75 111.64 L 106.34 111.72 L 106.92 111.77 L 107.47 111.78 L 108.02 111.80 L 108.55 111.78 L 109.05 111.74 L 109.56 111.70 L 110.04 111.62 L 110.51 111.53 L 111.43 111.33 L 112.27 111.03 L 113.03 110.66 L 113.79 110.28 L 114.46 109.83 L 115.05 109.33 L 115.64 108.83 L 116.15 108.28 L 116.58 107.70 L 117.01 107.12 L 117.36 106.52 L 117.64 105.91 L 117.91 105.31 L 118.11 104.70 L 118.24 104.13 L 118.36 103.55 L 118.42 102.99 L 118.40 102.49 L 118.74 102.80 L 118.80 103.29 L 118.80 103.83 L 118.73 104.41 L 118.66 104.98 L 118.52 105.59 L 118.31 106.20 L 118.09 106.81 L 117.80 107.43 L 117.44 108.03 L 117.07 108.63 L 116.63 109.22 L 116.10 109.76 L 115.57 110.30 L 114.96 110.80 L 114.26 111.24 L 113.56 111.67 L 112.77 112.04 L 111.89 112.32 L 111.45 112.46 L 110.99 112.58 L 110.50 112.67 L 110.01 112.76 L 109.50 112.83 L 108.97 112.86 L 108.43 112.90 L 107.87 112.91 L 107.29 112.89 L 106.70 112.86 L 106.10 112.81 L 105.46 112.72 L 107.11 113.96 L 107.73 113.99 L 108.32 113.98 L 108.89 113.95 L 109.46 113.92 L 110.00 113.85 L 110.52 113.77 L 111.03 113.68 L 111.52 113.57 L 111.98 113.43 L 112.45 113.30 L 112.89 113.14 L 113.30 112.97 L 114.13 112.61 L 114.86 112.18 L 115.50 111.69 L 116.14 111.20 L 116.69 110.66 L 117.15 110.08 L 117.61 109.50 L 117.99 108.89 L 118.30 108.28 L 118.60 107.66 L 118.82 107.03 L 118.98 106.41 L 119.13 105.80 L 119.22 105.20 L 119.23 104.64 L 119.25 104.07 L 119.21 103.54 L 119.11 103.08 L 119.48 103.31 L 119.62 103.75 L 119.71 104.26 L 119.74 104.81 L 119.77 105.36 L 119.74 105.95 L 119.65 106.56 L 119.55 107.17 L 119.39 107.80 L 119.15 108.43 L 118.91 109.06 L 118.59 109.69 L 118.19 110.29 L 117.79 110.90 L 117.31 111.48 L 116.73 112.01 L 116.16 112.55 L 115.49 113.04 L 114.72 113.46 L 114.33 113.67 L 113.92 113.86 L 113.48 114.04 L 113.05 114.21 L 112.58 114.37 L 112.09 114.50 L 111.60 114.63 L 111.08 114.74 L 110.54 114.83 L 109.99 114.91 L 109.41 114.97 L 108.81 115.00 L 110.55 115.86 L 111.13 115.77 L 111.68 115.66 L 112.21 115.53 L 112.73 115.39 L 113.22 115.24 L 113.68 115.06 L 114.15 114.89 L 114.58 114.70 L 114.99 114.49 L 115.40 114.28 L 115.78 114.05 L 116.13 113.81 L 116.84 113.33 L 117.45 112.79 L 117.96 112.22 L 118.47 111.64 L 118.89 111.03 L 119.22 110.41 L 119.56 109.79 L 119.81 109.15 L 119.98 108.51 L 120.16 107.88 L 120.27 107.25 L 120.31 106.65 L 120.35 106.04 L 120.32 105.46 L 120.25 104.93 L 120.17 104.40 L 120.04 103.92 L 119.86 103.50 L 120.25 103.64 L 120.46 104.04 L 120.62 104.50 L 120.74 105.01 L 120.86 105.52 L 120.94 106.08 L 120.95 106.67 L 120.96 107.26 L 120.92 107.88 L 120.80 108.51 L 120.68 109.15 L 120.50 109.79 L 120.23 110.43 L 119.96 111.07 L 119.60 111.70 L 119.16 112.30 L 118.71 112.91 L 118.17 113.49 L 117.53 114.02 L 116.88 114.55 L 116.14 115.04 L 115.27 115.47 L 114.84 115.68 L 114.37 115.88 L 113.88 116.05 L 113.39 116.23 L 112.86 116.39 L 112.31 116.53 L 114.07 117.02 L 114.59 116.83 L 115.08 116.63 L 115.55 116.41 L 116.01 116.19 L 116.44 115.96 L 116.84 115.71 L 117.64 115.22 L 118.32 114.68 L 118.90 114.10 L 119.48 113.53 L 119.95 112.91 L 120.33 112.28 L 120.71 111.65 L 120.99 111.01 L 121.20 110.36 L 121.40 109.72 L 121.53 109.07 L 121.59 108.44 L 121.65 107.82 L 121.64 107.21 L 121.57 106.63 L 121.51 106.06 L 121.39 105.52 L 121.23 105.03 L 121.07 104.55 L 120.87 104.12 L 120.64 103.75 L 121.02 103.82 L 121.28 104.15 L 121.51 104.56 L 121.71 105.02 L 121.90 105.48 L 122.06 105.99 L 122.17 106.55 L 122.29 107.10 L 122.35 107.69 L 122.34 108.31 L 122.34 108.93 L 122.28 109.57 L 122.13 110.21 L 121.99 110.86 L 121.77 111.52 L 121.45 112.16 L 121.14 112.81 L 120.74 113.45 L 120.23 114.06 L 119.72 114.68 L 119.11 115.27 L 118.38 115.82 L 118.01 116.09 L 117.61 116.36 L 117.19 116.61 L 116.76 116.86 L 116.30 117.10 L 115.81 117.33 L 117.52 117.48 L 117.97 117.21 L 118.40 116.94 L 118.79 116.66 L 119.18 116.37 L 119.54 116.08 L 119.87 115.78 L 120.53 115.18 L 121.08 114.55 L 121.51 113.91 L 121.95 113.26 L 122.29 112.61 L 122.53 111.95 L 122.78 111.29 L 122.94 110.63 L 123.02 109.99 L 123.10 109.34 L 123.11 108.71 L 123.06 108.11 L 123.01 107.51 L 122.90 106.94 L 122.75 106.41 L 122.59 105.88 L 122.39 105.39 L 122.16 104.96 L 121.94 104.53 L 121.68 104.16 L 121.40 103.85 L 121.77 103.85 L 122.06 104.12 L 122.34 104.47 L 122.60 104.87 L 122.86 105.27 L 123.10 105.72 L 123.29 106.23 L 123.49 106.73 L 123.64 107.28 L 123.74 107.86 L 123.84 108.45 L 123.89 109.06 L 123.86 109.70 L 123.84 110.33 L 123.74 110.99 L 123.56 111.65 L 123.38 112.31 L 123.11 112.98 L 122.74 113.65 L 122.37 114.31 L 121.90 114.97 L 121.32 115.61 L 121.02 115.93 L 120.70 116.25 L 120.34 116.56 L 119.99 116.87 L 119.60 117.18 L 119.19 117.47 L 120.80 117.32 L 121.18 117.00 L 121.52 116.67 L 121.84 116.33 L 122.15 116.00 L 122.44 115.67 L 122.70 115.33 L 123.21 114.65 L 123.61 113.97 L 123.91 113.29 L 124.21 112.61 L 124.41 111.93 L 124.53 111.27 L 124.65 110.61 L 124.68 109.96 L 124.65 109.34 L 124.62 108.72 L 124.53 108.12 L 124.38 107.56 L 124.23 107.00 L 124.03 106.48 L 123.80 106.01 L 123.57 105.53 L 123.30 105.11 L 123.02 104.74 L 122.73 104.37 L 122.43 104.06 L 122.12 103.82 L 122.47 103.76 L 123.10 104.17 L 123.75 104.86 L 124.28 105.75 L 124.54 106.19 L 124.78 106.69 L 124.97 107.22 L 125.16 107.75 L 125.30 108.33 L 125.39 108.93 L 125.47 109.53 L 125.49 110.17 L 125.43 110.82 L 125.37 111.48 L 125.24 112.16 L 125.01 112.84 L 124.77 113.53 L 124.45 114.23 L 124.01 114.93 L 123.57 115.64 L 123.02 116.34 L 122.34 117.04 L 123.81 116.63 L 124.41 115.89 L 124.88 115.16 L 125.25 114.44 L 125.61 113.72 L 125.87 113.01 L 126.03 112.32 L 126.20 111.63 L 126.27 110.96 L 126.27 110.32 L 126.27 109.67 L 126.20 109.05 L 126.06 108.47 L 125.93 107.89 L 125.74 107.34 L 125.51 106.84 L 125.28 106.34 L 125.01 105.87 L 124.71 105.46 L 124.12 104.64 L 123.44 104.02 L 122.79 103.67 L 123.10 103.55 L 123.75 103.85 L 124.47 104.39 L 125.11 105.15 L 125.44 105.53 L 125.74 105.95 L 126.00 106.43 L 126.27 106.90 L 126.50 107.42 L 126.68 107.97 L 126.86 108.53 L 126.98 109.13 L 127.04 109.75 L 127.09 110.38 L 127.08 111.04 L 126.98 111.73 L 126.88 112.41 L 126.69 113.13 L 126.40 113.86 L 126.11 114.59 L 125.72 115.34 L 125.20 116.11 L 126.50 115.49 L 126.93 114.70 L 127.25 113.94 L 127.47 113.20 L 127.69 112.46 L 127.81 111.75 L 127.85 111.08 L 127.89 110.40 L 127.85 109.75 L 127.74 109.15 L 127.63 108.54 L 127.46 107.97 L 127.24 107.44 L 127.02 106.91 L 126.75 106.43 L 126.45 105.99 L 126.15 105.55 L 125.82 105.15 L 125.48 104.81 L 124.79 104.13 L 124.05 103.65 L 123.38 103.42 L 123.65 103.26 L 124.31 103.43 L 125.07 103.84 L 125.80 104.45 L 126.16 104.76 L 126.52 105.12 L 126.84 105.52 L 127.17 105.93 L 127.47 106.38 L 127.73 106.88 L 127.99 107.38 L 128.21 107.92 L 128.36 108.50 L 128.52 109.09 L 128.62 109.71 L 128.64 110.37 L 128.66 111.04 L 128.60 111.74 L 128.45 112.47 L 128.30 113.21 L 128.06 113.98 L 127.71 114.78 L 128.82 113.99 L 129.09 113.18 L 129.26 112.42 L 129.34 111.69 L 129.43 110.96 L 129.42 110.27 L 129.34 109.63 L 129.27 108.98 L 129.12 108.38 L 128.92 107.83 L 128.72 107.27 L 128.46 106.76 L 128.17 106.29 L 127.87 105.83 L 127.54 105.41 L 127.19 105.04 L 126.84 104.67 L 126.46 104.35 L 126.08 104.08 L 125.33 103.54 L 124.55 103.21 L 123.89 103.09 L 124.12 102.90 L 124.77 102.96 L 125.55 103.23 L 126.33 103.70 L 126.72 103.93 L 127.11 104.22 L 127.48 104.55 L 127.86 104.88 L 128.22 105.26 L 128.54 105.69 L 128.87 106.12 L 129.16 106.60 L 129.40 107.13 L 129.65 107.65 L 129.84 108.23 L 129.97 108.85 L 130.10 109.47 L 130.16 110.14 L 130.14 110.85 L 130.12 111.57 L 130.02 112.33 L 129.82 113.14 L 130.73 112.23 L 130.86 111.43 L 130.89 110.68 L 130.85 109.98 L 130.81 109.28 L 130.69 108.64 L 130.51 108.04 L 130.33 107.45 L 130.10 106.90 L 129.81 106.41 L 129.53 105.92 L 129.21 105.47 L 128.86 105.08 L 128.50 104.69 L 128.12 104.34 L 127.73 104.05 L 127.34 103.75 L 126.94 103.51 L 126.54 103.31 L 125.74 102.91 L 124.95 102.71 L 124.32 102.70 L 124.49 102.49 L 125.12 102.45 L 125.90 102.59 L 126.71 102.91 L 127.11 103.08 L 127.53 103.28 L 127.93 103.54 L 128.34 103.80 L 128.74 104.11 L 129.11 104.46 L 129.49 104.82 L 129.84 105.22 L 130.16 105.68 L 130.47 106.14 L 130.75 106.65 L 130.97 107.22 L 131.19 107.78 L 131.36 108.40 L 131.46 109.08 L 131.56 109.75 L 131.59 110.49 L 131.54 111.28 L 132.24 110.29 L 132.23 109.51 L 132.14 108.80 L 131.99 108.16 L 131.83 107.51 L 131.62 106.92 L 131.35 106.38 L 131.09 105.85 L 130.78 105.37 L 130.43 104.95 L 130.09 104.53 L 129.71 104.16 L 129.32 103.84 L 128.92 103.52 L 128.51 103.26 L 128.09 103.04 L 127.67 102.82 L 127.25 102.64 L 126.84 102.52 L 126.02 102.26 L 125.25 102.19 L 124.65 102.27 L 124.78 102.04 L 125.36 101.92 L 126.12 101.94 L 126.94 102.12 L 127.35 102.22 L 127.77 102.35 L 128.20 102.53 L 128.62 102.72 L 129.05 102.95 L 129.46 103.23 L 129.87 103.50 L 130.27 103.84 L 130.64 104.22 L 131.01 104.61 L 131.36 105.04 L 131.66 105.54 L 131.96 106.04 L 132.22 106.60 L 132.42 107.22 L 132.62 107.84 L 132.77 108.52 L 132.84 109.27 L 133.35 108.24 L 133.21 107.51 L 133.02 106.86 L 132.77 106.28 L 132.52 105.69 L 132.22 105.17 L 131.89 104.70 L 131.56 104.24 L 131.18 103.84 L 130.79 103.49 L 130.40 103.15 L 129.98 102.86 L 129.56 102.62 L 128.71 102.13 L 127.82 101.85 L 127.01 101.73 L 126.19 101.61 L 125.45 101.65 L 124.89 101.82 L 124.98 101.59 L 125.52 101.39 L 126.24 101.29 L 127.04 101.35 L 127.84 101.40 L 128.73 101.61 L 129.60 102.02 L 130.04 102.22 L 130.47 102.47 L 130.88 102.78 L 131.29 103.09 L 131.68 103.45 L 132.05 103.87 L 132.41 104.30 L 132.74 104.78 L 133.03 105.33 L 133.32 105.89 L 133.57 106.50 L 133.76 107.20 L 134.07 106.15 L 133.83 105.50 L 133.54 104.91 L 133.22 104.40 L 132.89 103.89 L 132.53 103.44 L 132.14 103.05 L 131.75 102.67 L 131.34 102.35 L 130.91 102.08 L 130.48 101.81 L 130.04 101.60 L 129.60 101.43 L 128.72 101.10 L 127.84 100.97 L 127.04 100.97 L 126.25 100.98 L 125.56 101.12 L 125.05 101.36 L 125.10 101.13 L 125.58 100.87 L 126.25 100.67 L 127.02 100.61 L 127.79 100.55 L 128.67 100.61 L 129.56 100.87 L 130.00 100.99 L 130.45 101.17 L 130.89 101.40 L 131.32 101.63 L 131.75 101.91 L 132.16 102.25 L 132.57 102.60 L 132.96 103.00 L 133.32 103.48 L 133.68 103.95 L 134.01 104.50 L 134.29 105.12 L 134.43 104.10 L 134.10 103.52 L 133.74 103.01 L 133.36 102.58 L 132.97 102.14 L 132.55 101.78 L 132.13 101.47 L 131.70 101.17 L 131.26 100.93 L 130.81 100.74 L 130.37 100.55 L 129.91 100.41 L 129.47 100.32 L 128.58 100.14 L 127.72 100.14 L 126.97 100.26 L 126.22 100.38 L 125.58 100.61 L 125.13 100.90 L 125.14 100.68 L 125.56 100.37 L 126.17 100.09 L 126.89 99.92 L 127.62 99.75 L 128.46 99.68 L 129.35 99.79 L 129.79 99.85 L 130.24 99.95 L 130.69 100.10 L 131.14 100.25 L 131.59 100.45 L 132.03 100.72 L 132.48 100.98 L 132.91 101.31 L 133.32 101.70 L 133.73 102.09 L 134.12 102.56 L 134.49 103.10 L 134.47 102.12 L 134.07 101.62 L 133.65 101.20 L 133.22 100.85 L 132.79 100.50 L 132.34 100.22 L 131.89 99.99 L 131.44 99.77 L 130.98 99.60 L 130.53 99.49 L 130.07 99.38 L 129.62 99.32 L 129.19 99.29 L 128.32 99.25 L 127.49 99.38 L 126.80 99.60 L 126.10 99.82 L 125.52 100.13 L 125.14 100.47 L 125.12 100.26 L 125.47 99.90 L 126.01 99.56 L 126.68 99.29 L 127.34 99.03 L 128.14 98.84 L 129.00 98.82 L 129.43 98.81 L 129.87 98.84 L 130.32 98.91 L 130.77 98.99 L 131.23 99.11 L 131.69 99.30 L 132.15 99.48 L 132.61 99.72 L 133.06 100.03 L 133.51 100.34 L 133.95 100.72 L 134.37 101.17 L 134.21 100.26 L 133.76 99.85 L 133.30 99.52 L 132.84 99.25 L 132.38 98.98 L 131.91 98.78 L 131.45 98.64 L 130.53 98.35 L 129.62 98.29 L 128.78 98.37 L 127.94 98.46 L 127.17 98.69 L 126.54 99.00 L 125.90 99.31 L 125.40 99.69 L 125.08 100.06 L 125.03 99.87 L 125.32 99.48 L 125.78 99.08 L 126.38 98.73 L 126.98 98.39 L 127.72 98.10 L 128.53 97.95 L 129.35 97.81 L 130.24 97.80 L 131.17 98.01 L 131.63 98.12 L 132.10 98.28 L 132.57 98.51 L 133.05 98.73 L 133.52 99.02 L 133.99 99.39 L 133.70 98.56 L 133.22 98.24 L 132.74 97.99 L 132.26 97.80 L 131.78 97.62 L 131.31 97.50 L 130.85 97.43 L 129.93 97.29 L 129.05 97.36 L 128.26 97.57 L 127.48 97.77 L 126.78 98.10 L 126.21 98.48 L 125.65 98.86 L 125.22 99.29 L 124.97 99.68 L 124.90 99.51 L 125.12 99.11 L 125.51 98.66 L 126.03 98.25 L 126.56 97.83 L 127.22 97.46 L 127.98 97.21 L 128.73 96.95 L 129.59 96.82 L 130.50 96.88 L 130.95 96.91 L 131.42 97.00 L 131.90 97.14 L 132.38 97.29 L 132.87 97.49 L 133.37 97.77 L 132.99 97.03 L 132.48 96.79 L 131.99 96.63 L 131.51 96.53 L 131.03 96.42 L 130.56 96.37 L 130.12 96.37 L 129.22 96.38 L 128.39 96.57 L 127.67 96.88 L 126.95 97.18 L 126.33 97.59 L 125.84 98.03 L 125.35 98.47 L 125.00 98.94 L 124.81 99.34 L 124.72 99.19 L 124.87 98.78 L 125.19 98.30 L 125.64 97.84 L 126.08 97.37 L 126.66 96.93 L 127.35 96.58 L 128.04 96.23 L 128.83 95.98 L 129.71 95.91 L 130.15 95.87 L 130.61 95.89 L 131.08 95.95 L 131.56 96.02 L 132.06 96.14 L 132.56 96.33 L 132.10 95.69 L 131.59 95.54 L 131.10 95.46 L 130.63 95.43 L 130.16 95.40 L 129.71 95.42 L 128.43 95.62 L 127.67 95.92 L 127.02 96.31 L 126.37 96.70 L 125.83 97.18 L 125.42 97.66 L 125.02 98.15 L 124.74 98.64 L 124.62 99.05 L 124.51 98.92 L 124.60 98.51 L 124.84 98.01 L 125.21 97.51 L 125.57 97.00 L 126.07 96.50 L 126.68 96.07 L 127.29 95.64 L 128.01 95.29 L 128.84 95.10 L 129.25 95.01 L 129.69 94.95 L 130.15 94.95 L 130.61 94.94 L 131.10 94.99 L 131.61 95.09 L 131.08 94.55 L 130.58 94.48 L 130.10 94.47 L 129.65 94.51 L 129.20 94.55 L 128.78 94.64 L 128.38 94.76 L 127.58 95.00 L 126.90 95.40 L 126.33 95.86 L 125.76 96.32 L 125.31 96.85 L 124.98 97.37 L 124.66 97.89 L 124.46 98.39 L 124.39 98.80 L 124.27 98.69 L 124.31 98.29 L 124.47 97.78 L 124.76 97.25 L 125.04 96.72 L 125.45 96.17 L 125.98 95.68 L 126.50 95.19 L 127.15 94.75 L 127.91 94.46 L 128.67 94.16 L 129.55 94.00 L 130.54 94.06 L 129.97 93.62 L 129.00 93.63 L 128.16 93.85 L 127.43 94.19 L 126.71 94.54 L 126.10 95.01 L 125.62 95.53 L 125.14 96.05 L 124.78 96.62 L 124.53 97.15 L 124.29 97.69 L 124.16 98.20 L 124.15 98.59 L 124.02 98.51 L 124.01 98.12 L 124.10 97.61 L 124.30 97.07 L 124.51 96.53 L 124.83 95.95 L 125.27 95.40 L 125.70 94.86 L 126.26 94.36 L 126.95 93.97 L 127.63 93.58 L 128.45 93.31 L 129.39 93.23 L 128.80 92.89 L 127.88 93.03 L 127.11 93.36 L 126.46 93.79 L 125.82 94.21 L 125.30 94.75 L 124.91 95.31 L 124.52 95.87 L 124.24 96.46 L 124.08 97.01 L 123.91 97.55 L 123.85 98.05 L 123.89 98.43 L 123.76 98.37 L 123.70 98.00 L 123.72 97.50 L 123.85 96.96 L 123.98 96.41 L 124.21 95.81 L 124.56 95.24 L 124.91 94.66 L 125.38 94.10 L 125.98 93.64 L 126.58 93.17 L 127.32 92.80 L 128.21 92.59 L 127.61 92.35 L 126.75 92.61 L 126.06 93.03 L 125.50 93.52 L 124.94 94.02 L 124.52 94.60 L 124.21 95.19 L 123.91 95.78 L 123.72 96.38 L 123.63 96.92 L 123.54 97.47 L 123.54 97.95 L 123.63 98.31 L 123.49 98.27 L 123.39 97.92 L 123.36 97.45 L 123.41 96.91 L 123.47 96.37 L 123.61 95.76 L 123.87 95.17 L 124.13 94.57 L 124.51 93.97 L 125.02 93.45 L 125.53 92.92 L 126.19 92.47 L 127.00 92.15 L 126.40 92.00 L 125.63 92.36 L 125.02 92.85 L 124.55 93.40 L 124.08 93.95 L 123.75 94.56 L 123.54 95.16 L 123.32 95.77 L 123.22 96.37 L 123.20 96.90 L 123.18 97.44 L 123.24 97.90 L 123.36 98.24 L 123.23 98.21 L 123.09 97.89 L 123.00 97.44 L 122.99 96.91 L 122.97 96.39 L 123.04 95.79 L 123.21 95.18 L 123.39 94.58 L 123.67 93.96 L 124.09 93.39 L 124.51 92.82 L 125.08 92.30 L 125.81 91.89 L 125.23 91.82 L 124.54 92.27 L 124.02 92.81 L 123.64 93.40 L 123.27 93.99 L 123.03 94.62 L 122.90 95.22 L 122.76 95.83 L 122.74 96.42 L 122.78 96.94 L 122.83 97.45 L 122.95 97.89 L 123.10 98.20 L 122.97 98.19 L 122.80 97.90 L 122.66 97.48 L 122.59 96.97 L 122.51 96.47 L 122.50 95.89 L 122.59 95.28 L 122.68 94.68 L 122.87 94.04 L 123.21 93.44 L 123.54 92.84 L 124.01 92.27 L 124.65 91.79 L 124.09 91.79 L 123.49 92.31 L 123.07 92.90 L 122.78 93.51 L 122.50 94.12 L 122.35 94.76 L 122.30 95.36 L 122.25 95.96 L 122.29 96.53 L 122.40 97.02 L 122.50 97.51 L 122.67 97.92 L 122.85 98.19 L 122.73 98.20 L 122.53 97.94 L 122.35 97.55 L 122.22 97.08 L 122.08 96.60 L 122.00 96.04 L 122.02 95.45 L 122.03 94.86 L 122.13 94.23 L 122.37 93.61 L 122.61 92.99 L 122.99 92.38 L 123.54 91.84 L 123.01 91.91 L 122.51 92.48 L 122.18 93.10 L 121.98 93.72 L 121.79 94.35 L 121.72 94.97 L 121.75 95.56 L 121.77 96.14 L 121.88 96.69 L 122.04 97.14 L 122.20 97.60 L 122.41 97.97 L 122.61 98.22 L 122.50 98.24 L 122.28 98.01 L 122.06 97.66 L 121.88 97.22 L 121.69 96.78 L 121.55 96.25 L 121.49 95.68 L 121.43 95.10 L 121.45 94.48 L 121.61 93.86 L 121.76 93.24 L 122.04 92.61 L 122.50 92.02 L 122.00 92.15 L 121.60 92.76 L 121.36 93.39 L 121.25 94.02 L 121.14 94.64 L 121.15 95.25 L 121.25 95.81 L 121.34 96.37 L 121.51 96.88 L 121.72 97.30 L 121.93 97.73 L 122.17 98.06 L 122.39 98.27 L 122.29 98.31 L 121.82 97.92 L 121.27 97.05 L 121.02 95.95 L 120.89 95.41 L 120.84 94.81 L 120.91 94.19 L 120.98 93.57 L 121.17 92.94 L 121.53 92.31 L 121.08 92.50 L 120.76 93.13 L 120.62 93.77 L 120.59 94.38 L 120.56 94.99 L 120.65 95.58 L 120.80 96.11 L 121.12 97.17 L 121.71 98.00 L 122.19 98.35 L 122.09 98.39 L 121.60 98.08 L 120.98 97.29 L 120.60 96.27 L 120.42 95.76 L 120.29 95.19 L 120.29 94.59 L 120.28 93.98 L 120.38 93.35 L 120.65 92.71 L 120.24 92.94 L 120.02 93.58 L 119.96 94.21 L 120.00 94.80 L 120.05 95.40 L 120.20 95.95 L 120.42 96.44 L 120.84 97.42 L 121.51 98.16 L 122.00 98.44 L 121.92 98.50 L 121.42 98.25 L 120.72 97.56 L 120.24 96.62 L 120.01 96.15 L 119.82 95.61 L 119.74 95.03 L 119.66 94.45 L 119.68 93.83 L 119.86 93.19 L 119.50 93.46 L 119.37 94.10 L 119.38 94.71 L 119.50 95.27 L 119.61 95.83 L 119.82 96.35 L 120.09 96.80 L 120.61 97.70 L 121.33 98.34 L 121.84 98.56 L 121.76 98.62 L 121.25 98.43 L 120.51 97.84 L 119.94 96.99 L 119.66 96.56 L 119.42 96.07 L 119.27 95.52 L 119.12 94.97 L 119.07 94.37 L 119.17 93.74 L 118.85 94.03 L 118.80 94.66 L 118.89 95.24 L 119.07 95.77 L 119.24 96.30 L 119.51 96.77 L 119.81 97.18 L 120.42 97.99 L 121.18 98.52 L 121.70 98.68 L 121.63 98.75 L 121.12 98.62 L 120.34 98.14 L 119.70 97.37 L 119.37 96.99 L 119.08 96.54 L 118.88 96.03 L 118.67 95.52 L 118.55 94.95 L 118.57 94.33 L 118.30 94.64 L 118.33 95.25 L 118.48 95.81 L 118.71 96.30 L 118.94 96.78 L 119.25 97.21 L 119.59 97.57 L 120.27 98.28 L 121.07 98.72 L 121.57 98.82 L 121.52 98.89 L 121.02 98.82 L 120.21 98.43 L 119.50 97.77 L 119.15 97.43 L 118.82 97.03 L 118.56 96.56 L 118.31 96.09 L 118.12 95.56 L 118.07 94.96 L 117.85 95.29 L 117.94 95.87 L 118.15 96.39 L 118.43 96.83 L 118.71 97.28 L 119.06 97.65 L 119.43 97.96 L 120.16 98.58 L 120.97 98.92 L 121.47 98.96 L 121.43 99.03 L 120.94 99.01 L 120.12 98.73 L 119.36 98.16 L 118.98 97.88 L 118.62 97.52 L 118.32 97.10 L 118.02 96.68 L 117.78 96.19 L 117.66 95.62 L 117.49 95.95 L 117.64 96.50 L 117.90 96.97 L 118.22 97.37 L 118.54 97.77 L 118.92 98.10 L 119.31 98.36 L 120.09 98.87 L 120.91 99.11 L 121.39 99.11 L 121.36 99.18 L 120.88 99.21 L 120.06 99.02 L 119.27 98.55 L 118.87 98.32 L 118.48 98.02 L 118.14 97.64 L 117.81 97.27 L 117.52 96.82 L 117.34 96.29 L 117.21 96.63 L 117.42 97.13 L 117.73 97.56 L 118.08 97.91 L 118.43 98.26 L 118.83 98.53 L 119.24 98.74 L 120.05 99.16 L 120.87 99.31 L 121.33 99.26 L 121.31 99.33 L 120.85 99.41 L 120.04 99.30 L 119.22 98.93 L 118.81 98.75 L 118.40 98.50 L 118.03 98.17 L 117.67 97.85 L 117.34 97.45 L 117.11 96.96 L 117.02 97.29 L 117.28 97.76 L 117.62 98.13 L 118.00 98.43 L 118.38 98.73 L 118.80 98.96 L 119.21 99.12 L 120.04 99.44 L 120.84 99.50 L 121.29 99.40 L 121.28 99.48 L 120.84 99.59 L 120.04 99.57 L 119.21 99.30 L 118.80 99.16 L 118.37 98.97 L 117.98 98.69 L 117.59 98.42 L 117.24 98.07 L 116.96 97.62 L 116.91 97.95 L 117.21 98.37 L 117.58 98.69 L 117.98 98.94 L 118.38 99.19 L 118.80 99.37 L 119.22 99.48 L 120.06 99.70 L 120.84 99.68 L 121.27 99.55 L 121.26 99.62 L 120.85 99.77 L 120.07 99.83 L 119.24 99.65 L 118.82 99.56 L 118.39 99.41 L 117.99 99.19 L 117.58 98.97 L 117.20 98.67 L 116.88 98.27 L 116.87 98.59 L 117.54 99.33 L 118.44 99.69 L 119.27 99.82 L 120.10 99.95 L 120.86 99.86 L 121.26 99.69 L 121.26 99.76 L 120.88 99.94 L 120.13 100.07 L 119.30 99.99 L 118.48 99.90 L 117.57 99.59 L 116.88 98.90 L 116.90 99.20 L 117.62 99.84 L 118.53 100.10 L 119.35 100.14 L 120.17 100.19 L 120.90 100.03 L 121.26 99.82 L 121.27 99.89 L 120.92 100.10 L 120.21 100.30 L 119.39 100.30 L 118.58 100.29 L 117.67 100.09 L 116.93 99.50 L 116.98 99.78 L 117.74 100.32 L 118.65 100.48 L 119.45 100.45 L 120.25 100.41 L 120.95 100.18 L 121.28 99.95 L 121.29 100.00 L 121.27 99.88 L 121.26 99.75 L 121.26 99.62 L 121.28 99.48 L 121.31 99.35 L 121.35 99.21 L 121.41 99.08 L 121.48 98.95 L 121.57 98.83 L 121.67 98.71 L 121.79 98.60 L 121.92 98.50 L 122.06 98.41 L 122.21 98.33 L 122.38 98.27 L 122.55 98.23 L 122.73 98.20 L 122.92 98.19 L 123.12 98.20 L 123.31 98.23 L 123.51 98.27 L 123.71 98.34 L 123.90 98.44 L 124.08 98.55 L 124.26 98.68 L 124.43 98.84 L 124.59 99.01 L 124.73 99.21 L 124.85 99.42 L 124.96 99.65 L 125.04 99.89 L 125.10 100.15 L 125.14 100.42 L 125.14 100.70 L 125.12 100.98 L 125.07 101.27 L 124.99 101.56 L 124.88 101.84 L 124.74 102.12 L 124.56 102.39 L 124.36 102.65 L 124.12 102.89 L 123.86 103.11 L 123.57 103.31 L 123.25 103.48 L 122.91 103.63 L 122.55 103.74 L 122.16 103.81 L 121.77 103.85 L 121.36 103.85 L 120.94 103.81 L 120.52 103.72 L 120.11 103.59 L 119.69 103.42 L 119.29 103.20 L 118.90 102.93 L 118.53 102.62 L 118.19 102.26 L 117.87 101.87 L 117.59 101.43 L 117.35 100.95 L 117.16 100.45 L 117.01 99.91 L 116.91 99.34 L 116.87 98.76 L 116.89 98.16 L 116.97 97.55 L 117.11 96.94 L 117.32 96.33 L 117.60 95.73 L 117.94 95.15 L 118.35 94.59 L 118.82 94.06 L 119.36 93.57 L 119.96 93.12 L 120.61 92.73 L 121.32 92.40 L 122.07 92.13 L 122.87 91.94 L 123.70 91.82 L 124.56 91.78 L 125.44 91.84 L 126.33 91.98 L 127.23 92.22 L 128.11 92.55 L 128.98 92.98 L 129.83 93.51 L 130.63 94.14 L 131.39 94.86 L 132.08 95.67 L 132.71 96.56 L 133.26 97.54 L 133.72 98.59 L 134.08 99.71 L 134.33 100.89 L 134.47 102.12 L 134.48 103.38 L 134.36 104.67 L 134.11 105.98 L 133.73 107.28 L 133.20 108.57 L 132.53 109.83 L 131.72 111.04 L 130.76 112.19 L 129.68 113.27 L 128.46 114.26 L 127.11 115.15 L 125.65 115.91 L 124.09 116.54 L 122.42 117.02 L 120.68 117.34 L 118.87 117.49 L 117.02 117.45 L 115.13 117.23 L 113.22 116.80 L 111.33 116.18 L 109.46 115.35 L 107.64 114.31 L 105.89 113.06 L 104.23 111.62 L 102.69 109.97 L 101.29 108.14 L 100.05 106.12 L 98.99 103.95 L 98.14 101.62 L 97.50 99.16 L 97.11 96.59 L 96.97 93.92 L 97.04 92.56 L 97.10 91.20 L 97.31 89.81 L 97.51 88.43 L 97.86 87.04 L 98.21 85.65 L 98.71 84.27 L 99.21 82.89 L 99.87 81.54 L 100.52 80.18 L 101.32 78.87 L 102.12 77.55 L 103.07 76.29 L 104.02 75.04 L 105.12 73.85 L 106.22 72.67 L 107.46 71.57 L 108.70 70.48 L 110.08 69.49 L 111.46 68.50 L 112.96 67.63 L 114.47 66.76 L 116.09 66.03 L 117.71 65.30 L 119.44 64.72 L 121.17 64.14 L 122.99 63.73 L 124.81 63.32 L 126.71 63.08 L 128.60 62.85 L 130.56 62.80 L 132.52 62.76 L 134.52 62.91 L 136.52 63.07 L 138.55 63.43 L 140.57 63.79 L 142.59 64.37 L 144.62 64.94 L 146.62 65.74 L 148.63 66.53 L 150.59 67.54 L 152.56 68.56 L 154.45 69.79 L 156.35 71.03 L 158.16 72.48 L 159.96 73.93 L 161.66 75.60 L 163.35 77.26 L 164.90 79.13 L 166.46 81.00 L 167.85 83.07 L 169.25 85.13 L 170.46 87.38 L 171.67 89.63 L 172.67 92.04 L 173.68 94.45 L 174.45 97.02 L 175.23 99.58 L 175.49 100.93 L 175.76 102.27 L 176.02 103.62 L 176.28 104.97 L 176.42 106.36 L 176.55 107.76 L 176.68 109.16 L 176.81 110.56 L 176.80 112.00 L 176.79 113.44 L 176.78 114.88 L 176.78 116.32 L 176.62 117.78 L 176.46 119.25 L 176.31 120.72 L 176.15 122.18 L 175.84 123.66 L 175.53 125.14 L 175.22 126.62 L 174.91 128.10 L 174.45 129.57 L 173.98 131.05 L 173.52 132.52 L 173.05 134.00 L 172.42 135.45 L 171.80 136.91 L 171.17 138.36 L 170.54 139.82 L 169.76 141.24 L 168.97 142.66 L 168.18 144.08 L 167.40 145.50 L 166.45 146.87 L 165.50 148.23 L 164.55 149.60 L 163.61 150.97 L 162.50 152.26 L 161.40 153.56 L 160.29 154.85 L 159.19 156.15 L 157.93 157.36 L 156.67 158.57 L 155.41 159.77 L 154.15 160.98 L 152.74 162.08 L 151.34 163.19 L 149.93 164.29 L 148.52 165.39 L 146.98 166.37 L 145.43 167.35 L 143.88 168.33 L 142.34 169.31 L 140.66 170.15 L 138.98 170.99 L 137.31 171.83 L 135.63 172.67 L 133.83 173.36 L 132.04 174.04 L 130.24 174.73 L 128.45 175.41 L 126.55 175.93 L 124.65 176.44 L 122.75 176.96 L 120.85 177.47 L 118.86 177.80 L 116.87 178.13 L 114.89 178.46 L 112.90 178.79 L 110.84 178.93 L 108.78 179.06 L 106.72 179.19 L 104.66 179.33 L 102.54 179.25 L 100.43 179.18 L 98.31 179.10 L 96.20 179.03 L 94.05 178.73 L 91.91 178.44 L 89.76 178.15 L 87.61 177.86 L 85.45 177.34 L 83.30 176.82 L 81.14 176.30 L 78.98 175.79 L 76.83 175.04 L 74.69 174.29 L 72.54 173.54 L 70.39 172.79 L 68.28 171.81 L 66.17 170.83 L 64.06 169.85 L 61.94 168.87 L 59.89 167.65 L 57.84 166.43 L 55.79 165.21 L 53.74 164.00 L 51.77 162.55 L 49.80 161.10 L 47.84 159.65 L 45.87 158.20 L 44.01 156.52 L 42.16 154.84 L 40.30 153.16 L 38.44 151.48 L 36.72 149.58 L 35.00 147.68 L 33.28 145.78 L 31.56 143.87 L 30.00 141.76 L 28.45 139.65 L 26.89 137.53 L 25.33 135.42 L 23.95 133.10 L 22.58 130.79 L 21.21 128.48 L 19.84 126.16 L 19.26 124.91 L 18.67 123.66 L 18.09 122.41 L 17.51 121.16 L 16.93 119.91 L 16.35 118.67 L 15.77 117.42 L 15.19 116.17 L 14.72 114.83 L 14.26 113.50 L 13.79 112.17 L 13.33 110.83 L 12.86 109.50 L 12.40 108.17 L 11.93 106.84 L 11.47 105.50 L 11.10 104.13 L 10.73 102.75 L 10.37 101.38 L 10.00 100.00" 
          fill="none" 
          stroke="currentColor" 
          stroke-width="0.5"/>
</svg>