<?xml version="1.0" encoding="UTF-8" standalone="no"?>
<svg width="100%" height="100%" viewBox="0 0 200 200" preserveAspectRatio="xMidYMid meet" xmlns="http://www.w3.org/2000/svg">
    <path d="M 100.00 100.00 L 99.82 100.00 L 99.81 99.94 L 100.00 100.00 L 100.00 100.00 L 99.82 99.88 L 99.85 99.82 L 100.00 100.00 L 100.00 99.99 L 99.91 99.76 L 99.98 99.72 L 100.00 99.99 L 100.00 99.99 L 100.07 99.71 L 100.16 99.72 L 100.01 99.98 L 100.02 99.98 L 100.25 99.77 L 100.33 99.84 L 100.03 99.99 L 100.04 99.99 L 100.39 99.94 L 100.41 100.06 L 100.05 100.01 L 100.05 100.03 L 100.40 100.19 L 100.35 100.32 L 100.05 100.05 L 100.04 100.07 L 100.25 100.43 L 100.12 100.52 L 100.02 100.09 L 99.99 100.10 L 99.96 100.56 L 99.78 100.55 L 99.96 100.11 L 99.92 100.10 L 99.61 100.48 L 99.46 100.37 L 99.88 100.08 L 99.84 100.05 L 99.34 100.20 L 99.28 100.00 L 99.82 100.00 L 99.81 99.94 L 99.28 99.78 L 99.35 99.56 L 99.82 99.88 L 99.85 99.82 L 99.49 99.35 L 99.68 99.20 L 99.91 99.76 L 99.98 99.72 L 99.93 99.10 L 100.21 99.08 L 100.07 99.71 L 100.16 99.72 L 100.49 99.15 L 100.75 99.30 L 100.25 99.77 L 100.33 99.84 L 100.96 99.54 L 101.09 99.83 L 100.39 99.94 L 100.41 100.06 L 101.13 100.17 L 101.07 100.51 L 100.40 100.19 L 100.35 100.32 L 100.90 100.84 L 100.64 101.11 L 100.25 100.43 L 100.12 100.52 L 100.29 101.29 L 99.90 101.37 L 99.96 100.56 L 99.78 100.55 L 99.48 101.32 L 99.09 101.15 L 99.61 100.48 L 99.46 100.37 L 98.74 100.85 L 98.50 100.47 L 99.34 100.20 L 99.28 100.00 L 98.38 100.00 L 98.40 99.51 L 99.28 99.78 L 99.35 99.56 L 98.58 99.03 L 98.89 98.61 L 99.48 99.35 L 99.68 99.20 L 99.34 98.29 L 99.86 98.12 L 99.93 99.10 L 100.21 99.08 L 100.43 98.11 L 101.00 98.27 L 100.49 99.15 L 100.75 99.31 L 101.51 98.60 L 101.91 99.08 L 100.96 99.54 L 101.09 99.83 L 102.15 99.68 L 102.21 100.33 L 101.13 100.17 L 101.07 100.52 L 102.07 101.00 L 101.73 101.60 L 100.90 100.84 L 100.64 101.11 L 101.21 102.10 L 100.56 102.42 L 100.29 101.29 L 99.90 101.37 L 99.80 102.54 L 99.05 102.43 L 99.48 101.32 L 99.09 101.15 L 98.33 102.09 L 97.74 101.55 L 98.74 100.85 L 98.50 100.46 L 97.31 100.82 L 97.12 100.00 L 98.38 100.00 L 98.40 99.51 L 97.18 99.13 L 97.50 98.31 L 98.58 99.03 L 98.89 98.61 L 98.07 97.58 L 98.84 97.06 L 99.33 98.29 L 99.86 98.12 L 99.76 96.78 L 100.73 96.78 L 100.43 98.11 L 100.99 98.27 L 101.69 97.07 L 102.53 97.65 L 101.51 98.60 L 101.90 99.08 L 103.18 98.47 L 103.56 99.45 L 102.15 99.68 L 102.21 100.33 L 103.64 100.55 L 103.39 101.63 L 102.07 101.00 L 101.73 101.60 L 102.81 102.62 L 101.97 103.39 L 101.21 102.10 L 100.56 102.42 L 100.89 103.90 L 99.70 104.07 L 99.80 102.54 L 99.05 102.43 L 98.47 103.87 L 97.36 103.33 L 98.33 102.09 L 97.74 101.55 L 96.42 102.44 L 95.78 101.30 L 97.31 100.82 L 97.12 100.00 L 95.50 99.99 L 95.62 98.66 L 97.18 99.13 L 97.50 98.31 L 96.14 97.36 L 97.02 96.29 L 98.07 97.58 L 98.84 97.06 L 98.24 95.48 L 99.62 95.08 L 99.76 96.78 L 100.73 96.78 L 101.13 95.10 L 102.55 95.56 L 101.69 97.07 L 102.52 97.64 L 103.82 96.46 L 104.78 97.70 L 103.19 98.48 L 103.57 99.46 L 105.34 99.21 L 105.43 100.81 L 103.64 100.55 L 103.39 101.62 L 105.03 102.43 L 104.18 103.85 L 102.82 102.61 L 101.96 103.39 L 102.88 105.01 L 101.31 105.73 L 100.88 103.90 L 99.70 104.07 L 99.55 105.96 L 97.79 105.66 L 98.48 103.88 L 97.36 103.33 L 96.15 104.83 L 94.82 103.54 L 96.42 102.43 L 95.78 101.31 L 93.90 101.87 L 93.52 100.01 L 95.50 99.99 L 95.61 98.66 L 93.71 98.06 L 94.46 96.25 L 96.14 97.37 L 97.03 96.28 L 95.78 94.68 L 97.47 93.58 L 98.24 95.48 L 99.62 95.08 L 99.49 93.01 L 101.57 93.06 L 101.12 95.10 L 102.55 95.56 L 103.61 93.75 L 105.37 95.01 L 103.83 96.46 L 104.78 97.69 L 106.71 96.79 L 107.46 98.86 L 105.34 99.20 L 105.43 100.81 L 107.57 101.15 L 107.01 103.35 L 105.03 102.42 L 104.17 103.86 L 105.77 105.38 L 104.01 106.92 L 102.88 105.01 L 101.32 105.73 L 101.80 107.91 L 99.41 108.21 L 99.55 105.96 L 97.80 105.66 L 96.95 107.77 L 94.73 106.62 L 96.14 104.82 L 94.82 103.54 L 92.90 104.82 L 91.69 102.58 L 93.90 101.87 L 93.52 100.02 L 91.18 99.99 L 91.45 97.39 L 93.71 98.06 L 94.47 96.24 L 92.53 94.88 L 94.27 92.83 L 95.78 94.68 L 97.47 93.58 L 96.61 91.33 L 99.27 90.60 L 99.48 93.01 L 101.56 93.06 L 102.13 90.68 L 104.84 91.61 L 103.63 93.76 L 105.37 95.01 L 107.20 93.34 L 108.94 95.67 L 106.71 96.78 L 107.46 98.86 L 109.95 98.51 L 110.08 101.49 L 107.58 101.14 L 107.00 103.37 L 109.29 104.50 L 107.67 107.10 L 105.77 105.38 L 104.01 106.92 L 105.28 109.17 L 102.41 110.44 L 101.80 107.91 L 99.41 108.21 L 99.19 110.81 L 95.99 110.22 L 96.93 107.76 L 94.73 106.62 L 93.05 108.67 L 90.72 106.35 L 92.90 104.82 L 91.69 102.58 L 89.12 103.35 L 88.48 100.04 L 91.18 100.00 L 91.46 97.37 L 90.16 96.95 L 88.87 96.53 L 90.25 93.37 L 91.38 94.12 L 92.52 94.88 L 94.26 92.83 L 93.42 91.74 L 92.57 90.66 L 95.56 88.77 L 96.08 90.05 L 96.61 91.33 L 99.27 90.60 L 99.18 89.21 L 99.09 87.82 L 102.74 87.95 L 102.45 89.32 L 102.15 90.69 L 104.83 91.61 L 105.55 90.40 L 106.27 89.19 L 109.25 91.38 L 108.22 92.36 L 107.20 93.34 L 108.94 95.67 L 110.23 95.06 L 111.53 94.46 L 112.78 98.03 L 111.36 98.27 L 109.95 98.50 L 110.08 101.51 L 111.50 101.75 L 112.93 101.98 L 111.92 105.72 L 110.60 105.11 L 109.29 104.50 L 107.67 107.09 L 108.73 108.10 L 109.79 109.11 L 106.79 111.69 L 106.04 110.43 L 105.28 109.17 L 102.42 110.43 L 102.73 111.88 L 103.04 113.33 L 98.97 113.78 L 99.07 112.30 L 99.16 110.81 L 96.00 110.22 L 95.44 111.61 L 94.87 112.99 L 91.22 111.06 L 92.14 109.87 L 93.06 108.68 L 90.72 106.36 L 89.46 107.19 L 88.20 108.03 L 86.23 104.29 L 87.68 103.82 L 89.12 103.35 L 88.48 100.01 L 86.95 99.98 L 85.42 99.96 L 85.91 95.68 L 87.39 96.11 L 88.87 96.54 L 90.24 93.38 L 88.97 92.49 L 87.70 91.60 L 90.62 88.24 L 91.60 89.44 L 92.59 90.65 L 95.58 88.76 L 95.03 87.30 L 94.48 85.83 L 98.82 84.68 L 98.96 86.25 L 99.10 87.82 L 102.72 87.95 L 103.09 86.41 L 103.46 84.87 L 107.83 86.42 L 107.05 87.80 L 106.28 89.19 L 109.25 91.39 L 110.44 90.32 L 111.63 89.24 L 114.40 93.02 L 112.96 93.74 L 111.53 94.46 L 112.79 98.07 L 114.39 97.85 L 115.99 97.64 L 116.15 102.42 L 114.54 102.20 L 112.93 101.98 L 111.93 105.71 L 113.39 106.44 L 114.85 107.17 L 112.24 111.29 L 111.02 110.19 L 109.80 109.10 L 106.77 111.70 L 107.57 113.15 L 108.38 114.59 L 103.81 116.55 L 103.41 114.94 L 103.02 113.33 L 99.00 113.78 L 98.86 115.44 L 98.71 117.10 L 93.68 116.13 L 94.27 114.56 L 94.86 112.99 L 91.21 111.05 L 90.14 112.35 L 89.07 113.65 L 85.43 109.98 L 86.82 109.00 L 88.20 108.03 L 86.23 104.29 L 84.60 104.77 L 82.96 105.25 L 82.00 100.01 L 83.71 99.99 L 85.42 99.97 L 85.91 95.68 L 84.28 95.15 L 82.64 94.62 L 84.82 89.71 L 86.26 90.66 L 87.70 91.61 L 90.61 88.24 L 89.55 86.86 L 88.49 85.49 L 93.15 82.61 L 93.81 84.22 L 94.47 85.84 L 98.82 84.69 L 98.71 82.93 L 98.61 81.18 L 104.24 81.43 L 103.87 83.16 L 103.50 84.88 L 107.83 86.41 L 108.74 84.89 L 109.65 83.38 L 114.19 86.78 L 112.91 88.01 L 111.63 89.24 L 114.40 93.02 L 116.02 92.27 L 117.64 91.51 L 119.53 97.05 L 117.76 97.34 L 115.99 97.63 L 116.15 102.41 L 117.93 102.71 L 119.71 103.00 L 118.14 108.68 L 116.50 107.93 L 114.85 107.17 L 112.21 111.33 L 113.52 112.59 L 114.84 113.85 L 110.26 117.73 L 109.32 116.16 L 108.38 114.59 L 103.81 116.55 L 104.19 118.35 L 104.57 120.15 L 98.50 120.79 L 98.61 118.95 L 98.71 117.10 L 93.68 116.13 L 92.97 117.84 L 92.27 119.56 L 86.80 116.61 L 87.94 115.13 L 89.07 113.66 L 85.44 109.98 L 83.87 111.01 L 82.31 112.05 L 79.37 106.37 L 81.16 105.79 L 82.95 105.21 L 82.00 100.02 L 80.11 99.99 L 78.22 99.96 L 79.00 93.57 L 80.82 94.10 L 82.64 94.62 L 84.81 89.71 L 83.25 88.61 L 81.69 87.51 L 86.05 82.54 L 87.27 84.02 L 88.49 85.49 L 93.14 82.61 L 92.47 80.81 L 91.80 79.00 L 98.24 77.34 L 98.42 79.26 L 98.60 81.18 L 104.23 81.43 L 104.70 79.55 L 105.16 77.66 L 111.53 79.96 L 110.59 81.67 L 109.64 83.37 L 114.19 86.78 L 115.65 85.47 L 117.11 84.16 L 121.15 89.74 L 119.39 90.62 L 117.64 91.51 L 119.53 97.04 L 121.49 96.78 L 123.45 96.52 L 123.64 103.52 L 121.68 103.26 L 119.71 103.00 L 118.15 108.68 L 119.93 109.57 L 121.71 110.47 L 117.82 116.52 L 116.33 115.18 L 114.84 113.85 L 110.26 117.72 L 111.24 119.48 L 112.21 121.24 L 105.55 124.07 L 105.07 122.11 L 104.58 120.15 L 98.44 120.79 L 98.25 122.81 L 98.06 124.83 L 90.85 123.38 L 91.56 121.47 L 92.27 119.56 L 86.80 116.61 L 85.50 118.19 L 84.20 119.77 L 78.96 114.43 L 80.64 113.24 L 82.31 112.05 L 79.37 106.38 L 77.39 106.95 L 75.41 107.52 L 74.08 100.04 L 76.15 100.00 L 78.22 99.96 L 78.99 93.57 L 77.02 92.93 L 75.04 92.28 L 78.24 85.17 L 79.98 86.32 L 81.73 87.46 L 86.05 82.54 L 84.77 80.88 L 83.49 79.21 L 90.18 75.12 L 90.98 77.06 L 91.79 79.01 L 98.24 77.34 L 98.11 75.23 L 97.99 73.12 L 106.03 73.51 L 105.59 75.58 L 105.16 77.66 L 111.53 79.96 L 112.63 78.13 L 113.73 76.31 L 120.18 81.18 L 118.64 82.67 L 117.10 84.15 L 121.18 89.79 L 123.13 88.90 L 125.09 88.01 L 127.70 95.79 L 125.57 96.15 L 123.45 96.51 L 123.64 103.51 L 125.78 103.88 L 127.91 104.24 L 125.66 112.27 L 123.69 111.36 L 121.71 110.46 L 117.83 116.51 L 119.40 118.03 L 120.97 119.55 L 114.48 124.99 L 113.35 123.11 L 112.22 121.24 L 105.56 124.07 L 106.01 126.22 L 106.46 128.37 L 97.82 129.23 L 97.94 127.03 L 98.07 124.83 L 90.86 123.38 L 90.01 125.43 L 89.16 127.47 L 81.50 123.30 L 82.85 121.54 L 84.20 119.77 L 78.97 114.43 L 77.10 115.66 L 75.23 116.88 L 71.15 108.93 L 73.28 108.22 L 75.41 107.52 L 74.08 100.05 L 71.83 100.00 L 69.58 99.96 L 70.70 91.05 L 72.87 91.67 L 75.04 92.29 L 78.24 85.18 L 76.39 83.86 L 74.54 82.54 L 80.58 75.72 L 82.04 77.47 L 83.49 79.22 L 90.17 75.12 L 89.38 72.98 L 88.58 70.84 L 97.64 68.54 L 97.85 70.83 L 98.07 73.11 L 106.02 73.51 L 106.58 71.27 L 107.14 69.04 L 115.95 72.26 L 114.83 74.28 L 113.72 76.30 L 120.17 81.18 L 121.90 79.63 L 123.63 78.09 L 129.24 85.90 L 127.16 86.95 L 125.08 88.00 L 127.70 95.78 L 130.02 95.48 L 132.33 95.18 L 132.56 104.83 L 130.24 104.53 L 127.91 104.23 L 125.63 112.34 L 127.73 113.41 L 129.83 114.47 L 124.50 122.68 L 122.73 121.11 L 120.97 119.54 L 114.49 124.98 L 115.63 127.06 L 116.78 129.14 L 107.63 132.98 L 107.05 130.68 L 106.47 128.37 L 97.83 129.23 L 97.60 131.61 L 97.37 133.99 L 87.51 131.97 L 88.34 129.72 L 89.17 127.48 L 81.51 123.31 L 79.97 125.16 L 78.43 127.01 L 71.25 119.61 L 73.22 118.21 L 75.18 116.82 L 71.16 108.93 L 68.82 109.60 L 66.49 110.26 L 64.72 100.07 L 67.15 100.02 L 69.58 99.97 L 70.69 91.06 L 68.38 90.29 L 66.06 89.52 L 70.44 79.88 L 72.49 81.21 L 74.54 82.55 L 80.57 75.72 L 79.08 73.77 L 77.59 71.82 L 86.67 66.30 L 87.62 68.57 L 88.57 70.84 L 97.63 68.54 L 97.50 66.07 L 97.37 63.60 L 108.13 64.18 L 107.63 66.61 L 107.13 69.04 L 115.94 72.25 L 117.23 70.12 L 118.52 67.99 L 127.21 74.60 L 125.42 76.34 L 123.63 78.08 L 129.23 85.89 L 131.52 84.85 L 133.80 83.82 L 137.29 94.31 L 134.81 94.74 L 132.33 95.17 L 132.56 104.82 L 135.05 105.25 L 137.54 105.68 L 134.44 116.57 L 132.14 115.52 L 129.83 114.47 L 124.50 122.67 L 126.33 124.45 L 128.15 126.22 L 119.44 133.49 L 118.11 131.31 L 116.79 129.13 L 107.54 133.01 L 108.05 135.51 L 108.56 138.02 L 97.11 139.12 L 97.24 136.55 L 97.38 133.99 L 87.52 131.98 L 86.52 134.35 L 85.53 136.73 L 75.32 131.13 L 76.88 129.07 L 78.44 127.02 L 71.26 119.62 L 69.08 121.03 L 66.90 122.44 L 61.56 111.92 L 64.03 111.10 L 66.50 110.27 L 64.72 100.08 L 62.11 100.03 L 59.50 99.97 L 61.05 87.99 L 63.57 88.71 L 66.09 89.43 L 70.43 79.89 L 68.29 78.36 L 66.16 76.82 L 74.20 67.78 L 75.89 69.80 L 77.58 71.82 L 86.66 66.30 L 85.75 63.82 L 84.83 61.33 L 96.85 58.32 L 97.11 60.96 L 97.36 63.60 L 108.12 64.17 L 108.77 61.59 L 109.42 59.01 L 121.07 63.30 L 119.79 65.64 L 118.51 67.99 L 127.28 74.67 L 129.29 72.90 L 131.30 71.12 L 138.58 81.36 L 136.19 82.59 L 133.80 83.81 L 137.29 94.30 L 139.96 93.96 L 142.64 93.62 L 142.91 106.34 L 141.57 106.17 L 140.23 106.00 L 138.89 105.83 L 137.54 105.66 L 134.45 116.56 L 135.65 117.17 L 136.86 117.79 L 138.07 118.41 L 139.28 119.03 L 132.24 129.81 L 131.22 128.91 L 130.20 128.01 L 129.18 127.11 L 128.16 126.21 L 119.45 133.48 L 120.10 134.68 L 120.76 135.88 L 121.41 137.08 L 122.07 138.27 L 109.91 143.33 L 109.57 142.00 L 109.24 140.68 L 108.90 139.35 L 108.57 138.02 L 97.12 139.12 L 96.98 140.49 L 96.85 141.85 L 96.71 143.22 L 96.57 144.59 L 83.66 141.91 L 84.13 140.62 L 84.60 139.32 L 85.07 138.03 L 85.54 136.74 L 75.33 131.14 L 74.44 132.20 L 73.55 133.26 L 72.67 134.32 L 71.78 135.39 L 62.40 125.68 L 63.53 124.87 L 64.66 124.07 L 65.78 123.26 L 66.91 122.45 L 61.57 111.93 L 60.23 112.31 L 58.89 112.69 L 57.55 113.06 L 56.21 113.44 L 53.92 100.12 L 55.32 100.09 L 56.71 100.05 L 58.11 100.02 L 59.50 99.98 L 61.05 88.00 L 59.72 87.56 L 58.39 87.11 L 57.07 86.66 L 55.74 86.22 L 61.44 73.79 L 62.62 74.55 L 63.79 75.31 L 64.97 76.07 L 66.15 76.83 L 74.19 67.79 L 73.34 66.67 L 72.49 65.55 L 71.64 64.42 L 70.78 63.30 L 82.76 56.08 L 83.31 57.38 L 83.85 58.68 L 84.40 59.99 L 84.94 61.29 L 96.84 58.32 L 96.77 56.91 L 96.70 55.49 L 96.63 54.08 L 96.56 52.66 L 110.53 53.44 L 110.25 54.83 L 109.97 56.22 L 109.69 57.62 L 109.41 59.01 L 121.06 63.29 L 121.80 62.07 L 122.54 60.86 L 123.28 59.64 L 124.02 58.42 L 135.39 67.13 L 134.36 68.12 L 133.34 69.12 L 132.32 70.12 L 131.29 71.11 L 138.58 81.35 L 139.88 80.76 L 141.19 80.17 L 142.50 79.58 L 143.81 78.99 L 148.30 92.60 L 146.88 92.85 L 145.47 93.10 L 144.05 93.35 L 142.64 93.61 L 142.89 106.46 L 144.32 106.71 L 145.74 106.96 L 147.16 107.22 L 148.58 107.47 L 144.56 121.40 L 143.24 120.80 L 141.92 120.21 L 140.60 119.61 L 139.28 119.02 L 132.25 129.80 L 133.29 130.82 L 134.33 131.83 L 135.37 132.84 L 136.41 133.86 L 125.12 143.23 L 124.36 141.99 L 123.60 140.75 L 122.84 139.51 L 122.08 138.27 L 109.92 143.33 L 110.21 144.76 L 110.49 146.19 L 110.78 147.62 L 111.07 149.06 L 96.30 150.44 L 96.37 148.97 L 96.45 147.51 L 96.52 146.05 L 96.59 144.59 L 83.67 141.92 L 83.10 143.27 L 82.53 144.63 L 81.96 145.98 L 81.39 147.33 L 68.12 140.00 L 69.01 138.83 L 69.90 137.65 L 70.79 136.48 L 71.68 135.31 L 62.41 125.69 L 61.17 126.49 L 59.93 127.29 L 58.68 128.09 L 57.44 128.89 L 50.60 115.35 L 52.01 114.88 L 53.41 114.40 L 54.81 113.93 L 56.21 113.46 L 53.92 100.14 L 52.44 100.10 L 50.95 100.07 L 49.47 100.03 L 47.98 99.99 L 50.00 84.62 L 51.43 85.02 L 52.87 85.43 L 54.30 85.83 L 55.74 86.23 L 61.43 73.80 L 60.22 72.92 L 59.00 72.05 L 57.79 71.18 L 56.58 70.30 L 66.91 58.73 L 67.88 59.88 L 68.84 61.02 L 69.81 62.17 L 70.77 63.31 L 82.75 56.08 L 82.23 54.67 L 81.72 53.26 L 81.21 51.84 L 80.70 50.43 L 95.93 46.67 L 96.09 48.17 L 96.24 49.67 L 96.39 51.16 L 96.54 52.66 L 110.52 53.44 L 110.89 51.97 L 111.27 50.51 L 111.64 49.04 L 112.02 47.58 L 126.89 53.08 L 126.17 54.42 L 125.45 55.75 L 124.73 57.08 L 124.01 58.41 L 135.38 67.12 L 136.52 66.11 L 137.66 65.11 L 138.80 64.11 L 139.95 63.10 L 149.22 76.19 L 147.86 76.89 L 146.51 77.58 L 145.15 78.28 L 143.80 78.98 L 148.30 92.59 L 149.81 92.40 L 151.33 92.21 L 152.85 92.02 L 154.37 91.83 L 154.66 108.21 L 153.14 108.02 L 151.62 107.83 L 150.10 107.64 L 148.58 107.45 L 144.56 121.38 L 145.93 122.09 L 147.30 122.79 L 148.66 123.50 L 150.03 124.20 L 141.05 137.91 L 139.89 136.89 L 138.73 135.88 L 137.57 134.86 L 136.42 133.85 L 125.00 143.30 L 125.74 144.66 L 126.47 146.02 L 127.21 147.38 L 127.94 148.74 L 112.62 155.05 L 112.24 153.55 L 111.85 152.05 L 111.47 150.55 L 111.08 149.05 L 96.32 150.44 L 96.16 151.98 L 96.00 153.53 L 95.84 155.08 L 95.69 156.62 L 79.29 153.20 L 79.82 151.74 L 80.35 150.27 L 80.88 148.80 L 81.40 147.34 L 68.13 140.01 L 67.12 141.20 L 66.11 142.40 L 65.11 143.59 L 64.10 144.79 L 52.37 132.58 L 53.64 131.66 L 54.91 130.74 L 56.18 129.82 L 57.45 128.91 L 50.61 115.37 L 49.09 115.79 L 47.58 116.21 L 46.07 116.64 L 44.55 117.06 L 41.68 100.01 L 43.25 99.97 L 44.83 99.93 L 46.40 99.89 L 47.98 99.85 L 50.00 84.64 L 48.50 84.13 L 47.00 83.62 L 45.51 83.11 L 44.01 82.60 L 51.24 66.90 L 52.57 67.75 L 53.90 68.61 L 55.24 69.46 L 56.57 70.32 L 66.90 58.74 L 65.94 57.47 L 64.98 56.20 L 64.03 54.94 L 63.07 53.67 L 78.20 44.57 L 78.82 46.04 L 79.44 47.50 L 80.07 48.97 L 80.69 50.44 L 95.92 46.67 L 95.84 45.07 L 95.77 43.48 L 95.69 41.88 L 95.62 40.29 L 113.24 41.29 L 112.93 42.86 L 112.62 44.43 L 112.31 46.00 L 112.00 47.57 L 127.03 53.16 L 127.87 51.79 L 128.71 50.42 L 129.56 49.06 L 130.40 47.69 L 144.53 58.58 L 143.38 59.71 L 142.23 60.84 L 141.08 61.96 L 139.93 63.09 L 149.21 76.17 L 150.68 75.51 L 152.16 74.85 L 153.63 74.19 L 155.10 73.53 L 160.73 90.66 L 159.14 90.95 L 157.55 91.24 L 155.95 91.52 L 154.36 91.81 L 154.66 108.20 L 156.26 108.48 L 157.86 108.77 L 159.46 109.06 L 161.05 109.35 L 155.98 126.84 L 154.49 126.18 L 153.01 125.51 L 151.52 124.85 L 150.04 124.19 L 141.06 137.90 L 142.22 139.04 L 143.39 140.18 L 144.56 141.32 L 145.72 142.47 L 131.38 154.30 L 130.53 152.91 L 129.67 151.52 L 128.81 150.13 L 127.96 148.73 L 112.64 155.05 L 112.96 156.66 L 113.28 158.27 L 113.60 159.88 L 113.92 161.49 L 95.40 163.19 L 95.48 161.55 L 95.55 159.91 L 95.63 158.27 L 95.70 156.63 L 79.31 153.21 L 78.66 154.73 L 78.02 156.24 L 77.38 157.76 L 76.73 159.28 L 60.14 150.08 L 61.13 148.76 L 62.12 147.44 L 63.12 146.12 L 64.11 144.80 L 52.38 132.59 L 50.99 133.49 L 49.59 134.38 L 48.19 135.27 L 46.80 136.17 L 38.27 119.22 L 39.84 118.69 L 41.42 118.15 L 42.99 117.61 L 44.56 117.08 L 41.68 100.03 L 40.01 99.98 L 38.35 99.93 L 36.68 99.88 L 35.02 99.83 L 37.57 80.84 L 39.18 81.28 L 40.79 81.73 L 42.40 82.18 L 44.00 82.62 L 51.23 66.91 L 49.87 65.93 L 48.51 64.95 L 47.16 63.97 L 45.80 62.98 L 58.87 48.43 L 59.95 49.72 L 61.03 51.00 L 62.12 52.28 L 63.20 53.56 L 78.19 44.58 L 77.62 42.99 L 77.05 41.41 L 76.48 39.82 L 75.91 38.24 L 94.89 33.58 L 95.07 35.26 L 95.25 36.93 L 95.42 38.61 L 95.60 40.29 L 113.23 41.29 L 113.65 39.65 L 114.07 38.01 L 114.50 36.37 L 114.92 34.73 L 133.61 41.71 L 132.80 43.21 L 132.00 44.70 L 131.19 46.19 L 130.38 47.68 L 144.52 58.57 L 145.80 57.45 L 147.08 56.33 L 148.36 55.21 L 149.64 54.09 L 161.14 70.37 L 159.63 71.16 L 158.12 71.94 L 156.61 72.73 L 155.10 73.52 L 160.76 90.83 L 162.46 90.63 L 164.15 90.43 L 165.85 90.22 L 167.55 90.02 L 167.86 110.15 L 166.16 109.95 L 164.46 109.74 L 162.76 109.54 L 161.06 109.33 L 155.99 126.82 L 157.51 127.61 L 159.04 128.40 L 160.56 129.19 L 162.09 129.99 L 150.92 146.97 L 149.63 145.84 L 148.33 144.71 L 147.03 143.58 L 145.73 142.45 L 131.40 154.29 L 132.21 155.82 L 133.03 157.34 L 133.85 158.86 L 134.66 160.38 L 115.68 168.18 L 115.24 166.50 L 114.81 164.83 L 114.37 163.16 L 113.93 161.48 L 95.42 163.19 L 95.24 164.92 L 95.06 166.65 L 94.88 168.37 L 94.70 170.10 L 74.21 165.76 L 74.80 164.12 L 75.39 162.49 L 75.98 160.85 L 76.56 159.22 L 60.15 150.09 L 59.03 151.42 L 57.90 152.75 L 56.77 154.08 L 55.64 155.41 L 41.16 140.30 L 42.57 139.27 L 43.99 138.24 L 45.40 137.21 L 46.81 136.18 L 38.28 119.24 L 36.59 119.71 L 34.90 120.18 L 33.21 120.65 L 31.52 121.11 L 28.00 100.06 L 29.76 100.01 L 31.51 99.95 L 33.26 99.90 L 35.02 99.85 L 37.56 80.86 L 35.90 80.29 L 34.23 79.72 L 32.57 79.15 L 30.90 78.58 L 39.84 59.21 L 41.33 60.16 L 42.81 61.11 L 44.30 62.05 L 45.79 63.00 L 58.85 48.45 L 57.80 47.03 L 56.74 45.61 L 55.68 44.19 L 54.62 42.77 L 73.10 31.73 L 73.80 33.36 L 74.50 34.99 L 75.20 36.62 L 75.89 38.25 L 94.87 33.58 L 94.80 31.80 L 94.72 30.03 L 94.64 28.25 L 94.56 26.48 L 116.26 27.74 L 115.92 29.49 L 115.58 31.23 L 115.24 32.98 L 114.90 34.73 L 133.59 41.70 L 134.53 40.19 L 135.47 38.67 L 136.41 37.15 L 137.36 35.63 L 154.72 49.05 L 153.44 50.30 L 152.17 51.56 L 150.90 52.82 L 149.62 54.08 L 161.13 70.35 L 162.77 69.62 L 164.41 68.89 L 166.05 68.16 L 167.69 67.43 L 174.62 88.71 L 172.85 89.04 L 171.08 89.36 L 169.31 89.68 L 167.54 90.00 L 167.86 110.13 L 169.63 110.45 L 171.41 110.78 L 173.18 111.11 L 174.96 111.43 L 168.70 132.89 L 167.05 132.16 L 165.40 131.43 L 163.75 130.70 L 162.10 129.97 L 150.79 147.12 L 152.08 148.40 L 153.37 149.67 L 154.65 150.95 L 155.94 152.22 L 138.51 166.54 L 137.55 165.00 L 136.59 163.45 L 135.64 161.91 L 134.68 160.37 L 115.70 168.17 L 116.05 169.96 L 116.40 171.75 L 116.75 173.53 L 117.09 175.32 L 94.42 177.39 L 94.50 175.56 L 94.57 173.74 L 94.65 171.92 L 94.73 170.10 L 74.23 165.77 L 73.51 167.45 L 72.79 169.13 L 72.06 170.81 L 71.34 172.49 L 51.27 161.29 L 52.37 159.82 L 53.46 158.36 L 54.56 156.89 L 55.66 155.42 L 41.18 140.32 L 39.63 141.30 L 38.08 142.29 L 36.53 143.28 L 34.97 144.27 L 24.50 123.31 L 26.24 122.71 L 27.98 122.11 L 29.72 121.52 L 31.46 120.92 L 28.00 100.08 L 26.16 100.02 L 24.31 99.96 L 22.46 99.90 L 20.62 99.84 L 23.76 76.65 L 25.54 77.14 L 27.33 77.63 L 29.11 78.11 L 30.89 78.60 L 39.83 59.23 L 38.33 58.14 L 36.83 57.05 L 35.33 55.96 L 33.83 54.86 L 49.79 37.13 L 50.99 38.54 L 52.19 39.96 L 53.40 41.37 L 54.60 42.79 L 73.08 31.74 L 72.46 29.98 L 71.83 28.23 L 71.21 26.47 L 70.58 24.71 L 93.73 19.06 L 93.93 20.91 L 94.13 22.77 L 94.33 24.62 L 94.54 26.48 L 116.46 27.78 L 116.94 25.97 L 117.42 24.16 L 117.90 22.35 L 118.37 20.54 L 140.87 29.01 L 139.99 30.66 L 139.10 32.31 L 138.22 33.97 L 137.34 35.62 L 154.70 49.03 L 156.12 47.79 L 157.54 46.56 L 158.96 45.33 L 160.38 44.09 L 174.35 63.91 L 172.69 64.79 L 171.02 65.66 L 169.35 66.54 L 167.68 67.41 L 174.62 88.69 L 176.49 88.47 L 178.37 88.25 L 180.25 88.03 L 182.12 87.82 L 182.48 112.29 L 180.60 112.07 L 178.72 111.85 L 176.84 111.63 L 174.96 111.41 L 168.71 132.87 L 170.40 133.75 L 172.08 134.62 L 173.76 135.50 L 175.45 136.38 L 161.69 157.20 L 160.26 155.95 L 158.83 154.70 L 157.39 153.45 L 155.96 152.21 L 138.53 166.53 L 139.42 168.21 L 140.32 169.89 L 141.22 171.58 L 142.12 173.26 L 119.07 182.70 L 118.58 180.85 L 118.09 179.01 L 117.61 177.16 L 117.12 175.31 L 94.20 177.37 L 93.99 179.28 L 93.78 181.18 L 93.57 183.09 L 93.36 184.99 L 68.79 179.73 L 69.44 177.92 L 70.08 176.11 L 70.72 174.30 L 71.36 172.50 L 51.29 161.31 L 50.04 162.77 L 48.79 164.24 L 47.55 165.70 L 46.30 167.16 L 28.78 148.85 L 30.33 147.71 L 31.88 146.57 L 33.44 145.43 L 34.99 144.29 L 24.50 123.33 L 22.64 123.84 L 20.77 124.34 L 18.91 124.85 L 17.04 125.35 L 12.88 100.12 L 14.82 100.06 L 16.75 99.99 L 18.68 99.93 L 20.62 99.86 L 23.75 76.67 L 21.92 76.04 L 20.08 75.41 L 18.24 74.78 L 16.41 74.14 L 27.39 50.51 L 29.03 51.55 L 30.67 52.59 L 32.31 53.63 L 33.95 54.67 L 49.77 37.14 L 48.61 35.58 L 47.44 34.01 L 46.28 32.45 L 45.12 30.88 L 67.46 17.56 L 68.23 19.35 L 69.01 21.14 L 69.79 22.93 L 70.56 24.72 L 93.70 19.06 L 93.62 17.10 L 93.54 15.14 L 93.46 13.19 L 93.37 11.23 L 119.84 12.83 L 119.47 14.76 L 119.09 16.68 L 118.72 18.61 L 118.35 20.53 L 140.85 28.99 L 141.89 27.33 L 142.93 25.66 L 143.97 23.99 L 145.02 22.32 L 157.62 30.86 L 157.84 31.04" 
          fill="none" 
          stroke="currentColor" 
          stroke-width="0.5"/>
</svg>