<?xml version="1.0" encoding="UTF-8" standalone="no"?>
<svg width="100%" height="100%" viewBox="0 0 200 200" preserveAspectRatio="xMidYMid meet" xmlns="http://www.w3.org/2000/svg">
    <path d="M 10.00 100.00 L 12.00 100.00 L 13.03 98.84 L 14.06 97.67 L 14.55 99.14 L 15.05 100.62 L 16.57 100.93 L 18.09 101.24 L 17.60 99.76 L 17.11 98.29 L 16.61 96.82 L 16.12 95.34 L 14.59 95.03 L 13.07 94.72 L 12.58 93.25 L 12.08 91.78 L 13.11 90.61 L 14.14 89.45 L 15.17 88.28 L 16.20 87.12 L 16.69 88.59 L 17.19 90.07 L 16.16 91.23 L 15.13 92.40 L 16.65 92.70 L 18.18 93.01 L 19.20 91.85 L 20.23 90.68 L 21.76 90.99 L 23.28 91.30 L 23.77 92.78 L 24.27 94.25 L 24.76 95.72 L 25.26 97.20 L 23.73 96.89 L 22.21 96.58 L 21.72 95.10 L 21.22 93.63 L 20.19 94.80 L 19.16 95.96 L 19.66 97.43 L 20.15 98.91 L 21.67 99.22 L 23.20 99.52 L 23.69 101.00 L 24.18 102.47 L 22.66 102.16 L 21.14 101.85 L 20.11 103.02 L 19.08 104.18 L 20.60 104.49 L 22.13 104.80 L 23.65 105.11 L 25.17 105.42 L 26.20 104.25 L 27.23 103.09 L 26.74 101.62 L 26.24 100.14 L 27.27 98.98 L 28.30 97.81 L 28.79 99.29 L 29.29 100.76 L 30.81 101.07 L 32.33 101.38 L 31.84 99.90 L 31.35 98.43 L 30.85 96.96 L 30.36 95.48 L 28.84 95.18 L 27.31 94.87 L 26.82 93.39 L 26.33 91.92 L 27.35 90.76 L 28.38 89.59 L 28.88 91.07 L 29.37 92.54 L 30.89 92.85 L 32.42 93.16 L 31.92 91.68 L 31.43 90.21 L 30.94 88.74 L 30.44 87.26 L 28.92 86.95 L 27.40 86.65 L 26.37 87.81 L 25.34 88.97 L 23.81 88.66 L 22.29 88.36 L 20.77 88.05 L 19.25 87.74 L 20.27 86.57 L 21.30 85.41 L 22.83 85.72 L 24.35 86.03 L 23.86 84.55 L 23.36 83.08 L 21.84 82.77 L 20.32 82.46 L 19.82 80.99 L 19.33 79.52 L 20.36 78.35 L 21.39 77.19 L 21.88 78.66 L 22.37 80.13 L 23.90 80.44 L 25.42 80.75 L 24.93 79.28 L 24.43 77.81 L 23.94 76.33 L 23.44 74.86 L 21.92 74.55 L 20.40 74.24 L 19.90 72.77 L 19.41 71.29 L 20.44 70.13 L 21.47 68.97 L 22.50 67.80 L 23.53 66.64 L 24.02 68.11 L 24.51 69.58 L 23.49 70.75 L 22.46 71.91 L 23.98 72.22 L 25.50 72.53 L 26.53 71.37 L 27.56 70.20 L 27.07 68.73 L 26.57 67.25 L 27.60 66.09 L 28.63 64.93 L 29.66 63.76 L 30.69 62.60 L 31.18 64.07 L 31.68 65.54 L 30.65 66.71 L 29.62 67.87 L 31.14 68.18 L 32.66 68.49 L 33.69 67.33 L 34.72 66.16 L 36.24 66.47 L 37.77 66.78 L 38.26 68.25 L 38.76 69.73 L 39.25 71.20 L 39.74 72.67 L 38.22 72.36 L 36.70 72.05 L 36.20 70.58 L 35.71 69.11 L 34.68 70.27 L 33.65 71.44 L 34.15 72.91 L 34.64 74.38 L 33.61 75.55 L 32.58 76.71 L 31.06 76.40 L 29.54 76.09 L 30.56 74.93 L 31.59 73.77 L 31.10 72.29 L 30.61 70.82 L 29.58 71.98 L 28.55 73.15 L 27.52 74.31 L 26.49 75.48 L 26.98 76.95 L 27.48 78.42 L 29.00 78.73 L 30.52 79.04 L 31.02 80.51 L 31.51 81.99 L 29.99 81.68 L 28.47 81.37 L 27.44 82.53 L 26.41 83.70 L 27.93 84.01 L 29.45 84.32 L 30.98 84.63 L 32.50 84.93 L 33.53 83.77 L 34.56 82.61 L 34.06 81.13 L 33.57 79.66 L 34.60 78.49 L 35.63 77.33 L 36.66 76.17 L 37.69 75.00 L 38.18 76.47 L 38.67 77.95 L 37.64 79.11 L 36.62 80.28 L 38.14 80.59 L 39.66 80.89 L 40.69 79.73 L 41.72 78.57 L 43.24 78.87 L 44.76 79.18 L 45.26 80.66 L 45.75 82.13 L 44.23 81.82 L 42.71 81.51 L 41.68 82.68 L 40.65 83.84 L 42.17 84.15 L 43.69 84.46 L 45.22 84.77 L 46.74 85.08 L 47.77 83.91 L 48.80 82.75 L 50.32 83.06 L 51.84 83.37 L 52.34 84.84 L 52.83 86.31 L 53.33 87.79 L 53.82 89.26 L 52.30 88.95 L 50.77 88.64 L 50.28 87.17 L 49.79 85.69 L 48.76 86.86 L 47.73 88.02 L 48.22 89.50 L 48.72 90.97 L 50.24 91.28 L 51.76 91.59 L 52.26 93.06 L 52.75 94.53 L 53.24 96.01 L 53.74 97.48 L 52.21 97.17 L 50.69 96.86 L 50.20 95.39 L 49.70 93.92 L 48.67 95.08 L 47.65 96.25 L 48.14 97.72 L 48.63 99.19 L 47.60 100.36 L 46.58 101.52 L 45.05 101.21 L 43.53 100.90 L 42.01 100.59 L 40.48 100.29 L 41.51 99.12 L 42.54 97.96 L 44.06 98.27 L 45.59 98.57 L 45.09 97.10 L 44.60 95.63 L 43.08 95.32 L 41.55 95.01 L 41.06 93.54 L 40.57 92.06 L 41.60 90.90 L 42.62 89.73 L 43.12 91.21 L 43.61 92.68 L 45.13 92.99 L 46.66 93.30 L 46.16 91.83 L 45.67 90.35 L 45.18 88.88 L 44.68 87.41 L 43.16 87.10 L 41.64 86.79 L 40.61 87.95 L 39.58 89.12 L 38.06 88.81 L 36.53 88.50 L 37.56 87.33 L 38.59 86.17 L 38.10 84.70 L 37.60 83.22 L 36.57 84.39 L 35.54 85.55 L 34.52 86.72 L 33.49 87.88 L 33.98 89.35 L 34.47 90.83 L 36.00 91.14 L 37.52 91.45 L 38.01 92.92 L 38.51 94.39 L 39.00 95.87 L 39.50 97.34 L 37.97 97.03 L 36.45 96.72 L 35.96 95.25 L 35.46 93.77 L 34.43 94.94 L 33.40 96.10 L 33.90 97.58 L 34.39 99.05 L 35.92 99.36 L 37.44 99.67 L 37.93 101.14 L 38.43 102.61 L 36.90 102.31 L 35.38 102.00 L 34.35 103.16 L 33.32 104.32 L 34.85 104.63 L 36.37 104.94 L 37.89 105.25 L 39.41 105.56 L 40.44 104.40 L 41.47 103.23 L 42.99 103.54 L 44.52 103.85 L 45.01 105.32 L 45.51 106.80 L 46.00 108.27 L 46.49 109.74 L 44.97 109.43 L 43.45 109.13 L 42.95 107.65 L 42.46 106.18 L 41.43 107.34 L 40.40 108.51 L 40.90 109.98 L 41.39 111.45 L 40.36 112.62 L 39.33 113.78 L 37.81 113.47 L 36.29 113.16 L 34.76 112.86 L 33.24 112.55 L 34.27 111.38 L 35.30 110.22 L 36.82 110.53 L 38.34 110.84 L 37.85 109.36 L 37.36 107.89 L 35.83 107.58 L 34.31 107.27 L 33.28 108.44 L 32.25 109.60 L 30.73 109.29 L 29.21 108.98 L 30.24 107.82 L 31.26 106.65 L 30.77 105.18 L 30.28 103.71 L 29.25 104.87 L 28.22 106.04 L 27.19 107.20 L 26.16 108.36 L 26.65 109.84 L 27.15 111.31 L 28.67 111.62 L 30.19 111.93 L 30.69 113.40 L 31.18 114.88 L 29.66 114.57 L 28.14 114.26 L 27.11 115.42 L 26.08 116.59 L 27.60 116.90 L 29.12 117.20 L 30.65 117.51 L 32.17 117.82 L 33.20 116.66 L 34.23 115.49 L 35.75 115.80 L 37.27 116.11 L 37.77 117.58 L 38.26 119.06 L 36.74 118.75 L 35.22 118.44 L 34.19 119.60 L 33.16 120.77 L 34.68 121.08 L 36.20 121.39 L 37.73 121.70 L 39.25 122.00 L 40.28 120.84 L 41.31 119.68 L 40.81 118.20 L 40.32 116.73 L 41.35 115.56 L 42.38 114.40 L 43.41 113.24 L 44.44 112.07 L 44.93 113.55 L 45.42 115.02 L 44.39 116.18 L 43.37 117.35 L 44.89 117.66 L 46.41 117.97 L 47.44 116.80 L 48.47 115.64 L 47.97 114.16 L 47.48 112.69 L 48.51 111.53 L 49.54 110.36 L 50.03 111.83 L 50.53 113.31 L 52.05 113.62 L 53.57 113.93 L 53.08 112.45 L 52.58 110.98 L 52.09 109.51 L 51.60 108.03 L 50.07 107.72 L 48.55 107.41 L 48.06 105.94 L 47.56 104.47 L 48.59 103.30 L 49.62 102.14 L 50.65 100.97 L 51.68 99.81 L 52.17 101.28 L 52.67 102.76 L 51.64 103.92 L 50.61 105.09 L 52.13 105.39 L 53.65 105.70 L 54.68 104.54 L 55.71 103.37 L 57.24 103.68 L 58.76 103.99 L 59.25 105.47 L 59.75 106.94 L 60.24 108.41 L 60.73 109.89 L 59.21 109.58 L 57.69 109.27 L 57.19 107.79 L 56.70 106.32 L 55.67 107.49 L 54.64 108.65 L 55.14 110.12 L 55.63 111.60 L 57.15 111.91 L 58.68 112.21 L 59.17 113.69 L 59.66 115.16 L 58.14 114.85 L 56.62 114.54 L 55.59 115.71 L 54.56 116.87 L 56.08 117.18 L 57.61 117.49 L 59.13 117.80 L 60.65 118.11 L 61.68 116.94 L 62.71 115.78 L 62.22 114.31 L 61.72 112.83 L 62.75 111.67 L 63.78 110.50 L 64.27 111.98 L 64.77 113.45 L 66.29 113.76 L 67.81 114.07 L 67.32 112.59 L 66.83 111.12 L 66.33 109.65 L 65.84 108.17 L 64.32 107.87 L 62.79 107.56 L 62.30 106.08 L 61.80 104.61 L 62.83 103.45 L 63.86 102.28 L 64.36 103.75 L 64.85 105.23 L 66.37 105.54 L 67.90 105.85 L 67.40 104.37 L 66.91 102.90 L 66.41 101.43 L 65.92 99.95 L 64.40 99.64 L 62.87 99.33 L 61.85 100.50 L 60.82 101.66 L 59.29 101.35 L 57.77 101.05 L 56.25 100.74 L 54.73 100.43 L 55.75 99.26 L 56.78 98.10 L 58.31 98.41 L 59.83 98.72 L 59.33 97.24 L 58.84 95.77 L 57.32 95.46 L 55.80 95.15 L 55.30 93.68 L 54.81 92.21 L 55.84 91.04 L 56.87 89.88 L 57.36 91.35 L 57.85 92.82 L 59.38 93.13 L 60.90 93.44 L 60.40 91.97 L 59.91 90.49 L 59.42 89.02 L 58.92 87.55 L 57.40 87.24 L 55.88 86.93 L 55.38 85.46 L 54.89 83.98 L 55.92 82.82 L 56.95 81.65 L 57.98 80.49 L 59.01 79.33 L 59.50 80.80 L 59.99 82.27 L 58.96 83.44 L 57.94 84.60 L 59.46 84.91 L 60.98 85.22 L 62.01 84.05 L 63.04 82.89 L 64.56 83.20 L 66.08 83.51 L 66.58 84.98 L 67.07 86.46 L 67.57 87.93 L 68.06 89.40 L 66.54 89.09 L 65.01 88.78 L 64.52 87.31 L 64.03 85.84 L 63.00 87.00 L 61.97 88.17 L 62.46 89.64 L 62.96 91.11 L 64.48 91.42 L 66.00 91.73 L 66.50 93.20 L 66.99 94.68 L 65.47 94.37 L 63.94 94.06 L 62.92 95.22 L 61.89 96.39 L 63.41 96.70 L 64.93 97.01 L 66.46 97.31 L 67.98 97.62 L 69.01 96.46 L 70.04 95.29 L 69.54 93.82 L 69.05 92.35 L 70.08 91.18 L 71.11 90.02 L 71.60 91.49 L 72.09 92.97 L 73.62 93.28 L 75.14 93.58 L 74.65 92.11 L 74.15 90.64 L 73.66 89.16 L 73.16 87.69 L 71.64 87.38 L 70.12 87.07 L 69.62 85.60 L 69.13 84.13 L 70.16 82.96 L 71.19 81.80 L 71.68 83.27 L 72.18 84.74 L 73.70 85.05 L 75.22 85.36 L 74.73 83.89 L 74.23 82.42 L 73.74 80.94 L 73.25 79.47 L 71.72 79.16 L 70.20 78.85 L 69.17 80.02 L 68.14 81.18 L 66.62 80.87 L 65.10 80.56 L 63.57 80.25 L 62.05 79.94 L 63.08 78.78 L 64.11 77.62 L 65.63 77.92 L 67.16 78.23 L 66.66 76.76 L 66.17 75.29 L 64.64 74.98 L 63.12 74.67 L 62.09 75.83 L 61.06 77.00 L 59.54 76.69 L 58.02 76.38 L 59.05 75.21 L 60.08 74.05 L 59.58 72.58 L 59.09 71.10 L 58.06 72.27 L 57.03 73.43 L 56.00 74.60 L 54.97 75.76 L 55.47 77.23 L 55.96 78.71 L 54.93 79.87 L 53.90 81.04 L 52.38 80.73 L 50.86 80.42 L 49.33 80.11 L 47.81 79.80 L 48.84 78.64 L 49.87 77.47 L 51.39 77.78 L 52.91 78.09 L 52.42 76.62 L 51.93 75.14 L 50.40 74.83 L 48.88 74.53 L 47.85 75.69 L 46.82 76.85 L 45.30 76.55 L 43.78 76.24 L 42.25 75.93 L 40.73 75.62 L 41.76 74.45 L 42.79 73.29 L 44.31 73.60 L 45.83 73.91 L 45.34 72.43 L 44.85 70.96 L 43.32 70.65 L 41.80 70.34 L 41.31 68.87 L 40.81 67.40 L 41.84 66.23 L 42.87 65.07 L 43.90 63.90 L 44.93 62.74 L 45.42 64.21 L 45.92 65.69 L 44.89 66.85 L 43.86 68.01 L 45.38 68.32 L 46.90 68.63 L 47.93 67.47 L 48.96 66.30 L 50.49 66.61 L 52.01 66.92 L 52.50 68.39 L 53.00 69.87 L 51.47 69.56 L 49.95 69.25 L 48.92 70.41 L 47.89 71.58 L 49.42 71.89 L 50.94 72.20 L 52.46 72.51 L 53.98 72.81 L 55.01 71.65 L 56.04 70.49 L 55.55 69.01 L 55.05 67.54 L 56.08 66.38 L 57.11 65.21 L 57.61 66.68 L 58.10 68.16 L 59.62 68.47 L 61.15 68.78 L 60.65 67.30 L 60.16 65.83 L 59.66 64.36 L 59.17 62.88 L 57.65 62.57 L 56.12 62.26 L 55.10 63.43 L 54.07 64.59 L 52.54 64.28 L 51.02 63.97 L 49.50 63.67 L 47.97 63.36 L 49.00 62.19 L 50.03 61.03 L 51.56 61.34 L 53.08 61.65 L 52.58 60.17 L 52.09 58.70 L 50.57 58.39 L 49.05 58.08 L 48.55 56.61 L 48.06 55.14 L 49.09 53.97 L 50.12 52.81 L 50.61 54.28 L 51.10 55.75 L 52.63 56.06 L 54.15 56.37 L 53.65 54.90 L 53.16 53.42 L 52.67 51.95 L 52.17 50.48 L 50.65 50.17 L 49.13 49.86 L 48.63 48.39 L 48.14 46.91 L 49.17 45.75 L 50.20 44.58 L 51.23 43.42 L 52.26 42.26 L 52.75 43.73 L 53.24 45.20 L 52.21 46.37 L 51.19 47.53 L 52.71 47.84 L 54.23 48.15 L 55.26 46.98 L 56.29 45.82 L 57.81 46.13 L 59.33 46.44 L 59.83 47.91 L 60.32 49.38 L 60.82 50.86 L 61.31 52.33 L 59.79 52.02 L 58.26 51.71 L 57.77 50.24 L 57.28 48.77 L 56.25 49.93 L 55.22 51.10 L 55.71 52.57 L 56.21 54.04 L 57.73 54.35 L 59.25 54.66 L 59.75 56.13 L 60.24 57.61 L 58.72 57.30 L 57.19 56.99 L 56.17 58.15 L 55.14 59.32 L 56.66 59.63 L 58.18 59.94 L 59.71 60.24 L 61.23 60.55 L 62.26 59.39 L 63.29 58.22 L 62.79 56.75 L 62.30 55.28 L 63.33 54.11 L 64.36 52.95 L 64.85 54.42 L 65.34 55.90 L 66.87 56.20 L 68.39 56.51 L 67.90 55.04 L 67.40 53.57 L 66.91 52.09 L 66.41 50.62 L 64.89 50.31 L 63.37 50.00 L 62.87 48.53 L 62.38 47.06 L 63.41 45.89 L 64.44 44.73 L 64.93 46.20 L 65.43 47.67 L 66.95 47.98 L 68.47 48.29 L 67.98 46.82 L 67.48 45.34 L 66.99 43.87 L 66.50 42.40 L 64.97 42.09 L 63.45 41.78 L 62.42 42.94 L 61.39 44.11 L 59.87 43.80 L 58.35 43.49 L 56.82 43.18 L 55.30 42.87 L 56.33 41.71 L 57.36 40.54 L 58.88 40.85 L 60.40 41.16 L 59.91 39.69 L 59.42 38.22 L 57.89 37.91 L 56.37 37.60 L 55.88 36.12 L 55.38 34.65 L 56.41 33.49 L 57.44 32.32 L 57.94 33.80 L 58.43 35.27 L 59.95 35.58 L 61.48 35.89 L 60.98 34.41 L 60.49 32.94 L 59.99 31.47 L 59.50 29.99 L 57.98 29.68 L 56.45 29.38 L 55.96 27.90 L 55.47 26.43 L 56.49 25.26 L 57.52 24.10 L 58.55 22.94 L 59.58 21.77 L 60.08 23.24 L 60.57 24.72 L 59.54 25.88 L 58.51 27.05 L 60.03 27.36 L 61.56 27.66 L 62.59 26.50 L 63.62 25.34 L 63.12 23.86 L 62.63 22.39 L 63.66 21.22 L 64.69 20.06 L 65.71 18.90 L 66.74 17.73 L 67.24 19.20 L 67.73 20.68 L 66.70 21.84 L 65.67 23.01 L 67.20 23.32 L 68.72 23.62 L 69.75 22.46 L 70.78 21.30 L 72.30 21.61 L 73.82 21.91 L 75.80 27.81 L 74.28 27.50 L 72.75 27.19 L 72.26 25.72 L 71.76 24.24 L 70.74 25.41 L 69.71 26.57 L 70.20 28.04 L 70.69 29.52 L 69.67 30.68 L 68.64 31.85 L 67.11 31.54 L 65.59 31.23 L 66.62 30.06 L 67.65 28.90 L 67.16 27.43 L 66.66 25.95 L 65.63 27.12 L 64.60 28.28 L 63.57 29.45 L 62.55 30.61 L 63.04 32.08 L 63.53 33.56 L 65.06 33.87 L 66.58 34.18 L 67.07 35.65 L 67.57 37.12 L 66.04 36.81 L 64.52 36.50 L 63.49 37.67 L 62.46 38.83 L 63.99 39.14 L 65.51 39.45 L 67.03 39.76 L 68.55 40.07 L 69.58 38.90 L 70.61 37.74 L 70.12 36.27 L 69.62 34.79 L 70.65 33.63 L 71.68 32.46 L 72.71 31.30 L 73.74 30.14 L 74.23 31.61 L 74.73 33.08 L 73.70 34.25 L 72.67 35.41 L 74.19 35.72 L 75.72 36.03 L 76.75 34.86 L 77.77 33.70 L 76.79 30.75 L 77.82 29.59 L 78.84 28.43 L 79.34 29.90 L 79.83 31.37 L 81.35 31.68 L 82.88 31.99 L 82.38 30.52 L 81.89 29.04 L 81.40 27.57 L 80.90 26.10 L 79.38 25.79 L 77.86 25.48 L 77.36 24.01 L 76.87 22.53 L 77.90 21.37 L 78.93 20.20 L 79.96 19.04 L 80.98 17.87 L 81.48 19.35 L 81.97 20.82 L 80.94 21.99 L 79.91 23.15 L 81.44 23.46 L 82.96 23.77 L 83.99 22.60 L 85.02 21.44 L 84.52 19.97 L 84.03 18.49 L 85.06 17.33 L 86.09 16.16 L 87.12 15.00 L 88.15 13.83 L 88.64 15.31 L 89.13 16.78 L 88.11 17.95 L 87.08 19.11 L 88.60 19.42 L 90.12 19.73 L 91.15 18.56 L 92.18 17.40 L 93.70 17.71 L 95.23 18.02 L 95.72 19.49 L 96.21 20.96 L 96.71 22.44 L 97.20 23.91 L 95.68 23.60 L 94.16 23.29 L 93.66 21.82 L 93.17 20.35 L 92.14 21.51 L 91.11 22.67 L 91.60 24.15 L 92.10 25.62 L 91.07 26.79 L 90.04 27.95 L 88.52 27.64 L 86.99 27.33 L 88.02 26.17 L 89.05 25.00 L 88.56 23.53 L 88.06 22.06 L 87.03 23.22 L 86.01 24.39 L 84.98 25.55 L 83.95 26.71 L 84.44 28.19 L 84.94 29.66 L 86.46 29.97 L 87.98 30.28 L 88.48 31.75 L 88.97 33.23 L 87.45 32.92 L 85.92 32.61 L 84.89 33.77 L 83.87 34.94 L 85.39 35.25 L 86.91 35.55 L 88.43 35.86 L 89.96 36.17 L 90.99 35.01 L 92.02 33.84 L 91.52 32.37 L 91.03 30.90 L 92.06 29.73 L 93.09 28.57 L 94.11 27.40 L 95.14 26.24 L 95.64 27.71 L 96.13 29.19 L 95.10 30.35 L 94.07 31.51 L 95.60 31.82 L 97.12 32.13 L 98.15 30.97 L 99.18 29.80 L 100.70 30.11 L 102.22 30.42 L 102.72 31.89 L 103.21 33.37 L 101.69 33.06 L 100.16 32.75 L 99.14 33.91 L 98.11 35.08 L 99.63 35.39 L 101.15 35.70 L 102.68 36.01 L 104.20 36.31 L 105.23 35.15 L 106.26 33.99 L 107.78 34.29 L 109.30 34.60 L 109.80 36.08 L 110.29 37.55 L 110.78 39.02 L 111.28 40.50 L 109.75 40.19 L 108.23 39.88 L 107.74 38.41 L 107.24 36.93 L 106.22 38.10 L 105.19 39.26 L 105.68 40.73 L 106.17 42.21 L 107.70 42.52 L 109.22 42.83 L 109.71 44.30 L 110.21 45.77 L 110.70 47.25 L 111.20 48.72 L 109.67 48.41 L 108.15 48.10 L 107.66 46.63 L 107.16 45.15 L 106.13 46.32 L 105.10 47.48 L 105.60 48.96 L 106.09 50.43 L 105.06 51.59 L 104.03 52.76 L 102.51 52.45 L 100.99 52.14 L 99.47 51.83 L 97.94 51.52 L 98.97 50.36 L 100.00 49.19 L 101.52 49.50 L 103.05 49.81 L 102.55 48.34 L 102.06 46.87 L 100.54 46.56 L 99.01 46.25 L 98.52 44.77 L 98.02 43.30 L 99.05 42.14 L 100.08 40.97 L 100.58 42.45 L 101.07 43.92 L 102.59 44.23 L 104.12 44.54 L 103.62 43.06 L 103.13 41.59 L 102.63 40.12 L 102.14 38.64 L 100.62 38.33 L 99.09 38.03 L 98.07 39.19 L 97.04 40.35 L 95.51 40.05 L 93.99 39.74 L 95.02 38.57 L 96.05 37.41 L 95.55 35.93 L 95.06 34.46 L 94.03 35.63 L 93.00 36.79 L 91.97 37.95 L 90.95 39.12 L 91.44 40.59 L 91.93 42.07 L 93.46 42.37 L 94.98 42.68 L 95.47 44.16 L 95.97 45.63 L 96.46 47.10 L 96.95 48.58 L 95.43 48.27 L 93.91 47.96 L 93.41 46.49 L 92.92 45.01 L 91.89 46.18 L 90.86 47.34 L 91.36 48.81 L 91.85 50.29 L 90.82 51.45 L 89.79 52.62 L 88.27 52.31 L 86.75 52.00 L 87.78 50.83 L 88.80 49.67 L 88.31 48.20 L 87.82 46.72 L 86.79 47.89 L 85.76 49.05 L 84.73 50.22 L 83.70 51.38 L 84.69 54.33 L 83.66 55.49 L 82.63 56.66 L 81.11 56.35 L 79.59 56.04 L 78.06 55.73 L 76.54 55.42 L 77.57 54.26 L 78.60 53.09 L 80.12 53.40 L 81.64 53.71 L 81.15 52.24 L 80.66 50.76 L 79.13 50.45 L 77.61 50.14 L 77.12 48.67 L 76.62 47.20 L 77.65 46.03 L 78.68 44.87 L 79.71 43.70 L 80.74 42.54 L 81.73 45.49 L 80.70 46.65 L 79.67 47.82 L 81.19 48.12 L 82.71 48.43 L 83.74 47.27 L 84.77 46.10 L 84.28 44.63 L 83.78 43.16 L 84.81 41.99 L 85.84 40.83 L 86.34 42.30 L 86.83 43.78 L 88.35 44.09 L 89.87 44.39 L 89.38 42.92 L 88.89 41.45 L 88.39 39.97 L 87.90 38.50 L 86.38 38.19 L 84.85 37.88 L 83.82 39.05 L 82.80 40.21 L 81.27 39.90 L 79.75 39.59 L 80.78 38.43 L 81.81 37.27 L 81.31 35.79 L 80.82 34.32 L 79.79 35.48 L 78.76 36.65 L 77.73 37.81 L 76.70 38.98 L 77.20 40.45 L 77.69 41.92 L 76.66 43.09 L 75.63 44.25 L 74.11 43.94 L 72.59 43.63 L 73.62 42.47 L 74.65 41.30 L 74.15 39.83 L 73.66 38.36 L 72.63 39.52 L 71.60 40.69 L 70.57 41.85 L 69.54 43.02 L 70.04 44.49 L 70.53 45.96 L 72.05 46.27 L 73.58 46.58 L 74.07 48.05 L 74.56 49.53 L 75.06 51.00 L 75.55 52.47 L 74.03 52.16 L 72.51 51.86 L 72.01 50.38 L 71.52 48.91 L 70.49 50.07 L 69.46 51.24 L 69.95 52.71 L 70.45 54.18 L 71.97 54.49 L 73.49 54.80 L 73.99 56.28 L 74.48 57.75 L 72.96 57.44 L 71.44 57.13 L 70.41 58.30 L 69.38 59.46 L 70.90 59.77 L 72.42 60.08 L 73.95 60.39 L 75.47 60.70 L 76.50 59.53 L 77.53 58.37 L 79.05 58.68 L 80.57 58.98 L 81.07 60.46 L 81.56 61.93 L 82.05 63.40 L 82.55 64.88 L 81.03 64.57 L 79.50 64.26 L 79.01 62.79 L 78.51 61.31 L 77.49 62.48 L 76.46 63.64 L 76.95 65.12 L 77.44 66.59 L 76.42 67.75 L 75.39 68.92 L 73.86 68.61 L 72.34 68.30 L 70.82 67.99 L 69.30 67.68 L 70.32 66.52 L 71.35 65.35 L 72.88 65.66 L 74.40 65.97 L 73.91 64.50 L 73.41 63.02 L 71.89 62.72 L 70.37 62.41 L 69.34 63.57 L 68.31 64.74 L 66.78 64.43 L 65.26 64.12 L 66.29 62.95 L 67.32 61.79 L 66.83 60.32 L 66.33 58.84 L 65.30 60.01 L 64.27 61.17 L 63.24 62.34 L 62.22 63.50 L 62.71 64.97 L 63.20 66.45 L 64.73 66.76 L 66.25 67.06 L 66.74 68.54 L 67.24 70.01 L 65.71 69.70 L 64.19 69.39 L 63.16 70.56 L 62.13 71.72 L 63.66 72.03 L 65.18 72.34 L 66.70 72.65 L 68.23 72.96 L 69.25 71.79 L 70.28 70.63 L 71.81 70.94 L 73.33 71.25 L 73.82 72.72 L 74.32 74.19 L 72.79 73.88 L 71.27 73.58 L 70.24 74.74 L 69.21 75.90 L 70.74 76.21 L 72.26 76.52 L 73.78 76.83 L 75.30 77.14 L 76.33 75.98 L 77.36 74.81 L 76.87 73.34 L 76.37 71.86 L 77.40 70.70 L 78.43 69.54 L 79.46 68.37 L 80.49 67.21 L 80.98 68.68 L 81.48 70.15 L 80.45 71.32 L 79.42 72.48 L 80.94 72.79 L 82.47 73.10 L 83.50 71.94 L 84.52 70.77 L 84.03 69.30 L 83.54 67.82 L 84.57 66.66 L 85.59 65.50 L 86.09 66.97 L 86.58 68.44 L 88.11 68.75 L 89.63 69.06 L 87.65 63.17 L 86.13 62.86 L 84.61 62.55 L 84.11 61.08 L 83.62 59.60 L 84.65 58.44 L 85.68 57.27 L 86.71 56.11 L 87.73 54.94 L 88.23 56.42 L 88.72 57.89 L 87.69 59.06 L 86.66 60.22 L 88.19 60.53 L 89.71 60.84 L 90.74 59.67 L 91.77 58.51 L 91.27 57.04 L 90.78 55.56 L 91.81 54.40 L 92.84 53.23 L 93.87 52.07 L 94.90 50.91 L 95.39 52.38 L 95.88 53.85 L 94.86 55.02 L 93.83 56.18 L 95.35 56.49 L 96.87 56.80 L 97.90 55.63 L 98.93 54.47 L 100.45 54.78 L 101.98 55.09 L 102.47 56.56 L 102.96 58.03 L 103.46 59.51 L 103.95 60.98 L 102.43 60.67 L 100.91 60.36 L 100.41 58.89 L 99.92 57.42 L 98.89 58.58 L 97.86 59.75 L 98.35 61.22 L 98.85 62.69 L 97.82 63.86 L 96.79 65.02 L 95.27 64.71 L 93.74 64.40 L 94.77 63.24 L 95.80 62.07 L 95.31 60.60 L 94.81 59.13 L 93.79 60.29 L 92.76 61.46 L 91.73 62.62 L 90.70 63.78 L 91.19 65.26 L 91.69 66.73 L 93.21 67.04 L 94.73 67.35 L 95.23 68.82 L 95.72 70.30 L 94.20 69.99 L 92.67 69.68 L 91.64 70.84 L 90.62 72.01 L 92.14 72.32 L 93.66 72.62 L 95.18 72.93 L 96.71 73.24 L 97.74 72.08 L 98.77 70.91 L 98.27 69.44 L 97.78 67.97 L 98.81 66.80 L 99.84 65.64 L 100.86 64.47 L 101.89 63.31 L 102.39 64.78 L 102.88 66.26 L 101.85 67.42 L 100.82 68.58 L 102.35 68.89 L 103.87 69.20 L 104.90 68.04 L 105.93 66.87 L 107.45 67.18 L 108.97 67.49 L 109.47 68.97 L 109.96 70.44 L 108.44 70.13 L 106.91 69.82 L 105.89 70.99 L 104.86 72.15 L 106.38 72.46 L 107.90 72.77 L 109.43 73.08 L 110.95 73.39 L 111.98 72.22 L 113.01 71.06 L 114.53 71.37 L 116.05 71.67 L 116.55 73.15 L 117.04 74.62 L 117.53 76.09 L 118.03 77.57 L 116.50 77.26 L 114.98 76.95 L 114.49 75.48 L 113.99 74.00 L 112.97 75.17 L 111.94 76.33 L 112.43 77.81 L 112.92 79.28 L 111.90 80.44 L 110.87 81.61 L 109.34 81.30 L 107.82 80.99 L 106.30 80.68 L 104.77 80.37 L 105.80 79.21 L 106.83 78.04 L 108.36 78.35 L 109.88 78.66 L 109.38 77.19 L 108.89 75.71 L 107.37 75.41 L 105.84 75.10 L 104.82 76.26 L 103.79 77.42 L 102.26 77.12 L 100.74 76.81 L 101.77 75.64 L 102.80 74.48 L 102.30 73.00 L 101.81 71.53 L 100.78 72.70 L 99.75 73.86 L 98.72 75.02 L 97.70 76.19 L 98.19 77.66 L 98.68 79.14 L 100.21 79.44 L 101.73 79.75 L 102.22 81.23 L 102.72 82.70 L 101.19 82.39 L 99.67 82.08 L 98.64 83.25 L 97.61 84.41 L 99.14 84.72 L 100.66 85.03 L 102.18 85.34 L 103.70 85.65 L 104.73 84.48 L 105.76 83.32 L 107.29 83.63 L 108.81 83.94 L 109.30 85.41 L 109.80 86.88 L 108.27 86.57 L 106.75 86.26 L 105.72 87.43 L 104.69 88.59 L 106.22 88.90 L 107.74 89.21 L 109.26 89.52 L 110.78 89.83 L 111.81 88.66 L 112.84 87.50 L 112.35 86.03 L 111.85 84.55 L 112.88 83.39 L 113.91 82.23 L 114.94 81.06 L 115.97 79.90 L 116.46 81.37 L 116.96 82.84 L 115.93 84.01 L 114.90 85.17 L 116.42 85.48 L 117.95 85.79 L 118.97 84.63 L 120.00 83.46 L 121.53 83.77 L 123.05 84.08 L 123.54 85.55 L 124.04 87.03 L 122.51 86.72 L 120.99 86.41 L 119.96 87.57 L 118.93 88.74 L 120.46 89.05 L 121.98 89.35 L 123.50 89.66 L 125.02 89.97 L 126.05 88.81 L 127.08 87.64 L 128.61 87.95 L 130.13 88.26 L 130.62 89.73 L 131.12 91.21 L 131.61 92.68 L 132.10 94.15 L 130.58 93.85 L 129.06 93.54 L 128.56 92.06 L 128.07 90.59 L 127.04 91.75 L 126.01 92.92 L 126.51 94.39 L 127.00 95.87 L 128.52 96.17 L 130.05 96.48 L 130.54 97.96 L 131.03 99.43 L 131.53 100.90 L 132.02 102.38 L 130.50 102.07 L 128.98 101.76 L 128.48 100.29 L 127.99 98.81 L 126.96 99.98 L 125.93 101.14 L 126.42 102.61 L 126.92 104.09 L 125.89 105.25 L 124.86 106.42 L 123.34 106.11 L 121.81 105.80 L 120.29 105.49 L 118.77 105.18 L 119.80 104.02 L 120.83 102.85 L 122.35 103.16 L 123.87 103.47 L 123.38 102.00 L 122.88 100.52 L 121.36 100.21 L 119.84 99.90 L 119.34 98.43 L 118.85 96.96 L 119.88 95.79 L 120.91 94.63 L 121.40 96.10 L 121.90 97.58 L 123.42 97.89 L 124.94 98.19 L 124.45 96.72 L 123.95 95.25 L 123.46 93.77 L 122.97 92.30 L 121.44 91.99 L 119.92 91.68 L 118.89 92.85 L 117.86 94.01 L 116.34 93.70 L 114.82 93.39 L 115.85 92.23 L 116.88 91.07 L 116.38 89.59 L 115.89 88.12 L 114.86 89.28 L 113.83 90.45 L 112.80 91.61 L 111.77 92.78 L 112.27 94.25 L 112.76 95.72 L 114.28 96.03 L 115.81 96.34 L 116.30 97.81 L 116.79 99.29 L 117.29 100.76 L 117.78 102.23 L 116.26 101.92 L 114.74 101.62 L 114.24 100.14 L 113.75 98.67 L 112.72 99.83 L 111.69 101.00 L 112.18 102.47 L 112.68 103.94 L 114.20 104.25 L 115.72 104.56 L 116.22 106.04 L 116.71 107.51 L 115.19 107.20 L 113.66 106.89 L 112.64 108.06 L 111.61 109.22 L 113.13 109.53 L 114.65 109.84 L 116.18 110.15 L 117.70 110.46 L 118.73 109.29 L 119.76 108.13 L 121.28 108.44 L 122.80 108.74 L 123.30 110.22 L 123.79 111.69 L 124.28 113.16 L 124.78 114.64 L 123.26 114.33 L 121.73 114.02 L 121.24 112.55 L 120.74 111.07 L 119.72 112.24 L 118.69 113.40 L 119.18 114.88 L 119.67 116.35 L 121.20 116.66 L 122.72 116.97 L 123.21 118.44 L 123.71 119.91 L 124.20 121.39 L 124.70 122.86 L 123.17 122.55 L 121.65 122.24 L 121.16 120.77 L 120.66 119.30 L 119.63 120.46 L 118.60 121.62 L 119.10 123.10 L 119.59 124.57 L 118.56 125.74 L 117.53 126.90 L 116.01 126.59 L 114.49 126.28 L 112.97 125.97 L 111.44 125.66 L 112.47 124.50 L 113.50 123.34 L 115.02 123.64 L 116.55 123.95 L 116.05 122.48 L 115.56 121.01 L 114.04 120.70 L 112.51 120.39 L 112.02 118.92 L 111.52 117.44 L 112.55 116.28 L 113.58 115.11 L 114.08 116.59 L 114.57 118.06 L 116.09 118.37 L 117.62 118.68 L 117.12 117.20 L 116.63 115.73 L 116.13 114.26 L 115.64 112.78 L 114.12 112.48 L 112.59 112.17 L 111.57 113.33 L 110.54 114.50 L 109.01 114.19 L 107.49 113.88 L 108.52 112.71 L 109.55 111.55 L 109.06 110.08 L 108.56 108.60 L 107.53 109.77 L 106.50 110.93 L 105.47 112.10 L 104.45 113.26 L 105.43 116.21 L 106.96 116.52 L 108.48 116.82 L 108.97 118.30 L 109.47 119.77 L 109.96 121.24 L 110.45 122.72 L 108.93 122.41 L 107.41 122.10 L 106.42 119.15 L 105.39 120.32 L 104.36 121.48 L 104.86 122.96 L 105.35 124.43 L 104.32 125.59 L 103.29 126.76 L 101.77 126.45 L 100.25 126.14 L 101.28 124.98 L 102.30 123.81 L 101.81 122.34 L 101.32 120.86 L 100.29 122.03 L 99.26 123.19 L 98.23 124.36 L 97.20 125.52 L 97.70 127.00 L 98.19 128.47 L 97.16 129.63 L 96.13 130.80 L 94.61 130.49 L 93.09 130.18 L 91.56 129.87 L 90.04 129.56 L 91.07 128.40 L 92.10 127.23 L 93.62 127.54 L 95.14 127.85 L 94.65 126.38 L 94.16 124.90 L 92.63 124.59 L 91.11 124.29 L 90.08 125.45 L 89.05 126.61 L 87.53 126.31 L 86.01 126.00 L 84.48 125.69 L 82.96 125.38 L 83.99 124.21 L 85.02 123.05 L 86.54 123.36 L 88.06 123.67 L 87.57 122.19 L 87.08 120.72 L 85.55 120.41 L 84.03 120.10 L 83.54 118.63 L 83.04 117.16 L 84.07 115.99 L 85.10 114.83 L 86.13 113.66 L 87.16 112.50 L 87.65 113.97 L 88.15 115.45 L 87.12 116.61 L 86.09 117.77 L 87.61 118.08 L 89.13 118.39 L 90.16 117.23 L 91.19 116.06 L 92.71 116.37 L 94.24 116.68 L 94.73 118.16 L 95.23 119.63 L 93.70 119.32 L 92.18 119.01 L 91.15 120.17 L 90.12 121.34 L 91.64 121.65 L 93.17 121.96 L 94.69 122.27 L 96.21 122.58 L 97.24 121.41 L 98.27 120.25 L 97.78 118.77 L 97.28 117.30 L 98.31 116.14 L 99.34 114.97 L 99.84 116.44 L 100.33 117.92 L 101.85 118.23 L 103.38 118.54 L 102.88 117.06 L 102.39 115.59 L 101.89 114.12 L 101.40 112.64 L 99.88 112.33 L 98.35 112.02 L 97.32 113.19 L 96.30 114.35 L 94.77 114.04 L 93.25 113.74 L 91.73 113.43 L 90.20 113.12 L 91.23 111.95 L 92.26 110.79 L 93.79 111.10 L 95.31 111.41 L 94.81 109.93 L 94.32 108.46 L 92.80 108.15 L 91.27 107.84 L 90.78 106.37 L 90.29 104.90 L 91.32 103.73 L 92.34 102.57 L 92.84 104.04 L 93.33 105.51 L 94.86 105.82 L 96.38 106.13 L 95.88 104.66 L 95.39 103.18 L 94.90 101.71 L 94.40 100.24 L 92.88 99.93 L 91.36 99.62 L 90.86 98.15 L 90.37 96.67 L 91.40 95.51 L 92.43 94.34 L 93.46 93.18 L 94.48 92.02 L 94.98 93.49 L 95.47 94.96 L 94.44 96.13 L 93.41 97.29 L 94.94 97.60 L 96.46 97.91 L 97.49 96.74 L 98.52 95.58 L 100.04 95.89 L 101.56 96.20 L 102.06 97.67 L 102.55 99.14 L 103.05 100.62 L 103.54 102.09 L 102.02 101.78 L 100.49 101.47 L 100.00 100.00 L 99.51 98.53 L 98.48 99.69 L 97.45 100.86 L 97.94 102.33 L 98.44 103.80 L 99.96 104.11 L 101.48 104.42 L 102.47 107.37 L 100.95 107.06 L 99.42 106.75 L 98.39 107.91 L 97.37 109.08 L 98.89 109.39 L 100.41 109.70 L 101.93 110.00 L 103.46 110.31 L 104.49 109.15 L 105.52 107.98 L 105.02 106.51 L 104.53 105.04 L 105.56 103.87 L 106.59 102.71 L 107.08 104.18 L 107.57 105.66 L 109.10 105.96 L 110.62 106.27 L 110.13 104.80 L 109.63 103.33 L 109.14 101.85 L 108.64 100.38 L 107.12 100.07 L 105.60 99.76 L 105.10 98.29 L 104.61 96.82 L 105.64 95.65 L 106.67 94.49 L 107.16 95.96 L 107.66 97.43 L 109.18 97.74 L 110.70 98.05 L 110.21 96.58 L 109.71 95.10 L 109.22 93.63 L 108.73 92.16 L 107.20 91.85 L 105.68 91.54 L 104.65 92.70 L 103.62 93.87 L 102.10 93.56 L 100.58 93.25 L 99.05 92.94 L 97.53 92.63 L 98.56 91.47 L 99.59 90.30 L 101.11 90.61 L 102.63 90.92 L 102.14 89.45 L 101.65 87.98 L 100.12 87.67 L 98.60 87.36 L 97.57 88.52 L 96.54 89.69 L 95.02 89.38 L 93.50 89.07 L 94.53 87.90 L 95.55 86.74 L 94.57 83.79 L 93.54 84.96 L 92.51 86.12 L 91.48 87.29 L 90.45 88.45 L 90.95 89.92 L 91.44 91.40 L 90.41 92.56 L 89.38 93.73 L 87.86 93.42 L 86.34 93.11 L 84.81 92.80 L 83.29 92.49 L 84.32 91.33 L 85.35 90.16 L 86.87 90.47 L 88.39 90.78 L 87.90 89.31 L 87.41 87.83 L 85.88 87.52 L 84.36 87.22 L 83.87 85.74 L 83.37 84.27 L 84.40 83.10 L 85.43 81.94 L 86.46 80.78 L 87.49 79.61 L 87.98 81.08 L 88.48 82.56 L 87.45 83.72 L 86.42 84.89 L 87.94 85.20 L 89.46 85.50 L 90.49 84.34 L 91.52 83.18 L 91.03 81.70 L 90.53 80.23 L 91.56 79.06 L 92.59 77.90 L 93.58 80.85 L 95.10 81.16 L 96.63 81.46 L 96.13 79.99 L 95.64 78.52 L 95.14 77.04 L 94.65 75.57 L 93.13 75.26 L 91.60 74.95 L 90.57 76.12 L 89.55 77.28 L 88.02 76.97 L 86.50 76.66 L 87.53 75.50 L 88.56 74.34 L 88.06 72.86 L 87.57 71.39 L 86.54 72.55 L 85.51 73.72 L 84.48 74.88 L 83.45 76.05 L 83.95 77.52 L 84.44 78.99 L 83.41 80.16 L 82.38 81.32 L 80.86 81.01 L 79.34 80.70 L 80.37 79.54 L 81.40 78.38 L 80.90 76.90 L 80.41 75.43 L 79.38 76.59 L 78.35 77.76 L 77.32 78.92 L 76.29 80.09 L 76.79 81.56 L 77.28 83.03 L 78.80 83.34 L 80.33 83.65 L 80.82 85.12 L 81.31 86.60 L 81.81 88.07 L 82.30 89.54 L 80.78 89.24 L 79.26 88.93 L 78.76 87.45 L 78.27 85.98 L 77.24 87.14 L 76.21 88.31 L 76.70 89.78 L 77.20 91.26 L 78.72 91.56 L 80.24 91.87 L 80.74 93.35 L 81.23 94.82 L 79.71 94.51 L 78.19 94.20 L 77.16 95.37 L 76.13 96.53 L 77.65 96.84 L 79.17 97.15 L 80.70 97.46 L 82.22 97.77 L 83.25 96.60 L 84.28 95.44 L 85.80 95.75 L 87.32 96.06 L 87.82 97.53 L 88.31 99.00 L 88.80 100.48 L 89.30 101.95 L 87.78 101.64 L 86.25 101.33 L 85.76 99.86 L 85.27 98.38 L 84.24 99.55 L 83.21 100.71 L 83.70 102.19 L 84.19 103.66 L 85.72 103.97 L 87.24 104.28 L 87.73 105.75 L 88.23 107.22 L 88.72 108.70 L 89.22 110.17 L 87.69 109.86 L 86.17 109.55 L 85.68 108.08 L 85.18 106.61 L 84.15 107.77 L 83.12 108.93 L 83.62 110.41 L 84.11 111.88 L 83.08 113.05 L 82.05 114.21 L 80.53 113.90 L 79.01 113.59 L 77.49 113.28 L 75.96 112.97 L 76.99 111.81 L 78.02 110.65 L 79.54 110.95 L 81.07 111.26 L 80.57 109.79 L 80.08 108.32 L 78.56 108.01 L 77.03 107.70 L 76.54 106.23 L 76.05 104.75 L 77.07 103.59 L 78.10 102.42 L 78.60 103.90 L 79.09 105.37 L 80.61 105.68 L 82.14 105.99 L 81.64 104.51 L 81.15 103.04 L 80.66 101.57 L 80.16 100.09 L 78.64 99.79 L 77.12 99.48 L 76.09 100.64 L 75.06 101.81 L 73.53 101.50 L 72.01 101.19 L 73.04 100.02 L 74.07 98.86 L 73.58 97.39 L 73.08 95.91 L 72.05 97.08 L 71.02 98.24 L 70.00 99.41 L 68.97 100.57 L 69.46 102.04 L 69.95 103.52 L 71.48 103.83 L 73.00 104.13 L 73.49 105.61 L 73.99 107.08 L 74.48 108.55 L 74.98 110.03 L 73.45 109.72 L 71.93 109.41 L 71.44 107.94 L 70.94 106.46 L 69.91 107.63 L 68.88 108.79 L 69.38 110.27 L 69.87 111.74 L 71.39 112.05 L 72.92 112.36 L 73.41 113.83 L 73.91 115.30 L 72.38 114.99 L 70.86 114.69 L 69.83 115.85 L 68.80 117.01 L 70.32 117.32 L 71.85 117.63 L 73.37 117.94 L 74.89 118.25 L 75.92 117.09 L 76.95 115.92 L 78.47 116.23 L 80.00 116.54 L 80.49 118.01 L 80.98 119.49 L 81.48 120.96 L 81.97 122.43 L 80.45 122.12 L 78.93 121.81 L 78.43 120.34 L 77.94 118.87 L 76.91 120.03 L 75.88 121.20 L 76.37 122.67 L 76.87 124.14 L 75.84 125.31 L 74.81 126.47 L 73.29 126.16 L 71.76 125.85 L 70.24 125.55 L 68.72 125.24 L 69.75 124.07 L 70.78 122.91 L 72.30 123.22 L 73.82 123.53 L 73.33 122.05 L 72.83 120.58 L 71.31 120.27 L 69.79 119.96 L 68.76 121.13 L 67.73 122.29 L 66.21 121.98 L 64.69 121.67 L 65.71 120.51 L 66.74 119.34 L 66.25 117.87 L 65.76 116.40 L 64.73 117.56 L 63.70 118.73 L 62.67 119.89 L 61.64 121.05 L 62.13 122.53 L 62.63 124.00 L 64.15 124.31 L 65.67 124.62 L 66.17 126.09 L 66.66 127.57 L 65.14 127.26 L 63.62 126.95 L 62.59 128.11 L 61.56 129.28 L 63.08 129.59 L 64.60 129.89 L 66.13 130.20 L 67.65 130.51 L 68.68 129.35 L 69.71 128.18 L 71.23 128.49 L 72.75 128.80 L 73.25 130.27 L 73.74 131.75 L 72.22 131.44 L 70.69 131.13 L 69.67 132.29 L 68.64 133.46 L 70.16 133.77 L 71.68 134.08 L 73.21 134.39 L 74.73 134.69 L 75.76 133.53 L 76.79 132.37 L 76.29 130.89 L 75.80 129.42 L 76.83 128.25 L 77.86 127.09 L 78.89 125.93 L 79.91 124.76 L 80.41 126.23 L 80.90 127.71 L 79.87 128.87 L 78.84 130.04 L 80.37 130.35 L 81.89 130.65 L 82.92 129.49 L 83.95 128.33 L 85.47 128.63 L 86.99 128.94 L 87.49 130.42 L 87.98 131.89 L 86.46 131.58 L 84.94 131.27 L 83.91 132.44 L 82.88 133.60 L 84.40 133.91 L 85.92 134.22 L 87.45 134.53 L 88.97 134.84 L 90.00 133.67 L 91.03 132.51 L 92.55 132.82 L 94.07 133.13 L 94.57 134.60 L 95.06 136.07 L 95.55 137.55 L 96.05 139.02 L 94.53 138.71 L 93.00 138.40 L 92.51 136.93 L 92.02 135.45 L 90.99 136.62 L 89.96 137.78 L 90.45 139.26 L 90.95 140.73 L 92.47 141.04 L 93.99 141.35 L 94.48 142.82 L 94.98 144.29 L 95.47 145.77 L 95.97 147.24 L 94.44 146.93 L 92.92 146.62 L 92.43 145.15 L 91.93 143.68 L 90.90 144.84 L 89.87 146.01 L 90.37 147.48 L 90.86 148.95 L 89.83 150.12 L 88.80 151.28 L 87.28 150.97 L 85.76 150.66 L 84.24 150.35 L 82.71 150.05 L 83.74 148.88 L 84.77 147.72 L 86.29 148.03 L 87.82 148.33 L 87.32 146.86 L 86.83 145.39 L 85.31 145.08 L 83.78 144.77 L 83.29 143.30 L 82.80 141.82 L 83.82 140.66 L 84.85 139.49 L 85.35 140.97 L 85.84 142.44 L 87.36 142.75 L 88.89 143.06 L 88.39 141.59 L 87.90 140.11 L 87.41 138.64 L 86.91 137.17 L 85.39 136.86 L 83.87 136.55 L 82.84 137.71 L 81.81 138.88 L 80.28 138.57 L 78.76 138.26 L 79.79 137.09 L 80.82 135.93 L 80.33 134.46 L 79.83 132.98 L 78.80 134.15 L 77.77 135.31 L 76.75 136.48 L 75.72 137.64 L 76.21 139.11 L 76.70 140.59 L 78.23 140.90 L 79.75 141.21 L 80.24 142.68 L 80.74 144.15 L 81.23 145.63 L 81.73 147.10 L 80.20 146.79 L 78.68 146.48 L 78.19 145.01 L 77.69 143.53 L 76.66 144.70 L 75.63 145.86 L 76.13 147.34 L 76.62 148.81 L 75.59 149.97 L 74.56 151.14 L 73.04 150.83 L 71.52 150.52 L 72.55 149.36 L 73.58 148.19 L 73.08 146.72 L 72.59 145.25 L 71.56 146.41 L 70.53 147.57 L 69.50 148.74 L 68.47 149.90 L 68.97 151.38 L 69.46 152.85 L 68.43 154.01 L 67.40 155.18 L 65.88 154.87 L 64.36 154.56 L 62.83 154.25 L 61.31 153.94 L 62.34 152.78 L 63.37 151.61 L 64.89 151.92 L 66.41 152.23 L 65.92 150.76 L 65.43 149.28 L 63.90 148.98 L 62.38 148.67 L 61.35 149.83 L 60.32 151.00 L 58.80 150.69 L 57.28 150.38 L 55.75 150.07 L 54.23 149.76 L 55.26 148.60 L 56.29 147.43 L 57.81 147.74 L 59.33 148.05 L 58.84 146.58 L 58.35 145.10 L 56.82 144.79 L 55.30 144.48 L 54.81 143.01 L 54.31 141.54 L 55.34 140.37 L 56.37 139.21 L 57.40 138.04 L 58.43 136.88 L 58.92 138.35 L 59.42 139.83 L 58.39 140.99 L 57.36 142.16 L 58.88 142.46 L 60.40 142.77 L 61.43 141.61 L 62.46 140.45 L 63.99 140.75 L 65.51 141.06 L 66.00 142.54 L 66.50 144.01 L 64.97 143.70 L 63.45 143.39 L 62.42 144.56 L 61.39 145.72 L 62.92 146.03 L 64.44 146.34 L 65.96 146.65 L 67.48 146.96 L 68.51 145.79 L 69.54 144.63 L 69.05 143.15 L 68.55 141.68 L 69.58 140.52 L 70.61 139.35 L 71.11 140.83 L 71.60 142.30 L 73.12 142.61 L 74.65 142.92 L 74.15 141.44 L 73.66 139.97 L 73.16 138.50 L 72.67 137.02 L 71.15 136.71 L 69.62 136.41 L 68.60 137.57 L 67.57 138.73 L 66.04 138.43 L 64.52 138.12 L 63.00 137.81 L 61.48 137.50 L 62.50 136.33 L 63.53 135.17 L 65.06 135.48 L 66.58 135.79 L 66.08 134.31 L 65.59 132.84 L 64.07 132.53 L 62.55 132.22 L 61.52 133.39 L 60.49 134.55 L 58.96 134.24 L 57.44 133.93 L 58.47 132.77 L 59.50 131.61 L 59.01 130.13 L 58.51 128.66 L 57.48 129.82 L 56.45 130.99 L 55.42 132.15 L 54.40 133.32 L 54.89 134.79 L 55.38 136.26 L 54.35 137.43 L 53.33 138.59 L 51.80 138.28 L 50.28 137.97 L 48.76 137.66 L 47.23 137.36 L 48.26 136.19 L 49.29 135.03 L 50.81 135.34 L 52.34 135.64 L 51.84 134.17 L 51.35 132.70 L 49.83 132.39 L 48.30 132.08 L 47.81 130.61 L 47.32 129.13 L 48.35 127.97 L 49.37 126.80 L 50.40 125.64 L 51.43 124.48 L 51.93 125.95 L 52.42 127.42 L 51.39 128.59 L 50.36 129.75 L 51.88 130.06 L 53.41 130.37 L 54.44 129.21 L 55.47 128.04 L 54.97 126.57 L 54.48 125.09 L 55.51 123.93 L 56.54 122.77 L 57.03 124.24 L 57.52 125.71 L 59.05 126.02 L 60.57 126.33 L 60.08 124.86 L 59.58 123.38 L 59.09 121.91 L 58.59 120.44 L 57.07 120.13 L 55.55 119.82 L 54.52 120.98 L 53.49 122.15 L 51.97 121.84 L 50.44 121.53 L 51.47 120.37 L 52.50 119.20 L 52.01 117.73 L 51.51 116.25 L 50.49 117.42 L 49.46 118.58 L 48.43 119.75 L 47.40 120.91 L 47.89 122.38 L 48.39 123.86 L 47.36 125.02 L 46.33 126.19 L 44.81 125.88 L 43.28 125.57 L 44.31 124.40 L 45.34 123.24 L 44.85 121.77 L 44.35 120.29 L 43.32 121.46 L 42.29 122.62 L 41.27 123.79 L 40.24 124.95 L 40.73 126.42 L 41.22 127.90 L 42.75 128.21 L 44.27 128.52 L 44.76 129.99 L 45.26 131.46 L 45.75 132.94 L 46.25 134.41 L 44.72 134.10 L 43.20 133.79 L 42.71 132.32 L 42.21 130.84 L 41.18 132.01 L 40.15 133.17 L 40.65 134.65 L 41.14 136.12 L 42.67 136.43 L 44.19 136.74 L 44.68 138.21 L 45.18 139.68 L 43.65 139.38 L 42.13 139.07 L 41.10 140.23 L 40.07 141.40 L 41.60 141.70 L 43.12 142.01 L 44.64 142.32 L 46.16 142.63 L 47.19 141.47 L 48.22 140.30 L 49.74 140.61 L 51.27 140.92 L 51.76 142.39 L 52.26 143.87 L 52.75 145.34 L 53.24 146.81 L 51.72 146.50 L 50.20 146.20 L 49.70 144.72 L 49.21 143.25 L 48.18 144.41 L 47.15 145.58 L 47.65 147.05 L 48.14 148.52 L 47.11 149.69 L 46.08 150.85 L 44.56 150.54 L 43.04 150.24 L 41.51 149.93 L 39.99 149.62 L 41.02 148.45 L 42.05 147.29 L 43.57 147.60 L 45.09 147.91 L 44.60 146.43 L 44.11 144.96 L 42.58 144.65 L 41.06 144.34 L 40.03 145.51 L 39.00 146.67 L 37.48 146.36 L 35.96 146.05 L 36.99 144.89 L 38.01 143.72 L 37.52 142.25 L 37.03 140.78 L 36.00 141.94 L 34.97 143.11 L 33.94 144.27 L 32.91 145.44 L 33.40 146.91 L 33.90 148.38 L 35.42 148.69 L 36.94 149.00 L 37.44 150.47 L 37.93 151.95 L 36.41 151.64 L 34.89 151.33 L 33.86 152.49 L 32.83 153.66 L 34.35 153.97 L 35.87 154.28 L 37.40 154.58 L 38.92 154.89 L 39.95 153.73 L 40.98 152.56 L 42.50 152.87 L 44.02 153.18 L 44.52 154.66 L 45.01 156.13 L 43.49 155.82 L 41.97 155.51 L 40.94 156.68 L 39.91 157.84 L 41.43 158.15 L 42.95 158.46 L 44.48 158.77 L 46.00 159.08 L 47.03 157.91 L 48.06 156.75 L 47.56 155.27 L 47.07 153.80 L 48.10 152.64 L 49.13 151.47 L 50.16 150.31 L 51.19 149.14 L 51.68 150.62 L 52.17 152.09 L 51.14 153.25 L 50.12 154.42 L 51.64 154.73 L 53.16 155.04 L 54.19 153.87 L 55.22 152.71 L 56.74 153.02 L 58.26 153.32 L 58.76 154.80 L 59.25 156.27 L 57.73 155.96 L 56.21 155.65 L 55.18 156.82 L 54.15 157.98 L 55.67 158.29 L 57.19 158.60 L 58.72 158.91 L 60.24 159.22 L 61.27 158.05 L 62.30 156.89 L 63.82 157.20 L 65.34 157.51 L 65.84 158.98 L 66.33 160.45 L 66.83 161.93 L 67.32 163.40 L 65.80 163.09 L 64.27 162.78 L 63.78 161.31 L 63.29 159.84 L 62.26 161.00 L 61.23 162.16 L 61.72 163.64 L 62.22 165.11 L 61.19 166.28 L 60.16 167.44 L 58.64 167.13 L 57.11 166.82 L 55.59 166.51 L 54.07 166.20 L 55.10 165.04 L 56.12 163.88 L 57.65 164.18 L 59.17 164.49 L 58.68 163.02 L 58.18 161.55 L 56.66 161.24 L 55.14 160.93 L 54.11 162.09 L 53.08 163.26 L 51.56 162.95 L 50.03 162.64 L 51.06 161.48 L 52.09 160.31 L 51.60 158.84 L 51.10 157.36 L 50.07 158.53 L 49.04 159.69 L 48.02 160.86 L 46.99 162.02 L 47.48 163.50 L 47.97 164.97 L 49.50 165.28 L 51.02 165.59 L 51.51 167.06 L 52.01 168.53 L 50.49 168.22 L 48.96 167.92 L 47.93 169.08 L 46.90 170.24 L 48.43 170.55 L 49.95 170.86 L 51.47 171.17 L 53.00 171.48 L 54.03 170.32 L 55.05 169.15 L 56.58 169.46 L 58.10 169.77 L 58.59 171.24 L 59.09 172.72 L 57.56 172.41 L 56.04 172.10 L 55.01 173.26 L 53.98 174.43 L 55.51 174.74 L 57.03 175.04 L 58.55 175.35 L 60.08 175.66 L 61.10 174.50 L 62.13 173.33 L 61.64 171.86 L 61.15 170.39 L 62.17 169.22 L 63.20 168.06 L 64.23 166.89 L 65.26 165.73 L 65.76 167.20 L 66.25 168.68 L 65.22 169.84 L 64.19 171.00 L 65.71 171.31 L 67.24 171.62 L 68.27 170.46 L 69.30 169.29 L 68.80 167.82 L 68.31 166.35 L 69.34 165.18 L 70.37 164.02 L 70.86 165.49 L 71.35 166.96 L 72.88 167.27 L 74.40 167.58 L 73.91 166.11 L 73.41 164.64 L 72.92 163.16 L 72.42 161.69 L 70.90 161.38 L 69.38 161.07 L 68.88 159.60 L 68.39 158.12 L 69.42 156.96 L 70.45 155.80 L 71.48 154.63 L 72.51 153.47 L 73.00 154.94 L 73.49 156.41 L 72.46 157.58 L 71.44 158.74 L 72.96 159.05 L 74.48 159.36 L 75.51 158.20 L 76.54 157.03 L 76.05 155.56 L 75.55 154.09 L 76.58 152.92 L 77.61 151.76 L 78.64 150.59 L 79.67 149.43 L 80.16 150.90 L 80.66 152.37 L 79.63 153.54 L 78.60 154.70 L 80.12 155.01 L 81.64 155.32 L 82.67 154.16 L 83.70 152.99 L 85.22 153.30 L 86.75 153.61 L 87.24 155.08 L 87.73 156.56 L 88.23 158.03 L 88.72 159.50 L 87.20 159.19 L 85.68 158.89 L 85.18 157.41 L 84.69 155.94 L 83.66 157.10 L 82.63 158.27 L 83.12 159.74 L 83.62 161.21 L 82.59 162.38 L 81.56 163.54 L 80.04 163.23 L 78.51 162.93 L 79.54 161.76 L 80.57 160.60 L 80.08 159.12 L 79.58 157.65 L 78.56 158.81 L 77.53 159.98 L 76.50 161.14 L 75.47 162.31 L 75.96 163.78 L 76.46 165.25 L 77.98 165.56 L 79.50 165.87 L 80.00 167.35 L 80.49 168.82 L 78.97 168.51 L 77.44 168.20 L 76.42 169.36 L 75.39 170.53 L 76.91 170.84 L 78.43 171.15 L 79.96 171.46 L 81.48 171.77 L 82.51 170.60 L 83.54 169.44 L 83.04 167.96 L 82.55 166.49 L 83.58 165.33 L 84.61 164.16 L 85.64 163.00 L 86.66 161.83 L 87.16 163.31 L 87.65 164.78 L 86.62 165.94 L 85.59 167.11 L 87.12 167.42 L 88.64 167.73 L 89.67 166.56 L 90.70 165.40 L 90.20 163.92 L 89.71 162.45 L 90.74 161.29 L 91.77 160.12 L 92.26 161.59 L 92.76 163.07 L 94.28 163.38 L 95.80 163.69 L 95.31 162.21 L 94.81 160.74 L 94.32 159.27 L 93.83 157.79 L 92.30 157.48 L 90.78 157.17 L 90.29 155.70 L 89.79 154.23 L 90.82 153.06 L 91.85 151.90 L 92.88 150.73 L 93.91 149.57 L 94.40 151.04 L 94.90 152.52 L 93.87 153.68 L 92.84 154.85 L 94.36 155.15 L 95.88 155.46 L 96.91 154.30 L 97.94 153.13 L 99.46 153.44 L 100.99 153.75 L 101.48 155.23 L 101.98 156.70 L 102.47 158.17 L 102.96 159.65 L 101.44 159.34 L 99.92 159.03 L 99.42 157.55 L 98.93 156.08 L 97.90 157.25 L 96.87 158.41 L 97.37 159.88 L 97.86 161.36 L 99.38 161.67 L 100.91 161.97 L 101.40 163.45 L 101.89 164.92 L 100.37 164.61 L 98.85 164.30 L 97.82 165.47 L 96.79 166.63 L 98.31 166.94 L 99.84 167.25 L 101.36 167.56 L 102.88 167.87 L 103.91 166.70 L 104.94 165.54 L 104.45 164.07 L 103.95 162.59 L 104.98 161.43 L 106.01 160.26 L 106.50 161.74 L 107.00 163.21 L 108.52 163.52 L 110.04 163.83 L 109.55 162.35 L 109.05 160.88 L 108.56 159.41 L 108.07 157.93 L 106.54 157.63 L 105.02 157.32 L 104.53 155.84 L 104.03 154.37 L 105.06 153.21 L 106.09 152.04 L 106.59 153.51 L 107.08 154.99 L 108.60 155.30 L 110.13 155.61 L 109.63 154.13 L 109.14 152.66 L 108.64 151.19 L 108.15 149.71 L 106.63 149.40 L 105.10 149.09 L 104.07 150.26 L 103.05 151.42 L 101.52 151.11 L 100.00 150.81 L 98.48 150.50 L 96.95 150.19 L 97.98 149.02 L 99.01 147.86 L 100.54 148.17 L 102.06 148.48 L 101.56 147.00 L 101.07 145.53 L 99.55 145.22 L 98.02 144.91 L 97.53 143.44 L 97.04 141.97 L 98.07 140.80 L 99.09 139.64 L 99.59 141.11 L 100.08 142.58 L 101.61 142.89 L 103.13 143.20 L 102.63 141.73 L 102.14 140.25 L 101.65 138.78 L 101.15 137.31 L 99.63 137.00 L 98.11 136.69 L 97.61 135.22 L 97.12 133.74 L 98.15 132.58 L 99.18 131.41 L 100.21 130.25 L 101.23 129.09 L 101.73 130.56 L 102.22 132.03 L 101.19 133.20 L 100.16 134.36 L 101.69 134.67 L 103.21 134.98 L 104.24 133.82 L 105.27 132.65 L 104.77 131.18 L 104.28 129.70 L 105.31 128.54 L 106.34 127.38 L 107.37 126.21 L 108.40 125.05 L 109.38 127.99 L 108.36 129.16 L 107.33 130.32 L 108.85 130.63 L 110.37 130.94 L 111.40 129.78 L 112.43 128.61 L 113.95 128.92 L 115.48 129.23 L 115.97 130.70 L 116.46 132.18 L 116.96 133.65 L 117.45 135.12 L 115.93 134.81 L 114.41 134.50 L 113.91 133.03 L 113.42 131.56 L 112.39 132.72 L 111.36 133.89 L 112.35 136.83 L 111.32 138.00 L 110.29 139.16 L 108.77 138.85 L 107.24 138.54 L 108.27 137.38 L 109.30 136.22 L 108.81 134.74 L 108.31 133.27 L 107.29 134.43 L 106.26 135.60 L 105.23 136.76 L 104.20 137.93 L 104.69 139.40 L 105.19 140.87 L 106.71 141.18 L 108.23 141.49 L 108.73 142.96 L 109.22 144.44 L 107.70 144.13 L 106.17 143.82 L 105.14 144.98 L 104.12 146.15 L 105.64 146.46 L 107.16 146.77 L 108.68 147.08 L 110.21 147.38 L 111.24 146.22 L 112.27 145.06 L 111.77 143.58 L 111.28 142.11 L 112.31 140.94 L 113.34 139.78 L 114.36 138.62 L 115.39 137.45 L 115.89 138.92 L 116.38 140.40 L 115.35 141.56 L 114.32 142.73 L 115.85 143.04 L 117.37 143.34 L 118.40 142.18 L 119.43 141.02 L 120.95 141.32 L 122.47 141.63 L 122.97 143.11 L 123.46 144.58 L 121.94 144.27 L 120.41 143.96 L 119.39 145.13 L 118.36 146.29 L 119.88 146.60 L 121.40 146.91 L 122.93 147.22 L 124.45 147.53 L 125.48 146.36 L 126.51 145.20 L 128.03 145.51 L 129.55 145.82 L 130.05 147.29 L 130.54 148.76 L 131.03 150.24 L 131.53 151.71 L 130.01 151.40 L 128.48 151.09 L 127.99 149.62 L 127.49 148.14 L 126.47 149.31 L 125.44 150.47 L 125.93 151.95 L 126.42 153.42 L 127.95 153.73 L 129.47 154.04 L 129.96 155.51 L 130.46 156.98 L 130.95 158.46 L 131.45 159.93 L 129.92 159.62 L 128.40 159.31 L 127.91 157.84 L 127.41 156.37 L 126.38 157.53 L 125.35 158.70 L 125.85 160.17 L 126.34 161.64 L 125.31 162.81 L 124.28 163.97 L 122.76 163.66 L 121.24 163.35 L 119.72 163.04 L 118.19 162.73 L 119.22 161.57 L 120.25 160.41 L 121.77 160.72 L 123.30 161.02 L 122.80 159.55 L 122.31 158.08 L 120.79 157.77 L 119.26 157.46 L 118.27 154.51 L 119.30 153.35 L 120.33 152.18 L 120.83 153.66 L 121.32 155.13 L 122.84 155.44 L 124.37 155.75 L 123.87 154.28 L 123.38 152.80 L 122.88 151.33 L 122.39 149.86 L 120.87 149.55 L 119.34 149.24 L 118.32 150.40 L 117.29 151.57 L 115.76 151.26 L 114.24 150.95 L 115.27 149.78 L 116.30 148.62 L 115.31 145.67 L 114.28 146.84 L 113.25 148.00 L 112.22 149.17 L 111.20 150.33 L 111.69 151.80 L 112.18 153.28 L 113.71 153.59 L 115.23 153.90 L 115.72 155.37 L 116.22 156.84 L 116.71 158.32 L 117.20 159.79 L 115.68 159.48 L 114.16 159.17 L 113.66 157.70 L 113.17 156.22 L 112.14 157.39 L 111.11 158.55 L 111.61 160.03 L 112.10 161.50 L 113.62 161.81 L 115.15 162.12 L 115.64 163.59 L 116.13 165.06 L 114.61 164.75 L 113.09 164.45 L 112.06 165.61 L 111.03 166.77 L 112.55 167.08 L 114.08 167.39 L 115.60 167.70 L 117.12 168.01 L 118.15 166.85 L 119.18 165.68 L 120.70 165.99 L 122.23 166.30 L 124.20 172.19 L 122.68 171.88 L 121.16 171.57 L 120.66 170.10 L 120.17 168.63 L 119.14 169.79 L 118.11 170.96 L 118.60 172.43 L 119.10 173.90 L 118.07 175.07 L 117.04 176.23 L 115.52 175.92 L 113.99 175.61 L 112.47 175.31 L 110.95 175.00 L 111.98 173.83 L 113.01 172.67 L 114.53 172.98 L 116.05 173.29 L 115.56 171.81 L 115.06 170.34 L 113.54 170.03 L 112.02 169.72 L 110.99 170.89 L 109.96 172.05 L 108.44 171.74 L 106.91 171.43 L 107.94 170.27 L 108.97 169.10 L 108.48 167.63 L 107.98 166.16 L 106.96 167.32 L 105.93 168.49 L 104.90 169.65 L 103.87 170.81 L 104.36 172.29 L 104.86 173.76 L 106.38 174.07 L 107.90 174.38 L 108.40 175.85 L 108.89 177.33 L 107.37 177.02 L 105.84 176.71 L 104.82 177.87 L 103.79 179.04 L 105.31 179.35 L 106.83 179.65 L 108.36 179.96 L 109.88 180.27 L 110.91 179.11 L 111.94 177.94 L 113.46 178.25 L 114.98 178.56 L 115.48 180.03 L 115.97 181.51 L 114.45 181.20 L 112.92 180.89 L 111.89 182.05 L 110.87 183.22 L 112.39 183.53 L 113.91 183.84 L 115.43 184.15 L 116.96 184.45 L 117.99 183.29 L 119.02 182.13 L 118.52 180.65 L 118.03 179.18 L 119.06 178.01 L 120.09 176.85 L 121.11 175.69 L 122.14 174.52 L 122.64 175.99 L 123.13 177.47 L 122.10 178.63 L 121.07 179.80 L 122.60 180.11 L 124.12 180.41 L 125.15 179.25 L 126.18 178.09 L 125.19 175.14 L 126.22 173.98 L 127.25 172.81 L 127.74 174.28 L 128.24 175.76 L 129.76 176.07 L 131.28 176.38 L 130.79 174.90 L 130.29 173.43 L 129.80 171.96 L 129.31 170.48 L 127.78 170.17 L 126.26 169.86 L 125.77 168.39 L 125.27 166.92 L 126.30 165.75 L 127.33 164.59 L 128.36 163.42 L 129.39 162.26 L 129.88 163.73 L 130.38 165.21 L 129.35 166.37 L 128.32 167.54 L 129.84 167.84 L 131.36 168.15 L 132.39 166.99 L 133.42 165.82 L 134.94 166.13 L 136.47 166.44 L 136.96 167.92 L 137.45 169.39 L 137.95 170.86 L 138.44 172.34 L 136.92 172.03 L 135.40 171.72 L 134.90 170.24 L 134.41 168.77 L 133.38 169.94 L 132.35 171.10 L 132.85 172.57 L 133.34 174.05 L 134.86 174.36 L 136.38 174.66 L 136.88 176.14 L 137.37 177.61 L 135.85 177.30 L 134.33 176.99 L 133.30 178.16 L 132.27 179.32 L 133.79 179.63 L 135.31 179.94 L 136.84 180.25 L 138.36 180.56 L 139.39 179.39 L 140.42 178.23 L 139.92 176.76 L 139.43 175.28 L 140.46 174.12 L 141.49 172.95 L 141.98 174.43 L 142.48 175.90 L 144.00 176.21 L 145.52 176.52 L 145.03 175.04 L 144.53 173.57 L 144.04 172.10 L 143.55 170.62 L 142.02 170.32 L 140.50 170.01 L 140.01 168.53 L 139.51 167.06 L 140.54 165.90 L 141.57 164.73 L 142.06 166.20 L 142.56 167.68 L 144.08 167.99 L 145.60 168.30 L 145.11 166.82 L 144.62 165.35 L 144.12 163.88 L 143.63 162.40 L 142.11 162.09 L 140.58 161.78 L 139.55 162.95 L 138.52 164.11 L 137.00 163.80 L 135.48 163.50 L 133.96 163.19 L 132.43 162.88 L 133.46 161.71 L 134.49 160.55 L 136.01 160.86 L 137.54 161.17 L 137.04 159.69 L 136.55 158.22 L 135.03 157.91 L 133.50 157.60 L 133.01 156.13 L 132.52 154.66 L 133.54 153.49 L 134.57 152.33 L 135.07 153.80 L 135.56 155.27 L 137.08 155.58 L 138.61 155.89 L 138.11 154.42 L 137.62 152.94 L 137.13 151.47 L 136.63 150.00 L 135.11 149.69 L 133.59 149.38 L 133.09 147.91 L 132.60 146.43 L 133.63 145.27 L 134.66 144.10 L 135.68 142.94 L 136.71 141.78 L 137.21 143.25 L 137.70 144.72 L 136.67 145.89 L 135.64 147.05 L 137.17 147.36 L 138.69 147.67 L 139.72 146.50 L 140.75 145.34 L 142.27 145.65 L 143.79 145.96 L 144.29 147.43 L 144.78 148.90 L 145.28 150.38 L 145.77 151.85 L 144.25 151.54 L 142.72 151.23 L 142.23 149.76 L 141.74 148.29 L 140.71 149.45 L 139.68 150.62 L 140.17 152.09 L 140.67 153.56 L 142.19 153.87 L 143.71 154.18 L 144.20 155.65 L 144.70 157.13 L 143.18 156.82 L 141.65 156.51 L 140.62 157.67 L 139.60 158.84 L 141.12 159.15 L 142.64 159.46 L 144.16 159.76 L 145.69 160.07 L 146.72 158.91 L 147.74 157.74 L 147.25 156.27 L 146.76 154.80 L 147.79 153.63 L 148.81 152.47 L 149.31 153.94 L 149.80 155.42 L 151.33 155.72 L 152.85 156.03 L 152.35 154.56 L 151.86 153.09 L 151.37 151.61 L 150.87 150.14 L 149.35 149.83 L 147.83 149.52 L 147.33 148.05 L 146.84 146.58 L 147.87 145.41 L 148.90 144.25 L 149.39 145.72 L 149.88 147.19 L 151.41 147.50 L 152.93 147.81 L 152.44 146.34 L 151.94 144.86 L 151.45 143.39 L 150.96 141.92 L 149.43 141.61 L 147.91 141.30 L 146.88 142.46 L 145.85 143.63 L 144.33 143.32 L 142.81 143.01 L 141.28 142.70 L 139.76 142.39 L 140.79 141.23 L 141.82 140.06 L 143.34 140.37 L 144.86 140.68 L 144.37 139.21 L 143.88 137.74 L 142.35 137.43 L 140.83 137.12 L 139.80 138.28 L 138.77 139.45 L 137.25 139.14 L 135.73 138.83 L 136.76 137.66 L 137.78 136.50 L 137.29 135.03 L 136.80 133.55 L 135.77 134.72 L 134.74 135.88 L 133.71 137.05 L 132.68 138.21 L 133.17 139.68 L 133.67 141.16 L 132.64 142.32 L 131.61 143.49 L 130.09 143.18 L 128.56 142.87 L 127.04 142.56 L 125.52 142.25 L 126.55 141.09 L 127.58 139.92 L 129.10 140.23 L 130.62 140.54 L 130.13 139.07 L 129.63 137.59 L 128.11 137.28 L 126.59 136.98 L 125.56 138.14 L 124.53 139.30 L 123.01 139.00 L 121.49 138.69 L 119.96 138.38 L 118.44 138.07 L 119.47 136.90 L 120.50 135.74 L 122.02 136.05 L 123.54 136.36 L 123.05 134.88 L 122.56 133.41 L 121.03 133.10 L 119.51 132.79 L 119.02 131.32 L 118.52 129.85 L 119.55 128.68 L 120.58 127.52 L 121.61 126.35 L 122.64 125.19 L 123.13 126.66 L 123.63 128.14 L 122.60 129.30 L 121.57 130.46 L 123.09 130.77 L 124.61 131.08 L 125.64 129.92 L 126.67 128.75 L 128.19 129.06 L 129.72 129.37 L 130.21 130.84 L 130.70 132.32 L 129.18 132.01 L 127.66 131.70 L 126.63 132.86 L 125.60 134.03 L 127.12 134.34 L 128.65 134.65 L 130.17 134.96 L 131.69 135.26 L 132.72 134.10 L 133.75 132.94 L 133.26 131.46 L 132.76 129.99 L 133.79 128.82 L 134.82 127.66 L 135.31 129.13 L 135.81 130.61 L 137.33 130.92 L 138.85 131.22 L 138.36 129.75 L 137.87 128.28 L 137.37 126.80 L 136.88 125.33 L 135.36 125.02 L 133.83 124.71 L 132.80 125.88 L 131.77 127.04 L 130.25 126.73 L 128.73 126.42 L 127.21 126.12 L 125.68 125.81 L 126.71 124.64 L 127.74 123.48 L 129.26 123.79 L 130.79 124.10 L 130.29 122.62 L 129.80 121.15 L 128.28 120.84 L 126.75 120.53 L 126.26 119.06 L 125.77 117.58 L 126.79 116.42 L 127.82 115.26 L 128.32 116.73 L 128.81 118.20 L 130.33 118.51 L 131.86 118.82 L 131.36 117.35 L 130.87 115.87 L 130.38 114.40 L 129.88 112.93 L 128.36 112.62 L 126.84 112.31 L 126.34 110.84 L 125.85 109.36 L 126.88 108.20 L 127.91 107.03 L 128.93 105.87 L 129.96 104.71 L 130.46 106.18 L 130.95 107.65 L 129.92 108.82 L 128.89 109.98 L 130.42 110.29 L 131.94 110.60 L 132.97 109.43 L 134.00 108.27 L 135.52 108.58 L 137.04 108.89 L 137.54 110.36 L 138.03 111.83 L 138.52 113.31 L 139.02 114.78 L 137.50 114.47 L 135.97 114.16 L 135.48 112.69 L 134.99 111.22 L 133.96 112.38 L 132.93 113.54 L 133.42 115.02 L 133.92 116.49 L 135.44 116.80 L 136.96 117.11 L 137.45 118.58 L 137.95 120.06 L 136.43 119.75 L 134.90 119.44 L 133.87 120.60 L 132.84 121.77 L 134.37 122.08 L 135.89 122.38 L 137.41 122.69 L 138.94 123.00 L 139.97 121.84 L 140.99 120.67 L 140.50 119.20 L 140.01 117.73 L 141.04 116.56 L 142.06 115.40 L 142.56 116.87 L 143.05 118.35 L 144.58 118.65 L 146.10 118.96 L 145.60 117.49 L 145.11 116.02 L 144.62 114.54 L 144.12 113.07 L 142.60 112.76 L 141.08 112.45 L 140.58 110.98 L 140.09 109.51 L 141.12 108.34 L 142.15 107.18 L 142.64 108.65 L 143.13 110.12 L 144.66 110.43 L 146.18 110.74 L 145.69 109.27 L 145.19 107.79 L 144.70 106.32 L 144.20 104.85 L 142.68 104.54 L 141.16 104.23 L 140.13 105.39 L 139.10 106.56 L 137.58 106.25 L 136.06 105.94 L 134.53 105.63 L 133.01 105.32 L 134.04 104.16 L 135.07 102.99 L 136.59 103.30 L 138.11 103.61 L 137.62 102.14 L 137.13 100.67 L 135.60 100.36 L 134.08 100.05 L 133.59 98.57 L 133.09 97.10 L 134.12 95.94 L 135.15 94.77 L 135.64 96.25 L 136.14 97.72 L 137.66 98.03 L 139.18 98.34 L 138.69 96.86 L 138.20 95.39 L 137.70 93.92 L 137.21 92.44 L 135.68 92.13 L 134.16 91.83 L 133.67 90.35 L 133.17 88.88 L 134.20 87.71 L 135.23 86.55 L 136.26 85.39 L 137.29 84.22 L 137.78 85.69 L 138.28 87.17 L 137.25 88.33 L 136.22 89.50 L 137.74 89.81 L 139.27 90.11 L 140.29 88.95 L 141.32 87.79 L 140.83 86.31 L 140.34 84.84 L 141.36 83.67 L 142.39 82.51 L 143.42 81.35 L 144.45 80.18 L 144.95 81.65 L 145.44 83.13 L 144.41 84.29 L 143.38 85.46 L 144.90 85.77 L 146.43 86.07 L 147.46 84.91 L 148.49 83.75 L 150.01 84.05 L 151.53 84.36 L 152.03 85.84 L 152.52 87.31 L 153.01 88.78 L 153.51 90.26 L 151.98 89.95 L 150.46 89.64 L 149.97 88.17 L 149.47 86.69 L 148.44 87.86 L 147.42 89.02 L 147.91 90.49 L 148.40 91.97 L 147.37 93.13 L 146.35 94.30 L 144.82 93.99 L 143.30 93.68 L 144.33 92.51 L 145.36 91.35 L 144.86 89.88 L 144.37 88.40 L 143.34 89.57 L 142.31 90.73 L 141.28 91.90 L 140.25 93.06 L 140.75 94.53 L 141.24 96.01 L 142.76 96.32 L 144.29 96.63 L 144.78 98.10 L 145.27 99.57 L 143.75 99.26 L 142.23 98.95 L 141.20 100.12 L 140.17 101.28 L 141.69 101.59 L 143.22 101.90 L 144.74 102.21 L 146.26 102.52 L 147.29 101.35 L 148.32 100.19 L 147.83 98.72 L 147.33 97.24 L 148.36 96.08 L 149.39 94.91 L 150.42 93.75 L 151.45 92.59 L 151.94 94.06 L 152.44 95.53 L 151.41 96.70 L 150.38 97.86 L 151.90 98.17 L 153.42 98.48 L 154.45 97.31 L 155.48 96.15 L 157.01 96.46 L 158.53 96.77 L 159.02 98.24 L 159.52 99.71 L 157.99 99.41 L 156.47 99.10 L 155.44 100.26 L 154.41 101.43 L 155.94 101.73 L 157.46 102.04 L 158.98 102.35 L 160.50 102.66 L 161.53 101.50 L 162.56 100.33 L 164.08 100.64 L 165.61 100.95 L 166.10 102.42 L 166.60 103.90 L 167.09 105.37 L 167.58 106.84 L 166.06 106.53 L 164.54 106.23 L 164.04 104.75 L 163.55 103.28 L 162.52 104.44 L 161.49 105.61 L 161.99 107.08 L 162.48 108.55 L 164.00 108.86 L 165.53 109.17 L 166.02 110.65 L 166.51 112.12 L 167.01 113.59 L 167.50 115.07 L 165.98 114.76 L 164.46 114.45 L 163.96 112.97 L 163.47 111.50 L 162.44 112.67 L 161.41 113.83 L 161.90 115.30 L 162.40 116.78 L 161.37 117.94 L 160.34 119.11 L 158.82 118.80 L 157.29 118.49 L 155.77 118.18 L 154.25 117.87 L 155.28 116.71 L 156.31 115.54 L 157.83 115.85 L 159.35 116.16 L 158.86 114.69 L 158.36 113.21 L 156.84 112.90 L 155.32 112.59 L 154.82 111.12 L 154.33 109.65 L 155.36 108.48 L 156.39 107.32 L 156.88 108.79 L 157.38 110.27 L 158.90 110.57 L 160.42 110.88 L 159.93 109.41 L 159.43 107.94 L 158.94 106.46 L 158.45 104.99 L 156.92 104.68 L 155.40 104.37 L 154.37 105.54 L 153.34 106.70 L 151.82 106.39 L 150.30 106.08 L 151.33 104.92 L 152.35 103.75 L 151.86 102.28 L 151.37 100.81 L 150.34 101.97 L 149.31 103.14 L 148.28 104.30 L 147.25 105.47 L 147.74 106.94 L 148.24 108.41 L 149.76 108.72 L 151.28 109.03 L 151.78 110.50 L 152.27 111.98 L 152.77 113.45 L 153.26 114.92 L 151.74 114.61 L 150.21 114.31 L 149.72 112.83 L 149.23 111.36 L 148.20 112.52 L 147.17 113.69 L 147.66 115.16 L 148.16 116.63 L 149.68 116.94 L 151.20 117.25 L 151.70 118.73 L 152.19 120.20 L 150.67 119.89 L 149.14 119.58 L 148.11 120.75 L 147.09 121.91 L 148.61 122.22 L 150.13 122.53 L 151.65 122.84 L 153.18 123.15 L 154.21 121.98 L 155.24 120.82 L 156.76 121.13 L 158.28 121.43 L 158.78 122.91 L 159.27 124.38 L 159.76 125.85 L 160.26 127.33 L 158.73 127.02 L 157.21 126.71 L 156.72 125.24 L 156.22 123.76 L 155.19 124.93 L 154.17 126.09 L 154.66 127.57 L 155.15 129.04 L 154.12 130.20 L 153.10 131.37 L 151.57 131.06 L 150.05 130.75 L 148.53 130.44 L 147.00 130.13 L 148.03 128.97 L 149.06 127.80 L 150.58 128.11 L 152.11 128.42 L 151.61 126.95 L 151.12 125.47 L 149.60 125.17 L 148.07 124.86 L 147.04 126.02 L 146.02 127.19 L 144.49 126.88 L 142.97 126.57 L 144.00 125.40 L 145.03 124.24 L 144.53 122.77 L 144.04 121.29 L 143.01 122.46 L 141.98 123.62 L 140.95 124.79 L 139.92 125.95 L 140.42 127.42 L 140.91 128.90 L 142.44 129.21 L 143.96 129.51 L 144.45 130.99 L 144.95 132.46 L 143.42 132.15 L 141.90 131.84 L 140.87 133.01 L 139.84 134.17 L 141.36 134.48 L 142.89 134.79 L 144.41 135.10 L 145.93 135.41 L 146.96 134.24 L 147.99 133.08 L 149.51 133.39 L 151.04 133.70 L 151.53 135.17 L 152.03 136.64 L 150.50 136.33 L 148.98 136.03 L 147.95 137.19 L 146.92 138.35 L 148.44 138.66 L 149.97 138.97 L 151.49 139.28 L 153.01 139.59 L 154.04 138.43 L 155.07 137.26 L 154.58 135.79 L 154.08 134.31 L 155.11 133.15 L 156.14 131.99 L 157.17 130.82 L 158.20 129.66 L 158.69 131.13 L 159.19 132.60 L 158.16 133.77 L 157.13 134.93 L 158.65 135.24 L 160.17 135.55 L 161.20 134.39 L 162.23 133.22 L 161.74 131.75 L 161.24 130.27 L 162.27 129.11 L 163.30 127.95 L 163.80 129.42 L 164.29 130.89 L 165.81 131.20 L 167.34 131.51 L 166.84 130.04 L 166.35 128.56 L 165.85 127.09 L 165.36 125.62 L 163.84 125.31 L 162.31 125.00 L 161.82 123.53 L 161.33 122.05 L 162.36 120.89 L 163.39 119.72 L 164.41 118.56 L 165.44 117.39 L 165.94 118.87 L 166.43 120.34 L 165.40 121.51 L 164.37 122.67 L 165.90 122.98 L 167.42 123.29 L 168.45 122.12 L 169.48 120.96 L 171.00 121.27 L 172.52 121.58 L 173.02 123.05 L 173.51 124.52 L 174.00 126.00 L 174.50 127.47 L 172.98 127.16 L 171.45 126.85 L 170.96 125.38 L 170.46 123.91 L 169.44 125.07 L 168.41 126.23 L 168.90 127.71 L 169.39 129.18 L 170.92 129.49 L 172.44 129.80 L 172.93 131.27 L 173.43 132.75 L 171.90 132.44 L 170.38 132.13 L 169.35 133.29 L 168.32 134.46 L 169.85 134.77 L 171.37 135.07 L 172.89 135.38 L 174.42 135.69 L 175.44 134.53 L 176.47 133.36 L 175.98 131.89 L 175.49 130.42 L 176.51 129.25 L 177.54 128.09 L 178.04 129.56 L 178.53 131.03 L 180.05 131.34 L 181.58 131.65 L 181.08 130.18 L 180.59 128.71 L 180.10 127.23 L 179.60 125.76 L 178.08 125.45 L 176.56 125.14 L 176.06 123.67 L 175.57 122.19 L 176.60 121.03 L 177.63 119.87 L 178.12 121.34 L 178.61 122.81 L 180.14 123.12 L 181.66 123.43 L 181.17 121.96 L 180.67 120.48 L 180.18 119.01 L 179.68 117.54 L 178.16 117.23 L 176.64 116.92 L 175.61 118.08 L 174.58 119.25 L 173.06 118.94 L 171.53 118.63 L 170.01 118.32 L 168.49 118.01 L 169.52 116.85 L 170.55 115.68 L 172.07 115.99 L 173.59 116.30 L 173.10 114.83 L 172.60 113.35 L 171.08 113.05 L 169.56 112.74 L 169.06 111.26 L 168.57 109.79 L 169.60 108.63 L 170.63 107.46 L 171.12 108.93 L 171.62 110.41 L 173.14 110.72 L 174.66 111.03 L 174.17 109.55 L 173.67 108.08 L 173.18 106.61 L 172.69 105.13 L 171.16 104.82 L 169.64 104.51 L 169.15 103.04 L 168.65 101.57 L 169.68 100.40 L 170.71 99.24 L 171.74 98.08 L 172.77 96.91 L 173.26 98.38 L 173.76 99.86 L 172.73 101.02 L 171.70 102.19 L 173.22 102.50 L 174.74 102.80 L 175.77 101.64 L 176.80 100.48 L 178.33 100.78 L 179.85 101.09 L 180.34 102.57 L 180.84 104.04 L 181.33 105.51 L 181.82 106.99 L 180.30 106.68 L 178.78 106.37 L 178.28 104.90 L 177.79 103.42 L 176.76 104.59 L 175.73 105.75 L 176.23 107.22 L 176.72 108.70 L 178.24 109.01 L 179.77 109.32 L 180.26 110.79 L 180.75 112.26 L 179.23 111.95 L 177.71 111.64 L 176.68 112.81 L 175.65 113.97 L 177.17 114.28 L 178.70 114.59 L 180.22 114.90 L 181.74 115.21 L 182.77 114.04 L 183.80 112.88 L 183.31 111.41 L 182.81 109.93 L 183.84 108.77 L 184.87 107.60 L 185.36 109.08 L 185.86 110.55 L 187.38 110.86 L 188.90 111.17 L 188.41 109.70 L 187.92 108.22 L 187.42 106.75 L 186.93 105.28 L 185.41 104.97 L 183.88 104.66 L 183.39 103.18 L 182.89 101.71 L 183.92 100.55 L 184.95 99.38 L 185.45 100.86 L 185.94 102.33 L 187.46 102.64 L 188.99 102.95 L 188.49 101.47 L 188.00 100.00 L 187.50 98.53 L 187.01 97.05 L 185.49 96.74 L 183.96 96.44 L 182.94 97.60 L 181.91 98.76 L 180.38 98.46 L 178.86 98.15 L 177.34 97.84 L 175.82 97.53 L 176.84 96.36 L 177.87 95.20 L 179.40 95.51 L 180.92 95.82 L 180.42 94.34 L 179.93 92.87 L 178.41 92.56 L 176.89 92.25 L 175.86 93.42 L 174.83 94.58 L 173.30 94.27 L 171.78 93.96 L 172.81 92.80 L 173.84 91.64 L 173.35 90.16 L 172.85 88.69 L 171.82 89.85 L 170.79 91.02 L 169.76 92.18 L 168.74 93.35 L 169.23 94.82 L 169.72 96.29 L 168.69 97.46 L 167.67 98.62 L 166.14 98.31 L 164.62 98.00 L 163.10 97.69 L 161.57 97.39 L 162.60 96.22 L 163.63 95.06 L 165.15 95.37 L 166.68 95.68 L 166.18 94.20 L 165.69 92.73 L 164.17 92.42 L 162.64 92.11 L 161.62 93.27 L 160.59 94.44 L 159.06 94.13 L 157.54 93.82 L 156.02 93.51 L 154.49 93.20 L 155.52 92.04 L 156.55 90.87 L 158.08 91.18 L 159.60 91.49 L 159.10 90.02 L 158.61 88.55 L 157.09 88.24 L 155.56 87.93 L 155.07 86.45 L 154.58 84.98 L 155.61 83.82 L 156.63 82.65 L 157.66 81.49 L 158.69 80.32 L 159.19 81.80 L 159.68 83.27 L 158.65 84.44 L 157.62 85.60 L 159.15 85.91 L 160.67 86.22 L 161.70 85.05 L 162.73 83.89 L 164.25 84.20 L 165.77 84.51 L 166.27 85.98 L 166.76 87.45 L 165.24 87.14 L 163.71 86.84 L 162.69 88.00 L 161.66 89.16 L 163.18 89.47 L 164.70 89.78 L 166.22 90.09 L 167.75 90.40 L 168.78 89.24 L 169.81 88.07 L 169.31 86.60 L 168.82 85.12 L 169.85 83.96 L 170.88 82.80 L 171.37 84.27 L 171.86 85.74 L 173.39 86.05 L 174.91 86.36 L 174.42 84.89 L 173.92 83.41 L 173.43 81.94 L 172.93 80.47 L 171.41 80.16 L 169.89 79.85 L 168.86 81.01 L 167.83 82.18 L 166.31 81.87 L 164.78 81.56 L 163.26 81.25 L 161.74 80.94 L 162.77 79.78 L 163.80 78.61 L 165.32 78.92 L 166.84 79.23 L 166.35 77.76 L 165.85 76.28 L 164.33 75.98 L 162.81 75.67 L 161.78 76.83 L 160.75 78.00 L 159.23 77.69 L 157.71 77.38 L 158.73 76.21 L 159.76 75.05 L 159.27 73.58 L 158.78 72.10 L 157.75 73.27 L 156.72 74.43 L 155.69 75.60 L 154.66 76.76 L 155.15 78.23 L 155.65 79.71 L 154.62 80.87 L 153.59 82.03 L 152.07 81.73 L 150.54 81.42 L 149.02 81.11 L 147.50 80.80 L 148.53 79.63 L 149.56 78.47 L 151.08 78.78 L 152.60 79.09 L 152.11 77.61 L 151.61 76.14 L 150.09 75.83 L 148.57 75.52 L 148.07 74.05 L 147.58 72.58 L 148.61 71.41 L 149.64 70.25 L 150.67 69.08 L 151.70 67.92 L 152.19 69.39 L 152.68 70.87 L 151.65 72.03 L 150.63 73.19 L 152.15 73.50 L 153.67 73.81 L 154.70 72.65 L 155.73 71.48 L 155.24 70.01 L 154.74 68.54 L 155.77 67.37 L 156.80 66.21 L 157.29 67.68 L 157.79 69.16 L 159.31 69.46 L 160.83 69.77 L 160.34 68.30 L 159.85 66.83 L 159.35 65.35 L 158.86 63.88 L 157.33 63.57 L 155.81 63.26 L 154.78 64.43 L 153.75 65.59 L 152.23 65.28 L 150.71 64.97 L 151.74 63.81 L 152.77 62.64 L 152.27 61.17 L 151.78 59.70 L 150.75 60.86 L 149.72 62.03 L 148.69 63.19 L 147.66 64.36 L 148.16 65.83 L 148.65 67.30 L 147.62 68.47 L 146.59 69.63 L 145.07 69.32 L 143.55 69.01 L 144.58 67.85 L 145.60 66.68 L 145.11 65.21 L 144.62 63.74 L 143.59 64.90 L 142.56 66.07 L 141.53 67.23 L 140.50 68.39 L 140.99 69.87 L 141.49 71.34 L 143.01 71.65 L 144.53 71.96 L 145.03 73.43 L 145.52 74.91 L 146.02 76.38 L 146.51 77.85 L 144.99 77.54 L 143.46 77.23 L 142.97 75.76 L 142.48 74.29 L 141.45 75.45 L 140.42 76.62 L 140.91 78.09 L 141.41 79.56 L 140.38 80.73 L 139.35 81.89 L 137.83 81.58 L 136.30 81.27 L 137.33 80.11 L 138.36 78.95 L 137.87 77.47 L 137.37 76.00 L 136.34 77.16 L 135.31 78.33 L 134.29 79.49 L 133.26 80.66 L 133.75 82.13 L 134.24 83.60 L 133.22 84.77 L 132.19 85.93 L 130.66 85.62 L 129.14 85.31 L 127.62 85.01 L 126.09 84.70 L 127.12 83.53 L 128.15 82.37 L 129.68 82.68 L 131.20 82.99 L 130.70 81.51 L 130.21 80.04 L 128.69 79.73 L 127.16 79.42 L 126.14 80.59 L 125.11 81.75 L 123.58 81.44 L 122.06 81.13 L 120.54 80.82 L 119.02 80.51 L 120.04 79.35 L 121.07 78.19 L 122.60 78.49 L 124.12 78.80 L 123.63 77.33 L 123.13 75.86 L 121.61 75.55 L 120.09 75.24 L 119.59 73.77 L 119.10 72.29 L 120.13 71.13 L 121.16 69.96 L 122.18 68.80 L 123.21 67.63 L 123.71 69.11 L 124.20 70.58 L 123.17 71.75 L 122.14 72.91 L 123.67 73.22 L 125.19 73.53 L 126.22 72.36 L 127.25 71.20 L 128.77 71.51 L 130.29 71.82 L 130.79 73.29 L 131.28 74.76 L 129.76 74.45 L 128.24 74.15 L 127.21 75.31 L 126.18 76.47 L 127.70 76.78 L 129.22 77.09 L 130.75 77.40 L 132.27 77.71 L 133.30 76.55 L 134.33 75.38 L 133.83 73.91 L 133.34 72.43 L 134.37 71.27 L 135.40 70.11 L 135.89 71.58 L 136.38 73.05 L 137.91 73.36 L 139.43 73.67 L 138.94 72.20 L 138.44 70.72 L 137.95 69.25 L 137.45 67.78 L 135.93 67.47 L 134.41 67.16 L 133.38 68.32 L 132.35 69.49 L 130.83 69.18 L 129.31 68.87 L 127.78 68.56 L 126.26 68.25 L 127.29 67.09 L 128.32 65.92 L 129.84 66.23 L 131.36 66.54 L 130.87 65.07 L 130.38 63.59 L 128.85 63.29 L 127.33 62.98 L 126.30 64.14 L 125.27 65.31 L 123.75 65.00 L 122.23 64.69 L 123.25 63.52 L 124.28 62.36 L 123.79 60.89 L 123.30 59.41 L 122.27 60.58 L 121.24 61.74 L 120.21 62.91 L 119.18 64.07 L 119.67 65.54 L 120.17 67.02 L 119.14 68.18 L 118.11 69.35 L 116.59 69.04 L 115.06 68.73 L 113.54 68.42 L 112.02 68.11 L 113.05 66.95 L 114.08 65.78 L 115.60 66.09 L 117.12 66.40 L 116.63 64.93 L 116.13 63.45 L 114.61 63.14 L 113.09 62.83 L 112.06 64.00 L 111.03 65.16 L 109.51 64.85 L 107.98 64.55 L 106.46 64.24 L 104.94 63.93 L 105.97 62.76 L 107.00 61.60 L 108.52 61.91 L 110.04 62.22 L 109.55 60.74 L 109.05 59.27 L 107.53 58.96 L 106.01 58.65 L 105.52 57.18 L 105.02 55.71 L 106.05 54.54 L 107.08 53.38 L 108.11 52.21 L 109.14 51.05 L 109.63 52.52 L 110.13 53.99 L 109.10 55.16 L 108.07 56.32 L 109.59 56.63 L 111.11 56.94 L 112.14 55.78 L 113.17 54.61 L 114.69 54.92 L 116.22 55.23 L 116.71 56.70 L 117.20 58.18 L 115.68 57.87 L 114.16 57.56 L 113.13 58.72 L 112.10 59.89 L 113.62 60.20 L 115.15 60.51 L 116.67 60.81 L 118.19 61.12 L 119.22 59.96 L 120.25 58.79 L 119.76 57.32 L 119.26 55.85 L 120.29 54.68 L 121.32 53.52 L 121.81 54.99 L 122.31 56.47 L 123.83 56.77 L 125.35 57.08 L 124.86 55.61 L 124.37 54.14 L 123.87 52.66 L 123.38 51.19 L 121.86 50.88 L 120.33 50.57 L 119.30 51.74 L 118.27 52.90 L 116.75 52.59 L 115.23 52.28 L 113.71 51.97 L 112.18 51.67 L 113.21 50.50 L 114.24 49.34 L 115.76 49.65 L 117.29 49.95 L 116.79 48.48 L 116.30 47.01 L 114.78 46.70 L 113.25 46.39 L 112.76 44.92 L 112.27 43.44 L 113.29 42.28 L 114.32 41.11 L 114.82 42.59 L 115.31 44.06 L 116.83 44.37 L 118.36 44.68 L 117.86 43.21 L 117.37 41.73 L 116.88 40.26 L 116.38 38.79 L 114.86 38.48 L 113.34 38.17 L 112.84 36.69 L 112.35 35.22 L 113.38 34.06 L 114.41 32.89 L 115.43 31.73 L 116.46 30.56 L 116.96 32.04 L 117.45 33.51 L 116.42 34.67 L 115.39 35.84 L 116.92 36.15 L 118.44 36.46 L 119.47 35.29 L 120.50 34.13 L 120.00 32.65 L 119.51 31.18 L 120.54 30.02 L 121.57 28.85 L 122.60 27.69 L 123.63 26.52 L 124.12 28.00 L 124.61 29.47 L 123.58 30.63 L 122.56 31.80 L 124.08 32.11 L 125.60 32.42 L 126.63 31.25 L 127.66 30.09 L 129.18 30.40 L 130.70 30.71 L 131.20 32.18 L 131.69 33.65 L 132.19 35.13 L 132.68 36.60 L 131.16 36.29 L 129.63 35.98 L 129.14 34.51 L 128.65 33.04 L 127.62 34.20 L 126.59 35.36 L 127.08 36.84 L 127.58 38.31 L 126.55 39.47 L 125.52 40.64 L 124.00 40.33 L 122.47 40.02 L 123.50 38.86 L 124.53 37.69 L 124.04 36.22 L 123.54 34.75 L 122.51 35.91 L 121.48 37.07 L 120.46 38.24 L 119.43 39.40 L 119.92 40.88 L 120.41 42.35 L 121.94 42.66 L 123.46 42.97 L 123.95 44.44 L 124.45 45.91 L 122.93 45.61 L 121.40 45.30 L 120.37 46.46 L 119.34 47.63 L 120.87 47.93 L 122.39 48.24 L 123.91 48.55 L 125.44 48.86 L 126.47 47.70 L 127.49 46.53 L 127.00 45.06 L 126.51 43.59 L 127.54 42.42 L 128.56 41.26 L 129.59 40.09 L 130.62 38.93 L 131.12 40.40 L 131.61 41.88 L 130.58 43.04 L 129.55 44.20 L 131.08 44.51 L 132.60 44.82 L 133.63 43.66 L 134.66 42.49 L 136.18 42.80 L 137.70 43.11 L 138.20 44.58 L 138.69 46.06 L 137.17 45.75 L 135.64 45.44 L 134.61 46.60 L 133.59 47.77 L 135.11 48.08 L 136.63 48.39 L 138.15 48.70 L 139.68 49.00 L 140.71 47.84 L 141.74 46.68 L 143.26 46.98 L 144.78 47.29 L 145.27 48.77 L 145.77 50.24 L 146.26 51.71 L 146.76 53.19 L 145.23 52.88 L 143.71 52.57 L 143.22 51.10 L 142.72 49.62 L 141.69 50.79 L 140.67 51.95 L 141.16 53.42 L 141.65 54.90 L 140.62 56.06 L 139.60 57.23 L 138.07 56.92 L 136.55 56.61 L 135.03 56.30 L 133.50 55.99 L 134.53 54.83 L 135.56 53.66 L 137.08 53.97 L 138.61 54.28 L 138.11 52.81 L 137.62 51.33 L 136.10 51.02 L 134.57 50.71 L 133.54 51.88 L 132.52 53.04 L 130.99 52.73 L 129.47 52.43 L 130.50 51.26 L 131.53 50.10 L 131.03 48.62 L 130.54 47.15 L 129.51 48.31 L 128.48 49.48 L 127.45 50.64 L 126.42 51.81 L 126.92 53.28 L 127.41 54.75 L 128.93 55.06 L 130.46 55.37 L 130.95 56.85 L 131.45 58.32 L 129.92 58.01 L 128.40 57.70 L 127.37 58.87 L 126.34 60.03 L 127.86 60.34 L 129.39 60.65 L 130.91 60.96 L 132.43 61.27 L 133.46 60.10 L 134.49 58.94 L 136.01 59.25 L 137.54 59.55 L 138.03 61.03 L 138.52 62.50 L 137.00 62.19 L 135.48 61.88 L 134.45 63.05 L 133.42 64.21 L 134.94 64.52 L 136.47 64.83 L 137.99 65.14 L 139.51 65.45 L 140.54 64.28 L 141.57 63.12 L 141.08 61.65 L 140.58 60.17 L 141.61 59.01 L 142.64 57.84 L 143.67 56.68 L 144.70 55.52 L 145.19 56.99 L 145.69 58.46 L 144.66 59.63 L 143.63 60.79 L 145.15 61.10 L 146.67 61.41 L 147.70 60.24 L 148.73 59.08 L 148.24 57.61 L 147.74 56.13 L 148.77 54.97 L 149.80 53.80 L 150.30 55.28 L 150.79 56.75 L 152.31 57.06 L 153.84 57.37 L 153.34 55.90 L 152.85 54.42 L 152.35 52.95 L 151.86 51.48 L 150.34 51.17 L 148.81 50.86 L 148.32 49.38 L 147.83 47.91 L 148.86 46.75 L 149.88 45.58 L 150.91 44.42 L 151.94 43.25 L 152.44 44.73 L 152.93 46.20 L 151.90 47.36 L 150.87 48.53 L 152.40 48.84 L 153.92 49.15 L 154.95 47.98 L 155.98 46.82 L 157.50 47.13 L 159.02 47.44 L 159.52 48.91 L 160.01 50.38 L 160.50 51.86 L 161.00 53.33 L 159.47 53.02 L 157.95 52.71 L 157.46 51.24 L 156.96 49.76 L 155.94 50.93 L 154.91 52.09 L 155.40 53.57 L 155.89 55.04 L 157.42 55.35 L 158.94 55.66 L 159.43 57.13 L 159.93 58.60 L 158.40 58.30 L 156.88 57.99 L 155.85 59.15 L 154.82 60.32 L 156.35 60.62 L 157.87 60.93 L 159.39 61.24 L 160.92 61.55 L 161.94 60.39 L 162.97 59.22 L 162.48 57.75 L 161.99 56.28 L 163.01 55.11 L 164.04 53.95 L 164.54 55.42 L 165.03 56.89 L 166.55 57.20 L 168.08 57.51 L 167.58 56.04 L 167.09 54.56 L 166.60 53.09 L 166.10 51.62 L 164.58 51.31 L 163.06 51.00 L 162.56 49.53 L 162.07 48.05 L 163.10 46.89 L 164.13 45.72 L 164.62 47.20 L 165.11 48.67 L 166.64 48.98 L 168.16 49.29 L 167.67 47.82 L 167.17 46.34 L 166.68 44.87 L 166.18 43.40 L 164.66 43.09 L 163.14 42.78 L 162.11 43.94 L 161.08 45.11 L 159.56 44.80 L 158.03 44.49 L 156.51 44.18 L 154.99 43.87 L 156.02 42.71 L 157.05 41.54 L 158.57 41.85 L 160.09 42.16 L 159.60 40.69 L 159.10 39.21 L 157.58 38.90 L 156.06 38.60 L 155.03 39.76 L 154.00 40.92 L 152.48 40.62 L 150.95 40.31 L 151.98 39.14 L 153.01 37.98 L 152.52 36.50 L 152.03 35.03 L 151.00 36.20 L 149.97 37.36 L 148.94 38.52 L 147.91 39.69 L 148.40 41.16 L 148.90 42.64 L 147.87 43.80 L 146.84 44.96 L 145.32 44.66 L 143.79 44.35 L 142.27 44.04 L 140.75 43.73 L 141.78 42.56 L 142.81 41.40 L 144.33 41.71 L 145.85 42.02 L 145.36 40.54 L 144.86 39.07 L 143.34 38.76 L 141.82 38.45 L 140.79 39.62 L 139.76 40.78 L 138.24 40.47 L 136.71 40.16 L 135.19 39.86 L 133.67 39.55 L 134.70 38.38 L 135.73 37.22 L 137.25 37.53 L 138.77 37.84 L 138.28 36.36 L 137.78 34.89 L 136.26 34.58 L 134.74 34.27 L 134.24 32.80 L 133.75 31.32 L 134.78 30.16 L 135.81 29.00 L 136.84 27.83 L 137.87 26.67 L 138.36 28.14 L 138.85 29.61 L 137.83 30.78 L 136.80 31.94 L 138.32 32.25 L 139.84 32.56 L 140.87 31.40 L 141.90 30.23 L 143.42 30.54 L 144.95 30.85 L 145.44 32.32 L 145.93 33.80 L 144.41 33.49 L 142.89 33.18 L 141.86 34.34 L 140.83 35.51 L 142.35 35.82 L 143.88 36.12 L 145.40 36.43 L 146.92 36.74 L 147.95 35.58 L 148.98 34.41 L 148.49 32.94 L 147.99 31.47 L 149.02 30.30 L 150.05 29.14 L 150.54 30.61 L 151.04 32.08 L 152.56 32.39 L 154.08 32.70 L 153.59 31.23 L 153.10 29.76 L 152.60 28.28 L 152.11 26.81 L 150.58 26.50 L 149.06 26.19 L 148.03 27.36 L 147.00 28.52 L 145.48 28.21 L 143.96 27.90 L 142.43 27.59 L 140.91 27.28 L 141.94 26.12 L 142.97 24.96 L 144.49 25.26 L 146.02 25.57 L 145.52 24.10 L 145.03 22.63 L 143.51 22.32 L 141.98 22.01 L 142.66 20.75" 
          fill="none" 
          stroke="currentColor" 
          stroke-width="0.5"/>
</svg>