<?xml version="1.0" encoding="UTF-8" standalone="no"?>
<svg width="100%" height="100%" viewBox="0 0 200 200" preserveAspectRatio="xMidYMid meet" xmlns="http://www.w3.org/2000/svg">
    <path d="M 100.00 100.00 L 99.96 100.00 L 99.91 99.98 L 99.85 99.95 L 99.80 99.92 L 99.79 99.88 L 99.78 99.85 L 99.75 99.79 L 99.71 99.70 L 99.70 99.62 L 99.74 99.59 L 99.78 99.56 L 99.79 99.46 L 99.81 99.33 L 99.87 99.27 L 99.95 99.29 L 100.02 99.28 L 100.11 99.18 L 100.22 99.06 L 100.32 99.05 L 100.39 99.14 L 100.48 99.18 L 100.64 99.12 L 100.82 99.08 L 100.92 99.16 L 100.94 99.30 L 101.01 99.39 L 101.22 99.42 L 101.42 99.49 L 101.45 99.64 L 101.37 99.80 L 101.41 99.94 L 101.61 100.09 L 101.76 100.28 L 101.68 100.44 L 101.50 100.56 L 101.48 100.73 L 101.60 101.00 L 101.62 101.26 L 101.43 101.35 L 101.19 101.38 L 101.09 101.55 L 101.06 101.89 L 100.93 102.12 L 100.67 102.09 L 100.43 101.99 L 100.24 102.14 L 100.03 102.45 L 99.77 102.57 L 99.55 102.37 L 99.36 102.16 L 99.09 102.23 L 98.72 102.42 L 98.43 102.36 L 98.33 102.03 L 98.24 101.75 L 97.93 101.69 L 97.48 101.66 L 97.27 101.43 L 97.37 101.06 L 97.41 100.75 L 97.10 100.54 L 96.71 100.27 L 96.67 99.94 L 96.98 99.65 L 97.14 99.37 L 96.93 98.99 L 96.72 98.55 L 96.90 98.24 L 97.35 98.12 L 97.62 97.92 L 97.59 97.44 L 97.64 96.92 L 98.01 96.78 L 98.49 96.90 L 98.82 96.81 L 99.04 96.31 L 99.36 95.90 L 99.78 95.99 L 100.17 96.36 L 100.53 96.39 L 101.00 96.02 L 101.50 95.83 L 101.82 96.19 L 102.00 96.71 L 102.35 96.88 L 102.99 96.76 L 103.52 96.89 L 103.59 97.41 L 103.50 97.97 L 103.81 98.28 L 104.47 98.50 L 104.83 98.90 L 104.59 99.42 L 104.25 99.89 L 104.44 100.33 L 104.94 100.87 L 105.01 101.42 L 104.48 101.76 L 103.97 102.04 L 103.98 102.58 L 104.16 103.33 L 103.89 103.81 L 103.20 103.84 L 102.63 103.88 L 102.39 104.43 L 102.17 105.19 L 101.66 105.44 L 101.01 105.08 L 100.47 104.88 L 99.98 105.34 L 99.38 105.90 L 98.80 105.78 L 98.39 105.11 L 97.98 104.73 L 97.27 104.94 L 96.46 105.12 L 96.04 104.66 L 96.01 103.84 L 95.77 103.33 L 94.97 103.20 L 94.18 102.93 L 94.10 102.26 L 94.49 101.50 L 94.44 100.93 L 93.73 100.42 L 93.20 99.77 L 93.55 99.13 L 94.27 98.64 L 94.42 98.07 L 94.00 97.22 L 93.91 96.40 L 94.61 96.04 L 95.49 95.93 L 95.84 95.42 L 95.87 94.42 L 96.25 93.70 L 97.09 93.78 L 97.93 94.09 L 98.48 93.71 L 99.01 92.80 L 99.72 92.42 L 100.44 92.98 L 101.05 93.62 L 101.76 93.46 L 102.70 92.89 L 103.49 93.00 L 103.84 93.92 L 104.10 94.74 L 104.90 94.88 L 106.02 94.84 L 106.61 95.40 L 106.42 96.43 L 106.32 97.27 L 107.06 97.75 L 108.07 98.30 L 108.22 99.11 L 107.50 99.94 L 107.08 100.65 L 107.60 101.48 L 108.20 102.47 L 107.82 103.23 L 106.74 103.61 L 106.10 104.11 L 106.22 105.16 L 106.23 106.31 L 105.43 106.73 L 104.27 106.53 L 103.51 106.76 L 103.12 107.83 L 102.52 108.81 L 101.57 108.68 L 100.63 107.94 L 99.83 107.88 L 98.94 108.72 L 97.93 109.22 L 97.16 108.53 L 96.68 107.41 L 95.93 107.08 L 94.68 107.43 L 93.58 107.30 L 93.31 106.23 L 93.39 105.02 L 92.78 104.42 L 91.45 104.13 L 90.63 103.42 L 91.00 102.29 L 91.62 101.26 L 91.23 100.43 L 90.16 99.50 L 89.90 98.47 L 90.88 97.67 L 91.86 97.02 L 91.80 96.03 L 91.31 94.67 L 91.69 93.68 L 93.02 93.49 L 94.15 93.33 L 94.50 92.31 L 94.76 90.85 L 95.66 90.28 L 96.95 90.82 L 98.01 91.13 L 98.82 90.26 L 99.78 89.12 L 100.86 89.20 L 101.75 90.36 L 102.57 91.04 L 103.77 90.55 L 105.17 90.06 L 106.03 90.79 L 106.24 92.28 L 106.73 93.19 L 108.12 93.28 L 109.56 93.58 L 109.85 94.73 L 109.30 96.16 L 109.43 97.17 L 110.72 97.93 L 111.76 98.93 L 111.32 100.10 L 110.14 101.11 L 109.92 102.10 L 110.76 103.44 L 111.10 104.81 L 110.00 105.58 L 108.49 105.92 L 107.93 106.80 L 108.06 108.45 L 107.60 109.75 L 106.16 109.79 L 104.68 109.41 L 103.81 110.07 L 103.12 111.65 L 102.03 112.44 L 100.72 111.66 L 99.59 110.67 L 98.47 111.00 L 97.07 112.09 L 95.74 112.11 L 95.00 110.67 L 94.43 109.33 L 93.17 109.21 L 91.38 109.47 L 90.31 108.72 L 90.41 107.03 L 90.46 105.62 L 89.25 104.96 L 87.55 104.30 L 87.13 103.05 L 88.12 101.59 L 88.71 100.37 L 87.81 99.18 L 86.67 97.75 L 87.08 96.46 L 88.72 95.66 L 89.70 94.80 L 89.36 93.22 L 89.12 91.43 L 90.25 90.60 L 92.11 90.70 L 93.30 90.28 L 93.72 88.60 L 94.44 86.97 L 95.91 86.95 L 97.51 87.95 L 98.75 87.97 L 99.95 86.58 L 101.39 85.60 L 102.69 86.48 L 103.63 88.11 L 104.79 88.56 L 106.59 87.84 L 108.28 87.80 L 108.91 89.34 L 108.98 91.22 L 109.95 92.05 L 111.96 92.26 L 113.34 93.15 L 113.01 94.89 L 112.24 96.56 L 112.89 97.73 L 114.61 98.91 L 115.23 100.39 L 113.95 101.76 L 112.55 102.88 L 112.75 104.31 L 113.70 106.21 L 113.36 107.75 L 111.46 108.28 L 109.77 108.67 L 109.38 110.17 L 109.28 112.33 L 108.10 113.36 L 106.12 112.83 L 104.49 112.49 L 103.45 113.82 L 102.28 115.64 L 100.71 115.78 L 99.22 114.26 L 97.92 113.35 L 96.30 114.18 L 94.38 115.15 L 93.00 114.31 L 92.43 112.21 L 91.62 110.92 L 89.67 110.98 L 87.55 110.83 L 86.89 109.27 L 87.44 107.12 L 87.15 105.67 L 85.26 104.82 L 83.57 103.60 L 83.95 101.87 L 85.46 100.23 L 85.70 98.79 L 84.32 97.08 L 83.57 95.20 L 84.94 93.91 L 87.04 93.18 L 87.75 91.90 L 87.30 89.64 L 87.69 87.72 L 89.66 87.38 L 91.83 87.70 L 92.97 86.71 L 93.66 84.42 L 95.02 83.09 L 96.96 83.91 L 98.71 85.15 L 100.21 84.59 L 101.95 82.87 L 103.78 82.56 L 105.06 84.38 L 106.06 86.19 L 107.77 86.22 L 110.17 85.56 L 111.80 86.36 L 111.97 88.69 L 112.08 90.67 L 113.78 91.41 L 116.21 92.02 L 117.05 93.63 L 115.97 95.80 L 115.29 97.57 L 116.64 99.04 L 118.43 100.78 L 118.16 102.61 L 116.07 103.98 L 114.81 105.28 L 115.46 107.33 L 116.11 109.71 L 114.78 111.06 L 112.24 111.23 L 110.65 111.94 L 110.33 114.21 L 109.66 116.55 L 107.70 116.87 L 105.38 115.78 L 103.69 115.87 L 102.31 117.88 L 100.55 119.47 L 98.67 118.57 L 97.14 116.51 L 95.54 116.01 L 93.28 117.23 L 91.02 117.61 L 89.90 115.70 L 89.52 113.19 L 88.16 112.17 L 85.49 112.20 L 83.46 111.29 L 83.57 108.96 L 84.37 106.59 L 83.41 105.12 L 82.19 104.48 L 80.97 103.84 L 79.85 102.00 L 81.26 99.98 L 82.98 98.28 L 82.59 96.45 L 81.81 95.28 L 81.03 94.11 L 81.17 92.02 L 83.55 90.99 L 85.76 90.24 L 86.09 88.26 L 85.98 86.85 L 85.87 85.43 L 87.19 83.83 L 88.53 84.01 L 89.87 84.19 L 92.09 84.43 L 93.26 82.61 L 93.87 81.32 L 94.48 80.04 L 96.49 79.54 L 97.59 80.40 L 98.69 81.26 L 100.53 82.32 L 102.48 81.05 L 103.65 80.25 L 104.81 79.45 L 106.77 80.25 L 107.30 81.58 L 107.84 82.90 L 109.07 84.52 L 111.55 84.17 L 112.93 84.08 L 114.32 84.00 L 115.47 85.86 L 115.29 87.30 L 115.11 88.73 L 115.63 90.61 L 118.16 91.43 L 119.36 92.07 L 120.56 92.71 L 120.41 94.99 L 119.56 96.17 L 118.71 97.35 L 118.54 99.24 L 119.54 100.23 L 120.54 101.22 L 121.85 103.51 L 120.35 105.40 L 119.05 106.03 L 117.75 106.66 L 116.95 108.38 L 117.40 109.78 L 117.86 111.18 L 117.71 113.73 L 115.29 114.51 L 113.86 114.47 L 112.43 114.42 L 111.08 115.80 L 110.81 117.30 L 110.55 118.79 L 109.06 120.76 L 106.46 120.07 L 105.24 119.40 L 104.02 118.73 L 102.19 119.58 L 101.22 120.81 L 100.26 122.03 L 97.98 122.78 L 97.02 121.74 L 96.05 120.71 L 94.51 118.49 L 92.37 118.64 L 90.91 119.25 L 89.44 119.87 L 87.21 119.17 L 86.91 117.72 L 86.61 116.27 L 86.20 113.72 L 84.01 113.00 L 82.42 112.81 L 80.84 112.62 L 79.45 110.76 L 79.96 109.31 L 80.46 107.86 L 81.11 105.48 L 79.26 103.83 L 77.99 102.87 L 76.71 101.92 L 76.70 99.59 L 77.90 98.56 L 79.09 97.53 L 80.57 95.70 L 79.49 93.26 L 78.88 91.81 L 78.27 90.36 L 79.68 88.43 L 81.26 88.12 L 82.84 87.81 L 84.80 86.73 L 84.84 85.31 L 84.89 83.88 L 85.11 82.35 L 85.33 80.83 L 87.68 80.05 L 89.23 80.56 L 90.78 81.06 L 92.91 80.78 L 93.62 79.44 L 94.33 78.11 L 95.30 76.96 L 96.26 75.81 L 98.75 76.56 L 99.87 77.75 L 100.99 78.93 L 103.05 79.39 L 104.35 78.48 L 105.65 77.57 L 107.04 77.13 L 108.42 76.69 L 109.28 77.76 L 110.14 78.83 L 110.57 80.38 L 111.00 81.93 L 112.78 83.07 L 114.42 82.86 L 116.07 82.64 L 117.42 83.02 L 118.77 83.41 L 118.90 84.85 L 119.04 86.29 L 118.71 87.83 L 118.38 89.38 L 119.71 91.10 L 121.31 91.70 L 122.91 92.31 L 123.78 93.34 L 124.65 94.38 L 123.95 95.74 L 123.26 97.10 L 122.29 98.29 L 121.33 99.49 L 122.00 101.67 L 123.14 103.00 L 124.28 104.32 L 124.51 106.94 L 123.14 107.77 L 121.77 108.59 L 120.43 109.22 L 119.09 109.84 L 118.90 112.28 L 119.26 114.00 L 119.61 115.73 L 118.29 117.95 L 116.63 117.95 L 114.96 117.95 L 113.55 117.94 L 112.14 117.94 L 110.94 120.27 L 110.39 121.95 L 109.85 123.63 L 107.48 124.64 L 106.00 123.76 L 104.52 122.88 L 102.07 121.77 L 100.98 122.66 L 99.88 123.55 L 98.57 124.72 L 97.27 125.89 L 94.74 125.29 L 93.87 123.75 L 93.00 122.22 L 91.28 120.33 L 89.81 120.70 L 88.35 121.07 L 86.65 121.41 L 84.96 121.74 L 83.22 119.71 L 83.22 117.92 L 83.22 116.13 L 82.37 113.84 L 80.79 113.52 L 79.21 113.20 L 77.63 112.62 L 76.05 112.04 L 75.93 110.65 L 75.81 109.26 L 76.68 107.69 L 77.55 106.11 L 77.56 103.75 L 76.22 102.70 L 74.89 101.65 L 73.88 100.36 L 72.88 99.07 L 73.61 97.80 L 74.33 96.53 L 75.84 95.56 L 77.35 94.59 L 78.16 92.41 L 77.41 90.80 L 76.67 89.18 L 76.53 87.60 L 76.39 86.03 L 77.78 85.35 L 79.16 84.67 L 80.92 84.52 L 82.68 84.36 L 84.20 82.57 L 84.29 80.73 L 84.39 78.88 L 85.12 77.54 L 85.85 76.20 L 87.47 76.40 L 89.08 76.59 L 90.68 77.25 L 92.27 77.90 L 94.38 76.69 L 95.37 75.08 L 96.35 73.46 L 97.67 72.79 L 98.98 72.12 L 100.31 73.20 L 101.64 74.28 L 102.73 75.54 L 103.83 76.79 L 106.37 76.39 L 108.04 75.44 L 109.71 74.48 L 111.13 74.69 L 112.55 74.89 L 113.14 76.58 L 113.73 78.27 L 114.15 79.81 L 114.58 81.35 L 115.91 81.66 L 117.25 81.97 L 119.19 81.95 L 121.13 81.94 L 122.14 82.92 L 123.16 83.91 L 122.78 85.73 L 122.41 87.55 L 122.15 89.05 L 121.90 90.55 L 123.10 91.42 L 124.29 92.29 L 125.98 93.24 L 127.66 94.18 L 127.89 95.58 L 128.13 96.97 L 126.85 98.39 L 125.57 99.81 L 124.78 101.02 L 123.98 102.23 L 124.76 103.61 L 125.55 104.98 L 126.52 106.63 L 127.49 108.28 L 126.83 109.56 L 126.18 110.84 L 124.33 111.46 L 122.48 112.07 L 121.34 112.84 L 120.20 113.60 L 120.33 115.29 L 120.47 116.98 L 120.45 118.86 L 120.43 120.73 L 119.11 121.41 L 117.79 122.08 L 115.86 121.71 L 113.92 121.34 L 111.35 121.90 L 110.69 123.58 L 110.03 125.25 L 109.06 126.79 L 108.09 128.34 L 106.56 128.12 L 105.02 127.90 L 103.51 126.64 L 101.99 125.39 L 99.45 125.02 L 98.04 126.28 L 96.63 127.54 L 95.04 128.30 L 93.44 129.07 L 92.24 127.96 L 91.05 126.85 L 90.31 125.05 L 89.57 123.24 L 87.33 122.04 L 85.41 122.53 L 83.50 123.02 L 81.82 122.80 L 80.13 122.57 L 79.72 120.90 L 79.31 119.23 L 79.49 117.33 L 79.67 115.42 L 77.93 113.50 L 75.96 113.02 L 73.98 112.54 L 72.75 111.45 L 71.52 110.36 L 72.11 108.65 L 72.70 106.94 L 73.70 105.37 L 74.70 103.80 L 74.19 102.54 L 73.69 101.29 L 72.15 99.89 L 70.61 98.50 L 70.23 96.95 L 69.84 95.41 L 71.32 94.22 L 72.80 93.02 L 74.33 92.09 L 75.87 91.16 L 75.85 89.73 L 75.83 88.30 L 75.15 86.30 L 74.47 84.31 L 75.05 82.87 L 75.62 81.43 L 77.58 81.17 L 79.54 80.90 L 81.25 80.73 L 82.96 80.56 L 83.52 79.13 L 84.09 77.70 L 84.48 75.63 L 84.87 73.55 L 86.17 72.74 L 87.47 71.92 L 89.35 72.72 L 91.23 73.52 L 92.78 74.05 L 94.32 74.57 L 95.49 73.41 L 96.66 72.25 L 98.02 70.66 L 99.39 69.06 L 100.93 69.18 L 102.47 69.29 L 103.73 70.97 L 104.98 72.65 L 106.13 73.69 L 107.27 74.73 L 108.93 74.11 L 110.59 73.50 L 112.54 72.83 L 114.50 72.17 L 115.70 73.19 L 116.90 74.22 L 117.17 76.33 L 117.44 78.44 L 118.07 79.77 L 118.71 81.10 L 120.58 81.27 L 122.46 81.44 L 124.43 81.87 L 126.40 82.30 L 126.79 83.89 L 127.18 85.48 L 126.39 87.47 L 125.59 89.46 L 125.70 90.87 L 125.80 92.28 L 127.50 93.33 L 129.19 94.37 L 130.60 95.73 L 132.01 97.09 L 131.39 98.69 L 130.77 100.29 L 129.12 101.65 L 127.48 103.02 L 127.10 104.35 L 126.72 105.68 L 127.81 107.46 L 128.90 109.24 L 129.33 111.08 L 129.77 112.92 L 128.28 113.94 L 126.80 114.97 L 124.73 115.40 L 122.67 115.82 L 121.86 116.95 L 121.05 118.07 L 121.20 120.23 L 121.34 122.39 L 120.72 124.10 L 120.09 125.82 L 118.19 125.86 L 116.29 125.90 L 114.31 125.35 L 112.33 124.79 L 111.15 125.59 L 109.98 126.40 L 109.06 128.42 L 108.15 130.45 L 106.72 131.48 L 105.29 132.50 L 103.58 131.47 L 101.87 130.43 L 100.40 129.09 L 98.93 127.74 L 97.48 128.10 L 96.03 128.45 L 94.22 129.82 L 92.42 131.18 L 90.71 131.20 L 89.01 131.22 L 88.06 129.36 L 87.10 127.49 L 86.40 125.71 L 85.70 123.93 L 84.13 123.72 L 82.55 123.51 L 80.29 123.82 L 78.03 124.13 L 76.66 123.17 L 75.30 122.20 L 75.45 120.04 L 75.60 117.87 L 75.72 116.05 L 75.83 114.23 L 74.37 113.37 L 72.90 112.50 L 70.78 111.66 L 68.67 110.81 L 68.14 109.24 L 67.61 107.66 L 68.87 105.82 L 70.14 103.97 L 70.95 102.44 L 71.75 100.91 L 70.69 99.42 L 69.62 97.94 L 68.24 96.16 L 66.85 94.39 L 67.36 92.79 L 67.87 91.19 L 69.93 90.20 L 71.99 89.21 L 73.26 88.17 L 74.54 87.14 L 74.17 85.22 L 73.81 83.30 L 73.53 81.10 L 73.25 78.91 L 74.65 77.89 L 76.04 76.87 L 78.35 77.02 L 80.65 77.17 L 82.15 76.71 L 83.64 76.24 L 84.18 74.24 L 84.72 72.24 L 85.60 70.27 L 86.48 68.30 L 88.28 68.28 L 90.08 68.27 L 92.03 69.51 L 93.98 70.76 L 95.49 70.85 L 96.99 70.94 L 98.45 69.31 L 99.90 67.68 L 101.63 66.52 L 103.37 65.36 L 104.93 66.42 L 106.49 67.47 L 107.61 69.48 L 108.72 71.49 L 110.09 72.08 L 111.45 72.68 L 113.58 71.86 L 115.71 71.04 L 117.72 71.00 L 119.73 70.97 L 120.47 72.81 L 121.22 74.65 L 121.27 76.91 L 121.32 79.16 L 122.42 80.19 L 123.51 81.22 L 125.85 81.50 L 128.19 81.77 L 129.82 82.82 L 131.45 83.87 L 131.05 85.92 L 130.66 87.97 L 129.70 89.95 L 128.74 91.93 L 129.44 93.32 L 130.13 94.71 L 132.11 96.09 L 134.08 97.48 L 134.80 99.20 L 135.52 100.93 L 134.03 102.53 L 132.53 104.12 L 130.85 105.42 L 129.17 106.71 L 129.33 108.34 L 129.50 109.98 L 130.57 112.17 L 131.65 114.37 L 131.25 116.14 L 130.85 117.92 L 128.65 118.52 L 126.45 119.12 L 124.46 119.54 L 122.48 119.96 L 121.99 121.64 L 121.50 123.32 L 121.36 125.77 L 121.22 128.23 L 119.88 129.41 L 118.53 130.59 L 116.25 129.96 L 113.97 129.33 L 112.10 128.90 L 110.22 128.46 L 109.03 129.91 L 107.83 131.36 L 106.50 133.41 L 105.17 135.46 L 103.38 135.61 L 101.60 135.77 L 99.91 134.03 L 98.21 132.29 L 96.75 131.20 L 95.29 130.11 L 93.48 131.00 L 91.68 131.89 L 89.52 132.97 L 87.37 134.04 L 85.81 133.10 L 84.26 132.15 L 83.64 129.76 L 83.02 127.37 L 82.13 125.88 L 81.25 124.39 L 79.11 124.43 L 76.96 124.47 L 74.61 124.29 L 72.27 124.11 L 71.54 122.37 L 70.81 120.64 L 71.44 118.23 L 72.07 115.83 L 71.80 114.19 L 71.54 112.56 L 69.48 111.60 L 67.43 110.63 L 65.58 109.29 L 63.73 107.94 L 64.15 106.03 L 64.57 104.11 L 66.28 102.30 L 67.98 100.50 L 68.29 98.92 L 68.61 97.34 L 67.14 95.47 L 65.67 93.59 L 64.85 91.54 L 64.04 89.49 L 65.55 88.08 L 67.05 86.67 L 69.37 85.89 L 71.70 85.11 L 72.53 83.74 L 73.35 82.37 L 72.89 79.94 L 72.43 77.50 L 72.86 75.42 L 73.29 73.34 L 75.43 72.98 L 77.57 72.61 L 79.94 72.99 L 82.31 73.37 L 83.57 72.34 L 84.83 71.31 L 85.59 68.88 L 86.35 66.45 L 87.81 65.01 L 89.28 63.58 L 91.37 64.48 L 93.47 65.37 L 95.36 66.74 L 97.24 68.10 L 98.84 67.56 L 100.45 67.01 L 102.31 65.20 L 104.18 63.39 L 106.13 63.06 L 108.09 62.74 L 109.45 64.69 L 110.82 66.65 L 111.86 68.62 L 112.90 70.60 L 114.70 70.68 L 116.49 70.76 L 119.03 70.08 L 121.56 69.39 L 123.30 70.24 L 125.03 71.09 L 125.19 73.56 L 125.35 76.04 L 125.44 78.17 L 125.53 80.30 L 127.27 81.11 L 129.02 81.92 L 131.56 82.57 L 134.10 83.23 L 134.99 84.92 L 135.88 86.61 L 134.72 88.89 L 133.57 91.17 L 132.81 93.05 L 132.04 94.92 L 133.41 96.47 L 134.77 98.01 L 136.63 99.83 L 138.49 101.65 L 138.20 103.55 L 137.91 105.45 L 135.72 106.88 L 133.53 108.31 L 132.16 109.65 L 130.80 110.99 L 131.43 113.10 L 132.07 115.21 L 132.73 117.68 L 133.40 120.15 L 132.01 121.54 L 130.62 122.94 L 127.98 123.10 L 125.33 123.26 L 123.65 123.96 L 121.97 124.65 L 121.61 126.96 L 121.25 129.27 L 120.56 131.67 L 119.86 134.06 L 117.85 134.40 L 115.84 134.73 L 113.44 133.59 L 111.04 132.45 L 109.29 132.48 L 107.55 132.52 L 106.13 134.54 L 104.71 136.56 L 102.91 138.18 L 101.11 139.79 L 99.19 138.87 L 97.26 137.96 L 95.71 135.82 L 94.15 133.68 L 92.53 133.13 L 90.92 132.57 L 88.63 133.78 L 86.35 134.98 L 84.05 135.36 L 81.76 135.73 L 80.62 133.80 L 79.48 131.87 L 79.12 129.29 L 78.75 126.71 L 77.41 125.64 L 76.08 124.57 L 73.40 124.58 L 70.73 124.59 L 68.69 123.68 L 66.65 122.76 L 66.76 120.40 L 66.87 118.04 L 67.71 115.65 L 68.55 113.25 L 67.63 111.75 L 66.72 110.25 L 65.51 109.61 L 64.30 108.97 L 63.09 108.32 L 61.87 107.68 L 60.75 105.84 L 59.62 104.00 L 61.05 101.98 L 62.47 99.96 L 64.24 98.25 L 66.00 96.55 L 65.65 94.74 L 65.31 92.92 L 64.55 91.76 L 63.78 90.60 L 63.02 89.44 L 62.25 88.27 L 62.39 86.19 L 62.52 84.10 L 64.90 83.09 L 67.27 82.07 L 69.50 81.34 L 71.73 80.61 L 72.10 78.69 L 72.48 76.76 L 72.38 75.37 L 72.27 73.97 L 72.17 72.57 L 72.07 71.18 L 73.38 69.60 L 74.68 68.02 L 77.33 68.38 L 79.98 68.75 L 82.20 69.02 L 84.42 69.29 L 85.58 67.55 L 86.75 65.80 L 87.35 64.54 L 87.96 63.29 L 88.56 62.03 L 89.16 60.77 L 91.13 60.27 L 93.11 59.77 L 94.19 60.62 L 95.27 61.47 L 96.35 62.33 L 97.43 63.18 L 99.24 64.27 L 101.05 65.36 L 102.95 64.16 L 104.86 62.96 L 106.00 62.19 L 107.13 61.41 L 108.27 60.64 L 109.41 59.87 L 111.32 60.64 L 113.23 61.42 L 113.75 62.72 L 114.28 64.02 L 114.80 65.32 L 115.32 66.62 L 116.50 68.24 L 117.67 69.86 L 120.05 69.56 L 122.43 69.26 L 125.12 69.10 L 127.82 68.94 L 128.93 70.74 L 130.05 72.54 L 129.87 73.94 L 129.68 75.35 L 129.50 76.75 L 129.32 78.15 L 129.78 80.00 L 130.25 81.85 L 132.66 82.66 L 135.07 83.47 L 137.38 84.71 L 139.70 85.94 L 139.56 88.14 L 139.42 90.34 L 138.58 91.48 L 137.74 92.62 L 136.91 93.76 L 136.07 94.90 L 135.86 96.73 L 135.65 98.56 L 137.53 100.45 L 139.41 102.35 L 140.67 104.55 L 141.93 106.75 L 140.50 108.56 L 139.07 110.37 L 137.81 110.98 L 136.54 111.58 L 135.28 112.18 L 134.01 112.79 L 133.20 114.41 L 132.39 116.03 L 132.81 117.36 L 133.23 118.68 L 133.65 120.01 L 134.07 121.34 L 133.93 123.77 L 133.80 126.21 L 131.49 126.96 L 129.18 127.70 L 127.80 127.65 L 126.43 127.60 L 125.06 127.54 L 123.69 127.49 L 122.36 128.75 L 121.04 130.02 L 120.78 131.43 L 120.52 132.84 L 120.27 134.25 L 120.01 135.67 L 118.60 137.54 L 117.19 139.42 L 114.72 138.76 L 112.26 138.10 L 109.93 136.79 L 107.61 135.48 L 105.87 136.24 L 104.13 137.00 L 103.22 138.14 L 102.30 139.28 L 101.38 140.43 L 100.47 141.57 L 98.32 142.29 L 96.17 143.00 L 94.35 141.04 L 92.53 139.08 L 91.09 136.96 L 89.65 134.84 L 87.66 134.93 L 85.66 135.02 L 84.29 135.58 L 82.92 136.15 L 81.55 136.71 L 80.18 137.28 L 78.07 136.64 L 75.97 135.99 L 75.69 134.63 L 75.41 133.27 L 75.14 131.90 L 74.86 130.54 L 74.50 128.12 L 74.14 125.69 L 72.13 124.98 L 70.12 124.27 L 68.64 124.09 L 67.17 123.91 L 65.69 123.73 L 64.22 123.55 L 62.92 121.82 L 61.61 120.09 L 62.09 118.73 L 62.56 117.37 L 63.04 116.02 L 63.51 114.66 L 64.16 112.43 L 64.82 110.20 L 63.14 108.65 L 61.46 107.10 L 60.28 106.21 L 59.10 105.33 L 57.92 104.44 L 56.74 103.56 L 56.72 101.39 L 56.70 99.22 L 57.81 98.27 L 58.93 97.31 L 60.05 96.36 L 61.17 95.40 L 62.59 93.71 L 64.00 92.03 L 63.05 89.78 L 62.10 87.53 L 61.54 86.19 L 60.98 84.85 L 60.42 83.51 L 59.86 82.17 L 61.14 80.38 L 62.43 78.59 L 63.89 78.31 L 65.36 78.03 L 66.83 77.75 L 68.30 77.47 L 70.15 76.50 L 72.00 75.54 L 72.11 72.95 L 72.22 70.35 L 72.42 68.95 L 72.63 67.54 L 72.83 66.14 L 73.03 64.74 L 75.19 64.02 L 77.35 63.30 L 78.78 63.77 L 80.20 64.24 L 81.63 64.71 L 83.06 65.18 L 85.04 64.97 L 87.02 64.76 L 87.68 63.56 L 88.33 62.35 L 88.99 61.14 L 89.65 59.94 L 90.53 58.89 L 91.41 57.83 L 92.29 56.78 L 93.18 55.73 L 95.45 56.41 L 97.73 57.09 L 98.75 58.19 L 99.77 59.28 L 100.79 60.37 L 101.82 61.46 L 103.69 61.94 L 105.57 62.42 L 106.75 61.61 L 107.94 60.79 L 109.12 59.97 L 110.30 59.16 L 112.83 58.36 L 115.35 57.56 L 116.92 59.50 L 118.49 61.43 L 118.87 62.86 L 119.25 64.29 L 119.64 65.71 L 120.02 67.14 L 121.61 68.22 L 123.20 69.30 L 124.68 69.11 L 126.16 68.93 L 127.64 68.74 L 129.12 68.56 L 131.57 69.24 L 134.03 69.93 L 134.28 72.54 L 134.53 75.15 L 134.22 76.56 L 133.91 77.97 L 133.59 79.37 L 133.28 80.78 L 134.43 82.36 L 135.59 83.95 L 137.02 84.50 L 138.45 85.04 L 139.88 85.59 L 141.31 86.14 L 142.90 88.01 L 144.48 89.88 L 143.85 91.11 L 143.23 92.33 L 142.60 93.56 L 141.97 94.78 L 141.09 95.86 L 140.20 96.93 L 139.31 98.01 L 138.43 99.09 L 138.98 101.05 L 139.53 103.02 L 140.54 104.21 L 141.56 105.39 L 142.57 106.58 L 143.58 107.76 L 143.80 110.12 L 144.02 112.48 L 142.79 113.22 L 141.56 113.96 L 140.33 114.70 L 139.09 115.45 L 136.66 116.55 L 134.22 117.65 L 134.01 119.81 L 133.79 121.96 L 134.10 123.50 L 134.42 125.04 L 134.73 126.58 L 135.04 128.12 L 133.87 130.11 L 132.70 132.11 L 131.21 132.11 L 129.72 132.10 L 128.23 132.10 L 126.74 132.10 L 124.19 132.05 L 121.64 132.01 L 120.55 134.04 L 119.46 136.08 L 118.97 137.57 L 118.48 139.06 L 117.99 140.56 L 117.51 142.05 L 115.41 142.96 L 113.31 143.86 L 111.99 143.08 L 110.67 142.30 L 109.35 141.51 L 108.03 140.73 L 105.85 139.70 L 103.67 138.66 L 101.72 140.19 L 99.77 141.72 L 98.62 142.75 L 97.46 143.79 L 96.30 144.82 L 95.15 145.86 L 92.90 145.34 L 90.66 144.83 L 89.89 143.46 L 89.12 142.09 L 88.36 140.73 L 87.59 139.36 L 86.08 137.65 L 84.58 135.93 L 82.01 136.55 L 79.44 137.16 L 77.94 137.45 L 76.45 137.75 L 74.96 138.04 L 73.46 138.34 L 71.92 136.56 L 70.38 134.78 L 70.38 133.19 L 70.39 131.61 L 70.39 130.02 L 70.40 128.44 L 69.69 126.39 L 68.97 124.35 L 67.60 124.05 L 66.23 123.75 L 64.86 123.46 L 63.49 123.16 L 62.10 122.65 L 60.71 122.14 L 59.32 121.64 L 57.93 121.13 L 57.70 118.70 L 57.48 116.27 L 58.25 114.88 L 59.02 113.49 L 59.79 112.10 L 60.57 110.72 L 60.63 108.64 L 60.70 106.56 L 59.55 105.64 L 58.39 104.72 L 57.24 103.80 L 56.08 102.87 L 55.20 101.75 L 54.32 100.62 L 53.44 99.49 L 52.56 98.36 L 53.82 96.14 L 55.08 93.92 L 56.41 93.07 L 57.74 92.22 L 59.07 91.38 L 60.40 90.53 L 61.16 88.65 L 61.92 86.76 L 61.29 85.36 L 60.65 83.95 L 60.02 82.55 L 59.38 81.14 L 59.26 79.77 L 59.13 78.40 L 59.01 77.02 L 58.88 75.65 L 61.28 74.46 L 63.69 73.27 L 65.23 73.14 L 66.77 73.02 L 68.32 72.90 L 69.86 72.77 L 71.21 71.25 L 72.57 69.73 L 72.67 68.14 L 72.76 66.55 L 72.85 64.96 L 72.95 63.37 L 74.20 61.04 L 75.46 58.70 L 76.86 58.87 L 78.26 59.04 L 79.66 59.20 L 81.06 59.37 L 82.45 59.95 L 83.84 60.53 L 85.23 61.11 L 86.62 61.70 L 88.46 60.70 L 90.30 59.71 L 91.16 58.32 L 92.01 56.93 L 92.86 55.54 L 93.72 54.16 L 95.99 52.99 L 98.26 51.82 L 99.40 52.75 L 100.55 53.68 L 101.69 54.61 L 102.84 55.54 L 103.79 56.64 L 104.73 57.75 L 105.67 58.85 L 106.62 59.95 L 108.80 59.66 L 110.98 59.37 L 112.41 58.55 L 113.85 57.73 L 115.28 56.91 L 116.72 56.10 L 119.17 56.44 L 121.62 56.78 L 122.13 58.23 L 122.64 59.69 L 123.14 61.14 L 123.65 62.59 L 124.00 63.93 L 124.36 65.28 L 124.71 66.62 L 125.06 67.96 L 127.33 68.53 L 129.59 69.10 L 131.25 69.09 L 132.91 69.08 L 134.57 69.07 L 136.22 69.05 L 137.97 70.73 L 139.72 72.41 L 139.40 73.97 L 139.08 75.53 L 138.76 77.09 L 138.44 78.65 L 137.96 81.25 L 137.49 83.84 L 139.48 85.34 L 141.48 86.85 L 142.92 87.66 L 144.36 88.47 L 145.79 89.27 L 147.23 90.08 L 147.65 92.46 L 148.06 94.84 L 146.97 96.05 L 145.87 97.27 L 144.78 98.48 L 143.69 99.69 L 142.28 101.75 L 140.87 103.81 L 142.16 106.15 L 143.46 108.49 L 144.28 109.89 L 145.10 111.30 L 145.92 112.70 L 146.75 114.10 L 145.66 116.29 L 144.57 118.48 L 142.99 118.99 L 141.41 119.51 L 139.83 120.03 L 138.25 120.55 L 136.27 121.83 L 134.29 123.10 L 134.38 124.53 L 134.48 125.95 L 134.57 127.37 L 134.67 128.79 L 134.66 130.38 L 134.64 131.97 L 134.63 133.56 L 134.62 135.15 L 132.39 136.31 L 130.16 137.47 L 128.52 137.15 L 126.88 136.82 L 125.23 136.50 L 123.59 136.18 L 121.39 136.61 L 119.18 137.04 L 118.62 138.44 L 118.05 139.83 L 117.48 141.23 L 116.92 142.63 L 116.10 143.93 L 115.28 145.24 L 114.47 146.55 L 113.65 147.86 L 111.06 147.51 L 108.47 147.15 L 107.19 146.08 L 105.91 145.01 L 104.63 143.94 L 103.34 142.87 L 101.20 142.50 L 99.07 142.14 L 97.88 143.18 L 96.69 144.23 L 95.50 145.27 L 94.31 146.31 L 92.97 146.96 L 91.63 147.61 L 90.29 148.26 L 88.95 148.91 L 87.94 147.98 L 86.93 147.06 L 85.92 146.14 L 84.91 145.21 L 84.29 143.68 L 83.68 142.15 L 83.06 140.62 L 82.44 139.09 L 80.58 138.03 L 78.72 136.98 L 77.13 137.37 L 75.53 137.77 L 73.94 138.17 L 72.34 138.56 L 70.92 138.38 L 69.50 138.20 L 68.08 138.02 L 66.66 137.85 L 66.32 136.45 L 65.97 135.05 L 65.62 133.65 L 65.28 132.26 L 65.44 130.65 L 65.60 129.04 L 65.77 127.43 L 65.93 125.83 L 64.52 124.19 L 63.11 122.55 L 61.47 122.14 L 59.83 121.73 L 58.18 121.33 L 56.54 120.92 L 55.50 120.02 L 54.47 119.11 L 53.43 118.21 L 52.39 117.31 L 52.88 115.88 L 53.37 114.45 L 53.86 113.02 L 54.35 111.59 L 55.20 110.27 L 56.05 108.96 L 56.90 107.64 L 57.76 106.33 L 56.97 104.23 L 56.18 102.13 L 54.91 100.97 L 53.63 99.81 L 52.36 98.65 L 51.08 97.49 L 50.43 94.91 L 49.78 92.34 L 51.01 91.35 L 52.23 90.35 L 53.46 89.36 L 54.69 88.36 L 55.98 87.60 L 57.28 86.83 L 58.57 86.06 L 59.87 85.29 L 59.89 82.93 L 59.91 80.57 L 59.35 78.92 L 58.79 77.27 L 58.23 75.62 L 57.67 73.97 L 58.60 71.56 L 59.54 69.16 L 61.17 68.94 L 62.79 68.72 L 64.42 68.50 L 66.05 68.28 L 67.48 68.16 L 68.91 68.03 L 70.34 67.90 L 71.77 67.77 L 72.74 65.45 L 73.71 63.13 L 74.03 61.42 L 74.35 59.70 L 74.67 57.99 L 75.00 56.28 L 77.14 54.91 L 79.28 53.53 L 80.84 54.20 L 82.39 54.86 L 83.95 55.52 L 85.51 56.19 L 86.79 56.64 L 88.07 57.10 L 89.35 57.56 L 90.63 58.01 L 92.57 56.14 L 94.51 54.27 L 95.64 52.96 L 96.76 51.65 L 97.88 50.34 L 99.01 49.03 L 101.55 49.19 L 104.09 49.35 L 105.12 50.74 L 106.16 52.13 L 107.20 53.51 L 108.23 54.90 L 110.11 56.66 L 111.98 58.42 L 113.34 57.94 L 114.69 57.46 L 116.05 56.98 L 117.40 56.49 L 119.01 55.94 L 120.61 55.39 L 122.22 54.84 L 123.83 54.29 L 125.81 55.96 L 127.80 57.62 L 128.01 59.36 L 128.23 61.10 L 128.45 62.84 L 128.67 64.58 L 129.67 66.80 L 130.68 69.02 L 132.20 69.18 L 133.72 69.33 L 135.24 69.49 L 136.76 69.64 L 138.38 69.99 L 140.00 70.34 L 141.61 70.69 L 143.23 71.04 L 143.89 73.63 L 144.55 76.22 L 143.89 77.86 L 143.23 79.49 L 142.57 81.12 L 141.91 82.76 L 142.04 85.08 L 142.16 87.41 L 143.53 88.26 L 144.89 89.12 L 146.26 89.97 L 147.63 90.83 L 148.78 91.94 L 149.94 93.05 L 151.09 94.16 L 152.24 95.27 L 151.75 96.58 L 151.25 97.88 L 150.75 99.18 L 150.26 100.49 L 148.90 101.60 L 147.55 102.71 L 146.20 103.83 L 144.85 104.94 L 144.18 107.10 L 143.50 109.26 L 144.37 110.70 L 145.24 112.15 L 146.11 113.59 L 146.98 115.04 L 147.35 116.53 L 147.71 118.03 L 148.07 119.53 L 148.43 121.03 L 147.23 121.87 L 146.03 122.71 L 144.83 123.55 L 143.63 124.39 L 141.94 124.73 L 140.25 125.07 L 138.56 125.41 L 136.87 125.75 L 135.51 127.55 L 134.16 129.34 L 134.26 131.08 L 134.37 132.83 L 134.48 134.57 L 134.59 136.31 L 134.09 137.71 L 133.59 139.10 L 133.09 140.50 L 132.58 141.89 L 131.05 141.93 L 129.51 141.97 L 127.97 142.01 L 126.43 142.06 L 124.82 141.59 L 123.20 141.13 L 121.58 140.66 L 119.97 140.19 L 118.05 141.45 L 116.13 142.70 L 115.38 144.33 L 114.64 145.96 L 113.89 147.59 L 113.15 149.21 L 112.00 150.05 L 110.85 150.89 L 109.70 151.73 L 108.54 152.57 L 107.16 151.74 L 105.78 150.91 L 104.40 150.08 L 103.01 149.25 L 101.82 148.14 L 100.63 147.04 L 99.44 145.93 L 98.26 144.82 L 95.92 145.35 L 93.59 145.87 L 92.13 146.96 L 90.68 148.05 L 89.22 149.14 L 87.77 150.24 L 86.39 150.26 L 85.01 150.29 L 83.63 150.31 L 82.26 150.34 L 81.49 148.84 L 80.72 147.34 L 79.95 145.85 L 79.18 144.35 L 78.63 142.90 L 78.07 141.44 L 77.51 139.99 L 76.96 138.54 L 74.45 138.15 L 71.95 137.76 L 70.13 138.01 L 68.32 138.26 L 66.51 138.51 L 64.69 138.75 L 62.48 137.22 L 60.27 135.69 L 60.39 133.95 L 60.51 132.21 L 60.63 130.47 L 60.75 128.73 L 60.86 127.26 L 60.97 125.79 L 61.08 124.31 L 61.20 122.84 L 60.04 122.13 L 58.89 121.43 L 57.73 120.72 L 56.58 120.02 L 54.88 119.34 L 53.19 118.66 L 51.49 117.98 L 49.80 117.30 L 48.93 114.79 L 48.06 112.27 L 49.07 110.79 L 50.09 109.31 L 51.10 107.83 L 52.11 106.35 L 52.78 105.13 L 53.46 103.90 L 54.13 102.67 L 54.80 101.44 L 53.97 100.26 L 53.14 99.07 L 52.32 97.88 L 51.49 96.69 L 50.38 95.27 L 49.27 93.85 L 48.16 92.43 L 47.05 91.02 L 47.84 88.45 L 48.64 85.89 L 50.29 85.10 L 51.93 84.31 L 53.58 83.52 L 55.23 82.73 L 57.31 81.10 L 59.39 79.47 L 59.12 77.95 L 58.85 76.43 L 58.58 74.91 L 58.31 73.39 L 58.08 71.64 L 57.86 69.89 L 57.63 68.14 L 57.41 66.39 L 58.51 65.57 L 59.61 64.75 L 60.71 63.93 L 61.81 63.11 L 63.65 63.24 L 65.49 63.36 L 67.33 63.48 L 69.17 63.61 L 71.59 62.91 L 74.00 62.21 L 74.44 60.64 L 74.88 59.06 L 75.32 57.49 L 75.76 55.91 L 76.46 54.35 L 77.15 52.78 L 77.85 51.21 L 78.55 49.64 L 79.97 49.62 L 81.39 49.59 L 82.82 49.56 L 84.24 49.54 L 85.79 50.54 L 87.34 51.53 L 88.89 52.53 L 90.45 53.53 L 92.85 53.73 L 95.25 53.94 L 96.40 52.66 L 97.56 51.38 L 98.71 50.11 L 99.86 48.83 L 101.23 47.91 L 102.61 46.98 L 103.98 46.05 L 105.35 45.12 L 106.59 45.95 L 107.83 46.78 L 109.07 47.60 L 110.31 48.43 L 111.19 50.03 L 112.07 51.63 L 112.95 53.23 L 113.84 54.83 L 115.98 55.83 L 118.12 56.82 L 119.79 56.19 L 121.46 55.55 L 123.14 54.92 L 124.81 54.28 L 126.41 54.25 L 128.00 54.21 L 129.59 54.18 L 131.19 54.14 L 131.78 55.59 L 132.38 57.04 L 132.97 58.48 L 133.56 59.93 L 133.60 61.72 L 133.63 63.51 L 133.66 65.30 L 133.69 67.10 L 135.38 68.76 L 137.06 70.43 L 138.89 70.65 L 140.73 70.87 L 142.56 71.10 L 144.40 71.32 L 145.69 72.14 L 146.98 72.96 L 148.27 73.78 L 149.57 74.60 L 149.26 76.21 L 148.96 77.82 L 148.65 79.44 L 148.35 81.05 L 147.57 82.61 L 146.80 84.17 L 146.03 85.74 L 145.26 87.30 L 146.30 89.50 L 147.35 91.70 L 148.89 92.79 L 150.43 93.88 L 151.98 94.97 L 153.52 96.06 L 154.10 97.41 L 154.68 98.77 L 155.26 100.12 L 155.83 101.48 L 154.66 102.73 L 153.49 103.99 L 152.32 105.25 L 151.15 106.50 L 149.81 107.51 L 148.47 108.53 L 147.14 109.54 L 145.80 110.55 L 146.01 113.10 L 146.21 115.64 L 147.05 117.36 L 147.89 119.08 L 148.72 120.80 L 149.56 122.52 L 149.26 123.91 L 148.96 125.31 L 148.66 126.70 L 148.36 128.10 L 146.63 128.58 L 144.91 129.05 L 143.19 129.53 L 141.47 130.01 L 139.90 130.32 L 138.33 130.63 L 136.76 130.95 L 135.18 131.26 L 134.78 132.56 L 134.38 133.85 L 133.98 135.15 L 133.57 136.45 L 133.46 138.36 L 133.35 140.27 L 133.25 142.19 L 133.14 144.10 L 132.09 145.04 L 131.05 145.97 L 130.01 146.91 L 128.96 147.84 L 127.18 147.35 L 125.40 146.86 L 123.62 146.37 L 121.84 145.88 L 120.37 145.52 L 118.89 145.16 L 117.42 144.80 L 115.94 144.44 L 115.00 145.55 L 114.06 146.66 L 113.12 147.76 L 112.19 148.87 L 111.15 150.47 L 110.11 152.06 L 109.07 153.66 L 108.03 155.25 L 106.64 155.39 L 105.26 155.52 L 103.87 155.66 L 102.48 155.79 L 101.16 154.44 L 99.84 153.08 L 98.52 151.73 L 97.20 150.37 L 96.06 149.50 L 94.92 148.62 L 93.78 147.74 L 92.65 146.87 L 91.25 147.54 L 89.85 148.21 L 88.45 148.88 L 87.05 149.55 L 85.38 150.39 L 83.70 151.23 L 82.03 152.07 L 80.35 152.91 L 79.14 152.18 L 77.92 151.46 L 76.71 150.74 L 75.49 150.02 L 75.01 148.16 L 74.53 146.30 L 74.05 144.43 L 73.57 142.57 L 72.90 141.39 L 72.23 140.21 L 71.56 139.04 L 70.89 137.86 L 69.24 137.87 L 67.59 137.88 L 65.94 137.90 L 64.28 137.91 L 62.46 137.77 L 60.64 137.64 L 58.81 137.50 L 56.99 137.36 L 56.41 136.03 L 55.84 134.69 L 55.26 133.36 L 54.69 132.02 L 55.18 130.15 L 55.67 128.28 L 56.16 126.41 L 56.66 124.54 L 56.30 121.98 L 55.94 119.42 L 54.36 118.67 L 52.79 117.92 L 51.22 117.17 L 49.64 116.42 L 48.21 115.38 L 46.77 114.34 L 45.33 113.30 L 43.89 112.26 L 44.21 110.78 L 44.52 109.31 L 44.84 107.83 L 45.15 106.35 L 46.48 104.95 L 47.80 103.55 L 49.13 102.15 L 50.45 100.75 L 51.00 98.32 L 51.54 95.88 L 50.42 94.44 L 49.30 92.99 L 48.18 91.55 L 47.07 90.11 L 46.43 88.52 L 45.79 86.93 L 45.16 85.35 L 44.52 83.76 L 45.67 82.67 L 46.82 81.58 L 47.97 80.49 L 49.12 79.39 L 50.92 78.80 L 52.73 78.20 L 54.53 77.60 L 56.34 77.00 L 57.66 74.92 L 58.98 72.85 L 58.64 70.98 L 58.30 69.12 L 57.95 67.25 L 57.61 65.39 L 57.93 63.77 L 58.25 62.16 L 58.57 60.55 L 58.89 58.94 L 60.53 58.66 L 62.17 58.37 L 63.81 58.08 L 65.45 57.80 L 67.28 58.10 L 69.12 58.40 L 70.95 58.70 L 72.78 59.00 L 74.76 57.47 L 76.73 55.95 L 77.31 54.09 L 77.90 52.23 L 78.49 50.37 L 79.07 48.51 L 80.19 47.40 L 81.31 46.29 L 82.43 45.17 L 83.55 44.06 L 85.16 44.74 L 86.77 45.42 L 88.37 46.10 L 89.98 46.78 L 91.43 47.84 L 92.88 48.91 L 94.33 49.97 L 95.78 51.04 L 98.24 50.26 L 100.71 49.48 L 102.13 48.10 L 103.56 46.72 L 104.99 45.34 L 106.41 43.96 L 107.91 43.70 L 109.41 43.43 L 110.91 43.17 L 112.41 42.90 L 113.46 44.39 L 114.50 45.89 L 115.55 47.38 L 116.60 48.87 L 117.39 50.40 L 118.19 51.94 L 118.98 53.47 L 119.77 55.00 L 121.13 55.09 L 122.49 55.17 L 123.85 55.26 L 125.21 55.35 L 127.14 54.82 L 129.08 54.30 L 131.01 53.78 L 132.94 53.26 L 134.28 53.90 L 135.61 54.54 L 136.95 55.18 L 138.29 55.81 L 138.41 57.70 L 138.54 59.59 L 138.66 61.48 L 138.79 63.37 L 138.84 65.01 L 138.89 66.65 L 138.94 68.29 L 138.99 69.94 L 140.30 70.57 L 141.61 71.20 L 142.91 71.84 L 144.22 72.47 L 146.16 72.97 L 148.09 73.46 L 150.03 73.96 L 151.97 74.46 L 152.66 75.74 L 153.35 77.02 L 154.05 78.31 L 154.74 79.59 L 153.86 81.33 L 152.98 83.07 L 152.10 84.81 L 151.22 86.55 L 150.62 87.98 L 150.01 89.41 L 149.41 90.85 L 148.80 92.28 L 149.82 93.46 L 150.83 94.64 L 151.84 95.81 L 152.86 96.99 L 154.27 98.38 L 155.69 99.76 L 157.10 101.14 L 158.52 102.53 L 158.31 103.97 L 158.11 105.42 L 157.91 106.87 L 157.70 108.32 L 156.03 109.40 L 154.37 110.49 L 152.70 111.57 L 151.03 112.66 L 149.97 113.67 L 148.90 114.69 L 147.84 115.70 L 146.78 116.71 L 147.24 118.30 L 147.70 119.90 L 148.16 121.49 L 148.63 123.08 L 149.13 124.95 L 149.64 126.83 L 150.15 128.70 L 150.65 130.58 L 149.61 131.65 L 148.57 132.71 L 147.54 133.78 L 146.50 134.85 L 144.49 134.97 L 142.48 135.09 L 140.47 135.21 L 138.46 135.34 L 137.16 135.84 L 135.86 136.34 L 134.57 136.85 L 133.27 137.35 L 132.99 139.09 L 132.71 140.83 L 132.42 142.56 L 132.14 144.30 L 131.62 146.12 L 131.10 147.93 L 130.57 149.75 L 130.05 151.57 L 128.54 151.84 L 127.02 152.10 L 125.51 152.37 L 123.99 152.64 L 122.17 151.77 L 120.35 150.90 L 118.53 150.03 L 116.71 149.15 L 114.05 149.15 L 111.39 149.15 L 110.31 150.66 L 109.24 152.17 L 108.16 153.68 L 107.08 155.19 L 105.73 156.42 L 104.37 157.64 L 103.02 158.87 L 101.66 160.10 L 100.21 159.42 L 98.75 158.74 L 97.30 158.07 L 95.84 157.39 L 94.67 155.76 L 93.49 154.14 L 92.32 152.52 L 91.14 150.89 L 88.72 149.99 L 86.29 149.10 L 84.57 149.99 L 82.86 150.89 L 81.14 151.78 L 79.43 152.68 L 77.69 152.97 L 75.96 153.27 L 74.22 153.56 L 72.49 153.85 L 71.62 152.41 L 70.76 150.96 L 69.90 149.51 L 69.03 148.07 L 68.76 146.12 L 68.49 144.16 L 68.22 142.21 L 67.95 140.26 L 65.98 138.60 L 64.01 136.94 L 62.01 136.94 L 60.01 136.94 L 58.01 136.94 L 56.00 136.94 L 54.46 136.26 L 52.91 135.58 L 51.37 134.90 L 49.82 134.22 L 49.90 132.45 L 49.97 130.68 L 50.05 128.92 L 50.12 127.15 L 50.77 125.34 L 51.41 123.53 L 52.05 121.72 L 52.70 119.92 L 51.38 117.64 L 50.06 115.37 L 48.25 114.40 L 46.44 113.43 L 44.63 112.47 L 42.83 111.50 L 41.97 110.12 L 41.11 108.74 L 40.25 107.37 L 39.39 105.99 L 40.45 104.47 L 41.51 102.95 L 42.57 101.43 L 43.63 99.91 L 44.97 98.64 L 46.31 97.36 L 47.65 96.08 L 48.99 94.80 L 48.76 93.45 L 48.53 92.10 L 48.31 90.75 L 48.08 89.39 L 46.94 87.65 L 45.80 85.91 L 44.66 84.17 L 43.52 82.43 L 43.60 80.87 L 43.69 79.30 L 43.78 77.73 L 43.86 76.17 L 45.63 75.40 L 47.41 74.64 L 49.18 73.87 L 50.95 73.11 L 52.64 72.57 L 54.33 72.04 L 56.02 71.51 L 57.70 70.97 L 58.00 69.55 L 58.31 68.13 L 58.61 66.70 L 58.91 65.28 L 58.76 63.20 L 58.61 61.11 L 58.46 59.03 L 58.31 56.94 L 59.27 55.75 L 60.24 54.56 L 61.20 53.37 L 62.16 52.17 L 64.14 52.44 L 66.12 52.71 L 68.10 52.98 L 70.08 53.25 L 71.75 53.47 L 73.41 53.70 L 75.08 53.92 L 76.75 54.15 L 77.63 52.87 L 78.51 51.59 L 79.39 50.31 L 80.27 49.04 L 81.17 47.16 L 82.07 45.28 L 82.96 43.41 L 83.86 41.53 L 85.33 41.14 L 86.80 40.75 L 88.27 40.36 L 89.74 39.97 L 91.35 41.24 L 92.96 42.51 L 94.57 43.78 L 96.19 45.05 L 97.53 45.89 L 98.88 46.73 L 100.23 47.57 L 101.58 48.41 L 103.00 47.54 L 104.41 46.67 L 105.82 45.80 L 107.24 44.93 L 108.93 43.78 L 110.63 42.62 L 112.32 41.47 L 114.02 40.31 L 115.44 40.87 L 116.87 41.44 L 118.29 42.00 L 119.72 42.56 L 120.50 44.50 L 121.28 46.43 L 122.05 48.37 L 122.83 50.31 L 123.69 51.54 L 124.55 52.77 L 125.41 54.00 L 126.27 55.23 L 128.03 55.02 L 129.78 54.81 L 131.54 54.61 L 133.30 54.40 L 135.30 54.28 L 137.30 54.15 L 139.30 54.03 L 141.31 53.91 L 142.15 55.23 L 142.99 56.56 L 143.83 57.88 L 144.67 59.20 L 144.39 61.29 L 144.12 63.38 L 143.85 65.46 L 143.57 67.55 L 143.89 68.94 L 144.21 70.33 L 144.53 71.72 L 144.86 73.10 L 146.62 73.72 L 148.39 74.32 L 150.16 74.94 L 151.93 75.55 L 153.65 76.46 L 155.37 77.37 L 157.10 78.28 L 158.82 79.19 L 158.73 80.81 L 158.64 82.44 L 158.55 84.06 L 158.47 85.68 L 157.22 87.38 L 155.97 89.07 L 154.73 90.76 L 153.48 92.46 L 153.30 93.81 L 153.11 95.17 L 152.92 96.53 L 152.74 97.88 L 154.11 99.28 L 155.49 100.69 L 156.86 102.09 L 158.24 103.49 L 159.18 105.12 L 160.12 106.74 L 161.06 108.37 L 162.00 110.00 L 160.96 111.34 L 159.92 112.69 L 158.87 114.03 L 157.83 115.38 L 155.95 116.26 L 154.07 117.15 L 152.19 118.04 L 150.31 118.93 L 149.05 121.30 L 147.80 123.67 L 148.41 125.63 L 149.01 127.58 L 149.62 129.53 L 150.22 131.48 L 150.14 133.28 L 150.05 135.09 L 149.96 136.89 L 149.87 138.70 L 148.18 139.26 L 146.48 139.82 L 144.79 140.38 L 143.09 140.94 L 141.05 140.85 L 139.02 140.76 L 136.99 140.67 L 134.95 140.59 L 132.96 142.40 L 130.97 144.22 L 130.58 146.29 L 130.20 148.36 L 129.82 150.43 L 129.43 152.50 L 128.40 153.90 L 127.37 155.29 L 126.34 156.68 L 125.31 158.08 L 123.49 157.60 L 121.68 157.13 L 119.87 156.65 L 118.05 156.18 L 116.34 155.20 L 114.62 154.22 L 112.91 153.24 L 111.19 152.26 L 109.91 152.79 L 108.62 153.31 L 107.34 153.84 L 106.06 154.37 L 104.71 156.04 L 103.36 157.72 L 102.02 159.39 L 100.67 161.07 L 99.09 161.61 L 97.51 162.15 L 95.93 162.69 L 94.35 163.24 L 93.01 161.80 L 91.68 160.37 L 90.34 158.94 L 89.00 157.51 L 87.94 155.93 L 86.89 154.35 L 85.83 152.77 L 84.78 151.19 L 83.32 151.23 L 81.86 151.27 L 80.41 151.31 L 78.95 151.35 L 76.94 152.17 L 74.93 153.00 L 72.93 153.82 L 70.92 154.65 L 69.36 154.19 L 67.81 153.74 L 66.26 153.28 L 64.71 152.82 L 64.29 150.83 L 63.88 148.83 L 63.47 146.84 L 63.06 144.84 L 62.81 143.05 L 62.56 141.25 L 62.31 139.46 L 62.06 137.66 L 60.61 137.12 L 59.16 136.58 L 57.71 136.04 L 56.25 135.50 L 54.10 135.24 L 51.94 134.98 L 49.78 134.71 L 47.62 134.45 L 46.65 133.19 L 45.68 131.93 L 44.71 130.67 L 43.74 129.41 L 44.44 127.43 L 45.13 125.44 L 45.82 123.46 L 46.51 121.47 L 47.01 119.83 L 47.51 118.19 L 48.01 116.55 L 48.51 114.90 L 47.31 113.76 L 46.11 112.63 L 44.91 111.49 L 43.71 110.35 L 41.98 109.05 L 40.26 107.76 L 38.53 106.47 L 36.80 105.18 L 36.77 103.60 L 36.73 102.01 L 36.70 100.43 L 36.66 98.85 L 38.30 97.45 L 39.93 96.05 L 41.57 94.65 L 43.20 93.25 L 44.26 92.03 L 45.32 90.80 L 46.38 89.57 L 47.44 88.34 L 46.77 86.71 L 46.10 85.07 L 45.43 83.44 L 44.76 81.80 L 43.93 79.85 L 43.11 77.89 L 42.29 75.94 L 41.47 73.98 L 42.39 72.67 L 43.31 71.36 L 44.23 70.04 L 45.15 68.73 L 47.29 68.32 L 49.44 67.91 L 51.58 67.50 L 53.72 67.09 L 55.10 66.40 L 56.47 65.72 L 57.84 65.04 L 59.21 64.35 L 59.31 62.48 L 59.40 60.60 L 59.50 58.72 L 59.59 56.85 L 59.88 54.80 L 60.18 52.75 L 60.47 50.71 L 60.76 48.66 L 62.32 48.12 L 63.88 47.58 L 65.45 47.04 L 67.01 46.50 L 69.09 47.19 L 71.17 47.88 L 73.25 48.57 L 75.33 49.26 L 76.78 49.14 L 78.24 49.01 L 79.69 48.89 L 81.15 48.76 L 82.11 47.02 L 83.06 45.29 L 84.02 43.55 L 84.98 41.82 L 86.26 40.28 L 87.54 38.74 L 88.83 37.20 L 90.11 35.66 L 91.76 36.14 L 93.41 36.62 L 95.06 37.10 L 96.71 37.58 L 98.20 39.17 L 99.69 40.77 L 101.17 42.37 L 102.66 43.96 L 104.02 44.34 L 105.38 44.72 L 106.74 45.10 L 108.10 45.48 L 109.81 44.31 L 111.52 43.14 L 113.24 41.97 L 114.95 40.80 L 116.79 40.21 L 118.62 39.62 L 120.46 39.03 L 122.29 38.43 L 123.44 39.82 L 124.58 41.22 L 125.73 42.61 L 126.87 44.00 L 127.42 46.08 L 127.97 48.16 L 128.52 50.24 L 129.07 52.32 L 130.20 53.12 L 131.34 53.93 L 132.47 54.74 L 133.61 55.55 L 135.75 55.29 L 137.88 55.03 L 140.02 54.78 L 142.15 54.52 L 143.94 55.00 L 145.72 55.49 L 147.51 55.98 L 149.30 56.47 L 149.49 58.35 L 149.68 60.23 L 149.88 62.11 L 150.07 63.99 L 149.61 66.04 L 149.14 68.09 L 148.68 70.13 L 148.21 72.18 L 149.02 73.34 L 149.82 74.50 L 150.63 75.66 L 151.44 76.82 L 153.50 77.61 L 155.56 78.41 L 157.62 79.20 L 159.68 80.00 L 160.84 81.34 L 162.00 82.69 L 163.16 84.04 L 164.32 85.39 L 163.42 87.16 L 162.53 88.93 L 161.64 90.70 L 160.74 92.47 L 159.44 94.02 L 158.14 95.58 L 156.84 97.14 L 155.54 98.70 L 155.91 100.12 L 156.28 101.54 L 156.65 102.96 L 157.02 104.38 L 158.47 106.08 L 159.93 107.79 L 161.38 109.50 L 162.84 111.21 L 163.02 112.92 L 163.19 114.63 L 163.37 116.33 L 163.54 118.04 L 161.77 119.11 L 160.00 120.18 L 158.24 121.26 L 156.47 122.33 L 154.69 123.12 L 152.91 123.91 L 151.13 124.69 L 149.36 125.48 L 149.18 127.02 L 149.00 128.55 L 148.82 130.09 L 148.64 131.63 L 149.08 133.84 L 149.53 136.06 L 149.98 138.28 L 150.43 140.49 L 149.60 141.94 L 148.77 143.39 L 147.94 144.84 L 147.11 146.29 L 144.97 146.29 L 142.83 146.29 L 140.68 146.29 L 138.54 146.29 L 136.69 146.24 L 134.84 146.19 L 132.99 146.14 L 131.14 146.09 L 130.34 147.53 L 129.54 148.97 L 128.74 150.41 L 127.94 151.86 L 127.24 154.00 L 126.54 156.15 L 125.84 158.29 L 125.14 160.43 L 123.64 161.11 L 122.13 161.78 L 120.63 162.45 L 119.13 163.12 L 117.23 162.00 L 115.33 160.88 L 113.43 159.75 L 111.53 158.63 L 109.96 157.86 L 108.39 157.09 L 106.82 156.32 L 105.25 155.55 L 103.85 156.62 L 102.45 157.70 L 101.05 158.77 L 99.65 159.84 L 97.99 161.33 L 96.33 162.82 L 94.67 164.31 L 93.01 165.80 L 91.40 165.44 L 89.79 165.09 L 88.17 164.74 L 86.56 164.39 L 85.46 162.43 L 84.36 160.47 L 83.25 158.51 L 82.15 156.55 L 81.08 155.29 L 80.01 154.03 L 78.94 152.78 L 77.87 151.52 L 76.03 151.94 L 74.20 152.36 L 72.37 152.78 L 70.54 153.20 L 68.40 153.62 L 66.25 154.05 L 64.11 154.48 L 61.97 154.91 L 60.85 153.65 L 59.73 152.39 L 58.62 151.13 L 57.50 149.87 L 57.51 147.60 L 57.52 145.32 L 57.52 143.05 L 57.53 140.77 L 57.04 139.29 L 56.56 137.80 L 56.07 136.32 L 55.58 134.83 L 53.64 134.40 L 51.69 133.96 L 49.75 133.53 L 47.81 133.09 L 45.81 132.37 L 43.81 131.64 L 41.81 130.92 L 39.81 130.20 L 39.63 128.47 L 39.46 126.74 L 39.28 125.01 L 39.10 123.27 L 40.21 121.29 L 41.32 119.30 L 42.43 117.31 L 43.54 115.32 L 43.62 113.83 L 43.70 112.34 L 43.78 110.84 L 43.86 109.35 L 42.23 108.03 L 40.60 106.72 L 38.97 105.40 L 37.34 104.08 L 36.06 102.47 L 34.79 100.86 L 33.52 99.24 L 32.25 97.63 L 33.14 96.04 L 34.02 94.46 L 34.90 92.87 L 35.78 91.28 L 37.69 90.07 L 39.60 88.87 L 41.51 87.66 L 43.42 86.46 L 43.99 85.12 L 44.56 83.78 L 45.14 82.44 L 45.71 81.10 L 44.82 79.11 L 43.93 77.11 L 43.04 75.12 L 42.15 73.12 L 41.96 71.16 L 41.76 69.19 L 41.57 67.23 L 41.38 65.26 L 43.08 64.40 L 44.78 63.54 L 46.48 62.68 L 48.18 61.82 L 50.39 61.66 L 52.60 61.49 L 54.81 61.32 L 57.02 61.15 L 58.01 60.09 L 59.00 59.03 L 59.99 57.97 L 60.98 56.91 L 61.12 54.65 L 61.26 52.40 L 61.40 50.15 L 61.54 47.89 L 62.42 46.22 L 63.31 44.54 L 64.19 42.87 L 65.08 41.19 L 67.07 41.42 L 69.05 41.64 L 71.04 41.86 L 73.03 42.09 L 75.01 42.93 L 76.99 43.77 L 78.98 44.62 L 80.96 45.46 L 82.28 44.79 L 83.60 44.11 L 84.92 43.43 L 86.24 42.76 L 87.46 40.79 L 88.67 38.83 L 89.89 36.86 L 91.10 34.90 L 92.71 34.05 L 94.32 33.20 L 95.93 32.35 L 97.54 31.50 L 99.17 32.81 L 100.80 34.12 L 102.43 35.43 L 104.06 36.75 L 105.40 38.33 L 106.74 39.92 L 108.08 41.51 L 109.42 43.09 L 110.96 42.92 L 112.50 42.74 L 114.04 42.56 L 115.58 42.38 L 117.62 41.23 L 119.65 40.07 L 121.69 38.92 L 123.72 37.76 L 125.47 37.99 L 127.21 38.21 L 128.96 38.43 L 130.71 38.66 L 131.43 40.71 L 132.16 42.77 L 132.89 44.82 L 133.61 46.87 L 134.10 48.80 L 134.59 50.72 L 135.07 52.65 L 135.56 54.57 L 137.15 55.00 L 138.73 55.42 L 140.32 55.85 L 141.90 56.27 L 144.25 56.26 L 146.60 56.24 L 148.95 56.22 L 151.30 56.20 L 152.55 57.38 L 153.81 58.56 L 155.06 59.74 L 156.32 60.92 L 155.87 63.12 L 155.42 65.33 L 154.97 67.53 L 154.52 69.74 L 154.16 71.59 L 153.81 73.44 L 153.45 75.29 L 153.09 77.14 L 154.47 78.21 L 155.85 79.29 L 157.24 80.36 L 158.62 81.44 L 160.66 82.58 L 162.69 83.72 L 164.73 84.86 L 166.77 86.00 L 167.08 87.68 L 167.40 89.36 L 167.71 91.04 L 168.03 92.72 L 166.49 94.44 L 164.95 96.15 L 163.41 97.87 L 161.87 99.59 L 160.84 101.04 L 159.81 102.50 L 158.78 103.95 L 157.76 105.41 L 158.64 107.06 L 159.52 108.71 L 160.41 110.35 L 161.29 112.00 L 162.46 113.98 L 163.63 115.96 L 164.80 117.95 L 165.97 119.93 L 165.22 121.48 L 164.48 123.04 L 163.74 124.59 L 162.99 126.14 L 160.77 126.88 L 158.54 127.61 L 156.31 128.35 L 154.08 129.08 L 152.65 129.96 L 151.21 130.85 L 149.78 131.73 L 148.35 132.61 L 148.46 134.60 L 148.57 136.58 L 148.68 138.57 L 148.80 140.55 L 148.79 142.80 L 148.78 145.05 L 148.77 147.30 L 148.76 149.55 L 147.21 150.39 L 145.66 151.23 L 144.11 152.08 L 142.56 152.92 L 140.24 152.46 L 137.92 152.01 L 135.60 151.55 L 133.28 151.09 L 131.71 151.36 L 130.13 151.63 L 128.56 151.89 L 126.98 152.16 L 126.17 154.10 L 125.37 156.04 L 124.56 157.98 L 123.75 159.92 L 122.61 161.78 L 121.46 163.64 L 120.32 165.50 L 119.18 167.37 L 117.36 167.15 L 115.55 166.93 L 113.73 166.71 L 111.92 166.49 L 110.11 164.97 L 108.30 163.46 L 106.49 161.94 L 104.68 160.43 L 103.18 160.12 L 101.67 159.82 L 100.16 159.52 L 98.66 159.22 L 96.99 160.66 L 95.32 162.10 L 93.66 163.54 L 91.99 164.98 L 90.10 165.92 L 88.21 166.85 L 86.33 167.79 L 84.44 168.73 L 83.01 167.46 L 81.58 166.20 L 80.14 164.93 L 78.71 163.66 L 77.85 161.49 L 76.99 159.33 L 76.13 157.16 L 75.27 154.99 L 73.98 154.20 L 72.70 153.42 L 71.41 152.63 L 70.13 151.84 L 67.91 152.38 L 65.68 152.92 L 63.45 153.46 L 61.23 154.00 L 59.21 153.77 L 57.20 153.55 L 55.19 153.32 L 53.18 153.10 L 52.67 151.16 L 52.16 149.22 L 51.65 147.28 L 51.14 145.34 L 51.38 143.07 L 51.63 140.80 L 51.87 138.53 L 52.12 136.26 L 51.17 135.07 L 50.23 133.89 L 49.29 132.71 L 48.34 131.53 L 46.06 130.96 L 43.77 130.38 L 41.48 129.80 L 39.20 129.23 L 37.71 127.98 L 36.22 126.72 L 34.73 125.47 L 33.24 124.22 L 33.90 122.23 L 34.55 120.23 L 35.21 118.24 L 35.87 116.24 L 37.09 114.39 L 38.31 112.54 L 39.53 110.69 L 40.75 108.84 L 40.26 107.36 L 39.77 105.89 L 39.27 104.42 L 38.78 102.94 L 37.01 101.32 L 35.23 99.70 L 33.46 98.07 L 31.68 96.45 L 31.18 94.64 L 30.68 92.84 L 30.18 91.03 L 29.68 89.23 L 31.37 87.83 L 33.06 86.43 L 34.75 85.04 L 36.44 83.64 L 38.29 82.57 L 40.14 81.50 L 41.98 80.44 L 43.83 79.37 L 43.90 77.74 L 43.97 76.12 L 44.04 74.49 L 44.11 72.86 L 43.33 70.56 L 42.54 68.26 L 41.76 65.96 L 40.98 63.65 L 41.60 61.95 L 42.21 60.24 L 42.82 58.53 L 43.43 56.82 L 45.69 56.50 L 47.95 56.18 L 50.20 55.85 L 52.46 55.53 L 54.49 55.38 L 56.52 55.24 L 58.55 55.09 L 60.58 54.94 L 61.29 53.37 L 62.01 51.80 L 62.72 50.22 L 63.43 48.65 L 63.88 46.26 L 64.33 43.86 L 64.77 41.47 L 65.22 39.08 L 66.69 38.07 L 68.16 37.07 L 69.62 36.06 L 71.09 35.05 L 73.26 35.96 L 75.43 36.87 L 77.60 37.78 L 79.77 38.69 L 81.57 39.37 L 83.37 40.06 L 85.18 40.75 L 86.98 41.44 L 88.34 40.19 L 89.70 38.94 L 91.06 37.70 L 92.42 36.45 L 93.98 34.61 L 95.54 32.77 L 97.11 30.93 L 98.67 29.09 L 100.44 29.15 L 102.21 29.20 L 103.98 29.26 L 105.76 29.31 L 107.21 31.23 L 108.65 33.15 L 110.10 35.07 L 111.55 36.99 L 112.84 38.28 L 114.13 39.57 L 115.43 40.85 L 116.72 42.14 L 118.58 41.52 L 120.45 40.91 L 122.32 40.29 L 124.19 39.67 L 126.43 38.88 L 128.67 38.10 L 130.91 37.31 L 133.15 36.52 L 134.56 37.63 L 135.98 38.73 L 137.39 39.83 L 138.80 40.94 L 139.11 43.36 L 139.42 45.78 L 139.73 48.20 L 140.04 50.62 L 140.69 52.22 L 141.34 53.81 L 142.00 55.41 L 142.65 57.00 L 144.72 57.25 L 146.79 57.50 L 148.87 57.75 L 150.94 58.00 L 153.21 58.46 L 155.49 58.93 L 157.76 59.39 L 160.03 59.85 L 160.54 61.62 L 161.05 63.39 L 161.57 65.16 L 162.08 66.93 L 161.16 69.20 L 160.24 71.48 L 159.33 73.75 L 158.41 76.03 L 158.42 77.67 L 158.43 79.31 L 158.45 80.95 L 158.46 82.59 L 160.31 83.78 L 162.16 84.98 L 164.01 86.17 L 165.87 87.37 L 167.51 88.90 L 169.15 90.44 L 170.79 91.97 L 172.43 93.50 L 171.81 95.31 L 171.18 97.12 L 170.56 98.93 L 169.93 100.74 L 168.04 102.29 L 166.15 103.83 L 164.26 105.38 L 162.37 106.92 L 161.82 108.41 L 161.27 109.89 L 160.73 111.38 L 160.18 112.86 L 161.35 114.85 L 162.51 116.84 L 163.68 118.83 L 164.85 120.81 L 165.40 122.91 L 165.95 125.00 L 166.50 127.10 L 167.06 129.19 L 165.45 130.38 L 163.84 131.57 L 162.23 132.76 L 160.62 133.95 L 158.25 134.42 L 155.89 134.88 L 153.52 135.34 L 151.16 135.80 L 150.15 136.99 L 149.14 138.18 L 148.13 139.37 L 147.12 140.55 L 147.25 142.94 L 147.38 145.33 L 147.51 147.72 L 147.64 150.10 L 146.99 152.08 L 146.34 154.06 L 145.69 156.03 L 145.04 158.01 L 142.94 158.11 L 140.84 158.22 L 138.75 158.33 L 136.65 158.43 L 134.39 157.76 L 132.14 157.08 L 129.88 156.41 L 127.63 155.73 L 126.26 156.52 L 124.90 157.30 L 123.53 158.08 L 122.17 158.86 L 121.14 161.09 L 120.10 163.32 L 119.07 165.55 L 118.04 167.78 L 116.47 169.01 L 114.89 170.24 L 113.32 171.47 L 111.74 172.69 L 109.84 171.60 L 107.93 170.51 L 106.02 169.41 L 104.11 168.32 L 102.47 166.74 L 100.82 165.16 L 99.17 163.58 L 97.53 162.01 L 95.92 162.27 L 94.32 162.54 L 92.72 162.81 L 91.12 163.08 L 89.12 164.58 L 87.11 166.07 L 85.11 167.57 L 83.11 169.07 L 81.19 169.18 L 79.26 169.29 L 77.34 169.40 L 75.42 169.51 L 74.34 167.49 L 73.26 165.47 L 72.17 163.44 L 71.09 161.42 L 70.35 159.36 L 69.61 157.30 L 68.87 155.24 L 68.13 153.18 L 66.46 152.84 L 64.78 152.49 L 63.11 152.15 L 61.44 151.81 L 58.94 152.15 L 56.44 152.50 L 53.94 152.84 L 51.45 153.18 L 49.86 152.19 L 48.28 151.20 L 46.69 150.20 L 45.11 149.21 L 45.24 146.84 L 45.37 144.46 L 45.51 142.09 L 45.64 139.71 L 45.85 137.64 L 46.07 135.56 L 46.28 133.49 L 46.50 131.41 L 44.99 130.40 L 43.48 129.39 L 41.97 128.38 L 40.46 127.37 L 38.12 126.44 L 35.78 125.52 L 33.43 124.59 L 31.09 123.67 L 30.40 121.96 L 29.72 120.26 L 29.03 118.55 L 28.34 116.84 L 29.71 114.81 L 31.07 112.78 L 32.44 110.74 L 33.80 108.71 L 34.81 107.01 L 35.82 105.31 L 36.83 103.62 L 37.84 101.92 L 36.79 100.29 L 35.74 98.66 L 34.69 97.03 L 33.64 95.40 L 32.08 93.45 L 30.53 91.50 L 28.97 89.55 L 27.42 87.60 L 27.87 85.82 L 28.33 84.04 L 28.78 82.26 L 29.23 80.48 L 31.48 79.38 L 33.73 78.29 L 35.98 77.19 L 38.23 76.10 L 39.75 75.02 L 41.27 73.93 L 42.78 72.85 L 44.30 71.76 L 44.00 69.72 L 43.70 67.68 L 43.40 65.63 L 43.10 63.59 L 42.75 61.17 L 42.40 58.74 L 42.06 56.32 L 41.71 53.90 L 43.15 52.71 L 44.59 51.52 L 46.03 50.33 L 47.47 49.14 L 49.99 49.30 L 52.52 49.47 L 55.05 49.63 L 57.57 49.79 L 59.29 49.40 L 61.01 49.00 L 62.73 48.61 L 64.45 48.22 L 65.09 46.12 L 65.73 44.03 L 66.37 41.93 L 67.01 39.84 L 67.94 37.64 L 68.86 35.44 L 69.79 33.24 L 70.72 31.05 L 72.64 30.92 L 74.56 30.79 L 76.47 30.66 L 78.39 30.53 L 80.53 31.91 L 82.66 33.28 L 84.80 34.66 L 86.93 36.04 L 88.59 36.29 L 90.26 36.54 L 91.92 36.79 L 93.59 37.05 L 95.16 35.36 L 96.74 33.68 L 98.32 32.00 L 99.89 30.32 L 101.77 28.98 L 103.65 27.64 L 105.53 26.30 L 107.41 24.96 L 109.12 26.00 L 110.84 27.03 L 112.55 28.07 L 114.26 29.11 L 115.46 31.32 L 116.67 33.54 L 117.88 35.76 L 119.08 37.97 L 120.51 38.77 L 121.93 39.56 L 123.35 40.36 L 124.78 41.15 L 127.04 40.33 L 129.30 39.50 L 131.56 38.68 L 133.83 37.86 L 136.05 37.74 L 138.27 37.62 L 140.48 37.50 L 142.70 37.38 L 143.57 39.28 L 144.44 41.19 L 145.31 43.09 L 146.18 45.00 L 146.20 47.48 L 146.22 49.97 L 146.24 52.45 L 146.26 54.94 L 147.32 56.16 L 148.37 57.38 L 149.43 58.60 L 150.48 59.82 L 152.95 60.14 L 155.42 60.47 L 157.89 60.79 L 160.36 61.11 L 162.21 62.18 L 164.06 63.25 L 165.90 64.32 L 167.75 65.39 L 167.41 67.56 L 167.07 69.73 L 166.74 71.90 L 166.40 74.07 L 165.29 76.23 L 164.19 78.38 L 163.08 80.54 L 161.98 82.70 L 162.56 84.22 L 163.15 85.75 L 163.73 87.28 L 164.32 88.81 L 166.40 90.29 L 168.48 91.78 L 170.56 93.26 L 172.64 94.74 L 173.53 96.59 L 174.43 98.43 L 175.32 100.27 L 176.22 102.12 L 174.70 103.84 L 173.18 105.56 L 171.66 107.29 L 170.13 109.01 L 168.24 110.38 L 166.34 111.75 L 164.44 113.13 L 162.55 114.50 L 162.56 116.20 L 162.58 117.89 L 162.59 119.59 L 162.61 121.29 L 163.74 123.62 L 164.88 125.95 L 166.02 128.29 L 167.15 130.62 L 166.85 132.57 L 166.54 134.53 L 166.24 136.48 L 165.93 138.43 L 163.63 139.12 L 161.34 139.81 L 159.05 140.50 L 156.75 141.19 L 154.54 141.56 L 152.33 141.93 L 150.12 142.31 L 147.91 142.68 L 147.27 144.36 L 146.63 146.03 L 145.99 147.70 L 145.36 149.38 L 145.22 151.98 L 145.08 154.59 L 144.94 157.20 L 144.80 159.80 L 143.45 161.18 L 142.11 162.55 L 140.76 163.93 L 139.41 165.30 L 137.01 164.68 L 134.61 164.06 L 132.20 163.44 L 129.80 162.82 L 127.75 162.24 L 125.70 161.65 L 123.65 161.07 L 121.60 160.48 L 120.29 161.87 L 118.98 163.26 L 117.67 164.64 L 116.37 166.03 L 114.97 168.22 L 113.57 170.42 L 112.17 172.61 L 110.77 174.80 L 108.89 175.12 L 107.02 175.43 L 105.14 175.74 L 103.27 176.06 L 101.47 174.25 L 99.67 172.45 L 97.87 170.65 L 96.07 168.84 L 94.53 167.53 L 93.00 166.22 L 91.46 164.91 L 89.93 163.60 L 88.06 164.40 L 86.18 165.20 L 84.31 165.99 L 82.44 166.79 L 80.16 167.97 L 77.88 169.16 L 75.60 170.34 L 73.31 171.53 L 71.61 170.67 L 69.91 169.81 L 68.21 168.95 L 66.51 168.10 L 65.84 165.59 L 65.17 163.08 L 64.50 160.57 L 63.84 158.06 L 63.00 156.35 L 62.17 154.63 L 61.33 152.92 L 60.49 151.21 L 58.33 151.15 L 56.17 151.09 L 54.00 151.03 L 51.84 150.97 L 49.32 150.83 L 46.80 150.70 L 44.29 150.56 L 41.77 150.42 L 40.89 148.69 L 40.00 146.97 L 39.11 145.24 L 38.23 143.51 L 38.89 140.97 L 39.55 138.44 L 40.21 135.90 L 40.87 133.36 L 40.76 131.56 L 40.65 129.76 L 40.53 127.96 L 40.42 126.16 L 38.38 125.11 L 36.34 124.06 L 34.30 123.02 L 32.26 121.97 L 30.23 120.59 L 28.21 119.21 L 26.18 117.83 L 24.16 116.46 L 24.45 114.47 L 24.75 112.49 L 25.04 110.51 L 25.33 108.52 L 27.15 106.62 L 28.96 104.72 L 30.77 102.82 L 32.58 100.92 L 33.10 99.28 L 33.63 97.63 L 34.15 95.99 L 34.68 94.34 L 33.24 92.41 L 31.81 90.47 L 30.37 88.54 L 28.93 86.60 L 27.98 84.44 L 27.02 82.27 L 26.06 80.11 L 25.10 77.94 L 26.53 76.42 L 27.96 74.90 L 29.40 73.38 L 30.83 71.86 L 33.31 71.06 L 35.79 70.26 L 38.26 69.46 L 40.74 68.67 L 41.78 67.34 L 42.81 66.02 L 43.84 64.70 L 44.88 63.38 L 44.46 60.90 L 44.05 58.43 L 43.63 55.95 L 43.21 53.48 L 43.56 51.22 L 43.90 48.97 L 44.24 46.72 L 44.58 44.47 L 46.72 43.99 L 48.85 43.51 L 50.99 43.03 L 53.13 42.55 L 55.64 43.00 L 58.16 43.45 L 60.68 43.90 L 63.19 44.35 L 64.61 43.47 L 66.02 42.58 L 67.44 41.70 L 68.86 40.81 L 69.66 38.35 L 70.46 35.88 L 71.27 33.42 L 72.07 30.95 L 73.53 29.33 L 74.99 27.70 L 76.46 26.08 L 77.92 24.45 L 80.07 25.26 L 82.22 26.06 L 84.36 26.87 L 86.51 27.68 L 88.48 29.19 L 90.46 30.71 L 92.43 32.23 L 94.40 33.75 L 96.06 33.39 L 97.73 33.04 L 99.39 32.68 L 101.06 32.33 L 102.97 30.49 L 104.89 28.65 L 106.80 26.82 L 108.72 24.98 L 110.76 24.48 L 112.80 23.98 L 114.84 23.47 L 116.87 22.97 L 118.32 24.89 L 119.76 26.81 L 121.21 28.72 L 122.65 30.64 L 123.69 32.80 L 124.72 34.97 L 125.76 37.13 L 126.80 39.29 L 128.55 39.56 L 130.30 39.82 L 132.06 40.09 L 133.81 40.35 L 136.41 39.65 L 139.00 38.94 L 141.59 38.24 L 144.19 37.54 L 146.08 38.27 L 147.97 39.00 L 149.87 39.74 L 151.76 40.47 L 151.99 42.96 L 152.22 45.44 L 152.45 47.93 L 152.69 50.41 L 152.66 52.71 L 152.64 55.00 L 152.62 57.30 L 152.60 59.59 L 154.22 60.53 L 155.84 61.48 L 157.46 62.42 L 159.08 63.36 L 161.70 64.01 L 164.32 64.66 L 166.94 65.31 L 169.56 65.96 L 170.64 67.62 L 171.73 69.28 L 172.81 70.94 L 173.89 72.60 L 172.77 74.93 L 171.65 77.25 L 170.53 79.58 L 169.41 81.90 L 168.46 83.86 L 167.51 85.82 L 166.56 87.78 L 165.61 89.74 L 166.82 91.34 L 168.02 92.93 L 169.23 94.53 L 170.43 96.12 L 172.38 97.97 L 174.32 99.82 L 176.27 101.67 L 178.21 103.52 L 178.11 105.48 L 178.01 107.44 L 177.91 109.40 L 177.80 111.36 L 175.60 112.83 L 173.41 114.31 L 171.21 115.78 L 169.01 117.25 L 167.42 118.57 L 165.84 119.89 L 164.26 121.21 L 162.68 122.52 L 163.17 124.60 L 163.66 126.67 L 164.15 128.75 L 164.64 130.82 L 165.38 133.36 L 166.12 135.90 L 166.86 138.44 L 167.61 140.98 L 166.36 142.51 L 165.11 144.04 L 163.86 145.57 L 162.61 147.10 L 159.92 147.29 L 157.24 147.47 L 154.55 147.65 L 151.87 147.84 L 150.00 148.39 L 148.14 148.94 L 146.28 149.50 L 144.41 150.05 L 143.96 152.27 L 143.50 154.49 L 143.04 156.71 L 142.59 158.93 L 141.95 161.44 L 141.30 163.95 L 140.66 166.45 L 140.02 168.96 L 138.06 169.48 L 136.11 169.99 L 134.16 170.51 L 132.21 171.02 L 130.98 170.44 L 129.76 169.85 L 128.54 169.27 L 127.31 168.68 L 126.09 168.10 L 124.86 167.52 L 123.64 166.93 L 122.41 166.35 L 120.58 166.17 L 118.74 165.99 L 116.91 165.81 L 115.07 165.63 L 113.62 167.53 L 112.17 169.44 L 110.71 171.34 L 109.26 173.25 L 107.46 175.01 L 105.66 176.76 L 103.86 178.52 L 102.07 180.27 L 100.11 179.54 L 98.16 178.80 L 96.20 178.06 L 94.25 177.32 L 93.46 176.22 L 92.67 175.12 L 91.88 174.02 L 91.09 172.92 L 90.30 171.81 L 89.52 170.71 L 88.73 169.61 L 87.94 168.51 L 86.36 167.72 L 84.78 166.92 L 83.20 166.13 L 81.62 165.33 L 79.36 166.44 L 77.11 167.55 L 74.85 168.66 L 72.59 169.77 L 70.22 170.29 L 67.86 170.81 L 65.49 171.33 L 63.12 171.85 L 61.88 170.05 L 60.64 168.26 L 59.40 166.46 L 58.16 164.67 L 57.82 162.01 L 57.49 159.35 L 57.15 156.69 L 56.82 154.03 L 55.64 152.77 L 54.46 151.50 L 53.28 150.24 L 52.10 148.98 L 49.48 148.94 L 46.87 148.89 L 44.25 148.85 L 41.64 148.81 L 39.45 148.00 L 37.27 147.18 L 35.08 146.37 L 32.90 145.56 L 32.87 143.27 L 32.84 140.99 L 32.81 138.70 L 32.78 136.42 L 33.70 133.96 L 34.63 131.50 L 35.56 129.05 L 36.49 126.59 L 35.81 125.00 L 35.13 123.41 L 34.45 121.82 L 33.76 120.23 L 31.40 118.94 L 29.04 117.65 L 26.67 116.36 L 24.31 115.06 L 22.99 113.26 L 21.68 111.45 L 20.36 109.64 L 19.04 107.83 L 20.32 105.81 L 21.60 103.78 L 22.88 101.76 L 24.15 99.73 L 26.05 98.02 L 27.95 96.32 L 29.84 94.61 L 31.74 92.91 L 31.64 91.14 L 31.55 89.37 L 31.45 87.60 L 31.35 85.83 L 30.60 84.68 L 29.85 83.53 L 29.10 82.37 L 28.35 81.22 L 27.60 80.07 L 26.85 78.92 L 26.10 77.77 L 25.35 76.62 L 25.29 74.46 L 25.22 72.31 L 25.16 70.16 L 25.09 68.01 L 27.35 66.94 L 29.61 65.86 L 31.87 64.78 L 34.13 63.71 L 36.49 63.06 L 38.86 62.41 L 41.23 61.76 L 43.60 61.11 L 44.16 59.35 L 44.72 57.58 L 45.28 55.82 L 45.85 54.05 L 45.74 52.67 L 45.64 51.28 L 45.53 49.90 L 45.43 48.51 L 45.32 47.12 L 45.22 45.74 L 45.11 44.35 L 45.01 42.97 L 46.16 41.23 L 47.30 39.49 L 48.45 37.75 L 49.60 36.02 L 52.19 36.29 L 54.77 36.56 L 57.36 36.84 L 59.94 37.11 L 62.24 37.55 L 64.55 37.98 L 66.85 38.41 L 69.15 38.84 L 70.40 37.33 L 71.65 35.82 L 72.90 34.30 L 74.15 32.79 L 74.73 31.52 L 75.32 30.26 L 75.91 29.00 L 76.49 27.73 L 77.08 26.47 L 77.67 25.21 L 78.25 23.95 L 78.84 22.68 L 80.75 21.96 L 82.65 21.24 L 84.56 20.52 L 86.47 19.80 L 88.61 21.41 L 90.75 23.02 L 92.90 24.63 L 95.04 26.25 L 96.84 27.54 L 98.65 28.84 L 100.45 30.14 L 102.25 31.44 L 104.11 30.47 L 105.97 29.51 L 107.82 28.54 L 109.68 27.57 L 110.81 26.77 L 111.93 25.97 L 113.06 25.17 L 114.19 24.37 L 115.31 23.57 L 116.44 22.77 L 117.57 21.97 L 118.70 21.17 L 120.65 21.71 L 122.60 22.25 L 124.55 22.79 L 126.51 23.33 L 127.04 24.60 L 127.57 25.87 L 128.10 27.13 L 128.63 28.40 L 129.16 29.67 L 129.69 30.93 L 130.22 32.20 L 130.75 33.46 L 131.80 35.28 L 132.85 37.09 L 133.91 38.91 L 134.96 40.72 L 137.19 40.59 L 139.42 40.46 L 141.64 40.33 L 143.87 40.19 L 145.23 40.07 L 146.58 39.95 L 147.94 39.83 L 149.29 39.71 L 150.65 39.59 L 152.00 39.46 L 153.35 39.34 L 154.71 39.22 L 155.98 40.83 L 157.25 42.43 L 158.52 44.04 L 159.78 45.64 L 159.61 47.03 L 159.44 48.41 L 159.27 49.79 L 159.10 51.17 L 158.93 52.56 L 158.75 53.94 L 158.58 55.32 L 158.41 56.70 L 158.66 58.67 L 158.90 60.64 L 159.15 62.60 L 159.39 64.57 L 161.59 65.44 L 163.80 66.32 L 166.00 67.19 L 168.20 68.07 L 170.60 69.22 L 172.99 70.37 L 175.38 71.52 L 177.78 72.67 L 177.87 74.77 L 177.95 76.87 L 178.04 78.96 L 178.13 81.06 L 177.30 82.19 L 176.47 83.31 L 175.64 84.44 L 174.81 85.57 L 173.98 86.70 L 173.15 87.83 L 172.32 88.95 L 171.48 90.08 L 171.00 91.90 L 170.52 93.72 L 170.04 95.55 L 169.56 97.37 L 171.25 99.21 L 172.94 101.06 L 174.63 102.90 L 176.32 104.75 L 177.71 106.91 L 179.11 109.07 L 180.51 111.24 L 181.90 113.40 L 180.72 115.23 L 179.54 117.06 L 178.36 118.88 L 177.18 120.71 L 175.91 121.30 L 174.64 121.88 L 173.38 122.47 L 172.11 123.06 L 170.84 123.64 L 169.58 124.23 L 168.31 124.82 L 167.04 125.40 L 165.99 126.87 L 164.93 128.35 L 163.87 129.82 L 162.82 131.29 L 163.53 133.81 L 164.24 136.33 L 164.96 138.85 L 165.67 141.37 L 165.70 143.86 L 165.74 146.34 L 165.77 148.82 L 165.80 151.30 L 163.70 152.17 L 161.60 153.05 L 159.50 153.92 L 157.40 154.80 L 156.02 154.71 L 154.65 154.63 L 153.27 154.55 L 151.90 154.46 L 150.52 154.38 L 149.15 154.30 L 147.77 154.21 L 146.39 154.13 L 144.92 155.13 L 143.45 156.13 L 141.98 157.14 L 140.51 158.14 L 140.24 159.47 L 139.97 160.80 L 139.70 162.13 L 139.43 163.47 L 139.16 164.80 L 138.89 166.13 L 138.62 167.46 L 138.35 168.79 L 137.08 170.81 L 135.81 172.83 L 134.54 174.84 L 133.28 176.86 L 130.94 176.40 L 128.60 175.95 L 126.26 175.49 L 123.92 175.03 L 121.61 173.64 L 119.31 172.24 L 117.00 170.84 L 114.70 169.44 L 112.96 169.89 L 111.23 170.33 L 109.50 170.78 L 107.76 171.22 L 106.88 172.30 L 105.99 173.38 L 105.11 174.47 L 104.22 175.55 L 103.34 176.63 L 102.45 177.71 L 101.57 178.79 L 100.68 179.87 L 98.59 180.80 L 96.51 181.74 L 94.42 182.67 L 92.33 183.61 L 90.53 181.87 L 88.73 180.14 L 86.94 178.41 L 85.14 176.68 L 83.77 174.46 L 82.40 172.23 L 81.03 170.01 L 79.66 167.78 L 77.83 167.60 L 76.00 167.41 L 74.16 167.22 L 72.33 167.04 L 71.01 167.58 L 69.70 168.12 L 68.38 168.66 L 67.07 169.20 L 65.75 169.74 L 64.43 170.28 L 63.12 170.82 L 61.80 171.36 L 59.64 170.96 L 57.47 170.56 L 55.31 170.16 L 53.14 169.76 L 52.51 167.23 L 51.88 164.71 L 51.25 162.18 L 50.62 159.65 L 50.40 157.15 L 50.17 154.66 L 49.95 152.16 L 49.73 149.66 L 48.01 148.79 L 46.28 147.91 L 44.55 147.04 L 42.83 146.17 L 41.40 146.00 L 39.98 145.84 L 38.55 145.68 L 37.12 145.51 L 35.70 145.35 L 34.27 145.19 L 32.85 145.02 L 31.42 144.86 L 29.93 143.33 L 28.44 141.80 L 26.95 140.27 L 25.46 138.74 L 25.87 137.45 L 26.27 136.16 L 26.67 134.87 L 27.08 133.58 L 27.48 132.29 L 27.88 131.00 L 28.29 129.71 L 28.69 128.42 L 29.54 126.19 L 30.38 123.95 L 31.23 121.71 L 32.07 119.48 L 30.72 117.93 L 29.37 116.38 L 28.02 114.83 L 26.67 113.29 L 25.51 112.45 L 24.35 111.61 L 23.19 110.76 L 22.02 109.92 L 20.86 109.08 L 19.70 108.24 L 18.54 107.40 L 17.37 106.56 L 17.07 104.49 L 16.77 102.41 L 16.47 100.33 L 16.16 98.26 L 17.20 97.33 L 18.24 96.40 L 19.27 95.47 L 20.31 94.55 L 21.35 93.62 L 22.38 92.69 L 23.42 91.76 L 24.46 90.83 L 26.07 89.25 L 27.69 87.66 L 29.31 86.08 L 30.93 84.50 L 30.26 82.41 L 29.59 80.33 L 28.91 78.24 L 28.24 76.16 L 27.66 74.86 L 27.07 73.57 L 26.49 72.27 L 25.91 70.98 L 25.32 69.68 L 24.74 68.39 L 24.15 67.09 L 23.57 65.80 L 24.55 63.95 L 25.53 62.10 L 26.51 60.25 L 27.49 58.41 L 28.88 58.12 L 30.27 57.83 L 31.66 57.54 L 33.06 57.26 L 34.45 56.97 L 35.84 56.68 L 37.23 56.40 L 38.62 56.11 L 40.63 55.36 L 42.63 54.61 L 44.63 53.86 L 46.63 53.12 L 46.89 50.80 L 47.16 48.48 L 47.42 46.16 L 47.68 43.84 L 47.83 42.45 L 47.98 41.06 L 48.13 39.68 L 48.27 38.29 L 48.42 36.90 L 48.57 35.51 L 48.72 34.12 L 48.87 32.74 L 50.77 31.81 L 52.68 30.89 L 54.59 29.96 L 56.49 29.04 L 57.86 29.48 L 59.23 29.93 L 60.60 30.37 L 61.97 30.82 L 63.34 31.26 L 64.71 31.71 L 66.08 32.16 L 67.44 32.60 L 69.46 32.68 L 71.48 32.76 L 73.50 32.84 L 75.52 32.92 L 76.82 30.82 L 78.12 28.71 L 79.42 26.61 L 80.72 24.50 L 81.54 23.41 L 82.36 22.33 L 83.18 21.24 L 84.00 20.16 L 84.82 19.07 L 85.64 17.98 L 86.46 16.90 L 87.28 15.81 L 89.43 16.19 L 91.57 16.56 L 93.72 16.94 L 95.87 17.31 L 96.85 18.37 L 97.83 19.43 L 98.81 20.49 L 99.79 21.55 L 100.77 22.61 L 101.75 23.67 L 102.74 24.73 L 103.72 25.79 L 105.47 26.57 L 107.23 27.35 L 108.99 28.13 L 110.75 28.91 L 112.96 27.52 L 115.16 26.13 L 117.37 24.74 L 119.58 23.35 L 122.03 22.40 L 124.48 21.44 L 126.93 20.48 L 129.39 19.52 L 130.99 21.12 L 132.59 22.72 L 134.19 24.32 L 135.79 25.93 L 136.14 27.32 L 136.49 28.71 L 136.84 30.11 L 137.19 31.50 L 137.54 32.89 L 137.89 34.29 L 138.24 35.68 L 138.59 37.07 L 139.91 38.38 L 141.24 39.68 L 142.56 40.98 L 143.88 42.29 L 145.24 42.16 L 146.60 42.03 L 147.95 41.90 L 149.31 41.77 L 150.66 41.65 L 152.02 41.52 L 153.38 41.39 L 154.73 41.26 L 157.22 41.74 L 159.71 42.22 L 162.20 42.70 L 164.69 43.18 L 165.13 45.51 L 165.57 47.84 L 166.00 50.17 L 166.44 52.50 L 166.10 53.87 L 165.75 55.24 L 165.41 56.62 L 165.07 57.99 L 164.72 59.36 L 164.38 60.73 L 164.03 62.10 L 163.69 63.48 L 164.48 65.13 L 165.26 66.79 L 166.05 68.44 L 166.84 70.10 L 168.14 70.63 L 169.45 71.16 L 170.76 71.68 L 172.07 72.21 L 173.38 72.74 L 174.68 73.27 L 175.99 73.80 L 177.30 74.33 L 179.05 76.02 L 180.80 77.71 L 182.55 79.40 L 184.30 81.09 L 183.34 83.38 L 182.37 85.67 L 181.41 87.96 L 180.45 90.25 L 179.53 91.28 L 178.61 92.31 L 177.69 93.34 L 176.77 94.37 L 175.85 95.40 L 174.93 96.43 L 174.01 97.46 L 173.09 98.49 L 173.27 100.34 L 173.45 102.18 L 173.63 104.02 L 173.81 105.87 L 174.74 106.98 L 175.67 108.09 L 176.60 109.19 L 177.53 110.30 L 178.46 111.41 L 179.39 112.52 L 180.33 113.63 L 181.26 114.73 L 181.74 117.02 L 182.23 119.30 L 182.72 121.59 L 183.21 123.87 L 181.07 125.34 L 178.93 126.82 L 176.79 128.29 L 174.64 129.76 L 172.15 130.73 L 169.67 131.69 L 167.18 132.66 L 164.69 133.63 L 164.20 135.48 L 163.71 137.34 L 163.22 139.19 L 162.73 141.04 L 163.02 142.48 L 163.32 143.92 L 163.61 145.36 L 163.91 146.80 L 164.20 148.24 L 164.50 149.69 L 164.79 151.13 L 165.08 152.57 L 164.22 154.64 L 163.35 156.72 L 162.48 158.80 L 161.61 160.88 L 160.26 160.94 L 158.91 161.00 L 157.55 161.06 L 156.20 161.12 L 154.85 161.18 L 153.50 161.24 L 152.14 161.30 L 150.79 161.37 L 148.24 161.14 L 145.69 160.91 L 143.14 160.68 L 140.59 160.45 L 139.41 162.08 L 138.22 163.71 L 137.03 165.34 L 135.84 166.98 L 135.40 168.39 L 134.96 169.80 L 134.51 171.21 L 134.07 172.63 L 133.63 174.04 L 133.19 175.45 L 132.74 176.86 L 132.30 178.27 L 130.44 179.43 L 128.58 180.59 L 126.72 181.74 L 124.86 182.90 L 123.63 182.22 L 122.40 181.55 L 121.17 180.88 L 119.94 180.21 L 118.71 179.53 L 117.48 178.86 L 116.25 178.19 L 115.02 177.51 L 112.92 176.27 L 110.83 175.03 L 108.74 173.78 L 106.65 172.54 L 104.82 173.66 L 102.99 174.79 L 101.16 175.91 L 99.33 177.04 L 98.26 178.05 L 97.18 179.05 L 96.10 180.06 L 95.02 181.07 L 93.95 182.08 L 92.87 183.09 L 91.79 184.10 L 90.72 185.11 L 88.56 184.95 L 86.41 184.80 L 84.26 184.64 L 82.11 184.48 L 81.38 183.24 L 80.64 182.00 L 79.90 180.76 L 79.17 179.52 L 78.43 178.28 L 77.70 177.04 L 76.96 175.80 L 76.22 174.56 L 74.92 172.67 L 73.61 170.77 L 72.30 168.88 L 70.99 166.98 L 68.73 167.30 L 66.46 167.63 L 64.20 167.95 L 61.93 168.27 L 60.51 168.61 L 59.09 168.94 L 57.67 169.27 L 56.24 169.60 L 54.82 169.94 L 53.40 170.27 L 51.98 170.60 L 50.56 170.93 L 48.92 169.54 L 47.27 168.14 L 45.63 166.74 L 43.99 165.34 L 43.97 163.87 L 43.96 162.40 L 43.94 160.93 L 43.93 159.46 L 43.91 157.99 L 43.90 156.52 L 43.88 155.05 L 43.86 153.58 L 43.45 151.44 L 43.04 149.31 L 42.63 147.18 L 42.21 145.04 L 39.88 144.35 L 37.54 143.66 L 35.20 142.98 L 32.86 142.29 L 31.50 141.86 L 30.13 141.44 L 28.76 141.01 L 27.40 140.58 L 26.03 140.16 L 24.67 139.73 L 23.30 139.31 L 21.94 138.88 L 21.42 136.74 L 20.91 134.61 L 20.40 132.48 L 19.89 130.34 L 20.61 129.04 L 21.33 127.74 L 22.05 126.44 L 22.77 125.14 L 23.49 123.84 L 24.21 122.54 L 24.93 121.24 L 25.65 119.94 L 26.06 117.93 L 26.47 115.91 L 26.89 113.90 L 27.30 111.89 L 25.38 110.16 L 23.45 108.44 L 21.53 106.72 L 19.61 104.99 L 18.68 103.95 L 17.76 102.91 L 16.84 101.87 L 15.91 100.83 L 14.99 99.79 L 14.06 98.75 L 13.14 97.71 L 12.22 96.67 L 13.07 94.57 L 13.92 92.48 L 14.78 90.38 L 15.63 88.29 L 16.89 87.50 L 18.16 86.71 L 19.42 85.92 L 20.68 85.14 L 21.94 84.35 L 23.21 83.56 L 24.47 82.77 L 25.73 81.99 L 26.80 80.34 L 27.87 78.69 L 28.94 77.05 L 30.01 75.40 L 29.50 74.14 L 28.99 72.88 L 28.49 71.62 L 27.98 70.36 L 27.48 69.10 L 26.97 67.84 L 26.46 66.58 L 25.96 65.32 L 25.50 62.67 L 25.04 60.02 L 24.58 57.37 L 24.12 54.72 L 26.10 53.44 L 28.07 52.16 L 30.05 50.88 L 32.03 49.61 L 33.51 49.52 L 34.98 49.43 L 36.45 49.35 L 37.93 49.26 L 39.40 49.17 L 40.87 49.08 L 42.35 49.00 L 43.82 48.91 L 45.35 47.78 L 46.88 46.64 L 48.41 45.51 L 49.94 44.37 L 50.06 42.96 L 50.19 41.55 L 50.31 40.14 L 50.44 38.74 L 50.56 37.33 L 50.68 35.92 L 50.81 34.51 L 50.93 33.10 L 51.93 30.71 L 52.92 28.32 L 53.92 25.93 L 54.92 23.54 L 57.38 23.60 L 59.85 23.65 L 62.31 23.71 L 64.78 23.76 L 66.10 24.37 L 67.42 24.97 L 68.73 25.58 L 70.05 26.18 L 71.37 26.79 L 72.69 27.39 L 74.01 28.00 L 75.32 28.61 L 77.13 28.07 L 78.94 27.53 L 80.75 26.99 L 82.56 26.45 L 83.35 25.21 L 84.14 23.98 L 84.92 22.75 L 85.71 21.52 L 86.50 20.28 L 87.29 19.05 L 88.07 17.82 L 88.86 16.59 L 90.92 15.20 L 92.97 13.80 L 95.03 12.41 L 97.08 11.02 L 99.21 12.48 L 101.34 13.95 L 103.47 15.42 L 105.60 16.88 L 106.46 18.00 L 107.33 19.12 L 108.20 20.23 L 109.06 21.35 L 109.93 22.46 L 110.79 23.58 L 111.66 24.70 L 112.53 25.81 L 114.44 25.92 L 116.36 26.03 L 118.28 26.15 L 120.19 26.26 L 121.50 25.52 L 122.80 24.79 L 124.11 24.06 L 125.41 23.32 L 126.71 22.59 L 128.02 21.86 L 129.32 21.12 L 130.63 20.39 L 133.01 20.39 L 135.40 20.39 L 137.78 20.39 L 140.17 20.39 L 140.69 21.63 L 141.22 22.88 L 141.75 24.12 L 142.27 25.37 L 142.80 26.61 L 143.33 27.86 L 143.85 29.10 L 144.38 30.34 L 144.64 31.68 L 144.90 33.02 L 145.15 34.36 L 145.41 35.70 L 145.67 37.04 L 145.93 38.37 L 146.19 39.71 L 146.44 41.05 L 148.27 41.86 L 150.09 42.66 L 151.92 43.47 L 153.74 44.28 L 155.26 44.26 L 156.78 44.24 L 158.29 44.22 L 159.81 44.20 L 161.33 44.18 L 162.85 44.16 L 164.36 44.14 L 165.88 44.12 L 167.77 45.43 L 169.66 46.75 L 171.54 48.07 L 173.43 49.39 L 173.22 50.78 L 173.00 52.16 L 172.78 53.55 L 172.57 54.94 L 172.35 56.33 L 172.14 57.72 L 171.92 59.11 L 171.70 60.50 L 171.02 63.02 L 170.33 65.53 L 169.64 68.05 L 168.95 70.56 L 170.43 72.06 L 171.91 73.56 L 173.39 75.06 L 174.87 76.55 L 176.22 77.28 L 177.56 78.00 L 178.90 78.72 L 180.24 79.45 L 181.58 80.17 L 182.92 80.89 L 184.27 81.61 L 185.61 82.34 L 186.36 84.45 L 187.10 86.57 L 187.85 88.69 L 188.60 90.80 L 187.67 91.92 L 186.73 93.03 L 185.80 94.15 L 184.87 95.26 L 183.93 96.38 L 183.00 97.49 L 182.07 98.60 L 181.13 99.72 L 179.52 101.60 L 177.90 103.48 L 176.29 105.35 L 174.67 107.23 L 175.51 109.31 L 176.36 111.39 L 177.20 113.46 L 178.04 115.54 L 178.85 116.82 L 179.65 118.11 L 180.46 119.40 L 181.27 120.68 L 182.07 121.96 L 182.88 123.25 L 183.69 124.53 L 184.49 125.82 L 183.86 127.94 L 183.22 130.07 L 182.59 132.19 L 181.95 134.32 L 180.55 134.82 L 179.14 135.32 L 177.74 135.82 L 176.33 136.32 L 174.92 136.82 L 173.52 137.31 L 172.11 137.81 L 170.71 138.31 L 168.58 139.30 L 166.46 140.28 L 164.33 141.26 L 162.21 142.25 L 162.14 144.64 L 162.07 147.03 L 162.00 149.41 L 161.93 151.80 L 161.99 153.30 L 162.04 154.80 L 162.09 156.29 L 162.15 157.79 L 162.20 159.28 L 162.25 160.78 L 162.31 162.27 L 162.36 163.77 L 160.58 165.11 L 158.81 166.46 L 157.03 167.80 L 155.26 169.15 L 153.76 168.87 L 152.27 168.60 L 150.78 168.32 L 149.28 168.05 L 147.79 167.77 L 146.30 167.50 L 144.80 167.22 L 143.31 166.95 L 141.10 167.01 L 138.89 167.06 L 136.68 167.12 L 134.47 167.17 L 133.34 169.45 L 132.21 171.73 L 131.08 174.00 L 129.95 176.28 L 129.25 177.57 L 128.55 178.85 L 127.85 180.14 L 127.15 181.43 L 126.45 182.71 L 125.75 184.00 L 125.05 185.28 L 124.35 186.57 L 122.08 186.61 L 119.80 186.66 L 117.53 186.70 L 115.26 186.74 L 114.09 185.76 L 112.91 184.78 L 111.74 183.80 L 110.56 182.82 L 109.39 181.83 L 108.21 180.85 L 107.04 179.87 L 105.86 178.89 L 103.90 178.14 L 101.95 177.40 L 99.99 176.66 L 98.04 175.91 L 95.92 177.57 L 93.80 179.22 L 91.68 180.87 L 89.56 182.53 L 88.34 183.18 L 87.13 183.82 L 85.92 184.47 L 84.70 185.12 L 83.49 185.77 L 82.27 186.42 L 81.06 187.07 L 79.84 187.71" 
          fill="none" 
          stroke="currentColor" 
          stroke-width="0.5"/>
</svg>