<?xml version="1.0" encoding="UTF-8" standalone="no"?>
<svg width="100%" height="100%" viewBox="0 0 200 200" preserveAspectRatio="xMidYMid meet" xmlns="http://www.w3.org/2000/svg">
    <path d="M 100.00 100.00 L 100.00 100.26 L 100.00 99.49 L 100.00 100.00 L 100.01 100.77 L 100.01 98.97 L 99.97 97.94 L 100.03 102.06 L 100.04 101.29 L 99.98 98.46 L 99.94 97.94 L 100.02 102.06 L 100.05 101.80 L 99.98 97.94 L 99.94 97.94 L 100.01 102.06 L 100.06 102.31 L 99.94 97.43 L 99.91 97.95 L 100.05 102.06 L 100.12 102.83 L 99.93 96.91 L 99.83 95.89 L 100.08 104.11 L 100.13 103.34 L 99.86 96.40 L 99.76 95.89 L 100.15 104.11 L 100.22 103.85 L 99.85 95.89 L 99.77 95.89 L 100.14 104.11 L 100.24 104.37 L 99.77 95.37 L 99.72 95.90 L 100.20 104.11 L 100.32 104.88 L 99.76 94.86 L 99.61 93.84 L 100.28 106.16 L 100.34 105.39 L 99.65 94.35 L 99.52 93.85 L 100.38 106.16 L 100.45 105.90 L 99.62 93.84 L 99.54 93.85 L 100.38 106.16 L 100.48 106.41 L 99.59 93.32 L 99.54 93.85 L 100.47 106.15 L 100.62 106.92 L 99.45 92.82 L 99.27 91.81 L 100.64 108.20 L 100.67 107.43 L 99.39 92.31 L 99.26 91.81 L 100.66 108.20 L 100.73 107.94 L 99.32 91.80 L 99.24 91.81 L 100.69 108.20 L 100.80 108.45 L 99.16 91.29 L 99.12 91.82 L 100.81 108.19 L 100.97 108.95 L 99.07 90.79 L 98.87 89.78 L 101.05 110.23 L 101.06 109.46 L 98.98 90.28 L 98.83 89.79 L 101.10 110.22 L 101.17 109.97 L 98.87 89.77 L 98.78 89.79 L 101.16 110.22 L 101.28 110.47 L 98.75 89.27 L 98.73 89.80 L 101.22 110.21 L 101.40 110.97 L 98.63 88.76 L 98.41 87.77 L 101.53 112.24 L 101.53 111.48 L 98.49 88.26 L 98.34 87.77 L 101.61 112.23 L 101.67 111.98 L 98.35 87.76 L 98.26 87.79 L 101.69 112.22 L 101.82 112.48 L 98.19 87.26 L 98.18 87.80 L 101.78 112.21 L 101.98 112.97 L 98.03 86.77 L 97.78 85.78 L 102.17 114.23 L 102.15 113.47 L 97.94 86.26 L 97.78 85.78 L 102.18 114.23 L 102.23 113.97 L 97.76 85.77 L 97.67 85.79 L 102.29 114.21 L 102.42 114.46 L 97.57 85.28 L 97.57 85.81 L 102.40 114.19 L 102.62 114.95 L 97.37 84.79 L 97.10 83.81 L 102.78 116.21 L 102.74 115.45 L 97.24 84.29 L 97.06 83.81 L 102.91 116.19 L 102.96 115.94 L 97.02 83.81 L 96.93 83.84 L 103.05 116.17 L 103.19 116.42 L 96.87 83.31 L 96.89 83.85 L 103.10 116.16 L 103.33 116.91 L 96.63 82.83 L 96.35 81.86 L 103.64 118.15 L 103.58 117.39 L 96.47 82.34 L 96.28 81.87 L 103.71 118.13 L 103.75 117.88 L 96.21 81.87 L 96.12 81.90 L 103.78 118.12 L 103.92 118.37 L 96.03 81.38 L 96.05 81.92 L 103.94 118.08 L 104.20 118.83 L 95.84 80.90 L 95.53 79.93 L 104.47 120.07 L 104.39 119.32 L 95.55 80.43 L 95.35 79.97 L 104.56 120.05 L 104.60 119.80 L 95.33 79.95 L 95.25 79.99 L 104.75 120.01 L 104.90 120.26 L 95.11 79.48 L 95.15 80.02 L 104.85 119.98 L 105.13 120.73 L 94.86 79.01 L 94.53 78.05 L 105.45 121.95 L 105.36 121.20 L 94.64 78.53 L 94.43 78.08 L 105.58 121.92 L 105.61 121.67 L 94.31 78.09 L 94.23 78.13 L 105.70 121.89 L 105.86 122.14 L 94.13 77.60 L 94.18 78.14 L 105.82 121.86 L 106.11 122.60 L 93.85 77.14 L 93.50 76.20 L 106.50 123.80 L 106.39 123.06 L 93.53 76.70 L 93.31 76.25 L 106.66 123.76 L 106.69 123.51 L 93.29 76.23 L 93.21 76.28 L 106.79 123.72 L 106.95 123.97 L 92.95 75.79 L 93.02 76.33 L 106.95 123.68 L 107.26 124.42 L 92.69 75.33 L 92.32 74.40 L 107.67 125.61 L 107.54 124.87 L 92.38 74.89 L 92.15 74.45 L 107.79 125.57 L 107.81 125.32 L 92.09 74.44 L 92.01 74.49 L 107.94 125.52 L 108.11 125.77 L 91.77 74.00 L 91.85 74.54 L 108.12 125.47 L 108.44 126.20 L 91.43 73.57 L 91.03 72.64 L 108.94 127.37 L 108.79 126.63 L 91.16 73.12 L 90.92 72.68 L 109.06 127.32 L 109.08 127.08 L 90.85 72.68 L 90.77 72.73 L 109.24 127.27 L 109.41 127.51 L 90.53 72.24 L 90.62 72.78 L 109.40 127.21 L 109.74 127.94 L 90.15 71.83 L 89.73 70.91 L 110.31 129.07 L 110.15 128.34 L 89.77 71.42 L 89.52 70.99 L 110.42 129.03 L 110.43 128.79 L 89.43 70.99 L 89.35 71.05 L 110.62 128.96 L 110.81 129.19 L 89.08 70.57 L 89.18 71.11 L 110.82 128.88 L 111.19 129.60 L 131.66 102.17 L 130.78 102.02 L 130.77 97.91 L 131.67 97.76 L 88.71 70.16 L 88.27 69.26 L 67.25 96.81 L 68.15 96.99 L 68.14 103.09 L 67.26 103.26 L 111.74 130.74 L 111.56 130.01 L 132.02 103.83 L 132.68 103.82 L 132.68 96.16 L 132.04 96.14 L 88.34 69.75 L 88.08 69.33 L 67.40 95.53 L 67.79 95.67 L 67.76 104.31 L 67.40 104.45 L 111.88 130.68 L 111.88 130.44 L 132.39 104.88 L 132.55 104.81 L 132.55 95.18 L 132.42 95.11 L 88.01 69.33 L 87.94 69.39 L 67.54 94.65 L 67.41 94.72 L 67.39 105.34 L 67.55 105.41 L 112.08 130.60 L 112.27 130.84 L 132.77 105.74 L 132.42 105.59 L 132.40 94.30 L 132.78 94.14 L 87.63 68.93 L 87.75 69.47 L 67.66 93.96 L 67.03 93.93 L 67.00 106.11 L 67.67 106.08 L 112.27 130.53 L 112.65 131.24 L 133.14 106.56 L 132.29 106.31 L 132.30 93.72 L 133.18 93.46 L 87.19 68.55 L 86.72 67.66 L 65.77 92.91 L 66.65 93.19 L 66.62 106.84 L 65.77 107.11 L 113.28 132.33 L 113.09 131.62 L 133.54 107.15 L 134.21 107.19 L 134.19 92.71 L 133.56 92.75 L 86.82 68.14 L 86.55 67.73 L 65.88 92.41 L 66.25 92.59 L 66.22 107.45 L 65.88 107.62 L 113.44 132.27 L 113.44 132.03 L 133.92 107.83 L 134.08 107.77 L 134.08 92.22 L 133.95 92.15 L 86.47 67.73 L 86.40 67.80 L 65.99 91.93 L 65.86 91.99 L 65.83 108.04 L 65.99 108.09 L 113.64 132.19 L 113.83 132.42 L 134.33 108.31 L 134.00 108.14 L 133.99 91.82 L 134.36 91.64 L 86.00 67.37 L 86.13 67.91 L 66.07 91.58 L 65.45 91.51 L 65.43 108.57 L 66.09 108.49 L 113.86 132.09 L 114.26 132.80 L 134.72 108.86 L 133.89 108.56 L 133.89 91.41 L 134.76 91.10 L 85.59 66.99 L 85.11 66.11 L 64.17 90.72 L 65.04 91.04 L 65.01 109.01 L 64.18 109.32 L 114.90 133.88 L 114.69 133.17 L 135.14 109.32 L 135.80 109.40 L 135.79 90.58 L 135.17 90.65 L 85.20 66.60 L 84.93 66.20 L 64.24 90.43 L 64.61 90.63 L 64.59 109.44 L 64.26 109.62 L 115.11 133.79 L 115.10 133.55 L 135.56 109.71 L 135.73 109.66 L 135.71 90.28 L 135.59 90.22 L 84.77 66.22 L 84.71 66.29 L 64.32 90.14 L 64.20 90.20 L 64.16 109.84 L 64.33 109.89 L 115.29 133.71 L 115.49 133.94 L 135.98 110.14 L 135.65 109.95 L 135.65 90.04 L 136.02 89.84 L 84.33 65.86 L 84.48 66.40 L 64.41 89.85 L 63.79 89.76 L 63.73 110.21 L 64.39 110.11 L 115.49 133.62 L 115.91 134.31 L 136.42 110.46 L 135.60 110.14 L 135.60 89.87 L 136.46 89.53 L 83.94 65.48 L 83.43 64.62 L 62.48 89.12 L 63.34 89.46 L 63.31 110.62 L 62.50 110.95 L 116.57 135.38 L 116.34 134.68 L 136.86 110.78 L 137.53 110.88 L 137.50 89.05 L 136.88 89.13 L 83.53 65.10 L 83.24 64.71 L 62.54 88.90 L 62.91 89.11 L 62.85 110.88 L 62.53 111.07 L 116.80 135.28 L 116.78 135.04 L 137.30 111.10 L 137.47 111.05 L 137.46 88.89 L 137.33 88.83 L 83.08 64.74 L 83.02 64.81 L 62.59 88.73 L 62.46 88.79 L 62.43 111.26 L 62.60 111.30 L 117.02 135.17 L 117.22 135.40 L 137.74 111.42 L 137.42 111.23 L 137.42 88.75 L 137.78 88.55 L 82.59 64.41 L 82.76 64.94 L 62.63 88.60 L 62.01 88.50 L 61.96 111.48 L 62.62 111.38 L 117.23 135.06 L 117.67 135.75 L 138.20 111.67 L 137.39 111.33 L 137.38 88.63 L 138.24 88.28 L 82.13 64.06 L 81.61 63.21 L 60.69 87.90 L 61.55 88.26 L 61.50 111.75 L 60.69 112.09 L 118.45 136.75 L 118.21 136.06 L 138.64 112.00 L 139.30 112.11 L 139.31 87.92 L 138.70 88.02 L 81.69 63.71 L 81.40 63.32 L 60.73 87.79 L 61.09 88.00 L 61.04 111.98 L 60.72 112.18 L 118.63 136.67 L 118.61 136.43 L 139.10 112.23 L 139.28 112.19 L 139.28 87.80 L 139.15 87.75 L 81.18 63.39 L 81.11 63.47 L 60.74 87.74 L 60.62 87.80 L 60.57 112.21 L 60.74 112.25 L 118.92 136.52 L 119.14 136.74 L 139.58 112.42 L 139.27 112.23 L 139.26 87.74 L 139.62 87.53 L 80.74 63.04 L 80.91 63.57 L 60.76 87.70 L 60.14 87.60 L 60.11 112.47 L 60.77 112.35 L 119.13 136.40 L 119.59 137.08 L 140.06 112.61 L 139.25 112.27 L 139.24 87.70 L 140.10 87.33 L 80.26 62.71 L 79.72 61.88 L 58.83 86.98 L 59.68 87.34 L 59.61 112.60 L 58.81 112.95 L 120.32 138.11 L 120.05 137.42 L 140.55 112.79 L 141.21 112.90 L 141.21 87.10 L 140.60 87.20 L 79.80 62.37 L 79.49 62.00 L 58.81 87.02 L 59.18 87.23 L 59.13 112.77 L 58.81 112.96 L 120.55 137.98 L 120.52 137.75 L 141.04 112.92 L 141.22 112.88 L 141.21 87.11 L 141.09 87.06 L 79.26 62.07 L 79.21 62.15 L 58.81 87.04 L 58.68 87.10 L 58.64 112.94 L 58.82 112.98 L 120.80 137.84 L 121.03 138.06 L 141.54 113.05 L 141.22 112.86 L 141.21 87.09 L 141.57 86.88 L 78.76 61.77 L 78.95 62.29 L 58.80 87.07 L 58.18 86.97 L 58.16 113.12 L 58.82 113.00 L 121.06 137.70 L 121.53 138.37 L 142.03 113.21 L 141.22 112.86 L 141.23 87.16 L 142.09 86.80 L 78.26 61.46 L 77.70 60.64 L 56.83 86.46 L 57.69 86.82 L 57.65 113.21 L 56.84 113.56 L 122.32 139.35 L 122.04 138.67 L 142.54 113.32 L 143.20 113.43 L 143.21 86.60 L 142.59 86.69 L 77.73 61.16 L 77.42 60.80 L 56.82 86.50 L 57.19 86.71 L 57.14 113.32 L 56.83 113.51 L 122.60 139.19 L 122.57 138.96 L 143.04 113.43 L 143.21 113.39 L 143.22 86.64 L 143.10 86.58 L 77.28 60.83 L 77.22 60.91 L 56.78 86.63 L 56.65 86.69 L 56.61 113.34 L 56.79 113.38 L 122.88 139.03 L 123.11 139.24 L 143.56 113.49 L 143.24 113.30 L 143.25 86.74 L 143.62 86.54 L 76.72 60.56 L 76.93 61.09 L 56.77 86.66 L 56.15 86.57 L 56.10 113.41 L 56.76 113.30 L 123.11 138.89 L 123.60 139.54 L 144.08 113.55 L 143.27 113.21 L 143.28 86.83 L 144.14 86.47 L 76.22 60.26 L 75.64 59.46 L 54.75 86.23 L 55.61 86.59 L 55.58 113.47 L 54.77 113.82 L 124.40 140.52 L 124.10 139.85 L 144.62 113.53 L 145.29 113.63 L 145.30 86.40 L 144.68 86.49 L 75.64 60.01 L 75.32 59.66 L 54.72 86.33 L 55.09 86.53 L 55.04 113.48 L 54.72 113.67 L 124.73 140.32 L 124.69 140.09 L 145.15 113.58 L 145.32 113.54 L 145.34 86.53 L 145.21 86.48 L 75.12 59.72 L 75.07 59.81 L 54.67 86.52 L 54.54 86.57 L 54.51 113.48 L 54.68 113.52 L 124.98 140.16 L 125.21 140.37 L 145.70 113.53 L 145.37 113.34 L 145.38 86.68 L 145.75 86.48 L 74.60 59.44 L 74.83 59.96 L 54.64 86.62 L 54.02 86.54 L 53.94 113.38 L 54.61 113.28 L 125.22 140.01 L 125.73 140.65 L 146.25 113.48 L 145.43 113.15 L 145.43 86.84 L 146.29 86.49 L 74.01 59.21 L 73.41 58.43 L 52.60 86.26 L 53.46 86.60 L 53.41 113.40 L 52.60 113.73 L 126.62 141.56 L 126.30 140.90 L 146.79 113.44 L 147.46 113.54 L 147.47 86.51 L 146.85 86.59 L 73.47 58.94 L 73.14 58.60 L 52.54 86.48 L 52.90 86.68 L 52.86 113.33 L 52.53 113.51 L 126.88 141.39 L 126.85 141.16 L 147.35 113.36 L 147.52 113.32 L 147.53 86.72 L 147.41 86.66 L 72.92 58.69 L 72.87 58.78 L 52.47 86.70 L 52.35 86.76 L 52.28 113.17 L 52.45 113.21 L 127.23 141.16 L 127.47 141.37 L 147.93 113.19 L 147.61 113.01 L 147.62 87.02 L 147.98 86.83 L 72.37 58.43 L 72.60 58.95 L 52.39 87.01 L 51.76 86.94 L 51.72 113.08 L 52.39 112.99 L 127.51 140.97 L 128.04 141.60 L 148.51 113.04 L 147.68 112.73 L 147.68 87.25 L 148.54 86.93 L 71.81 58.19 L 71.19 57.43 L 50.33 86.75 L 51.20 87.07 L 51.14 112.89 L 50.32 113.20 L 128.90 142.52 L 128.57 141.87 L 149.08 112.90 L 149.74 112.98 L 149.75 87.05 L 149.13 87.12 L 71.21 57.98 L 70.87 57.64 L 50.23 87.12 L 50.60 87.31 L 50.56 112.69 L 50.23 112.87 L 129.21 142.30 L 129.17 142.08 L 149.65 112.75 L 149.82 112.69 L 149.84 87.39 L 149.71 87.33 L 70.60 57.77 L 70.55 57.86 L 50.16 87.40 L 50.03 87.47 L 49.98 112.48 L 50.14 112.53 L 129.53 142.08 L 129.78 142.28 L 150.25 112.46 L 149.92 112.28 L 149.93 87.75 L 150.30 87.56 L 70.03 57.54 L 70.28 58.05 L 50.07 87.78 L 49.44 87.72 L 49.38 112.21 L 50.05 112.14 L 129.77 141.91 L 130.32 142.53 L 150.85 112.19 L 150.01 111.90 L 150.02 88.14 L 150.89 87.84 L 69.41 57.35 L 68.76 56.61 L 47.95 87.77 L 48.83 88.07 L 48.79 111.94 L 47.95 112.23 L 131.29 143.35 L 130.94 142.71 L 151.44 111.92 L 152.10 111.98 L 152.12 88.07 L 151.49 88.12 L 68.85 57.12 L 68.51 56.80 L 47.86 88.17 L 48.24 88.35 L 48.20 111.65 L 47.86 111.82 L 131.62 143.11 L 131.57 142.89 L 152.05 111.56 L 152.21 111.50 L 152.23 88.56 L 152.10 88.50 L 68.22 56.94 L 68.18 57.04 L 47.75 88.65 L 47.63 88.72 L 47.59 111.26 L 47.75 111.32 L 131.90 142.90 L 132.16 143.10 L 152.67 111.11 L 152.33 110.95 L 152.34 89.08 L 152.71 88.91 L 67.57 56.78 L 67.84 57.29 L 47.64 89.19 L 47.01 89.15 L 46.98 110.85 L 47.64 110.80 L 132.21 142.68 L 132.77 143.28 L 153.29 110.67 L 152.44 110.41 L 152.44 89.57 L 153.32 89.31 L 66.95 56.60 L 66.29 55.88 L 45.51 89.34 L 46.39 89.60 L 46.35 110.36 L 45.50 110.62 L 133.75 144.08 L 133.39 143.46 L 153.90 110.21 L 154.57 110.25 L 154.59 89.87 L 153.95 89.89 L 66.34 56.43 L 65.98 56.12 L 45.39 89.99 L 45.77 90.15 L 45.72 109.76 L 45.37 109.92 L 134.06 143.84 L 134.01 143.63 L 154.55 109.57 L 154.70 109.50 L 154.71 90.56 L 154.58 90.49 L 65.71 56.26 L 65.67 56.36 L 45.26 90.74 L 45.13 90.81 L 45.09 109.13 L 45.25 109.19 L 134.39 143.59 L 134.65 143.78 L 155.18 108.91 L 154.82 108.76 L 154.84 91.30 L 155.22 91.15 L 65.10 56.09 L 65.38 56.59 L 45.12 91.61 L 44.48 91.60 L 44.45 108.39 L 45.11 108.37 L 134.71 143.33 L 135.30 143.92 L 155.82 108.14 L 154.95 107.93 L 154.96 92.12 L 155.85 91.90 L 64.45 55.95 L 63.77 55.25 L 42.95 92.26 L 43.84 92.47 L 43.82 107.54 L 42.95 107.75 L 136.32 144.67 L 135.94 144.06 L 156.47 107.18 L 157.13 107.17 L 157.13 92.86 L 156.49 92.85 L 63.80 55.82 L 63.44 55.52 L 42.80 93.41 L 43.18 93.54 L 43.17 106.49 L 42.81 106.63 L 136.65 144.40 L 136.59 144.19 L 157.12 106.01 L 157.27 105.93 L 157.28 94.16 L 157.15 94.09 L 63.15 55.69 L 63.12 55.79 L 42.66 94.73 L 42.54 94.82 L 42.51 105.06 L 42.65 105.14 L 136.98 144.13 L 137.25 144.32 L 157.79 104.37 L 157.42 104.25 L 157.43 95.82 L 157.81 95.71 L 62.44 55.61 L 62.75 56.10 L 42.51 96.81 L 41.87 96.87 L 41.86 103.08 L 42.51 103.14 L 137.33 143.84 L 137.93 144.41 L 158.47 101.00 L 157.57 100.89 L 157.57 99.14 L 158.47 99.03 L 61.82 55.46 L 61.12 54.78 L 139.02 145.09 L 138.63 144.49 L 61.13 55.38 L 60.76 55.10 L 139.32 144.84 L 139.25 144.63 L 60.43 55.31 L 60.40 55.41 L 139.67 144.52 L 139.95 144.70 L 59.73 55.24 L 60.05 55.73 L 140.04 144.19 L 140.66 144.75 L 59.08 55.14 L 58.36 54.49 L 141.80 145.37 L 141.38 144.79 L 58.36 55.10 L 57.98 54.83 L 142.11 145.08 L 142.04 144.88 L 57.70 55.02 L 57.67 55.12 L 142.48 144.73 L 142.77 144.90 L 56.97 55.00 L 57.30 55.48 L 142.85 144.38 L 143.50 144.91 L 56.24 54.98 L 55.51 54.35 L 144.63 145.52 L 144.19 144.95 L 55.49 55.00 L 55.11 54.74 L 144.96 145.19 L 144.88 144.99 L 54.80 54.96 L 54.78 55.07 L 145.35 144.80 L 145.64 144.96 L 54.04 54.99 L 54.40 55.46 L 145.73 144.41 L 146.40 144.92 L 53.35 54.97 L 52.59 54.37 L 147.54 145.49 L 147.10 144.94 L 52.59 55.02 L 52.20 54.78 L 147.94 145.08 L 147.86 144.88 L 51.81 55.09 L 51.80 55.20 L 148.34 144.64 L 148.64 144.80 L 51.09 55.12 L 51.46 55.58 L 148.68 144.27 L 149.37 144.77 L 50.30 55.22 L 49.53 54.64 L 150.62 145.20 L 150.15 144.66 L 49.51 55.33 L 49.12 55.10 L 150.96 144.80 L 150.88 144.61 L 48.78 55.38 L 48.77 55.50 L 151.37 144.34 L 151.68 144.49 L 47.99 55.51 L 48.37 55.96 L 151.75 143.90 L 152.44 144.38 L 47.19 55.66 L 46.40 55.11 L 153.71 144.76 L 153.23 144.24 L 46.40 55.80 L 46.00 55.59 L 154.16 144.21 L 154.08 144.02 L 45.61 55.95 L 45.61 56.07 L 154.55 143.73 L 154.87 143.86 L 44.82 56.12 L 45.23 56.55 L 154.94 143.24 L 155.66 143.69 L 43.97 56.36 L 43.16 55.85 L 156.95 144.01 L 156.45 143.51 L 43.18 56.55 L 42.77 56.35 L 157.39 143.43 L 157.30 143.25 L 42.37 56.76 L 42.38 56.87 L 157.80 142.89 L 158.12 143.01 L 41.55 57.00 L 41.97 57.43 L 158.20 142.33 L 158.94 142.76 L 40.67 57.34 L 39.85 56.85 L 160.28 142.97 L 159.77 142.49 L 39.85 57.61 L 39.44 57.43 L 160.74 142.32 L 160.64 142.14 L 39.02 57.89 L 39.03 58.01 L 161.14 141.74 L 161.47 141.85 L 38.14 58.26 L 38.59 58.67 L 161.59 141.08 L 162.34 141.47 L 37.32 58.57 L 36.48 58.12 L 163.70 141.61 L 163.17 141.16 L 36.45 58.95 L 36.04 58.79 L 164.14 140.92 L 164.04 140.75 L 35.55 59.41 L 35.57 59.53 L 164.56 140.25 L 164.90 140.36 L 34.70 59.81 L 35.16 60.20 L 165.02 139.51 L 165.80 139.87 L 33.80 60.30 L 32.94 59.89 L 167.24 139.80 L 166.70 139.38 L 32.90 60.80 L 32.49 60.66 L 167.65 139.11 L 167.55 138.94 L 32.05 61.24 L 32.08 61.36 L 168.14 138.25 L 168.48 138.34 L 31.12 61.85 L 31.60 62.22 L 168.57 137.46 L 169.37 137.79 L 30.23 62.40 L 29.36 62.04 L 170.82 137.64 L 170.26 137.24 L 29.31 63.03 L 28.90 62.91 L 171.28 136.74 L 171.18 136.59 L 28.42 63.64 L 28.46 63.76 L 171.76 135.81 L 172.11 135.88 L 27.49 64.36 L 27.99 64.70 L 172.22 134.87 L 173.04 135.16 L 26.56 65.09 L 25.68 64.77 L 174.53 134.79 L 173.96 134.42 L 25.60 65.92 L 25.18 65.82 L 175.02 133.73 L 174.91 133.58 L 24.66 66.77 L 24.71 66.89 L 175.49 132.66 L 175.85 132.72 L 23.72 67.64 L 24.25 67.96 L 175.95 131.59 L 176.78 131.84 L 22.79 68.53 L 21.89 68.26 L 178.33 131.18 L 177.74 130.85 L 21.81 69.60 L 21.39 69.54 L 178.83 129.90 L 178.71 129.76 L 20.84 70.71 L 20.90 70.83 L 179.31 128.61 L 179.67 128.64 L 19.88 71.84 L 20.43 72.13 L 179.79 127.22 L 180.65 127.41 L 18.91 73.08 L 18.00 72.88 L 182.22 126.45 L 181.61 126.15 L 17.93 74.44 L 17.51 74.41 L 182.72 124.83 L 182.60 124.69 L 16.93 76.00 L 17.00 76.13 L 183.22 123.10 L 183.59 123.11 L 15.93 77.65 L 16.51 77.89 L 183.70 121.29 L 184.57 121.42 L 14.93 79.51 L 14.02 79.38 L 186.22 119.61 L 185.59 119.38 L 13.93 81.57 L 13.52 81.57 L 186.72 117.24 L 186.60 117.13 L 12.92 84.01 L 13.02 84.11 L 187.23 114.44 L 187.62 114.42 L 11.89 87.09 L 12.50 87.27 L 187.74 110.93 L 188.64 110.96 L 10.86 91.18 L 10.43 91.23 L 189.83 105.53 L 189.67 105.43 L 61.43 18.69" 
          fill="none" 
          stroke="currentColor" 
          stroke-width="0.5"/>
</svg>