<?xml version="1.0" encoding="UTF-8" standalone="no"?>
<svg width="100%" height="100%" viewBox="0 0 200 200" preserveAspectRatio="xMidYMid meet" xmlns="http://www.w3.org/2000/svg">
    <path d="M 100.00 100.00 L 99.59 100.44 L 99.18 100.88 L 98.77 101.32 L 98.37 101.75 L 97.97 102.18 L 97.57 102.60 L 97.17 103.02 L 96.78 103.44 L 96.39 103.85 L 96.00 104.27 L 95.62 104.67 L 95.24 105.08 L 94.86 105.48 L 94.48 105.88 L 94.11 106.27 L 93.74 106.67 L 93.37 107.06 L 93.00 107.44 L 92.64 107.83 L 92.28 108.21 L 91.57 108.97 L 91.22 109.35 L 90.87 109.72 L 90.52 110.09 L 90.18 110.46 L 89.84 110.82 L 89.50 111.19 L 89.16 111.55 L 88.83 111.91 L 88.50 112.27 L 88.17 112.63 L 87.85 112.98 L 87.53 113.34 L 87.21 113.69 L 86.89 114.04 L 86.57 114.39 L 86.26 114.74 L 85.95 115.09 L 85.65 115.44 L 85.34 115.78 L 85.04 116.13 L 84.44 116.82 L 83.86 117.50 L 83.29 118.18 L 82.72 118.86 L 82.17 119.54 L 81.63 120.21 L 81.09 120.89 L 80.57 121.56 L 80.06 122.24 L 79.56 122.92 L 79.06 123.60 L 78.59 124.29 L 78.11 124.97 L 77.65 125.66 L 77.20 126.36 L 76.75 127.06 L 76.32 127.76 L 75.90 128.48 L 75.48 129.19 L 75.08 129.92 L 74.69 130.65 L 74.30 131.39 L 73.93 132.14 L 73.57 132.90 L 73.21 133.66 L 72.87 134.44 L 72.54 135.24 L 72.21 136.04 L 71.89 136.81 L 71.59 137.58 L 71.29 138.34 L 71.00 139.09 L 70.74 139.82 L 70.47 140.55 L 70.21 141.27 L 69.98 141.98 L 69.74 142.69 L 69.52 143.38 L 69.32 144.07 L 69.12 144.76 L 68.93 145.43 L 68.76 146.10 L 68.59 146.77 L 68.44 147.43 L 68.31 148.09 L 68.18 148.75 L 68.06 149.40 L 67.97 150.05 L 67.87 150.70 L 67.79 151.34 L 67.73 151.99 L 67.68 152.63 L 67.64 153.27 L 67.62 153.92 L 67.60 154.56 L 67.60 155.21 L 67.61 155.86 L 67.63 156.50 L 67.67 157.16 L 67.73 157.81 L 67.79 158.47 L 67.87 159.13 L 67.97 159.80 L 68.07 160.47 L 68.20 161.15 L 68.34 161.84 L 68.48 162.52 L 68.65 163.22 L 68.83 163.93 L 69.02 164.63 L 69.23 165.35 L 69.46 166.09 L 69.69 166.82 L 69.94 167.57 L 70.22 168.33 L 70.47 169.02 L 70.74 169.70 L 71.01 170.35 L 71.28 171.00 L 71.57 171.63 L 71.86 172.24 L 72.16 172.85 L 72.46 173.43 L 72.77 174.00 L 73.08 174.56 L 73.39 175.11 L 73.71 175.63 L 74.03 176.16 L 74.36 176.66 L 74.69 177.14 L 75.01 177.63 L 75.35 178.09 L 75.68 178.53 L 76.01 178.97 L 76.35 179.40 L 76.69 179.80 L 77.02 180.21 L 77.36 180.59 L 77.69 180.96 L 78.02 181.32 L 78.35 181.67 L 78.68 182.00 L 79.01 182.33 L 79.33 182.64 L 79.65 182.93 L 80.29 183.51 L 80.91 184.03 L 81.49 184.47 L 82.07 184.92 L 82.62 185.30 L 83.12 185.61 L 83.61 185.92 L 84.06 186.17 L 84.45 186.36 L 84.96 186.61 L 85.46 186.86 L 85.95 187.09 L 86.45 187.32 L 86.92 187.54 L 87.39 187.75 L 87.86 187.97 L 88.32 188.17 L 88.78 188.36 L 89.23 188.55 L 89.68 188.73 L 90.12 188.90 L 90.56 189.07 L 91.00 189.22 L 91.43 189.37 L 91.86 189.51 L 92.30 189.65 L 92.73 189.71 L 106.65 189.75 L 107.28 189.66 L 107.94 189.51 L 108.60 189.35 L 109.25 189.18 L 109.88 188.99 L 110.51 188.79 L 111.13 188.58 L 111.73 188.35 L 112.33 188.12 L 112.92 187.87 L 113.49 187.60 L 114.06 187.34 L 114.61 187.06 L 115.16 186.76 L 115.70 186.46 L 116.22 186.14 L 116.73 185.82 L 117.24 185.49 L 117.74 185.15 L 118.22 184.79 L 118.71 184.43 L 119.17 184.07 L 119.63 183.68 L 120.08 183.30 L 120.52 182.91 L 120.94 182.51 L 121.36 182.10 L 121.77 181.69 L 122.17 181.27 L 122.57 180.85 L 122.95 180.41 L 123.31 179.97 L 123.68 179.53 L 124.03 179.08 L 124.37 178.63 L 124.71 178.17 L 125.04 177.71 L 125.35 177.24 L 125.66 176.78 L 125.96 176.30 L 126.24 175.83 L 126.52 175.35 L 126.79 174.87 L 127.05 174.38 L 127.31 173.90 L 127.55 173.41 L 127.78 172.92 L 128.01 172.43 L 128.22 171.94 L 128.43 171.45 L 128.66 170.87 L 129.11 169.76 L 129.32 169.21 L 129.53 168.68 L 129.72 168.15 L 129.92 167.63 L 130.10 167.12 L 130.27 166.62 L 130.45 166.11 L 130.61 165.62 L 130.76 165.14 L 130.91 164.65 L 131.05 164.18 L 131.18 163.71 L 131.31 163.24 L 131.42 162.77 L 131.53 162.31 L 131.64 161.85 L 131.73 161.39 L 131.81 160.94 L 131.90 160.49 L 131.97 160.03 L 132.03 159.58 L 132.09 159.13 L 132.14 158.68 L 132.18 158.23 L 132.22 157.77 L 132.25 157.32 L 132.26 156.86 L 132.28 156.40 L 132.28 155.94 L 132.27 155.47 L 132.26 155.00 L 132.24 154.53 L 132.21 154.05 L 132.18 153.57 L 132.14 153.08 L 132.08 152.59 L 132.03 152.09 L 131.96 151.58 L 131.88 151.07 L 131.80 150.55 L 131.71 150.02 L 131.61 149.48 L 131.51 148.94 L 131.40 148.38 L 131.27 147.81 L 131.10 147.07 L 130.94 146.35 L 130.76 145.64 L 130.59 144.93 L 130.41 144.24 L 130.23 143.57 L 130.05 142.89 L 129.86 142.24 L 129.67 141.59 L 129.47 140.95 L 129.28 140.32 L 129.07 139.70 L 128.87 139.08 L 128.66 138.48 L 128.44 137.89 L 128.22 137.30 L 128.00 136.71 L 127.77 136.14 L 127.54 135.57 L 127.31 135.01 L 127.06 134.46 L 126.82 133.90 L 126.57 133.36 L 126.31 132.82 L 126.05 132.28 L 125.78 131.75 L 125.51 131.23 L 125.23 130.70 L 124.95 130.18 L 124.66 129.67 L 124.37 129.15 L 124.07 128.64 L 123.76 128.13 L 123.45 127.62 L 123.13 127.11 L 122.80 126.61 L 122.47 126.10 L 122.13 125.60 L 121.78 125.09 L 121.44 124.59 L 121.08 124.08 L 120.71 123.57 L 120.34 123.07 L 119.96 122.56 L 119.57 122.04 L 119.18 121.53 L 118.77 121.02 L 118.36 120.49 L 118.08 120.14 L 117.75 119.74 L 117.37 119.30 L 117.00 118.86 L 116.59 118.38 L 116.14 117.87 L 115.69 117.36 L 115.20 116.81 L 114.16 115.67 L 113.61 115.07 L 113.04 114.45 L 112.47 113.82 L 111.87 113.18 L 111.25 112.52 L 110.94 112.19 L 110.62 111.85 L 110.31 111.51 L 109.99 111.17 L 109.66 110.83 L 109.34 110.48 L 109.01 110.13 L 108.68 109.79 L 108.35 109.43 L 108.01 109.08 L 107.68 108.73 L 107.34 108.37 L 107.00 108.02 L 106.66 107.66 L 106.32 107.30 L 105.98 106.94 L 105.63 106.58 L 105.29 106.23 L 104.94 105.87 L 104.60 105.51 L 104.25 105.15 L 103.91 104.79 L 103.56 104.43 L 103.22 104.07 L 102.87 103.71 L 102.53 103.35 L 102.18 103.00 L 101.84 102.64 L 101.50 102.29 L 101.16 101.93 L 100.82 101.58 L 100.48 101.23 L 100.14 100.89 L 99.81 100.54 L 99.47 100.20 L 99.14 99.86 L 98.81 99.52 L 98.49 99.18 L 98.16 98.85 L 97.84 98.51 L 97.52 98.19 L 97.21 97.86 L 96.58 97.22 L 95.97 96.59 L 95.38 95.99 L 94.79 95.39 L 94.23 94.81 L 93.70 94.27 L 93.17 93.72 L 92.66 93.20 L 92.20 92.72 L 91.73 92.24 L 91.29 91.80 L 90.90 91.40 L 90.51 90.99 L 90.12 90.59 L 89.75 90.18 L 89.37 89.78 L 89.01 89.37 L 88.65 88.97 L 88.29 88.56 L 87.94 88.16 L 87.60 87.75 L 87.25 87.35 L 86.92 86.95 L 86.59 86.55 L 86.26 86.15 L 85.94 85.75 L 85.62 85.35 L 85.31 84.96 L 85.00 84.56 L 84.70 84.17 L 84.40 83.78 L 84.10 83.40 L 83.81 83.02 L 83.52 82.63 L 83.24 82.26 L 82.96 81.88 L 82.68 81.51 L 82.41 81.14 L 82.14 80.78 L 81.87 80.42 L 81.60 80.07 L 81.34 79.72 L 80.82 79.02 L 80.32 78.35 L 79.83 77.72 L 79.33 77.08 L 78.86 76.48 L 78.39 75.92 L 77.92 75.35 L 77.46 74.83 L 77.00 74.36 L 76.55 73.88 L 76.10 73.43 L 75.65 72.99 L 75.20 72.56 L 74.74 72.15 L 74.29 71.77 L 73.83 71.38 L 73.36 71.02 L 72.88 70.68 L 72.40 70.34 L 71.91 70.02 L 71.40 69.73 L 70.88 69.43 L 70.35 69.17 L 69.80 68.92 L 69.24 68.68 L 68.66 68.46 L 68.04 68.26 L 67.43 68.07 L 66.78 67.90 L 66.10 67.76 L 65.42 67.62 L 64.70 67.50 L 63.93 67.41 L 63.43 67.35 L 62.90 67.33 L 62.35 67.34 L 61.80 67.36 L 61.23 67.41 L 60.66 67.49 L 60.09 67.58 L 59.51 67.69 L 58.94 67.83 L 58.37 67.97 L 57.80 68.14 L 57.24 68.33 L 56.69 68.52 L 56.15 68.73 L 55.64 68.96 L 55.13 69.19 L 54.64 69.44 L 54.19 69.70 L 53.74 69.96 L 53.33 70.23 L 52.97 70.51 L 52.60 70.79 L 52.28 71.08 L 52.02 71.38 L 51.58 71.88 L 51.16 72.41 L 50.78 72.95 L 50.40 73.50 L 50.05 74.06 L 49.74 74.63 L 49.42 75.21 L 49.14 75.79 L 48.90 76.39 L 48.66 76.99 L 48.45 77.59 L 48.28 78.20 L 48.12 78.81 L 47.98 79.42 L 47.89 80.03 L 47.80 80.64 L 47.75 81.24 L 47.74 81.85 L 47.73 82.45 L 47.75 83.05 L 47.83 83.63 L 47.90 84.22 L 48.01 84.79 L 48.17 85.35 L 48.39 86.15 L 48.64 86.89 L 48.92 87.58 L 49.19 88.28 L 49.49 88.92 L 49.81 89.52 L 50.13 90.13 L 50.48 90.68 L 50.84 91.20 L 51.20 91.71 L 51.59 92.19 L 51.99 92.62 L 52.39 93.06 L 52.80 93.45 L 53.24 93.81 L 53.67 94.18 L 54.12 94.50 L 54.58 94.79 L 55.04 95.09 L 55.51 95.35 L 56.00 95.58 L 56.48 95.81 L 56.98 96.02 L 57.48 96.19 L 58.12 96.42 L 58.75 96.62 L 59.35 96.78 L 59.96 96.95 L 60.55 97.08 L 61.12 97.18 L 61.70 97.28 L 62.26 97.35 L 62.82 97.38 L 63.37 97.41 L 63.91 97.40 L 64.45 97.36 L 64.99 97.31 L 65.52 97.23 L 66.05 97.11 L 66.58 96.99 L 67.10 96.83 L 67.63 96.63 L 68.16 96.43 L 68.69 96.18 L 69.23 95.90 L 69.76 95.61 L 70.30 95.28 L 70.85 94.90 L 71.35 94.57 L 71.81 94.23 L 72.24 93.89 L 72.67 93.54 L 73.07 93.19 L 73.44 92.83 L 73.81 92.46 L 74.15 92.08 L 74.47 91.68 L 74.79 91.28 L 75.08 90.86 L 75.35 90.41 L 75.61 89.96 L 75.85 89.47 L 76.07 88.96 L 76.29 88.44 L 76.49 87.89 L 76.67 87.29 L 76.85 86.69 L 77.00 86.05 L 77.14 85.36 L 77.28 84.67 L 77.40 83.93 L 77.50 83.12 L 77.60 82.30 L 77.69 81.49 L 77.72 80.64 L 77.74 80.21 L 77.74 79.77 L 77.71 79.32 L 77.69 78.87 L 77.65 78.40 L 77.58 77.92 L 77.51 77.43 L 77.41 76.92 L 77.28 76.38 L 77.16 75.85 L 77.00 75.29 L 76.80 74.70 L 76.60 74.10 L 76.36 73.48 L 76.08 72.81 L 75.80 72.15 L 75.48 71.45 L 75.11 70.70 L 74.74 69.96 L 74.34 69.15 L 73.94 68.29 L 73.74 67.86 L 73.53 67.42 L 73.33 66.97 L 73.12 66.51 L 72.92 66.05 L 72.71 65.57 L 72.51 65.10 L 72.30 64.62 L 72.10 64.12 L 71.90 63.63 L 71.69 63.13 L 71.50 62.62 L 71.30 62.11 L 71.10 61.59 L 70.91 61.07 L 70.72 60.55 L 70.54 60.03 L 70.36 59.50 L 70.18 58.96 L 70.00 58.43 L 69.83 57.89 L 69.67 57.36 L 69.51 56.82 L 69.36 56.27 L 69.21 55.73 L 69.07 55.19 L 68.93 54.65 L 68.80 54.11 L 68.68 53.57 L 68.57 53.03 L 68.46 52.49 L 68.36 51.95 L 68.28 51.41 L 68.19 50.88 L 68.12 50.35 L 68.06 49.82 L 68.01 49.29 L 67.96 48.77 L 67.94 48.25 L 67.91 47.74 L 67.90 47.23 L 67.90 46.73 L 67.91 45.98 L 67.94 45.18 L 67.99 44.35 L 68.03 43.51 L 68.10 42.63 L 68.20 41.71 L 68.25 41.26 L 68.30 40.80 L 68.36 40.33 L 68.43 39.86 L 68.49 39.38 L 68.57 38.90 L 68.65 38.42 L 68.73 37.94 L 68.82 37.45 L 68.92 36.96 L 69.02 36.47 L 69.13 35.98 L 69.24 35.49 L 69.35 34.99 L 69.48 34.50 L 69.61 34.00 L 69.74 33.51 L 69.89 33.02 L 70.04 32.52 L 70.19 32.03 L 70.36 31.54 L 70.52 31.05 L 70.70 30.56 L 70.89 30.08 L 71.08 29.59 L 71.27 29.11 L 71.48 28.64 L 71.69 28.17 L 71.91 27.70 L 72.15 27.23 L 72.38 26.77 L 72.63 26.32 L 72.88 25.87 L 73.14 25.42 L 73.41 24.99 L 73.69 24.56 L 73.97 24.14 L 74.24 23.74 L 74.51 23.34 L 74.79 22.95 L 75.06 22.57 L 75.33 22.20 L 75.87 21.46 L 76.41 20.76 L 76.95 20.10 L 77.50 19.45 L 78.05 18.83 L 78.61 18.25 L 79.16 17.67 L 79.73 17.13 L 80.31 16.63 L 80.89 16.13 L 81.49 15.66 L 82.10 15.23 L 82.71 14.79 L 83.35 14.39 L 84.00 14.03 L 84.66 13.66 L 85.34 13.32 L 86.05 13.01 L 86.76 12.70 L 87.50 12.42 L 88.27 12.16 L 88.72 12.02 L 89.17 11.87 L 89.62 11.74 L 90.06 11.61 L 90.51 11.48 L 90.96 11.36 L 91.41 11.24 L 91.85 11.13 L 92.30 11.03 L 92.75 10.92 L 93.19 10.83 L 93.64 10.74 L 94.09 10.66 L 94.53 10.58 L 94.98 10.51 L 95.43 10.44 L 95.88 10.38 L 96.33 10.33 L 96.78 10.28 L 97.23 10.23 L 97.68 10.20 L 98.14 10.17 L 98.59 10.15 L 99.04 10.13 L 99.50 10.12 L 99.96 10.11 L 100.42 10.12 L 100.88 10.13 L 101.34 10.14 L 101.80 10.17 L 102.27 10.20 L 102.73 10.24 L 103.20 10.28 L 103.67 10.33 L 104.14 10.39 L 104.62 10.46 L 105.09 10.53 L 105.57 10.61 L 106.06 10.71 L 106.54 10.80 L 107.02 10.90 L 107.51 11.02 L 108.00 11.14 L 108.50 11.27 L 108.99 11.41 L 109.49 11.55 L 109.99 11.70 L 110.50 11.86 L 110.97 12.02 L 111.43 12.18 L 111.87 12.34 L 112.32 12.51 L 112.74 12.68 L 113.16 12.85 L 113.99 13.21 L 114.77 13.58 L 115.50 13.98 L 116.23 14.39 L 116.92 14.82 L 117.58 15.28 L 118.24 15.74 L 118.86 16.23 L 119.46 16.75 L 120.06 17.28 L 120.63 17.83 L 121.20 18.43 L 121.76 19.03 L 122.31 19.66 L 122.85 20.33 L 123.39 21.00 L 123.93 21.72 L 124.48 22.48 L 124.75 22.86 L 125.02 23.25 L 125.30 23.65 L 125.58 24.05 L 126.14 24.89 L 126.40 25.28 L 126.66 25.68 L 126.90 26.08 L 127.14 26.48 L 127.37 26.88 L 127.59 27.28 L 128.03 28.07 L 128.42 28.88 L 128.77 29.68 L 129.13 30.49 L 129.44 31.30 L 129.72 32.12 L 130.00 32.94 L 130.24 33.77 L 130.45 34.61 L 130.67 35.45 L 130.85 36.29 L 131.00 37.15 L 131.16 38.01 L 131.28 38.88 L 131.39 39.76 L 131.44 40.20 L 131.48 40.65 L 131.52 41.10 L 131.57 41.54 L 131.60 42.00 L 131.63 42.45 L 131.66 42.91 L 131.69 43.37 L 131.71 43.83 L 131.73 44.30 L 131.75 44.76 L 131.77 45.24 L 131.78 45.74 L 131.79 46.24 L 131.79 46.72 L 131.79 47.20 L 131.79 47.67 L 131.77 48.12 L 131.75 49.03 L 131.70 49.89 L 131.62 50.72 L 131.54 51.55 L 131.44 52.34 L 131.31 53.10 L 131.19 53.86 L 131.04 54.60 L 130.86 55.31 L 130.69 56.03 L 130.50 56.73 L 130.28 57.43 L 130.06 58.12 L 129.82 58.81 L 129.57 59.50 L 129.31 60.19 L 129.03 60.89 L 128.74 61.59 L 128.44 62.30 L 128.13 63.02 L 127.79 63.77 L 127.46 64.51 L 127.11 65.28 L 126.73 66.05 L 126.35 66.83 L 125.95 67.62 L 125.53 68.42 L 125.32 68.82 L 125.11 69.23 L 124.89 69.63 L 124.67 70.03 L 124.44 70.44 L 124.21 70.85 L 123.98 71.25 L 123.74 71.66 L 123.50 72.07 L 123.26 72.48 L 123.02 72.88 L 122.77 73.29 L 122.52 73.70 L 122.26 74.11 L 122.00 74.51 L 121.75 74.92 L 121.48 75.32 L 121.22 75.73 L 120.95 76.13 L 120.68 76.54 L 120.40 76.94 L 120.13 77.34 L 119.85 77.73 L 119.57 78.13 L 119.28 78.52 L 119.00 78.92 L 118.71 79.30 L 118.42 79.69 L 118.12 80.08 L 117.82 80.46 L 117.53 80.84 L 117.23 81.22 L 116.92 81.59 L 116.62 81.96 L 116.31 82.33 L 116.00 82.69 L 115.69 83.05 L 115.36 83.44 L 115.00 83.84 L 114.65 84.24 L 114.28 84.66 L 113.89 85.10 L 113.50 85.53 L 113.10 85.98 L 112.68 86.44 L 112.27 86.90 L 111.84 87.36 L 111.41 87.84 L 110.97 88.31 L 110.53 88.79 L 110.09 89.27 L 109.65 89.75 L 109.20 90.23 L 108.76 90.71 L 108.31 91.19 L 107.87 91.67 L 107.43 92.14 L 106.99 92.60 L 106.56 93.07 L 106.14 93.52 L 105.72 93.97 L 105.30 94.41 L 104.91 94.83 L 104.51 95.25 L 104.12 95.66 L 103.75 96.05 L 103.39 96.44 L 103.04 96.81 L 102.71 97.15 L 102.38 97.50 L 102.08 97.82 L 101.80 98.11 L 100.69 99.28 L 100.00 100.00" 
          fill="none" 
          stroke="currentColor" 
          stroke-width="0.5"/>
</svg>