<?xml version="1.0" encoding="UTF-8" standalone="no"?>
<svg width="100%" height="100%" viewBox="0 0 200 200" preserveAspectRatio="xMidYMid meet" xmlns="http://www.w3.org/2000/svg">
    <path d="M 10.00 100.00 L 10.53 100.30 L 11.05 100.00 L 11.05 99.39 L 11.58 99.09 L 12.11 99.39 L 12.11 100.00 L 11.58 100.30 L 11.58 100.91 L 12.11 101.22 L 12.64 100.91 L 13.16 101.22 L 13.16 101.83 L 13.69 102.13 L 14.22 101.83 L 14.22 101.22 L 13.69 100.91 L 13.69 100.30 L 14.22 100.00 L 14.22 99.39 L 13.69 99.09 L 13.16 99.39 L 12.64 99.09 L 12.64 98.48 L 13.16 98.17 L 13.69 98.48 L 14.22 98.17 L 14.22 97.56 L 14.75 97.26 L 15.27 97.56 L 15.27 98.17 L 15.80 98.48 L 16.33 98.17 L 16.33 97.56 L 15.80 97.26 L 15.80 96.65 L 16.33 96.35 L 16.86 96.65 L 17.38 96.35 L 17.38 95.74 L 17.91 95.43 L 18.44 95.74 L 18.44 96.35 L 17.91 96.65 L 17.91 97.26 L 18.44 97.56 L 18.44 98.17 L 17.91 98.48 L 17.38 98.17 L 16.86 98.48 L 16.86 99.09 L 17.38 99.39 L 17.91 99.09 L 18.44 99.39 L 18.44 100.00 L 17.91 100.30 L 17.91 100.91 L 18.44 101.22 L 18.44 101.83 L 17.91 102.13 L 17.38 101.83 L 17.38 101.22 L 16.86 100.91 L 16.33 101.22 L 16.33 101.83 L 15.80 102.13 L 15.27 101.83 L 14.75 102.13 L 14.75 102.74 L 15.27 103.04 L 15.80 102.74 L 16.33 103.04 L 16.33 103.65 L 16.86 103.96 L 17.38 103.65 L 17.38 103.04 L 17.91 102.74 L 18.44 103.04 L 18.44 103.65 L 17.91 103.96 L 17.91 104.57 L 18.44 104.87 L 18.96 104.57 L 19.49 104.87 L 19.49 105.48 L 20.02 105.78 L 20.55 105.48 L 20.55 104.87 L 20.02 104.57 L 20.02 103.96 L 20.55 103.65 L 21.07 103.96 L 21.60 103.65 L 21.60 103.04 L 22.13 102.74 L 22.66 103.04 L 22.66 103.65 L 22.13 103.96 L 22.13 104.57 L 22.66 104.87 L 22.66 105.48 L 22.13 105.78 L 21.60 105.48 L 21.07 105.78 L 21.07 106.39 L 21.60 106.70 L 22.13 106.39 L 22.66 106.70 L 22.66 107.31 L 23.18 107.61 L 23.71 107.31 L 23.71 106.70 L 24.24 106.39 L 24.77 106.70 L 24.77 107.31 L 24.24 107.61 L 24.24 108.22 L 24.77 108.52 L 25.29 108.22 L 25.82 108.52 L 25.82 109.13 L 26.35 109.44 L 26.88 109.13 L 26.88 108.52 L 26.35 108.22 L 26.35 107.61 L 26.88 107.31 L 26.88 106.70 L 26.35 106.39 L 25.82 106.70 L 25.29 106.39 L 25.29 105.78 L 25.82 105.48 L 26.35 105.78 L 26.88 105.48 L 26.88 104.87 L 26.35 104.57 L 26.35 103.96 L 26.88 103.65 L 26.87 103.04 L 26.35 102.74 L 25.82 103.04 L 25.82 103.65 L 25.29 103.96 L 24.77 103.65 L 24.77 103.04 L 24.24 102.74 L 23.71 103.04 L 23.18 102.74 L 23.18 102.13 L 23.71 101.83 L 24.24 102.13 L 24.77 101.83 L 24.77 101.22 L 25.29 100.91 L 25.82 101.22 L 25.82 101.83 L 26.35 102.13 L 26.88 101.83 L 26.88 101.22 L 26.35 100.91 L 26.35 100.30 L 26.88 100.00 L 26.88 99.39 L 26.35 99.09 L 25.82 99.39 L 25.29 99.09 L 25.29 98.48 L 25.82 98.17 L 26.35 98.48 L 26.88 98.17 L 26.88 97.56 L 26.35 97.26 L 26.35 96.65 L 26.88 96.35 L 26.88 95.74 L 26.35 95.43 L 25.82 95.74 L 25.82 96.35 L 25.29 96.65 L 24.77 96.35 L 24.24 96.65 L 24.24 97.26 L 24.77 97.56 L 24.77 98.17 L 24.24 98.48 L 23.71 98.17 L 23.71 97.56 L 23.18 97.26 L 22.66 97.56 L 22.13 97.26 L 22.13 96.65 L 22.66 96.35 L 22.66 95.74 L 22.13 95.43 L 21.60 95.74 L 21.60 96.35 L 21.07 96.65 L 20.55 96.35 L 20.55 95.74 L 20.02 95.43 L 19.49 95.74 L 18.96 95.43 L 18.96 94.82 L 19.49 94.52 L 20.02 94.82 L 20.55 94.52 L 20.55 93.91 L 21.07 93.61 L 21.60 93.91 L 21.60 94.52 L 22.13 94.82 L 22.66 94.52 L 22.66 93.91 L 22.13 93.61 L 22.13 93.00 L 22.66 92.69 L 23.18 93.00 L 23.71 92.69 L 23.71 92.08 L 24.24 91.78 L 24.77 92.08 L 24.77 92.69 L 24.24 93.00 L 24.24 93.61 L 24.77 93.91 L 25.29 93.61 L 25.82 93.91 L 25.82 94.52 L 26.35 94.82 L 26.88 94.52 L 26.88 93.91 L 26.35 93.61 L 26.35 93.00 L 26.88 92.69 L 26.87 92.08 L 26.35 91.78 L 25.82 92.08 L 25.29 91.78 L 25.29 91.17 L 25.82 90.87 L 26.35 91.17 L 26.88 90.87 L 26.88 90.26 L 27.40 89.95 L 27.93 90.26 L 27.93 90.87 L 28.46 91.17 L 28.98 90.87 L 28.98 90.26 L 28.46 89.95 L 28.46 89.34 L 28.98 89.04 L 29.51 89.34 L 30.04 89.04 L 30.04 88.43 L 30.57 88.13 L 31.09 88.43 L 31.09 89.04 L 30.57 89.34 L 30.57 89.95 L 31.09 90.26 L 31.09 90.87 L 30.57 91.17 L 30.04 90.87 L 29.51 91.17 L 29.51 91.78 L 30.04 92.08 L 30.57 91.78 L 31.09 92.08 L 31.09 92.69 L 31.62 93.00 L 32.15 92.69 L 32.15 92.08 L 32.68 91.78 L 33.20 92.08 L 33.20 92.69 L 32.68 93.00 L 32.68 93.61 L 33.20 93.91 L 33.73 93.61 L 34.26 93.91 L 34.26 94.52 L 34.79 94.82 L 35.31 94.52 L 35.31 93.91 L 34.79 93.61 L 34.79 93.00 L 35.31 92.69 L 35.31 92.08 L 34.79 91.78 L 34.26 92.08 L 33.73 91.78 L 33.73 91.17 L 34.26 90.87 L 34.79 91.17 L 35.31 90.87 L 35.31 90.26 L 34.79 89.95 L 34.79 89.34 L 35.31 89.04 L 35.31 88.43 L 34.79 88.13 L 34.26 88.43 L 34.26 89.04 L 33.73 89.34 L 33.20 89.04 L 33.20 88.43 L 32.68 88.13 L 32.15 88.43 L 31.62 88.13 L 31.62 87.52 L 32.15 87.21 L 32.68 87.52 L 33.20 87.21 L 33.20 86.60 L 33.73 86.30 L 34.26 86.60 L 34.26 87.21 L 34.79 87.52 L 35.31 87.21 L 35.31 86.60 L 34.79 86.30 L 34.79 85.69 L 35.31 85.39 L 35.84 85.69 L 36.37 85.39 L 36.37 84.78 L 36.89 84.47 L 37.42 84.78 L 37.42 85.39 L 36.89 85.69 L 36.89 86.30 L 37.42 86.60 L 37.95 86.30 L 38.48 86.60 L 38.48 87.21 L 39.00 87.52 L 39.53 87.21 L 39.53 86.60 L 39.00 86.30 L 39.00 85.69 L 39.53 85.39 L 39.53 84.78 L 39.00 84.47 L 38.48 84.78 L 37.95 84.47 L 37.95 83.86 L 38.48 83.56 L 39.00 83.86 L 39.53 83.56 L 39.53 82.95 L 40.06 82.65 L 40.59 82.95 L 40.59 83.56 L 41.11 83.86 L 41.64 83.56 L 41.64 82.95 L 41.11 82.65 L 41.11 82.04 L 41.64 81.73 L 42.17 82.04 L 42.70 81.73 L 42.70 81.12 L 43.22 80.82 L 43.75 81.12 L 43.75 81.73 L 43.22 82.04 L 43.22 82.65 L 43.75 82.95 L 43.75 83.56 L 43.22 83.86 L 42.70 83.56 L 42.17 83.86 L 42.17 84.47 L 42.70 84.78 L 43.22 84.47 L 43.75 84.78 L 43.75 85.39 L 43.22 85.69 L 43.22 86.30 L 43.75 86.60 L 43.75 87.21 L 43.22 87.52 L 42.70 87.21 L 42.70 86.60 L 42.17 86.30 L 41.64 86.60 L 41.64 87.21 L 41.11 87.52 L 40.59 87.21 L 40.06 87.52 L 40.06 88.13 L 40.59 88.43 L 41.11 88.13 L 41.64 88.43 L 41.64 89.04 L 42.17 89.34 L 42.70 89.04 L 42.70 88.43 L 43.22 88.13 L 43.75 88.43 L 43.75 89.04 L 43.22 89.34 L 43.22 89.95 L 43.75 90.26 L 43.75 90.87 L 43.22 91.17 L 42.70 90.87 L 42.17 91.17 L 42.17 91.78 L 42.70 92.08 L 43.22 91.78 L 43.75 92.08 L 43.75 92.69 L 43.22 93.00 L 43.22 93.61 L 43.75 93.91 L 43.75 94.52 L 43.22 94.82 L 42.70 94.52 L 42.70 93.91 L 42.17 93.61 L 41.64 93.91 L 41.11 93.61 L 41.11 93.00 L 41.64 92.69 L 41.64 92.08 L 41.11 91.78 L 40.59 92.08 L 40.59 92.69 L 40.06 93.00 L 39.53 92.69 L 39.00 93.00 L 39.00 93.61 L 39.53 93.91 L 39.53 94.52 L 39.00 94.82 L 38.48 94.52 L 38.48 93.91 L 37.95 93.61 L 37.42 93.91 L 37.42 94.52 L 36.89 94.82 L 36.37 94.52 L 35.84 94.82 L 35.84 95.43 L 36.37 95.74 L 36.89 95.43 L 37.42 95.74 L 37.42 96.35 L 37.95 96.65 L 38.48 96.35 L 38.48 95.74 L 39.00 95.43 L 39.53 95.74 L 39.53 96.35 L 39.00 96.65 L 39.00 97.26 L 39.53 97.56 L 40.06 97.26 L 40.59 97.56 L 40.59 98.17 L 41.11 98.48 L 41.64 98.17 L 41.64 97.56 L 41.11 97.26 L 41.11 96.65 L 41.64 96.35 L 42.17 96.65 L 42.70 96.35 L 42.70 95.74 L 43.22 95.43 L 43.75 95.74 L 43.75 96.35 L 43.22 96.65 L 43.22 97.26 L 43.75 97.56 L 43.75 98.17 L 43.22 98.48 L 42.70 98.17 L 42.17 98.48 L 42.17 99.09 L 42.70 99.39 L 43.22 99.09 L 43.75 99.39 L 43.75 100.00 L 43.22 100.30 L 43.22 100.91 L 43.75 101.22 L 43.75 101.83 L 43.22 102.13 L 42.70 101.83 L 42.70 101.22 L 42.17 100.91 L 41.64 101.22 L 41.64 101.83 L 41.11 102.13 L 40.59 101.83 L 40.06 102.13 L 40.06 102.74 L 40.59 103.04 L 41.11 102.74 L 41.64 103.04 L 41.64 103.65 L 42.17 103.96 L 42.70 103.65 L 42.70 103.04 L 43.22 102.74 L 43.75 103.04 L 43.75 103.65 L 43.22 103.96 L 43.22 104.57 L 43.75 104.87 L 43.75 105.48 L 43.22 105.78 L 42.70 105.48 L 42.17 105.78 L 42.17 106.39 L 42.70 106.70 L 43.22 106.39 L 43.75 106.70 L 43.75 107.31 L 43.22 107.61 L 43.22 108.22 L 43.75 108.52 L 43.75 109.13 L 43.22 109.44 L 42.70 109.13 L 42.70 108.52 L 42.17 108.22 L 41.64 108.52 L 41.11 108.22 L 41.11 107.61 L 41.64 107.31 L 41.64 106.70 L 41.11 106.39 L 40.59 106.70 L 40.59 107.31 L 40.06 107.61 L 39.53 107.31 L 39.53 106.70 L 39.00 106.39 L 38.48 106.70 L 37.95 106.39 L 37.95 105.78 L 38.48 105.48 L 39.00 105.78 L 39.53 105.48 L 39.53 104.87 L 39.00 104.57 L 39.00 103.96 L 39.53 103.65 L 39.53 103.04 L 39.00 102.74 L 38.48 103.04 L 38.48 103.65 L 37.95 103.96 L 37.42 103.65 L 36.89 103.96 L 36.89 104.57 L 37.42 104.87 L 37.42 105.48 L 36.89 105.78 L 36.37 105.48 L 36.37 104.87 L 35.84 104.57 L 35.31 104.87 L 35.31 105.48 L 34.79 105.78 L 34.26 105.48 L 33.73 105.78 L 33.73 106.39 L 34.26 106.70 L 34.79 106.39 L 35.31 106.70 L 35.31 107.31 L 34.79 107.61 L 34.79 108.22 L 35.31 108.52 L 35.31 109.13 L 34.79 109.44 L 34.26 109.13 L 34.26 108.52 L 33.73 108.22 L 33.20 108.52 L 32.68 108.22 L 32.68 107.61 L 33.20 107.31 L 33.20 106.70 L 32.68 106.39 L 32.15 106.70 L 32.15 107.31 L 31.62 107.61 L 31.09 107.31 L 30.57 107.61 L 30.57 108.22 L 31.09 108.52 L 31.09 109.13 L 30.57 109.44 L 30.04 109.13 L 30.04 108.52 L 29.51 108.22 L 28.98 108.52 L 28.98 109.13 L 28.46 109.44 L 27.93 109.13 L 27.40 109.44 L 27.40 110.05 L 27.93 110.35 L 28.46 110.05 L 28.98 110.35 L 28.98 110.96 L 29.51 111.27 L 30.04 110.96 L 30.04 110.35 L 30.57 110.05 L 31.09 110.35 L 31.09 110.96 L 30.57 111.27 L 30.57 111.87 L 31.09 112.18 L 31.62 111.87 L 32.15 112.18 L 32.15 112.79 L 32.68 113.09 L 33.20 112.79 L 33.20 112.18 L 32.68 111.87 L 32.68 111.27 L 33.20 110.96 L 33.73 111.27 L 34.26 110.96 L 34.26 110.35 L 34.79 110.05 L 35.31 110.35 L 35.31 110.96 L 34.79 111.27 L 34.79 111.87 L 35.31 112.18 L 35.31 112.79 L 34.79 113.09 L 34.26 112.79 L 33.73 113.09 L 33.73 113.70 L 34.26 114.01 L 34.79 113.70 L 35.31 114.01 L 35.31 114.61 L 35.84 114.92 L 36.37 114.61 L 36.37 114.01 L 36.89 113.70 L 37.42 114.01 L 37.42 114.61 L 36.89 114.92 L 36.89 115.53 L 37.42 115.83 L 37.95 115.53 L 38.48 115.83 L 38.48 116.44 L 39.00 116.75 L 39.53 116.44 L 39.53 115.83 L 39.00 115.53 L 39.00 114.92 L 39.53 114.61 L 39.53 114.01 L 39.00 113.70 L 38.48 114.01 L 37.95 113.70 L 37.95 113.09 L 38.48 112.79 L 39.00 113.09 L 39.53 112.79 L 39.53 112.18 L 40.06 111.87 L 40.59 112.18 L 40.59 112.79 L 41.11 113.09 L 41.64 112.79 L 41.64 112.18 L 41.11 111.87 L 41.11 111.27 L 41.64 110.96 L 42.17 111.27 L 42.70 110.96 L 42.70 110.35 L 43.22 110.05 L 43.75 110.35 L 43.75 110.96 L 43.22 111.27 L 43.22 111.87 L 43.75 112.18 L 43.75 112.79 L 43.22 113.09 L 42.70 112.79 L 42.17 113.09 L 42.17 113.70 L 42.70 114.01 L 43.22 113.70 L 43.75 114.01 L 43.75 114.61 L 43.22 114.92 L 43.22 115.53 L 43.75 115.83 L 43.75 116.44 L 43.22 116.75 L 42.70 116.44 L 42.70 115.83 L 42.17 115.53 L 41.64 115.83 L 41.64 116.44 L 41.11 116.75 L 40.59 116.44 L 40.06 116.75 L 40.06 117.35 L 40.59 117.66 L 41.11 117.35 L 41.64 117.66 L 41.64 118.27 L 42.17 118.57 L 42.70 118.27 L 42.70 117.66 L 43.22 117.35 L 43.75 117.66 L 43.75 118.27 L 43.22 118.57 L 43.22 119.18 L 43.75 119.49 L 44.28 119.18 L 44.80 119.49 L 44.80 120.09 L 45.33 120.40 L 45.86 120.09 L 45.86 119.49 L 45.33 119.18 L 45.33 118.57 L 45.86 118.27 L 46.39 118.57 L 46.91 118.27 L 46.91 117.66 L 47.44 117.35 L 47.97 117.66 L 47.97 118.27 L 47.44 118.57 L 47.44 119.18 L 47.97 119.49 L 47.97 120.09 L 47.44 120.40 L 46.91 120.09 L 46.39 120.40 L 46.39 121.01 L 46.91 121.31 L 47.44 121.01 L 47.97 121.31 L 47.97 121.92 L 48.50 122.23 L 49.02 121.92 L 49.02 121.31 L 49.55 121.01 L 50.08 121.31 L 50.08 121.92 L 49.55 122.23 L 49.55 122.83 L 50.08 123.14 L 50.61 122.83 L 51.13 123.14 L 51.13 123.75 L 51.66 124.05 L 52.19 123.75 L 52.19 123.14 L 51.66 122.83 L 51.66 122.23 L 52.19 121.92 L 52.19 121.31 L 51.66 121.01 L 51.13 121.31 L 50.61 121.01 L 50.61 120.40 L 51.13 120.09 L 51.66 120.40 L 52.19 120.09 L 52.19 119.49 L 51.66 119.18 L 51.66 118.57 L 52.19 118.27 L 52.19 117.66 L 51.66 117.35 L 51.13 117.66 L 51.13 118.27 L 50.61 118.57 L 50.08 118.27 L 50.08 117.66 L 49.55 117.35 L 49.02 117.66 L 48.50 117.35 L 48.50 116.75 L 49.02 116.44 L 49.55 116.75 L 50.08 116.44 L 50.08 115.83 L 50.61 115.53 L 51.13 115.83 L 51.13 116.44 L 51.66 116.75 L 52.19 116.44 L 52.19 115.83 L 51.66 115.53 L 51.66 114.92 L 52.19 114.61 L 52.71 114.92 L 53.24 114.61 L 53.24 114.01 L 53.77 113.70 L 54.30 114.01 L 54.30 114.61 L 53.77 114.92 L 53.77 115.53 L 54.30 115.83 L 54.82 115.53 L 55.35 115.83 L 55.35 116.44 L 55.88 116.75 L 56.41 116.44 L 56.41 115.83 L 55.88 115.53 L 55.88 114.92 L 56.41 114.61 L 56.41 114.01 L 55.88 113.70 L 55.35 114.01 L 54.82 113.70 L 54.82 113.09 L 55.35 112.79 L 55.88 113.09 L 56.41 112.79 L 56.41 112.18 L 56.93 111.87 L 57.46 112.18 L 57.46 112.79 L 57.99 113.09 L 58.52 112.79 L 58.52 112.18 L 57.99 111.87 L 57.99 111.27 L 58.52 110.96 L 59.04 111.27 L 59.57 110.96 L 59.57 110.35 L 60.10 110.05 L 60.63 110.35 L 60.63 110.96 L 60.10 111.27 L 60.10 111.87 L 60.63 112.18 L 60.63 112.79 L 60.10 113.09 L 59.57 112.79 L 59.04 113.09 L 59.04 113.70 L 59.57 114.01 L 60.10 113.70 L 60.63 114.01 L 60.63 114.61 L 60.10 114.92 L 60.10 115.53 L 60.63 115.83 L 60.63 116.44 L 60.10 116.75 L 59.57 116.44 L 59.57 115.83 L 59.04 115.53 L 58.52 115.83 L 58.52 116.44 L 57.99 116.75 L 57.46 116.44 L 56.93 116.75 L 56.93 117.35 L 57.46 117.66 L 57.99 117.35 L 58.52 117.66 L 58.52 118.27 L 59.04 118.57 L 59.57 118.27 L 59.57 117.66 L 60.10 117.35 L 60.63 117.66 L 60.63 118.27 L 60.10 118.57 L 60.10 119.18 L 60.63 119.49 L 60.63 120.09 L 60.10 120.40 L 59.57 120.09 L 59.04 120.40 L 59.04 121.01 L 59.57 121.31 L 60.10 121.01 L 60.63 121.31 L 60.63 121.92 L 60.10 122.23 L 60.10 122.83 L 60.63 123.14 L 60.63 123.75 L 60.10 124.05 L 59.57 123.75 L 59.57 123.14 L 59.04 122.83 L 58.52 123.14 L 57.99 122.83 L 57.99 122.23 L 58.52 121.92 L 58.52 121.31 L 57.99 121.01 L 57.46 121.31 L 57.46 121.92 L 56.93 122.23 L 56.41 121.92 L 55.88 122.23 L 55.88 122.83 L 56.41 123.14 L 56.41 123.75 L 55.88 124.05 L 55.35 123.75 L 55.35 123.14 L 54.82 122.83 L 54.30 123.14 L 54.30 123.75 L 53.77 124.05 L 53.24 123.75 L 52.71 124.05 L 52.71 124.66 L 53.24 124.97 L 53.77 124.66 L 54.30 124.97 L 54.30 125.57 L 54.82 125.88 L 55.35 125.57 L 55.35 124.97 L 55.88 124.66 L 56.41 124.97 L 56.41 125.57 L 55.88 125.88 L 55.88 126.49 L 56.41 126.79 L 56.93 126.49 L 57.46 126.79 L 57.46 127.40 L 57.99 127.71 L 58.52 127.40 L 58.52 126.79 L 57.99 126.49 L 57.99 125.88 L 58.52 125.57 L 59.04 125.88 L 59.57 125.57 L 59.57 124.97 L 60.10 124.66 L 60.63 124.97 L 60.63 125.57 L 60.10 125.88 L 60.10 126.49 L 60.63 126.79 L 60.63 127.40 L 60.10 127.71 L 59.57 127.40 L 59.04 127.71 L 59.04 128.32 L 59.57 128.62 L 60.10 128.31 L 60.63 128.62 L 60.63 129.23 L 61.15 129.53 L 61.68 129.23 L 61.68 128.62 L 62.21 128.32 L 62.73 128.62 L 62.73 129.23 L 62.21 129.53 L 62.21 130.14 L 62.73 130.45 L 63.26 130.14 L 63.79 130.45 L 63.79 131.06 L 64.32 131.36 L 64.84 131.06 L 64.84 130.45 L 64.32 130.14 L 64.32 129.53 L 64.84 129.23 L 64.84 128.62 L 64.32 128.32 L 63.79 128.62 L 63.26 128.32 L 63.26 127.71 L 63.79 127.40 L 64.32 127.71 L 64.84 127.40 L 64.84 126.79 L 65.37 126.49 L 65.90 126.79 L 65.90 127.40 L 66.43 127.71 L 66.95 127.40 L 66.95 126.79 L 66.43 126.49 L 66.43 125.88 L 66.95 125.57 L 67.48 125.88 L 68.01 125.57 L 68.01 124.97 L 68.54 124.66 L 69.06 124.97 L 69.06 125.57 L 68.54 125.88 L 68.54 126.49 L 69.06 126.79 L 69.06 127.40 L 68.54 127.71 L 68.01 127.40 L 67.48 127.71 L 67.48 128.32 L 68.01 128.62 L 68.54 128.32 L 69.06 128.62 L 69.06 129.23 L 68.54 129.53 L 68.54 130.14 L 69.06 130.45 L 69.06 131.06 L 68.54 131.36 L 68.01 131.06 L 68.01 130.45 L 67.48 130.14 L 66.95 130.45 L 66.95 131.06 L 66.43 131.36 L 65.90 131.06 L 65.37 131.36 L 65.37 131.97 L 65.90 132.27 L 66.43 131.97 L 66.95 132.27 L 66.95 132.88 L 67.48 133.19 L 68.01 132.88 L 68.01 132.27 L 68.54 131.97 L 69.06 132.27 L 69.06 132.88 L 68.54 133.19 L 68.54 133.80 L 69.06 134.10 L 69.59 133.80 L 70.12 134.10 L 70.12 134.71 L 70.64 135.01 L 71.17 134.71 L 71.17 134.10 L 70.64 133.80 L 70.64 133.19 L 71.17 132.88 L 71.70 133.19 L 72.23 132.88 L 72.23 132.27 L 72.75 131.97 L 73.28 132.27 L 73.28 132.88 L 72.75 133.19 L 72.75 133.80 L 73.28 134.10 L 73.28 134.71 L 72.75 135.01 L 72.23 134.71 L 71.70 135.01 L 71.70 135.62 L 72.23 135.93 L 72.75 135.62 L 73.28 135.93 L 73.28 136.54 L 73.81 136.84 L 74.34 136.54 L 74.34 135.93 L 74.86 135.62 L 75.39 135.93 L 75.39 136.54 L 74.86 136.84 L 74.86 137.45 L 75.39 137.75 L 75.92 137.45 L 76.45 137.75 L 76.45 138.36 L 76.97 138.67 L 77.50 138.36 L 77.50 137.75 L 76.97 137.45 L 76.97 136.84 L 77.50 136.54 L 77.50 135.93 L 76.97 135.62 L 76.45 135.93 L 75.92 135.62 L 75.92 135.01 L 76.45 134.71 L 76.97 135.01 L 77.50 134.71 L 77.50 134.10 L 76.97 133.80 L 76.97 133.19 L 77.50 132.88 L 77.50 132.27 L 76.97 131.97 L 76.45 132.27 L 76.45 132.88 L 75.92 133.19 L 75.39 132.88 L 75.39 132.27 L 74.86 131.97 L 74.34 132.27 L 73.81 131.97 L 73.81 131.36 L 74.34 131.06 L 74.86 131.36 L 75.39 131.06 L 75.39 130.45 L 75.92 130.14 L 76.45 130.45 L 76.45 131.06 L 76.97 131.36 L 77.50 131.06 L 77.50 130.45 L 76.97 130.14 L 76.97 129.53 L 77.50 129.23 L 77.50 128.62 L 76.97 128.32 L 76.45 128.62 L 75.92 128.32 L 75.92 127.71 L 76.45 127.40 L 76.97 127.71 L 77.50 127.40 L 77.50 126.79 L 76.97 126.49 L 76.97 125.88 L 77.50 125.57 L 77.50 124.97 L 76.97 124.66 L 76.45 124.97 L 76.45 125.57 L 75.92 125.88 L 75.39 125.57 L 74.86 125.88 L 74.86 126.49 L 75.39 126.79 L 75.39 127.40 L 74.86 127.71 L 74.34 127.40 L 74.34 126.79 L 73.81 126.49 L 73.28 126.79 L 72.75 126.49 L 72.75 125.88 L 73.28 125.57 L 73.28 124.97 L 72.75 124.66 L 72.23 124.97 L 72.23 125.57 L 71.70 125.88 L 71.17 125.57 L 71.17 124.97 L 70.64 124.66 L 70.12 124.97 L 69.59 124.66 L 69.59 124.05 L 70.12 123.75 L 70.64 124.05 L 71.17 123.75 L 71.17 123.14 L 71.70 122.83 L 72.23 123.14 L 72.23 123.75 L 72.75 124.05 L 73.28 123.75 L 73.28 123.14 L 72.75 122.83 L 72.75 122.23 L 73.28 121.92 L 73.81 122.23 L 74.34 121.92 L 74.34 121.31 L 74.86 121.01 L 75.39 121.31 L 75.39 121.92 L 74.86 122.23 L 74.86 122.83 L 75.39 123.14 L 75.92 122.83 L 76.45 123.14 L 76.45 123.75 L 76.97 124.05 L 77.50 123.75 L 77.50 123.14 L 76.97 122.83 L 76.97 122.23 L 77.50 121.92 L 77.50 121.31 L 76.97 121.01 L 76.45 121.31 L 75.92 121.01 L 75.92 120.40 L 76.45 120.09 L 76.97 120.40 L 77.50 120.09 L 77.50 119.49 L 76.97 119.18 L 76.97 118.57 L 77.50 118.27 L 77.50 117.66 L 76.97 117.35 L 76.45 117.66 L 76.45 118.27 L 75.92 118.57 L 75.39 118.27 L 75.39 117.66 L 74.86 117.35 L 74.34 117.66 L 73.81 117.35 L 73.81 116.75 L 74.34 116.44 L 74.86 116.75 L 75.39 116.44 L 75.39 115.83 L 75.92 115.53 L 76.45 115.83 L 76.45 116.44 L 76.97 116.75 L 77.50 116.44 L 77.50 115.83 L 76.97 115.53 L 76.97 114.92 L 77.50 114.61 L 77.50 114.01 L 76.97 113.70 L 76.45 114.01 L 75.92 113.70 L 75.92 113.09 L 76.45 112.79 L 76.97 113.09 L 77.50 112.79 L 77.50 112.18 L 76.97 111.87 L 76.97 111.27 L 77.50 110.96 L 77.50 110.35 L 76.97 110.05 L 76.45 110.35 L 76.45 110.96 L 75.92 111.27 L 75.39 110.96 L 74.86 111.27 L 74.86 111.87 L 75.39 112.18 L 75.39 112.79 L 74.86 113.09 L 74.34 112.79 L 74.34 112.18 L 73.81 111.87 L 73.28 112.18 L 73.28 112.79 L 72.75 113.09 L 72.23 112.79 L 71.70 113.09 L 71.70 113.70 L 72.23 114.01 L 72.75 113.70 L 73.28 114.01 L 73.28 114.61 L 72.75 114.92 L 72.75 115.53 L 73.28 115.83 L 73.28 116.44 L 72.75 116.75 L 72.23 116.44 L 72.23 115.83 L 71.70 115.53 L 71.17 115.83 L 70.64 115.53 L 70.64 114.92 L 71.17 114.61 L 71.17 114.01 L 70.64 113.70 L 70.12 114.01 L 70.12 114.61 L 69.59 114.92 L 69.06 114.61 L 69.06 114.01 L 68.54 113.70 L 68.01 114.01 L 67.48 113.70 L 67.48 113.09 L 68.01 112.79 L 68.54 113.09 L 69.06 112.79 L 69.06 112.18 L 68.54 111.87 L 68.54 111.27 L 69.06 110.96 L 69.06 110.35 L 68.54 110.05 L 68.01 110.35 L 68.01 110.96 L 67.48 111.27 L 66.95 110.96 L 66.43 111.27 L 66.43 111.87 L 66.95 112.18 L 66.95 112.79 L 66.43 113.09 L 65.90 112.79 L 65.90 112.18 L 65.37 111.87 L 64.84 112.18 L 64.32 111.87 L 64.32 111.27 L 64.84 110.96 L 64.84 110.35 L 64.32 110.05 L 63.79 110.35 L 63.79 110.96 L 63.26 111.27 L 62.73 110.96 L 62.73 110.35 L 62.21 110.05 L 61.68 110.35 L 61.15 110.05 L 61.15 109.44 L 61.68 109.13 L 62.21 109.44 L 62.73 109.13 L 62.73 108.52 L 63.26 108.22 L 63.79 108.53 L 63.79 109.13 L 64.32 109.44 L 64.84 109.13 L 64.84 108.52 L 64.32 108.22 L 64.32 107.61 L 64.84 107.31 L 65.37 107.61 L 65.90 107.31 L 65.90 106.70 L 66.43 106.39 L 66.95 106.70 L 66.95 107.31 L 66.43 107.61 L 66.43 108.22 L 66.95 108.52 L 67.48 108.22 L 68.01 108.52 L 68.01 109.13 L 68.54 109.44 L 69.06 109.13 L 69.06 108.52 L 68.54 108.22 L 68.54 107.61 L 69.06 107.31 L 69.06 106.70 L 68.54 106.39 L 68.01 106.70 L 67.48 106.39 L 67.48 105.78 L 68.01 105.48 L 68.54 105.78 L 69.06 105.48 L 69.06 104.87 L 69.59 104.57 L 70.12 104.87 L 70.12 105.48 L 70.64 105.78 L 71.17 105.48 L 71.17 104.87 L 70.64 104.57 L 70.64 103.96 L 71.17 103.65 L 71.70 103.96 L 72.23 103.65 L 72.23 103.04 L 72.75 102.74 L 73.28 103.04 L 73.28 103.65 L 72.75 103.96 L 72.75 104.57 L 73.28 104.87 L 73.28 105.48 L 72.75 105.78 L 72.23 105.48 L 71.70 105.78 L 71.70 106.39 L 72.23 106.70 L 72.75 106.39 L 73.28 106.70 L 73.28 107.31 L 73.81 107.61 L 74.34 107.31 L 74.34 106.70 L 74.86 106.39 L 75.39 106.70 L 75.39 107.31 L 74.86 107.61 L 74.86 108.22 L 75.39 108.52 L 75.92 108.22 L 76.45 108.52 L 76.45 109.13 L 76.97 109.44 L 77.50 109.13 L 77.50 108.52 L 76.97 108.22 L 76.97 107.61 L 77.50 107.31 L 77.50 106.70 L 76.97 106.39 L 76.45 106.70 L 75.92 106.39 L 75.92 105.78 L 76.45 105.48 L 76.97 105.78 L 77.50 105.48 L 77.50 104.87 L 76.97 104.57 L 76.97 103.96 L 77.50 103.65 L 77.50 103.04 L 76.97 102.74 L 76.45 103.04 L 76.45 103.65 L 75.92 103.96 L 75.39 103.65 L 75.39 103.04 L 74.86 102.74 L 74.34 103.04 L 73.81 102.74 L 73.81 102.13 L 74.34 101.83 L 74.86 102.13 L 75.39 101.83 L 75.39 101.22 L 75.92 100.91 L 76.45 101.22 L 76.45 101.83 L 76.97 102.13 L 77.50 101.83 L 77.50 101.22 L 76.97 100.91 L 76.97 100.30 L 77.50 100.00 L 77.50 99.39 L 76.97 99.09 L 76.45 99.39 L 75.92 99.09 L 75.92 98.48 L 76.45 98.17 L 76.97 98.48 L 77.50 98.17 L 77.50 97.56 L 76.97 97.26 L 76.97 96.65 L 77.50 96.35 L 77.50 95.74 L 76.97 95.43 L 76.45 95.74 L 76.45 96.35 L 75.92 96.65 L 75.39 96.35 L 74.86 96.65 L 74.86 97.26 L 75.39 97.56 L 75.39 98.17 L 74.86 98.48 L 74.34 98.17 L 74.34 97.56 L 73.81 97.26 L 73.28 97.56 L 72.75 97.26 L 72.75 96.65 L 73.28 96.35 L 73.28 95.74 L 72.75 95.43 L 72.23 95.74 L 72.23 96.35 L 71.70 96.65 L 71.17 96.35 L 71.17 95.74 L 70.64 95.43 L 70.12 95.74 L 69.59 95.43 L 69.59 94.82 L 70.12 94.52 L 70.64 94.82 L 71.17 94.52 L 71.17 93.91 L 71.70 93.61 L 72.23 93.91 L 72.23 94.52 L 72.75 94.82 L 73.28 94.52 L 73.28 93.91 L 72.75 93.61 L 72.75 93.00 L 73.28 92.69 L 73.81 93.00 L 74.34 92.69 L 74.34 92.08 L 74.86 91.78 L 75.39 92.08 L 75.39 92.69 L 74.86 93.00 L 74.86 93.61 L 75.39 93.91 L 75.92 93.61 L 76.45 93.91 L 76.45 94.52 L 76.97 94.82 L 77.50 94.52 L 77.50 93.91 L 76.97 93.61 L 76.97 93.00 L 77.50 92.69 L 77.50 92.08 L 76.97 91.78 L 76.45 92.08 L 75.92 91.78 L 75.92 91.17 L 76.45 90.87 L 76.97 91.17 L 77.50 90.87 L 77.50 90.26 L 76.97 89.95 L 76.97 89.34 L 77.50 89.04 L 77.50 88.43 L 76.97 88.13 L 76.45 88.43 L 76.45 89.04 L 75.92 89.34 L 75.39 89.04 L 75.39 88.43 L 74.86 88.13 L 74.34 88.43 L 73.81 88.13 L 73.81 87.52 L 74.34 87.21 L 74.86 87.52 L 75.39 87.21 L 75.39 86.60 L 75.92 86.30 L 76.45 86.60 L 76.45 87.21 L 76.97 87.52 L 77.50 87.21 L 77.50 86.60 L 76.97 86.30 L 76.97 85.69 L 77.50 85.39 L 77.50 84.78 L 76.97 84.47 L 76.45 84.78 L 75.92 84.47 L 75.92 83.86 L 76.45 83.56 L 76.97 83.86 L 77.50 83.56 L 77.50 82.95 L 76.97 82.65 L 76.97 82.04 L 77.50 81.73 L 77.50 81.12 L 76.97 80.82 L 76.45 81.12 L 76.45 81.73 L 75.92 82.04 L 75.39 81.73 L 74.86 82.04 L 74.86 82.65 L 75.39 82.95 L 75.39 83.56 L 74.86 83.86 L 74.34 83.56 L 74.34 82.95 L 73.81 82.65 L 73.28 82.95 L 73.28 83.56 L 72.75 83.86 L 72.23 83.56 L 71.70 83.86 L 71.70 84.47 L 72.23 84.78 L 72.75 84.47 L 73.28 84.78 L 73.28 85.39 L 72.75 85.69 L 72.75 86.30 L 73.28 86.60 L 73.28 87.21 L 72.75 87.52 L 72.23 87.21 L 72.23 86.60 L 71.70 86.30 L 71.17 86.60 L 70.64 86.30 L 70.64 85.69 L 71.17 85.39 L 71.17 84.78 L 70.64 84.47 L 70.12 84.78 L 70.12 85.39 L 69.59 85.69 L 69.06 85.39 L 68.54 85.69 L 68.54 86.30 L 69.06 86.60 L 69.06 87.21 L 68.54 87.52 L 68.01 87.21 L 68.01 86.60 L 67.48 86.30 L 66.95 86.60 L 66.95 87.21 L 66.43 87.52 L 65.90 87.21 L 65.37 87.52 L 65.37 88.13 L 65.90 88.43 L 66.43 88.13 L 66.95 88.43 L 66.95 89.04 L 67.48 89.34 L 68.01 89.04 L 68.01 88.43 L 68.54 88.13 L 69.06 88.43 L 69.06 89.04 L 68.54 89.34 L 68.54 89.95 L 69.06 90.26 L 69.06 90.87 L 68.54 91.17 L 68.01 90.87 L 67.48 91.17 L 67.48 91.78 L 68.01 92.08 L 68.54 91.78 L 69.06 92.08 L 69.06 92.69 L 68.54 93.00 L 68.54 93.61 L 69.06 93.91 L 69.06 94.52 L 68.54 94.82 L 68.01 94.52 L 68.01 93.91 L 67.48 93.61 L 66.95 93.91 L 66.43 93.61 L 66.43 93.00 L 66.95 92.69 L 66.95 92.08 L 66.43 91.78 L 65.90 92.08 L 65.90 92.69 L 65.37 93.00 L 64.84 92.69 L 64.84 92.08 L 64.32 91.78 L 63.79 92.08 L 63.26 91.78 L 63.26 91.17 L 63.79 90.87 L 64.32 91.17 L 64.84 90.87 L 64.84 90.26 L 64.32 89.95 L 64.32 89.34 L 64.84 89.04 L 64.84 88.43 L 64.32 88.13 L 63.79 88.43 L 63.79 89.04 L 63.26 89.34 L 62.73 89.04 L 62.21 89.34 L 62.21 89.95 L 62.73 90.26 L 62.73 90.87 L 62.21 91.17 L 61.68 90.87 L 61.68 90.26 L 61.15 89.95 L 60.63 90.26 L 60.10 89.95 L 60.10 89.34 L 60.63 89.04 L 60.63 88.43 L 60.10 88.13 L 59.57 88.43 L 59.57 89.04 L 59.04 89.34 L 58.52 89.04 L 58.52 88.43 L 57.99 88.13 L 57.46 88.43 L 56.93 88.13 L 56.93 87.52 L 57.46 87.21 L 57.99 87.52 L 58.52 87.21 L 58.52 86.60 L 59.04 86.30 L 59.57 86.60 L 59.57 87.21 L 60.10 87.52 L 60.63 87.21 L 60.63 86.60 L 60.10 86.30 L 60.10 85.69 L 60.63 85.39 L 60.63 84.78 L 60.10 84.47 L 59.57 84.78 L 59.04 84.47 L 59.04 83.86 L 59.57 83.56 L 60.10 83.86 L 60.63 83.56 L 60.63 82.95 L 60.10 82.65 L 60.10 82.04 L 60.63 81.73 L 60.63 81.12 L 60.10 80.82 L 59.57 81.12 L 59.57 81.73 L 59.04 82.04 L 58.52 81.73 L 57.99 82.04 L 57.99 82.65 L 58.52 82.95 L 58.52 83.56 L 57.99 83.86 L 57.46 83.56 L 57.46 82.95 L 56.93 82.65 L 56.41 82.95 L 56.41 83.56 L 55.88 83.86 L 55.35 83.56 L 54.82 83.86 L 54.82 84.47 L 55.35 84.78 L 55.88 84.47 L 56.41 84.78 L 56.41 85.39 L 55.88 85.69 L 55.88 86.30 L 56.41 86.60 L 56.41 87.21 L 55.88 87.52 L 55.35 87.21 L 55.35 86.60 L 54.82 86.30 L 54.30 86.60 L 53.77 86.30 L 53.77 85.69 L 54.30 85.39 L 54.30 84.78 L 53.77 84.47 L 53.24 84.78 L 53.24 85.39 L 52.71 85.69 L 52.19 85.39 L 52.19 84.78 L 51.66 84.47 L 51.13 84.78 L 50.61 84.47 L 50.61 83.86 L 51.13 83.56 L 51.66 83.86 L 52.19 83.56 L 52.19 82.95 L 51.66 82.65 L 51.66 82.04 L 52.19 81.73 L 52.19 81.12 L 51.66 80.82 L 51.13 81.12 L 51.13 81.73 L 50.61 82.04 L 50.08 81.73 L 49.55 82.04 L 49.55 82.65 L 50.08 82.95 L 50.08 83.56 L 49.55 83.86 L 49.02 83.56 L 49.02 82.95 L 48.50 82.65 L 47.97 82.95 L 47.44 82.65 L 47.44 82.04 L 47.97 81.73 L 47.97 81.12 L 47.44 80.82 L 46.91 81.12 L 46.91 81.73 L 46.39 82.04 L 45.86 81.73 L 45.86 81.12 L 45.33 80.82 L 44.80 81.12 L 44.28 80.82 L 44.28 80.21 L 44.80 79.91 L 45.33 80.21 L 45.86 79.91 L 45.86 79.30 L 46.39 78.99 L 46.91 79.30 L 46.91 79.91 L 47.44 80.21 L 47.97 79.91 L 47.97 79.30 L 47.44 78.99 L 47.44 78.38 L 47.97 78.08 L 48.50 78.38 L 49.02 78.08 L 49.02 77.47 L 49.55 77.17 L 50.08 77.47 L 50.08 78.08 L 49.55 78.38 L 49.55 78.99 L 50.08 79.30 L 50.61 78.99 L 51.13 79.30 L 51.13 79.91 L 51.66 80.21 L 52.19 79.91 L 52.19 79.30 L 51.66 78.99 L 51.66 78.38 L 52.19 78.08 L 52.19 77.47 L 51.66 77.17 L 51.13 77.47 L 50.61 77.17 L 50.61 76.56 L 51.13 76.25 L 51.66 76.56 L 52.19 76.25 L 52.19 75.64 L 52.71 75.34 L 53.24 75.64 L 53.24 76.25 L 53.77 76.56 L 54.30 76.25 L 54.30 75.64 L 53.77 75.34 L 53.77 74.73 L 54.30 74.43 L 54.82 74.73 L 55.35 74.43 L 55.35 73.82 L 55.88 73.51 L 56.41 73.82 L 56.41 74.43 L 55.88 74.73 L 55.88 75.34 L 56.41 75.64 L 56.41 76.25 L 55.88 76.56 L 55.35 76.25 L 54.82 76.56 L 54.82 77.17 L 55.35 77.47 L 55.88 77.17 L 56.41 77.47 L 56.41 78.08 L 56.93 78.38 L 57.46 78.08 L 57.46 77.47 L 57.99 77.17 L 58.52 77.47 L 58.52 78.08 L 57.99 78.38 L 57.99 78.99 L 58.52 79.30 L 59.04 78.99 L 59.57 79.30 L 59.57 79.91 L 60.10 80.21 L 60.63 79.91 L 60.63 79.30 L 60.10 78.99 L 60.10 78.38 L 60.63 78.08 L 60.63 77.47 L 60.10 77.17 L 59.57 77.47 L 59.04 77.17 L 59.04 76.56 L 59.57 76.25 L 60.10 76.56 L 60.63 76.25 L 60.63 75.64 L 60.10 75.34 L 60.10 74.73 L 60.63 74.43 L 60.63 73.82 L 60.10 73.51 L 59.57 73.82 L 59.57 74.43 L 59.04 74.73 L 58.52 74.43 L 58.52 73.82 L 57.99 73.51 L 57.46 73.82 L 56.93 73.51 L 56.93 72.90 L 57.46 72.60 L 57.99 72.90 L 58.52 72.60 L 58.52 71.99 L 59.04 71.69 L 59.57 71.99 L 59.57 72.60 L 60.10 72.90 L 60.63 72.60 L 60.63 71.99 L 60.10 71.69 L 60.10 71.08 L 60.63 70.77 L 61.15 71.08 L 61.68 70.77 L 61.68 70.16 L 62.21 69.86 L 62.73 70.16 L 62.73 70.77 L 62.21 71.08 L 62.21 71.69 L 62.73 71.99 L 63.26 71.69 L 63.79 71.99 L 63.79 72.60 L 64.32 72.90 L 64.84 72.60 L 64.84 71.99 L 64.32 71.69 L 64.32 71.08 L 64.84 70.77 L 64.84 70.16 L 64.32 69.86 L 63.79 70.16 L 63.26 69.86 L 63.26 69.25 L 63.79 68.94 L 64.32 69.25 L 64.84 68.94 L 64.84 68.34 L 65.37 68.03 L 65.90 68.34 L 65.90 68.94 L 66.43 69.25 L 66.95 68.94 L 66.95 68.34 L 66.43 68.03 L 66.43 67.42 L 66.95 67.12 L 67.48 67.42 L 68.01 67.12 L 68.01 66.51 L 68.54 66.20 L 69.06 66.51 L 69.06 67.12 L 68.54 67.42 L 68.54 68.03 L 69.06 68.34 L 69.06 68.94 L 68.54 69.25 L 68.01 68.94 L 67.48 69.25 L 67.48 69.86 L 68.01 70.16 L 68.54 69.86 L 69.06 70.16 L 69.06 70.77 L 68.54 71.08 L 68.54 71.69 L 69.06 71.99 L 69.06 72.60 L 68.54 72.90 L 68.01 72.60 L 68.01 71.99 L 67.48 71.69 L 66.95 71.99 L 66.95 72.60 L 66.43 72.90 L 65.90 72.60 L 65.37 72.90 L 65.37 73.51 L 65.90 73.82 L 66.43 73.51 L 66.95 73.82 L 66.95 74.43 L 67.48 74.73 L 68.01 74.43 L 68.01 73.82 L 68.54 73.51 L 69.06 73.82 L 69.06 74.43 L 68.54 74.73 L 68.54 75.34 L 69.06 75.64 L 69.59 75.34 L 70.12 75.64 L 70.12 76.25 L 70.64 76.56 L 71.17 76.25 L 71.17 75.64 L 70.64 75.34 L 70.64 74.73 L 71.17 74.43 L 71.70 74.73 L 72.23 74.43 L 72.23 73.82 L 72.75 73.51 L 73.28 73.82 L 73.28 74.43 L 72.75 74.73 L 72.75 75.34 L 73.28 75.64 L 73.28 76.25 L 72.75 76.56 L 72.23 76.25 L 71.70 76.56 L 71.70 77.17 L 72.23 77.47 L 72.75 77.17 L 73.28 77.47 L 73.28 78.08 L 73.81 78.38 L 74.34 78.08 L 74.34 77.47 L 74.86 77.17 L 75.39 77.47 L 75.39 78.08 L 74.86 78.38 L 74.86 78.99 L 75.39 79.30 L 75.92 78.99 L 76.45 79.30 L 76.45 79.91 L 76.97 80.21 L 77.50 79.91 L 77.50 79.30 L 76.97 78.99 L 76.97 78.38 L 77.50 78.08 L 77.50 77.47 L 76.97 77.17 L 76.45 77.47 L 75.92 77.17 L 75.92 76.56 L 76.45 76.25 L 76.97 76.56 L 77.50 76.25 L 77.50 75.64 L 76.97 75.34 L 76.97 74.73 L 77.50 74.43 L 77.50 73.82 L 76.97 73.51 L 76.45 73.82 L 76.45 74.43 L 75.92 74.73 L 75.39 74.43 L 75.39 73.82 L 74.86 73.51 L 74.34 73.82 L 73.81 73.51 L 73.81 72.90 L 74.34 72.60 L 74.86 72.90 L 75.39 72.60 L 75.39 71.99 L 75.92 71.69 L 76.45 71.99 L 76.45 72.60 L 76.97 72.90 L 77.50 72.60 L 77.50 71.99 L 76.97 71.69 L 76.97 71.08 L 77.50 70.77 L 77.50 70.16 L 76.97 69.86 L 76.45 70.16 L 75.92 69.86 L 75.92 69.25 L 76.45 68.94 L 76.97 69.25 L 77.50 68.94 L 77.50 68.34 L 76.97 68.03 L 76.97 67.42 L 77.50 67.12 L 77.50 66.51 L 76.97 66.20 L 76.45 66.51 L 76.45 67.12 L 75.92 67.42 L 75.39 67.12 L 74.86 67.42 L 74.86 68.03 L 75.39 68.34 L 75.39 68.94 L 74.86 69.25 L 74.34 68.94 L 74.34 68.34 L 73.81 68.03 L 73.28 68.34 L 72.75 68.03 L 72.75 67.42 L 73.28 67.12 L 73.28 66.51 L 72.75 66.20 L 72.23 66.51 L 72.23 67.12 L 71.70 67.42 L 71.17 67.12 L 71.17 66.51 L 70.64 66.20 L 70.12 66.51 L 69.59 66.20 L 69.59 65.60 L 70.12 65.29 L 70.64 65.60 L 71.17 65.29 L 71.17 64.68 L 71.70 64.38 L 72.23 64.68 L 72.23 65.29 L 72.75 65.60 L 73.28 65.29 L 73.28 64.68 L 72.75 64.38 L 72.75 63.77 L 73.28 63.46 L 73.81 63.77 L 74.34 63.46 L 74.34 62.86 L 74.86 62.55 L 75.39 62.86 L 75.39 63.46 L 74.86 63.77 L 74.86 64.38 L 75.39 64.68 L 75.92 64.38 L 76.45 64.68 L 76.45 65.29 L 76.97 65.60 L 77.50 65.29 L 77.50 64.68 L 76.97 64.38 L 76.97 63.77 L 77.50 63.46 L 77.50 62.86 L 76.97 62.55 L 76.45 62.86 L 75.92 62.55 L 75.92 61.94 L 76.45 61.64 L 76.97 61.94 L 77.50 61.64 L 77.50 61.03 L 78.03 60.72 L 78.55 61.03 L 78.55 61.64 L 79.08 61.94 L 79.61 61.64 L 79.61 61.03 L 79.08 60.72 L 79.08 60.12 L 79.61 59.81 L 80.14 60.12 L 80.66 59.81 L 80.66 59.20 L 81.19 58.90 L 81.72 59.20 L 81.72 59.81 L 81.19 60.12 L 81.19 60.72 L 81.72 61.03 L 81.72 61.64 L 81.19 61.94 L 80.66 61.64 L 80.14 61.94 L 80.14 62.55 L 80.66 62.86 L 81.19 62.55 L 81.72 62.86 L 81.72 63.46 L 82.25 63.77 L 82.77 63.46 L 82.77 62.86 L 83.30 62.55 L 83.83 62.86 L 83.83 63.46 L 83.30 63.77 L 83.30 64.38 L 83.83 64.68 L 84.36 64.38 L 84.88 64.68 L 84.88 65.29 L 85.41 65.60 L 85.94 65.29 L 85.94 64.68 L 85.41 64.38 L 85.41 63.77 L 85.94 63.46 L 85.94 62.86 L 85.41 62.55 L 84.88 62.86 L 84.36 62.55 L 84.36 61.94 L 84.88 61.64 L 85.41 61.94 L 85.94 61.64 L 85.94 61.03 L 85.41 60.72 L 85.41 60.12 L 85.94 59.81 L 85.94 59.20 L 85.41 58.90 L 84.88 59.20 L 84.88 59.81 L 84.36 60.12 L 83.83 59.81 L 83.83 59.20 L 83.30 58.90 L 82.77 59.20 L 82.25 58.90 L 82.25 58.29 L 82.77 57.98 L 83.30 58.29 L 83.83 57.98 L 83.83 57.38 L 84.36 57.07 L 84.88 57.38 L 84.88 57.98 L 85.41 58.29 L 85.94 57.98 L 85.94 57.38 L 85.41 57.07 L 85.41 56.46 L 85.94 56.16 L 86.46 56.46 L 86.99 56.16 L 86.99 55.55 L 87.52 55.24 L 88.05 55.55 L 88.05 56.16 L 87.52 56.46 L 87.52 57.07 L 88.05 57.38 L 88.57 57.07 L 89.10 57.38 L 89.10 57.98 L 89.63 58.29 L 90.16 57.98 L 90.16 57.38 L 89.63 57.07 L 89.63 56.46 L 90.16 56.16 L 90.16 55.55 L 89.63 55.24 L 89.10 55.55 L 88.57 55.24 L 88.57 54.64 L 89.10 54.33 L 89.63 54.64 L 90.16 54.33 L 90.16 53.72 L 90.68 53.42 L 91.21 53.72 L 91.21 54.33 L 91.74 54.64 L 92.27 54.33 L 92.27 53.72 L 91.74 53.42 L 91.74 52.81 L 92.27 52.50 L 92.79 52.81 L 93.32 52.50 L 93.32 51.90 L 93.85 51.59 L 94.38 51.90 L 94.38 52.50 L 93.85 52.81 L 93.85 53.42 L 94.38 53.72 L 94.38 54.33 L 93.85 54.64 L 93.32 54.33 L 92.79 54.64 L 92.79 55.24 L 93.32 55.55 L 93.85 55.24 L 94.38 55.55 L 94.38 56.16 L 93.85 56.46 L 93.85 57.07 L 94.38 57.38 L 94.38 57.98 L 93.85 58.29 L 93.32 57.98 L 93.32 57.38 L 92.79 57.07 L 92.27 57.38 L 92.27 57.98 L 91.74 58.29 L 91.21 57.98 L 90.68 58.29 L 90.68 58.90 L 91.21 59.20 L 91.74 58.90 L 92.27 59.20 L 92.27 59.81 L 92.79 60.12 L 93.32 59.81 L 93.32 59.20 L 93.85 58.90 L 94.38 59.20 L 94.38 59.81 L 93.85 60.12 L 93.85 60.72 L 94.38 61.03 L 94.38 61.64 L 93.85 61.94 L 93.32 61.64 L 92.79 61.94 L 92.79 62.55 L 93.32 62.86 L 93.85 62.55 L 94.38 62.86 L 94.38 63.46 L 93.85 63.77 L 93.85 64.38 L 94.38 64.68 L 94.38 65.29 L 93.85 65.60 L 93.32 65.29 L 93.32 64.68 L 92.79 64.38 L 92.27 64.68 L 91.74 64.38 L 91.74 63.77 L 92.27 63.46 L 92.27 62.86 L 91.74 62.55 L 91.21 62.86 L 91.21 63.46 L 90.68 63.77 L 90.16 63.46 L 89.63 63.77 L 89.63 64.38 L 90.16 64.68 L 90.16 65.29 L 89.63 65.60 L 89.10 65.29 L 89.10 64.68 L 88.57 64.38 L 88.05 64.68 L 88.05 65.29 L 87.52 65.60 L 86.99 65.29 L 86.46 65.60 L 86.46 66.20 L 86.99 66.51 L 87.52 66.20 L 88.05 66.51 L 88.05 67.12 L 88.57 67.42 L 89.10 67.12 L 89.10 66.51 L 89.63 66.20 L 90.16 66.51 L 90.16 67.12 L 89.63 67.42 L 89.63 68.03 L 90.16 68.34 L 90.68 68.03 L 91.21 68.34 L 91.21 68.94 L 91.74 69.25 L 92.27 68.94 L 92.27 68.34 L 91.74 68.03 L 91.74 67.42 L 92.27 67.12 L 92.79 67.42 L 93.32 67.12 L 93.32 66.51 L 93.85 66.20 L 94.38 66.51 L 94.38 67.12 L 93.85 67.42 L 93.85 68.03 L 94.38 68.34 L 94.38 68.94 L 93.85 69.25 L 93.32 68.94 L 92.79 69.25 L 92.79 69.86 L 93.32 70.16 L 93.85 69.86 L 94.38 70.16 L 94.38 70.77 L 94.90 71.08 L 95.43 70.77 L 95.43 70.16 L 95.96 69.86 L 96.48 70.16 L 96.48 70.77 L 95.96 71.08 L 95.96 71.69 L 96.48 71.99 L 97.01 71.69 L 97.54 71.99 L 97.54 72.60 L 98.07 72.90 L 98.59 72.60 L 98.59 71.99 L 98.07 71.69 L 98.07 71.08 L 98.59 70.77 L 98.59 70.16 L 98.07 69.86 L 97.54 70.16 L 97.01 69.86 L 97.01 69.25 L 97.54 68.94 L 98.07 69.25 L 98.59 68.94 L 98.59 68.34 L 99.12 68.03 L 99.65 68.34 L 99.65 68.94 L 100.18 69.25 L 100.70 68.94 L 100.70 68.34 L 100.18 68.03 L 100.18 67.42 L 100.70 67.12 L 101.23 67.42 L 101.76 67.12 L 101.76 66.51 L 102.29 66.20 L 102.81 66.51 L 102.81 67.12 L 102.29 67.42 L 102.29 68.03 L 102.81 68.34 L 102.81 68.94 L 102.29 69.25 L 101.76 68.94 L 101.23 69.25 L 101.23 69.86 L 101.76 70.16 L 102.29 69.86 L 102.81 70.16 L 102.81 70.77 L 102.29 71.08 L 102.29 71.69 L 102.81 71.99 L 102.81 72.60 L 102.29 72.90 L 101.76 72.60 L 101.76 71.99 L 101.23 71.69 L 100.70 71.99 L 100.70 72.60 L 100.18 72.90 L 99.65 72.60 L 99.12 72.90 L 99.12 73.51 L 99.65 73.82 L 100.18 73.51 L 100.70 73.82 L 100.70 74.43 L 101.23 74.73 L 101.76 74.43 L 101.76 73.82 L 102.29 73.51 L 102.81 73.82 L 102.81 74.43 L 102.29 74.73 L 102.29 75.34 L 102.81 75.64 L 103.34 75.34 L 103.87 75.64 L 103.87 76.25 L 104.39 76.56 L 104.92 76.25 L 104.92 75.64 L 104.39 75.34 L 104.39 74.73 L 104.92 74.43 L 105.45 74.73 L 105.98 74.43 L 105.98 73.82 L 106.50 73.51 L 107.03 73.82 L 107.03 74.43 L 106.50 74.73 L 106.50 75.34 L 107.03 75.64 L 107.03 76.25 L 106.50 76.56 L 105.98 76.25 L 105.45 76.56 L 105.45 77.17 L 105.98 77.47 L 106.50 77.17 L 107.03 77.47 L 107.03 78.08 L 107.56 78.38 L 108.09 78.08 L 108.09 77.47 L 108.61 77.17 L 109.14 77.47 L 109.14 78.08 L 108.61 78.38 L 108.61 78.99 L 109.14 79.30 L 109.67 78.99 L 110.20 79.30 L 110.20 79.91 L 110.72 80.21 L 111.25 79.91 L 111.25 79.30 L 110.72 78.99 L 110.72 78.38 L 111.25 78.08 L 111.25 77.47 L 110.72 77.17 L 110.20 77.47 L 109.67 77.17 L 109.67 76.56 L 110.20 76.25 L 110.72 76.56 L 111.25 76.25 L 111.25 75.64 L 110.72 75.34 L 110.72 74.73 L 111.25 74.43 L 111.25 73.82 L 110.72 73.51 L 110.20 73.82 L 110.20 74.43 L 109.67 74.73 L 109.14 74.43 L 109.14 73.82 L 108.61 73.51 L 108.09 73.82 L 107.56 73.51 L 107.56 72.90 L 108.09 72.60 L 108.61 72.90 L 109.14 72.60 L 109.14 71.99 L 109.67 71.69 L 110.20 71.99 L 110.20 72.60 L 110.72 72.90 L 111.25 72.60 L 111.25 71.99 L 110.72 71.69 L 110.72 71.08 L 111.25 70.77 L 111.25 70.16 L 110.72 69.86 L 110.20 70.16 L 109.67 69.86 L 109.67 69.25 L 110.20 68.94 L 110.72 69.25 L 111.25 68.94 L 111.25 68.34 L 110.72 68.03 L 110.72 67.42 L 111.25 67.12 L 111.25 66.51 L 110.72 66.20 L 110.20 66.51 L 110.20 67.12 L 109.67 67.42 L 109.14 67.12 L 108.61 67.42 L 108.61 68.03 L 109.14 68.34 L 109.14 68.94 L 108.61 69.25 L 108.09 68.94 L 108.09 68.34 L 107.56 68.03 L 107.03 68.34 L 106.50 68.03 L 106.50 67.42 L 107.03 67.12 L 107.03 66.51 L 106.50 66.20 L 105.98 66.51 L 105.98 67.12 L 105.45 67.42 L 104.92 67.12 L 104.92 66.51 L 104.39 66.20 L 103.87 66.51 L 103.34 66.20 L 103.34 65.60 L 103.87 65.29 L 104.39 65.60 L 104.92 65.29 L 104.92 64.68 L 105.45 64.38 L 105.98 64.68 L 105.98 65.29 L 106.50 65.60 L 107.03 65.29 L 107.03 64.68 L 106.50 64.38 L 106.50 63.77 L 107.03 63.46 L 107.56 63.77 L 108.09 63.46 L 108.09 62.86 L 108.61 62.55 L 109.14 62.86 L 109.14 63.46 L 108.61 63.77 L 108.61 64.38 L 109.14 64.68 L 109.67 64.38 L 110.20 64.68 L 110.20 65.29 L 110.72 65.60 L 111.25 65.29 L 111.25 64.68 L 110.72 64.38 L 110.72 63.77 L 111.25 63.46 L 111.25 62.86 L 110.72 62.55 L 110.20 62.86 L 109.67 62.55 L 109.67 61.94 L 110.20 61.64 L 110.72 61.94 L 111.25 61.64 L 111.25 61.03 L 110.72 60.72 L 110.72 60.12 L 111.25 59.81 L 111.25 59.20 L 110.72 58.90 L 110.20 59.20 L 110.20 59.81 L 109.67 60.12 L 109.14 59.81 L 109.14 59.20 L 108.61 58.90 L 108.09 59.20 L 107.56 58.90 L 107.56 58.29 L 108.09 57.98 L 108.61 58.29 L 109.14 57.98 L 109.14 57.38 L 109.67 57.07 L 110.20 57.38 L 110.20 57.98 L 110.72 58.29 L 111.25 57.98 L 111.25 57.38 L 110.72 57.07 L 110.72 56.46 L 111.25 56.16 L 111.25 55.55 L 110.72 55.24 L 110.20 55.55 L 109.67 55.24 L 109.67 54.64 L 110.20 54.33 L 110.72 54.64 L 111.25 54.33 L 111.25 53.72 L 110.72 53.42 L 110.72 52.81 L 111.25 52.50 L 111.25 51.90 L 110.72 51.59 L 110.20 51.90 L 110.20 52.50 L 109.67 52.81 L 109.14 52.50 L 108.61 52.81 L 108.61 53.42 L 109.14 53.72 L 109.14 54.33 L 108.61 54.64 L 108.09 54.33 L 108.09 53.72 L 107.56 53.42 L 107.03 53.72 L 107.03 54.33 L 106.50 54.64 L 105.98 54.33 L 105.45 54.64 L 105.45 55.24 L 105.98 55.55 L 106.50 55.24 L 107.03 55.55 L 107.03 56.16 L 106.50 56.46 L 106.50 57.07 L 107.03 57.38 L 107.03 57.98 L 106.50 58.29 L 105.98 57.98 L 105.98 57.38 L 105.45 57.07 L 104.92 57.38 L 104.39 57.07 L 104.39 56.46 L 104.92 56.16 L 104.92 55.55 L 104.39 55.24 L 103.87 55.55 L 103.87 56.16 L 103.34 56.46 L 102.81 56.16 L 102.81 55.55 L 102.29 55.24 L 101.76 55.55 L 101.23 55.24 L 101.23 54.64 L 101.76 54.33 L 102.29 54.64 L 102.81 54.33 L 102.81 53.72 L 102.29 53.42 L 102.29 52.81 L 102.81 52.50 L 102.81 51.90 L 102.29 51.59 L 101.76 51.90 L 101.76 52.50 L 101.23 52.81 L 100.70 52.50 L 100.18 52.81 L 100.18 53.42 L 100.70 53.72 L 100.70 54.33 L 100.18 54.64 L 99.65 54.33 L 99.65 53.72 L 99.12 53.42 L 98.59 53.72 L 98.07 53.42 L 98.07 52.81 L 98.59 52.50 L 98.59 51.90 L 98.07 51.59 L 97.54 51.90 L 97.54 52.50 L 97.01 52.81 L 96.48 52.50 L 96.48 51.90 L 95.96 51.59 L 95.43 51.90 L 94.90 51.59 L 94.90 50.98 L 95.43 50.68 L 95.96 50.98 L 96.48 50.68 L 96.48 50.07 L 97.01 49.76 L 97.54 50.07 L 97.54 50.68 L 98.07 50.98 L 98.59 50.68 L 98.59 50.07 L 98.07 49.76 L 98.07 49.15 L 98.59 48.85 L 99.12 49.15 L 99.65 48.85 L 99.65 48.24 L 100.18 47.94 L 100.70 48.24 L 100.70 48.85 L 100.18 49.15 L 100.18 49.76 L 100.70 50.07 L 101.23 49.76 L 101.76 50.07 L 101.76 50.68 L 102.29 50.98 L 102.81 50.68 L 102.81 50.07 L 102.29 49.76 L 102.29 49.15 L 102.81 48.85 L 102.81 48.24 L 102.29 47.94 L 101.76 48.24 L 101.23 47.94 L 101.23 47.33 L 101.76 47.02 L 102.29 47.33 L 102.81 47.02 L 102.81 46.41 L 103.34 46.11 L 103.87 46.41 L 103.87 47.02 L 104.39 47.33 L 104.92 47.02 L 104.92 46.41 L 104.39 46.11 L 104.39 45.50 L 104.92 45.20 L 105.45 45.50 L 105.98 45.20 L 105.98 44.59 L 106.50 44.28 L 107.03 44.59 L 107.03 45.20 L 106.50 45.50 L 106.50 46.11 L 107.03 46.41 L 107.03 47.02 L 106.50 47.33 L 105.98 47.02 L 105.45 47.33 L 105.45 47.94 L 105.98 48.24 L 106.50 47.94 L 107.03 48.24 L 107.03 48.85 L 107.56 49.15 L 108.09 48.85 L 108.09 48.24 L 108.61 47.94 L 109.14 48.24 L 109.14 48.85 L 108.61 49.15 L 108.61 49.76 L 109.14 50.07 L 109.67 49.76 L 110.20 50.07 L 110.20 50.68 L 110.72 50.98 L 111.25 50.68 L 111.25 50.07 L 110.72 49.76 L 110.72 49.15 L 111.25 48.85 L 111.25 48.24 L 110.72 47.94 L 110.20 48.24 L 109.67 47.94 L 109.67 47.33 L 110.20 47.02 L 110.72 47.33 L 111.25 47.02 L 111.25 46.41 L 110.72 46.11 L 110.72 45.50 L 111.25 45.20 L 111.25 44.59 L 110.72 44.28 L 110.20 44.59 L 110.20 45.20 L 109.67 45.50 L 109.14 45.20 L 109.14 44.59 L 108.61 44.28 L 108.09 44.59 L 107.56 44.28 L 107.56 43.67 L 108.09 43.37 L 108.61 43.67 L 109.14 43.37 L 109.14 42.76 L 109.67 42.46 L 110.20 42.76 L 110.20 43.37 L 110.72 43.67 L 111.25 43.37 L 111.25 42.76 L 110.72 42.46 L 110.72 41.85 L 111.25 41.54 L 111.78 41.85 L 112.30 41.54 L 112.30 40.93 L 112.83 40.63 L 113.36 40.93 L 113.36 41.54 L 112.83 41.85 L 112.83 42.46 L 113.36 42.76 L 113.89 42.46 L 114.41 42.76 L 114.41 43.37 L 114.94 43.67 L 115.47 43.37 L 115.47 42.76 L 114.94 42.46 L 114.94 41.85 L 115.47 41.54 L 115.47 40.93 L 114.94 40.63 L 114.41 40.93 L 113.89 40.63 L 113.89 40.02 L 114.41 39.72 L 114.94 40.02 L 115.47 39.72 L 115.47 39.11 L 116.00 38.80 L 116.52 39.11 L 116.52 39.72 L 117.05 40.02 L 117.58 39.72 L 117.58 39.11 L 117.05 38.80 L 117.05 38.19 L 117.58 37.89 L 118.11 38.19 L 118.63 37.89 L 118.63 37.28 L 119.16 36.98 L 119.69 37.28 L 119.69 37.89 L 119.16 38.19 L 119.16 38.80 L 119.69 39.11 L 119.69 39.72 L 119.16 40.02 L 118.63 39.72 L 118.11 40.02 L 118.11 40.63 L 118.63 40.93 L 119.16 40.63 L 119.69 40.93 L 119.69 41.54 L 119.16 41.85 L 119.16 42.46 L 119.69 42.76 L 119.69 43.37 L 119.16 43.67 L 118.63 43.37 L 118.63 42.76 L 118.11 42.46 L 117.58 42.76 L 117.58 43.37 L 117.05 43.67 L 116.52 43.37 L 116.00 43.67 L 116.00 44.28 L 116.52 44.59 L 117.05 44.28 L 117.58 44.59 L 117.58 45.20 L 118.11 45.50 L 118.63 45.20 L 118.63 44.59 L 119.16 44.28 L 119.69 44.59 L 119.69 45.20 L 119.16 45.50 L 119.16 46.11 L 119.69 46.41 L 120.21 46.11 L 120.74 46.41 L 120.74 47.02 L 121.27 47.33 L 121.80 47.02 L 121.80 46.41 L 121.27 46.11 L 121.27 45.50 L 121.80 45.20 L 122.32 45.50 L 122.85 45.20 L 122.85 44.59 L 123.38 44.28 L 123.91 44.59 L 123.91 45.20 L 123.38 45.50 L 123.38 46.11 L 123.91 46.41 L 123.91 47.02 L 123.38 47.33 L 122.85 47.02 L 122.32 47.33 L 122.32 47.94 L 122.85 48.24 L 123.38 47.94 L 123.91 48.24 L 123.91 48.85 L 124.43 49.15 L 124.96 48.85 L 124.96 48.24 L 125.49 47.94 L 126.02 48.24 L 126.02 48.85 L 125.49 49.15 L 125.49 49.76 L 126.02 50.07 L 126.54 49.76 L 127.07 50.07 L 127.07 50.68 L 127.60 50.98 L 128.13 50.68 L 128.13 50.07 L 127.60 49.76 L 127.60 49.15 L 128.13 48.85 L 128.13 48.24 L 127.60 47.94 L 127.07 48.24 L 126.54 47.94 L 126.54 47.33 L 127.07 47.02 L 127.60 47.33 L 128.13 47.02 L 128.13 46.41 L 127.60 46.11 L 127.60 45.50 L 128.13 45.20 L 128.13 44.59 L 127.60 44.28 L 127.07 44.59 L 127.07 45.20 L 126.54 45.50 L 126.02 45.20 L 126.02 44.59 L 125.49 44.28 L 124.96 44.59 L 124.43 44.28 L 124.43 43.67 L 124.96 43.37 L 125.49 43.67 L 126.02 43.37 L 126.02 42.76 L 126.54 42.46 L 127.07 42.76 L 127.07 43.37 L 127.60 43.67 L 128.13 43.37 L 128.13 42.76 L 127.60 42.46 L 127.60 41.85 L 128.13 41.54 L 128.13 40.93 L 127.60 40.63 L 127.07 40.93 L 126.54 40.63 L 126.54 40.02 L 127.07 39.72 L 127.60 40.02 L 128.13 39.72 L 128.13 39.11 L 127.60 38.80 L 127.60 38.19 L 128.13 37.89 L 128.13 37.28 L 127.60 36.98 L 127.07 37.28 L 127.07 37.89 L 126.54 38.19 L 126.02 37.89 L 125.49 38.19 L 125.49 38.80 L 126.02 39.11 L 126.02 39.72 L 125.49 40.02 L 124.96 39.72 L 124.96 39.11 L 124.43 38.80 L 123.91 39.11 L 123.38 38.80 L 123.38 38.19 L 123.91 37.89 L 123.91 37.28 L 123.38 36.98 L 122.85 37.28 L 122.85 37.89 L 122.32 38.19 L 121.80 37.89 L 121.80 37.28 L 121.27 36.98 L 120.74 37.28 L 120.21 36.98 L 120.21 36.37 L 120.74 36.06 L 121.27 36.37 L 121.80 36.06 L 121.80 35.45 L 122.32 35.15 L 122.85 35.45 L 122.85 36.06 L 123.38 36.37 L 123.91 36.06 L 123.91 35.45 L 123.38 35.15 L 123.38 34.54 L 123.91 34.24 L 124.43 34.54 L 124.96 34.24 L 124.96 33.63 L 125.49 33.32 L 126.02 33.63 L 126.02 34.24 L 125.49 34.54 L 125.49 35.15 L 126.02 35.45 L 126.54 35.15 L 127.07 35.45 L 127.07 36.06 L 127.60 36.37 L 128.13 36.06 L 128.13 35.45 L 127.60 35.15 L 127.60 34.54 L 128.13 34.24 L 128.13 33.63 L 127.60 33.32 L 127.07 33.63 L 126.54 33.32 L 126.54 32.71 L 127.07 32.41 L 127.60 32.71 L 128.13 32.41 L 128.13 31.80 L 128.65 31.50 L 129.18 31.80 L 129.18 32.41 L 129.71 32.71 L 130.23 32.41 L 130.23 31.80 L 129.71 31.50 L 129.71 30.89 L 130.23 30.58 L 130.76 30.89 L 131.29 30.58 L 131.29 29.97 L 131.82 29.67 L 132.34 29.97 L 132.34 30.58 L 131.82 30.89 L 131.82 31.50 L 132.34 31.80 L 132.34 32.41 L 131.82 32.71 L 131.29 32.41 L 130.76 32.71 L 130.76 33.32 L 131.29 33.63 L 131.82 33.32 L 132.34 33.63 L 132.34 34.24 L 132.87 34.54 L 133.40 34.24 L 133.40 33.63 L 133.93 33.32 L 134.45 33.63 L 134.45 34.24 L 133.93 34.54 L 133.93 35.15 L 134.45 35.45 L 134.98 35.15 L 135.51 35.45 L 135.51 36.06 L 136.04 36.37 L 136.56 36.06 L 136.56 35.45 L 136.04 35.15 L 136.04 34.54 L 136.56 34.24 L 136.56 33.63 L 136.04 33.32 L 135.51 33.63 L 134.98 33.32 L 134.98 32.71 L 135.51 32.41 L 136.04 32.71 L 136.56 32.41 L 136.56 31.80 L 136.04 31.50 L 136.04 30.89 L 136.56 30.58 L 136.56 29.97 L 136.04 29.67 L 135.51 29.97 L 135.51 30.58 L 134.98 30.89 L 134.45 30.58 L 134.45 29.97 L 133.93 29.67 L 133.40 29.97 L 132.87 29.67 L 132.87 29.06 L 133.40 28.76 L 133.93 29.06 L 134.45 28.76 L 134.45 28.15 L 134.98 27.84 L 135.51 28.15 L 135.51 28.76 L 136.04 29.06 L 136.56 28.76 L 136.56 28.15 L 136.04 27.84 L 136.04 27.23 L 136.56 26.93 L 137.09 27.23 L 137.62 26.93 L 137.62 26.32 L 138.14 26.02 L 138.67 26.32 L 138.67 26.93 L 138.14 27.23 L 138.14 27.84 L 138.67 28.15 L 139.20 27.84 L 139.73 28.15 L 139.73 28.76 L 140.25 29.06 L 140.78 28.76 L 140.78 28.15 L 140.25 27.84 L 140.25 27.23 L 140.78 26.93 L 140.78 26.32 L 140.25 26.02 L 139.73 26.32 L 139.20 26.02 L 139.20 25.41 L 139.73 25.10 L 140.25 25.41 L 140.78 25.10 L 140.78 24.49 L 141.31 24.19 L 141.84 24.49 L 141.84 25.10 L 142.36 25.41 L 142.89 25.10 L 142.89 24.49 L 142.36 24.19 L 142.36 23.58 L 142.89 23.28 L 143.42 23.58 L 143.95 23.28 L 143.95 22.67 L 144.47 22.36 L 145.00 22.67 L 145.00 23.28 L 144.47 23.58 L 144.47 24.19 L 145.00 24.49 L 145.00 25.10 L 144.47 25.41 L 143.95 25.10 L 143.42 25.41 L 143.42 26.02 L 143.95 26.32 L 144.47 26.02 L 145.00 26.32 L 145.00 26.93 L 144.47 27.23 L 144.47 27.84 L 145.00 28.15 L 145.00 28.76 L 144.47 29.06 L 143.95 28.76 L 143.95 28.15 L 143.42 27.84 L 142.89 28.15 L 142.89 28.76 L 142.36 29.06 L 141.84 28.76 L 141.31 29.06 L 141.31 29.67 L 141.84 29.97 L 142.36 29.67 L 142.89 29.97 L 142.89 30.58 L 143.42 30.89 L 143.95 30.58 L 143.95 29.97 L 144.47 29.67 L 145.00 29.97 L 145.00 30.58 L 144.47 30.89 L 144.47 31.50 L 145.00 31.80 L 145.00 32.41 L 144.47 32.71 L 143.95 32.41 L 143.42 32.71 L 143.42 33.32 L 143.95 33.63 L 144.47 33.32 L 145.00 33.63 L 145.00 34.24 L 144.47 34.54 L 144.47 35.15 L 145.00 35.45 L 145.00 36.06 L 144.47 36.37 L 143.95 36.06 L 143.95 35.45 L 143.42 35.15 L 142.89 35.45 L 142.36 35.15 L 142.36 34.54 L 142.89 34.24 L 142.89 33.63 L 142.36 33.32 L 141.84 33.63 L 141.84 34.24 L 141.31 34.54 L 140.78 34.24 L 140.25 34.54 L 140.25 35.15 L 140.78 35.45 L 140.78 36.06 L 140.25 36.37 L 139.73 36.06 L 139.73 35.45 L 139.20 35.15 L 138.67 35.45 L 138.67 36.06 L 138.14 36.37 L 137.62 36.06 L 137.09 36.37 L 137.09 36.98 L 137.62 37.28 L 138.14 36.98 L 138.67 37.28 L 138.67 37.89 L 139.20 38.19 L 139.73 37.89 L 139.73 37.28 L 140.25 36.98 L 140.78 37.28 L 140.78 37.89 L 140.25 38.19 L 140.25 38.80 L 140.78 39.11 L 141.31 38.80 L 141.84 39.11 L 141.84 39.72 L 142.36 40.02 L 142.89 39.72 L 142.89 39.11 L 142.36 38.80 L 142.36 38.19 L 142.89 37.89 L 143.42 38.19 L 143.95 37.89 L 143.95 37.28 L 144.47 36.98 L 145.00 37.28 L 145.00 37.89 L 144.47 38.19 L 144.47 38.80 L 145.00 39.11 L 145.00 39.72 L 144.47 40.02 L 143.95 39.72 L 143.42 40.02 L 143.42 40.63 L 143.95 40.93 L 144.47 40.63 L 145.00 40.93 L 145.00 41.54 L 144.47 41.85 L 144.47 42.46 L 145.00 42.76 L 145.00 43.37 L 144.47 43.67 L 143.95 43.37 L 143.95 42.76 L 143.42 42.46 L 142.89 42.76 L 142.89 43.37 L 142.36 43.67 L 141.84 43.37 L 141.31 43.67 L 141.31 44.28 L 141.84 44.59 L 142.36 44.28 L 142.89 44.59 L 142.89 45.20 L 143.42 45.50 L 143.95 45.20 L 143.95 44.59 L 144.47 44.28 L 145.00 44.59 L 145.00 45.20 L 144.47 45.50 L 144.47 46.11 L 145.00 46.41 L 145.00 47.02 L 144.47 47.33 L 143.95 47.02 L 143.42 47.33 L 143.42 47.94 L 143.95 48.24 L 144.47 47.94 L 145.00 48.24 L 145.00 48.85 L 144.47 49.15 L 144.47 49.76 L 145.00 50.07 L 145.00 50.68 L 144.47 50.98 L 143.95 50.68 L 143.95 50.07 L 143.42 49.76 L 142.89 50.07 L 142.36 49.76 L 142.36 49.15 L 142.89 48.85 L 142.89 48.24 L 142.36 47.94 L 141.84 48.24 L 141.84 48.85 L 141.31 49.15 L 140.78 48.85 L 140.78 48.24 L 140.25 47.94 L 139.73 48.24 L 139.20 47.94 L 139.20 47.33 L 139.73 47.02 L 140.25 47.33 L 140.78 47.02 L 140.78 46.41 L 140.25 46.11 L 140.25 45.50 L 140.78 45.20 L 140.78 44.59 L 140.25 44.28 L 139.73 44.59 L 139.73 45.20 L 139.20 45.50 L 138.67 45.20 L 138.14 45.50 L 138.14 46.11 L 138.67 46.41 L 138.67 47.02 L 138.14 47.33 L 137.62 47.02 L 137.62 46.41 L 137.09 46.11 L 136.56 46.41 L 136.56 47.02 L 136.04 47.33 L 135.51 47.02 L 134.98 47.33 L 134.98 47.94 L 135.51 48.24 L 136.04 47.94 L 136.56 48.24 L 136.56 48.85 L 136.04 49.15 L 136.04 49.76 L 136.56 50.07 L 136.56 50.68 L 136.04 50.98 L 135.51 50.68 L 135.51 50.07 L 134.98 49.76 L 134.45 50.07 L 133.93 49.76 L 133.93 49.15 L 134.45 48.85 L 134.45 48.24 L 133.93 47.94 L 133.40 48.24 L 133.40 48.85 L 132.87 49.15 L 132.34 48.85 L 131.82 49.15 L 131.82 49.76 L 132.34 50.07 L 132.34 50.68 L 131.82 50.98 L 131.29 50.68 L 131.29 50.07 L 130.76 49.76 L 130.23 50.07 L 130.23 50.68 L 129.71 50.98 L 129.18 50.68 L 128.65 50.98 L 128.65 51.59 L 129.18 51.90 L 129.71 51.59 L 130.23 51.89 L 130.23 52.50 L 130.76 52.81 L 131.29 52.50 L 131.29 51.90 L 131.82 51.59 L 132.34 51.90 L 132.34 52.50 L 131.82 52.81 L 131.82 53.42 L 132.34 53.72 L 132.87 53.42 L 133.40 53.72 L 133.40 54.33 L 133.93 54.64 L 134.45 54.33 L 134.45 53.72 L 133.93 53.42 L 133.93 52.81 L 134.45 52.50 L 134.98 52.81 L 135.51 52.50 L 135.51 51.90 L 136.04 51.59 L 136.56 51.90 L 136.56 52.50 L 136.04 52.81 L 136.04 53.42 L 136.56 53.72 L 136.56 54.33 L 136.04 54.64 L 135.51 54.33 L 134.98 54.64 L 134.98 55.24 L 135.51 55.55 L 136.04 55.24 L 136.56 55.55 L 136.56 56.16 L 137.09 56.46 L 137.62 56.16 L 137.62 55.55 L 138.14 55.24 L 138.67 55.55 L 138.67 56.16 L 138.14 56.46 L 138.14 57.07 L 138.67 57.38 L 139.20 57.07 L 139.73 57.38 L 139.73 57.98 L 140.25 58.29 L 140.78 57.98 L 140.78 57.38 L 140.25 57.07 L 140.25 56.46 L 140.78 56.16 L 140.78 55.55 L 140.25 55.24 L 139.73 55.55 L 139.20 55.24 L 139.20 54.64 L 139.73 54.33 L 140.25 54.64 L 140.78 54.33 L 140.78 53.72 L 141.31 53.42 L 141.84 53.72 L 141.84 54.33 L 142.36 54.64 L 142.89 54.33 L 142.89 53.72 L 142.36 53.42 L 142.36 52.81 L 142.89 52.50 L 143.42 52.81 L 143.95 52.50 L 143.95 51.90 L 144.47 51.59 L 145.00 51.90 L 145.00 52.50 L 144.47 52.81 L 144.47 53.42 L 145.00 53.72 L 145.00 54.33 L 144.47 54.64 L 143.95 54.33 L 143.42 54.64 L 143.42 55.24 L 143.95 55.55 L 144.47 55.24 L 145.00 55.55 L 145.00 56.16 L 144.47 56.46 L 144.47 57.07 L 145.00 57.38 L 145.00 57.98 L 144.47 58.29 L 143.95 57.98 L 143.95 57.38 L 143.42 57.07 L 142.89 57.38 L 142.89 57.98 L 142.36 58.29 L 141.84 57.98 L 141.31 58.29 L 141.31 58.90 L 141.84 59.20 L 142.36 58.90 L 142.89 59.20 L 142.89 59.81 L 143.42 60.12 L 143.95 59.81 L 143.95 59.20 L 144.47 58.90 L 145.00 59.20 L 145.00 59.81 L 144.47 60.12 L 144.47 60.72 L 145.00 61.03 L 145.00 61.64 L 144.47 61.94 L 143.95 61.64 L 143.42 61.94 L 143.42 62.55 L 143.95 62.86 L 144.47 62.55 L 145.00 62.86 L 145.00 63.46 L 144.47 63.77 L 144.47 64.38 L 145.00 64.68 L 145.00 65.29 L 144.47 65.60 L 143.95 65.29 L 143.95 64.68 L 143.42 64.38 L 142.89 64.68 L 142.36 64.38 L 142.36 63.77 L 142.89 63.46 L 142.89 62.86 L 142.36 62.55 L 141.84 62.86 L 141.84 63.46 L 141.31 63.77 L 140.78 63.46 L 140.25 63.77 L 140.25 64.38 L 140.78 64.68 L 140.78 65.29 L 140.25 65.60 L 139.73 65.29 L 139.73 64.68 L 139.20 64.38 L 138.67 64.68 L 138.67 65.29 L 138.14 65.60 L 137.62 65.29 L 137.09 65.60 L 137.09 66.20 L 137.62 66.51 L 138.14 66.20 L 138.67 66.51 L 138.67 67.12 L 139.20 67.42 L 139.73 67.12 L 139.73 66.51 L 140.25 66.20 L 140.78 66.51 L 140.78 67.12 L 140.25 67.42 L 140.25 68.03 L 140.78 68.34 L 141.31 68.03 L 141.84 68.34 L 141.84 68.94 L 142.36 69.25 L 142.89 68.94 L 142.89 68.34 L 142.36 68.03 L 142.36 67.42 L 142.89 67.12 L 143.42 67.42 L 143.95 67.12 L 143.95 66.51 L 144.47 66.20 L 145.00 66.51 L 145.00 67.12 L 144.47 67.42 L 144.47 68.03 L 145.00 68.34 L 145.00 68.94 L 144.47 69.25 L 143.95 68.94 L 143.42 69.25 L 143.42 69.86 L 143.95 70.16 L 144.47 69.86 L 145.00 70.16 L 145.00 70.77 L 144.47 71.08 L 144.47 71.69 L 145.00 71.99 L 145.00 72.60 L 144.47 72.90 L 143.95 72.60 L 143.95 71.99 L 143.42 71.69 L 142.89 71.99 L 142.89 72.60 L 142.36 72.90 L 141.84 72.60 L 141.31 72.90 L 141.31 73.51 L 141.84 73.82 L 142.36 73.51 L 142.89 73.82 L 142.89 74.43 L 143.42 74.73 L 143.95 74.43 L 143.95 73.82 L 144.47 73.51 L 145.00 73.82 L 145.00 74.43 L 144.47 74.73 L 144.47 75.34 L 145.00 75.64 L 145.00 76.25 L 144.47 76.56 L 143.95 76.25 L 143.42 76.56 L 143.42 77.17 L 143.95 77.47 L 144.47 77.17 L 145.00 77.47 L 145.00 78.08 L 144.47 78.38 L 144.47 78.99 L 145.00 79.30 L 145.00 79.91 L 144.47 80.21 L 143.95 79.91 L 143.95 79.30 L 143.42 78.99 L 142.89 79.30 L 142.36 78.99 L 142.36 78.38 L 142.89 78.08 L 142.89 77.47 L 142.36 77.17 L 141.84 77.47 L 141.84 78.08 L 141.31 78.38 L 140.78 78.08 L 140.78 77.47 L 140.25 77.17 L 139.73 77.47 L 139.20 77.17 L 139.20 76.56 L 139.73 76.25 L 140.25 76.56 L 140.78 76.25 L 140.78 75.64 L 140.25 75.34 L 140.25 74.73 L 140.78 74.43 L 140.78 73.82 L 140.25 73.51 L 139.73 73.82 L 139.73 74.43 L 139.20 74.73 L 138.67 74.43 L 138.14 74.73 L 138.14 75.34 L 138.67 75.64 L 138.67 76.25 L 138.14 76.56 L 137.62 76.25 L 137.62 75.64 L 137.09 75.34 L 136.56 75.64 L 136.04 75.34 L 136.04 74.73 L 136.56 74.43 L 136.56 73.82 L 136.04 73.51 L 135.51 73.82 L 135.51 74.43 L 134.98 74.73 L 134.45 74.43 L 134.45 73.82 L 133.93 73.51 L 133.40 73.82 L 132.87 73.51 L 132.87 72.90 L 133.40 72.60 L 133.93 72.90 L 134.45 72.60 L 134.45 71.99 L 134.98 71.69 L 135.51 71.99 L 135.51 72.60 L 136.04 72.90 L 136.56 72.60 L 136.56 71.99 L 136.04 71.69 L 136.04 71.08 L 136.56 70.77 L 136.56 70.16 L 136.04 69.86 L 135.51 70.16 L 134.98 69.86 L 134.98 69.25 L 135.51 68.94 L 136.04 69.25 L 136.56 68.94 L 136.56 68.34 L 136.04 68.03 L 136.04 67.42 L 136.56 67.12 L 136.56 66.51 L 136.04 66.20 L 135.51 66.51 L 135.51 67.12 L 134.98 67.42 L 134.45 67.12 L 133.93 67.42 L 133.93 68.03 L 134.45 68.34 L 134.45 68.94 L 133.93 69.25 L 133.40 68.94 L 133.40 68.34 L 132.87 68.03 L 132.34 68.34 L 132.34 68.94 L 131.82 69.25 L 131.29 68.94 L 130.76 69.25 L 130.76 69.86 L 131.29 70.16 L 131.82 69.86 L 132.34 70.16 L 132.34 70.77 L 131.82 71.08 L 131.82 71.69 L 132.34 71.99 L 132.34 72.60 L 131.82 72.90 L 131.29 72.60 L 131.29 71.99 L 130.76 71.69 L 130.23 71.99 L 129.71 71.69 L 129.71 71.08 L 130.23 70.77 L 130.23 70.16 L 129.71 69.86 L 129.18 70.16 L 129.18 70.77 L 128.65 71.08 L 128.13 70.77 L 127.60 71.08 L 127.60 71.69 L 128.13 71.99 L 128.13 72.60 L 127.60 72.90 L 127.07 72.60 L 127.07 71.99 L 126.54 71.69 L 126.02 71.99 L 126.02 72.60 L 125.49 72.90 L 124.96 72.60 L 124.43 72.90 L 124.43 73.51 L 124.96 73.82 L 125.49 73.51 L 126.02 73.82 L 126.02 74.43 L 126.54 74.73 L 127.07 74.43 L 127.07 73.82 L 127.60 73.51 L 128.13 73.82 L 128.13 74.43 L 127.60 74.73 L 127.60 75.34 L 128.13 75.64 L 128.13 76.25 L 127.60 76.56 L 127.07 76.25 L 126.54 76.56 L 126.54 77.17 L 127.07 77.47 L 127.60 77.17 L 128.13 77.47 L 128.13 78.08 L 127.60 78.38 L 127.60 78.99 L 128.13 79.30 L 128.13 79.91 L 127.60 80.21 L 127.07 79.91 L 127.07 79.30 L 126.54 78.99 L 126.02 79.30 L 125.49 78.99 L 125.49 78.38 L 126.02 78.08 L 126.02 77.47 L 125.49 77.17 L 124.96 77.47 L 124.96 78.08 L 124.43 78.38 L 123.91 78.08 L 123.91 77.47 L 123.38 77.17 L 122.85 77.47 L 122.32 77.17 L 122.32 76.56 L 122.85 76.25 L 123.38 76.56 L 123.91 76.25 L 123.91 75.64 L 123.38 75.34 L 123.38 74.73 L 123.91 74.43 L 123.91 73.82 L 123.38 73.51 L 122.85 73.82 L 122.85 74.43 L 122.32 74.73 L 121.80 74.43 L 121.27 74.73 L 121.27 75.34 L 121.80 75.64 L 121.80 76.25 L 121.27 76.56 L 120.74 76.25 L 120.74 75.64 L 120.21 75.34 L 119.69 75.64 L 119.69 76.25 L 119.16 76.56 L 118.63 76.25 L 118.11 76.56 L 118.11 77.17 L 118.63 77.47 L 119.16 77.17 L 119.69 77.47 L 119.69 78.08 L 119.16 78.38 L 119.16 78.99 L 119.69 79.30 L 119.69 79.91 L 119.16 80.21 L 118.63 79.91 L 118.63 79.30 L 118.11 78.99 L 117.58 79.30 L 117.05 78.99 L 117.05 78.38 L 117.58 78.08 L 117.58 77.47 L 117.05 77.17 L 116.52 77.47 L 116.52 78.08 L 116.00 78.38 L 115.47 78.08 L 114.94 78.38 L 114.94 78.99 L 115.47 79.30 L 115.47 79.91 L 114.94 80.21 L 114.41 79.91 L 114.41 79.30 L 113.89 78.99 L 113.36 79.30 L 113.36 79.91 L 112.83 80.21 L 112.30 79.91 L 111.78 80.21 L 111.78 80.82 L 112.30 81.12 L 112.83 80.82 L 113.36 81.12 L 113.36 81.73 L 113.89 82.04 L 114.41 81.73 L 114.41 81.12 L 114.94 80.82 L 115.47 81.12 L 115.47 81.73 L 114.94 82.04 L 114.94 82.65 L 115.47 82.95 L 116.00 82.65 L 116.52 82.95 L 116.52 83.56 L 117.05 83.86 L 117.58 83.56 L 117.58 82.95 L 117.05 82.65 L 117.05 82.04 L 117.58 81.73 L 118.11 82.04 L 118.63 81.73 L 118.63 81.12 L 119.16 80.82 L 119.69 81.12 L 119.69 81.73 L 119.16 82.04 L 119.16 82.65 L 119.69 82.95 L 119.69 83.56 L 119.16 83.86 L 118.63 83.56 L 118.11 83.86 L 118.11 84.47 L 118.63 84.78 L 119.16 84.47 L 119.69 84.78 L 119.69 85.39 L 120.21 85.69 L 120.74 85.39 L 120.74 84.78 L 121.27 84.47 L 121.80 84.78 L 121.80 85.39 L 121.27 85.69 L 121.27 86.30 L 121.80 86.60 L 122.32 86.30 L 122.85 86.60 L 122.85 87.21 L 123.38 87.52 L 123.91 87.21 L 123.91 86.60 L 123.38 86.30 L 123.38 85.69 L 123.91 85.39 L 123.91 84.78 L 123.38 84.47 L 122.85 84.78 L 122.32 84.47 L 122.32 83.86 L 122.85 83.56 L 123.38 83.86 L 123.91 83.56 L 123.91 82.95 L 124.43 82.65 L 124.96 82.95 L 124.96 83.56 L 125.49 83.86 L 126.02 83.56 L 126.02 82.95 L 125.49 82.65 L 125.49 82.04 L 126.02 81.73 L 126.54 82.04 L 127.07 81.73 L 127.07 81.12 L 127.60 80.82 L 128.13 81.12 L 128.13 81.73 L 127.60 82.04 L 127.60 82.65 L 128.13 82.95 L 128.13 83.56 L 127.60 83.86 L 127.07 83.56 L 126.54 83.86 L 126.54 84.47 L 127.07 84.78 L 127.60 84.47 L 128.13 84.78 L 128.13 85.39 L 127.60 85.69 L 127.60 86.30 L 128.13 86.60 L 128.13 87.21 L 127.60 87.52 L 127.07 87.21 L 127.07 86.60 L 126.54 86.30 L 126.02 86.60 L 126.02 87.21 L 125.49 87.52 L 124.96 87.21 L 124.43 87.52 L 124.43 88.13 L 124.96 88.43 L 125.49 88.13 L 126.02 88.43 L 126.02 89.04 L 126.54 89.34 L 127.07 89.04 L 127.07 88.43 L 127.60 88.13 L 128.13 88.43 L 128.13 89.04 L 127.60 89.34 L 127.60 89.95 L 128.13 90.26 L 128.65 89.95 L 129.18 90.26 L 129.18 90.87 L 129.71 91.17 L 130.23 90.87 L 130.23 90.26 L 129.71 89.95 L 129.71 89.34 L 130.23 89.04 L 130.76 89.34 L 131.29 89.04 L 131.29 88.43 L 131.82 88.13 L 132.34 88.43 L 132.34 89.04 L 131.82 89.34 L 131.82 89.95 L 132.34 90.26 L 132.34 90.87 L 131.82 91.17 L 131.29 90.87 L 130.76 91.17 L 130.76 91.78 L 131.29 92.08 L 131.82 91.78 L 132.34 92.08 L 132.34 92.69 L 132.87 93.00 L 133.40 92.69 L 133.40 92.08 L 133.93 91.78 L 134.45 92.08 L 134.45 92.69 L 133.93 93.00 L 133.93 93.61 L 134.45 93.91 L 134.98 93.61 L 135.51 93.91 L 135.51 94.52 L 136.04 94.82 L 136.56 94.52 L 136.56 93.91 L 136.04 93.61 L 136.04 93.00 L 136.56 92.69 L 136.56 92.08 L 136.04 91.78 L 135.51 92.08 L 134.98 91.78 L 134.98 91.17 L 135.51 90.87 L 136.04 91.17 L 136.56 90.87 L 136.56 90.26 L 136.04 89.95 L 136.04 89.34 L 136.56 89.04 L 136.56 88.43 L 136.04 88.13 L 135.51 88.43 L 135.51 89.04 L 134.98 89.34 L 134.45 89.04 L 134.45 88.43 L 133.93 88.13 L 133.40 88.43 L 132.87 88.13 L 132.87 87.52 L 133.40 87.21 L 133.93 87.52 L 134.45 87.21 L 134.45 86.60 L 134.98 86.30 L 135.51 86.60 L 135.51 87.21 L 136.04 87.52 L 136.56 87.21 L 136.56 86.60 L 136.04 86.30 L 136.04 85.69 L 136.56 85.39 L 137.09 85.69 L 137.62 85.39 L 137.62 84.78 L 138.14 84.47 L 138.67 84.78 L 138.67 85.39 L 138.14 85.69 L 138.14 86.30 L 138.67 86.60 L 139.20 86.30 L 139.73 86.60 L 139.73 87.21 L 140.25 87.52 L 140.78 87.21 L 140.78 86.60 L 140.25 86.30 L 140.25 85.69 L 140.78 85.39 L 140.78 84.78 L 140.25 84.47 L 139.73 84.78 L 139.20 84.47 L 139.20 83.86 L 139.73 83.56 L 140.25 83.86 L 140.78 83.56 L 140.78 82.95 L 141.31 82.65 L 141.84 82.95 L 141.84 83.56 L 142.36 83.86 L 142.89 83.56 L 142.89 82.95 L 142.36 82.65 L 142.36 82.04 L 142.89 81.73 L 143.42 82.04 L 143.95 81.73 L 143.95 81.12 L 144.47 80.82 L 145.00 81.12 L 145.00 81.73 L 144.47 82.04 L 144.47 82.65 L 145.00 82.95 L 145.00 83.56 L 144.47 83.86 L 143.95 83.56 L 143.42 83.86 L 143.42 84.47 L 143.95 84.78 L 144.47 84.47 L 145.00 84.78 L 145.00 85.39 L 144.47 85.69 L 144.47 86.30 L 145.00 86.60 L 145.00 87.21 L 144.47 87.52 L 143.95 87.21 L 143.95 86.60 L 143.42 86.30 L 142.89 86.60 L 142.89 87.21 L 142.36 87.52 L 141.84 87.21 L 141.31 87.52 L 141.31 88.13 L 141.84 88.43 L 142.36 88.13 L 142.89 88.43 L 142.89 89.04 L 143.42 89.34 L 143.95 89.04 L 143.95 88.43 L 144.47 88.13 L 145.00 88.43 L 145.00 89.04 L 144.47 89.34 L 144.47 89.95 L 145.00 90.26 L 145.00 90.87 L 144.47 91.17 L 143.95 90.87 L 143.42 91.17 L 143.42 91.78 L 143.95 92.08 L 144.47 91.78 L 145.00 92.08 L 145.00 92.69 L 144.47 93.00 L 144.47 93.61 L 145.00 93.91 L 145.00 94.52 L 144.47 94.82 L 143.95 94.52 L 143.95 93.91 L 143.42 93.61 L 142.89 93.91 L 142.36 93.61 L 142.36 93.00 L 142.89 92.69 L 142.89 92.08 L 142.36 91.78 L 141.84 92.08 L 141.84 92.69 L 141.31 93.00 L 140.78 92.69 L 140.25 93.00 L 140.25 93.61 L 140.78 93.91 L 140.78 94.52 L 140.25 94.82 L 139.73 94.52 L 139.73 93.91 L 139.20 93.61 L 138.67 93.91 L 138.67 94.52 L 138.14 94.82 L 137.62 94.52 L 137.09 94.82 L 137.09 95.43 L 137.62 95.74 L 138.14 95.43 L 138.67 95.74 L 138.67 96.35 L 139.20 96.65 L 139.73 96.35 L 139.73 95.74 L 140.25 95.43 L 140.78 95.74 L 140.78 96.35 L 140.25 96.65 L 140.25 97.26 L 140.78 97.56 L 141.31 97.26 L 141.84 97.56 L 141.84 98.17 L 142.36 98.48 L 142.89 98.17 L 142.89 97.56 L 142.36 97.26 L 142.36 96.65 L 142.89 96.35 L 143.42 96.65 L 143.95 96.35 L 143.95 95.74 L 144.47 95.43 L 145.00 95.74 L 145.00 96.35 L 144.47 96.65 L 144.47 97.26 L 145.00 97.56 L 145.00 98.17 L 144.47 98.48 L 143.95 98.17 L 143.42 98.48 L 143.42 99.09 L 143.95 99.39 L 144.47 99.09 L 145.00 99.39 L 145.00 100.00 L 144.47 100.30 L 144.47 100.91 L 145.00 101.22 L 145.00 101.83 L 144.47 102.13 L 143.95 101.83 L 143.95 101.22 L 143.42 100.91 L 142.89 101.22 L 142.89 101.83 L 142.36 102.13 L 141.84 101.83 L 141.31 102.13 L 141.31 102.74 L 141.84 103.04 L 142.36 102.74 L 142.89 103.04 L 142.89 103.65 L 143.42 103.96 L 143.95 103.65 L 143.95 103.04 L 144.47 102.74 L 145.00 103.04 L 145.00 103.65 L 144.47 103.96 L 144.47 104.57 L 145.00 104.87 L 145.00 105.48 L 144.47 105.78 L 143.95 105.48 L 143.42 105.78 L 143.42 106.39 L 143.95 106.70 L 144.47 106.39 L 145.00 106.70 L 145.00 107.31 L 144.47 107.61 L 144.47 108.22 L 145.00 108.52 L 145.00 109.13 L 144.47 109.44 L 143.95 109.13 L 143.95 108.52 L 143.42 108.22 L 142.89 108.52 L 142.36 108.22 L 142.36 107.61 L 142.89 107.31 L 142.89 106.70 L 142.36 106.39 L 141.84 106.70 L 141.84 107.31 L 141.31 107.61 L 140.78 107.31 L 140.78 106.70 L 140.25 106.39 L 139.73 106.70 L 139.20 106.39 L 139.20 105.78 L 139.73 105.48 L 140.25 105.78 L 140.78 105.48 L 140.78 104.87 L 140.25 104.57 L 140.25 103.96 L 140.78 103.65 L 140.78 103.04 L 140.25 102.74 L 139.73 103.04 L 139.73 103.65 L 139.20 103.96 L 138.67 103.65 L 138.14 103.96 L 138.14 104.57 L 138.67 104.87 L 138.67 105.48 L 138.14 105.78 L 137.62 105.48 L 137.62 104.87 L 137.09 104.57 L 136.56 104.87 L 136.56 105.48 L 136.04 105.78 L 135.51 105.48 L 134.98 105.78 L 134.98 106.39 L 135.51 106.70 L 136.04 106.39 L 136.56 106.70 L 136.56 107.31 L 136.04 107.61 L 136.04 108.22 L 136.56 108.52 L 136.56 109.13 L 136.04 109.44 L 135.51 109.13 L 135.51 108.52 L 134.98 108.22 L 134.45 108.52 L 133.93 108.22 L 133.93 107.61 L 134.45 107.31 L 134.45 106.70 L 133.93 106.39 L 133.40 106.70 L 133.40 107.31 L 132.87 107.61 L 132.34 107.31 L 131.82 107.61 L 131.82 108.22 L 132.34 108.52 L 132.34 109.13 L 131.82 109.44 L 131.29 109.13 L 131.29 108.52 L 130.76 108.22 L 130.23 108.52 L 130.23 109.13 L 129.71 109.44 L 129.18 109.13 L 128.65 109.44 L 128.65 110.05 L 129.18 110.35 L 129.71 110.05 L 130.23 110.35 L 130.23 110.96 L 130.76 111.27 L 131.29 110.96 L 131.29 110.35 L 131.82 110.05 L 132.34 110.35 L 132.34 110.96 L 131.82 111.27 L 131.82 111.87 L 132.34 112.18 L 132.87 111.87 L 133.40 112.18 L 133.40 112.79 L 133.93 113.09 L 134.45 112.79 L 134.45 112.18 L 133.93 111.87 L 133.93 111.27 L 134.45 110.96 L 134.98 111.27 L 135.51 110.96 L 135.51 110.35 L 136.04 110.05 L 136.56 110.35 L 136.56 110.96 L 136.04 111.27 L 136.04 111.87 L 136.56 112.18 L 136.56 112.79 L 136.04 113.09 L 135.51 112.79 L 134.98 113.09 L 134.98 113.70 L 135.51 114.01 L 136.04 113.70 L 136.56 114.01 L 136.56 114.61 L 137.09 114.92 L 137.62 114.61 L 137.62 114.01 L 138.14 113.70 L 138.67 114.01 L 138.67 114.61 L 138.14 114.92 L 138.14 115.53 L 138.67 115.83 L 139.20 115.53 L 139.73 115.83 L 139.73 116.44 L 140.25 116.75 L 140.78 116.44 L 140.78 115.83 L 140.25 115.53 L 140.25 114.92 L 140.78 114.61 L 140.78 114.01 L 140.25 113.70 L 139.73 114.01 L 139.20 113.70 L 139.20 113.09 L 139.73 112.79 L 140.25 113.09 L 140.78 112.79 L 140.78 112.18 L 141.31 111.87 L 141.84 112.18 L 141.84 112.79 L 142.36 113.09 L 142.89 112.79 L 142.89 112.18 L 142.36 111.87 L 142.36 111.27 L 142.89 110.96 L 143.42 111.27 L 143.95 110.96 L 143.95 110.35 L 144.47 110.05 L 145.00 110.35 L 145.00 110.96 L 144.47 111.27 L 144.47 111.87 L 145.00 112.18 L 145.00 112.79 L 144.47 113.09 L 143.95 112.79 L 143.42 113.09 L 143.42 113.70 L 143.95 114.01 L 144.47 113.70 L 145.00 114.01 L 145.00 114.61 L 144.47 114.92 L 144.47 115.53 L 145.00 115.83 L 145.00 116.44 L 144.47 116.75 L 143.95 116.44 L 143.95 115.83 L 143.42 115.53 L 142.89 115.83 L 142.89 116.44 L 142.36 116.75 L 141.84 116.44 L 141.31 116.75 L 141.31 117.35 L 141.84 117.66 L 142.36 117.35 L 142.89 117.66 L 142.89 118.27 L 143.42 118.57 L 143.95 118.27 L 143.95 117.66 L 144.47 117.35 L 145.00 117.66 L 145.00 118.27 L 144.47 118.57 L 144.47 119.18 L 145.00 119.49 L 145.00 120.09 L 144.47 120.40 L 143.95 120.09 L 143.42 120.40 L 143.42 121.01 L 143.95 121.31 L 144.47 121.01 L 145.00 121.31 L 145.00 121.92 L 144.47 122.23 L 144.47 122.83 L 145.00 123.14 L 145.00 123.75 L 144.47 124.05 L 143.95 123.75 L 143.95 123.14 L 143.42 122.83 L 142.89 123.14 L 142.36 122.83 L 142.36 122.23 L 142.89 121.92 L 142.89 121.31 L 142.36 121.01 L 141.84 121.31 L 141.84 121.92 L 141.31 122.23 L 140.78 121.92 L 140.25 122.23 L 140.25 122.83 L 140.78 123.14 L 140.78 123.75 L 140.25 124.05 L 139.73 123.75 L 139.73 123.14 L 139.20 122.83 L 138.67 123.14 L 138.67 123.75 L 138.14 124.05 L 137.62 123.75 L 137.09 124.05 L 137.09 124.66 L 137.62 124.97 L 138.14 124.66 L 138.67 124.97 L 138.67 125.57 L 139.20 125.88 L 139.73 125.57 L 139.73 124.97 L 140.25 124.66 L 140.78 124.97 L 140.78 125.57 L 140.25 125.88 L 140.25 126.49 L 140.78 126.79 L 141.31 126.49 L 141.84 126.79 L 141.84 127.40 L 142.36 127.71 L 142.89 127.40 L 142.89 126.79 L 142.36 126.49 L 142.36 125.88 L 142.89 125.57 L 143.42 125.88 L 143.95 125.57 L 143.95 124.97 L 144.47 124.66 L 145.00 124.97 L 145.00 125.57 L 144.47 125.88 L 144.47 126.49 L 145.00 126.79 L 145.00 127.40 L 144.47 127.71 L 143.95 127.40 L 143.42 127.71 L 143.42 128.32 L 143.95 128.62 L 144.47 128.32 L 145.00 128.62 L 145.00 129.23 L 144.47 129.53 L 144.47 130.14 L 145.00 130.45 L 145.00 131.06 L 144.47 131.36 L 143.95 131.06 L 143.95 130.45 L 143.42 130.14 L 142.89 130.45 L 142.89 131.06 L 142.36 131.36 L 141.84 131.06 L 141.31 131.36 L 141.31 131.97 L 141.84 132.27 L 142.36 131.97 L 142.89 132.27 L 142.89 132.88 L 143.42 133.19 L 143.95 132.88 L 143.95 132.27 L 144.47 131.97 L 145.00 132.27 L 145.00 132.88 L 144.47 133.19 L 144.47 133.80 L 145.00 134.10 L 145.00 134.71 L 144.47 135.01 L 143.95 134.71 L 143.42 135.01 L 143.42 135.62 L 143.95 135.93 L 144.47 135.62 L 145.00 135.93 L 145.00 136.54 L 144.47 136.84 L 144.47 137.45 L 145.00 137.75 L 145.00 138.36 L 144.47 138.67 L 143.95 138.36 L 143.95 137.75 L 143.42 137.45 L 142.89 137.75 L 142.36 137.45 L 142.36 136.84 L 142.89 136.54 L 142.89 135.93 L 142.36 135.62 L 141.84 135.93 L 141.84 136.54 L 141.31 136.84 L 140.78 136.54 L 140.78 135.93 L 140.25 135.62 L 139.73 135.93 L 139.20 135.62 L 139.20 135.01 L 139.73 134.71 L 140.25 135.01 L 140.78 134.71 L 140.78 134.10 L 140.25 133.80 L 140.25 133.19 L 140.78 132.88 L 140.78 132.27 L 140.25 131.97 L 139.73 132.27 L 139.73 132.88 L 139.20 133.19 L 138.67 132.88 L 138.14 133.19 L 138.14 133.80 L 138.67 134.10 L 138.67 134.71 L 138.14 135.01 L 137.62 134.71 L 137.62 134.10 L 137.09 133.80 L 136.56 134.10 L 136.04 133.80 L 136.04 133.19 L 136.56 132.88 L 136.56 132.27 L 136.04 131.97 L 135.51 132.27 L 135.51 132.88 L 134.98 133.19 L 134.45 132.88 L 134.45 132.27 L 133.93 131.97 L 133.40 132.27 L 132.87 131.97 L 132.87 131.36 L 133.40 131.06 L 133.93 131.36 L 134.45 131.06 L 134.45 130.45 L 134.98 130.14 L 135.51 130.45 L 135.51 131.06 L 136.04 131.36 L 136.56 131.06 L 136.56 130.45 L 136.04 130.14 L 136.04 129.53 L 136.56 129.23 L 136.56 128.62 L 136.04 128.32 L 135.51 128.62 L 134.98 128.31 L 134.98 127.71 L 135.51 127.40 L 136.04 127.71 L 136.56 127.40 L 136.56 126.79 L 136.04 126.49 L 136.04 125.88 L 136.56 125.57 L 136.56 124.97 L 136.04 124.66 L 135.51 124.97 L 135.51 125.57 L 134.98 125.88 L 134.45 125.57 L 133.93 125.88 L 133.93 126.49 L 134.45 126.79 L 134.45 127.40 L 133.93 127.71 L 133.40 127.40 L 133.40 126.79 L 132.87 126.49 L 132.34 126.79 L 132.34 127.40 L 131.82 127.71 L 131.29 127.40 L 130.76 127.71 L 130.76 128.32 L 131.29 128.62 L 131.82 128.32 L 132.34 128.62 L 132.34 129.23 L 131.82 129.53 L 131.82 130.14 L 132.34 130.45 L 132.34 131.06 L 131.82 131.36 L 131.29 131.06 L 131.29 130.45 L 130.76 130.14 L 130.23 130.45 L 129.71 130.14 L 129.71 129.53 L 130.23 129.23 L 130.23 128.62 L 129.71 128.32 L 129.18 128.62 L 129.18 129.23 L 128.65 129.53 L 128.13 129.23 L 128.13 128.62 L 127.60 128.32 L 127.07 128.62 L 126.54 128.31 L 126.54 127.71 L 127.07 127.40 L 127.60 127.71 L 128.13 127.40 L 128.13 126.79 L 127.60 126.49 L 127.60 125.88 L 128.13 125.57 L 128.13 124.97 L 127.60 124.66 L 127.07 124.97 L 127.07 125.57 L 126.54 125.88 L 126.02 125.57 L 125.49 125.88 L 125.49 126.49 L 126.02 126.79 L 126.02 127.40 L 125.49 127.71 L 124.96 127.40 L 124.96 126.79 L 124.43 126.49 L 123.91 126.79 L 123.38 126.49 L 123.38 125.88 L 123.91 125.57 L 123.91 124.97 L 123.38 124.66 L 122.85 124.97 L 122.85 125.57 L 122.32 125.88 L 121.80 125.57 L 121.80 124.97 L 121.27 124.66 L 120.74 124.97 L 120.21 124.66 L 120.21 124.05 L 120.74 123.75 L 121.27 124.05 L 121.80 123.75 L 121.80 123.14 L 122.32 122.83 L 122.85 123.14 L 122.85 123.75 L 123.38 124.05 L 123.91 123.75 L 123.91 123.14 L 123.38 122.83 L 123.38 122.23 L 123.91 121.92 L 124.43 122.23 L 124.96 121.92 L 124.96 121.31 L 125.49 121.01 L 126.02 121.31 L 126.02 121.92 L 125.49 122.23 L 125.49 122.83 L 126.02 123.14 L 126.54 122.83 L 127.07 123.14 L 127.07 123.75 L 127.60 124.05 L 128.13 123.75 L 128.13 123.14 L 127.60 122.83 L 127.60 122.23 L 128.13 121.92 L 128.13 121.31 L 127.60 121.01 L 127.07 121.31 L 126.54 121.01 L 126.54 120.40 L 127.07 120.09 L 127.60 120.40 L 128.13 120.09 L 128.13 119.49 L 127.60 119.18 L 127.60 118.57 L 128.13 118.27 L 128.13 117.66 L 127.60 117.35 L 127.07 117.66 L 127.07 118.27 L 126.54 118.57 L 126.02 118.27 L 126.02 117.66 L 125.49 117.35 L 124.96 117.66 L 124.43 117.35 L 124.43 116.75 L 124.96 116.44 L 125.49 116.75 L 126.02 116.44 L 126.02 115.83 L 126.54 115.53 L 127.07 115.83 L 127.07 116.44 L 127.60 116.75 L 128.13 116.44 L 128.13 115.83 L 127.60 115.53 L 127.60 114.92 L 128.13 114.61 L 128.13 114.01 L 127.60 113.70 L 127.07 114.01 L 126.54 113.70 L 126.54 113.09 L 127.07 112.79 L 127.60 113.09 L 128.13 112.79 L 128.13 112.18 L 127.60 111.87 L 127.60 111.27 L 128.13 110.96 L 128.13 110.35 L 127.60 110.05 L 127.07 110.35 L 127.07 110.96 L 126.54 111.27 L 126.02 110.96 L 125.49 111.27 L 125.49 111.87 L 126.02 112.18 L 126.02 112.79 L 125.49 113.09 L 124.96 112.79 L 124.96 112.18 L 124.43 111.87 L 123.91 112.18 L 123.91 112.79 L 123.38 113.09 L 122.85 112.79 L 122.32 113.09 L 122.32 113.70 L 122.85 114.01 L 123.38 113.70 L 123.91 114.01 L 123.91 114.61 L 123.38 114.92 L 123.38 115.53 L 123.91 115.83 L 123.91 116.44 L 123.38 116.75 L 122.85 116.44 L 122.85 115.83 L 122.32 115.53 L 121.80 115.83 L 121.27 115.53 L 121.27 114.92 L 121.80 114.61 L 121.80 114.01 L 121.27 113.70 L 120.74 114.01 L 120.74 114.61 L 120.21 114.92 L 119.69 114.61 L 119.16 114.92 L 119.16 115.53 L 119.69 115.83 L 119.69 116.44 L 119.16 116.75 L 118.63 116.44 L 118.63 115.83 L 118.11 115.53 L 117.58 115.83 L 117.58 116.44 L 117.05 116.75 L 116.52 116.44 L 116.00 116.75 L 116.00 117.35 L 116.52 117.66 L 117.05 117.35 L 117.58 117.66 L 117.58 118.27 L 118.11 118.57 L 118.63 118.27 L 118.63 117.66 L 119.16 117.35 L 119.69 117.66 L 119.69 118.27 L 119.16 118.57 L 119.16 119.18 L 119.69 119.49 L 119.69 120.09 L 119.16 120.40 L 118.63 120.09 L 118.11 120.40 L 118.11 121.01 L 118.63 121.31 L 119.16 121.01 L 119.69 121.31 L 119.69 121.92 L 119.16 122.23 L 119.16 122.83 L 119.69 123.14 L 119.69 123.75 L 119.16 124.05 L 118.63 123.75 L 118.63 123.14 L 118.11 122.83 L 117.58 123.14 L 117.05 122.83 L 117.05 122.23 L 117.58 121.92 L 117.58 121.31 L 117.05 121.01 L 116.52 121.31 L 116.52 121.92 L 116.00 122.23 L 115.47 121.92 L 115.47 121.31 L 114.94 121.01 L 114.41 121.31 L 113.89 121.01 L 113.89 120.40 L 114.41 120.09 L 114.94 120.40 L 115.47 120.09 L 115.47 119.49 L 114.94 119.18 L 114.94 118.57 L 115.47 118.27 L 115.47 117.66 L 114.94 117.35 L 114.41 117.66 L 114.41 118.27 L 113.89 118.57 L 113.36 118.27 L 112.83 118.57 L 112.83 119.18 L 113.36 119.49 L 113.36 120.09 L 112.83 120.40 L 112.30 120.09 L 112.30 119.49 L 111.78 119.18 L 111.25 119.49 L 111.25 120.09 L 110.72 120.40 L 110.20 120.09 L 109.67 120.40 L 109.67 121.01 L 110.20 121.31 L 110.72 121.01 L 111.25 121.31 L 111.25 121.92 L 110.72 122.23 L 110.72 122.83 L 111.25 123.14 L 111.25 123.75 L 110.72 124.05 L 110.20 123.75 L 110.20 123.14 L 109.67 122.83 L 109.14 123.14 L 108.61 122.83 L 108.61 122.23 L 109.14 121.92 L 109.14 121.31 L 108.61 121.01 L 108.09 121.31 L 108.09 121.92 L 107.56 122.23 L 107.03 121.92 L 106.50 122.23 L 106.50 122.83 L 107.03 123.14 L 107.03 123.75 L 106.50 124.05 L 105.98 123.75 L 105.98 123.14 L 105.45 122.83 L 104.92 123.14 L 104.92 123.75 L 104.39 124.05 L 103.87 123.75 L 103.34 124.05 L 103.34 124.66 L 103.87 124.97 L 104.39 124.66 L 104.92 124.97 L 104.92 125.57 L 105.45 125.88 L 105.98 125.57 L 105.98 124.97 L 106.50 124.66 L 107.03 124.97 L 107.03 125.57 L 106.50 125.88 L 106.50 126.49 L 107.03 126.79 L 107.56 126.49 L 108.09 126.79 L 108.09 127.40 L 108.61 127.71 L 109.14 127.40 L 109.14 126.79 L 108.61 126.49 L 108.61 125.88 L 109.14 125.57 L 109.67 125.88 L 110.20 125.57 L 110.20 124.97 L 110.72 124.66 L 111.25 124.97 L 111.25 125.57 L 110.72 125.88 L 110.72 126.49 L 111.25 126.79 L 111.25 127.40 L 110.72 127.71 L 110.20 127.40 L 109.67 127.71 L 109.67 128.31 L 110.20 128.62 L 110.72 128.32 L 111.25 128.62 L 111.25 129.23 L 110.72 129.53 L 110.72 130.14 L 111.25 130.45 L 111.25 131.06 L 110.72 131.36 L 110.20 131.06 L 110.20 130.45 L 109.67 130.14 L 109.14 130.45 L 109.14 131.06 L 108.61 131.36 L 108.09 131.06 L 107.56 131.36 L 107.56 131.97 L 108.09 132.27 L 108.61 131.97 L 109.14 132.27 L 109.14 132.88 L 109.67 133.19 L 110.20 132.88 L 110.20 132.27 L 110.72 131.97 L 111.25 132.27 L 111.25 132.88 L 110.72 133.19 L 110.72 133.80 L 111.25 134.10 L 111.25 134.71 L 110.72 135.01 L 110.20 134.71 L 109.67 135.01 L 109.67 135.62 L 110.20 135.93 L 110.72 135.62 L 111.25 135.93 L 111.25 136.54 L 110.72 136.84 L 110.72 137.45 L 111.25 137.75 L 111.25 138.36 L 110.72 138.67 L 110.20 138.36 L 110.20 137.75 L 109.67 137.45 L 109.14 137.75 L 108.61 137.45 L 108.61 136.84 L 109.14 136.54 L 109.14 135.93 L 108.61 135.62 L 108.09 135.93 L 108.09 136.54 L 107.56 136.84 L 107.03 136.54 L 107.03 135.93 L 106.50 135.62 L 105.98 135.93 L 105.45 135.62 L 105.45 135.01 L 105.98 134.71 L 106.50 135.01 L 107.03 134.71 L 107.03 134.10 L 106.50 133.80 L 106.50 133.19 L 107.03 132.88 L 107.03 132.27 L 106.50 131.97 L 105.98 132.27 L 105.98 132.88 L 105.45 133.19 L 104.92 132.88 L 104.39 133.19 L 104.39 133.80 L 104.92 134.10 L 104.92 134.71 L 104.39 135.01 L 103.87 134.71 L 103.87 134.10 L 103.34 133.80 L 102.81 134.10 L 102.29 133.80 L 102.29 133.19 L 102.81 132.88 L 102.81 132.27 L 102.29 131.97 L 101.76 132.27 L 101.76 132.88 L 101.23 133.19 L 100.70 132.88 L 100.70 132.27 L 100.18 131.97 L 99.65 132.27 L 99.12 131.97 L 99.12 131.36 L 99.65 131.06 L 100.18 131.36 L 100.70 131.06 L 100.70 130.45 L 101.23 130.14 L 101.76 130.45 L 101.76 131.06 L 102.29 131.36 L 102.81 131.06 L 102.81 130.45 L 102.29 130.14 L 102.29 129.53 L 102.81 129.23 L 102.81 128.62 L 102.29 128.31 L 101.76 128.62 L 101.23 128.31 L 101.23 127.71 L 101.76 127.40 L 102.29 127.71 L 102.81 127.40 L 102.81 126.79 L 102.29 126.49 L 102.29 125.88 L 102.81 125.57 L 102.81 124.97 L 102.29 124.66 L 101.76 124.97 L 101.76 125.57 L 101.23 125.88 L 100.70 125.57 L 100.18 125.88 L 100.18 126.49 L 100.70 126.79 L 100.70 127.40 L 100.18 127.71 L 99.65 127.40 L 99.65 126.79 L 99.12 126.49 L 98.59 126.79 L 98.59 127.40 L 98.07 127.71 L 97.54 127.40 L 97.01 127.71 L 97.01 128.31 L 97.54 128.62 L 98.07 128.32 L 98.59 128.62 L 98.59 129.23 L 98.07 129.53 L 98.07 130.14 L 98.59 130.45 L 98.59 131.06 L 98.07 131.36 L 97.54 131.06 L 97.54 130.45 L 97.01 130.14 L 96.48 130.45 L 95.96 130.14 L 95.96 129.53 L 96.48 129.23 L 96.48 128.62 L 95.96 128.32 L 95.43 128.62 L 95.43 129.23 L 94.90 129.53 L 94.38 129.23 L 93.85 129.53 L 93.85 130.14 L 94.38 130.45 L 94.38 131.06 L 93.85 131.36 L 93.32 131.06 L 93.32 130.45 L 92.79 130.14 L 92.27 130.45 L 92.27 131.06 L 91.74 131.36 L 91.21 131.06 L 90.68 131.36 L 90.68 131.97 L 91.21 132.27 L 91.74 131.97 L 92.27 132.27 L 92.27 132.88 L 92.79 133.19 L 93.32 132.88 L 93.32 132.27 L 93.85 131.97 L 94.38 132.27 L 94.38 132.88 L 93.85 133.19 L 93.85 133.80 L 94.38 134.10 L 94.38 134.71 L 93.85 135.01 L 93.32 134.71 L 92.79 135.01 L 92.79 135.62 L 93.32 135.93 L 93.85 135.62 L 94.38 135.93 L 94.38 136.54 L 93.85 136.84 L 93.85 137.45 L 94.38 137.75 L 94.38 138.36 L 93.85 138.67 L 93.32 138.36 L 93.32 137.75 L 92.79 137.45 L 92.27 137.75 L 91.74 137.45 L 91.74 136.84 L 92.27 136.54 L 92.27 135.93 L 91.74 135.62 L 91.21 135.93 L 91.21 136.54 L 90.68 136.84 L 90.16 136.54 L 90.16 135.93 L 89.63 135.62 L 89.10 135.93 L 88.57 135.62 L 88.57 135.01 L 89.10 134.71 L 89.63 135.01 L 90.16 134.71 L 90.16 134.10 L 89.63 133.80 L 89.63 133.19 L 90.16 132.88 L 90.16 132.27 L 89.63 131.97 L 89.10 132.27 L 89.10 132.88 L 88.57 133.19 L 88.05 132.88 L 87.52 133.19 L 87.52 133.80 L 88.05 134.10 L 88.05 134.71 L 87.52 135.01 L 86.99 134.71 L 86.99 134.10 L 86.46 133.80 L 85.94 134.10 L 85.94 134.71 L 85.41 135.01 L 84.88 134.71 L 84.36 135.01 L 84.36 135.62 L 84.88 135.93 L 85.41 135.62 L 85.94 135.93 L 85.94 136.54 L 85.41 136.84 L 85.41 137.45 L 85.94 137.75 L 85.94 138.36 L 85.41 138.67 L 84.88 138.36 L 84.88 137.75 L 84.36 137.45 L 83.83 137.75 L 83.30 137.45 L 83.30 136.84 L 83.83 136.54 L 83.83 135.93 L 83.30 135.62 L 82.77 135.93 L 82.77 136.54 L 82.25 136.84 L 81.72 136.54 L 81.19 136.84 L 81.19 137.45 L 81.72 137.75 L 81.72 138.36 L 81.19 138.67 L 80.66 138.36 L 80.66 137.75 L 80.14 137.45 L 79.61 137.75 L 79.61 138.36 L 79.08 138.67 L 78.55 138.36 L 78.03 138.67 L 78.03 139.28 L 78.55 139.58 L 79.08 139.28 L 79.61 139.58 L 79.61 140.19 L 80.14 140.49 L 80.66 140.19 L 80.66 139.58 L 81.19 139.28 L 81.72 139.58 L 81.72 140.19 L 81.19 140.49 L 81.19 141.10 L 81.72 141.41 L 82.25 141.10 L 82.77 141.41 L 82.77 142.02 L 83.30 142.32 L 83.83 142.02 L 83.83 141.41 L 83.30 141.10 L 83.30 140.49 L 83.83 140.19 L 84.36 140.49 L 84.88 140.19 L 84.88 139.58 L 85.41 139.28 L 85.94 139.58 L 85.94 140.19 L 85.41 140.49 L 85.41 141.10 L 85.94 141.41 L 85.94 142.02 L 85.41 142.32 L 84.88 142.02 L 84.36 142.32 L 84.36 142.93 L 84.88 143.23 L 85.41 142.93 L 85.94 143.23 L 85.94 143.84 L 86.46 144.15 L 86.99 143.84 L 86.99 143.23 L 87.52 142.93 L 88.05 143.23 L 88.05 143.84 L 87.52 144.15 L 87.52 144.76 L 88.05 145.06 L 88.57 144.76 L 89.10 145.06 L 89.10 145.67 L 89.63 145.97 L 90.16 145.67 L 90.16 145.06 L 89.63 144.76 L 89.63 144.15 L 90.16 143.84 L 90.16 143.23 L 89.63 142.93 L 89.10 143.23 L 88.57 142.93 L 88.57 142.32 L 89.10 142.02 L 89.63 142.32 L 90.16 142.02 L 90.16 141.41 L 90.68 141.10 L 91.21 141.41 L 91.21 142.02 L 91.74 142.32 L 92.27 142.02 L 92.27 141.41 L 91.74 141.10 L 91.74 140.49 L 92.27 140.19 L 92.79 140.49 L 93.32 140.19 L 93.32 139.58 L 93.85 139.28 L 94.38 139.58 L 94.38 140.19 L 93.85 140.49 L 93.85 141.10 L 94.38 141.41 L 94.38 142.02 L 93.85 142.32 L 93.32 142.02 L 92.79 142.32 L 92.79 142.93 L 93.32 143.23 L 93.85 142.93 L 94.38 143.23 L 94.38 143.84 L 93.85 144.15 L 93.85 144.76 L 94.38 145.06 L 94.38 145.67 L 93.85 145.97 L 93.32 145.67 L 93.32 145.06 L 92.79 144.76 L 92.27 145.06 L 92.27 145.67 L 91.74 145.97 L 91.21 145.67 L 90.68 145.97 L 90.68 146.58 L 91.21 146.89 L 91.74 146.58 L 92.27 146.89 L 92.27 147.50 L 92.79 147.80 L 93.32 147.50 L 93.32 146.89 L 93.85 146.58 L 94.38 146.89 L 94.38 147.50 L 93.85 147.80 L 93.85 148.41 L 94.38 148.71 L 94.90 148.41 L 95.43 148.71 L 95.43 149.32 L 95.96 149.63 L 96.48 149.32 L 96.48 148.71 L 95.96 148.41 L 95.96 147.80 L 96.48 147.50 L 97.01 147.80 L 97.54 147.50 L 97.54 146.89 L 98.07 146.58 L 98.59 146.89 L 98.59 147.50 L 98.07 147.80 L 98.07 148.41 L 98.59 148.71 L 98.59 149.32 L 98.07 149.63 L 97.54 149.32 L 97.01 149.63 L 97.01 150.24 L 97.54 150.54 L 98.07 150.24 L 98.59 150.54 L 98.59 151.15 L 99.12 151.45 L 99.65 151.15 L 99.65 150.54 L 100.18 150.24 L 100.70 150.54 L 100.70 151.15 L 100.18 151.45 L 100.18 152.06 L 100.70 152.37 L 101.23 152.06 L 101.76 152.37 L 101.76 152.98 L 102.29 153.28 L 102.81 152.98 L 102.81 152.37 L 102.29 152.06 L 102.29 151.45 L 102.81 151.15 L 102.81 150.54 L 102.29 150.24 L 101.76 150.54 L 101.23 150.24 L 101.23 149.63 L 101.76 149.32 L 102.29 149.63 L 102.81 149.32 L 102.81 148.71 L 102.29 148.41 L 102.29 147.80 L 102.81 147.50 L 102.81 146.89 L 102.29 146.58 L 101.76 146.89 L 101.76 147.50 L 101.23 147.80 L 100.70 147.50 L 100.70 146.89 L 100.18 146.58 L 99.65 146.89 L 99.12 146.58 L 99.12 145.97 L 99.65 145.67 L 100.18 145.97 L 100.70 145.67 L 100.70 145.06 L 101.23 144.76 L 101.76 145.06 L 101.76 145.67 L 102.29 145.97 L 102.81 145.67 L 102.81 145.06 L 102.29 144.76 L 102.29 144.15 L 102.81 143.84 L 103.34 144.15 L 103.87 143.84 L 103.87 143.23 L 104.39 142.93 L 104.92 143.23 L 104.92 143.84 L 104.39 144.15 L 104.39 144.76 L 104.92 145.06 L 105.45 144.76 L 105.98 145.06 L 105.98 145.67 L 106.50 145.97 L 107.03 145.67 L 107.03 145.06 L 106.50 144.76 L 106.50 144.15 L 107.03 143.84 L 107.03 143.23 L 106.50 142.93 L 105.98 143.23 L 105.45 142.93 L 105.45 142.32 L 105.98 142.02 L 106.50 142.32 L 107.03 142.02 L 107.03 141.41 L 107.56 141.10 L 108.09 141.41 L 108.09 142.02 L 108.61 142.32 L 109.14 142.02 L 109.14 141.41 L 108.61 141.10 L 108.61 140.49 L 109.14 140.19 L 109.67 140.49 L 110.20 140.19 L 110.20 139.58 L 110.72 139.28 L 111.25 139.58 L 111.25 140.19 L 110.72 140.49 L 110.72 141.10 L 111.25 141.41 L 111.25 142.02 L 110.72 142.32 L 110.20 142.02 L 109.67 142.32 L 109.67 142.93 L 110.20 143.23 L 110.72 142.93 L 111.25 143.23 L 111.25 143.84 L 110.72 144.15 L 110.72 144.76 L 111.25 145.06 L 111.25 145.67 L 110.72 145.97 L 110.20 145.67 L 110.20 145.06 L 109.67 144.76 L 109.14 145.06 L 109.14 145.67 L 108.61 145.97 L 108.09 145.67 L 107.56 145.97 L 107.56 146.58 L 108.09 146.89 L 108.61 146.58 L 109.14 146.89 L 109.14 147.50 L 109.67 147.80 L 110.20 147.50 L 110.20 146.89 L 110.72 146.58 L 111.25 146.89 L 111.25 147.50 L 110.72 147.80 L 110.72 148.41 L 111.25 148.71 L 111.25 149.32 L 110.72 149.63 L 110.20 149.32 L 109.67 149.63 L 109.67 150.24 L 110.20 150.54 L 110.72 150.24 L 111.25 150.54 L 111.25 151.15 L 110.72 151.45 L 110.72 152.06 L 111.25 152.37 L 111.25 152.98 L 110.72 153.28 L 110.20 152.98 L 110.20 152.37 L 109.67 152.06 L 109.14 152.37 L 108.61 152.06 L 108.61 151.45 L 109.14 151.15 L 109.14 150.54 L 108.61 150.24 L 108.09 150.54 L 108.09 151.15 L 107.56 151.45 L 107.03 151.15 L 106.50 151.45 L 106.50 152.06 L 107.03 152.37 L 107.03 152.98 L 106.50 153.28 L 105.98 152.98 L 105.98 152.37 L 105.45 152.06 L 104.92 152.37 L 104.92 152.98 L 104.39 153.28 L 103.87 152.98 L 103.34 153.28 L 103.34 153.89 L 103.87 154.19 L 104.39 153.89 L 104.92 154.19 L 104.92 154.80 L 105.45 155.11 L 105.98 154.80 L 105.98 154.19 L 106.50 153.89 L 107.03 154.19 L 107.03 154.80 L 106.50 155.11 L 106.50 155.72 L 107.03 156.02 L 107.56 155.72 L 108.09 156.02 L 108.09 156.63 L 108.61 156.93 L 109.14 156.63 L 109.14 156.02 L 108.61 155.72 L 108.61 155.11 L 109.14 154.80 L 109.67 155.11 L 110.20 154.80 L 110.20 154.19 L 110.72 153.89 L 111.25 154.19 L 111.25 154.80 L 110.72 155.11 L 110.72 155.72 L 111.25 156.02 L 111.25 156.63 L 110.72 156.93 L 110.20 156.63 L 109.67 156.93 L 109.67 157.54 L 110.20 157.85 L 110.72 157.54 L 111.25 157.85 L 111.25 158.46 L 111.78 158.76 L 112.30 158.46 L 112.30 157.85 L 112.83 157.54 L 113.36 157.85 L 113.36 158.46 L 112.83 158.76 L 112.83 159.37 L 113.36 159.67 L 113.89 159.37 L 114.41 159.67 L 114.41 160.28 L 114.94 160.59 L 115.47 160.28 L 115.47 159.67 L 114.94 159.37 L 114.94 158.76 L 115.47 158.46 L 115.47 157.85 L 114.94 157.54 L 114.41 157.85 L 113.89 157.54 L 113.89 156.93 L 114.41 156.63 L 114.94 156.93 L 115.47 156.63 L 115.47 156.02 L 116.00 155.72 L 116.52 156.02 L 116.52 156.63 L 117.05 156.93 L 117.58 156.63 L 117.58 156.02 L 117.05 155.72 L 117.05 155.11 L 117.58 154.80 L 118.11 155.11 L 118.63 154.80 L 118.63 154.19 L 119.16 153.89 L 119.69 154.19 L 119.69 154.80 L 119.16 155.11 L 119.16 155.72 L 119.69 156.02 L 119.69 156.63 L 119.16 156.93 L 118.63 156.63 L 118.11 156.93 L 118.11 157.54 L 118.63 157.85 L 119.16 157.54 L 119.69 157.85 L 119.69 158.46 L 119.16 158.76 L 119.16 159.37 L 119.69 159.67 L 119.69 160.28 L 119.16 160.59 L 118.63 160.28 L 118.63 159.67 L 118.11 159.37 L 117.58 159.67 L 117.58 160.28 L 117.05 160.59 L 116.52 160.28 L 116.00 160.59 L 116.00 161.20 L 116.52 161.50 L 117.05 161.20 L 117.58 161.50 L 117.58 162.11 L 118.11 162.41 L 118.63 162.11 L 118.63 161.50 L 119.16 161.20 L 119.69 161.50 L 119.69 162.11 L 119.16 162.41 L 119.16 163.02 L 119.69 163.33 L 120.21 163.02 L 120.74 163.33 L 120.74 163.94 L 121.27 164.24 L 121.80 163.94 L 121.80 163.33 L 121.27 163.02 L 121.27 162.41 L 121.80 162.11 L 122.32 162.41 L 122.85 162.11 L 122.85 161.50 L 123.38 161.20 L 123.91 161.50 L 123.91 162.11 L 123.38 162.41 L 123.38 163.02 L 123.91 163.33 L 123.91 163.94 L 123.38 164.24 L 122.85 163.94 L 122.32 164.24 L 122.32 164.85 L 122.85 165.15 L 123.38 164.85 L 123.91 165.15 L 123.91 165.76 L 124.43 166.07 L 124.96 165.76 L 124.96 165.15 L 125.49 164.85 L 126.02 165.15 L 126.02 165.76 L 125.49 166.07 L 125.49 166.68 L 126.02 166.98 L 126.54 166.68 L 127.07 166.98 L 127.07 167.59 L 127.60 167.90 L 128.13 167.59 L 128.13 166.98 L 127.60 166.68 L 127.60 166.07 L 128.13 165.76 L 128.13 165.15 L 127.60 164.85 L 127.07 165.15 L 126.54 164.85 L 126.54 164.24 L 127.07 163.94 L 127.60 164.24 L 128.13 163.94 L 128.13 163.33 L 127.60 163.02 L 127.60 162.41 L 128.13 162.11 L 128.13 161.50 L 127.60 161.20 L 127.07 161.50 L 127.07 162.11 L 126.54 162.41 L 126.02 162.11 L 126.02 161.50 L 125.49 161.20 L 124.96 161.50 L 124.43 161.20 L 124.43 160.59 L 124.96 160.28 L 125.49 160.59 L 126.02 160.28 L 126.02 159.67 L 126.54 159.37 L 127.07 159.67 L 127.07 160.28 L 127.60 160.59 L 128.13 160.28 L 128.13 159.67 L 127.60 159.37 L 127.60 158.76 L 128.13 158.46 L 128.13 157.85 L 127.60 157.54 L 127.07 157.85 L 126.54 157.54 L 126.54 156.93 L 127.07 156.63 L 127.60 156.93 L 128.13 156.63 L 128.13 156.02 L 127.60 155.72 L 127.60 155.11 L 128.13 154.80 L 128.13 154.19 L 127.60 153.89 L 127.07 154.19 L 127.07 154.80 L 126.54 155.11 L 126.02 154.80 L 125.49 155.11 L 125.49 155.72 L 126.02 156.02 L 126.02 156.63 L 125.49 156.93 L 124.96 156.63 L 124.96 156.02 L 124.43 155.72 L 123.91 156.02 L 123.38 155.72 L 123.38 155.11 L 123.91 154.80 L 123.91 154.19 L 123.38 153.89 L 122.85 154.19 L 122.85 154.80 L 122.32 155.11 L 121.80 154.80 L 121.80 154.19 L 121.27 153.89 L 120.74 154.19 L 120.21 153.89 L 120.21 153.28 L 120.74 152.98 L 121.27 153.28 L 121.80 152.98 L 121.80 152.37 L 122.32 152.06 L 122.85 152.37 L 122.85 152.98 L 123.38 153.28 L 123.91 152.98 L 123.91 152.37 L 123.38 152.06 L 123.38 151.45 L 123.91 151.15 L 124.43 151.45 L 124.96 151.15 L 124.96 150.54 L 125.49 150.24 L 126.02 150.54 L 126.02 151.15 L 125.49 151.45 L 125.49 152.06 L 126.02 152.37 L 126.54 152.06 L 127.07 152.37 L 127.07 152.98 L 127.60 153.28 L 128.13 152.98 L 128.13 152.37 L 127.60 152.06 L 127.60 151.45 L 128.13 151.15 L 128.13 150.54 L 127.60 150.24 L 127.07 150.54 L 126.54 150.24 L 126.54 149.63 L 127.07 149.32 L 127.60 149.63 L 128.13 149.32 L 128.13 148.71 L 128.65 148.41 L 129.18 148.71 L 129.18 149.32 L 129.71 149.63 L 130.23 149.32 L 130.23 148.71 L 129.71 148.41 L 129.71 147.80 L 130.23 147.50 L 130.76 147.80 L 131.29 147.50 L 131.29 146.89 L 131.82 146.58 L 132.34 146.89 L 132.34 147.50 L 131.82 147.80 L 131.82 148.41 L 132.34 148.71 L 132.34 149.32 L 131.82 149.63 L 131.29 149.32 L 130.76 149.63 L 130.76 150.24 L 131.29 150.54 L 131.82 150.24 L 132.34 150.54 L 132.34 151.15 L 132.87 151.45 L 133.40 151.15 L 133.40 150.54 L 133.93 150.24 L 134.45 150.54 L 134.45 151.15 L 133.93 151.45 L 133.93 152.06 L 134.45 152.37 L 134.98 152.06 L 135.51 152.37 L 135.51 152.98 L 136.04 153.28 L 136.56 152.98 L 136.56 152.37 L 136.04 152.06 L 136.04 151.45 L 136.56 151.15 L 136.56 150.54 L 136.04 150.24 L 135.51 150.54 L 134.98 150.24 L 134.98 149.63 L 135.51 149.32 L 136.04 149.63 L 136.56 149.32 L 136.56 148.71 L 136.04 148.41 L 136.04 147.80 L 136.56 147.50 L 136.56 146.89 L 136.04 146.58 L 135.51 146.89 L 135.51 147.50 L 134.98 147.80 L 134.45 147.50 L 134.45 146.89 L 133.93 146.58 L 133.40 146.89 L 132.87 146.58 L 132.87 145.97 L 133.40 145.67 L 133.93 145.97 L 134.45 145.67 L 134.45 145.06 L 134.98 144.76 L 135.51 145.06 L 135.51 145.67 L 136.04 145.97 L 136.56 145.67 L 136.56 145.06 L 136.04 144.76 L 136.04 144.15 L 136.56 143.84 L 137.09 144.15 L 137.62 143.84 L 137.62 143.23 L 138.14 142.93 L 138.67 143.23 L 138.67 143.84 L 138.14 144.15 L 138.14 144.76 L 138.67 145.06 L 139.20 144.76 L 139.73 145.06 L 139.73 145.67 L 140.25 145.97 L 140.78 145.67 L 140.78 145.06 L 140.25 144.76 L 140.25 144.15 L 140.78 143.84 L 140.78 143.23 L 140.25 142.93 L 139.73 143.23 L 139.20 142.93 L 139.20 142.32 L 139.73 142.02 L 140.25 142.32 L 140.78 142.02 L 140.78 141.41 L 141.31 141.10 L 141.84 141.41 L 141.84 142.02 L 142.36 142.32 L 142.89 142.02 L 142.89 141.41 L 142.36 141.10 L 142.36 140.49 L 142.89 140.19 L 143.42 140.49 L 143.95 140.19 L 143.95 139.58 L 144.47 139.28 L 145.00 139.58 L 145.00 140.19 L 144.47 140.49 L 144.47 141.10 L 145.00 141.41 L 145.00 142.02 L 144.47 142.32 L 143.95 142.02 L 143.42 142.32 L 143.42 142.93 L 143.95 143.23 L 144.47 142.93 L 145.00 143.23 L 145.00 143.84 L 144.47 144.15 L 144.47 144.76 L 145.00 145.06 L 145.00 145.67 L 144.47 145.97 L 143.95 145.67 L 143.95 145.06 L 143.42 144.76 L 142.89 145.06 L 142.89 145.67 L 142.36 145.97 L 141.84 145.67 L 141.31 145.97 L 141.31 146.58 L 141.84 146.89 L 142.36 146.58 L 142.89 146.89 L 142.89 147.50 L 143.42 147.80 L 143.95 147.50 L 143.95 146.89 L 144.47 146.58 L 145.00 146.89 L 145.00 147.50 L 144.47 147.80 L 144.47 148.41 L 145.00 148.71 L 145.00 149.32 L 144.47 149.63 L 143.95 149.32 L 143.42 149.63 L 143.42 150.24 L 143.95 150.54 L 144.47 150.24 L 145.00 150.54 L 145.00 151.15 L 144.47 151.45 L 144.47 152.06 L 145.00 152.37 L 145.00 152.98 L 144.47 153.28 L 143.95 152.98 L 143.95 152.37 L 143.42 152.06 L 142.89 152.37 L 142.36 152.06 L 142.36 151.45 L 142.89 151.15 L 142.89 150.54 L 142.36 150.24 L 141.84 150.54 L 141.84 151.15 L 141.31 151.45 L 140.78 151.15 L 140.25 151.45 L 140.25 152.06 L 140.78 152.37 L 140.78 152.98 L 140.25 153.28 L 139.73 152.98 L 139.73 152.37 L 139.20 152.06 L 138.67 152.37 L 138.67 152.98 L 138.14 153.28 L 137.62 152.98 L 137.09 153.28 L 137.09 153.89 L 137.62 154.19 L 138.14 153.89 L 138.67 154.19 L 138.67 154.80 L 139.20 155.11 L 139.73 154.80 L 139.73 154.19 L 140.25 153.89 L 140.78 154.19 L 140.78 154.80 L 140.25 155.11 L 140.25 155.72 L 140.78 156.02 L 141.31 155.72 L 141.84 156.02 L 141.84 156.63 L 142.36 156.93 L 142.89 156.63 L 142.89 156.02 L 142.36 155.72 L 142.36 155.11 L 142.89 154.80 L 143.42 155.11 L 143.95 154.80 L 143.95 154.19 L 144.47 153.89 L 145.00 154.19 L 145.00 154.80 L 144.47 155.11 L 144.47 155.72 L 145.00 156.02 L 145.00 156.63 L 144.47 156.93 L 143.95 156.63 L 143.42 156.93 L 143.42 157.54 L 143.95 157.85 L 144.47 157.54 L 145.00 157.85 L 145.00 158.46 L 144.47 158.76 L 144.47 159.37 L 145.00 159.67 L 145.00 160.28 L 144.47 160.59 L 143.95 160.28 L 143.95 159.67 L 143.42 159.37 L 142.89 159.67 L 142.89 160.28 L 142.36 160.59 L 141.84 160.28 L 141.31 160.59 L 141.31 161.20 L 141.84 161.50 L 142.36 161.20 L 142.89 161.50 L 142.89 162.11 L 143.42 162.41 L 143.95 162.11 L 143.95 161.50 L 144.47 161.20 L 145.00 161.50 L 145.00 162.11 L 144.47 162.41 L 144.47 163.02 L 145.00 163.33 L 145.00 163.94 L 144.47 164.24 L 143.95 163.94 L 143.42 164.24 L 143.42 164.85 L 143.95 165.15 L 144.47 164.85 L 145.00 165.15 L 145.00 165.76 L 144.47 166.07 L 144.47 166.68 L 145.00 166.98 L 145.00 167.59 L 144.47 167.90 L 143.95 167.59 L 143.95 166.98 L 143.42 166.68 L 142.89 166.98 L 142.36 166.68 L 142.36 166.07 L 142.89 165.76 L 142.89 165.15 L 142.36 164.85 L 141.84 165.15 L 141.84 165.76 L 141.31 166.07 L 140.78 165.76 L 140.78 165.15 L 140.25 164.85 L 139.73 165.15 L 139.20 164.85 L 139.20 164.24 L 139.73 163.94 L 140.25 164.24 L 140.78 163.94 L 140.78 163.33 L 140.25 163.02 L 140.25 162.41 L 140.78 162.11 L 140.78 161.50 L 140.25 161.20 L 139.73 161.50 L 139.73 162.11 L 139.20 162.41 L 138.67 162.11 L 138.14 162.41 L 138.14 163.02 L 138.67 163.33 L 138.67 163.94 L 138.14 164.24 L 137.62 163.94 L 137.62 163.33 L 137.09 163.02 L 136.56 163.33 L 136.56 163.94 L 136.04 164.24 L 135.51 163.94 L 134.98 164.24 L 134.98 164.85 L 135.51 165.15 L 136.04 164.85 L 136.56 165.15 L 136.56 165.76 L 136.04 166.07 L 136.04 166.68 L 136.56 166.98 L 136.56 167.59 L 136.04 167.90 L 135.51 167.59 L 135.51 166.98 L 134.98 166.68 L 134.45 166.98 L 133.93 166.68 L 133.93 166.07 L 134.45 165.76 L 134.45 165.15 L 133.93 164.85 L 133.40 165.15 L 133.40 165.76 L 132.87 166.07 L 132.34 165.76 L 131.82 166.07 L 131.82 166.68 L 132.34 166.98 L 132.34 167.59 L 131.82 167.90 L 131.29 167.59 L 131.29 166.98 L 130.76 166.68 L 130.23 166.98 L 130.23 167.59 L 129.71 167.90 L 129.18 167.59 L 128.65 167.90 L 128.65 168.50 L 129.18 168.81 L 129.71 168.50 L 130.23 168.81 L 130.23 169.42 L 130.76 169.72 L 131.29 169.42 L 131.29 168.81 L 131.82 168.50 L 132.34 168.81 L 132.34 169.42 L 131.82 169.72 L 131.82 170.33 L 132.34 170.64 L 132.87 170.33 L 133.40 170.64 L 133.40 171.24 L 133.93 171.55 L 134.45 171.24 L 134.45 170.64 L 133.93 170.33 L 133.93 169.72 L 134.45 169.42 L 134.98 169.72 L 135.51 169.42 L 135.51 168.81 L 136.04 168.50 L 136.56 168.81 L 136.56 169.42 L 136.04 169.72 L 136.04 170.33 L 136.56 170.64 L 136.56 171.24 L 136.04 171.55 L 135.51 171.24 L 134.98 171.55 L 134.98 172.16 L 135.51 172.46 L 136.04 172.16 L 136.56 172.46 L 136.56 173.07 L 137.09 173.38 L 137.62 173.07 L 137.62 172.46 L 138.14 172.16 L 138.67 172.46 L 138.67 173.07 L 138.14 173.38 L 138.14 173.98 L 138.67 174.29 L 139.20 173.98 L 139.73 174.29 L 139.73 174.90 L 140.25 175.20 L 140.78 174.90 L 140.78 174.29 L 140.25 173.98 L 140.25 173.38 L 140.78 173.07 L 140.78 172.46 L 140.25 172.16 L 139.73 172.46 L 139.20 172.16 L 139.20 171.55 L 139.73 171.24 L 140.25 171.55 L 140.78 171.24 L 140.78 170.64 L 141.31 170.33 L 141.84 170.64 L 141.84 171.24 L 142.36 171.55 L 142.89 171.24 L 142.89 170.64 L 142.36 170.33 L 142.36 169.72 L 142.89 169.42 L 143.42 169.72 L 143.95 169.42 L 143.95 168.81 L 144.47 168.50 L 145.00 168.81 L 145.00 169.42 L 144.47 169.72 L 144.47 170.33 L 145.00 170.64 L 145.00 171.24 L 144.47 171.55 L 143.95 171.24 L 143.42 171.55 L 143.42 172.16 L 143.95 172.46 L 144.47 172.16 L 145.00 172.46 L 145.00 173.07 L 144.47 173.38 L 144.47 173.98 L 145.00 174.29 L 145.00 174.90 L 144.47 175.20 L 143.95 174.90 L 143.95 174.29 L 143.42 173.98 L 142.89 174.29 L 142.89 174.90 L 142.36 175.20 L 141.84 174.90 L 141.31 175.20 L 141.31 175.81 L 141.84 176.12 L 142.36 175.81 L 142.89 176.12 L 142.89 176.72 L 143.42 177.03 L 143.95 176.72 L 143.95 176.12 L 144.47 175.81 L 145.00 176.12 L 145.00 176.72 L 144.47 177.03 L 144.47 177.64 L 145.00 177.94" 
          fill="none" 
          stroke="currentColor" 
          stroke-width="0.5"/>
</svg>