<?xml version="1.0" encoding="UTF-8" standalone="no"?>
<svg width="100%" height="100%" viewBox="0 0 200 200" preserveAspectRatio="xMidYMid meet" xmlns="http://www.w3.org/2000/svg">
    <path d="M 100.00 100.00 L 99.82 100.00 L 99.81 99.97 L 100.00 100.00 L 100.00 100.00 L 100.00 100.00 L 99.81 99.94 L 99.81 99.91 L 100.00 100.00 L 100.00 100.00 L 99.82 99.88 L 99.83 99.85 L 100.00 100.00 L 100.00 100.00 L 99.85 99.82 L 99.88 99.79 L 100.00 100.00 L 100.00 99.99 L 99.91 99.76 L 99.94 99.74 L 100.00 99.99 L 100.00 99.99 L 99.98 99.72 L 100.02 99.71 L 100.00 99.99 L 100.00 99.99 L 100.07 99.71 L 100.11 99.71 L 100.01 99.98 L 100.01 99.98 L 100.16 99.72 L 100.21 99.74 L 100.01 99.98 L 100.02 99.98 L 100.25 99.77 L 100.29 99.80 L 100.02 99.98 L 100.03 99.99 L 100.33 99.84 L 100.36 99.89 L 100.04 99.99 L 100.04 99.99 L 100.39 99.94 L 100.40 100.00 L 100.05 100.00 L 100.05 100.01 L 100.41 100.06 L 100.41 100.13 L 100.05 100.02 L 100.05 100.03 L 100.40 100.19 L 100.38 100.26 L 100.05 100.04 L 100.05 100.05 L 100.35 100.32 L 100.30 100.38 L 100.05 100.06 L 100.04 100.07 L 100.25 100.43 L 100.19 100.48 L 100.03 100.08 L 100.02 100.09 L 100.12 100.52 L 100.04 100.54 L 100.01 100.10 L 99.99 100.10 L 99.96 100.56 L 99.87 100.56 L 99.98 100.11 L 99.96 100.11 L 99.78 100.55 L 99.70 100.52 L 99.94 100.11 L 99.92 100.10 L 99.61 100.48 L 99.53 100.43 L 99.90 100.09 L 99.88 100.08 L 99.46 100.37 L 99.40 100.29 L 99.86 100.07 L 99.84 100.05 L 99.34 100.20 L 99.31 100.11 L 99.83 100.03 L 99.82 100.00 L 99.28 100.00 L 99.27 99.89 L 99.81 99.97 L 99.81 99.94 L 99.28 99.78 L 99.30 99.67 L 99.81 99.91 L 99.82 99.88 L 99.35 99.55 L 99.41 99.45 L 99.84 99.85 L 99.85 99.82 L 99.49 99.35 L 99.58 99.27 L 99.88 99.79 L 99.91 99.76 L 99.68 99.20 L 99.80 99.14 L 99.94 99.74 L 99.98 99.72 L 99.93 99.10 L 100.07 99.08 L 100.02 99.71 L 100.07 99.71 L 100.21 99.08 L 100.35 99.11 L 100.11 99.71 L 100.16 99.72 L 100.49 99.15 L 100.62 99.22 L 100.21 99.74 L 100.25 99.77 L 100.75 99.31 L 100.86 99.41 L 100.29 99.80 L 100.33 99.84 L 100.96 99.54 L 101.03 99.68 L 100.36 99.89 L 100.39 99.94 L 101.09 99.84 L 101.12 100.00 L 100.41 100.00 L 100.41 100.06 L 101.13 100.17 L 101.12 100.34 L 100.41 100.13 L 100.40 100.19 L 101.07 100.52 L 101.00 100.68 L 100.38 100.26 L 100.35 100.32 L 100.90 100.84 L 100.79 100.98 L 100.30 100.38 L 100.25 100.43 L 100.64 101.11 L 100.48 101.21 L 100.19 100.48 L 100.12 100.52 L 100.29 101.29 L 100.10 101.35 L 100.04 100.54 L 99.96 100.56 L 99.90 101.37 L 99.69 101.36 L 99.87 100.56 L 99.78 100.55 L 99.48 101.32 L 99.28 101.25 L 99.70 100.52 L 99.61 100.49 L 99.08 101.15 L 98.91 101.02 L 99.53 100.43 L 99.46 100.37 L 98.74 100.85 L 98.61 100.67 L 99.40 100.29 L 99.35 100.20 L 98.50 100.46 L 98.42 100.24 L 99.30 100.10 L 99.28 100.00 L 98.38 100.00 L 98.37 99.76 L 99.27 99.89 L 99.28 99.78 L 98.40 99.50 L 98.47 99.27 L 99.30 99.66 L 99.35 99.56 L 98.58 99.03 L 98.72 98.81 L 99.41 99.45 L 99.48 99.36 L 98.89 98.61 L 99.10 98.44 L 99.58 99.27 L 99.68 99.20 L 99.34 98.29 L 99.58 98.19 L 99.80 99.14 L 99.93 99.10 L 99.86 98.12 L 100.14 98.09 L 100.07 99.08 L 100.21 99.08 L 100.43 98.11 L 100.72 98.16 L 100.35 99.11 L 100.49 99.15 L 101.00 98.27 L 101.26 98.41 L 100.63 99.22 L 100.75 99.31 L 101.51 98.60 L 101.72 98.82 L 100.86 99.41 L 100.96 99.54 L 101.91 99.09 L 102.05 99.36 L 101.03 99.68 L 101.09 99.83 L 102.15 99.68 L 102.20 100.00 L 101.13 100.00 L 101.13 100.17 L 102.21 100.33 L 102.17 100.66 L 101.12 100.35 L 101.07 100.52 L 102.07 101.00 L 101.92 101.31 L 101.00 100.68 L 100.91 100.84 L 101.72 101.61 L 101.49 101.86 L 100.78 100.98 L 100.64 101.11 L 101.21 102.10 L 100.90 102.28 L 100.47 101.21 L 100.30 101.29 L 100.55 102.42 L 100.19 102.51 L 100.10 101.35 L 99.90 101.37 L 99.80 102.54 L 99.43 102.52 L 99.69 101.36 L 99.48 101.32 L 99.04 102.43 L 98.68 102.29 L 99.28 101.25 L 99.09 101.15 L 98.33 102.09 L 98.01 101.84 L 98.90 101.01 L 98.75 100.86 L 97.73 101.54 L 97.50 101.21 L 98.61 100.67 L 98.50 100.46 L 97.31 100.82 L 97.19 100.43 L 98.42 100.24 L 98.38 100.00 L 97.12 99.99 L 97.12 99.57 L 98.37 99.75 L 98.40 99.51 L 97.18 99.13 L 97.31 98.71 L 98.47 99.26 L 98.57 99.03 L 97.51 98.30 L 97.76 97.93 L 98.72 98.81 L 98.89 98.61 L 98.07 97.58 L 98.43 97.30 L 99.10 98.44 L 99.33 98.30 L 98.85 97.05 L 99.28 96.89 L 99.59 98.19 L 99.86 98.12 L 99.76 96.78 L 100.24 96.74 L 100.15 98.09 L 100.43 98.10 L 100.74 96.78 L 101.22 96.89 L 100.72 98.17 L 100.99 98.27 L 101.69 97.07 L 102.13 97.32 L 101.27 98.42 L 101.51 98.60 L 102.54 97.66 L 102.88 98.03 L 101.72 98.83 L 101.90 99.08 L 103.18 98.47 L 103.41 98.95 L 102.05 99.37 L 102.15 99.67 L 103.57 99.47 L 103.64 100.00 L 102.21 100.00 L 102.21 100.33 L 103.64 100.55 L 103.56 101.09 L 102.16 100.67 L 102.07 100.99 L 103.39 101.64 L 103.15 102.13 L 101.92 101.31 L 101.73 101.60 L 102.81 102.62 L 102.42 103.03 L 101.48 101.87 L 101.21 102.09 L 101.96 103.40 L 101.45 103.68 L 100.89 102.28 L 100.56 102.42 L 100.89 103.90 L 100.31 104.03 L 100.18 102.51 L 99.81 102.54 L 99.68 104.07 L 99.09 104.02 L 99.42 102.51 L 99.05 102.43 L 98.47 103.87 L 97.90 103.64 L 98.67 102.29 L 98.33 102.10 L 97.35 103.32 L 96.86 102.92 L 98.01 101.84 L 97.74 101.55 L 96.42 102.44 L 96.06 101.90 L 97.49 101.20 L 97.31 100.83 L 95.78 101.29 L 95.59 100.67 L 97.19 100.42 L 97.12 100.00 L 95.50 99.99 L 95.51 99.34 L 97.12 99.57 L 97.18 99.14 L 95.62 98.64 L 95.83 97.99 L 97.31 98.70 L 97.50 98.31 L 96.14 97.36 L 96.54 96.80 L 97.76 97.92 L 98.07 97.59 L 97.03 96.28 L 97.59 95.84 L 98.44 97.29 L 98.84 97.06 L 98.24 95.48 L 98.90 95.23 L 99.29 96.88 L 99.75 96.78 L 99.64 95.07 L 100.36 95.03 L 100.24 96.74 L 100.73 96.78 L 101.13 95.10 L 101.85 95.28 L 101.23 96.89 L 101.68 97.07 L 102.56 95.57 L 103.22 95.96 L 102.14 97.33 L 102.52 97.64 L 103.82 96.46 L 104.34 97.03 L 102.89 98.04 L 103.18 98.47 L 104.79 97.71 L 105.11 98.41 L 103.41 98.95 L 103.57 99.46 L 105.34 99.21 L 105.44 99.98 L 103.64 100.00 L 103.64 100.54 L 105.43 100.83 L 105.29 101.63 L 103.56 101.11 L 103.39 101.62 L 105.03 102.43 L 104.66 103.17 L 103.14 102.15 L 102.82 102.60 L 104.17 103.87 L 103.58 104.47 L 102.42 103.04 L 101.96 103.39 L 102.88 105.01 L 102.14 105.42 L 101.44 103.69 L 100.89 103.90 L 101.30 105.73 L 100.46 105.91 L 100.30 104.03 L 99.70 104.07 L 99.55 105.96 L 98.66 105.87 L 99.07 104.02 L 98.49 103.88 L 97.78 105.65 L 96.94 105.31 L 97.89 103.64 L 97.36 103.33 L 96.15 104.83 L 95.44 104.24 L 96.85 102.91 L 96.42 102.44 L 94.80 103.52 L 94.31 102.76 L 96.06 101.89 L 95.78 101.31 L 93.90 101.87 L 93.65 100.98 L 95.59 100.66 L 95.50 100.01 L 93.52 99.99 L 93.54 99.03 L 95.51 99.31 L 95.61 98.66 L 93.71 98.06 L 94.02 97.13 L 95.83 97.98 L 96.13 97.38 L 94.47 96.23 L 95.05 95.43 L 96.55 96.79 L 97.03 96.28 L 95.78 94.68 L 96.56 94.08 L 97.60 95.84 L 98.22 95.49 L 97.49 93.57 L 98.43 93.23 L 98.91 95.23 L 99.62 95.08 L 99.49 93.01 L 100.52 92.96 L 100.39 95.03 L 101.11 95.10 L 101.59 93.07 L 102.61 93.33 L 101.86 95.28 L 102.55 95.56 L 103.61 93.75 L 104.52 94.30 L 103.23 95.97 L 103.82 96.45 L 105.39 95.03 L 106.09 95.83 L 104.35 97.04 L 104.78 97.69 L 106.71 96.79 L 107.15 97.77 L 105.11 98.42 L 105.34 99.19 L 107.47 98.88 L 107.60 100.00 L 105.45 100.01 L 105.43 100.81 L 107.57 101.15 L 107.38 102.27 L 105.29 101.64 L 105.04 102.41 L 107.00 103.37 L 106.48 104.40 L 104.65 103.18 L 104.17 103.86 L 105.77 105.38 L 104.97 106.20 L 103.57 104.48 L 102.90 105.00 L 103.99 106.94 L 102.97 107.49 L 102.13 105.43 L 101.32 105.73 L 101.80 107.91 L 100.62 108.15 L 100.43 105.91 L 99.57 105.96 L 99.38 108.21 L 98.17 108.08 L 98.65 105.87 L 97.80 105.66 L 96.95 107.77 L 95.81 107.29 L 96.93 105.30 L 96.15 104.83 L 94.71 106.60 L 93.77 105.81 L 95.43 104.23 L 94.82 103.54 L 92.90 104.82 L 92.23 103.77 L 94.30 102.74 L 93.91 101.89 L 91.68 102.55 L 91.34 101.31 L 93.64 100.94 L 93.52 100.02 L 91.18 99.99 L 91.22 98.69 L 93.54 99.01 L 93.70 98.08 L 91.46 97.36 L 91.88 96.11 L 94.03 97.11 L 94.47 96.24 L 92.53 94.88 L 93.30 93.81 L 95.06 95.41 L 95.76 94.69 L 94.29 92.81 L 95.35 92.01 L 96.58 94.07 L 97.47 93.58 L 96.61 91.33 L 97.91 90.87 L 98.47 93.22 L 99.46 93.02 L 99.30 90.60 L 100.70 90.53 L 100.54 92.96 L 101.56 93.06 L 102.13 90.68 L 103.50 91.04 L 102.63 93.33 L 103.61 93.75 L 104.86 91.63 L 106.06 92.37 L 104.54 94.32 L 105.37 95.01 L 107.20 93.34 L 108.14 94.42 L 106.10 95.84 L 106.70 96.76 L 108.96 95.70 L 109.55 97.05 L 107.17 97.81 L 107.46 98.86 L 109.95 98.51 L 110.12 99.99 L 107.61 100.01 L 107.58 101.12 L 110.08 101.52 L 109.80 103.00 L 107.37 102.28 L 107.00 103.37 L 109.29 104.50 L 108.59 105.83 L 106.47 104.42 L 105.79 105.36 L 107.65 107.12 L 106.58 108.20 L 104.95 106.21 L 104.01 106.92 L 105.28 109.17 L 103.89 109.91 L 102.92 107.51 L 101.82 107.91 L 102.38 110.45 L 100.82 110.75 L 100.59 108.15 L 99.41 108.21 L 99.19 110.81 L 97.59 110.64 L 98.14 108.08 L 96.95 107.77 L 95.96 110.21 L 94.50 109.58 L 95.79 107.28 L 94.73 106.62 L 93.05 108.67 L 91.83 107.63 L 93.75 105.80 L 92.92 104.85 L 90.70 106.32 L 89.81 104.91 L 92.20 103.73 L 91.69 102.58 L 89.12 103.35 L 88.68 101.72 L 91.33 101.29 L 91.18 100.03 L 89.83 100.01 L 88.48 100.00 L 88.54 98.29 L 89.88 98.48 L 91.22 98.66 L 91.46 97.37 L 90.16 96.95 L 88.87 96.53 L 89.42 94.94 L 90.66 95.51 L 91.89 96.09 L 92.51 94.90 L 91.39 94.12 L 90.27 93.34 L 91.28 91.96 L 92.30 92.88 L 93.31 93.79 L 94.26 92.83 L 93.42 91.74 L 92.57 90.66 L 93.99 89.61 L 94.69 90.79 L 95.40 91.98 L 96.58 91.35 L 96.09 90.05 L 95.60 88.76 L 97.28 88.16 L 97.61 89.51 L 97.93 90.86 L 99.27 90.60 L 99.18 89.21 L 99.09 87.82 L 100.90 87.75 L 100.81 89.14 L 100.72 90.53 L 102.12 90.68 L 102.45 89.32 L 102.78 87.96 L 104.51 88.42 L 104.02 89.74 L 103.52 91.05 L 104.83 91.61 L 105.55 90.40 L 106.27 89.19 L 107.81 90.15 L 106.94 91.27 L 106.08 92.38 L 107.18 93.32 L 108.23 92.37 L 109.28 91.41 L 110.50 92.83 L 109.34 93.65 L 108.17 94.46 L 108.94 95.67 L 110.23 95.06 L 111.53 94.46 L 112.28 96.20 L 110.92 96.63 L 109.56 97.07 L 109.94 98.47 L 111.37 98.27 L 112.79 98.07 L 113.00 99.98 L 111.56 100.00 L 110.13 100.01 L 110.08 101.51 L 111.50 101.75 L 112.93 101.98 L 112.57 103.85 L 111.19 103.44 L 109.80 103.03 L 109.30 104.47 L 110.60 105.11 L 111.90 105.76 L 111.01 107.46 L 109.79 106.65 L 108.58 105.85 L 107.67 107.09 L 108.73 108.10 L 109.79 109.11 L 108.39 110.51 L 107.46 109.37 L 106.53 108.24 L 105.31 109.15 L 106.03 110.43 L 106.75 111.71 L 104.98 112.65 L 104.43 111.28 L 103.87 109.92 L 102.42 110.43 L 102.73 111.88 L 103.04 113.33 L 101.05 113.70 L 100.92 112.23 L 100.79 110.75 L 99.20 110.81 L 99.06 112.30 L 98.93 113.78 L 96.94 113.55 L 97.25 112.09 L 97.56 110.64 L 96.00 110.22 L 95.44 111.61 L 94.87 112.99 L 93.02 112.18 L 93.75 110.87 L 94.48 109.56 L 93.09 108.70 L 92.13 109.86 L 91.18 111.03 L 89.60 109.66 L 90.69 108.62 L 91.78 107.58 L 90.72 106.36 L 89.46 107.19 L 88.20 108.03 L 87.08 106.24 L 88.44 105.57 L 89.79 104.89 L 89.13 103.39 L 87.67 103.82 L 86.21 104.25 L 85.66 102.19 L 87.17 101.94 L 88.67 101.69 L 88.48 100.01 L 86.95 99.98 L 85.42 99.96 L 85.50 97.85 L 87.02 98.06 L 88.54 98.27 L 88.86 96.58 L 87.39 96.11 L 85.93 95.63 L 86.65 93.58 L 88.05 94.23 L 89.45 94.88 L 90.24 93.38 L 88.97 92.49 L 87.70 91.60 L 89.02 89.83 L 90.17 90.87 L 91.32 91.91 L 92.56 90.67 L 91.61 89.44 L 90.65 88.21 L 92.41 86.92 L 93.21 88.26 L 94.01 89.60 L 95.58 88.76 L 95.03 87.30 L 94.48 85.83 L 96.55 85.11 L 96.93 86.64 L 97.30 88.16 L 99.06 87.82 L 98.97 86.25 L 98.87 84.68 L 101.14 84.60 L 101.04 86.18 L 100.95 87.75 L 102.72 87.95 L 103.09 86.41 L 103.46 84.87 L 105.67 85.47 L 105.12 86.95 L 104.56 88.44 L 106.24 89.17 L 107.06 87.81 L 107.87 86.44 L 109.79 87.65 L 108.82 88.91 L 107.84 90.17 L 109.25 91.39 L 110.44 90.32 L 111.63 89.24 L 113.15 91.03 L 111.84 91.95 L 110.53 92.87 L 111.51 94.42 L 112.96 93.75 L 114.42 93.07 L 115.36 95.24 L 113.83 95.74 L 112.30 96.23 L 112.79 98.07 L 114.39 97.85 L 115.99 97.64 L 116.24 99.96 L 114.62 99.99 L 113.01 100.01 L 112.93 101.93 L 114.54 102.20 L 116.14 102.47 L 115.68 104.84 L 114.12 104.38 L 112.56 103.92 L 111.93 105.71 L 113.39 106.44 L 114.85 107.17 L 113.70 109.32 L 112.34 108.42 L 110.97 107.52 L 109.83 109.07 L 111.02 110.20 L 112.21 111.33 L 110.46 113.07 L 109.41 111.79 L 108.37 110.52 L 106.77 111.70 L 107.57 113.15 L 108.38 114.59 L 106.22 115.72 L 105.59 114.19 L 104.96 112.66 L 103.06 113.32 L 103.41 114.94 L 103.76 116.57 L 101.28 117.02 L 101.14 115.37 L 100.99 113.71 L 99.00 113.78 L 98.86 115.44 L 98.71 117.10 L 96.19 116.81 L 96.54 115.18 L 96.88 113.54 L 94.90 113.01 L 94.26 114.56 L 93.63 116.11 L 91.33 115.09 L 92.15 113.63 L 92.97 112.16 L 91.21 111.05 L 90.14 112.35 L 89.07 113.65 L 87.12 111.95 L 88.34 110.79 L 89.56 109.63 L 88.23 108.06 L 86.81 109.00 L 85.40 109.93 L 84.02 107.71 L 85.54 106.96 L 87.06 106.20 L 86.23 104.29 L 84.60 104.77 L 82.96 105.25 L 82.29 102.70 L 83.97 102.42 L 85.66 102.14 L 85.42 100.01 L 83.71 99.99 L 82.00 99.96 L 82.11 97.36 L 83.81 97.58 L 85.51 97.81 L 85.91 95.68 L 84.28 95.15 L 82.64 94.62 L 83.55 92.09 L 85.11 92.81 L 86.67 93.54 L 87.68 91.65 L 86.26 90.65 L 84.85 89.66 L 86.47 87.49 L 87.76 88.64 L 89.04 89.80 L 90.61 88.24 L 89.55 86.86 L 88.49 85.49 L 90.66 83.91 L 91.55 85.40 L 92.45 86.90 L 94.43 85.86 L 93.81 84.22 L 93.20 82.59 L 95.82 81.69 L 96.23 83.39 L 96.64 85.09 L 98.82 84.69 L 98.71 82.93 L 98.61 81.18 L 101.40 81.10 L 101.29 82.85 L 101.18 84.60 L 103.45 84.87 L 103.87 83.16 L 104.30 81.45 L 106.95 82.18 L 106.33 83.83 L 105.72 85.48 L 107.83 86.41 L 108.74 84.89 L 109.65 83.38 L 111.99 84.87 L 110.91 86.27 L 109.83 87.68 L 111.59 89.21 L 112.91 88.01 L 114.24 86.82 L 116.09 89.01 L 114.63 90.04 L 113.18 91.06 L 114.40 93.02 L 116.02 92.27 L 117.64 91.51 L 118.78 94.17 L 117.08 94.73 L 115.38 95.28 L 115.98 97.58 L 117.76 97.34 L 119.54 97.11 L 119.84 99.95 L 118.04 99.98 L 116.25 100.01 L 116.15 102.41 L 117.93 102.71 L 119.71 103.00 L 119.14 105.90 L 117.40 105.39 L 115.67 104.88 L 114.87 107.12 L 116.50 107.93 L 118.12 108.74 L 116.71 111.36 L 115.19 110.36 L 113.68 109.36 L 112.21 111.33 L 113.52 112.59 L 114.84 113.85 L 112.75 115.91 L 111.58 114.50 L 110.42 113.10 L 108.42 114.56 L 109.31 116.16 L 110.20 117.76 L 107.57 119.12 L 106.87 117.43 L 106.17 115.74 L 103.81 116.55 L 104.19 118.35 L 104.57 120.15 L 101.57 120.70 L 101.40 118.86 L 101.24 117.03 L 98.77 117.11 L 98.60 118.95 L 98.44 120.79 L 95.38 120.42 L 95.76 118.61 L 96.14 116.80 L 93.68 116.13 L 92.97 117.84 L 92.27 119.56 L 89.49 118.32 L 90.39 116.70 L 91.29 115.07 L 89.12 113.69 L 87.93 115.13 L 86.74 116.57 L 84.38 114.50 L 85.73 113.21 L 87.08 111.92 L 85.44 109.98 L 83.87 111.01 L 82.31 112.05 L 80.64 109.35 L 82.32 108.51 L 84.00 107.67 L 82.96 105.26 L 81.16 105.78 L 79.35 106.30 L 78.57 103.28 L 80.42 102.97 L 82.28 102.65 L 82.00 100.02 L 80.11 99.99 L 78.22 99.96 L 78.37 96.74 L 80.25 96.99 L 82.12 97.25 L 82.63 94.68 L 80.82 94.09 L 79.01 93.50 L 80.11 90.45 L 81.84 91.24 L 83.57 92.04 L 84.81 89.71 L 83.25 88.61 L 81.69 87.51 L 83.66 84.89 L 85.08 86.17 L 86.50 87.45 L 88.44 85.53 L 87.28 84.01 L 86.11 82.49 L 88.72 80.59 L 89.71 82.24 L 90.70 83.88 L 93.14 82.61 L 92.47 80.81 L 91.80 79.00 L 94.95 77.93 L 95.41 79.81 L 95.87 81.68 L 98.54 81.19 L 98.43 79.26 L 98.31 77.33 L 101.67 77.23 L 101.56 79.17 L 101.45 81.10 L 104.23 81.43 L 104.70 79.55 L 105.16 77.66 L 108.36 78.55 L 107.68 80.37 L 107.00 82.20 L 109.59 83.34 L 110.59 81.67 L 111.60 80.00 L 114.47 81.85 L 113.28 83.39 L 112.09 84.94 L 114.19 86.78 L 115.65 85.47 L 117.11 84.16 L 119.33 86.79 L 117.73 87.92 L 116.12 89.06 L 117.61 91.45 L 119.40 90.63 L 121.18 89.80 L 122.54 93.00 L 120.67 93.61 L 118.80 94.23 L 119.53 97.04 L 121.49 96.78 L 123.45 96.52 L 123.80 99.93 L 121.82 99.97 L 119.85 100.01 L 119.72 102.94 L 121.67 103.27 L 123.63 103.60 L 122.94 107.06 L 121.03 106.51 L 119.12 105.95 L 118.15 108.68 L 119.93 109.57 L 121.71 110.47 L 120.02 113.60 L 118.35 112.51 L 116.68 111.41 L 114.88 113.80 L 116.33 115.19 L 117.77 116.58 L 115.26 119.04 L 113.98 117.49 L 112.70 115.95 L 110.26 117.72 L 111.24 119.48 L 112.21 121.24 L 108.99 122.90 L 108.23 121.04 L 107.46 119.17 L 104.64 120.13 L 105.06 122.11 L 105.48 124.09 L 101.88 124.73 L 101.70 122.72 L 101.51 120.70 L 98.44 120.79 L 98.25 122.81 L 98.06 124.83 L 94.49 124.39 L 94.90 122.40 L 95.32 120.41 L 92.33 119.59 L 91.56 121.47 L 90.78 123.35 L 87.46 121.86 L 88.45 120.08 L 89.43 118.29 L 86.80 116.61 L 85.50 118.19 L 84.20 119.77 L 81.39 117.30 L 82.86 115.88 L 84.34 114.46 L 82.35 112.11 L 80.63 113.23 L 78.92 114.36 L 76.94 111.15 L 78.78 110.22 L 80.62 109.30 L 79.37 106.38 L 77.39 106.95 L 75.41 107.52 L 74.48 103.91 L 76.52 103.57 L 78.55 103.22 L 78.22 100.03 L 76.15 99.99 L 74.08 99.96 L 74.27 96.13 L 76.32 96.40 L 78.38 96.68 L 78.99 93.57 L 77.02 92.93 L 75.04 92.28 L 76.35 88.65 L 78.25 89.52 L 80.14 90.39 L 81.69 87.52 L 79.99 86.31 L 78.29 85.10 L 80.58 82.06 L 82.14 83.45 L 83.70 84.85 L 86.05 82.54 L 84.77 80.88 L 83.49 79.21 L 86.61 76.97 L 87.69 78.76 L 88.78 80.56 L 91.72 79.03 L 90.99 77.06 L 90.26 75.09 L 94.00 73.82 L 94.51 75.87 L 95.01 77.92 L 98.24 77.34 L 98.11 75.23 L 97.99 73.12 L 101.98 73.01 L 101.86 75.12 L 101.74 77.24 L 105.09 77.65 L 105.60 75.59 L 106.11 73.53 L 109.90 74.59 L 109.16 76.58 L 108.42 78.57 L 111.53 79.96 L 112.63 78.13 L 113.73 76.31 L 117.13 78.50 L 115.83 80.19 L 114.53 81.89 L 117.05 84.10 L 118.64 82.67 L 120.24 81.25 L 122.86 84.37 L 121.12 85.61 L 119.37 86.85 L 121.18 89.79 L 123.13 88.90 L 125.09 88.01 L 126.65 91.71 L 124.61 92.39 L 122.57 93.06 L 123.44 96.44 L 125.58 96.16 L 127.71 95.88 L 128.12 100.00 L 125.97 100.04 L 123.81 100.07 L 123.64 103.51 L 125.78 103.88 L 127.91 104.24 L 127.09 108.33 L 125.00 107.73 L 122.92 107.13 L 121.74 110.39 L 123.69 111.37 L 125.63 112.35 L 123.62 116.04 L 121.80 114.85 L 119.98 113.66 L 117.83 116.51 L 119.40 118.03 L 120.97 119.55 L 118.00 122.44 L 116.60 120.76 L 115.21 119.08 L 112.28 121.20 L 113.34 123.11 L 114.40 125.03 L 110.61 126.98 L 109.77 124.95 L 108.93 122.92 L 105.56 124.07 L 106.01 126.22 L 106.46 128.37 L 102.22 129.12 L 102.02 126.93 L 101.81 124.74 L 98.15 124.83 L 97.94 127.03 L 97.73 129.23 L 93.52 128.70 L 93.97 126.54 L 94.42 124.37 L 90.86 123.38 L 90.01 125.43 L 89.16 127.47 L 85.18 125.68 L 86.26 123.73 L 87.33 121.79 L 84.27 119.82 L 82.85 121.53 L 81.42 123.25 L 78.13 120.34 L 79.73 118.79 L 81.34 117.24 L 78.97 114.43 L 77.10 115.66 L 75.23 116.88 L 72.92 113.11 L 74.92 112.10 L 76.91 111.09 L 75.43 107.60 L 73.28 108.22 L 71.12 108.84 L 70.05 104.60 L 72.26 104.22 L 74.47 103.84 L 74.08 100.05 L 71.83 100.00 L 69.58 99.96 L 69.81 95.47 L 72.04 95.76 L 74.28 96.06 L 75.02 92.37 L 72.87 91.66 L 70.72 90.95 L 72.27 86.70 L 74.33 87.64 L 76.39 88.58 L 78.24 85.18 L 76.39 83.86 L 74.54 82.54 L 77.24 78.99 L 78.94 80.50 L 80.63 82.01 L 83.42 79.27 L 82.04 77.46 L 80.66 75.66 L 84.39 72.98 L 85.57 74.93 L 86.74 76.88 L 90.17 75.12 L 89.38 72.98 L 88.58 70.84 L 92.97 69.37 L 93.52 71.59 L 94.08 73.81 L 97.98 73.12 L 97.86 70.83 L 97.74 68.53 L 102.30 68.43 L 102.18 70.72 L 102.05 73.01 L 106.02 73.51 L 106.58 71.27 L 107.14 69.04 L 111.56 70.29 L 110.76 72.45 L 109.97 74.61 L 113.65 76.26 L 114.84 74.29 L 116.04 72.31 L 120.00 74.88 L 118.60 76.71 L 117.19 78.55 L 120.17 81.18 L 121.90 79.63 L 123.63 78.09 L 126.69 81.74 L 124.80 83.08 L 122.91 84.43 L 125.04 87.92 L 127.16 86.96 L 129.28 85.99 L 131.10 90.32 L 128.89 91.05 L 126.68 91.79 L 127.70 95.78 L 130.02 95.48 L 132.33 95.18 L 132.80 99.99 L 130.47 100.03 L 128.13 100.08 L 127.93 104.14 L 130.24 104.54 L 132.55 104.93 L 131.58 109.70 L 129.32 109.05 L 127.07 108.40 L 125.63 112.34 L 127.73 113.41 L 129.83 114.47 L 127.53 118.68 L 125.55 117.39 L 123.58 116.11 L 121.03 119.47 L 122.73 121.12 L 124.43 122.76 L 120.97 126.13 L 119.45 124.31 L 117.94 122.50 L 114.49 124.98 L 115.63 127.06 L 116.78 129.14 L 112.35 131.39 L 111.44 129.20 L 110.53 127.01 L 106.56 128.35 L 107.04 130.68 L 107.52 133.01 L 102.60 133.87 L 102.37 131.50 L 102.14 129.13 L 97.83 129.23 L 97.60 131.61 L 97.37 133.99 L 92.48 133.37 L 92.96 131.03 L 93.44 128.68 L 89.25 127.51 L 88.33 129.72 L 87.41 131.94 L 82.79 129.84 L 83.95 127.74 L 85.11 125.64 L 81.51 123.31 L 79.97 125.16 L 78.43 127.01 L 74.61 123.62 L 76.34 121.95 L 78.07 120.28 L 75.24 116.89 L 73.21 118.21 L 71.19 119.52 L 68.57 115.22 L 70.73 114.13 L 72.88 113.03 L 71.16 108.93 L 68.82 109.60 L 66.49 110.26 L 65.23 105.24 L 67.62 104.83 L 70.01 104.42 L 69.58 100.06 L 67.15 100.01 L 64.72 99.96 L 64.99 94.76 L 67.40 95.07 L 69.82 95.38 L 70.69 91.06 L 68.38 90.29 L 66.06 89.52 L 67.86 84.60 L 70.08 85.61 L 72.31 86.62 L 74.48 82.63 L 72.49 81.21 L 70.50 79.78 L 73.63 75.67 L 75.46 77.29 L 77.30 78.92 L 80.57 75.72 L 79.08 73.77 L 77.59 71.82 L 81.92 68.73 L 83.19 70.83 L 84.47 72.93 L 88.48 70.88 L 87.63 68.56 L 86.78 66.25 L 91.86 64.56 L 92.46 66.95 L 93.06 69.34 L 97.63 68.54 L 97.50 66.07 L 97.37 63.60 L 102.65 63.49 L 102.52 65.96 L 102.39 68.43 L 107.03 69.02 L 107.64 66.61 L 108.24 64.20 L 113.46 65.69 L 112.60 68.02 L 111.74 70.35 L 115.94 72.25 L 117.23 70.12 L 118.52 67.99 L 123.10 70.97 L 121.59 72.95 L 120.08 74.93 L 123.56 78.01 L 125.42 76.34 L 127.29 74.68 L 130.82 78.90 L 128.78 80.36 L 126.75 81.81 L 129.23 85.89 L 131.52 84.85 L 133.80 83.82 L 135.89 88.82 L 133.51 89.61 L 131.13 90.41 L 132.31 95.07 L 134.81 94.75 L 137.31 94.43 L 137.84 99.98 L 135.33 100.03 L 132.81 100.08 L 132.56 104.82 L 135.05 105.25 L 137.54 105.68 L 136.42 111.17 L 133.99 110.48 L 131.55 109.79 L 129.88 114.37 L 132.13 115.52 L 134.39 116.68 L 131.73 121.52 L 129.60 120.14 L 127.48 118.76 L 124.50 122.67 L 126.33 124.45 L 128.15 126.22 L 124.07 130.17 L 122.44 128.21 L 120.81 126.26 L 116.88 129.08 L 118.10 131.31 L 119.33 133.55 L 114.23 136.14 L 113.25 133.79 L 112.26 131.43 L 107.54 133.01 L 108.05 135.51 L 108.56 138.02 L 103.00 138.98 L 102.75 136.43 L 102.50 133.88 L 97.49 134.00 L 97.23 136.55 L 96.98 139.11 L 91.36 138.39 L 91.87 135.87 L 92.38 133.35 L 87.52 131.98 L 86.52 134.35 L 85.53 136.73 L 80.22 134.31 L 81.46 132.05 L 82.71 129.79 L 78.53 127.08 L 76.87 129.07 L 75.22 131.06 L 70.83 127.16 L 72.68 125.36 L 74.54 123.55 L 71.26 119.62 L 69.08 121.03 L 66.90 122.44 L 63.90 117.50 L 66.22 116.32 L 68.53 115.13 L 66.53 110.38 L 64.03 111.09 L 61.52 111.80 L 60.08 106.03 L 62.65 105.59 L 65.22 105.14 L 64.72 100.08 L 62.11 100.03 L 59.50 99.97 L 59.82 94.00 L 62.41 94.33 L 65.00 94.66 L 66.06 89.54 L 63.57 88.70 L 61.09 87.87 L 63.13 82.34 L 65.51 83.42 L 67.90 84.50 L 70.43 79.89 L 68.29 78.36 L 66.16 76.82 L 69.75 72.11 L 71.73 73.85 L 73.70 75.59 L 77.50 71.90 L 75.90 69.80 L 74.30 67.70 L 79.27 64.16 L 80.64 66.42 L 82.01 68.67 L 86.66 66.30 L 85.75 63.82 L 84.83 61.33 L 90.66 59.40 L 91.31 61.96 L 91.96 64.53 L 97.25 63.61 L 97.11 60.96 L 96.98 58.31 L 103.02 58.18 L 102.89 60.84 L 102.75 63.49 L 108.12 64.17 L 108.77 61.59 L 109.42 59.01 L 115.39 60.72 L 114.48 63.22 L 113.56 65.72 L 118.41 67.93 L 119.80 65.65 L 121.18 63.36 L 126.42 66.77 L 124.80 68.90 L 123.19 71.03 L 127.28 74.67 L 129.29 72.90 L 131.30 71.12 L 135.24 75.86 L 133.06 77.42 L 130.88 78.99 L 133.74 83.70 L 136.19 82.59 L 138.64 81.48 L 141.07 87.33 L 138.52 88.18 L 135.96 89.03 L 137.29 94.30 L 139.96 93.96 L 142.64 93.62 L 143.24 99.96 L 140.55 100.02 L 137.85 100.08 L 137.56 105.55 L 138.89 105.78 L 140.23 106.01 L 141.56 106.24 L 142.89 106.47 L 141.60 112.75 L 140.30 112.38 L 138.99 112.01 L 137.69 111.64 L 136.39 111.27 L 134.45 116.56 L 135.65 117.17 L 136.86 117.79 L 138.07 118.41 L 139.28 119.03 L 136.24 124.56 L 135.10 123.82 L 133.96 123.08 L 132.81 122.35 L 131.67 121.61 L 128.24 126.12 L 129.22 127.07 L 130.19 128.02 L 131.17 128.97 L 132.15 129.92 L 127.48 134.42 L 126.61 133.37 L 125.73 132.33 L 124.86 131.28 L 123.99 130.24 L 119.45 133.48 L 120.10 134.68 L 120.76 135.88 L 121.41 137.08 L 122.07 138.27 L 116.25 141.23 L 115.72 139.97 L 115.19 138.71 L 114.66 137.45 L 114.13 136.19 L 108.69 137.99 L 108.96 139.33 L 109.23 140.68 L 109.50 142.02 L 109.77 143.36 L 103.44 144.45 L 103.30 143.08 L 103.17 141.72 L 103.03 140.36 L 102.89 138.99 L 97.12 139.12 L 96.98 140.49 L 96.85 141.85 L 96.71 143.22 L 96.57 144.59 L 90.03 143.73 L 90.30 142.38 L 90.58 141.04 L 90.85 139.69 L 91.13 138.34 L 85.66 136.78 L 85.12 138.05 L 84.59 139.32 L 84.06 140.59 L 83.52 141.86 L 77.48 139.10 L 78.14 137.89 L 78.80 136.68 L 79.46 135.47 L 80.13 134.26 L 75.33 131.14 L 74.44 132.20 L 73.55 133.26 L 72.67 134.32 L 71.78 135.39 L 66.78 130.94 L 67.78 129.98 L 68.77 129.01 L 69.76 128.04 L 70.75 127.08 L 66.98 122.55 L 65.82 123.31 L 64.65 124.06 L 63.48 124.81 L 62.32 125.57 L 58.91 119.93 L 60.15 119.30 L 61.38 118.66 L 62.62 118.03 L 63.85 117.40 L 61.57 111.93 L 60.23 112.31 L 58.89 112.69 L 57.55 113.06 L 56.21 113.44 L 54.58 106.88 L 55.95 106.64 L 57.32 106.40 L 58.69 106.16 L 60.06 105.92 L 59.50 100.11 L 58.11 100.08 L 56.71 100.04 L 55.32 100.01 L 53.92 99.98 L 54.29 93.18 L 55.68 93.36 L 57.06 93.53 L 58.45 93.71 L 59.83 93.88 L 61.05 88.00 L 59.72 87.56 L 58.39 87.11 L 57.07 86.66 L 55.74 86.22 L 58.06 79.93 L 59.34 80.51 L 60.62 81.08 L 61.90 81.66 L 63.17 82.24 L 66.08 76.94 L 64.94 76.12 L 63.80 75.30 L 62.66 74.48 L 61.52 73.66 L 65.71 68.20 L 66.76 69.13 L 67.81 70.06 L 68.86 70.99 L 69.92 71.93 L 74.19 67.79 L 73.34 66.67 L 72.49 65.55 L 71.64 64.42 L 70.78 63.30 L 76.43 59.29 L 77.16 60.49 L 77.90 61.69 L 78.63 62.90 L 79.37 64.10 L 84.82 61.34 L 84.34 60.01 L 83.86 58.68 L 83.38 57.35 L 82.90 56.02 L 89.37 53.89 L 89.72 55.26 L 90.07 56.63 L 90.42 58.00 L 90.77 59.37 L 96.84 58.32 L 96.77 56.91 L 96.70 55.49 L 96.63 54.08 L 96.56 52.66 L 103.41 52.52 L 103.35 53.94 L 103.28 55.36 L 103.21 56.77 L 103.14 58.19 L 109.28 58.98 L 109.63 57.60 L 109.98 56.22 L 110.33 54.85 L 110.68 53.47 L 117.46 55.42 L 116.97 56.75 L 116.48 58.09 L 115.99 59.43 L 115.51 60.76 L 121.06 63.29 L 121.80 62.07 L 122.54 60.86 L 123.28 59.64 L 124.02 58.42 L 129.96 62.30 L 129.10 63.44 L 128.24 64.57 L 127.38 65.71 L 126.52 66.85 L 131.20 71.02 L 132.27 70.07 L 133.35 69.13 L 134.42 68.18 L 135.49 67.24 L 139.95 72.61 L 138.79 73.45 L 137.63 74.28 L 136.47 75.12 L 135.31 75.96 L 138.58 81.35 L 139.88 80.76 L 141.19 80.17 L 142.50 79.58 L 143.81 78.99 L 146.55 85.62 L 145.19 86.08 L 143.83 86.53 L 142.47 86.99 L 141.11 87.44 L 142.61 93.47 L 144.04 93.29 L 145.47 93.11 L 146.90 92.93 L 148.32 92.75 L 149.00 99.94 L 147.56 99.97 L 146.13 100.01 L 144.69 100.04 L 143.25 100.08 L 142.89 106.46 L 144.32 106.71 L 145.74 106.96 L 147.16 107.22 L 148.58 107.47 L 147.13 114.42 L 145.74 114.03 L 144.35 113.64 L 142.96 113.25 L 141.57 112.86 L 139.34 118.89 L 140.63 119.56 L 141.92 120.22 L 143.20 120.88 L 144.49 121.54 L 141.04 127.80 L 139.82 127.01 L 138.61 126.23 L 137.39 125.45 L 136.17 124.66 L 132.25 129.80 L 133.29 130.82 L 134.33 131.83 L 135.37 132.84 L 136.41 133.86 L 131.12 138.95 L 130.19 137.84 L 129.25 136.73 L 128.32 135.61 L 127.39 134.50 L 122.20 138.19 L 122.90 139.47 L 123.59 140.75 L 124.29 142.03 L 124.99 143.31 L 118.40 146.64 L 117.84 145.30 L 117.27 143.96 L 116.70 142.62 L 116.13 141.27 L 109.92 143.33 L 110.21 144.76 L 110.49 146.19 L 110.78 147.62 L 111.07 149.06 L 103.90 150.28 L 103.76 148.82 L 103.61 147.37 L 103.46 145.91 L 103.31 144.46 L 96.73 144.60 L 96.58 146.05 L 96.44 147.51 L 96.29 148.97 L 96.14 150.43 L 88.74 149.45 L 89.03 148.01 L 89.32 146.58 L 89.61 145.14 L 89.90 143.70 L 83.67 141.92 L 83.10 143.27 L 82.53 144.63 L 81.96 145.98 L 81.39 147.33 L 74.56 144.21 L 75.26 142.91 L 75.96 141.62 L 76.67 140.33 L 77.37 139.04 L 71.79 135.39 L 70.84 136.52 L 69.89 137.65 L 68.94 138.77 L 67.99 139.90 L 62.48 134.97 L 63.53 133.94 L 64.59 132.91 L 65.64 131.88 L 66.70 130.85 L 62.41 125.69 L 61.17 126.49 L 59.93 127.29 L 58.68 128.09 L 57.44 128.89 L 53.53 122.38 L 54.84 121.71 L 56.16 121.04 L 57.47 120.36 L 58.79 119.69 L 56.26 113.59 L 54.83 113.99 L 53.41 114.39 L 51.98 114.80 L 50.55 115.20 L 48.71 107.78 L 50.17 107.52 L 51.63 107.27 L 53.09 107.01 L 54.55 106.75 L 53.92 100.14 L 52.44 100.10 L 50.95 100.07 L 49.47 100.03 L 47.98 99.99 L 48.40 92.32 L 49.88 92.51 L 51.36 92.69 L 52.83 92.87 L 54.31 93.05 L 55.69 86.37 L 54.28 85.89 L 52.87 85.42 L 51.46 84.94 L 50.05 84.46 L 52.68 77.37 L 54.04 77.98 L 55.40 78.59 L 56.76 79.20 L 58.12 79.81 L 61.43 73.80 L 60.22 72.92 L 59.00 72.05 L 57.79 71.18 L 56.58 70.30 L 61.31 64.14 L 62.43 65.13 L 63.55 66.12 L 64.67 67.11 L 65.80 68.10 L 70.66 63.41 L 69.76 62.21 L 68.85 61.02 L 67.95 59.82 L 67.04 58.62 L 73.41 54.10 L 74.19 55.38 L 74.98 56.66 L 75.76 57.94 L 76.54 59.22 L 82.75 56.08 L 82.23 54.67 L 81.72 53.26 L 81.21 51.84 L 80.70 50.43 L 88.01 48.03 L 88.38 49.49 L 88.75 50.94 L 89.13 52.40 L 89.50 53.86 L 96.39 52.68 L 96.32 51.17 L 96.25 49.66 L 96.17 48.16 L 96.10 46.65 L 104.00 46.51 L 103.92 48.02 L 103.85 49.53 L 103.77 51.03 L 103.70 52.54 L 110.52 53.44 L 110.89 51.97 L 111.27 50.51 L 111.64 49.04 L 112.02 47.58 L 119.65 49.78 L 119.13 51.20 L 118.62 52.62 L 118.10 54.04 L 117.58 55.46 L 123.88 58.34 L 124.67 57.05 L 125.46 55.75 L 126.25 54.46 L 127.04 53.17 L 133.73 57.54 L 132.81 58.75 L 131.90 59.96 L 130.98 61.17 L 130.07 62.38 L 135.38 67.12 L 136.52 66.11 L 137.66 65.11 L 138.80 64.11 L 139.95 63.10 L 144.96 69.15 L 143.73 70.05 L 142.50 70.94 L 141.26 71.83 L 140.03 72.72 L 143.73 78.84 L 145.12 78.22 L 146.51 77.59 L 147.90 76.97 L 149.29 76.34 L 152.38 83.80 L 150.93 84.29 L 149.49 84.78 L 148.04 85.27 L 146.60 85.75 L 148.30 92.59 L 149.81 92.40 L 151.33 92.21 L 152.85 92.02 L 154.37 91.83 L 155.12 99.91 L 153.59 99.95 L 152.06 99.99 L 150.54 100.03 L 149.01 100.08 L 148.60 107.30 L 150.11 107.57 L 151.62 107.84 L 153.13 108.11 L 154.64 108.38 L 153.00 116.20 L 151.52 115.79 L 150.05 115.38 L 148.57 114.97 L 147.09 114.56 L 144.56 121.38 L 145.93 122.09 L 147.30 122.79 L 148.66 123.50 L 150.03 124.20 L 146.05 131.38 L 144.76 130.55 L 143.47 129.71 L 142.17 128.88 L 140.88 128.04 L 136.52 133.73 L 137.62 134.81 L 138.72 135.89 L 139.83 136.96 L 140.93 138.04 L 134.98 143.76 L 133.99 142.58 L 133.00 141.40 L 132.00 140.22 L 131.01 139.04 L 125.00 143.30 L 125.74 144.66 L 126.47 146.02 L 127.21 147.38 L 127.94 148.74 L 120.69 152.39 L 120.08 150.97 L 119.48 149.54 L 118.88 148.12 L 118.27 146.70 L 111.24 149.01 L 111.54 150.53 L 111.84 152.05 L 112.15 153.58 L 112.45 155.10 L 104.40 156.46 L 104.24 154.92 L 104.08 153.37 L 103.92 151.83 L 103.76 150.29 L 96.32 150.44 L 96.16 151.98 L 96.00 153.53 L 95.84 155.08 L 95.69 156.62 L 87.37 155.52 L 87.68 154.00 L 87.99 152.47 L 88.29 150.95 L 88.60 149.42 L 81.55 147.39 L 80.95 148.83 L 80.34 150.27 L 79.73 151.70 L 79.12 153.14 L 71.46 149.62 L 72.21 148.25 L 72.95 146.88 L 73.69 145.51 L 74.43 144.14 L 68.13 140.01 L 67.12 141.20 L 66.11 142.40 L 65.11 143.59 L 64.10 144.79 L 57.92 139.25 L 59.03 138.16 L 60.15 137.06 L 61.26 135.97 L 62.38 134.87 L 57.54 129.04 L 56.22 129.89 L 54.91 130.73 L 53.59 131.58 L 52.27 132.43 L 47.88 125.12 L 49.28 124.41 L 50.67 123.69 L 52.07 122.97 L 53.46 122.25 L 50.61 115.37 L 49.09 115.79 L 47.58 116.21 L 46.07 116.64 L 44.55 117.06 L 42.50 108.74 L 44.04 108.47 L 45.59 108.19 L 47.14 107.91 L 48.69 107.64 L 47.98 100.01 L 46.40 99.96 L 44.83 99.92 L 43.25 99.87 L 41.68 99.83 L 42.16 91.41 L 43.73 91.60 L 45.29 91.79 L 46.86 91.99 L 48.42 92.18 L 50.00 84.64 L 48.50 84.13 L 47.00 83.62 L 45.51 83.11 L 44.01 82.60 L 46.96 74.66 L 48.41 75.31 L 49.85 75.95 L 51.29 76.59 L 52.74 77.24 L 56.48 70.46 L 55.19 69.53 L 53.91 68.60 L 52.62 67.67 L 51.34 66.74 L 56.65 59.85 L 57.84 60.89 L 59.03 61.94 L 60.22 62.99 L 61.41 64.03 L 66.90 58.74 L 65.94 57.47 L 64.98 56.20 L 64.03 54.94 L 63.07 53.67 L 70.21 48.61 L 71.04 49.96 L 71.87 51.32 L 72.71 52.67 L 73.54 54.03 L 80.53 50.50 L 79.99 49.00 L 79.45 47.50 L 78.91 46.00 L 78.37 44.50 L 86.55 41.82 L 86.95 43.36 L 87.35 44.91 L 87.75 46.45 L 88.15 47.99 L 95.92 46.67 L 95.84 45.07 L 95.77 43.48 L 95.69 41.88 L 95.62 40.29 L 104.46 40.14 L 104.38 41.73 L 104.30 43.33 L 104.23 44.93 L 104.15 46.52 L 111.84 47.54 L 112.23 45.99 L 112.63 44.43 L 113.03 42.88 L 113.43 41.33 L 121.97 43.80 L 121.42 45.31 L 120.88 46.81 L 120.34 48.32 L 119.79 49.83 L 127.03 53.16 L 127.87 51.79 L 128.71 50.42 L 129.56 49.06 L 130.40 47.69 L 137.71 52.49 L 136.74 53.78 L 135.78 55.06 L 134.81 56.34 L 133.85 57.63 L 139.82 62.97 L 141.03 61.91 L 142.24 60.84 L 143.45 59.78 L 144.66 58.72 L 150.37 65.65 L 149.07 66.59 L 147.76 67.53 L 146.45 68.48 L 145.15 69.42 L 149.21 76.17 L 150.68 75.51 L 152.16 74.85 L 153.63 74.19 L 155.10 73.53 L 158.55 81.88 L 157.02 82.40 L 155.49 82.91 L 153.96 83.43 L 152.43 83.95 L 154.33 91.64 L 155.94 91.44 L 157.55 91.25 L 159.15 91.05 L 160.76 90.85 L 161.60 99.88 L 159.98 99.93 L 158.36 99.98 L 156.75 100.02 L 155.13 100.07 L 154.66 108.20 L 156.26 108.48 L 157.86 108.77 L 159.46 109.06 L 161.05 109.35 L 159.22 118.08 L 157.65 117.65 L 156.09 117.22 L 154.52 116.79 L 152.96 116.35 L 150.11 124.03 L 151.56 124.78 L 153.00 125.52 L 154.45 126.27 L 155.90 127.02 L 151.45 135.03 L 150.08 134.15 L 148.71 133.27 L 147.34 132.39 L 145.97 131.51 L 141.06 137.90 L 142.22 139.04 L 143.39 140.18 L 144.56 141.32 L 145.72 142.47 L 139.08 148.85 L 138.02 147.60 L 136.97 146.36 L 135.92 145.11 L 134.86 143.86 L 128.11 148.64 L 128.88 150.08 L 129.66 151.52 L 130.44 152.96 L 131.21 154.41 L 123.11 158.48 L 122.47 156.97 L 121.83 155.46 L 121.19 153.96 L 120.54 152.45 L 112.64 155.05 L 112.96 156.66 L 113.28 158.27 L 113.60 159.88 L 113.92 161.49 L 104.73 163.02 L 104.57 161.39 L 104.40 159.76 L 104.23 158.12 L 104.07 156.49 L 95.88 156.64 L 95.71 158.27 L 95.54 159.91 L 95.38 161.54 L 95.21 163.18 L 85.93 161.94 L 86.25 160.33 L 86.57 158.72 L 86.90 157.10 L 87.22 155.49 L 79.31 153.21 L 78.66 154.73 L 78.02 156.24 L 77.38 157.76 L 76.73 159.28 L 68.19 155.35 L 68.97 153.90 L 69.76 152.45 L 70.54 151.00 L 71.32 149.54 L 64.25 144.91 L 63.19 146.17 L 62.12 147.43 L 61.05 148.69 L 59.98 149.95 L 53.09 143.78 L 54.27 142.62 L 55.45 141.46 L 56.63 140.30 L 57.80 139.14 L 52.38 132.59 L 50.99 133.49 L 49.59 134.38 L 48.19 135.27 L 46.80 136.17 L 41.91 128.02 L 43.39 127.26 L 44.86 126.50 L 46.33 125.74 L 47.81 124.98 L 44.61 117.25 L 43.01 117.69 L 41.41 118.14 L 39.81 118.59 L 38.21 119.03 L 35.92 109.76 L 37.56 109.47 L 39.20 109.17 L 40.83 108.88 L 42.47 108.58 L 41.68 100.03 L 40.01 99.98 L 38.35 99.93 L 36.68 99.88 L 35.02 99.83 L 35.56 90.45 L 37.22 90.65 L 38.87 90.85 L 40.53 91.05 L 42.18 91.25 L 43.95 82.80 L 42.37 82.26 L 40.79 81.72 L 39.21 81.18 L 37.63 80.64 L 41.01 71.61 L 42.53 72.29 L 44.06 72.98 L 45.58 73.66 L 47.11 74.34 L 51.23 66.91 L 49.87 65.93 L 48.51 64.95 L 47.16 63.97 L 45.80 62.98 L 51.71 55.31 L 52.98 56.41 L 54.24 57.51 L 55.50 58.62 L 56.76 59.72 L 63.05 53.68 L 62.05 52.34 L 61.04 50.99 L 60.04 49.65 L 59.03 48.30 L 66.82 42.81 L 67.70 44.24 L 68.58 45.66 L 69.47 47.09 L 70.35 48.52 L 78.19 44.58 L 77.62 42.99 L 77.05 41.41 L 76.48 39.82 L 75.91 38.24 L 85.02 35.26 L 85.44 36.89 L 85.87 38.52 L 86.29 40.15 L 86.72 41.78 L 95.41 40.31 L 95.33 38.62 L 95.26 36.93 L 95.18 35.25 L 95.10 33.56 L 104.94 33.40 L 104.86 35.09 L 104.78 36.77 L 104.70 38.46 L 104.63 40.15 L 113.23 41.29 L 113.65 39.65 L 114.07 38.01 L 114.50 36.37 L 114.92 34.73 L 124.41 37.48 L 123.84 39.08 L 123.27 40.67 L 122.70 42.27 L 122.13 43.86 L 130.22 47.59 L 131.11 46.15 L 132.00 44.70 L 132.90 43.26 L 133.79 41.82 L 141.91 47.16 L 140.89 48.52 L 139.88 49.88 L 138.86 51.24 L 137.84 52.60 L 144.52 58.57 L 145.80 57.45 L 147.08 56.33 L 148.36 55.21 L 149.64 54.09 L 155.99 61.80 L 154.61 62.80 L 153.23 63.79 L 151.85 64.79 L 150.47 65.79 L 155.01 73.34 L 156.57 72.65 L 158.12 71.95 L 159.68 71.26 L 161.24 70.56 L 165.06 79.84 L 163.44 80.39 L 161.83 80.94 L 160.21 81.49 L 158.60 82.04 L 160.76 90.83 L 162.46 90.63 L 164.15 90.43 L 165.85 90.22 L 167.55 90.02 L 168.44 99.85 L 166.73 99.90 L 165.02 99.95 L 163.32 100.00 L 161.61 100.06 L 161.08 109.14 L 162.77 109.44 L 164.46 109.75 L 166.14 110.06 L 167.83 110.36 L 165.78 120.07 L 164.13 119.61 L 162.48 119.16 L 160.82 118.71 L 159.17 118.25 L 155.99 126.82 L 157.51 127.61 L 159.04 128.40 L 160.56 129.19 L 162.09 129.99 L 157.14 138.88 L 155.69 137.96 L 154.24 137.03 L 152.80 136.10 L 151.35 135.18 L 145.86 142.31 L 147.09 143.51 L 148.32 144.72 L 149.55 145.93 L 150.78 147.14 L 143.40 154.22 L 142.29 152.91 L 141.17 151.59 L 140.06 150.28 L 138.94 148.96 L 131.40 154.29 L 132.21 155.82 L 133.03 157.34 L 133.85 158.86 L 134.66 160.38 L 125.67 164.89 L 124.99 163.30 L 124.31 161.72 L 123.63 160.13 L 122.95 158.54 L 114.13 161.44 L 114.46 163.13 L 114.79 164.83 L 115.13 166.53 L 115.46 168.23 L 105.28 169.93 L 105.10 168.21 L 104.92 166.48 L 104.74 164.76 L 104.56 163.04 L 95.42 163.19 L 95.24 164.92 L 95.06 166.65 L 94.88 168.37 L 94.70 170.10 L 84.42 168.72 L 84.75 167.02 L 85.09 165.31 L 85.42 163.61 L 85.76 161.91 L 76.75 159.29 L 76.07 160.89 L 75.38 162.48 L 74.69 164.08 L 74.01 165.68 L 64.74 161.40 L 65.56 159.87 L 66.39 158.33 L 67.21 156.80 L 68.03 155.27 L 60.15 150.09 L 59.03 151.42 L 57.90 152.75 L 56.77 154.08 L 55.64 155.41 L 47.85 148.40 L 49.09 147.17 L 50.34 145.95 L 51.58 144.73 L 52.83 143.50 L 46.93 136.35 L 45.45 137.29 L 43.98 138.23 L 42.51 139.17 L 41.03 140.11 L 35.63 131.08 L 37.18 130.28 L 38.73 129.47 L 40.28 128.66 L 41.83 127.86 L 38.28 119.24 L 36.59 119.71 L 34.90 120.18 L 33.21 120.65 L 31.52 121.11 L 29.00 110.84 L 30.72 110.53 L 32.45 110.21 L 34.17 109.90 L 35.89 109.58 L 35.02 100.05 L 33.27 100.00 L 31.51 99.94 L 29.75 99.89 L 28.00 99.83 L 28.61 89.45 L 30.35 89.65 L 32.10 89.86 L 33.84 90.06 L 35.59 90.27 L 37.56 80.86 L 35.90 80.29 L 34.23 79.72 L 32.57 79.15 L 30.90 78.58 L 34.65 68.58 L 36.26 69.29 L 37.87 70.01 L 39.47 70.73 L 41.08 71.44 L 45.68 63.17 L 44.25 62.13 L 42.82 61.10 L 41.39 60.06 L 39.96 59.02 L 46.52 50.52 L 47.85 51.69 L 49.18 52.85 L 50.51 54.01 L 51.84 55.17 L 58.85 48.45 L 57.80 47.03 L 56.74 45.61 L 55.68 44.19 L 54.62 42.77 L 63.25 36.69 L 64.18 38.20 L 65.11 39.70 L 66.04 41.21 L 66.98 42.71 L 75.70 38.33 L 75.10 36.66 L 74.51 34.98 L 73.91 33.31 L 73.32 31.64 L 83.62 28.30 L 84.07 30.01 L 84.51 31.73 L 84.96 33.45 L 85.40 35.17 L 94.87 33.58 L 94.80 31.80 L 94.72 30.03 L 94.64 28.25 L 94.56 26.48 L 105.44 26.30 L 105.36 28.08 L 105.28 29.86 L 105.20 31.63 L 105.13 33.41 L 114.69 34.69 L 115.14 32.96 L 115.59 31.24 L 116.04 29.51 L 116.48 27.79 L 126.98 30.83 L 126.39 32.51 L 125.79 34.19 L 125.19 35.87 L 124.59 37.55 L 133.59 41.70 L 134.53 40.19 L 135.47 38.67 L 136.41 37.15 L 137.36 35.63 L 146.34 41.55 L 145.27 42.98 L 144.20 44.41 L 143.13 45.84 L 142.06 47.28 L 149.48 53.92 L 150.83 52.75 L 152.18 51.57 L 153.53 50.39 L 154.88 49.22 L 161.89 57.74 L 160.44 58.79 L 158.99 59.85 L 157.54 60.90 L 156.10 61.95 L 161.13 70.35 L 162.77 69.62 L 164.41 68.89 L 166.05 68.16 L 167.69 67.43 L 171.91 77.69 L 170.21 78.27 L 168.51 78.86 L 166.82 79.44 L 165.12 80.02 L 167.51 89.79 L 169.30 89.58 L 171.08 89.37 L 172.87 89.16 L 174.66 88.95 L 175.64 99.81 L 173.84 99.87 L 172.04 99.93 L 170.24 99.98 L 168.45 100.04 L 167.86 110.13 L 169.63 110.45 L 171.41 110.78 L 173.18 111.11 L 174.96 111.43 L 172.63 122.38 L 170.89 121.90 L 169.15 121.42 L 167.41 120.94 L 165.67 120.46 L 162.19 129.77 L 163.79 130.60 L 165.40 131.44 L 167.00 132.27 L 168.60 133.11 L 163.13 142.93 L 161.61 141.96 L 160.08 140.99 L 158.56 140.02 L 157.03 139.05 L 150.79 147.12 L 152.08 148.40 L 153.37 149.67 L 154.65 150.95 L 155.94 152.22 L 147.95 159.87 L 146.77 158.48 L 145.60 157.10 L 144.42 155.72 L 143.25 154.34 L 134.87 160.26 L 135.73 161.86 L 136.59 163.46 L 137.44 165.06 L 138.30 166.66 L 128.37 171.64 L 127.65 169.97 L 126.93 168.30 L 126.21 166.64 L 125.49 164.97 L 115.70 168.17 L 116.05 169.96 L 116.40 171.75 L 116.75 173.53 L 117.09 175.32 L 105.85 177.19 L 105.66 175.38 L 105.46 173.57 L 105.27 171.76 L 105.08 169.95 L 94.95 170.11 L 94.75 171.93 L 94.56 173.74 L 94.37 175.56 L 94.18 177.37 L 82.83 175.85 L 83.18 174.05 L 83.52 172.26 L 83.87 170.47 L 84.22 168.68 L 74.23 165.77 L 73.51 167.45 L 72.79 169.13 L 72.06 170.81 L 71.34 172.49 L 61.12 167.76 L 61.98 166.14 L 62.84 164.53 L 63.70 162.92 L 64.57 161.30 L 55.83 155.56 L 54.64 156.95 L 53.46 158.35 L 52.27 159.75 L 51.08 161.14 L 42.49 153.40 L 43.80 152.12 L 45.10 150.83 L 46.41 149.54 L 47.71 148.25 L 41.18 140.32 L 39.63 141.30 L 38.08 142.29 L 36.53 143.28 L 34.97 144.27 L 29.01 134.30 L 30.64 133.45 L 32.27 132.60 L 33.90 131.75 L 35.53 130.90 L 31.53 121.14 L 29.75 121.62 L 27.97 122.10 L 26.20 122.59 L 24.42 123.07 L 21.71 111.98 L 23.53 111.64 L 25.34 111.31 L 27.15 110.98 L 28.96 110.64 L 28.00 100.08 L 26.16 100.02 L 24.31 99.96 L 22.46 99.90 L 20.62 99.84 L 21.30 88.39 L 23.13 88.60 L 24.96 88.82 L 26.80 89.03 L 28.63 89.24 L 30.83 78.82 L 29.08 78.22 L 27.33 77.61 L 25.58 77.01 L 23.83 76.41 L 27.96 65.39 L 29.66 66.14 L 31.35 66.89 L 33.04 67.64 L 34.73 68.39 L 39.83 59.23 L 38.33 58.14 L 36.83 57.05 L 35.33 55.96 L 33.83 54.86 L 41.05 45.50 L 42.45 46.72 L 43.85 47.94 L 45.25 49.15 L 46.65 50.37 L 54.43 42.93 L 53.31 41.44 L 52.20 39.95 L 51.09 38.46 L 49.98 36.97 L 59.49 30.27 L 60.47 31.85 L 61.46 33.43 L 62.44 35.01 L 63.42 36.59 L 73.08 31.74 L 72.46 29.98 L 71.83 28.23 L 71.21 26.47 L 70.58 24.71 L 81.93 21.03 L 82.41 22.84 L 82.88 24.64 L 83.35 26.44 L 83.82 28.25 L 94.30 26.50 L 94.22 24.63 L 94.14 22.77 L 94.06 20.90 L 93.98 19.03 L 105.97 18.85 L 105.89 20.72 L 105.81 22.58 L 105.73 24.45 L 105.65 26.32 L 116.46 27.78 L 116.94 25.97 L 117.42 24.16 L 117.90 22.35 L 118.37 20.54 L 129.68 23.85 L 129.06 25.61 L 128.43 27.38 L 127.81 29.14 L 127.18 30.91 L 137.13 35.51 L 138.12 33.91 L 139.11 32.32 L 140.11 30.73 L 141.10 29.13 L 151.18 35.80 L 150.06 37.31 L 148.94 38.81 L 147.81 40.31 L 146.69 41.82 L 154.70 49.03 L 156.12 47.79 L 157.54 46.56 L 158.96 45.33 L 160.38 44.09 L 168.09 53.47 L 166.57 54.58 L 165.05 55.69 L 163.53 56.80 L 162.01 57.91 L 167.58 67.20 L 169.30 66.44 L 171.02 65.67 L 172.75 64.91 L 174.47 64.15 L 179.11 75.43 L 177.32 76.05 L 175.54 76.66 L 173.76 77.28 L 171.98 77.89 L 174.62 88.69 L 176.49 88.47 L 178.37 88.25 L 180.25 88.03 L 182.12 87.82 L 183.20 99.76 L 181.31 99.83 L 179.42 99.89 L 177.53 99.96 L 175.65 100.02 L 174.99 111.17 L 176.85 111.51 L 178.72 111.86 L 180.58 112.20 L 182.44 112.55 L 179.88 124.58 L 178.05 124.08 L 176.22 123.58 L 174.39 123.08 L 172.57 122.58 L 168.71 132.87 L 170.40 133.75 L 172.08 134.62 L 173.76 135.50 L 175.45 136.38 L 169.43 147.18 L 167.82 146.16 L 166.22 145.15 L 164.62 144.13 L 163.01 143.11 L 156.12 152.03 L 157.47 153.37 L 158.82 154.71 L 160.17 156.05 L 161.52 157.39 L 152.73 165.79 L 151.49 164.34 L 150.26 162.90 L 149.02 161.45 L 147.78 160.00 L 138.53 166.53 L 139.42 168.21 L 140.32 169.89 L 141.22 171.58 L 142.12 173.26 L 130.96 178.83 L 130.20 177.07 L 129.45 175.32 L 128.70 173.57 L 127.94 171.82 L 117.35 175.26 L 117.72 177.13 L 118.08 179.01 L 118.45 180.89 L 118.81 182.76 L 106.45 184.81 L 106.25 182.91 L 106.04 181.01 L 105.83 179.11 L 105.63 177.21 L 94.20 177.37 L 93.99 179.28 L 93.78 181.18 L 93.57 183.09 L 93.36 184.99 L 81.16 183.33 L 81.52 181.44 L 81.89 179.56 L 82.25 177.68 L 82.61 175.80 L 71.59 172.58 L 70.83 174.35 L 70.07 176.11 L 69.30 177.87 L 68.54 179.63 L 57.32 174.43 L 58.22 172.74 L 59.12 171.04 L 60.02 169.35 L 60.92 167.65 L 51.29 161.31 L 50.04 162.77 L 48.79 164.24 L 47.55 165.70 L 46.30 167.16 L 36.87 158.66 L 38.24 157.31 L 39.60 155.95 L 40.97 154.60 L 42.34 153.24 L 35.13 144.49 L 33.50 145.52 L 31.88 146.56 L 30.25 147.59 L 28.62 148.62 L 22.08 137.68 L 23.79 136.79 L 25.50 135.89 L 27.21 135.00 L 28.91 134.10 L 24.50 123.33 L 22.64 123.84 L 20.77 124.34 L 18.91 124.85 L 17.04 125.35 L 14.08 113.17 L 15.98 112.82 L 17.88 112.47 L 19.78 112.11 L 21.68 111.76 L 20.62 100.11 L 18.69 100.05 L 16.75 99.98 L 14.81 99.92 L 12.88 99.85 L 13.66 87.01 L 15.59 87.24 L 17.51 87.47 L 19.44 87.69 L 21.36 87.92 L 23.75 76.67 L 21.92 76.04 L 20.08 75.41 L 18.24 74.78 L 16.41 74.14 L 20.95 62.05 L 22.73 62.83 L 24.51 63.62 L 26.28 64.40 L 28.06 65.18 L 33.81 54.88 L 32.24 53.73 L 30.68 52.58 L 29.11 51.43 L 27.54 50.28 L 35.32 40.24 L 36.79 41.51 L 38.26 42.79 L 39.73 44.06 L 41.20 45.33 L 49.77 37.14 L 48.61 35.58 L 47.44 34.01 L 46.28 32.45 L 45.12 30.88 L 55.55 23.54 L 56.58 25.20 L 57.61 26.85 L 58.65 28.50 L 59.68 30.16 L 70.33 24.82 L 69.67 22.98 L 69.02 21.14 L 68.37 19.29 L 67.72 17.45 L 80.16 13.42 L 80.66 15.31 L 81.16 17.20 L 81.66 19.09 L 82.16 20.98 L 93.70 19.06 L 93.62 17.10 L 93.54 15.14 L 93.46 13.19 L 93.37 11.23 L 106.51 11.03 L 106.43 12.99 L 106.35 14.95 L 106.28 16.91 L 106.20 18.86 L 118.10 20.48 L 118.60 18.58 L 119.11 16.69 L 119.61 14.79 L 120.11 12.89 L 132.51 16.52 L 131.86 18.37 L 131.20 20.22 L 130.55 22.08 L 129.90 23.93 L 140.85 28.99 L 141.89 27.33 L 142.93 25.66 L 143.97 23.99 L 145.02 22.32 L 156.07 29.63 L 154.89 31.21 L 153.72 32.79 L 152.54 34.37 L 151.37 35.95 L 160.18 43.89 L 161.64 42.62 L 163.10 41.36 L 164.56 40.09 L 166.02 38.83" 
          fill="none" 
          stroke="currentColor" 
          stroke-width="0.5"/>
</svg>