<?xml version="1.0" encoding="UTF-8" standalone="no"?>
<svg width="100%" height="100%" viewBox="0 0 200 200" preserveAspectRatio="xMidYMid meet" xmlns="http://www.w3.org/2000/svg">
    <path d="M 10.00 100.00 L 12.11 101.22 L 14.22 100.00 L 14.22 97.56 L 16.33 96.35 L 18.44 97.56 L 18.44 100.00 L 16.33 101.22 L 16.33 103.65 L 18.44 104.87 L 20.55 103.65 L 22.66 104.87 L 22.66 107.31 L 24.77 108.52 L 26.88 107.31 L 26.87 104.87 L 24.77 103.65 L 24.77 101.22 L 26.88 100.00 L 26.87 97.56 L 24.77 96.35 L 22.66 97.56 L 20.55 96.35 L 20.55 93.91 L 22.66 92.69 L 24.77 93.91 L 26.88 92.69 L 26.87 90.26 L 28.98 89.04 L 31.09 90.26 L 31.09 92.69 L 33.20 93.91 L 35.31 92.69 L 35.31 90.26 L 33.20 89.04 L 33.20 86.60 L 35.31 85.39 L 37.42 86.60 L 39.53 85.39 L 39.53 82.95 L 41.64 81.73 L 43.75 82.95 L 43.75 85.39 L 41.64 86.60 L 41.64 89.04 L 43.75 90.26 L 43.75 92.69 L 41.64 93.91 L 39.53 92.69 L 37.42 93.91 L 37.42 96.35 L 39.53 97.56 L 41.64 96.35 L 43.75 97.56 L 43.75 100.00 L 41.64 101.22 L 41.64 103.65 L 43.75 104.87 L 43.75 107.31 L 41.64 108.52 L 39.53 107.31 L 39.53 104.87 L 37.42 103.65 L 35.31 104.87 L 35.31 107.31 L 33.20 108.52 L 31.09 107.31 L 28.98 108.52 L 28.98 110.96 L 31.09 112.18 L 33.20 110.96 L 35.31 112.18 L 35.31 114.61 L 37.42 115.83 L 39.53 114.61 L 39.53 112.18 L 41.64 110.96 L 43.75 112.18 L 43.75 114.61 L 41.64 115.83 L 41.64 118.27 L 43.75 119.49 L 45.86 118.27 L 47.97 119.49 L 47.97 121.92 L 50.08 123.14 L 52.19 121.92 L 52.19 119.49 L 50.08 118.27 L 50.08 115.83 L 52.19 114.61 L 54.30 115.83 L 56.41 114.61 L 56.41 112.18 L 58.52 110.96 L 60.62 112.18 L 60.62 114.61 L 58.52 115.83 L 58.52 118.27 L 60.62 119.49 L 60.62 121.92 L 58.52 123.14 L 56.41 121.92 L 54.30 123.14 L 54.30 125.57 L 56.41 126.79 L 58.52 125.57 L 60.62 126.79 L 60.63 129.23 L 62.73 130.45 L 64.84 129.23 L 64.84 126.79 L 66.95 125.57 L 69.06 126.79 L 69.06 129.23 L 66.95 130.45 L 66.95 132.88 L 69.06 134.10 L 71.17 132.88 L 73.28 134.10 L 73.28 136.54 L 75.39 137.75 L 77.50 136.54 L 77.50 134.10 L 75.39 132.88 L 75.39 130.45 L 77.50 129.23 L 77.50 126.79 L 75.39 125.57 L 73.28 126.79 L 71.17 125.57 L 71.17 123.14 L 73.28 121.92 L 75.39 123.14 L 77.50 121.92 L 77.50 119.49 L 75.39 118.27 L 75.39 115.83 L 77.50 114.61 L 77.50 112.18 L 75.39 110.96 L 73.28 112.18 L 73.28 114.61 L 71.17 115.83 L 69.06 114.61 L 69.06 112.18 L 66.95 110.96 L 64.84 112.18 L 62.73 110.96 L 62.73 108.52 L 64.84 107.31 L 66.95 108.52 L 69.06 107.31 L 69.06 104.87 L 71.17 103.65 L 73.28 104.87 L 73.28 107.31 L 75.39 108.52 L 77.50 107.31 L 77.50 104.87 L 75.39 103.65 L 75.39 101.22 L 77.50 100.00 L 77.50 97.56 L 75.39 96.35 L 73.28 97.56 L 71.17 96.35 L 71.17 93.91 L 73.28 92.69 L 75.39 93.91 L 77.50 92.69 L 77.50 90.26 L 75.39 89.04 L 75.39 86.60 L 77.50 85.39 L 77.50 82.95 L 75.39 81.73 L 73.28 82.95 L 73.28 85.39 L 71.17 86.60 L 69.06 85.39 L 66.95 86.60 L 66.95 89.04 L 69.06 90.26 L 69.06 92.69 L 66.95 93.91 L 64.84 92.69 L 64.84 90.26 L 62.73 89.04 L 60.62 90.26 L 58.52 89.04 L 58.52 86.60 L 60.62 85.39 L 60.62 82.95 L 58.52 81.73 L 56.41 82.95 L 56.41 85.39 L 54.30 86.60 L 52.19 85.39 L 52.19 82.95 L 50.08 81.73 L 47.97 82.95 L 45.86 81.73 L 45.86 79.30 L 47.97 78.08 L 50.08 79.30 L 52.19 78.08 L 52.19 75.64 L 54.30 74.43 L 56.41 75.64 L 56.41 78.08 L 58.52 79.30 L 60.62 78.08 L 60.62 75.64 L 58.52 74.43 L 58.52 71.99 L 60.62 70.77 L 62.73 71.99 L 64.84 70.77 L 64.84 68.34 L 66.95 67.12 L 69.06 68.34 L 69.06 70.77 L 66.95 71.99 L 66.95 74.43 L 69.06 75.64 L 71.17 74.43 L 73.28 75.64 L 73.28 78.08 L 75.39 79.30 L 77.50 78.08 L 77.50 75.64 L 75.39 74.43 L 75.39 71.99 L 77.50 70.77 L 77.50 68.34 L 75.39 67.12 L 73.28 68.34 L 71.17 67.12 L 71.17 64.68 L 73.28 63.46 L 75.39 64.68 L 77.50 63.46 L 77.50 61.03 L 79.61 59.81 L 81.72 61.03 L 81.72 63.46 L 83.83 64.68 L 85.94 63.46 L 85.94 61.03 L 83.83 59.81 L 83.83 57.38 L 85.94 56.16 L 88.05 57.38 L 90.16 56.16 L 90.16 53.72 L 92.27 52.50 L 94.37 53.72 L 94.37 56.16 L 92.27 57.38 L 92.27 59.81 L 94.37 61.03 L 94.37 63.46 L 92.27 64.68 L 90.16 63.46 L 88.05 64.68 L 88.05 67.12 L 90.16 68.34 L 92.27 67.12 L 94.37 68.34 L 94.37 70.77 L 96.48 71.99 L 98.59 70.77 L 98.59 68.34 L 100.70 67.12 L 102.81 68.34 L 102.81 70.77 L 100.70 71.99 L 100.70 74.43 L 102.81 75.64 L 104.92 74.43 L 107.03 75.64 L 107.03 78.08 L 109.14 79.30 L 111.25 78.08 L 111.25 75.64 L 109.14 74.43 L 109.14 71.99 L 111.25 70.77 L 111.25 68.34 L 109.14 67.12 L 107.03 68.34 L 104.92 67.12 L 104.92 64.68 L 107.03 63.46 L 109.14 64.68 L 111.25 63.46 L 111.25 61.03 L 109.14 59.81 L 109.14 57.38 L 111.25 56.16 L 111.25 53.72 L 109.14 52.50 L 107.03 53.72 L 107.03 56.16 L 104.92 57.38 L 102.81 56.16 L 102.81 53.72 L 100.70 52.50 L 98.59 53.72 L 96.48 52.50 L 96.48 50.07 L 98.59 48.85 L 100.70 50.07 L 102.81 48.85 L 102.81 46.41 L 104.92 45.20 L 107.03 46.41 L 107.03 48.85 L 109.14 50.07 L 111.25 48.85 L 111.25 46.41 L 109.14 45.20 L 109.14 42.76 L 111.25 41.54 L 113.36 42.76 L 115.47 41.54 L 115.47 39.11 L 117.58 37.89 L 119.69 39.11 L 119.69 41.54 L 117.58 42.76 L 117.58 45.20 L 119.69 46.41 L 121.80 45.20 L 123.91 46.41 L 123.91 48.85 L 126.02 50.07 L 128.12 48.85 L 128.12 46.41 L 126.02 45.20 L 126.02 42.76 L 128.12 41.54 L 128.12 39.11 L 126.02 37.89 L 123.91 39.11 L 121.80 37.89 L 121.80 35.45 L 123.91 34.24 L 126.02 35.45 L 128.12 34.24 L 128.12 31.80 L 130.23 30.58 L 132.34 31.80 L 132.34 34.24 L 134.45 35.45 L 136.56 34.24 L 136.56 31.80 L 134.45 30.58 L 134.45 28.15 L 136.56 26.93 L 138.67 28.15 L 140.78 26.93 L 140.78 24.49 L 142.89 23.28 L 145.00 24.49 L 145.00 26.93 L 142.89 28.15 L 142.89 30.58 L 145.00 31.80 L 145.00 34.24 L 142.89 35.45 L 140.78 34.24 L 138.67 35.45 L 138.67 37.89 L 140.78 39.11 L 142.89 37.89 L 145.00 39.11 L 145.00 41.54 L 142.89 42.76 L 142.89 45.20 L 145.00 46.41 L 145.00 48.85 L 142.89 50.07 L 140.78 48.85 L 140.78 46.41 L 138.67 45.20 L 136.56 46.41 L 136.56 48.85 L 134.45 50.07 L 132.34 48.85 L 130.23 50.07 L 130.23 52.50 L 132.34 53.72 L 134.45 52.50 L 136.56 53.72 L 136.56 56.16 L 138.67 57.38 L 140.78 56.16 L 140.78 53.72 L 142.89 52.50 L 145.00 53.72 L 145.00 56.16 L 142.89 57.38 L 142.89 59.81 L 145.00 61.03 L 145.00 63.46 L 142.89 64.68 L 140.78 63.46 L 138.67 64.68 L 138.67 67.12 L 140.78 68.34 L 142.89 67.12 L 145.00 68.34 L 145.00 70.77 L 142.89 71.99 L 142.89 74.43 L 145.00 75.64 L 145.00 78.08 L 142.89 79.30 L 140.78 78.08 L 140.78 75.64 L 138.67 74.43 L 136.56 75.64 L 134.45 74.43 L 134.45 71.99 L 136.56 70.77 L 136.56 68.34 L 134.45 67.12 L 132.34 68.34 L 132.34 70.77 L 130.23 71.99 L 128.12 70.77 L 126.02 71.99 L 126.02 74.43 L 128.12 75.64 L 128.12 78.08 L 126.02 79.30 L 123.91 78.08 L 123.91 75.64 L 121.80 74.43 L 119.69 75.64 L 119.69 78.08 L 117.58 79.30 L 115.47 78.08 L 113.36 79.30 L 113.36 81.73 L 115.47 82.95 L 117.58 81.73 L 119.69 82.95 L 119.69 85.39 L 121.80 86.60 L 123.91 85.39 L 123.91 82.95 L 126.02 81.73 L 128.12 82.95 L 128.12 85.39 L 126.02 86.60 L 126.02 89.04 L 128.12 90.26 L 130.23 89.04 L 132.34 90.26 L 132.34 92.69 L 134.45 93.91 L 136.56 92.69 L 136.56 90.26 L 134.45 89.04 L 134.45 86.60 L 136.56 85.39 L 138.67 86.60 L 140.78 85.39 L 140.78 82.95 L 142.89 81.73 L 145.00 82.95 L 145.00 85.39 L 142.89 86.60 L 142.89 89.04 L 145.00 90.26 L 145.00 92.69 L 142.89 93.91 L 140.78 92.69 L 138.67 93.91 L 138.67 96.35 L 140.78 97.56 L 142.89 96.35 L 145.00 97.56 L 145.00 100.00 L 142.89 101.22 L 142.89 103.65 L 145.00 104.87 L 145.00 107.31 L 142.89 108.52 L 140.78 107.31 L 140.78 104.87 L 138.67 103.65 L 136.56 104.87 L 136.56 107.31 L 134.45 108.52 L 132.34 107.31 L 130.23 108.52 L 130.23 110.96 L 132.34 112.18 L 134.45 110.96 L 136.56 112.18 L 136.56 114.61 L 138.67 115.83 L 140.78 114.61 L 140.78 112.18 L 142.89 110.96 L 145.00 112.18 L 145.00 114.61 L 142.89 115.83 L 142.89 118.27 L 145.00 119.49 L 145.00 121.92 L 142.89 123.14 L 140.78 121.92 L 138.67 123.14 L 138.67 125.57 L 140.78 126.79 L 142.89 125.57 L 145.00 126.79 L 145.00 129.23 L 142.89 130.45 L 142.89 132.88 L 145.00 134.10 L 145.00 136.54 L 142.89 137.75 L 140.78 136.54 L 140.78 134.10 L 138.67 132.88 L 136.56 134.10 L 134.45 132.88 L 134.45 130.45 L 136.56 129.23 L 136.56 126.79 L 134.45 125.57 L 132.34 126.79 L 132.34 129.23 L 130.23 130.45 L 128.12 129.23 L 128.12 126.79 L 126.02 125.57 L 123.91 126.79 L 121.80 125.57 L 121.80 123.14 L 123.91 121.92 L 126.02 123.14 L 128.12 121.92 L 128.12 119.49 L 126.02 118.27 L 126.02 115.83 L 128.12 114.61 L 128.12 112.18 L 126.02 110.96 L 123.91 112.18 L 123.91 114.61 L 121.80 115.83 L 119.69 114.61 L 117.58 115.83 L 117.58 118.27 L 119.69 119.49 L 119.69 121.92 L 117.58 123.14 L 115.47 121.92 L 115.47 119.49 L 113.36 118.27 L 111.25 119.49 L 111.25 121.92 L 109.14 123.14 L 107.03 121.92 L 104.92 123.14 L 104.92 125.57 L 107.03 126.79 L 109.14 125.57 L 111.25 126.79 L 111.25 129.23 L 109.14 130.45 L 109.14 132.88 L 111.25 134.10 L 111.25 136.54 L 109.14 137.75 L 107.03 136.54 L 107.03 134.10 L 104.92 132.88 L 102.81 134.10 L 100.70 132.88 L 100.70 130.45 L 102.81 129.23 L 102.81 126.79 L 100.70 125.57 L 98.59 126.79 L 98.59 129.23 L 96.48 130.45 L 94.37 129.23 L 92.27 130.45 L 92.27 132.88 L 94.37 134.10 L 94.37 136.54 L 92.27 137.75 L 90.16 136.54 L 90.16 134.10 L 88.05 132.88 L 85.94 134.10 L 85.94 136.54 L 83.83 137.75 L 81.72 136.54 L 79.61 137.75 L 79.61 140.19 L 81.72 141.41 L 83.83 140.19 L 85.94 141.41 L 85.94 143.84 L 88.05 145.06 L 90.16 143.84 L 90.16 141.41 L 92.27 140.19 L 94.37 141.41 L 94.37 143.84 L 92.27 145.06 L 92.27 147.50 L 94.37 148.71 L 96.48 147.50 L 98.59 148.71 L 98.59 151.15 L 100.70 152.37 L 102.81 151.15 L 102.81 148.71 L 100.70 147.50 L 100.70 145.06 L 102.81 143.84 L 104.92 145.06 L 107.03 143.84 L 107.03 141.41 L 109.14 140.19 L 111.25 141.41 L 111.25 143.84 L 109.14 145.06 L 109.14 147.50 L 111.25 148.71 L 111.25 151.15 L 109.14 152.37 L 107.03 151.15 L 104.92 152.37 L 104.92 154.80 L 107.03 156.02 L 109.14 154.80 L 111.25 156.02 L 111.25 158.46 L 113.36 159.67 L 115.47 158.46 L 115.47 156.02 L 117.58 154.80 L 119.69 156.02 L 119.69 158.46 L 117.58 159.67 L 117.58 162.11 L 119.69 163.33 L 121.80 162.11 L 123.91 163.33 L 123.91 165.76 L 126.02 166.98 L 128.12 165.76 L 128.12 163.33 L 126.02 162.11 L 126.02 159.67 L 128.12 158.46 L 128.12 156.02 L 126.02 154.80 L 123.91 156.02 L 121.80 154.80 L 121.80 152.37 L 123.91 151.15 L 126.02 152.37 L 128.12 151.15 L 128.12 148.71 L 130.23 147.50 L 132.34 148.71 L 132.34 151.15 L 134.45 152.37 L 136.56 151.15 L 136.56 148.71 L 134.45 147.50 L 134.45 145.06 L 136.56 143.84 L 138.67 145.06 L 140.78 143.84 L 140.78 141.41 L 142.89 140.19 L 145.00 141.41 L 145.00 143.84 L 142.89 145.06 L 142.89 147.50 L 145.00 148.71 L 145.00 151.15 L 142.89 152.37 L 140.78 151.15 L 138.67 152.37 L 138.67 154.80 L 140.78 156.02 L 142.89 154.80 L 145.00 156.02 L 145.00 158.46 L 142.89 159.67 L 142.89 162.11 L 145.00 163.33 L 145.00 165.76 L 142.89 166.98 L 140.78 165.76 L 140.78 163.33 L 138.67 162.11 L 136.56 163.33 L 136.56 165.76 L 134.45 166.98 L 132.34 165.76 L 130.23 166.98 L 130.23 169.42 L 132.34 170.64 L 134.45 169.42 L 136.56 170.64 L 136.56 173.07 L 138.67 174.29 L 140.78 173.07 L 140.78 170.64 L 142.89 169.42 L 145.00 170.64 L 145.00 173.07 L 142.89 174.29 L 142.89 176.72 L 145.00 177.94" 
          fill="none" 
          stroke="currentColor" 
          stroke-width="0.5"/>
</svg>