<?xml version="1.0" encoding="UTF-8" standalone="no"?>
<svg width="100%" height="100%" viewBox="0 0 200 200" preserveAspectRatio="xMidYMid meet" xmlns="http://www.w3.org/2000/svg">
    <path d="M 10.00 100.00 L 10.72 100.00 L 11.44 100.00 L 12.16 100.00 L 12.88 100.00 L 13.60 100.00 L 14.32 100.00 L 15.04 100.00 L 15.76 100.00 L 16.48 100.00 L 17.20 100.00 L 17.92 100.00 L 18.64 100.00 L 18.98 100.00 L 19.37 99.39 L 19.75 98.78 L 19.92 98.51 L 20.33 97.92 L 20.74 97.33 L 21.15 96.73 L 21.17 96.70 L 21.46 96.29 L 21.92 95.73 L 22.38 95.18 L 22.84 94.63 L 23.07 94.36 L 23.59 93.86 L 24.11 93.36 L 24.63 92.86 L 24.68 92.81 L 24.78 92.73 L 25.35 92.29 L 25.93 91.86 L 26.51 91.43 L 26.56 91.39 L 27.19 91.03 L 27.81 90.68 L 28.43 90.33 L 29.09 90.05 L 29.75 89.77 L 30.35 89.52 L 31.05 89.33 L 31.74 89.13 L 32.35 88.96 L 33.06 88.86 L 33.77 88.76 L 34.41 88.66 L 35.13 88.64 L 35.85 88.62 L 36.44 88.60 L 37.15 88.65 L 37.87 88.70 L 38.51 88.74 L 39.22 88.86 L 39.93 88.98 L 40.63 89.09 L 41.33 89.27 L 42.03 89.45 L 42.72 89.63 L 42.80 89.65 L 43.47 89.91 L 44.15 90.17 L 44.82 90.43 L 45.49 90.68 L 45.60 90.73 L 46.28 90.99 L 46.95 91.24 L 47.16 91.32 L 47.79 91.67 L 48.43 92.01 L 49.06 92.36 L 49.69 92.70 L 49.84 92.78 L 50.47 93.13 L 51.10 93.47 L 51.46 93.67 L 52.05 94.07 L 52.65 94.48 L 53.24 94.88 L 53.70 95.19 L 54.26 95.64 L 54.83 96.09 L 55.39 96.54 L 55.78 96.84 L 56.30 97.33 L 56.83 97.82 L 57.36 98.31 L 57.68 98.61 L 58.17 99.14 L 58.66 99.67 L 59.15 100.20 L 59.42 100.50 L 59.88 101.06 L 60.33 101.62 L 60.78 102.18 L 60.95 102.40 L 61.35 102.99 L 61.75 103.59 L 62.15 104.19 L 62.27 104.36 L 62.62 105.00 L 62.96 105.63 L 63.31 106.26 L 63.39 106.40 L 63.68 107.06 L 63.97 107.72 L 64.25 108.38 L 64.31 108.50 L 64.56 109.18 L 64.81 109.85 L 65.06 110.53 L 65.07 110.55 L 65.25 111.25 L 65.44 111.94 L 65.61 112.60 L 65.72 113.31 L 65.82 114.03 L 65.92 114.65 L 65.95 115.37 L 65.98 116.09 L 66.00 116.71 L 65.94 117.43 L 65.89 118.15 L 65.84 118.72 L 65.69 119.43 L 65.53 120.13 L 65.42 120.64 L 65.18 121.31 L 64.93 121.99 L 64.75 122.45 L 64.41 123.09 L 64.07 123.72 L 63.83 124.18 L 63.42 124.77 L 63.33 124.90 L 62.90 125.48 L 62.47 126.06 L 62.41 126.14 L 61.96 126.71 L 61.51 127.27 L 61.15 127.72 L 60.75 128.32 L 60.34 128.91 L 59.94 129.51 L 59.92 129.54 L 59.51 130.14 L 59.11 130.73 L 58.71 131.33 L 58.69 131.36 L 58.28 131.96 L 57.88 132.56 L 57.48 133.15 L 57.45 133.19 L 57.28 133.44 L 56.92 134.06 L 56.74 134.37 L 56.45 135.02 L 56.42 135.10 L 56.10 135.75 L 55.78 136.39 L 55.46 137.03 L 55.44 137.07 L 55.22 137.50 L 54.86 138.12 L 54.57 138.61 L 54.05 139.11 L 53.67 139.47 L 53.20 139.57 L 52.79 139.44 L 52.43 139.08 L 52.37 138.66 L 52.56 137.97 L 52.74 137.27 L 52.93 136.57 L 52.95 136.49 L 53.02 136.24 L 53.09 135.52 L 53.10 135.35 L 53.01 134.64 L 53.00 134.54 L 52.74 133.87 L 52.72 133.81 L 52.31 133.22 L 51.89 132.63 L 51.75 132.42 L 51.18 131.98 L 50.61 131.54 L 50.04 131.10 L 49.96 131.04 L 49.35 130.65 L 48.74 130.27 L 48.13 129.89 L 47.52 129.50 L 46.91 129.12 L 46.30 128.74 L 45.69 128.35 L 45.08 127.97 L 44.47 127.59 L 43.86 127.20 L 43.25 126.82 L 42.64 126.44 L 42.03 126.05 L 41.42 125.67 L 40.81 125.29 L 40.20 124.90 L 39.60 124.52 L 38.99 124.14 L 38.38 123.75 L 37.77 123.37 L 37.16 122.99 L 36.55 122.60 L 35.94 122.22 L 35.33 121.84 L 34.72 121.45 L 34.11 121.07 L 33.50 120.69 L 32.89 120.30 L 32.28 119.92 L 31.67 119.54 L 31.06 119.15 L 30.45 118.77 L 29.84 118.39 L 29.23 118.00 L 28.62 117.62 L 28.02 117.24 L 27.41 116.85 L 26.80 116.47 L 26.19 116.09 L 25.58 115.70 L 24.97 115.32 L 24.36 114.94 L 23.75 114.55 L 23.14 114.17 L 22.53 113.79 L 21.92 113.40 L 21.31 113.02 L 20.75 112.67 L 20.13 112.31 L 19.65 112.04 L 18.99 111.76 L 18.67 111.62 L 17.97 111.44 L 17.80 111.40 L 17.08 111.38 L 17.06 111.38 L 16.34 111.48 L 16.33 111.48 L 15.66 111.74 L 15.60 111.77 L 14.99 112.16 L 14.86 112.24 L 14.32 112.72 L 14.11 112.91 L 13.56 113.37 L 13.01 113.84 L 12.96 113.88 L 12.46 113.95 L 11.95 113.76 L 11.66 113.44 L 11.54 112.98 L 11.76 112.30 L 11.93 111.79 L 12.33 111.20 L 12.65 110.72 L 13.10 110.16 L 13.29 109.92 L 13.67 109.31 L 14.05 108.70 L 14.16 108.53 L 14.62 107.97 L 14.74 107.82 L 15.15 107.22 L 15.40 106.84 L 15.75 106.21 L 16.10 105.58 L 16.44 104.94 L 16.46 104.91 L 16.81 104.28 L 17.15 103.65 L 17.50 103.02 L 17.52 102.98 L 17.84 102.40 L 18.12 101.73 L 18.40 101.07 L 18.41 101.06 L 18.75 100.43 L 18.98 100.00 L 19.58 100.41 L 20.17 100.82 L 20.76 101.23 L 20.90 101.33 L 20.88 101.36 L 20.54 101.99 L 20.19 102.62 L 20.00 102.98 L 19.78 103.66 L 19.57 104.35 L 19.55 104.41 L 19.62 105.13 L 19.69 105.77 L 20.04 106.39 L 20.39 107.02 L 20.45 107.13 L 21.01 107.58 L 21.57 108.04 L 22.00 108.39 L 22.61 108.77 L 23.22 109.16 L 23.83 109.54 L 24.44 109.92 L 25.05 110.31 L 25.66 110.69 L 26.27 111.07 L 26.88 111.46 L 27.49 111.84 L 28.10 112.22 L 28.71 112.61 L 29.32 112.99 L 29.93 113.37 L 30.53 113.76 L 31.14 114.14 L 31.75 114.52 L 32.36 114.91 L 32.97 115.29 L 33.58 115.67 L 34.19 116.06 L 34.80 116.44 L 35.41 116.82 L 36.02 117.21 L 36.63 117.59 L 37.24 117.97 L 37.85 118.36 L 38.46 118.74 L 39.07 119.12 L 39.68 119.51 L 40.29 119.89 L 40.90 120.27 L 41.51 120.66 L 42.11 121.04 L 42.72 121.42 L 43.33 121.81 L 43.94 122.19 L 44.55 122.57 L 45.16 122.96 L 45.77 123.34 L 46.38 123.72 L 46.99 124.11 L 47.60 124.49 L 48.21 124.87 L 48.82 125.26 L 49.43 125.64 L 50.04 126.02 L 50.65 126.41 L 50.82 126.51 L 51.45 126.86 L 52.02 127.18 L 52.70 127.43 L 53.19 127.62 L 53.90 127.75 L 54.31 127.84 L 55.03 127.84 L 55.40 127.84 L 56.08 127.62 L 56.77 127.41 L 57.13 127.30 L 57.74 126.91 L 58.34 126.52 L 58.71 126.29 L 59.17 125.73 L 59.62 125.17 L 60.07 124.61 L 60.53 124.05 L 60.98 123.49 L 61.15 123.27 L 61.48 122.63 L 61.81 121.99 L 62.13 121.38 L 62.34 120.69 L 62.54 120.00 L 62.72 119.42 L 62.79 118.70 L 62.86 117.99 L 62.92 117.40 L 62.86 116.68 L 62.79 115.96 L 62.73 115.31 L 62.58 114.60 L 62.42 113.90 L 62.27 113.20 L 62.25 113.11 L 61.99 112.44 L 61.73 111.76 L 61.48 111.09 L 61.42 110.94 L 61.08 110.31 L 60.73 109.68 L 60.39 109.05 L 60.26 108.81 L 59.84 108.22 L 59.43 107.64 L 59.01 107.05 L 58.77 106.71 L 58.29 106.16 L 57.82 105.62 L 57.35 105.08 L 56.92 104.58 L 56.40 104.09 L 55.88 103.59 L 55.36 103.09 L 54.84 102.60 L 54.80 102.55 L 54.23 102.10 L 53.67 101.65 L 53.11 101.20 L 52.55 100.75 L 52.43 100.66 L 52.38 100.62 L 51.79 100.22 L 51.19 99.81 L 50.60 99.41 L 50.00 99.00 L 49.86 98.91 L 49.68 98.79 L 49.06 98.42 L 48.44 98.06 L 47.82 97.69 L 47.38 97.43 L 46.73 97.11 L 46.09 96.79 L 45.45 96.47 L 45.11 96.30 L 44.45 96.03 L 43.78 95.76 L 43.11 95.48 L 42.89 95.39 L 42.20 95.17 L 41.52 94.96 L 40.83 94.74 L 40.71 94.70 L 40.00 94.57 L 39.30 94.43 L 38.59 94.30 L 37.88 94.16 L 37.88 94.16 L 37.17 94.03 L 36.56 93.91 L 35.84 93.90 L 35.12 93.89 L 34.40 93.88 L 33.83 93.88 L 33.11 93.87 L 32.76 93.86 L 32.05 93.97 L 31.34 94.09 L 30.63 94.20 L 30.22 94.26 L 29.51 94.38 L 29.26 94.42 L 28.59 94.68 L 27.92 94.95 L 27.25 95.21 L 27.02 95.31 L 26.35 95.57 L 26.25 95.61 L 25.67 96.03 L 25.08 96.44 L 24.49 96.86 L 24.39 96.93 L 23.82 97.33 L 23.36 97.88 L 22.89 98.43 L 22.43 98.98 L 22.40 99.02 L 22.03 99.45 L 21.66 100.07 L 21.29 100.68 L 20.92 101.30 L 20.90 101.33 L 20.31 100.92 L 19.71 100.51 L 19.12 100.10 L 18.98 100.00 L 19.37 99.39 L 19.75 98.78 L 19.92 98.51 L 20.33 97.92 L 20.74 97.33 L 21.15 96.73 L 21.17 96.70 L 21.46 96.29 L 21.92 95.73 L 22.38 95.18 L 22.84 94.63 L 23.07 94.36 L 23.59 93.86 L 24.11 93.36 L 24.63 92.86 L 24.68 92.81 L 24.78 92.73 L 25.35 92.29 L 25.93 91.86 L 26.51 91.43 L 26.56 91.39 L 27.19 91.03 L 27.81 90.68 L 28.43 90.33 L 29.09 90.05 L 29.75 89.77 L 30.35 89.52 L 31.05 89.33 L 31.74 89.13 L 32.35 88.96 L 33.06 88.86 L 33.77 88.76 L 34.41 88.66 L 35.13 88.64 L 35.85 88.62 L 36.44 88.60 L 37.15 88.65 L 37.87 88.70 L 38.51 88.74 L 39.22 88.86 L 39.93 88.98 L 40.63 89.09 L 41.33 89.27 L 42.03 89.45 L 42.72 89.63 L 42.80 89.65 L 43.47 89.91 L 44.15 90.17 L 44.82 90.43 L 45.49 90.68 L 45.60 90.73 L 46.28 90.99 L 46.95 91.24 L 47.16 91.32 L 47.67 90.82 L 48.18 90.31 L 48.69 89.80 L 49.20 89.29 L 49.70 88.78 L 50.09 88.39 L 50.12 87.76 L 50.45 87.12 L 50.77 86.48 L 50.87 86.29 L 51.18 85.63 L 51.39 85.18 L 51.58 84.49 L 51.78 83.80 L 51.98 83.11 L 52.00 83.03 L 52.14 82.54 L 52.13 82.27 L 52.25 82.09 L 52.69 81.88 L 53.36 82.16 L 53.45 82.19 L 54.00 82.65 L 54.56 83.10 L 54.67 83.19 L 55.24 83.63 L 55.73 84.02 L 56.31 84.43 L 56.85 84.82 L 57.45 85.21 L 58.05 85.60 L 58.25 85.73 L 58.86 86.12 L 59.47 86.50 L 60.08 86.88 L 60.69 87.27 L 61.30 87.65 L 61.91 88.03 L 62.52 88.42 L 63.13 88.80 L 63.74 89.18 L 64.35 89.57 L 64.96 89.95 L 65.57 90.33 L 66.17 90.72 L 66.78 91.10 L 67.39 91.48 L 68.00 91.87 L 68.61 92.25 L 69.22 92.63 L 69.83 93.02 L 70.44 93.40 L 70.79 93.62 L 71.43 93.93 L 72.08 94.25 L 72.37 94.39 L 73.08 94.54 L 73.78 94.70 L 74.04 94.75 L 74.76 94.81 L 75.47 94.86 L 75.63 94.88 L 76.35 94.81 L 77.06 94.74 L 77.11 94.74 L 77.78 94.47 L 78.38 94.24 L 78.89 93.73 L 79.19 93.45 L 79.54 92.82 L 79.84 92.27 L 80.10 91.59 L 80.28 91.14 L 80.41 90.44 L 80.49 90.01 L 80.35 89.31 L 80.22 88.64 L 80.04 87.95 L 79.94 87.59 L 79.69 86.91 L 79.44 86.24 L 79.42 86.19 L 79.01 85.61 L 78.59 85.02 L 78.42 84.78 L 77.85 84.33 L 77.29 83.89 L 76.79 83.50 L 76.18 83.11 L 75.57 82.73 L 74.96 82.35 L 74.35 81.96 L 73.74 81.58 L 73.13 81.20 L 72.52 80.81 L 71.91 80.43 L 71.30 80.05 L 70.70 79.66 L 70.09 79.28 L 69.48 78.90 L 68.87 78.51 L 68.26 78.13 L 67.65 77.75 L 67.04 77.36 L 66.43 76.98 L 65.82 76.60 L 65.21 76.21 L 65.03 76.10 L 64.38 75.79 L 63.73 75.48 L 63.72 75.47 L 63.00 75.40 L 62.61 75.36 L 61.91 75.51 L 61.62 75.58 L 61.03 75.99 L 60.89 76.09 L 60.35 76.57 L 60.27 76.65 L 59.87 77.14 L 59.31 77.59 L 59.14 77.72 L 58.66 77.71 L 58.06 77.43 L 57.59 77.04 L 57.46 76.67 L 57.62 75.96 L 57.67 75.76 L 58.04 75.14 L 58.41 74.52 L 58.44 74.46 L 58.77 73.82 L 59.01 73.35 L 59.30 72.69 L 59.59 72.03 L 59.86 71.42 L 60.04 70.72 L 60.21 70.02 L 60.34 69.51 L 60.38 69.15 L 60.37 68.89 L 60.83 68.59 L 61.50 68.82 L 62.02 69.14 L 62.38 69.50 L 62.93 69.95 L 63.06 70.06 L 63.65 70.47 L 64.24 70.89 L 64.81 71.29 L 65.39 71.72 L 65.67 71.93 L 66.27 72.33 L 66.30 72.36 L 66.91 72.74 L 67.52 73.12 L 68.13 73.51 L 68.74 73.89 L 69.35 74.27 L 69.96 74.66 L 70.57 75.04 L 71.18 75.42 L 71.79 75.81 L 72.40 76.19 L 73.01 76.57 L 73.62 76.96 L 74.23 77.34 L 74.84 77.72 L 75.45 78.11 L 76.06 78.49 L 76.67 78.87 L 77.27 79.26 L 77.88 79.64 L 78.49 80.02 L 79.10 80.41 L 79.71 80.79 L 80.32 81.17 L 80.93 81.56 L 81.16 81.70 L 81.79 82.06 L 82.42 82.41 L 82.76 82.61 L 83.43 82.86 L 83.92 83.05 L 84.58 83.07 L 84.92 82.90 L 85.30 82.29 L 85.62 81.78 L 85.91 81.12 L 85.92 81.09 L 86.14 80.67 L 86.56 80.29 L 86.92 80.22 L 87.38 80.42 L 87.79 80.77 L 87.98 81.18 L 88.01 81.72 L 87.75 82.39 L 87.50 83.07 L 87.28 83.66 L 87.14 84.37 L 87.00 85.08 L 86.92 85.45 L 86.88 86.17 L 86.84 86.89 L 86.80 87.61 L 86.79 87.78 L 86.75 88.50 L 86.75 88.59 L 86.64 89.05 L 86.55 89.76 L 86.55 89.77 L 86.25 89.96 L 85.80 89.81 L 85.21 89.40 L 85.02 89.26 L 84.46 88.80 L 83.98 88.41 L 83.39 87.99 L 82.83 87.59 L 82.23 87.19 L 81.62 86.80 L 81.45 86.69 L 81.66 87.38 L 81.88 88.07 L 82.09 88.75 L 82.21 89.16 L 82.42 89.85 L 82.43 89.87 L 82.52 90.58 L 82.62 91.30 L 82.71 92.01 L 82.75 92.30 L 82.79 92.59 L 82.66 93.30 L 82.53 94.01 L 82.40 94.72 L 82.37 94.83 L 82.34 95.04 L 82.03 95.69 L 81.72 96.34 L 81.41 96.99 L 81.39 97.03 L 81.25 97.34 L 80.77 97.88 L 80.29 98.42 L 80.16 98.57 L 79.54 98.94 L 78.92 99.31 L 78.65 99.47 L 77.94 99.62 L 77.24 99.77 L 76.87 99.85 L 76.16 99.80 L 75.44 99.75 L 74.89 99.71 L 74.21 99.49 L 73.52 99.27 L 72.83 99.05 L 72.68 99.00 L 72.04 98.65 L 71.41 98.31 L 70.77 97.97 L 70.22 97.68 L 69.61 97.29 L 69.00 96.91 L 68.39 96.53 L 67.78 96.14 L 67.17 95.76 L 66.56 95.38 L 65.95 94.99 L 65.34 94.61 L 64.73 94.23 L 64.12 93.84 L 63.51 93.46 L 62.90 93.08 L 62.29 92.69 L 61.68 92.31 L 61.07 91.93 L 60.47 91.54 L 59.86 91.16 L 59.25 90.78 L 58.64 90.39 L 58.03 90.01 L 57.42 89.63 L 57.17 89.47 L 56.52 89.15 L 55.87 88.84 L 55.79 88.79 L 55.08 88.67 L 54.49 88.56 L 53.78 88.67 L 53.40 88.72 L 52.74 89.02 L 52.26 89.24 L 51.64 89.37 L 51.29 89.34 L 50.75 89.07 L 50.24 88.55 L 50.09 88.39 L 50.12 87.76 L 50.45 87.12 L 50.77 86.48 L 50.87 86.29 L 51.18 85.63 L 51.39 85.18 L 51.58 84.49 L 51.78 83.80 L 51.98 83.11 L 52.00 83.03 L 52.14 82.54 L 52.13 82.27 L 52.25 82.09 L 52.69 81.88 L 53.36 82.16 L 53.45 82.19 L 54.00 82.65 L 54.56 83.10 L 54.67 83.19 L 55.24 83.63 L 55.73 84.02 L 56.31 84.43 L 56.85 84.82 L 57.45 85.21 L 58.05 85.60 L 58.25 85.73 L 58.86 86.12 L 59.47 86.50 L 60.08 86.88 L 60.69 87.27 L 61.30 87.65 L 61.91 88.03 L 62.52 88.42 L 63.13 88.80 L 63.74 89.18 L 64.35 89.57 L 64.96 89.95 L 65.57 90.33 L 66.17 90.72 L 66.78 91.10 L 67.39 91.48 L 68.00 91.87 L 68.61 92.25 L 69.22 92.63 L 69.83 93.02 L 70.44 93.40 L 70.79 93.62 L 71.43 93.93 L 72.08 94.25 L 72.37 94.39 L 73.08 94.54 L 73.78 94.70 L 74.04 94.75 L 74.76 94.81 L 75.47 94.86 L 75.63 94.88 L 76.35 94.81 L 77.06 94.74 L 77.11 94.74 L 77.78 94.47 L 78.38 94.24 L 78.89 93.73 L 79.19 93.45 L 79.54 92.82 L 79.84 92.27 L 80.10 91.59 L 80.28 91.14 L 80.41 90.44 L 80.49 90.01 L 80.35 89.31 L 80.22 88.64 L 80.04 87.95 L 79.94 87.59 L 79.69 86.91 L 79.44 86.24 L 79.42 86.19 L 79.01 85.61 L 78.59 85.02 L 78.42 84.78 L 77.85 84.33 L 77.29 83.89 L 76.79 83.50 L 76.18 83.11 L 75.57 82.73 L 74.96 82.35 L 74.35 81.96 L 73.74 81.58 L 73.13 81.20 L 72.52 80.81 L 71.91 80.43 L 71.30 80.05 L 70.70 79.66 L 70.09 79.28 L 69.48 78.90 L 68.87 78.51 L 68.26 78.13 L 67.65 77.75 L 67.04 77.36 L 66.43 76.98 L 65.82 76.60 L 65.21 76.21 L 65.03 76.10 L 64.38 75.79 L 63.73 75.48 L 63.72 75.47 L 63.00 75.40 L 62.61 75.36 L 61.91 75.51 L 61.62 75.58 L 61.03 75.99 L 60.89 76.09 L 60.35 76.57 L 60.27 76.65 L 59.87 77.14 L 59.31 77.59 L 59.14 77.72 L 58.66 77.71 L 58.06 77.43 L 57.59 77.04 L 57.46 76.67 L 57.62 75.96 L 57.67 75.76 L 58.04 75.14 L 58.41 74.52 L 58.44 74.46 L 58.77 73.82 L 59.01 73.35 L 59.30 72.69 L 59.59 72.03 L 59.86 71.42 L 60.04 70.72 L 60.21 70.02 L 60.34 69.51 L 60.38 69.15 L 60.37 68.89 L 60.83 68.59 L 61.50 68.82 L 62.02 69.14 L 62.59 68.71 L 63.17 68.27 L 63.74 67.84 L 64.32 67.41 L 64.89 66.97 L 65.47 66.54 L 66.04 66.11 L 66.62 65.67 L 67.19 65.24 L 67.77 64.81 L 67.84 64.75 L 67.40 64.31 L 67.36 63.80 L 67.45 63.08 L 67.53 62.37 L 67.59 61.93 L 67.58 61.21 L 67.58 60.49 L 67.58 60.30 L 67.44 59.59 L 67.29 58.89 L 67.15 58.18 L 67.01 57.47 L 66.93 57.03 L 66.91 56.77 L 66.96 56.40 L 67.21 56.30 L 67.52 56.37 L 68.11 56.79 L 68.24 56.88 L 68.80 57.33 L 69.34 57.77 L 69.93 58.19 L 70.52 58.61 L 70.59 58.66 L 71.20 59.05 L 71.80 59.44 L 72.00 59.57 L 72.32 59.64 L 72.13 58.95 L 71.94 58.25 L 71.75 57.56 L 71.65 57.18 L 71.54 56.79 L 71.46 56.07 L 71.38 55.36 L 71.30 54.64 L 71.27 54.36 L 71.25 54.17 L 71.38 53.46 L 71.51 52.75 L 71.65 52.05 L 71.67 51.93 L 71.70 51.73 L 72.01 51.08 L 72.32 50.42 L 72.63 49.77 L 72.65 49.73 L 72.79 49.42 L 73.26 48.88 L 73.63 48.46 L 74.24 48.08 L 74.73 47.78 L 75.42 47.59 L 76.09 47.41 L 76.81 47.37 L 77.53 47.34 L 77.72 47.33 L 78.43 47.41 L 79.15 47.49 L 79.49 47.53 L 80.19 47.72 L 80.88 47.91 L 81.30 48.02 L 81.96 48.30 L 82.63 48.57 L 83.13 48.78 L 83.76 49.13 L 84.38 49.48 L 84.99 49.82 L 85.60 50.20 L 86.21 50.59 L 86.81 50.97 L 87.42 51.35 L 88.03 51.74 L 88.64 52.12 L 89.25 52.50 L 89.86 52.89 L 90.47 53.27 L 91.08 53.65 L 91.69 54.04 L 92.30 54.42 L 92.91 54.80 L 93.52 55.19 L 94.13 55.57 L 94.74 55.95 L 95.35 56.34 L 95.96 56.72 L 96.57 57.10 L 97.18 57.49 L 97.79 57.87 L 98.40 58.25 L 98.81 58.52 L 99.47 58.80 L 99.98 59.02 L 100.70 58.94 L 100.90 58.92 L 101.53 58.57 L 102.16 58.23 L 102.56 58.01 L 103.20 57.68 L 103.35 57.60 L 103.85 57.53 L 104.36 57.72 L 104.63 58.02 L 104.64 58.42 L 104.26 59.03 L 103.88 59.64 L 103.50 60.25 L 103.42 60.37 L 102.89 60.87 L 102.51 61.23 L 102.13 61.84 L 101.75 62.45 L 101.36 63.06 L 100.98 63.67 L 100.87 63.84 L 100.65 64.52 L 100.49 65.02 L 100.11 65.63 L 99.72 66.24 L 99.34 66.85 L 99.20 67.07 L 98.83 67.23 L 98.45 67.12 L 98.06 66.74 L 97.91 66.26 L 97.97 65.54 L 97.99 65.27 L 98.01 64.55 L 98.03 63.83 L 98.03 63.48 L 97.80 62.80 L 97.73 62.61 L 97.18 62.14 L 96.76 61.77 L 96.15 61.39 L 95.55 61.01 L 94.94 60.62 L 94.33 60.24 L 93.72 59.86 L 93.11 59.47 L 92.50 59.09 L 91.89 58.71 L 91.28 58.32 L 90.67 57.94 L 90.06 57.56 L 89.45 57.17 L 88.84 56.79 L 88.23 56.41 L 87.62 56.02 L 87.01 55.64 L 86.40 55.26 L 85.79 54.87 L 85.18 54.49 L 84.57 54.11 L 83.96 53.72 L 83.36 53.34 L 83.20 53.24 L 82.57 52.89 L 81.94 52.54 L 81.81 52.47 L 81.14 52.20 L 80.50 51.93 L 79.80 51.77 L 79.26 51.64 L 78.54 51.61 L 78.10 51.59 L 77.39 51.71 L 77.03 51.77 L 76.36 52.05 L 76.07 52.17 L 75.49 52.59 L 75.22 52.78 L 74.75 53.32 L 74.49 53.61 L 74.18 54.26 L 73.88 54.91 L 73.70 55.29 L 73.60 56.00 L 73.49 56.71 L 73.45 56.98 L 73.46 57.70 L 73.46 58.42 L 73.46 58.68 L 73.63 59.38 L 73.79 60.08 L 73.85 60.35 L 74.19 60.99 L 74.27 61.13 L 74.88 61.51 L 75.49 61.90 L 76.09 62.28 L 76.70 62.66 L 77.31 63.05 L 77.92 63.43 L 78.53 63.81 L 79.14 64.20 L 79.75 64.58 L 80.36 64.96 L 80.97 65.35 L 81.58 65.73 L 82.19 66.11 L 82.80 66.50 L 83.41 66.88 L 84.02 67.26 L 84.63 67.65 L 85.24 68.03 L 85.85 68.41 L 86.46 68.80 L 87.07 69.18 L 87.68 69.56 L 88.28 69.95 L 88.89 70.33 L 89.50 70.71 L 90.11 71.10 L 90.68 71.45 L 91.34 71.74 L 91.85 71.96 L 92.56 71.88 L 92.77 71.86 L 93.41 71.53 L 94.05 71.20 L 94.36 71.04 L 94.99 70.69 L 95.34 70.49 L 96.06 70.57 L 96.10 70.57 L 96.38 70.85 L 96.44 71.18 L 96.37 71.50 L 96.16 71.91 L 95.78 72.52 L 95.39 73.13 L 95.22 73.40 L 94.70 73.90 L 94.32 74.26 L 93.94 74.87 L 93.55 75.48 L 93.17 76.09 L 92.79 76.70 L 92.68 76.87 L 92.46 77.55 L 92.30 78.05 L 91.91 78.66 L 91.53 79.27 L 91.42 79.45 L 90.94 79.98 L 90.82 80.11 L 90.19 79.97 L 89.81 79.64 L 89.72 79.29 L 89.73 78.91 L 89.80 78.30 L 89.84 77.58 L 89.87 76.86 L 89.90 76.42 L 89.66 75.74 L 89.59 75.54 L 89.05 75.07 L 88.63 74.71 L 88.02 74.32 L 87.41 73.94 L 86.80 73.56 L 86.19 73.18 L 85.58 72.79 L 84.97 72.41 L 84.36 72.03 L 83.75 71.64 L 83.14 71.26 L 82.53 70.88 L 81.92 70.49 L 81.31 70.11 L 80.71 69.73 L 80.10 69.34 L 79.49 68.96 L 78.88 68.58 L 78.27 68.19 L 77.66 67.81 L 77.05 67.43 L 76.44 67.04 L 75.83 66.66 L 75.22 66.28 L 74.67 65.93 L 74.05 65.58 L 73.42 65.22 L 73.08 65.03 L 72.42 64.74 L 71.75 64.46 L 71.65 64.42 L 70.94 64.33 L 70.23 64.24 L 69.57 64.51 L 68.91 64.77 L 68.48 64.89 L 67.84 64.75 L 67.40 64.31 L 67.36 63.80 L 67.45 63.08 L 67.53 62.37 L 67.59 61.93 L 67.58 61.21 L 67.58 60.49 L 67.58 60.30 L 67.44 59.59 L 67.29 58.89 L 67.15 58.18 L 67.01 57.47 L 66.93 57.03 L 66.91 56.77 L 66.96 56.40 L 67.21 56.30 L 67.52 56.37 L 68.11 56.79 L 68.24 56.88 L 68.80 57.33 L 69.34 57.77 L 69.93 58.19 L 70.52 58.61 L 70.59 58.66 L 71.20 59.05 L 71.80 59.44 L 72.00 59.57 L 72.32 59.64 L 72.13 58.95 L 71.94 58.25 L 71.75 57.56 L 71.65 57.18 L 71.54 56.79 L 71.46 56.07 L 71.38 55.36 L 71.30 54.64 L 71.27 54.36 L 71.25 54.17 L 71.38 53.46 L 71.51 52.75 L 71.65 52.05 L 71.67 51.93 L 71.70 51.73 L 72.01 51.08 L 72.32 50.42 L 72.63 49.77 L 72.65 49.73 L 72.79 49.42 L 73.26 48.88 L 73.63 48.46 L 74.24 48.08 L 74.73 47.78 L 75.42 47.59 L 76.09 47.41 L 76.81 47.37 L 77.53 47.34 L 77.72 47.33 L 78.43 47.41 L 79.15 47.49 L 79.49 47.53 L 80.19 47.72 L 80.88 47.91 L 81.30 48.02 L 81.96 48.30 L 82.63 48.57 L 83.13 48.78 L 83.76 49.13 L 84.38 49.48 L 84.99 49.82 L 85.48 49.30 L 85.97 48.77 L 86.47 48.25 L 86.96 47.73 L 87.46 47.20 L 87.95 46.68 L 88.45 46.15 L 88.94 45.63 L 89.43 45.11 L 89.85 44.66 L 89.34 44.16 L 88.83 43.65 L 88.44 43.25 L 87.98 42.69 L 87.53 42.14 L 87.19 41.73 L 86.79 41.13 L 86.39 40.53 L 86.13 40.14 L 85.79 39.50 L 85.45 38.87 L 85.27 38.54 L 85.01 37.87 L 84.74 37.20 L 84.63 36.93 L 84.45 36.23 L 84.26 35.53 L 84.20 35.30 L 84.14 34.58 L 84.08 33.86 L 84.07 33.75 L 84.13 33.04 L 84.19 32.32 L 84.19 32.31 L 84.38 31.61 L 84.57 30.95 L 84.89 30.31 L 85.20 29.69 L 85.67 29.15 L 86.14 28.60 L 86.57 28.09 L 87.18 27.71 L 87.80 27.33 L 88.34 26.99 L 89.04 26.83 L 89.74 26.66 L 90.36 26.51 L 91.08 26.52 L 91.80 26.54 L 92.52 26.55 L 92.59 26.55 L 93.29 26.73 L 93.98 26.91 L 94.68 27.09 L 94.95 27.16 L 95.60 27.49 L 96.24 27.81 L 96.88 28.14 L 97.38 28.39 L 97.95 28.83 L 98.23 29.05 L 98.65 29.63 L 98.71 29.72 L 98.82 30.40 L 98.58 31.07 L 98.57 31.09 L 98.19 31.70 L 97.80 32.31 L 97.42 32.92 L 97.04 33.53 L 96.65 34.14 L 96.27 34.75 L 95.89 35.36 L 95.50 35.97 L 95.12 36.57 L 94.74 37.18 L 94.35 37.79 L 93.97 38.40 L 93.59 39.01 L 93.20 39.62 L 92.82 40.23 L 92.44 40.84 L 92.37 40.95 L 92.11 41.57 L 92.17 42.13 L 92.70 42.62 L 92.82 42.74 L 93.42 43.14 L 93.99 43.53 L 94.63 43.87 L 95.26 44.20 L 95.90 44.54 L 96.54 44.87 L 96.68 44.95 L 97.11 45.17 L 97.79 45.39 L 98.48 45.61 L 99.16 45.83 L 99.85 46.05 L 99.93 46.07 L 100.26 46.18 L 100.98 46.25 L 101.69 46.32 L 102.41 46.39 L 103.05 46.45 L 103.19 46.46 L 103.90 46.37 L 104.62 46.27 L 105.33 46.17 L 105.76 46.11 L 105.90 46.09 L 106.59 45.87 L 107.10 45.70 L 107.73 45.35 L 108.14 45.13 L 108.68 44.66 L 109.02 44.37 L 109.46 43.80 L 109.74 43.44 L 110.03 42.78 L 110.32 42.12 L 110.38 41.99 L 110.45 41.27 L 110.53 40.56 L 110.54 40.44 L 110.43 39.73 L 110.32 39.02 L 110.28 38.78 L 110.03 38.10 L 109.79 37.43 L 109.63 37.01 L 109.36 36.58 L 109.54 36.30 L 109.84 36.10 L 110.29 36.25 L 110.83 36.73 L 111.37 37.20 L 111.48 37.29 L 111.88 37.90 L 112.28 38.50 L 112.48 38.80 L 112.79 39.44 L 113.11 40.09 L 113.20 40.29 L 113.39 40.99 L 113.57 41.68 L 113.62 41.85 L 113.69 42.57 L 113.76 43.29 L 113.77 43.41 L 113.73 44.13 L 113.70 44.85 L 113.69 44.89 L 113.41 45.55 L 113.13 46.21 L 112.85 46.88 L 112.57 47.54 L 112.56 47.55 L 112.13 48.13 L 111.69 48.70 L 111.69 48.71 L 111.16 49.19 L 110.65 49.66 L 110.04 50.04 L 109.44 50.41 L 108.77 50.68 L 108.11 50.95 L 108.07 50.96 L 107.36 51.08 L 106.65 51.21 L 106.53 51.23 L 105.81 51.26 L 105.09 51.29 L 104.89 51.30 L 104.17 51.24 L 103.45 51.19 L 103.14 51.17 L 102.43 51.05 L 101.72 50.93 L 101.29 50.85 L 100.60 50.64 L 99.91 50.42 L 99.33 50.24 L 98.66 49.97 L 97.99 49.70 L 97.33 49.43 L 97.32 49.43 L 96.67 49.10 L 96.03 48.78 L 95.38 48.46 L 95.26 48.40 L 94.64 48.03 L 94.02 47.67 L 93.39 47.31 L 93.15 47.16 L 92.56 46.75 L 91.96 46.34 L 91.42 45.97 L 90.87 45.51 L 90.31 45.05 L 89.85 44.66 L 89.34 44.16 L 88.83 43.65 L 88.44 43.25 L 87.98 42.69 L 87.53 42.14 L 87.19 41.73 L 86.79 41.13 L 86.39 40.53 L 86.13 40.14 L 85.79 39.50 L 85.45 38.87 L 85.27 38.54 L 85.01 37.87 L 84.74 37.20 L 84.63 36.93 L 84.45 36.23 L 84.26 35.53 L 84.20 35.30 L 84.14 34.58 L 84.08 33.86 L 84.07 33.75 L 84.13 33.04 L 84.19 32.32 L 84.19 32.31 L 84.38 31.61 L 84.57 30.95 L 84.89 30.31 L 85.20 29.69 L 85.67 29.15 L 86.14 28.60 L 86.57 28.09 L 87.18 27.71 L 87.80 27.33 L 88.34 26.99 L 89.04 26.83 L 89.74 26.66 L 90.36 26.51 L 91.08 26.52 L 91.80 26.54 L 92.52 26.55 L 92.59 26.55 L 93.29 26.73 L 93.98 26.91 L 94.68 27.09 L 94.95 27.16 L 95.60 27.49 L 96.24 27.81 L 96.88 28.14 L 97.38 28.39 L 97.95 28.83 L 98.23 29.05 L 98.65 29.63 L 98.71 29.72 L 98.82 30.40 L 98.58 31.07 L 98.57 31.09 L 98.19 31.70 L 97.80 32.31 L 97.42 32.92 L 97.04 33.53 L 96.65 34.14 L 96.27 34.75 L 95.89 35.36 L 95.50 35.97 L 95.12 36.57 L 94.74 37.18 L 94.35 37.79 L 93.97 38.40 L 93.59 39.01 L 93.20 39.62 L 92.82 40.23 L 92.44 40.84 L 92.37 40.95 L 91.71 40.66 L 91.05 40.37 L 90.39 40.08 L 89.93 39.88 L 90.36 39.56 L 90.74 38.95 L 91.12 38.34 L 91.51 37.73 L 91.89 37.12 L 92.27 36.51 L 92.66 35.90 L 93.04 35.29 L 93.05 35.28 L 93.39 34.65 L 93.73 34.01 L 94.07 33.38 L 94.09 33.34 L 94.09 33.34 L 94.36 32.67 L 94.64 32.01 L 94.77 31.69 L 94.82 31.39 L 94.61 31.07 L 94.05 30.63 L 93.77 30.41 L 93.13 30.08 L 92.79 29.90 L 92.10 29.69 L 91.80 29.59 L 91.09 29.52 L 90.80 29.49 L 90.08 29.56 L 89.78 29.59 L 89.09 29.82 L 88.41 30.04 L 87.89 30.22 L 87.38 30.72 L 86.86 31.23 L 86.60 31.48 L 86.35 32.16 L 86.14 32.72 L 86.15 33.44 L 86.16 34.16 L 86.16 34.19 L 86.31 34.90 L 86.46 35.60 L 86.52 35.85 L 86.80 36.51 L 87.07 37.17 L 87.18 37.44 L 87.62 38.01 L 88.05 38.58 L 88.17 38.74 L 88.73 39.19 L 89.28 39.65 L 89.36 39.71 L 89.93 39.88 L 90.59 40.17 L 91.25 40.46 L 91.91 40.75 L 92.37 40.95 L 92.11 41.57 L 92.17 42.13 L 92.70 42.62 L 92.82 42.74 L 93.42 43.14 L 93.99 43.53 L 94.63 43.87 L 95.26 44.20 L 95.90 44.54 L 96.54 44.87 L 96.68 44.95 L 97.11 45.17 L 97.79 45.39 L 98.48 45.61 L 99.16 45.83 L 99.85 46.05 L 99.93 46.07 L 100.26 46.18 L 100.98 46.25 L 101.69 46.32 L 102.41 46.39 L 103.05 46.45 L 103.19 46.46 L 103.90 46.37 L 104.62 46.27 L 105.33 46.17 L 105.76 46.11 L 105.90 46.09 L 106.59 45.87 L 107.10 45.70 L 107.73 45.35 L 108.14 45.13 L 108.68 44.66 L 109.02 44.37 L 109.46 43.80 L 109.74 43.44 L 110.03 42.78 L 110.32 42.12 L 110.38 41.99 L 110.45 41.27 L 110.53 40.56 L 110.54 40.44 L 110.43 39.73 L 110.32 39.02 L 110.28 38.78 L 110.03 38.10 L 109.79 37.43 L 109.63 37.01 L 109.36 36.58 L 109.54 36.30 L 109.84 36.10 L 110.29 36.25 L 110.83 36.73 L 111.37 37.20 L 111.48 37.29 L 111.88 37.90 L 112.28 38.50 L 112.48 38.80 L 112.79 39.44 L 113.11 40.09 L 113.20 40.29 L 113.39 40.99 L 113.57 41.68 L 113.62 41.85 L 113.69 42.57 L 113.76 43.29 L 113.77 43.41 L 113.73 44.13 L 113.70 44.85 L 113.69 44.89 L 113.41 45.55 L 113.13 46.21 L 112.85 46.88 L 112.57 47.54 L 112.56 47.55 L 113.17 47.94 L 113.78 48.32 L 114.39 48.70 L 115.00 49.08 L 115.61 49.47 L 116.22 49.85 L 116.83 50.23 L 117.44 50.62 L 118.05 51.00 L 118.66 51.38 L 119.26 51.77 L 119.87 52.15 L 120.48 52.53 L 121.09 52.92 L 121.23 53.00 L 120.85 53.61 L 120.46 54.22 L 120.08 54.83 L 119.70 55.44 L 119.31 56.05 L 118.93 56.66 L 118.55 57.27 L 118.16 57.88 L 117.78 58.49 L 117.40 59.10 L 117.01 59.71 L 116.63 60.32 L 116.25 60.93 L 115.86 61.54 L 115.48 62.15 L 115.10 62.76 L 114.71 63.37 L 114.33 63.97 L 113.95 64.58 L 113.56 65.19 L 113.18 65.80 L 112.80 66.41 L 112.41 67.02 L 112.03 67.63 L 111.65 68.24 L 111.27 68.85 L 110.88 69.46 L 110.50 70.07 L 110.12 70.68 L 109.73 71.29 L 109.35 71.90 L 108.97 72.51 L 108.58 73.12 L 108.20 73.73 L 107.81 74.34 L 107.43 74.95 L 107.05 75.56 L 106.67 76.16 L 106.28 76.77 L 105.90 77.38 L 105.52 77.99 L 105.13 78.60 L 104.75 79.21 L 104.37 79.82 L 103.98 80.43 L 103.60 81.04 L 103.22 81.65 L 102.83 82.26 L 102.45 82.87 L 102.07 83.48 L 101.68 84.09 L 101.30 84.70 L 100.92 85.31 L 100.53 85.92 L 100.15 86.53 L 99.77 87.14 L 99.38 87.74 L 99.00 88.35 L 98.62 88.96 L 98.23 89.57 L 97.85 90.18 L 97.47 90.79 L 97.08 91.40 L 96.70 92.01 L 96.32 92.62 L 95.93 93.23 L 95.55 93.84 L 95.17 94.45 L 94.78 95.06 L 94.40 95.67 L 94.02 96.28 L 93.63 96.89 L 93.25 97.50 L 92.87 98.11 L 92.48 98.72 L 92.10 99.33 L 91.72 99.93 L 91.33 100.54 L 90.95 101.15 L 90.57 101.76 L 90.18 102.37 L 89.80 102.98 L 89.42 103.59 L 89.03 104.20 L 88.65 104.81 L 88.27 105.42 L 87.88 106.03 L 87.50 106.64 L 87.12 107.25 L 86.73 107.86 L 86.35 108.47 L 85.97 109.08 L 85.58 109.69 L 85.20 110.30 L 84.82 110.91 L 84.43 111.51 L 84.05 112.12 L 83.67 112.73 L 83.28 113.34 L 82.90 113.95 L 82.52 114.56 L 82.13 115.17 L 81.75 115.78 L 81.37 116.39 L 80.98 117.00 L 80.60 117.61 L 80.22 118.22 L 79.83 118.83 L 79.45 119.44 L 79.07 120.05 L 78.68 120.66 L 78.30 121.27 L 77.92 121.88 L 77.53 122.49 L 77.15 123.09 L 76.77 123.70 L 76.38 124.31 L 76.00 124.92 L 75.62 125.53 L 75.23 126.14 L 74.85 126.75 L 74.47 127.36 L 74.08 127.97 L 73.70 128.58 L 73.32 129.19 L 72.93 129.80 L 72.55 130.41 L 72.17 131.02 L 71.78 131.63 L 71.40 132.24 L 71.02 132.85 L 70.63 133.46 L 70.25 134.07 L 69.87 134.68 L 69.48 135.28 L 69.10 135.89 L 68.72 136.50 L 68.33 137.11 L 67.95 137.72 L 67.57 138.33 L 67.18 138.94 L 66.80 139.55 L 66.42 140.16 L 66.03 140.77 L 65.65 141.38 L 65.27 141.99 L 64.88 142.60 L 64.50 143.21 L 64.12 143.82 L 63.73 144.43 L 63.35 145.04 L 62.97 145.65 L 62.58 146.26 L 62.20 146.87 L 61.82 147.47 L 61.43 148.08 L 61.05 148.69 L 60.67 149.30 L 60.28 149.91 L 59.90 150.52 L 59.52 151.13 L 59.13 151.74 L 58.75 152.35 L 58.37 152.96 L 57.98 153.57 L 57.60 154.18 L 57.22 154.79 L 56.83 155.40 L 56.45 156.01 L 56.07 156.62 L 55.68 157.23 L 55.30 157.84 L 54.92 158.44 L 54.53 159.05 L 54.15 159.66 L 53.77 160.27 L 53.38 160.88 L 53.00 161.49 L 52.62 162.10 L 52.40 162.45 L 53.01 162.83 L 53.62 163.21 L 54.23 163.60 L 54.84 163.98 L 55.45 164.36 L 56.06 164.75 L 56.67 165.13 L 57.28 165.51 L 57.89 165.90 L 58.50 166.28 L 59.11 166.66 L 59.72 167.05 L 60.32 167.43 L 60.68 167.65 L 61.10 167.07 L 61.52 166.49 L 61.94 165.90 L 61.97 165.87 L 62.39 165.28 L 62.81 164.70 L 63.23 164.11 L 63.58 163.63 L 63.96 163.02 L 64.34 162.41 L 64.73 161.80 L 65.10 161.21 L 65.43 160.57 L 65.67 160.08 L 66.03 159.45 L 66.14 159.27 L 66.60 158.71 L 66.91 158.33 L 67.35 158.21 L 67.66 158.28 L 68.06 158.66 L 68.21 159.14 L 68.19 159.81 L 68.11 160.53 L 68.09 160.75 L 68.07 161.36 L 68.46 161.89 L 69.00 162.36 L 69.55 162.83 L 69.63 162.89 L 70.27 163.22 L 70.92 163.54 L 71.56 163.86 L 71.69 163.92 L 72.34 164.23 L 72.52 164.32 L 73.21 164.52 L 73.91 164.71 L 74.60 164.91 L 75.29 165.10 L 75.35 165.12 L 76.05 165.32 L 76.74 165.51 L 77.43 165.71 L 78.13 165.91 L 78.19 165.92 L 78.88 166.12 L 79.58 166.32 L 80.27 166.51 L 80.79 166.66 L 81.48 166.86 L 82.17 167.07 L 82.86 167.27 L 83.55 167.47 L 84.24 167.68 L 84.93 167.88 L 85.62 168.09 L 86.31 168.29 L 86.45 168.33 L 87.14 168.53 L 87.78 168.72 L 88.48 168.90 L 89.18 169.08 L 89.88 169.26 L 90.57 169.44 L 90.62 169.45 L 91.32 169.63 L 92.01 169.81 L 92.71 169.99 L 93.41 170.17 L 93.46 170.18 L 94.15 170.36 L 94.77 170.52 L 95.46 170.71 L 96.16 170.90 L 96.85 171.09 L 97.55 171.27 L 97.60 171.29 L 98.30 171.48 L 98.99 171.67 L 99.69 171.86 L 100.38 172.05 L 100.44 172.06 L 101.14 172.25 L 101.83 172.44 L 102.53 172.63 L 102.78 172.70 L 103.49 172.79 L 103.71 172.64 L 103.63 172.42 L 103.24 171.95 L 102.77 171.41 L 102.29 170.87 L 101.81 170.34 L 101.33 169.80 L 100.86 169.26 L 100.38 168.72 L 99.90 168.18 L 99.43 167.64 L 98.95 167.10 L 98.47 166.56 L 97.99 166.02 L 97.52 165.48 L 97.38 165.33 L 96.91 164.79 L 96.43 164.26 L 95.95 163.72 L 95.47 163.18 L 95.43 163.13 L 94.95 162.59 L 94.47 162.05 L 94.00 161.51 L 93.52 160.97 L 93.48 160.92 L 93.12 160.52 L 92.60 160.03 L 92.07 159.54 L 91.88 159.35 L 91.23 159.03 L 90.91 158.87 L 90.22 158.66 L 89.70 158.50 L 89.01 158.30 L 88.32 158.10 L 87.63 157.90 L 86.94 157.69 L 86.25 157.49 L 85.56 157.29 L 84.87 157.09 L 84.17 156.88 L 84.04 156.84 L 83.35 156.64 L 82.65 156.44 L 81.96 156.24 L 81.27 156.03 L 81.20 156.01 L 80.51 155.81 L 79.82 155.61 L 79.13 155.41 L 78.89 155.34 L 78.18 155.22 L 77.47 155.11 L 76.76 155.00 L 76.47 154.95 L 75.75 155.00 L 75.03 155.04 L 74.32 155.09 L 74.17 155.10 L 73.48 155.31 L 72.80 155.52 L 72.27 155.69 L 71.63 156.03 L 71.00 156.37 L 70.37 156.71 L 70.21 156.80 L 70.02 156.90 L 69.43 157.18 L 68.83 157.29 L 68.37 157.16 L 68.10 156.86 L 68.08 156.46 L 68.31 155.78 L 68.47 155.28 L 68.91 154.71 L 69.34 154.13 L 69.78 153.56 L 70.22 152.99 L 70.48 152.65 L 70.87 152.04 L 71.25 151.43 L 71.63 150.82 L 72.02 150.21 L 72.40 149.60 L 72.71 149.11 L 73.04 148.47 L 73.38 147.84 L 73.63 147.36 L 74.09 146.80 L 74.35 146.51 L 74.78 146.39 L 75.10 146.46 L 75.51 146.88 L 75.71 147.49 L 75.80 148.21 L 75.90 148.91 L 76.07 149.50 L 76.60 149.99 L 76.64 150.03 L 77.16 150.35 L 77.73 150.45 L 78.40 150.69 L 78.68 150.79 L 79.38 150.99 L 80.07 151.18 L 80.76 151.38 L 81.29 151.52 L 81.98 151.73 L 82.67 151.93 L 83.36 152.13 L 84.05 152.34 L 84.12 152.36 L 84.81 152.56 L 85.09 152.65 L 85.79 152.82 L 86.49 153.00 L 86.57 153.02 L 86.88 152.96 L 86.82 152.63 L 86.41 152.03 L 86.40 152.01 L 85.91 151.48 L 85.42 150.94 L 84.94 150.41 L 84.45 149.88 L 83.96 149.35 L 83.48 148.82 L 82.99 148.29 L 82.50 147.76 L 82.40 147.64 L 81.91 147.11 L 81.90 147.10 L 81.38 146.61 L 80.85 146.12 L 80.33 145.63 L 80.20 145.51 L 79.81 145.27 L 79.16 144.97 L 79.08 144.94 L 78.42 144.91 L 77.72 145.10 L 77.11 145.26 L 76.47 145.34 L 75.92 145.16 L 75.72 144.90 L 75.63 144.46 L 75.93 143.80 L 76.09 143.45 L 76.49 142.85 L 76.71 142.54 L 77.16 142.04 L 77.54 141.43 L 77.80 141.02 L 78.12 140.37 L 78.44 139.73 L 78.49 139.63 L 78.78 138.97 L 78.79 138.94 L 79.15 138.32 L 79.24 138.15 L 79.67 137.61 L 80.14 137.29 L 80.51 137.14 L 80.89 137.25 L 81.22 137.58 L 81.43 138.11 L 81.38 138.76 L 81.24 139.46 L 81.09 140.17 L 80.95 140.87 L 80.93 140.98 L 80.88 141.20 L 80.99 141.91 L 81.06 142.42 L 81.35 143.08 L 81.48 143.40 L 81.86 144.02 L 82.23 144.63 L 82.30 144.76 L 82.76 145.31 L 83.21 145.87 L 83.67 146.43 L 83.83 146.63 L 84.30 147.17 L 84.76 147.72 L 85.23 148.27 L 85.70 148.82 L 85.73 148.86 L 86.20 149.41 L 86.22 149.43 L 86.70 149.95 L 87.19 150.48 L 87.68 151.01 L 88.17 151.54 L 88.22 151.60 L 88.71 152.13 L 88.79 152.21 L 89.17 152.68 L 89.71 153.16 L 89.78 153.22 L 90.36 153.64 L 90.52 153.76 L 91.07 154.04 L 91.76 154.24 L 92.45 154.45 L 93.14 154.65 L 93.83 154.86 L 93.90 154.88 L 94.59 155.09 L 95.28 155.29 L 95.97 155.50 L 96.66 155.71 L 96.73 155.73 L 97.42 155.93 L 98.11 156.14 L 98.80 156.34 L 99.49 156.55 L 99.57 156.57 L 100.26 156.78 L 100.95 156.98 L 101.64 157.19 L 102.33 157.40 L 102.40 157.42 L 103.09 157.62 L 103.78 157.83 L 104.47 158.04 L 105.16 158.24 L 105.23 158.26 L 105.92 158.47 L 106.61 158.67 L 107.30 158.88 L 107.99 159.09 L 108.06 159.11 L 108.75 159.31 L 109.44 159.52 L 110.13 159.73 L 110.82 159.93 L 110.90 159.95 L 111.11 160.02 L 111.44 160.06 L 111.54 159.90 L 111.39 159.64 L 111.07 159.22 L 110.58 158.69 L 110.08 158.17 L 109.59 157.65 L 109.16 157.20 L 108.66 156.68 L 108.16 156.17 L 107.66 155.65 L 107.16 155.13 L 107.09 155.06 L 106.99 154.96 L 106.48 154.45 L 105.98 153.93 L 105.47 153.42 L 104.97 152.91 L 104.90 152.83 L 104.55 152.49 L 104.05 151.98 L 103.54 151.47 L 103.03 150.96 L 102.52 150.45 L 102.45 150.37 L 101.94 149.86 L 101.86 149.78 L 101.34 149.28 L 100.83 148.78 L 100.31 148.27 L 99.80 147.77 L 99.28 147.27 L 98.77 146.76 L 98.25 146.26 L 97.74 145.76 L 97.22 145.26 L 96.71 144.75 L 96.19 144.25 L 95.88 143.95 L 95.36 143.45 L 94.84 142.95 L 94.32 142.45 L 93.80 141.96 L 93.28 141.46 L 92.76 140.96 L 92.24 140.47 L 91.72 139.97 L 91.55 139.80 L 91.03 139.31 L 90.51 138.81 L 89.99 138.31 L 89.52 137.87 L 89.01 137.35 L 88.53 136.85 L 87.95 136.42 L 87.43 136.03 L 86.78 135.71 L 86.50 135.57 L 85.79 135.41 L 85.51 135.35 L 84.79 135.36 L 84.60 135.36 L 83.97 135.71 L 83.34 136.05 L 82.71 136.40 L 82.67 136.42 L 82.02 136.59 L 81.55 136.49 L 81.28 136.19 L 81.26 135.79 L 81.45 135.29 L 81.78 134.69 L 82.16 134.08 L 82.55 133.47 L 82.93 132.86 L 83.31 132.25 L 83.70 131.64 L 83.83 131.43 L 84.18 130.80 L 84.52 130.17 L 84.87 129.54 L 85.10 129.12 L 85.43 128.47 L 85.66 128.01 L 86.03 127.38 L 86.20 127.08 L 86.63 126.54 L 87.11 126.22 L 87.47 126.06 L 87.86 126.17 L 88.19 126.51 L 88.40 127.03 L 88.36 127.66 L 88.23 128.37 L 88.21 128.47 L 88.14 129.19 L 88.07 129.84 L 88.17 130.56 L 88.28 131.24 L 88.59 131.89 L 88.90 132.54 L 88.92 132.59 L 89.30 133.19 L 89.69 133.80 L 89.71 133.83 L 90.19 134.37 L 90.66 134.91 L 91.14 135.45 L 91.50 135.86 L 92.00 136.38 L 92.50 136.90 L 93.00 137.42 L 93.50 137.93 L 94.00 138.45 L 94.50 138.97 L 95.00 139.49 L 95.50 140.00 L 95.63 140.14 L 96.13 140.66 L 96.64 141.18 L 97.14 141.70 L 97.64 142.21 L 97.70 142.28 L 98.20 142.80 L 98.70 143.32 L 99.20 143.83 L 99.70 144.35 L 99.77 144.42 L 100.27 144.94 L 100.77 145.46 L 101.27 145.97 L 101.77 146.49 L 101.84 146.56 L 102.34 147.08 L 102.84 147.59 L 103.34 148.11 L 103.84 148.63 L 103.91 148.70 L 104.41 149.22 L 104.91 149.73 L 105.41 150.25 L 105.91 150.77 L 106.41 151.29 L 106.91 151.80 L 107.41 152.32 L 107.91 152.84 L 108.04 152.98 L 108.54 153.49 L 109.05 154.01 L 109.55 154.53 L 110.05 155.05 L 110.11 155.12 L 110.61 155.63 L 111.11 156.15 L 111.61 156.67 L 112.11 157.19 L 112.18 157.25 L 112.68 157.77 L 113.18 158.29 L 113.68 158.81 L 114.18 159.33 L 114.25 159.39 L 114.75 159.91 L 115.25 160.43 L 115.75 160.95 L 116.25 161.46 L 116.75 161.98 L 117.25 162.50 L 117.75 163.02 L 118.25 163.54 L 118.39 163.67 L 118.89 164.19 L 119.39 164.71 L 119.89 165.23 L 120.01 165.36 L 120.33 165.65 L 120.74 166.21 L 121.10 166.72 L 121.10 167.08 L 120.87 167.23 L 120.42 167.30 L 119.71 167.18 L 119.28 167.10 L 118.59 166.91 L 117.89 166.71 L 117.20 166.51 L 116.51 166.32 L 116.44 166.30 L 115.75 166.10 L 115.06 165.91 L 114.95 165.88 L 114.26 165.69 L 113.57 165.50 L 112.87 165.31 L 112.18 165.12 L 112.12 165.11 L 111.42 164.92 L 111.14 164.84 L 110.45 164.63 L 109.77 164.42 L 109.08 164.21 L 108.39 164.00 L 108.31 163.97 L 107.62 163.76 L 106.93 163.55 L 106.25 163.34 L 105.56 163.13 L 105.48 163.11 L 104.79 162.89 L 104.10 162.68 L 103.89 162.62 L 103.20 162.41 L 102.51 162.20 L 101.82 162.00 L 101.13 161.79 L 101.05 161.77 L 100.36 161.57 L 100.05 161.47 L 99.36 161.27 L 98.67 161.08 L 97.98 160.88 L 97.28 160.68 L 97.22 160.66 L 96.52 160.47 L 95.83 160.27 L 95.81 160.26 L 95.30 160.21 L 95.47 160.51 L 95.85 161.07 L 96.32 161.61 L 96.80 162.15 L 97.27 162.69 L 97.75 163.23 L 97.79 163.28 L 98.27 163.82 L 98.66 164.26 L 99.15 164.79 L 99.64 165.32 L 100.13 165.85 L 100.62 166.37 L 100.67 166.43 L 101.16 166.96 L 101.26 167.07 L 101.75 167.60 L 102.23 168.14 L 102.72 168.67 L 103.20 169.20 L 103.25 169.26 L 103.74 169.79 L 104.22 170.32 L 104.71 170.86 L 105.19 171.39 L 105.24 171.45 L 105.73 171.98 L 105.95 172.23 L 106.44 172.76 L 106.93 173.29 L 107.42 173.82 L 107.91 174.34 L 107.97 174.40 L 108.46 174.93 L 108.61 175.10 L 109.11 175.62 L 109.61 176.14 L 110.11 176.66 L 110.61 177.18 L 110.67 177.25 L 111.17 177.76 L 111.67 178.28 L 111.69 178.30 L 112.14 178.87 L 112.58 179.44 L 112.69 179.58 L 113.00 180.17 L 112.99 180.55 L 112.78 180.58 L 112.29 180.50 L 111.59 180.35 L 110.89 180.19 L 110.71 180.15 L 110.02 179.95 L 109.33 179.75 L 108.64 179.55 L 107.94 179.35 L 107.25 179.14 L 106.56 178.94 L 105.87 178.74 L 105.18 178.54 L 104.49 178.34 L 103.80 178.13 L 103.11 177.93 L 102.42 177.73 L 101.72 177.53 L 101.03 177.33 L 100.34 177.12 L 99.65 176.92 L 98.96 176.72 L 98.27 176.52 L 97.58 176.32 L 96.89 176.11 L 96.20 175.91 L 95.50 175.71 L 94.81 175.51 L 94.12 175.31 L 93.43 175.10 L 92.74 174.90 L 92.05 174.70 L 91.36 174.50 L 90.67 174.30 L 89.98 174.09 L 89.29 173.89 L 88.59 173.69 L 88.04 173.53 L 87.35 173.33 L 86.66 173.12 L 85.97 172.92 L 85.28 172.72 L 85.21 172.70 L 84.52 172.50 L 83.82 172.30 L 83.13 172.09 L 82.44 171.89 L 81.75 171.69 L 81.06 171.49 L 80.37 171.29 L 79.68 171.08 L 78.99 170.88 L 78.30 170.68 L 77.60 170.48 L 76.91 170.28 L 76.22 170.07 L 75.53 169.87 L 74.84 169.67 L 74.15 169.47 L 73.46 169.27 L 72.77 169.06 L 72.08 168.86 L 71.38 168.66 L 71.04 168.56 L 70.35 168.36 L 69.66 168.16 L 69.43 168.09 L 68.72 167.97 L 68.01 167.85 L 67.51 167.76 L 66.79 167.77 L 66.07 167.78 L 65.84 167.78 L 65.13 167.94 L 64.43 168.10 L 64.36 168.12 L 63.72 168.43 L 63.07 168.75 L 63.06 168.76 L 62.43 169.11 L 61.81 169.47 L 61.65 169.56 L 61.09 169.60 L 60.64 169.45 L 60.38 169.15 L 60.36 168.75 L 60.56 168.06 L 60.68 167.65 L 60.48 168.34 L 60.36 168.75 L 60.38 169.15 L 60.64 169.45 L 61.09 169.60 L 61.65 169.56 L 62.27 169.20 L 62.90 168.85 L 63.06 168.76 L 63.70 168.44 L 64.35 168.12 L 64.36 168.12 L 65.06 167.96 L 65.76 167.79 L 65.84 167.78 L 66.56 167.77 L 67.28 167.76 L 67.51 167.76 L 68.22 167.88 L 68.93 168.00 L 69.43 168.09 L 70.12 168.29 L 70.81 168.49 L 71.04 168.56 L 71.73 168.76 L 72.42 168.96 L 73.11 169.16 L 73.80 169.37 L 74.49 169.57 L 75.18 169.77 L 75.87 169.97 L 76.57 170.18 L 77.26 170.38 L 77.95 170.58 L 78.64 170.78 L 79.33 170.98 L 80.02 171.19 L 80.71 171.39 L 81.40 171.59 L 82.10 171.79 L 82.79 171.99 L 83.48 172.20 L 84.17 172.40 L 84.86 172.60 L 85.21 172.70 L 85.90 172.90 L 86.59 173.10 L 87.28 173.31 L 87.97 173.51 L 88.04 173.53 L 88.73 173.73 L 89.42 173.93 L 90.11 174.13 L 90.80 174.34 L 91.49 174.54 L 92.19 174.74 L 92.88 174.94 L 93.57 175.14 L 94.26 175.35 L 94.95 175.55 L 95.64 175.75 L 96.33 175.95 L 97.02 176.15 L 97.71 176.36 L 98.41 176.56 L 99.10 176.76 L 99.79 176.96 L 100.48 177.16 L 101.17 177.37 L 101.86 177.57 L 102.55 177.77 L 103.24 177.97 L 103.93 178.17 L 104.63 178.38 L 105.32 178.58 L 106.01 178.78 L 106.70 178.98 L 107.39 179.18 L 108.08 179.39 L 108.77 179.59 L 109.46 179.79 L 110.15 179.99 L 110.71 180.15 L 111.41 180.31 L 112.12 180.46 L 112.29 180.50 L 112.78 180.58 L 112.99 180.55 L 113.00 180.17 L 112.69 179.58 L 112.25 179.02 L 111.80 178.45 L 111.69 178.30 L 111.19 177.79 L 110.69 177.27 L 110.67 177.25 L 110.17 176.73 L 109.67 176.21 L 109.18 175.69 L 108.68 175.17 L 108.61 175.10 L 108.12 174.57 L 107.97 174.40 L 107.48 173.88 L 106.99 173.35 L 106.50 172.82 L 106.01 172.29 L 105.95 172.23 L 105.47 171.70 L 105.24 171.45 L 104.76 170.91 L 104.27 170.38 L 103.79 169.85 L 103.30 169.31 L 103.25 169.26 L 102.77 168.73 L 102.28 168.19 L 101.80 167.66 L 101.32 167.13 L 101.26 167.07 L 100.77 166.54 L 100.67 166.43 L 100.18 165.91 L 99.69 165.38 L 99.20 164.85 L 98.71 164.32 L 98.66 164.26 L 98.18 163.72 L 97.79 163.28 L 97.31 162.74 L 96.84 162.20 L 96.36 161.66 L 95.89 161.11 L 95.85 161.07 L 95.47 160.51 L 95.30 160.21 L 95.81 160.26 L 96.50 160.46 L 97.19 160.66 L 97.22 160.66 L 97.91 160.86 L 98.60 161.06 L 99.30 161.26 L 99.99 161.45 L 100.05 161.47 L 100.74 161.68 L 101.05 161.77 L 101.74 161.98 L 102.43 162.18 L 103.12 162.39 L 103.81 162.60 L 103.89 162.62 L 104.57 162.83 L 105.26 163.04 L 105.48 163.11 L 106.17 163.32 L 106.86 163.53 L 107.55 163.74 L 108.23 163.95 L 108.31 163.97 L 109.00 164.18 L 109.69 164.40 L 110.38 164.61 L 111.06 164.82 L 111.14 164.84 L 111.84 165.03 L 112.12 165.11 L 112.81 165.30 L 113.51 165.48 L 114.20 165.67 L 114.90 165.86 L 114.95 165.88 L 115.65 166.07 L 116.34 166.27 L 116.44 166.30 L 117.14 166.49 L 117.83 166.69 L 118.52 166.89 L 119.21 167.08 L 119.28 167.10 L 119.99 167.22 L 120.42 167.30 L 120.87 167.23 L 121.10 167.08 L 121.10 166.72 L 120.74 166.21 L 120.33 165.65 L 120.01 165.36 L 119.51 164.84 L 119.01 164.32 L 118.51 163.80 L 118.39 163.67 L 117.88 163.15 L 117.38 162.64 L 116.88 162.12 L 116.38 161.60 L 115.88 161.08 L 115.38 160.57 L 114.88 160.05 L 114.38 159.53 L 114.25 159.39 L 113.75 158.88 L 113.25 158.36 L 112.75 157.84 L 112.25 157.32 L 112.18 157.25 L 111.68 156.74 L 111.18 156.22 L 110.68 155.70 L 110.18 155.19 L 110.11 155.12 L 109.61 154.60 L 109.11 154.08 L 108.61 153.56 L 108.11 153.05 L 108.04 152.98 L 107.54 152.46 L 107.04 151.94 L 106.54 151.42 L 106.04 150.91 L 105.54 150.39 L 105.04 149.87 L 104.54 149.35 L 104.04 148.84 L 103.91 148.70 L 103.41 148.18 L 102.91 147.66 L 102.41 147.15 L 101.91 146.63 L 101.84 146.56 L 102.42 146.14 L 103.01 145.72 L 103.59 145.30 L 104.18 144.88 L 104.76 144.46 L 105.35 144.04 L 105.93 143.62 L 106.52 143.20 L 107.10 142.78 L 107.68 142.36 L 108.27 141.94 L 108.85 141.51 L 109.44 141.09 L 110.02 140.67 L 110.61 140.25 L 111.19 139.83 L 111.78 139.41 L 111.91 139.31 L 111.46 138.76 L 111.00 138.20 L 110.66 137.79 L 110.30 137.17 L 109.94 136.55 L 109.58 135.92 L 109.26 135.38 L 108.89 134.76 L 108.78 134.56 L 108.54 133.88 L 108.31 133.19 L 108.07 132.51 L 107.92 132.08 L 107.69 131.40 L 107.67 131.36 L 107.63 130.64 L 107.58 129.93 L 107.57 129.78 L 107.63 129.06 L 107.70 128.34 L 107.71 128.30 L 107.90 127.61 L 108.10 126.93 L 108.42 126.28 L 108.73 125.66 L 109.20 125.12 L 109.67 124.57 L 110.06 124.13 L 110.67 123.75 L 111.29 123.38 L 111.81 123.06 L 112.51 122.88 L 113.21 122.70 L 113.86 122.53 L 114.58 122.55 L 115.30 122.58 L 116.02 122.61 L 116.06 122.61 L 116.76 122.79 L 117.46 122.97 L 118.15 123.15 L 118.43 123.22 L 119.07 123.55 L 119.71 123.88 L 120.35 124.20 L 120.85 124.46 L 121.42 124.90 L 121.70 125.11 L 122.12 125.70 L 122.18 125.78 L 122.30 126.46 L 122.05 127.14 L 122.04 127.15 L 121.66 127.76 L 121.28 128.37 L 120.89 128.98 L 120.51 129.59 L 120.13 130.20 L 119.74 130.81 L 119.36 131.42 L 118.98 132.03 L 118.59 132.64 L 118.21 133.25 L 117.83 133.86 L 117.44 134.47 L 117.06 135.08 L 116.68 135.69 L 116.29 136.29 L 115.91 136.90 L 115.84 137.02 L 115.63 137.57 L 115.70 138.10 L 116.18 138.63 L 116.31 138.78 L 116.90 139.19 L 117.46 139.60 L 118.10 139.93 L 118.74 140.26 L 119.38 140.58 L 120.02 140.92 L 120.17 140.99 L 120.60 141.21 L 121.29 141.41 L 121.98 141.62 L 122.67 141.82 L 123.36 142.02 L 123.43 142.04 L 123.79 142.15 L 124.51 142.22 L 125.23 142.29 L 125.94 142.36 L 126.58 142.42 L 126.72 142.43 L 127.44 142.34 L 128.15 142.24 L 128.86 142.14 L 129.30 142.08 L 129.44 142.06 L 130.10 141.78 L 130.76 141.50 L 131.42 141.22 L 131.64 141.12 L 131.65 141.12 L 132.20 140.65 L 132.51 140.39 L 132.96 139.83 L 133.21 139.50 L 133.50 138.84 L 133.79 138.18 L 133.85 138.05 L 133.93 137.34 L 134.00 136.62 L 134.02 136.50 L 133.90 135.79 L 133.79 135.08 L 133.75 134.84 L 133.51 134.16 L 133.26 133.49 L 133.11 133.07 L 132.89 132.55 L 133.07 132.27 L 133.38 132.07 L 133.82 132.22 L 134.36 132.70 L 134.91 133.17 L 135.01 133.26 L 135.41 133.86 L 135.81 134.47 L 136.01 134.77 L 136.30 135.43 L 136.58 136.09 L 136.69 136.33 L 136.87 137.03 L 137.05 137.73 L 137.09 137.92 L 137.19 138.63 L 137.28 139.34 L 137.29 139.40 L 137.26 140.12 L 137.23 140.84 L 137.23 140.86 L 136.94 141.52 L 136.65 142.18 L 136.37 142.84 L 136.35 142.89 L 136.06 143.55 L 136.03 143.61 L 135.60 144.19 L 135.17 144.76 L 135.16 144.76 L 134.63 145.25 L 134.14 145.70 L 133.52 146.07 L 132.95 146.42 L 132.28 146.68 L 131.60 146.93 L 130.90 147.07 L 130.19 147.21 L 130.04 147.24 L 129.32 147.28 L 128.60 147.32 L 128.37 147.34 L 127.66 147.29 L 126.94 147.25 L 126.62 147.23 L 125.91 147.11 L 125.20 146.99 L 124.76 146.91 L 124.07 146.70 L 123.39 146.49 L 122.80 146.31 L 122.13 146.03 L 121.47 145.76 L 120.80 145.49 L 120.79 145.49 L 120.15 145.17 L 119.50 144.84 L 118.86 144.52 L 118.73 144.46 L 118.11 144.10 L 117.49 143.73 L 116.87 143.37 L 116.62 143.22 L 116.03 142.82 L 115.44 142.41 L 114.89 142.03 L 114.34 141.57 L 113.79 141.11 L 113.32 140.73 L 112.82 140.22 L 112.31 139.71 L 111.91 139.31 L 111.46 138.76 L 111.00 138.20 L 110.66 137.79 L 110.30 137.17 L 109.94 136.55 L 109.58 135.92 L 109.26 135.38 L 108.89 134.76 L 108.78 134.56 L 108.54 133.88 L 108.31 133.19 L 108.07 132.51 L 107.92 132.08 L 107.69 131.40 L 107.67 131.36 L 107.63 130.64 L 107.58 129.93 L 107.57 129.78 L 107.63 129.06 L 107.70 128.34 L 107.71 128.30 L 107.90 127.61 L 108.10 126.93 L 108.42 126.28 L 108.73 125.66 L 109.20 125.12 L 109.67 124.57 L 110.06 124.13 L 110.67 123.75 L 111.29 123.38 L 111.81 123.06 L 112.51 122.88 L 113.21 122.70 L 113.86 122.53 L 114.58 122.55 L 115.30 122.58 L 116.02 122.61 L 116.06 122.61 L 116.76 122.79 L 117.46 122.97 L 118.15 123.15 L 118.43 123.22 L 119.07 123.55 L 119.71 123.88 L 120.35 124.20 L 120.85 124.46 L 121.42 124.90 L 121.70 125.11 L 122.12 125.70 L 122.18 125.78 L 122.30 126.46 L 122.05 127.14 L 122.04 127.15 L 121.66 127.76 L 121.28 128.37 L 120.89 128.98 L 120.51 129.59 L 120.13 130.20 L 119.74 130.81 L 119.36 131.42 L 118.98 132.03 L 118.59 132.64 L 118.21 133.25 L 117.83 133.86 L 117.44 134.47 L 117.06 135.08 L 116.68 135.69 L 116.29 136.29 L 115.91 136.90 L 115.84 137.02 L 115.18 136.72 L 114.53 136.42 L 113.87 136.13 L 113.22 135.83 L 112.89 135.68 L 113.46 135.85 L 113.89 135.53 L 114.27 134.92 L 114.65 134.31 L 115.04 133.70 L 115.42 133.09 L 115.80 132.48 L 116.19 131.87 L 116.52 131.34 L 116.89 130.72 L 117.15 130.27 L 117.46 129.63 L 117.62 129.31 L 117.90 128.64 L 118.17 127.97 L 118.30 127.66 L 118.33 127.39 L 118.09 127.13 L 117.52 126.69 L 117.24 126.47 L 116.60 126.14 L 116.27 125.96 L 115.58 125.75 L 115.27 125.66 L 114.56 125.58 L 114.27 125.55 L 113.55 125.62 L 113.25 125.65 L 112.57 125.88 L 111.89 126.11 L 111.37 126.28 L 110.85 126.78 L 110.34 127.29 L 110.07 127.55 L 109.82 128.22 L 109.61 128.78 L 109.62 129.50 L 109.63 130.22 L 109.63 130.26 L 109.81 130.95 L 109.99 131.65 L 110.03 131.84 L 110.32 132.50 L 110.61 133.16 L 110.72 133.41 L 111.15 133.98 L 111.59 134.55 L 111.70 134.71 L 112.26 135.16 L 112.81 135.62 L 112.89 135.68 L 113.55 135.98 L 114.20 136.28 L 114.86 136.57 L 115.51 136.87 L 115.84 137.02 L 116.22 136.41 L 116.61 135.80 L 116.99 135.19 L 117.37 134.58 L 117.76 133.97 L 118.14 133.36 L 118.52 132.75 L 118.91 132.14 L 119.29 131.53 L 119.67 130.92 L 120.06 130.31 L 120.44 129.70 L 120.82 129.09 L 121.21 128.48 L 121.59 127.87 L 121.97 127.27 L 122.04 127.15 L 122.29 126.48 L 122.30 126.46 L 122.18 125.78 L 121.76 125.20 L 121.70 125.11 L 121.13 124.67 L 120.85 124.46 L 121.39 123.97 L 121.92 123.49 L 122.45 123.00 L 122.98 122.52 L 123.51 122.03 L 123.81 121.77 L 123.24 121.32 L 122.81 120.98 L 122.34 120.43 L 121.90 119.92 L 121.52 119.31 L 121.13 118.71 L 121.04 118.57 L 120.78 117.90 L 120.52 117.23 L 120.45 117.06 L 120.25 116.37 L 120.05 115.68 L 119.91 115.20 L 119.80 114.49 L 119.68 113.78 L 119.59 113.27 L 119.55 112.55 L 119.51 111.83 L 119.49 111.42 L 119.55 110.71 L 119.61 109.99 L 119.62 109.78 L 119.74 109.07 L 119.85 108.36 L 119.85 108.34 L 120.13 107.68 L 120.32 107.24 L 120.78 106.68 L 120.93 106.51 L 121.52 106.10 L 121.69 105.99 L 122.38 105.76 L 122.62 105.69 L 123.33 105.63 L 123.70 105.60 L 124.42 105.63 L 124.89 105.66 L 125.59 105.81 L 126.07 105.92 L 126.74 106.17 L 127.24 106.36 L 127.87 106.71 L 128.41 107.00 L 129.01 107.39 L 129.61 107.79 L 130.21 108.18 L 130.82 108.57 L 130.96 108.67 L 131.56 109.06 L 132.17 109.46 L 132.77 109.85 L 133.37 110.25 L 133.52 110.34 L 134.12 110.73 L 134.72 111.13 L 135.32 111.52 L 135.93 111.92 L 136.07 112.01 L 136.67 112.40 L 137.27 112.80 L 137.88 113.19 L 138.48 113.59 L 138.62 113.68 L 139.23 114.08 L 139.83 114.47 L 140.43 114.86 L 141.03 115.26 L 141.18 115.35 L 141.78 115.75 L 142.38 116.14 L 142.99 116.54 L 143.59 116.93 L 143.73 117.02 L 143.87 117.11 L 144.50 117.46 L 145.07 117.77 L 145.79 117.88 L 146.23 117.95 L 146.94 117.87 L 147.24 117.84 L 147.80 117.38 L 147.89 117.30 L 148.18 116.64 L 148.39 116.16 L 148.37 115.44 L 148.36 115.13 L 148.15 114.61 L 148.57 114.22 L 149.23 114.52 L 149.27 114.54 L 149.79 115.03 L 149.86 115.10 L 150.21 115.74 L 150.34 115.99 L 150.50 116.69 L 150.65 117.40 L 150.80 118.10 L 150.88 118.45 L 150.90 118.55 L 150.88 119.27 L 150.87 119.66 L 150.62 120.34 L 150.55 120.53 L 150.05 121.05 L 149.70 121.41 L 149.04 121.69 L 148.51 121.91 L 147.79 121.97 L 147.07 122.02 L 146.97 122.03 L 146.26 121.93 L 145.54 121.84 L 145.08 121.77 L 144.97 121.96 L 145.13 122.66 L 145.29 123.36 L 145.46 124.06 L 145.53 124.36 L 145.60 125.07 L 145.67 125.79 L 145.74 126.47 L 145.61 127.18 L 145.49 127.89 L 145.42 128.25 L 145.12 128.91 L 144.82 129.56 L 144.70 129.84 L 144.17 130.33 L 143.93 130.56 L 143.26 130.82 L 142.68 131.04 L 141.96 131.11 L 141.25 131.17 L 141.20 131.18 L 140.48 131.12 L 139.76 131.07 L 139.60 131.05 L 138.90 130.92 L 138.19 130.78 L 138.04 130.75 L 137.38 130.45 L 136.74 130.16 L 136.18 129.71 L 135.62 129.26 L 135.05 128.81 L 135.03 128.79 L 134.63 128.19 L 134.24 127.59 L 134.04 127.29 L 133.83 126.60 L 133.63 125.91 L 133.53 125.58 L 133.50 124.86 L 133.46 124.14 L 133.42 123.42 L 133.42 123.40 L 133.47 122.68 L 133.51 121.96 L 133.56 121.24 L 133.60 120.52 L 133.65 119.81 L 133.69 119.09 L 133.71 118.75 L 133.76 118.03 L 133.80 117.31 L 133.82 117.03 L 133.81 116.31 L 133.80 115.98 L 133.62 115.34 L 133.07 114.87 L 133.03 114.84 L 132.45 114.41 L 131.93 114.02 L 131.33 113.62 L 130.72 113.22 L 130.12 112.83 L 129.52 112.43 L 129.38 112.33 L 128.78 111.94 L 128.18 111.54 L 127.85 111.32 L 127.21 110.99 L 126.58 110.65 L 126.23 110.46 L 125.52 110.34 L 124.81 110.22 L 124.60 110.19 L 123.90 110.35 L 123.20 110.52 L 123.17 110.52 L 122.65 111.02 L 122.15 111.50 L 121.88 112.17 L 121.61 112.84 L 121.53 113.06 L 121.45 113.78 L 121.43 113.94 L 121.53 114.65 L 121.54 114.76 L 121.93 115.37 L 122.08 115.62 L 122.66 116.05 L 123.19 116.44 L 123.80 116.83 L 123.83 116.85 L 124.41 117.08 L 124.66 117.47 L 124.86 118.16 L 124.90 118.30 L 124.94 119.02 L 124.97 119.74 L 124.99 120.17 L 124.97 120.89 L 124.97 121.07 L 124.80 121.62 L 124.31 121.83 L 123.81 121.77 L 124.31 121.83 L 124.80 121.62 L 124.97 121.07 L 124.98 120.35 L 124.99 120.17 L 124.96 119.45 L 124.92 118.73 L 124.90 118.30 L 124.70 117.61 L 124.66 117.47 L 124.41 117.08 L 123.83 116.85 L 123.22 116.47 L 123.19 116.44 L 122.61 116.01 L 122.08 115.62 L 121.70 115.01 L 121.54 114.76 L 121.44 114.05 L 121.43 113.94 L 121.51 113.22 L 121.53 113.06 L 121.79 112.39 L 122.06 111.72 L 122.15 111.50 L 122.67 111.00 L 123.17 110.52 L 123.87 110.36 L 124.57 110.19 L 124.60 110.19 L 125.31 110.31 L 126.02 110.43 L 126.23 110.46 L 126.86 110.80 L 127.50 111.14 L 127.85 111.32 L 128.45 111.72 L 129.05 112.12 L 129.38 112.33 L 129.98 112.73 L 130.58 113.13 L 131.18 113.53 L 131.78 113.92 L 131.93 114.02 L 132.50 114.45 L 133.03 114.84 L 133.58 115.31 L 133.62 115.34 L 133.80 115.98 L 133.82 116.70 L 133.82 117.03 L 133.78 117.74 L 133.73 118.46 L 133.71 118.75 L 133.67 119.46 L 133.62 120.18 L 133.58 120.90 L 133.57 121.07 L 134.20 121.42 L 134.83 121.77 L 135.46 122.12 L 136.02 122.42 L 136.22 123.11 L 136.31 123.40 L 136.65 124.03 L 137.00 124.66 L 137.13 124.89 L 137.65 125.38 L 138.18 125.87 L 138.82 126.18 L 139.47 126.50 L 139.73 126.62 L 140.45 126.70 L 141.04 126.76 L 141.73 126.56 L 142.20 126.42 L 142.74 125.94 L 142.94 125.75 L 143.25 125.10 L 143.39 124.83 L 143.51 124.12 L 143.55 123.92 L 143.40 123.22 L 143.26 122.51 L 143.15 121.98 L 142.73 121.40 L 142.48 121.04 L 141.96 120.54 L 141.89 120.48 L 141.29 120.06 L 140.91 119.80 L 140.32 119.40 L 139.72 119.00 L 139.12 118.59 L 138.52 118.19 L 138.38 118.10 L 137.78 117.70 L 137.18 117.29 L 137.11 117.24 L 136.41 117.07 L 136.41 117.07 L 136.22 117.23 L 135.98 117.61 L 135.89 118.32 L 135.89 118.33 L 135.85 119.05 L 135.81 119.76 L 135.81 119.89 L 135.83 120.61 L 135.85 121.26 L 135.95 121.97 L 136.02 122.42 L 135.39 122.08 L 134.76 121.73 L 134.12 121.38 L 133.57 121.07 L 133.61 120.35 L 133.66 119.63 L 133.70 118.92 L 133.71 118.75 L 133.76 118.03 L 133.80 117.31 L 133.82 117.03 L 133.81 116.31 L 133.80 115.98 L 133.62 115.34 L 133.07 114.87 L 133.03 114.84 L 132.45 114.41 L 131.93 114.02 L 131.33 113.62 L 130.72 113.22 L 130.12 112.83 L 129.52 112.43 L 129.38 112.33 L 128.78 111.94 L 128.18 111.54 L 127.85 111.32 L 127.21 110.99 L 126.58 110.65 L 126.23 110.46 L 125.52 110.34 L 124.81 110.22 L 124.60 110.19 L 123.90 110.35 L 123.20 110.52 L 123.17 110.52 L 122.65 111.02 L 122.15 111.50 L 121.88 112.17 L 121.61 112.84 L 121.53 113.06 L 121.45 113.78 L 121.43 113.94 L 121.53 114.65 L 121.54 114.76 L 121.93 115.37 L 122.08 115.62 L 122.66 116.05 L 123.19 116.44 L 123.80 116.83 L 123.83 116.85 L 124.41 117.08 L 124.66 117.47 L 124.86 118.16 L 124.90 118.30 L 124.94 119.02 L 124.97 119.74 L 124.99 120.17 L 124.97 120.89 L 124.97 121.07 L 124.80 121.62 L 124.31 121.83 L 123.81 121.77 L 123.24 121.32 L 122.81 120.98 L 122.34 120.43 L 121.90 119.92 L 121.52 119.31 L 121.13 118.71 L 121.04 118.57 L 120.78 117.90 L 120.52 117.23 L 120.45 117.06 L 120.25 116.37 L 120.05 115.68 L 119.91 115.20 L 119.80 114.49 L 119.68 113.78 L 119.59 113.27 L 119.55 112.55 L 119.51 111.83 L 119.49 111.42 L 119.55 110.71 L 119.61 109.99 L 119.62 109.78 L 119.74 109.07 L 119.85 108.36 L 119.85 108.34 L 120.13 107.68 L 120.32 107.24 L 120.78 106.68 L 120.93 106.51 L 121.52 106.10 L 121.69 105.99 L 122.38 105.76 L 122.62 105.69 L 123.33 105.63 L 123.70 105.60 L 124.42 105.63 L 124.89 105.66 L 125.59 105.81 L 126.07 105.92 L 126.18 105.20 L 126.29 104.49 L 126.40 103.78 L 126.51 103.07 L 126.62 102.36 L 126.73 101.65 L 126.84 100.93 L 126.95 100.22 L 126.98 100.03 L 126.58 99.87 L 126.31 99.58 L 126.29 99.18 L 126.68 98.57 L 127.06 97.96 L 127.44 97.35 L 127.46 97.31 L 127.94 96.77 L 128.42 96.23 L 128.57 96.06 L 128.98 95.47 L 129.07 95.34 L 129.42 94.71 L 129.49 94.59 L 129.70 94.05 L 130.00 93.39 L 130.16 93.03 L 130.54 92.42 L 130.92 91.81 L 131.31 91.21 L 131.33 91.17 L 131.70 91.01 L 132.08 91.13 L 132.49 91.72 L 132.55 91.81 L 132.58 92.53 L 132.60 92.88 L 132.72 93.54 L 133.09 94.16 L 133.16 94.27 L 133.72 94.73 L 134.28 95.18 L 134.60 95.44 L 135.21 95.82 L 135.63 96.09 L 136.28 96.39 L 136.46 96.48 L 137.15 96.69 L 137.84 96.90 L 138.53 97.11 L 139.22 97.31 L 139.91 97.52 L 140.60 97.73 L 141.29 97.94 L 141.98 98.15 L 142.13 98.19 L 142.82 98.40 L 143.51 98.61 L 144.19 98.82 L 144.88 99.03 L 144.96 99.05 L 145.65 99.26 L 146.34 99.47 L 147.03 99.67 L 147.72 99.88 L 148.40 100.09 L 149.09 100.30 L 149.78 100.51 L 150.47 100.72 L 150.62 100.76 L 151.31 100.97 L 152.00 101.18 L 152.37 101.29 L 152.56 101.28 L 152.49 101.11 L 152.01 100.57 L 151.52 100.04 L 151.04 99.51 L 150.55 98.97 L 150.07 98.44 L 149.59 97.91 L 149.10 97.37 L 148.62 96.84 L 148.13 96.31 L 147.65 95.77 L 147.17 95.24 L 146.68 94.71 L 146.20 94.17 L 145.71 93.64 L 145.23 93.11 L 144.75 92.58 L 144.26 92.04 L 143.78 91.51 L 143.29 90.98 L 142.81 90.44 L 142.56 90.16 L 142.07 89.63 L 142.05 89.60 L 141.54 89.10 L 141.02 88.60 L 140.93 88.51 L 140.35 88.09 L 139.77 87.66 L 139.70 87.61 L 139.07 87.26 L 138.56 86.99 L 137.87 86.79 L 137.71 86.75 L 137.00 86.82 L 137.00 86.82 L 136.32 87.07 L 136.23 87.11 L 135.58 87.43 L 135.18 87.62 L 134.76 87.65 L 134.36 87.50 L 134.08 87.22 L 134.02 86.89 L 134.40 86.28 L 134.43 86.24 L 134.84 85.65 L 134.86 85.63 L 135.31 85.07 L 135.76 84.51 L 136.09 84.10 L 136.49 83.50 L 136.85 82.96 L 137.22 82.34 L 137.42 81.99 L 137.71 81.32 L 137.72 81.30 L 138.03 80.65 L 138.29 80.10 L 138.68 79.49 L 138.70 79.45 L 139.03 79.36 L 139.39 79.49 L 139.81 80.08 L 139.85 80.13 L 139.89 80.85 L 139.91 81.25 L 139.91 81.97 L 139.91 82.32 L 140.12 83.01 L 140.33 83.70 L 140.34 83.72 L 140.70 84.35 L 141.05 84.98 L 141.26 85.34 L 141.71 85.91 L 142.15 86.47 L 142.49 86.90 L 142.97 87.44 L 143.44 87.98 L 143.91 88.52 L 144.39 89.06 L 144.43 89.11 L 144.90 89.65 L 145.38 90.19 L 145.85 90.74 L 146.33 91.28 L 146.37 91.32 L 146.84 91.87 L 147.32 92.41 L 147.79 92.95 L 148.27 93.49 L 148.31 93.54 L 148.78 94.08 L 149.26 94.62 L 149.73 95.16 L 150.20 95.71 L 150.25 95.75 L 150.72 96.30 L 151.19 96.84 L 151.67 97.38 L 152.14 97.92 L 152.18 97.97 L 152.36 98.16 L 152.78 98.75 L 153.20 99.33 L 153.23 99.36 L 153.72 99.88 L 154.22 100.40 L 154.71 100.93 L 155.07 101.30 L 155.56 101.83 L 156.05 102.36 L 156.54 102.89 L 156.79 103.16 L 157.26 103.70 L 157.52 104.01 L 158.00 104.54 L 158.48 105.08 L 158.96 105.62 L 159.10 105.78 L 159.52 106.37 L 159.77 106.73 L 159.60 107.00 L 159.23 107.10 L 158.51 107.01 L 158.34 106.99 L 157.68 106.73 L 157.01 106.46 L 156.62 106.30 L 155.92 106.10 L 155.23 105.91 L 154.54 105.72 L 154.01 105.57 L 153.33 105.35 L 152.64 105.13 L 151.96 104.90 L 151.46 104.74 L 150.77 104.54 L 150.08 104.34 L 149.39 104.14 L 148.70 103.93 L 148.01 103.73 L 147.32 103.53 L 146.63 103.33 L 145.94 103.12 L 145.80 103.08 L 145.10 102.88 L 144.41 102.68 L 143.72 102.47 L 143.03 102.27 L 142.96 102.25 L 142.27 102.05 L 142.18 102.02 L 141.48 101.83 L 140.79 101.63 L 140.10 101.44 L 139.40 101.24 L 138.71 101.05 L 138.02 100.85 L 137.32 100.66 L 136.63 100.46 L 135.94 100.27 L 135.24 100.07 L 134.55 99.88 L 133.86 99.68 L 133.67 99.63 L 132.98 99.43 L 132.83 99.39 L 132.13 99.22 L 131.50 99.07 L 130.78 99.04 L 130.18 99.02 L 129.47 99.17 L 128.98 99.27 L 128.33 99.59 L 128.14 99.69 L 127.47 99.97 L 127.40 100.00 L 126.98 100.03 L 127.40 100.00 L 128.06 99.72 L 128.14 99.69 L 128.78 99.37 L 128.98 99.27 L 129.69 99.13 L 130.18 99.02 L 130.90 99.05 L 131.50 99.07 L 132.20 99.24 L 132.83 99.39 L 133.52 99.59 L 133.67 99.63 L 134.36 99.82 L 135.06 100.02 L 135.75 100.21 L 136.44 100.41 L 137.14 100.60 L 137.83 100.80 L 138.52 100.99 L 139.21 101.19 L 139.91 101.38 L 140.60 101.58 L 141.29 101.77 L 141.99 101.97 L 142.18 102.02 L 142.87 102.22 L 142.96 102.25 L 143.65 102.45 L 144.34 102.66 L 145.04 102.86 L 145.73 103.06 L 145.80 103.08 L 146.49 103.29 L 147.18 103.49 L 147.87 103.69 L 148.56 103.89 L 149.25 104.10 L 149.94 104.30 L 150.63 104.50 L 151.32 104.70 L 151.46 104.74 L 152.15 104.97 L 152.83 105.19 L 153.52 105.41 L 154.01 105.57 L 154.70 105.76 L 155.40 105.96 L 156.09 106.15 L 156.62 106.30 L 157.29 106.57 L 157.95 106.84 L 158.34 106.99 L 159.06 107.08 L 159.23 107.10 L 159.60 107.00 L 159.77 106.73 L 159.36 106.14 L 159.10 105.78 L 158.62 105.25 L 158.14 104.71 L 157.67 104.17 L 157.52 104.01 L 157.05 103.46 L 156.79 103.16 L 156.30 102.63 L 155.81 102.10 L 155.32 101.57 L 155.07 101.30 L 154.58 100.78 L 154.08 100.26 L 153.58 99.74 L 153.23 99.36 L 152.80 98.78 L 152.38 98.20 L 152.36 98.16 L 152.18 97.97 L 151.71 97.43 L 151.24 96.88 L 150.76 96.34 L 150.29 95.80 L 150.25 95.75 L 149.77 95.21 L 149.30 94.67 L 148.82 94.13 L 148.35 93.59 L 148.31 93.54 L 147.83 93.00 L 147.36 92.46 L 146.88 91.91 L 146.41 91.37 L 146.37 91.32 L 145.89 90.78 L 145.42 90.24 L 144.95 89.70 L 144.47 89.16 L 144.43 89.11 L 143.96 88.57 L 143.48 88.03 L 143.01 87.48 L 142.53 86.94 L 142.49 86.90 L 143.14 86.58 L 143.79 86.26 L 144.43 85.95 L 145.08 85.63 L 145.73 85.31 L 146.37 85.00 L 147.02 84.68 L 147.67 84.37 L 148.31 84.05 L 148.96 83.73 L 149.26 83.59 L 148.75 83.08 L 148.24 82.57 L 147.85 82.17 L 147.39 81.62 L 146.94 81.06 L 146.60 80.65 L 146.20 80.05 L 145.80 79.45 L 145.54 79.06 L 145.20 78.43 L 144.86 77.79 L 144.68 77.46 L 144.42 76.79 L 144.15 76.12 L 144.04 75.85 L 143.86 75.15 L 143.67 74.46 L 143.61 74.22 L 143.55 73.50 L 143.49 72.79 L 143.48 72.68 L 143.54 71.96 L 143.60 71.24 L 143.60 71.23 L 143.79 70.53 L 143.98 69.87 L 144.30 69.23 L 144.61 68.62 L 145.08 68.07 L 145.55 67.52 L 145.98 67.01 L 146.59 66.63 L 147.21 66.25 L 147.75 65.92 L 148.45 65.75 L 149.15 65.58 L 149.77 65.43 L 150.49 65.45 L 151.21 65.46 L 151.93 65.47 L 152.00 65.47 L 152.70 65.65 L 153.39 65.83 L 154.09 66.01 L 154.36 66.08 L 155.01 66.41 L 155.65 66.73 L 156.29 67.06 L 156.79 67.32 L 157.36 67.76 L 157.64 67.97 L 158.06 68.56 L 158.12 68.64 L 158.23 69.32 L 157.99 70.00 L 157.98 70.01 L 157.60 70.62 L 157.21 71.23 L 156.83 71.84 L 156.45 72.45 L 156.06 73.06 L 155.68 73.67 L 155.30 74.28 L 154.91 74.89 L 154.53 75.50 L 154.15 76.11 L 153.76 76.72 L 153.38 77.33 L 153.00 77.94 L 152.61 78.54 L 152.23 79.15 L 151.85 79.76 L 151.78 79.88 L 151.52 80.50 L 151.58 81.05 L 152.11 81.54 L 152.23 81.66 L 152.83 82.06 L 153.40 82.46 L 154.04 82.79 L 154.67 83.13 L 155.31 83.46 L 155.95 83.79 L 156.09 83.87 L 156.52 84.09 L 157.20 84.31 L 157.89 84.53 L 158.57 84.75 L 159.26 84.97 L 159.34 85.00 L 159.67 85.10 L 160.39 85.17 L 161.10 85.24 L 161.82 85.31 L 162.46 85.37 L 162.60 85.39 L 163.31 85.29 L 164.03 85.19 L 164.74 85.09 L 165.17 85.03 L 165.31 85.01 L 166.00 84.79 L 166.51 84.62 L 167.14 84.27 L 167.55 84.05 L 168.09 83.58 L 168.43 83.29 L 168.87 82.72 L 169.15 82.36 L 169.44 81.70 L 169.73 81.04 L 169.79 80.91 L 169.86 80.20 L 169.94 79.48 L 169.95 79.36 L 169.84 78.65 L 169.73 77.94 L 169.69 77.70 L 169.44 77.02 L 169.20 76.35 L 169.04 75.93 L 168.77 75.50 L 168.95 75.22 L 169.25 75.02 L 169.70 75.17 L 170.24 75.65 L 170.78 76.12 L 170.89 76.22 L 171.29 76.82 L 171.69 77.42 L 171.89 77.72 L 172.20 78.37 L 172.52 79.01 L 172.61 79.22 L 172.80 79.91 L 172.98 80.61 L 173.03 80.78 L 173.10 81.49 L 173.17 82.21 L 173.18 82.33 L 173.14 83.05 L 173.11 83.77 L 173.10 83.81 L 172.82 84.47 L 172.54 85.13 L 172.26 85.80 L 171.98 86.46 L 171.97 86.47 L 171.54 87.05 L 171.10 87.62 L 171.08 87.66 L 170.55 88.15 L 170.03 88.63 L 169.42 89.01 L 168.83 89.37 L 168.16 89.63 L 167.49 89.88 L 167.48 89.88 L 166.77 90.01 L 166.06 90.13 L 165.94 90.15 L 165.22 90.18 L 164.50 90.21 L 164.30 90.22 L 163.58 90.17 L 162.86 90.12 L 162.55 90.09 L 161.84 89.97 L 161.13 89.85 L 160.70 89.77 L 160.01 89.56 L 159.32 89.35 L 158.74 89.16 L 158.07 88.89 L 157.40 88.62 L 156.74 88.35 L 156.73 88.35 L 156.08 88.03 L 155.44 87.70 L 154.79 87.38 L 154.67 87.32 L 154.05 86.96 L 153.42 86.59 L 152.80 86.23 L 152.56 86.08 L 151.97 85.67 L 151.37 85.27 L 150.83 84.89 L 150.28 84.43 L 149.72 83.97 L 149.26 83.59 L 148.75 83.08 L 148.24 82.57 L 147.85 82.17 L 147.39 81.62 L 146.94 81.06 L 146.60 80.65 L 146.20 80.05 L 145.80 79.45 L 145.54 79.06 L 145.20 78.43 L 144.86 77.79 L 144.68 77.46 L 144.42 76.79 L 144.15 76.12 L 144.04 75.85 L 143.86 75.15 L 143.67 74.46 L 143.61 74.22 L 143.55 73.50 L 143.49 72.79 L 143.48 72.68 L 143.54 71.96 L 143.60 71.24 L 143.60 71.23 L 143.79 70.53 L 143.98 69.87 L 144.30 69.23 L 144.61 68.62 L 145.08 68.07 L 145.55 67.52 L 145.98 67.01 L 146.59 66.63 L 147.21 66.25 L 147.75 65.92 L 148.45 65.75 L 149.15 65.58 L 149.77 65.43 L 150.49 65.45 L 151.21 65.46 L 151.93 65.47 L 152.00 65.47 L 152.70 65.65 L 153.39 65.83 L 154.09 66.01 L 154.36 66.08 L 155.01 66.41 L 155.65 66.73 L 156.29 67.06 L 156.79 67.32 L 157.36 67.76 L 157.64 67.97 L 158.06 68.56 L 158.12 68.64 L 158.23 69.32 L 157.99 70.00 L 157.98 70.01 L 157.60 70.62 L 157.21 71.23 L 156.83 71.84 L 156.45 72.45 L 156.06 73.06 L 155.68 73.67 L 155.30 74.28 L 154.91 74.89 L 154.53 75.50 L 154.15 76.11 L 153.76 76.72 L 153.38 77.33 L 153.00 77.94 L 152.61 78.54 L 152.23 79.15 L 151.85 79.76 L 151.78 79.88 L 151.12 79.59 L 150.46 79.29 L 149.80 79.00 L 149.34 78.80 L 149.77 78.48 L 150.15 77.87 L 150.53 77.26 L 150.92 76.65 L 151.30 76.05 L 151.68 75.44 L 152.07 74.83 L 152.45 74.22 L 152.46 74.20 L 152.80 73.57 L 153.14 72.93 L 153.48 72.30 L 153.50 72.26 L 153.50 72.26 L 153.77 71.59 L 154.05 70.93 L 154.18 70.61 L 154.23 70.31 L 154.02 69.99 L 153.46 69.55 L 153.18 69.33 L 152.54 69.00 L 152.20 68.82 L 151.51 68.61 L 151.21 68.52 L 150.50 68.44 L 150.21 68.41 L 149.49 68.48 L 149.19 68.51 L 148.51 68.74 L 147.83 68.98 L 147.29 69.16 L 146.78 69.67 L 146.27 70.18 L 145.95 70.50 L 145.71 71.18 L 145.53 71.66 L 145.55 72.39 L 145.57 73.10 L 145.57 73.12 L 145.72 73.82 L 145.87 74.52 L 145.93 74.77 L 146.21 75.43 L 146.48 76.10 L 146.59 76.36 L 147.03 76.93 L 147.46 77.51 L 147.58 77.66 L 148.14 78.12 L 148.69 78.57 L 148.77 78.63 L 149.34 78.80 L 150.00 79.09 L 150.66 79.38 L 151.32 79.67 L 151.78 79.88 L 152.16 79.27 L 152.54 78.66 L 152.93 78.05 L 153.31 77.44 L 153.69 76.83 L 154.08 76.22 L 154.46 75.61 L 154.84 75.00 L 155.23 74.39 L 155.61 73.78 L 155.99 73.17 L 156.38 72.56 L 156.76 71.95 L 157.14 71.34 L 157.52 70.73 L 157.91 70.12 L 157.98 70.01 L 158.23 69.34 L 158.23 69.32 L 158.12 68.64 L 157.70 68.06 L 157.64 67.97 L 157.07 67.53 L 156.79 67.32 L 156.15 66.99 L 155.51 66.66 L 154.86 66.34 L 154.36 66.08 L 154.31 65.36 L 154.26 64.65 L 154.20 63.93 L 154.15 63.21 L 154.10 62.49 L 154.05 61.77 L 154.00 61.14 L 153.54 60.73 L 153.46 60.28 L 153.52 59.57 L 153.58 58.85 L 153.60 58.62 L 153.58 57.90 L 153.56 57.18 L 153.55 56.70 L 153.49 55.99 L 153.43 55.27 L 153.40 54.99 L 153.28 54.28 L 153.15 53.60 L 153.19 52.97 L 153.18 52.70 L 153.40 52.56 L 153.74 52.67 L 154.35 53.05 L 154.77 53.32 L 155.36 53.73 L 155.95 54.14 L 156.54 54.56 L 157.13 54.97 L 157.27 55.06 L 157.86 55.48 L 158.45 55.89 L 158.53 55.94 L 158.72 55.93 L 158.45 55.26 L 158.18 54.60 L 157.91 53.93 L 157.72 53.47 L 157.45 52.80 L 157.45 52.79 L 157.38 52.08 L 157.32 51.36 L 157.25 50.64 L 157.23 50.38 L 157.20 50.04 L 157.25 49.32 L 157.30 48.80 L 157.57 48.14 L 157.72 47.77 L 158.21 47.24 L 158.42 47.01 L 159.08 46.72 L 159.36 46.60 L 160.08 46.52 L 160.28 46.49 L 160.96 46.75 L 161.19 46.84 L 161.76 47.28 L 161.83 47.33 L 162.31 47.87 L 162.44 48.01 L 162.81 48.63 L 163.18 49.24 L 163.32 49.48 L 163.50 50.17 L 163.51 50.24 L 163.38 50.81 L 162.90 51.29 L 162.24 51.57 L 161.92 51.71 L 161.30 52.07 L 161.06 52.21 L 160.58 52.74 L 160.46 52.87 L 160.23 53.55 L 160.03 54.13 L 160.09 54.85 L 160.14 55.56 L 160.15 55.66 L 160.46 56.31 L 160.58 56.56 L 161.04 57.11 L 161.35 57.49 L 161.89 57.96 L 162.43 58.43 L 162.45 58.45 L 163.05 58.86 L 163.64 59.27 L 163.90 59.45 L 164.51 59.83 L 165.12 60.22 L 165.73 60.60 L 166.34 60.98 L 166.95 61.37 L 167.56 61.75 L 168.17 62.13 L 168.78 62.52 L 169.39 62.90 L 169.99 63.28 L 170.60 63.67 L 171.21 64.05 L 171.82 64.43 L 172.43 64.82 L 173.04 65.20 L 173.65 65.58 L 174.26 65.97 L 174.87 66.35 L 175.48 66.73 L 176.09 67.12 L 176.70 67.50 L 176.95 67.66 L 177.62 67.91 L 177.86 68.00 L 178.58 67.92 L 178.78 67.90 L 179.44 67.61 L 179.78 67.46 L 180.40 67.09 L 180.93 66.78 L 181.53 66.39 L 181.84 66.19 L 182.55 66.30 L 182.66 66.32 L 183.00 66.85 L 182.77 67.53 L 182.73 67.65 L 182.33 68.25 L 181.93 68.85 L 181.92 68.87 L 181.47 69.43 L 181.02 69.99 L 180.61 70.51 L 180.21 71.11 L 179.89 71.58 L 179.51 72.19 L 179.13 72.79 L 178.91 73.48 L 178.75 73.98 L 178.36 74.59 L 177.98 75.20 L 177.81 75.47 L 177.33 76.00 L 177.21 76.13 L 176.58 75.99 L 176.20 75.66 L 176.11 75.31 L 176.17 74.59 L 176.19 74.32 L 176.30 73.61 L 176.34 73.28 L 176.20 72.58 L 176.16 72.36 L 175.73 71.78 L 175.63 71.63 L 175.06 71.18 L 174.84 71.01 L 174.23 70.63 L 173.63 70.24 L 173.02 69.86 L 172.41 69.48 L 171.80 69.09 L 171.19 68.71 L 170.58 68.33 L 169.97 67.94 L 169.36 67.56 L 168.75 67.17 L 168.14 66.79 L 167.53 66.41 L 166.92 66.02 L 166.31 65.64 L 165.70 65.26 L 165.09 64.88 L 164.48 64.49 L 163.87 64.11 L 163.26 63.73 L 162.65 63.34 L 162.05 62.96 L 161.44 62.58 L 160.89 62.23 L 160.26 61.88 L 159.63 61.54 L 159.25 61.33 L 158.57 61.07 L 157.90 60.82 L 157.68 60.73 L 156.97 60.68 L 156.27 60.62 L 155.61 60.92 L 155.07 61.17 L 154.63 61.28 L 154.00 61.14 L 154.63 61.28 L 155.07 61.17 L 155.72 60.87 L 156.27 60.62 L 156.98 60.68 L 157.68 60.73 L 158.36 60.99 L 159.03 61.25 L 159.25 61.33 L 159.88 61.68 L 160.51 62.02 L 160.89 62.23 L 161.50 62.61 L 162.11 63.00 L 162.72 63.38 L 163.33 63.76 L 163.94 64.15 L 164.55 64.53 L 165.16 64.91 L 165.76 65.30 L 166.37 65.68 L 166.98 66.06 L 167.59 66.45 L 168.20 66.83 L 168.81 67.21 L 169.42 67.60 L 170.03 67.98 L 170.64 68.36 L 171.25 68.75 L 171.86 69.13 L 172.47 69.51 L 173.08 69.90 L 173.69 70.28 L 174.30 70.66 L 174.84 71.01 L 175.41 71.46 L 175.63 71.63 L 176.05 72.21 L 176.16 72.36 L 176.30 73.06 L 176.34 73.28 L 176.24 73.99 L 176.19 74.32 L 176.13 75.04 L 176.11 75.31 L 176.20 75.66 L 176.58 75.99 L 177.21 76.13 L 177.69 75.60 L 177.81 75.47 L 178.19 74.86 L 178.58 74.25 L 178.75 73.98 L 178.97 73.30 L 179.13 72.79 L 179.51 72.19 L 179.89 71.58 L 180.29 70.99 L 180.61 70.51 L 181.06 69.95 L 181.51 69.38 L 181.92 68.87 L 182.32 68.27 L 182.72 67.67 L 182.73 67.65" 
          fill="none" 
          stroke="currentColor" 
          stroke-width="0.5"/>
</svg>