<?xml version="1.0" encoding="UTF-8" standalone="no"?>
<svg width="100%" height="100%" viewBox="0 0 200 200" preserveAspectRatio="xMidYMid meet" xmlns="http://www.w3.org/2000/svg">
    <path d="M 100.00 100.00 L 68.46 100.00 L 68.12 100.00 L 68.46 100.00 L 98.91 100.00 L 100.00 100.00 L 100.00 100.21 L 100.00 131.54 L 100.00 131.88 L 100.00 131.63 L 100.00 100.11 L 100.00 100.00 L 100.00 99.83 L 100.00 68.25 L 100.00 68.12 L 100.00 68.46 L 100.00 100.00 L 100.21 100.00 L 130.70 100.00 L 131.88 100.00 L 131.88 97.72 L 129.60 97.72 L 129.60 88.61 L 131.88 88.62 L 131.88 86.34 L 136.43 86.34 L 136.43 88.61 L 111.39 63.57 L 113.66 63.57 L 113.66 65.85 L 113.66 68.12 L 111.38 68.12 L 111.39 70.40 L 109.11 70.40 L 106.83 70.40 L 106.83 68.13 L 106.83 70.40 L 104.55 70.40 L 102.28 70.40 L 102.28 68.12 L 100.00 68.12 L 100.00 65.85 L 100.00 63.57 L 102.28 63.57 L 102.28 65.85 L 100.00 65.85 L 97.72 65.85 L 97.72 63.57 L 95.44 63.56 L 95.45 61.29 L 95.44 59.01 L 97.72 59.01 L 95.44 59.01 L 95.44 56.73 L 95.44 54.46 L 97.72 54.46 L 97.72 52.18 L 100.00 52.18 L 102.28 52.18 L 102.28 54.46 L 102.28 56.73 L 100.00 56.74 L 97.72 56.73 L 97.72 54.46 L 95.44 54.46 L 95.44 52.18 L 95.44 49.91 L 97.72 49.90 L 95.44 49.91 L 95.45 47.63 L 95.45 45.35 L 97.73 45.35 L 97.72 43.08 L 100.00 43.08 L 102.28 43.08 L 102.27 45.35 L 100.00 45.35 L 100.00 43.08 L 100.00 40.80 L 102.27 40.80 L 102.28 38.52 L 104.55 38.52 L 106.83 38.52 L 106.83 40.79 L 106.83 38.52 L 109.11 38.52 L 111.38 38.52 L 111.39 40.79 L 113.66 40.80 L 113.66 43.07 L 113.66 45.35 L 111.38 45.36 L 111.39 47.63 L 109.11 47.63 L 106.83 47.63 L 106.83 45.35 L 104.55 45.35 L 104.55 43.08 L 104.56 40.80 L 106.83 40.79 L 104.56 40.80 L 104.55 38.52 L 104.55 36.24 L 106.83 36.24 L 106.83 33.97 L 109.11 33.97 L 111.38 33.97 L 111.38 36.24 L 109.11 36.24 L 109.11 33.97 L 109.10 31.69 L 111.38 31.69 L 111.38 29.42 L 113.66 29.41 L 115.94 29.42 L 115.94 31.69 L 115.94 29.42 L 118.22 29.41 L 120.50 29.41 L 120.50 31.69 L 122.77 31.69 L 122.77 33.97 L 122.77 36.25 L 120.49 36.24 L 118.22 36.25 L 118.22 33.97 L 118.22 31.69 L 120.50 31.69 L 120.50 29.41 L 122.77 29.41 L 125.05 29.41 L 125.04 31.69 L 125.05 29.41 L 127.32 29.41 L 129.60 29.41 L 129.60 31.69 L 131.88 31.69 L 131.88 33.97 L 131.87 36.24 L 129.60 36.25 L 129.60 33.97 L 131.88 33.97 L 134.15 33.97 L 134.15 36.25 L 136.43 36.24 L 136.43 38.53 L 136.44 40.80 L 134.16 40.80 L 136.44 40.80 L 136.43 43.08 L 136.43 45.35 L 134.15 45.36 L 134.15 47.63 L 131.88 47.63 L 129.60 47.63 L 129.60 45.35 L 129.60 47.63 L 127.32 47.63 L 125.05 47.63 L 125.05 45.36 L 122.77 45.35 L 122.77 43.08 L 122.77 40.80 L 125.04 40.80 L 122.77 40.80 L 122.77 38.52 L 122.77 36.25 L 125.04 36.24 L 125.04 33.97 L 127.32 33.97 L 129.60 33.97 L 129.60 36.25 L 127.32 36.25 L 127.32 33.97 L 127.32 31.69 L 129.60 31.69 L 129.60 29.41 L 131.88 29.41 L 134.16 29.41 L 134.15 31.69 L 134.16 29.41 L 136.43 29.41 L 138.71 29.41 L 138.71 31.69 L 140.98 31.69 L 140.98 33.97 L 140.99 36.24 L 138.71 36.25 L 136.43 36.24 L 136.44 33.97 L 136.44 31.69 L 138.71 31.69 L 138.71 29.41 L 140.99 29.42 L 143.26 29.41 L 143.26 31.69 L 143.26 29.41 L 145.54 29.41 L 147.82 29.41 L 147.82 31.69 L 150.09 31.69 L 150.09 33.97 L 150.10 36.25 L 147.82 36.24 L 147.82 33.96 L 150.09 33.97 L 152.37 33.97 L 152.38 36.24 L 154.65 36.24 L 154.65 38.52 L 154.65 40.80 L 152.37 40.80 L 154.65 40.80 L 154.65 43.07 L 154.65 45.35 L 152.37 45.35 L 152.37 47.63 L 150.09 47.63 L 147.82 47.63 L 147.81 45.35 L 145.54 45.35 L 145.54 43.07 L 145.54 40.80 L 147.82 40.80 L 147.81 38.52 L 150.10 38.52 L 152.37 38.53 L 152.37 40.80 L 152.37 38.53 L 154.65 38.52 L 156.93 38.52 L 156.93 40.80 L 159.20 40.80 L 159.20 43.07 L 159.20 45.35 L 156.93 45.35 L 156.93 43.07 L 159.20 43.07 L 161.48 43.07 L 161.48 45.35 L 163.76 45.36 L 163.76 47.63 L 163.75 49.90 L 161.48 49.90 L 163.75 49.90 L 163.76 52.18 L 163.76 54.45 L 161.48 54.46 L 161.48 56.74 L 159.20 56.74 L 156.92 56.74 L 156.93 54.46 L 156.92 52.18 L 159.21 52.18 L 161.48 52.18 L 161.48 54.46 L 163.76 54.45 L 163.76 56.74 L 163.76 59.01 L 161.48 59.01 L 163.76 59.01 L 163.75 61.29 L 163.75 63.57 L 161.48 63.57 L 161.48 65.85 L 159.20 65.85 L 156.92 65.85 L 156.92 63.57 L 159.20 63.56 L 159.20 65.85 L 159.20 68.12 L 156.92 68.12 L 156.93 70.40 L 154.65 70.40 L 152.37 70.40 L 152.37 68.12 L 152.37 70.40 L 150.09 70.40 L 147.82 70.40 L 147.81 68.12 L 145.54 68.12 L 145.54 65.85 L 145.54 63.57 L 147.81 63.57 L 147.81 65.84 L 145.54 65.85 L 143.26 65.85 L 143.26 63.57 L 140.99 63.57 L 140.99 61.29 L 140.98 59.02 L 143.26 59.01 L 140.98 59.02 L 140.99 56.74 L 140.99 54.46 L 143.26 54.46 L 143.26 52.18 L 145.54 52.18 L 147.82 52.18 L 147.82 54.46 L 145.54 54.46 L 145.54 52.18 L 145.54 49.91 L 147.82 49.90 L 147.82 47.63 L 150.09 47.63 L 152.37 47.63 L 152.37 49.91 L 152.37 47.63 L 154.65 47.63 L 156.93 47.62 L 156.92 49.91 L 159.20 49.90 L 159.21 52.18 L 159.20 54.46 L 156.93 54.46 L 154.65 54.46 L 154.65 52.19 L 154.65 49.90 L 156.92 49.91 L 156.93 47.62 L 159.20 47.63 L 161.47 47.63 L 161.48 49.90 L 161.47 47.63 L 163.76 47.63 L 166.03 47.63 L 166.03 49.91 L 168.31 49.90 L 168.31 52.18 L 168.31 54.46 L 166.03 54.46 L 166.03 52.18 L 168.31 52.18 L 170.59 52.18 L 170.59 54.46 L 172.86 54.46 L 172.87 56.74 L 172.86 59.01 L 170.58 59.01 L 172.86 59.01 L 172.87 61.29 L 172.87 63.56 L 170.59 63.57 L 170.59 65.84 L 168.31 65.84 L 166.03 65.84 L 166.04 63.56 L 163.75 63.57 L 163.75 61.29 L 163.76 59.01 L 166.03 59.02 L 166.03 56.74 L 168.31 56.74 L 170.59 56.73 L 170.58 59.01 L 170.59 56.73 L 172.87 56.74 L 175.14 56.74 L 175.14 59.01 L 177.42 59.01 L 177.41 61.29 L 177.42 63.57 L 175.14 63.56 L 175.14 61.29 L 177.41 61.29 L 179.69 61.29 L 179.69 63.57 L 181.97 63.57 L 181.97 65.84 L 181.97 68.12 L 179.69 68.12 L 181.97 68.12 L 181.98 70.40 L 181.97 72.67 L 179.70 72.68 L 179.70 74.95 L 177.42 74.95 L 175.14 74.95 L 175.14 72.67 L 175.14 70.40 L 177.42 70.40 L 179.70 70.40 L 179.70 72.68 L 181.97 72.67 L 181.97 74.95 L 181.97 77.23 L 179.69 77.23 L 181.97 77.23 L 181.97 79.51 L 181.97 81.78 L 179.69 81.79 L 179.69 84.06 L 177.41 84.06 L 175.14 84.06 L 175.14 81.79 L 177.42 81.78 L 177.41 84.06 L 177.42 86.34 L 175.14 86.33 L 175.14 88.61 L 172.86 88.62 L 170.58 88.62 L 170.59 86.34 L 170.58 88.62 L 168.31 88.61 L 166.03 88.62 L 166.03 86.34 L 163.76 86.34 L 163.76 84.06 L 163.75 81.79 L 166.03 81.78 L 163.75 81.79 L 163.76 79.51 L 163.75 77.23 L 166.03 77.23 L 166.03 74.95 L 168.31 74.95 L 170.59 74.95 L 170.59 77.23 L 170.59 74.95 L 172.86 74.95 L 175.14 74.95 L 175.14 77.23 L 177.41 77.23 L 177.42 79.51 L 177.42 81.78 L 175.14 81.79 L 175.14 79.50 L 177.42 79.51 L 179.69 79.51 L 179.69 81.79 L 181.97 81.78 L 181.97 84.06 L 181.97 86.33 L 179.69 86.34 L 181.97 86.33 L 181.97 88.62 L 181.97 90.89 L 179.70 90.89 L 179.69 93.17 L 177.41 93.17 L 175.14 93.17 L 175.14 90.89 L 175.14 88.61 L 177.42 88.62 L 179.70 88.62 L 179.70 90.89 L 181.97 90.89 L 181.98 93.17 L 181.97 95.45 L 179.69 95.45 L 181.97 95.45 L 181.98 97.72 L 181.97 100.00 L 179.69 100.00 L 179.70 102.28 L 177.42 102.28 L 175.14 102.28 L 175.14 100.00 L 177.42 100.00 L 177.42 102.28 L 177.42 104.55 L 175.14 104.55 L 175.14 106.83 L 172.87 106.83 L 170.59 106.83 L 170.58 104.55 L 170.59 106.83 L 168.31 106.83 L 166.03 106.83 L 166.03 104.55 L 163.76 104.55 L 163.76 102.28 L 163.76 100.00 L 166.03 100.00 L 166.03 97.72 L 168.31 97.73 L 170.59 97.72 L 170.59 100.00 L 172.86 100.00 L 172.86 102.27 L 172.87 104.55 L 170.58 104.55 L 172.87 104.55 L 172.87 106.83 L 172.86 109.10 L 170.59 109.11 L 170.58 111.38 L 168.31 111.38 L 166.03 111.38 L 166.03 109.11 L 168.31 109.10 L 168.31 111.38 L 168.31 113.66 L 166.03 113.66 L 166.04 115.94 L 163.76 115.94 L 161.48 115.94 L 161.48 113.67 L 161.48 115.94 L 159.20 115.94 L 156.92 115.94 L 156.93 113.66 L 154.65 113.66 L 154.64 111.38 L 154.65 109.11 L 156.92 109.10 L 159.20 109.10 L 159.21 111.39 L 159.20 113.66 L 156.93 113.66 L 156.92 115.94 L 154.65 115.94 L 152.38 115.94 L 152.37 113.66 L 152.38 115.94 L 150.10 115.94 L 147.81 115.94 L 147.82 113.66 L 145.54 113.66 L 145.54 111.39 L 145.54 109.11 L 147.82 109.11 L 147.82 111.38 L 145.54 111.39 L 143.27 111.39 L 143.26 109.11 L 140.98 109.11 L 140.99 106.83 L 140.99 104.55 L 143.27 104.56 L 140.99 104.55 L 140.99 102.28 L 140.99 100.00 L 143.26 100.00 L 143.27 97.72 L 145.54 97.72 L 147.82 97.72 L 147.82 100.00 L 147.82 102.28 L 145.54 102.28 L 143.27 102.28 L 143.26 100.00 L 140.99 100.00 L 140.99 97.72 L 140.99 95.44 L 143.27 95.44 L 140.99 95.44 L 140.99 93.17 L 140.98 90.89 L 143.26 90.89 L 143.27 88.62 L 145.54 88.61 L 147.82 88.61 L 147.82 90.89 L 145.54 90.89 L 145.54 88.61 L 145.54 86.34 L 147.82 86.34 L 147.81 84.06 L 150.09 84.06 L 152.38 84.06 L 152.37 86.34 L 152.38 84.06 L 154.65 84.06 L 156.92 84.06 L 156.93 86.33 L 159.20 86.34 L 159.21 88.61 L 159.20 90.89 L 156.92 90.89 L 154.65 90.89 L 154.64 88.62 L 154.65 86.34 L 156.93 86.33 L 156.92 84.06 L 159.20 84.06 L 161.48 84.06 L 161.48 86.34 L 161.48 84.06 L 163.76 84.06 L 166.03 84.06 L 166.03 86.34 L 168.31 86.34 L 168.31 88.61 L 168.31 90.89 L 166.03 90.89 L 166.03 88.62 L 168.31 88.61 L 170.58 88.62 L 170.59 90.89 L 172.86 90.89 L 172.87 93.17 L 172.87 95.45 L 170.58 95.45 L 172.87 95.45 L 172.86 97.73 L 172.86 100.00 L 170.59 100.00 L 170.59 102.27 L 168.31 102.28 L 166.03 102.28 L 166.03 100.00 L 163.76 100.00 L 163.76 97.72 L 163.76 95.45 L 166.03 95.44 L 166.03 93.17 L 168.31 93.17 L 170.59 93.17 L 170.58 95.45 L 170.59 93.17 L 172.87 93.17 L 175.14 93.17 L 175.14 95.45 L 177.42 95.44 L 177.42 97.72 L 177.42 100.00 L 175.14 100.00 L 175.14 97.72 L 177.42 97.72 L 179.70 97.72 L 179.69 100.00 L 181.97 100.00 L 181.98 102.28 L 181.97 104.55 L 179.69 104.56 L 181.97 104.55 L 181.98 106.83 L 181.97 109.10 L 179.70 109.11 L 179.70 111.39 L 177.42 111.39 L 175.14 111.39 L 175.14 109.11 L 175.14 106.83 L 177.41 106.83 L 179.69 106.83 L 179.70 109.11 L 181.97 109.10 L 181.97 111.38 L 181.98 113.66 L 179.69 113.66 L 181.98 113.66 L 181.98 115.94 L 181.97 118.22 L 179.69 118.21 L 179.69 120.49 L 177.41 120.50 L 175.14 120.49 L 175.14 118.21 L 177.42 118.22 L 177.41 120.50 L 177.42 122.77 L 175.14 122.77 L 175.15 125.04 L 172.86 125.05 L 170.59 125.05 L 170.59 122.77 L 170.59 125.05 L 168.31 125.04 L 166.03 125.04 L 166.03 122.77 L 163.75 122.77 L 163.76 120.49 L 163.75 118.22 L 166.03 118.22 L 163.75 118.22 L 163.76 115.94 L 163.76 113.66 L 166.03 113.66 L 166.03 111.38 L 168.31 111.38 L 170.58 111.38 L 170.59 113.66 L 170.58 111.38 L 172.86 111.39 L 175.14 111.39 L 175.14 113.66 L 177.42 113.66 L 177.41 115.94 L 177.42 118.22 L 175.14 118.21 L 175.14 115.94 L 177.41 115.94 L 179.69 115.94 L 179.69 118.21 L 181.97 118.22 L 181.97 120.49 L 181.97 122.77 L 179.69 122.77 L 181.97 122.77 L 181.98 125.04 L 181.98 127.32 L 179.69 127.32 L 179.70 129.60 L 177.41 129.60 L 175.14 129.60 L 175.14 127.33 L 175.15 125.04 L 177.42 125.05 L 179.69 125.05 L 179.69 127.32 L 181.98 127.32 L 181.98 129.60 L 181.97 131.88 L 179.69 131.88 L 181.97 131.88 L 181.97 134.16 L 181.97 136.43 L 179.69 136.43 L 179.69 138.70 L 177.42 138.70 L 175.14 138.71 L 175.15 136.43 L 177.42 136.43 L 177.42 138.70 L 177.42 140.99 L 175.14 140.98 L 175.14 143.26 L 172.87 143.26 L 170.59 143.26 L 170.58 140.99 L 170.59 143.26 L 168.31 143.26 L 166.03 143.26 L 166.03 140.98 L 163.76 140.99 L 163.75 138.70 L 163.76 136.43 L 166.03 136.44 L 166.03 134.15 L 168.31 134.15 L 170.59 134.16 L 170.59 136.43 L 172.87 136.43 L 172.87 138.71 L 172.86 140.99 L 170.58 140.99 L 172.86 140.99 L 172.87 143.26 L 172.86 145.54 L 170.59 145.54 L 170.59 147.82 L 168.31 147.82 L 166.04 147.82 L 166.04 145.54 L 168.31 145.54 L 168.31 147.82 L 168.31 150.09 L 166.03 150.09 L 166.03 152.37 L 163.76 152.38 L 161.47 152.37 L 161.48 150.10 L 161.47 152.37 L 159.20 152.37 L 156.93 152.37 L 156.93 150.09 L 154.65 150.09 L 154.65 147.81 L 154.65 145.54 L 156.93 145.54 L 159.20 145.54 L 159.20 147.82 L 159.21 150.09 L 156.93 150.09 L 156.93 152.37 L 154.65 152.37 L 152.37 152.37 L 152.37 150.09 L 152.37 152.37 L 150.09 152.37 L 147.82 152.37 L 147.82 150.09 L 145.54 150.09 L 145.54 147.82 L 145.54 145.54 L 147.82 145.54 L 147.82 147.82 L 145.54 147.82 L 143.27 147.82 L 143.26 145.54 L 140.99 145.54 L 140.99 143.26 L 140.98 140.98 L 143.26 140.99 L 140.98 140.98 L 140.99 138.71 L 140.99 136.43 L 143.26 136.43 L 143.26 134.15 L 145.54 134.16 L 147.82 134.15 L 147.81 136.43 L 145.54 136.43 L 145.54 134.16 L 145.54 131.88 L 147.81 131.88 L 147.82 129.60 L 150.09 129.60 L 152.37 129.60 L 152.37 131.88 L 152.37 129.60 L 154.65 129.60 L 156.93 129.60 L 156.92 131.88 L 159.20 131.88 L 159.20 134.16 L 159.21 136.43 L 156.92 136.43 L 156.92 134.15 L 159.20 134.16 L 161.48 134.15 L 161.48 136.43 L 163.76 136.43 L 163.75 138.70 L 163.76 140.99 L 161.48 140.99 L 163.76 140.99 L 163.76 143.26 L 163.76 145.54 L 161.48 145.54 L 161.48 147.82 L 159.20 147.82 L 156.92 147.82 L 156.93 145.54 L 156.92 143.26 L 159.20 143.26 L 161.48 143.26 L 161.48 145.54 L 163.76 145.54 L 163.76 147.82 L 163.75 150.10 L 161.48 150.10 L 163.75 150.10 L 163.76 152.38 L 163.76 154.65 L 161.48 154.65 L 161.48 156.92 L 159.20 156.93 L 156.93 156.93 L 156.93 154.65 L 159.20 154.65 L 159.20 156.93 L 159.20 159.20 L 156.93 159.21 L 156.93 161.48 L 154.65 161.48 L 152.37 161.47 L 152.37 159.20 L 152.37 161.47 L 150.10 161.48 L 147.82 161.48 L 147.82 159.21 L 145.54 159.20 L 145.54 156.92 L 145.54 154.65 L 147.81 154.65 L 147.82 152.37 L 150.09 152.37 L 152.37 152.37 L 152.37 154.65 L 154.65 154.65 L 154.65 156.93 L 154.65 159.20 L 152.37 159.20 L 154.65 159.20 L 154.65 161.48 L 154.64 163.76 L 152.37 163.76 L 152.37 166.03 L 150.09 166.03 L 147.82 166.03 L 147.82 163.76 L 150.09 163.75 L 150.09 166.03 L 150.10 168.31 L 147.82 168.31 L 147.81 170.59 L 145.54 170.59 L 143.27 170.59 L 143.26 168.31 L 143.27 170.59 L 140.99 170.58 L 138.71 170.59 L 138.71 168.31 L 136.43 168.31 L 136.44 166.04 L 136.43 163.75 L 138.71 163.75 L 140.99 163.76 L 140.98 166.03 L 140.98 168.31 L 138.71 168.31 L 138.71 170.59 L 136.43 170.59 L 134.16 170.59 L 134.16 168.31 L 134.16 170.59 L 131.88 170.59 L 129.60 170.59 L 129.60 168.31 L 127.32 168.31 L 127.33 166.03 L 127.32 163.75 L 129.60 163.75 L 129.60 166.03 L 127.33 166.03 L 125.05 166.03 L 125.04 163.76 L 122.77 163.75 L 122.77 161.48 L 122.77 159.20 L 125.05 159.20 L 122.77 159.20 L 122.77 156.92 L 122.77 154.65 L 125.05 154.64 L 125.05 152.37 L 127.32 152.37 L 129.60 152.37 L 129.60 154.65 L 129.60 152.37 L 131.88 152.37 L 134.15 152.37 L 134.15 154.65 L 136.43 154.65 L 136.43 156.92 L 136.44 159.20 L 134.15 159.20 L 136.44 159.20 L 136.43 161.48 L 136.43 163.75 L 134.15 163.75 L 134.16 166.03 L 131.88 166.03 L 129.60 166.03 L 129.60 163.75 L 131.88 163.75 L 131.88 166.03 L 131.88 168.31 L 129.60 168.31 L 129.60 170.59 L 127.32 170.59 L 125.05 170.59 L 125.05 168.31 L 125.05 170.59 L 122.77 170.59 L 120.50 170.59 L 120.49 168.31 L 118.21 168.31 L 118.22 166.03 L 118.21 163.75 L 120.49 163.76 L 122.77 163.75 L 122.77 166.03 L 122.77 168.31 L 120.49 168.31 L 120.50 170.59 L 118.22 170.59 L 115.94 170.58 L 115.94 168.31 L 115.94 170.58 L 113.66 170.59 L 111.38 170.58 L 111.39 168.31 L 109.11 168.31 L 109.11 166.03 L 109.11 163.76 L 111.38 163.76 L 111.38 166.03 L 109.11 166.03 L 106.83 166.03 L 106.83 163.76 L 104.55 163.76 L 104.56 161.48 L 104.55 159.20 L 106.83 159.21 L 104.55 159.20 L 104.55 156.92 L 104.56 154.65 L 106.83 154.65 L 106.83 152.37 L 109.11 152.37 L 111.39 152.37 L 111.38 154.64 L 113.66 154.65 L 113.67 156.93 L 113.66 159.20 L 111.39 159.21 L 111.38 161.48 L 109.11 161.48 L 106.83 161.48 L 106.83 159.21 L 106.83 161.48 L 104.56 161.48 L 102.28 161.48 L 102.28 159.20 L 100.00 159.20 L 100.00 156.92 L 100.00 154.65 L 102.28 154.65 L 102.28 156.92 L 100.00 156.92 L 97.72 156.92 L 97.72 154.65 L 95.45 154.65 L 95.45 152.37 L 95.45 150.09 L 97.72 150.10 L 95.45 150.09 L 95.45 147.82 L 95.44 145.54 L 97.73 145.54 L 97.72 143.27 L 100.00 143.26 L 102.28 143.27 L 102.28 145.54 L 102.28 147.82 L 100.00 147.82 L 97.72 147.82 L 97.73 145.54 L 95.44 145.54 L 95.44 143.27 L 95.45 140.99 L 97.72 140.99 L 95.45 140.99 L 95.45 138.71 L 95.45 136.44 L 97.72 136.43 L 97.72 134.15 L 100.00 134.15 L 102.28 134.15 L 102.28 136.43 L 100.00 136.43 L 100.00 134.15 L 100.00 131.88 L 102.28 131.88 L 102.28 129.60 L 104.56 129.60 L 106.83 129.60 L 106.83 131.87 L 106.83 129.60 L 109.11 129.60 L 111.39 129.60 L 111.38 131.88 L 113.66 131.88 L 113.66 134.15 L 113.66 136.43 L 111.39 136.43 L 136.43 111.39 L 136.43 113.66 L 134.15 113.66 L 131.88 113.66 L 131.88 111.38 L 129.60 111.39 L 129.60 109.11 L 129.60 106.83 L 131.87 106.83 L 129.60 106.83 L 129.60 104.55 L 129.60 102.28 L 131.88 102.28 L 131.88 100.00 L 134.15 100.00 L 136.43 100.00 L 136.43 102.28 L 134.15 102.28 L 134.15 100.00 L 134.15 97.72 L 136.43 97.72 L 136.44 95.44 L 138.71 95.45 L 140.99 95.44 L 140.99 97.72 L 140.99 95.44 L 143.27 95.44 L 145.54 95.45 L 145.54 97.72 L 147.82 97.72 L 147.82 100.00 L 147.82 102.28 L 145.54 102.28 L 143.27 102.28 L 143.26 100.00 L 143.27 97.72 L 145.54 97.72 L 145.54 95.45 L 147.82 95.44 L 150.09 95.44 L 150.10 97.72 L 150.09 95.44 L 152.37 95.45 L 154.65 95.45 L 154.65 97.73 L 156.92 97.72 L 156.92 100.00 L 156.92 102.28 L 154.65 102.27 L 154.65 100.00 L 156.92 100.00 L 159.20 100.00 L 159.20 102.27 L 161.48 102.28 L 161.48 104.55 L 161.48 106.83 L 159.20 106.83 L 161.48 106.83 L 161.48 109.11 L 161.48 111.38 L 159.21 111.39 L 159.20 113.66 L 156.93 113.66 L 154.65 113.66 L 154.64 111.38 L 152.37 111.39 L 152.37 109.11 L 152.37 106.83 L 154.65 106.83 L 154.65 104.55 L 156.92 104.55 L 159.20 104.56 L 159.20 106.83 L 159.20 104.56 L 161.48 104.55 L 163.76 104.55 L 163.76 106.83 L 166.03 106.83 L 166.03 109.11 L 166.03 111.38 L 163.76 111.38 L 163.76 109.11 L 166.03 109.11 L 168.31 109.10 L 168.31 111.38 L 170.58 111.38 L 170.59 113.66 L 170.58 115.94 L 168.31 115.94 L 170.58 115.94 L 170.59 118.21 L 170.59 120.49 L 168.31 120.49 L 168.31 122.77 L 166.03 122.77 L 163.75 122.77 L 163.76 120.49 L 163.75 118.22 L 166.03 118.22 L 168.31 118.22 L 168.31 120.49 L 170.59 120.49 L 170.59 122.77 L 170.59 125.05 L 168.31 125.04 L 170.59 125.05 L 170.59 127.32 L 170.59 129.60 L 168.31 129.60 L 168.31 131.88 L 166.03 131.88 L 163.76 131.87 L 163.75 129.60 L 166.03 129.60 L 166.03 131.88 L 166.03 134.15 L 163.75 134.15 L 163.76 136.43 L 161.48 136.43 L 159.21 136.43 L 159.20 134.16 L 159.21 136.43 L 156.92 136.43 L 154.65 136.43 L 154.64 134.15 L 152.37 134.15 L 152.37 131.88 L 152.37 129.60 L 154.65 129.60 L 152.37 129.60 L 152.37 127.32 L 152.37 125.05 L 154.64 125.05 L 154.65 122.77 L 156.92 122.77 L 159.20 122.77 L 159.20 125.04 L 159.20 122.77 L 161.48 122.77 L 163.75 122.77 L 163.76 125.05 L 166.03 125.04 L 166.03 127.32 L 166.03 129.60 L 163.75 129.60 L 163.75 127.32 L 166.03 127.32 L 168.31 127.33 L 168.31 129.60 L 170.59 129.60 L 170.59 131.88 L 170.59 134.16 L 168.31 134.15 L 170.59 134.16 L 170.59 136.43 L 170.59 138.71 L 168.31 138.71 L 168.31 140.98 L 166.03 140.98 L 163.76 140.99 L 163.75 138.70 L 163.76 136.43 L 166.03 136.44 L 168.31 136.43 L 168.31 138.71 L 170.59 138.71 L 170.58 140.99 L 170.59 143.26 L 168.31 143.26 L 170.59 143.26 L 170.59 145.54 L 170.59 147.82 L 168.31 147.82 L 168.31 150.09 L 166.03 150.09 L 163.75 150.10 L 163.76 147.82 L 166.04 147.82 L 166.03 150.09 L 166.03 152.37 L 163.76 152.38 L 163.76 154.65 L 161.48 154.65 L 159.20 154.65 L 159.20 152.37 L 159.20 154.65 L 156.93 154.65 L 154.65 154.65 L 154.65 152.37 L 152.37 152.37 L 152.37 150.09 L 152.37 147.82 L 154.65 147.81 L 154.65 145.54 L 156.93 145.54 L 159.20 145.54 L 159.20 147.82 L 161.48 147.82 L 161.48 150.10 L 161.47 152.37 L 159.20 152.37 L 161.47 152.37 L 161.48 154.65 L 161.48 156.92 L 159.20 156.93 L 159.20 159.20 L 156.93 159.21 L 154.65 159.20 L 154.65 156.93 L 156.93 156.93 L 156.93 159.21 L 156.93 161.48 L 154.65 161.48 L 154.64 163.76 L 152.37 163.76 L 150.09 163.75 L 150.10 161.48 L 150.09 163.75 L 147.82 163.76 L 145.54 163.76 L 145.54 161.48 L 143.26 161.48 L 143.26 159.20 L 143.26 156.92 L 145.54 156.92 L 147.82 156.92 L 147.82 159.21 L 147.82 161.48 L 145.54 161.48 L 145.54 163.76 L 143.26 163.76 L 140.99 163.76 L 140.99 161.48 L 140.99 163.76 L 138.71 163.75 L 136.43 163.75 L 136.43 161.48 L 134.15 161.48 L 134.15 159.20 L 134.15 156.92 L 136.43 156.92 L 136.44 159.20 L 134.15 159.20 L 131.88 159.20 L 131.88 156.92 L 129.60 156.93 L 129.60 154.65 L 129.60 152.37 L 131.88 152.37 L 129.60 152.37 L 129.60 150.09 L 129.60 147.82 L 131.88 147.81 L 131.88 145.54 L 134.15 145.54 L 136.43 145.54 L 136.43 147.81 L 134.16 147.81 L 134.15 145.54 L 134.15 143.26 L 136.43 143.26 L 136.43 140.98 L 138.71 140.99 L 140.98 140.98 L 140.99 143.26 L 140.98 140.98 L 143.26 140.99 L 145.54 140.99 L 145.54 143.26 L 147.82 143.26 L 147.82 145.54 L 147.82 147.82 L 145.54 147.82 L 145.54 145.54 L 147.82 145.54 L 150.09 145.54 L 150.10 147.82 L 152.37 147.82 L 152.37 150.09 L 152.37 152.37 L 150.09 152.37 L 152.37 152.37 L 152.37 154.65 L 152.38 156.93 L 150.09 156.92 L 150.10 159.20 L 147.82 159.21 L 145.54 159.20 L 145.54 156.92 L 145.54 154.65 L 147.81 154.65 L 150.10 154.65 L 150.09 156.92 L 152.38 156.93 L 152.37 159.20 L 152.37 161.47 L 150.10 161.48 L 152.37 161.47 L 152.37 163.76 L 152.37 166.03 L 150.09 166.03 L 150.10 168.31 L 147.82 168.31 L 145.54 168.31 L 145.54 166.03 L 147.82 166.03 L 147.82 168.31 L 147.81 170.59 L 145.54 170.59 L 145.54 172.86 L 143.26 172.87 L 140.99 172.86 L 140.99 170.58 L 140.99 172.86 L 138.71 172.87 L 136.44 172.87 L 136.43 170.59 L 134.16 170.59 L 134.16 168.31 L 134.16 166.03 L 136.44 166.04 L 136.43 163.75 L 138.71 163.75 L 140.99 163.76 L 140.98 166.03 L 143.26 166.03 L 143.26 168.31 L 143.27 170.59 L 140.99 170.58 L 143.27 170.59 L 143.26 172.87 L 143.26 175.14 L 140.99 175.14 L 140.98 177.42 L 138.71 177.41 L 136.44 177.42 L 136.44 175.14 L 138.71 175.14 L 138.71 177.41 L 138.71 179.69 L 136.43 179.69 L 136.43 181.97 L 134.15 181.97 L 131.88 181.97 L 131.88 179.69 L 131.88 181.97 L 129.60 181.98 L 127.33 181.97 L 127.32 179.70 L 125.05 179.70 L 125.05 177.42 L 125.05 175.14 L 127.33 175.14 L 129.60 175.14 L 129.60 177.42 L 129.60 179.70 L 127.32 179.70 L 127.33 181.97 L 125.05 181.97 L 122.77 181.97 L 122.77 179.69 L 122.77 181.97 L 120.49 181.97 L 118.22 181.97 L 118.21 179.69 L 115.94 179.69 L 115.94 177.41 L 115.94 175.14 L 118.21 175.14 L 118.22 177.42 L 115.94 177.41 L 113.66 177.42 L 113.66 175.14 L 111.39 175.14 L 111.38 172.86 L 111.38 170.58 L 113.66 170.59 L 111.38 170.58 L 111.39 168.31 L 111.38 166.03 L 113.66 166.03 L 113.66 163.76 L 115.94 163.76 L 118.21 163.75 L 118.22 166.03 L 118.21 163.75 L 120.49 163.76 L 122.77 163.75 L 122.77 166.03 L 125.05 166.03 L 125.05 168.31 L 125.05 170.59 L 122.77 170.59 L 125.05 170.59 L 125.05 172.86 L 125.05 175.14 L 122.77 175.14 L 122.77 177.41 L 120.49 177.42 L 118.22 177.42 L 118.21 175.14 L 120.50 175.14 L 120.49 177.42 L 120.49 179.69 L 118.21 179.69 L 118.22 181.97 L 115.94 181.98 L 113.67 181.97 L 113.66 179.69 L 113.67 181.97 L 111.38 181.97 L 109.11 181.97 L 109.11 179.70 L 106.83 179.69 L 106.83 177.41 L 106.83 175.14 L 109.11 175.14 L 111.39 175.14 L 111.38 177.42 L 111.38 179.70 L 109.11 179.70 L 109.11 181.97 L 106.84 181.98 L 104.55 181.97 L 104.55 179.69 L 104.55 181.97 L 102.28 181.98 L 100.00 181.97 L 100.00 179.69 L 97.72 179.70 L 97.72 177.42 L 97.72 175.14 L 100.00 175.14 L 100.00 177.42 L 97.72 177.42 L 95.45 177.42 L 95.45 175.14 L 93.17 175.14 L 93.17 172.87 L 93.17 170.59 L 95.45 170.58 L 93.17 170.59 L 93.17 168.31 L 93.17 166.03 L 95.45 166.03 L 95.45 163.76 L 97.72 163.76 L 100.00 163.76 L 100.00 166.03 L 102.28 166.03 L 102.27 168.31 L 102.28 170.59 L 100.00 170.59 L 100.00 172.86 L 97.73 172.86 L 95.45 172.87 L 95.45 170.58 L 95.45 172.87 L 93.17 172.87 L 90.90 172.86 L 90.89 170.59 L 88.62 170.58 L 88.62 168.31 L 88.62 166.03 L 90.89 166.03 L 90.89 168.31 L 88.62 168.31 L 86.34 168.31 L 86.34 166.03 L 84.06 166.04 L 84.06 163.76 L 84.06 161.48 L 86.33 161.48 L 84.06 161.48 L 84.06 159.20 L 84.06 156.92 L 86.34 156.93 L 86.34 154.65 L 88.61 154.64 L 90.89 154.65 L 90.90 156.92 L 90.89 159.20 L 88.61 159.21 L 86.34 159.20 L 86.34 156.93 L 84.06 156.92 L 84.06 154.65 L 84.06 152.38 L 86.34 152.37 L 84.06 152.38 L 84.06 150.10 L 84.06 147.81 L 86.34 147.82 L 86.34 145.54 L 88.61 145.54 L 90.89 145.54 L 90.89 147.82 L 88.62 147.82 L 88.61 145.54 L 88.61 143.27 L 90.89 143.26 L 90.89 140.98 L 93.17 140.99 L 95.45 140.99 L 95.44 143.27 L 95.45 140.99 L 97.72 140.99 L 100.00 140.99 L 100.00 143.26 L 102.28 143.27 L 102.28 145.54 L 102.28 147.82 L 100.00 147.82 L 97.72 147.82 L 97.73 145.54 L 97.72 143.27 L 100.00 143.26 L 100.00 140.99 L 102.28 140.99 L 104.56 140.99 L 104.55 143.27 L 104.56 140.99 L 106.83 140.99 L 109.11 140.99 L 109.11 143.26 L 111.38 143.27 L 111.39 145.54 L 111.39 147.82 L 109.11 147.82 L 109.11 145.54 L 111.39 145.54 L 113.66 145.54 L 113.66 147.82 L 115.94 147.81 L 115.94 150.09 L 115.94 152.37 L 113.66 152.37 L 115.94 152.37 L 115.94 154.65 L 115.94 156.92 L 113.67 156.93 L 113.66 159.20 L 111.39 159.21 L 109.11 159.20 L 109.11 156.92 L 109.11 154.65 L 111.38 154.64 L 113.66 154.65 L 113.67 156.93 L 115.94 156.92 L 115.94 159.20 L 115.94 161.48 L 113.66 161.48 L 115.94 161.48 L 115.94 163.76 L 115.94 166.03 L 113.66 166.03 L 113.66 168.31 L 111.39 168.31 L 109.11 168.31 L 109.11 166.03 L 111.38 166.03 L 111.39 168.31 L 111.38 170.58 L 109.11 170.59 L 109.11 172.86 L 106.83 172.87 L 104.55 172.87 L 104.55 170.58 L 104.55 172.87 L 102.28 172.86 L 100.00 172.86 L 100.00 170.59 L 97.73 170.59 L 97.72 168.31 L 97.72 166.03 L 100.00 166.03 L 100.00 163.76 L 102.28 163.76 L 104.55 163.76 L 104.56 166.03 L 106.83 166.03 L 106.83 168.31 L 106.83 170.59 L 104.55 170.58 L 106.83 170.59 L 106.83 172.87 L 106.83 175.14 L 104.55 175.14 L 104.56 177.42 L 102.28 177.42 L 100.00 177.42 L 100.00 175.14 L 102.28 175.14 L 102.28 177.42 L 102.28 179.70 L 100.00 179.69 L 100.00 181.97 L 97.72 181.98 L 95.44 181.97 L 95.44 179.69 L 95.44 181.97 L 93.17 181.98 L 90.90 181.97 L 90.89 179.70 L 88.61 179.70 L 88.61 177.42 L 88.61 175.14 L 90.89 175.14 L 93.17 175.14 L 93.17 177.41 L 93.17 179.69 L 90.89 179.70 L 90.90 181.97 L 88.62 181.97 L 86.34 181.98 L 86.34 179.69 L 86.34 181.98 L 84.06 181.98 L 81.78 181.97 L 81.78 179.69 L 79.51 179.69 L 79.50 177.41 L 79.51 175.14 L 81.79 175.14 L 81.78 177.42 L 79.50 177.41 L 77.23 177.42 L 77.23 175.14 L 74.95 175.15 L 74.95 172.86 L 74.95 170.59 L 77.23 170.59 L 74.95 170.59 L 74.96 168.31 L 74.96 166.03 L 77.23 166.03 L 77.23 163.75 L 79.51 163.76 L 81.78 163.75 L 81.78 166.03 L 81.78 163.75 L 84.06 163.76 L 86.34 163.76 L 86.34 166.03 L 88.62 166.03 L 88.62 168.31 L 88.62 170.58 L 86.34 170.59 L 88.62 170.58 L 88.61 172.86 L 88.61 175.14 L 86.34 175.14 L 86.33 177.42 L 84.06 177.41 L 81.78 177.42 L 81.79 175.14 L 84.06 175.14 L 84.06 177.41 L 84.06 179.69 L 81.78 179.69 L 81.78 181.97 L 79.51 181.97 L 77.23 181.97 L 77.23 179.69 L 77.23 181.97 L 74.96 181.98 L 72.68 181.98 L 72.67 179.69 L 70.40 179.70 L 70.40 177.41 L 70.40 175.14 L 72.67 175.14 L 74.95 175.15 L 74.95 177.42 L 74.95 179.69 L 72.67 179.69 L 72.68 181.98 L 70.40 181.98 L 68.12 181.97 L 68.12 179.69 L 68.12 181.97 L 65.84 181.97 L 63.57 181.97 L 63.57 179.69 L 61.30 179.69 L 61.30 177.42 L 61.29 175.14 L 63.57 175.15 L 63.57 177.42 L 61.30 177.42 L 59.01 177.42 L 59.02 175.14 L 56.74 175.14 L 56.73 172.87 L 56.74 170.59 L 59.01 170.58 L 56.74 170.59 L 56.73 168.31 L 56.74 166.03 L 59.01 166.03 L 59.01 163.76 L 61.30 163.75 L 63.57 163.76 L 63.56 166.03 L 65.85 166.03 L 65.85 168.31 L 65.84 170.59 L 63.57 170.59 L 63.57 172.87 L 61.29 172.87 L 59.01 172.86 L 59.01 170.58 L 59.01 172.86 L 56.73 172.87 L 54.46 172.86 L 54.45 170.59 L 52.18 170.59 L 52.18 168.31 L 52.18 166.04 L 54.46 166.04 L 54.46 168.31 L 52.18 168.31 L 49.91 168.31 L 49.91 166.03 L 47.63 166.03 L 47.62 163.76 L 47.63 161.47 L 49.90 161.48 L 47.63 161.47 L 47.63 159.20 L 47.63 156.93 L 49.91 156.93 L 49.91 154.65 L 52.19 154.65 L 54.46 154.65 L 54.46 156.93 L 54.46 159.20 L 52.18 159.20 L 49.91 159.21 L 49.91 156.93 L 47.63 156.93 L 47.63 154.65 L 47.63 152.37 L 49.91 152.37 L 47.63 152.37 L 47.63 150.09 L 47.63 147.82 L 49.91 147.82 L 49.91 145.54 L 52.18 145.54 L 54.46 145.54 L 54.46 147.82 L 52.18 147.82 L 52.18 145.54 L 52.18 143.27 L 54.46 143.26 L 54.46 140.99 L 56.73 140.99 L 59.02 140.98 L 59.01 143.26 L 59.02 140.98 L 61.29 140.99 L 63.57 140.99 L 63.57 143.26 L 65.85 143.26 L 65.84 145.54 L 65.85 147.82 L 63.57 147.81 L 63.57 145.54 L 65.84 145.54 L 68.12 145.54 L 68.12 147.81 L 70.40 147.82 L 70.40 150.09 L 70.40 152.37 L 68.12 152.37 L 70.40 152.37 L 70.40 154.65 L 70.40 156.92 L 68.12 156.92 L 68.12 159.20 L 65.84 159.20 L 63.57 159.21 L 63.57 156.92 L 65.85 156.92 L 65.84 159.20 L 65.85 161.48 L 63.57 161.48 L 63.57 163.76 L 61.30 163.75 L 59.01 163.76 L 59.01 161.48 L 59.01 163.76 L 56.74 163.76 L 54.46 163.76 L 54.46 161.48 L 52.18 161.48 L 52.18 159.20 L 52.19 156.92 L 54.46 156.93 L 56.74 156.92 L 56.74 159.20 L 56.74 161.48 L 54.46 161.48 L 54.46 163.76 L 52.18 163.76 L 49.90 163.75 L 49.90 161.48 L 49.90 163.75 L 47.62 163.76 L 45.35 163.76 L 45.35 161.48 L 43.08 161.48 L 43.07 159.20 L 43.07 156.92 L 45.35 156.93 L 45.35 159.20 L 43.07 159.20 L 40.80 159.20 L 40.79 156.93 L 38.52 156.93 L 38.52 154.65 L 38.53 152.37 L 40.80 152.37 L 38.53 152.37 L 38.52 150.10 L 38.52 147.82 L 40.79 147.82 L 40.80 145.54 L 43.08 145.54 L 45.35 145.54 L 45.35 147.81 L 47.63 147.82 L 47.63 150.09 L 47.63 152.37 L 45.35 152.37 L 45.35 154.65 L 43.07 154.65 L 40.80 154.65 L 40.80 152.37 L 40.80 154.65 L 38.52 154.65 L 36.24 154.64 L 36.24 152.37 L 33.97 152.37 L 33.97 150.09 L 33.97 147.82 L 36.24 147.82 L 36.25 150.09 L 33.97 150.09 L 31.69 150.10 L 31.69 147.82 L 29.41 147.81 L 29.41 145.54 L 29.41 143.27 L 31.69 143.26 L 29.41 143.27 L 29.42 140.99 L 29.41 138.71 L 31.69 138.71 L 31.69 136.43 L 33.96 136.43 L 36.25 136.43 L 36.25 138.71 L 36.24 140.99 L 33.97 140.98 L 31.69 140.98 L 31.69 138.71 L 29.41 138.71 L 29.41 136.43 L 29.41 134.16 L 31.69 134.16 L 29.41 134.16 L 29.41 131.88 L 29.41 129.60 L 31.69 129.60 L 31.69 127.32 L 33.97 127.33 L 36.25 127.32 L 36.25 129.60 L 33.97 129.60 L 33.97 127.33 L 33.97 125.05 L 36.24 125.04 L 36.25 122.77 L 38.52 122.77 L 40.80 122.77 L 40.80 125.05 L 40.80 122.77 L 43.08 122.77 L 45.35 122.77 L 45.36 125.05 L 47.63 125.04 L 47.63 127.32 L 47.63 129.60 L 45.35 129.60 L 47.63 129.60 L 47.63 131.88 L 47.63 134.15 L 45.35 134.15 L 45.35 136.43 L 43.08 136.43 L 40.80 136.43 L 40.80 134.15 L 40.80 136.43 L 38.52 136.43 L 36.25 136.43 L 36.25 134.15 L 33.97 134.16 L 33.97 131.88 L 33.97 129.60 L 36.25 129.60 L 36.25 131.88 L 33.97 131.88 L 31.69 131.88 L 31.69 129.60 L 29.41 129.60 L 29.41 127.32 L 29.41 125.05 L 31.69 125.05 L 29.41 125.05 L 29.41 122.77 L 29.41 120.50 L 31.69 120.49 L 31.69 118.21 L 33.97 118.22 L 36.25 118.21 L 36.24 120.49 L 36.25 122.77 L 33.97 122.77 L 31.69 122.77 L 31.69 120.49 L 29.41 120.50 L 29.41 118.22 L 29.42 115.94 L 31.69 115.94 L 29.42 115.94 L 29.41 113.66 L 29.42 111.38 L 31.69 111.39 L 31.69 109.11 L 33.97 109.11 L 36.24 109.11 L 36.24 111.38 L 33.97 111.38 L 33.97 109.11 L 33.97 106.83 L 36.24 106.83 L 36.24 104.55 L 38.52 104.56 L 40.80 104.55 L 40.79 106.83 L 40.80 104.55 L 43.08 104.55 L 45.35 104.56 L 45.35 106.83 L 47.63 106.83 L 47.63 109.11 L 47.63 111.39 L 45.36 111.38 L 45.35 113.66 L 43.07 113.67 L 40.80 113.66 L 40.79 111.39 L 38.52 111.38 L 38.52 109.11 L 38.52 106.83 L 40.79 106.83 L 38.52 106.83 L 38.52 104.56 L 38.52 102.27 L 40.80 102.28 L 40.80 100.00 L 43.08 100.00 L 45.35 100.00 L 45.35 102.28 L 43.08 102.28 L 43.08 100.00 L 43.08 97.72 L 45.35 97.72 L 45.35 95.45 L 47.63 95.45 L 49.91 95.45 L 49.90 97.72 L 49.91 95.45 L 52.18 95.45 L 54.46 95.44 L 54.46 97.73 L 56.73 97.72 L 56.74 100.00 L 56.73 102.28 L 54.46 102.28 L 52.18 102.28 L 52.18 100.00 L 52.18 97.72 L 54.46 97.73 L 54.46 95.44 L 56.73 95.44 L 59.01 95.45 L 59.01 97.72 L 59.01 95.45 L 61.29 95.45 L 63.56 95.45 L 63.57 97.72 L 65.85 97.72 L 65.85 100.00 L 65.85 102.28 L 63.57 102.28 L 63.57 100.00 L 65.85 100.00 L 68.12 100.00 L 68.12 102.28 L 70.40 102.28 L 70.40 104.56 L 70.40 106.83 L 68.13 106.83 L 70.40 106.83 L 70.40 109.11 L 70.40 111.39 L 68.12 111.38 L 68.12 113.66 L 65.85 113.66 L 63.57 113.66 L 63.57 111.38 L 88.61 136.43 L 86.34 136.43 L 86.34 134.15 L 86.34 131.88 L 88.62 131.88 L 88.61 129.60 L 90.89 129.60 L 93.17 129.60 L 93.17 131.87 L 93.17 129.60 L 95.45 129.60 L 97.72 129.60 L 97.72 131.88 L 100.00 131.88 L 100.00 134.15 L 100.00 136.43 L 97.72 136.43 L 97.72 134.15 L 100.00 134.15 L 102.28 134.15 L 102.28 136.43 L 104.56 136.44 L 104.55 138.71 L 104.56 140.99 L 102.28 140.99 L 104.56 140.99 L 104.55 143.27 L 104.55 145.54 L 102.28 145.54 L 102.28 147.82 L 100.00 147.82 L 97.72 147.82 L 97.73 145.54 L 97.72 143.27 L 100.00 143.26 L 102.28 143.27 L 102.28 145.54 L 104.55 145.54 L 104.56 147.82 L 104.56 150.09 L 102.28 150.10 L 104.56 150.09 L 104.55 152.37 L 104.56 154.65 L 102.28 154.65 L 102.28 156.92 L 100.00 156.92 L 97.72 156.92 L 97.72 154.65 L 100.00 154.65 L 100.00 156.92 L 100.00 159.20 L 97.72 159.20 L 97.72 161.48 L 95.45 161.48 L 93.17 161.48 L 93.17 159.20 L 93.17 161.48 L 90.89 161.48 L 88.62 161.48 L 88.61 159.21 L 86.34 159.20 L 86.34 156.93 L 86.34 154.65 L 88.61 154.64 L 88.62 152.37 L 90.89 152.37 L 93.17 152.37 L 93.17 154.65 L 95.45 154.65 L 95.45 156.92 L 95.44 159.20 L 93.17 159.20 L 95.44 159.20 L 95.45 161.48 L 95.45 163.76 L 93.17 163.76 L 93.17 166.03 L 90.89 166.03 L 88.62 166.03 L 88.61 163.76 L 90.89 163.76 L 90.89 166.03 L 90.89 168.31 L 88.62 168.31 L 88.62 170.58 L 86.34 170.59 L 84.06 170.58 L 84.06 168.31 L 84.06 170.58 L 81.79 170.59 L 79.51 170.59 L 79.51 168.31 L 77.23 168.31 L 77.23 166.03 L 77.23 163.75 L 79.51 163.76 L 81.78 163.75 L 81.78 166.03 L 81.78 168.31 L 79.51 168.31 L 79.51 170.59 L 77.23 170.59 L 74.95 170.59 L 74.96 168.31 L 74.95 170.59 L 72.68 170.59 L 70.40 170.59 L 70.40 168.31 L 68.12 168.31 L 68.13 166.03 L 68.12 163.76 L 70.40 163.75 L 70.40 166.03 L 68.13 166.03 L 65.85 166.03 L 65.85 163.75 L 63.57 163.76 L 63.57 161.48 L 63.57 159.21 L 65.84 159.20 L 63.57 159.21 L 63.57 156.92 L 63.57 154.65 L 65.85 154.64 L 65.85 152.37 L 68.12 152.37 L 70.40 152.37 L 70.40 154.65 L 70.40 152.37 L 72.68 152.37 L 74.95 152.37 L 74.95 154.64 L 77.23 154.65 L 77.23 156.92 L 77.23 159.20 L 74.96 159.20 L 77.23 159.20 L 77.23 161.47 L 77.23 163.75 L 74.95 163.76 L 74.96 166.03 L 72.68 166.03 L 70.40 166.03 L 70.40 163.75 L 72.68 163.75 L 72.68 166.03 L 72.67 168.31 L 70.40 168.31 L 70.40 170.59 L 68.12 170.59 L 65.84 170.59 L 65.85 168.31 L 65.84 170.59 L 63.57 170.59 L 61.29 170.59 L 61.29 168.31 L 59.02 168.31 L 59.01 166.03 L 59.01 163.76 L 61.30 163.75 L 63.57 163.76 L 63.56 166.03 L 63.57 168.31 L 61.29 168.31 L 61.29 170.59 L 59.01 170.58 L 56.74 170.59 L 56.73 168.31 L 56.74 170.59 L 54.45 170.59 L 52.18 170.59 L 52.18 168.31 L 49.91 168.31 L 49.91 166.03 L 49.90 163.75 L 52.18 163.76 L 52.18 166.04 L 49.91 166.03 L 47.63 166.03 L 47.62 163.76 L 45.35 163.76 L 45.35 161.48 L 45.35 159.20 L 47.63 159.20 L 45.35 159.20 L 45.35 156.93 L 45.35 154.65 L 47.63 154.65 L 47.63 152.37 L 49.91 152.37 L 52.18 152.37 L 52.19 154.65 L 54.46 154.65 L 54.46 156.93 L 54.46 159.20 L 52.18 159.20 L 52.18 161.48 L 49.90 161.48 L 47.63 161.47 L 47.63 159.20 L 47.63 161.47 L 45.35 161.48 L 43.08 161.48 L 43.07 159.20 L 40.80 159.20 L 40.79 156.93 L 40.80 154.65 L 43.07 154.65 L 43.07 156.92 L 40.79 156.93 L 38.52 156.93 L 38.52 154.65 L 36.24 154.64 L 36.24 152.37 L 36.25 150.09 L 38.52 150.10 L 36.25 150.09 L 36.24 147.82 L 36.24 145.54 L 38.52 145.54 L 38.52 143.26 L 40.80 143.26 L 43.08 143.26 L 43.08 145.54 L 43.08 147.82 L 40.79 147.82 L 38.52 147.82 L 38.52 145.54 L 36.24 145.54 L 36.24 143.26 L 36.24 140.99 L 38.52 140.99 L 36.24 140.99 L 36.25 138.71 L 36.25 136.43 L 38.52 136.43 L 38.52 134.15 L 40.80 134.15 L 43.08 134.15 L 43.08 136.43 L 40.80 136.43 L 40.80 134.15 L 40.80 131.88 L 43.08 131.88 L 43.07 129.60 L 45.35 129.60 L 47.63 129.60 L 47.63 131.88 L 47.63 129.60 L 49.91 129.60 L 52.18 129.60 L 52.19 131.88 L 54.46 131.88 L 54.46 134.15 L 54.46 136.43 L 52.19 136.43 L 52.19 134.16 L 54.46 134.15 L 56.74 134.15 L 56.74 136.43 L 59.02 136.43 L 59.01 138.71 L 59.02 140.98 L 56.73 140.99 L 59.02 140.98 L 59.01 143.26 L 59.01 145.54 L 56.74 145.54 L 56.74 147.82 L 54.46 147.82 L 52.18 147.82 L 52.18 145.54 L 54.46 145.54 L 54.46 147.82 L 54.46 150.09 L 52.18 150.10 L 52.18 152.37 L 49.91 152.37 L 47.63 152.37 L 47.63 150.09 L 47.63 152.37 L 45.35 152.37 L 43.07 152.38 L 43.08 150.09 L 40.80 150.10 L 40.79 147.82 L 40.80 145.54 L 43.08 145.54 L 45.35 145.54 L 45.35 147.81 L 45.35 150.10 L 43.08 150.09 L 43.07 152.38 L 40.80 152.37 L 38.53 152.37 L 38.52 150.10 L 38.53 152.37 L 36.24 152.37 L 33.97 152.37 L 33.97 150.09 L 31.69 150.10 L 31.69 147.82 L 31.69 145.54 L 33.97 145.54 L 33.97 147.82 L 31.69 147.82 L 29.41 147.81 L 29.41 145.54 L 27.14 145.54 L 27.13 143.26 L 27.14 140.99 L 29.42 140.99 L 27.14 140.99 L 27.13 138.71 L 27.13 136.44 L 29.41 136.43 L 29.41 134.16 L 31.69 134.16 L 33.97 134.16 L 33.96 136.43 L 36.25 136.43 L 36.25 138.71 L 36.24 140.99 L 33.97 140.98 L 33.97 143.26 L 31.69 143.26 L 29.41 143.27 L 29.42 140.99 L 29.41 143.27 L 27.13 143.26 L 24.86 143.26 L 24.86 140.99 L 22.58 140.98 L 22.59 138.71 L 22.58 136.44 L 24.86 136.44 L 24.86 138.71 L 22.59 138.71 L 20.31 138.71 L 20.31 136.43 L 18.03 136.43 L 18.03 134.15 L 18.03 131.88 L 20.31 131.88 L 18.03 131.88 L 18.03 129.61 L 18.03 127.33 L 20.30 127.32 L 20.30 125.04 L 22.58 125.05 L 24.86 125.05 L 24.86 127.33 L 24.86 129.60 L 22.58 129.60 L 20.31 129.60 L 20.30 127.32 L 18.03 127.33 L 18.03 125.05 L 18.03 122.77 L 20.31 122.77 L 18.03 122.77 L 18.03 120.49 L 18.03 118.22 L 20.31 118.21 L 20.31 115.94 L 22.59 115.94 L 24.86 115.94 L 24.86 118.22 L 22.58 118.22 L 22.59 115.94 L 22.58 113.66 L 24.86 113.66 L 24.86 111.39 L 27.14 111.38 L 29.42 111.38 L 29.41 113.66 L 29.42 111.38 L 31.69 111.39 L 33.97 111.38 L 33.97 113.66 L 36.24 113.66 L 36.24 115.94 L 36.25 118.21 L 33.97 118.22 L 36.25 118.21 L 36.24 120.49 L 36.25 122.77 L 33.97 122.77 L 33.97 125.05 L 31.69 125.05 L 29.41 125.05 L 29.41 122.77 L 29.41 125.05 L 27.14 125.05 L 24.86 125.05 L 24.86 122.77 L 22.59 122.77 L 22.58 120.49 L 22.58 118.22 L 24.86 118.22 L 24.86 120.50 L 22.58 120.49 L 20.31 120.49 L 20.31 118.21 L 18.03 118.22 L 18.02 115.94 L 18.03 113.67 L 20.31 113.66 L 18.03 113.67 L 18.03 111.38 L 18.03 109.11 L 20.30 109.11 L 20.31 106.83 L 22.59 106.83 L 24.86 106.83 L 24.86 109.10 L 24.86 111.39 L 22.58 111.38 L 20.30 111.38 L 20.30 109.11 L 18.03 109.11 L 18.02 106.83 L 18.03 104.55 L 20.31 104.55 L 18.03 104.55 L 18.02 102.28 L 18.03 100.00 L 20.31 100.00 L 20.30 97.73 L 22.58 97.72 L 24.86 97.72 L 24.86 100.00 L 22.58 100.00 L 22.58 97.72 L 22.58 95.45 L 24.86 95.45 L 24.86 93.17 L 27.13 93.17 L 29.41 93.17 L 29.42 95.45 L 29.41 93.17 L 31.69 93.17 L 33.97 93.17 L 33.97 95.45 L 36.24 95.45 L 36.24 97.72 L 36.24 100.00 L 33.97 100.00 L 33.97 102.28 L 31.69 102.27 L 29.41 102.28 L 29.41 100.00 L 27.14 100.00 L 27.14 97.72 L 27.13 95.45 L 29.42 95.45 L 27.13 95.45 L 27.13 93.17 L 27.14 90.89 L 29.41 90.89 L 29.42 88.62 L 31.69 88.62 L 33.97 88.62 L 33.97 90.89 L 31.69 90.89 L 31.69 88.62 L 31.69 86.34 L 33.97 86.34 L 33.96 84.06 L 36.24 84.06 L 38.52 84.06 L 38.52 86.33 L 38.52 84.06 L 40.80 84.06 L 43.08 84.06 L 43.07 86.34 L 45.35 86.34 L 45.36 88.61 L 45.35 90.89 L 43.08 90.89 L 40.80 90.89 L 40.79 88.61 L 40.80 86.34 L 43.07 86.34 L 43.08 84.06 L 45.35 84.06 L 47.62 84.06 L 47.63 86.34 L 47.62 84.06 L 49.91 84.06 L 52.19 84.06 L 52.18 86.34 L 54.46 86.34 L 54.46 88.61 L 54.46 90.89 L 52.18 90.89 L 52.18 88.62 L 54.46 88.61 L 56.73 88.61 L 56.74 90.89 L 59.02 90.89 L 59.01 93.17 L 59.01 95.45 L 56.73 95.44 L 59.01 95.45 L 59.01 97.72 L 59.01 100.00 L 56.74 100.00 L 56.73 102.28 L 54.46 102.28 L 52.18 102.28 L 52.18 100.00 L 52.18 97.72 L 54.46 97.73 L 56.73 97.72 L 56.74 100.00 L 59.01 100.00 L 59.01 102.28 L 59.01 104.56 L 56.73 104.55 L 59.01 104.56 L 59.01 106.83 L 59.01 109.11 L 56.74 109.11 L 56.73 111.38 L 54.46 111.39 L 52.18 111.39 L 52.18 109.11 L 54.46 109.11 L 54.46 111.39 L 54.46 113.66 L 52.18 113.66 L 52.19 115.94 L 49.91 115.94 L 47.63 115.94 L 47.63 113.66 L 47.63 115.94 L 45.35 115.94 L 43.08 115.94 L 43.07 113.67 L 40.80 113.66 L 40.79 111.39 L 40.80 109.11 L 43.08 109.11 L 45.35 109.11 L 45.36 111.38 L 45.35 113.66 L 43.07 113.67 L 43.08 115.94 L 40.80 115.94 L 38.52 115.94 L 38.52 113.66 L 38.52 115.94 L 36.24 115.94 L 33.97 115.94 L 33.97 113.66 L 31.69 113.66 L 31.69 111.39 L 31.69 109.11 L 33.97 109.11 L 33.97 111.38 L 31.69 111.39 L 29.42 111.38 L 29.41 109.11 L 27.14 109.11 L 27.13 106.83 L 27.13 104.55 L 29.42 104.55 L 27.13 104.55 L 27.14 102.28 L 27.14 100.00 L 29.41 100.00 L 29.41 97.73 L 31.69 97.72 L 33.97 97.72 L 33.97 100.00 L 36.24 100.00 L 36.24 102.28 L 36.24 104.55 L 33.97 104.56 L 33.97 106.83 L 31.69 106.83 L 29.41 106.83 L 29.42 104.55 L 29.41 106.83 L 27.13 106.83 L 24.86 106.83 L 24.86 104.55 L 22.58 104.56 L 22.58 102.28 L 22.58 100.00 L 24.86 100.00 L 24.86 102.28 L 22.58 102.28 L 20.30 102.28 L 20.31 100.00 L 18.03 100.00 L 18.02 97.72 L 18.03 95.44 L 20.31 95.44 L 18.03 95.44 L 18.02 93.17 L 18.03 90.90 L 20.30 90.89 L 20.30 88.61 L 22.58 88.61 L 24.86 88.61 L 24.86 90.89 L 24.86 93.17 L 22.59 93.17 L 20.31 93.17 L 20.30 90.89 L 18.03 90.90 L 18.03 88.61 L 18.02 86.34 L 20.31 86.34 L 18.02 86.34 L 18.02 84.06 L 18.03 81.78 L 20.31 81.78 L 20.31 79.51 L 22.59 79.50 L 24.86 79.51 L 24.86 81.79 L 22.58 81.78 L 22.59 79.50 L 22.58 77.23 L 24.86 77.23 L 24.85 74.95 L 27.14 74.95 L 29.41 74.95 L 29.41 77.23 L 29.41 74.95 L 31.69 74.96 L 33.97 74.96 L 33.97 77.23 L 36.25 77.23 L 36.24 79.51 L 36.25 81.78 L 33.97 81.78 L 36.25 81.78 L 36.24 84.06 L 36.24 86.34 L 33.97 86.34 L 33.97 88.62 L 31.69 88.62 L 29.42 88.62 L 29.41 86.34 L 29.42 88.62 L 27.14 88.61 L 24.86 88.61 L 24.86 86.34 L 22.58 86.33 L 22.59 84.06 L 22.58 81.78 L 24.86 81.79 L 24.86 84.06 L 22.59 84.06 L 20.31 84.06 L 20.31 81.78 L 18.03 81.78 L 18.03 79.50 L 18.03 77.23 L 20.31 77.23 L 18.03 77.23 L 18.02 74.95 L 18.02 72.68 L 20.31 72.67 L 20.31 70.40 L 22.59 70.40 L 24.86 70.40 L 24.86 72.67 L 24.85 74.95 L 22.58 74.95 L 20.31 74.95 L 20.31 72.67 L 18.02 72.68 L 18.02 70.40 L 18.03 68.12 L 20.31 68.12 L 18.03 68.12 L 18.03 65.84 L 18.03 63.57 L 20.31 63.57 L 20.31 61.30 L 22.58 61.29 L 24.86 61.29 L 24.85 63.57 L 22.58 63.57 L 22.58 61.29 L 22.58 59.01 L 24.86 59.02 L 24.86 56.74 L 27.13 56.73 L 29.41 56.74 L 29.42 59.01 L 29.41 56.74 L 31.69 56.73 L 33.97 56.74 L 33.97 59.01 L 36.24 59.01 L 36.25 61.30 L 36.24 63.57 L 33.97 63.56 L 33.97 65.85 L 31.69 65.85 L 29.41 65.85 L 29.42 63.56 L 27.13 63.57 L 27.13 61.29 L 27.14 59.01 L 29.42 59.01 L 27.14 59.01 L 27.13 56.73 L 27.14 54.46 L 29.41 54.45 L 29.41 52.18 L 31.69 52.18 L 33.96 52.18 L 33.96 54.46 L 31.69 54.46 L 31.69 52.18 L 31.69 49.91 L 33.97 49.91 L 33.97 47.63 L 36.24 47.62 L 38.53 47.63 L 38.52 49.90 L 38.53 47.63 L 40.80 47.63 L 43.07 47.63 L 43.08 49.91 L 45.35 49.91 L 45.35 52.19 L 45.35 54.46 L 43.07 54.46 L 40.80 54.46 L 40.80 52.18 L 40.79 49.91 L 43.08 49.91 L 43.07 47.63 L 45.35 47.63 L 47.63 47.63 L 47.63 49.91 L 47.63 47.63 L 49.91 47.63 L 52.18 47.63 L 52.18 49.91 L 54.46 49.91 L 54.46 52.18 L 54.46 54.46 L 52.18 54.46 L 52.18 52.18 L 54.46 52.18 L 56.73 52.18 L 56.74 54.46 L 59.01 54.46 L 59.01 56.73 L 59.02 59.02 L 56.74 59.01 L 59.02 59.02 L 59.01 61.29 L 59.01 63.57 L 56.74 63.57 L 56.74 65.85 L 54.46 65.84 L 52.18 65.85 L 52.19 63.57 L 54.46 63.57 L 54.46 65.84 L 54.46 68.12 L 52.19 68.12 L 52.18 70.40 L 49.91 70.40 L 47.63 70.40 L 47.63 68.12 L 47.63 70.40 L 45.35 70.40 L 43.08 70.40 L 43.08 68.12 L 40.80 68.12 L 40.80 65.84 L 40.79 63.57 L 43.08 63.57 L 43.08 65.85 L 40.80 65.84 L 38.52 65.85 L 38.52 63.57 L 36.24 63.57 L 36.25 61.30 L 36.24 59.01 L 38.52 59.01 L 36.24 59.01 L 36.24 56.74 L 36.24 54.46 L 38.52 54.46 L 38.52 52.18 L 40.80 52.18 L 43.08 52.19 L 43.07 54.46 L 43.08 56.74 L 40.80 56.74 L 38.52 56.74 L 38.52 54.46 L 36.24 54.46 L 36.24 52.18 L 36.25 49.90 L 38.52 49.90 L 36.25 49.90 L 36.24 47.62 L 36.24 45.35 L 38.52 45.35 L 38.52 43.07 L 40.80 43.07 L 43.08 43.07 L 43.08 45.35 L 40.80 45.35 L 40.80 43.07 L 40.80 40.80 L 43.07 40.79 L 43.07 38.52 L 45.35 38.52 L 47.63 38.52 L 47.63 40.80 L 47.63 38.52 L 49.90 38.52 L 52.18 38.52 L 52.18 40.79 L 54.46 40.80 L 54.46 43.08 L 54.46 45.35 L 52.19 45.35 L 52.18 47.63 L 49.91 47.63 L 47.63 47.63 L 47.63 45.35 L 45.35 45.35 L 45.35 43.07 L 45.35 40.80 L 47.63 40.80 L 45.35 40.80 L 45.35 38.52 L 45.36 36.24 L 47.63 36.24 L 47.63 33.97 L 49.91 33.97 L 52.18 33.97 L 52.18 36.24 L 49.91 36.25 L 49.91 33.97 L 49.90 31.69 L 52.18 31.69 L 52.19 29.41 L 54.46 29.41 L 56.73 29.41 L 56.74 31.69 L 56.73 29.41 L 59.01 29.42 L 61.29 29.41 L 61.29 31.69 L 63.57 31.69 L 63.57 33.96 L 63.57 36.25 L 61.29 36.25 L 59.01 36.24 L 59.02 33.97 L 59.02 31.69 L 61.29 31.69 L 61.29 29.41 L 63.57 29.41 L 65.84 29.41 L 65.84 31.69 L 65.84 29.41 L 68.12 29.41 L 70.40 29.41 L 70.40 31.69 L 72.68 31.69 L 72.67 33.97 L 72.68 36.25 L 70.40 36.25 L 70.40 33.97 L 72.67 33.97 L 74.95 33.97 L 74.95 36.25 L 77.23 36.24 L 77.23 38.52 L 77.23 40.80 L 74.95 40.80 L 77.23 40.80 L 77.23 43.08 L 77.23 45.35 L 74.95 45.36 L 74.96 47.63 L 72.68 47.63 L 70.40 47.63 L 70.40 45.35 L 70.40 47.63 L 68.12 47.63 L 65.85 47.63 L 65.85 45.35 L 63.57 45.35 L 63.57 43.08 L 63.57 40.80 L 65.85 40.80 L 63.57 40.80 L 63.57 38.52 L 63.57 36.25 L 65.85 36.25 L 65.84 33.97 L 68.12 33.97 L 70.40 33.97 L 70.40 36.25 L 68.12 36.25 L 68.12 33.97 L 68.12 31.69 L 70.40 31.69 L 70.40 29.41 L 72.67 29.42 L 74.95 29.41 L 74.95 31.69 L 74.95 29.41 L 77.23 29.41 L 79.50 29.41 L 79.51 31.69 L 81.79 31.69 L 81.78 33.97 L 81.79 36.25 L 79.51 36.24 L 77.23 36.24 L 77.23 33.97 L 77.23 31.69 L 79.51 31.69 L 79.50 29.41 L 81.78 29.41 L 84.06 29.42 L 84.06 31.69 L 84.06 29.42 L 86.34 29.41 L 88.62 29.42 L 88.61 31.69 L 90.89 31.69 L 90.89 33.97 L 90.89 36.24 L 88.62 36.24 L 88.61 33.97 L 90.89 33.97 L 93.17 33.97 L 93.17 36.24 L 95.45 36.24 L 95.44 38.52 L 95.45 40.80 L 93.17 40.79 L 95.45 40.80 L 95.45 43.08 L 95.44 45.35 L 93.17 45.35 L 93.17 47.63 L 90.89 47.63 L 88.61 47.63 L 88.62 45.36 L 86.34 45.35 L 86.34 43.07 L 86.34 40.80 L 88.61 40.79 L 88.62 38.52 L 90.89 38.52 L 93.17 38.52 L 93.17 40.79 L 93.17 38.52 L 95.44 38.52 L 97.73 38.52 L 97.72 40.80 L 100.00 40.80 L 100.00 43.08 L 100.00 45.35 L 97.72 45.35 L 97.72 43.08 L 100.00 43.08 L 102.28 43.08 L 102.28 45.35 L 104.55 45.35 L 104.55 47.63 L 104.55 49.91 L 102.28 49.90 L 104.55 49.91 L 104.55 52.18 L 104.56 54.46 L 102.28 54.46 L 102.28 56.73 L 100.00 56.74 L 97.72 56.73 L 97.72 54.46 L 97.72 52.18 L 100.00 52.18 L 102.28 52.18 L 102.28 54.46 L 104.56 54.46 L 104.56 56.73 L 104.55 59.01 L 102.28 59.01 L 104.55 59.01 L 104.55 61.29 L 104.55 63.56 L 102.28 63.57 L 102.28 65.85 L 100.00 65.85 L 97.72 65.85 L 97.72 63.57 L 100.00 63.57 L 100.00 65.85 L 100.00 68.12 L 97.72 68.12 L 97.72 70.40 L 95.44 70.40 L 93.17 70.40 L 93.17 68.13 L 93.17 70.40 L 90.89 70.40 L 88.61 70.40 L 88.62 68.12 L 86.34 68.12 L 86.34 65.85 L 86.34 63.57 L 88.62 63.57 L 63.57 88.61 L 63.57 86.34 L 65.85 86.34 L 68.12 86.34 L 68.12 88.62 L 70.40 88.61 L 70.40 90.89 L 70.40 93.17 L 68.13 93.17 L 70.40 93.17 L 70.40 95.45 L 70.40 97.72 L 68.12 97.72 L 68.12 100.00 L 65.85 100.00 L 63.57 100.00 L 63.57 97.72 L 65.85 97.72 L 65.85 100.00 L 65.85 102.28 L 63.57 102.28 L 63.56 104.56 L 61.29 104.55 L 59.01 104.56 L 59.01 102.28 L 59.01 104.56 L 56.73 104.55 L 54.46 104.55 L 54.46 102.28 L 52.18 102.28 L 52.18 100.00 L 52.18 97.72 L 54.46 97.73 L 56.73 97.72 L 56.74 100.00 L 56.73 102.28 L 54.46 102.28 L 54.46 104.55 L 52.18 104.56 L 49.91 104.56 L 49.90 102.28 L 49.91 104.56 L 47.63 104.56 L 45.35 104.56 L 45.35 102.28 L 43.08 102.28 L 43.08 100.00 L 43.08 97.72 L 45.35 97.72 L 45.35 100.00 L 43.08 100.00 L 40.80 100.00 L 40.80 97.72 L 38.52 97.72 L 38.52 95.45 L 38.52 93.17 L 40.80 93.17 L 38.52 93.17 L 38.52 90.89 L 38.52 88.61 L 40.79 88.61 L 40.80 86.34 L 43.07 86.34 L 45.35 86.34 L 45.36 88.61 L 47.63 88.62 L 47.63 90.89 L 47.63 93.17 L 45.35 93.17 L 45.35 95.45 L 43.08 95.45 L 40.80 95.44 L 40.80 93.17 L 40.80 95.44 L 38.52 95.45 L 36.24 95.45 L 36.24 93.17 L 33.97 93.17 L 33.97 90.89 L 33.97 88.62 L 36.24 88.61 L 36.24 90.89 L 33.97 90.89 L 31.69 90.89 L 31.69 88.62 L 29.42 88.62 L 29.41 86.34 L 29.42 84.06 L 31.69 84.06 L 29.42 84.06 L 29.41 81.79 L 29.41 79.51 L 31.69 79.51 L 31.69 77.23 L 33.97 77.23 L 36.25 77.23 L 36.24 79.51 L 36.25 81.78 L 33.97 81.78 L 31.69 81.78 L 31.69 79.51 L 29.41 79.51 L 29.41 77.23 L 29.41 74.95 L 31.69 74.96 L 29.41 74.95 L 29.41 72.68 L 29.41 70.40 L 31.69 70.40 L 31.69 68.12 L 33.97 68.13 L 36.24 68.12 L 36.25 70.40 L 33.97 70.40 L 33.97 68.13 L 33.97 65.85 L 36.25 65.85 L 36.24 63.57 L 38.52 63.57 L 40.79 63.57 L 40.80 65.84 L 40.79 63.57 L 43.08 63.57 L 45.35 63.57 L 45.36 65.85 L 47.63 65.85 L 47.63 68.12 L 47.63 70.40 L 45.35 70.40 L 47.63 70.40 L 47.63 72.68 L 47.63 74.95 L 45.35 74.96 L 45.35 77.23 L 43.08 77.23 L 40.80 77.23 L 40.80 74.96 L 40.80 77.23 L 38.53 77.23 L 36.25 77.23 L 36.24 74.95 L 33.97 74.96 L 33.97 72.68 L 33.97 70.40 L 36.25 70.40 L 36.25 72.68 L 33.97 72.68 L 31.69 72.67 L 31.69 70.40 L 29.41 70.40 L 29.41 68.12 L 29.41 65.85 L 31.69 65.85 L 29.41 65.85 L 29.42 63.56 L 29.41 61.29 L 31.69 61.29 L 31.69 59.02 L 33.97 59.01 L 36.24 59.01 L 36.25 61.30 L 36.24 63.57 L 33.97 63.56 L 31.69 63.57 L 31.69 61.29 L 29.41 61.29 L 29.42 59.01 L 29.41 56.74 L 31.69 56.73 L 29.41 56.74 L 29.41 54.45 L 29.41 52.18 L 31.69 52.18 L 31.69 49.91 L 33.97 49.91 L 36.25 49.90 L 36.24 52.18 L 33.96 52.18 L 33.97 49.91 L 33.97 47.63 L 36.24 47.62 L 36.24 45.35 L 38.52 45.35 L 40.80 45.35 L 40.80 47.63 L 40.80 45.35 L 43.08 45.35 L 45.35 45.35 L 45.35 47.63 L 47.63 47.63 L 47.63 49.91 L 47.63 52.18 L 45.35 52.19 L 45.35 54.46 L 43.07 54.46 L 40.80 54.46 L 40.80 52.18 L 38.52 52.18 L 38.52 49.90 L 38.53 47.63 L 40.80 47.63 L 38.53 47.63 L 38.52 45.35 L 38.52 43.07 L 40.80 43.07 L 40.80 40.80 L 43.07 40.79 L 45.35 40.80 L 45.35 43.07 L 43.08 43.07 L 43.07 40.79 L 43.07 38.52 L 45.35 38.52 L 45.36 36.24 L 47.63 36.24 L 49.91 36.25 L 49.90 38.52 L 49.91 36.25 L 52.18 36.24 L 54.46 36.24 L 54.46 38.52 L 56.74 38.52 L 56.74 40.80 L 56.74 43.08 L 54.46 43.08 L 52.18 43.08 L 52.18 40.79 L 52.18 38.52 L 54.46 38.52 L 54.46 36.24 L 56.74 36.24 L 59.01 36.24 L 59.01 38.52 L 59.01 36.24 L 61.29 36.25 L 63.57 36.25 L 63.57 38.52 L 65.85 38.52 L 65.85 40.80 L 65.85 43.07 L 63.57 43.08 L 63.57 40.80 L 65.85 40.80 L 68.12 40.80 L 68.12 43.08 L 70.40 43.07 L 70.40 45.35 L 70.40 47.63 L 68.12 47.63 L 70.40 47.63 L 70.40 49.91 L 70.40 52.18 L 68.13 52.19 L 68.12 54.46 L 65.85 54.46 L 63.57 54.46 L 63.57 52.19 L 65.84 52.19 L 65.85 54.46 L 65.85 56.74 L 63.57 56.74 L 63.57 59.02 L 61.29 59.02 L 59.02 59.02 L 59.01 56.73 L 59.02 59.02 L 56.74 59.01 L 54.46 59.01 L 54.46 56.74 L 52.18 56.74 L 52.18 54.46 L 52.18 52.18 L 54.46 52.18 L 54.46 54.46 L 52.18 54.46 L 49.91 54.46 L 49.90 52.18 L 47.63 52.18 L 47.63 49.91 L 47.63 47.63 L 49.91 47.63 L 47.63 47.63 L 47.63 45.35 L 47.62 43.07 L 49.91 43.08 L 49.90 40.80 L 52.18 40.79 L 54.46 40.80 L 54.46 43.08 L 54.46 45.35 L 52.19 45.35 L 49.90 45.35 L 49.91 43.08 L 47.62 43.07 L 47.63 40.80 L 47.63 38.52 L 49.90 38.52 L 47.63 38.52 L 47.63 36.24 L 47.63 33.97 L 49.91 33.97 L 49.90 31.69 L 52.18 31.69 L 54.46 31.69 L 54.46 33.97 L 52.18 33.97 L 52.18 31.69 L 52.19 29.41 L 54.46 29.41 L 54.46 27.14 L 56.74 27.13 L 59.01 27.14 L 59.01 29.42 L 59.01 27.14 L 61.29 27.13 L 63.56 27.13 L 63.57 29.41 L 65.84 29.41 L 65.84 31.69 L 65.84 33.97 L 63.57 33.96 L 63.57 36.25 L 61.29 36.25 L 59.01 36.24 L 59.02 33.97 L 56.74 33.97 L 56.74 31.69 L 56.73 29.41 L 59.01 29.42 L 56.73 29.41 L 56.74 27.13 L 56.74 24.86 L 59.01 24.86 L 59.02 22.58 L 61.29 22.59 L 63.56 22.58 L 63.56 24.86 L 61.29 24.86 L 61.29 22.59 L 61.29 20.31 L 63.57 20.31 L 63.57 18.03 L 65.85 18.03 L 68.12 18.03 L 68.12 20.31 L 68.12 18.03 L 70.39 18.03 L 72.67 18.03 L 72.68 20.30 L 74.96 20.30 L 74.95 22.58 L 74.95 24.86 L 72.67 24.86 L 70.40 24.86 L 70.40 22.58 L 70.40 20.31 L 72.68 20.30 L 72.67 18.03 L 74.95 18.03 L 77.23 18.03 L 77.23 20.31 L 77.23 18.03 L 79.51 18.03 L 81.78 18.03 L 81.79 20.31 L 84.06 20.31 L 84.06 22.59 L 84.06 24.86 L 81.78 24.86 L 81.78 22.58 L 84.06 22.59 L 86.34 22.58 L 86.34 24.86 L 88.61 24.86 L 88.62 27.14 L 88.62 29.42 L 86.34 29.41 L 88.62 29.42 L 88.61 31.69 L 88.61 33.97 L 86.34 33.97 L 86.34 36.24 L 84.06 36.24 L 81.79 36.25 L 81.78 33.97 L 81.79 36.25 L 79.51 36.24 L 77.23 36.24 L 77.23 33.97 L 74.95 33.97 L 74.95 31.69 L 74.95 29.41 L 77.23 29.41 L 74.95 29.41 L 74.95 27.14 L 74.95 24.86 L 77.23 24.86 L 77.23 22.59 L 79.51 22.58 L 81.78 22.58 L 81.78 24.86 L 79.50 24.86 L 79.51 22.58 L 79.51 20.31 L 81.79 20.31 L 81.78 18.03 L 84.06 18.02 L 86.33 18.03 L 86.34 20.31 L 86.33 18.03 L 88.62 18.03 L 90.89 18.03 L 90.89 20.30 L 93.17 20.31 L 93.17 22.59 L 93.17 24.86 L 90.90 24.86 L 88.61 24.86 L 88.62 22.58 L 88.62 20.30 L 90.89 20.30 L 90.89 18.03 L 93.17 18.02 L 95.45 18.03 L 95.45 20.31 L 95.45 18.03 L 97.72 18.02 L 100.00 18.03 L 100.00 20.31 L 102.27 20.30 L 102.28 22.58 L 102.28 24.86 L 100.00 24.86 L 100.00 22.58 L 102.28 22.58 L 104.55 22.58 L 104.55 24.86 L 106.83 24.86 L 106.83 27.13 L 106.83 29.41 L 104.55 29.42 L 106.83 29.41 L 106.83 31.69 L 106.83 33.97 L 104.55 33.97 L 104.55 36.24 L 102.28 36.24 L 100.00 36.24 L 100.00 33.97 L 97.72 33.97 L 97.73 31.69 L 97.72 29.41 L 100.00 29.41 L 100.00 27.14 L 102.28 27.14 L 104.55 27.13 L 104.55 29.42 L 104.55 27.13 L 106.83 27.13 L 109.11 27.14 L 109.11 29.41 L 111.38 29.42 L 111.38 31.69 L 111.38 33.97 L 109.10 33.97 L 109.11 31.69 L 111.38 31.69 L 113.66 31.69 L 113.66 33.97 L 115.94 33.96 L 115.94 36.24 L 115.94 38.52 L 113.67 38.52 L 115.94 38.52 L 115.94 40.80 L 115.94 43.08 L 113.66 43.07 L 113.66 45.35 L 111.39 45.36 L 109.11 45.35 L 109.11 43.08 L 109.11 40.80 L 111.39 40.79 L 113.66 40.80 L 113.66 43.07 L 115.94 43.08 L 115.94 45.35 L 115.94 47.62 L 113.66 47.63 L 115.94 47.62 L 115.94 49.91 L 115.94 52.19 L 113.66 52.18 L 113.66 54.46 L 111.39 54.46 L 109.11 54.46 L 109.11 52.18 L 111.38 52.18 L 111.39 54.46 L 111.39 56.73 L 109.11 56.74 L 109.11 59.02 L 106.83 59.01 L 104.55 59.01 L 104.56 56.73 L 104.55 59.01 L 102.28 59.01 L 100.00 59.01 L 100.00 56.74 L 97.72 56.73 L 97.72 54.46 L 97.72 52.18 L 100.00 52.18 L 102.28 52.18 L 102.28 54.46 L 102.28 56.73 L 100.00 56.74 L 100.00 59.01 L 97.72 59.01 L 95.45 59.01 L 95.45 56.73 L 95.45 59.01 L 93.17 59.01 L 90.89 59.01 L 90.89 56.74 L 88.62 56.73 L 88.61 54.46 L 88.61 52.18 L 90.89 52.18 L 90.89 54.46 L 88.61 54.46 L 86.34 54.46 L 86.34 52.18 L 84.06 52.19 L 84.06 49.91 L 84.06 47.63 L 86.34 47.63 L 84.06 47.63 L 84.06 45.35 L 84.06 43.08 L 86.34 43.07 L 86.34 40.80 L 88.61 40.79 L 90.89 40.80 L 90.89 43.08 L 90.89 45.35 L 88.62 45.36 L 86.34 45.35 L 86.34 43.07 L 84.06 43.08 L 84.06 40.80 L 84.06 38.52 L 86.34 38.52 L 84.06 38.52 L 84.06 36.24 L 84.06 33.97 L 86.34 33.97 L 86.34 31.69 L 88.61 31.69 L 90.89 31.69 L 90.89 33.97 L 88.61 33.97 L 88.61 31.69 L 88.62 29.42 L 90.89 29.41 L 90.89 27.14 L 93.17 27.13 L 95.45 27.13 L 95.45 29.42 L 95.45 27.13 L 97.72 27.14 L 100.00 27.14 L 100.00 29.41 L 102.27 29.41 L 102.28 31.69 L 102.28 33.97 L 100.00 33.97 L 100.00 36.24 L 97.72 36.24 L 95.45 36.24 L 95.44 33.97 L 93.17 33.97 L 93.17 31.69 L 93.17 29.41 L 95.45 29.42 L 93.17 29.41 L 93.17 27.13 L 93.17 24.86 L 95.44 24.86 L 95.44 22.58 L 97.72 22.58 L 100.00 22.58 L 100.00 24.86 L 97.72 24.86 L 97.72 22.58 L 97.72 20.30 L 100.00 20.31 L 100.00 18.03 L 102.28 18.02 L 104.56 18.03 L 104.56 20.31 L 104.56 18.03 L 106.83 18.02 L 109.10 18.03 L 109.11 20.30 L 111.39 20.30 L 111.39 22.58 L 111.39 24.86 L 109.11 24.86 L 106.83 24.86 L 106.83 22.59 L 106.83 20.31 L 109.11 20.30 L 109.10 18.03 L 111.39 18.03 L 113.66 18.02 L 113.66 20.31 L 113.66 18.02 L 115.94 18.02 L 118.22 18.03 L 118.22 20.31 L 120.50 20.31 L 120.50 22.59 L 120.49 24.86 L 118.22 24.86 L 118.22 22.58 L 120.50 22.59 L 122.77 22.58 L 122.77 24.86 L 125.05 24.85 L 125.05 27.14 L 125.05 29.42 L 122.77 29.41 L 125.05 29.42 L 125.04 31.69 L 125.05 33.97 L 122.77 33.97 L 122.77 36.25 L 120.49 36.24 L 118.22 36.25 L 118.21 33.97 L 118.22 36.25 L 115.94 36.24 L 113.66 36.24 L 113.66 33.97 L 111.38 33.97 L 111.38 31.69 L 111.38 29.42 L 113.67 29.41 L 111.38 29.42 L 111.39 27.14 L 111.39 24.86 L 113.66 24.86 L 113.67 22.58 L 115.94 22.59 L 118.22 22.58 L 118.22 24.86 L 115.94 24.86 L 115.94 22.59 L 115.94 20.31 L 118.22 20.31 L 118.22 18.03 L 120.50 18.03 L 122.77 18.03 L 122.77 20.31 L 122.77 18.03 L 125.05 18.02 L 127.32 18.02 L 127.33 20.31 L 129.60 20.31 L 129.60 22.59 L 129.60 24.86 L 127.33 24.86 L 125.05 24.85 L 125.05 22.58 L 125.05 20.31 L 127.33 20.31 L 127.32 18.02 L 129.60 18.02 L 131.88 18.03 L 131.88 20.31 L 131.88 18.03 L 134.16 18.03 L 136.43 18.03 L 136.43 20.31 L 138.71 20.31 L 138.71 22.58 L 138.71 24.86 L 136.43 24.85 L 136.43 22.58 L 138.71 22.58 L 140.99 22.58 L 140.98 24.86 L 143.26 24.86 L 143.27 27.13 L 143.26 29.41 L 140.98 29.41 L 143.26 29.41 L 143.27 31.69 L 143.26 33.97 L 140.99 33.97 L 140.99 36.24 L 138.70 36.25 L 136.43 36.24 L 136.43 33.96 L 134.15 33.97 L 134.15 31.69 L 134.15 29.41 L 136.43 29.41 L 136.43 27.13 L 138.71 27.13 L 140.99 27.14 L 140.98 29.41 L 140.99 27.14 L 143.27 27.13 L 145.54 27.14 L 145.54 29.41 L 147.82 29.41 L 147.82 31.69 L 147.82 33.96 L 145.54 33.96 L 145.54 31.69 L 147.82 31.69 L 150.09 31.69 L 150.09 33.97 L 152.37 33.97 L 152.38 36.24 L 152.37 38.52 L 150.10 38.52 L 152.37 38.52 L 152.37 40.80 L 152.37 43.07 L 150.09 43.08 L 150.09 45.35 L 147.81 45.35 L 145.54 45.35 L 145.54 43.07 L 145.54 40.80 L 147.82 40.80 L 150.09 40.80 L 150.09 43.08 L 152.37 43.07 L 152.37 45.35 L 152.37 47.63 L 150.09 47.63 L 152.37 47.63 L 152.37 49.91 L 152.37 52.18 L 150.09 52.18 L 150.09 54.46 L 147.82 54.46 L 145.54 54.46 L 145.54 52.18 L 147.82 52.18 L 147.82 54.46 L 147.82 56.73 L 145.54 56.74 L 145.54 59.01 L 143.27 59.01 L 140.98 59.02 L 140.99 56.74 L 140.98 59.02 L 138.71 59.01 L 136.43 59.01 L 136.43 56.74 L 134.15 56.74 L 134.16 54.46 L 134.15 52.18 L 136.43 52.19 L 136.43 54.46 L 134.16 54.46 L 131.88 54.46 L 131.88 52.19 L 129.60 52.18 L 129.60 49.91 L 129.60 47.63 L 131.88 47.63 L 129.60 47.63 L 129.60 45.35 L 129.60 43.08 L 131.88 43.08 L 131.88 40.80 L 134.16 40.80 L 136.43 40.79 L 136.43 43.08 L 134.15 43.08 L 134.16 40.80 L 134.15 38.52 L 136.43 38.52 L 136.43 36.24 L 138.70 36.25 L 140.99 36.24 L 140.99 38.52 L 140.99 36.24 L 143.26 36.24 L 145.54 36.24 L 145.54 38.52 L 147.82 38.52 L 147.82 40.80 L 147.81 43.08 L 145.54 43.07 L 143.26 43.08 L 143.26 40.80 L 143.26 38.52 L 145.54 38.52 L 145.54 36.24 L 147.82 36.24 L 150.10 36.25 L 150.10 38.52 L 150.10 36.25 L 152.38 36.24 L 154.65 36.24 L 154.65 38.52 L 156.93 38.52 L 156.93 40.80 L 156.93 43.08 L 154.65 43.08 L 154.65 40.80 L 156.93 40.80 L 159.21 40.80 L 159.21 43.07 L 161.48 43.07 L 161.48 45.35 L 161.48 47.63 L 159.20 47.63 L 161.48 47.63 L 161.48 49.91 L 161.48 52.18 L 159.21 52.18 L 159.20 54.46 L 156.92 54.46 L 154.65 54.46 L 154.64 52.18 L 152.37 52.18 L 152.37 49.91 L 152.37 47.63 L 154.65 47.63 L 154.65 45.35 L 156.93 45.35 L 159.20 45.35 L 159.20 47.63 L 159.20 45.35 L 161.48 45.35 L 163.76 45.36 L 163.76 47.63 L 166.03 47.63 L 166.03 49.91 L 166.03 52.18 L 163.76 52.18 L 163.76 49.91 L 166.03 49.91 L 168.31 49.90 L 168.31 52.19 L 170.59 52.19 L 170.59 54.46 L 170.59 56.73 L 168.31 56.74 L 170.59 56.73 L 170.58 59.01 L 170.59 61.29 L 168.31 61.29 L 168.31 63.57 L 166.04 63.57 L 163.75 63.57 L 163.75 61.29 L 163.76 59.01 L 166.03 59.02 L 168.31 59.02 L 168.31 61.29 L 170.59 61.29 L 170.59 63.57 L 170.59 65.84 L 168.31 65.84 L 170.59 65.84 L 170.59 68.12 L 170.59 70.40 L 168.31 70.40 L 168.31 72.68 L 166.03 72.67 L 163.76 72.68 L 163.75 70.40 L 166.03 70.40 L 166.03 72.67 L 166.03 74.95 L 163.75 74.95 L 163.76 77.23 L 161.48 77.23 L 159.20 77.23 L 159.20 74.95 L 159.20 77.23 L 156.92 77.23 L 154.65 77.23 L 154.64 74.95 L 152.37 74.96 L 152.37 72.68 L 152.37 70.40 L 154.65 70.40 L 152.37 70.40 L 152.37 68.12 L 152.37 65.85 L 154.65 65.85 L 154.65 63.57 L 156.92 63.57 L 159.20 63.57 L 159.20 65.85 L 159.20 63.57 L 161.48 63.57 L 163.75 63.57 L 163.75 65.85 L 166.03 65.84 L 166.03 68.12 L 166.03 70.40 L 163.75 70.40 L 163.75 68.12 L 166.03 68.12 L 168.31 68.12 L 168.31 70.40 L 170.59 70.40 L 170.58 72.67 L 170.59 74.95 L 168.31 74.95 L 170.59 74.95 L 170.59 77.23 L 170.59 79.50 L 168.31 79.51 L 168.31 81.79 L 166.03 81.78 L 163.75 81.79 L 163.76 79.51 L 163.76 77.23 L 166.03 77.23 L 168.31 77.23 L 168.31 79.51 L 170.59 79.50 L 170.59 81.78 L 170.58 84.06 L 168.31 84.06 L 170.58 84.06 L 170.59 86.34 L 170.58 88.62 L 168.31 88.61 L 168.31 90.89 L 166.03 90.89 L 163.76 90.89 L 163.76 88.62 L 166.03 88.61 L 166.03 90.89 L 166.03 93.17 L 163.76 93.17 L 163.76 95.45 L 161.48 95.44 L 159.20 95.45 L 159.21 93.17 L 159.20 95.45 L 156.92 95.44 L 154.65 95.44 L 154.65 93.17 L 152.37 93.17 L 152.37 90.89 L 152.37 88.61 L 154.64 88.62 L 154.65 86.34 L 156.93 86.34 L 159.20 86.34 L 159.21 88.61 L 161.48 88.62 L 161.48 90.89 L 161.48 93.17 L 159.21 93.17 L 161.48 93.17 L 161.48 95.44 L 161.48 97.73 L 159.20 97.72 L 159.20 100.00 L 156.92 100.00 L 154.65 100.00 L 154.65 97.72 L 156.92 97.72 L 156.92 100.00 L 156.92 102.28 L 154.65 102.28 L 154.65 104.55 L 152.37 104.55 L 150.09 104.55 L 150.10 102.28 L 150.09 104.55 L 147.82 104.55 L 145.54 104.55 L 145.54 102.28 L 143.27 102.28 L 143.26 100.00 L 143.27 97.72 L 145.54 97.72 L 147.82 97.72 L 147.82 100.00 L 147.82 102.28 L 145.54 102.28 L 145.54 104.55 L 143.27 104.56 L 140.99 104.55 L 140.99 102.28 L 140.99 104.55 L 138.71 104.55 L 136.44 104.55 L 136.43 102.28 L 134.15 102.28 L 134.15 100.00 L 134.15 97.72 L 136.43 97.72 L 136.43 100.00 L 134.15 100.00 L 131.88 100.00 L 131.88 97.72 L 129.60 97.72 L 129.60 95.44 L 129.60 93.17 L 131.87 93.17 L 129.60 93.17 L 129.60 90.89 L 129.60 88.61 L 131.88 88.62 L 131.88 86.34 L 134.15 86.34 L 136.43 86.34 L 136.43 88.62 L 136.43 86.34 L 131.88 86.34 L 131.88 88.62 L 129.60 88.61 L 129.60 97.72 L 131.88 97.72 L 131.88 100.00 L 130.92 100.00 L 100.10 100.00 L 100.00 100.00" 
          fill="none" 
          stroke="currentColor" 
          stroke-width="0.5"/>
</svg>