<?xml version="1.0" encoding="UTF-8" standalone="no"?>
<svg width="100%" height="100%" viewBox="0 0 200 200" preserveAspectRatio="xMidYMid meet" xmlns="http://www.w3.org/2000/svg">
    <path d="M 100.00 100.00 L 100.00 105.97 L 99.28 105.94 L 98.66 105.89 L 97.84 105.77 L 97.10 105.61 L 96.00 105.28 L 94.17 104.44 L 92.78 103.52 L 91.79 102.67 L 90.94 101.77 L 90.10 100.66 L 89.52 99.68 L 88.95 98.45 L 88.52 97.15 L 88.20 95.47 L 88.13 94.44 L 88.24 92.44 L 88.72 90.34 L 89.52 88.49 L 90.13 87.48 L 89.70 88.19 L 89.13 89.42 L 88.48 91.39 L 88.20 93.05 L 88.12 94.09 L 87.11 94.00 L 85.58 93.52 L 84.41 92.79 L 83.48 91.85 L 82.75 90.68 L 82.29 89.27 L 82.18 88.15 L 83.10 88.11 L 84.09 87.99 L 85.19 87.76 L 86.09 87.49 L 86.76 87.23 L 87.42 86.93 L 88.12 86.55 L 87.42 86.93 L 86.42 87.36 L 85.19 87.76 L 84.09 87.99 L 83.28 88.09 L 81.93 88.15 L 80.53 88.03 L 79.20 87.77 L 77.92 87.36 L 76.90 86.91 L 76.24 86.56 L 75.19 87.09 L 74.21 87.49 L 72.24 87.99 L 69.61 88.13 L 67.60 87.84 L 65.82 87.27 L 64.36 86.56 L 63.74 86.89 L 61.45 87.75 L 58.42 88.15 L 55.66 87.82 L 53.20 86.94 L 50.73 85.32 L 48.94 83.44 L 47.70 81.39 L 46.92 79.26 L 46.61 77.60 L 46.54 76.27 L 46.65 74.68 L 46.88 73.44 L 47.31 72.08 L 47.75 71.06 L 48.63 69.53 L 49.18 68.80 L 50.07 67.82 L 51.04 66.96 L 52.32 66.08 L 53.29 65.55 L 54.48 65.05 L 55.82 64.67 L 57.43 64.43 L 58.93 64.40 L 60.73 64.62 L 62.31 65.04 L 63.37 65.47 L 64.36 65.97 L 65.16 65.56 L 66.42 65.04 L 67.50 64.72 L 68.68 64.50 L 69.67 64.41 L 70.49 64.38 L 71.67 64.47 L 73.20 64.75 L 74.35 65.10 L 75.61 65.64 L 76.24 65.98 L 76.99 65.59 L 77.98 65.16 L 78.77 64.89 L 79.68 64.66 L 80.59 64.49 L 81.44 64.41 L 81.98 64.39 L 82.70 64.40 L 83.58 64.47 L 84.64 64.65 L 86.17 65.08 L 87.38 65.58 L 88.79 66.40 L 88.08 65.99 L 86.78 65.33 L 85.40 64.86 L 83.86 64.52 L 82.70 64.40 L 82.18 64.39 L 82.21 63.83 L 82.31 63.13 L 82.78 61.79 L 83.44 60.73 L 84.22 59.90 L 85.20 59.21 L 86.17 58.78 L 87.21 58.52 L 88.12 58.45 L 88.15 59.37 L 88.29 60.44 L 88.58 61.73 L 88.97 62.86 L 89.40 63.82 L 89.71 64.39 L 89.40 63.82 L 88.77 62.29 L 88.43 61.08 L 88.15 59.37 L 88.12 58.10 L 88.35 56.11 L 88.76 54.60 L 89.22 53.46 L 89.71 52.51 L 89.24 51.60 L 88.70 50.24 L 88.24 48.25 L 88.12 46.26 L 88.42 43.93 L 88.88 42.38 L 89.71 40.63 L 89.11 39.44 L 88.42 37.33 L 88.14 35.28 L 88.26 32.89 L 89.19 29.75 L 90.29 27.84 L 91.54 26.34 L 93.13 25.00 L 95.30 23.78 L 97.06 23.18 L 99.13 22.87 L 101.57 22.91 L 104.04 23.52 L 106.27 24.60 L 107.78 25.71 L 109.36 27.37 L 110.63 29.38 L 111.43 31.46 L 111.84 33.68 L 111.86 35.42 L 111.60 37.24 L 111.01 39.14 L 110.21 40.49 L 111.07 42.24 L 111.54 43.77 L 111.81 45.32 L 111.88 46.46 L 111.82 47.73 L 111.38 49.96 L 110.75 51.62 L 110.29 52.51 L 110.91 53.75 L 111.38 55.04 L 111.77 56.84 L 111.87 57.94 L 111.87 58.84 L 111.80 59.83 L 111.65 60.74 L 111.22 62.36 L 110.84 63.32 L 110.28 64.40 L 109.87 65.05 L 110.56 63.86 L 111.03 62.84 L 111.33 62.01 L 111.73 60.29 L 111.86 59.20 L 111.88 58.45 L 112.66 58.50 L 113.83 58.78 L 114.91 59.28 L 116.45 60.60 L 117.19 61.71 L 117.67 63.06 L 117.82 64.38 L 116.22 64.49 L 114.56 64.84 L 113.53 65.19 L 112.52 65.64 L 111.88 65.98 L 113.03 65.41 L 114.56 64.84 L 116.22 64.49 L 117.56 64.39 L 119.18 64.46 L 120.53 64.70 L 121.96 65.14 L 122.88 65.52 L 123.76 65.98 L 125.58 65.12 L 127.97 64.52 L 129.70 64.39 L 131.71 64.56 L 133.10 64.88 L 134.63 65.46 L 135.64 65.98 L 138.54 64.78 L 141.58 64.38 L 143.83 64.60 L 146.33 65.38 L 147.74 66.11 L 150.03 67.91 L 151.11 69.17 L 151.91 70.40 L 152.55 71.71 L 153.05 73.20 L 153.33 74.50 L 153.44 75.75 L 153.38 77.63 L 152.88 79.93 L 151.95 82.07 L 150.57 84.03 L 148.51 85.92 L 146.48 87.09 L 144.56 87.77 L 142.36 88.12 L 140.52 88.10 L 138.64 87.78 L 137.23 87.33 L 135.62 86.55 L 134.47 87.15 L 131.97 87.93 L 130.60 88.12 L 128.89 88.12 L 127.08 87.86 L 125.26 87.28 L 123.76 86.56 L 122.27 87.28 L 120.64 87.81 L 119.02 88.09 L 117.43 88.14 L 115.54 87.93 L 114.38 87.64 L 113.24 87.23 L 112.42 86.85 L 111.64 86.42 L 111.21 86.14 L 112.03 86.63 L 113.81 87.43 L 114.96 87.78 L 116.09 88.02 L 116.88 88.08 L 117.82 88.15 L 117.68 89.42 L 117.32 90.52 L 116.76 91.54 L 116.27 92.15 L 115.31 92.99 L 114.45 93.50 L 113.11 93.96 L 112.35 94.07 L 111.88 94.09 L 111.85 93.35 L 111.78 92.56 L 111.60 91.49 L 111.36 90.62 L 111.03 89.69 L 110.76 89.06 L 110.29 88.15 L 110.76 89.06 L 111.20 90.16 L 111.60 91.49 L 111.78 92.56 L 111.87 93.72 L 111.87 94.52 L 111.65 96.42 L 111.27 97.86 L 110.88 98.85 L 110.63 99.39 L 110.29 100.03 L 111.29 102.29 L 111.60 103.38 L 111.87 105.55 L 111.68 108.15 L 111.18 109.99 L 110.29 111.90 L 110.91 113.14 L 111.44 114.66 L 111.84 116.84 L 111.75 119.55 L 111.23 121.73 L 110.29 123.79 L 110.98 125.20 L 111.68 127.55 L 111.86 130.36 L 111.59 132.32 L 111.01 134.19 L 110.29 135.67 L 111.01 137.15 L 111.48 138.55 L 111.79 140.17 L 111.87 142.15 L 111.69 143.74 L 111.29 145.31 L 110.91 146.32 L 110.29 147.54 L 111.12 149.30 L 111.58 150.82 L 111.88 153.49 L 111.52 156.39 L 110.85 158.33 L 110.29 159.43 L 111.15 161.26 L 111.80 163.98 L 111.71 167.34 L 111.08 169.65 L 110.12 171.58 L 108.71 173.44 L 106.93 175.02 L 105.43 175.93 L 103.56 176.71 L 101.83 177.11 L 100.95 177.21 L 100.28 177.24 L 99.40 177.24 L 98.16 177.11 L 96.28 176.65 L 95.03 176.16 L 93.66 175.41 L 92.69 174.73 L 91.65 173.82 L 90.88 172.98 L 90.36 172.30 L 89.18 170.28 L 88.50 168.33 L 88.13 165.81 L 88.14 164.57 L 88.29 163.38 L 88.42 162.71 L 88.67 161.78 L 89.02 160.85 L 89.21 160.41 L 89.54 159.73 L 89.71 159.43 L 89.14 158.30 L 88.68 157.11 L 88.40 156.05 L 88.13 153.94 L 88.20 152.15 L 88.47 150.62 L 88.96 149.10 L 89.71 147.54 L 89.14 146.42 L 88.62 145.03 L 88.28 143.53 L 88.14 142.23 L 88.22 140.08 L 88.61 138.21 L 89.29 136.47 L 89.71 135.67 L 88.87 133.88 L 88.23 131.37 L 88.14 128.99 L 88.61 126.35 L 89.71 123.79 L 89.34 123.10 L 88.99 122.31 L 88.52 120.88 L 88.27 119.73 L 88.13 118.37 L 88.15 117.02 L 88.27 115.94 L 88.62 114.42 L 89.01 113.33 L 89.46 112.37 L 89.71 111.91 L 88.86 110.08 L 88.33 108.22 L 88.15 106.81 L 88.19 104.63 L 88.57 102.73 L 89.05 101.36 L 89.71 100.03 L 89.92 100.35 L 90.43 101.12 L 91.13 101.99 L 92.05 102.91 L 93.17 103.81 L 94.75 104.70 L 95.69 105.16 L 96.91 105.55 L 98.55 105.88 L 100.00 105.97 L 99.95 100.10 L 100.00 94.09 L 101.10 94.14 L 102.44 94.34 L 103.44 94.59 L 104.69 95.05 L 105.80 95.60 L 106.73 96.18 L 107.69 96.91 L 108.40 97.57 L 109.39 98.69 L 110.53 100.47 L 111.36 102.50 L 111.78 104.42 L 111.87 106.53 L 111.52 108.88 L 110.70 111.12 L 109.40 113.23 L 107.71 115.00 L 105.91 116.28 L 103.89 117.19 L 102.00 117.68 L 100.00 117.85 L 100.00 129.73 L 98.27 129.86 L 96.85 130.16 L 95.52 130.61 L 94.10 131.30 L 92.92 132.07 L 91.73 133.08 L 90.70 134.21 L 89.95 135.27 L 89.21 136.63 L 88.27 139.72 L 88.12 141.99 L 88.67 145.20 L 89.37 146.92 L 90.26 148.41 L 91.80 150.20 L 93.43 151.50 L 95.13 152.44 L 96.89 153.07 L 98.45 153.38 L 100.00 153.49 L 100.00 141.61 L 100.80 141.64 L 101.82 141.75 L 103.46 142.12 L 104.78 142.61 L 105.91 143.18 L 107.20 144.04 L 108.40 145.09 L 109.19 145.95 L 110.03 147.11 L 110.84 148.62 L 111.49 150.46 L 111.88 153.49 L 111.58 156.16 L 110.74 158.58 L 109.42 160.72 L 106.96 163.11 L 104.76 164.37 L 102.44 165.11 L 100.00 165.37 L 100.00 177.25 L 99.92 181.47 L 99.93 181.68 L 96.23 181.34 L 92.96 180.19 L 90.60 178.80 L 88.83 177.37 L 87.03 175.41 L 85.69 173.39 L 84.50 170.74 L 83.75 167.64 L 83.63 164.26 L 84.03 161.63 L 84.52 159.95 L 84.74 159.43 L 84.45 158.71 L 83.67 155.03 L 83.64 152.30 L 84.15 149.26 L 84.75 147.48 L 84.26 146.23 L 83.72 143.61 L 83.61 140.84 L 84.03 137.85 L 84.73 135.66 L 84.59 135.34 L 83.90 132.87 L 83.60 129.75 L 83.80 127.14 L 84.52 124.32 L 84.74 123.79 L 84.58 123.45 L 83.95 121.23 L 83.65 119.15 L 83.67 116.30 L 84.15 113.61 L 84.76 111.98 L 84.58 111.55 L 83.92 109.19 L 83.61 106.54 L 83.68 104.38 L 84.02 102.29 L 84.60 100.33 L 84.73 100.04 L 84.71 100.00 L 84.25 98.62 L 84.03 97.73 L 81.98 96.63 L 80.29 95.09 L 79.01 93.30 L 78.53 92.24 L 76.77 91.75 L 76.26 91.54 L 76.18 91.57 L 74.62 92.08 L 73.21 92.41 L 70.90 92.65 L 69.56 92.65 L 66.93 92.32 L 65.31 91.88 L 64.38 91.54 L 62.02 92.27 L 59.40 92.64 L 57.70 92.65 L 55.28 92.36 L 53.52 91.91 L 51.45 91.11 L 48.66 89.46 L 46.06 87.05 L 44.12 84.33 L 42.58 80.56 L 42.03 77.00 L 42.16 74.05 L 43.34 69.79 L 44.91 66.95 L 46.87 64.63 L 48.44 63.25 L 50.60 61.85 L 52.50 60.97 L 55.06 60.21 L 57.36 59.90 L 59.78 59.92 L 62.35 60.34 L 64.24 60.94 L 64.36 60.99 L 65.87 60.48 L 67.45 60.12 L 69.18 59.91 L 71.23 59.90 L 73.61 60.21 L 75.18 60.61 L 76.25 60.99 L 76.49 60.89 L 77.66 60.50 L 78.48 60.31 L 79.32 58.71 L 81.17 56.56 L 82.61 55.50 L 84.04 54.76 L 84.18 54.15 L 84.57 52.89 L 84.73 52.52 L 84.34 51.42 L 83.87 49.54 L 83.64 47.65 L 83.64 45.38 L 84.08 42.65 L 84.54 41.08 L 84.75 40.61 L 84.41 39.78 L 83.75 36.91 L 83.60 34.66 L 83.81 32.04 L 84.46 29.46 L 85.29 27.42 L 86.52 25.35 L 88.47 23.02 L 89.87 21.79 L 91.70 20.55 L 93.12 19.80 L 95.40 18.95 L 96.86 18.59 L 98.48 18.37 L 99.30 18.31 L 100.05 18.29 L 101.84 18.39 L 104.02 18.78 L 105.78 19.34 L 106.80 19.76 L 108.01 20.38 L 109.62 21.40 L 111.02 22.54 L 112.73 24.34 L 113.95 26.06 L 115.11 28.32 L 115.83 30.40 L 116.29 32.78 L 116.39 35.23 L 116.19 37.31 L 115.64 39.63 L 115.27 40.62 L 115.89 42.50 L 116.32 44.93 L 116.40 46.61 L 116.23 48.90 L 115.88 50.62 L 115.46 52.04 L 115.27 52.51 L 115.53 53.21 L 115.97 54.80 L 117.24 55.40 L 118.84 56.57 L 120.07 57.88 L 120.85 59.01 L 121.42 60.08 L 121.50 60.30 L 122.36 60.51 L 123.62 60.93 L 123.76 60.99 L 123.92 60.92 L 125.39 60.44 L 127.66 59.99 L 129.70 59.86 L 131.81 60.00 L 133.57 60.33 L 135.19 60.81 L 135.69 61.02 L 137.02 60.51 L 139.35 60.02 L 141.58 59.87 L 143.90 60.03 L 146.88 60.75 L 148.73 61.51 L 151.13 62.93 L 152.54 64.07 L 154.14 65.73 L 155.47 67.56 L 156.37 69.19 L 157.24 71.40 L 157.91 74.72 L 157.94 77.46 L 157.35 80.79 L 156.47 83.13 L 155.35 85.17 L 153.71 87.31 L 151.10 89.64 L 148.02 91.36 L 145.00 92.31 L 142.21 92.66 L 139.68 92.56 L 136.84 91.97 L 135.73 91.59 L 135.63 91.54 L 134.87 91.83 L 133.37 92.25 L 131.86 92.52 L 130.67 92.63 L 127.91 92.57 L 125.77 92.19 L 124.20 91.71 L 123.77 91.54 L 122.40 92.01 L 121.48 92.25 L 120.94 93.39 L 119.65 95.16 L 118.16 96.51 L 116.84 97.36 L 115.97 97.75 L 115.65 98.96 L 115.27 100.04 L 115.93 102.06 L 116.34 104.55 L 116.38 106.76 L 116.13 108.90 L 115.61 110.99 L 115.27 111.90 L 115.35 112.08 L 116.00 114.24 L 116.38 117.00 L 116.26 119.99 L 115.90 121.87 L 115.38 123.53 L 115.27 123.79 L 115.40 124.09 L 115.96 125.95 L 116.28 127.80 L 116.40 129.73 L 116.29 131.62 L 115.91 133.66 L 115.42 135.31 L 115.26 135.66 L 115.40 135.97 L 116.03 138.12 L 116.39 140.81 L 116.23 144.01 L 115.67 146.43 L 115.24 147.52 L 115.52 148.19 L 116.21 150.98 L 116.39 154.04 L 116.11 156.56 L 115.47 158.91 L 115.26 159.42 L 115.48 159.95 L 116.08 162.14 L 116.35 164.07 L 116.34 166.88 L 115.85 169.61 L 114.85 172.33 L 113.57 174.57 L 111.90 176.65 L 109.94 178.41 L 107.02 180.19 L 105.00 180.99 L 102.71 181.55 L 99.98 181.68 L 99.98 181.47 L 100.04 180.38 L 100.02 178.83 L 100.08 177.58 L 100.06 177.08 L 100.00 171.42 L 99.90 171.41 L 99.90 171.41 L 99.88 171.28 L 99.88 171.28 L 100.02 171.14 L 100.02 171.14 L 100.28 171.18 L 100.28 171.18 L 100.46 171.45 L 100.46 171.45 L 100.47 171.56 L 100.36 171.84 L 100.36 171.84 L 100.28 171.93 L 100.18 172.00 L 99.95 172.07 L 99.95 172.07 L 99.82 172.07 L 99.68 172.04 L 99.44 171.91 L 99.44 171.91 L 99.33 171.80 L 99.25 171.66 L 99.17 171.37 L 99.17 171.37 L 99.17 171.19 L 99.22 171.02 L 99.39 170.72 L 99.39 170.72 L 99.53 170.59 L 99.70 170.50 L 100.07 170.41 L 100.07 170.41 L 100.28 170.42 L 100.48 170.47 L 100.84 170.69 L 100.84 170.69 L 100.99 170.86 L 101.10 171.06 L 101.21 171.50 L 101.21 171.50 L 101.18 171.75 L 101.11 171.99 L 100.85 172.40 L 100.85 172.40 L 100.65 172.57 L 100.42 172.70 L 99.90 172.81 L 99.90 172.81 L 99.62 172.78 L 99.35 172.71 L 98.88 172.40 L 98.88 172.40 L 98.69 172.17 L 98.54 171.90 L 98.43 171.31 L 98.43 171.31 L 98.46 170.99 L 98.55 170.69 L 98.90 170.16 L 98.90 170.16 L 99.16 169.95 L 99.46 169.79 L 100.12 169.66 L 100.12 169.66 L 100.47 169.70 L 100.81 169.81 L 101.40 170.20 L 101.40 170.20 L 101.63 170.50 L 101.80 170.83 L 101.94 171.56 L 101.94 171.56 L 101.90 171.95 L 101.78 172.32 L 101.34 172.96 L 101.34 172.96 L 101.02 173.22 L 100.65 173.40 L 99.85 173.55 L 99.85 173.55 L 99.64 173.54 L 99.42 173.50 L 99.02 173.37 L 98.32 172.88 L 98.32 172.88 L 98.17 172.72 L 98.05 172.53 L 97.93 172.34 L 97.84 172.14 L 97.72 171.70 L 97.69 171.26 L 97.69 171.26 L 97.70 171.03 L 97.74 170.80 L 97.80 170.58 L 97.89 170.36 L 97.99 170.15 L 98.12 169.95 L 98.42 169.60 L 98.42 169.60 L 98.60 169.44 L 98.80 169.31 L 99.01 169.18 L 99.23 169.09 L 99.46 169.01 L 99.69 168.96 L 100.18 168.92 L 100.18 168.92 L 100.42 168.94 L 100.67 168.98 L 100.91 169.05 L 101.15 169.15 L 101.37 169.26 L 101.58 169.39 L 101.96 169.71 L 101.96 169.71 L 102.13 169.92 L 102.28 170.13 L 102.40 170.35 L 102.51 170.59 L 102.59 170.84 L 102.64 171.09 L 102.68 171.61 L 102.68 171.61 L 102.67 171.88 L 102.62 172.14 L 102.54 172.40 L 102.45 172.65 L 102.32 172.89 L 102.18 173.12 L 101.83 173.53 L 101.83 173.53 L 101.62 173.70 L 101.39 173.86 L 101.14 174.00 L 100.89 174.11 L 100.63 174.19 L 100.35 174.25 L 99.80 174.29 L 99.80 174.29 L 99.51 174.27 L 99.23 174.22 L 98.96 174.13 L 98.69 174.03 L 98.43 173.90 L 98.19 173.74 L 97.76 173.37 L 97.76 173.37 L 97.57 173.15 L 97.40 172.90 L 97.26 172.64 L 97.14 172.37 L 97.05 172.08 L 96.99 171.80 L 96.94 171.21 L 96.94 171.21 L 96.97 170.91 L 97.02 170.61 L 97.11 170.31 L 97.22 170.03 L 97.37 169.75 L 97.53 169.50 L 97.93 169.04 L 97.93 169.04 L 98.17 168.83 L 98.42 168.66 L 98.70 168.51 L 98.99 168.38 L 99.29 168.29 L 99.60 168.22 L 100.22 168.18 L 100.22 168.18 L 100.54 168.21 L 100.86 168.27 L 101.17 168.36 L 101.48 168.48 L 101.76 168.63 L 102.03 168.80 L 102.52 169.23 L 102.52 169.23 L 102.74 169.48 L 102.92 169.76 L 103.08 170.05 L 103.21 170.35 L 103.31 170.67 L 103.38 171.00 L 103.42 171.66 L 103.42 171.66 L 103.40 172.00 L 103.33 172.34 L 103.23 172.67 L 103.11 172.98 L 102.95 173.28 L 102.76 173.57 L 102.32 174.08 L 102.32 174.08 L 102.05 174.30 L 101.76 174.51 L 101.45 174.67 L 101.13 174.81 L 100.79 174.91 L 100.45 174.99 L 99.75 175.03 L 99.75 175.03 L 99.39 175.00 L 99.04 174.94 L 98.69 174.83 L 98.36 174.69 L 98.04 174.53 L 97.74 174.33 L 97.20 173.85 L 97.20 173.85 L 96.96 173.58 L 96.76 173.27 L 96.58 172.95 L 96.44 172.61 L 96.32 172.26 L 96.25 171.89 L 96.20 171.16 L 96.20 171.16 L 96.23 170.78 L 96.31 170.41 L 96.41 170.05 L 96.56 169.70 L 96.73 169.36 L 96.94 169.04 L 97.44 168.48 L 97.44 168.48 L 97.74 168.24 L 98.06 168.01 L 98.40 167.83 L 98.76 167.69 L 99.13 167.57 L 99.50 167.49 L 100.27 167.44 L 100.27 167.44 L 100.67 167.48 L 101.06 167.55 L 101.44 167.66 L 101.81 167.82 L 102.15 168.00 L 102.49 168.22 L 103.08 168.75 L 103.08 168.75 L 103.34 169.05 L 103.57 169.39 L 103.76 169.75 L 103.91 170.12 L 104.03 170.51 L 104.12 170.90 L 104.17 171.71 L 104.17 171.71 L 104.13 172.13 L 104.05 172.53 L 103.93 172.93 L 103.77 173.31 L 103.58 173.68 L 103.35 174.02 L 102.80 174.64 L 102.80 174.64 L 102.48 174.91 L 102.12 175.15 L 101.75 175.35 L 101.36 175.52 L 100.96 175.64 L 100.54 175.72 L 99.69 175.77 L 99.69 175.77 L 99.27 175.73 L 98.84 175.65 L 98.43 175.52 L 98.03 175.36 L 97.64 175.16 L 97.28 174.92 L 96.64 174.35 L 96.64 174.35 L 96.36 174.01 L 96.11 173.63 L 95.91 173.25 L 95.73 172.84 L 95.60 172.42 L 95.51 171.99 L 95.46 171.11 L 95.46 171.11 L 95.50 170.66 L 95.60 170.22 L 95.72 169.78 L 95.89 169.37 L 96.10 168.97 L 96.35 168.59 L 96.95 167.92 L 96.95 167.92 L 97.30 167.63 L 97.69 167.37 L 98.10 167.16 L 98.52 166.98 L 98.96 166.84 L 99.41 166.75 L 100.33 166.70 L 100.33 166.70 L 100.79 166.75 L 101.25 166.84 L 101.70 166.97 L 102.13 167.15 L 102.55 167.37 L 102.94 167.63 L 103.64 168.26 L 103.64 168.26 L 103.95 168.62 L 104.21 169.02 L 104.43 169.44 L 104.62 169.89 L 104.76 170.35 L 104.86 170.81 L 104.91 171.76 L 104.91 171.76 L 104.86 172.25 L 104.77 172.73 L 104.62 173.19 L 104.44 173.64 L 104.21 174.07 L 103.94 174.48 L 103.29 175.20 L 103.29 175.20 L 102.91 175.52 L 102.49 175.79 L 102.06 176.02 L 101.60 176.21 L 101.12 176.36 L 100.63 176.46 L 99.64 176.52 L 99.64 176.52 L 99.14 176.47 L 98.65 176.36 L 98.17 176.22 L 97.70 176.02 L 97.25 175.78 L 96.83 175.51 L 96.08 174.83 L 96.08 174.83 L 95.75 174.43 L 95.47 174.00 L 95.22 173.56 L 95.03 173.07 L 94.88 172.58 L 94.78 172.08 L 94.72 171.06 L 94.72 171.06 L 94.77 170.54 L 94.88 170.02 L 95.03 169.52 L 95.23 169.04 L 95.48 168.58 L 95.77 168.13 L 96.46 167.36 L 96.46 167.36 L 96.88 167.02 L 97.32 166.73 L 97.79 166.48 L 98.29 166.27 L 98.79 166.12 L 99.32 166.01 L 100.38 165.96 L 100.38 165.96 L 100.91 166.01 L 101.45 166.12 L 101.97 166.28 L 102.47 166.49 L 102.94 166.74 L 103.40 167.04 L 104.20 167.77 L 104.20 167.77 L 104.55 168.19 L 104.85 168.65 L 105.11 169.14 L 105.32 169.65 L 105.48 170.18 L 105.59 170.72 L 105.65 171.81 L 105.65 171.81 L 105.59 172.37 L 105.48 172.92 L 105.32 173.45 L 105.10 173.97 L 104.84 174.46 L 104.52 174.93 L 103.77 175.77 L 103.77 175.77 L 103.33 176.12 L 102.86 176.44 L 102.36 176.71 L 101.84 176.92 L 101.29 177.08 L 100.73 177.20 L 99.60 177.25 L 99.60 177.25 L 99.02 177.20 L 98.45 177.08 L 97.89 176.90 L 97.36 176.67 L 96.85 176.40 L 96.37 176.08 L 95.92 175.72 L 95.52 175.32 L 94.95 174.55 L 94.47 173.58 L 94.15 172.45 L 94.07 171.09 L 94.28 169.82 L 94.68 168.79 L 95.23 167.87 L 96.00 167.03 L 97.14 166.21 L 98.39 165.71 L 100.00 165.48 L 101.29 165.62 L 102.47 166.01 L 103.61 166.70 L 104.35 167.38 L 105.09 168.36 L 105.69 169.73 L 105.93 171.04 L 105.89 172.20 L 105.63 173.31 L 105.15 174.38 L 104.58 175.21 L 103.99 175.82 L 103.51 176.21 L 103.06 176.51 L 102.49 176.81 L 101.60 177.14 L 100.67 177.23 L 100.38 177.26 L 100.05 177.26 L 99.03 177.20 L 98.28 177.12 L 97.49 176.98 L 96.47 176.72 L 95.75 176.46 L 95.05 176.17 L 94.16 175.72 L 93.32 175.19 L 92.26 174.38 L 91.29 173.45 L 90.02 171.81 L 89.16 170.21 L 88.48 168.28 L 88.16 166.37 L 88.21 163.92 L 88.62 161.94 L 89.30 160.19 L 90.40 158.37 L 91.90 156.67 L 93.82 155.22 L 95.56 154.35 L 97.45 153.77 L 98.76 153.55 L 100.00 153.49 L 100.00 147.55 L 99.91 147.54 L 99.91 147.54 L 99.88 147.40 L 99.88 147.40 L 100.02 147.27 L 100.02 147.27 L 100.28 147.30 L 100.28 147.30 L 100.46 147.58 L 100.46 147.58 L 100.47 147.68 L 100.36 147.97 L 100.36 147.97 L 100.28 148.05 L 100.18 148.12 L 99.95 148.19 L 99.95 148.19 L 99.81 148.19 L 99.68 148.17 L 99.44 148.04 L 99.44 148.04 L 99.33 147.92 L 99.25 147.79 L 99.17 147.49 L 99.17 147.49 L 99.17 147.31 L 99.22 147.14 L 99.39 146.85 L 99.39 146.85 L 99.53 146.72 L 99.70 146.62 L 100.07 146.53 L 100.07 146.53 L 100.28 146.54 L 100.48 146.60 L 100.84 146.82 L 100.84 146.82 L 100.99 146.99 L 101.10 147.18 L 101.20 147.63 L 101.20 147.63 L 101.19 147.87 L 101.11 148.11 L 100.85 148.53 L 100.85 148.53 L 100.65 148.69 L 100.42 148.82 L 99.91 148.93 L 99.91 148.93 L 99.62 148.91 L 99.35 148.83 L 98.88 148.52 L 98.88 148.52 L 98.69 148.29 L 98.55 148.03 L 98.43 147.44 L 98.43 147.44 L 98.46 147.12 L 98.55 146.81 L 98.90 146.28 L 98.90 146.28 L 99.16 146.07 L 99.46 145.91 L 100.12 145.79 L 100.12 145.79 L 100.47 145.83 L 100.81 145.93 L 101.40 146.33 L 101.40 146.33 L 101.64 146.62 L 101.81 146.95 L 101.94 147.68 L 101.94 147.68 L 101.90 148.07 L 101.78 148.44 L 101.34 149.09 L 101.34 149.09 L 101.02 149.35 L 100.65 149.53 L 99.85 149.68 L 99.85 149.68 L 99.64 149.66 L 99.43 149.62 L 99.02 149.49 L 98.32 149.01 L 98.32 149.01 L 98.17 148.84 L 98.05 148.66 L 97.93 148.47 L 97.84 148.26 L 97.72 147.83 L 97.68 147.38 L 97.68 147.38 L 97.70 147.16 L 97.74 146.93 L 97.80 146.70 L 97.89 146.48 L 97.99 146.28 L 98.11 146.08 L 98.42 145.73 L 98.42 145.73 L 98.60 145.57 L 98.79 145.43 L 99.01 145.31 L 99.22 145.22 L 99.46 145.14 L 99.69 145.09 L 100.17 145.04 L 100.17 145.04 L 100.42 145.07 L 100.67 145.11 L 100.91 145.18 L 101.14 145.26 L 101.37 145.38 L 101.58 145.51 L 101.96 145.84 L 101.96 145.84 L 102.13 146.04 L 102.28 146.25 L 102.40 146.48 L 102.51 146.71 L 102.59 146.96 L 102.65 147.22 L 102.68 147.73 L 102.68 147.73 L 102.67 148.00 L 102.62 148.27 L 102.54 148.52 L 102.44 148.77 L 102.32 149.01 L 102.18 149.24 L 101.83 149.65 L 101.83 149.65 L 101.62 149.82 L 101.39 149.98 L 101.15 150.12 L 100.89 150.23 L 100.63 150.32 L 100.35 150.38 L 99.80 150.42 L 99.80 150.42 L 99.51 150.40 L 99.23 150.34 L 98.96 150.26 L 98.69 150.16 L 98.43 150.02 L 98.19 149.87 L 97.76 149.49 L 97.76 149.49 L 97.57 149.27 L 97.40 149.03 L 97.25 148.77 L 97.14 148.50 L 97.05 148.21 L 96.98 147.92 L 96.95 147.33 L 96.95 147.33 L 96.97 147.04 L 97.03 146.73 L 97.11 146.44 L 97.22 146.16 L 97.36 145.88 L 97.53 145.63 L 97.93 145.17 L 97.93 145.17 L 98.17 144.96 L 98.43 144.78 L 98.70 144.64 L 98.99 144.51 L 99.29 144.42 L 99.60 144.35 L 100.22 144.31 L 100.22 144.31 L 100.55 144.33 L 100.86 144.40 L 101.17 144.48 L 101.48 144.61 L 101.76 144.75 L 102.03 144.93 L 102.52 145.35 L 102.52 145.35 L 102.73 145.61 L 102.92 145.88 L 103.08 146.18 L 103.21 146.48 L 103.31 146.80 L 103.38 147.12 L 103.43 147.78 L 103.43 147.78 L 103.40 148.13 L 103.33 148.46 L 103.24 148.79 L 103.11 149.10 L 102.95 149.41 L 102.76 149.69 L 102.31 150.21 L 102.31 150.21 L 102.05 150.43 L 101.76 150.63 L 101.45 150.79 L 101.12 150.94 L 100.79 151.04 L 100.45 151.12 L 99.75 151.16 L 99.75 151.16 L 99.39 151.13 L 99.04 151.06 L 98.69 150.96 L 98.36 150.82 L 98.04 150.66 L 97.74 150.46 L 97.20 149.98 L 97.20 149.98 L 96.96 149.70 L 96.76 149.39 L 96.58 149.08 L 96.43 148.73 L 96.32 148.38 L 96.25 148.02 L 96.20 147.29 L 96.20 147.29 L 96.24 146.91 L 96.31 146.54 L 96.42 146.18 L 96.56 145.83 L 96.74 145.49 L 96.94 145.18 L 97.44 144.60 L 97.44 144.60 L 97.74 144.36 L 98.06 144.14 L 98.40 143.96 L 98.76 143.81 L 99.12 143.70 L 99.51 143.61 L 100.28 143.57 L 100.28 143.57 L 100.67 143.60 L 101.06 143.68 L 101.44 143.79 L 101.81 143.94 L 102.16 144.13 L 102.49 144.35 L 103.08 144.87 L 103.08 144.87 L 103.34 145.17 L 103.56 145.52 L 103.76 145.87 L 103.92 146.25 L 104.03 146.63 L 104.12 147.02 L 104.17 147.83 L 104.17 147.83 L 104.13 148.25 L 104.05 148.66 L 103.93 149.05 L 103.77 149.44 L 103.58 149.80 L 103.35 150.15 L 102.80 150.76 L 102.80 150.76 L 102.48 151.04 L 102.13 151.27 L 101.75 151.48 L 101.36 151.64 L 100.96 151.76 L 100.54 151.85 L 99.70 151.90 L 99.70 151.90 L 99.27 151.86 L 98.84 151.77 L 98.43 151.65 L 98.03 151.49 L 97.64 151.28 L 97.28 151.05 L 96.64 150.47 L 96.64 150.47 L 96.36 150.13 L 96.11 149.76 L 95.91 149.38 L 95.73 148.96 L 95.60 148.55 L 95.51 148.11 L 95.46 147.23 L 95.46 147.23 L 95.51 146.78 L 95.59 146.34 L 95.73 145.91 L 95.90 145.49 L 96.11 145.09 L 96.35 144.72 L 96.95 144.05 L 96.95 144.05 L 97.31 143.76 L 97.69 143.50 L 98.10 143.28 L 98.52 143.10 L 98.96 142.97 L 99.41 142.88 L 100.33 142.82 L 100.33 142.82 L 100.80 142.87 L 101.25 142.97 L 101.70 143.09 L 102.14 143.27 L 102.55 143.49 L 102.94 143.76 L 103.64 144.38 L 103.64 144.38 L 103.94 144.75 L 104.21 145.15 L 104.43 145.57 L 104.62 146.01 L 104.76 146.47 L 104.85 146.94 L 104.90 147.89 L 104.90 147.89 L 104.86 148.37 L 104.77 148.85 L 104.62 149.32 L 104.43 149.77 L 104.20 150.20 L 103.94 150.61 L 103.29 151.33 L 103.29 151.33 L 102.91 151.64 L 102.49 151.92 L 102.05 152.15 L 101.59 152.34 L 101.12 152.49 L 100.63 152.58 L 99.65 152.64 L 99.65 152.64 L 99.14 152.59 L 98.65 152.49 L 98.17 152.34 L 97.70 152.15 L 97.25 151.91 L 96.83 151.63 L 96.08 150.96 L 96.08 150.96 L 95.75 150.56 L 95.47 150.13 L 95.22 149.68 L 95.03 149.20 L 94.88 148.71 L 94.78 148.21 L 94.72 147.18 L 94.72 147.18 L 94.77 146.66 L 94.88 146.15 L 95.03 145.65 L 95.23 145.16 L 95.48 144.70 L 95.77 144.27 L 96.47 143.49 L 96.47 143.49 L 96.88 143.15 L 97.32 142.86 L 97.79 142.60 L 98.28 142.40 L 98.79 142.25 L 99.32 142.14 L 100.38 142.08 L 100.38 142.08 L 100.92 142.14 L 101.45 142.25 L 101.97 142.41 L 102.47 142.62 L 102.94 142.87 L 103.40 143.17 L 104.20 143.89 L 104.20 143.89 L 104.55 144.32 L 104.85 144.77 L 105.11 145.26 L 105.32 145.77 L 105.48 146.31 L 105.59 146.85 L 105.65 147.94 L 105.65 147.94 L 105.59 148.49 L 105.48 149.04 L 105.31 149.58 L 105.10 150.10 L 104.83 150.59 L 104.52 151.06 L 103.78 151.89 L 103.78 151.89 L 103.34 152.25 L 102.87 152.56 L 102.36 152.83 L 101.83 153.05 L 101.29 153.21 L 100.73 153.33 L 99.59 153.38 L 99.59 153.38 L 99.02 153.32 L 98.45 153.20 L 97.89 153.02 L 97.36 152.80 L 96.84 152.53 L 96.36 152.21 L 95.92 151.84 L 95.52 151.45 L 94.95 150.67 L 94.47 149.71 L 94.15 148.57 L 94.07 147.21 L 94.28 145.95 L 94.67 144.92 L 95.24 144.00 L 96.00 143.15 L 97.14 142.35 L 98.39 141.83 L 100.00 141.61 L 101.29 141.75 L 102.47 142.15 L 103.61 142.83 L 104.35 143.51 L 105.09 144.49 L 105.69 145.85 L 105.92 147.17 L 105.89 148.33 L 105.63 149.44 L 105.15 150.51 L 104.58 151.33 L 103.99 151.95 L 103.50 152.34 L 103.05 152.64 L 102.50 152.93 L 101.60 153.26 L 100.87 153.43 L 99.93 153.49 L 99.16 153.43 L 98.27 153.23 L 97.32 152.84 L 96.61 152.42 L 96.09 151.99 L 95.57 151.51 L 95.20 151.05 L 94.71 150.25 L 94.39 149.50 L 94.08 148.05 L 94.17 146.58 L 94.47 145.43 L 94.95 144.46 L 95.62 143.57 L 96.57 142.75 L 97.53 142.15 L 98.75 141.74 L 100.00 141.61 L 100.95 141.57 L 102.83 141.27 L 104.79 140.60 L 107.10 139.25 L 108.60 137.93 L 109.96 136.20 L 111.18 133.73 L 111.83 130.80 L 111.59 127.10 L 110.85 124.88 L 109.62 122.76 L 107.47 120.50 L 105.07 118.98 L 103.43 118.36 L 101.46 117.94 L 100.00 117.85 L 100.00 123.79 L 99.91 123.78 L 99.91 123.78 L 99.88 123.64 L 99.88 123.64 L 100.02 123.51 L 100.02 123.51 L 100.28 123.54 L 100.28 123.54 L 100.46 123.82 L 100.46 123.82 L 100.47 123.92 L 100.36 124.21 L 100.36 124.21 L 100.28 124.30 L 100.18 124.36 L 99.96 124.43 L 99.96 124.43 L 99.82 124.43 L 99.68 124.41 L 99.44 124.28 L 99.44 124.28 L 99.33 124.16 L 99.25 124.03 L 99.17 123.73 L 99.17 123.73 L 99.17 123.56 L 99.21 123.39 L 99.39 123.09 L 99.39 123.09 L 99.53 122.95 L 99.70 122.86 L 100.07 122.77 L 100.07 122.77 L 100.28 122.78 L 100.48 122.84 L 100.84 123.05 L 100.84 123.05 L 100.99 123.23 L 101.10 123.43 L 101.20 123.87 L 101.20 123.87 L 101.18 124.12 L 101.12 124.36 L 100.85 124.77 L 100.85 124.77 L 100.65 124.94 L 100.42 125.06 L 99.90 125.17 L 99.90 125.17 L 99.62 125.15 L 99.35 125.07 L 98.88 124.76 L 98.88 124.76 L 98.69 124.53 L 98.55 124.27 L 98.42 123.68 L 98.42 123.68 L 98.46 123.36 L 98.55 123.06 L 98.90 122.53 L 98.90 122.53 L 99.16 122.31 L 99.46 122.16 L 100.12 122.03 L 100.12 122.03 L 100.47 122.06 L 100.81 122.17 L 101.40 122.56 L 101.40 122.56 L 101.63 122.86 L 101.80 123.19 L 101.94 123.92 L 101.94 123.92 L 101.90 124.31 L 101.78 124.69 L 101.34 125.33 L 101.34 125.33 L 101.02 125.58 L 100.65 125.77 L 99.85 125.92 L 99.85 125.92 L 99.64 125.90 L 99.43 125.87 L 99.02 125.73 L 98.32 125.25 L 98.32 125.25 L 98.17 125.08 L 98.04 124.90 L 97.93 124.71 L 97.84 124.50 L 97.72 124.07 L 97.69 123.63 L 97.69 123.63 L 97.70 123.40 L 97.74 123.16 L 97.80 122.94 L 97.89 122.73 L 97.99 122.52 L 98.12 122.32 L 98.41 121.97 L 98.41 121.97 L 98.60 121.81 L 98.79 121.67 L 99.00 121.55 L 99.23 121.45 L 99.46 121.38 L 99.69 121.33 L 100.17 121.28 L 100.17 121.28 L 100.42 121.31 L 100.67 121.35 L 100.91 121.42 L 101.14 121.51 L 101.37 121.62 L 101.58 121.76 L 101.96 122.08 L 101.96 122.08 L 102.13 122.28 L 102.28 122.49 L 102.40 122.72 L 102.51 122.96 L 102.59 123.20 L 102.65 123.46 L 102.68 123.97 L 102.68 123.97 L 102.66 124.24 L 102.62 124.50 L 102.54 124.76 L 102.44 125.02 L 102.32 125.26 L 102.18 125.49 L 101.83 125.89 L 101.83 125.89 L 101.61 126.07 L 101.39 126.23 L 101.14 126.36 L 100.89 126.47 L 100.63 126.56 L 100.35 126.62 L 99.80 126.66 L 99.80 126.66 L 99.51 126.64 L 99.23 126.58 L 98.96 126.50 L 98.69 126.40 L 98.43 126.27 L 98.19 126.11 L 97.76 125.73 L 97.76 125.73 L 97.57 125.51 L 97.40 125.26 L 97.26 125.01 L 97.14 124.74 L 97.05 124.46 L 96.98 124.17 L 96.94 123.57 L 96.94 123.57 L 96.97 123.28 L 97.02 122.97 L 97.11 122.68 L 97.22 122.39 L 97.36 122.12 L 97.53 121.87 L 97.93 121.41 L 97.93 121.41 L 98.17 121.21 L 98.43 121.03 L 98.70 120.88 L 98.99 120.75 L 99.29 120.65 L 99.60 120.59 L 100.23 120.55 L 100.23 120.55 L 100.55 120.58 L 100.86 120.64 L 101.17 120.72 L 101.48 120.85 L 101.76 121.00 L 102.03 121.17 L 102.52 121.60 L 102.52 121.60 L 102.73 121.84 L 102.92 122.12 L 103.08 122.42 L 103.21 122.72 L 103.31 123.04 L 103.38 123.36 L 103.42 124.02 L 103.42 124.02 L 103.39 124.36 L 103.33 124.70 L 103.24 125.03 L 103.11 125.34 L 102.95 125.65 L 102.76 125.94 L 102.31 126.45 L 102.31 126.45 L 102.05 126.67 L 101.76 126.87 L 101.45 127.03 L 101.12 127.17 L 100.79 127.28 L 100.45 127.36 L 99.75 127.39 L 99.75 127.39 L 99.39 127.36 L 99.04 127.30 L 98.69 127.19 L 98.36 127.06 L 98.04 126.89 L 97.74 126.70 L 97.20 126.22 L 97.20 126.22 L 96.96 125.94 L 96.76 125.63 L 96.58 125.31 L 96.44 124.97 L 96.33 124.62 L 96.25 124.25 L 96.20 123.53 L 96.20 123.53 L 96.24 123.15 L 96.31 122.78 L 96.42 122.41 L 96.56 122.06 L 96.74 121.73 L 96.94 121.41 L 97.44 120.85 L 97.44 120.85 L 97.74 120.60 L 98.06 120.38 L 98.40 120.20 L 98.76 120.05 L 99.13 119.93 L 99.50 119.86 L 100.28 119.81 L 100.28 119.81 L 100.67 119.84 L 101.06 119.92 L 101.44 120.03 L 101.81 120.18 L 102.16 120.36 L 102.49 120.59 L 103.08 121.11 L 103.08 121.11 L 103.34 121.42 L 103.57 121.75 L 103.76 122.11 L 103.91 122.49 L 104.03 122.88 L 104.12 123.27 L 104.17 124.08 L 104.17 124.08 L 104.13 124.49 L 104.05 124.89 L 103.93 125.29 L 103.77 125.67 L 103.58 126.04 L 103.35 126.39 L 102.80 127.01 L 102.80 127.01 L 102.48 127.27 L 102.12 127.51 L 101.75 127.71 L 101.36 127.88 L 100.95 128.00 L 100.54 128.09 L 99.70 128.14 L 99.70 128.14 L 99.27 128.10 L 98.84 128.01 L 98.43 127.89 L 98.03 127.72 L 97.65 127.52 L 97.28 127.29 L 96.64 126.71 L 96.64 126.71 L 96.36 126.37 L 96.11 126.01 L 95.90 125.61 L 95.73 125.21 L 95.60 124.79 L 95.51 124.35 L 95.46 123.47 L 95.46 123.47 L 95.51 123.02 L 95.59 122.58 L 95.72 122.15 L 95.90 121.73 L 96.11 121.34 L 96.35 120.96 L 96.95 120.28 L 96.95 120.28 L 97.31 120.00 L 97.69 119.74 L 98.10 119.52 L 98.52 119.35 L 98.96 119.21 L 99.41 119.12 L 100.33 119.07 L 100.33 119.07 L 100.79 119.11 L 101.25 119.20 L 101.70 119.34 L 102.14 119.52 L 102.55 119.73 L 102.94 120.00 L 103.64 120.62 L 103.64 120.62 L 103.94 120.99 L 104.21 121.39 L 104.43 121.81 L 104.62 122.25 L 104.76 122.71 L 104.85 123.18 L 104.91 124.13 L 104.91 124.13 L 104.86 124.62 L 104.77 125.09 L 104.62 125.56 L 104.44 126.00 L 104.21 126.43 L 103.94 126.85 L 103.29 127.57 L 103.29 127.57 L 102.91 127.88 L 102.49 128.16 L 102.06 128.39 L 101.60 128.58 L 101.12 128.72 L 100.63 128.83 L 99.65 128.88 L 99.65 128.88 L 99.14 128.83 L 98.65 128.73 L 98.16 128.58 L 97.70 128.39 L 97.25 128.15 L 96.83 127.87 L 96.08 127.20 L 96.08 127.20 L 95.75 126.80 L 95.47 126.37 L 95.23 125.92 L 95.03 125.44 L 94.88 124.95 L 94.78 124.44 L 94.72 123.42 L 94.72 123.42 L 94.77 122.90 L 94.88 122.39 L 95.03 121.89 L 95.23 121.40 L 95.48 120.94 L 95.77 120.50 L 96.47 119.73 L 96.47 119.73 L 96.88 119.39 L 97.32 119.09 L 97.79 118.84 L 98.29 118.64 L 98.80 118.48 L 99.32 118.38 L 100.38 118.32 L 100.38 118.32 L 100.92 118.38 L 101.45 118.48 L 101.97 118.64 L 102.47 118.86 L 102.95 119.11 L 103.40 119.41 L 104.20 120.13 L 104.20 120.13 L 104.55 120.55 L 104.85 121.02 L 105.11 121.50 L 105.32 122.01 L 105.48 122.54 L 105.59 123.08 L 105.65 124.18 L 105.65 124.18 L 105.59 124.74 L 105.48 125.29 L 105.31 125.82 L 105.10 126.34 L 104.83 126.83 L 104.52 127.29 L 103.78 128.12 L 103.78 128.12 L 103.34 128.49 L 102.86 128.80 L 102.36 129.07 L 101.83 129.29 L 101.29 129.46 L 100.73 129.56 L 99.59 129.62 L 99.59 129.62 L 99.02 129.56 L 98.45 129.44 L 97.89 129.26 L 97.35 129.04 L 96.85 128.76 L 96.36 128.44 L 95.92 128.08 L 95.52 127.68 L 94.95 126.91 L 94.47 125.95 L 94.15 124.82 L 94.07 123.45 L 94.28 122.19 L 94.67 121.16 L 95.24 120.24 L 96.00 119.39 L 97.14 118.58 L 98.38 118.07 L 100.00 117.85 L 101.29 117.99 L 102.46 118.38 L 103.61 119.07 L 104.35 119.74 L 105.09 120.73 L 105.69 122.09 L 105.93 123.41 L 105.89 124.57 L 105.63 125.68 L 105.15 126.74 L 104.58 127.57 L 103.99 128.19 L 103.50 128.59 L 103.06 128.88 L 102.50 129.18 L 101.60 129.50 L 100.88 129.66 L 99.92 129.73 L 99.16 129.70 L 98.25 129.59 L 97.24 129.40 L 96.61 129.23 L 96.08 129.06 L 94.98 128.62 L 93.96 128.08 L 92.70 127.23 L 91.58 126.23 L 90.83 125.39 L 90.10 124.42 L 89.41 123.22 L 88.76 121.68 L 88.32 120.04 L 88.13 118.41 L 88.17 116.74 L 88.43 115.14 L 88.92 113.55 L 89.50 112.30 L 90.14 111.22 L 91.25 109.81 L 92.29 108.81 L 93.85 107.68 L 95.93 106.69 L 97.43 106.25 L 98.42 106.07 L 98.91 106.01 L 99.36 105.99 L 100.02 105.97 L 100.16 94.09 L 100.61 94.07 L 101.05 94.04 L 101.50 93.99 L 102.04 93.91 L 102.61 93.80 L 103.40 93.59 L 103.95 93.41 L 104.62 93.15 L 105.48 92.75 L 106.69 92.02 L 107.89 91.09 L 109.34 89.55 L 110.08 88.49 L 110.75 87.27 L 111.51 85.16 L 111.88 82.21 L 111.63 79.75 L 110.84 77.34 L 109.10 74.57 L 107.28 72.81 L 105.12 71.48 L 103.22 70.77 L 101.19 70.39 L 100.35 70.34 L 100.00 70.33 L 100.00 78.07 L 100.00 82.21 L 98.74 82.14 L 97.45 81.93 L 96.42 81.65 L 95.40 81.28 L 94.42 80.81 L 93.62 80.35 L 92.33 79.40 L 91.21 78.32 L 90.22 77.08 L 89.39 75.66 L 88.81 74.33 L 88.45 73.10 L 88.16 71.34 L 88.18 69.15 L 88.33 68.09 L 88.69 66.68 L 88.99 65.87 L 89.41 64.94 L 89.92 64.03 L 90.50 63.19 L 91.30 62.24 L 92.45 61.15 L 93.23 60.57 L 94.55 59.77 L 95.93 59.17 L 97.26 58.77 L 98.26 58.57 L 99.43 58.46 L 100.82 58.41 L 100.96 58.40 L 101.77 58.31 L 103.54 57.88 L 104.37 57.62 L 106.44 56.55 L 108.32 55.04 L 109.78 53.32 L 111.10 50.80 L 111.63 48.98 L 111.87 46.10 L 111.55 43.77 L 111.07 42.27 L 110.57 41.14 L 110.18 40.44 L 109.80 39.85 L 109.15 38.99 L 108.11 37.89 L 107.08 37.03 L 105.85 36.23 L 104.18 35.45 L 102.46 34.95 L 101.37 34.76 L 100.95 34.72 L 100.64 34.71 L 100.00 34.71 L 100.00 28.75 L 99.98 28.79 L 99.99 28.84 L 100.05 28.88 L 100.12 28.89 L 100.21 28.86 L 100.27 28.77 L 100.31 28.65 L 100.29 28.51 L 100.19 28.38 L 100.05 28.29 L 99.94 28.26 L 99.84 28.26 L 99.65 28.32 L 99.55 28.38 L 99.47 28.47 L 99.40 28.57 L 99.35 28.68 L 99.33 28.81 L 99.33 28.96 L 99.36 29.09 L 99.42 29.22 L 99.51 29.34 L 99.63 29.44 L 99.76 29.52 L 99.91 29.58 L 100.09 29.60 L 100.26 29.59 L 100.43 29.54 L 100.59 29.47 L 100.74 29.35 L 100.86 29.20 L 100.95 29.03 L 101.01 28.85 L 101.04 28.65 L 101.02 28.43 L 100.96 28.23 L 100.87 28.04 L 100.72 27.87 L 100.54 27.72 L 100.34 27.61 L 100.13 27.55 L 99.88 27.52 L 99.63 27.55 L 99.39 27.62 L 99.18 27.73 L 98.98 27.91 L 98.81 28.12 L 98.69 28.35 L 98.62 28.61 L 98.59 28.89 L 98.62 29.17 L 98.71 29.43 L 98.85 29.68 L 99.04 29.91 L 99.28 30.10 L 99.55 30.23 L 99.84 30.31 L 100.16 30.34 L 100.47 30.30 L 100.78 30.20 L 101.05 30.04 L 101.31 29.82 L 101.51 29.56 L 101.67 29.25 L 101.75 28.93 L 101.77 28.57 L 101.73 28.22 L 101.62 27.88 L 101.44 27.57 L 101.19 27.30 L 100.90 27.07 L 100.56 26.90 L 100.20 26.81 L 99.81 26.79 L 99.42 26.84 L 99.05 26.96 L 98.71 27.17 L 98.41 27.43 L 98.16 27.76 L 97.98 28.13 L 97.88 28.53 L 97.86 28.74 L 97.85 28.95 L 97.91 29.38 L 98.06 29.78 L 98.27 30.15 L 98.41 30.32 L 98.57 30.48 L 98.74 30.62 L 98.93 30.75 L 99.33 30.95 L 99.54 31.01 L 99.76 31.05 L 99.99 31.08 L 100.22 31.08 L 100.46 31.05 L 100.69 31.01 L 100.91 30.94 L 101.12 30.85 L 101.33 30.75 L 101.52 30.62 L 101.71 30.47 L 101.88 30.29 L 102.03 30.11 L 102.16 29.91 L 102.28 29.69 L 102.37 29.47 L 102.44 29.24 L 102.50 29.01 L 102.52 28.76 L 102.51 28.50 L 102.49 28.26 L 102.44 28.01 L 102.37 27.77 L 102.27 27.54 L 102.15 27.32 L 102.01 27.11 L 101.85 26.91 L 101.67 26.72 L 101.46 26.57 L 101.25 26.42 L 101.02 26.30 L 100.78 26.20 L 100.53 26.12 L 100.28 26.07 L 100.01 26.05 L 99.74 26.05 L 99.48 26.08 L 99.21 26.13 L 98.95 26.21 L 98.71 26.31 L 98.46 26.44 L 98.25 26.59 L 98.03 26.77 L 97.83 26.96 L 97.66 27.17 L 97.51 27.41 L 97.37 27.65 L 97.27 27.92 L 97.19 28.18 L 97.14 28.45 L 97.11 28.73 L 97.11 29.02 L 97.14 29.31 L 97.21 29.59 L 97.29 29.86 L 97.39 30.13 L 97.54 30.38 L 97.69 30.62 L 97.89 30.85 L 98.09 31.05 L 98.32 31.24 L 98.58 31.40 L 98.84 31.54 L 99.11 31.65 L 99.39 31.74 L 99.68 31.79 L 99.99 31.83 L 100.29 31.82 L 100.60 31.78 L 100.90 31.72 L 101.19 31.63 L 101.47 31.52 L 101.74 31.37 L 101.99 31.20 L 102.23 31.00 L 102.45 30.77 L 102.64 30.53 L 102.81 30.26 L 102.97 29.98 L 103.08 29.69 L 103.17 29.39 L 103.23 29.08 L 103.26 28.76 L 103.25 28.43 L 103.22 28.12 L 103.15 27.80 L 103.06 27.49 L 102.93 27.19 L 102.77 26.91 L 102.59 26.64 L 102.38 26.38 L 102.14 26.16 L 101.88 25.94 L 101.60 25.77 L 101.30 25.61 L 101.00 25.49 L 100.68 25.39 L 100.35 25.33 L 100.02 25.30 L 99.67 25.31 L 99.33 25.35 L 99.00 25.41 L 98.67 25.52 L 98.36 25.65 L 98.06 25.82 L 97.77 26.01 L 97.51 26.23 L 97.27 26.48 L 97.05 26.76 L 96.86 27.06 L 96.70 27.36 L 96.57 27.69 L 96.47 28.03 L 96.40 28.37 L 96.37 28.73 L 96.38 29.09 L 96.42 29.45 L 96.49 29.80 L 96.60 30.14 L 96.74 30.48 L 96.91 30.79 L 97.12 31.08 L 97.35 31.37 L 97.62 31.62 L 97.91 31.86 L 98.22 32.06 L 98.54 32.23 L 98.89 32.37 L 99.25 32.47 L 99.60 32.53 L 99.98 32.56 L 100.36 32.55 L 100.74 32.51 L 101.10 32.43 L 101.46 32.32 L 101.81 32.16 L 102.15 31.98 L 102.46 31.77 L 102.75 31.52 L 103.02 31.24 L 103.26 30.94 L 103.47 30.62 L 103.65 30.27 L 103.79 29.91 L 103.90 29.54 L 103.97 29.15 L 104.00 28.76 L 104.00 28.37 L 103.95 27.97 L 103.87 27.59 L 103.74 27.21 L 103.58 26.85 L 103.39 26.50 L 103.17 26.17 L 102.91 25.86 L 102.62 25.58 L 102.30 25.34 L 101.96 25.12 L 101.59 24.93 L 101.21 24.78 L 100.83 24.67 L 100.43 24.59 L 100.02 24.56 L 99.60 24.57 L 99.20 24.62 L 98.79 24.71 L 98.39 24.83 L 98.01 25.00 L 97.65 25.20 L 97.31 25.43 L 96.98 25.70 L 96.69 26.01 L 96.43 26.35 L 96.20 26.70 L 96.01 27.08 L 95.86 27.47 L 95.74 27.88 L 95.66 28.29 L 95.63 28.73 L 95.63 29.16 L 95.69 29.59 L 95.78 30.01 L 95.91 30.42 L 96.09 30.82 L 96.30 31.20 L 96.54 31.55 L 96.83 31.89 L 97.15 32.20 L 97.50 32.47 L 97.87 32.70 L 98.26 32.91 L 98.67 33.07 L 99.09 33.19 L 99.53 33.27 L 99.98 33.31 L 100.43 33.29 L 100.88 33.24 L 101.32 33.14 L 101.74 33.00 L 102.16 32.82 L 102.56 32.60 L 102.93 32.35 L 103.27 32.05 L 103.59 31.72 L 103.87 31.36 L 104.12 30.97 L 104.33 30.56 L 104.50 30.13 L 104.63 29.69 L 104.71 29.24 L 104.75 28.77 L 104.73 28.30 L 104.68 27.84 L 104.57 27.38 L 104.43 26.93 L 104.24 26.50 L 104.01 26.09 L 103.74 25.70 L 103.43 25.34 L 103.09 25.01 L 102.71 24.72 L 102.31 24.46 L 101.88 24.24 L 101.44 24.07 L 100.98 23.94 L 100.51 23.85 L 100.03 23.82 L 99.54 23.83 L 99.05 23.89 L 98.57 24.00 L 98.11 24.14 L 97.66 24.35 L 97.24 24.58 L 96.84 24.85 L 96.46 25.18 L 96.12 25.54 L 95.82 25.93 L 95.55 26.35 L 95.33 26.79 L 95.14 27.25 L 95.01 27.73 L 94.92 28.22 L 94.88 28.72 L 94.90 29.23 L 94.96 29.73 L 95.07 30.23 L 95.23 30.70 L 95.43 31.17 L 95.67 31.61 L 95.97 32.03 L 96.30 32.41 L 96.67 32.76 L 97.08 33.09 L 97.52 33.36 L 97.98 33.59 L 98.45 33.78 L 98.94 33.92 L 99.45 34.01 L 99.98 34.05 L 100.50 34.03 L 101.02 33.97 L 101.53 33.85 L 102.03 33.69 L 102.50 33.48 L 102.96 33.22 L 103.39 32.93 L 103.80 32.58 L 104.16 32.20 L 104.49 31.77 L 104.78 31.32 L 105.01 30.85 L 105.21 30.35 L 105.35 29.83 L 105.45 29.32 L 105.48 28.77 L 105.47 28.23 L 105.41 27.70 L 105.28 27.17 L 105.12 26.65 L 104.90 26.16 L 104.63 25.68 L 104.32 25.24 L 103.96 24.82 L 103.56 24.44 L 103.12 24.10 L 102.66 23.81 L 102.17 23.56 L 101.66 23.36 L 101.12 23.21 L 100.59 23.12 L 100.03 23.08 L 99.46 23.09 L 98.91 23.17 L 98.37 23.28 L 97.83 23.46 L 97.32 23.69 L 96.83 23.96 L 96.37 24.28 L 95.94 24.65 L 95.55 25.06 L 95.20 25.51 L 94.90 26.00 L 94.64 26.50 L 94.43 27.03 L 94.28 27.59 L 94.18 28.15 L 94.14 28.73 L 94.16 29.30 L 94.24 29.88 L 94.37 30.45 L 94.55 31.00 L 94.78 31.53 L 95.07 32.03 L 95.39 32.50 L 96.05 33.18 L 96.79 33.75 L 97.60 34.18 L 98.68 34.54 L 99.73 34.71 L 100.54 34.67 L 101.61 34.46 L 102.69 34.04 L 103.70 33.40 L 104.42 32.72 L 105.05 31.88 L 105.50 30.98 L 105.81 29.97 L 105.94 28.75 L 105.84 27.70 L 105.59 26.73 L 105.07 25.65 L 104.59 24.97 L 103.86 24.23 L 103.22 23.76 L 102.21 23.23 L 101.50 23.00 L 100.32 22.82 L 100.00 22.81 L 100.00 22.81 L 97.99 22.98 L 96.98 23.27 L 95.50 23.70 L 93.17 24.97 L 90.86 27.09 L 89.17 29.78 L 88.28 32.78 L 88.22 36.24 L 89.07 39.34 L 89.90 40.95 L 90.69 42.06 L 92.15 43.60 L 93.63 44.72 L 94.87 45.40 L 95.93 45.85 L 96.70 46.10 L 98.16 46.41 L 98.70 46.49 L 99.49 46.54 L 100.06 46.61 L 100.05 47.00 L 100.00 52.51 L 100.02 52.55 L 100.01 52.60 L 99.95 52.64 L 99.88 52.65 L 99.79 52.61 L 99.72 52.53 L 99.69 52.40 L 99.72 52.26 L 99.81 52.13 L 99.96 52.05 L 100.06 52.02 L 100.16 52.02 L 100.36 52.09 L 100.46 52.15 L 100.54 52.24 L 100.60 52.34 L 100.65 52.46 L 100.67 52.59 L 100.66 52.73 L 100.62 52.86 L 100.57 52.99 L 100.47 53.11 L 100.35 53.21 L 100.22 53.29 L 100.07 53.34 L 99.89 53.36 L 99.72 53.34 L 99.55 53.29 L 99.40 53.21 L 99.25 53.10 L 99.13 52.95 L 99.04 52.78 L 98.98 52.59 L 98.96 52.38 L 98.99 52.18 L 99.05 51.98 L 99.15 51.79 L 99.30 51.61 L 99.48 51.47 L 99.68 51.37 L 99.90 51.30 L 100.14 51.28 L 100.39 51.32 L 100.62 51.40 L 100.84 51.52 L 101.04 51.69 L 101.20 51.90 L 101.32 52.14 L 101.39 52.39 L 101.40 52.67 L 101.37 52.95 L 101.27 53.22 L 101.13 53.47 L 100.93 53.70 L 100.69 53.87 L 100.42 54.00 L 100.13 54.08 L 99.81 54.10 L 99.50 54.05 L 99.20 53.95 L 98.92 53.78 L 98.67 53.56 L 98.47 53.29 L 98.33 52.98 L 98.24 52.66 L 98.23 52.30 L 98.28 51.94 L 98.40 51.62 L 98.58 51.30 L 98.84 51.04 L 99.14 50.81 L 99.47 50.66 L 99.84 50.56 L 100.23 50.55 L 100.61 50.61 L 100.98 50.74 L 101.32 50.95 L 101.62 51.23 L 101.86 51.56 L 102.03 51.93 L 102.12 52.33 L 102.14 52.55 L 102.14 52.75 L 102.07 53.18 L 101.92 53.58 L 101.70 53.94 L 101.56 54.12 L 101.40 54.27 L 101.22 54.41 L 101.03 54.53 L 100.63 54.72 L 100.41 54.78 L 100.19 54.82 L 99.96 54.84 L 99.73 54.83 L 99.50 54.80 L 99.27 54.75 L 99.05 54.69 L 98.83 54.59 L 98.63 54.48 L 98.44 54.35 L 98.26 54.20 L 98.09 54.02 L 97.94 53.83 L 97.81 53.62 L 97.70 53.41 L 97.61 53.19 L 97.54 52.95 L 97.50 52.72 L 97.48 52.47 L 97.49 52.21 L 97.52 51.97 L 97.57 51.72 L 97.65 51.48 L 97.75 51.25 L 97.88 51.03 L 98.01 50.83 L 98.18 50.63 L 98.37 50.45 L 98.58 50.30 L 98.80 50.15 L 99.03 50.03 L 99.27 49.94 L 99.52 49.87 L 99.78 49.83 L 100.04 49.81 L 100.31 49.81 L 100.58 49.85 L 100.84 49.90 L 101.10 49.99 L 101.34 50.10 L 101.58 50.23 L 101.80 50.38 L 102.01 50.56 L 102.20 50.77 L 102.37 50.98 L 102.52 51.22 L 102.64 51.47 L 102.74 51.73 L 102.82 52.00 L 102.87 52.27 L 102.89 52.55 L 102.88 52.84 L 102.84 53.12 L 102.78 53.41 L 102.69 53.67 L 102.57 53.94 L 102.43 54.19 L 102.27 54.43 L 102.07 54.65 L 101.86 54.85 L 101.62 55.03 L 101.37 55.19 L 101.11 55.32 L 100.83 55.43 L 100.54 55.51 L 100.25 55.56 L 99.95 55.59 L 99.65 55.57 L 99.34 55.54 L 99.04 55.46 L 98.76 55.37 L 98.47 55.24 L 98.21 55.09 L 97.96 54.92 L 97.73 54.71 L 97.51 54.48 L 97.32 54.23 L 97.15 53.96 L 97.01 53.68 L 96.90 53.39 L 96.82 53.08 L 96.76 52.78 L 96.74 52.46 L 96.75 52.13 L 96.79 51.81 L 96.87 51.49 L 96.97 51.19 L 97.10 50.89 L 97.26 50.61 L 97.45 50.35 L 97.67 50.10 L 97.91 49.87 L 98.17 49.67 L 98.46 49.50 L 98.76 49.35 L 99.07 49.23 L 99.39 49.14 L 99.72 49.09 L 100.05 49.06 L 100.39 49.07 L 100.73 49.12 L 101.07 49.20 L 101.39 49.30 L 101.70 49.45 L 102.00 49.62 L 102.28 49.81 L 102.54 50.04 L 102.78 50.30 L 102.99 50.58 L 103.17 50.88 L 103.33 51.20 L 103.45 51.52 L 103.55 51.86 L 103.61 52.21 L 103.63 52.56 L 103.61 52.92 L 103.57 53.28 L 103.49 53.63 L 103.37 53.97 L 103.22 54.30 L 103.04 54.62 L 102.83 54.91 L 102.59 55.18 L 102.32 55.43 L 102.02 55.66 L 101.71 55.85 L 101.38 56.01 L 101.03 56.15 L 100.68 56.24 L 100.32 56.30 L 99.94 56.32 L 99.56 56.31 L 99.19 56.26 L 98.82 56.17 L 98.46 56.04 L 98.12 55.90 L 97.79 55.70 L 97.48 55.49 L 97.19 55.22 L 96.93 54.94 L 96.70 54.63 L 96.49 54.31 L 96.32 53.96 L 96.19 53.59 L 96.09 53.22 L 96.02 52.84 L 96.00 52.44 L 96.01 52.05 L 96.07 51.66 L 96.16 51.27 L 96.29 50.89 L 96.45 50.54 L 96.65 50.19 L 96.88 49.87 L 97.15 49.56 L 97.45 49.30 L 97.77 49.05 L 98.12 48.83 L 98.48 48.66 L 98.86 48.51 L 99.25 48.41 L 99.65 48.34 L 100.06 48.32 L 100.48 48.33 L 100.89 48.39 L 101.29 48.49 L 101.69 48.63 L 102.06 48.80 L 102.42 49.01 L 102.75 49.25 L 103.07 49.53 L 103.36 49.84 L 103.61 50.18 L 103.84 50.54 L 104.02 50.93 L 104.17 51.32 L 104.28 51.72 L 104.34 52.15 L 104.37 52.57 L 104.35 53.01 L 104.29 53.43 L 104.19 53.86 L 104.05 54.27 L 103.87 54.66 L 103.65 55.03 L 103.40 55.38 L 103.11 55.71 L 102.78 56.01 L 102.43 56.28 L 102.05 56.51 L 101.65 56.71 L 101.24 56.85 L 100.81 56.97 L 100.38 57.04 L 99.93 57.06 L 99.48 57.05 L 99.03 56.98 L 98.59 56.88 L 98.17 56.73 L 97.76 56.54 L 97.37 56.31 L 97.00 56.05 L 96.66 55.75 L 96.35 55.40 L 96.07 55.04 L 95.84 54.64 L 95.63 54.23 L 95.47 53.80 L 95.35 53.35 L 95.28 52.90 L 95.26 52.43 L 95.28 51.96 L 95.34 51.50 L 95.46 51.04 L 95.61 50.60 L 95.81 50.17 L 96.04 49.76 L 96.32 49.39 L 96.63 49.04 L 96.99 48.71 L 97.37 48.43 L 97.78 48.18 L 98.21 47.97 L 98.66 47.80 L 99.12 47.68 L 99.59 47.60 L 100.08 47.58 L 100.56 47.60 L 101.04 47.67 L 101.52 47.79 L 101.98 47.95 L 102.42 48.15 L 102.84 48.39 L 103.24 48.69 L 103.61 49.02 L 103.94 49.37 L 104.24 49.78 L 104.50 50.20 L 104.71 50.65 L 104.88 51.11 L 105.01 51.60 L 105.09 52.08 L 105.11 52.58 L 105.09 53.09 L 105.02 53.60 L 104.90 54.08 L 104.73 54.56 L 104.52 55.02 L 104.26 55.46 L 103.97 55.86 L 103.62 56.25 L 103.25 56.60 L 102.83 56.90 L 102.39 57.16 L 101.92 57.39 L 101.44 57.57 L 100.94 57.70 L 100.44 57.78 L 99.92 57.81 L 99.39 57.79 L 98.88 57.71 L 98.37 57.58 L 97.87 57.41 L 97.40 57.19 L 96.94 56.93 L 96.52 56.62 L 96.12 56.26 L 95.77 55.87 L 95.45 55.44 L 95.17 54.98 L 94.94 54.51 L 94.76 54.00 L 94.62 53.48 L 94.54 52.96 L 94.51 52.42 L 94.54 51.88 L 94.62 51.35 L 94.75 50.82 L 94.93 50.31 L 95.15 49.82 L 95.43 49.35 L 95.75 48.91 L 96.12 48.50 L 96.53 48.13 L 96.97 47.80 L 97.44 47.52 L 97.93 47.28 L 98.45 47.08 L 98.99 46.95 L 99.53 46.87 L 100.09 46.84 L 100.64 46.86 L 101.20 46.95 L 101.74 47.08 L 102.27 47.26 L 102.78 47.50 L 103.26 47.78 L 103.72 48.11 L 104.14 48.50 L 104.52 48.92 L 104.86 49.37 L 105.16 49.86 L 105.40 50.37 L 105.60 50.91 L 105.74 51.46 L 105.83 52.02 L 105.85 52.61 L 105.82 53.18 L 105.74 53.76 L 105.59 54.32 L 105.40 54.87 L 105.16 55.40 L 104.87 55.89 L 104.53 56.34 L 103.86 57.03 L 103.10 57.57 L 102.28 57.99 L 101.53 58.30 L 101.04 58.40 L 100.78 58.42 L 100.55 58.42 L 100.20 58.44 L 100.02 58.45 L 99.67 58.45 L 99.43 58.46 L 98.95 58.50 L 97.82 58.65 L 96.71 58.91 L 95.63 59.28 L 94.77 59.66 L 93.69 60.26 L 92.11 61.45 L 90.50 63.19 L 89.66 64.49 L 89.09 65.65 L 88.39 67.87 L 88.12 70.01 L 88.31 72.22 L 88.68 73.92 L 89.19 75.25 L 89.94 76.65 L 91.28 78.40 L 92.62 79.61 L 93.76 80.43 L 94.74 80.98 L 96.59 81.70 L 98.38 82.09 L 100.06 82.21 L 101.26 81.95 L 102.41 81.06 L 103.03 79.43 L 102.77 78.02 L 101.99 76.97 L 101.08 76.44 L 100.49 76.29 L 100.23 76.40 L 99.95 76.78 L 99.61 77.75 L 99.12 78.37 L 98.53 78.83 L 97.76 79.14 L 97.03 79.24 L 96.14 79.10 L 95.41 78.76 L 94.88 78.32 L 94.51 77.84 L 94.28 77.39 L 94.14 76.95 L 94.07 76.40 L 94.08 75.80 L 94.17 74.67 L 94.56 72.86 L 95.49 70.61 L 97.12 68.31 L 98.64 66.89 L 100.19 65.89 L 101.86 65.11 L 103.19 64.73 L 104.56 64.47 L 106.03 64.40 L 107.32 64.47 L 109.08 64.81 L 110.69 65.38 L 112.42 66.31 L 114.38 67.90 L 115.96 69.89 L 117.10 72.20 L 117.64 74.23 L 117.84 76.73 L 129.70 76.27 L 129.71 75.71 L 129.78 74.92 L 129.88 74.23 L 129.98 73.70 L 130.07 73.33 L 130.46 72.09 L 131.35 70.23 L 132.40 68.72 L 133.75 67.33 L 134.98 66.39 L 136.51 65.53 L 138.20 64.88 L 140.36 64.45 L 142.80 64.45 L 144.47 64.74 L 146.11 65.29 L 148.24 66.43 L 149.43 67.35 L 150.82 68.79 L 152.09 70.73 L 152.78 72.32 L 153.30 74.28 L 153.45 75.89 L 153.45 75.90 L 147.52 76.27 L 147.50 76.31 L 147.51 76.36 L 147.56 76.40 L 147.63 76.41 L 147.73 76.37 L 147.80 76.30 L 147.83 76.17 L 147.81 76.04 L 147.71 75.89 L 147.57 75.80 L 147.47 75.78 L 147.37 75.78 L 147.17 75.83 L 147.07 75.90 L 146.99 75.99 L 146.92 76.09 L 146.87 76.20 L 146.85 76.33 L 146.85 76.47 L 146.89 76.61 L 146.94 76.73 L 147.03 76.86 L 147.15 76.96 L 147.28 77.05 L 147.44 77.09 L 147.61 77.12 L 147.78 77.11 L 147.95 77.06 L 148.10 76.99 L 148.26 76.87 L 148.38 76.72 L 148.48 76.56 L 148.54 76.37 L 148.55 76.16 L 148.54 75.95 L 148.48 75.75 L 148.39 75.56 L 148.24 75.39 L 148.06 75.24 L 147.86 75.13 L 147.64 75.06 L 147.40 75.04 L 147.15 75.07 L 146.92 75.14 L 146.70 75.26 L 146.49 75.43 L 146.33 75.64 L 146.21 75.87 L 146.14 76.12 L 146.11 76.41 L 146.14 76.69 L 146.23 76.96 L 146.37 77.20 L 146.56 77.43 L 146.80 77.62 L 147.06 77.75 L 147.36 77.83 L 147.67 77.86 L 147.99 77.82 L 148.30 77.72 L 148.57 77.57 L 148.83 77.34 L 149.03 77.07 L 149.19 76.77 L 149.27 76.45 L 149.29 76.10 L 149.25 75.74 L 149.13 75.41 L 148.96 75.10 L 148.71 74.82 L 148.41 74.59 L 148.08 74.42 L 147.72 74.33 L 147.33 74.30 L 146.94 74.36 L 146.57 74.49 L 146.23 74.68 L 145.92 74.96 L 145.68 75.28 L 145.50 75.65 L 145.39 76.05 L 145.37 76.26 L 145.37 76.47 L 145.43 76.90 L 145.57 77.30 L 145.79 77.67 L 145.93 77.84 L 146.08 78.00 L 146.26 78.14 L 146.45 78.27 L 146.85 78.47 L 147.07 78.53 L 147.28 78.57 L 147.51 78.60 L 147.74 78.60 L 147.98 78.58 L 148.20 78.53 L 148.43 78.46 L 148.64 78.37 L 148.85 78.27 L 149.04 78.14 L 149.23 77.99 L 149.40 77.82 L 149.55 77.63 L 149.68 77.43 L 149.80 77.22 L 149.90 76.99 L 149.97 76.76 L 150.02 76.52 L 150.04 76.27 L 150.04 76.03 L 150.01 75.78 L 149.96 75.53 L 149.89 75.29 L 149.79 75.06 L 149.67 74.84 L 149.54 74.63 L 149.37 74.43 L 149.19 74.25 L 148.99 74.08 L 148.77 73.94 L 148.54 73.82 L 148.30 73.72 L 148.05 73.64 L 147.80 73.59 L 147.53 73.57 L 147.26 73.57 L 146.99 73.59 L 146.73 73.65 L 146.47 73.72 L 146.22 73.83 L 145.99 73.96 L 145.76 74.11 L 145.55 74.28 L 145.35 74.48 L 145.18 74.69 L 145.02 74.93 L 144.89 75.18 L 144.79 75.43 L 144.71 75.70 L 144.66 75.97 L 144.63 76.25 L 144.63 76.55 L 144.67 76.83 L 144.72 77.11 L 144.81 77.38 L 144.92 77.65 L 145.06 77.90 L 145.21 78.14 L 145.40 78.37 L 145.62 78.57 L 145.84 78.76 L 146.10 78.92 L 146.36 79.06 L 146.63 79.17 L 146.91 79.26 L 147.20 79.31 L 147.51 79.34 L 147.81 79.34 L 148.12 79.31 L 148.41 79.24 L 148.71 79.15 L 148.99 79.03 L 149.25 78.89 L 149.51 78.72 L 149.75 78.52 L 149.96 78.29 L 150.16 78.05 L 150.34 77.78 L 150.48 77.50 L 150.60 77.21 L 150.69 76.91 L 150.75 76.61 L 150.78 76.28 L 150.77 75.96 L 150.74 75.64 L 150.67 75.32 L 150.57 75.01 L 150.45 74.71 L 150.29 74.43 L 150.12 74.16 L 149.90 73.91 L 149.66 73.67 L 149.40 73.47 L 149.12 73.29 L 148.82 73.13 L 148.52 73.01 L 148.20 72.92 L 147.87 72.85 L 147.54 72.82 L 147.19 72.82 L 146.85 72.86 L 146.52 72.94 L 146.20 73.04 L 145.88 73.18 L 145.58 73.34 L 145.29 73.53 L 145.03 73.75 L 144.78 74.01 L 144.57 74.28 L 144.38 74.57 L 144.22 74.89 L 144.08 75.21 L 143.98 75.55 L 143.92 75.89 L 143.89 76.25 L 143.89 76.61 L 143.94 76.97 L 144.01 77.32 L 144.12 77.66 L 144.26 78.00 L 144.44 78.31 L 144.64 78.61 L 144.87 78.89 L 145.14 79.15 L 145.43 79.37 L 145.74 79.58 L 146.07 79.74 L 146.41 79.88 L 146.76 79.98 L 147.13 80.05 L 147.50 80.09 L 147.88 80.08 L 148.26 80.03 L 148.63 79.95 L 148.99 79.84 L 149.33 79.69 L 149.67 79.50 L 149.98 79.29 L 150.27 79.04 L 150.54 78.77 L 150.78 78.46 L 150.99 78.14 L 151.17 77.79 L 151.31 77.43 L 151.42 77.06 L 151.49 76.68 L 151.52 76.29 L 151.52 75.89 L 151.47 75.49 L 151.38 75.11 L 151.26 74.73 L 151.11 74.36 L 150.91 74.02 L 150.68 73.69 L 150.43 73.38 L 150.14 73.10 L 149.82 72.85 L 149.47 72.63 L 149.11 72.45 L 148.74 72.30 L 148.35 72.18 L 147.95 72.11 L 147.54 72.08 L 147.13 72.09 L 146.71 72.14 L 146.31 72.22 L 145.91 72.35 L 145.53 72.52 L 145.17 72.72 L 144.83 72.95 L 144.51 73.23 L 144.22 73.53 L 143.95 73.86 L 143.73 74.22 L 143.53 74.60 L 143.38 74.99 L 143.26 75.40 L 143.18 75.82 L 143.14 76.25 L 143.15 76.68 L 143.21 77.11 L 143.30 77.53 L 143.44 77.94 L 143.61 78.34 L 143.81 78.72 L 144.06 79.07 L 144.35 79.41 L 144.67 79.72 L 145.02 79.98 L 145.39 80.23 L 145.78 80.43 L 146.19 80.59 L 146.61 80.71 L 147.05 80.79 L 147.50 80.83 L 147.95 80.82 L 148.40 80.76 L 148.84 80.67 L 149.26 80.52 L 149.68 80.34 L 150.07 80.12 L 150.45 79.87 L 150.79 79.57 L 151.11 79.24 L 151.39 78.88 L 151.64 78.49 L 151.85 78.08 L 152.02 77.65 L 152.14 77.21 L 152.23 76.75 L 152.26 76.29 L 152.25 75.82 L 152.19 75.36 L 152.09 74.90 L 151.95 74.45 L 151.76 74.02 L 151.53 73.61 L 151.26 73.22 L 150.96 72.86 L 150.61 72.53 L 150.23 72.24 L 149.83 71.98 L 149.40 71.76 L 148.95 71.59 L 148.49 71.46 L 148.03 71.38 L 147.54 71.34 L 147.05 71.35 L 146.57 71.41 L 146.10 71.52 L 145.63 71.67 L 145.18 71.86 L 144.76 72.10 L 144.36 72.38 L 143.99 72.70 L 143.64 73.06 L 143.34 73.45 L 143.08 73.87 L 142.85 74.31 L 142.66 74.77 L 142.53 75.26 L 142.44 75.74 L 142.41 76.24 L 142.42 76.75 L 142.48 77.25 L 142.59 77.74 L 142.74 78.23 L 142.95 78.69 L 143.19 79.13 L 143.49 79.54 L 143.82 79.93 L 144.20 80.29 L 144.60 80.60 L 145.03 80.88 L 145.49 81.11 L 145.98 81.30 L 146.47 81.44 L 146.97 81.53 L 147.50 81.57 L 148.01 81.56 L 148.54 81.49 L 149.05 81.37 L 149.55 81.21 L 150.03 81.00 L 150.48 80.75 L 150.91 80.45 L 151.32 80.10 L 151.68 79.71 L 152.01 79.29 L 152.29 78.84 L 152.54 78.36 L 152.73 77.87 L 152.87 77.35 L 152.96 76.83 L 153.01 76.29 L 152.99 75.75 L 152.92 75.22 L 152.80 74.69 L 152.64 74.17 L 152.41 73.67 L 152.15 73.20 L 151.84 72.76 L 151.49 72.34 L 151.09 71.96 L 150.64 71.63 L 150.18 71.33 L 149.69 71.08 L 149.17 70.88 L 148.65 70.73 L 148.10 70.64 L 147.55 70.59 L 146.99 70.61 L 146.43 70.69 L 145.89 70.80 L 145.35 70.99 L 144.84 71.20 L 144.35 71.48 L 143.89 71.80 L 143.46 72.17 L 143.07 72.58 L 142.72 73.04 L 142.41 73.52 L 142.16 74.02 L 141.95 74.55 L 141.80 75.10 L 141.70 75.66 L 141.66 76.24 L 141.68 76.82 L 141.76 77.40 L 141.89 77.97 L 142.07 78.52 L 142.30 79.05 L 142.58 79.55 L 142.90 80.01 L 143.57 80.70 L 144.32 81.27 L 145.12 81.70 L 146.20 82.06 L 147.13 82.20 L 148.06 82.20 L 149.14 81.98 L 150.21 81.56 L 151.21 80.92 L 151.94 80.23 L 152.57 79.40 L 153.02 78.50 L 153.33 77.49 L 153.44 75.97 L 153.37 75.22 L 153.11 74.25 L 152.59 73.17 L 152.11 72.50 L 151.37 71.75 L 150.75 71.28 L 149.73 70.76 L 149.02 70.52 L 147.84 70.33 L 146.78 70.37 L 145.56 70.66 L 144.83 70.97 L 144.10 71.41 L 143.21 72.18 L 142.44 73.20 L 141.91 74.31 L 141.66 75.29 L 141.58 76.26 L 141.55 77.09 L 141.46 77.82 L 141.35 78.56 L 141.21 79.19 L 141.05 79.73 L 140.85 80.37 L 140.64 80.87 L 140.48 81.24 L 140.13 81.97 L 139.91 82.34 L 139.67 82.73 L 138.69 84.03 L 138.25 84.52 L 137.80 84.96 L 136.71 85.86 L 135.88 86.41 L 134.73 87.03 L 133.29 87.59 L 129.70 88.15 L 125.52 87.39 L 124.91 87.14 L 122.24 85.52 L 120.88 84.23 L 119.73 82.74 L 118.47 80.14 L 117.98 78.20 L 117.85 77.11 L 117.85 75.67 L 117.92 74.70 L 118.05 73.93 L 118.20 73.29 L 118.36 72.72 L 118.67 71.86 L 118.94 71.23 L 119.36 70.42 L 119.82 69.67 L 120.39 68.88 L 121.01 68.17 L 121.73 67.46 L 122.29 66.98 L 122.79 66.60 L 123.12 66.38 L 123.76 65.98 L 123.16 66.35 L 122.88 66.54 L 122.57 66.77 L 122.25 67.01 L 122.03 67.20 L 121.58 67.60 L 121.01 68.17 L 120.62 68.62 L 120.22 69.11 L 119.59 70.04 L 119.05 71.00 L 118.52 72.29 L 118.33 72.83 L 118.12 73.61 L 117.99 74.32 L 117.86 75.30 L 117.85 75.46 L 117.85 75.71 L 117.84 76.73 L 123.76 76.27 L 123.74 76.31 L 123.75 76.36 L 123.80 76.40 L 123.87 76.41 L 123.97 76.37 L 124.04 76.29 L 124.07 76.16 L 124.04 76.03 L 123.95 75.89 L 123.80 75.81 L 123.71 75.78 L 123.61 75.78 L 123.41 75.84 L 123.31 75.90 L 123.23 75.99 L 123.16 76.09 L 123.11 76.20 L 123.09 76.33 L 123.09 76.47 L 123.13 76.61 L 123.18 76.74 L 123.28 76.86 L 123.39 76.96 L 123.53 77.05 L 123.67 77.10 L 123.85 77.12 L 124.02 77.11 L 124.19 77.06 L 124.34 76.99 L 124.49 76.87 L 124.62 76.72 L 124.71 76.56 L 124.78 76.37 L 124.80 76.16 L 124.78 75.96 L 124.72 75.75 L 124.62 75.57 L 124.48 75.39 L 124.30 75.24 L 124.10 75.13 L 123.88 75.07 L 123.64 75.05 L 123.40 75.07 L 123.16 75.14 L 122.94 75.26 L 122.74 75.43 L 122.57 75.64 L 122.45 75.87 L 122.38 76.12 L 122.35 76.41 L 122.38 76.69 L 122.47 76.96 L 122.61 77.21 L 122.80 77.43 L 123.04 77.62 L 123.31 77.75 L 123.60 77.84 L 123.91 77.86 L 124.23 77.82 L 124.53 77.72 L 124.81 77.56 L 125.06 77.34 L 125.27 77.08 L 125.42 76.77 L 125.51 76.45 L 125.54 76.09 L 125.49 75.74 L 125.38 75.40 L 125.20 75.09 L 124.95 74.82 L 124.66 74.59 L 124.32 74.43 L 123.96 74.33 L 123.57 74.31 L 123.18 74.36 L 122.81 74.48 L 122.47 74.68 L 122.17 74.96 L 121.92 75.28 L 121.74 75.65 L 121.63 76.05 L 121.61 76.26 L 121.61 76.47 L 121.68 76.90 L 121.81 77.30 L 122.03 77.67 L 122.17 77.84 L 122.33 78.00 L 122.50 78.15 L 122.68 78.27 L 123.09 78.46 L 123.30 78.53 L 123.52 78.57 L 123.75 78.60 L 123.98 78.60 L 124.21 78.58 L 124.44 78.53 L 124.66 78.47 L 124.88 78.37 L 125.09 78.27 L 125.28 78.14 L 125.47 77.99 L 125.64 77.82 L 125.79 77.63 L 125.92 77.43 L 126.04 77.22 L 126.14 76.99 L 126.20 76.77 L 126.25 76.53 L 126.27 76.28 L 126.27 76.03 L 126.25 75.78 L 126.20 75.53 L 126.13 75.29 L 126.03 75.06 L 125.91 74.84 L 125.78 74.63 L 125.61 74.43 L 125.43 74.25 L 125.23 74.08 L 125.01 73.94 L 124.78 73.81 L 124.54 73.72 L 124.29 73.64 L 124.04 73.59 L 123.77 73.56 L 123.50 73.57 L 123.24 73.60 L 122.97 73.65 L 122.71 73.73 L 122.46 73.83 L 122.23 73.96 L 122.01 74.10 L 121.79 74.28 L 121.60 74.48 L 121.42 74.70 L 121.27 74.93 L 121.14 75.17 L 121.03 75.44 L 120.95 75.70 L 120.90 75.97 L 120.87 76.25 L 120.87 76.54 L 120.91 76.83 L 120.96 77.11 L 121.05 77.38 L 121.16 77.65 L 121.29 77.90 L 121.45 78.14 L 121.64 78.37 L 121.86 78.57 L 122.09 78.76 L 122.33 78.92 L 122.60 79.06 L 122.87 79.17 L 123.15 79.26 L 123.44 79.31 L 123.75 79.34 L 124.05 79.34 L 124.35 79.30 L 124.65 79.24 L 124.94 79.15 L 125.23 79.03 L 125.49 78.89 L 125.75 78.71 L 125.99 78.51 L 126.21 78.29 L 126.41 78.04 L 126.58 77.78 L 126.72 77.50 L 126.84 77.21 L 126.93 76.91 L 126.99 76.60 L 127.02 76.28 L 127.01 75.96 L 126.98 75.64 L 126.91 75.32 L 126.82 75.01 L 126.69 74.71 L 126.54 74.42 L 126.35 74.16 L 126.14 73.91 L 125.90 73.68 L 125.64 73.47 L 125.36 73.28 L 125.07 73.13 L 124.76 73.01 L 124.44 72.91 L 124.12 72.85 L 123.77 72.82 L 123.43 72.83 L 123.09 72.87 L 122.76 72.94 L 122.43 73.04 L 122.12 73.18 L 121.82 73.34 L 121.54 73.53 L 121.27 73.76 L 121.03 74.00 L 120.81 74.28 L 120.62 74.58 L 120.46 74.89 L 120.32 75.22 L 120.23 75.55 L 120.16 75.89 L 120.13 76.25 L 120.13 76.61 L 120.18 76.97 L 120.25 77.32 L 120.36 77.66 L 120.50 77.99 L 120.67 78.31 L 120.88 78.61 L 121.12 78.89 L 121.38 79.14 L 121.67 79.37 L 121.98 79.57 L 122.31 79.74 L 122.65 79.88 L 123.00 79.98 L 123.37 80.05 L 123.74 80.09 L 124.12 80.08 L 124.49 80.04 L 124.87 79.95 L 125.23 79.84 L 125.57 79.69 L 125.90 79.51 L 126.22 79.29 L 126.51 79.04 L 126.78 78.77 L 127.02 78.46 L 127.23 78.14 L 127.41 77.79 L 127.55 77.43 L 127.66 77.06 L 127.73 76.68 L 127.76 76.28 L 127.75 75.89 L 127.71 75.49 L 127.62 75.11 L 127.50 74.73 L 127.35 74.36 L 127.15 74.02 L 126.93 73.69 L 126.66 73.39 L 126.38 73.10 L 126.06 72.85 L 125.71 72.64 L 125.35 72.45 L 124.98 72.30 L 124.59 72.19 L 124.19 72.11 L 123.78 72.08 L 123.36 72.09 L 122.95 72.14 L 122.55 72.23 L 122.15 72.36 L 121.77 72.51 L 121.41 72.72 L 121.07 72.95 L 120.74 73.23 L 120.46 73.53 L 120.19 73.86 L 119.97 74.22 L 119.77 74.60 L 119.61 75.00 L 119.50 75.40 L 119.42 75.82 L 119.39 76.24 L 119.40 76.68 L 119.44 77.11 L 119.54 77.53 L 119.68 77.94 L 119.85 78.34 L 120.06 78.72 L 120.30 79.08 L 120.59 79.41 L 120.91 79.71 L 121.26 79.99 L 121.63 80.23 L 122.02 80.43 L 122.43 80.59 L 122.86 80.71 L 123.29 80.79 L 123.74 80.82 L 124.19 80.82 L 124.64 80.76 L 125.08 80.66 L 125.51 80.52 L 125.92 80.35 L 126.31 80.13 L 126.69 79.87 L 127.03 79.57 L 127.35 79.24 L 127.64 78.87 L 127.88 78.49 L 128.09 78.08 L 128.26 77.65 L 128.39 77.21 L 128.47 76.75 L 128.51 76.29 L 128.49 75.82 L 128.43 75.35 L 128.33 74.90 L 128.19 74.45 L 128.00 74.02 L 127.77 73.61 L 127.50 73.22 L 127.20 72.86 L 126.85 72.53 L 126.47 72.24 L 126.07 71.98 L 125.64 71.76 L 125.20 71.59 L 124.74 71.46 L 124.27 71.37 L 123.78 71.34 L 123.29 71.35 L 122.81 71.41 L 122.34 71.52 L 121.87 71.67 L 121.43 71.86 L 121.00 72.10 L 120.60 72.37 L 120.23 72.70 L 119.88 73.06 L 119.58 73.45 L 119.31 73.87 L 119.09 74.31 L 118.90 74.78 L 118.77 75.25 L 118.68 75.74 L 118.64 76.25 L 118.66 76.75 L 118.72 77.25 L 118.83 77.75 L 118.99 78.23 L 119.19 78.69 L 119.44 79.13 L 119.72 79.55 L 120.06 79.93 L 120.44 80.29 L 120.84 80.60 L 121.27 80.88 L 121.73 81.11 L 122.21 81.30 L 122.71 81.44 L 123.21 81.53 L 123.74 81.57 L 124.26 81.55 L 124.78 81.49 L 125.29 81.37 L 125.79 81.21 L 126.27 81.00 L 126.73 80.74 L 127.15 80.44 L 127.56 80.10 L 127.92 79.71 L 128.25 79.29 L 128.53 78.84 L 128.77 78.36 L 128.97 77.87 L 129.11 77.36 L 129.20 76.83 L 129.25 76.29 L 129.23 75.75 L 129.17 75.21 L 129.04 74.68 L 128.88 74.17 L 128.66 73.67 L 128.39 73.20 L 128.08 72.76 L 127.72 72.34 L 127.32 71.96 L 126.88 71.63 L 126.42 71.33 L 125.93 71.08 L 125.41 70.88 L 124.89 70.73 L 124.34 70.63 L 123.78 70.60 L 123.23 70.61 L 122.67 70.68 L 122.13 70.81 L 121.59 70.98 L 121.08 71.21 L 120.59 71.48 L 120.13 71.80 L 119.70 72.17 L 119.31 72.58 L 118.96 73.03 L 118.66 73.51 L 118.40 74.02 L 118.20 74.55 L 118.04 75.10 L 117.95 75.66 L 117.90 76.25 L 117.92 76.83 L 118.00 77.40 L 118.13 77.97 L 118.31 78.52 L 118.55 79.05 L 118.82 79.55 L 119.15 80.01 L 119.81 80.70 L 120.64 81.32 L 121.36 81.70 L 122.44 82.06 L 123.38 82.19 L 124.30 82.20 L 125.38 81.98 L 126.45 81.56 L 127.46 80.92 L 128.18 80.23 L 128.81 79.40 L 129.26 78.50 L 129.57 77.49 L 129.70 76.27 L 129.61 75.22 L 129.35 74.25 L 128.83 73.17 L 128.35 72.49 L 127.62 71.74 L 126.99 71.28 L 125.97 70.76 L 125.26 70.52 L 124.08 70.34 L 123.02 70.37 L 121.80 70.66 L 121.07 70.97 L 120.34 71.41 L 119.45 72.18 L 118.68 73.19 L 118.15 74.31 L 117.90 75.29 L 117.82 76.07 L 117.82 76.37 L 117.83 76.17 L 117.79 75.49 L 117.74 74.92 L 117.69 74.51 L 117.44 73.31 L 117.29 72.78 L 116.93 71.74 L 116.49 70.82 L 115.14 68.75 L 113.62 67.20 L 112.00 66.05 L 109.93 65.08 L 108.17 64.60 L 106.44 64.40 L 105.33 64.41 L 103.75 64.59 L 102.28 64.97 L 100.58 65.66 L 99.41 66.35 L 97.73 67.68 L 96.31 69.46 L 95.85 70.00 L 94.75 72.26 L 94.29 73.96 L 94.08 75.53 L 94.07 76.57 L 94.35 77.56 L 94.74 78.13 L 95.23 78.63 L 96.31 79.15 L 97.46 79.20 L 98.68 78.74 L 99.40 78.06 L 99.86 77.16 L 100.24 75.09 L 101.21 73.87 L 102.24 73.38 L 103.21 73.31 L 104.88 73.99 L 105.63 74.94 L 105.89 75.53 L 105.93 76.52 L 105.82 77.96 L 105.37 79.90 L 104.55 81.84 L 103.24 83.81 L 101.91 85.18 L 100.40 86.32 L 98.39 87.33 L 96.42 87.91 L 94.06 88.15 L 91.92 87.95 L 89.30 87.15 L 86.87 85.72 L 85.12 84.09 L 83.68 82.05 L 82.68 79.69 L 82.33 78.15 L 82.18 76.26 L 70.30 76.32 L 70.22 74.90 L 69.84 73.00 L 69.09 71.04 L 68.31 69.68 L 67.41 68.50 L 66.55 67.61 L 64.98 66.37 L 63.59 65.58 L 62.10 64.97 L 60.53 64.57 L 58.85 64.39 L 57.58 64.42 L 56.13 64.61 L 54.52 65.05 L 52.07 66.23 L 50.44 67.47 L 48.92 69.14 L 47.96 70.64 L 47.31 72.08 L 46.90 73.36 L 46.64 74.74 L 46.54 76.27 L 46.54 76.27 L 46.54 76.27 L 52.48 76.26 L 52.44 76.26 L 52.39 76.24 L 52.39 76.24 L 52.36 76.13 L 52.36 76.13 L 52.50 75.99 L 52.50 75.99 L 52.76 76.03 L 52.76 76.03 L 52.94 76.30 L 52.94 76.30 L 52.95 76.40 L 52.84 76.69 L 52.84 76.69 L 52.76 76.78 L 52.66 76.85 L 52.43 76.91 L 52.43 76.91 L 52.30 76.92 L 52.16 76.89 L 51.92 76.75 L 51.92 76.75 L 51.81 76.64 L 51.73 76.51 L 51.64 76.21 L 51.64 76.21 L 51.65 76.04 L 51.69 75.87 L 51.87 75.57 L 51.87 75.57 L 52.01 75.44 L 52.18 75.34 L 52.55 75.25 L 52.55 75.25 L 52.76 75.26 L 52.96 75.32 L 53.32 75.53 L 53.32 75.53 L 53.47 75.71 L 53.58 75.91 L 53.69 76.35 L 53.69 76.35 L 53.66 76.59 L 53.59 76.83 L 53.33 77.25 L 53.33 77.25 L 53.13 77.41 L 52.90 77.55 L 52.39 77.66 L 52.39 77.66 L 52.10 77.63 L 51.83 77.55 L 51.36 77.24 L 51.36 77.24 L 51.17 77.01 L 51.03 76.74 L 50.91 76.16 L 50.91 76.16 L 50.93 75.84 L 51.03 75.54 L 51.38 75.01 L 51.38 75.01 L 51.64 74.79 L 51.94 74.64 L 52.60 74.51 L 52.60 74.51 L 52.96 74.55 L 53.29 74.65 L 53.88 75.05 L 53.88 75.05 L 54.11 75.34 L 54.28 75.67 L 54.42 76.40 L 54.42 76.40 L 54.38 76.79 L 54.26 77.17 L 53.82 77.81 L 53.82 77.81 L 53.50 78.06 L 53.13 78.25 L 52.33 78.40 L 52.33 78.40 L 52.12 78.39 L 51.91 78.35 L 51.50 78.21 L 50.80 77.73 L 50.80 77.73 L 50.65 77.56 L 50.52 77.38 L 50.41 77.18 L 50.32 76.98 L 50.20 76.55 L 50.16 76.11 L 50.16 76.11 L 50.18 75.88 L 50.23 75.65 L 50.29 75.42 L 50.36 75.20 L 50.47 74.99 L 50.60 74.80 L 50.89 74.44 L 50.89 74.44 L 51.07 74.29 L 51.27 74.15 L 51.49 74.03 L 51.70 73.93 L 51.94 73.86 L 52.17 73.81 L 52.65 73.77 L 52.65 73.77 L 52.90 73.78 L 53.15 73.83 L 53.39 73.89 L 53.62 73.99 L 53.85 74.10 L 54.06 74.24 L 54.44 74.56 L 54.44 74.56 L 54.61 74.76 L 54.76 74.97 L 54.89 75.20 L 54.98 75.44 L 55.06 75.68 L 55.12 75.93 L 55.16 76.46 L 55.16 76.46 L 55.15 76.72 L 55.10 76.99 L 55.02 77.24 L 54.92 77.50 L 54.80 77.74 L 54.65 77.96 L 54.31 78.37 L 54.31 78.37 L 54.09 78.55 L 53.86 78.70 L 53.62 78.84 L 53.37 78.95 L 53.11 79.04 L 52.84 79.10 L 52.28 79.14 L 52.28 79.14 L 51.99 79.12 L 51.71 79.06 L 51.43 78.98 L 51.17 78.88 L 50.92 78.75 L 50.67 78.59 L 50.24 78.22 L 50.24 78.22 L 50.05 77.99 L 49.88 77.75 L 49.74 77.49 L 49.62 77.21 L 49.53 76.94 L 49.46 76.64 L 49.42 76.05 L 49.42 76.05 L 49.44 75.75 L 49.51 75.45 L 49.59 75.16 L 49.70 74.87 L 49.84 74.60 L 50.01 74.35 L 50.41 73.89 L 50.41 73.89 L 50.65 73.69 L 50.91 73.51 L 51.18 73.35 L 51.47 73.23 L 51.77 73.14 L 52.08 73.07 L 52.70 73.02 L 52.70 73.02 L 53.03 73.05 L 53.35 73.11 L 53.66 73.20 L 53.95 73.33 L 54.24 73.47 L 54.51 73.65 L 55.00 74.07 L 55.00 74.07 L 55.21 74.33 L 55.40 74.60 L 55.56 74.90 L 55.69 75.20 L 55.79 75.52 L 55.86 75.84 L 55.90 76.50 L 55.90 76.50 L 55.87 76.85 L 55.81 77.18 L 55.71 77.51 L 55.59 77.82 L 55.43 78.13 L 55.24 78.42 L 54.79 78.93 L 54.79 78.93 L 54.53 79.16 L 54.23 79.35 L 53.93 79.52 L 53.60 79.66 L 53.27 79.76 L 52.93 79.84 L 52.22 79.88 L 52.22 79.88 L 51.87 79.85 L 51.51 79.78 L 51.18 79.68 L 50.84 79.54 L 50.52 79.38 L 50.21 79.18 L 49.68 78.71 L 49.68 78.71 L 49.44 78.42 L 49.24 78.12 L 49.06 77.79 L 48.92 77.46 L 48.81 77.10 L 48.73 76.74 L 48.69 76.00 L 48.69 76.00 L 48.72 75.63 L 48.79 75.26 L 48.90 74.90 L 49.04 74.55 L 49.21 74.21 L 49.42 73.89 L 49.92 73.33 L 49.92 73.33 L 50.22 73.08 L 50.54 72.86 L 50.88 72.68 L 51.23 72.53 L 51.61 72.41 L 51.99 72.34 L 52.76 72.28 L 52.76 72.28 L 53.15 72.32 L 53.54 72.40 L 53.92 72.51 L 54.29 72.67 L 54.64 72.85 L 54.97 73.06 L 55.56 73.59 L 55.56 73.59 L 55.82 73.90 L 56.05 74.23 L 56.23 74.59 L 56.39 74.97 L 56.51 75.35 L 56.60 75.75 L 56.65 76.56 L 56.65 76.56 L 56.61 76.97 L 56.53 77.38 L 56.41 77.77 L 56.25 78.16 L 56.06 78.52 L 55.83 78.87 L 55.28 79.49 L 55.28 79.49 L 54.96 79.76 L 54.61 79.99 L 54.23 80.19 L 53.84 80.36 L 53.44 80.48 L 53.02 80.57 L 52.18 80.62 L 52.18 80.62 L 51.75 80.58 L 51.32 80.49 L 50.91 80.37 L 50.50 80.21 L 50.12 80.00 L 49.76 79.76 L 49.12 79.19 L 49.12 79.19 L 48.84 78.85 L 48.59 78.49 L 48.39 78.10 L 48.22 77.69 L 48.09 77.27 L 47.99 76.83 L 47.94 75.95 L 47.94 75.95 L 47.99 75.51 L 48.07 75.06 L 48.21 74.63 L 48.37 74.21 L 48.58 73.82 L 48.83 73.44 L 49.43 72.76 L 49.43 72.76 L 49.79 72.48 L 50.17 72.22 L 50.57 72.00 L 51.00 71.83 L 51.44 71.69 L 51.89 71.59 L 52.81 71.54 L 52.81 71.54 L 53.28 71.59 L 53.73 71.68 L 54.18 71.82 L 54.62 72.00 L 55.03 72.22 L 55.42 72.48 L 56.12 73.10 L 56.12 73.10 L 56.42 73.47 L 56.69 73.86 L 56.91 74.29 L 57.10 74.73 L 57.24 75.19 L 57.34 75.65 L 57.39 76.61 L 57.39 76.61 L 57.34 77.09 L 57.24 77.57 L 57.10 78.03 L 56.91 78.48 L 56.69 78.92 L 56.42 79.32 L 55.77 80.05 L 55.77 80.05 L 55.39 80.36 L 54.97 80.64 L 54.53 80.87 L 54.07 81.06 L 53.60 81.21 L 53.12 81.31 L 52.13 81.36 L 52.13 81.36 L 51.63 81.31 L 51.13 81.21 L 50.64 81.06 L 50.18 80.87 L 49.73 80.63 L 49.30 80.35 L 48.55 79.68 L 48.55 79.68 L 48.23 79.28 L 47.95 78.85 L 47.70 78.40 L 47.51 77.92 L 47.36 77.43 L 47.25 76.92 L 47.20 75.90 L 47.20 75.90 L 47.25 75.38 L 47.35 74.87 L 47.52 74.37 L 47.71 73.88 L 47.96 73.42 L 48.25 72.98 L 48.94 72.21 L 48.94 72.21 L 49.36 71.87 L 49.80 71.57 L 50.27 71.33 L 50.77 71.12 L 51.27 70.97 L 51.80 70.86 L 52.86 70.80 L 52.86 70.80 L 53.40 70.86 L 53.93 70.96 L 54.44 71.12 L 54.95 71.34 L 55.43 71.59 L 55.88 71.89 L 56.68 72.61 L 56.68 72.61 L 57.03 73.04 L 57.33 73.50 L 57.59 73.99 L 57.80 74.49 L 57.96 75.02 L 58.07 75.56 L 58.13 76.66 L 58.13 76.66 L 58.07 77.22 L 57.96 77.76 L 57.80 78.30 L 57.57 78.81 L 57.31 79.31 L 57.01 79.78 L 56.25 80.61 L 56.25 80.61 L 55.82 80.97 L 55.34 81.28 L 54.84 81.55 L 54.32 81.77 L 53.77 81.93 L 53.21 82.05 L 52.08 82.10 L 52.08 82.10 L 51.50 82.04 L 50.93 81.92 L 50.37 81.75 L 49.84 81.52 L 49.32 81.25 L 48.84 80.93 L 48.40 80.56 L 48.00 80.17 L 47.43 79.39 L 46.95 78.43 L 46.63 77.30 L 46.55 75.93 L 46.76 74.67 L 47.15 73.64 L 47.71 72.72 L 48.48 71.87 L 49.61 71.06 L 50.86 70.55 L 52.48 70.32 L 53.77 70.47 L 54.94 70.86 L 56.09 71.55 L 56.83 72.22 L 57.58 73.21 L 58.17 74.57 L 58.40 75.89 L 58.44 77.04 L 58.52 77.81 L 58.65 78.62 L 58.91 79.63 L 59.09 80.20 L 59.28 80.70 L 59.57 81.36 L 59.80 81.84 L 60.19 82.50 L 60.40 82.84 L 60.55 83.06 L 60.83 83.43 L 61.32 84.04 L 61.72 84.48 L 62.17 84.93 L 62.73 85.42 L 63.43 85.96 L 64.17 86.45 L 64.85 86.82 L 65.82 87.27 L 66.95 87.66 L 68.20 87.96 L 70.30 88.15 L 72.00 88.03 L 73.68 87.66 L 75.34 87.02 L 77.21 85.92 L 78.83 84.54 L 80.04 83.07 L 80.94 81.56 L 81.69 79.63 L 82.05 78.05 L 82.12 77.44 L 82.15 77.01 L 82.17 76.64 L 82.18 76.39 L 82.18 76.01 L 82.16 75.57 L 82.12 75.07 L 82.07 74.65 L 81.91 73.75 L 81.67 72.83 L 81.38 71.98 L 80.83 70.77 L 80.25 69.77 L 79.42 68.65 L 78.50 67.68 L 77.81 67.07 L 77.06 66.50 L 76.24 65.98 L 76.65 66.24 L 77.44 66.78 L 77.67 66.95 L 77.97 67.20 L 78.35 67.53 L 78.59 67.75 L 78.96 68.13 L 79.68 68.98 L 80.54 70.27 L 81.17 71.48 L 81.58 72.55 L 81.89 73.68 L 82.17 75.92 L 76.24 76.27 L 76.20 76.27 L 76.11 76.26 L 76.11 76.26 L 76.08 76.13 L 76.08 76.13 L 76.22 75.99 L 76.22 75.99 L 76.48 76.02 L 76.48 76.02 L 76.66 76.30 L 76.66 76.30 L 76.67 76.40 L 76.56 76.69 L 76.56 76.69 L 76.48 76.77 L 76.38 76.84 L 76.15 76.91 L 76.15 76.91 L 76.02 76.91 L 75.88 76.88 L 75.64 76.76 L 75.64 76.76 L 75.53 76.64 L 75.45 76.51 L 75.37 76.21 L 75.37 76.21 L 75.37 76.04 L 75.41 75.87 L 75.59 75.56 L 75.59 75.56 L 75.73 75.43 L 75.90 75.34 L 76.27 75.25 L 76.27 75.25 L 76.48 75.26 L 76.68 75.32 L 77.04 75.54 L 77.04 75.54 L 77.19 75.71 L 77.30 75.91 L 77.40 76.35 L 77.40 76.35 L 77.39 76.60 L 77.31 76.83 L 77.05 77.24 L 77.05 77.24 L 76.85 77.42 L 76.62 77.55 L 76.10 77.66 L 76.10 77.66 L 75.82 77.63 L 75.55 77.55 L 75.08 77.24 L 75.08 77.24 L 74.89 77.01 L 74.74 76.74 L 74.62 76.16 L 74.62 76.16 L 74.66 75.84 L 74.75 75.54 L 75.10 75.01 L 75.10 75.01 L 75.37 74.80 L 75.66 74.63 L 76.32 74.51 L 76.32 74.51 L 76.68 74.55 L 77.01 74.65 L 77.60 75.05 L 77.60 75.05 L 77.84 75.34 L 78.01 75.67 L 78.14 76.40 L 78.14 76.40 L 78.10 76.79 L 77.98 77.16 L 77.54 77.81 L 77.54 77.81 L 77.22 78.06 L 76.85 78.25 L 76.05 78.40 L 76.05 78.40 L 75.84 78.39 L 75.62 78.34 L 75.22 78.21 L 74.52 77.73 L 74.52 77.73 L 74.37 77.56 L 74.24 77.38 L 74.14 77.19 L 74.04 76.98 L 73.92 76.55 L 73.89 76.11 L 73.89 76.11 L 73.90 75.87 L 73.94 75.65 L 74.00 75.42 L 74.09 75.21 L 74.19 75.00 L 74.31 74.80 L 74.62 74.45 L 74.62 74.45 L 74.80 74.29 L 75.00 74.15 L 75.21 74.03 L 75.43 73.94 L 75.66 73.86 L 75.89 73.80 L 76.37 73.76 L 76.37 73.76 L 76.62 73.78 L 76.87 73.83 L 77.11 73.90 L 77.34 73.99 L 77.57 74.10 L 77.78 74.24 L 78.16 74.56 L 78.16 74.56 L 78.32 74.76 L 78.47 74.97 L 78.60 75.20 L 78.71 75.44 L 78.79 75.68 L 78.85 75.94 L 78.88 76.46 L 78.88 76.46 L 78.86 76.72 L 78.81 76.98 L 78.74 77.24 L 78.64 77.50 L 78.52 77.74 L 78.37 77.96 L 78.03 78.37 L 78.03 78.37 L 77.82 78.55 L 77.59 78.71 L 77.35 78.84 L 77.09 78.95 L 76.83 79.04 L 76.55 79.10 L 76.00 79.14 L 76.00 79.14 L 75.71 79.12 L 75.43 79.06 L 75.15 78.98 L 74.89 78.88 L 74.63 78.75 L 74.39 78.59 L 73.96 78.22 L 73.96 78.22 L 73.76 77.99 L 73.60 77.75 L 73.46 77.49 L 73.34 77.21 L 73.25 76.93 L 73.19 76.65 L 73.14 76.05 L 73.14 76.05 L 73.17 75.75 L 73.23 75.45 L 73.31 75.16 L 73.42 74.87 L 73.56 74.60 L 73.73 74.35 L 74.13 73.89 L 74.13 73.89 L 74.37 73.68 L 74.63 73.51 L 74.90 73.36 L 75.19 73.23 L 75.49 73.13 L 75.80 73.07 L 76.43 73.03 L 76.43 73.03 L 76.74 73.05 L 77.06 73.11 L 77.37 73.20 L 77.67 73.32 L 77.96 73.47 L 78.23 73.65 L 78.72 74.07 L 78.72 74.07 L 78.93 74.33 L 79.12 74.60 L 79.28 74.89 L 79.41 75.20 L 79.51 75.52 L 79.58 75.85 L 79.63 76.51 L 79.63 76.51 L 79.60 76.85 L 79.53 77.18 L 79.44 77.51 L 79.31 77.83 L 79.15 78.12 L 78.96 78.42 L 78.51 78.93 L 78.51 78.93 L 78.25 79.15 L 77.96 79.35 L 77.64 79.52 L 77.33 79.65 L 76.99 79.76 L 76.65 79.84 L 75.95 79.88 L 75.95 79.88 L 75.59 79.85 L 75.24 79.78 L 74.89 79.68 L 74.56 79.54 L 74.24 79.37 L 73.93 79.18 L 73.40 78.71 L 73.40 78.71 L 73.17 78.42 L 72.95 78.11 L 72.78 77.79 L 72.63 77.45 L 72.53 77.10 L 72.45 76.74 L 72.41 76.01 L 72.41 76.01 L 72.44 75.63 L 72.51 75.25 L 72.62 74.89 L 72.76 74.54 L 72.94 74.21 L 73.14 73.89 L 73.64 73.32 L 73.64 73.32 L 73.94 73.08 L 74.26 72.86 L 74.60 72.68 L 74.96 72.53 L 75.33 72.42 L 75.71 72.33 L 76.48 72.29 L 76.48 72.29 L 76.87 72.32 L 77.26 72.40 L 77.64 72.51 L 78.00 72.66 L 78.36 72.85 L 78.68 73.06 L 79.28 73.59 L 79.28 73.59 L 79.54 73.90 L 79.77 74.24 L 79.96 74.59 L 80.12 74.97 L 80.24 75.36 L 80.32 75.75 L 80.36 76.56 L 80.36 76.56 L 80.32 76.97 L 80.25 77.38 L 80.13 77.77 L 79.97 78.16 L 79.77 78.52 L 79.55 78.87 L 79.00 79.49 L 79.00 79.49 L 78.67 79.76 L 78.33 80.00 L 77.95 80.20 L 77.56 80.35 L 77.15 80.48 L 76.74 80.57 L 75.89 80.62 L 75.89 80.62 L 75.46 80.58 L 75.04 80.49 L 74.63 80.37 L 74.23 80.20 L 73.85 80.00 L 73.48 79.77 L 72.84 79.19 L 72.84 79.19 L 72.55 78.85 L 72.31 78.48 L 72.10 78.10 L 71.93 77.69 L 71.80 77.26 L 71.71 76.83 L 71.66 75.95 L 71.66 75.95 L 71.71 75.51 L 71.79 75.07 L 71.92 74.63 L 72.09 74.21 L 72.31 73.81 L 72.55 73.44 L 73.15 72.77 L 73.15 72.77 L 73.51 72.47 L 73.89 72.22 L 74.29 72.00 L 74.72 71.82 L 75.16 71.69 L 75.61 71.59 L 76.52 71.54 L 76.52 71.54 L 76.99 71.59 L 77.45 71.68 L 77.90 71.82 L 78.33 72.00 L 78.75 72.22 L 79.14 72.48 L 79.84 73.10 L 79.84 73.10 L 80.14 73.47 L 80.41 73.87 L 80.63 74.29 L 80.82 74.73 L 80.96 75.19 L 81.05 75.65 L 81.11 76.61 L 81.11 76.61 L 81.06 77.09 L 80.96 77.57 L 80.82 78.03 L 80.64 78.49 L 80.40 78.92 L 80.13 79.32 L 79.49 80.05 L 79.49 80.05 L 79.11 80.36 L 78.69 80.64 L 78.25 80.87 L 77.79 81.06 L 77.32 81.21 L 76.83 81.30 L 75.85 81.36 L 75.85 81.36 L 75.34 81.31 L 74.85 81.21 L 74.37 81.06 L 73.90 80.87 L 73.45 80.63 L 73.03 80.35 L 72.28 79.68 L 72.28 79.68 L 71.95 79.28 L 71.67 78.86 L 71.43 78.40 L 71.23 77.92 L 71.08 77.43 L 70.98 76.92 L 70.92 75.90 L 70.92 75.90 L 70.97 75.38 L 71.07 74.86 L 71.23 74.37 L 71.43 73.88 L 71.67 73.42 L 71.97 72.98 L 72.67 72.21 L 72.67 72.21 L 73.07 71.87 L 73.52 71.58 L 73.99 71.33 L 74.48 71.12 L 75.00 70.97 L 75.52 70.86 L 76.58 70.80 L 76.58 70.80 L 77.12 70.86 L 77.65 70.97 L 78.17 71.13 L 78.67 71.34 L 79.14 71.59 L 79.60 71.89 L 80.40 72.61 L 80.40 72.61 L 80.75 73.04 L 81.05 73.50 L 81.31 73.99 L 81.52 74.49 L 81.68 75.02 L 81.79 75.56 L 81.85 76.66 L 81.85 76.66 L 81.79 77.21 L 81.68 77.77 L 81.51 78.30 L 81.30 78.81 L 81.03 79.31 L 80.72 79.78 L 79.98 80.61 L 79.98 80.61 L 79.54 80.97 L 79.06 81.29 L 78.56 81.55 L 78.03 81.77 L 77.49 81.93 L 76.93 82.05 L 75.79 82.10 L 75.79 82.10 L 75.22 82.04 L 74.65 81.92 L 74.09 81.74 L 73.55 81.52 L 73.04 81.24 L 72.56 80.93 L 72.12 80.57 L 71.72 80.17 L 71.14 79.39 L 70.66 78.43 L 70.35 77.29 L 70.27 75.93 L 70.48 74.67 L 70.87 73.64 L 71.43 72.72 L 72.20 71.87 L 73.34 71.06 L 74.59 70.55 L 76.20 70.32 L 77.49 70.47 L 78.66 70.86 L 79.80 71.55 L 80.55 72.22 L 81.29 73.21 L 81.89 74.58 L 82.13 75.89 L 82.21 77.05 L 82.37 78.39 L 82.51 78.92 L 82.82 80.10 L 83.18 80.86 L 84.16 82.84 L 85.28 84.27 L 86.38 85.26 L 87.57 86.22 L 90.50 87.60 L 92.75 88.03 L 95.04 88.10 L 98.39 87.33 L 101.15 85.75 L 102.83 84.23 L 104.22 82.43 L 105.37 79.90 L 105.82 77.96 L 105.94 76.27 L 100.02 76.17 L 99.91 76.26 L 99.91 76.26 L 99.88 76.12 L 99.88 76.12 L 100.02 75.99 L 100.02 75.99 L 100.28 76.03 L 100.28 76.03 L 100.46 76.30 L 100.46 76.30 L 100.47 76.40 L 100.36 76.68 L 100.36 76.68 L 100.28 76.77 L 100.18 76.84 L 99.95 76.92 L 99.95 76.92 L 99.82 76.92 L 99.68 76.89 L 99.44 76.75 L 99.44 76.75 L 99.33 76.65 L 99.25 76.51 L 99.17 76.21 L 99.17 76.21 L 99.17 76.04 L 99.21 75.87 L 99.39 75.56 L 99.39 75.56 L 99.53 75.43 L 99.70 75.34 L 100.07 75.25 L 100.07 75.25 L 100.28 75.26 L 100.48 75.32 L 100.84 75.53 L 100.84 75.53 L 100.99 75.71 L 101.10 75.91 L 101.20 76.35 L 101.20 76.35 L 101.18 76.59 L 101.12 76.83 L 100.85 77.25 L 100.85 77.25 L 100.65 77.42 L 100.42 77.55 L 99.90 77.65 L 99.90 77.65 L 99.62 77.63 L 99.35 77.55 L 98.88 77.24 L 98.88 77.24 L 98.69 77.01 L 98.55 76.74 L 98.42 76.16 L 98.42 76.16 L 98.46 75.84 L 98.55 75.54 L 98.90 75.00 L 98.90 75.00 L 99.16 74.80 L 99.46 74.63 L 100.12 74.51 L 100.12 74.51 L 100.47 74.54 L 100.81 74.65 L 101.40 75.05 L 101.40 75.05 L 101.63 75.34 L 101.80 75.67 L 101.94 76.40 L 101.94 76.40 L 101.90 76.79 L 101.78 77.16 L 101.34 77.81 L 101.34 77.81 L 101.02 78.06 L 100.65 78.25 L 99.85 78.40 L 99.85 78.40 L 99.64 78.39 L 99.43 78.34 L 99.02 78.22 L 98.32 77.73 L 98.32 77.73 L 98.17 77.57 L 98.04 77.38 L 97.93 77.19 L 97.84 76.98 L 97.72 76.55 L 97.69 76.11 L 97.69 76.11 L 97.70 75.87 L 97.74 75.64 L 97.80 75.42 L 97.89 75.20 L 97.99 75.00 L 98.11 74.80 L 98.41 74.44 L 98.41 74.44 L 98.60 74.29 L 98.80 74.15 L 99.01 74.04 L 99.23 73.94 L 99.46 73.86 L 99.69 73.80 L 100.17 73.77 L 100.17 73.77 L 100.42 73.79 L 100.67 73.83 L 100.91 73.90 L 101.14 73.99 L 101.37 74.10 L 101.58 74.24 L 101.96 74.56 L 101.96 74.56 L 102.13 74.75 L 102.28 74.98 L 102.40 75.20 L 102.51 75.43 L 102.59 75.68 L 102.65 75.94 L 102.68 76.46 L 102.68 76.46 L 102.66 76.72 L 102.62 76.98 L 102.54 77.25 L 102.44 77.50 L 102.32 77.74 L 102.18 77.96 L 101.83 78.37 L 101.83 78.37 L 101.62 78.55 L 101.39 78.71 L 101.14 78.84 L 100.89 78.95 L 100.63 79.04 L 100.35 79.10 L 99.80 79.14 L 99.80 79.14 L 99.51 79.12 L 99.23 79.06 L 98.96 78.98 L 98.69 78.88 L 98.43 78.75 L 98.19 78.59 L 97.76 78.22 L 97.76 78.22 L 97.57 77.99 L 97.40 77.75 L 97.26 77.49 L 97.14 77.22 L 97.05 76.93 L 96.98 76.64 L 96.94 76.06 L 96.94 76.06 L 96.97 75.75 L 97.03 75.45 L 97.11 75.16 L 97.22 74.87 L 97.36 74.60 L 97.53 74.34 L 97.93 73.88 L 97.93 73.88 L 98.17 73.68 L 98.43 73.51 L 98.70 73.36 L 98.99 73.23 L 99.29 73.14 L 99.60 73.07 L 100.22 73.03 L 100.22 73.03 L 100.55 73.05 L 100.86 73.11 L 101.18 73.21 L 101.47 73.33 L 101.76 73.47 L 102.03 73.65 L 102.52 74.08 L 102.52 74.08 L 102.74 74.32 L 102.92 74.60 L 103.08 74.90 L 103.21 75.20 L 103.31 75.52 L 103.38 75.85 L 103.42 76.51 L 103.42 76.51 L 103.40 76.85 L 103.33 77.18 L 103.23 77.51 L 103.11 77.82 L 102.95 78.13 L 102.76 78.41 L 102.31 78.93 L 102.31 78.93 L 102.05 79.16 L 101.76 79.35 L 101.45 79.51 L 101.12 79.66 L 100.79 79.76 L 100.45 79.84 L 99.75 79.88 L 99.75 79.88 L 99.39 79.85 L 99.04 79.78 L 98.69 79.68 L 98.36 79.55 L 98.04 79.37 L 97.74 79.18 L 97.20 78.70 L 97.20 78.70 L 96.96 78.42 L 96.76 78.12 L 96.58 77.79 L 96.44 77.46 L 96.33 77.10 L 96.25 76.74 L 96.20 76.01 L 96.20 76.01 L 96.24 75.63 L 96.31 75.25 L 96.42 74.89 L 96.56 74.55 L 96.73 74.21 L 96.94 73.89 L 97.44 73.33 L 97.44 73.33 L 97.74 73.08 L 98.06 72.86 L 98.40 72.68 L 98.76 72.52 L 99.13 72.41 L 99.51 72.33 L 100.28 72.29 L 100.28 72.29 L 100.67 72.32 L 101.06 72.40 L 101.44 72.52 L 101.80 72.66 L 102.16 72.84 L 102.49 73.06 L 103.08 73.58 L 103.08 73.58 L 103.34 73.90 L 103.56 74.24 L 103.76 74.59 L 103.91 74.97 L 104.03 75.35 L 104.12 75.75 L 104.17 76.55 L 104.17 76.55 L 104.13 76.97 L 104.05 77.37 L 103.93 77.77 L 103.77 78.16 L 103.58 78.53 L 103.35 78.87 L 102.80 79.49 L 102.80 79.49 L 102.48 79.76 L 102.12 80.00 L 101.75 80.20 L 101.36 80.36 L 100.96 80.48 L 100.54 80.57 L 99.70 80.62 L 99.70 80.62 L 99.27 80.58 L 98.84 80.50 L 98.43 80.37 L 98.03 80.21 L 97.64 80.01 L 97.28 79.77 L 96.64 79.19 L 96.64 79.19 L 96.36 78.86 L 96.11 78.49 L 95.90 78.10 L 95.73 77.69 L 95.60 77.26 L 95.51 76.83 L 95.46 75.95 L 95.46 75.95 L 95.51 75.51 L 95.59 75.06 L 95.72 74.63 L 95.90 74.22 L 96.11 73.81 L 96.36 73.44 L 96.95 72.76 L 96.95 72.76 L 97.31 72.47 L 97.69 72.22 L 98.09 72.00 L 98.52 71.82 L 98.96 71.69 L 99.41 71.59 L 100.33 71.54 L 100.33 71.54 L 100.79 71.59 L 101.25 71.68 L 101.70 71.82 L 102.14 72.00 L 102.55 72.22 L 102.94 72.47 L 103.64 73.10 L 103.64 73.10 L 103.94 73.47 L 104.21 73.87 L 104.43 74.29 L 104.62 74.73 L 104.76 75.19 L 104.85 75.66 L 104.91 76.60 L 104.91 76.60 L 104.86 77.09 L 104.76 77.57 L 104.62 78.04 L 104.44 78.48 L 104.21 78.91 L 103.94 79.32 L 103.29 80.05 L 103.29 80.05 L 102.91 80.36 L 102.49 80.64 L 102.06 80.87 L 101.60 81.06 L 101.12 81.21 L 100.63 81.31 L 99.64 81.36 L 99.64 81.36 L 99.14 81.31 L 98.65 81.21 L 98.17 81.06 L 97.70 80.87 L 97.25 80.63 L 96.83 80.36 L 96.08 79.68 L 96.08 79.68 L 95.75 79.28 L 95.47 78.85 L 95.23 78.40 L 95.03 77.93 L 94.88 77.43 L 94.78 76.92 L 94.72 75.90 L 94.72 75.90 L 94.77 75.38 L 94.88 74.87 L 95.03 74.37 L 95.23 73.88 L 95.48 73.42 L 95.77 72.99 L 96.47 72.21 L 96.47 72.21 L 96.88 71.87 L 97.32 71.58 L 97.79 71.32 L 98.28 71.12 L 98.80 70.96 L 99.32 70.86 L 100.38 70.81 L 100.38 70.81 L 100.92 70.85 L 101.45 70.97 L 101.96 71.12 L 102.47 71.33 L 102.95 71.59 L 103.40 71.89 L 104.20 72.61 L 104.20 72.61 L 104.55 73.04 L 104.85 73.49 L 105.11 73.98 L 105.32 74.49 L 105.48 75.03 L 105.59 75.57 L 105.65 76.66 L 105.65 76.66 L 105.59 77.21 L 105.48 77.76 L 105.31 78.30 L 105.10 78.82 L 104.83 79.31 L 104.52 79.78 L 103.78 80.61 L 103.78 80.61 L 103.34 80.97 L 102.86 81.28 L 102.36 81.55 L 101.84 81.77 L 101.29 81.93 L 100.73 82.04 L 99.59 82.10 L 99.59 82.10 L 99.02 82.04 L 98.45 81.92 L 97.89 81.74 L 97.36 81.52 L 96.84 81.25 L 96.36 80.93 L 95.92 80.57 L 95.52 80.17 L 94.95 79.39 L 94.47 78.43 L 94.15 77.30 L 94.07 75.93 L 94.28 74.66 L 94.67 73.64 L 95.23 72.72 L 96.00 71.87 L 97.14 71.06 L 98.39 70.55 L 100.00 70.33 L 101.29 70.47 L 102.47 70.86 L 103.61 71.54 L 104.35 72.22 L 105.09 73.21 L 105.69 74.57 L 105.93 75.89 L 105.89 77.05 L 105.63 78.16 L 105.15 79.23 L 104.58 80.05 L 103.99 80.67 L 103.51 81.06 L 103.06 81.36 L 102.50 81.66 L 101.60 81.99 L 100.88 82.14 L 99.93 82.21 L 99.16 82.15 L 98.27 81.95 L 97.31 81.56 L 96.60 81.14 L 96.08 80.71 L 95.57 80.22 L 95.20 79.77 L 94.77 79.04 L 94.33 77.94 L 94.11 76.61 L 94.17 75.30 L 94.47 74.10 L 94.92 73.19 L 95.50 72.38 L 96.48 71.48 L 97.53 70.86 L 98.82 70.44 L 99.94 70.33 L 100.11 70.33 L 100.48 70.32 L 100.99 70.37 L 101.52 70.43 L 102.08 70.51 L 102.54 70.60 L 103.94 71.00 L 104.51 71.22 L 105.70 71.78 L 106.70 72.40 L 107.93 73.36 L 108.68 74.10 L 109.67 75.30 L 110.42 76.50 L 111.31 78.59 L 111.78 80.64 L 111.85 81.46 L 111.77 83.81 L 111.32 85.81 L 110.00 88.61 L 107.89 91.09 L 105.48 92.75 L 102.61 93.80 L 101.65 93.97 L 100.47 94.08 L 100.11 94.09 L 99.94 94.09 L 98.82 94.21 L 97.53 94.63 L 96.48 95.24 L 95.50 96.14 L 94.91 96.95 L 94.47 97.85 L 94.17 99.06 L 94.11 100.37 L 94.33 101.70 L 94.77 102.80 L 95.20 103.53 L 95.57 103.98 L 96.09 104.47 L 96.60 104.91 L 97.31 105.33 L 98.27 105.71 L 99.16 105.91 L 99.93 105.97 L 100.88 105.90 L 101.60 105.75 L 102.50 105.42 L 103.06 105.12 L 103.50 104.82 L 103.99 104.43 L 104.58 103.81 L 105.15 102.98 L 105.63 101.92 L 105.88 100.81 L 105.93 99.65 L 105.69 98.33 L 105.09 96.97 L 104.35 95.98 L 103.61 95.31 L 102.46 94.62 L 101.29 94.23 L 100.00 94.09 L 98.39 94.31 L 97.14 94.83 L 96.00 95.63 L 95.24 96.48 L 94.67 97.40 L 94.28 98.43 L 94.07 99.69 L 94.15 101.06 L 94.47 102.19 L 94.95 103.15 L 95.52 103.93 L 95.92 104.33 L 96.36 104.69 L 96.84 105.01 L 97.36 105.28 L 97.89 105.51 L 98.45 105.68 L 99.02 105.80 L 99.59 105.86 L 99.59 105.86 L 100.73 105.80 L 101.29 105.70 L 101.83 105.53 L 102.36 105.31 L 102.86 105.04 L 103.34 104.73 L 103.78 104.37 L 103.78 104.37 L 104.52 103.54 L 104.83 103.07 L 105.10 102.58 L 105.31 102.06 L 105.48 101.52 L 105.59 100.98 L 105.65 100.42 L 105.65 100.42 L 105.59 99.32 L 105.48 98.78 L 105.32 98.25 L 105.11 97.74 L 104.85 97.26 L 104.55 96.80 L 104.20 96.37 L 104.20 96.37 L 103.39 95.65 L 102.95 95.35 L 102.47 95.09 L 101.97 94.88 L 101.45 94.72 L 100.92 94.61 L 100.38 94.57 L 100.38 94.57 L 99.32 94.63 L 98.80 94.73 L 98.28 94.88 L 97.79 95.08 L 97.32 95.33 L 96.88 95.63 L 96.47 95.97 L 96.47 95.97 L 95.77 96.75 L 95.48 97.18 L 95.23 97.64 L 95.03 98.13 L 94.88 98.63 L 94.77 99.14 L 94.72 99.66 L 94.72 99.66 L 94.78 100.69 L 94.88 101.19 L 95.03 101.68 L 95.23 102.16 L 95.47 102.61 L 95.76 103.04 L 96.07 103.44 L 96.07 103.44 L 96.83 104.11 L 97.25 104.39 L 97.70 104.63 L 98.17 104.82 L 98.65 104.97 L 99.14 105.07 L 99.65 105.12 L 99.65 105.12 L 100.63 105.06 L 101.12 104.97 L 101.60 104.82 L 102.06 104.63 L 102.49 104.40 L 102.90 104.12 L 103.29 103.81 L 103.29 103.81 L 103.94 103.09 L 104.21 102.68 L 104.43 102.25 L 104.62 101.80 L 104.77 101.33 L 104.86 100.85 L 104.91 100.37 L 104.91 100.37 L 104.85 99.42 L 104.75 98.95 L 104.62 98.49 L 104.43 98.05 L 104.21 97.63 L 103.95 97.23 L 103.64 96.86 L 103.64 96.86 L 102.94 96.23 L 102.55 95.98 L 102.14 95.76 L 101.70 95.58 L 101.25 95.44 L 100.79 95.35 L 100.33 95.30 L 100.33 95.30 L 99.41 95.36 L 98.96 95.45 L 98.52 95.59 L 98.10 95.76 L 97.69 95.98 L 97.31 96.24 L 96.96 96.53 L 96.96 96.53 L 96.35 97.20 L 96.10 97.57 L 95.89 97.97 L 95.72 98.39 L 95.59 98.82 L 95.51 99.26 L 95.46 99.71 L 95.46 99.71 L 95.51 100.59 L 95.60 101.03 L 95.73 101.45 L 95.90 101.86 L 96.11 102.25 L 96.36 102.61 L 96.64 102.95 L 96.64 102.95 L 97.28 103.53 L 97.65 103.76 L 98.03 103.96 L 98.43 104.13 L 98.84 104.26 L 99.27 104.34 L 99.70 104.38 L 99.70 104.38 L 100.54 104.33 L 100.96 104.24 L 101.36 104.12 L 101.75 103.96 L 102.12 103.75 L 102.48 103.52 L 102.80 103.25 L 102.80 103.25 L 103.35 102.63 L 103.58 102.29 L 103.77 101.92 L 103.93 101.53 L 104.05 101.13 L 104.13 100.73 L 104.16 100.32 L 104.16 100.32 L 104.12 99.51 L 104.03 99.11 L 103.91 98.73 L 103.76 98.35 L 103.57 97.99 L 103.34 97.66 L 103.08 97.35 L 103.08 97.35 L 102.49 96.83 L 102.16 96.60 L 101.80 96.42 L 101.44 96.27 L 101.06 96.16 L 100.67 96.08 L 100.28 96.05 L 100.28 96.05 L 99.50 96.09 L 99.13 96.17 L 98.76 96.29 L 98.40 96.44 L 98.06 96.62 L 97.74 96.84 L 97.44 97.09 L 97.44 97.09 L 96.94 97.65 L 96.74 97.97 L 96.56 98.30 L 96.42 98.66 L 96.31 99.02 L 96.23 99.39 L 96.20 99.76 L 96.20 99.76 L 96.25 100.50 L 96.33 100.86 L 96.44 101.21 L 96.58 101.55 L 96.76 101.87 L 96.96 102.18 L 97.20 102.47 L 97.20 102.47 L 97.74 102.94 L 98.04 103.14 L 98.36 103.30 L 98.69 103.44 L 99.04 103.53 L 99.39 103.60 L 99.75 103.64 L 99.75 103.64 L 100.45 103.59 L 100.79 103.52 L 101.12 103.41 L 101.45 103.28 L 101.76 103.11 L 102.05 102.92 L 102.31 102.69 L 102.31 102.69 L 102.77 102.18 L 102.95 101.89 L 103.11 101.59 L 103.23 101.27 L 103.33 100.94 L 103.39 100.60 L 103.43 100.27 L 103.43 100.27 L 103.38 99.60 L 103.32 99.28 L 103.21 98.96 L 103.08 98.66 L 102.92 98.36 L 102.74 98.09 L 102.52 97.84 L 102.52 97.84 L 102.03 97.41 L 101.76 97.24 L 101.47 97.08 L 101.18 96.96 L 100.86 96.88 L 100.55 96.82 L 100.22 96.79 L 100.22 96.79 L 99.60 96.83 L 99.29 96.89 L 98.99 96.99 L 98.70 97.12 L 98.43 97.27 L 98.17 97.45 L 97.93 97.65 L 97.93 97.65 L 97.53 98.11 L 97.36 98.36 L 97.22 98.63 L 97.11 98.92 L 97.02 99.21 L 96.97 99.51 L 96.95 99.81 L 96.95 99.81 L 96.99 100.40 L 97.05 100.69 L 97.14 100.98 L 97.26 101.25 L 97.40 101.51 L 97.57 101.75 L 97.76 101.98 L 97.76 101.98 L 98.19 102.35 L 98.44 102.50 L 98.69 102.64 L 98.96 102.74 L 99.23 102.82 L 99.51 102.88 L 99.80 102.90 L 99.80 102.90 L 100.35 102.86 L 100.62 102.79 L 100.89 102.71 L 101.15 102.60 L 101.39 102.46 L 101.62 102.31 L 101.83 102.13 L 101.83 102.13 L 102.17 101.72 L 102.32 101.50 L 102.44 101.25 L 102.54 101.01 L 102.61 100.74 L 102.67 100.48 L 102.68 100.21 L 102.68 100.21 L 102.65 99.70 L 102.59 99.44 L 102.51 99.19 L 102.40 98.96 L 102.28 98.73 L 102.13 98.52 L 101.96 98.32 L 101.96 98.32 L 101.58 97.99 L 101.37 97.86 L 101.15 97.75 L 100.91 97.66 L 100.67 97.59 L 100.42 97.54 L 100.17 97.53 L 100.17 97.53 L 99.69 97.56 L 99.46 97.62 L 99.23 97.70 L 99.01 97.79 L 98.80 97.91 L 98.60 98.05 L 98.41 98.21 L 98.41 98.21 L 98.11 98.56 L 97.99 98.76 L 97.89 98.97 L 97.81 99.18 L 97.74 99.41 L 97.70 99.63 L 97.68 99.87 L 97.68 99.87 L 97.72 100.31 L 97.85 100.74 L 97.94 100.94 L 98.04 101.14 L 98.17 101.32 L 98.32 101.49 L 98.32 101.49 L 99.02 101.97 L 99.43 102.11 L 99.64 102.14 L 99.85 102.15 L 99.85 102.15 L 100.65 102.01 L 101.02 101.82 L 101.34 101.57 L 101.34 101.57 L 101.78 100.92 L 101.90 100.55 L 101.95 100.16 L 101.95 100.16 L 101.80 99.43 L 101.63 99.10 L 101.40 98.81 L 101.40 98.81 L 100.81 98.41 L 100.48 98.30 L 100.12 98.27 L 100.12 98.27 L 99.46 98.40 L 99.16 98.55 L 98.91 98.77 L 98.91 98.77 L 98.55 99.30 L 98.46 99.60 L 98.43 99.92 L 98.43 99.92 L 98.55 100.50 L 98.69 100.77 L 98.88 101.00 L 98.88 101.00 L 99.35 101.31 L 99.62 101.39 L 99.90 101.42 L 99.90 101.42 L 100.42 101.30 L 100.65 101.18 L 100.85 101.01 L 100.85 101.01 L 101.11 100.59 L 101.18 100.36 L 101.20 100.11 L 101.20 100.11 L 101.10 99.67 L 100.99 99.47 L 100.84 99.29 L 100.84 99.29 L 100.48 99.07 L 100.28 99.02 L 100.07 99.01 L 100.07 99.01 L 99.70 99.10 L 99.53 99.20 L 99.39 99.33 L 99.39 99.33 L 99.21 99.63 L 99.17 99.79 L 99.16 99.97 L 99.16 99.97 L 99.25 100.27 L 99.33 100.40 L 99.44 100.52 L 99.44 100.52 L 99.68 100.65 L 99.82 100.68 L 99.95 100.67 L 99.95 100.67 L 100.18 100.60 L 100.28 100.53 L 100.36 100.45 L 100.36 100.45 L 100.47 100.16 L 100.46 100.06 L 100.46 100.06 L 100.28 99.79 L 100.28 99.79 L 100.02 99.75 L 100.02 99.75 L 99.87 99.88 L 99.87 99.88 L 99.90 100.02 L 99.90 100.02 L 100.06 99.95" 
          fill="none" 
          stroke="currentColor" 
          stroke-width="0.5"/>
</svg>