<?xml version="1.0" encoding="UTF-8" standalone="no"?>
<svg width="100%" height="100%" viewBox="0 0 200 200" preserveAspectRatio="xMidYMid meet" xmlns="http://www.w3.org/2000/svg">
    <path d="M 100.00 100.00 L 100.00 100.00 L 99.23 99.55 L 62.14 78.14 L 62.14 72.79 L 62.14 66.55 L 62.14 60.30 L 62.14 54.06 L 62.14 46.92 L 62.14 38.89 L 62.14 34.43 L 69.10 30.41 L 76.05 26.40 L 83.00 22.38 L 89.96 18.37 L 96.91 14.36 L 100.00 12.57 L 106.95 16.59 L 113.91 20.60 L 120.86 24.62 L 127.81 28.63 L 134.77 32.64 L 137.86 34.43 L 137.86 42.46 L 137.86 49.59 L 137.86 56.73 L 137.86 62.98 L 137.86 69.22 L 137.86 75.47 L 137.86 78.14 L 100.77 99.55 L 100.00 100.00 L 99.55 99.23 L 78.14 62.14 L 80.82 57.51 L 83.94 52.10 L 87.06 46.69 L 90.19 41.28 L 93.76 35.10 L 97.77 28.15 L 100.00 24.28 L 108.03 24.28 L 116.06 24.28 L 124.09 24.28 L 132.12 24.28 L 140.15 24.28 L 143.71 24.28 L 147.73 31.24 L 151.74 38.19 L 155.76 45.14 L 159.77 52.10 L 163.79 59.05 L 165.57 62.14 L 161.56 69.10 L 157.99 75.28 L 154.42 81.46 L 151.30 86.87 L 148.17 92.27 L 145.05 97.68 L 143.71 100.00 L 100.89 100.00 L 100.00 100.00 L 100.00 99.11 L 100.00 56.29 L 104.64 53.61 L 110.04 50.49 L 115.45 47.36 L 120.86 44.24 L 127.04 40.67 L 133.99 36.66 L 137.86 34.43 L 144.81 38.44 L 151.76 42.46 L 158.72 46.47 L 165.67 50.49 L 172.62 54.50 L 175.72 56.29 L 175.72 64.31 L 175.72 72.34 L 175.72 80.37 L 175.72 88.40 L 175.72 96.43 L 175.72 100.00 L 168.76 104.01 L 162.58 107.58 L 156.40 111.15 L 150.99 114.27 L 145.58 117.40 L 140.18 120.52 L 137.86 121.86 L 100.77 100.45 L 100.00 100.00 L 100.45 99.23 L 121.86 62.14 L 127.21 62.14 L 133.45 62.14 L 139.70 62.14 L 145.94 62.14 L 153.08 62.14 L 161.11 62.14 L 165.57 62.14 L 169.59 69.10 L 173.60 76.05 L 177.62 83.00 L 181.63 89.96 L 185.64 96.91 L 187.43 100.00 L 183.41 106.95 L 179.40 113.91 L 175.38 120.86 L 171.37 127.81 L 167.36 134.77 L 165.57 137.86 L 157.54 137.86 L 150.41 137.86 L 143.27 137.86 L 137.02 137.86 L 130.78 137.86 L 124.53 137.86 L 121.86 137.86 L 100.45 100.77 L 100.00 100.00 L 100.77 99.55 L 137.86 78.14 L 142.49 80.82 L 147.90 83.94 L 153.31 87.06 L 158.72 90.19 L 164.90 93.76 L 171.85 97.77 L 175.72 100.00 L 175.72 108.03 L 175.72 116.06 L 175.72 124.09 L 175.72 132.12 L 175.72 140.15 L 175.72 143.71 L 168.76 147.73 L 161.81 151.74 L 154.86 155.76 L 147.90 159.77 L 140.95 163.79 L 137.86 165.57 L 130.90 161.56 L 124.72 157.99 L 118.54 154.42 L 113.13 151.30 L 107.73 148.17 L 102.32 145.05 L 100.00 143.71 L 100.00 100.89 L 100.00 100.00 L 100.89 100.00 L 143.71 100.00 L 146.39 104.64 L 149.51 110.04 L 152.64 115.45 L 155.76 120.86 L 159.33 127.04 L 163.34 133.99 L 165.57 137.86 L 161.56 144.81 L 157.54 151.76 L 153.53 158.72 L 149.51 165.67 L 145.50 172.62 L 143.71 175.72 L 135.69 175.72 L 127.66 175.72 L 119.63 175.72 L 111.60 175.72 L 103.57 175.72 L 100.00 175.72 L 95.99 168.76 L 92.42 162.58 L 88.85 156.40 L 85.73 150.99 L 82.60 145.58 L 79.48 140.18 L 78.14 137.86 L 99.55 100.77 L 100.00 100.00 L 100.77 100.45 L 137.86 121.86 L 137.86 127.21 L 137.86 133.45 L 137.86 139.70 L 137.86 145.94 L 137.86 153.08 L 137.86 161.11 L 137.86 165.57 L 130.90 169.59 L 123.95 173.60 L 117.00 177.62 L 110.04 181.63 L 103.09 185.64 L 100.00 187.43 L 93.05 183.41 L 86.09 179.40 L 79.14 175.38 L 72.19 171.37 L 65.23 167.36 L 62.14 165.57 L 62.14 157.54 L 62.14 150.41 L 62.14 143.27 L 62.14 137.02 L 62.14 130.78 L 62.14 124.53 L 62.14 121.86 L 99.23 100.45 L 100.00 100.00 L 100.45 100.77 L 121.86 137.86 L 119.18 142.49 L 116.06 147.90 L 112.94 153.31 L 109.81 158.72 L 106.24 164.90 L 102.23 171.85 L 100.00 175.72 L 91.97 175.72 L 83.94 175.72 L 75.91 175.72 L 67.88 175.72 L 59.85 175.72 L 56.29 175.72 L 52.27 168.76 L 48.26 161.81 L 44.24 154.86 L 40.23 147.90 L 36.21 140.95 L 34.43 137.86 L 38.44 130.90 L 42.01 124.72 L 45.58 118.54 L 48.70 113.13 L 51.83 107.73 L 54.95 102.32 L 56.29 100.00 L 99.11 100.00 L 100.00 100.00 L 100.00 100.89 L 100.00 143.71 L 95.36 146.39 L 89.96 149.51 L 84.55 152.64 L 79.14 155.76 L 72.96 159.33 L 66.01 163.34 L 62.14 165.57 L 55.19 161.56 L 48.24 157.54 L 41.28 153.53 L 34.33 149.51 L 27.38 145.50 L 24.28 143.71 L 24.28 135.69 L 24.28 127.66 L 24.28 119.63 L 24.28 111.60 L 24.28 103.57 L 24.28 100.00 L 31.24 95.99 L 37.42 92.42 L 43.60 88.85 L 49.01 85.73 L 54.42 82.60 L 59.82 79.48 L 62.14 78.14 L 99.23 99.55 L 100.00 100.00 L 99.55 100.77 L 78.14 137.86 L 72.79 137.86 L 66.55 137.86 L 60.30 137.86 L 54.06 137.86 L 46.92 137.86 L 38.89 137.86 L 34.43 137.86 L 30.41 130.90 L 26.40 123.95 L 22.38 117.00 L 18.37 110.04 L 14.36 103.09 L 12.57 100.00 L 16.59 93.05 L 20.60 86.09 L 24.62 79.14 L 28.63 72.19 L 32.64 65.23 L 34.43 62.14 L 42.46 62.14 L 49.59 62.14 L 56.73 62.14 L 62.98 62.14 L 69.22 62.14 L 75.47 62.14 L 78.14 62.14 L 99.55 99.23 L 100.00 100.00 L 99.23 100.45 L 62.14 121.86 L 57.51 119.18 L 52.10 116.06 L 46.69 112.94 L 41.28 109.81 L 35.10 106.24 L 28.15 102.23 L 24.28 100.00 L 24.28 91.97 L 24.28 83.94 L 24.28 75.91 L 24.28 67.88 L 24.28 59.85 L 24.28 56.29 L 31.24 52.27 L 38.19 48.26 L 45.14 44.24 L 52.10 40.23 L 59.05 36.21 L 62.14 34.43 L 69.10 38.44 L 75.28 42.01 L 81.46 45.58 L 86.87 48.70 L 92.27 51.83 L 97.68 54.95 L 100.00 56.29 L 100.00 99.11 L 100.00 100.00 L 99.11 100.00 L 56.29 100.00 L 53.61 95.36 L 50.49 89.96 L 47.36 84.55 L 44.24 79.14 L 40.67 72.96 L 36.66 66.01 L 34.43 62.14 L 38.44 55.19 L 42.46 48.24 L 46.47 41.28 L 50.49 34.33 L 54.50 27.38 L 56.29 24.28 L 64.31 24.28 L 72.34 24.28 L 80.37 24.28 L 88.40 24.28 L 96.43 24.28 L 100.00 24.28 L 104.01 31.24 L 107.58 37.42 L 111.15 43.60 L 114.27 49.01 L 117.40 54.42 L 120.52 59.82 L 121.86 62.14 L 100.45 99.23 L 100.00 100.00 L 99.23 99.55 L 78.37 87.51 L 78.37 83.05 L 78.37 78.59 L 78.37 74.13 L 78.37 68.78 L 78.37 62.53 L 83.78 59.41 L 89.18 56.29 L 94.59 53.16 L 100.00 50.04 L 105.41 53.16 L 110.82 56.29 L 116.22 59.41 L 121.63 62.53 L 121.63 68.78 L 121.63 74.13 L 121.63 78.59 L 121.63 83.05 L 121.63 87.51 L 100.77 99.55 L 100.00 100.00 L 99.55 99.23 L 87.51 78.37 L 89.74 74.50 L 91.97 70.64 L 94.20 66.78 L 96.88 62.14 L 100.00 56.73 L 106.24 56.73 L 112.49 56.73 L 118.73 56.73 L 124.98 56.73 L 128.10 62.14 L 131.22 67.55 L 134.35 72.96 L 137.47 78.37 L 134.35 83.78 L 131.67 88.41 L 129.44 92.27 L 127.21 96.14 L 124.98 100.00 L 100.89 100.00 L 100.00 100.00 L 100.00 99.11 L 100.00 75.02 L 103.86 72.79 L 107.73 70.56 L 111.59 68.33 L 116.22 65.65 L 121.63 62.53 L 127.04 65.65 L 132.45 68.78 L 137.86 71.90 L 143.27 75.02 L 143.27 81.27 L 143.27 87.51 L 143.27 93.76 L 143.27 100.00 L 137.86 103.12 L 133.22 105.80 L 129.36 108.03 L 125.50 110.26 L 121.63 112.49 L 100.77 100.45 L 100.00 100.00 L 100.45 99.23 L 112.49 78.37 L 116.95 78.37 L 121.41 78.37 L 125.87 78.37 L 131.22 78.37 L 137.47 78.37 L 140.59 83.78 L 143.71 89.18 L 146.84 94.59 L 149.96 100.00 L 146.84 105.41 L 143.71 110.82 L 140.59 116.22 L 137.47 121.63 L 131.22 121.63 L 125.87 121.63 L 121.41 121.63 L 116.95 121.63 L 112.49 121.63 L 100.45 100.77 L 100.00 100.00 L 100.77 99.55 L 121.63 87.51 L 125.50 89.74 L 129.36 91.97 L 133.22 94.20 L 137.86 96.88 L 143.27 100.00 L 143.27 106.24 L 143.27 112.49 L 143.27 118.73 L 143.27 124.98 L 137.86 128.10 L 132.45 131.22 L 127.04 134.35 L 121.63 137.47 L 116.22 134.35 L 111.59 131.67 L 107.73 129.44 L 103.86 127.21 L 100.00 124.98 L 100.00 100.89 L 100.00 100.00 L 100.89 100.00 L 124.98 100.00 L 127.21 103.86 L 129.44 107.73 L 131.67 111.59 L 134.35 116.22 L 137.47 121.63 L 134.35 127.04 L 131.22 132.45 L 128.10 137.86 L 124.98 143.27 L 118.73 143.27 L 112.49 143.27 L 106.24 143.27 L 100.00 143.27 L 96.88 137.86 L 94.20 133.22 L 91.97 129.36 L 89.74 125.50 L 87.51 121.63 L 99.55 100.77 L 100.00 100.00 L 100.77 100.45 L 121.63 112.49 L 121.63 116.95 L 121.63 121.41 L 121.63 125.87 L 121.63 131.22 L 121.63 137.47 L 116.22 140.59 L 110.82 143.71 L 105.41 146.84 L 100.00 149.96 L 94.59 146.84 L 89.18 143.71 L 83.78 140.59 L 78.37 137.47 L 78.37 131.22 L 78.37 125.87 L 78.37 121.41 L 78.37 116.95 L 78.37 112.49 L 99.23 100.45 L 100.00 100.00 L 100.45 100.77 L 112.49 121.63 L 110.26 125.50 L 108.03 129.36 L 105.80 133.22 L 103.12 137.86 L 100.00 143.27 L 93.76 143.27 L 87.51 143.27 L 81.27 143.27 L 75.02 143.27 L 71.90 137.86 L 68.78 132.45 L 65.65 127.04 L 62.53 121.63 L 65.65 116.22 L 68.33 111.59 L 70.56 107.73 L 72.79 103.86 L 75.02 100.00 L 99.11 100.00 L 100.00 100.00 L 100.00 100.89 L 100.00 124.98 L 96.14 127.21 L 92.27 129.44 L 88.41 131.67 L 83.78 134.35 L 78.37 137.47 L 72.96 134.35 L 67.55 131.22 L 62.14 128.10 L 56.73 124.98 L 56.73 118.73 L 56.73 112.49 L 56.73 106.24 L 56.73 100.00 L 62.14 96.88 L 66.78 94.20 L 70.64 91.97 L 74.50 89.74 L 78.37 87.51 L 99.23 99.55 L 100.00 100.00 L 99.55 100.77 L 87.51 121.63 L 83.05 121.63 L 78.59 121.63 L 74.13 121.63 L 68.78 121.63 L 62.53 121.63 L 59.41 116.22 L 56.29 110.82 L 53.16 105.41 L 50.04 100.00 L 53.16 94.59 L 56.29 89.18 L 59.41 83.78 L 62.53 78.37 L 68.78 78.37 L 74.13 78.37 L 78.59 78.37 L 83.05 78.37 L 87.51 78.37 L 99.55 99.23 L 100.00 100.00 L 99.23 100.45 L 78.37 112.49 L 74.50 110.26 L 70.64 108.03 L 66.78 105.80 L 62.14 103.12 L 56.73 100.00 L 56.73 93.76 L 56.73 87.51 L 56.73 81.27 L 56.73 75.02 L 62.14 71.90 L 67.55 68.78 L 72.96 65.65 L 78.37 62.53 L 83.78 65.65 L 88.41 68.33 L 92.27 70.56 L 96.14 72.79 L 100.00 75.02 L 100.00 99.11 L 100.00 100.00 L 99.11 100.00 L 75.02 100.00 L 72.79 96.14 L 70.56 92.27 L 68.33 88.41 L 65.65 83.78 L 62.53 78.37 L 65.65 72.96 L 68.78 67.55 L 71.90 62.14 L 75.02 56.73 L 81.27 56.73 L 87.51 56.73 L 93.76 56.73 L 100.00 56.73 L 103.12 62.14 L 105.80 66.78 L 108.03 70.64 L 110.26 74.50 L 112.49 78.37 L 100.45 99.23 L 100.00 100.00 L 99.23 99.55 L 87.64 92.86 L 87.64 90.19 L 87.64 86.62 L 87.64 83.05 L 87.64 78.59 L 91.50 76.36 L 95.36 74.13 L 99.23 71.90 L 100.00 71.45 L 103.86 73.68 L 107.73 75.91 L 111.59 78.14 L 112.36 78.59 L 112.36 83.05 L 112.36 86.62 L 112.36 90.19 L 112.36 92.86 L 100.77 99.55 L 100.00 100.00 L 99.55 99.23 L 92.86 87.64 L 94.20 85.32 L 95.99 82.23 L 97.77 79.14 L 100.00 75.28 L 104.46 75.28 L 108.92 75.28 L 113.38 75.28 L 114.27 75.28 L 116.50 79.14 L 118.73 83.00 L 120.97 86.87 L 121.41 87.64 L 119.18 91.50 L 117.40 94.59 L 115.61 97.68 L 114.27 100.00 L 100.89 100.00 L 100.00 100.00 L 100.00 99.11 L 100.00 85.73 L 102.32 84.39 L 105.41 82.60 L 108.50 80.82 L 112.36 78.59 L 116.22 80.82 L 120.09 83.05 L 123.95 85.28 L 124.72 85.73 L 124.72 90.19 L 124.72 94.65 L 124.72 99.11 L 124.72 100.00 L 120.86 102.23 L 117.77 104.01 L 114.68 105.80 L 112.36 107.14 L 100.77 100.45 L 100.00 100.00 L 100.45 99.23 L 107.14 87.64 L 109.81 87.64 L 113.38 87.64 L 116.95 87.64 L 121.41 87.64 L 123.64 91.50 L 125.87 95.36 L 128.10 99.23 L 128.55 100.00 L 126.32 103.86 L 124.09 107.73 L 121.86 111.59 L 121.41 112.36 L 116.95 112.36 L 113.38 112.36 L 109.81 112.36 L 107.14 112.36 L 100.45 100.77 L 100.00 100.00 L 100.77 99.55 L 112.36 92.86 L 114.68 94.20 L 117.77 95.99 L 120.86 97.77 L 124.72 100.00 L 124.72 104.46 L 124.72 108.92 L 124.72 113.38 L 124.72 114.27 L 120.86 116.50 L 117.00 118.73 L 113.13 120.97 L 112.36 121.41 L 108.50 119.18 L 105.41 117.40 L 102.32 115.61 L 100.00 114.27 L 100.00 100.89 L 100.00 100.00 L 100.89 100.00 L 114.27 100.00 L 115.61 102.32 L 117.40 105.41 L 119.18 108.50 L 121.41 112.36 L 119.18 116.22 L 116.95 120.09 L 114.72 123.95 L 114.27 124.72 L 109.81 124.72 L 105.35 124.72 L 100.89 124.72 L 100.00 124.72 L 97.77 120.86 L 95.99 117.77 L 94.20 114.68 L 92.86 112.36 L 99.55 100.77 L 100.00 100.00 L 100.77 100.45 L 112.36 107.14 L 112.36 109.81 L 112.36 113.38 L 112.36 116.95 L 112.36 121.41 L 108.50 123.64 L 104.64 125.87 L 100.77 128.10 L 100.00 128.55 L 96.14 126.32 L 92.27 124.09 L 88.41 121.86 L 87.64 121.41 L 87.64 116.95 L 87.64 113.38 L 87.64 109.81 L 87.64 107.14 L 99.23 100.45 L 100.00 100.00 L 100.45 100.77 L 107.14 112.36 L 105.80 114.68 L 104.01 117.77 L 102.23 120.86 L 100.00 124.72 L 95.54 124.72 L 91.08 124.72 L 86.62 124.72 L 85.73 124.72 L 83.50 120.86 L 81.27 117.00 L 79.03 113.13 L 78.59 112.36 L 80.82 108.50 L 82.60 105.41 L 84.39 102.32 L 85.73 100.00 L 100.00 100.00 L 100.00 100.89 L 100.00 114.27 L 97.68 115.61 L 94.59 117.40 L 91.50 119.18 L 87.64 121.41 L 83.78 119.18 L 79.91 116.95 L 76.05 114.72 L 75.28 114.27 L 75.28 109.81 L 75.28 105.35 L 75.28 100.89 L 75.28 100.00 L 79.14 97.77 L 82.23 95.99 L 85.32 94.20 L 87.64 92.86 L 99.23 99.55 L 100.00 100.00 L 99.55 100.77 L 92.86 112.36 L 90.19 112.36 L 86.62 112.36 L 83.05 112.36 L 78.59 112.36 L 76.36 108.50 L 74.13 104.64 L 71.90 100.77 L 71.45 100.00 L 73.68 96.14 L 75.91 92.27 L 78.14 88.41 L 78.59 87.64 L 83.05 87.64 L 86.62 87.64 L 90.19 87.64 L 92.86 87.64 L 99.55 99.23 L 100.00 100.00 L 98.45 100.89 L 87.64 107.14 L 85.32 105.80 L 82.23 104.01 L 79.14 102.23 L 75.28 100.00 L 75.28 95.54 L 75.28 91.08 L 75.28 86.62 L 75.28 85.73 L 79.14 83.50 L 83.00 81.27 L 86.87 79.03 L 87.64 78.59 L 91.50 80.82 L 94.59 82.60 L 97.68 84.39 L 100.00 85.73 L 100.00 99.11 L 100.00 100.00 L 99.11 100.00 L 85.73 100.00 L 84.39 97.68 L 82.60 94.59 L 80.82 91.50 L 78.59 87.64 L 80.82 83.78 L 83.05 79.91 L 85.28 76.05 L 85.73 75.28 L 90.19 75.28 L 94.65 75.28 L 99.11 75.28 L 100.00 75.28 L 102.23 79.14 L 104.01 82.23 L 105.80 85.32 L 107.14 87.64 L 100.45 99.23 L 100.00 100.00 L 99.29 99.59 L 92.94 95.92 L 92.94 93.47 L 92.94 91.03 L 92.94 87.77 L 95.76 86.13 L 98.59 84.50 L 100.00 83.69 L 102.83 85.32 L 105.65 86.95 L 107.06 87.77 L 107.06 91.03 L 107.06 93.47 L 107.06 95.92 L 100.71 99.59 L 100.00 100.00 L 99.59 99.29 L 95.92 92.94 L 97.15 90.82 L 98.37 88.70 L 100.00 85.87 L 103.26 85.87 L 106.53 85.87 L 108.16 85.87 L 109.79 88.70 L 111.42 91.52 L 112.23 92.94 L 110.60 95.76 L 109.38 97.88 L 108.16 100.00 L 100.82 100.00 L 100.00 100.00 L 100.00 99.18 L 100.00 91.84 L 102.12 90.62 L 104.24 89.40 L 107.06 87.77 L 109.89 89.40 L 112.71 91.03 L 114.13 91.84 L 114.13 95.11 L 114.13 98.37 L 114.13 100.00 L 111.30 101.63 L 109.18 102.85 L 107.06 104.08 L 100.71 100.41 L 100.00 100.00 L 100.41 99.29 L 104.08 92.94 L 106.53 92.94 L 108.97 92.94 L 112.23 92.94 L 113.87 95.76 L 115.50 98.59 L 116.31 100.00 L 114.68 102.83 L 113.05 105.65 L 112.23 107.06 L 108.97 107.06 L 106.53 107.06 L 104.08 107.06 L 100.41 100.71 L 100.00 100.00 L 100.71 99.59 L 107.06 95.92 L 109.18 97.15 L 111.30 98.37 L 114.13 100.00 L 114.13 103.26 L 114.13 106.53 L 114.13 108.16 L 111.30 109.79 L 108.48 111.42 L 107.06 112.23 L 104.24 110.60 L 102.12 109.38 L 100.00 108.16 L 100.00 100.82 L 100.00 100.00 L 100.82 100.00 L 108.16 100.00 L 109.38 102.12 L 110.60 104.24 L 112.23 107.06 L 110.60 109.89 L 108.97 112.71 L 108.16 114.13 L 104.89 114.13 L 101.63 114.13 L 100.00 114.13 L 98.37 111.30 L 97.15 109.18 L 95.92 107.06 L 99.59 100.71 L 100.00 100.00 L 100.71 100.41 L 107.06 104.08 L 107.06 106.53 L 107.06 108.97 L 107.06 112.23 L 104.24 113.87 L 101.41 115.50 L 100.00 116.31 L 97.17 114.68 L 94.35 113.05 L 92.94 112.23 L 92.94 108.97 L 92.94 106.53 L 92.94 104.08 L 99.29 100.41 L 100.00 100.00 L 100.41 100.71 L 104.08 107.06 L 102.85 109.18 L 101.63 111.30 L 100.00 114.13 L 96.74 114.13 L 93.47 114.13 L 91.84 114.13 L 90.21 111.30 L 88.58 108.48 L 87.77 107.06 L 89.40 104.24 L 90.62 102.12 L 91.84 100.00 L 99.18 100.00 L 100.00 100.00 L 100.00 100.82 L 100.00 108.16 L 97.88 109.38 L 95.76 110.60 L 92.94 112.23 L 90.11 110.60 L 87.29 108.97 L 85.87 108.16 L 85.87 104.89 L 85.87 101.63 L 85.87 100.00 L 88.70 98.37 L 90.82 97.15 L 92.94 95.92 L 99.29 99.59 L 100.00 100.00 L 99.59 100.71 L 95.92 107.06 L 93.47 107.06 L 91.03 107.06 L 87.77 107.06 L 86.13 104.24 L 84.50 101.41 L 83.69 100.00 L 85.32 97.17 L 86.95 94.35 L 87.77 92.94 L 91.03 92.94 L 93.47 92.94 L 95.92 92.94 L 99.59 99.29 L 100.00 100.00 L 97.88 101.22 L 92.94 104.08 L 90.82 102.85 L 88.70 101.63 L 85.87 100.00 L 85.87 96.74 L 85.87 93.47 L 85.87 91.84 L 88.70 90.21 L 91.52 88.58 L 92.94 87.77 L 95.76 89.40 L 97.88 90.62 L 100.00 91.84 L 100.00 99.18 L 100.00 100.00 L 98.37 100.00 L 91.84 100.00 L 90.62 97.88 L 89.40 95.76 L 87.77 92.94 L 89.40 90.11 L 91.03 87.29 L 91.84 85.87 L 95.11 85.87 L 98.37 85.87 L 100.00 85.87 L 101.63 88.70 L 102.85 90.82 L 104.08 92.94 L 100.41 99.29 L 100.00 100.00 L 99.33 99.61 L 95.96 97.67 L 95.96 96.12 L 95.96 93.79 L 95.96 93.01 L 97.98 91.84 L 100.00 90.68 L 102.02 91.84 L 104.04 93.01 L 104.04 95.34 L 104.04 96.89 L 104.04 97.67 L 100.67 99.61 L 100.00 100.00 L 99.61 99.33 L 97.67 95.96 L 98.45 94.62 L 99.61 92.60 L 100.00 91.93 L 102.33 91.93 L 104.66 91.93 L 105.83 93.95 L 106.99 95.96 L 105.83 97.98 L 105.05 99.33 L 104.66 100.00 L 100.78 100.00 L 100.00 100.00 L 100.00 99.22 L 100.00 95.34 L 101.35 94.56 L 103.36 93.40 L 104.04 93.01 L 106.05 94.17 L 108.07 95.34 L 108.07 97.67 L 108.07 100.00 L 106.05 101.17 L 104.71 101.94 L 104.04 102.33 L 100.67 100.39 L 100.00 100.00 L 100.39 99.33 L 102.33 95.96 L 103.88 95.96 L 106.21 95.96 L 106.99 95.96 L 108.16 97.98 L 109.32 100.00 L 108.16 102.02 L 106.99 104.04 L 104.66 104.04 L 103.11 104.04 L 102.33 104.04 L 100.39 100.67 L 100.00 100.00 L 100.67 99.61 L 104.04 97.67 L 105.38 98.45 L 107.40 99.61 L 108.07 100.00 L 108.07 102.33 L 108.07 104.66 L 106.05 105.83 L 104.04 106.99 L 102.02 105.83 L 100.67 105.05 L 100.00 104.66 L 100.00 100.78 L 100.00 100.00 L 100.78 100.00 L 104.66 100.00 L 105.44 101.35 L 106.60 103.36 L 106.99 104.04 L 105.83 106.05 L 104.66 108.07 L 102.33 108.07 L 100.00 108.07 L 98.83 106.05 L 98.06 104.71 L 97.67 104.04 L 99.61 100.67 L 100.00 100.00 L 100.67 100.39 L 104.04 102.33 L 104.04 103.88 L 104.04 106.21 L 104.04 106.99 L 102.02 108.16 L 100.00 109.32 L 97.98 108.16 L 95.96 106.99 L 95.96 104.66 L 95.96 103.11 L 95.96 102.33 L 100.00 100.00 L 100.39 100.67 L 102.33 104.04 L 101.55 105.38 L 100.39 107.40 L 100.00 108.07 L 97.67 108.07 L 95.34 108.07 L 94.17 106.05 L 93.01 104.04 L 94.17 102.02 L 94.95 100.67 L 95.34 100.00 L 99.22 100.00 L 100.00 100.00 L 100.00 100.78 L 100.00 104.66 L 98.65 105.44 L 96.64 106.60 L 95.96 106.99 L 93.95 105.83 L 91.93 104.66 L 91.93 102.33 L 91.93 100.00 L 93.95 98.83 L 95.29 98.06 L 95.96 97.67 L 99.33 99.61 L 100.00 100.00 L 99.61 100.67 L 97.67 104.04 L 96.12 104.04 L 93.79 104.04 L 93.01 104.04 L 91.84 102.02 L 90.68 100.00 L 91.84 97.98 L 93.01 95.96 L 95.34 95.96 L 96.89 95.96 L 97.67 95.96 L 99.61 99.33 L 100.00 100.00 L 97.98 101.17 L 95.96 102.33 L 94.62 101.55 L 92.60 100.39 L 91.93 100.00 L 91.93 97.67 L 91.93 95.34 L 93.95 94.17 L 95.96 93.01 L 97.98 94.17 L 99.33 94.95 L 100.00 95.34 L 100.00 99.22 L 100.00 100.00 L 98.45 100.00 L 95.34 100.00 L 94.56 98.65 L 93.40 96.64 L 93.01 95.96 L 94.17 93.95 L 95.34 91.93 L 97.67 91.93 L 100.00 91.93 L 101.17 93.95 L 101.94 95.29 L 102.33 95.96 L 100.39 99.33 L 100.00 100.00 L 100.00 100.00 L 100.00 100.00" 
          fill="none" 
          stroke="currentColor" 
          stroke-width="0.5"/>
</svg>