<?xml version="1.0" encoding="UTF-8" standalone="no"?>
<svg width="100%" height="100%" viewBox="0 0 200 200" preserveAspectRatio="xMidYMid meet" xmlns="http://www.w3.org/2000/svg">
    <path d="M 100.00 100.00 L 100.68 99.76 L 101.35 99.51 L 102.03 99.27 L 102.71 99.02 L 103.39 98.78 L 104.06 98.53 L 104.74 98.29 L 105.42 98.04 L 106.09 97.80 L 106.77 97.55 L 107.05 97.45 L 107.72 97.18 L 108.38 96.91 L 109.05 96.64 L 109.72 96.37 L 110.39 96.10 L 111.05 95.83 L 111.72 95.57 L 112.39 95.30 L 112.62 95.20 L 112.51 94.49 L 112.40 93.78 L 112.29 93.07 L 112.18 92.36 L 112.07 91.64 L 111.96 90.93 L 111.93 90.70 L 112.34 91.29 L 112.76 91.87 L 113.17 92.46 L 113.59 93.05 L 114.01 93.64 L 114.42 94.23 L 114.56 94.42 L 115.23 94.15 L 115.89 93.88 L 116.56 93.61 L 117.23 93.34 L 117.90 93.07 L 118.56 92.80 L 119.23 92.53 L 119.90 92.26 L 120.13 92.17 L 120.02 91.46 L 119.91 90.74 L 119.80 90.03 L 119.69 89.32 L 119.58 88.61 L 119.47 87.90 L 119.44 87.66 L 118.72 87.75 L 118.01 87.83 L 117.29 87.92 L 116.58 88.00 L 115.86 88.09 L 115.15 88.17 L 114.43 88.26 L 113.72 88.34 L 113.62 88.35 L 114.29 88.08 L 114.96 87.81 L 115.63 87.54 L 116.29 87.27 L 116.96 87.00 L 117.63 86.73 L 118.30 86.46 L 118.96 86.19 L 119.20 86.10 L 119.09 85.39 L 118.98 84.68 L 118.87 83.97 L 118.76 83.25 L 118.65 82.54 L 118.54 81.83 L 118.50 81.60 L 118.92 82.18 L 119.33 82.77 L 119.75 83.36 L 120.17 83.95 L 120.58 84.54 L 121.00 85.12 L 121.13 85.32 L 121.80 85.05 L 122.47 84.78 L 123.14 84.51 L 123.80 84.24 L 124.47 83.97 L 125.14 83.70 L 125.81 83.43 L 126.48 83.16 L 126.71 83.07 L 126.13 83.50 L 125.56 83.94 L 124.99 84.37 L 124.41 84.81 L 123.84 85.25 L 123.27 85.68 L 122.70 86.12 L 122.12 86.55 L 122.05 86.61 L 122.46 87.20 L 122.88 87.79 L 123.29 88.37 L 123.71 88.96 L 124.12 89.55 L 124.54 90.14 L 124.68 90.33 L 125.34 90.06 L 126.01 89.79 L 126.68 89.52 L 127.35 89.25 L 128.01 88.98 L 128.68 88.71 L 129.35 88.44 L 130.02 88.17 L 130.25 88.08 L 130.14 87.37 L 130.03 86.66 L 129.92 85.95 L 129.81 85.23 L 129.70 84.52 L 129.59 83.81 L 129.56 83.58 L 129.97 84.16 L 130.39 84.75 L 130.80 85.34 L 131.22 85.93 L 131.63 86.52 L 132.05 87.10 L 132.19 87.30 L 132.86 87.03 L 133.52 86.76 L 134.19 86.49 L 134.86 86.22 L 135.53 85.95 L 136.19 85.68 L 136.86 85.41 L 137.53 85.14 L 137.76 85.05 L 137.65 84.33 L 137.54 83.62 L 137.43 82.91 L 137.32 82.20 L 137.21 81.49 L 137.10 80.78 L 137.07 80.54 L 136.35 80.63 L 135.64 80.71 L 134.92 80.80 L 134.21 80.88 L 133.49 80.96 L 132.78 81.05 L 132.06 81.13 L 131.35 81.22 L 131.25 81.23 L 131.92 80.96 L 132.59 80.69 L 133.26 80.42 L 133.92 80.15 L 134.59 79.88 L 135.26 79.61 L 135.93 79.34 L 136.59 79.07 L 136.82 78.98 L 136.71 78.27 L 136.61 77.55 L 136.50 76.84 L 136.39 76.13 L 136.28 75.42 L 136.17 74.71 L 136.13 74.47 L 135.42 74.56 L 134.70 74.64 L 133.99 74.73 L 133.27 74.81 L 132.56 74.90 L 131.84 74.98 L 131.13 75.07 L 130.41 75.15 L 130.32 75.16 L 130.12 75.85 L 129.93 76.55 L 129.74 77.24 L 129.54 77.93 L 129.35 78.63 L 129.16 79.32 L 128.99 79.90 L 128.88 79.19 L 128.78 78.48 L 128.67 77.77 L 128.56 77.06 L 128.45 76.35 L 128.34 75.64 L 128.30 75.40 L 127.59 75.49 L 126.87 75.57 L 126.16 75.65 L 125.44 75.74 L 124.73 75.82 L 124.01 75.91 L 123.30 75.99 L 122.58 76.08 L 122.49 76.09 L 123.16 75.82 L 123.82 75.55 L 124.49 75.28 L 125.16 75.01 L 125.83 74.74 L 126.49 74.47 L 127.16 74.20 L 127.83 73.93 L 128.06 73.84 L 127.95 73.13 L 127.84 72.41 L 127.73 71.70 L 127.62 70.99 L 127.51 70.28 L 127.40 69.57 L 127.37 69.33 L 127.78 69.92 L 128.20 70.51 L 128.61 71.10 L 129.03 71.69 L 129.45 72.27 L 129.86 72.86 L 130.00 73.05 L 130.67 72.78 L 131.33 72.51 L 132.00 72.25 L 132.67 71.98 L 133.34 71.71 L 134.00 71.44 L 134.67 71.17 L 135.34 70.90 L 135.57 70.80 L 135.46 70.09 L 135.35 69.38 L 135.24 68.67 L 135.13 67.96 L 135.02 67.24 L 134.91 66.53 L 134.88 66.30 L 134.16 66.38 L 133.45 66.47 L 132.73 66.55 L 132.02 66.64 L 131.30 66.72 L 130.59 66.81 L 129.87 66.89 L 129.16 66.97 L 129.06 66.99 L 129.73 66.72 L 130.40 66.45 L 131.07 66.18 L 131.73 65.91 L 132.40 65.64 L 133.07 65.37 L 133.74 65.10 L 134.40 64.83 L 134.64 64.73 L 134.53 64.02 L 134.42 63.31 L 134.31 62.60 L 134.20 61.89 L 134.09 61.18 L 133.98 60.46 L 133.94 60.23 L 134.36 60.82 L 134.77 61.41 L 135.19 61.99 L 135.61 62.58 L 136.02 63.17 L 136.44 63.76 L 136.57 63.95 L 137.24 63.68 L 137.91 63.41 L 138.58 63.14 L 139.24 62.87 L 139.91 62.60 L 140.58 62.33 L 141.25 62.06 L 141.91 61.79 L 142.15 61.70 L 141.57 62.14 L 141.00 62.57 L 140.43 63.01 L 139.85 63.44 L 139.28 63.88 L 138.71 64.32 L 138.13 64.75 L 137.56 65.19 L 137.49 65.25 L 137.90 65.83 L 138.32 66.42 L 138.73 67.01 L 139.15 67.60 L 139.56 68.18 L 139.98 68.77 L 140.12 68.97 L 140.78 68.70 L 141.45 68.43 L 142.12 68.16 L 142.79 67.89 L 143.45 67.62 L 144.12 67.35 L 144.79 67.08 L 145.46 66.81 L 145.69 66.71 L 145.58 66.00 L 145.47 65.29 L 145.36 64.58 L 145.25 63.87 L 145.14 63.16 L 145.03 62.44 L 145.00 62.21 L 145.41 62.80 L 145.83 63.39 L 146.24 63.97 L 146.66 64.56 L 147.07 65.15 L 147.49 65.74 L 147.63 65.93 L 148.29 65.66 L 148.96 65.39 L 149.63 65.12 L 150.30 64.85 L 150.96 64.58 L 151.63 64.31 L 152.30 64.04 L 152.97 63.77 L 153.20 63.68 L 152.63 64.12 L 152.05 64.55 L 151.48 64.99 L 150.91 65.42 L 150.33 65.86 L 149.76 66.30 L 149.19 66.73 L 148.61 67.17 L 148.54 67.23 L 148.95 67.81 L 149.37 68.40 L 149.79 68.99 L 150.20 69.58 L 150.62 70.16 L 151.03 70.75 L 151.17 70.95 L 150.55 70.58 L 149.93 70.22 L 149.31 69.85 L 148.69 69.49 L 148.06 69.12 L 147.44 68.76 L 146.92 68.45 L 146.35 68.89 L 145.78 69.32 L 145.20 69.76 L 144.63 70.20 L 144.06 70.63 L 143.48 71.07 L 142.91 71.50 L 142.34 71.94 L 142.26 72.00 L 142.68 72.59 L 143.09 73.17 L 143.51 73.76 L 143.92 74.35 L 144.34 74.94 L 144.76 75.52 L 144.89 75.72 L 145.56 75.45 L 146.23 75.18 L 146.89 74.91 L 147.56 74.64 L 148.23 74.37 L 148.90 74.10 L 149.57 73.83 L 150.23 73.56 L 150.46 73.47 L 149.89 73.90 L 149.32 74.34 L 148.75 74.77 L 148.17 75.21 L 147.60 75.65 L 147.03 76.08 L 146.45 76.52 L 145.88 76.95 L 145.80 77.01 L 146.22 77.60 L 146.64 78.19 L 147.05 78.78 L 147.47 79.36 L 147.88 79.95 L 148.30 80.54 L 148.43 80.73 L 149.10 80.46 L 149.77 80.19 L 150.44 79.92 L 151.10 79.65 L 151.77 79.38 L 152.44 79.11 L 153.11 78.84 L 153.78 78.57 L 154.01 78.48 L 153.90 77.77 L 153.79 77.06 L 153.68 76.35 L 153.57 75.63 L 153.46 74.92 L 153.35 74.21 L 153.31 73.98 L 153.73 74.57 L 154.15 75.15 L 154.56 75.74 L 154.98 76.33 L 155.39 76.92 L 155.81 77.50 L 155.95 77.70 L 156.61 77.43 L 157.28 77.16 L 157.95 76.89 L 158.62 76.62 L 159.28 76.35 L 159.95 76.08 L 160.62 75.81 L 161.29 75.54 L 161.52 75.45 L 161.41 74.73 L 161.30 74.02 L 161.19 73.31 L 161.08 72.60 L 160.97 71.89 L 160.86 71.18 L 160.82 70.94 L 160.11 71.03 L 159.39 71.11 L 158.68 71.20 L 157.96 71.28 L 157.25 71.37 L 156.53 71.45 L 155.82 71.53 L 155.11 71.62 L 155.01 71.63 L 155.68 71.36 L 156.35 71.09 L 157.01 70.82 L 157.68 70.55 L 158.35 70.28 L 159.02 70.01 L 159.68 69.74 L 160.35 69.47 L 160.58 69.38 L 160.47 68.67 L 160.36 67.96 L 160.25 67.24 L 160.14 66.53 L 160.04 65.82 L 159.93 65.11 L 159.89 64.88 L 160.31 65.46 L 160.72 66.05 L 161.14 66.64 L 161.55 67.23 L 161.97 67.81 L 162.38 68.40 L 162.52 68.60 L 163.19 68.33 L 163.86 68.06 L 164.52 67.79 L 165.19 67.52 L 165.86 67.25 L 166.53 66.98 L 167.19 66.71 L 167.86 66.44 L 168.09 66.34 L 167.52 66.78 L 166.95 67.22 L 166.37 67.65 L 165.80 68.09 L 165.23 68.52 L 164.66 68.96 L 164.08 69.40 L 163.51 69.83 L 163.43 69.89 L 163.85 70.48 L 164.26 71.06 L 164.68 71.65 L 165.10 72.24 L 165.51 72.83 L 165.93 73.42 L 166.06 73.61 L 166.73 73.34 L 167.40 73.07 L 168.07 72.80 L 168.73 72.53 L 169.40 72.26 L 170.07 71.99 L 170.74 71.72 L 171.40 71.45 L 171.64 71.36 L 171.53 70.65 L 171.42 69.93 L 171.31 69.22 L 171.20 68.51 L 171.09 67.80 L 170.98 67.09 L 170.94 66.85 L 171.36 67.44 L 171.77 68.03 L 172.19 68.62 L 172.61 69.21 L 173.02 69.79 L 173.44 70.38 L 173.57 70.57 L 174.24 70.31 L 174.91 70.04 L 175.58 69.77 L 176.24 69.50 L 176.91 69.23 L 177.58 68.96 L 178.25 68.69 L 178.92 68.42 L 179.15 68.32 L 179.81 68.06 L 180.48 67.79 L 181.15 67.52 L 181.82 67.25 L 182.49 66.99 L 183.16 66.72 L 183.56 66.56" 
          fill="none" 
          stroke="currentColor" 
          stroke-width="0.5"/>
</svg>