<?xml version="1.0" encoding="UTF-8" standalone="no"?>
<svg width="100%" height="100%" viewBox="0 0 200 200" preserveAspectRatio="xMidYMid meet" xmlns="http://www.w3.org/2000/svg">
    <path d="M 100.00 100.00 L 100.63 100.35 L 101.25 100.71 L 101.88 101.06 L 102.51 101.41 L 103.14 101.77 L 103.76 102.12 L 104.39 102.47 L 105.02 102.83 L 105.65 103.18 L 106.27 103.53 L 106.90 103.88 L 107.53 104.24 L 108.16 104.59 L 108.78 104.94 L 109.41 105.30 L 110.04 105.65 L 110.67 106.00 L 111.29 106.36 L 111.92 106.71 L 112.55 107.06 L 113.18 107.42 L 113.80 107.77 L 114.43 108.12 L 115.06 108.48 L 115.57 108.76 L 115.90 109.40 L 116.24 110.03 L 116.25 110.05 L 116.58 110.68 L 116.92 111.32 L 116.94 111.35 L 117.28 111.99 L 117.62 112.62 L 117.65 112.68 L 117.99 113.32 L 118.32 113.95 L 118.37 114.04 L 118.71 114.67 L 119.05 115.31 L 119.10 115.42 L 119.44 116.05 L 119.78 116.69 L 119.86 116.82 L 120.20 117.46 L 120.54 118.09 L 120.62 118.25 L 120.97 118.88 L 121.31 119.52 L 121.41 119.70 L 121.75 120.33 L 122.10 120.97 L 122.21 121.18 L 122.56 121.81 L 122.91 122.44 L 123.04 122.67 L 123.39 123.30 L 123.74 123.92 L 123.88 124.17 L 124.24 124.79 L 124.60 125.42 L 124.74 125.67 L 125.11 126.29 L 125.47 126.91 L 125.62 127.16 L 125.99 127.78 L 126.36 128.40 L 126.50 128.63 L 126.87 129.25 L 127.25 129.86 L 127.38 130.08 L 127.75 130.69 L 128.13 131.31 L 128.25 131.50 L 128.62 132.11 L 129.00 132.72 L 129.11 132.89 L 129.49 133.50 L 129.86 134.11 L 129.95 134.25 L 130.33 134.87 L 130.71 135.48 L 130.78 135.59 L 131.17 136.20 L 131.55 136.81 L 131.60 136.91 L 131.99 137.52 L 132.37 138.13 L 132.41 138.19 L 132.79 138.81 L 133.17 139.42 L 133.20 139.46 L 133.58 140.07 L 133.97 140.68 L 133.98 140.70 L 134.36 141.31 L 134.74 141.92 L 135.13 142.53 L 135.49 143.12 L 135.88 143.73 L 136.23 144.29 L 136.62 144.90 L 136.96 145.45 L 137.34 146.06 L 137.67 146.58 L 138.05 147.19 L 138.37 147.70 L 138.75 148.31 L 139.06 148.79 L 139.44 149.40 L 139.74 149.87 L 140.12 150.48 L 140.40 150.93 L 140.79 151.54 L 141.06 151.97 L 141.44 152.58 L 141.70 153.00 L 142.09 153.61 L 142.34 154.01 L 142.72 154.61 L 142.96 155.00 L 143.34 155.61 L 143.57 155.97 L 143.96 156.58 L 144.18 156.93 L 144.56 157.54 L 144.77 157.87 L 145.16 158.48 L 145.36 158.80 L 145.74 159.41 L 145.93 159.72 L 146.32 160.33 L 146.50 160.62 L 146.88 161.23 L 147.06 161.51 L 147.44 162.11 L 147.61 162.38 L 147.99 162.99 L 148.15 163.24 L 148.53 163.85 L 148.68 164.08 L 149.06 164.69 L 149.21 164.92 L 149.59 165.53 L 149.72 165.74 L 150.11 166.35 L 150.23 166.55 L 150.62 167.16 L 150.74 167.35 L 151.12 167.96 L 151.23 168.13 L 151.61 168.74 L 151.72 168.91 L 152.10 169.52 L 152.20 169.67 L 152.58 170.28 L 152.67 170.42 L 153.06 171.03 L 153.14 171.17 L 153.52 171.78 L 153.60 171.90 L 153.77 172.17 L 153.18 172.59 L 152.60 173.00 L 152.01 173.42 L 151.42 173.83 L 150.83 174.25 L 150.25 174.67 L 150.17 174.72 L 149.56 175.11 L 148.95 175.49 L 148.34 175.88 L 147.74 176.27 L 147.13 176.65 L 146.52 177.04 L 146.44 177.09 L 145.81 177.45 L 145.19 177.81 L 144.56 178.16 L 143.94 178.52 L 143.31 178.87 L 142.69 179.23 L 142.60 179.28 L 141.96 179.60 L 141.32 179.93 L 140.67 180.25 L 140.03 180.58 L 139.39 180.90 L 138.75 181.23 L 138.66 181.27 L 138.00 181.57 L 137.34 181.86 L 136.69 182.15 L 136.03 182.45 L 135.37 182.74 L 134.71 183.03 L 134.62 183.07 L 133.96 183.34 L 133.29 183.60 L 132.62 183.87 L 131.95 184.13 L 131.70 184.23 L 131.59 184.11 L 131.12 183.57 L 131.01 183.45 L 130.54 182.91 L 130.42 182.78 L 129.95 182.24 L 129.83 182.10 L 129.36 181.56 L 129.23 181.41 L 128.76 180.87 L 128.62 180.72 L 128.15 180.17 L 128.01 180.01 L 127.54 179.46 L 127.39 179.29 L 126.91 178.74 L 126.76 178.56 L 126.29 178.01 L 126.12 177.82 L 125.65 177.27 L 125.48 177.07 L 125.01 176.52 L 124.83 176.30 L 124.36 175.75 L 124.17 175.53 L 123.71 174.98 L 123.50 174.74 L 123.04 174.19 L 122.83 173.94 L 122.37 173.39 L 122.15 173.13 L 121.69 172.58 L 121.47 172.31 L 121.01 171.75 L 120.78 171.47 L 120.32 170.91 L 120.08 170.62 L 119.62 170.06 L 119.37 169.75 L 118.91 169.19 L 118.66 168.88 L 118.20 168.32 L 117.94 167.98 L 117.48 167.42 L 117.21 167.08 L 116.76 166.52 L 116.48 166.16 L 116.03 165.59 L 115.74 165.22 L 115.30 164.66 L 115.00 164.27 L 114.55 163.70 L 114.25 163.31 L 113.81 162.74 L 113.49 162.33 L 113.06 161.76 L 112.73 161.33 L 112.30 160.76 L 111.97 160.32 L 111.54 159.75 L 111.21 159.30 L 110.78 158.72 L 110.44 158.26 L 110.01 157.68 L 109.66 157.20 L 109.24 156.62 L 108.89 156.13 L 108.47 155.54 L 108.12 155.04 L 107.70 154.46 L 107.34 153.94 L 106.93 153.35 L 106.57 152.83 L 106.16 152.23 L 105.79 151.70 L 105.39 151.10 L 105.02 150.55 L 104.62 149.95 L 104.25 149.39 L 103.86 148.79 L 103.49 148.22 L 103.10 147.62 L 102.72 147.04 L 102.34 146.43 L 101.97 145.84 L 101.59 145.23 L 101.22 144.64 L 100.85 144.03 L 100.48 143.43 L 100.11 142.81 L 99.74 142.20 L 99.38 141.58 L 99.02 140.97 L 98.66 140.35 L 98.30 139.73 L 97.95 139.11 L 97.60 138.49 L 97.25 137.86 L 96.90 137.24 L 96.56 136.61 L 96.22 135.99 L 95.88 135.36 L 95.55 134.74 L 95.21 134.11 L 94.89 133.49 L 94.56 132.85 L 94.24 132.24 L 93.92 131.60 L 93.61 130.99 L 93.29 130.35 L 92.99 129.75 L 92.67 129.10 L 92.38 128.51 L 92.07 127.86 L 91.79 127.27 L 91.48 126.62 L 91.20 126.04 L 90.90 125.39 L 90.64 124.81 L 90.34 124.16 L 90.08 123.60 L 89.78 122.94 L 89.54 122.39 L 89.24 121.73 L 89.00 121.19 L 88.72 120.53 L 88.49 120.00 L 88.20 119.34 L 87.98 118.83 L 87.70 118.16 L 87.48 117.66 L 87.20 116.99 L 87.00 116.50 L 86.72 115.84 L 86.52 115.36 L 86.25 114.69 L 86.06 114.22 L 85.79 113.56 L 85.61 113.10 L 85.34 112.43 L 85.17 111.99 L 84.90 111.32 L 84.73 110.90 L 84.47 110.23 L 84.31 109.81 L 84.05 109.14 L 83.90 108.74 L 83.64 108.07 L 83.49 107.68 L 83.24 107.01 L 83.09 106.64 L 82.84 105.96 L 82.71 105.60 L 82.46 104.93 L 82.33 104.58 L 82.08 103.91 L 81.95 103.57 L 81.71 102.90 L 81.59 102.58 L 81.34 101.90 L 81.23 101.59 L 80.99 100.91 L 80.88 100.62 L 80.64 99.94 L 80.54 99.66 L 80.29 98.98 L 80.20 98.71 L 79.96 98.03 L 79.87 97.78 L 79.63 97.10 L 79.54 96.85 L 79.31 96.18 L 79.23 95.94 L 78.99 95.26 L 78.91 95.04 L 78.68 94.36 L 78.61 94.15 L 78.37 93.47 L 78.30 93.28 L 78.07 92.60 L 78.01 92.41 L 77.78 91.73 L 77.72 91.56 L 77.49 90.87 L 77.43 90.71 L 77.20 90.03 L 77.15 89.88 L 76.92 89.19 L 76.87 89.05 L 76.64 88.37 L 76.60 88.24 L 76.37 87.56 L 76.33 87.44 L 76.66 87.61 L 77.29 87.96 L 77.32 87.97 L 77.95 88.31 L 77.98 88.33 L 78.61 88.68 L 78.65 88.70 L 79.29 89.04 L 79.34 89.07 L 79.97 89.41 L 80.03 89.44 L 80.66 89.79 L 80.73 89.83 L 81.36 90.17 L 81.44 90.21 L 82.07 90.56 L 82.16 90.60 L 82.79 90.95 L 82.89 91.00 L 83.52 91.34 L 83.63 91.40 L 84.26 91.75 L 84.38 91.81 L 85.01 92.15 L 85.14 92.22 L 85.77 92.57 L 85.91 92.64 L 86.55 92.99 L 86.70 93.07 L 87.33 93.41 L 87.49 93.50 L 88.12 93.84 L 88.30 93.94 L 88.93 94.28 L 89.12 94.38 L 89.75 94.73 L 89.94 94.83 L 90.58 95.18 L 90.79 95.29 L 91.42 95.63 L 91.64 95.76 L 92.27 96.10 L 92.51 96.23 L 93.14 96.57 L 93.39 96.71 L 94.02 97.05 L 94.29 97.19 L 94.92 97.54 L 95.19 97.69 L 95.83 98.03 L 96.12 98.19 L 96.75 98.53 L 97.05 98.70 L 97.68 99.04 L 98.00 99.21 L 98.64 99.56 L 98.97 99.74 L 99.60 100.08 L 99.95 100.27 L 100.59 100.62 L 100.95 100.81 L 101.58 101.16 L 101.97 101.37 L 102.60 101.71 L 103.00 101.93 L 103.63 102.27 L 104.04 102.50 L 104.68 102.84 L 105.11 103.08 L 105.74 103.42 L 106.19 103.66 L 106.83 104.01 L 107.30 104.26 L 107.93 104.61 L 108.42 104.87 L 109.05 105.22 L 109.56 105.49 L 110.19 105.84 L 110.72 106.12 L 111.35 106.47 L 111.90 106.77 L 112.53 107.11 L 113.10 107.42 L 113.73 107.76 L 114.32 108.08 L 114.95 108.43 L 115.57 108.76 L 116.08 108.73 L 116.80 108.69 L 117.52 108.65 L 117.61 108.65 L 118.33 108.61 L 119.04 108.57 L 119.15 108.57 L 119.87 108.53 L 120.59 108.50 L 120.72 108.49 L 121.44 108.46 L 122.16 108.43 L 122.32 108.42 L 123.04 108.40 L 123.76 108.37 L 123.93 108.36 L 124.65 108.34 L 125.37 108.32 L 125.56 108.32 L 126.28 108.30 L 127.00 108.29 L 127.21 108.28 L 127.93 108.27 L 128.65 108.26 L 128.87 108.26 L 129.59 108.26 L 130.31 108.26 L 130.53 108.26 L 131.25 108.26 L 131.97 108.27 L 132.19 108.27 L 132.91 108.28 L 133.63 108.29 L 133.84 108.29 L 134.56 108.31 L 135.28 108.33 L 135.48 108.33 L 136.20 108.35 L 136.92 108.38 L 137.11 108.38 L 137.83 108.41 L 138.54 108.44 L 138.71 108.44 L 139.43 108.48 L 140.15 108.51 L 140.30 108.51 L 141.02 108.55 L 141.74 108.59 L 141.86 108.59 L 142.58 108.63 L 143.30 108.67 L 143.40 108.67 L 144.12 108.72 L 144.84 108.76 L 144.91 108.76 L 145.63 108.81 L 146.35 108.85 L 146.40 108.85 L 147.12 108.90 L 147.84 108.94 L 147.87 108.94 L 148.59 108.99 L 149.30 109.04 L 149.31 109.04 L 150.02 109.09 L 150.72 109.13 L 151.44 109.18 L 152.11 109.23 L 152.83 109.28 L 153.48 109.32 L 154.20 109.37 L 154.82 109.42 L 155.54 109.47 L 156.14 109.51 L 156.86 109.57 L 157.44 109.61 L 158.16 109.66 L 158.72 109.70 L 159.44 109.76 L 159.98 109.80 L 160.69 109.85 L 161.21 109.89 L 161.93 109.95 L 162.43 109.98 L 163.14 110.04 L 163.62 110.07 L 164.34 110.13 L 164.80 110.17 L 165.52 110.22 L 165.95 110.26 L 166.67 110.31 L 167.09 110.34 L 167.81 110.40 L 168.21 110.43 L 168.93 110.49 L 169.31 110.52 L 170.03 110.57 L 170.40 110.60 L 171.12 110.66 L 171.47 110.69 L 172.19 110.74 L 172.52 110.77 L 173.24 110.83 L 173.56 110.85 L 174.27 110.91 L 174.58 110.93 L 175.30 110.99 L 175.58 111.01 L 176.30 111.07 L 176.57 111.09 L 177.29 111.15 L 177.55 111.17 L 178.27 111.23 L 178.51 111.25 L 179.23 111.30 L 179.45 111.32 L 180.17 111.38 L 180.39 111.40 L 181.11 111.46 L 181.31 111.47 L 182.03 111.53 L 182.21 111.55 L 182.93 111.60 L 183.11 111.62 L 183.83 111.68 L 183.99 111.69 L 184.71 111.75 L 184.86 111.76 L 185.57 111.82 L 185.71 111.83 L 186.43 111.89 L 186.56 111.90 L 187.28 111.96 L 187.39 111.97 L 188.11 112.02 L 188.21 112.03 L 188.93 112.09 L 189.02 112.10 L 189.18 112.11 L 189.26 111.39 L 189.34 110.68 L 189.42 109.96 L 189.50 109.25 L 189.58 108.53 L 189.66 107.82 L 189.67 107.72 L 189.71 107.00 L 189.76 106.28 L 189.80 105.56 L 189.85 104.84 L 189.89 104.13 L 189.93 103.41 L 189.94 103.31 L 189.95 102.59 L 189.96 101.87 L 189.97 101.15 L 189.97 100.43 L 189.98 99.71 L 189.99 98.99 L 189.99 98.89 L 189.97 98.17 L 189.94 97.45 L 189.91 96.73 L 189.89 96.02 L 189.86 95.30 L 189.83 94.58 L 189.83 94.48 L 189.77 93.76 L 189.71 93.04 L 189.65 92.33 L 189.58 91.61 L 189.52 90.89 L 189.46 90.18 L 189.45 90.08 L 189.37 89.36 L 189.28 88.65 L 189.27 88.59 L 189.09 88.55 L 188.39 88.39 L 188.29 88.37 L 187.59 88.21 L 187.48 88.18 L 186.78 88.03 L 186.66 88.00 L 185.96 87.84 L 185.84 87.81 L 185.13 87.66 L 185.00 87.63 L 184.29 87.47 L 184.15 87.44 L 183.44 87.28 L 183.28 87.25 L 182.58 87.10 L 182.41 87.06 L 181.71 86.91 L 181.53 86.87 L 180.82 86.72 L 180.63 86.68 L 179.92 86.53 L 179.72 86.49 L 179.01 86.34 L 178.80 86.29 L 178.09 86.15 L 177.87 86.10 L 177.16 85.96 L 176.92 85.91 L 176.22 85.76 L 175.96 85.71 L 175.26 85.57 L 174.99 85.52 L 174.29 85.38 L 174.01 85.33 L 173.30 85.19 L 173.01 85.13 L 172.31 85.00 L 172.00 84.94 L 171.29 84.81 L 170.98 84.75 L 170.27 84.62 L 169.94 84.56 L 169.23 84.43 L 168.89 84.37 L 168.18 84.24 L 167.83 84.18 L 167.12 84.05 L 166.75 83.99 L 166.04 83.87 L 165.66 83.80 L 164.95 83.68 L 164.55 83.62 L 163.84 83.50 L 163.43 83.43 L 162.72 83.32 L 162.30 83.25 L 161.58 83.14 L 161.15 83.07 L 160.43 82.97 L 159.98 82.90 L 159.27 82.80 L 158.81 82.73 L 158.09 82.63 L 157.62 82.56 L 156.90 82.46 L 156.41 82.39 L 155.70 82.30 L 155.19 82.23 L 154.48 82.14 L 153.96 82.08 L 153.25 81.99 L 152.72 81.93 L 152.00 81.85 L 151.46 81.78 L 150.74 81.71 L 150.19 81.65 L 149.47 81.57 L 148.90 81.51 L 148.19 81.45 L 147.61 81.39 L 146.89 81.32 L 146.30 81.27 L 145.59 81.21 L 144.99 81.16 L 144.27 81.11 L 143.66 81.06 L 142.94 81.01 L 142.33 80.97 L 141.61 80.92 L 140.98 80.88 L 140.26 80.84 L 139.63 80.80 L 138.91 80.77 L 138.27 80.74 L 137.55 80.71 L 136.90 80.68 L 136.19 80.66 L 135.54 80.64 L 134.82 80.62 L 134.16 80.60 L 133.44 80.59 L 132.78 80.58 L 132.06 80.57 L 131.41 80.56 L 130.69 80.56 L 130.02 80.56 L 129.31 80.56 L 128.65 80.57 L 127.93 80.57 L 127.27 80.58 L 126.55 80.60 L 125.89 80.61 L 125.17 80.63 L 124.52 80.65 L 123.80 80.68 L 123.15 80.70 L 122.43 80.73 L 121.79 80.76 L 121.07 80.80 L 120.43 80.83 L 119.71 80.87 L 119.08 80.91 L 118.36 80.95 L 117.74 80.99 L 117.02 81.04 L 116.40 81.09 L 115.69 81.15 L 115.08 81.19 L 114.36 81.26 L 113.77 81.31 L 113.05 81.37 L 112.47 81.43 L 111.75 81.50 L 111.17 81.55 L 110.46 81.63 L 109.90 81.69 L 109.18 81.77 L 108.63 81.83 L 107.91 81.91 L 107.37 81.98 L 106.66 82.06 L 106.13 82.13 L 105.42 82.22 L 104.91 82.28 L 104.19 82.38 L 103.69 82.45 L 102.98 82.54 L 102.49 82.61 L 101.78 82.71 L 101.30 82.78 L 100.59 82.89 L 100.13 82.95 L 99.42 83.06 L 98.97 83.13 L 98.26 83.24 L 97.83 83.31 L 97.12 83.42 L 96.70 83.49 L 95.99 83.61 L 95.58 83.67 L 94.87 83.79 L 94.48 83.86 L 93.77 83.98 L 93.39 84.05 L 92.69 84.17 L 92.32 84.24 L 91.61 84.36 L 91.26 84.43 L 90.55 84.56 L 90.21 84.62 L 89.51 84.75 L 89.18 84.81 L 88.47 84.94 L 88.16 85.00 L 87.45 85.14 L 87.16 85.19 L 86.45 85.33 L 86.16 85.39 L 85.46 85.53 L 85.18 85.58 L 84.48 85.72 L 84.22 85.77 L 83.51 85.92 L 83.26 85.97 L 82.56 86.11 L 82.32 86.16 L 81.62 86.31 L 81.39 86.35 L 80.69 86.50 L 80.48 86.55 L 79.77 86.69 L 79.57 86.74 L 78.87 86.89 L 78.68 86.93 L 77.97 87.08 L 77.80 87.12 L 77.09 87.27 L 76.93 87.31 L 76.33 87.44 L 75.70 87.09 L 75.69 87.09 L 75.06 86.74 L 75.06 86.74 L 74.43 86.40 L 73.81 86.07 L 73.20 85.73 L 72.60 85.41 L 72.00 85.08 L 71.41 84.76 L 70.83 84.45 L 70.26 84.13 L 69.69 83.83 L 69.13 83.52 L 68.57 83.22 L 68.03 82.92 L 67.49 82.63 L 66.95 82.34 L 66.42 82.05 L 65.90 81.77 L 65.38 81.49 L 64.87 81.21 L 64.37 80.94 L 63.87 80.67 L 63.38 80.40 L 62.89 80.13 L 62.41 79.87 L 61.93 79.61 L 61.46 79.36 L 60.99 79.10 L 60.53 78.85 L 60.08 78.60 L 59.63 78.36 L 59.18 78.12 L 58.74 77.88 L 58.30 77.64 L 57.87 77.41 L 57.44 77.17 L 57.02 76.94 L 56.60 76.72 L 56.18 76.49 L 55.77 76.27 L 55.37 76.05 L 54.97 75.83 L 54.57 75.61 L 54.37 75.51 L 54.48 76.08 L 54.60 76.66 L 54.71 77.24 L 54.83 77.83 L 54.95 78.43 L 55.08 79.03 L 55.20 79.64 L 55.33 80.26 L 55.46 80.88 L 55.59 81.51 L 55.72 82.14 L 55.86 82.78 L 56.00 83.43 L 56.14 84.08 L 56.29 84.74 L 56.43 85.41 L 56.58 86.08 L 56.73 86.76 L 56.89 87.45 L 57.05 88.14 L 57.21 88.84 L 57.37 89.55 L 57.37 89.55 L 57.54 90.25 L 57.54 90.27 L 57.71 90.97 L 57.71 90.99 L 57.88 91.69 L 57.89 91.72 L 58.06 92.42 L 58.07 92.46 L 58.24 93.16 L 58.25 93.20 L 58.42 93.90 L 58.44 93.96 L 58.61 94.66 L 58.62 94.72 L 58.80 95.41 L 58.82 95.48 L 59.00 96.18 L 59.02 96.26 L 59.20 96.96 L 59.22 97.04 L 59.40 97.74 L 59.42 97.83 L 59.61 98.53 L 59.63 98.63 L 59.82 99.33 L 59.85 99.44 L 60.03 100.14 L 60.07 100.26 L 60.26 100.95 L 60.29 101.08 L 60.48 101.77 L 60.52 101.91 L 60.71 102.60 L 60.75 102.75 L 60.95 103.44 L 60.99 103.60 L 61.19 104.29 L 61.24 104.45 L 61.44 105.14 L 61.48 105.31 L 61.69 106.01 L 61.74 106.19 L 61.94 106.88 L 62.00 107.07 L 62.21 107.76 L 62.27 107.95 L 62.47 108.64 L 62.54 108.85 L 62.75 109.54 L 62.82 109.75 L 63.03 110.44 L 63.10 110.67 L 63.32 111.35 L 63.39 111.58 L 63.61 112.27 L 63.69 112.51 L 63.91 113.20 L 63.99 113.45 L 64.22 114.13 L 64.30 114.39 L 64.53 115.07 L 64.62 115.34 L 64.85 116.02 L 64.95 116.30 L 65.18 116.98 L 65.28 117.27 L 65.51 117.95 L 65.62 118.24 L 65.86 118.92 L 65.96 119.22 L 66.21 119.90 L 66.32 120.21 L 66.56 120.89 L 66.68 121.20 L 66.93 121.88 L 67.05 122.20 L 67.30 122.88 L 67.43 123.21 L 67.69 123.89 L 67.82 124.23 L 68.08 124.90 L 68.21 125.25 L 68.48 125.92 L 68.62 126.27 L 68.88 126.94 L 69.03 127.30 L 69.30 127.97 L 69.45 128.34 L 69.72 129.01 L 69.88 129.38 L 70.16 130.05 L 70.32 130.43 L 70.60 131.09 L 70.77 131.48 L 71.05 132.14 L 71.22 132.53 L 71.51 133.19 L 71.69 133.59 L 71.98 134.25 L 72.16 134.65 L 72.46 135.31 L 72.65 135.72 L 72.95 136.37 L 73.14 136.78 L 73.45 137.44 L 73.64 137.85 L 73.95 138.50 L 74.16 138.92 L 74.47 139.57 L 74.68 139.99 L 74.99 140.64 L 75.21 141.06 L 75.53 141.71 L 75.74 142.14 L 76.07 142.78 L 76.29 143.21 L 76.62 143.85 L 76.85 144.28 L 77.18 144.91 L 77.41 145.35 L 77.75 145.98 L 77.98 146.41 L 78.33 147.05 L 78.56 147.48 L 78.91 148.11 L 79.15 148.54 L 79.51 149.17 L 79.75 149.60 L 80.11 150.23 L 80.35 150.66 L 80.72 151.28 L 80.96 151.71 L 81.33 152.33 L 81.58 152.75 L 81.95 153.37 L 82.21 153.80 L 82.58 154.41 L 82.84 154.83 L 83.22 155.45 L 83.48 155.86 L 83.86 156.47 L 84.12 156.89 L 84.51 157.50 L 84.77 157.91 L 85.16 158.51 L 85.42 158.92 L 85.82 159.52 L 86.08 159.92 L 86.48 160.52 L 86.74 160.92 L 87.14 161.51 L 87.41 161.90 L 87.82 162.50 L 88.08 162.88 L 88.49 163.47 L 88.75 163.85 L 89.17 164.44 L 89.43 164.81 L 89.85 165.40 L 90.11 165.77 L 90.53 166.35 L 90.79 166.71 L 91.21 167.29 L 91.47 167.64 L 91.90 168.22 L 92.16 168.57 L 92.59 169.14 L 92.84 169.48 L 93.28 170.06 L 93.53 170.39 L 93.97 170.96 L 94.22 171.28 L 94.66 171.85 L 94.90 172.17 L 95.35 172.73 L 95.59 173.04 L 96.04 173.61 L 96.28 173.91 L 96.73 174.47 L 96.96 174.76 L 97.42 175.32 L 97.65 175.60 L 98.10 176.16 L 98.33 176.44 L 98.79 176.99 L 99.01 177.26 L 99.47 177.81 L 99.69 178.07 L 100.16 178.62 L 100.37 178.88 L 100.84 179.42 L 101.05 179.67 L 101.52 180.21 L 101.72 180.45 L 102.19 180.99 L 102.39 181.22 L 102.87 181.76 L 103.06 181.98 L 103.54 182.52 L 103.73 182.74 L 104.21 183.27 L 104.39 183.48 L 104.87 184.01 L 105.05 184.21 L 105.53 184.74 L 105.70 184.93 L 106.19 185.46 L 106.35 185.65 L 106.84 186.18 L 107.00 186.35 L 107.49 186.88 L 107.65 187.04 L 108.14 187.57 L 108.29 187.73 L 108.78 188.25 L 108.92 188.40 L 109.42 188.93 L 109.56 189.07 L 109.92 189.45 L 109.20 189.51 L 108.48 189.58 L 107.77 189.64 L 107.05 189.70 L 106.33 189.76 L 105.62 189.82 L 105.52 189.83 L 104.80 189.86 L 104.08 189.88 L 103.36 189.91 L 102.64 189.94 L 101.92 189.96 L 101.20 189.99 L 101.10 189.99 L 100.38 189.98 L 99.66 189.98 L 98.94 189.97 L 98.22 189.96 L 97.50 189.95 L 96.78 189.94 L 96.69 189.94 L 95.97 189.90 L 95.25 189.85 L 94.53 189.81 L 93.81 189.76 L 93.09 189.72 L 92.38 189.67 L 92.28 189.67 L 91.56 189.59 L 90.85 189.52 L 90.13 189.45 L 89.41 189.37 L 89.37 189.37 L 88.96 188.91 L 88.48 188.37 L 88.35 188.21 L 87.87 187.67 L 87.73 187.51 L 87.26 186.97 L 87.12 186.81 L 86.65 186.26 L 86.51 186.09 L 86.04 185.55 L 85.89 185.37 L 85.43 184.82 L 85.28 184.64 L 84.81 184.09 L 84.66 183.91 L 84.20 183.35 L 84.05 183.16 L 83.59 182.60 L 83.43 182.41 L 82.98 181.85 L 82.82 181.65 L 82.37 181.09 L 82.20 180.88 L 81.75 180.32 L 81.59 180.11 L 81.15 179.54 L 80.98 179.33 L 80.54 178.76 L 80.37 178.54 L 79.93 177.97 L 79.76 177.75 L 79.32 177.18 L 79.15 176.95 L 78.72 176.37 L 78.54 176.14 L 78.11 175.56 L 77.94 175.32 L 77.51 174.74 L 77.34 174.50 L 76.91 173.92 L 76.73 173.67 L 76.32 173.09 L 76.14 172.84 L 75.72 172.25 L 75.54 172.00 L 75.13 171.41 L 74.95 171.15 L 74.54 170.56 L 74.36 170.30 L 73.96 169.70 L 73.78 169.44 L 73.37 168.84 L 73.19 168.58 L 72.79 167.98 L 72.61 167.71 L 72.22 167.10 L 72.04 166.83 L 71.65 166.23 L 71.47 165.95 L 71.08 165.34 L 70.90 165.06 L 70.52 164.46 L 70.34 164.17 L 69.96 163.56 L 69.78 163.28 L 69.40 162.67 L 69.23 162.38 L 68.85 161.77 L 68.68 161.48 L 68.31 160.86 L 68.13 160.57 L 67.77 159.95 L 67.59 159.66 L 67.23 159.04 L 67.06 158.75 L 66.70 158.12 L 66.53 157.83 L 66.18 157.20 L 66.01 156.91 L 65.66 156.28 L 65.49 155.98 L 65.15 155.35 L 64.98 155.06 L 64.64 154.43 L 64.48 154.13 L 64.14 153.50 L 63.98 153.20 L 63.64 152.56 L 63.49 152.27 L 63.15 151.63 L 63.00 151.34 L 62.67 150.70 L 62.52 150.40 L 62.20 149.76 L 62.05 149.47 L 61.73 148.82 L 61.58 148.53 L 61.26 147.88 L 61.12 147.59 L 60.81 146.95 L 60.67 146.66 L 60.35 146.01 L 60.22 145.72 L 59.91 145.07 L 59.78 144.78 L 59.47 144.13 L 59.34 143.85 L 59.04 143.19 L 58.92 142.91 L 58.62 142.26 L 58.49 141.98 L 58.20 141.32 L 58.08 141.04 L 57.79 140.38 L 57.67 140.11 L 57.39 139.45 L 57.27 139.18 L 56.99 138.52 L 56.88 138.25 L 56.60 137.59 L 56.49 137.33 L 56.22 136.66 L 56.11 136.40 L 55.84 135.74 L 55.74 135.48 L 55.47 134.81 L 55.37 134.56 L 55.11 133.89 L 55.01 133.65 L 54.75 132.98 L 54.66 132.73 L 54.40 132.06 L 54.31 131.82 L 54.06 131.15 L 53.97 130.92 L 53.72 130.24 L 53.64 130.01 L 53.39 129.34 L 53.31 129.12 L 53.07 128.44 L 52.99 128.22 L 52.75 127.54 L 52.68 127.33 L 52.44 126.65 L 52.37 126.44 L 52.14 125.76 L 52.07 125.56 L 51.84 124.88 L 51.77 124.68 L 51.54 124.00 L 51.48 123.81 L 51.26 123.12 L 51.19 122.94 L 50.97 122.25 L 50.92 122.07 L 50.70 121.39 L 50.64 121.21 L 50.43 120.52 L 50.38 120.36 L 50.16 119.67 L 50.11 119.51 L 49.90 118.82 L 49.86 118.66 L 49.65 117.97 L 49.61 117.82 L 49.40 117.13 L 49.36 116.99 L 49.16 116.30 L 49.12 116.16 L 48.92 115.47 L 48.89 115.33 L 48.69 114.64 L 48.66 114.52 L 48.46 113.82 L 48.43 113.70 L 48.24 113.01 L 48.21 112.89 L 48.02 112.20 L 48.00 112.09 L 47.81 111.40 L 47.78 111.30 L 47.60 110.60 L 47.58 110.51 L 47.40 109.81 L 47.38 109.72 L 47.20 109.02 L 47.18 108.94 L 47.00 108.24 L 46.99 108.17 L 46.81 107.47 L 46.80 107.40 L 46.63 106.70 L 46.61 106.64 L 46.45 105.94 L 46.43 105.88 L 46.27 105.18 L 46.25 105.13 L 46.09 104.43 L 46.08 104.38 L 45.92 103.68 L 45.91 103.64 L 45.76 102.94 L 45.75 102.91 L 45.59 102.21 L 45.59 102.18 L 45.43 101.48 L 45.43 101.46 L 45.28 100.76 L 45.28 100.74 L 45.13 100.04 L 45.12 100.03 L 44.98 99.33 L 44.98 99.33 L 44.83 98.63 L 44.69 97.93 L 44.55 97.24 L 44.42 96.56 L 44.29 95.88 L 44.16 95.21 L 44.03 94.55 L 43.91 93.89 L 43.79 93.23 L 43.67 92.58 L 43.56 91.94 L 43.44 91.30 L 43.33 90.66 L 43.23 90.03 L 43.12 89.41 L 43.02 88.79 L 42.92 88.18 L 42.82 87.57 L 42.73 86.97 L 42.63 86.37 L 42.54 85.78 L 42.45 85.19 L 42.36 84.61 L 42.28 84.03 L 42.19 83.46 L 42.11 82.89 L 42.03 82.33 L 41.95 81.77 L 41.87 81.21 L 41.80 80.66 L 41.73 80.12 L 41.65 79.58 L 41.58 79.04 L 41.52 78.51 L 41.45 77.99 L 41.38 77.46 L 41.32 76.95 L 41.26 76.43 L 41.19 75.92 L 41.13 75.42 L 41.07 74.92 L 41.02 74.42 L 40.96 73.93 L 40.91 73.44 L 40.85 72.95 L 40.78 72.46 L 40.71 71.97 L 40.62 71.48 L 40.53 70.99 L 40.43 70.49 L 40.32 69.99 L 40.21 69.50 L 40.08 68.99 L 39.95 68.49 L 39.81 67.98 L 39.66 67.47 L 39.85 67.58 L 40.24 67.80 L 40.61 68.01 L 40.97 68.21 L 41.33 68.41 L 41.67 68.60 L 42.00 68.78 L 42.33 68.96 L 42.64 69.13 L 42.94 69.30 L 43.24 69.46 L 43.53 69.61 L 43.82 69.77 L 44.11 69.93 L 44.41 70.09 L 44.71 70.26 L 45.02 70.42 L 45.32 70.59 L 45.63 70.76 L 45.94 70.93 L 46.26 71.10 L 46.58 71.27 L 46.90 71.44 L 47.22 71.62 L 47.55 71.80 L 47.88 71.98 L 48.21 72.16 L 48.54 72.34 L 48.88 72.52 L 49.22 72.71 L 49.57 72.90 L 49.92 73.08 L 50.27 73.28 L 50.62 73.47 L 50.98 73.66 L 51.34 73.86 L 51.71 74.06 L 52.08 74.26 L 52.45 74.46 L 52.83 74.67 L 53.21 74.87 L 53.59 75.08 L 53.98 75.29 L 54.37 75.51 L 54.39 75.50 L 54.96 75.30 L 55.54 75.10 L 56.13 74.89 L 56.72 74.69 L 57.32 74.48 L 57.92 74.28 L 58.54 74.07 L 59.15 73.86 L 59.78 73.65 L 60.41 73.44 L 61.05 73.23 L 61.69 73.02 L 62.34 72.81 L 63.00 72.59 L 63.67 72.38 L 64.34 72.16 L 65.02 71.95 L 65.71 71.73 L 65.71 71.73 L 66.40 71.52 L 66.41 71.51 L 67.10 71.30 L 67.11 71.30 L 67.80 71.09 L 67.82 71.08 L 68.51 70.87 L 68.54 70.86 L 69.23 70.65 L 69.27 70.64 L 69.96 70.43 L 70.00 70.42 L 70.69 70.22 L 70.75 70.20 L 71.44 70.00 L 71.50 69.98 L 72.19 69.78 L 72.26 69.76 L 72.95 69.56 L 73.02 69.54 L 73.72 69.34 L 73.80 69.32 L 74.49 69.12 L 74.59 69.10 L 75.28 68.91 L 75.38 68.88 L 76.07 68.69 L 76.18 68.66 L 76.88 68.47 L 76.99 68.44 L 77.69 68.25 L 77.81 68.22 L 78.51 68.03 L 78.64 68.00 L 79.34 67.82 L 79.48 67.78 L 80.18 67.60 L 80.33 67.56 L 81.02 67.38 L 81.18 67.34 L 81.88 67.17 L 82.05 67.13 L 82.75 66.96 L 82.92 66.91 L 83.62 66.74 L 83.80 66.70 L 84.51 66.53 L 84.70 66.48 L 85.40 66.32 L 85.60 66.27 L 86.30 66.11 L 86.51 66.06 L 87.21 65.90 L 87.43 65.85 L 88.13 65.70 L 88.36 65.65 L 89.07 65.49 L 89.30 65.44 L 90.01 65.29 L 90.25 65.24 L 90.96 65.09 L 91.21 65.04 L 91.91 64.89 L 92.18 64.84 L 92.88 64.70 L 93.15 64.64 L 93.86 64.51 L 94.14 64.45 L 94.85 64.32 L 95.14 64.26 L 95.84 64.13 L 96.14 64.07 L 96.85 63.95 L 97.16 63.89 L 97.86 63.77 L 98.18 63.71 L 98.89 63.59 L 99.21 63.53 L 99.92 63.42 L 100.25 63.36 L 100.96 63.25 L 101.30 63.19 L 102.01 63.08 L 102.36 63.03 L 103.07 62.92 L 103.43 62.87 L 104.14 62.77 L 104.50 62.72 L 105.21 62.62 L 105.58 62.57 L 106.30 62.47 L 106.67 62.42 L 107.39 62.33 L 107.77 62.28 L 108.49 62.19 L 108.88 62.15 L 109.59 62.07 L 109.99 62.02 L 110.70 61.94 L 111.11 61.90 L 111.82 61.82 L 112.23 61.78 L 112.95 61.71 L 113.37 61.67 L 114.08 61.61 L 114.50 61.57 L 115.22 61.51 L 115.65 61.47 L 116.37 61.41 L 116.80 61.38 L 117.52 61.33 L 117.95 61.30 L 118.67 61.25 L 119.11 61.22 L 119.83 61.18 L 120.27 61.15 L 120.99 61.12 L 121.44 61.09 L 122.16 61.06 L 122.61 61.04 L 123.33 61.01 L 123.78 60.99 L 124.50 60.97 L 124.95 60.95 L 125.67 60.93 L 126.13 60.92 L 126.85 60.91 L 127.31 60.90 L 128.03 60.89 L 128.49 60.88 L 129.21 60.88 L 129.67 60.87 L 130.39 60.87 L 130.85 60.88 L 131.57 60.88 L 132.03 60.88 L 132.75 60.89 L 133.21 60.90 L 133.93 60.91 L 134.39 60.92 L 135.11 60.94 L 135.56 60.95 L 136.28 60.98 L 136.74 60.99 L 137.46 61.02 L 137.91 61.04 L 138.63 61.07 L 139.08 61.09 L 139.80 61.13 L 140.25 61.16 L 140.97 61.20 L 141.41 61.22 L 142.13 61.27 L 142.57 61.30 L 143.28 61.35 L 143.72 61.38 L 144.44 61.44 L 144.87 61.47 L 145.59 61.54 L 146.01 61.57 L 146.73 61.64 L 147.15 61.67 L 147.87 61.74 L 148.28 61.78 L 149.00 61.86 L 149.41 61.90 L 150.12 61.98 L 150.53 62.02 L 151.24 62.11 L 151.64 62.15 L 152.35 62.24 L 152.74 62.29 L 153.46 62.38 L 153.84 62.43 L 154.56 62.52 L 154.93 62.57 L 155.65 62.67 L 156.02 62.72 L 156.73 62.82 L 157.09 62.88 L 157.80 62.98 L 158.16 63.03 L 158.87 63.15 L 159.21 63.20 L 159.92 63.31 L 160.26 63.37 L 160.97 63.49 L 161.30 63.54 L 162.01 63.66 L 162.33 63.72 L 163.04 63.84 L 163.36 63.90 L 164.07 64.02 L 164.37 64.08 L 165.08 64.21 L 165.38 64.27 L 166.08 64.40 L 166.37 64.46 L 167.08 64.59 L 167.36 64.65 L 168.06 64.79 L 168.33 64.85 L 169.04 64.99 L 169.30 65.04 L 170.01 65.19 L 170.26 65.24 L 170.96 65.40 L 171.21 65.45 L 171.91 65.60 L 172.15 65.65 L 172.85 65.81 L 173.08 65.86 L 173.78 66.02 L 174.00 66.07 L 174.70 66.23 L 174.91 66.28 L 175.61 66.44 L 175.81 66.49 L 176.51 66.66 L 176.70 66.70 L 177.40 66.87 L 177.59 66.92 L 178.29 67.09 L 178.46 67.13 L 179.16 67.31 L 179.33 67.35 L 180.02 67.53 L 180.18 67.57 L 180.88 67.75 L 181.03 67.79 L 181.72 67.97 L 181.86 68.01 L 182.56 68.19 L 182.69 68.23 L 183.39 68.41 L 183.51 68.44 L 184.21 68.63 L 184.32 68.67 L 184.37 68.68 L 184.11 68.01 L 183.84 67.34 L 183.57 66.67 L 183.31 66.00 L 183.04 65.34 L 182.77 64.67 L 182.74 64.58 L 182.44 63.92 L 182.14 63.27 L 181.84 62.61 L 181.54 61.96 L 181.24 61.30 L 180.94 60.65 L 180.90 60.56 L 180.57 59.92 L 180.23 59.28 L 179.90 58.64 L 179.57 58.00 L 179.24 57.36 L 178.91 56.72 L 178.87 56.64 L 178.50 56.02 L 178.14 55.39 L 177.78 54.77 L 177.42 54.15 L 177.05 53.53 L 176.69 52.90 L 176.64 52.82 L 176.26 52.21 L 176.15 52.03 L 176.10 52.01 L 175.40 51.84 L 175.28 51.81 L 174.58 51.64 L 174.45 51.61 L 173.75 51.44 L 173.62 51.40 L 172.92 51.24 L 172.78 51.21 L 172.08 51.04 L 171.93 51.01 L 171.23 50.85 L 171.08 50.82 L 170.37 50.66 L 170.22 50.62 L 169.51 50.47 L 169.35 50.43 L 168.65 50.28 L 168.48 50.25 L 167.77 50.10 L 167.60 50.06 L 166.89 49.92 L 166.71 49.88 L 166.00 49.74 L 165.82 49.70 L 165.11 49.57 L 164.92 49.53 L 164.21 49.39 L 164.01 49.36 L 163.30 49.22 L 163.10 49.19 L 162.39 49.06 L 162.18 49.02 L 161.47 48.90 L 161.26 48.86 L 160.55 48.74 L 160.33 48.70 L 159.62 48.58 L 159.39 48.55 L 158.68 48.43 L 158.45 48.40 L 157.74 48.29 L 157.51 48.25 L 156.79 48.14 L 156.55 48.11 L 155.84 48.00 L 155.60 47.97 L 154.88 47.87 L 154.63 47.84 L 153.92 47.74 L 153.67 47.71 L 152.95 47.61 L 152.69 47.58 L 151.98 47.49 L 151.72 47.46 L 151.00 47.38 L 150.73 47.35 L 150.02 47.27 L 149.75 47.23 L 149.03 47.16 L 148.76 47.13 L 148.04 47.06 L 147.76 47.03 L 147.05 46.96 L 146.76 46.93 L 146.05 46.87 L 145.76 46.84 L 145.05 46.78 L 144.76 46.76 L 144.04 46.70 L 143.75 46.68 L 143.03 46.63 L 142.74 46.60 L 142.02 46.56 L 141.72 46.54 L 141.00 46.49 L 140.70 46.47 L 139.98 46.43 L 139.68 46.42 L 138.96 46.38 L 138.66 46.36 L 137.94 46.33 L 137.64 46.32 L 136.92 46.29 L 136.61 46.28 L 135.89 46.26 L 135.58 46.25 L 134.86 46.23 L 134.56 46.22 L 133.84 46.20 L 133.53 46.20 L 132.81 46.18 L 132.50 46.18 L 131.78 46.17 L 131.47 46.17 L 130.75 46.17 L 130.43 46.17 L 129.71 46.17 L 129.40 46.17 L 128.68 46.17 L 128.37 46.18 L 127.65 46.18 L 127.34 46.19 L 126.62 46.20 L 126.31 46.21 L 125.59 46.23 L 125.28 46.23 L 124.56 46.26 L 124.25 46.27 L 123.54 46.29 L 123.23 46.30 L 122.51 46.33 L 122.20 46.35 L 121.48 46.38 L 121.18 46.40 L 120.46 46.44 L 120.16 46.45 L 119.44 46.49 L 119.14 46.51 L 118.42 46.56 L 118.13 46.58 L 117.41 46.63 L 117.11 46.65 L 116.39 46.71 L 116.10 46.73 L 115.39 46.79 L 115.10 46.81 L 114.38 46.87 L 114.09 46.90 L 113.38 46.97 L 113.09 46.99 L 112.38 47.06 L 112.10 47.09 L 111.38 47.17 L 111.10 47.19 L 110.39 47.27 L 110.12 47.30 L 109.40 47.39 L 109.13 47.42 L 108.42 47.50 L 108.15 47.54 L 107.44 47.63 L 107.18 47.66 L 106.47 47.75 L 106.21 47.79 L 105.50 47.88 L 105.25 47.92 L 104.53 48.02 L 104.29 48.05 L 103.57 48.16 L 103.33 48.20 L 102.62 48.30 L 102.38 48.34 L 101.67 48.45 L 101.44 48.49 L 100.73 48.61 L 100.50 48.64 L 99.79 48.76 L 99.57 48.80 L 98.86 48.92 L 98.65 48.96 L 97.94 49.09 L 97.72 49.12 L 97.02 49.25 L 96.81 49.29 L 96.10 49.42 L 95.90 49.46 L 95.20 49.60 L 95.00 49.64 L 94.30 49.78 L 94.11 49.81 L 93.40 49.96 L 93.22 49.99 L 92.51 50.14 L 92.33 50.18 L 91.63 50.33 L 91.46 50.36 L 90.76 50.52 L 90.59 50.55 L 89.89 50.71 L 89.73 50.74 L 89.02 50.90 L 88.87 50.94 L 88.17 51.10 L 88.02 51.13 L 87.32 51.30 L 87.18 51.33 L 86.48 51.50 L 86.34 51.53 L 85.64 51.70 L 85.51 51.73 L 84.81 51.91 L 84.69 51.94 L 83.99 52.11 L 83.87 52.14 L 83.18 52.32 L 83.06 52.35 L 82.37 52.53 L 82.26 52.56 L 81.57 52.74 L 81.47 52.77 L 80.77 52.96 L 80.68 52.98 L 79.98 53.17 L 79.90 53.20 L 79.20 53.39 L 79.12 53.41 L 78.43 53.60 L 78.35 53.63 L 77.66 53.82 L 77.59 53.84 L 76.90 54.04 L 76.83 54.06 L 76.14 54.26 L 76.09 54.28 L 75.39 54.48 L 75.34 54.50 L 74.65 54.71 L 74.61 54.72 L 73.92 54.93 L 73.88 54.94 L 73.19 55.15 L 73.16 55.16 L 72.47 55.38 L 72.44 55.39 L 71.75 55.60 L 71.73 55.61 L 71.05 55.83 L 71.03 55.83 L 70.34 56.05 L 70.33 56.06 L 69.65 56.28 L 69.64 56.28 L 68.96 56.50 L 68.28 56.73 L 67.61 56.95 L 66.95 57.18 L 66.29 57.40 L 65.64 57.63 L 64.99 57.85 L 64.35 58.08 L 63.71 58.30 L 63.09 58.53 L 62.46 58.75 L 61.85 58.97 L 61.24 59.20 L 60.63 59.42 L 60.03 59.64 L 59.44 59.87 L 58.85 60.09 L 58.26 60.31 L 57.69 60.53 L 57.11 60.75 L 56.55 60.97 L 55.99 61.19 L 55.43 61.41 L 54.88 61.63 L 54.33 61.85 L 53.79 62.06 L 53.25 62.28 L 52.72 62.49 L 52.20 62.71 L 51.68 62.92 L 51.16 63.14 L 50.65 63.35 L 50.14 63.56 L 49.64 63.77 L 49.14 63.98 L 48.65 64.19 L 48.16 64.40 L 47.67 64.61 L 47.19 64.81 L 46.72 65.02 L 46.25 65.22 L 45.78 65.43 L 45.31 65.63 L 44.84 65.82 L 44.37 66.01 L 43.89 66.19 L 43.40 66.37 L 42.91 66.54 L 42.42 66.70 L 41.92 66.86 L 41.41 67.01 L 40.90 67.15 L 40.38 67.29 L 39.86 67.42 L 39.66 67.47 L 39.26 67.25 L 38.85 67.02 L 38.43 66.78 L 38.00 66.54 L 37.56 66.29 L 37.11 66.03 L 36.65 65.77 L 36.18 65.50 L 35.70 65.23 L 35.22 64.95 L 34.71 64.67 L 34.20 64.37 L 33.68 64.08 L 33.15 63.77 L 32.61 63.46 L 32.06 63.14 L 31.50 62.82 L 30.93 62.49 L 30.35 62.16 L 29.76 61.82 L 29.16 61.47 L 28.54 61.12 L 27.92 60.76 L 27.30 60.40 L 26.68 60.04 L 26.05 59.68 L 25.43 59.32 L 24.81 58.96 L 24.18 58.60 L 23.56 58.24 L 22.93 57.88 L 22.31 57.52 L 21.69 57.16 L 21.69 57.16 L 21.06 56.80 L 21.05 56.79 L 21.41 56.17 L 21.77 55.54 L 22.13 54.92 L 22.49 54.30 L 22.85 53.67 L 23.02 53.38 L 23.58 53.38 L 24.30 53.38 L 25.02 53.38 L 25.74 53.38 L 26.46 53.38 L 27.18 53.38 L 27.90 53.38 L 28.62 53.38 L 29.34 53.38 L 30.06 53.38 L 30.78 53.38 L 31.50 53.38 L 32.22 53.38 L 32.94 53.38 L 33.66 53.38 L 34.37 53.37 L 35.07 53.36 L 35.77 53.35 L 36.46 53.32 L 37.15 53.30 L 37.83 53.27 L 38.51 53.23 L 39.18 53.20 L 39.84 53.15 L 40.50 53.10 L 41.15 53.05 L 41.80 52.99 L 42.44 52.92 L 43.08 52.86 L 43.71 52.78 L 44.34 52.70 L 44.96 52.62 L 45.58 52.53 L 46.20 52.44 L 46.81 52.34 L 47.42 52.23 L 48.02 52.12 L 48.62 52.01 L 49.21 51.89 L 49.80 51.76 L 50.39 51.63 L 50.98 51.49 L 51.56 51.35 L 52.14 51.21 L 52.72 51.05 L 53.29 50.90 L 53.86 50.74 L 54.43 50.57 L 55.00 50.39 L 55.57 50.22 L 56.13 50.03 L 56.69 49.84 L 57.25 49.65 L 57.81 49.45 L 58.37 49.24 L 58.93 49.04 L 59.49 48.82 L 60.05 48.60 L 60.61 48.38 L 61.17 48.16 L 61.75 47.94 L 62.32 47.72 L 62.90 47.50 L 63.49 47.28 L 64.08 47.06 L 64.67 46.84 L 65.27 46.62 L 65.88 46.40 L 66.48 46.18 L 67.10 45.96 L 67.72 45.75 L 68.34 45.53 L 68.97 45.31 L 69.60 45.10 L 70.24 44.88 L 70.89 44.66 L 71.53 44.45 L 72.19 44.23 L 72.85 44.02 L 73.51 43.81 L 74.18 43.60 L 74.85 43.39 L 75.53 43.18 L 76.22 42.97 L 76.91 42.76 L 76.91 42.76 L 77.60 42.55 L 77.60 42.55 L 78.29 42.35 L 78.30 42.35 L 78.99 42.15 L 79.01 42.14 L 79.70 41.94 L 79.72 41.94 L 80.41 41.74 L 80.43 41.74 L 81.12 41.55 L 81.15 41.54 L 81.85 41.35 L 81.88 41.34 L 82.57 41.15 L 82.61 41.14 L 83.30 40.96 L 83.34 40.95 L 84.04 40.76 L 84.08 40.75 L 84.78 40.57 L 84.83 40.56 L 85.53 40.38 L 85.58 40.37 L 86.28 40.20 L 86.33 40.18 L 87.03 40.01 L 87.09 40.00 L 87.79 39.83 L 87.86 39.81 L 88.56 39.65 L 88.63 39.63 L 89.33 39.47 L 89.41 39.45 L 90.11 39.29 L 90.19 39.27 L 90.89 39.12 L 90.97 39.10 L 91.67 38.94 L 91.76 38.93 L 92.47 38.77 L 92.56 38.75 L 93.26 38.61 L 93.36 38.59 L 94.06 38.44 L 94.16 38.42 L 94.87 38.28 L 94.97 38.26 L 95.67 38.12 L 95.78 38.10 L 96.49 37.97 L 96.60 37.94 L 97.31 37.81 L 97.42 37.79 L 98.13 37.66 L 98.25 37.64 L 98.96 37.51 L 99.08 37.49 L 99.79 37.37 L 99.91 37.35 L 100.62 37.23 L 100.75 37.21 L 101.46 37.09 L 101.60 37.07 L 102.31 36.95 L 102.44 36.93 L 103.15 36.82 L 103.29 36.80 L 104.01 36.70 L 104.15 36.67 L 104.86 36.57 L 105.01 36.55 L 105.72 36.45 L 105.87 36.43 L 106.58 36.33 L 106.74 36.31 L 107.45 36.22 L 107.61 36.20 L 108.32 36.11 L 108.48 36.09 L 109.19 36.01 L 109.35 35.99 L 110.07 35.90 L 110.23 35.88 L 110.95 35.81 L 111.11 35.79 L 111.83 35.71 L 112.00 35.69 L 112.72 35.62 L 112.89 35.60 L 113.60 35.54 L 113.78 35.52 L 114.50 35.46 L 114.67 35.44 L 115.39 35.38 L 115.57 35.36 L 116.28 35.31 L 116.46 35.29 L 117.18 35.24 L 117.36 35.22 L 118.08 35.17 L 118.27 35.16 L 118.99 35.11 L 119.17 35.10 L 119.89 35.06 L 120.08 35.05 L 120.79 35.01 L 120.98 35.00 L 121.70 34.96 L 121.89 34.95 L 122.61 34.92 L 122.80 34.91 L 123.52 34.88 L 123.71 34.88 L 124.43 34.85 L 124.63 34.85 L 125.34 34.83 L 125.54 34.82 L 126.26 34.80 L 126.45 34.80 L 127.17 34.78 L 127.37 34.78 L 128.09 34.77 L 128.28 34.77 L 129.00 34.76 L 129.20 34.76 L 129.92 34.76 L 130.11 34.76 L 130.83 34.76 L 131.03 34.76 L 131.75 34.76 L 131.94 34.77 L 132.66 34.77 L 132.86 34.78 L 133.58 34.79 L 133.77 34.79 L 134.49 34.81 L 134.69 34.81 L 135.41 34.83 L 135.60 34.84 L 136.32 34.86 L 136.51 34.87 L 137.23 34.90 L 137.42 34.90 L 138.14 34.93 L 138.33 34.94 L 139.05 34.98 L 139.24 34.99 L 139.96 35.02 L 140.15 35.03 L 140.87 35.08 L 141.06 35.09 L 141.78 35.13 L 141.96 35.14 L 142.68 35.19 L 142.86 35.21 L 143.58 35.26 L 143.76 35.27 L 144.48 35.33 L 144.66 35.34 L 145.38 35.40 L 145.56 35.42 L 146.28 35.48 L 146.45 35.50 L 147.17 35.56 L 147.34 35.58 L 148.06 35.65 L 148.23 35.67 L 148.95 35.74 L 149.12 35.76 L 149.83 35.84 L 150.00 35.86 L 150.72 35.94 L 150.88 35.96 L 151.60 36.04 L 151.76 36.06 L 152.47 36.15 L 152.63 36.17 L 153.35 36.26 L 153.50 36.28 L 154.22 36.38 L 154.37 36.40 L 155.08 36.50 L 155.23 36.52 L 155.95 36.62 L 156.09 36.64 L 156.80 36.74 L 156.95 36.77 L 157.66 36.87 L 157.80 36.90 L 158.51 37.01 L 158.65 37.03 L 159.36 37.15 L 159.49 37.17 L 160.20 37.29 L 160.33 37.31 L 161.04 37.43 L 161.17 37.45 L 161.88 37.58 L 162.00 37.60 L 162.71 37.73 L 162.83 37.75 L 163.54 37.88 L 163.65 37.90 L 164.36 38.04 L 164.47 38.06 L 165.18 38.19 L 165.29 38.21 L 165.48 38.25 L 164.97 37.74 L 164.46 37.23 L 163.96 36.72 L 163.45 36.21 L 162.95 35.70 L 162.44 35.18 L 162.37 35.12 L 161.84 34.63 L 161.31 34.14 L 160.78 33.66 L 160.24 33.17 L 159.71 32.68 L 159.18 32.20 L 159.11 32.13 L 158.56 31.67 L 158.00 31.21 L 157.45 30.75 L 156.89 30.29 L 156.34 29.84 L 155.78 29.38 L 155.71 29.31 L 155.13 28.88 L 154.56 28.45 L 153.99 28.01 L 153.41 27.58 L 152.84 27.14 L 152.75 27.08 L 152.57 27.06 L 151.86 26.97 L 151.78 26.96 L 151.07 26.87 L 150.99 26.87 L 150.28 26.78 L 150.20 26.77 L 149.48 26.70 L 149.40 26.69 L 148.69 26.61 L 148.60 26.60 L 147.89 26.53 L 147.80 26.52 L 147.09 26.45 L 147.00 26.44 L 146.29 26.38 L 146.20 26.37 L 145.48 26.31 L 145.39 26.30 L 144.67 26.24 L 144.59 26.23 L 143.87 26.17 L 143.78 26.17 L 143.06 26.11 L 142.96 26.11 L 142.25 26.06 L 142.15 26.05 L 141.43 26.00 L 141.34 26.00 L 140.62 25.96 L 140.52 25.95 L 139.81 25.91 L 139.71 25.90 L 138.99 25.87 L 138.89 25.86 L 138.17 25.83 L 138.07 25.82 L 137.35 25.79 L 137.25 25.79 L 136.53 25.76 L 136.43 25.76 L 135.71 25.74 L 135.61 25.73 L 134.89 25.71 L 134.79 25.71 L 134.07 25.69 L 133.97 25.69 L 133.25 25.68 L 133.15 25.67 L 132.43 25.66 L 132.32 25.66 L 131.60 25.66 L 131.50 25.66 L 130.78 25.65 L 130.68 25.65 L 129.96 25.65 L 129.86 25.65 L 129.14 25.66 L 129.03 25.66 L 128.31 25.66 L 128.21 25.66 L 127.49 25.67 L 127.39 25.67 L 126.67 25.69 L 126.56 25.69 L 125.84 25.71 L 125.74 25.71 L 125.02 25.73 L 124.92 25.73 L 124.20 25.75 L 124.10 25.76 L 123.38 25.78 L 123.28 25.79 L 122.56 25.82 L 122.46 25.82 L 121.74 25.85 L 121.64 25.86 L 120.92 25.90 L 120.83 25.90 L 120.11 25.94 L 120.01 25.95 L 119.29 25.99 L 119.19 26.00 L 118.48 26.04 L 118.38 26.05 L 117.66 26.10 L 117.57 26.10 L 116.85 26.16 L 116.76 26.16 L 116.04 26.22 L 115.95 26.23 L 115.23 26.29 L 115.14 26.29 L 114.42 26.36 L 114.33 26.36 L 113.62 26.43 L 113.53 26.44 L 112.81 26.51 L 112.73 26.52 L 112.01 26.59 L 111.93 26.60 L 111.21 26.67 L 111.13 26.68 L 110.41 26.76 L 110.33 26.77 L 109.62 26.85 L 109.54 26.86 L 108.82 26.94 L 108.75 26.95 L 108.03 27.04 L 107.96 27.05 L 107.24 27.14 L 107.17 27.15 L 106.46 27.25 L 106.39 27.26 L 105.67 27.35 L 105.61 27.36 L 104.89 27.46 L 104.83 27.47 L 104.12 27.58 L 104.05 27.59 L 103.34 27.69 L 103.28 27.70 L 102.57 27.81 L 102.51 27.82 L 101.80 27.94 L 101.74 27.94 L 101.03 28.06 L 100.98 28.07 L 100.26 28.19 L 100.21 28.20 L 99.50 28.32 L 99.46 28.33 L 98.75 28.45 L 98.70 28.46 L 97.99 28.59 L 97.95 28.60 L 97.24 28.73 L 97.20 28.73 L 96.49 28.87 L 96.45 28.88 L 95.75 29.01 L 95.71 29.02 L 95.00 29.16 L 94.97 29.17 L 94.27 29.31 L 94.24 29.31 L 93.53 29.46 L 93.51 29.46 L 92.80 29.61 L 92.78 29.62 L 92.07 29.77 L 92.05 29.77 L 91.35 29.93 L 91.33 29.93 L 90.63 30.09 L 90.61 30.09 L 89.91 30.25 L 89.90 30.25 L 89.20 30.42 L 89.19 30.42 L 88.49 30.58 L 88.48 30.58 L 87.78 30.75 L 87.78 30.75 L 87.08 30.92 L 86.39 31.09 L 85.69 31.27 L 85.01 31.44 L 84.32 31.62 L 83.64 31.80 L 82.97 31.98 L 82.30 32.16 L 81.63 32.34 L 80.96 32.52 L 80.29 32.70 L 79.63 32.87 L 78.97 33.04 L 78.31 33.21 L 77.65 33.38 L 76.99 33.55 L 76.34 33.71 L 75.68 33.88 L 75.03 34.04 L 74.38 34.19 L 73.73 34.35 L 73.08 34.50 L 72.43 34.65 L 71.78 34.80 L 71.14 34.94 L 70.49 35.08 L 69.84 35.22 L 69.20 35.35 L 68.55 35.49 L 67.90 35.61 L 67.26 35.74 L 66.61 35.86 L 65.96 35.98 L 65.31 36.09 L 64.66 36.20 L 64.01 36.31 L 63.36 36.41 L 62.71 36.51 L 62.06 36.61 L 61.40 36.70 L 60.74 36.79 L 60.09 36.87 L 59.43 36.95 L 58.76 37.03 L 58.10 37.10 L 57.43 37.17 L 56.77 37.24 L 56.09 37.30 L 55.42 37.36 L 54.74 37.41 L 54.07 37.46 L 53.38 37.50 L 52.70 37.54 L 52.01 37.58 L 51.32 37.61 L 50.63 37.64 L 49.93 37.66 L 49.23 37.68 L 48.52 37.70 L 47.81 37.71 L 47.10 37.72 L 46.38 37.72 L 45.66 37.72 L 44.94 37.72 L 44.22 37.72 L 43.50 37.72 L 42.78 37.72 L 42.06 37.72 L 41.34 37.72 L 40.62 37.72 L 39.90 37.72 L 39.18 37.72 L 38.46 37.72 L 37.74 37.72 L 37.02 37.72 L 36.30 37.72 L 35.58 37.72 L 35.03 37.72 L 34.54 38.25 L 34.06 38.78 L 33.57 39.32 L 33.09 39.85 L 32.60 40.38 L 32.12 40.91 L 32.05 40.98 L 31.59 41.54 L 31.13 42.09 L 30.68 42.65 L 30.22 43.20 L 29.76 43.76 L 29.30 44.31 L 29.24 44.39 L 28.81 44.96 L 28.38 45.54 L 27.95 46.12 L 27.51 46.70 L 27.08 47.27 L 26.65 47.85 L 26.59 47.93 L 26.19 48.52 L 25.79 49.12 L 25.39 49.72 L 24.99 50.32 L 24.58 50.91 L 24.18 51.51 L 24.13 51.59 L 23.76 52.21 L 23.38 52.82 L 23.01 53.44 L 22.64 54.06 L 22.27 54.67 L 21.89 55.29 L 21.84 55.37 L 21.50 56.01 L 21.16 56.64 L 20.82 57.27 L 20.48 57.91 L 20.14 58.54 L 19.79 59.18 L 19.75 59.26 L 19.43 59.91 L 19.19 60.39 L 19.46 60.86 L 19.82 61.49 L 20.18 62.11 L 20.54 62.73 L 20.90 63.36 L 21.26 63.98 L 21.62 64.60 L 21.98 65.23 L 22.34 65.85 L 22.70 66.47 L 23.06 67.10 L 23.42 67.72 L 23.78 68.35 L 24.14 68.97 L 24.49 69.59 L 24.83 70.20 L 25.17 70.82 L 25.50 71.42 L 25.82 72.03 L 26.14 72.63 L 26.45 73.23 L 26.75 73.83 L 27.04 74.42 L 27.32 75.01 L 27.60 75.60 L 27.87 76.19 L 28.14 76.77 L 28.40 77.35 L 28.65 77.93 L 28.89 78.51 L 29.13 79.09 L 29.35 79.66 L 29.58 80.23 L 29.79 80.80 L 30.00 81.37 L 30.20 81.94 L 30.40 82.51 L 30.58 83.08 L 30.76 83.64 L 30.94 84.21 L 31.11 84.77 L 31.27 85.34 L 31.42 85.90 L 31.57 86.46 L 31.71 87.03 L 31.85 87.59 L 31.98 88.16 L 32.10 88.72 L 32.22 89.29 L 32.33 89.85 L 32.44 90.42 L 32.54 90.99 L 32.63 91.56 L 32.72 92.13 L 32.80 92.70 L 32.88 93.28 L 32.96 93.86 L 33.04 94.44 L 33.12 95.03 L 33.21 95.62 L 33.30 96.21 L 33.39 96.81 L 33.48 97.42 L 33.58 98.03 L 33.68 98.64 L 33.78 99.25 L 33.88 99.88 L 33.98 100.50 L 34.09 101.13 L 34.20 101.76 L 34.32 102.40 L 34.43 103.04 L 34.55 103.69 L 34.67 104.34 L 34.80 104.99 L 34.92 105.65 L 35.05 106.32 L 35.19 106.98 L 35.32 107.66 L 35.46 108.33 L 35.60 109.01 L 35.75 109.70 L 35.90 110.39 L 36.05 111.08 L 36.21 111.78 L 36.36 112.48 L 36.53 113.18 L 36.53 113.19 L 36.69 113.89 L 36.69 113.90 L 36.86 114.60 L 36.86 114.61 L 37.03 115.31 L 37.04 115.33 L 37.21 116.03 L 37.21 116.05 L 37.39 116.75 L 37.39 116.78 L 37.57 117.47 L 37.58 117.51 L 37.76 118.20 L 37.77 118.24 L 37.95 118.94 L 37.96 118.98 L 38.15 119.68 L 38.16 119.72 L 38.35 120.42 L 38.36 120.47 L 38.55 121.16 L 38.56 121.22 L 38.76 121.91 L 38.77 121.97 L 38.97 122.66 L 38.99 122.73 L 39.19 123.42 L 39.20 123.49 L 39.41 124.18 L 39.43 124.25 L 39.63 124.94 L 39.65 125.02 L 39.86 125.71 L 39.88 125.79 L 40.09 126.48 L 40.12 126.57 L 40.33 127.26 L 40.36 127.35 L 40.58 128.03 L 40.61 128.13 L 40.82 128.81 L 40.85 128.91 L 41.08 129.60 L 41.11 129.70 L 41.33 130.39 L 41.37 130.49 L 41.59 131.18 L 41.63 131.29 L 41.86 131.97 L 41.90 132.08 L 42.13 132.76 L 42.17 132.88 L 42.41 133.56 L 42.45 133.68 L 42.69 134.36 L 42.74 134.49 L 42.98 135.17 L 43.02 135.30 L 43.27 135.97 L 43.32 136.11 L 43.57 136.78 L 43.62 136.92 L 43.87 137.59 L 43.92 137.73 L 44.17 138.41 L 44.23 138.55 L 44.49 139.22 L 44.54 139.37 L 44.80 140.04 L 44.86 140.19 L 45.13 140.86 L 45.19 141.01 L 45.45 141.68 L 45.52 141.83 L 45.79 142.50 L 45.85 142.66 L 46.12 143.32 L 46.19 143.48 L 46.47 144.15 L 46.53 144.31 L 46.82 144.97 L 46.89 145.14 L 47.17 145.80 L 47.24 145.97 L 47.53 146.63 L 47.60 146.80 L 47.89 147.46 L 47.97 147.63 L 48.26 148.29 L 48.34 148.46 L 48.64 149.12 L 48.72 149.29 L 49.02 149.95 L 49.10 150.13 L 49.40 150.78 L 49.48 150.96 L 49.79 151.61 L 49.88 151.79 L 50.19 152.44 L 50.27 152.62 L 50.59 153.27 L 50.68 153.45 L 50.99 154.10 L 51.08 154.28 L 51.41 154.93 L 51.50 155.11 L 51.82 155.76 L 51.91 155.94 L 52.24 156.59 L 52.34 156.77 L 52.67 157.41 L 52.76 157.60 L 53.10 158.24 L 53.20 158.43 L 53.53 159.06 L 53.63 159.25 L 53.97 159.89 L 54.08 160.08 L 54.42 160.71 L 54.52 160.90 L 54.87 161.53 L 54.97 161.72 L 55.32 162.35 L 55.43 162.54 L 55.78 163.16 L 55.89 163.35 L 56.25 163.98 L 56.35 164.16 L 56.71 164.79 L 56.82 164.98 L 57.19 165.60 L 57.30 165.78 L 57.66 166.40 L 57.77 166.59 L 58.14 167.21 L 58.25 167.39 L 58.63 168.01 L 58.74 168.19 L 59.12 168.81 L 59.23 168.99 L 59.61 169.60 L 59.72 169.78 L 60.10 170.39 L 60.22 170.58 L 60.60 171.18 L 60.72 171.36 L 61.11 171.97 L 61.22 172.15 L 61.61 172.75 L 61.73 172.93 L 62.12 173.53 L 62.24 173.70 L 62.64 174.30 L 62.75 174.47 L 63.15 175.07 L 63.27 175.24 L 63.67 175.84 L 63.79 176.00 L 64.20 176.60 L 64.31 176.76 L 64.72 177.36 L 64.83 177.52 L 65.25 178.11 L 65.36 178.27 L 65.78 178.86 L 65.89 179.02 L 66.31 179.60 L 66.43 179.76 L 66.85 180.34 L 66.96 180.49 L 67.39 181.07 L 67.50 181.23 L 67.93 181.80 L 68.04 181.95 L 68.47 182.53 L 68.58 182.67 L 69.01 183.25 L 69.12 183.39 L 69.56 183.96 L 69.66 184.10 L 70.10 184.67 L 70.21 184.81 L 70.34 184.97 L 69.66 184.72 L 68.99 184.46 L 68.31 184.21 L 67.64 183.95 L 66.97 183.70 L 66.29 183.45 L 66.20 183.41 L 65.54 183.13 L 64.88 182.84 L 64.22 182.55 L 63.56 182.27 L 62.90 181.98 L 62.24 181.69 L 62.15 181.65 L 61.50 181.34 L 60.86 181.02 L 60.21 180.70 L 59.57 180.38 L 58.92 180.06 L 58.28 179.74 L 58.19 179.70 L 57.56 179.35 L 56.93 179.00 L 56.30 178.65 L 55.67 178.30 L 55.04 177.95 L 54.41 177.60 L 54.33 177.55 L 53.71 177.18 L 53.09 176.81 L 52.81 176.64 L 52.63 176.36 L 52.25 175.76 L 52.18 175.66 L 51.80 175.05 L 51.74 174.95 L 51.35 174.34 L 51.29 174.24 L 50.91 173.63 L 50.85 173.53 L 50.47 172.91 L 50.41 172.81 L 50.04 172.19 L 49.98 172.09 L 49.61 171.47 L 49.55 171.37 L 49.18 170.75 L 49.12 170.65 L 48.75 170.03 L 48.69 169.92 L 48.33 169.30 L 48.27 169.20 L 47.91 168.57 L 47.85 168.47 L 47.50 167.84 L 47.44 167.74 L 47.09 167.11 L 47.03 167.00 L 46.68 166.37 L 46.62 166.27 L 46.27 165.64 L 46.22 165.53 L 45.87 164.90 L 45.82 164.80 L 45.47 164.16 L 45.42 164.06 L 45.08 163.42 L 45.03 163.32 L 44.69 162.68 L 44.64 162.58 L 44.31 161.94 L 44.25 161.83 L 43.92 161.19 L 43.87 161.09 L 43.55 160.45 L 43.49 160.34 L 43.17 159.70 L 43.12 159.60 L 42.80 158.95 L 42.75 158.85 L 42.44 158.21 L 42.39 158.11 L 42.07 157.46 L 42.03 157.36 L 41.71 156.71 L 41.67 156.61 L 41.36 155.96 L 41.32 155.86 L 41.01 155.21 L 40.97 155.12 L 40.66 154.46 L 40.62 154.37 L 40.32 153.71 L 40.28 153.62 L 39.99 152.96 L 39.94 152.87 L 39.65 152.21 L 39.61 152.12 L 39.32 151.46 L 39.28 151.37 L 39.00 150.71 L 38.96 150.63 L 38.68 149.96 L 38.64 149.88 L 38.36 149.22 L 38.32 149.13 L 38.05 148.47 L 38.01 148.39 L 37.74 147.72 L 37.71 147.64 L 37.43 146.97 L 37.40 146.90 L 37.13 146.23 L 37.10 146.15 L 36.84 145.48 L 36.81 145.41 L 36.55 144.74 L 36.52 144.67 L 36.26 143.99 L 36.23 143.92 L 35.97 143.25 L 35.95 143.19 L 35.69 142.51 L 35.67 142.45 L 35.42 141.77 L 35.40 141.71 L 35.15 141.03 L 35.13 140.97 L 34.88 140.30 L 34.86 140.24 L 34.62 139.56 L 34.60 139.51 L 34.36 138.83 L 34.34 138.78 L 34.11 138.10 L 34.09 138.05 L 33.85 137.37 L 33.84 137.32 L 33.61 136.64 L 33.59 136.59 L 33.36 135.91 L 33.35 135.87 L 33.13 135.19 L 33.11 135.15 L 32.89 134.46 L 32.88 134.43 L 32.66 133.74 L 32.65 133.71 L 32.43 133.03 L 32.42 133.00 L 32.21 132.31 L 32.20 132.28 L 31.99 131.60 L 31.98 131.57 L 31.77 130.89 L 31.77 130.87 L 31.56 130.18 L 31.56 130.16 L 31.35 129.47 L 31.35 129.46 L 31.15 128.76 L 31.15 128.75 L 30.95 128.06 L 30.95 128.06 L 30.75 127.36 L 30.75 127.36 L 30.56 126.67 L 30.37 125.98 L 30.18 125.29 L 30.00 124.60 L 29.82 123.92 L 29.65 123.24 L 29.47 122.57 L 29.31 121.89 L 29.14 121.22 L 28.98 120.55 L 28.82 119.89 L 28.66 119.23 L 28.51 118.57 L 28.35 117.91 L 28.20 117.26 L 28.04 116.61 L 27.88 115.96 L 27.72 115.32 L 27.56 114.68 L 27.39 114.04 L 27.23 113.40 L 27.06 112.77 L 26.89 112.13 L 26.71 111.50 L 26.54 110.87 L 26.36 110.25 L 26.18 109.62 L 25.99 109.00 L 25.80 108.38 L 25.61 107.76 L 25.42 107.14 L 25.22 106.53 L 25.02 105.91 L 24.81 105.30 L 24.60 104.69 L 24.39 104.08 L 24.17 103.47 L 23.95 102.86 L 23.72 102.25 L 23.49 101.64 L 23.26 101.03 L 23.02 100.43 L 22.78 99.82 L 22.53 99.21 L 22.28 98.61 L 22.02 98.00 L 21.75 97.39 L 21.49 96.79 L 21.21 96.18 L 20.93 95.57 L 20.65 94.97 L 20.36 94.36 L 20.07 93.75 L 19.77 93.14 L 19.46 92.53 L 19.15 91.92 L 18.84 91.31 L 18.51 90.69 L 18.18 90.08 L 17.85 89.46 L 17.51 88.84 L 17.17 88.22 L 16.81 87.60 L 16.46 86.98 L 16.10 86.36 L 15.74 85.73 L 15.38 85.11 L 15.02 84.49 L 14.66 83.86 L 14.30 83.24 L 13.94 82.61 L 13.58 81.99 L 13.22 81.37 L 12.86 80.74 L 12.50 80.12 L 12.50 80.12 L 12.30 79.78 L 12.16 80.49 L 12.01 81.19 L 11.87 81.90 L 11.72 82.60 L 11.58 83.31 L 11.43 84.01 L 11.41 84.11 L 11.30 84.82 L 11.19 85.53 L 11.08 86.24 L 10.97 86.96 L 10.87 87.67 L 10.76 88.38 L 10.74 88.47 L 10.67 89.19 L 10.59 89.91 L 10.52 90.62 L 10.44 91.34 L 10.37 92.06 L 10.29 92.77 L 10.28 92.87 L 10.24 93.59 L 10.20 94.31 L 10.16 95.02 L 10.12 95.74 L 10.09 96.46 L 10.05 97.18 L 10.04 97.28 L 10.04 98.00 L 10.03 98.72 L 10.03 99.44 L 10.02 100.16 L 10.02 100.88 L 10.02 101.60 L 10.02 101.70 L 10.05 102.42 L 10.08 103.14 L 10.11 103.85 L 10.14 104.57 L 10.17 105.29 L 10.20 106.01 L 10.21 106.11 L 10.26 106.83 L 10.32 107.55 L 10.33 107.69 L 10.57 108.11 L 10.93 108.73 L 11.29 109.36 L 11.65 109.98 L 12.01 110.60 L 12.37 111.23 L 12.72 111.85 L 13.07 112.47 L 13.41 113.09 L 13.75 113.72 L 14.09 114.34 L 14.43 114.96 L 14.76 115.58 L 15.08 116.21 L 15.41 116.83 L 15.73 117.45 L 16.05 118.08 L 16.36 118.70 L 16.67 119.32 L 16.98 119.95 L 17.29 120.57 L 17.59 121.20 L 17.89 121.83 L 18.19 122.45 L 18.49 123.08 L 18.79 123.71 L 19.08 124.34 L 19.37 124.97 L 19.66 125.60 L 19.94 126.23 L 20.23 126.87 L 20.51 127.50 L 20.80 128.13 L 21.08 128.77 L 21.36 129.41 L 21.64 130.05 L 21.91 130.69 L 22.19 131.33 L 22.46 131.97 L 22.74 132.61 L 23.01 133.26 L 23.29 133.90 L 23.56 134.55 L 23.83 135.20 L 24.11 135.85 L 24.38 136.50 L 24.65 137.15 L 24.92 137.80 L 25.20 138.46 L 25.47 139.11 L 25.74 139.77 L 26.02 140.43 L 26.29 141.08 L 26.57 141.74 L 26.84 142.41 L 27.12 143.07 L 27.40 143.73 L 27.68 144.40 L 27.68 144.40 L 27.96 145.06 L 27.96 145.06 L 28.24 145.73 L 28.24 145.73 L 28.52 146.39 L 28.52 146.40 L 28.81 147.06 L 28.81 147.07 L 29.09 147.73 L 29.09 147.74 L 29.38 148.40 L 29.38 148.41 L 29.67 149.07 L 29.67 149.08 L 29.96 149.74 L 29.96 149.75 L 30.25 150.41 L 30.26 150.42 L 30.54 151.08 L 30.55 151.10 L 30.84 151.75 L 30.85 151.77 L 31.14 152.43 L 31.15 152.45 L 31.44 153.10 L 31.45 153.12 L 31.74 153.78 L 31.75 153.80 L 32.05 154.45 L 32.05 154.47 L 32.35 155.13 L 32.36 155.15 L 32.66 155.80 L 32.67 155.83 L 32.97 156.48 L 32.99 156.50 L 33.29 157.16 L 33.30 157.18 L 33.61 157.83 L 33.62 157.86 L 33.93 158.51 L 33.94 158.53 L 34.25 159.18 L 34.26 159.21 L 34.57 159.86 L 34.59 159.89 L 34.90 160.54 L 34.91 160.57 L 35.23 161.21 L 35.24 161.24 L 35.56 161.89 L 35.58 161.92 L 35.90 162.56 L 35.91 162.60 L 36.24 163.24 L 36.25 163.27 L 36.52 163.80 L 36.02 163.28 L 35.52 162.76 L 35.02 162.24 L 34.53 161.72 L 34.03 161.20 L 33.53 160.68 L 33.46 160.61 L 32.99 160.06 L 32.52 159.52 L 32.05 158.97 L 31.58 158.43 L 31.11 157.89 L 30.63 157.34 L 30.57 157.27 L 30.13 156.70 L 29.68 156.14 L 29.24 155.57 L 28.79 155.00 L 28.35 154.44 L 27.90 153.87 L 27.84 153.79 L 27.43 153.20 L 27.01 152.62 L 26.60 152.03 L 26.18 151.44 L 25.76 150.85 L 25.35 150.27 L 25.29 150.19 L 24.90 149.58 L 24.52 148.97 L 24.13 148.36 L 23.74 147.76 L 23.36 147.15 L 22.97 146.54 L 22.92 146.46 L 22.56 145.84 L 22.21 145.21 L 21.85 144.58 L 21.49 143.96 L 21.14 143.33 L 20.78 142.71 L 20.73 142.62 L 20.41 141.98 L 20.08 141.34 L 19.76 140.69 L 19.43 140.05 L 19.11 139.41 L 18.78 138.77 L 18.74 138.68 L 18.44 138.02 L 18.15 137.37 L 17.86 136.71 L 17.56 136.05 L 17.27 135.39 L 16.98 134.74 L 16.94 134.65 L 16.68 133.98 L 16.41 133.31 L 16.15 132.63 L 15.89 131.96 L 15.63 131.29 L 15.37 130.62 L 15.34 130.53 L 15.11 129.85 L 14.88 129.16 L 14.65 128.48 L 14.43 127.80 L 14.20 127.11 L 13.97 126.43 L 13.94 126.34 L 13.75 125.65 L 13.55 124.95 L 13.36 124.26 L 13.17 123.57 L 12.97 122.87 L 12.78 122.18 L 12.75 122.08 L 12.59 121.38 L 12.43 120.68 L 12.27 119.98 L 12.11 119.28 L 11.95 118.57 L 11.79 117.87 L 11.77 117.78 L 11.65 117.07 L 11.52 116.36 L 11.40 115.65 L 11.27 114.94 L 11.15 114.23 L 11.02 113.52 L 11.01 113.43 L 10.92 112.71 L 10.83 112.00 L 10.74 111.28 L 10.65 110.57 L 10.56 109.85 L 10.47 109.14 L 10.46 109.04 L 10.40 108.33 L 10.35 107.61 L 10.29 106.89 L 10.24 106.17 L 10.18 105.45 L 10.13 104.74 L 10.12 104.64 L 10.10 103.92 L 10.08 103.20 L 10.06 102.48 L 10.04 101.76 L 10.02 101.04 L 10.00 100.32 L 10.00 100.22 L 10.02 99.50 L 10.03 98.78 L 10.05 98.06 L 10.06 97.34 L 10.08 96.62 L 10.10 95.90 L 10.10 95.81 L 10.15 95.09 L 10.20 94.37 L 10.25 93.65 L 10.30 92.93 L 10.35 92.22 L 10.41 91.50 L 10.41 91.40 L 10.50 90.69 L 10.58 89.97 L 10.67 89.26 L 10.76 88.54 L 10.84 87.83 L 10.93 87.11 L 10.94 87.01 L 11.06 86.31 L 11.18 85.60 L 11.31 84.89 L 11.43 84.18 L 11.55 83.47 L 11.67 82.76 L 11.69 82.66 L 11.84 81.96 L 12.00 81.25 L 12.15 80.55 L 12.31 79.85 L 12.47 79.15 L 12.62 78.44 L 12.64 78.35 L 12.83 77.65 L 13.02 76.96 L 13.21 76.26 L 13.40 75.57 L 13.59 74.88 L 13.79 74.18 L 13.81 74.09 L 14.04 73.40 L 14.26 72.72 L 14.48 72.04 L 14.71 71.35 L 14.93 70.67 L 15.16 69.98 L 15.19 69.89 L 15.44 69.22 L 15.70 68.55 L 15.96 67.87 L 16.22 67.20 L 16.47 66.53 L 16.73 65.86 L 16.77 65.76 L 17.06 65.11 L 17.35 64.45 L 17.64 63.79 L 17.93 63.13 L 18.22 62.47 L 18.51 61.81 L 18.55 61.72 L 18.87 61.08 L 19.19 60.43 L 19.51 59.79 L 19.83 59.15 L 20.16 58.50 L 20.48 57.86 L 20.52 57.77 L 20.88 57.14 L 21.23 56.52 L 21.58 55.89 L 21.94 55.26 L 22.29 54.63 L 22.64 54.01 L 22.69 53.92 L 23.07 53.31 L 23.46 52.70 L 23.84 52.09 L 24.22 51.49 L 24.61 50.88 L 24.99 50.27 L 25.04 50.18 L 25.46 49.59 L 25.87 49.00 L 26.28 48.41 L 26.70 47.83 L 27.11 47.24 L 27.52 46.65 L 27.58 46.57 L 28.02 46.00 L 28.46 45.43 L 28.90 44.86 L 29.34 44.29 L 29.79 43.72 L 30.23 43.15 L 30.29 43.08 L 30.76 42.53 L 31.23 41.98 L 31.69 41.44 L 32.16 40.89 L 32.63 40.35 L 33.10 39.80 L 33.16 39.72 L 33.66 39.20 L 34.16 38.68 L 34.65 38.16 L 35.15 37.63 L 35.64 37.11 L 36.14 36.59 L 36.20 36.52 L 36.72 36.02 L 37.24 35.52 L 37.76 35.02 L 38.28 34.53 L 38.80 34.03 L 39.32 33.53 L 39.39 33.46 L 39.94 32.99 L 40.48 32.52 L 41.03 32.05 L 41.57 31.58 L 42.11 31.11 L 42.66 30.63 L 42.73 30.57 L 43.30 30.13 L 43.87 29.68 L 44.43 29.24 L 45.00 28.79 L 45.56 28.35 L 46.13 27.91 L 46.21 27.84 L 46.80 27.43 L 47.38 27.01 L 47.97 26.60 L 48.56 26.18 L 49.15 25.76 L 49.73 25.35 L 49.81 25.29 L 50.42 24.90 L 51.03 24.52 L 51.64 24.13 L 52.24 23.74 L 52.85 23.36 L 53.46 22.97 L 53.54 22.92 L 54.16 22.56 L 54.79 22.21 L 55.42 21.85 L 56.04 21.49 L 56.67 21.14 L 57.29 20.78 L 57.38 20.73 L 58.02 20.41 L 58.66 20.08 L 59.30 19.76 L 59.95 19.43 L 60.59 19.11 L 61.23 18.78 L 61.32 18.74 L 61.98 18.44 L 62.63 18.15 L 63.29 17.86 L 63.95 17.56 L 64.61 17.27 L 65.26 16.98 L 65.35 16.94 L 66.02 16.68 L 66.69 16.41 L 67.37 16.15 L 68.04 15.89 L 68.71 15.63 L 69.38 15.37 L 69.47 15.34 L 70.15 15.11 L 70.84 14.88 L 71.52 14.65 L 72.20 14.43 L 72.89 14.20 L 73.57 13.97 L 73.66 13.94 L 74.35 13.75 L 75.05 13.55 L 75.74 13.36 L 76.43 13.17 L 77.13 12.97 L 77.82 12.78 L 77.92 12.75 L 78.62 12.59 L 79.32 12.43 L 80.02 12.27 L 80.72 12.11 L 81.43 11.95 L 82.13 11.79 L 82.22 11.77 L 82.93 11.65 L 83.64 11.52 L 84.35 11.40 L 85.06 11.27 L 85.77 11.15 L 86.48 11.02 L 86.57 11.01 L 87.29 10.92 L 88.00 10.83 L 88.72 10.74 L 89.43 10.65 L 90.15 10.56 L 90.86 10.47 L 90.96 10.46 L 91.67 10.40 L 92.39 10.35 L 93.11 10.29 L 93.83 10.24 L 94.55 10.18 L 95.26 10.13 L 95.36 10.12 L 96.08 10.10 L 96.80 10.08 L 97.52 10.06 L 98.24 10.04 L 98.96 10.02 L 99.68 10.00 L 99.78 10.00 L 100.50 10.02 L 101.22 10.03 L 101.94 10.05 L 102.66 10.06 L 103.38 10.08 L 104.10 10.10 L 104.19 10.10 L 104.91 10.15 L 105.63 10.20 L 106.35 10.25 L 107.07 10.30 L 107.78 10.35 L 108.50 10.41 L 108.60 10.41 L 109.31 10.50 L 110.03 10.59 L 110.74 10.67 L 111.46 10.76 L 112.17 10.84 L 112.89 10.93 L 112.99 10.94 L 113.70 11.06 L 114.40 11.18 L 115.11 11.31 L 115.82 11.43 L 116.53 11.55 L 117.24 11.67 L 117.34 11.69 L 118.04 11.84 L 118.74 12.00 L 119.45 12.15 L 120.15 12.31 L 120.85 12.47 L 121.56 12.62 L 121.65 12.64 L 122.35 12.83 L 123.04 13.02 L 123.73 13.21 L 124.43 13.40 L 125.12 13.59 L 125.82 13.79 L 125.91 13.81 L 126.60 14.04 L 127.28 14.26 L 127.96 14.48 L 128.65 14.71 L 129.33 14.93 L 130.02 15.16 L 130.11 15.19 L 130.78 15.44 L 131.46 15.70 L 132.13 15.96 L 132.80 16.22 L 133.47 16.47 L 134.14 16.73 L 134.24 16.77 L 134.90 17.05 L 135.56 17.34 L 136.22 17.62 L 136.88 17.91 L 137.10 18.00 L 136.39 17.98 L 135.67 17.97 L 135.64 17.96 L 134.92 17.95 L 134.89 17.95 L 134.17 17.93 L 134.14 17.93 L 133.42 17.92 L 133.39 17.92 L 132.67 17.91 L 132.64 17.91 L 131.92 17.91 L 131.89 17.91 L 131.17 17.90 L 131.14 17.90 L 130.42 17.90 L 130.39 17.90 L 129.67 17.90 L 129.64 17.90 L 128.92 17.90 L 128.89 17.90 L 128.17 17.91 L 128.14 17.91 L 127.42 17.92 L 127.39 17.92 L 126.67 17.93 L 126.64 17.93 L 125.92 17.94 L 125.90 17.94 L 125.18 17.96 L 125.15 17.96 L 124.43 17.98 L 124.40 17.98 L 123.68 17.99 L 123.65 18.00 L 122.93 18.02 L 122.90 18.02 L 122.18 18.04 L 122.15 18.04 L 121.44 18.07 L 121.41 18.07 L 120.69 18.10 L 120.66 18.10 L 119.94 18.13 L 119.92 18.13 L 119.20 18.16 L 119.17 18.17 L 118.45 18.20 L 118.43 18.20 L 117.71 18.24 L 117.68 18.24 L 116.97 18.28 L 116.94 18.28 L 116.22 18.32 L 116.20 18.32 L 115.48 18.37 L 115.46 18.37 L 114.74 18.41 L 114.72 18.41 L 114.00 18.46 L 113.98 18.46 L 113.26 18.51 L 113.24 18.51 L 112.53 18.56 L 112.51 18.56 L 111.79 18.62 L 111.77 18.62 L 111.05 18.67 L 111.04 18.67 L 110.32 18.73 L 110.30 18.73 L 109.59 18.78 L 109.57 18.79 L 108.85 18.84 L 108.84 18.85 L 108.12 18.91 L 108.11 18.91 L 107.39 18.97 L 107.38 18.97 L 106.66 19.03 L 106.65 19.03 L 105.94 19.10 L 105.93 19.10 L 105.21 19.16 L 105.20 19.16 L 104.48 19.23 L 104.48 19.23 L 103.76 19.29 L 103.75 19.30 L 103.04 19.36 L 103.03 19.36 L 102.32 19.43 L 102.31 19.43 L 101.59 19.50 L 101.59 19.50 L 100.88 19.57 L 100.87 19.57 L 100.16 19.64 L 100.16 19.64 L 99.44 19.71 L 98.73 19.79 L 98.01 19.86 L 97.30 19.93 L 96.59 20.00 L 95.88 20.07 L 95.17 20.14 L 94.46 20.22 L 93.75 20.29 L 93.04 20.36 L 92.34 20.43 L 91.63 20.50 L 90.93 20.57 L 90.22 20.64 L 89.52 20.71 L 88.82 20.77 L 88.12 20.84 L 87.42 20.90 L 86.72 20.97 L 86.02 21.03 L 85.32 21.09 L 84.62 21.16 L 83.92 21.21 L 83.22 21.27 L 82.52 21.33 L 81.82 21.38 L 81.12 21.44 L 80.42 21.49 L 79.73 21.54 L 79.02 21.59 L 78.33 21.63 L 77.63 21.68 L 76.92 21.72 L 76.22 21.76 L 75.52 21.79 L 74.82 21.83 L 74.12 21.86 L 73.41 21.89 L 72.71 21.92 L 72.00 21.95 L 71.29 21.97 L 70.59 21.99 L 69.88 22.01 L 69.17 22.02 L 68.45 22.04 L 67.74 22.05 L 67.02 22.05 L 66.31 22.06 L 65.59 22.06 L 64.87 22.06 L 64.15 22.06 L 63.43 22.06 L 62.71 22.06 L 61.99 22.06 L 61.27 22.06 L 60.55 22.06 L 59.83 22.06 L 59.11 22.06 L 58.39 22.06 L 57.67 22.06 L 56.95 22.06 L 56.23 22.06 L 55.51 22.06 L 55.00 22.06" 
          fill="none" 
          stroke="currentColor" 
          stroke-width="0.5"/>
</svg>