<?xml version="1.0" encoding="UTF-8" standalone="no"?>
<svg width="100%" height="100%" viewBox="0 0 200 200" preserveAspectRatio="xMidYMid meet" xmlns="http://www.w3.org/2000/svg">
    <path d="M 10.00 100.00 L 10.04 98.20 L 10.09 96.40 L 10.11 95.58 L 10.24 93.79 L 10.37 91.99 L 10.43 91.18 L 10.65 89.39 L 10.87 87.61 L 10.97 86.79 L 11.28 85.02 L 11.59 83.25 L 11.73 82.44 L 11.88 81.68 L 13.16 82.96 L 13.78 83.58 L 12.51 84.85 L 11.23 86.12 L 11.08 86.10 L 10.85 87.88 L 10.61 89.67 L 10.51 90.48 L 10.36 92.27 L 10.21 94.07 L 10.15 94.88 L 10.09 96.68 L 10.03 98.48 L 10.00 99.30 L 10.03 101.10 L 10.06 102.90 L 10.08 103.70 L 11.35 102.43 L 12.62 101.16 L 13.78 100.00 L 12.51 98.73 L 11.23 97.46 L 10.08 96.30 L 10.11 95.45 L 11.39 94.18 L 12.66 92.91 L 13.93 91.63 L 15.21 90.36 L 16.48 89.09 L 17.75 87.81 L 17.88 87.68 L 19.16 88.96 L 20.43 90.23 L 21.70 91.50 L 21.99 91.79 L 20.72 93.06 L 19.44 94.33 L 18.17 95.61 L 17.88 95.89 L 19.16 97.17 L 20.43 98.44 L 21.70 99.71 L 21.99 100.00 L 23.26 98.73 L 24.54 97.45 L 25.81 96.18 L 26.10 95.89 L 27.37 97.17 L 28.64 98.44 L 29.91 99.71 L 30.20 100.00 L 28.93 101.27 L 27.66 102.55 L 26.38 103.82 L 25.11 105.09 L 23.84 106.36 L 22.56 107.64 L 21.99 108.21 L 20.72 106.94 L 19.44 105.67 L 18.17 104.39 L 17.88 104.11 L 16.61 105.38 L 15.34 106.65 L 14.07 107.92 L 13.78 108.21 L 15.05 109.49 L 16.32 110.76 L 17.60 112.03 L 17.88 112.32 L 16.61 113.59 L 15.34 114.86 L 14.07 116.14 L 12.79 117.41 L 11.88 118.32 L 12.29 120.07 L 12.70 121.82 L 12.89 122.62 L 13.62 124.27 L 13.78 124.64 L 15.05 123.36 L 16.32 122.09 L 17.60 120.82 L 17.88 120.53 L 19.16 121.80 L 20.43 123.07 L 21.70 124.35 L 21.99 124.64 L 20.72 125.91 L 19.45 127.18 L 18.17 128.45 L 17.88 128.74 L 19.16 130.01 L 20.43 131.29 L 21.70 132.56 L 21.99 132.85 L 23.26 131.57 L 24.54 130.30 L 25.81 129.03 L 26.10 128.74 L 27.37 130.01 L 28.64 131.29 L 29.91 132.56 L 30.20 132.85 L 28.93 134.12 L 27.66 135.39 L 26.38 136.67 L 25.11 137.94 L 23.84 139.21 L 22.57 140.48 L 21.99 141.06 L 20.72 139.79 L 19.44 138.51 L 18.80 138.82 L 19.62 140.42 L 20.43 142.03 L 20.80 142.76 L 21.70 144.32 L 22.59 145.88 L 23.00 146.59 L 23.63 147.63 L 24.91 146.35 L 26.10 145.16 L 27.37 146.44 L 28.64 147.71 L 29.91 148.98 L 30.20 149.27 L 28.93 150.54 L 27.66 151.81 L 26.93 152.54 L 28.02 153.98 L 29.10 155.41 L 29.60 156.06 L 30.75 157.44 L 31.91 158.82 L 32.43 159.45 L 33.64 160.78 L 34.34 161.55 L 35.61 160.28 L 36.89 159.01 L 38.16 157.74 L 38.41 157.48 L 37.14 156.21 L 35.87 154.94 L 34.60 153.66 L 34.31 153.38 L 35.58 152.10 L 36.85 150.83 L 38.13 149.56 L 38.41 149.27 L 39.69 150.54 L 40.96 151.82 L 42.23 153.09 L 42.52 153.38 L 43.79 152.10 L 45.06 150.83 L 46.34 149.56 L 46.63 149.27 L 45.35 148.00 L 44.08 146.72 L 42.81 145.45 L 41.53 144.18 L 40.26 142.91 L 38.99 141.63 L 38.41 141.06 L 37.14 142.33 L 35.87 143.60 L 34.60 144.88 L 34.31 145.16 L 33.03 143.89 L 31.76 142.62 L 30.49 141.35 L 30.20 141.06 L 31.47 139.78 L 32.75 138.51 L 34.02 137.24 L 35.29 135.97 L 36.57 134.69 L 37.84 133.42 L 39.11 132.15 L 40.38 130.88 L 41.66 129.60 L 42.52 128.74 L 43.79 130.01 L 45.06 131.29 L 46.34 132.56 L 46.62 132.85 L 45.35 134.12 L 44.08 135.39 L 42.81 136.66 L 42.52 136.95 L 43.79 138.23 L 45.06 139.50 L 46.34 140.77 L 47.61 142.04 L 48.88 143.32 L 50.16 144.59 L 50.73 145.16 L 52.00 143.89 L 53.28 142.62 L 54.55 141.35 L 54.84 141.06 L 53.56 139.79 L 52.29 138.51 L 51.02 137.24 L 50.73 136.95 L 52.00 135.68 L 53.28 134.41 L 54.55 133.13 L 54.84 132.85 L 56.11 134.12 L 57.38 135.39 L 58.66 136.66 L 58.94 136.95 L 60.22 135.68 L 61.49 134.41 L 62.76 133.13 L 63.05 132.85 L 61.78 131.57 L 60.50 130.30 L 59.23 129.03 L 57.96 127.76 L 56.68 126.48 L 55.41 125.21 L 54.84 124.64 L 53.56 125.91 L 52.29 127.18 L 51.02 128.45 L 50.73 128.74 L 49.46 127.47 L 48.19 126.20 L 46.91 124.92 L 46.63 124.63 L 47.90 123.36 L 49.17 122.09 L 50.44 120.82 L 50.73 120.53 L 49.46 119.26 L 48.19 117.98 L 46.91 116.71 L 45.64 115.44 L 44.37 114.17 L 43.09 112.89 L 42.52 112.32 L 41.25 113.59 L 39.97 114.86 L 38.70 116.14 L 38.41 116.42 L 39.69 117.70 L 40.96 118.97 L 42.23 120.24 L 42.52 120.53 L 41.25 121.80 L 39.97 123.08 L 38.70 124.35 L 37.43 125.62 L 36.16 126.89 L 34.88 128.17 L 34.31 128.74 L 33.03 127.47 L 31.76 126.20 L 30.49 124.92 L 30.20 124.64 L 31.47 123.36 L 32.75 122.09 L 34.02 120.82 L 34.31 120.53 L 33.03 119.26 L 31.76 117.98 L 30.49 116.71 L 30.20 116.42 L 28.93 117.70 L 27.66 118.97 L 26.38 120.24 L 26.10 120.53 L 24.82 119.26 L 23.55 117.98 L 22.28 116.71 L 21.99 116.42 L 23.26 115.15 L 24.54 113.88 L 25.81 112.61 L 27.08 111.33 L 28.35 110.06 L 29.63 108.79 L 30.20 108.21 L 31.47 109.48 L 32.75 110.76 L 34.02 112.03 L 34.31 112.32 L 35.58 111.04 L 36.85 109.77 L 38.13 108.50 L 38.41 108.21 L 37.14 106.94 L 35.87 105.67 L 34.60 104.39 L 34.31 104.11 L 35.58 102.83 L 36.85 101.56 L 38.13 100.29 L 38.41 100.00 L 39.69 101.27 L 40.96 102.55 L 42.23 103.82 L 42.52 104.11 L 43.79 102.83 L 45.07 101.56 L 46.34 100.29 L 46.63 100.00 L 45.35 98.73 L 44.08 97.45 L 42.81 96.18 L 42.52 95.89 L 43.79 94.62 L 45.06 93.35 L 46.34 92.08 L 47.61 90.80 L 48.88 89.53 L 50.16 88.26 L 50.73 87.68 L 52.00 88.96 L 53.28 90.23 L 54.55 91.50 L 54.84 91.79 L 53.56 93.06 L 52.29 94.33 L 51.02 95.61 L 50.73 95.89 L 52.00 97.17 L 53.28 98.44 L 54.55 99.71 L 54.84 100.00 L 56.11 98.73 L 57.38 97.45 L 58.65 96.18 L 58.94 95.89 L 60.22 97.17 L 61.49 98.44 L 62.76 99.71 L 63.05 100.00 L 61.78 101.27 L 60.50 102.55 L 59.23 103.82 L 57.96 105.09 L 56.68 106.36 L 55.41 107.64 L 54.84 108.21 L 53.56 106.94 L 52.29 105.67 L 51.02 104.39 L 50.73 104.11 L 49.46 105.38 L 48.19 106.65 L 46.91 107.92 L 46.63 108.21 L 47.90 109.48 L 49.17 110.76 L 50.44 112.03 L 51.72 113.30 L 52.99 114.58 L 54.26 115.85 L 54.84 116.42 L 56.11 115.15 L 57.38 113.88 L 58.65 112.60 L 58.94 112.32 L 60.22 113.59 L 61.49 114.86 L 62.76 116.14 L 63.05 116.42 L 61.78 117.70 L 60.50 118.97 L 59.23 120.24 L 58.94 120.53 L 60.21 121.80 L 61.49 123.07 L 62.76 124.35 L 64.03 125.62 L 65.31 126.89 L 66.58 128.17 L 67.15 128.74 L 68.43 127.47 L 69.70 126.19 L 70.97 124.92 L 71.26 124.63 L 69.99 123.36 L 68.71 122.09 L 67.44 120.82 L 67.15 120.53 L 68.43 119.26 L 69.70 117.98 L 70.97 116.71 L 71.26 116.42 L 72.53 117.70 L 73.81 118.97 L 75.08 120.24 L 75.37 120.53 L 76.64 119.26 L 77.91 117.98 L 79.18 116.71 L 79.47 116.42 L 78.20 115.15 L 76.93 113.88 L 75.65 112.60 L 74.38 111.33 L 73.11 110.06 L 71.83 108.79 L 71.26 108.21 L 69.99 109.48 L 68.71 110.76 L 67.44 112.03 L 67.15 112.32 L 65.88 111.04 L 64.61 109.77 L 63.34 108.50 L 63.05 108.21 L 64.32 106.94 L 65.59 105.67 L 66.87 104.39 L 68.14 103.12 L 69.41 101.85 L 70.68 100.57 L 71.96 99.30 L 73.23 98.03 L 74.50 96.76 L 75.36 95.89 L 76.64 97.17 L 77.91 98.44 L 79.18 99.71 L 79.47 100.00 L 78.20 101.27 L 76.93 102.55 L 75.65 103.82 L 75.36 104.11 L 76.64 105.38 L 77.91 106.65 L 79.18 107.92 L 80.46 109.20 L 81.73 110.47 L 83.00 111.74 L 83.58 112.32 L 84.85 111.04 L 86.12 109.77 L 87.39 108.50 L 87.68 108.21 L 86.41 106.94 L 85.14 105.67 L 83.86 104.39 L 83.58 104.11 L 84.85 102.83 L 86.12 101.56 L 87.40 100.29 L 87.68 100.00 L 88.96 101.27 L 90.23 102.55 L 91.50 103.82 L 91.79 104.11 L 93.06 102.83 L 94.33 101.56 L 95.61 100.29 L 95.89 100.00 L 94.62 98.73 L 93.35 97.45 L 92.08 96.18 L 90.80 94.91 L 89.53 93.64 L 88.26 92.36 L 87.68 91.79 L 86.41 93.06 L 85.14 94.33 L 83.86 95.61 L 83.58 95.89 L 82.30 94.62 L 81.03 93.35 L 79.76 92.08 L 79.47 91.79 L 80.74 90.52 L 82.02 89.24 L 83.29 87.97 L 83.58 87.68 L 82.30 86.41 L 81.03 85.14 L 79.76 83.86 L 78.49 82.59 L 77.21 81.32 L 75.94 80.05 L 75.37 79.47 L 74.09 80.74 L 72.82 82.02 L 71.55 83.29 L 71.26 83.58 L 72.53 84.85 L 73.80 86.12 L 75.08 87.40 L 75.37 87.68 L 74.09 88.96 L 72.82 90.23 L 71.55 91.50 L 70.27 92.77 L 69.00 94.05 L 67.73 95.32 L 67.15 95.89 L 65.88 94.62 L 64.61 93.35 L 63.34 92.08 L 63.05 91.79 L 64.32 90.52 L 65.59 89.24 L 66.87 87.97 L 67.15 87.68 L 65.88 86.41 L 64.61 85.14 L 63.34 83.86 L 63.05 83.58 L 61.78 84.85 L 60.50 86.12 L 59.23 87.40 L 58.94 87.68 L 57.67 86.41 L 56.40 85.14 L 55.12 83.87 L 54.84 83.58 L 56.11 82.30 L 57.38 81.03 L 58.65 79.76 L 59.93 78.49 L 61.20 77.21 L 62.47 75.94 L 63.05 75.37 L 64.32 76.64 L 65.59 77.91 L 66.87 79.18 L 67.15 79.47 L 68.43 78.20 L 69.70 76.93 L 70.97 75.65 L 71.26 75.37 L 69.99 74.09 L 68.71 72.82 L 67.44 71.55 L 66.17 70.27 L 64.90 69.00 L 63.62 67.73 L 63.05 67.15 L 61.77 68.43 L 60.50 69.70 L 59.23 70.97 L 58.94 71.26 L 57.67 69.99 L 56.40 68.71 L 55.12 67.44 L 54.84 67.15 L 56.11 65.88 L 57.38 64.61 L 58.66 63.34 L 58.94 63.05 L 57.67 61.78 L 56.40 60.50 L 55.12 59.23 L 53.85 57.96 L 52.58 56.68 L 51.31 55.41 L 50.73 54.84 L 49.46 56.11 L 48.18 57.38 L 46.91 58.66 L 46.63 58.94 L 47.90 60.21 L 49.17 61.49 L 50.44 62.76 L 50.73 63.05 L 49.46 64.32 L 48.18 65.59 L 46.91 66.87 L 46.62 67.15 L 45.35 65.88 L 44.08 64.61 L 42.81 63.34 L 42.52 63.05 L 41.25 64.32 L 39.97 65.59 L 38.70 66.87 L 38.41 67.15 L 39.69 68.43 L 40.96 69.70 L 42.23 70.97 L 43.50 72.24 L 44.78 73.52 L 46.05 74.79 L 46.63 75.37 L 47.90 74.09 L 49.17 72.82 L 50.44 71.55 L 50.73 71.26 L 52.00 72.53 L 53.28 73.81 L 54.55 75.08 L 54.84 75.37 L 53.56 76.64 L 52.29 77.91 L 51.02 79.18 L 49.74 80.46 L 48.47 81.73 L 47.20 83.00 L 46.62 83.58 L 45.35 82.30 L 44.08 81.03 L 42.81 79.76 L 42.52 79.47 L 41.25 80.74 L 39.97 82.02 L 38.70 83.29 L 38.41 83.58 L 39.69 84.85 L 40.96 86.12 L 42.23 87.40 L 42.52 87.68 L 41.25 88.96 L 39.97 90.23 L 38.70 91.50 L 37.43 92.77 L 36.15 94.05 L 34.88 95.32 L 34.31 95.89 L 33.03 94.62 L 31.76 93.35 L 30.49 92.08 L 30.20 91.79 L 31.47 90.52 L 32.75 89.24 L 34.02 87.97 L 34.31 87.68 L 33.04 86.41 L 31.76 85.14 L 30.49 83.86 L 30.20 83.58 L 28.93 84.85 L 27.66 86.12 L 26.38 87.40 L 26.10 87.68 L 24.82 86.41 L 23.55 85.14 L 22.28 83.86 L 21.99 83.58 L 23.26 82.30 L 24.54 81.03 L 25.81 79.76 L 27.08 78.49 L 28.35 77.21 L 29.63 75.94 L 30.20 75.37 L 31.47 76.64 L 32.75 77.91 L 34.02 79.18 L 34.31 79.47 L 35.58 78.20 L 36.85 76.93 L 38.13 75.65 L 38.41 75.37 L 37.14 74.09 L 35.87 72.82 L 34.59 71.55 L 33.32 70.27 L 32.05 69.00 L 30.78 67.73 L 29.50 66.46 L 28.23 65.18 L 26.96 63.91 L 26.10 63.05 L 24.82 64.32 L 23.55 65.59 L 22.28 66.87 L 21.99 67.15 L 23.26 68.43 L 24.54 69.70 L 25.81 70.97 L 26.10 71.26 L 24.82 72.53 L 23.55 73.81 L 22.28 75.08 L 21.01 76.35 L 19.73 77.62 L 18.46 78.90 L 17.88 79.47 L 16.61 78.20 L 15.34 76.93 L 14.07 75.65 L 13.78 75.37 L 15.05 74.09 L 16.32 72.82 L 17.60 71.55 L 17.88 71.26 L 16.61 69.99 L 15.54 68.91 L 16.20 67.24 L 16.86 65.57 L 17.17 64.81 L 17.89 63.16 L 17.98 62.96 L 19.25 61.68 L 20.52 60.41 L 21.80 59.14 L 21.99 58.94 L 20.72 57.67 L 20.63 57.58 L 21.51 56.01 L 22.40 54.44 L 22.80 53.73 L 23.77 52.21 L 24.73 50.69 L 25.17 50.00 L 26.19 48.52 L 26.93 47.46 L 28.20 48.73 L 29.47 50.00 L 30.20 50.73 L 28.93 52.00 L 27.66 53.28 L 26.38 54.55 L 26.10 54.84 L 27.37 56.11 L 28.64 57.38 L 29.91 58.66 L 31.19 59.93 L 32.46 61.20 L 33.73 62.47 L 34.31 63.05 L 35.58 61.78 L 36.85 60.50 L 38.13 59.23 L 38.41 58.94 L 37.14 57.67 L 35.87 56.40 L 34.60 55.12 L 34.31 54.84 L 35.58 53.56 L 36.85 52.29 L 38.13 51.02 L 38.41 50.73 L 39.69 52.00 L 40.96 53.28 L 42.23 54.55 L 42.52 54.84 L 43.79 53.56 L 45.06 52.29 L 46.34 51.02 L 46.62 50.73 L 45.35 49.46 L 44.08 48.19 L 42.81 46.91 L 41.53 45.64 L 40.26 44.37 L 38.99 43.09 L 38.41 42.52 L 37.14 43.79 L 35.87 45.07 L 34.59 46.34 L 34.31 46.62 L 33.03 45.35 L 31.76 44.08 L 30.50 42.82 L 31.68 41.46 L 32.86 40.09 L 33.39 39.48 L 34.63 38.17 L 35.88 36.87 L 36.44 36.28 L 37.73 35.03 L 38.45 34.34 L 39.72 35.61 L 40.99 36.89 L 42.26 38.16 L 42.52 38.41 L 43.79 37.14 L 45.06 35.87 L 46.34 34.60 L 46.62 34.31 L 45.35 33.04 L 44.08 31.76 L 42.82 30.50 L 44.23 29.39 L 45.65 28.28 L 46.30 27.78 L 47.77 26.74 L 49.24 25.70 L 49.90 25.23 L 51.42 24.25 L 52.37 23.63 L 53.65 24.91 L 54.84 26.10 L 53.56 27.37 L 52.29 28.64 L 51.02 29.91 L 50.73 30.20 L 52.00 31.48 L 53.28 32.75 L 54.55 34.02 L 54.84 34.31 L 56.11 33.03 L 57.38 31.76 L 58.65 30.49 L 58.94 30.20 L 60.21 31.47 L 61.49 32.75 L 62.76 34.02 L 63.05 34.31 L 61.78 35.58 L 60.50 36.85 L 59.23 38.13 L 57.96 39.40 L 56.68 40.67 L 55.41 41.94 L 54.84 42.52 L 53.56 41.25 L 52.29 39.97 L 51.02 38.70 L 50.73 38.41 L 49.46 39.69 L 48.18 40.96 L 46.91 42.23 L 46.62 42.52 L 47.90 43.79 L 49.17 45.06 L 50.44 46.34 L 51.72 47.61 L 52.99 48.88 L 54.26 50.16 L 54.84 50.73 L 56.11 49.46 L 57.38 48.18 L 58.65 46.91 L 58.94 46.63 L 60.21 47.90 L 61.49 49.17 L 62.76 50.44 L 63.05 50.73 L 61.77 52.00 L 60.50 53.28 L 59.23 54.55 L 58.94 54.84 L 60.21 56.11 L 61.49 57.38 L 62.76 58.65 L 64.03 59.93 L 65.31 61.20 L 66.58 62.47 L 67.15 63.05 L 68.43 61.78 L 69.70 60.50 L 70.97 59.23 L 71.26 58.94 L 69.99 57.67 L 68.71 56.40 L 67.44 55.12 L 67.15 54.84 L 68.43 53.56 L 69.70 52.29 L 70.97 51.02 L 71.26 50.73 L 72.53 52.00 L 73.81 53.28 L 75.08 54.55 L 75.36 54.84 L 76.64 53.56 L 77.91 52.29 L 79.18 51.02 L 79.47 50.73 L 78.20 49.46 L 76.93 48.18 L 75.65 46.91 L 74.38 45.64 L 73.11 44.37 L 71.83 43.09 L 71.26 42.52 L 69.99 43.79 L 68.71 45.06 L 67.44 46.34 L 67.15 46.62 L 65.88 45.35 L 64.61 44.08 L 63.33 42.81 L 63.05 42.52 L 64.32 41.25 L 65.59 39.97 L 66.87 38.70 L 68.14 37.43 L 69.41 36.15 L 70.68 34.88 L 71.96 33.61 L 73.23 32.34 L 74.50 31.06 L 75.36 30.20 L 76.64 31.47 L 77.91 32.75 L 79.18 34.02 L 79.47 34.31 L 78.20 35.58 L 76.93 36.85 L 75.65 38.13 L 75.36 38.41 L 76.64 39.69 L 77.91 40.96 L 79.18 42.23 L 80.46 43.50 L 81.73 44.78 L 83.00 46.05 L 83.58 46.62 L 84.85 45.35 L 86.12 44.08 L 87.39 42.81 L 87.68 42.52 L 86.41 41.25 L 85.14 39.97 L 83.86 38.70 L 83.58 38.41 L 84.85 37.14 L 86.12 35.87 L 87.40 34.60 L 87.68 34.31 L 88.95 35.58 L 90.23 36.85 L 91.50 38.13 L 91.79 38.41 L 93.06 37.14 L 94.33 35.87 L 95.61 34.60 L 95.89 34.31 L 94.62 33.03 L 93.35 31.76 L 92.08 30.49 L 90.80 29.22 L 89.53 27.94 L 88.26 26.67 L 87.68 26.10 L 86.41 27.37 L 85.14 28.64 L 83.86 29.91 L 83.58 30.20 L 82.30 28.93 L 81.03 27.66 L 79.76 26.38 L 79.47 26.10 L 80.74 24.82 L 82.02 23.55 L 83.29 22.28 L 83.58 21.99 L 82.30 20.72 L 81.03 19.44 L 79.76 18.17 L 78.49 16.90 L 77.21 15.63 L 75.94 14.35 L 75.36 13.78 L 74.09 15.05 L 72.82 16.32 L 71.55 17.60 L 71.26 17.88 L 72.53 19.16 L 73.80 20.43 L 75.08 21.70 L 75.36 21.99 L 74.09 23.26 L 72.82 24.54 L 71.55 25.81 L 70.27 27.08 L 69.00 28.35 L 67.73 29.63 L 67.15 30.20 L 65.88 28.93 L 64.61 27.66 L 63.33 26.38 L 63.05 26.10 L 64.32 24.82 L 65.59 23.55 L 66.87 22.28 L 67.15 21.99 L 65.88 20.72 L 64.61 19.44 L 63.34 18.17 L 63.08 17.92 L 62.95 17.98 L 61.68 19.25 L 60.41 20.52 L 59.14 21.80 L 58.94 21.99 L 57.67 20.72 L 57.58 20.63 L 59.18 19.82 L 60.79 19.01 L 61.52 18.64 L 63.17 17.91 L 64.81 17.18 L 65.56 16.85 L 67.24 16.20 L 68.92 15.55 L 69.68 15.26 L 71.39 14.70 L 73.10 14.13 L 73.88 13.87 L 75.61 13.39 L 77.35 12.91 L 78.13 12.70 L 79.89 12.30 L 81.64 11.89 L 81.68 11.88 L 82.96 13.16 L 83.58 13.78 L 84.85 12.51 L 86.12 11.23 L 86.10 11.08 L 87.88 10.85 L 89.67 10.61 L 90.48 10.51 L 92.27 10.36 L 94.07 10.21 L 94.88 10.15 L 96.68 10.09 L 98.48 10.03 L 99.30 10.00 L 101.10 10.03 L 102.90 10.06 L 103.71 10.08 L 105.51 10.19 L 107.31 10.31 L 108.12 10.37 L 109.91 10.57 L 111.70 10.78 L 112.51 10.87 L 113.69 11.05 L 114.96 12.32 L 116.24 13.59 L 116.42 13.78 L 115.15 15.05 L 113.88 16.32 L 112.60 17.60 L 111.33 18.87 L 110.06 20.14 L 108.79 21.42 L 108.21 21.99 L 106.94 20.72 L 105.67 19.44 L 104.39 18.17 L 104.11 17.88 L 105.38 16.61 L 106.65 15.34 L 107.92 14.07 L 108.21 13.78 L 106.94 12.51 L 105.67 11.23 L 104.55 10.11 L 102.75 10.07 L 100.95 10.02 L 100.13 10.00 L 98.33 10.04 L 96.53 10.07 L 96.30 10.08 L 97.57 11.35 L 98.84 12.62 L 100.00 13.78 L 98.73 15.05 L 97.45 16.32 L 96.18 17.60 L 95.89 17.88 L 94.62 16.61 L 93.35 15.34 L 92.08 14.07 L 91.79 13.78 L 90.51 15.05 L 89.24 16.32 L 87.97 17.60 L 87.68 17.88 L 88.95 19.16 L 90.23 20.43 L 91.50 21.70 L 92.77 22.98 L 94.05 24.25 L 95.32 25.52 L 95.89 26.10 L 97.17 24.82 L 98.44 23.55 L 99.71 22.28 L 100.00 21.99 L 101.27 23.26 L 102.55 24.54 L 103.82 25.81 L 104.11 26.10 L 102.83 27.37 L 101.56 28.64 L 100.29 29.91 L 100.00 30.20 L 101.27 31.47 L 102.54 32.75 L 103.82 34.02 L 104.11 34.31 L 105.38 33.03 L 106.65 31.76 L 107.92 30.49 L 108.21 30.20 L 109.48 31.47 L 110.76 32.75 L 112.03 34.02 L 112.32 34.31 L 111.04 35.58 L 109.77 36.85 L 108.50 38.13 L 108.21 38.41 L 109.48 39.69 L 110.76 40.96 L 112.03 42.23 L 113.30 43.50 L 114.58 44.78 L 115.85 46.05 L 116.42 46.62 L 117.70 45.35 L 118.97 44.08 L 120.24 42.81 L 120.53 42.52 L 119.26 41.25 L 117.98 39.97 L 116.71 38.70 L 116.42 38.41 L 117.70 37.14 L 118.97 35.87 L 120.24 34.59 L 120.53 34.31 L 121.80 35.58 L 123.07 36.85 L 124.35 38.13 L 124.63 38.41 L 125.91 37.14 L 127.18 35.87 L 128.45 34.60 L 128.74 34.31 L 127.47 33.03 L 126.20 31.76 L 124.92 30.49 L 123.65 29.22 L 122.38 27.94 L 121.10 26.67 L 120.53 26.10 L 119.26 27.37 L 117.98 28.64 L 116.71 29.91 L 116.42 30.20 L 115.15 28.93 L 113.88 27.66 L 112.60 26.38 L 112.32 26.10 L 113.59 24.82 L 114.86 23.55 L 116.14 22.28 L 117.41 21.00 L 118.68 19.73 L 119.95 18.46 L 120.53 17.88 L 121.80 19.16 L 123.07 20.43 L 124.35 21.70 L 124.63 21.99 L 125.91 20.72 L 127.18 19.45 L 128.45 18.17 L 128.74 17.88 L 127.47 16.61 L 126.19 15.34 L 124.92 14.07 L 124.63 13.78 L 124.73 13.46 L 126.44 14.00 L 128.16 14.54 L 128.94 14.78 L 130.63 15.40 L 132.32 16.02 L 133.09 16.30 L 134.75 17.01 L 136.40 17.71 L 137.16 18.03 L 138.78 18.81 L 140.40 19.59 L 141.13 19.95 L 142.42 20.63 L 141.15 21.90 L 139.88 23.17 L 138.60 24.44 L 137.33 25.72 L 136.95 26.10 L 135.68 24.82 L 134.41 23.55 L 133.13 22.28 L 132.85 21.99 L 131.57 23.26 L 130.30 24.54 L 129.03 25.81 L 128.74 26.10 L 130.01 27.37 L 131.29 28.64 L 132.56 29.91 L 133.83 31.19 L 135.10 32.46 L 136.38 33.73 L 137.65 35.00 L 138.92 36.28 L 140.20 37.55 L 141.06 38.41 L 142.33 37.14 L 143.60 35.87 L 144.88 34.60 L 145.16 34.31 L 143.89 33.03 L 142.62 31.76 L 141.34 30.49 L 141.06 30.20 L 142.33 28.93 L 143.60 27.66 L 144.88 26.38 L 146.15 25.11 L 147.42 23.84 L 147.63 23.63 L 149.13 24.62 L 150.63 25.61 L 151.31 26.06 L 152.54 26.93 L 151.27 28.20 L 150.00 29.47 L 149.27 30.20 L 150.54 31.47 L 151.81 32.75 L 153.09 34.02 L 153.37 34.31 L 154.65 33.04 L 155.92 31.76 L 157.18 30.50 L 158.54 31.68 L 159.91 32.85 L 160.52 33.39 L 161.55 34.34 L 160.28 35.61 L 159.01 36.89 L 157.73 38.16 L 156.46 39.43 L 155.19 40.70 L 153.92 41.98 L 153.38 42.52 L 152.10 41.25 L 150.83 39.97 L 149.56 38.70 L 149.27 38.41 L 148.00 39.69 L 146.72 40.96 L 145.45 42.23 L 145.16 42.52 L 146.44 43.79 L 147.71 45.06 L 148.98 46.34 L 149.27 46.62 L 148.00 47.90 L 146.72 49.17 L 145.45 50.44 L 144.18 51.72 L 142.91 52.99 L 141.63 54.26 L 141.06 54.84 L 139.78 53.56 L 138.51 52.29 L 137.24 51.02 L 136.95 50.73 L 138.23 49.46 L 139.50 48.18 L 140.77 46.91 L 141.06 46.62 L 139.79 45.35 L 138.51 44.08 L 137.24 42.81 L 135.97 41.53 L 134.69 40.26 L 133.42 38.99 L 132.85 38.41 L 131.57 39.69 L 130.30 40.96 L 129.03 42.23 L 128.74 42.52 L 130.01 43.79 L 131.29 45.06 L 132.56 46.34 L 132.85 46.62 L 131.57 47.90 L 130.30 49.17 L 129.03 50.44 L 128.74 50.73 L 127.47 49.46 L 126.19 48.19 L 124.92 46.91 L 124.63 46.62 L 123.36 47.90 L 122.09 49.17 L 120.82 50.44 L 120.53 50.73 L 121.80 52.00 L 123.07 53.28 L 124.35 54.55 L 125.62 55.82 L 126.89 57.09 L 128.17 58.37 L 128.74 58.94 L 130.01 57.67 L 131.29 56.40 L 132.56 55.12 L 132.85 54.84 L 134.12 56.11 L 135.39 57.38 L 136.66 58.66 L 136.95 58.94 L 135.68 60.21 L 134.41 61.49 L 133.13 62.76 L 131.86 64.03 L 130.59 65.31 L 129.31 66.58 L 128.74 67.15 L 127.47 65.88 L 126.19 64.61 L 124.92 63.33 L 124.63 63.05 L 123.36 64.32 L 122.09 65.59 L 120.82 66.87 L 120.53 67.15 L 121.80 68.43 L 123.07 69.70 L 124.35 70.97 L 124.63 71.26 L 123.36 72.53 L 122.09 73.81 L 120.82 75.08 L 119.54 76.35 L 118.27 77.62 L 117.00 78.90 L 116.42 79.47 L 115.15 78.20 L 113.88 76.93 L 112.60 75.65 L 112.32 75.37 L 113.59 74.09 L 114.86 72.82 L 116.14 71.55 L 116.42 71.26 L 115.15 69.99 L 113.88 68.71 L 112.60 67.44 L 112.32 67.15 L 111.04 68.43 L 109.77 69.70 L 108.50 70.97 L 108.21 71.26 L 106.94 69.99 L 105.67 68.71 L 104.39 67.44 L 104.11 67.15 L 105.38 65.88 L 106.65 64.61 L 107.92 63.34 L 109.20 62.06 L 110.47 60.79 L 111.74 59.52 L 112.32 58.94 L 113.59 60.22 L 114.86 61.49 L 116.14 62.76 L 116.42 63.05 L 117.70 61.78 L 118.97 60.50 L 120.24 59.23 L 120.53 58.94 L 119.26 57.67 L 117.98 56.40 L 116.71 55.12 L 115.44 53.85 L 114.16 52.58 L 112.89 51.31 L 112.32 50.73 L 111.04 52.00 L 109.77 53.28 L 108.50 54.55 L 108.21 54.84 L 106.94 53.56 L 105.67 52.29 L 104.39 51.02 L 104.11 50.73 L 105.38 49.46 L 106.65 48.19 L 107.92 46.91 L 108.21 46.63 L 106.94 45.35 L 105.67 44.08 L 104.39 42.81 L 103.12 41.53 L 101.85 40.26 L 100.57 38.99 L 100.00 38.41 L 98.73 39.69 L 97.45 40.96 L 96.18 42.23 L 95.89 42.52 L 97.17 43.79 L 98.44 45.07 L 99.71 46.34 L 100.00 46.63 L 98.73 47.90 L 97.45 49.17 L 96.18 50.44 L 95.89 50.73 L 94.62 49.46 L 93.35 48.19 L 92.08 46.91 L 91.79 46.63 L 90.52 47.90 L 89.24 49.17 L 87.97 50.44 L 87.68 50.73 L 88.95 52.00 L 90.23 53.28 L 91.50 54.55 L 92.77 55.82 L 94.05 57.10 L 95.32 58.37 L 95.89 58.94 L 97.17 57.67 L 98.44 56.40 L 99.71 55.12 L 100.00 54.84 L 101.27 56.11 L 102.55 57.38 L 103.82 58.65 L 104.11 58.94 L 102.83 60.22 L 101.56 61.49 L 100.29 62.76 L 99.01 64.03 L 97.74 65.31 L 96.47 66.58 L 95.20 67.85 L 93.92 69.12 L 92.65 70.40 L 91.79 71.26 L 90.52 69.99 L 89.24 68.71 L 87.97 67.44 L 87.68 67.15 L 88.96 65.88 L 90.23 64.61 L 91.50 63.34 L 91.79 63.05 L 90.52 61.78 L 89.24 60.50 L 87.97 59.23 L 86.70 57.96 L 85.42 56.68 L 84.15 55.41 L 83.58 54.84 L 82.30 56.11 L 81.03 57.38 L 79.76 58.65 L 79.47 58.94 L 80.74 60.22 L 82.02 61.49 L 83.29 62.76 L 83.58 63.05 L 82.30 64.32 L 81.03 65.59 L 79.76 66.87 L 79.47 67.15 L 78.20 65.88 L 76.93 64.61 L 75.65 63.34 L 75.36 63.05 L 74.09 64.32 L 72.82 65.59 L 71.55 66.87 L 71.26 67.15 L 72.53 68.43 L 73.81 69.70 L 75.08 70.97 L 76.35 72.24 L 77.62 73.52 L 78.90 74.79 L 79.47 75.37 L 80.74 74.09 L 82.02 72.82 L 83.29 71.55 L 83.58 71.26 L 84.85 72.53 L 86.12 73.81 L 87.40 75.08 L 87.68 75.37 L 86.41 76.64 L 85.14 77.91 L 83.86 79.18 L 83.58 79.47 L 84.85 80.74 L 86.12 82.02 L 87.40 83.29 L 88.67 84.56 L 89.94 85.84 L 91.21 87.11 L 91.79 87.68 L 93.06 86.41 L 94.33 85.14 L 95.61 83.86 L 95.89 83.58 L 94.62 82.30 L 93.35 81.03 L 92.08 79.76 L 91.79 79.47 L 93.06 78.20 L 94.33 76.93 L 95.61 75.65 L 96.88 74.38 L 98.15 73.11 L 99.42 71.83 L 100.00 71.26 L 101.27 72.53 L 102.55 73.80 L 103.82 75.08 L 104.11 75.36 L 102.83 76.64 L 101.56 77.91 L 100.29 79.18 L 100.00 79.47 L 101.27 80.74 L 102.55 82.02 L 103.82 83.29 L 104.11 83.58 L 105.38 82.30 L 106.65 81.03 L 107.92 79.76 L 108.21 79.47 L 109.48 80.74 L 110.76 82.02 L 112.03 83.29 L 112.32 83.58 L 111.04 84.85 L 109.77 86.12 L 108.50 87.39 L 107.23 88.67 L 105.95 89.94 L 104.68 91.21 L 104.11 91.79 L 102.83 90.52 L 101.56 89.24 L 100.29 87.97 L 100.00 87.68 L 98.73 88.96 L 97.45 90.23 L 96.18 91.50 L 95.89 91.79 L 97.17 93.06 L 98.44 94.33 L 99.71 95.61 L 100.99 96.88 L 102.26 98.15 L 103.53 99.43 L 104.80 100.70 L 106.08 101.97 L 107.35 103.24 L 108.21 104.11 L 109.48 102.83 L 110.76 101.56 L 112.03 100.29 L 112.32 100.00 L 111.04 98.73 L 109.77 97.45 L 108.50 96.18 L 108.21 95.89 L 109.48 94.62 L 110.76 93.35 L 112.03 92.08 L 113.30 90.80 L 114.58 89.53 L 115.85 88.26 L 116.42 87.68 L 117.70 88.96 L 118.97 90.23 L 120.24 91.50 L 120.53 91.79 L 119.26 93.06 L 117.98 94.33 L 116.71 95.61 L 116.42 95.89 L 117.70 97.17 L 118.97 98.44 L 120.24 99.71 L 120.53 100.00 L 121.80 98.73 L 123.07 97.45 L 124.35 96.18 L 124.64 95.89 L 125.91 97.17 L 127.18 98.44 L 128.45 99.71 L 128.74 100.00 L 127.47 101.27 L 126.20 102.55 L 124.92 103.82 L 123.65 105.09 L 122.38 106.36 L 121.10 107.64 L 120.53 108.21 L 119.26 106.94 L 117.98 105.67 L 116.71 104.39 L 116.42 104.11 L 115.15 105.38 L 113.88 106.65 L 112.60 107.92 L 112.32 108.21 L 113.59 109.48 L 114.86 110.76 L 116.14 112.03 L 117.41 113.30 L 118.68 114.58 L 119.95 115.85 L 120.53 116.42 L 121.80 115.15 L 123.07 113.88 L 124.35 112.60 L 124.63 112.32 L 125.91 113.59 L 127.18 114.86 L 128.45 116.14 L 128.74 116.42 L 127.47 117.70 L 126.19 118.97 L 124.92 120.24 L 124.63 120.53 L 125.91 121.80 L 127.18 123.07 L 128.45 124.35 L 129.73 125.62 L 131.00 126.89 L 132.27 128.17 L 132.85 128.74 L 134.12 127.47 L 135.39 126.19 L 136.66 124.92 L 136.95 124.63 L 135.68 123.36 L 134.41 122.09 L 133.13 120.82 L 132.85 120.53 L 134.12 119.26 L 135.39 117.98 L 136.66 116.71 L 136.95 116.42 L 138.22 117.70 L 139.50 118.97 L 140.77 120.24 L 141.06 120.53 L 142.33 119.26 L 143.60 117.98 L 144.88 116.71 L 145.16 116.42 L 143.89 115.15 L 142.62 113.88 L 141.35 112.60 L 140.07 111.33 L 138.80 110.06 L 137.53 108.79 L 136.95 108.21 L 135.68 109.48 L 134.41 110.76 L 133.13 112.03 L 132.85 112.32 L 131.57 111.04 L 130.30 109.77 L 129.03 108.50 L 128.74 108.21 L 130.01 106.94 L 131.29 105.67 L 132.56 104.39 L 133.83 103.12 L 135.10 101.85 L 136.38 100.57 L 137.65 99.30 L 138.92 98.03 L 140.20 96.76 L 141.06 95.89 L 142.33 97.17 L 143.60 98.44 L 144.88 99.71 L 145.16 100.00 L 143.89 101.27 L 142.62 102.55 L 141.35 103.82 L 141.06 104.11 L 142.33 105.38 L 143.60 106.65 L 144.88 107.92 L 146.15 109.20 L 147.42 110.47 L 148.69 111.74 L 149.27 112.32 L 150.54 111.04 L 151.81 109.77 L 153.09 108.50 L 153.37 108.21 L 152.10 106.94 L 150.83 105.67 L 149.56 104.39 L 149.27 104.11 L 150.54 102.83 L 151.81 101.56 L 153.09 100.29 L 153.37 100.00 L 154.65 101.27 L 155.92 102.55 L 157.19 103.82 L 157.48 104.11 L 158.75 102.83 L 160.03 101.56 L 161.30 100.29 L 161.59 100.00 L 160.31 98.73 L 159.04 97.45 L 157.77 96.18 L 156.50 94.91 L 155.22 93.64 L 153.95 92.36 L 153.37 91.79 L 152.10 93.06 L 150.83 94.33 L 149.56 95.61 L 149.27 95.89 L 148.00 94.62 L 146.72 93.35 L 145.45 92.08 L 145.16 91.79 L 146.44 90.52 L 147.71 89.24 L 148.98 87.97 L 149.27 87.68 L 148.00 86.41 L 146.72 85.14 L 145.45 83.86 L 144.18 82.59 L 142.90 81.32 L 141.63 80.05 L 141.06 79.47 L 139.78 80.74 L 138.51 82.02 L 137.24 83.29 L 136.95 83.58 L 138.22 84.85 L 139.50 86.12 L 140.77 87.40 L 141.06 87.68 L 139.78 88.96 L 138.51 90.23 L 137.24 91.50 L 135.97 92.77 L 134.69 94.05 L 133.42 95.32 L 132.85 95.89 L 131.57 94.62 L 130.30 93.35 L 129.03 92.08 L 128.74 91.79 L 130.01 90.52 L 131.29 89.24 L 132.56 87.97 L 132.85 87.68 L 131.57 86.41 L 130.30 85.14 L 129.03 83.86 L 128.74 83.58 L 127.47 84.85 L 126.19 86.12 L 124.92 87.39 L 124.63 87.68 L 123.36 86.41 L 122.09 85.14 L 120.82 83.86 L 120.53 83.58 L 121.80 82.30 L 123.07 81.03 L 124.35 79.76 L 125.62 78.49 L 126.89 77.21 L 128.17 75.94 L 128.74 75.37 L 130.01 76.64 L 131.29 77.91 L 132.56 79.18 L 132.85 79.47 L 134.12 78.20 L 135.39 76.93 L 136.66 75.65 L 136.95 75.37 L 135.68 74.09 L 134.41 72.82 L 133.13 71.55 L 132.85 71.26 L 134.12 69.99 L 135.39 68.71 L 136.66 67.44 L 137.94 66.17 L 139.21 64.90 L 140.48 63.62 L 141.06 63.05 L 142.33 64.32 L 143.60 65.59 L 144.88 66.87 L 145.16 67.15 L 143.89 68.43 L 142.62 69.70 L 141.34 70.97 L 141.06 71.26 L 142.33 72.53 L 143.60 73.80 L 144.88 75.08 L 146.15 76.35 L 147.42 77.62 L 148.69 78.90 L 149.27 79.47 L 150.54 78.20 L 151.82 76.93 L 153.09 75.65 L 153.37 75.37 L 152.10 74.09 L 150.83 72.82 L 149.56 71.55 L 149.27 71.26 L 150.54 69.99 L 151.81 68.71 L 153.09 67.44 L 153.38 67.15 L 154.65 68.43 L 155.92 69.70 L 157.19 70.97 L 157.48 71.26 L 158.75 69.99 L 160.03 68.71 L 161.30 67.44 L 161.59 67.15 L 160.31 65.88 L 159.04 64.61 L 157.77 63.34 L 156.50 62.06 L 155.22 60.79 L 153.95 59.52 L 153.37 58.94 L 152.10 60.21 L 150.83 61.49 L 149.56 62.76 L 149.27 63.05 L 148.00 61.77 L 146.72 60.50 L 145.45 59.23 L 145.16 58.94 L 146.44 57.67 L 147.71 56.40 L 148.98 55.12 L 150.26 53.85 L 151.53 52.58 L 152.80 51.31 L 153.37 50.73 L 154.65 52.00 L 155.92 53.28 L 157.19 54.55 L 157.48 54.84 L 158.75 53.56 L 160.03 52.29 L 161.30 51.02 L 161.59 50.73 L 160.31 49.46 L 159.04 48.18 L 157.77 46.91 L 157.48 46.62 L 158.75 45.35 L 160.03 44.08 L 161.30 42.81 L 162.57 41.53 L 163.85 40.26 L 165.12 38.99 L 165.66 38.45 L 166.86 39.79 L 168.06 41.13 L 168.60 41.74 L 169.50 42.82 L 168.23 44.09 L 166.95 45.36 L 165.69 46.62 L 166.96 47.90 L 168.24 49.17 L 169.51 50.44 L 169.80 50.73 L 171.07 49.46 L 172.34 48.19 L 173.07 47.46 L 174.09 48.94 L 175.10 50.43 L 175.56 51.11 L 176.37 52.37 L 175.09 53.65 L 173.82 54.92 L 172.55 56.19 L 171.27 57.47 L 170.00 58.74 L 169.80 58.94 L 168.53 57.67 L 167.25 56.40 L 165.98 55.12 L 165.69 54.84 L 164.42 56.11 L 163.15 57.38 L 161.87 58.65 L 161.59 58.94 L 162.86 60.21 L 164.13 61.49 L 165.40 62.76 L 166.68 64.03 L 167.95 65.31 L 169.22 66.58 L 170.50 67.85 L 171.77 69.12 L 173.04 70.40 L 173.90 71.26 L 175.18 69.99 L 176.45 68.71 L 177.72 67.44 L 178.01 67.15 L 176.74 65.88 L 175.46 64.61 L 174.19 63.33 L 173.90 63.05 L 175.18 61.77 L 176.45 60.50 L 177.72 59.23 L 179.00 57.96 L 179.37 57.58 L 180.18 59.18 L 180.99 60.79 L 181.36 61.52 L 182.09 63.17 L 182.82 64.81 L 183.15 65.56 L 183.80 67.24 L 184.45 68.92 L 184.74 69.68 L 185.30 71.39 L 185.87 73.10 L 186.13 73.88 L 186.22 75.37 L 184.95 74.09 L 183.68 72.82 L 182.40 71.55 L 182.12 71.26 L 180.84 72.53 L 179.57 73.80 L 178.30 75.08 L 178.01 75.37 L 179.28 76.64 L 180.56 77.91 L 181.83 79.18 L 182.12 79.47 L 180.84 80.74 L 179.57 82.02 L 178.30 83.29 L 177.02 84.56 L 175.75 85.83 L 174.48 87.11 L 173.90 87.68 L 172.63 86.41 L 171.36 85.14 L 170.09 83.86 L 169.80 83.58 L 171.07 82.30 L 172.34 81.03 L 173.62 79.76 L 173.90 79.47 L 172.63 78.20 L 171.36 76.92 L 170.09 75.65 L 168.81 74.38 L 167.54 73.11 L 166.27 71.83 L 165.69 71.26 L 164.42 72.53 L 163.15 73.80 L 161.87 75.08 L 161.59 75.36 L 162.86 76.64 L 164.13 77.91 L 165.40 79.18 L 165.69 79.47 L 164.42 80.74 L 163.15 82.02 L 161.87 83.29 L 161.59 83.58 L 160.31 82.30 L 159.04 81.03 L 157.77 79.76 L 157.48 79.47 L 156.21 80.74 L 154.93 82.02 L 153.66 83.29 L 153.38 83.58 L 154.65 84.85 L 155.92 86.12 L 157.19 87.39 L 158.47 88.67 L 159.74 89.94 L 161.01 91.21 L 161.59 91.79 L 162.86 90.52 L 164.13 89.24 L 165.40 87.97 L 165.69 87.68 L 166.97 88.96 L 168.24 90.23 L 169.51 91.50 L 169.80 91.79 L 168.52 93.06 L 167.25 94.33 L 165.98 95.61 L 165.69 95.89 L 166.97 97.17 L 168.24 98.44 L 169.51 99.71 L 169.80 100.00 L 171.07 98.73 L 172.34 97.45 L 173.62 96.18 L 173.90 95.89 L 175.18 97.17 L 176.45 98.44 L 177.72 99.71 L 178.01 100.00 L 176.74 101.27 L 175.46 102.55 L 174.19 103.82 L 173.90 104.10 L 175.18 105.38 L 176.45 106.65 L 177.72 107.92 L 178.99 109.20 L 180.27 110.47 L 181.54 111.74 L 182.12 112.32 L 183.39 111.04 L 184.66 109.77 L 185.93 108.50 L 186.22 108.21 L 184.95 106.94 L 183.68 105.67 L 182.40 104.39 L 182.12 104.11 L 183.39 102.83 L 184.66 101.56 L 185.93 100.29 L 186.22 100.00 L 187.49 101.27 L 188.77 102.55 L 189.92 103.70 L 189.95 101.90 L 189.98 100.10 L 190.00 99.29 L 189.95 97.49 L 189.89 95.69 L 189.88 95.45 L 188.61 94.18 L 187.34 92.91 L 186.22 91.79 L 184.95 93.06 L 183.68 94.33 L 182.40 95.61 L 182.12 95.89 L 180.84 94.62 L 179.57 93.35 L 178.30 92.08 L 178.01 91.79 L 179.28 90.52 L 180.56 89.24 L 181.83 87.97 L 183.10 86.70 L 184.37 85.42 L 185.65 84.15 L 186.22 83.58 L 187.49 84.85 L 188.77 86.12 L 188.92 86.10 L 189.15 87.88 L 189.39 89.67 L 189.49 90.48 L 189.64 92.27 L 189.79 94.07 L 189.85 94.88 L 189.91 96.68 L 189.97 98.48 L 190.00 99.30 L 189.97 101.10 L 189.94 102.90 L 189.92 103.71 L 189.81 105.51 L 189.69 107.31 L 189.63 108.12 L 189.43 109.91 L 189.22 111.70 L 189.13 112.51 L 188.95 113.69 L 187.68 114.96 L 186.41 116.24 L 186.22 116.42 L 187.49 117.70 L 188.12 118.32 L 187.71 120.07 L 187.30 121.82 L 187.11 122.62 L 186.62 124.35 L 186.12 126.08 L 185.90 126.87 L 185.32 128.57 L 184.74 130.27 L 184.47 131.05 L 183.81 132.72 L 183.15 134.40 L 182.85 135.16 L 182.11 136.79 L 181.36 138.43 L 181.02 139.18 L 180.21 140.78 L 179.39 142.39 L 179.37 142.42 L 178.10 141.15 L 178.01 141.06 L 179.28 139.79 L 180.56 138.51 L 181.20 138.82 L 181.96 137.19 L 182.08 136.92 L 180.81 135.64 L 179.54 134.37 L 178.26 133.10 L 178.01 132.85 L 176.74 134.12 L 175.46 135.39 L 174.19 136.66 L 173.90 136.95 L 172.63 135.68 L 171.36 134.41 L 170.09 133.13 L 169.80 132.85 L 171.07 131.57 L 172.34 130.30 L 173.62 129.03 L 174.89 127.75 L 176.16 126.48 L 177.43 125.21 L 178.01 124.63 L 179.28 125.91 L 180.55 127.18 L 181.83 128.45 L 182.12 128.74 L 183.39 127.47 L 184.66 126.20 L 185.93 124.92 L 186.22 124.63 L 184.95 123.36 L 183.68 122.09 L 182.40 120.82 L 181.13 119.54 L 179.86 118.27 L 178.59 117.00 L 178.01 116.42 L 176.74 117.70 L 175.46 118.97 L 174.19 120.24 L 173.90 120.53 L 172.63 119.26 L 171.36 117.98 L 170.09 116.71 L 169.80 116.42 L 171.07 115.15 L 172.34 113.88 L 173.62 112.60 L 173.90 112.32 L 172.63 111.04 L 171.36 109.77 L 170.09 108.50 L 168.81 107.23 L 167.54 105.95 L 166.27 104.68 L 165.69 104.11 L 164.42 105.38 L 163.15 106.65 L 161.87 107.92 L 161.59 108.21 L 162.86 109.48 L 164.13 110.76 L 165.40 112.03 L 165.69 112.32 L 164.42 113.59 L 163.15 114.86 L 161.87 116.14 L 161.59 116.42 L 160.31 115.15 L 159.04 113.88 L 157.77 112.60 L 157.48 112.32 L 156.21 113.59 L 154.94 114.86 L 153.66 116.14 L 153.38 116.42 L 154.65 117.70 L 155.92 118.97 L 157.19 120.24 L 158.47 121.51 L 159.74 122.79 L 161.01 124.06 L 161.59 124.63 L 162.86 123.36 L 164.13 122.09 L 165.40 120.82 L 165.69 120.53 L 166.97 121.80 L 168.24 123.07 L 169.51 124.35 L 169.80 124.63 L 168.53 125.91 L 167.25 127.18 L 165.98 128.45 L 164.71 129.73 L 163.44 131.00 L 162.16 132.27 L 160.89 133.54 L 159.62 134.82 L 158.34 136.09 L 157.48 136.95 L 156.21 135.68 L 154.94 134.41 L 153.66 133.13 L 153.38 132.85 L 154.65 131.57 L 155.92 130.30 L 157.19 129.03 L 157.48 128.74 L 156.21 127.47 L 154.94 126.19 L 153.66 124.92 L 152.39 123.65 L 151.12 122.38 L 149.84 121.10 L 149.27 120.53 L 148.00 121.80 L 146.72 123.07 L 145.45 124.35 L 145.16 124.63 L 146.44 125.91 L 147.71 127.18 L 148.98 128.45 L 149.27 128.74 L 148.00 130.01 L 146.72 131.29 L 145.45 132.56 L 145.16 132.85 L 143.89 131.57 L 142.62 130.30 L 141.34 129.03 L 141.06 128.74 L 139.79 130.01 L 138.51 131.29 L 137.24 132.56 L 136.95 132.85 L 138.22 134.12 L 139.50 135.39 L 140.77 136.66 L 142.04 137.94 L 143.32 139.21 L 144.59 140.48 L 145.16 141.06 L 146.44 139.78 L 147.71 138.51 L 148.98 137.24 L 149.27 136.95 L 150.54 138.22 L 151.82 139.50 L 153.09 140.77 L 153.38 141.06 L 152.10 142.33 L 150.83 143.60 L 149.56 144.88 L 149.27 145.16 L 150.54 146.44 L 151.82 147.71 L 153.09 148.98 L 154.36 150.25 L 155.63 151.53 L 156.91 152.80 L 157.48 153.37 L 158.75 152.10 L 160.03 150.83 L 161.30 149.56 L 161.59 149.27 L 160.31 148.00 L 159.04 146.72 L 157.77 145.45 L 157.48 145.16 L 158.75 143.89 L 160.03 142.62 L 161.30 141.35 L 162.57 140.07 L 163.84 138.80 L 165.12 137.53 L 165.69 136.95 L 166.97 138.22 L 168.24 139.50 L 169.51 140.77 L 169.80 141.06 L 168.53 142.33 L 167.25 143.60 L 165.98 144.88 L 165.69 145.16 L 166.97 146.44 L 168.24 147.71 L 169.51 148.98 L 169.80 149.27 L 171.07 148.00 L 172.34 146.72 L 173.62 145.45 L 173.90 145.16 L 175.18 146.44 L 176.37 147.62 L 175.38 149.13 L 174.39 150.63 L 173.94 151.31 L 172.88 152.77 L 171.81 154.22 L 171.33 154.88 L 170.21 156.29 L 169.50 157.18 L 168.23 155.91 L 166.95 154.64 L 165.69 153.37 L 164.42 154.65 L 163.15 155.92 L 161.87 157.19 L 161.59 157.48 L 162.86 158.75 L 164.13 160.03 L 165.41 161.30 L 165.66 161.55 L 164.40 162.84 L 163.13 164.12 L 162.56 164.70 L 161.24 165.92 L 159.91 167.14 L 159.31 167.69 L 157.94 168.86 L 157.18 169.50 L 155.91 168.23 L 154.64 166.95 L 153.38 165.69 L 154.65 164.42 L 155.92 163.15 L 157.19 161.87 L 157.48 161.59 L 156.21 160.31 L 154.93 159.04 L 153.66 157.77 L 152.39 156.50 L 151.12 155.22 L 149.84 153.95 L 149.27 153.37 L 148.00 154.65 L 146.72 155.92 L 145.45 157.19 L 145.16 157.48 L 146.44 158.75 L 147.71 160.03 L 148.98 161.30 L 149.27 161.59 L 148.00 162.86 L 146.72 164.13 L 145.45 165.40 L 145.16 165.69 L 143.89 164.42 L 142.62 163.15 L 141.35 161.87 L 141.06 161.59 L 139.79 162.86 L 138.51 164.13 L 137.24 165.40 L 136.95 165.69 L 138.22 166.97 L 139.50 168.24 L 140.77 169.51 L 142.04 170.78 L 143.32 172.06 L 144.59 173.33 L 145.16 173.90 L 146.44 172.63 L 147.71 171.36 L 148.98 170.09 L 149.27 169.80 L 150.54 171.07 L 151.81 172.34 L 152.54 173.07 L 151.06 174.09 L 149.57 175.10 L 148.89 175.56 L 147.36 176.50 L 145.82 177.44 L 145.13 177.87 L 143.55 178.74 L 142.42 179.37 L 141.15 178.10 L 141.06 178.01 L 139.79 179.28 L 138.51 180.56 L 138.82 181.20 L 137.18 181.93 L 135.53 182.67 L 134.79 183.00 L 133.11 183.66 L 131.44 184.32 L 131.09 184.46 L 129.81 183.19 L 128.74 182.12 L 127.47 183.39 L 126.20 184.66 L 124.92 185.93 L 124.64 186.22 L 123.36 184.95 L 122.09 183.68 L 120.82 182.40 L 120.53 182.12 L 121.80 180.84 L 123.07 179.57 L 124.35 178.30 L 125.62 177.02 L 126.89 175.75 L 128.17 174.48 L 128.74 173.90 L 130.01 175.18 L 131.29 176.45 L 132.56 177.72 L 132.85 178.01 L 134.12 176.74 L 135.39 175.46 L 136.66 174.19 L 136.95 173.90 L 135.68 172.63 L 134.41 171.36 L 133.13 170.09 L 131.86 168.81 L 130.59 167.54 L 129.32 166.27 L 128.04 164.99 L 126.77 163.72 L 125.50 162.45 L 124.64 161.59 L 123.36 162.86 L 122.09 164.13 L 120.82 165.40 L 120.53 165.69 L 121.80 166.97 L 123.07 168.24 L 124.35 169.51 L 124.64 169.80 L 123.36 171.07 L 122.09 172.34 L 120.82 173.62 L 119.54 174.89 L 118.27 176.16 L 117.00 177.44 L 116.42 178.01 L 115.15 176.74 L 113.88 175.46 L 112.61 174.19 L 112.32 173.90 L 113.59 172.63 L 114.86 171.36 L 116.14 170.09 L 116.42 169.80 L 115.15 168.53 L 113.88 167.25 L 112.61 165.98 L 112.32 165.69 L 111.05 166.97 L 109.77 168.24 L 108.50 169.51 L 108.21 169.80 L 106.94 168.52 L 105.67 167.25 L 104.39 165.98 L 104.11 165.69 L 105.38 164.42 L 106.65 163.15 L 107.92 161.87 L 109.20 160.60 L 110.47 159.33 L 111.74 158.06 L 112.32 157.48 L 113.59 158.75 L 114.86 160.03 L 116.14 161.30 L 116.42 161.59 L 117.70 160.31 L 118.97 159.04 L 120.24 157.77 L 120.53 157.48 L 119.26 156.21 L 117.98 154.93 L 116.71 153.66 L 116.42 153.38 L 117.70 152.10 L 118.97 150.83 L 120.24 149.56 L 121.51 148.28 L 122.79 147.01 L 124.06 145.74 L 124.64 145.16 L 125.91 146.44 L 127.18 147.71 L 128.45 148.98 L 128.74 149.27 L 127.47 150.54 L 126.20 151.81 L 124.92 153.09 L 124.63 153.37 L 125.91 154.65 L 127.18 155.92 L 128.45 157.19 L 129.73 158.47 L 131.00 159.74 L 132.27 161.01 L 132.85 161.59 L 134.12 160.31 L 135.39 159.04 L 136.66 157.77 L 136.95 157.48 L 135.68 156.21 L 134.41 154.94 L 133.13 153.66 L 132.85 153.38 L 134.12 152.10 L 135.39 150.83 L 136.66 149.56 L 136.95 149.27 L 138.23 150.54 L 139.50 151.81 L 140.77 153.09 L 141.06 153.37 L 142.33 152.10 L 143.60 150.83 L 144.88 149.56 L 145.16 149.27 L 143.89 148.00 L 142.62 146.72 L 141.35 145.45 L 140.07 144.18 L 138.80 142.91 L 137.53 141.63 L 136.95 141.06 L 135.68 142.33 L 134.41 143.60 L 133.13 144.88 L 132.85 145.16 L 131.57 143.89 L 130.30 142.62 L 129.03 141.34 L 128.74 141.06 L 130.01 139.78 L 131.29 138.51 L 132.56 137.24 L 132.85 136.95 L 131.57 135.68 L 130.30 134.41 L 129.03 133.13 L 127.76 131.86 L 126.48 130.59 L 125.21 129.32 L 124.63 128.74 L 123.36 130.01 L 122.09 131.29 L 120.82 132.56 L 120.53 132.85 L 121.80 134.12 L 123.07 135.39 L 124.35 136.66 L 124.64 136.95 L 123.36 138.22 L 122.09 139.50 L 120.82 140.77 L 119.54 142.04 L 118.27 143.32 L 117.00 144.59 L 116.42 145.16 L 115.15 143.89 L 113.88 142.62 L 112.60 141.35 L 112.32 141.06 L 113.59 139.78 L 114.86 138.51 L 116.14 137.24 L 116.42 136.95 L 115.15 135.68 L 113.88 134.41 L 112.60 133.13 L 112.32 132.85 L 111.04 134.12 L 109.77 135.39 L 108.50 136.66 L 108.21 136.95 L 106.94 135.68 L 105.67 134.41 L 104.39 133.13 L 104.11 132.85 L 105.38 131.57 L 106.65 130.30 L 107.92 129.03 L 109.20 127.76 L 110.47 126.48 L 111.74 125.21 L 112.32 124.63 L 113.59 125.91 L 114.86 127.18 L 116.14 128.45 L 116.42 128.74 L 117.70 127.47 L 118.97 126.19 L 120.24 124.92 L 120.53 124.63 L 119.26 123.36 L 117.98 122.09 L 116.71 120.82 L 115.44 119.54 L 114.16 118.27 L 112.89 117.00 L 112.32 116.42 L 111.04 117.70 L 109.77 118.97 L 108.50 120.24 L 108.21 120.53 L 106.94 119.26 L 105.67 117.98 L 104.39 116.71 L 104.11 116.42 L 105.38 115.15 L 106.65 113.88 L 107.92 112.60 L 108.21 112.32 L 106.94 111.04 L 105.67 109.77 L 104.39 108.50 L 103.12 107.23 L 101.85 105.95 L 100.57 104.68 L 100.00 104.11 L 98.73 105.38 L 97.45 106.65 L 96.18 107.92 L 95.89 108.21 L 97.17 109.48 L 98.44 110.76 L 99.71 112.03 L 100.00 112.32 L 98.73 113.59 L 97.45 114.86 L 96.18 116.14 L 95.89 116.42 L 94.62 115.15 L 93.35 113.88 L 92.08 112.60 L 91.79 112.32 L 90.52 113.59 L 89.24 114.86 L 87.97 116.14 L 87.68 116.42 L 88.96 117.70 L 90.23 118.97 L 91.50 120.24 L 92.77 121.52 L 94.05 122.79 L 95.32 124.06 L 95.89 124.64 L 97.17 123.36 L 98.44 122.09 L 99.71 120.82 L 100.00 120.53 L 101.27 121.80 L 102.55 123.07 L 103.82 124.35 L 104.11 124.64 L 102.83 125.91 L 101.56 127.18 L 100.29 128.45 L 99.02 129.73 L 97.74 131.00 L 96.47 132.27 L 95.20 133.54 L 93.92 134.82 L 92.65 136.09 L 91.79 136.95 L 90.52 135.68 L 89.24 134.41 L 87.97 133.13 L 87.68 132.85 L 88.96 131.57 L 90.23 130.30 L 91.50 129.03 L 91.79 128.74 L 90.52 127.47 L 89.24 126.19 L 87.97 124.92 L 86.70 123.65 L 85.42 122.38 L 84.15 121.10 L 83.58 120.53 L 82.30 121.80 L 81.03 123.07 L 79.76 124.35 L 79.47 124.63 L 80.74 125.91 L 82.02 127.18 L 83.29 128.45 L 83.58 128.74 L 82.30 130.01 L 81.03 131.29 L 79.76 132.56 L 79.47 132.85 L 78.20 131.57 L 76.93 130.30 L 75.65 129.03 L 75.37 128.74 L 74.09 130.01 L 72.82 131.29 L 71.55 132.56 L 71.26 132.85 L 72.53 134.12 L 73.81 135.39 L 75.08 136.67 L 76.35 137.94 L 77.62 139.21 L 78.90 140.48 L 79.47 141.06 L 80.74 139.79 L 82.02 138.51 L 83.29 137.24 L 83.58 136.95 L 84.85 138.22 L 86.12 139.50 L 87.40 140.77 L 87.68 141.06 L 86.41 142.33 L 85.14 143.60 L 83.87 144.88 L 83.58 145.16 L 84.85 146.44 L 86.12 147.71 L 87.40 148.98 L 88.67 150.26 L 89.94 151.53 L 91.21 152.80 L 91.79 153.37 L 93.06 152.10 L 94.33 150.83 L 95.61 149.56 L 95.89 149.27 L 94.62 148.00 L 93.35 146.72 L 92.08 145.45 L 91.79 145.16 L 93.06 143.89 L 94.33 142.62 L 95.61 141.34 L 96.88 140.07 L 98.15 138.80 L 99.43 137.53 L 100.00 136.95 L 101.27 138.22 L 102.55 139.50 L 103.82 140.77 L 104.11 141.06 L 102.83 142.33 L 101.56 143.60 L 100.29 144.88 L 100.00 145.16 L 101.27 146.44 L 102.55 147.71 L 103.82 148.98 L 104.11 149.27 L 105.38 148.00 L 106.65 146.72 L 107.92 145.45 L 108.21 145.16 L 109.48 146.44 L 110.76 147.71 L 112.03 148.98 L 112.32 149.27 L 111.04 150.54 L 109.77 151.81 L 108.50 153.09 L 107.23 154.36 L 105.95 155.63 L 104.68 156.91 L 104.11 157.48 L 102.83 156.21 L 101.56 154.93 L 100.29 153.66 L 100.00 153.37 L 98.73 154.65 L 97.45 155.92 L 96.18 157.19 L 95.89 157.48 L 97.17 158.75 L 98.44 160.03 L 99.71 161.30 L 100.00 161.59 L 98.73 162.86 L 97.45 164.13 L 96.18 165.41 L 95.89 165.69 L 94.62 164.42 L 93.35 163.15 L 92.08 161.87 L 91.79 161.59 L 90.52 162.86 L 89.24 164.13 L 87.97 165.40 L 87.68 165.69 L 88.96 166.97 L 90.23 168.24 L 91.50 169.51 L 91.79 169.80 L 90.52 171.07 L 89.24 172.34 L 87.97 173.62 L 86.70 174.89 L 85.43 176.16 L 84.15 177.43 L 83.58 178.01 L 82.30 176.74 L 81.03 175.46 L 79.76 174.19 L 79.47 173.90 L 80.74 172.63 L 82.02 171.36 L 83.29 170.09 L 83.58 169.80 L 82.30 168.53 L 81.03 167.25 L 79.76 165.98 L 79.47 165.69 L 78.20 166.97 L 76.93 168.24 L 75.65 169.51 L 75.37 169.80 L 74.09 168.53 L 72.82 167.25 L 71.55 165.98 L 71.26 165.69 L 72.53 164.42 L 73.80 163.15 L 75.08 161.87 L 76.35 160.60 L 77.62 159.33 L 78.90 158.06 L 79.47 157.48 L 80.74 158.75 L 82.02 160.03 L 83.29 161.30 L 83.58 161.59 L 84.85 160.31 L 86.12 159.04 L 87.40 157.77 L 87.68 157.48 L 86.41 156.21 L 85.14 154.94 L 83.86 153.66 L 82.59 152.39 L 81.32 151.12 L 80.05 149.84 L 79.47 149.27 L 78.20 150.54 L 76.93 151.82 L 75.65 153.09 L 75.37 153.37 L 74.09 152.10 L 72.82 150.83 L 71.55 149.56 L 71.26 149.27 L 72.53 148.00 L 73.81 146.72 L 75.08 145.45 L 75.37 145.16 L 74.09 143.89 L 72.82 142.62 L 71.55 141.35 L 70.27 140.07 L 69.00 138.80 L 67.73 137.53 L 67.15 136.95 L 65.88 138.22 L 64.61 139.50 L 63.34 140.77 L 63.05 141.06 L 64.32 142.33 L 65.59 143.60 L 66.87 144.88 L 67.15 145.16 L 65.88 146.44 L 64.61 147.71 L 63.34 148.98 L 63.05 149.27 L 61.77 148.00 L 60.50 146.72 L 59.23 145.45 L 58.94 145.16 L 57.67 146.44 L 56.40 147.71 L 55.12 148.98 L 54.84 149.27 L 56.11 150.54 L 57.38 151.82 L 58.65 153.09 L 59.93 154.36 L 61.20 155.63 L 62.47 156.91 L 63.05 157.48 L 64.32 156.21 L 65.59 154.94 L 66.87 153.66 L 67.15 153.38 L 68.43 154.65 L 69.70 155.92 L 70.97 157.19 L 71.26 157.48 L 69.99 158.75 L 68.71 160.03 L 67.44 161.30 L 66.17 162.57 L 64.90 163.85 L 63.62 165.12 L 62.35 166.39 L 61.08 167.66 L 59.80 168.94 L 58.94 169.80 L 57.67 168.53 L 56.40 167.25 L 55.12 165.98 L 54.84 165.69 L 56.11 164.42 L 57.38 163.15 L 58.66 161.87 L 58.94 161.59 L 57.67 160.31 L 56.40 159.04 L 55.12 157.77 L 53.85 156.50 L 52.58 155.22 L 51.31 153.95 L 50.73 153.38 L 49.46 154.65 L 48.19 155.92 L 46.91 157.19 L 46.62 157.48 L 47.90 158.75 L 49.17 160.03 L 50.44 161.30 L 50.73 161.59 L 49.46 162.86 L 48.18 164.13 L 46.91 165.41 L 46.62 165.69 L 45.35 164.42 L 44.08 163.15 L 42.81 161.87 L 42.52 161.59 L 41.25 162.86 L 39.97 164.13 L 38.70 165.40 L 38.45 165.66 L 39.79 166.86 L 41.13 168.06 L 41.74 168.60 L 43.14 169.73 L 44.54 170.86 L 45.18 171.38 L 46.62 172.45 L 47.46 173.07 L 48.73 171.80 L 50.00 170.53 L 50.73 169.80 L 52.00 171.07 L 53.28 172.34 L 54.55 173.62 L 54.84 173.90 L 53.56 175.18 L 52.37 176.37 L 53.92 177.28 L 55.48 178.20 L 56.18 178.61 L 57.77 179.45 L 59.37 180.29 L 60.09 180.67 L 61.72 181.44 L 62.96 182.02 L 61.68 180.75 L 60.41 179.48 L 59.14 178.20 L 58.94 178.01 L 60.22 176.74 L 61.49 175.46 L 62.76 174.19 L 64.03 172.92 L 65.31 171.65 L 66.58 170.37 L 67.15 169.80 L 68.43 171.07 L 69.70 172.34 L 70.97 173.62 L 71.26 173.90 L 69.99 175.18 L 68.71 176.45 L 67.44 177.72 L 67.15 178.01 L 68.43 179.28 L 69.70 180.56 L 70.97 181.83 L 71.26 182.12 L 72.53 180.84 L 73.81 179.57 L 75.08 178.30 L 75.37 178.01 L 76.64 179.28 L 77.91 180.56 L 79.18 181.83 L 79.47 182.12 L 78.20 183.39 L 76.93 184.66 L 75.65 185.93 L 75.37 186.22 L 75.27 186.54 L 77.02 186.99 L 78.76 187.44 L 79.55 187.65 L 81.31 188.03 L 81.68 188.12 L 82.96 186.84 L 84.23 185.57 L 85.50 184.30 L 86.77 183.02 L 87.68 182.12 L 88.96 183.39 L 90.23 184.66 L 91.50 185.93 L 91.79 186.22 L 93.06 184.95 L 94.33 183.68 L 95.61 182.40 L 95.89 182.12 L 94.62 180.84 L 93.35 179.57 L 92.08 178.30 L 91.79 178.01 L 93.06 176.74 L 94.33 175.46 L 95.61 174.19 L 96.88 172.92 L 98.15 171.65 L 99.43 170.37 L 100.00 169.80 L 101.27 171.07 L 102.55 172.34 L 103.82 173.62 L 104.11 173.90 L 102.83 175.18 L 101.56 176.45 L 100.29 177.72 L 100.00 178.01 L 101.27 179.28 L 102.55 180.55 L 103.82 181.83 L 104.11 182.12 L 105.38 180.84 L 106.65 179.57 L 107.92 178.30 L 108.21 178.01 L 109.48 179.28 L 110.76 180.56 L 112.03 181.83 L 112.32 182.12 L 111.05 183.39 L 109.77 184.66 L 108.50 185.93 L 107.23 187.21 L 105.95 188.48 L 104.68 189.75 L 104.55 189.88 L 103.70 189.92 L 102.43 188.65 L 101.16 187.38 L 100.00 186.22 L 98.73 187.49 L 97.46 188.77 L 96.30 189.92 L 98.10 189.95 L 99.90 189.98 L 100.72 190.00 L 102.51 189.94 L 104.31 189.88 L 105.13 189.85 L 106.92 189.71 L 108.72 189.56 L 109.53 189.49 L 111.32 189.26 L 113.10 189.03 L 113.69 188.95 L 114.96 187.68 L 116.24 186.41 L 116.42 186.22 L 117.70 187.49 L 118.32 188.12" 
          fill="none" 
          stroke="currentColor" 
          stroke-width="0.5"/>
</svg>