<?xml version="1.0" encoding="UTF-8" standalone="no"?>
<svg width="100%" height="100%" viewBox="0 0 200 200" preserveAspectRatio="xMidYMid meet" xmlns="http://www.w3.org/2000/svg">
    <path d="M 100.00 100.00 L 99.82 99.22 L 100.34 98.42 L 101.46 98.04 L 102.86 98.42 L 104.07 99.72 L 104.60 101.71 L 104.01 104.06 L 102.23 106.14 L 99.38 107.30 L 95.97 107.07 L 92.72 105.20 L 90.43 101.79 L 89.75 97.41 L 91.19 92.84 L 94.63 89.04 L 99.72 87.01 L 105.54 87.33 L 110.97 90.27 L 114.82 95.53 L 116.14 102.27 L 114.39 109.28 L 109.59 115.13 L 102.47 118.58 L 94.20 118.66 L 86.35 115.12 L 80.54 108.29 L 78.03 99.33 L 79.64 89.80 L 85.29 81.54 L 88.03 78.68 L 91.70 75.75 L 94.32 74.13 L 97.98 72.38 L 102.19 71.00 L 107.27 70.14 L 112.24 70.06 L 118.27 71.00 L 121.96 72.17 L 125.43 73.73 L 128.49 75.56 L 130.93 77.36 L 133.28 79.48 L 136.08 82.64 L 135.54 81.74 L 134.79 80.55 L 133.95 79.37 L 133.14 78.31 L 131.72 76.64 L 130.61 75.47 L 129.26 74.16 L 128.04 73.11 L 126.92 72.21 L 125.52 71.20 L 124.40 70.46 L 123.51 69.91 L 125.21 70.98 L 126.92 72.21 L 128.49 73.49 L 130.12 74.98 L 131.17 76.06 L 132.21 77.20 L 133.14 78.31 L 134.19 79.71 L 135.16 81.15 L 136.08 82.64 L 134.84 80.14 L 133.93 78.49 L 133.05 77.00 L 131.96 75.30 L 130.86 73.70 L 129.57 71.99 L 127.97 70.04 L 127.02 68.95 L 126.28 68.17 L 123.94 67.31 L 122.30 66.47 L 120.57 65.34 L 119.22 64.25 L 117.92 62.96 L 116.99 61.86 L 116.09 60.60 L 115.23 59.13 L 116.59 60.00 L 118.15 61.08 L 119.74 62.24 L 121.65 63.77 L 122.88 64.85 L 124.40 66.26 L 125.49 67.34 L 126.65 68.56 L 124.40 66.26 L 121.65 63.77 L 118.94 61.66 L 117.03 60.30 L 115.23 59.13 L 112.41 57.50 L 107.23 55.05 L 102.78 53.45 L 99.39 52.49 L 95.41 51.68 L 91.96 51.22 L 87.23 50.94 L 82.11 51.10 L 77.15 51.72 L 73.17 52.56 L 70.06 53.43 L 66.95 54.51 L 64.59 55.59 L 65.46 55.09 L 66.43 54.56 L 67.59 53.96 L 68.60 53.46 L 70.22 52.71 L 71.63 52.11 L 73.21 51.48 L 75.87 50.54 L 77.97 49.90 L 80.35 49.29 L 83.20 48.68 L 86.62 48.16 L 89.49 47.87 L 91.67 47.75 L 94.69 47.73 L 92.38 47.74 L 89.49 47.87 L 86.62 48.16 L 84.91 48.41 L 82.62 48.79 L 80.75 49.19 L 79.17 49.60 L 76.92 50.23 L 74.54 51.01 L 71.63 52.11 L 69.41 53.09 L 67.01 54.26 L 65.46 55.09 L 64.59 55.59 L 65.77 54.77 L 66.56 54.23 L 67.36 53.71 L 68.23 53.15 L 69.33 52.46 L 70.97 51.49 L 72.39 50.70 L 74.27 49.72 L 76.60 48.59 L 80.51 46.93 L 82.87 46.04 L 85.49 45.17 L 89.72 43.99 L 93.83 43.10 L 94.69 42.96 L 96.57 43.49 L 98.95 43.85 L 101.61 43.89 L 104.13 43.57 L 105.92 43.12 L 107.28 42.64 L 108.26 42.22 L 108.94 41.89 L 107.57 41.86 L 105.94 41.87 L 104.11 41.92 L 102.13 42.03 L 99.75 42.25 L 97.59 42.50 L 95.76 42.76 L 93.83 43.10 L 96.68 42.63 L 100.07 42.21 L 103.12 41.98 L 106.75 41.86 L 110.15 41.91 L 114.64 42.23 L 119.22 42.84 L 123.81 43.75 L 129.07 45.18 L 134.59 47.15 L 137.97 48.61 L 142.47 50.88 L 147.43 53.86 L 154.29 58.98 L 158.83 63.12 L 165.14 70.26 L 169.46 76.50 L 172.21 81.33 L 175.33 88.18 L 177.52 94.58 L 178.71 99.28 L 179.65 104.41 L 180.26 110.20 L 180.51 114.27 L 179.82 119.83 L 177.24 127.88 L 174.96 133.90 L 171.18 140.76 L 166.38 147.83 L 162.42 152.81 L 164.83 151.01 L 167.76 148.44 L 170.91 145.87 L 173.73 143.63 L 176.49 141.34 L 180.06 138.34 L 180.15 128.91 L 180.34 124.33 L 180.27 121.32 L 179.25 127.39 L 179.07 131.94 L 179.08 135.90 L 179.00 137.54 L 174.02 141.26 L 170.13 145.06 L 167.05 148.10 L 173.07 140.24 L 175.62 136.17 L 174.20 140.00 L 177.46 137.23 L 175.92 134.24 L 178.37 127.63 L 177.23 134.24 L 177.92 136.37 L 178.72 125.83 L 180.25 119.52 L 180.72 113.87 L 181.10 105.11 L 181.10 96.92 L 181.11 87.94 L 177.99 73.51 L 175.64 66.46 L 172.84 60.45 L 168.61 54.28 L 166.60 51.49 L 165.85 50.41 L 165.29 49.45 L 169.27 54.58 L 177.01 61.78 L 174.92 60.98 L 170.45 55.97 L 174.10 62.01 L 177.40 62.67 L 177.53 66.94 L 175.42 63.44 L 177.02 67.97 L 179.41 77.59 L 178.96 73.28 L 178.41 67.87 L 178.60 61.66 L 177.37 60.57 L 174.27 58.11 L 170.81 55.13 L 166.72 50.56 L 169.11 52.37 L 172.57 55.37 L 179.89 61.33 L 180.01 65.98 L 180.07 69.57 L 180.07 73.17 L 180.12 77.24 L 180.30 81.13 L 180.21 84.14 L 178.78 77.94 L 176.24 69.77 L 173.24 62.55 L 169.95 57.01 L 165.27 49.97 L 161.35 45.97 L 158.03 43.63 L 153.11 40.49 L 148.51 38.02 L 144.09 36.04 L 137.72 33.76 L 130.43 31.92 L 124.93 31.05 L 117.36 30.54 L 107.84 31.03 L 101.77 31.99 L 93.49 34.17 L 88.07 36.19 L 83.49 38.29 L 80.24 40.02 L 75.26 43.11 L 70.87 46.33 L 67.29 49.35 L 63.96 52.55 L 60.91 55.86 L 58.76 58.49 L 56.58 61.40 L 54.86 63.93 L 53.08 66.84 L 51.67 69.37 L 52.61 67.64 L 53.54 66.05 L 54.68 64.20 L 56.01 62.21 L 57.16 60.59 L 58.25 59.13 L 59.26 57.85 L 60.14 56.79 L 59.97 57.54 L 59.69 58.56 L 59.21 59.93 L 58.45 61.60 L 57.14 63.77 L 55.44 65.83 L 53.68 67.46 L 52.09 68.60 L 51.67 69.37 L 49.80 73.13 L 48.09 77.18 L 47.14 79.77 L 46.35 82.16 L 45.22 86.26 L 44.65 88.78 L 44.24 90.87 L 43.97 92.47 L 43.71 94.36 L 43.56 95.64 L 43.45 96.68 L 43.36 97.62 L 43.29 98.58 L 43.20 100.01 L 43.35 99.02 L 43.67 97.29 L 44.25 94.69 L 44.86 92.34 L 45.82 89.38 L 46.69 87.03 L 47.60 84.88 L 48.27 83.39 L 49.13 81.68 L 50.26 79.65 L 51.12 78.15 L 52.69 75.73 L 54.39 73.40 L 55.81 71.57 L 53.95 73.96 L 52.69 75.73 L 51.12 78.15 L 49.40 81.16 L 48.10 83.75 L 47.10 86.01 L 46.29 88.05 L 45.36 90.71 L 44.86 92.34 L 44.45 93.81 L 44.03 95.55 L 43.80 96.65 L 43.55 97.93 L 43.35 99.02 L 43.20 100.01 L 43.82 97.50 L 44.92 94.39 L 46.18 91.41 L 48.00 87.78 L 50.61 83.51 L 53.68 79.41 L 56.84 75.89 L 59.36 73.48 L 62.47 70.87 L 65.34 68.81 L 69.36 66.34 L 74.50 63.82 L 77.54 62.63 L 79.57 61.95 L 81.83 61.30 L 85.18 60.51 L 88.83 59.90 L 92.04 59.58 L 90.36 59.72 L 88.83 59.90 L 86.78 60.21 L 85.18 60.51 L 82.78 61.05 L 80.88 61.55 L 79.07 62.11 L 77.54 62.63 L 79.23 62.87 L 80.77 62.95 L 82.21 62.92 L 84.03 62.69 L 85.73 62.33 L 87.69 61.68 L 89.37 60.92 L 91.50 59.63 L 92.57 59.54 L 94.02 59.46 L 96.53 59.43 L 98.68 59.49 L 100.61 59.62 L 102.62 59.84 L 104.34 60.07 L 106.20 60.39 L 108.92 60.98 L 107.18 60.77 L 105.45 60.63 L 103.70 60.58 L 102.26 60.61 L 100.71 60.71 L 99.22 60.87 L 97.03 61.21 L 95.06 61.64 L 93.02 62.22 L 91.13 62.88 L 92.11 62.52 L 93.39 62.11 L 95.06 61.64 L 96.46 61.33 L 98.04 61.03 L 99.90 60.79 L 101.52 60.65 L 103.70 60.58 L 105.03 60.61 L 106.49 60.70 L 107.88 60.84 L 108.92 60.98 L 104.71 61.20 L 101.58 61.72 L 98.65 62.50 L 95.32 63.76 L 91.93 65.50 L 88.71 67.65 L 84.22 71.77 L 81.18 75.71 L 78.69 80.22 L 77.14 84.38 L 76.22 88.33 L 75.87 91.39 L 75.86 96.08 L 76.39 100.01 L 77.42 102.16 L 78.67 104.76 L 79.90 107.29 L 81.09 109.78 L 81.51 110.66 L 82.12 111.91 L 82.71 113.12 L 83.73 115.25 L 84.51 116.86 L 85.28 118.48 L 81.88 116.44 L 78.21 113.52 L 76.05 111.33 L 73.53 108.15 L 71.25 104.34 L 69.28 99.59 L 68.09 94.75 L 67.67 88.67 L 67.99 84.81 L 68.75 81.09 L 69.84 77.69 L 71.06 74.91 L 72.60 72.15 L 75.06 68.71 L 74.30 69.44 L 73.31 70.44 L 72.34 71.52 L 71.49 72.54 L 70.17 74.29 L 69.28 75.64 L 68.31 77.25 L 67.55 78.67 L 66.93 79.97 L 66.25 81.55 L 65.78 82.82 L 65.44 83.80 L 66.11 81.92 L 66.93 79.97 L 67.82 78.15 L 68.91 76.22 L 69.72 74.97 L 70.61 73.69 L 71.49 72.54 L 72.62 71.21 L 73.80 69.94 L 75.06 68.71 L 72.89 70.48 L 71.48 71.73 L 70.23 72.93 L 68.81 74.36 L 67.50 75.80 L 66.12 77.44 L 64.57 79.42 L 63.73 80.60 L 63.13 81.49 L 62.81 83.96 L 62.36 85.75 L 61.65 87.68 L 60.88 89.25 L 59.91 90.80 L 59.05 91.95 L 58.02 93.11 L 56.77 94.28 L 57.32 92.76 L 58.02 90.99 L 58.81 89.19 L 59.88 86.98 L 60.65 85.54 L 61.68 83.74 L 62.50 82.44 L 63.43 81.04 L 61.68 83.74 L 59.88 86.98 L 58.41 90.09 L 57.51 92.26 L 56.77 94.28 L 55.81 97.39 L 54.58 102.99 L 54.00 107.67 L 53.83 111.20 L 53.92 115.26 L 54.23 118.72 L 55.02 123.40 L 56.32 128.35 L 58.02 133.05 L 59.73 136.74 L 61.27 139.58 L 63.01 142.38 L 64.60 144.43 L 63.92 143.69 L 63.18 142.86 L 62.33 141.87 L 61.62 141.00 L 60.53 139.58 L 59.63 138.35 L 58.66 136.95 L 57.16 134.56 L 56.07 132.65 L 54.94 130.47 L 53.71 127.83 L 52.44 124.61 L 51.53 121.87 L 50.93 119.78 L 50.22 116.84 L 50.76 119.09 L 51.53 121.87 L 52.44 124.61 L 53.08 126.22 L 53.96 128.37 L 54.76 130.11 L 55.51 131.56 L 56.61 133.61 L 57.91 135.75 L 59.63 138.35 L 61.07 140.29 L 62.76 142.37 L 63.92 143.69 L 64.60 144.43 L 63.53 143.47 L 62.83 142.82 L 62.14 142.16 L 61.40 141.43 L 60.49 140.51 L 59.18 139.12 L 58.10 137.92 L 56.71 136.30 L 55.10 134.28 L 52.60 130.84 L 51.22 128.74 L 49.79 126.37 L 47.69 122.51 L 45.91 118.70 L 45.58 117.89 L 45.67 115.95 L 45.50 113.55 L 44.94 110.94 L 44.08 108.56 L 43.24 106.92 L 42.47 105.70 L 41.84 104.84 L 41.37 104.24 L 41.64 105.59 L 42.01 107.17 L 42.48 108.94 L 43.03 110.85 L 43.76 113.12 L 44.49 115.17 L 45.15 116.89 L 45.91 118.70 L 44.82 116.03 L 43.65 112.82 L 42.75 109.90 L 41.83 106.38 L 41.12 103.06 L 40.43 98.61 L 40.01 94.01 L 39.87 89.34 L 40.09 83.89 L 40.79 78.06 L 41.46 74.45 L 42.67 69.56 L 44.47 64.06 L 47.92 56.22 L 50.96 50.88 L 56.53 43.14 L 61.64 37.54 L 65.75 33.78 L 71.72 29.22 L 77.48 25.66 L 81.79 23.45 L 86.59 21.39 L 92.10 19.50 L 96.01 18.37 L 101.58 17.80 L 110.00 18.52 L 116.38 19.41 L 123.91 21.56 L 131.87 24.67 L 137.60 27.41 L 135.31 25.48 L 132.15 23.19 L 128.95 20.69 L 126.14 18.44 L 123.28 16.25 L 119.58 13.45 L 110.35 15.46 L 105.85 16.29 L 102.93 17.03 L 109.07 16.68 L 113.55 15.84 L 117.42 14.93 L 119.03 14.65 L 123.76 18.68 L 128.34 21.63 L 131.98 23.96 L 122.98 19.83 L 118.44 18.25 L 122.49 18.79 L 119.07 16.22 L 116.49 18.39 L 109.50 17.48 L 116.20 17.11 L 118.13 15.98 L 107.68 17.54 L 101.18 17.44 L 95.89 18.70 L 92.87 18.85 L 89.75 19.39 L 87.70 19.77 L 84.42 20.39 L 81.97 20.96 L 79.59 21.54 L 76.23 22.27 L 67.85 24.78 L 57.69 29.01 L 47.12 36.08 L 41.88 41.33 L 38.48 45.24 L 36.94 46.94 L 36.19 47.62 L 40.31 42.60 L 45.60 33.45 L 45.30 35.67 L 41.40 41.14 L 46.48 36.23 L 46.39 32.87 L 50.53 31.80 L 47.58 34.63 L 51.64 32.07 L 60.49 27.60 L 56.39 29.00 L 51.24 30.73 L 45.15 31.92 L 44.35 33.36 L 42.65 36.94 L 40.52 40.97 L 36.96 45.99 L 38.20 43.25 L 40.35 39.21 L 44.53 30.74 L 49.04 29.60 L 52.52 28.73 L 56.04 27.93 L 59.99 26.98 L 63.74 25.94 L 66.69 25.37 L 60.97 28.13 L 53.57 32.42 L 47.20 36.96 L 42.53 41.39 L 36.72 47.53 L 33.68 52.24 L 32.14 56.01 L 30.18 61.49 L 28.80 66.53 L 27.84 71.27 L 27.03 77.99 L 26.87 85.51 L 27.24 91.06 L 28.43 98.56 L 31.01 107.73 L 33.31 113.43 L 37.28 121.02 L 40.45 125.86 L 43.52 129.85 L 45.93 132.63 L 50.05 136.81 L 54.16 140.38 L 57.91 143.19 L 61.77 145.72 L 65.67 147.96 L 68.72 149.48 L 72.04 150.95 L 74.89 152.06 L 78.13 153.15 L 80.90 153.97 L 79.01 153.43 L 77.25 152.88 L 75.19 152.17 L 72.96 151.33 L 71.12 150.56 L 69.45 149.83 L 67.98 149.13 L 66.76 148.51 L 67.52 148.50 L 68.58 148.54 L 70.02 148.71 L 71.82 149.08 L 74.23 149.88 L 76.61 151.07 L 78.60 152.44 L 80.06 153.72 L 80.90 153.97 L 84.99 154.95 L 89.31 155.72 L 92.05 156.07 L 94.55 156.30 L 98.81 156.50 L 101.39 156.49 L 103.51 156.42 L 105.13 156.32 L 107.03 156.16 L 108.32 156.03 L 109.35 155.90 L 110.30 155.78 L 111.25 155.63 L 112.66 155.40 L 111.66 155.47 L 109.90 155.55 L 107.23 155.56 L 104.81 155.49 L 101.71 155.22 L 99.22 154.89 L 96.93 154.48 L 95.32 154.16 L 93.47 153.70 L 91.24 153.05 L 89.58 152.55 L 86.87 151.55 L 84.22 150.42 L 82.13 149.43 L 84.86 150.72 L 86.87 151.55 L 89.58 152.55 L 92.89 153.55 L 95.72 154.25 L 98.14 154.72 L 100.31 155.06 L 103.11 155.37 L 104.81 155.49 L 106.34 155.56 L 108.13 155.58 L 109.25 155.57 L 110.55 155.53 L 111.66 155.47 L 112.66 155.40 L 110.07 155.36 L 106.80 154.98 L 103.61 154.41 L 99.66 153.44 L 94.92 151.84 L 90.25 149.77 L 86.10 147.47 L 83.20 145.56 L 79.96 143.09 L 77.31 140.77 L 74.01 137.39 L 70.41 132.94 L 68.57 130.24 L 67.46 128.41 L 66.33 126.35 L 64.80 123.27 L 63.40 119.84 L 62.37 116.79 L 62.89 118.39 L 63.40 119.84 L 64.15 121.77 L 64.80 123.27 L 65.86 125.48 L 66.78 127.22 L 67.73 128.87 L 68.57 130.24 L 68.44 128.54 L 68.17 127.02 L 67.81 125.63 L 67.19 123.90 L 66.46 122.32 L 65.39 120.56 L 64.27 119.09 L 62.54 117.30 L 62.22 116.28 L 61.82 114.88 L 61.23 112.44 L 60.81 110.34 L 60.51 108.42 L 60.27 106.41 L 60.12 104.68 L 60.01 102.81 L 59.99 100.01 L 60.16 101.76 L 60.42 103.48 L 60.76 105.19 L 61.11 106.59 L 61.55 108.08 L 62.03 109.50 L 62.85 111.56 L 63.72 113.38 L 64.73 115.24 L 65.79 116.94 L 65.22 116.06 L 64.54 114.90 L 63.72 113.38 L 63.09 112.09 L 62.45 110.61 L 61.80 108.85 L 61.31 107.31 L 60.76 105.19 L 60.49 103.89 L 60.25 102.45 L 60.07 101.06 L 59.99 100.01 L 61.13 104.07 L 62.34 107.00 L 63.75 109.69 L 65.72 112.66 L 68.16 115.57 L 70.98 118.23 L 76.00 121.69 L 80.52 123.78 L 85.47 125.20 L 89.87 125.79 L 93.92 125.80 L 96.98 125.47 L 101.56 124.43 L 105.27 123.05 L 108.76 120.27 L 111.23 118.29 L 113.29 116.65 L 117.48 113.30 L 119.88 111.40 L 121.30 110.26 L 120.07 114.03 L 118.04 118.26 L 116.38 120.86 L 113.84 124.02 L 110.64 127.09 L 106.44 130.08 L 101.99 132.30 L 96.16 134.07 L 92.32 134.62 L 88.52 134.71 L 84.97 134.40 L 81.99 133.83 L 78.95 132.94 L 75.06 131.31 L 75.93 131.89 L 77.13 132.62 L 78.40 133.33 L 79.59 133.93 L 81.58 134.82 L 83.09 135.40 L 84.88 135.99 L 86.44 136.41 L 87.84 136.73 L 89.53 137.03 L 90.87 137.22 L 91.91 137.32 L 89.92 137.09 L 87.84 136.73 L 85.87 136.26 L 83.75 135.63 L 82.34 135.11 L 80.90 134.53 L 79.59 133.93 L 78.03 133.13 L 76.53 132.26 L 75.06 131.31 L 77.26 133.02 L 78.79 134.12 L 80.24 135.08 L 81.96 136.14 L 83.65 137.09 L 85.55 138.08 L 87.83 139.15 L 89.17 139.71 L 90.17 140.09 L 92.64 139.85 L 94.49 139.90 L 96.54 140.16 L 98.23 140.56 L 99.97 141.16 L 101.27 141.75 L 102.63 142.49 L 104.05 143.44 L 102.44 143.25 L 100.57 142.96 L 98.64 142.59 L 96.25 142.04 L 94.67 141.61 L 92.69 141.00 L 91.24 140.50 L 89.67 139.89 L 92.69 141.00 L 96.25 142.04 L 99.61 142.78 L 101.92 143.18 L 104.05 143.44 L 107.30 143.69 L 113.03 143.65 L 117.72 143.17 L 121.20 142.55 L 125.13 141.55 L 128.45 140.48 L 132.82 138.67 L 137.37 136.31 L 141.57 133.60 L 144.79 131.12 L 147.22 128.98 L 149.55 126.66 L 151.21 124.66 L 150.64 125.49 L 149.99 126.39 L 149.21 127.43 L 148.52 128.32 L 147.39 129.70 L 146.38 130.85 L 145.22 132.11 L 143.24 134.10 L 141.62 135.59 L 139.74 137.18 L 137.44 138.96 L 134.58 140.92 L 132.12 142.42 L 130.21 143.47 L 127.51 144.81 L 129.58 143.79 L 132.12 142.42 L 134.58 140.92 L 136.01 139.94 L 137.91 138.61 L 139.43 137.44 L 140.68 136.38 L 142.42 134.85 L 144.23 133.11 L 146.38 130.85 L 147.95 129.01 L 149.60 126.91 L 150.64 125.49 L 151.21 124.66 L 150.50 125.91 L 150.03 126.74 L 149.53 127.56 L 148.99 128.44 L 148.29 129.54 L 147.23 131.12 L 146.30 132.45 L 145.03 134.15 L 143.42 136.17 L 140.62 139.38 L 138.88 141.19 L 136.89 143.12 L 133.59 146.01 L 130.28 148.60 L 129.57 149.11 L 127.65 149.44 L 125.34 150.15 L 122.93 151.27 L 120.80 152.65 L 119.39 153.83 L 118.36 154.85 L 117.66 155.65 L 117.19 156.25 L 118.44 155.68 L 119.91 154.96 L 121.53 154.12 L 123.26 153.16 L 125.31 151.94 L 127.15 150.78 L 128.68 149.74 L 130.28 148.60 L 127.92 150.26 L 125.05 152.11 L 122.39 153.64 L 119.18 155.32 L 116.09 156.75 L 111.91 158.41 L 107.52 159.85 L 102.99 161.02 L 97.63 162.02 L 91.80 162.64 L 88.12 162.79 L 83.09 162.69 L 77.33 162.16 L 68.92 160.54 L 63.03 158.77 L 54.25 155.07 L 47.65 151.33 L 43.07 148.16 L 37.30 143.35 L 32.55 138.52 L 29.42 134.81 L 26.35 130.60 L 23.29 125.65 L 21.31 122.08 L 19.51 116.77 L 18.34 108.41 L 17.79 102.00 L 18.22 94.18 L 19.47 85.72 L 20.88 79.52 L 19.49 82.18 L 17.97 85.77 L 16.24 89.46 L 14.68 92.69 L 13.18 95.97 L 11.27 100.20 L 15.28 108.75 L 17.09 112.95 L 18.46 115.63 L 16.76 109.72 L 14.94 105.54 L 13.20 101.98 L 12.57 100.46 L 15.44 94.95 L 17.30 89.84 L 18.75 85.77 L 16.74 95.47 L 16.20 100.24 L 15.83 96.17 L 14.09 100.07 L 16.78 102.10 L 17.44 109.12 L 15.60 102.67 L 14.06 101.05 L 17.91 110.90 L 19.26 117.25 L 20.66 120.87 L 22.24 124.35 L 25.06 130.95 L 26.95 135.19 L 29.24 139.94 L 34.32 148.80 L 41.85 158.63 L 47.54 164.49 L 54.07 169.22 L 59.98 172.06 L 63.15 173.90 L 57.34 170.99 L 47.23 167.87 L 49.46 167.68 L 55.66 170.26 L 49.75 166.40 L 46.49 167.23 L 44.52 163.44 L 47.94 165.68 L 44.54 162.29 L 38.21 154.66 L 40.49 158.34 L 43.33 162.97 L 45.85 168.66 L 47.43 169.11 L 51.30 169.98 L 55.70 171.16 L 61.38 173.52 L 58.44 172.91 L 54.02 171.71 L 44.83 169.52 L 42.72 165.38 L 41.10 162.17 L 39.53 158.92 L 37.73 155.28 L 35.87 151.85 L 34.66 149.11 L 38.63 154.07 L 44.46 160.33 L 50.30 165.54 L 55.66 169.10 L 62.93 173.40 L 68.20 175.31 L 72.22 175.98 L 78.00 176.67 L 83.21 176.89 L 88.06 176.77 L 94.79 176.06 L 102.16 174.55 L 107.49 172.95 L 114.53 170.12 L 122.89 165.56 L 127.94 162.06 L 134.46 156.50 L 138.47 152.32 L 141.68 148.45 L 143.85 145.48 L 147.01 140.53 L 149.57 135.73 L 151.48 131.45 L 153.10 127.13 L 154.40 122.82 L 155.21 119.52 L 155.90 115.95 L 156.35 112.92 L 156.70 109.52 L 156.87 106.65 L 156.77 108.60 L 156.63 110.45 L 156.40 112.61 L 156.07 114.98 L 155.73 116.93 L 155.38 118.72 L 155.03 120.31 L 154.70 121.65 L 154.52 120.90 L 154.33 119.86 L 154.17 118.42 L 154.13 116.58 L 154.37 114.05 L 155.00 111.47 L 155.90 109.23 L 156.83 107.52 L 156.87 106.65 L 156.92 102.44 L 156.71 98.06 L 156.44 95.30 L 156.11 92.81 L 155.35 88.62 L 154.78 86.10 L 154.23 84.05 L 153.78 82.49 L 153.20 80.67 L 152.78 79.45 L 152.43 78.48 L 152.10 77.58 L 151.74 76.68 L 151.21 75.36 L 151.50 76.32 L 151.96 78.01 L 152.57 80.61 L 153.04 82.99 L 153.46 86.08 L 153.70 88.57 L 153.81 90.90 L 153.84 92.53 L 153.82 94.45 L 153.68 96.77 L 153.56 98.49 L 153.19 101.35 L 152.67 104.19 L 152.18 106.45 L 152.82 103.50 L 153.19 101.35 L 153.56 98.49 L 153.80 95.04 L 153.85 92.13 L 153.77 89.67 L 153.62 87.47 L 153.30 84.68 L 153.04 82.99 L 152.76 81.49 L 152.39 79.74 L 152.13 78.65 L 151.80 77.38 L 151.50 76.32 L 151.21 75.36 L 151.73 77.90 L 152.10 81.17 L 152.25 84.40 L 152.18 88.46 L 151.68 93.44 L 150.70 98.46 L 149.38 103.02 L 148.16 106.27 L 146.48 109.97 L 144.81 113.07 L 142.25 117.05 L 138.70 121.55 L 136.49 123.94 L 134.95 125.43 L 133.19 127.00 L 130.53 129.16 L 127.49 131.30 L 124.75 132.97 L 126.20 132.12 L 127.49 131.30 L 129.20 130.13 L 130.53 129.16 L 132.45 127.64 L 133.94 126.36 L 135.33 125.07 L 136.49 123.94 L 134.86 124.45 L 133.43 125.05 L 132.15 125.71 L 130.61 126.69 L 129.24 127.77 L 127.75 129.20 L 126.57 130.61 L 125.21 132.70 L 124.29 133.25 L 123.01 133.94 L 120.76 135.06 L 118.80 135.93 L 117.00 136.65 L 115.10 137.34 L 113.45 137.87 L 111.64 138.39 L 108.93 139.04 L 110.59 138.48 L 112.21 137.85 L 113.80 137.13 L 115.09 136.48 L 116.44 135.72 L 117.71 134.93 L 119.54 133.67 L 121.13 132.42 L 122.71 131.02 L 124.14 129.61 L 123.40 130.36 L 122.43 131.29 L 121.13 132.42 L 120.01 133.33 L 118.70 134.27 L 117.13 135.30 L 115.74 136.12 L 113.80 137.13 L 112.59 137.69 L 111.25 138.23 L 109.93 138.72 L 108.93 139.04 L 112.63 137.01 L 115.22 135.19 L 117.52 133.21 L 119.98 130.63 L 122.28 127.60 L 124.24 124.26 L 126.50 118.60 L 127.53 113.73 L 127.81 108.59 L 127.40 104.17 L 126.51 100.22 L 125.52 97.30 L 123.48 93.08 L 121.30 89.76 L 115.53 85.16 L 113.29 83.37 L 109.55 80.39 L 107.12 78.45 L 105.27 76.98 L 109.22 77.34 L 113.79 78.39 L 116.70 79.42 L 120.35 81.19 L 124.05 83.63 L 127.89 87.05 L 131.06 90.90 L 134.08 96.19 L 135.47 99.81 L 136.40 103.49 L 136.88 107.03 L 137.00 110.06 L 136.81 113.22 L 136.08 117.38 L 136.45 116.39 L 136.91 115.06 L 137.31 113.67 L 137.64 112.38 L 138.06 110.23 L 138.29 108.63 L 138.45 106.76 L 138.53 105.15 L 138.52 103.71 L 138.44 101.99 L 138.33 100.64 L 138.19 99.61 L 138.41 101.60 L 138.52 103.71 L 138.51 105.73 L 138.36 107.95 L 138.17 109.43 L 137.93 110.97 L 137.64 112.38 L 137.20 114.07 L 136.68 115.73 L 136.08 117.38 L 137.27 114.85 L 137.99 113.11 L 138.60 111.49 L 139.26 109.58 L 139.81 107.72 L 140.35 105.64 L 140.88 103.18 L 141.13 101.75 L 141.28 100.69 L 140.50 98.33 L 140.12 96.52 L 139.93 94.47 L 139.95 92.72 L 140.15 90.90 L 140.43 89.50 L 140.85 88.01 L 141.46 86.42 L 141.63 88.02 L 141.77 89.91 L 141.84 91.88 L 141.83 94.33 L 141.76 95.97 L 141.61 98.04 L 141.44 99.56 L 141.20 101.22 L 141.61 98.04 L 141.83 94.33 L 141.81 90.89 L 141.67 88.55 L 141.46 86.42 L 140.98 83.19 L 139.67 77.61 L 138.15 73.14 L 136.77 69.89 L 134.93 66.27 L 133.14 63.29 L 130.41 59.42 L 127.10 55.52 L 123.51 52.03 L 120.38 49.44 L 117.76 47.55 L 114.97 45.79 L 112.66 44.62 L 113.59 44.99 L 114.61 45.42 L 115.80 45.95 L 116.82 46.43 L 118.42 47.22 L 119.77 47.94 L 121.25 48.79 L 123.63 50.29 L 125.44 51.53 L 127.42 53.01 L 129.66 54.87 L 132.21 57.21 L 134.22 59.28 L 135.67 60.90 L 137.57 63.24 L 136.11 61.45 L 134.22 59.28 L 132.21 57.21 L 130.93 56.03 L 129.21 54.48 L 127.73 53.26 L 126.43 52.27 L 124.54 50.91 L 122.44 49.54 L 119.77 47.94 L 117.62 46.83 L 115.21 45.69 L 113.59 44.99 L 112.66 44.62 L 114.03 45.03 L 114.95 45.31 L 115.86 45.60 L 116.84 45.93 L 118.06 46.38 L 119.84 47.06 L 121.34 47.67 L 123.28 48.53 L 125.61 49.65 L 129.36 51.66 L 131.52 52.95 L 133.83 54.47 L 137.40 57.03 L 140.66 59.69 L 141.30 60.28 L 142.06 62.07 L 143.26 64.16 L 144.89 66.27 L 146.71 68.04 L 148.17 69.15 L 149.40 69.92 L 150.34 70.42 L 151.02 70.75 L 150.19 69.65 L 149.16 68.39 L 147.99 67.00 L 146.66 65.52 L 145.01 63.79 L 143.47 62.26 L 142.12 61.00 L 140.66 59.69 L 142.80 61.62 L 145.24 64.01 L 147.33 66.26 L 149.68 69.02 L 151.76 71.71 L 154.31 75.41 L 156.68 79.38 L 158.83 83.54 L 161.00 88.54 L 162.90 94.08 L 163.87 97.64 L 164.89 102.57 L 165.65 108.30 L 165.95 116.86 L 165.53 123.00 L 163.88 132.38 L 161.70 139.65 L 159.63 144.81 L 156.22 151.52 L 152.58 157.22 L 149.66 161.09 L 146.23 165.02 L 142.08 169.11 L 139.05 171.83 L 134.27 174.76 L 126.37 177.77 L 120.25 179.73 L 112.53 181.05 L 104.00 181.71 L 97.65 181.72 L 100.56 182.48 L 104.39 183.17 L 108.37 184.03 L 111.88 184.83 L 115.39 185.57 L 119.95 186.50 L 127.39 180.67 L 131.09 177.97 L 133.39 176.04 L 128.01 179.02 L 124.34 181.73 L 121.25 184.21 L 119.91 185.17 L 113.90 183.59 L 108.51 182.92 L 104.21 182.40 L 114.12 182.22 L 118.89 181.67 L 115.00 182.94 L 119.21 183.77 L 120.58 180.69 L 127.28 178.48 L 121.40 181.73 L 120.16 183.58 L 128.90 177.64 L 134.79 174.91 L 140.28 171.02 L 143.88 168.50 L 144.72 167.67 L 148.48 165.02 L 152.57 161.77 L 159.48 155.57 L 163.98 151.23 L 165.63 149.56 L 169.20 144.59 L 173.08 138.65 L 175.39 134.90 L 181.09 139.05 L 181.10 135.12 L 181.10 131.11 L 181.10 126.42 L 181.10 122.17 L 181.11 118.61 L 181.10 115.57 L 181.10 112.76 L 181.10 109.02 L 181.09 105.45 L 181.10 101.88 L 181.11 98.24 L 181.10 94.48 L 181.11 92.13 L 181.10 88.38 L 181.11 85.54 L 181.10 81.48 L 181.11 77.41 L 181.11 72.60 L 181.10 68.94 L 181.10 64.87 L 181.10 60.97 L 177.20 57.85 L 173.57 54.96 L 170.33 52.37 L 166.70 49.48 L 162.80 46.36 L 158.14 42.65 L 154.55 39.78 L 150.71 36.72 L 149.09 35.43 L 147.74 34.35 L 146.06 33.01 L 143.93 31.32 L 140.91 28.90 L 138.02 26.61 L 134.53 23.82 L 131.32 21.27 L 128.13 18.72 L 125.64 16.73 L 125.64 16.73 L 122.23 14.02 L 120.04 12.27 L 118.43 12.63 L 115.76 13.25 L 113.69 13.72 L 111.35 14.25 L 108.99 14.78 L 106.44 15.37 L 103.84 15.96 L 101.32 16.54 L 98.24 17.25 L 96.02 17.75 L 94.16 18.17 L 92.76 18.49 L 90.63 18.98 L 88.22 19.53 L 86.42 19.94 L 83.19 20.68 L 81.26 21.11 L 78.92 21.65 L 76.23 22.27 L 71.67 23.31 L 68.30 24.07 L 63.34 25.21 L 59.24 26.14 L 55.69 26.95 L 51.25 27.97 L 46.66 29.01 L 43.90 29.65 L 42.25 33.07 L 40.56 36.59 L 38.92 39.97 L 37.26 43.43 L 35.52 47.06 L 34.39 49.40 L 33.09 52.08 L 32.07 54.21 L 30.66 57.12 L 29.75 59.03 L 28.70 61.20 L 27.75 63.19 L 26.80 65.14 L 25.83 67.19 L 25.13 68.63 L 23.31 72.41 L 21.19 76.80 L 17.99 83.45 L 15.92 87.76 L 13.97 91.80 L 12.71 94.41 L 11.31 97.34 L 10.02 100.01 L 11.63 103.37 L 13.37 106.96 L 14.88 110.12 L 16.38 113.22 L 17.95 116.48 L 19.55 119.82 L 21.00 122.82 L 22.29 125.49 L 23.35 127.72 L 24.29 129.64 L 25.41 131.97 L 26.41 134.07 L 27.62 136.56 L 28.74 138.88 L 29.95 141.40 L 32.56 146.81 L 34.79 151.44 L 36.78 155.58 L 38.98 160.15 L 41.25 164.86 L 42.90 168.31 L 43.90 170.38 L 47.89 171.28 L 53.30 172.52 L 57.74 173.54 L 61.95 174.49 L 65.74 175.36 L 69.50 176.22 L 74.12 177.28 L 78.07 178.17 L 82.36 179.16 L 86.31 180.05 L 92.61 181.49 L 98.39 182.81 L 105.83 184.51 L 111.58 185.82 L 116.02 186.83 L 120.04 187.74 L 123.52 184.98 L 126.24 182.82 L 129.07 180.56 L 131.81 178.37 L 134.26 176.42 L 137.28 174.01 L 140.39 171.53 L 143.45 169.08 L 146.93 166.32 L 151.17 162.93 L 155.86 159.19 L 160.28 155.67 L 164.12 152.60 L 168.42 149.18 L 173.35 145.25 L 175.21 143.76 L 179.51 140.34 L 181.09 139.05 L 173.66 133.96 L 174.52 67.99 L 140.84 29.95 L 65.88 26.46 L 21.67 79.09 L 46.09 160.56 L 107.23 180.78 L 161.62 152.75 L 180.23 111.91 L 180.32 111.04 L 179.96 107.31 L 179.19 101.84 L 178.36 97.74 L 177.21 93.56 L 175.33 88.18 L 173.48 84.11 L 170.84 78.91 L 168.27 74.77 L 164.37 69.39 L 160.88 65.24 L 157.31 61.65 L 150.86 56.42 L 142.47 50.88 L 136.28 47.88 L 129.06 45.18 L 121.51 43.29 L 115.54 42.32 L 111.99 42.01 L 107.27 41.85 L 103.12 41.98 L 97.59 42.50 L 93.29 43.20 L 88.79 44.23 L 84.18 45.61 L 79.63 47.28 L 74.89 49.42 L 70.97 51.49 L 68.23 53.15 L 64.59 55.59 L 67.46 54.33 L 70.48 53.31 L 73.54 52.46 L 77.15 51.72 L 79.63 51.41 L 85.73 50.94 L 92.55 51.28 L 98.42 52.30 L 103.51 53.70 L 107.23 55.05 L 111.00 56.76 L 113.82 58.32 L 117.03 60.30 L 119.74 62.24 L 124.95 66.79 L 127.50 69.50 L 130.21 72.84 L 132.51 76.14 L 134.84 80.14 L 135.54 81.74 L 136.08 82.64 L 134.68 81.06 L 133.72 79.92 L 132.57 78.80 L 130.93 77.36 L 129.53 76.29 L 127.38 74.90 L 125.17 73.60 L 123.29 72.77 L 120.11 71.59 L 117.10 70.73 L 113.49 70.16 L 108.89 70.02 L 104.73 70.57 L 100.08 71.69 L 94.95 73.79 L 90.36 76.72 L 86.66 80.11 L 85.29 81.54 L 84.83 82.49 L 84.48 83.20 L 82.95 86.39 L 81.78 88.82 L 80.84 90.77 L 79.73 93.07 L 78.27 96.10 L 77.32 98.07 L 76.39 100.01 L 77.83 103.01 L 79.06 105.56 L 79.90 107.29 L 81.31 110.22 L 82.98 113.69 L 84.51 116.86 L 85.29 118.48 L 88.54 119.23 L 91.36 119.87 L 93.16 120.28 L 95.28 120.76 L 97.75 121.33 L 101.08 122.09 L 103.63 122.67 L 105.27 123.05 L 107.01 121.65 L 109.99 119.28 L 112.26 117.47 L 115.39 114.98 L 118.30 112.65 L 121.30 110.26 L 121.30 106.49 L 121.30 101.39 L 121.30 98.14 L 121.30 94.74 L 121.30 91.60 L 121.30 89.76 L 120.13 88.83 L 118.94 87.87 L 117.90 87.05 L 115.53 85.16 L 113.87 83.83 L 111.42 81.88 L 109.55 80.39 L 107.55 78.80 L 106.20 77.72 L 105.27 76.98 L 102.45 77.63 L 98.61 78.50 L 94.33 79.48 L 90.66 80.31 L 87.95 80.93 L 85.29 81.54 L 84.22 83.75 L 83.30 85.66 L 82.28 87.78 L 81.54 89.98 L 81.20 90.56 L 79.96 93.83 L 79.28 97.25 L 79.18 100.73 L 79.63 104.17 L 80.64 107.48 L 82.21 110.56 L 84.26 113.32 L 86.73 115.70 L 89.55 117.65 L 92.64 119.11 L 95.92 120.02 L 99.30 120.35 L 102.67 120.12 L 105.97 119.35 L 109.08 118.06 L 111.92 116.27 L 114.40 114.02 L 116.47 111.41 L 118.08 108.49 L 119.21 105.37 L 119.79 102.11 L 119.79 98.81 L 119.26 95.56 L 118.20 92.45 L 116.66 89.56 L 114.66 86.98 L 112.27 84.78 L 109.53 83.03 L 106.57 81.73 L 103.44 80.95 L 100.23 80.69 L 97.04 80.98 L 93.95 81.81 L 91.04 83.12 L 88.39 84.89 L 86.08 87.06 L 84.18 89.58 L 82.73 92.38 L 81.77 95.37 L 81.31 98.47 L 81.36 101.59 L 81.93 104.65 L 83.01 107.56 L 84.56 110.24 L 86.51 112.63 L 88.82 114.67 L 91.44 116.27 L 94.27 117.41 L 97.25 118.05 L 100.29 118.20 L 103.30 117.87 L 106.20 117.03 L 108.91 115.72 L 111.35 113.97 L 113.47 111.86 L 115.22 109.44 L 116.53 106.78 L 117.36 103.93 L 117.70 101.00 L 117.57 98.06 L 116.96 95.18 L 115.89 92.46 L 114.37 89.97 L 112.46 87.78 L 110.22 85.93 L 107.72 84.48 L 105.03 83.46 L 102.21 82.92 L 99.35 82.86 L 96.53 83.27 L 93.82 84.13 L 91.30 85.42 L 89.04 87.11 L 87.11 89.15 L 85.54 91.48 L 84.37 94.02 L 83.64 96.71 L 83.38 99.47 L 83.59 102.23 L 84.25 104.90 L 85.33 107.43 L 86.81 109.74 L 88.64 111.76 L 90.78 113.43 L 93.17 114.72 L 95.72 115.60 L 98.38 116.05 L 101.06 116.06 L 103.69 115.60 L 106.20 114.71 L 108.53 113.43 L 110.61 111.80 L 112.38 109.85 L 113.80 107.64 L 114.81 105.23 L 115.41 102.69 L 115.60 100.10 L 115.35 97.52 L 114.68 95.03 L 113.59 92.70 L 112.14 90.59 L 110.37 88.75 L 108.34 87.23 L 106.09 86.07 L 103.68 85.33 L 101.19 84.99 L 98.69 85.05 L 96.24 85.53 L 93.91 86.41 L 91.78 87.66 L 89.89 89.24 L 88.29 91.11 L 87.02 93.20 L 86.12 95.47 L 85.63 97.84 L 85.54 100.26 L 85.84 102.65 L 86.52 104.96 L 87.57 107.10 L 88.97 109.03 L 90.66 110.69 L 92.60 112.05 L 94.72 113.06 L 96.97 113.72 L 99.29 113.98 L 101.61 113.84 L 103.87 113.32 L 106.01 112.45 L 107.97 111.25 L 109.68 109.74 L 111.11 107.97 L 112.22 105.99 L 112.99 103.86 L 113.42 101.65 L 113.45 99.41 L 113.11 97.21 L 112.40 95.10 L 111.37 93.14 L 110.04 91.38 L 108.44 89.88 L 106.61 88.69 L 104.63 87.81 L 102.53 87.27 L 100.38 87.08 L 98.24 87.25 L 96.17 87.78 L 94.23 88.65 L 92.46 89.82 L 90.91 91.25 L 89.62 92.91 L 88.64 94.75 L 88.00 96.73 L 87.69 98.78 L 87.70 100.84 L 88.05 102.87 L 88.75 104.79 L 89.76 106.55 L 91.03 108.13 L 92.54 109.46 L 94.24 110.53 L 96.08 111.30 L 98.02 111.72 L 99.99 111.83 L 101.95 111.60 L 103.84 111.08 L 105.60 110.26 L 107.20 109.16 L 108.57 107.80 L 109.68 106.23 L 110.52 104.52 L 111.08 102.70 L 111.34 100.82 L 111.27 98.94 L 110.87 97.11 L 110.18 95.38 L 109.22 93.80 L 108.03 92.39 L 106.63 91.20 L 105.06 90.26 L 103.36 89.63 L 101.58 89.29 L 99.79 89.25 L 98.01 89.49 L 96.31 90.01 L 94.73 90.80 L 93.32 91.85 L 92.11 93.12 L 91.14 94.56 L 90.41 96.14 L 89.95 97.80 L 89.76 99.50 L 89.88 101.20 L 90.28 102.85 L 90.96 104.39 L 91.86 105.80 L 92.97 107.05 L 94.26 108.09 L 95.71 108.88 L 97.26 109.41 L 98.86 109.67 L 100.48 109.67 L 102.08 109.41 L 103.59 108.90 L 104.99 108.14 L 106.23 107.16 L 107.28 105.99 L 108.12 104.67 L 108.73 103.24 L 109.11 101.74 L 109.22 100.21 L 109.08 98.69 L 108.67 97.23 L 108.03 95.86 L 107.19 94.63 L 106.17 93.54 L 104.99 92.65 L 103.68 91.98 L 102.28 91.55 L 100.84 91.37 L 99.40 91.41 L 97.99 91.67 L 96.66 92.17 L 95.44 92.88 L 94.37 93.78 L 93.47 94.85 L 92.76 96.04 L 92.24 97.32 L 91.95 98.65 L 91.90 100.01 L 92.08 101.34 L 92.47 102.62 L 93.07 103.81 L 93.84 104.89 L 94.76 105.81 L 95.83 106.56 L 97.00 107.10 L 98.23 107.44 L 99.50 107.58 L 100.76 107.51 L 101.99 107.24 L 103.14 106.77 L 104.19 106.11 L 105.09 105.29 L 105.85 104.34 L 106.44 103.28 L 106.85 102.16 L 107.07 100.99 L 107.08 99.81 L 106.88 98.66 L 106.51 97.56 L 105.96 96.54 L 105.27 95.64 L 104.45 94.86 L 103.50 94.25 L 102.48 93.81 L 101.41 93.55 L 100.32 93.47 L 99.23 93.57 L 98.19 93.83 L 97.22 94.27 L 96.35 94.87 L 95.59 95.59 L 94.97 96.42 L 94.49 97.33 L 94.17 98.30 L 94.03 99.30 L 94.06 100.30 L 94.25 101.27 L 94.60 102.19 L 95.08 103.04 L 95.69 103.78 L 96.42 104.41 L 97.22 104.89 L 98.09 105.22 L 99.00 105.41 L 99.92 105.44 L 100.82 105.33 L 101.68 105.08 L 102.48 104.70 L 103.19 104.19 L 103.79 103.56 L 104.27 102.85 L 104.63 102.08 L 104.86 101.27 L 104.96 100.44 L 104.92 99.62 L 104.73 98.83 L 104.42 98.09 L 103.99 97.42 L 103.46 96.85 L 102.85 96.37 L 102.19 95.99 L 101.47 95.73 L 100.74 95.60 L 100.00 95.59 L 99.29 95.72 L 98.61 95.97 L 97.99 96.31 L 97.44 96.75 L 96.97 97.25 L 96.60 97.82 L 96.33 98.44 L 96.18 99.09 L 96.16 99.74 L 96.23 100.37 L 96.40 100.99 L 96.66 101.56 L 97.01 102.07 L 97.43 102.51 L 97.91 102.86 L 98.44 103.11 L 99.00 103.27 L 99.56 103.33 L 100.12 103.31 L 100.67 103.20 L 101.17 103.00 L 101.62 102.72 L 102.01 102.37 L 102.33 101.97 L 102.57 101.53 L 102.74 101.07 L 102.83 100.59 L 102.84 100.11 L 102.77 99.65 L 102.62 99.21 L 102.40 98.83 L 102.13 98.49 L 101.80 98.20 L 101.45 97.97 L 101.07 97.81 L 100.68 97.71 L 100.28 97.70 L 99.91 97.74 L 99.56 97.86 L 99.24 98.03 L 98.95 98.24 L 98.70 98.48 L 98.51 98.76 L 98.36 99.05 L 98.28 99.36 L 98.25 99.67 L 98.28 99.96 L 98.36 100.24 L 98.48 100.49 L 98.63 100.71 L 98.82 100.90 L 99.03 101.05 L 99.25 101.16 L 99.47 101.23 L 99.70 101.25 L 99.91 101.23 L 100.11 101.17 L 100.28 101.09 L 100.44 100.97 L 100.57 100.84 L 100.67 100.70 L 100.74 100.55 L 100.77 100.39 L 100.77 100.25 L 100.75 100.12 L 100.70 100.00 L 100.63 99.90 L 100.56 99.82 L 100.47 99.76 L 100.38 99.72 L 100.29 99.70 L 100.21 99.71 L 100.13 99.74 L 100.08 99.78 L 100.04 99.82 L 100.02 99.88 L 100.01 99.94 L 100.03 100.00 L 100.00 100.00" 
          fill="none" 
          stroke="currentColor" 
          stroke-width="0.5"/>
</svg>