<?xml version="1.0" encoding="UTF-8" standalone="no"?>
<svg width="100%" height="100%" viewBox="0 0 200 200" preserveAspectRatio="xMidYMid meet" xmlns="http://www.w3.org/2000/svg">
    <path d="M 100.00 100.00 L 100.00 100.00 L 99.97 100.05 L 99.93 100.09 L 99.86 100.12 L 99.79 100.13 L 99.73 100.12 L 99.65 100.09 L 99.59 100.03 L 99.52 99.96 L 99.48 99.87 L 99.45 99.77 L 99.44 99.65 L 99.45 99.53 L 99.49 99.45 L 99.49 99.40 L 99.57 99.28 L 99.67 99.17 L 99.79 99.07 L 99.94 98.98 L 100.11 98.93 L 100.29 98.90 L 100.39 98.90 L 100.48 98.90 L 100.68 98.94 L 100.88 99.02 L 101.07 99.14 L 101.25 99.30 L 101.35 99.42 L 101.40 99.48 L 101.53 99.70 L 101.62 99.94 L 101.67 100.20 L 101.67 100.47 L 101.67 100.47 L 101.62 100.76 L 101.52 101.04 L 101.38 101.31 L 101.25 101.49 L 101.20 101.57 L 100.96 101.79 L 100.69 101.98 L 100.38 102.13 L 100.34 102.13 L 100.04 102.21 L 99.68 102.25 L 99.31 102.22 L 99.24 102.20 L 98.93 102.13 L 98.57 101.99 L 98.23 101.78 L 98.21 101.76 L 97.92 101.52 L 97.65 101.20 L 97.49 100.92 L 97.43 100.83 L 97.28 100.42 L 97.19 99.98 L 97.19 99.84 L 97.17 99.52 L 97.22 99.06 L 97.31 98.74 L 97.35 98.60 L 97.55 98.16 L 97.84 97.76 L 97.84 97.75 L 98.19 97.40 L 98.60 97.09 L 98.70 97.04 L 99.06 96.84 L 99.57 96.67 L 99.75 96.64 L 100.10 96.58 L 100.65 96.59 L 100.86 96.63 L 101.21 96.68 L 101.75 96.86 L 101.93 96.96 L 102.26 97.14 L 102.73 97.49 L 102.84 97.61 L 103.15 97.92 L 103.49 98.42 L 103.53 98.49 L 103.76 98.98 L 103.92 99.54 L 103.93 99.58 L 104.00 100.22 L 103.99 100.66 L 103.98 100.86 L 103.85 101.51 L 103.76 101.76 L 103.61 102.13 L 103.28 102.71 L 103.25 102.76 L 102.84 103.24 L 102.47 103.57 L 102.32 103.70 L 101.72 104.08 L 101.52 104.16 L 101.07 104.36 L 100.46 104.51 L 100.37 104.54 L 99.64 104.60 L 99.34 104.58 L 98.90 104.54 L 98.24 104.37 L 98.17 104.36 L 97.48 104.06 L 97.22 103.90 L 96.82 103.65 L 96.32 103.23 L 96.23 103.15 L 95.72 102.54 L 95.62 102.36 L 95.32 101.85 L 95.13 101.35 L 95.03 101.10 L 94.87 100.30 L 94.87 100.26 L 94.83 99.47 L 94.86 99.14 L 94.91 98.64 L 95.07 98.04 L 95.13 97.82 L 95.48 97.04 L 95.51 97.01 L 95.97 96.33 L 96.18 96.11 L 96.58 95.70 L 97.01 95.35 L 97.28 95.15 L 97.97 94.77 L 98.06 94.72 L 98.91 94.42 L 99.03 94.40 L 99.80 94.24 L 100.14 94.24 L 100.73 94.23 L 101.25 94.31 L 101.65 94.37 L 102.34 94.59 L 102.55 94.65 L 103.36 95.06 L 103.40 95.08 L 104.18 95.63 L 104.27 95.72 L 104.87 96.31 L 105.04 96.54 L 105.45 97.10 L 105.65 97.48 L 105.89 97.99 L 106.07 98.52 L 106.20 98.94 L 106.30 99.61 L 106.34 99.94 L 106.34 100.74 L 106.34 100.95 L 106.19 101.85 L 106.17 101.96 L 105.85 102.92 L 105.83 102.95 L 105.33 103.87 L 105.31 103.90 L 104.69 104.71 L 104.61 104.78 L 103.92 105.44 L 103.78 105.54 L 103.04 106.06 L 102.83 106.15 L 102.06 106.52 L 101.80 106.59 L 101.00 106.82 L 100.71 106.85 L 99.90 106.95 L 99.59 106.94 L 98.79 106.90 L 98.48 106.83 L 97.69 106.69 L 97.39 106.57 L 96.63 106.29 L 96.35 106.13 L 95.64 105.72 L 95.41 105.53 L 94.75 104.99 L 94.57 104.79 L 93.97 104.13 L 93.85 103.93 L 93.33 103.14 L 93.26 102.97 L 92.86 102.06 L 92.82 101.94 L 92.56 100.91 L 92.55 100.85 L 92.45 99.72 L 92.45 99.72 L 92.53 98.60 L 92.54 98.51 L 92.78 97.51 L 92.81 97.32 L 93.17 96.45 L 93.28 96.18 L 93.71 95.47 L 93.92 95.13 L 94.39 94.58 L 94.73 94.18 L 95.19 93.79 L 95.69 93.38 L 96.09 93.13 L 96.78 92.72 L 97.08 92.60 L 97.96 92.24 L 98.13 92.20 L 99.21 91.95 L 99.22 91.95 L 100.35 91.87 L 100.50 91.86 L 101.47 91.96 L 101.80 91.99 L 102.56 92.19 L 103.07 92.33 L 103.62 92.57 L 104.28 92.86 L 104.62 93.08 L 105.40 93.58 L 105.55 93.71 L 106.38 94.46 L 106.40 94.48 L 107.09 95.34 L 107.25 95.53 L 107.67 96.29 L 107.91 96.72 L 108.14 97.32 L 108.39 98.01 L 108.47 98.39 L 108.66 99.36 L 108.67 99.49 L 108.72 100.62 L 108.73 100.75 L 108.60 101.73 L 108.55 102.13 L 108.35 102.83 L 108.15 103.49 L 107.96 103.88 L 107.54 104.77 L 107.46 104.89 L 106.82 105.81 L 106.73 105.95 L 106.07 106.64 L 105.74 106.99 L 105.23 107.39 L 104.60 107.87 L 104.31 108.02 L 103.31 108.55 L 103.31 108.55 L 102.25 108.91 L 101.92 109.02 L 101.15 109.15 L 100.46 109.27 L 100.04 109.28 L 98.98 109.29 L 98.91 109.28 L 97.80 109.12 L 97.50 109.08 L 96.72 108.82 L 96.07 108.62 L 95.68 108.41 L 94.72 107.93 L 94.68 107.90 L 93.77 107.24 L 93.49 107.02 L 92.94 106.48 L 92.41 105.94 L 92.19 105.65 L 91.53 104.73 L 91.50 104.69 L 91.02 103.74 L 90.80 103.31 L 90.61 102.69 L 90.34 101.82 L 90.31 101.61 L 90.16 100.49 L 90.12 100.26 L 90.14 99.37 L 90.15 98.68 L 90.22 98.25 L 90.42 97.15 L 90.42 97.11 L 90.77 96.08 L 90.94 95.60 L 91.23 95.06 L 91.70 94.18 L 91.79 94.08 L 92.47 93.19 L 92.69 92.90 L 93.25 92.38 L 93.88 91.79 L 94.09 91.64 L 95.02 91.01 L 95.24 90.86 L 96.02 90.49 L 96.73 90.16 L 97.06 90.07 L 98.14 89.75 L 98.32 89.71 L 99.25 89.60 L 99.97 89.52 L 100.37 89.53 L 101.49 89.59 L 101.65 89.59 L 102.60 89.79 L 103.30 89.93 L 103.68 90.07 L 104.74 90.46 L 104.89 90.52 L 105.72 91.00 L 106.37 91.37 L 106.67 91.61 L 107.54 92.31 L 107.70 92.44 L 108.31 93.13 L 108.85 93.73 L 109.01 94.00 L 109.63 94.95 L 109.78 95.19 L 110.11 95.96 L 110.48 96.79 L 110.53 97.00 L 110.82 98.08 L 110.92 98.48 L 111.00 99.19 L 111.09 100.24 L 111.08 100.31 L 111.00 101.43 L 110.96 102.00 L 110.84 102.54 L 110.58 103.64 L 110.55 103.74 L 110.17 104.68 L 109.88 105.40 L 109.70 105.70 L 109.12 106.67 L 108.95 106.94 L 108.43 107.55 L 107.78 108.32 L 107.69 108.40 L 106.84 109.13 L 106.39 109.50 L 105.92 109.78 L 104.96 110.36 L 104.83 110.44 L 103.93 110.80 L 103.12 111.13 L 102.87 111.18 L 101.78 111.44 L 101.32 111.54 L 100.67 111.59 L 99.54 111.67 L 99.47 111.68 L 98.42 111.58 L 97.61 111.51 L 97.31 111.43 L 96.22 111.15 L 95.79 111.04 L 95.17 110.77 L 94.17 110.27 L 93.21 109.66 L 92.33 108.98 L 91.51 108.21 L 90.77 107.36 L 90.11 106.45 L 89.54 105.48 L 89.07 104.46 L 88.69 103.40 L 88.42 102.31 L 88.25 101.20 L 88.19 100.08 L 88.24 98.96 L 88.39 97.84 L 88.65 96.75 L 89.01 95.68 L 89.47 94.66 L 90.02 93.68 L 90.67 92.76 L 91.40 91.91 L 92.21 91.13 L 93.09 90.43 L 94.03 89.81 L 95.02 89.29 L 96.06 88.87 L 97.14 88.54 L 98.24 88.32 L 99.36 88.21 L 100.48 88.20 L 101.60 88.30 L 102.71 88.51 L 103.79 88.82 L 104.83 89.23 L 105.84 89.74 L 106.79 90.34 L 107.67 91.03 L 108.49 91.80 L 109.23 92.64 L 109.89 93.55 L 110.46 94.52 L 110.93 95.54 L 111.31 96.60 L 111.58 97.69 L 111.75 98.80 L 111.81 99.92 L 111.76 101.05 L 111.61 102.16 L 111.35 103.25 L 110.99 104.32 L 110.53 105.34 L 109.97 106.32 L 109.33 107.24 L 108.60 108.09 L 107.79 108.87 L 106.91 109.57 L 105.97 110.19 L 104.97 110.71 L 103.93 111.13 L 102.86 111.46 L 101.75 111.68 L 100.64 111.79 L 99.51 111.80 L 98.39 111.70 L 97.29 111.49 L 96.21 111.19 L 95.88 111.08 L 95.16 110.78 L 94.16 110.27 L 93.21 109.67 L 92.31 108.99 L 91.49 108.22 L 90.76 107.37 L 90.10 106.45 L 89.53 105.48 L 89.07 104.46 L 88.69 103.40 L 88.43 102.31 L 88.27 101.20 L 88.22 100.07 L 88.27 98.95 L 88.44 97.84 L 88.47 97.65 L 88.64 96.73 L 88.87 95.63 L 89.10 94.53 L 89.35 93.43 L 89.62 92.34 L 89.90 91.25 L 90.19 90.17 L 90.51 89.09 L 90.84 88.02 L 91.18 86.94 L 91.54 85.88 L 91.91 84.81 L 92.30 83.76 L 92.71 82.71 L 93.12 81.66 L 93.56 80.63 L 94.01 79.60 L 94.47 78.57 L 94.95 77.55 L 95.44 76.54 L 95.94 75.54 L 96.46 74.54 L 97.00 73.55 L 97.54 72.57 L 98.11 71.60 L 98.68 70.63 L 99.27 69.67 L 99.87 68.72 L 100.49 67.77 L 101.12 66.84 L 101.76 65.93 L 102.42 65.01 L 102.48 64.92 L 103.39 65.39 L 104.39 65.91 L 105.38 66.44 L 106.36 66.98 L 107.34 67.54 L 108.31 68.11 L 109.27 68.69 L 110.23 69.28 L 111.18 69.89 L 112.12 70.50 L 113.05 71.13 L 113.97 71.77 L 114.89 72.42 L 115.80 73.08 L 116.70 73.75 L 117.60 74.44 L 118.48 75.14 L 119.35 75.84 L 120.22 76.56 L 121.08 77.29 L 121.92 78.03 L 122.76 78.78 L 123.59 79.54 L 124.41 80.30 L 125.22 81.08 L 126.02 81.87 L 126.81 82.67 L 127.59 83.49 L 127.64 83.53 L 127.08 82.63 L 126.46 81.69 L 125.80 80.78 L 125.11 79.89 L 124.40 79.02 L 123.65 78.18 L 122.87 77.37 L 122.07 76.58 L 121.23 75.83 L 120.38 75.10 L 119.49 74.40 L 118.59 73.74 L 117.66 73.10 L 116.71 72.50 L 115.74 71.94 L 114.75 71.40 L 113.74 70.91 L 112.71 70.44 L 111.67 70.02 L 110.62 69.63 L 110.10 69.45 L 109.76 69.92 L 109.54 70.21 L 110.17 70.63 L 111.11 71.25 L 112.04 71.89 L 112.96 72.53 L 113.88 73.18 L 114.78 73.85 L 115.68 74.52 L 116.57 75.21 L 117.45 75.91 L 118.33 76.62 L 119.19 77.33 L 120.05 78.06 L 120.90 78.80 L 121.74 79.54 L 122.57 80.30 L 123.40 81.07 L 124.21 81.85 L 125.02 82.63 L 125.81 83.42 L 126.60 84.23 L 127.37 85.04 L 128.14 85.86 L 128.90 86.69 L 129.64 87.54 L 130.38 88.38 L 131.11 89.24 L 131.83 90.10 L 131.97 90.27 L 131.69 89.40 L 131.32 88.34 L 130.90 87.29 L 130.46 86.26 L 129.98 85.24 L 129.47 84.24 L 128.92 83.26 L 128.34 82.29 L 127.73 81.35 L 127.08 80.43 L 126.41 79.53 L 125.71 78.65 L 124.97 77.80 L 124.21 76.97 L 123.42 76.17 L 122.61 75.39 L 121.77 74.64 L 120.90 73.93 L 120.01 73.24 L 119.10 72.58 L 118.17 71.95 L 117.21 71.36 L 116.24 70.79 L 115.25 70.26 L 114.24 69.77 L 113.21 69.31 L 112.17 68.88 L 111.12 68.49 L 110.05 68.13 L 109.65 68.01 L 109.22 68.57 L 108.55 69.47 L 107.89 70.39 L 107.77 70.55 L 108.54 71.05 L 109.49 71.66 L 110.42 72.28 L 111.35 72.92 L 112.27 73.56 L 113.19 74.21 L 114.09 74.88 L 114.99 75.56 L 115.88 76.24 L 116.76 76.94 L 117.63 77.65 L 118.50 78.37 L 119.36 79.10 L 120.21 79.84 L 121.04 80.59 L 121.88 81.34 L 122.70 82.11 L 123.51 82.89 L 124.31 83.67 L 125.11 84.47 L 125.89 85.28 L 126.66 86.10 L 127.42 86.92 L 128.18 87.75 L 128.93 88.60 L 129.66 89.45 L 130.39 90.31 L 131.11 91.17 L 131.81 92.05 L 132.51 92.93 L 133.19 93.83 L 133.86 94.73 L 134.34 95.38 L 134.30 95.07 L 134.12 93.96 L 133.91 92.86 L 133.66 91.76 L 133.37 90.68 L 133.05 89.60 L 132.70 88.53 L 132.31 87.48 L 131.88 86.44 L 131.43 85.41 L 130.94 84.39 L 130.41 83.40 L 129.86 82.42 L 129.27 81.46 L 128.66 80.52 L 128.01 79.60 L 127.33 78.70 L 126.63 77.83 L 125.89 76.97 L 125.13 76.15 L 124.35 75.34 L 123.53 74.57 L 122.70 73.82 L 121.83 73.09 L 120.95 72.40 L 120.04 71.73 L 119.11 71.10 L 118.17 70.49 L 117.20 69.92 L 116.21 69.38 L 115.21 68.87 L 114.19 68.39 L 113.16 67.95 L 112.11 67.54 L 111.05 67.16 L 109.98 66.82 L 109.18 66.59 L 109.00 66.82 L 108.31 67.72 L 107.64 68.62 L 106.98 69.52 L 106.34 70.45 L 106.01 70.92 L 106.48 71.21 L 107.43 71.80 L 108.38 72.41 L 109.32 73.03 L 110.25 73.65 L 111.18 74.30 L 112.09 74.95 L 113.00 75.61 L 113.90 76.29 L 114.80 76.96 L 115.68 77.67 L 116.56 78.37 L 117.43 79.08 L 118.29 79.81 L 119.13 80.54 L 119.97 81.29 L 120.81 82.04 L 121.63 82.81 L 122.45 83.58 L 123.25 84.37 L 124.05 85.16 L 124.83 85.97 L 125.61 86.78 L 126.37 87.60 L 127.13 88.44 L 127.88 89.28 L 128.62 90.13 L 129.35 90.99 L 130.06 91.85 L 130.77 92.73 L 131.46 93.61 L 132.15 94.50 L 132.82 95.40 L 133.48 96.31 L 134.14 97.23 L 134.78 98.15 L 135.41 99.08 L 135.89 99.81 L 135.89 99.55 L 135.86 98.42 L 135.79 97.30 L 135.68 96.18 L 135.54 95.07 L 135.37 93.95 L 135.16 92.85 L 134.92 91.75 L 134.65 90.66 L 134.35 89.58 L 133.99 88.51 L 133.62 87.45 L 133.21 86.40 L 132.77 85.36 L 132.29 84.35 L 131.78 83.34 L 131.25 82.35 L 130.69 81.38 L 130.09 80.43 L 129.46 79.50 L 128.80 78.59 L 128.12 77.69 L 127.40 76.82 L 126.66 75.97 L 125.89 75.16 L 125.11 74.35 L 124.29 73.58 L 123.45 72.83 L 122.58 72.12 L 121.70 71.42 L 120.80 70.75 L 119.87 70.11 L 118.92 69.50 L 117.96 68.92 L 116.98 68.38 L 115.98 67.86 L 114.96 67.38 L 113.93 66.92 L 112.89 66.50 L 111.83 66.11 L 110.77 65.76 L 109.69 65.44 L 108.72 65.18 L 108.64 65.28 L 107.94 66.16 L 107.26 67.06 L 106.59 67.96 L 105.93 68.87 L 105.28 69.80 L 104.65 70.72 L 104.26 71.33 L 104.62 71.53 L 105.58 72.11 L 106.54 72.70 L 107.48 73.31 L 108.43 73.92 L 109.36 74.55 L 110.29 75.19 L 111.20 75.84 L 112.12 76.50 L 113.02 77.17 L 113.91 77.85 L 114.80 78.54 L 115.68 79.24 L 116.55 79.96 L 117.41 80.68 L 118.25 81.42 L 119.10 82.16 L 119.93 82.92 L 120.76 83.68 L 121.57 84.46 L 122.38 85.25 L 123.17 86.04 L 123.96 86.84 L 124.74 87.66 L 125.50 88.48 L 126.26 89.31 L 127.01 90.15 L 127.74 91.00 L 128.47 91.86 L 129.18 92.73 L 129.89 93.61 L 130.58 94.49 L 131.26 95.39 L 131.93 96.29 L 132.59 97.20 L 133.25 98.12 L 133.89 99.04 L 134.51 99.97 L 135.13 100.91 L 135.74 101.86 L 136.33 102.82 L 136.91 103.78 L 136.93 103.81 L 137.03 102.72 L 137.09 101.60 L 137.12 100.47 L 137.12 99.35 L 137.08 98.22 L 137.01 97.10 L 136.91 95.98 L 136.77 94.87 L 136.60 93.75 L 136.39 92.65 L 136.15 91.55 L 135.88 90.46 L 135.57 89.38 L 135.24 88.31 L 134.86 87.24 L 134.46 86.19 L 134.03 85.16 L 133.56 84.13 L 133.07 83.12 L 132.54 82.13 L 131.98 81.15 L 131.40 80.19 L 130.78 79.25 L 130.14 78.33 L 129.47 77.43 L 128.78 76.54 L 128.05 75.68 L 127.30 74.84 L 126.53 74.03 L 125.73 73.24 L 124.91 72.47 L 124.06 71.73 L 123.19 71.01 L 122.30 70.32 L 121.39 69.66 L 120.47 69.03 L 119.52 68.42 L 118.55 67.84 L 117.57 67.30 L 116.57 66.78 L 115.56 66.29 L 114.53 65.84 L 113.49 65.41 L 112.44 65.02 L 111.37 64.66 L 110.29 64.33 L 109.21 64.04 L 108.25 63.80 L 108.16 63.91 L 107.46 64.79 L 106.76 65.67 L 106.08 66.56 L 105.41 67.47 L 104.76 68.39 L 104.12 69.31 L 103.49 70.24 L 102.88 71.19 L 102.53 71.74 L 102.93 71.97 L 103.90 72.55 L 104.86 73.12 L 105.82 73.72 L 106.77 74.32 L 107.71 74.93 L 108.65 75.56 L 109.57 76.19 L 110.49 76.85 L 111.40 77.51 L 112.30 78.18 L 113.20 78.86 L 114.08 79.55 L 114.96 80.26 L 115.83 80.97 L 116.69 81.70 L 117.54 82.43 L 118.38 83.18 L 119.21 83.94 L 120.04 84.70 L 120.85 85.48 L 121.65 86.26 L 122.44 87.06 L 123.23 87.87 L 124.00 88.69 L 124.77 89.51 L 125.52 90.34 L 126.26 91.19 L 126.99 92.04 L 127.72 92.90 L 128.43 93.77 L 129.13 94.65 L 129.83 95.54 L 130.50 96.44 L 131.17 97.34 L 131.83 98.25 L 132.48 99.17 L 133.11 100.10 L 133.73 101.03 L 134.35 101.98 L 134.95 102.93 L 135.54 103.89 L 136.11 104.86 L 136.67 105.81 L 136.67 105.79 L 136.83 104.68 L 136.95 103.56 L 137.04 102.44 L 137.09 101.32 L 137.12 100.19 L 137.10 99.07 L 137.06 97.94 L 136.97 96.82 L 136.86 95.70 L 136.71 94.59 L 136.53 93.48 L 136.32 92.38 L 136.07 91.28 L 135.78 90.19 L 135.46 89.11 L 135.12 88.04 L 134.74 86.98 L 134.33 85.94 L 133.89 84.90 L 133.41 83.88 L 132.90 82.88 L 132.37 81.89 L 131.80 80.92 L 131.21 79.96 L 130.59 79.03 L 129.94 78.11 L 129.26 77.21 L 128.56 76.33 L 127.82 75.49 L 127.06 74.65 L 126.28 73.84 L 125.48 73.06 L 124.65 72.30 L 123.80 71.56 L 122.92 70.85 L 122.03 70.17 L 121.12 69.52 L 120.18 68.89 L 119.23 68.30 L 118.26 67.73 L 117.27 67.19 L 116.27 66.68 L 115.25 66.20 L 114.22 65.75 L 113.17 65.34 L 112.12 64.96 L 111.05 64.60 L 109.97 64.28 L 108.88 64.00 L 108.26 63.85 L 107.96 64.25 L 107.27 65.13 L 106.57 66.02 L 106.01 66.73 L 105.82 66.63 L 104.84 66.09 L 104.82 66.09 L 105.50 65.21 L 106.20 64.33 L 106.92 63.46 L 107.64 62.60 L 108.38 61.76 L 109.13 60.91 L 109.88 60.08 L 110.66 59.27 L 111.44 58.45 L 112.23 57.66 L 113.04 56.87 L 113.85 56.10 L 114.68 55.33 L 115.51 54.58 L 116.36 53.83 L 117.21 53.11 L 118.08 52.39 L 118.56 51.99 L 118.46 51.92 L 118.16 52.16 L 117.30 52.87 L 116.43 53.59 L 115.59 54.33 L 114.75 55.08 L 113.92 55.85 L 113.11 56.61 L 112.30 57.40 L 111.50 58.20 L 110.72 59.01 L 109.95 59.82 L 109.20 60.66 L 108.45 61.50 L 107.72 62.35 L 107.00 63.21 L 106.29 64.09 L 105.59 64.97 L 104.91 65.86 L 104.24 66.77 L 103.59 67.68 L 102.94 68.61 L 102.32 69.54 L 101.70 70.48 L 101.10 71.43 L 100.51 72.39 L 99.94 73.36 L 99.38 74.33 L 98.83 75.31 L 98.30 76.31 L 97.79 77.31 L 97.29 78.32 L 96.80 79.33 L 96.33 80.35 L 95.87 81.37 L 95.43 82.41 L 95.00 83.45 L 94.90 83.72 L 95.63 84.13 L 96.60 84.69 L 96.70 84.76 L 95.73 85.00 L 94.66 85.34 L 93.61 85.76 L 92.66 86.22 L 92.68 86.16 L 93.05 85.10 L 93.44 84.04 L 93.85 83.00 L 94.27 81.95 L 94.70 80.91 L 95.15 79.88 L 95.62 78.86 L 96.10 77.85 L 96.59 76.84 L 97.10 75.84 L 97.63 74.84 L 98.17 73.85 L 98.72 72.87 L 99.29 71.90 L 99.87 70.94 L 100.46 69.98 L 101.07 69.04 L 101.69 68.10 L 102.33 67.17 L 102.98 66.25 L 103.64 65.34 L 104.31 64.45 L 105.00 63.56 L 105.70 62.68 L 106.42 61.81 L 107.14 60.95 L 107.88 60.10 L 108.63 59.26 L 109.40 58.44 L 110.17 57.63 L 110.96 56.82 L 111.76 56.03 L 112.57 55.25 L 113.39 54.48 L 114.22 53.73 L 115.07 52.98 L 115.92 52.25 L 116.78 51.53 L 116.79 51.52 L 115.73 51.17 L 114.65 50.84 L 113.57 50.53 L 112.48 50.24 L 111.39 49.98 L 110.29 49.74 L 109.19 49.53 L 108.08 49.34 L 106.96 49.17 L 105.85 49.03 L 104.73 48.92 L 103.61 48.83 L 102.49 48.76 L 101.36 48.72 L 100.24 48.70 L 99.12 48.71 L 97.99 48.74 L 96.87 48.80 L 95.75 48.88 L 94.63 48.98 L 93.51 49.11 L 92.39 49.27 L 91.28 49.45 L 90.18 49.65 L 89.08 49.88 L 87.98 50.13 L 86.89 50.40 L 85.81 50.70 L 84.73 51.03 L 83.66 51.37 L 82.60 51.74 L 81.54 52.14 L 80.50 52.55 L 79.47 52.99 L 78.44 53.45 L 77.42 53.94 L 76.42 54.44 L 75.43 54.97 L 74.45 55.52 L 73.47 56.09 L 72.52 56.68 L 71.58 57.29 L 70.65 57.93 L 69.73 58.58 L 68.83 59.26 L 67.95 59.95 L 67.08 60.66 L 66.22 61.39 L 65.38 62.14 L 64.56 62.91 L 63.76 63.69 L 62.97 64.50 L 62.20 65.32 L 61.45 66.16 L 60.72 67.01 L 60.00 67.88 L 59.31 68.76 L 58.63 69.66 L 57.98 70.58 L 57.34 71.50 L 56.73 72.44 L 56.13 73.40 L 55.56 74.37 L 55.01 75.35 L 54.48 76.34 L 53.97 77.34 L 53.49 78.36 L 53.02 79.38 L 52.58 80.42 L 52.17 81.46 L 51.77 82.52 L 51.40 83.58 L 51.05 84.65 L 50.73 85.72 L 50.43 86.80 L 50.15 87.90 L 49.89 88.99 L 49.67 90.09 L 49.46 91.20 L 49.28 92.31 L 49.12 93.42 L 48.99 94.54 L 48.88 95.66 L 48.80 96.78 L 48.74 97.90 L 48.71 99.03 L 48.70 100.15 L 48.72 101.27 L 48.76 102.40 L 48.82 103.52 L 48.91 104.64 L 49.02 105.76 L 49.16 106.88 L 49.33 107.99 L 49.38 108.30 L 50.14 108.59 L 51.19 108.97 L 52.26 109.34 L 53.32 109.70 L 54.40 110.03 L 55.48 110.36 L 56.56 110.66 L 57.65 110.96 L 58.73 111.23 L 59.82 111.49 L 60.93 111.73 L 62.02 111.96 L 63.13 112.17 L 64.23 112.37 L 65.35 112.55 L 66.46 112.71 L 67.57 112.86 L 68.13 112.92 L 68.16 112.65 L 68.16 112.28 L 68.15 111.15 L 68.14 110.03 L 68.16 108.91 L 68.19 107.78 L 68.23 106.66 L 68.29 105.54 L 68.36 104.41 L 68.44 103.29 L 68.53 102.17 L 68.64 101.05 L 68.76 99.93 L 68.90 98.82 L 69.04 97.70 L 69.21 96.59 L 69.38 95.48 L 69.57 94.37 L 69.77 93.26 L 69.98 92.16 L 70.22 91.06 L 70.46 89.96 L 70.71 88.86 L 70.98 87.77 L 71.26 86.68 L 71.55 85.60 L 71.86 84.52 L 71.92 84.30 L 71.49 85.09 L 70.98 86.10 L 70.52 87.12 L 70.08 88.16 L 69.69 89.21 L 69.33 90.28 L 69.01 91.35 L 68.72 92.44 L 68.48 93.54 L 68.27 94.65 L 68.11 95.76 L 67.98 96.88 L 67.89 97.99 L 67.84 99.12 L 67.83 100.24 L 67.85 101.37 L 67.92 102.49 L 68.03 103.61 L 68.17 104.73 L 68.36 105.83 L 68.49 106.53 L 68.91 106.58 L 69.44 106.63 L 69.47 106.03 L 69.53 104.91 L 69.62 103.79 L 69.72 102.67 L 69.83 101.55 L 69.94 100.43 L 70.08 99.32 L 70.23 98.20 L 70.39 97.09 L 70.56 95.98 L 70.75 94.87 L 70.94 93.76 L 71.16 92.66 L 71.39 91.56 L 71.62 90.46 L 71.87 89.36 L 72.14 88.27 L 72.41 87.18 L 72.70 86.09 L 73.00 85.01 L 73.32 83.93 L 73.64 82.85 L 73.98 81.77 L 74.33 80.71 L 74.70 79.65 L 75.07 78.59 L 75.46 77.53 L 75.59 77.19 L 75.08 77.74 L 74.35 78.59 L 73.64 79.47 L 72.96 80.36 L 72.32 81.28 L 71.70 82.23 L 71.12 83.19 L 70.57 84.17 L 70.05 85.17 L 69.57 86.19 L 69.13 87.22 L 68.71 88.26 L 68.34 89.33 L 68.00 90.40 L 67.69 91.48 L 67.42 92.57 L 67.19 93.67 L 66.99 94.78 L 66.85 95.89 L 66.72 97.01 L 66.64 98.13 L 66.59 99.26 L 66.59 100.38 L 66.63 101.50 L 66.70 102.63 L 66.79 103.75 L 66.95 104.86 L 67.13 105.97 L 67.34 107.08 L 67.48 107.64 L 68.01 107.71 L 69.13 107.84 L 70.25 107.96 L 70.61 108.00 L 70.65 107.24 L 70.70 106.12 L 70.77 104.99 L 70.85 103.87 L 70.95 102.75 L 71.06 101.63 L 71.18 100.51 L 71.31 99.40 L 71.47 98.28 L 71.63 97.17 L 71.80 96.06 L 71.98 94.95 L 72.19 93.84 L 72.40 92.74 L 72.63 91.64 L 72.87 90.54 L 73.13 89.44 L 73.39 88.35 L 73.67 87.26 L 73.96 86.17 L 74.26 85.09 L 74.58 84.01 L 74.91 82.94 L 75.25 81.87 L 75.61 80.80 L 75.98 79.74 L 76.35 78.68 L 76.74 77.62 L 77.15 76.57 L 77.57 75.53 L 78.00 74.49 L 78.44 73.45 L 78.83 72.57 L 78.71 72.66 L 77.84 73.37 L 76.98 74.10 L 76.15 74.86 L 75.35 75.65 L 74.57 76.46 L 73.82 77.30 L 73.10 78.16 L 72.41 79.04 L 71.74 79.95 L 71.10 80.88 L 70.50 81.83 L 69.92 82.79 L 69.38 83.78 L 68.87 84.78 L 68.39 85.80 L 67.95 86.83 L 67.54 87.88 L 67.16 88.94 L 66.82 90.01 L 66.52 91.09 L 66.24 92.18 L 66.01 93.28 L 65.81 94.39 L 65.64 95.50 L 65.52 96.62 L 65.42 97.74 L 65.37 98.86 L 65.35 99.99 L 65.37 101.11 L 65.42 102.23 L 65.51 103.35 L 65.64 104.47 L 65.80 105.59 L 66.00 106.69 L 66.24 107.79 L 66.47 108.75 L 66.61 108.77 L 67.72 108.92 L 68.84 109.06 L 69.96 109.18 L 71.08 109.28 L 71.81 109.33 L 71.82 108.95 L 71.86 107.82 L 71.91 106.70 L 71.97 105.57 L 72.05 104.45 L 72.14 103.33 L 72.24 102.21 L 72.36 101.09 L 72.49 99.98 L 72.64 98.86 L 72.79 97.75 L 72.97 96.64 L 73.15 95.53 L 73.34 94.42 L 73.55 93.32 L 73.77 92.21 L 74.01 91.11 L 74.26 90.02 L 74.52 88.92 L 74.79 87.83 L 75.08 86.74 L 75.39 85.66 L 75.71 84.58 L 76.03 83.51 L 76.37 82.43 L 76.72 81.37 L 77.09 80.30 L 77.47 79.24 L 77.85 78.19 L 78.26 77.14 L 78.68 76.10 L 79.10 75.05 L 79.55 74.02 L 80.00 72.99 L 80.46 71.96 L 80.94 70.95 L 81.43 69.94 L 81.89 69.02 L 81.80 69.06 L 80.84 69.65 L 79.90 70.27 L 78.98 70.92 L 78.08 71.59 L 77.20 72.28 L 76.34 73.02 L 75.50 73.77 L 74.70 74.55 L 73.91 75.35 L 73.16 76.19 L 72.42 77.04 L 71.72 77.92 L 71.03 78.81 L 70.39 79.73 L 69.77 80.67 L 69.17 81.62 L 68.62 82.60 L 68.08 83.59 L 67.58 84.60 L 67.12 85.62 L 66.68 86.65 L 66.29 87.71 L 65.91 88.77 L 65.58 89.84 L 65.27 90.93 L 65.01 92.02 L 64.77 93.12 L 64.58 94.23 L 64.41 95.34 L 64.29 96.46 L 64.19 97.58 L 64.13 98.70 L 64.12 99.83 L 64.13 100.95 L 64.17 102.07 L 64.25 103.20 L 64.37 104.31 L 64.52 105.43 L 64.71 106.54 L 64.93 107.64 L 65.20 108.73 L 65.48 109.82 L 65.49 109.85 L 66.57 110.02 L 67.68 110.16 L 68.80 110.30 L 69.92 110.42 L 71.04 110.51 L 72.16 110.60 L 73.04 110.65 L 73.04 110.39 L 73.06 109.27 L 73.09 108.15 L 73.14 107.02 L 73.19 105.90 L 73.27 104.78 L 73.36 103.66 L 73.45 102.54 L 73.57 101.42 L 73.69 100.30 L 73.84 99.18 L 74.00 98.07 L 74.16 96.96 L 74.34 95.85 L 74.54 94.74 L 74.75 93.64 L 74.97 92.53 L 75.20 91.43 L 75.45 90.34 L 75.72 89.24 L 75.99 88.15 L 76.28 87.06 L 76.59 85.99 L 76.90 84.91 L 77.22 83.83 L 77.57 82.76 L 77.92 81.69 L 78.28 80.62 L 78.67 79.57 L 79.06 78.51 L 79.46 77.46 L 79.88 76.42 L 80.31 75.38 L 80.75 74.34 L 81.21 73.32 L 81.67 72.29 L 82.16 71.28 L 82.65 70.27 L 83.15 69.26 L 83.67 68.26 L 84.20 67.27 L 84.74 66.28 L 84.83 66.11 L 83.99 66.51 L 82.98 67.01 L 81.99 67.54 L 81.01 68.10 L 80.06 68.69 L 79.12 69.31 L 78.20 69.95 L 77.30 70.63 L 76.42 71.33 L 75.56 72.06 L 74.73 72.81 L 73.91 73.58 L 73.13 74.39 L 72.36 75.21 L 71.62 76.06 L 70.91 76.93 L 70.23 77.82 L 69.57 78.74 L 68.94 79.67 L 68.34 80.62 L 67.76 81.59 L 67.22 82.57 L 66.71 83.57 L 66.22 84.59 L 65.77 85.62 L 65.35 86.66 L 64.97 87.72 L 64.61 88.78 L 64.29 89.86 L 64.00 90.95 L 63.74 92.04 L 63.51 93.14 L 63.32 94.25 L 63.17 95.37 L 63.04 96.48 L 62.95 97.60 L 62.90 98.73 L 62.88 99.85 L 62.89 100.97 L 62.93 102.10 L 63.01 103.22 L 63.13 104.34 L 63.28 105.45 L 63.46 106.56 L 63.68 107.67 L 63.92 108.76 L 64.21 109.85 L 64.52 110.93 L 64.53 110.95 L 65.62 111.12 L 66.74 111.29 L 67.84 111.43 L 68.96 111.56 L 70.08 111.67 L 71.21 111.77 L 72.32 111.85 L 73.45 111.91 L 74.27 111.94 L 74.27 111.64 L 74.27 110.51 L 74.29 109.39 L 74.32 108.26 L 74.37 107.14 L 74.43 106.02 L 74.50 104.89 L 74.58 103.77 L 74.69 102.65 L 74.80 101.53 L 74.93 100.41 L 75.07 99.30 L 75.23 98.19 L 75.40 97.07 L 75.58 95.96 L 75.78 94.86 L 75.99 93.75 L 76.22 92.65 L 76.45 91.55 L 76.70 90.45 L 76.97 89.36 L 77.24 88.27 L 77.53 87.19 L 77.83 86.10 L 78.15 85.02 L 78.48 83.95 L 78.83 82.88 L 79.19 81.81 L 79.56 80.75 L 79.94 79.69 L 80.33 78.64 L 80.74 77.59 L 81.16 76.55 L 81.60 75.51 L 82.04 74.48 L 82.50 73.45 L 82.98 72.43 L 83.46 71.42 L 83.96 70.41 L 84.47 69.41 L 84.99 68.41 L 85.52 67.42 L 86.07 66.43 L 86.63 65.46 L 86.70 65.34 L 85.78 65.70 L 84.75 66.15 L 83.74 66.64 L 82.73 67.14 L 81.75 67.68 L 80.78 68.25 L 79.83 68.85 L 78.89 69.48 L 77.98 70.13 L 77.08 70.81 L 76.21 71.52 L 75.36 72.26 L 74.54 73.02 L 73.73 73.81 L 72.95 74.61 L 72.19 75.45 L 71.46 76.30 L 70.75 77.18 L 70.08 78.07 L 69.43 78.99 L 68.81 79.93 L 68.21 80.89 L 67.65 81.86 L 67.12 82.85 L 66.61 83.85 L 66.14 84.87 L 65.69 85.91 L 65.28 86.95 L 64.90 88.01 L 64.55 89.08 L 64.24 90.16 L 63.96 91.25 L 63.71 92.35 L 63.49 93.45 L 63.31 94.56 L 63.16 95.68 L 63.05 96.79 L 62.97 97.92 L 62.92 99.04 L 62.91 100.16 L 62.93 101.29 L 62.99 102.41 L 63.08 103.53 L 63.20 104.65 L 63.36 105.76 L 63.55 106.87 L 63.78 107.98 L 64.04 109.07 L 64.32 110.16 L 64.64 111.23 L 64.65 111.27 L 65.73 111.41 L 66.85 111.57 L 67.73 111.69 L 67.74 111.93 L 67.74 112.60 L 68.41 112.96 L 68.64 112.98 L 69.76 113.10 L 70.88 113.19 L 72.00 113.28 L 73.12 113.34 L 74.25 113.39 L 75.37 113.42 L 76.50 113.44 L 77.62 113.43 L 78.74 113.42 L 79.87 113.38 L 81.00 113.33 L 82.11 113.26 L 83.24 113.18 L 84.36 113.07 L 85.47 112.96 L 86.60 112.82 L 87.71 112.67 L 88.45 112.56 L 88.44 112.19 L 88.44 111.07 L 88.45 110.48 L 88.81 110.87 L 89.62 111.65 L 90.49 112.37 L 91.40 113.03 L 91.74 113.25 L 91.03 113.38 L 89.92 113.58 L 88.82 113.76 L 87.70 113.92 L 86.59 114.07 L 85.47 114.21 L 84.35 114.32 L 83.23 114.42 L 82.11 114.50 L 80.99 114.57 L 79.86 114.62 L 78.74 114.65 L 77.61 114.67 L 76.49 114.67 L 75.37 114.66 L 74.24 114.63 L 73.12 114.58 L 71.99 114.52 L 70.87 114.44 L 69.76 114.34 L 68.63 114.23 L 67.51 114.10 L 66.40 113.95 L 65.29 113.79 L 64.18 113.62 L 63.07 113.42 L 61.96 113.21 L 60.86 112.99 L 59.77 112.75 L 58.67 112.49 L 57.58 112.22 L 56.49 111.93 L 55.41 111.62 L 54.34 111.30 L 53.26 110.96 L 52.19 110.61 L 51.13 110.25 L 50.07 109.86 L 49.63 109.70 L 49.75 110.33 L 49.99 111.44 L 50.25 112.53 L 50.54 113.62 L 50.85 114.70 L 51.19 115.77 L 51.54 116.84 L 51.92 117.90 L 52.33 118.94 L 52.75 119.98 L 53.20 121.02 L 53.67 122.04 L 54.17 123.05 L 54.68 124.05 L 55.22 125.04 L 55.78 126.01 L 56.36 126.97 L 56.96 127.92 L 57.59 128.86 L 58.23 129.78 L 58.89 130.69 L 59.58 131.58 L 60.28 132.46 L 61.00 133.33 L 61.74 134.17 L 62.50 135.00 L 63.27 135.82 L 64.07 136.61 L 64.88 137.39 L 65.71 138.15 L 66.55 138.90 L 67.41 139.62 L 68.29 140.33 L 69.18 141.01 L 70.09 141.68 L 71.01 142.32 L 71.94 142.95 L 72.89 143.55 L 73.85 144.14 L 74.82 144.70 L 75.81 145.24 L 76.81 145.76 L 77.82 146.26 L 78.84 146.73 L 79.86 147.18 L 80.91 147.61 L 81.95 148.02 L 83.01 148.40 L 84.07 148.77 L 85.15 149.10 L 86.23 149.42 L 87.32 149.71 L 88.41 149.97 L 89.50 150.21 L 90.61 150.43 L 91.72 150.63 L 92.83 150.80 L 93.94 150.94 L 95.06 151.06 L 96.18 151.16 L 97.31 151.23 L 98.43 151.28 L 99.55 151.30 L 100.68 151.30 L 101.80 151.27 L 102.92 151.22 L 104.05 151.14 L 105.16 151.04 L 106.29 150.91 L 107.40 150.76 L 108.51 150.59 L 109.62 150.39 L 110.72 150.17 L 111.82 149.92 L 112.91 149.65 L 113.99 149.36 L 115.07 149.04 L 116.14 148.69 L 117.21 148.33 L 118.26 147.94 L 119.31 147.53 L 120.35 147.09 L 121.37 146.64 L 122.39 146.16 L 123.39 145.65 L 124.39 145.13 L 125.38 144.58 L 126.35 144.02 L 127.30 143.43 L 128.25 142.82 L 129.18 142.19 L 130.10 141.54 L 131.00 140.87 L 131.89 140.18 L 132.48 139.71 L 132.42 139.35 L 132.24 138.23 L 132.04 137.13 L 131.82 136.03 L 131.59 134.92 L 131.34 133.83 L 131.07 132.74 L 130.79 131.65 L 130.49 130.57 L 130.17 129.48 L 129.84 128.41 L 129.50 127.34 L 129.13 126.27 L 128.75 125.21 L 128.36 124.16 L 127.95 123.11 L 127.52 122.07 L 127.25 121.42 L 126.97 121.26 L 126.00 121.84 L 125.03 122.40 L 124.05 122.94 L 123.05 123.48 L 122.06 124.01 L 121.06 124.52 L 120.05 125.02 L 119.04 125.51 L 118.02 125.99 L 117.00 126.46 L 115.97 126.91 L 114.94 127.35 L 113.90 127.79 L 112.86 128.20 L 111.81 128.61 L 110.76 129.01 L 109.70 129.39 L 108.64 129.76 L 107.57 130.12 L 106.50 130.46 L 105.43 130.80 L 104.35 131.12 L 103.27 131.43 L 102.18 131.72 L 101.09 132.01 L 100.45 132.17 L 100.90 132.16 L 102.02 132.11 L 103.14 132.02 L 104.26 131.89 L 105.37 131.72 L 106.48 131.52 L 107.58 131.27 L 108.66 130.99 L 109.74 130.66 L 110.81 130.31 L 111.86 129.91 L 112.90 129.48 L 113.92 129.01 L 114.92 128.50 L 115.91 127.96 L 116.88 127.39 L 117.83 126.78 L 118.75 126.15 L 119.65 125.47 L 120.53 124.77 L 121.39 124.04 L 121.40 124.02 L 121.03 123.15 L 120.89 123.22 L 119.89 123.73 L 118.88 124.22 L 117.86 124.70 L 116.84 125.17 L 115.81 125.63 L 114.78 126.08 L 113.74 126.51 L 112.70 126.94 L 111.65 127.35 L 110.60 127.74 L 109.55 128.13 L 108.48 128.50 L 107.42 128.87 L 106.35 129.22 L 105.28 129.55 L 104.20 129.87 L 103.12 130.19 L 102.03 130.49 L 100.95 130.77 L 99.86 131.04 L 98.76 131.30 L 97.67 131.55 L 96.57 131.78 L 95.46 132.01 L 94.36 132.22 L 93.25 132.42 L 92.44 132.55 L 92.74 132.62 L 93.85 132.85 L 94.95 133.03 L 96.07 133.19 L 97.19 133.30 L 98.31 133.37 L 99.44 133.41 L 100.56 133.41 L 101.68 133.37 L 102.81 133.30 L 103.93 133.19 L 105.04 133.03 L 106.15 132.85 L 107.25 132.62 L 108.34 132.36 L 109.43 132.06 L 110.50 131.72 L 111.56 131.34 L 112.61 130.95 L 113.65 130.50 L 114.67 130.03 L 115.67 129.52 L 116.65 128.97 L 117.61 128.39 L 118.56 127.79 L 119.48 127.14 L 120.38 126.47 L 121.27 125.77 L 122.12 125.04 L 122.88 124.35 L 122.84 124.26 L 122.41 123.23 L 121.96 122.20 L 121.62 121.45 L 121.34 121.59 L 120.35 122.12 L 119.34 122.62 L 118.33 123.12 L 117.31 123.60 L 116.29 124.06 L 115.26 124.52 L 114.23 124.97 L 113.19 125.40 L 112.15 125.82 L 111.10 126.23 L 110.05 126.63 L 109.00 127.02 L 107.93 127.39 L 106.87 127.75 L 105.80 128.09 L 104.72 128.43 L 103.65 128.75 L 102.56 129.06 L 101.48 129.35 L 100.39 129.63 L 99.30 129.91 L 98.20 130.16 L 97.11 130.41 L 96.01 130.64 L 94.90 130.86 L 93.80 131.06 L 92.69 131.25 L 91.58 131.44 L 90.47 131.60 L 89.35 131.75 L 88.24 131.89 L 87.12 132.02 L 86.83 132.05 L 87.60 132.36 L 88.66 132.74 L 89.73 133.09 L 90.80 133.41 L 91.89 133.69 L 92.99 133.93 L 94.09 134.14 L 95.21 134.32 L 96.32 134.45 L 97.44 134.56 L 98.56 134.62 L 99.69 134.65 L 100.81 134.64 L 101.94 134.60 L 103.06 134.51 L 104.18 134.40 L 105.29 134.24 L 106.40 134.05 L 107.50 133.83 L 108.59 133.57 L 109.68 133.27 L 110.76 132.94 L 111.82 132.57 L 112.87 132.17 L 113.91 131.74 L 114.93 131.27 L 115.93 130.77 L 116.93 130.23 L 117.90 129.67 L 118.85 129.07 L 119.79 128.45 L 120.70 127.79 L 121.59 127.10 L 122.46 126.39 L 123.30 125.65 L 124.12 124.88 L 124.34 124.66 L 124.04 123.91 L 123.60 122.86 L 123.15 121.84 L 122.69 120.82 L 122.20 119.80 L 122.18 119.74 L 121.24 120.25 L 120.24 120.78 L 119.24 121.28 L 118.23 121.78 L 117.22 122.27 L 116.20 122.75 L 115.17 123.21 L 114.15 123.66 L 113.11 124.10 L 112.07 124.52 L 111.02 124.93 L 109.97 125.34 L 108.92 125.72 L 107.86 126.10 L 106.79 126.47 L 105.72 126.82 L 104.65 127.15 L 103.57 127.48 L 102.49 127.79 L 101.41 128.09 L 100.32 128.38 L 99.23 128.65 L 98.14 128.91 L 97.04 129.15 L 95.94 129.38 L 94.84 129.60 L 93.73 129.81 L 92.62 130.01 L 91.51 130.19 L 90.40 130.36 L 89.29 130.51 L 88.17 130.66 L 87.05 130.78 L 85.93 130.90 L 84.81 131.00 L 83.69 131.08 L 82.57 131.16 L 82.23 131.17 L 82.90 131.56 L 83.90 132.07 L 84.91 132.57 L 85.95 133.02 L 86.98 133.45 L 88.04 133.84 L 89.10 134.20 L 90.18 134.52 L 91.26 134.81 L 92.36 135.07 L 93.46 135.29 L 94.57 135.48 L 95.69 135.63 L 96.80 135.75 L 97.93 135.83 L 99.05 135.88 L 100.17 135.89 L 101.30 135.87 L 102.42 135.81 L 103.55 135.72 L 104.66 135.59 L 105.77 135.42 L 106.88 135.23 L 107.98 134.99 L 109.07 134.73 L 110.16 134.42 L 111.23 134.09 L 112.30 133.72 L 113.34 133.32 L 114.38 132.88 L 115.41 132.42 L 116.41 131.92 L 117.40 131.39 L 118.38 130.82 L 119.34 130.24 L 120.28 129.62 L 121.19 128.97 L 122.09 128.29 L 122.97 127.58 L 123.82 126.85 L 124.65 126.09 L 125.45 125.30 L 125.79 124.96 L 125.56 124.36 L 125.13 123.32 L 124.70 122.28 L 124.24 121.25 L 123.77 120.23 L 123.29 119.21 L 122.79 118.20 L 122.70 118.03 L 121.89 118.49 L 120.91 119.03 L 119.91 119.55 L 118.91 120.07 L 117.91 120.57 L 116.89 121.05 L 115.88 121.54 L 114.85 122.00 L 113.82 122.45 L 112.78 122.89 L 111.74 123.32 L 110.70 123.74 L 109.65 124.13 L 108.60 124.53 L 107.54 124.90 L 106.47 125.27 L 105.40 125.62 L 104.33 125.96 L 103.25 126.29 L 102.17 126.60 L 101.09 126.90 L 100.00 127.18 L 98.91 127.46 L 97.82 127.72 L 96.72 127.96 L 95.62 128.19 L 94.52 128.41 L 93.41 128.62 L 92.30 128.81 L 91.19 128.99 L 90.08 129.16 L 88.97 129.30 L 87.85 129.44 L 86.73 129.57 L 85.61 129.68 L 84.49 129.78 L 83.37 129.86 L 82.25 129.94 L 81.13 129.99 L 80.01 130.03 L 78.88 130.07 L 78.24 130.08 L 78.63 130.36 L 79.56 130.99 L 80.51 131.60 L 81.48 132.17 L 82.46 132.72 L 83.46 133.24 L 84.47 133.72 L 85.50 134.18 L 86.54 134.60 L 87.60 134.99 L 88.66 135.35 L 89.74 135.68 L 90.82 135.97 L 91.92 136.23 L 93.02 136.46 L 94.13 136.66 L 95.24 136.82 L 96.36 136.95 L 97.48 137.04 L 98.60 137.10 L 99.73 137.12 L 100.85 137.12 L 101.97 137.07 L 103.09 137.00 L 104.21 136.89 L 105.33 136.74 L 106.44 136.56 L 107.54 136.35 L 108.64 136.11 L 109.73 135.83 L 110.81 135.52 L 111.88 135.17 L 112.94 134.80 L 113.99 134.39 L 115.03 133.95 L 116.05 133.48 L 117.05 132.98 L 118.04 132.45 L 119.02 131.88 L 119.98 131.29 L 120.91 130.67 L 121.83 130.03 L 122.73 129.35 L 123.61 128.65 L 124.47 127.92 L 125.30 127.17 L 126.12 126.39 L 126.90 125.58 L 127.22 125.25 L 126.98 124.63 L 126.58 123.58 L 126.15 122.54 L 125.71 121.50 L 125.25 120.48 L 124.78 119.46 L 124.29 118.44 L 123.79 117.43 L 123.27 116.44 L 123.21 116.32 L 122.36 116.81 L 121.37 117.36 L 120.39 117.90 L 119.39 118.42 L 118.39 118.94 L 117.39 119.44 L 116.37 119.93 L 115.36 120.41 L 114.34 120.88 L 113.30 121.33 L 112.27 121.76 L 111.23 122.20 L 110.18 122.61 L 109.13 123.01 L 108.08 123.39 L 107.02 123.77 L 105.95 124.13 L 104.88 124.48 L 103.81 124.82 L 102.73 125.14 L 101.65 125.45 L 100.57 125.75 L 99.48 126.03 L 98.39 126.30 L 97.29 126.57 L 96.19 126.80 L 95.09 127.04 L 93.99 127.25 L 92.88 127.45 L 91.78 127.64 L 90.67 127.82 L 89.55 127.97 L 88.44 128.13 L 87.32 128.26 L 86.20 128.38 L 85.08 128.49 L 83.96 128.58 L 82.84 128.66 L 81.72 128.72 L 80.59 128.78 L 79.47 128.81 L 78.35 128.84 L 77.22 128.85 L 76.63 128.85 L 77.05 129.18 L 77.95 129.86 L 78.87 130.51 L 79.80 131.14 L 80.75 131.74 L 81.72 132.30 L 82.71 132.84 L 83.72 133.34 L 84.74 133.82 L 85.77 134.27 L 86.82 134.69 L 87.87 135.07 L 88.94 135.41 L 90.02 135.73 L 91.11 136.02 L 92.20 136.27 L 93.31 136.49 L 94.42 136.68 L 95.53 136.83 L 96.65 136.94 L 97.77 137.02 L 98.89 137.07 L 100.02 137.09 L 101.14 137.07 L 102.27 137.02 L 103.39 136.93 L 104.50 136.81 L 105.62 136.66 L 106.73 136.47 L 107.83 136.25 L 108.93 136.00 L 110.02 135.71 L 111.09 135.39 L 112.16 135.04 L 113.22 134.65 L 114.26 134.24 L 115.29 133.79 L 116.31 133.31 L 117.31 132.80 L 118.30 132.26 L 119.27 131.69 L 120.22 131.09 L 121.15 130.46 L 122.07 129.81 L 122.96 129.13 L 123.83 128.42 L 124.68 127.68 L 125.51 126.92 L 126.32 126.13 L 127.10 125.33 L 127.43 124.98 L 127.18 124.38 L 126.76 123.34 L 126.33 122.30 L 126.20 121.97 L 126.89 121.61 L 127.19 121.45 L 126.77 120.32 L 126.31 119.30 L 125.82 118.28 L 125.33 117.27 L 124.82 116.27 L 124.29 115.27 L 123.75 114.29 L 123.19 113.30 L 122.63 112.34 L 122.04 111.37 L 121.45 110.42 L 120.84 109.48 L 120.21 108.54 L 119.58 107.62 L 118.92 106.70 L 118.26 105.79 L 117.57 104.90 L 116.88 104.01 L 116.65 103.72 L 116.01 104.10 L 115.03 104.67 L 114.76 104.82 L 114.99 104.04 L 115.24 102.94 L 115.42 101.83 L 115.51 100.71 L 115.52 100.43 L 116.07 101.07 L 116.80 101.93 L 117.51 102.80 L 118.21 103.69 L 118.89 104.58 L 119.56 105.48 L 120.23 106.39 L 120.87 107.31 L 121.51 108.24 L 122.12 109.18 L 122.73 110.13 L 123.32 111.08 L 123.90 112.05 L 124.46 113.02 L 125.01 114.00 L 125.55 114.99 L 126.07 115.99 L 126.58 116.99 L 127.07 118.00 L 127.54 119.02 L 128.01 120.05 L 128.45 121.08 L 128.88 122.12 L 129.30 123.16 L 129.70 124.21 L 130.09 125.27 L 130.46 126.33 L 130.81 127.39 L 131.15 128.47 L 131.48 129.54 L 131.79 130.63 L 132.08 131.71 L 132.36 132.80 L 132.62 133.90 L 132.86 134.99 L 133.10 136.09 L 133.31 137.20 L 133.51 138.31 L 133.63 139.04 L 133.92 138.79 L 134.76 138.04 L 135.58 137.27 L 136.38 136.48 L 137.17 135.68 L 137.94 134.86 L 138.69 134.02 L 139.43 133.17 L 140.14 132.30 L 140.84 131.42 L 141.51 130.52 L 142.17 129.61 L 142.80 128.68 L 143.42 127.74 L 144.02 126.78 L 144.59 125.82 L 145.14 124.84 L 145.67 123.85 L 146.18 122.84 L 146.67 121.83 L 147.14 120.81 L 147.58 119.77 L 148.00 118.73 L 148.40 117.68 L 148.77 116.62 L 149.12 115.55 L 149.45 114.47 L 149.75 113.39 L 150.04 112.30 L 150.29 111.21 L 150.52 110.11 L 150.73 109.00 L 150.92 107.89 L 151.08 106.78 L 151.21 105.66 L 151.32 104.54 L 151.41 103.42 L 151.47 102.30 L 151.51 101.18 L 151.52 100.05 L 151.51 98.93 L 151.48 97.80 L 151.42 96.68 L 151.33 95.56 L 151.22 94.44 L 151.09 93.32 L 150.93 92.21 L 150.75 91.10 L 150.54 89.99 L 150.31 88.89 L 150.06 87.80 L 149.78 86.71 L 149.48 85.62 L 149.15 84.55 L 148.80 83.48 L 148.43 82.42 L 148.04 81.37 L 147.62 80.32 L 147.18 79.28 L 146.71 78.26 L 146.23 77.25 L 145.72 76.24 L 145.19 75.25 L 144.64 74.27 L 144.07 73.30 L 143.47 72.35 L 142.86 71.40 L 142.23 70.48 L 141.57 69.56 L 140.90 68.66 L 140.21 67.78 L 139.49 66.91 L 138.76 66.05 L 138.01 65.21 L 137.24 64.39 L 136.46 63.59 L 135.65 62.80 L 134.83 62.03 L 134.00 61.28 L 133.14 60.55 L 132.27 59.83 L 131.39 59.14 L 130.49 58.47 L 129.58 57.81 L 128.65 57.17 L 127.71 56.56 L 126.75 55.96 L 125.79 55.39 L 124.80 54.84 L 123.81 54.31 L 122.81 53.80 L 121.80 53.31 L 120.77 52.85 L 119.74 52.41 L 118.70 51.99 L 119.26 50.79 L 119.74 49.76 L 119.75 49.74 L 120.76 50.15 L 121.79 50.59 L 122.82 51.06 L 123.83 51.54 L 124.84 52.05 L 125.83 52.58 L 126.81 53.13 L 127.78 53.70 L 128.74 54.28 L 129.69 54.89 L 130.62 55.52 L 131.54 56.17 L 132.45 56.83 L 133.34 57.52 L 134.22 58.22 L 135.08 58.94 L 135.93 59.69 L 136.76 60.44 L 137.57 61.22 L 138.37 62.01 L 138.44 62.07 L 138.82 61.11 L 139.21 60.06 L 139.59 59.00 L 139.95 57.94 L 140.30 56.86 L 140.62 55.79 L 140.93 54.70 L 141.22 53.61 L 141.48 52.53 L 141.73 51.42 L 141.96 50.33 L 142.18 49.22 L 142.36 48.18 L 142.31 48.14 L 141.44 47.43 L 140.55 46.75 L 139.64 46.07 L 138.73 45.41 L 137.81 44.77 L 136.87 44.14 L 135.93 43.53 L 134.98 42.93 L 134.01 42.35 L 133.04 41.79 L 132.06 41.24 L 131.07 40.71 L 130.07 40.20 L 129.06 39.69 L 128.04 39.21 L 127.02 38.75 L 125.99 38.31 L 124.95 37.88 L 124.11 37.55 L 124.22 37.35 L 124.72 36.34 L 125.23 35.34 L 125.73 34.33 L 125.88 34.02 L 126.58 33.67 L 127.58 33.16 L 128.59 32.68 L 129.61 32.21 L 130.64 31.74 L 131.67 31.29 L 132.71 30.86 L 133.75 30.44 L 134.80 30.03 L 135.85 29.63 L 136.91 29.25 L 137.97 28.88 L 139.04 28.53 L 140.12 28.19 L 141.19 27.86 L 142.18 27.58 L 142.10 27.53 L 141.12 26.97 L 140.14 26.43 L 139.14 25.89 L 138.15 25.38 L 137.15 24.86 L 136.14 24.37 L 135.12 23.90 L 134.09 23.43 L 133.06 22.98 L 132.03 22.54 L 130.98 22.12 L 129.93 21.71 L 128.88 21.32 L 127.82 20.94 L 126.76 20.57 L 125.69 20.22 L 124.61 19.88 L 123.54 19.56 L 122.46 19.25 L 121.37 18.95 L 120.28 18.67 L 119.19 18.41 L 118.09 18.16 L 116.99 17.92 L 115.89 17.70 L 114.78 17.50 L 113.67 17.31 L 112.56 17.13 L 111.45 16.97 L 110.33 16.82 L 109.21 16.69 L 108.10 16.57 L 106.98 16.47 L 105.86 16.39 L 104.73 16.32 L 103.61 16.26 L 102.48 16.22 L 101.36 16.19 L 100.23 16.18 L 99.11 16.19 L 97.98 16.21 L 96.86 16.24 L 95.74 16.29 L 94.61 16.36 L 93.49 16.44 L 92.37 16.53 L 91.25 16.64 L 90.14 16.77 L 89.01 16.91 L 87.90 17.06 L 86.79 17.23 L 85.68 17.41 L 84.57 17.62 L 83.47 17.83 L 82.37 18.06 L 81.27 18.30 L 80.18 18.56 L 79.08 18.84 L 78.00 19.12 L 76.91 19.43 L 75.84 19.74 L 74.75 20.08 L 73.69 20.42 L 72.62 20.78 L 71.56 21.15 L 70.51 21.54 L 69.45 21.95 L 68.41 22.36 L 67.37 22.79 L 66.34 23.24 L 65.31 23.70 L 64.29 24.17 L 63.27 24.66 L 62.27 25.16 L 61.27 25.67 L 60.27 26.20 L 59.28 26.74 L 58.31 27.29 L 57.34 27.85 L 56.37 28.44 L 55.41 29.03 L 54.46 29.63 L 53.52 30.25 L 52.59 30.88 L 51.67 31.52 L 50.75 32.18 L 49.85 32.84 L 48.95 33.52 L 48.07 34.21 L 47.18 34.92 L 46.32 35.63 L 45.46 36.36 L 44.61 37.09 L 43.77 37.85 L 42.94 38.61 L 42.12 39.38 L 41.31 40.16 L 40.52 40.95 L 39.72 41.76 L 38.95 42.57 L 38.19 43.39 L 37.43 44.23 L 36.69 45.08 L 35.96 45.93 L 35.24 46.79 L 34.53 47.67 L 33.83 48.55 L 33.15 49.45 L 32.47 50.35 L 31.81 51.26 L 31.17 52.17 L 30.53 53.11 L 29.91 54.04 L 29.30 54.99 L 28.70 55.94 L 28.12 56.90 L 27.54 57.87 L 26.98 58.85 L 26.44 59.83 L 25.91 60.82 L 25.38 61.82 L 24.88 62.82 L 24.39 63.83 L 23.91 64.85 L 23.45 65.87 L 22.99 66.91 L 22.56 67.94 L 22.13 68.98 L 21.72 70.03 L 21.33 71.08 L 20.96 72.10 L 21.01 72.09 L 22.03 71.62 L 23.07 71.18 L 24.10 70.75 L 25.15 70.32 L 26.20 69.92 L 27.25 69.53 L 28.31 69.15 L 29.37 68.78 L 30.45 68.43 L 31.51 68.10 L 32.59 67.77 L 33.67 67.46 L 34.76 67.16 L 35.85 66.88 L 36.94 66.61 L 37.56 66.47 L 37.79 66.04 L 38.34 65.06 L 38.90 64.08 L 39.48 63.11 L 40.07 62.16 L 40.68 61.22 L 41.30 60.28 L 41.94 59.35 L 42.60 58.43 L 43.26 57.53 L 43.94 56.63 L 44.64 55.75 L 45.34 54.88 L 46.07 54.01 L 46.81 53.16 L 47.56 52.32 L 48.32 51.50 L 49.10 50.68 L 49.89 49.88 L 50.68 49.10 L 51.50 48.32 L 52.33 47.55 L 53.17 46.80 L 54.01 46.07 L 54.88 45.34 L 55.75 44.63 L 56.63 43.94 L 57.53 43.26 L 58.44 42.59 L 59.35 41.94 L 60.28 41.30 L 61.22 40.68 L 62.16 40.07 L 63.12 39.48 L 64.08 38.90 L 65.06 38.34 L 66.04 37.79 L 67.03 37.26 L 68.03 36.74 L 69.04 36.24 L 70.06 35.76 L 71.08 35.29 L 72.11 34.84 L 73.15 34.41 L 74.19 33.99 L 75.24 33.59 L 76.30 33.20 L 77.37 32.84 L 78.43 32.49 L 79.51 32.15 L 80.59 31.84 L 81.67 31.54 L 82.76 31.25 L 83.85 30.99 L 84.95 30.74 L 86.05 30.51 L 87.15 30.30 L 88.26 30.10 L 89.38 29.93 L 90.49 29.77 L 91.60 29.62 L 92.72 29.50 L 93.84 29.39 L 94.96 29.30 L 96.09 29.23 L 97.21 29.18 L 98.33 29.14 L 99.46 29.13 L 100.58 29.13 L 101.70 29.15 L 102.83 29.18 L 103.96 29.24 L 105.08 29.31 L 106.20 29.40 L 107.32 29.50 L 108.44 29.63 L 109.55 29.77 L 110.67 29.93 L 111.78 30.11 L 112.89 30.31 L 113.99 30.52 L 115.09 30.75 L 116.19 31.00 L 117.28 31.26 L 118.37 31.55 L 119.45 31.85 L 120.54 32.17 L 121.60 32.50 L 122.67 32.85 L 123.74 33.22 L 124.80 33.60 L 125.47 33.86 L 125.31 34.22 L 124.83 35.24 L 124.36 36.26 L 123.88 37.28 L 123.80 37.45 L 122.92 37.12 L 121.86 36.75 L 120.79 36.39 L 119.73 36.04 L 118.65 35.72 L 117.57 35.41 L 116.48 35.13 L 115.39 34.86 L 114.29 34.61 L 113.19 34.38 L 112.09 34.17 L 110.97 33.97 L 109.86 33.80 L 108.75 33.64 L 107.63 33.50 L 106.51 33.38 L 105.39 33.28 L 104.27 33.20 L 103.15 33.14 L 102.02 33.10 L 100.90 33.07 L 99.78 33.07 L 98.65 33.08 L 97.53 33.11 L 96.40 33.16 L 95.28 33.23 L 94.15 33.32 L 93.03 33.43 L 91.92 33.56 L 90.80 33.70 L 89.69 33.87 L 88.58 34.05 L 87.47 34.25 L 86.37 34.47 L 85.27 34.71 L 84.18 34.96 L 83.09 35.24 L 82.00 35.53 L 80.92 35.84 L 79.85 36.17 L 78.78 36.52 L 77.71 36.88 L 76.65 37.26 L 75.60 37.66 L 74.55 38.08 L 73.52 38.52 L 72.49 38.97 L 71.47 39.44 L 70.45 39.93 L 69.45 40.44 L 68.45 40.96 L 67.46 41.50 L 66.49 42.05 L 65.52 42.62 L 64.56 43.21 L 63.61 43.81 L 62.67 44.43 L 61.74 45.07 L 60.82 45.72 L 59.92 46.38 L 59.02 47.07 L 58.13 47.77 L 57.26 48.48 L 56.40 49.20 L 55.56 49.94 L 54.72 50.69 L 53.90 51.46 L 53.09 52.24 L 52.29 53.04 L 51.51 53.85 L 50.74 54.67 L 49.99 55.50 L 49.25 56.35 L 48.52 57.21 L 47.81 58.08 L 47.11 58.96 L 46.43 59.85 L 45.77 60.76 L 45.11 61.68 L 44.47 62.61 L 43.85 63.55 L 43.25 64.50 L 42.66 65.45 L 42.68 65.45 L 43.79 65.27 L 44.90 65.10 L 46.01 64.95 L 47.13 64.81 L 48.25 64.69 L 49.37 64.59 L 50.49 64.49 L 51.61 64.41 L 52.74 64.35 L 53.86 64.30 L 54.99 64.26 L 56.11 64.24 L 57.24 64.24 L 58.36 64.24 L 59.48 64.26 L 59.51 64.27 L 60.24 63.46 L 61.02 62.63 L 61.80 61.83 L 62.60 61.04 L 63.43 60.27 L 64.26 59.52 L 65.11 58.78 L 65.98 58.06 L 66.86 57.37 L 67.75 56.69 L 68.67 56.02 L 69.59 55.38 L 70.52 54.76 L 71.47 54.15 L 72.43 53.57 L 73.41 53.00 L 74.39 52.46 L 75.39 51.94 L 76.39 51.43 L 77.41 50.95 L 78.44 50.49 L 79.47 50.05 L 80.52 49.64 L 81.57 49.24 L 82.63 48.87 L 83.70 48.52 L 84.78 48.19 L 85.86 47.88 L 86.95 47.60 L 88.04 47.34 L 89.14 47.10 L 90.24 46.89 L 91.36 46.70 L 92.47 46.53 L 93.58 46.38 L 94.70 46.26 L 95.82 46.16 L 96.94 46.09 L 98.07 46.03 L 99.19 46.01 L 100.32 46.00 L 101.44 46.02 L 102.57 46.06 L 103.69 46.13 L 104.81 46.21 L 105.93 46.33 L 107.05 46.46 L 108.16 46.62 L 109.27 46.80 L 110.38 47.01 L 111.48 47.23 L 112.58 47.48 L 113.67 47.76 L 114.75 48.05 L 115.83 48.37 L 116.90 48.71 L 117.97 49.08 L 119.03 49.46 L 119.13 49.50 L 120.07 49.87 L 121.11 50.30 L 122.14 50.75 L 123.16 51.23 L 124.17 51.72 L 125.17 52.24 L 126.16 52.77 L 127.14 53.33 L 128.11 53.90 L 129.06 54.50 L 130.00 55.11 L 130.93 55.75 L 131.85 56.40 L 132.74 57.08 L 133.63 57.77 L 134.50 58.48 L 135.36 59.21 L 136.20 59.96 L 137.03 60.72 L 137.84 61.50 L 138.63 62.30 L 139.41 63.11 L 140.17 63.94 L 140.91 64.78 L 141.64 65.64 L 142.34 66.52 L 143.03 67.41 L 143.70 68.31 L 144.35 69.23 L 144.99 70.16 L 145.60 71.10 L 146.20 72.05 L 146.77 73.03 L 147.32 74.00 L 147.85 74.99 L 148.36 76.00 L 148.85 77.01 L 149.32 78.04 L 149.77 79.07 L 150.20 80.10 L 150.61 81.16 L 150.99 82.21 L 151.19 82.81 L 151.45 82.37 L 152.03 81.41 L 152.59 80.43 L 153.14 79.46 L 153.68 78.47 L 154.20 77.48 L 154.72 76.47 L 155.22 75.47 L 155.71 74.45 L 156.18 73.44 L 156.65 72.41 L 157.09 71.38 L 157.52 70.34 L 157.95 69.29 L 158.36 68.24 L 158.75 67.20 L 159.13 66.13 L 159.50 65.07 L 159.85 64.00 L 160.19 62.93 L 160.51 61.86 L 160.82 60.77 L 161.12 59.69 L 161.41 58.60 L 161.67 57.50 L 161.93 56.41 L 162.17 55.31 L 162.39 54.21 L 162.61 53.11 L 162.81 52.00 L 162.99 50.89 L 163.16 49.77 L 163.31 48.66 L 163.46 47.55 L 163.58 46.43 L 163.68 45.50 L 163.81 45.65 L 164.53 46.51 L 165.24 47.38 L 165.94 48.26 L 166.63 49.15 L 167.30 50.05 L 167.97 50.96 L 168.61 51.88 L 169.25 52.80 L 169.89 53.73 L 170.50 54.68 L 171.10 55.63 L 171.69 56.58 L 172.27 57.56 L 172.84 58.52 L 173.39 59.50 L 173.91 60.50 L 174.44 61.49 L 174.96 62.49 L 175.44 63.51 L 175.93 64.52 L 176.40 65.54 L 176.85 66.57 L 177.29 67.61 L 177.72 68.65 L 178.14 69.69 L 178.54 70.74 L 178.92 71.80 L 179.29 72.86 L 179.65 73.93 L 179.99 75.00 L 180.32 76.08 L 180.64 77.16 L 180.94 78.24 L 181.22 79.33 L 181.49 80.42 L 181.74 81.52 L 181.99 82.62 L 182.21 83.72 L 182.42 84.82 L 182.62 85.92 L 182.80 87.04 L 182.97 88.15 L 183.12 89.26 L 183.25 90.38 L 183.38 91.50 L 183.48 92.62 L 183.57 93.74 L 183.65 94.86 L 183.71 95.98 L 183.76 97.11 L 183.79 98.24 L 183.81 99.36 L 183.81 100.48 L 183.79 101.61 L 183.76 102.74 L 183.72 103.86 L 183.66 104.98 L 183.59 106.10 L 183.50 107.23 L 183.39 108.35 L 183.27 109.46 L 183.14 110.58 L 182.99 111.70 L 182.82 112.81 L 182.64 113.92 L 182.45 115.03 L 182.24 116.13 L 182.02 117.24 L 181.78 118.33 L 181.52 119.43 L 181.26 120.52 L 180.97 121.61 L 180.68 122.70 L 180.36 123.78 L 180.04 124.85 L 179.70 125.92 L 179.34 127.00 L 178.97 128.06 L 178.59 129.11 L 178.19 130.16 L 177.78 131.21 L 177.35 132.25 L 176.91 133.29 L 176.46 134.32 L 175.99 135.34 L 175.51 136.36 L 175.02 137.37 L 174.51 138.37 L 173.99 139.36 L 173.45 140.35 L 172.90 141.34 L 172.34 142.31 L 171.77 143.28 L 171.18 144.24 L 170.58 145.19 L 169.97 146.14 L 169.34 147.07 L 168.70 147.99 L 168.06 148.91 L 167.39 149.82 L 166.72 150.72 L 163.53 154.66 L 162.79 155.50 L 162.04 156.34 L 161.28 157.17 L 160.51 157.99 L 159.72 158.79 L 158.94 159.60 L 158.13 160.37 L 157.31 161.15 L 156.48 161.92 L 155.65 162.67 L 154.80 163.41 L 153.95 164.14 L 153.08 164.86 L 152.20 165.56 L 151.33 166.26 L 150.43 166.95 L 149.53 167.61 L 148.61 168.28 L 147.70 168.92 L 146.76 169.55 L 145.83 170.17 L 144.88 170.78 L 143.93 171.38 L 142.96 171.96 L 141.99 172.53 L 141.63 172.74 L 141.80 172.06 L 142.06 170.97 L 142.30 169.87 L 142.53 168.76 L 142.75 167.66 L 142.96 166.56 L 143.15 165.45 L 143.32 164.34 L 143.48 163.23 L 143.62 162.11 L 143.76 160.99 L 143.87 159.87 L 143.98 158.75 L 144.07 157.63 L 144.14 156.51 L 144.20 155.41 L 144.21 155.39 L 145.09 154.68 L 145.95 153.96 L 146.80 153.23 L 147.64 152.48 L 148.47 151.71 L 149.28 150.94 L 150.08 150.15 L 150.87 149.35 L 151.65 148.53 L 152.41 147.71 L 153.16 146.87 L 153.90 146.02 L 154.62 145.16 L 155.33 144.29 L 156.03 143.40 L 156.71 142.51 L 157.38 141.60 L 158.03 140.69 L 158.67 139.76 L 159.29 138.83 L 159.90 137.88 L 160.50 136.92 L 161.07 135.96 L 161.64 134.99 L 162.19 134.00 L 162.72 133.01 L 163.23 132.01 L 163.73 131.00 L 164.22 129.99 L 164.68 128.97 L 165.14 127.94 L 165.57 126.90 L 165.99 125.85 L 166.39 124.81 L 166.78 123.75 L 167.15 122.68 L 167.50 121.62 L 167.83 120.54 L 168.15 119.46 L 168.45 118.37 L 168.73 117.29 L 169.00 116.20 L 169.25 115.10 L 169.48 114.00 L 169.69 112.89 L 169.89 111.78 L 170.07 110.68 L 170.23 109.56 L 170.37 108.45 L 170.50 107.33 L 170.60 106.21 L 170.69 105.09 L 170.76 103.96 L 170.82 102.85 L 170.85 101.72 L 170.87 100.59 L 170.87 99.47 L 170.86 98.35 L 170.81 97.22 L 170.76 96.09 L 170.69 94.97 L 170.60 93.85 L 170.49 92.73 L 170.37 91.61 L 170.23 90.50 L 170.07 89.39 L 169.89 88.27 L 169.69 87.16 L 169.48 86.06 L 169.25 84.96 L 169.00 83.86 L 168.74 82.77 L 168.46 81.68 L 168.16 80.60 L 167.84 79.52 L 167.51 78.44 L 167.15 77.38 L 166.78 76.31 L 166.40 75.25 L 165.99 74.20 L 165.58 73.16 L 165.14 72.12 L 164.69 71.09 L 164.22 70.07 L 163.74 69.06 L 163.24 68.05 L 162.73 67.04 L 162.19 66.05 L 161.65 65.07 L 161.09 64.10 L 160.50 63.14 L 160.30 62.80 L 160.08 63.50 L 159.74 64.58 L 159.38 65.64 L 159.02 66.71 L 158.66 67.75 L 158.66 67.77 L 159.20 68.75 L 159.71 69.76 L 160.21 70.76 L 160.70 71.78 L 161.16 72.81 L 161.61 73.84 L 162.04 74.88 L 162.45 75.92 L 162.85 76.98 L 163.24 78.03 L 163.60 79.10 L 163.93 80.17 L 164.26 81.25 L 164.57 82.33 L 164.85 83.42 L 165.12 84.51 L 165.37 85.61 L 165.60 86.71 L 165.82 87.81 L 166.01 88.92 L 166.19 90.03 L 166.35 91.14 L 166.48 92.26 L 166.60 93.37 L 166.72 94.50 L 166.80 95.62 L 166.85 96.75 L 166.90 97.87 L 166.93 98.99 L 166.93 100.12 L 166.93 101.24 L 166.90 102.37 L 166.85 103.49 L 166.78 104.61 L 166.70 105.73 L 166.59 106.85 L 166.47 107.97 L 166.32 109.09 L 166.15 110.20 L 165.98 111.31 L 165.77 112.41 L 165.56 113.52 L 165.33 114.62 L 165.07 115.71 L 164.80 116.81 L 164.51 117.90 L 164.19 118.98 L 163.87 120.05 L 163.52 121.12 L 163.16 122.19 L 162.78 123.25 L 162.37 124.29 L 161.95 125.34 L 161.53 126.38 L 161.07 127.41 L 160.60 128.43 L 160.12 129.45 L 159.61 130.45 L 159.09 131.44 L 158.56 132.44 L 158.00 133.41 L 157.44 134.39 L 156.85 135.35 L 156.24 136.29 L 155.62 137.23 L 154.99 138.17 L 154.34 139.09 L 153.68 140.00 L 152.99 140.89 L 152.31 141.78 L 151.59 142.64 L 150.87 143.50 L 150.13 144.35 L 149.38 145.19 L 148.62 146.02 L 147.84 146.83 L 147.04 147.62 L 146.23 148.40 L 145.42 149.18 L 144.58 149.93 L 143.73 150.67 L 142.88 151.40 L 142.01 152.12 L 141.12 152.81 L 140.24 153.50 L 139.33 154.16 L 138.41 154.83 L 137.49 155.46 L 136.54 156.08 L 135.60 156.69 L 134.64 157.28 L 133.68 157.85 L 132.70 158.41 L 131.71 158.95 L 130.72 159.48 L 129.72 159.99 L 128.70 160.48 L 127.68 160.95 L 126.65 161.40 L 125.62 161.85 L 124.58 162.27 L 123.70 162.60 L 123.56 162.48 L 122.70 161.75 L 121.85 161.02 L 121.01 160.26 L 120.20 159.49 L 119.39 158.71 L 118.59 157.91 L 117.81 157.10 L 117.04 156.28 L 116.29 155.45 L 115.55 154.60 L 114.82 153.74 L 114.11 152.87 L 113.66 152.29 L 114.04 152.19 L 115.12 151.89 L 116.20 151.56 L 117.26 151.21 L 118.32 150.83 L 119.38 150.44 L 120.43 150.03 L 121.46 149.59 L 122.49 149.13 L 123.51 148.66 L 124.51 148.16 L 125.51 147.64 L 126.50 147.09 L 127.47 146.53 L 128.43 145.94 L 129.38 145.34 L 130.32 144.72 L 131.24 144.08 L 132.15 143.42 L 133.05 142.74 L 133.93 142.04 L 134.80 141.33 L 135.65 140.59 L 136.49 139.84 L 137.31 139.07 L 138.12 138.29 L 138.90 137.49 L 139.68 136.67 L 140.43 135.83 L 141.17 134.98 L 141.89 134.12 L 142.59 133.23 L 143.27 132.34 L 143.93 131.43 L 144.58 130.51 L 145.20 129.58 L 145.81 128.63 L 146.39 127.67 L 146.96 126.70 L 147.50 125.72 L 148.03 124.72 L 148.54 123.71 L 149.02 122.70 L 149.48 121.67 L 149.93 120.64 L 150.35 119.60 L 150.74 118.54 L 151.12 117.48 L 151.47 116.42 L 151.80 115.34 L 152.11 114.26 L 152.40 113.17 L 152.66 112.08 L 152.90 110.98 L 153.12 109.87 L 153.31 108.77 L 153.48 107.65 L 153.63 106.54 L 153.75 105.42 L 153.86 104.30 L 153.93 103.18 L 154.00 102.06 L 154.03 100.93 L 154.04 99.81 L 154.02 98.68 L 153.98 97.56 L 153.92 96.43 L 153.83 95.31 L 153.72 94.19 L 153.59 93.08 L 153.44 91.96 L 153.26 90.85 L 153.06 89.74 L 152.84 88.64 L 152.59 87.55 L 152.32 86.45 L 152.03 85.37 L 151.71 84.29 L 151.38 83.21 L 151.23 82.76 L 151.19 82.82 L 151.37 83.37 L 151.71 84.44 L 152.02 85.52 L 152.31 86.61 L 152.58 87.70 L 152.82 88.79 L 153.05 89.90 L 153.25 91.01 L 153.42 92.11 L 153.57 93.23 L 153.70 94.35 L 153.81 95.47 L 153.89 96.59 L 153.95 97.71 L 153.99 98.84 L 154.00 99.96 L 153.99 101.09 L 153.95 102.21 L 153.90 103.33 L 153.82 104.46 L 153.71 105.58 L 153.58 106.69 L 153.43 107.81 L 153.26 108.92 L 153.06 110.03 L 152.84 111.13 L 152.60 112.23 L 152.33 113.32 L 152.04 114.41 L 151.73 115.49 L 151.40 116.56 L 151.04 117.63 L 150.66 118.69 L 150.26 119.74 L 149.84 120.78 L 149.40 121.82 L 148.93 122.84 L 148.45 123.85 L 147.94 124.86 L 147.41 125.85 L 146.86 126.83 L 146.29 127.80 L 145.70 128.76 L 145.09 129.71 L 144.47 130.64 L 143.82 131.56 L 143.15 132.47 L 142.47 133.36 L 141.76 134.24 L 141.04 135.10 L 140.30 135.94 L 139.54 136.78 L 138.77 137.59 L 137.97 138.39 L 137.17 139.17 L 136.34 139.94 L 135.50 140.69 L 134.65 141.42 L 133.78 142.13 L 132.89 142.83 L 131.99 143.50 L 131.08 144.16 L 130.15 144.80 L 129.21 145.41 L 128.26 146.02 L 127.30 146.59 L 126.32 147.15 L 125.33 147.69 L 124.33 148.21 L 123.32 148.70 L 122.31 149.18 L 121.27 149.63 L 120.24 150.06 L 119.19 150.47 L 118.13 150.86 L 117.07 151.23 L 116.00 151.57 L 114.92 151.90 L 113.84 152.20 L 112.75 152.47 L 111.65 152.73 L 110.55 152.96 L 109.45 153.17 L 108.34 153.35 L 107.22 153.51 L 106.11 153.65 L 104.99 153.77 L 103.87 153.86 L 102.74 153.93 L 101.62 153.98 L 100.49 154.00 L 99.37 154.00 L 98.25 153.97 L 97.12 153.92 L 96.00 153.85 L 94.88 153.76 L 93.76 153.64 L 92.64 153.50 L 91.53 153.33 L 90.42 153.14 L 89.32 152.93 L 89.30 152.93 L 89.83 153.90 L 90.39 154.87 L 90.95 155.85 L 91.53 156.81 L 92.13 157.77 L 92.73 158.72 L 93.35 159.66 L 93.97 160.59 L 94.61 161.51 L 95.27 162.43 L 95.93 163.34 L 96.61 164.23 L 97.30 165.13 L 98.00 166.01 L 98.71 166.88 L 99.43 167.74 L 100.16 168.60 L 100.91 169.44 L 101.65 170.28 L 102.42 171.10 L 103.20 171.91 L 103.98 172.72 L 104.78 173.51 L 105.59 174.30 L 106.40 175.08 L 107.23 175.83 L 108.07 176.59 L 108.91 177.33 L 109.76 178.06 L 110.63 178.77 L 111.51 179.49 L 112.39 180.18 L 113.29 180.87 L 114.19 181.54 L 115.09 182.20 L 115.36 182.40 L 114.57 182.54 L 113.46 182.73 L 112.35 182.90 L 111.24 183.06 L 110.13 183.20 L 109.00 183.33 L 107.89 183.45 L 106.77 183.54 L 105.65 183.63 L 104.53 183.69 L 103.40 183.75 L 102.27 183.79 L 101.15 183.81 L 100.03 183.82 L 98.90 183.81 L 97.77 183.79 L 96.65 183.75 L 95.53 183.70 L 94.41 183.63 L 93.28 183.55 L 92.16 183.45 L 91.04 183.34 L 89.93 183.21 L 88.81 183.07 L 87.69 182.91 L 86.58 182.74 L 85.48 182.55 L 84.37 182.35 L 83.26 182.13 L 82.16 181.90 L 81.07 181.65 L 79.97 181.39 L 78.89 181.11 L 77.79 180.82 L 76.71 180.52 L 75.63 180.20 L 74.56 179.86 L 73.49 179.52 L 72.42 179.15 L 71.37 178.77 L 70.31 178.38 L 69.26 177.98 L 68.21 177.56 L 67.18 177.12 L 66.15 176.68 L 65.12 176.22 L 64.11 175.74 L 63.09 175.25 L 62.08 174.75 L 61.08 174.23 L 60.09 173.71 L 59.11 173.16 L 58.12 172.61 L 57.15 172.04 L 56.19 171.46 L 55.24 170.86 L 54.29 170.26 L 53.35 169.63 L 52.42 169.00 L 51.50 168.36 L 50.59 167.70 L 49.68 167.03 L 48.79 166.35 L 47.90 165.66 L 47.03 164.95 L 46.16 164.24 L 45.30 163.51 L 44.45 162.77 L 43.62 162.02 L 42.79 161.26 L 41.97 160.48 L 41.16 159.70 L 40.37 158.90 L 39.58 158.10 L 38.81 157.28 L 38.04 156.45 L 37.29 155.62 L 36.55 154.77 L 35.83 153.92 L 35.11 153.05 L 34.40 152.17 L 33.71 151.29 L 33.02 150.39 L 32.35 149.49 L 31.70 148.58 L 31.05 147.65 L 30.42 146.73 L 29.80 145.79 L 29.19 144.84 L 28.59 143.88 L 28.01 142.92 L 27.44 141.95 L 26.88 140.98 L 26.34 140.00 L 25.81 139.00 L 25.29 138.00 L 24.79 137.00 L 24.30 135.98 L 23.83 134.97 L 23.36 133.94 L 22.91 132.91 L 22.48 131.87 L 22.06 130.83 L 21.65 129.78 L 21.26 128.72 L 20.88 127.66 L 20.52 126.60 L 20.17 125.53 L 19.83 124.45 L 19.52 123.37 L 19.21 122.29 L 18.92 121.21 L 18.64 120.12 L 18.38 119.02 L 18.13 117.92 L 17.90 116.83 L 17.68 115.72 L 17.48 114.62 L 17.29 113.50 L 17.11 112.39 L 16.95 111.28 L 16.81 110.17 L 16.68 109.05 L 16.57 107.93 L 16.47 106.81 L 16.39 105.69 L 16.32 104.57 L 16.26 103.44 L 16.22 102.32 L 16.20 101.19 L 16.19 100.07 L 16.19 99.68 L 16.72 100.19 L 17.54 100.97 L 18.37 101.73 L 19.20 102.48 L 20.05 103.22 L 20.91 103.95 L 21.78 104.66 L 22.65 105.37 L 23.53 106.06 L 24.43 106.75 L 25.33 107.42 L 26.24 108.08 L 27.16 108.73 L 28.09 109.37 L 29.02 109.99 L 29.92 110.57 L 29.93 110.63 L 30.10 111.74 L 30.30 112.85 L 30.51 113.95 L 30.74 115.05 L 30.99 116.15 L 31.25 117.24 L 31.54 118.33 L 31.84 119.42 L 32.15 120.50 L 32.49 121.57 L 32.84 122.64 L 33.21 123.71 L 33.59 124.76 L 33.99 125.81 L 34.41 126.86 L 34.85 127.90 L 35.29 128.92 L 35.76 129.95 L 36.25 130.96 L 36.74 131.97 L 37.26 132.97 L 37.79 133.96 L 38.34 134.94 L 38.90 135.92 L 39.48 136.88 L 40.07 137.84 L 40.68 138.78 L 41.30 139.72 L 41.94 140.65 L 42.59 141.56 L 43.26 142.47 L 43.94 143.37 L 44.64 144.25 L 45.34 145.12 L 46.07 145.99 L 46.81 146.84 L 47.55 147.67 L 48.32 148.50 L 49.10 149.32 L 49.89 150.12 L 50.68 150.90 L 51.50 151.68 L 52.33 152.45 L 53.16 153.19 L 54.01 153.93 L 54.88 154.65 L 55.75 155.37 L 56.63 156.06 L 57.53 156.74 L 58.44 157.41 L 59.35 158.06 L 60.28 158.70 L 61.21 159.32 L 62.16 159.93 L 63.11 160.52 L 64.08 161.10 L 65.06 161.66 L 66.04 162.21 L 67.03 162.74 L 68.03 163.26 L 69.04 163.76 L 70.05 164.24 L 71.08 164.70 L 72.11 165.16 L 73.14 165.59 L 74.19 166.01 L 75.24 166.41 L 76.30 166.80 L 77.36 167.16 L 78.43 167.51 L 79.51 167.85 L 80.58 168.16 L 81.67 168.46 L 82.76 168.75 L 83.85 169.01 L 84.94 169.26 L 86.05 169.49 L 87.15 169.70 L 88.26 169.90 L 89.37 170.07 L 90.48 170.23 L 91.60 170.38 L 92.72 170.50 L 93.84 170.61 L 94.96 170.70 L 96.08 170.77 L 97.20 170.82 L 98.33 170.86 L 99.45 170.87 L 100.58 170.87 L 101.70 170.85 L 102.04 170.85 L 101.49 170.28 L 100.71 169.46 L 99.95 168.62 L 99.22 167.78 L 98.50 166.93 L 98.50 166.93 L 97.37 166.89 L 96.25 166.84 L 95.13 166.76 L 94.01 166.67 L 92.89 166.56 L 91.77 166.43 L 90.65 166.29 L 89.54 166.12 L 88.43 165.94 L 87.33 165.73 L 86.22 165.51 L 85.13 165.27 L 84.03 165.01 L 82.94 164.73 L 81.85 164.43 L 80.77 164.12 L 79.70 163.79 L 78.63 163.44 L 77.56 163.07 L 76.51 162.68 L 75.46 162.28 L 74.42 161.86 L 73.38 161.42 L 72.35 160.97 L 71.33 160.49 L 70.32 160.00 L 69.32 159.50 L 68.32 158.97 L 67.33 158.43 L 66.36 157.87 L 65.39 157.30 L 64.43 156.71 L 63.48 156.11 L 62.55 155.48 L 61.62 154.85 L 60.70 154.19 L 59.79 153.52 L 58.90 152.84 L 58.02 152.14 L 57.15 151.43 L 56.29 150.70 L 55.45 149.96 L 54.61 149.21 L 53.79 148.44 L 52.98 147.65 L 52.19 146.86 L 51.41 146.05 L 50.64 145.22 L 49.89 144.39 L 49.15 143.54 L 48.43 142.68 L 47.72 141.81 L 47.02 140.92 L 46.34 140.03 L 45.68 139.12 L 45.03 138.20 L 44.39 137.27 L 43.77 136.33 L 43.17 135.38 L 42.58 134.42 L 42.01 133.45 L 41.46 132.47 L 40.92 131.48 L 40.40 130.49 L 39.90 129.48 L 39.41 128.47 L 38.94 127.45 L 38.49 126.42 L 38.06 125.38 L 37.64 124.33 L 37.24 123.28 L 36.86 122.23 L 36.49 121.16 L 36.14 120.09 L 35.82 119.01 L 35.51 117.93 L 35.22 116.84 L 34.95 115.75 L 34.69 114.65 L 34.45 113.56 L 34.24 112.45 L 34.04 111.35 L 33.85 110.24 L 33.69 109.12 L 33.55 108.01 L 33.42 106.89 L 33.32 105.77 L 33.23 104.65 L 33.16 103.53 L 33.11 102.40 L 33.08 101.28 L 33.07 100.16 L 33.07 99.03 L 33.10 97.91 L 33.14 96.78 L 33.21 95.66 L 33.29 94.54 L 33.39 93.41 L 33.51 92.30 L 33.65 91.18 L 33.81 90.07 L 33.94 89.23 L 34.19 89.13 L 35.25 88.75 L 36.31 88.39 L 37.38 88.04 L 38.47 87.72 L 39.55 87.41 L 40.63 87.12 L 41.72 86.85 L 42.81 86.60 L 43.92 86.37 L 45.03 86.15 L 46.13 85.95 L 47.24 85.78 L 47.93 85.68 L 47.82 86.09 L 47.54 87.18 L 47.29 88.27 L 47.06 89.37 L 46.85 90.48 L 46.66 91.59 L 46.50 92.70 L 46.36 93.82 L 46.24 94.93 L 46.14 96.06 L 46.07 97.18 L 46.03 98.30 L 46.00 99.42 L 46.00 100.55 L 46.03 101.68 L 46.07 102.80 L 46.14 103.92 L 46.24 105.04 L 46.35 106.16 L 46.49 107.28 L 46.66 108.39 L 46.84 109.50 L 47.05 110.61 L 47.28 111.71 L 47.54 112.80 L 47.82 113.89 L 48.12 114.98 L 48.44 116.05 L 48.79 117.13 L 49.16 118.19 L 49.54 119.24 L 49.96 120.29 L 50.39 121.33 L 50.84 122.36 L 51.32 123.38 L 51.82 124.39 L 52.34 125.38 L 52.88 126.37 L 53.44 127.35 L 54.02 128.31 L 54.61 129.26 L 55.24 130.20 L 55.87 131.13 L 56.53 132.04 L 57.21 132.94 L 57.90 133.82 L 58.62 134.69 L 59.35 135.55 L 60.09 136.39 L 60.86 137.21 L 61.64 138.02 L 62.44 138.81 L 63.26 139.59 L 64.09 140.34 L 64.94 141.08 L 65.80 141.80 L 66.68 142.51 L 67.57 143.19 L 68.48 143.86 L 69.40 144.50 L 70.33 145.13 L 71.27 145.75 L 72.23 146.34 L 73.20 146.90 L 74.19 147.45 L 75.18 147.98 L 76.19 148.49 L 77.20 148.97 L 78.22 149.43 L 79.26 149.88 L 80.30 150.30 L 81.35 150.70 L 82.41 151.08 L 83.47 151.44 L 84.55 151.77 L 85.63 152.08 L 86.72 152.37 L 87.81 152.63 L 88.91 152.88 L 88.95 152.88 L 90.02 153.09 L 91.13 153.27 L 92.24 153.44 L 93.35 153.59 L 94.24 153.69 L 94.36 153.89 L 94.94 154.86 L 95.53 155.81 L 96.14 156.76 L 96.76 157.70 L 97.39 158.63 L 98.03 159.56 L 98.69 160.47 L 99.36 161.37 L 100.04 162.26 L 100.73 163.15 L 101.44 164.03 L 102.15 164.90 L 102.88 165.75 L 103.62 166.60 L 104.37 167.44 L 105.14 168.26 L 105.91 169.08 L 106.70 169.89 L 107.49 170.68 L 108.29 171.47 L 109.12 172.24 L 109.94 173.00 L 110.78 173.75 L 111.63 174.49 L 112.48 175.22 L 113.35 175.94 L 114.23 176.64 L 115.12 177.33 L 116.01 178.01 L 116.91 178.68 L 117.83 179.34 L 118.75 179.98 L 119.68 180.61 L 120.62 181.23 L 121.57 181.84 L 122.53 182.43 L 123.49 183.01 L 124.46 183.58 L 125.26 184.03 L 125.07 184.09 L 123.99 184.41 L 122.91 184.71 L 121.82 184.99 L 120.73 185.27 L 119.63 185.53 L 118.54 185.77 L 117.44 186.00 L 116.33 186.22 L 115.23 186.42 L 114.11 186.61 L 113.00 186.78 L 111.89 186.94 L 110.78 187.09 L 109.66 187.22 L 108.54 187.33 L 107.42 187.44 L 106.30 187.52 L 105.18 187.60 L 104.06 187.66 L 102.93 187.70 L 101.80 187.73 L 100.68 187.75 L 99.56 187.75 L 98.43 187.74 L 97.30 187.71 L 96.18 187.67 L 95.06 187.61 L 93.94 187.54 L 92.82 187.46 L 91.70 187.36 L 90.57 187.24 L 89.46 187.11 L 88.34 186.97 L 87.23 186.82 L 86.12 186.65 L 85.00 186.46 L 83.90 186.26 L 82.79 186.05 L 81.69 185.82 L 80.60 185.58 L 79.49 185.32 L 78.40 185.05 L 77.32 184.77 L 76.23 184.47 L 75.16 184.16 L 74.07 183.83 L 73.00 183.49 L 71.93 183.14 L 70.87 182.77 L 69.82 182.40 L 68.76 182.00 L 67.71 181.59 L 66.67 181.17 L 65.63 180.74 L 64.60 180.29 L 63.57 179.83 L 62.55 179.36 L 61.54 178.87 L 60.53 178.37 L 59.53 177.86 L 58.54 177.34 L 57.54 176.79 L 56.56 176.24 L 55.59 175.68 L 54.62 175.11 L 53.67 174.52 L 52.71 173.92 L 51.77 173.31 L 50.83 172.68 L 49.91 172.05 L 48.99 171.40 L 48.08 170.74 L 47.17 170.07 L 46.28 169.38 L 45.39 168.69 L 44.52 167.99 L 43.65 167.27 L 42.79 166.54 L 41.94 165.80 L 41.11 165.05 L 40.28 164.29 L 39.46 163.52 L 38.65 162.74 L 37.85 161.95 L 37.06 161.14 L 36.28 160.33 L 35.52 159.51 L 34.75 158.68 L 34.01 157.84 L 33.27 156.99 L 32.55 156.13 L 31.84 155.26 L 31.13 154.38 L 30.44 153.49 L 29.76 152.60 L 29.09 151.69 L 28.44 150.78 L 27.79 149.86 L 27.16 148.93 L 26.53 147.99 L 25.93 147.04 L 25.33 146.09 L 24.75 145.13 L 24.17 144.16 L 23.61 143.18 L 23.07 142.20 L 22.53 141.22 L 22.01 140.22 L 21.50 139.21 L 21.00 138.20 L 20.52 137.19 L 20.05 136.17 L 19.59 135.14 L 19.15 134.11 L 18.72 133.06 L 18.30 132.02 L 17.90 130.97 L 17.51 129.92 L 17.13 128.86 L 16.77 127.79 L 16.42 126.72 L 16.08 125.65 L 15.76 124.57 L 15.45 123.49 L 15.16 122.40 L 14.88 121.31 L 14.61 120.22 L 14.36 119.13 L 14.12 118.03 L 13.90 116.92 L 13.69 115.82 L 13.49 114.71 L 13.31 113.60 L 13.14 112.49 L 12.99 111.38 L 12.85 110.26 L 12.73 109.14 L 12.62 108.02 L 12.52 106.90 L 12.44 105.78 L 12.37 104.65 L 12.32 103.53 L 12.28 102.41 L 12.26 101.28 L 12.25 100.16 L 12.26 99.03 L 12.27 97.91 L 12.31 96.78 L 12.36 95.66 L 12.42 94.54 L 12.50 93.41 L 12.59 92.29 L 12.70 91.17 L 12.80 90.21 L 12.89 90.33 L 13.62 91.19 L 14.36 92.04 L 15.10 92.88 L 15.86 93.71 L 16.63 94.53 L 17.41 95.34 L 18.20 96.14 L 19.00 96.93 L 19.82 97.71 L 20.63 98.48 L 21.47 99.23 L 22.31 99.98 L 23.17 100.71 L 24.04 101.43 L 24.91 102.14 L 25.79 102.84 L 26.68 103.52 L 27.58 104.19 L 28.49 104.86 L 29.34 105.46 L 29.34 105.38 L 29.26 104.27 L 29.20 103.14 L 29.16 102.02 L 29.14 100.89 L 29.13 99.77 L 29.15 98.64 L 29.18 97.52 L 29.23 96.39 L 29.29 95.27 L 29.38 94.15 L 29.48 93.03 L 29.60 91.91 L 29.73 90.79 L 29.89 89.68 L 29.93 89.44 L 29.28 88.84 L 28.46 88.08 L 27.87 87.50 L 28.15 87.38 L 29.17 86.92 L 30.21 86.49 L 31.25 86.06 L 32.30 85.65 L 33.35 85.27 L 34.42 84.89 L 35.48 84.53 L 36.55 84.20 L 37.64 83.88 L 38.71 83.57 L 39.81 83.29 L 40.89 83.02 L 41.99 82.77 L 43.10 82.53 L 44.20 82.32 L 45.30 82.12 L 46.42 81.94 L 47.53 81.77 L 48.64 81.63 L 49.25 81.56 L 49.43 81.07 L 49.83 80.02 L 50.26 78.98 L 50.71 77.95 L 51.18 76.93 L 51.67 75.92 L 52.18 74.92 L 52.71 73.92 L 53.27 72.95 L 53.84 71.98 L 54.43 71.02 L 55.05 70.08 L 55.68 69.15 L 56.33 68.23 L 56.37 68.17 L 55.32 68.19 L 54.20 68.23 L 53.07 68.27 L 51.95 68.34 L 50.82 68.41 L 49.71 68.51 L 48.59 68.61 L 47.47 68.74 L 46.35 68.88 L 45.24 69.03 L 44.12 69.20 L 43.01 69.38 L 41.91 69.58 L 40.80 69.80 L 39.70 70.02 L 38.60 70.27 L 37.51 70.52 L 36.42 70.80 L 35.33 71.08 L 34.24 71.38 L 33.17 71.71 L 32.09 72.03 L 31.02 72.38 L 29.96 72.75 L 28.90 73.12 L 27.84 73.51 L 26.80 73.91 L 25.74 74.33 L 24.71 74.76 L 23.67 75.21 L 22.65 75.67 L 21.63 76.14 L 20.61 76.62 L 19.61 77.13 L 18.60 77.64 L 17.61 78.17 L 16.63 78.71 L 15.65 79.26 L 14.67 79.84 L 14.59 79.89 L 14.83 78.90 L 15.10 77.80 L 15.40 76.72 L 15.70 75.63 L 16.02 74.56 L 16.35 73.49 L 16.70 72.42 L 17.06 71.34 L 17.43 70.29 L 17.82 69.23 L 18.22 68.18 L 18.64 67.14 L 19.07 66.09 L 19.51 65.06 L 19.96 64.03 L 20.43 63.01 L 20.91 61.99 L 21.40 60.98 L 21.91 59.97 L 22.43 58.98 L 22.96 57.99 L 23.51 57.00 L 24.07 56.02 L 24.64 55.05 L 25.22 54.09 L 25.81 53.14 L 26.42 52.19 L 27.03 51.26 L 27.67 50.32 L 28.31 49.40 L 28.96 48.48 L 29.63 47.58 L 30.31 46.68 L 31.00 45.79 L 31.70 44.91 L 32.41 44.04 L 33.13 43.18 L 33.87 42.33 L 34.61 41.48 L 35.37 40.65 L 36.13 39.82 L 36.91 39.01 L 37.70 38.21 L 38.50 37.41 L 39.30 36.63 L 40.12 35.86 L 40.95 35.10 L 41.78 34.34 L 42.63 33.60 L 43.49 32.87 L 44.35 32.15 L 45.22 31.45 L 46.11 30.75 L 47.00 30.07 L 47.90 29.39 L 48.81 28.73 L 49.73 28.08 L 50.65 27.44 L 51.59 26.81 L 52.53 26.20 L 53.48 25.59 L 54.44 25.01 L 55.40 24.43 L 56.37 23.86 L 57.36 23.31 L 58.34 22.77 L 59.34 22.24 L 60.33 21.73 L 61.34 21.23 L 62.36 20.73 L 63.38 20.26 L 64.40 19.80 L 65.43 19.35 L 66.47 18.91 L 67.51 18.49 L 68.56 18.08 L 69.61 17.68 L 70.67 17.30 L 71.73 16.93 L 72.79 16.57 L 73.87 16.23 L 74.95 15.90 L 76.03 15.59 L 77.11 15.29 L 78.19 15.00 L 79.29 14.73 L 80.39 14.47 L 81.48 14.23 L 82.58 14.00 L 83.68 13.78 L 84.80 13.58 L 85.90 13.39 L 87.01 13.22 L 88.13 13.06 L 89.24 12.91 L 90.36 12.78 L 91.48 12.66 L 92.60 12.56 L 93.72 12.48 L 94.84 12.40 L 95.96 12.34 L 97.09 12.30 L 98.22 12.27 L 99.34 12.25 L 100.46 12.25 L 101.59 12.26 L 102.72 12.29 L 103.84 12.33 L 104.96 12.39 L 106.08 12.46 L 107.20 12.55 L 108.33 12.65 L 109.45 12.76 L 110.56 12.89 L 111.68 13.03 L 112.79 13.19 L 113.90 13.36 L 115.02 13.54 L 116.12 13.74 L 117.22 13.96 L 118.32 14.18 L 119.42 14.43 L 120.52 14.68 L 121.61 14.95 L 122.70 15.24 L 123.78 15.53 L 124.86 15.85 L 125.95 16.17 L 127.02 16.51 L 128.08 16.87 L 129.14 17.23 L 130.20 17.61 L 131.26 18.01 L 132.31 18.41 L 133.35 18.83 L 134.39 19.27 L 135.42 19.72 L 136.44 20.17 L 137.47 20.65 L 138.48 21.14 L 139.49 21.64 L 140.49 22.15 L 141.48 22.67 L 142.47 23.21 L 143.45 23.76 L 144.43 24.33 L 145.39 24.90 L 146.35 25.49 L 147.31 26.09 L 148.25 26.70 L 149.18 27.33 L 150.11 27.96 L 151.03 28.61 L 151.94 29.28 L 152.08 29.37 L 151.14 29.54 L 150.04 29.74 L 148.93 29.97 L 147.84 30.20 L 146.74 30.46 L 145.64 30.72 L 144.56 31.01 L 143.47 31.30 L 142.39 31.61 L 141.32 31.94 L 140.24 32.28 L 139.17 32.63 L 138.11 33.00 L 137.05 33.38 L 136.00 33.78 L 134.96 34.19 L 133.91 34.62 L 132.87 35.05 L 131.85 35.51 L 130.82 35.97 L 130.60 36.08 L 131.38 36.46 L 132.39 36.97 L 133.38 37.49 L 134.37 38.03 L 135.35 38.58 L 136.32 39.15 L 137.28 39.73 L 138.23 40.33 L 139.18 40.95 L 140.11 41.58 L 141.03 42.22 L 141.94 42.88 L 142.85 43.55 L 143.74 44.24 L 144.18 44.59 L 144.71 44.43 L 145.79 44.10 L 146.87 43.79 L 146.89 43.78 L 146.78 44.88 L 146.64 45.99 L 146.49 47.10 L 146.33 48.22 L 146.14 49.33 L 145.94 50.44 L 145.72 51.54 L 145.48 52.63 L 145.22 53.73 L 144.95 54.82 L 144.66 55.91 L 144.35 56.99 L 144.03 58.07 L 143.68 59.14 L 143.33 60.20 L 142.95 61.27 L 142.56 62.32 L 142.15 63.36 L 141.72 64.41 L 141.35 65.28 L 141.46 65.42 L 142.17 66.29 L 142.86 67.17 L 143.54 68.07 L 144.19 68.98 L 144.83 69.91 L 145.45 70.85 L 146.04 71.81 L 146.62 72.77 L 147.19 73.75 L 147.72 74.73 L 148.24 75.73 L 148.74 76.74 L 149.21 77.76 L 149.37 78.13 L 149.73 77.50 L 150.27 76.51 L 150.79 75.51 L 151.30 74.51 L 151.80 73.50 L 152.28 72.49 L 152.75 71.47 L 153.21 70.44 L 153.65 69.40 L 154.08 68.36 L 154.49 67.32 L 154.89 66.27 L 155.28 65.21 L 155.65 64.14 L 156.01 63.08 L 156.35 62.01 L 156.68 60.93 L 156.99 59.85 L 157.29 58.77 L 157.57 57.68 L 157.84 56.59 L 158.10 55.49 L 158.34 54.39 L 158.56 53.29 L 158.77 52.19 L 158.97 51.08 L 159.15 49.97 L 159.32 48.86 L 159.46 47.74 L 159.60 46.62 L 159.72 45.50 L 159.83 44.38 L 159.91 43.27 L 159.99 42.14 L 160.05 41.02 L 160.09 39.89 L 160.12 38.77 L 160.13 37.65 L 160.13 36.52 L 160.13 36.09 L 160.63 36.56 L 161.44 37.34 L 162.23 38.14 L 163.02 38.94 L 163.80 39.76 L 164.57 40.58 L 165.32 41.41 L 166.07 42.25 L 166.80 43.10 L 167.53 43.97 L 168.24 44.83 L 168.94 45.71 L 169.63 46.60 L 170.31 47.50 L 170.98 48.41 L 171.63 49.32 L 172.28 50.24 L 172.91 51.17 L 173.53 52.11 L 174.14 53.06 L 174.73 54.01 L 175.32 54.97 L 175.89 55.94 L 176.44 56.92 L 176.99 57.90 L 177.53 58.89 L 178.05 59.89 L 178.55 60.89 L 179.05 61.90 L 179.53 62.92 L 180.00 63.94 L 180.46 64.97 L 180.90 66.00 L 181.33 67.04 L 181.74 68.09 L 182.15 69.14 L 182.53 70.20 L 182.91 71.26 L 183.27 72.32 L 183.62 73.39 L 183.95 74.47 L 184.27 75.54 L 184.58 76.63 L 184.87 77.71 L 185.15 78.80 L 185.41 79.89 L 185.67 80.99 L 185.90 82.09 L 186.13 83.19 L 186.33 84.30 L 186.53 85.40 L 186.71 86.52 L 186.87 87.63 L 187.03 88.74 L 187.16 89.86 L 187.28 90.98 L 187.39 92.10 L 187.49 93.22 L 187.57 94.34 L 187.63 95.46 L 187.68 96.58 L 187.72 97.72 L 187.74 98.84 L 187.75 99.96 L 187.74 101.09 L 187.72 102.21 L 187.69 103.33 L 187.64 104.46 L 187.57 105.58 L 187.49 106.70 L 187.40 107.82 L 187.29 108.94 L 187.17 110.07 L 187.03 111.18 L 186.88 112.29 L 186.72 113.41 L 186.54 114.51 L 186.35 115.63 L 186.14 116.73 L 185.92 117.83 L 185.68 118.93 L 185.43 120.03 L 185.17 121.13 L 184.89 122.22 L 184.60 123.30 L 184.29 124.38 L 183.98 125.46 L 183.64 126.53 L 183.29 127.61 L 182.93 128.67 L 182.56 129.73 L 182.17 130.79 L 181.77 131.84 L 181.35 132.89 L 180.93 133.93 L 180.49 134.96 L 180.03 135.99 L 179.56 137.01 L 179.08 138.03 L 178.59 139.04 L 178.08 140.04 L 177.56 141.04 L 177.03 142.03 L 176.48 143.02 L 175.92 143.99 L 175.36 144.96 L 174.77 145.92 L 174.18 146.88 L 173.57 147.82 L 172.95 148.77 L 172.32 149.70 L 171.68 150.62 L 171.02 151.53 L 170.36 152.44 L 169.68 153.34 L 168.99 154.23 L 168.29 155.11 L 167.58 155.98 L 166.86 156.84 L 166.12 157.69 L 165.37 158.54 L 164.62 159.37 L 163.85 160.19 L 163.08 161.00 L 162.29 161.81 L 161.49 162.60 L 160.68 163.38 L 159.87 164.16 L 159.04 164.92 L 158.21 165.67 L 157.35 166.41 L 156.50 167.14 L 155.63 167.86 L 154.76 168.57 L 153.88 169.26 L 152.98 169.95 L 152.08 170.62 L 151.17 171.28 L 150.26 171.93 L 149.33 172.57 L 148.39 173.20 L 147.45 173.81 L 146.50 174.42 L 145.55 175.00 L 144.58 175.58 L 143.60 176.15 L 142.63 176.70 L 141.64 177.24 L 140.65 177.77 L 139.65 178.28 L 138.64 178.78 L 137.62 179.27 L 136.61 179.75 L 135.58 180.21 L 135.12 180.42 L 135.34 179.83 L 135.71 178.77 L 136.07 177.71 L 136.42 176.64 L 136.76 175.57 L 137.07 174.49 L 137.38 173.41 L 137.67 172.32 L 137.95 171.22 L 138.21 170.13 L 138.46 169.04 L 138.69 167.94 L 138.91 166.83 L 139.11 165.73 L 139.29 164.62 L 139.47 163.51 L 139.62 162.39 L 139.76 161.27 L 139.89 160.16 L 140.00 159.04 L 140.05 158.47 L 139.59 158.79 L 138.65 159.41 L 137.70 160.01 L 136.74 160.61 L 135.78 161.18 L 134.81 161.74 L 133.82 162.29 L 132.82 162.82 L 131.82 163.33 L 130.82 163.82 L 129.80 164.31 L 128.77 164.77 L 127.75 165.22 L 126.70 165.65 L 125.88 165.98 L 125.83 166.21 L 125.58 167.31 L 125.32 168.41 L 125.24 168.74 L 124.60 168.27 L 123.70 167.61 L 122.80 166.93 L 121.92 166.23 L 121.05 165.52 L 120.19 164.79 L 119.34 164.05 L 118.50 163.29 L 117.68 162.53 L 116.87 161.75 L 116.07 160.96 L 115.28 160.15 L 114.51 159.34 L 113.74 158.51 L 113.00 157.67 L 112.27 156.82 L 111.55 155.95 L 110.84 155.08 L 110.15 154.19 L 109.47 153.29 L 109.45 153.26 L 108.38 153.43 L 107.26 153.59 L 106.15 153.72 L 105.03 153.84 L 103.91 153.92 L 102.78 153.99 L 101.66 154.04 L 100.54 154.06 L 99.41 154.06 L 98.29 154.04 L 97.16 153.99 L 96.04 153.92 L 94.92 153.83 L 94.15 153.75 L 94.33 154.05 L 94.92 155.02 L 95.52 155.97 L 96.13 156.91 L 96.75 157.85 L 97.39 158.78 L 98.04 159.70 L 98.70 160.61 L 99.37 161.51 L 100.05 162.41 L 100.75 163.29 L 101.46 164.16 L 102.17 165.03 L 102.90 165.89 L 103.64 166.73 L 104.39 167.57 L 105.15 168.40 L 105.93 169.22 L 106.71 170.02 L 107.51 170.82 L 108.31 171.61 L 109.13 172.38 L 109.94 173.15 L 110.78 173.90 L 111.63 174.65 L 112.48 175.38 L 113.34 176.10 L 114.22 176.82 L 115.09 177.51 L 115.98 178.20 L 116.89 178.87 L 117.80 179.54 L 118.71 180.19 L 119.64 180.83 L 120.57 181.46 L 121.51 182.07 L 122.46 182.68 L 123.42 183.27 L 124.38 183.85 L 125.35 184.41 L 126.33 184.97 L 127.32 185.51 L 127.60 185.66 L 128.36 185.41 L 129.43 185.05 L 130.49 184.68 L 131.55 184.29 L 132.60 183.89 L 133.64 183.48 L 134.68 183.05 L 135.72 182.61 L 136.75 182.15 L 137.77 181.69 L 138.79 181.21 L 139.80 180.72 L 140.81 180.22 L 141.81 179.70 L 142.80 179.17 L 143.79 178.63 L 144.77 178.08 L 145.74 177.51 L 146.71 176.93 L 147.66 176.34 L 148.61 175.74 L 149.56 175.13 L 150.49 174.50 L 151.42 173.86 L 152.34 173.22 L 153.25 172.56 L 154.15 171.89 L 155.05 171.20 L 155.93 170.51 L 156.81 169.80 L 157.68 169.09 L 158.54 168.36 L 159.39 167.63 L 160.23 166.88 L 161.06 166.12 L 161.88 165.35 L 162.69 164.57 L 163.49 163.78 L 164.29 162.99 L 165.06 162.18 L 165.84 161.37 L 166.60 160.54 L 167.35 159.70 L 168.09 158.85 L 168.82 158.00 L 169.54 157.13 L 170.25 156.26 L 170.95 155.38 L 171.63 154.49 L 172.31 153.59 L 172.97 152.68 L 173.63 151.76 L 174.27 150.84 L 174.90 149.91 L 175.51 148.97 L 176.12 148.02 L 176.71 147.06 L 177.30 146.10 L 177.87 145.13 L 178.43 144.15 L 178.97 143.17 L 179.50 142.18 L 180.03 141.18 L 180.53 140.18 L 181.03 139.17 L 181.51 138.15 L 181.98 137.13 L 182.44 136.10 L 182.89 135.07 L 183.32 134.03 L 183.74 132.99 L 184.14 131.94 L 184.54 130.88 L 184.91 129.82 L 185.28 128.76 L 185.63 127.69 L 185.97 126.62 L 186.30 125.54 L 186.61 124.46 L 186.91 123.38 L 187.20 122.29 L 187.47 121.20 L 187.73 120.10 L 187.97 119.01 L 188.20 117.90 L 188.42 116.80 L 188.62 115.69 L 188.81 114.58 L 188.99 113.47 L 189.15 112.36 L 189.29 111.24 L 189.43 110.13 L 189.55 109.01 L 189.65 107.89 L 189.75 106.77 L 189.82 105.65 L 189.89 104.52 L 189.94 103.40 L 189.97 102.27 L 189.99 101.15 L 190.00 100.02 L 189.99 98.90 L 189.97 97.77 L 189.94 96.65 L 189.89 95.53 L 189.83 94.40 L 189.75 93.28 L 189.66 92.16 L 189.55 91.04 L 189.43 89.93 L 189.30 88.81 L 189.16 87.70 L 188.99 86.58 L 188.82 85.47 L 188.63 84.36 L 188.43 83.26 L 188.21 82.15 L 187.98 81.05 L 187.74 79.95 L 187.48 78.86 L 187.21 77.77 L 186.93 76.68 L 186.63 75.59 L 186.32 74.51 L 185.99 73.43 L 185.65 72.36 L 185.30 71.29 L 184.93 70.23 L 184.55 69.17 L 184.16 68.12 L 183.76 67.07 L 183.34 66.02 L 182.91 64.98 L 182.46 63.95 L 182.01 62.92 L 181.54 61.90 L 181.05 60.88 L 180.56 59.87 L 180.05 58.87 L 179.53 57.87 L 179.00 56.88 L 178.45 55.90 L 177.90 54.92 L 177.33 53.95 L 176.74 52.99 L 176.15 52.03 L 175.55 51.08 L 174.93 50.14 L 174.30 49.21 L 173.66 48.28 L 173.01 47.37 L 172.34 46.46 L 171.67 45.56 L 170.98 44.67 L 170.28 43.79 L 169.58 42.91 L 168.86 42.05 L 168.13 41.19 L 167.39 40.34 L 166.64 39.51 L 165.87 38.68 L 165.10 37.86 L 164.32 37.05 L 163.53 36.25 L 162.73 35.46 L 161.92 34.68 L 161.09 33.91 L 160.26 33.15 L 159.42 32.41 L 158.57 31.67 L 157.72 30.94 L 156.85 30.23 L 155.97 29.52 L 155.09 28.83 L 154.19 28.14 L 153.29 27.47 L 152.38 26.81 L 151.46 26.16 L 150.53 25.53 L 149.61 24.90 L 148.66 24.29 L 147.71 23.69 L 146.75 23.10 L 145.79 22.52 L 144.82 21.95 L 143.84 21.40 L 142.85 20.86 L 141.86 20.33 L 140.86 19.81 L 139.86 19.31 L 138.84 18.81 L 137.83 18.33 L 136.80 17.87 L 135.77 17.41 L 134.74 16.97 L 133.70 16.55 L 132.65 16.13 L 131.60 15.73 L 130.54 15.34 L 129.48 14.97 L 128.42 14.60 L 127.35 14.26 L 126.28 13.92 L 125.20 13.60 L 124.12 13.29 L 123.03 13.00 L 121.94 12.72 L 120.85 12.45 L 119.75 12.19 L 118.65 11.95 L 117.55 11.73 L 116.45 11.52 L 115.34 11.32 L 114.23 11.13 L 113.12 10.96 L 112.00 10.80 L 110.89 10.66 L 109.77 10.53 L 108.65 10.42 L 107.53 10.32 L 106.41 10.23 L 105.29 10.16 L 104.16 10.10 L 103.04 10.05 L 101.91 10.02 L 100.79 10.00 L 99.66 10.00 L 98.54 10.01 L 97.41 10.04 L 96.29 10.08 L 95.17 10.13 L 94.04 10.20 L 92.92 10.28 L 91.80 10.37 L 90.68 10.48 L 89.56 10.61 L 88.45 10.74 L 87.33 10.90 L 86.22 11.06 L 85.11 11.24 L 84.00 11.43 L 82.89 11.64 L 81.79 11.86 L 80.69 12.10 L 79.59 12.34 L 78.50 12.61 L 77.41 12.88 L 76.32 13.17 L 75.24 13.47 L 74.17 13.79 L 73.09 14.12 L 72.02 14.46 L 70.95 14.82 L 69.89 15.19 L 68.83 15.57 L 67.78 15.97 L 66.73 16.37 L 65.69 16.80 L 64.65 17.23 L 63.62 17.68 L 62.59 18.14 L 61.57 18.62 L 60.56 19.10 L 59.55 19.60 L 58.55 20.11 L 57.55 20.64 L 56.56 21.17 L 55.58 21.72 L 54.61 22.29 L 53.64 22.86 L 52.68 23.44 L 51.73 24.04 L 50.78 24.65 L 49.84 25.27 L 48.91 25.90 L 47.99 26.55 L 47.08 27.21 L 46.17 27.87 L 45.27 28.55 L 44.38 29.24 L 43.50 29.94 L 42.63 30.65 L 41.77 31.38 L 40.92 32.11 L 40.07 32.85 L 39.24 33.61 L 38.41 34.37 L 37.60 35.15 L 36.79 35.93 L 36.00 36.73 L 35.21 37.53 L 34.43 38.35 L 33.67 39.17 L 32.91 40.00 L 32.17 40.85 L 31.44 41.70 L 30.71 42.56 L 30.00 43.43 L 29.30 44.31 L 28.61 45.20 L 27.93 46.10 L 27.26 47.00 L 26.60 47.91 L 25.96 48.84 L 25.32 49.77 L 24.70 50.70 L 24.09 51.65 L 23.49 52.60 L 22.91 53.56 L 22.33 54.53 L 21.77 55.50 L 21.22 56.48 L 20.68 57.47 L 20.16 58.47 L 19.64 59.47 L 19.14 60.48 L 18.66 61.49 L 18.18 62.51 L 17.72 63.53 L 17.27 64.57 L 16.84 65.59 L 16.41 66.64 L 16.00 67.68 L 15.60 68.74 L 15.22 69.79 L 14.85 70.86 L 14.49 71.92 L 14.15 72.99 L 13.82 74.07 L 13.50 75.15 L 13.20 76.23 L 12.90 77.32 L 12.63 78.41 L 12.37 79.50 L 12.12 80.60 L 11.88 81.70 L 11.66 82.80 L 11.45 83.91 L 11.26 85.02 L 11.08 86.13 L 10.91 87.24 L 10.76 88.35 L 10.62 89.47 L 10.49 90.59 L 10.38 91.71 L 10.29 92.83 L 10.20 93.95 L 10.13 95.07 L 10.08 96.20 L 10.04 97.32 L 10.01 98.45 L 10.00 99.57 L 10.00 100.70 L 10.02 101.82 L 10.05 102.95 L 10.09 104.07 L 10.15 105.19 L 10.22 106.32 L 10.31 107.44 L 10.41 108.56 L 10.52 109.68 L 10.65 110.80 L 10.79 111.91 L 10.95 113.03 L 11.12 114.14 L 11.30 115.25 L 11.50 116.36 L 11.71 117.46 L 11.94 118.56 L 12.17 119.66 L 12.43 120.76 L 12.69 121.85 L 12.97 122.94 L 13.27 124.03 L 13.57 125.11 L 13.89 126.19 L 14.23 127.26 L 14.58 128.33 L 14.94 129.40 L 15.31 130.46 L 15.70 131.51 L 16.10 132.57 L 16.51 133.61 L 16.94 134.65 L 17.38 135.69 L 17.83 136.72 L 18.30 137.74 L 18.77 138.76 L 19.27 139.77 L 19.77 140.78 L 20.28 141.77 L 20.81 142.76 L 21.35 143.75 L 21.90 144.73 L 22.47 145.70 L 23.05 146.67 L 23.63 147.63 L 24.24 148.58 L 24.85 149.52 L 25.47 150.46 L 26.11 151.38 L 26.76 152.30 L 27.42 153.21 L 28.09 154.12 L 28.77 155.01 L 29.46 155.90 L 30.17 156.78 L 30.88 157.64 L 31.61 158.50 L 32.35 159.35 L 33.09 160.20 L 33.85 161.03 L 34.62 161.85 L 35.40 162.66 L 36.19 163.46 L 36.98 164.26 L 37.79 165.04 L 38.61 165.81 L 39.44 166.57 L 40.27 167.33 L 41.12 168.07 L 41.98 168.80 L 42.84 169.52 L 43.71 170.23 L 44.60 170.92 L 45.49 171.61 L 46.39 172.29 L 47.29 172.95 L 48.21 173.61 L 49.13 174.25 L 50.07 174.88 L 51.01 175.50 L 51.95 176.10 L 52.91 176.70 L 53.87 177.28 L 54.84 177.85 L 55.82 178.41 L 56.80 178.95 L 57.79 179.49 L 58.79 180.01 L 59.79 180.52 L 60.80 181.01 L 61.82 181.50 L 62.84 181.97 L 63.86 182.43 L 64.90 182.87 L 65.94 183.30 L 66.98 183.72 L 68.03 184.13 L 69.08 184.52 L 70.14 184.90 L 71.21 185.27 L 72.27 185.62 L 73.35 185.96 L 74.42 186.29 L 75.50 186.60 L 76.59 186.90 L 77.68 187.19 L 78.77 187.46 L 79.86 187.72 L 80.95 187.96 L 82.05 188.19 L 83.16 188.41 L 84.26 188.61 L 85.37 188.80 L 86.48 188.98 L 87.60 189.14 L 88.71 189.29 L 89.83 189.42 L 90.95 189.54 L 92.07 189.65 L 93.19 189.74 L 94.31 189.82 L 95.43 189.88 L 96.56 189.93 L 97.68 189.97 L 98.81 189.99 L 99.93 190.00 L 101.06 189.99 L 102.18 189.97 L 103.31 189.94 L 104.43 189.89 L 105.55 189.83 L 106.68 189.75 L 107.80 189.66 L 108.92 189.56 L 110.04 189.44 L 111.15 189.31 L 112.27 189.16 L 113.38 189.00 L 114.49 188.83 L 115.60 188.64 L 116.71 188.44 L 117.81 188.22 L 118.91 187.99 L 120.01 187.75 L 121.11 187.49 L 122.20 187.22 L 123.29 186.93 L 124.37 186.64 L 125.45 186.33 L 126.53 186.00" 
          fill="none" 
          stroke="currentColor" 
          stroke-width="0.5"/>
</svg>