<?xml version="1.0" encoding="UTF-8" standalone="no"?>
<svg width="100%" height="100%" viewBox="0 0 200 200" preserveAspectRatio="xMidYMid meet" xmlns="http://www.w3.org/2000/svg">
    <path d="M 10.00 100.00 L 10.04 98.20 L 10.09 96.40 L 10.11 95.58 L 10.24 93.79 L 10.37 91.99 L 10.43 91.18 L 10.65 89.39 L 10.87 87.61 L 10.97 86.79 L 11.28 85.02 L 11.59 83.25 L 11.73 82.44 L 12.12 80.69 L 12.52 78.93 L 12.70 78.13 L 13.18 76.40 L 13.66 74.66 L 13.88 73.87 L 14.44 72.17 L 15.00 70.46 L 15.26 69.68 L 15.91 68.00 L 16.56 66.32 L 16.85 65.56 L 17.58 63.91 L 18.31 62.27 L 18.64 61.52 L 19.45 59.91 L 20.26 58.30 L 20.63 57.57 L 21.51 56.01 L 22.40 54.44 L 22.80 53.73 L 23.77 52.21 L 24.73 50.69 L 25.17 50.00 L 26.20 48.53 L 27.24 47.05 L 27.71 46.39 L 28.82 44.97 L 29.93 43.55 L 30.43 42.90 L 31.60 41.54 L 32.78 40.18 L 33.31 39.56 L 34.56 38.26 L 35.80 36.95 L 36.36 36.36 L 37.66 35.12 L 38.97 33.88 L 39.56 33.31 L 40.92 32.14 L 42.29 30.96 L 42.91 30.43 L 44.32 29.32 L 45.74 28.21 L 46.39 27.71 L 47.86 26.67 L 49.33 25.64 L 50.00 25.17 L 51.73 24.67 L 52.95 24.32 L 51.67 25.59 L 50.40 26.87 L 49.13 28.14 L 47.85 29.41 L 46.58 30.69 L 45.31 31.96 L 44.04 33.23 L 42.76 34.50 L 41.49 35.78 L 40.22 37.05 L 38.94 38.32 L 37.67 39.60 L 36.40 40.87 L 35.13 42.14 L 33.85 43.41 L 32.58 44.69 L 31.31 45.96 L 30.04 47.23 L 28.76 48.50 L 27.49 49.78 L 26.22 51.05 L 24.94 52.32 L 23.67 53.60 L 22.40 54.87 L 22.20 54.75 L 21.33 56.33 L 20.47 57.91 L 20.07 58.63 L 19.29 60.24 L 18.50 61.86 L 18.14 62.60 L 17.41 64.24 L 17.28 64.53 L 18.56 63.26 L 19.83 61.98 L 21.10 60.71 L 22.38 59.44 L 23.65 58.17 L 24.92 56.89 L 26.19 55.62 L 27.47 54.35 L 28.74 53.07 L 30.01 51.80 L 31.28 50.53 L 32.56 49.26 L 33.83 47.98 L 35.10 46.71 L 36.38 45.44 L 37.65 44.16 L 38.92 42.89 L 40.19 41.62 L 41.47 40.35 L 42.74 39.07 L 44.01 37.80 L 45.29 36.53 L 46.56 35.25 L 47.83 33.98 L 49.10 32.71 L 50.38 31.44 L 51.65 30.16 L 52.92 28.89 L 54.20 27.62 L 55.47 26.35 L 56.74 25.07 L 58.01 23.80 L 59.29 22.53 L 60.56 21.25 L 61.83 19.98 L 63.11 18.71 L 62.80 18.05 L 64.46 17.34 L 66.12 16.64 L 66.87 16.32 L 68.56 15.70 L 70.25 15.08 L 71.02 14.79 L 71.84 14.52 L 70.57 15.79 L 69.30 17.06 L 68.02 18.34 L 66.75 19.61 L 65.48 20.88 L 64.21 22.15 L 62.93 23.43 L 61.66 24.70 L 60.39 25.97 L 59.12 27.25 L 57.84 28.52 L 56.57 29.79 L 55.30 31.06 L 54.02 32.34 L 52.75 33.61 L 51.48 34.88 L 50.21 36.16 L 48.93 37.43 L 47.66 38.70 L 46.39 39.97 L 45.11 41.25 L 43.84 42.52 L 42.57 43.79 L 41.30 45.06 L 40.02 46.34 L 38.75 47.61 L 37.48 48.88 L 36.21 50.16 L 34.93 51.43 L 33.66 52.70 L 32.39 53.97 L 31.11 55.25 L 29.84 56.52 L 28.57 57.79 L 27.30 59.07 L 26.02 60.34 L 24.75 61.61 L 23.48 62.88 L 22.20 64.16 L 20.93 65.43 L 19.66 66.70 L 18.39 67.98 L 17.11 69.25 L 15.84 70.52 L 15.06 70.25 L 14.51 71.96 L 13.95 73.67 L 13.70 74.45 L 13.23 76.19 L 12.76 77.92 L 12.67 78.24 L 13.94 76.96 L 15.22 75.69 L 16.49 74.42 L 17.76 73.15 L 19.04 71.87 L 20.31 70.60 L 21.58 69.33 L 22.85 68.05 L 24.13 66.78 L 25.40 65.51 L 26.67 64.24 L 27.94 62.96 L 29.22 61.69 L 30.49 60.42 L 31.76 59.14 L 33.04 57.87 L 34.31 56.60 L 35.58 55.33 L 36.85 54.05 L 38.13 52.78 L 39.40 51.51 L 40.67 50.23 L 41.95 48.96 L 43.22 47.69 L 44.49 46.42 L 45.76 45.14 L 47.04 43.87 L 48.31 42.60 L 49.58 41.33 L 50.86 40.05 L 52.13 38.78 L 53.40 37.51 L 54.67 36.23 L 55.95 34.96 L 57.22 33.69 L 58.49 32.42 L 59.76 31.14 L 61.04 29.87 L 62.31 28.60 L 63.58 27.32 L 64.86 26.05 L 66.13 24.78 L 67.40 23.51 L 68.67 22.23 L 69.95 20.96 L 71.22 19.69 L 72.49 18.41 L 73.77 17.14 L 75.04 15.87 L 76.31 14.60 L 77.58 13.32 L 78.24 12.67 L 79.99 12.28 L 81.75 11.89 L 82.55 11.71 L 84.03 11.43 L 82.75 12.70 L 81.48 13.97 L 80.21 15.25 L 78.93 16.52 L 77.66 17.79 L 76.39 19.07 L 75.12 20.34 L 73.84 21.61 L 72.57 22.88 L 71.30 24.16 L 70.02 25.43 L 68.75 26.70 L 67.48 27.98 L 66.21 29.25 L 64.93 30.52 L 63.66 31.79 L 62.39 33.07 L 61.12 34.34 L 59.84 35.61 L 58.57 36.88 L 57.30 38.16 L 56.02 39.43 L 54.75 40.70 L 53.48 41.98 L 52.21 43.25 L 50.93 44.52 L 49.66 45.79 L 48.39 47.07 L 47.11 48.34 L 45.84 49.61 L 44.57 50.89 L 43.30 52.16 L 42.02 53.43 L 40.75 54.70 L 39.48 55.98 L 38.20 57.25 L 36.93 58.52 L 35.66 59.79 L 34.39 61.07 L 33.11 62.34 L 31.84 63.61 L 30.57 64.89 L 29.29 66.16 L 28.02 67.43 L 26.75 68.70 L 25.48 69.98 L 24.20 71.25 L 22.93 72.52 L 21.66 73.80 L 20.39 75.07 L 19.11 76.34 L 17.84 77.61 L 16.57 78.89 L 15.29 80.16 L 14.02 81.43 L 12.75 82.71 L 11.48 83.98 L 11.43 84.03 L 11.15 85.80 L 10.88 87.58 L 10.75 88.39 L 10.63 89.37 L 11.90 88.10 L 13.18 86.83 L 14.45 85.55 L 15.72 84.28 L 16.99 83.01 L 18.27 81.73 L 19.54 80.46 L 20.81 79.19 L 22.08 77.92 L 23.36 76.64 L 24.63 75.37 L 25.90 74.10 L 27.18 72.82 L 28.45 71.55 L 29.72 70.28 L 31.00 69.01 L 32.27 67.73 L 33.54 66.46 L 34.81 65.19 L 36.09 63.92 L 37.36 62.64 L 38.63 61.37 L 39.90 60.10 L 41.18 58.82 L 42.45 57.55 L 43.72 56.28 L 45.00 55.01 L 46.27 53.73 L 47.54 52.46 L 48.81 51.19 L 50.09 49.91 L 51.36 48.64 L 52.63 47.37 L 53.90 46.10 L 55.18 44.82 L 56.45 43.55 L 57.72 42.28 L 59.00 41.00 L 60.27 39.73 L 61.54 38.46 L 62.81 37.19 L 64.09 35.91 L 65.36 34.64 L 66.63 33.37 L 67.91 32.10 L 69.18 30.82 L 70.45 29.55 L 71.72 28.28 L 73.00 27.00 L 74.27 25.73 L 75.54 24.46 L 76.82 23.19 L 78.09 21.91 L 79.36 20.64 L 80.63 19.37 L 81.91 18.09 L 83.18 16.82 L 84.45 15.55 L 85.73 14.28 L 87.00 13.00 L 88.27 11.73 L 89.37 10.63 L 91.16 10.46 L 92.96 10.29 L 93.77 10.22 L 94.37 10.18 L 93.10 11.45 L 91.83 12.72 L 90.55 13.99 L 89.28 15.27 L 88.01 16.54 L 86.74 17.81 L 85.46 19.09 L 84.19 20.36 L 82.92 21.63 L 81.64 22.90 L 80.37 24.18 L 79.10 25.45 L 77.83 26.72 L 76.55 28.00 L 75.28 29.27 L 74.01 30.54 L 72.73 31.81 L 71.46 33.09 L 70.19 34.36 L 68.92 35.63 L 67.64 36.90 L 66.37 38.18 L 65.10 39.45 L 63.82 40.72 L 62.55 42.00 L 61.28 43.27 L 60.01 44.54 L 58.73 45.81 L 57.46 47.09 L 56.19 48.36 L 54.92 49.63 L 53.64 50.91 L 52.37 52.18 L 51.10 53.45 L 49.82 54.72 L 48.55 56.00 L 47.28 57.27 L 46.01 58.54 L 44.73 59.82 L 43.46 61.09 L 42.19 62.36 L 40.91 63.63 L 39.64 64.91 L 38.37 66.18 L 37.10 67.45 L 35.82 68.72 L 34.55 70.00 L 33.28 71.27 L 32.00 72.54 L 30.73 73.82 L 29.46 75.09 L 28.19 76.36 L 26.91 77.63 L 25.64 78.91 L 24.37 80.18 L 23.09 81.45 L 21.82 82.73 L 20.55 84.00 L 19.28 85.27 L 18.00 86.54 L 16.73 87.82 L 15.46 89.09 L 14.19 90.36 L 12.91 91.63 L 11.64 92.91 L 10.37 94.18 L 10.19 94.17 L 10.12 95.97 L 10.04 97.77 L 10.01 98.58 L 10.00 99.09 L 11.28 97.82 L 12.55 96.54 L 13.82 95.27 L 15.10 94.00 L 16.37 92.73 L 17.64 91.45 L 18.91 90.18 L 20.19 88.91 L 21.46 87.63 L 22.73 86.36 L 24.01 85.09 L 25.28 83.82 L 26.55 82.54 L 27.82 81.27 L 29.10 80.00 L 30.37 78.73 L 31.64 77.45 L 32.92 76.18 L 34.19 74.91 L 35.46 73.63 L 36.73 72.36 L 38.01 71.09 L 39.28 69.82 L 40.55 68.54 L 41.82 67.27 L 43.10 66.00 L 44.37 64.72 L 45.64 63.45 L 46.92 62.18 L 48.19 60.91 L 49.46 59.63 L 50.73 58.36 L 52.01 57.09 L 53.28 55.81 L 54.55 54.54 L 55.83 53.27 L 57.10 52.00 L 58.37 50.72 L 59.64 49.45 L 60.92 48.18 L 62.19 46.91 L 63.46 45.63 L 64.73 44.36 L 66.01 43.09 L 67.28 41.81 L 68.55 40.54 L 69.83 39.27 L 71.10 38.00 L 72.37 36.72 L 73.64 35.45 L 74.92 34.18 L 76.19 32.90 L 77.46 31.63 L 78.74 30.36 L 80.01 29.09 L 81.28 27.81 L 82.55 26.54 L 83.83 25.27 L 85.10 24.00 L 86.37 22.72 L 87.65 21.45 L 88.92 20.18 L 90.19 18.90 L 91.46 17.63 L 92.74 16.36 L 94.01 15.09 L 95.28 13.81 L 96.55 12.54 L 97.83 11.27 L 99.09 10.00 L 100.89 10.03 L 102.69 10.06 L 103.51 10.07 L 103.57 10.07 L 102.30 11.34 L 101.02 12.62 L 99.75 13.89 L 98.48 15.16 L 97.21 16.43 L 95.93 17.71 L 94.66 18.98 L 93.39 20.25 L 92.12 21.53 L 90.84 22.80 L 89.57 24.07 L 88.30 25.34 L 87.02 26.62 L 85.75 27.89 L 84.48 29.16 L 83.21 30.44 L 81.93 31.71 L 80.66 32.98 L 79.39 34.25 L 78.11 35.53 L 76.84 36.80 L 75.57 38.07 L 74.30 39.35 L 73.02 40.62 L 71.75 41.89 L 70.48 43.16 L 69.20 44.44 L 67.93 45.71 L 66.66 46.98 L 65.39 48.25 L 64.11 49.53 L 62.84 50.80 L 61.57 52.07 L 60.30 53.35 L 59.02 54.62 L 57.75 55.89 L 56.48 57.16 L 55.20 58.44 L 53.93 59.71 L 52.66 60.98 L 51.39 62.26 L 50.11 63.53 L 48.84 64.80 L 47.57 66.07 L 46.29 67.35 L 45.02 68.62 L 43.75 69.89 L 42.48 71.16 L 41.20 72.44 L 39.93 73.71 L 38.66 74.98 L 37.39 76.26 L 36.11 77.53 L 34.84 78.80 L 33.57 80.07 L 32.29 81.35 L 31.02 82.62 L 29.75 83.89 L 28.48 85.17 L 27.20 86.44 L 25.93 87.71 L 24.66 88.98 L 23.38 90.26 L 22.11 91.53 L 20.84 92.80 L 19.57 94.08 L 18.29 95.35 L 17.02 96.62 L 15.75 97.89 L 14.47 99.17 L 13.20 100.44 L 11.93 101.71 L 10.66 102.98 L 10.07 103.57 L 10.19 105.37 L 10.30 107.16 L 10.34 107.84 L 11.62 106.57 L 12.89 105.30 L 14.16 104.03 L 15.43 102.75 L 16.71 101.48 L 17.98 100.21 L 19.25 98.93 L 20.52 97.66 L 21.80 96.39 L 23.07 95.12 L 24.34 93.84 L 25.62 92.57 L 26.89 91.30 L 28.16 90.03 L 29.43 88.75 L 30.71 87.48 L 31.98 86.21 L 33.25 84.93 L 34.53 83.66 L 35.80 82.39 L 37.07 81.12 L 38.34 79.84 L 39.62 78.57 L 40.89 77.30 L 42.16 76.03 L 43.44 74.75 L 44.71 73.48 L 45.98 72.21 L 47.25 70.93 L 48.53 69.66 L 49.80 68.39 L 51.07 67.12 L 52.34 65.84 L 53.62 64.57 L 54.89 63.30 L 56.16 62.02 L 57.44 60.75 L 58.71 59.48 L 59.98 58.21 L 61.25 56.93 L 62.53 55.66 L 63.80 54.39 L 65.07 53.11 L 66.35 51.84 L 67.62 50.57 L 68.89 49.30 L 70.16 48.02 L 71.44 46.75 L 72.71 45.48 L 73.98 44.21 L 75.26 42.93 L 76.53 41.66 L 77.80 40.39 L 79.07 39.11 L 80.35 37.84 L 81.62 36.57 L 82.89 35.30 L 84.16 34.02 L 85.44 32.75 L 86.71 31.48 L 87.98 30.20 L 89.26 28.93 L 90.53 27.66 L 91.80 26.39 L 93.07 25.11 L 94.35 23.84 L 95.62 22.57 L 96.89 21.30 L 98.17 20.02 L 99.44 18.75 L 100.71 17.48 L 101.98 16.20 L 103.26 14.93 L 104.53 13.66 L 105.80 12.39 L 107.07 11.11 L 107.14 10.28 L 108.93 10.47 L 110.72 10.66 L 111.53 10.74 L 111.94 10.80 L 110.67 12.07 L 109.39 13.34 L 108.12 14.61 L 106.85 15.89 L 105.58 17.16 L 104.30 18.43 L 103.03 19.71 L 101.76 20.98 L 100.48 22.25 L 99.21 23.52 L 97.94 24.80 L 96.67 26.07 L 95.39 27.34 L 94.12 28.62 L 92.85 29.89 L 91.57 31.16 L 90.30 32.43 L 89.03 33.71 L 87.76 34.98 L 86.48 36.25 L 85.21 37.52 L 83.94 38.80 L 82.67 40.07 L 81.39 41.34 L 80.12 42.62 L 78.85 43.89 L 77.57 45.16 L 76.30 46.43 L 75.03 47.71 L 73.76 48.98 L 72.48 50.25 L 71.21 51.53 L 69.94 52.80 L 68.66 54.07 L 67.39 55.34 L 66.12 56.62 L 64.85 57.89 L 63.57 59.16 L 62.30 60.43 L 61.03 61.71 L 59.75 62.98 L 58.48 64.25 L 57.21 65.53 L 55.94 66.80 L 54.66 68.07 L 53.39 69.34 L 52.12 70.62 L 50.85 71.89 L 49.57 73.16 L 48.30 74.44 L 47.03 75.71 L 45.75 76.98 L 44.48 78.25 L 43.21 79.53 L 41.94 80.80 L 40.66 82.07 L 39.39 83.34 L 38.12 84.62 L 36.85 85.89 L 35.57 87.16 L 34.30 88.44 L 33.03 89.71 L 31.75 90.98 L 30.48 92.25 L 29.21 93.53 L 27.94 94.80 L 26.66 96.07 L 25.39 97.35 L 24.12 98.62 L 22.84 99.89 L 21.57 101.16 L 20.30 102.44 L 19.03 103.71 L 17.75 104.98 L 16.48 106.25 L 15.21 107.53 L 13.93 108.80 L 12.66 110.07 L 11.39 111.35 L 10.80 111.94 L 11.07 113.72 L 11.35 115.50 L 11.41 115.87 L 12.68 114.60 L 13.96 113.33 L 15.23 112.05 L 16.50 110.78 L 17.77 109.51 L 19.05 108.23 L 20.32 106.96 L 21.59 105.69 L 22.87 104.42 L 24.14 103.14 L 25.41 101.87 L 26.68 100.60 L 27.96 99.32 L 29.23 98.05 L 30.50 96.78 L 31.77 95.51 L 33.05 94.23 L 34.32 92.96 L 35.59 91.69 L 36.87 90.42 L 38.14 89.14 L 39.41 87.87 L 40.68 86.60 L 41.96 85.32 L 43.23 84.05 L 44.50 82.78 L 45.78 81.51 L 47.05 80.23 L 48.32 78.96 L 49.59 77.69 L 50.87 76.41 L 52.14 75.14 L 53.41 73.87 L 54.69 72.60 L 55.96 71.32 L 57.23 70.05 L 58.50 68.78 L 59.78 67.50 L 61.05 66.23 L 62.32 64.96 L 63.60 63.69 L 64.87 62.41 L 66.14 61.14 L 67.41 59.87 L 68.69 58.60 L 69.96 57.32 L 71.23 56.05 L 72.50 54.78 L 73.78 53.50 L 75.05 52.23 L 76.32 50.96 L 77.60 49.69 L 78.87 48.41 L 80.14 47.14 L 81.41 45.87 L 82.69 44.59 L 83.96 43.32 L 85.23 42.05 L 86.51 40.78 L 87.78 39.50 L 89.05 38.23 L 90.32 36.96 L 91.60 35.69 L 92.87 34.41 L 94.14 33.14 L 95.41 31.87 L 96.69 30.59 L 97.96 29.32 L 99.23 28.05 L 100.51 26.78 L 101.78 25.50 L 103.05 24.23 L 104.32 22.96 L 105.60 21.68 L 106.87 20.41 L 108.14 19.14 L 109.42 17.87 L 110.69 16.59 L 111.96 15.32 L 113.23 14.05 L 114.51 12.77 L 115.78 11.50 L 115.80 11.40 L 117.56 11.75 L 119.33 12.11 L 119.66 12.17 L 118.38 13.45 L 117.11 14.72 L 115.84 15.99 L 114.56 17.26 L 113.29 18.54 L 112.02 19.81 L 110.75 21.08 L 109.47 22.36 L 108.20 23.63 L 106.93 24.90 L 105.66 26.17 L 104.38 27.45 L 103.11 28.72 L 101.84 29.99 L 100.56 31.26 L 99.29 32.54 L 98.02 33.81 L 96.75 35.08 L 95.47 36.36 L 94.20 37.63 L 92.93 38.90 L 91.65 40.17 L 90.38 41.45 L 89.11 42.72 L 87.84 43.99 L 86.56 45.26 L 85.29 46.54 L 84.02 47.81 L 82.74 49.08 L 81.47 50.36 L 80.20 51.63 L 78.93 52.90 L 77.65 54.17 L 76.38 55.45 L 75.11 56.72 L 73.84 57.99 L 72.56 59.27 L 71.29 60.54 L 70.02 61.81 L 68.74 63.08 L 67.47 64.36 L 66.20 65.63 L 64.93 66.90 L 63.65 68.17 L 62.38 69.45 L 62.19 69.63 L 61.82 70.04 L 61.41 70.42 L 61.66 71.45 L 61.37 71.95 L 60.52 71.88 L 59.84 71.98 L 58.57 73.26 L 57.30 74.53 L 56.03 75.80 L 54.75 77.08 L 53.48 78.35 L 52.21 79.62 L 50.93 80.89 L 49.66 82.17 L 48.39 83.44 L 47.12 84.71 L 45.84 85.98 L 44.57 87.26 L 43.30 88.53 L 42.02 89.80 L 40.75 91.08 L 39.48 92.35 L 38.21 93.62 L 36.93 94.89 L 35.66 96.17 L 34.39 97.44 L 33.12 98.71 L 31.84 99.99 L 30.57 101.26 L 29.30 102.53 L 28.02 103.80 L 26.75 105.08 L 25.48 106.35 L 24.21 107.62 L 22.93 108.89 L 21.66 110.17 L 20.39 111.44 L 19.11 112.71 L 17.84 113.99 L 16.57 115.26 L 15.30 116.53 L 14.02 117.80 L 12.75 119.08 L 12.17 119.66 L 12.60 121.40 L 13.03 123.15 L 13.07 123.31 L 14.34 122.03 L 15.62 120.76 L 16.89 119.49 L 18.16 118.21 L 19.43 116.94 L 20.71 115.67 L 21.98 114.39 L 23.25 113.12 L 24.52 111.85 L 25.80 110.58 L 27.07 109.30 L 28.34 108.03 L 29.62 106.76 L 30.89 105.49 L 32.16 104.21 L 33.43 102.94 L 34.71 101.67 L 35.98 100.39 L 37.25 99.12 L 38.53 97.85 L 39.80 96.58 L 41.07 95.30 L 42.34 94.03 L 43.62 92.76 L 44.89 91.48 L 46.16 90.21 L 47.43 88.94 L 48.71 87.67 L 49.98 86.39 L 51.25 85.12 L 52.53 83.85 L 53.80 82.58 L 55.07 81.30 L 56.34 80.03 L 57.62 78.76 L 58.89 77.48 L 60.16 76.22 L 61.66 77.21 L 62.45 77.72 L 63.98 78.68 L 64.55 79.04 L 63.43 77.64 L 62.31 76.23 L 61.45 75.16 L 61.73 74.65 L 62.51 73.87 L 62.90 73.47 L 63.29 73.08 L 63.68 72.69 L 64.07 72.30 L 64.06 71.50 L 62.90 70.12 L 61.74 68.74 L 60.58 67.37 L 59.88 66.54 L 61.22 67.74 L 62.55 68.95 L 63.89 70.16 L 65.23 71.36 L 66.57 72.57 L 67.86 73.73 L 69.33 74.76 L 70.45 75.54 L 69.30 74.15 L 68.15 72.77 L 67.00 71.38 L 66.66 70.97 L 66.46 69.98 L 66.82 69.56 L 68.09 68.29 L 69.36 67.01 L 70.63 65.74 L 71.91 64.47 L 73.18 63.19 L 74.45 61.92 L 75.73 60.65 L 77.00 59.38 L 78.27 58.10 L 79.54 56.83 L 80.82 55.56 L 82.09 54.28 L 83.36 53.01 L 84.64 51.74 L 85.91 50.47 L 87.18 49.19 L 88.45 47.92 L 89.73 46.65 L 91.00 45.37 L 92.27 44.10 L 93.55 42.83 L 94.82 41.56 L 96.09 40.28 L 97.36 39.01 L 98.64 37.74 L 99.91 36.47 L 101.18 35.19 L 102.45 33.92 L 103.73 32.65 L 105.00 31.37 L 106.27 30.10 L 107.55 28.83 L 108.82 27.56 L 110.09 26.28 L 111.36 25.01 L 112.64 23.74 L 113.91 22.46 L 115.18 21.19 L 116.46 19.92 L 117.73 18.65 L 119.00 17.37 L 120.27 16.10 L 121.55 14.83 L 122.82 13.56 L 122.97 12.98 L 124.70 13.48 L 126.43 13.98 L 126.83 14.09 L 125.56 15.36 L 124.28 16.64 L 123.01 17.91 L 121.74 19.18 L 120.47 20.46 L 119.19 21.73 L 117.92 23.00 L 116.65 24.27 L 115.38 25.55 L 114.10 26.82 L 112.83 28.09 L 111.56 29.37 L 110.28 30.64 L 109.01 31.91 L 107.74 33.18 L 106.47 34.46 L 105.19 35.73 L 103.92 37.00 L 102.65 38.28 L 101.37 39.55 L 100.10 40.82 L 98.83 42.09 L 97.56 43.37 L 96.28 44.64 L 95.01 45.91 L 93.74 47.18 L 92.46 48.46 L 91.19 49.73 L 89.92 51.00 L 88.65 52.28 L 87.37 53.55 L 86.10 54.82 L 84.83 56.09 L 83.56 57.37 L 82.28 58.64 L 81.01 59.91 L 79.74 61.19 L 78.46 62.46 L 77.19 63.73 L 75.92 65.00 L 74.65 66.28 L 73.37 67.55 L 72.10 68.82 L 71.05 69.87 L 70.68 70.29 L 70.29 70.68 L 71.25 72.19 L 71.67 72.85 L 72.52 74.43 L 72.57 74.53 L 71.24 73.32 L 69.91 72.10 L 68.58 70.89 L 67.25 69.68 L 65.91 68.47 L 64.58 67.26 L 63.83 66.57 L 64.98 67.95 L 66.14 69.33 L 67.29 70.71 L 67.84 71.36 L 68.33 72.64 L 67.92 73.01 L 67.52 73.40 L 67.14 73.80 L 66.75 74.19 L 66.36 74.59 L 65.96 74.96 L 65.57 75.36 L 65.19 75.76 L 64.79 76.15 L 64.40 76.54 L 63.23 77.72 L 62.85 78.12 L 62.46 78.52 L 63.52 79.97 L 64.56 81.40 L 65.47 82.96 L 65.66 83.28 L 64.27 82.14 L 62.88 81.00 L 61.49 79.85 L 61.26 79.66 L 60.87 80.06 L 60.47 80.45 L 59.20 81.72 L 57.93 82.99 L 56.66 84.27 L 55.38 85.54 L 54.11 86.81 L 52.84 88.08 L 51.57 89.36 L 50.29 90.63 L 49.02 91.90 L 47.75 93.17 L 46.47 94.45 L 45.20 95.72 L 43.93 96.99 L 42.66 98.27 L 41.38 99.54 L 40.11 100.81 L 38.84 102.08 L 37.56 103.36 L 36.29 104.63 L 35.02 105.90 L 33.75 107.18 L 32.47 108.45 L 31.20 109.72 L 29.93 110.99 L 28.65 112.27 L 27.38 113.54 L 26.11 114.81 L 24.84 116.09 L 23.56 117.36 L 22.29 118.63 L 21.02 119.90 L 19.75 121.18 L 18.47 122.45 L 17.20 123.72 L 15.93 124.99 L 14.65 126.27 L 13.98 126.47 L 14.55 128.18 L 15.12 129.89 L 15.23 130.24 L 16.50 128.96 L 17.78 127.69 L 19.05 126.42 L 20.32 125.15 L 21.60 123.87 L 22.87 122.60 L 24.14 121.33 L 25.41 120.05 L 26.69 118.78 L 27.96 117.51 L 29.23 116.24 L 30.51 114.96 L 31.78 113.69 L 33.05 112.42 L 34.32 111.14 L 35.60 109.87 L 36.87 108.60 L 38.14 107.33 L 39.41 106.05 L 40.69 104.78 L 41.96 103.51 L 43.23 102.24 L 44.51 100.96 L 45.78 99.69 L 47.05 98.42 L 48.32 97.14 L 49.60 95.87 L 50.87 94.60 L 52.14 93.33 L 53.41 92.05 L 54.69 90.78 L 55.96 89.51 L 57.23 88.23 L 58.51 86.96 L 59.78 85.69 L 61.05 84.42 L 61.18 84.29 L 61.57 83.90 L 61.96 83.50 L 62.36 83.11 L 63.80 84.19 L 65.24 85.26 L 65.41 85.39 L 66.40 85.59 L 65.29 84.18 L 64.18 82.76 L 63.53 81.94 L 64.80 80.66 L 66.08 79.39 L 67.35 78.12 L 68.62 76.85 L 69.89 75.57 L 71.17 74.30 L 72.15 73.32 L 71.13 71.84 L 70.42 70.81 L 69.33 69.37 L 68.25 67.94 L 67.99 67.60 L 69.33 68.81 L 70.66 70.02 L 71.99 71.24 L 73.32 72.45 L 74.65 73.66 L 75.98 74.87 L 76.65 75.47 L 75.54 74.06 L 74.42 72.64 L 73.76 71.81 L 74.12 71.38 L 74.51 70.99 L 74.89 70.58 L 76.16 69.31 L 77.43 68.03 L 78.71 66.76 L 79.98 65.49 L 81.25 64.22 L 82.53 62.94 L 83.80 61.67 L 85.07 60.40 L 86.34 59.12 L 87.62 57.85 L 88.89 56.58 L 90.16 55.31 L 91.43 54.03 L 92.71 52.76 L 93.98 51.49 L 95.25 50.22 L 96.53 48.94 L 97.80 47.67 L 99.07 46.40 L 100.34 45.12 L 101.62 43.85 L 102.89 42.58 L 104.16 41.31 L 105.44 40.03 L 106.71 38.76 L 107.98 37.49 L 109.25 36.21 L 110.53 34.94 L 111.80 33.67 L 113.07 32.40 L 114.34 31.12 L 115.62 29.85 L 116.89 28.58 L 118.16 27.31 L 119.44 26.03 L 120.71 24.76 L 121.98 23.49 L 123.26 22.21 L 124.53 20.94 L 125.80 19.67 L 127.07 18.40 L 128.35 17.12 L 129.62 15.85 L 130.24 15.23 L 131.92 15.87 L 133.53 16.48 L 132.26 17.75 L 130.99 19.03 L 129.72 20.30 L 128.44 21.57 L 127.17 22.85 L 125.90 24.12 L 124.62 25.39 L 123.35 26.66 L 122.08 27.94 L 120.81 29.21 L 119.53 30.48 L 118.26 31.75 L 116.99 33.03 L 115.72 34.30 L 114.44 35.57 L 113.17 36.85 L 111.90 38.12 L 110.62 39.39 L 109.35 40.66 L 108.08 41.94 L 106.81 43.21 L 105.53 44.48 L 104.26 45.75 L 102.99 47.03 L 101.71 48.30 L 100.44 49.57 L 99.17 50.85 L 97.90 52.12 L 96.62 53.39 L 95.35 54.66 L 94.08 55.94 L 92.81 57.21 L 91.53 58.48 L 90.26 59.76 L 88.99 61.03 L 87.71 62.30 L 86.44 63.57 L 85.17 64.85 L 83.90 66.12 L 82.62 67.39 L 81.35 68.66 L 80.08 69.94 L 78.80 71.21 L 78.73 71.29 L 78.34 71.68 L 77.95 72.07 L 77.56 72.46 L 77.22 72.91 L 75.66 72.00 L 75.35 71.83 L 73.96 70.69 L 72.57 69.54 L 71.18 68.40 L 70.99 68.24 L 72.19 69.59 L 73.38 70.93 L 74.58 72.27 L 75.78 73.61 L 76.98 74.96 L 77.55 75.59 L 76.01 74.67 L 75.59 74.42 L 75.20 74.81 L 74.83 75.23 L 74.44 75.62 L 74.05 76.01 L 73.64 76.38 L 72.36 77.65 L 71.09 78.92 L 69.82 80.20 L 68.55 81.47 L 67.27 82.74 L 66.00 84.01 L 65.41 84.60 L 65.11 85.08 L 64.63 85.39 L 65.78 86.77 L 66.94 88.15 L 68.09 89.53 L 68.64 90.18 L 67.25 89.03 L 65.86 87.89 L 64.46 86.75 L 64.23 86.55 L 63.46 86.56 L 63.06 86.95 L 61.79 88.22 L 60.52 89.50 L 59.24 90.77 L 57.97 92.04 L 56.70 93.32 L 55.43 94.59 L 54.15 95.86 L 52.88 97.13 L 51.61 98.41 L 50.34 99.68 L 49.06 100.95 L 47.79 102.23 L 46.52 103.50 L 45.24 104.77 L 43.97 106.04 L 42.70 107.32 L 41.43 108.59 L 40.15 109.86 L 38.88 111.13 L 37.61 112.41 L 36.33 113.68 L 35.06 114.95 L 33.79 116.23 L 32.52 117.50 L 31.24 118.77 L 29.97 120.04 L 28.70 121.32 L 27.42 122.59 L 26.15 123.86 L 24.88 125.14 L 23.61 126.41 L 22.33 127.68 L 21.06 128.95 L 19.79 130.23 L 18.52 131.50 L 17.24 132.77 L 16.48 133.53 L 17.18 135.19 L 17.83 136.73 L 19.11 135.45 L 20.38 134.18 L 21.65 132.91 L 22.93 131.64 L 24.20 130.36 L 25.47 129.09 L 26.74 127.82 L 28.02 126.54 L 29.29 125.27 L 30.56 124.00 L 31.84 122.73 L 33.11 121.45 L 34.38 120.18 L 35.65 118.91 L 36.93 117.63 L 38.20 116.36 L 39.47 115.09 L 40.74 113.82 L 42.02 112.54 L 43.29 111.27 L 44.56 110.00 L 45.84 108.73 L 47.11 107.45 L 48.38 106.18 L 49.65 104.91 L 50.93 103.63 L 52.20 102.36 L 53.47 101.09 L 54.75 99.82 L 56.02 98.54 L 57.29 97.27 L 58.56 96.00 L 59.84 94.73 L 61.11 93.45 L 62.38 92.18 L 63.66 90.91 L 64.93 89.63 L 64.94 89.62 L 66.30 90.80 L 67.66 91.98 L 69.02 93.16 L 70.38 94.34 L 70.90 94.78 L 69.71 93.42 L 68.53 92.07 L 67.35 90.71 L 66.17 89.35 L 65.73 88.83 L 66.14 88.46 L 67.32 87.29 L 67.69 86.88 L 68.96 85.60 L 70.23 84.33 L 71.50 83.06 L 72.78 81.78 L 74.05 80.51 L 75.32 79.24 L 76.60 77.97 L 77.87 76.69 L 78.26 76.30 L 78.74 75.99 L 79.04 75.52 L 80.60 76.43 L 80.93 76.62 L 79.75 75.26 L 78.56 73.90 L 77.38 72.55 L 76.20 71.19 L 75.65 70.56 L 76.76 70.89 L 78.17 72.01 L 79.58 73.13 L 80.60 73.94 L 81.00 73.56 L 82.27 72.29 L 83.55 71.01 L 84.82 69.74 L 86.09 68.47 L 87.36 67.20 L 88.64 65.92 L 89.91 64.65 L 91.18 63.38 L 92.46 62.10 L 93.73 60.83 L 95.00 59.56 L 96.27 58.29 L 97.55 57.01 L 98.82 55.74 L 100.09 54.47 L 101.37 53.20 L 102.64 51.92 L 103.91 50.65 L 105.18 49.38 L 106.46 48.10 L 107.73 46.83 L 109.00 45.56 L 110.28 44.29 L 111.55 43.01 L 112.82 41.74 L 114.09 40.47 L 115.37 39.20 L 116.64 37.92 L 117.91 36.65 L 119.18 35.38 L 120.46 34.10 L 121.73 32.83 L 123.00 31.56 L 124.28 30.29 L 125.55 29.01 L 126.82 27.74 L 128.09 26.47 L 129.37 25.19 L 130.64 23.92 L 131.91 22.65 L 133.19 21.38 L 134.46 20.10 L 135.73 18.83 L 136.73 17.83 L 138.36 18.60 L 139.82 19.29 L 138.55 20.56 L 137.28 21.83 L 136.00 23.11 L 134.73 24.38 L 133.46 25.65 L 132.18 26.93 L 130.91 28.20 L 129.64 29.47 L 128.37 30.74 L 127.09 32.02 L 125.82 33.29 L 124.55 34.56 L 123.27 35.83 L 122.00 37.11 L 120.73 38.38 L 119.46 39.65 L 118.18 40.93 L 116.91 42.20 L 115.64 43.47 L 114.37 44.74 L 113.09 46.02 L 111.82 47.29 L 110.55 48.56 L 109.27 49.84 L 108.00 51.11 L 106.73 52.38 L 105.46 53.65 L 104.18 54.93 L 102.91 56.20 L 101.64 57.47 L 100.36 58.74 L 99.09 60.02 L 97.82 61.29 L 96.55 62.56 L 95.27 63.84 L 94.00 65.11 L 92.73 66.38 L 91.45 67.65 L 90.18 68.93 L 88.91 70.20 L 87.64 71.47 L 86.36 72.75 L 85.09 74.02 L 84.84 74.27 L 84.45 74.66 L 84.12 75.11 L 82.73 73.97 L 81.33 72.83 L 79.94 71.69 L 79.80 71.58 L 79.52 72.08 L 80.69 73.44 L 81.86 74.81 L 83.03 76.18 L 84.21 77.54 L 84.24 77.58 L 82.65 76.73 L 82.54 76.66 L 82.10 77.01 L 80.83 78.28 L 79.55 79.55 L 78.28 80.83 L 77.01 82.10 L 75.74 83.37 L 74.46 84.65 L 73.19 85.92 L 71.92 87.19 L 70.64 88.46 L 69.96 89.15 L 69.59 89.56 L 68.32 90.84 L 68.02 91.13 L 67.65 91.54 L 66.87 92.33 L 68.05 93.69 L 69.23 95.05 L 70.40 96.41 L 71.58 97.77 L 71.89 98.13 L 70.53 96.95 L 69.17 95.77 L 67.81 94.59 L 66.45 93.41 L 66.04 93.07 L 64.77 94.34 L 63.50 95.61 L 62.22 96.88 L 60.95 98.16 L 59.68 99.43 L 58.41 100.70 L 57.13 101.98 L 55.86 103.25 L 54.59 104.52 L 53.32 105.79 L 52.04 107.07 L 50.77 108.34 L 49.50 109.61 L 48.22 110.88 L 46.95 112.16 L 45.68 113.43 L 44.41 114.70 L 43.13 115.98 L 41.86 117.25 L 40.59 118.52 L 39.31 119.79 L 38.04 121.07 L 36.77 122.34 L 35.50 123.61 L 34.22 124.89 L 32.95 126.16 L 31.68 127.43 L 30.40 128.70 L 29.13 129.98 L 27.86 131.25 L 26.59 132.52 L 25.31 133.80 L 24.04 135.07 L 22.77 136.34 L 21.50 137.61 L 20.22 138.89 L 19.29 139.82 L 20.12 141.42 L 20.84 142.82 L 22.11 141.54 L 23.38 140.27 L 24.66 139.00 L 25.93 137.73 L 27.20 136.45 L 28.47 135.18 L 29.75 133.91 L 31.02 132.63 L 32.29 131.36 L 33.57 130.09 L 34.84 128.82 L 36.11 127.54 L 37.38 126.27 L 38.66 125.00 L 39.93 123.73 L 41.20 122.45 L 42.48 121.18 L 43.75 119.91 L 44.43 119.23 L 44.82 118.84 L 45.21 118.44 L 46.05 118.51 L 47.53 119.54 L 48.70 120.36 L 47.86 118.77 L 47.83 118.72 L 46.94 117.16 L 46.78 116.88 L 48.05 115.61 L 49.32 114.33 L 50.60 113.06 L 51.87 111.79 L 53.14 110.51 L 54.41 109.24 L 55.69 107.97 L 56.96 106.70 L 58.23 105.42 L 59.51 104.15 L 60.78 102.88 L 62.05 101.61 L 63.32 100.33 L 64.01 99.65 L 64.45 99.30 L 64.79 98.86 L 65.18 98.47 L 65.69 98.19 L 66.10 97.82 L 66.38 97.32 L 66.75 96.91 L 68.33 97.77 L 68.47 97.85 L 67.34 96.45 L 66.20 95.06 L 65.06 93.66 L 65.01 93.60 L 66.46 94.66 L 67.92 95.72 L 67.93 95.73 L 69.20 94.46 L 70.47 93.18 L 71.74 91.91 L 73.02 90.64 L 74.29 89.37 L 75.56 88.09 L 76.83 86.82 L 78.11 85.55 L 79.38 84.28 L 80.65 83.00 L 81.93 81.73 L 83.20 80.46 L 84.47 79.18 L 85.74 77.91 L 85.94 77.72 L 85.13 76.12 L 84.24 74.56 L 84.10 74.31 L 85.43 75.52 L 86.76 76.73 L 88.10 77.94 L 89.43 79.15 L 90.76 80.36 L 92.10 81.57 L 92.58 82.00 L 91.49 80.57 L 90.40 79.14 L 90.08 78.72 L 89.01 77.27 L 87.95 75.82 L 87.90 75.76 L 88.29 75.37 L 88.70 74.99 L 89.07 74.58 L 90.35 73.31 L 91.62 72.04 L 92.89 70.76 L 94.16 69.49 L 95.44 68.22 L 96.71 66.95 L 97.98 65.67 L 99.26 64.40 L 100.04 63.62 L 100.86 62.87 L 101.28 62.51 L 101.64 62.09 L 102.11 61.77 L 102.39 61.27 L 103.66 59.99 L 104.93 58.72 L 106.21 57.45 L 107.48 56.18 L 108.75 54.90 L 110.03 53.63 L 111.30 52.36 L 112.57 51.09 L 113.84 49.81 L 115.12 48.54 L 116.39 47.27 L 117.66 45.99 L 118.93 44.72 L 120.21 43.45 L 121.48 42.17 L 122.75 40.90 L 124.03 39.63 L 125.30 38.36 L 126.57 37.08 L 127.84 35.81 L 129.12 34.54 L 130.39 33.27 L 131.66 31.99 L 132.94 30.72 L 134.21 29.45 L 135.48 28.17 L 136.75 26.90 L 138.03 25.63 L 139.30 24.36 L 140.57 23.08 L 141.85 21.81 L 142.82 20.84 L 144.39 21.72 L 145.72 22.48 L 144.45 23.75 L 143.18 25.03 L 141.90 26.30 L 140.63 27.57 L 139.36 28.84 L 138.09 30.12 L 136.81 31.39 L 135.54 32.66 L 134.27 33.93 L 132.99 35.21 L 131.72 36.48 L 130.45 37.75 L 129.18 39.03 L 127.90 40.30 L 126.63 41.57 L 125.36 42.84 L 124.09 44.12 L 122.81 45.39 L 121.54 46.66 L 120.27 47.94 L 118.99 49.21 L 117.72 50.48 L 116.45 51.75 L 115.18 53.03 L 113.90 54.30 L 112.63 55.57 L 111.36 56.84 L 110.08 58.12 L 108.81 59.39 L 107.54 60.66 L 106.27 61.94 L 105.84 62.37 L 105.47 62.78 L 105.05 63.15 L 106.23 64.51 L 107.41 65.87 L 108.58 67.23 L 109.76 68.60 L 110.05 68.93 L 108.72 67.72 L 107.38 66.52 L 106.04 65.31 L 104.71 64.11 L 103.37 62.90 L 102.03 61.70 L 102.02 61.69 L 102.98 63.21 L 103.35 63.79 L 103.31 64.54 L 101.90 63.91 L 101.00 63.80 L 102.21 65.14 L 103.41 66.48 L 104.61 67.82 L 105.81 69.16 L 107.01 70.50 L 107.82 71.40 L 106.46 70.22 L 105.09 69.04 L 103.73 67.87 L 102.37 66.69 L 102.08 66.44 L 101.52 66.67 L 101.14 67.07 L 99.86 68.34 L 98.59 69.61 L 97.32 70.88 L 96.05 72.16 L 94.77 73.43 L 93.50 74.70 L 92.23 75.97 L 92.13 76.07 L 91.74 76.46 L 91.35 76.86 L 90.48 76.77 L 89.11 75.60 L 87.74 74.43 L 86.37 73.27 L 85.15 72.22 L 86.30 73.61 L 87.45 74.99 L 88.59 76.38 L 88.95 76.81 L 89.99 78.28 L 90.84 79.49 L 89.43 78.86 L 89.02 79.23 L 88.63 79.62 L 88.21 79.99 L 86.94 81.26 L 85.67 82.53 L 84.40 83.81 L 83.12 85.08 L 81.85 86.35 L 80.58 87.63 L 79.30 88.90 L 78.03 90.17 L 76.76 91.44 L 75.49 92.72 L 74.21 93.99 L 72.94 95.26 L 71.67 96.53 L 70.39 97.81 L 69.12 99.08 L 69.02 99.18 L 68.68 99.61 L 68.24 99.96 L 67.89 100.40 L 67.50 100.79 L 68.13 102.20 L 68.96 103.80 L 68.98 103.84 L 67.46 102.88 L 66.86 102.50 L 65.51 101.31 L 64.16 100.13 L 62.80 98.94 L 61.45 97.75 L 60.50 96.93 L 61.67 98.30 L 62.84 99.67 L 64.00 101.04 L 64.96 102.16 L 65.42 103.40 L 64.81 103.58 L 64.36 103.92 L 63.93 104.27 L 62.66 105.54 L 61.39 106.82 L 60.11 108.09 L 58.84 109.36 L 57.57 110.63 L 56.30 111.91 L 55.02 113.18 L 53.75 114.45 L 52.48 115.72 L 51.20 117.00 L 50.22 117.98 L 49.85 118.39 L 49.44 118.76 L 50.61 120.13 L 51.79 121.49 L 52.96 122.86 L 54.13 124.22 L 54.17 124.28 L 52.80 123.11 L 51.43 121.94 L 50.06 120.78 L 48.93 119.81 L 48.27 119.94 L 47.88 120.33 L 47.48 120.72 L 47.32 121.33 L 45.89 120.24 L 44.46 119.15 L 43.97 118.77 L 42.48 117.77 L 41.61 117.19 L 42.82 118.52 L 44.03 119.85 L 45.25 121.18 L 46.46 122.51 L 47.67 123.84 L 48.89 125.17 L 49.82 126.19 L 48.35 125.14 L 47.06 124.21 L 45.51 123.29 L 45.13 123.07 L 44.74 123.46 L 44.35 123.85 L 43.08 125.12 L 41.81 126.40 L 40.53 127.67 L 39.26 128.94 L 37.99 130.22 L 36.71 131.49 L 35.44 132.76 L 34.17 134.03 L 32.90 135.31 L 31.62 136.58 L 30.35 137.85 L 29.08 139.12 L 27.80 140.40 L 26.53 141.67 L 25.26 142.94 L 23.99 144.22 L 22.71 145.49 L 22.48 145.72 L 23.42 147.26 L 24.21 148.54 L 25.48 147.26 L 26.76 145.99 L 28.03 144.72 L 29.30 143.45 L 30.57 142.17 L 31.85 140.90 L 33.12 139.63 L 34.39 138.36 L 35.67 137.08 L 36.94 135.81 L 38.21 134.54 L 39.48 133.26 L 40.76 131.99 L 42.03 130.72 L 43.30 129.45 L 44.57 128.17 L 45.06 127.69 L 45.45 127.30 L 47.05 128.12 L 47.07 128.13 L 48.49 129.23 L 49.92 130.33 L 50.45 130.73 L 49.24 129.41 L 48.02 128.08 L 46.81 126.75 L 45.59 125.42 L 44.38 124.09 L 43.16 122.76 L 42.14 121.64 L 43.70 122.53 L 43.95 122.67 L 45.35 123.81 L 46.74 124.95 L 48.13 126.09 L 48.26 126.19 L 47.81 124.96 L 48.20 124.57 L 48.60 124.18 L 48.97 123.77 L 50.25 122.50 L 51.32 121.42 L 52.88 122.33 L 53.20 122.52 L 54.70 123.51 L 55.51 124.05 L 54.39 122.64 L 53.27 121.23 L 52.50 120.25 L 53.77 118.98 L 55.04 117.70 L 56.32 116.43 L 57.59 115.16 L 58.86 113.89 L 60.13 112.61 L 61.41 111.34 L 62.68 110.07 L 63.95 108.79 L 64.64 108.11 L 65.15 107.84 L 65.46 107.37 L 64.81 105.93 L 63.67 104.55 L 62.52 103.16 L 61.37 101.78 L 61.03 101.37 L 62.40 102.54 L 63.77 103.71 L 65.14 104.88 L 66.49 106.04 L 66.97 105.74 L 68.14 104.56 L 68.53 104.17 L 69.81 102.90 L 70.10 102.60 L 70.51 102.23 L 71.79 100.96 L 73.06 99.69 L 74.33 98.42 L 75.60 97.14 L 76.88 95.87 L 78.15 94.60 L 79.42 93.33 L 80.70 92.05 L 81.97 90.78 L 83.24 89.51 L 84.51 88.23 L 85.79 86.96 L 87.06 85.69 L 88.33 84.42 L 89.60 83.14 L 90.88 81.87 L 91.27 81.48 L 91.64 81.07 L 92.03 80.67 L 92.44 80.30 L 92.79 79.87 L 92.98 79.27 L 94.40 80.38 L 95.82 81.48 L 96.53 82.04 L 98.06 83.00 L 98.63 83.35 L 97.42 82.02 L 96.20 80.69 L 94.99 79.36 L 93.78 78.03 L 92.57 76.70 L 91.36 75.37 L 90.70 74.65 L 92.11 75.77 L 93.52 76.89 L 94.55 77.71 L 95.10 77.48 L 95.56 77.15 L 95.97 76.78 L 96.36 76.39 L 96.74 75.98 L 97.14 75.60 L 98.42 74.33 L 99.69 73.06 L 100.96 71.79 L 102.24 70.51 L 102.61 70.10 L 101.54 68.65 L 100.48 67.20 L 100.43 67.14 L 101.85 68.25 L 103.26 69.36 L 104.06 69.99 L 103.81 68.95 L 104.19 68.56 L 104.59 68.17 L 104.98 67.77 L 105.37 67.38 L 105.76 66.99 L 106.15 66.60 L 106.55 66.21 L 106.96 65.84 L 108.32 67.02 L 109.68 68.20 L 111.04 69.38 L 112.40 70.55 L 112.81 70.90 L 111.60 69.57 L 110.40 68.23 L 109.19 66.90 L 107.98 65.56 L 106.77 64.23 L 105.57 62.89 L 105.47 62.78 L 106.96 63.79 L 107.92 64.45 L 108.50 64.25 L 108.88 63.84 L 109.28 63.46 L 109.68 63.07 L 110.06 62.67 L 110.46 62.29 L 111.73 61.02 L 113.00 59.74 L 114.28 58.47 L 115.55 57.20 L 116.82 55.93 L 118.10 54.65 L 119.08 53.67 L 118.60 52.41 L 117.52 50.98 L 116.43 49.54 L 116.20 49.23 L 117.58 50.38 L 118.96 51.54 L 120.34 52.70 L 121.02 53.27 L 120.65 52.11 L 121.04 51.72 L 121.42 51.32 L 122.70 50.05 L 123.97 48.78 L 125.24 47.51 L 126.52 46.23 L 127.79 44.96 L 129.06 43.69 L 130.33 42.41 L 131.61 41.14 L 132.88 39.87 L 134.15 38.60 L 135.43 37.32 L 136.70 36.05 L 137.97 34.78 L 139.24 33.50 L 140.52 32.23 L 141.79 30.96 L 143.06 29.69 L 144.34 28.41 L 145.61 27.14 L 146.88 25.87 L 148.15 24.59 L 148.54 24.21 L 150.04 25.21 L 151.27 26.03 L 149.99 27.30 L 148.72 28.57 L 147.45 29.85 L 146.18 31.12 L 144.90 32.39 L 143.63 33.67 L 142.36 34.94 L 141.08 36.21 L 139.81 37.48 L 138.54 38.76 L 137.27 40.03 L 135.99 41.30 L 134.72 42.58 L 133.45 43.85 L 132.17 45.12 L 130.90 46.39 L 129.63 47.67 L 128.36 48.94 L 127.08 50.21 L 125.81 51.48 L 124.54 52.76 L 123.70 53.60 L 123.23 53.91 L 121.72 52.93 L 120.99 52.46 L 119.72 51.96 L 120.89 53.33 L 122.06 54.70 L 123.23 56.07 L 124.32 57.36 L 122.84 56.34 L 121.85 55.66 L 122.99 57.06 L 124.12 58.46 L 125.26 59.85 L 125.30 59.90 L 123.90 58.77 L 122.50 57.64 L 121.29 56.68 L 119.94 55.49 L 118.59 54.30 L 117.24 53.11 L 115.89 51.92 L 114.78 50.94 L 115.97 52.30 L 117.16 53.65 L 118.35 55.00 L 119.53 56.35 L 120.48 57.43 L 119.81 57.54 L 119.39 57.91 L 118.12 59.18 L 116.85 60.45 L 115.57 61.72 L 114.30 63.00 L 113.52 63.78 L 114.41 65.34 L 114.56 65.60 L 115.70 66.99 L 116.85 68.38 L 117.99 69.77 L 118.25 70.08 L 116.88 68.92 L 115.51 67.75 L 114.13 66.59 L 113.12 65.73 L 111.77 64.54 L 110.43 63.34 L 109.08 62.15 L 107.74 60.95 L 106.39 59.76 L 106.15 59.55 L 107.35 60.90 L 108.54 62.24 L 109.73 63.59 L 110.93 64.94 L 112.12 66.28 L 112.26 66.44 L 113.38 67.85 L 114.50 69.26 L 115.28 70.24 L 113.89 69.10 L 112.50 67.96 L 111.11 66.81 L 110.86 66.61 L 110.38 66.91 L 109.99 67.30 L 109.60 67.69 L 109.21 68.09 L 107.94 69.36 L 106.66 70.63 L 105.68 71.61 L 105.28 72.00 L 104.90 72.40 L 103.84 72.12 L 102.31 71.17 L 101.77 70.83 L 102.82 72.30 L 103.73 73.57 L 102.45 74.84 L 101.18 76.12 L 100.20 77.09 L 99.79 77.47 L 99.40 77.86 L 98.99 78.23 L 97.67 77.70 L 96.25 76.59 L 94.83 75.49 L 94.18 74.99 L 95.39 76.32 L 96.60 77.65 L 97.81 78.98 L 99.03 80.32 L 100.24 81.65 L 101.45 82.98 L 102.08 83.68 L 100.86 83.24 L 99.50 82.07 L 98.13 80.90 L 96.77 79.72 L 95.40 78.55 L 95.30 78.46 L 96.25 79.98 L 96.59 80.53 L 96.26 80.99 L 95.89 81.40 L 94.62 82.68 L 93.35 83.95 L 92.07 85.22 L 90.80 86.49 L 89.53 87.77 L 88.26 89.04 L 86.98 90.31 L 85.71 91.59 L 84.44 92.86 L 83.17 94.13 L 81.89 95.40 L 80.62 96.68 L 79.35 97.95 L 78.07 99.22 L 76.80 100.49 L 75.53 101.77 L 74.26 103.04 L 72.98 104.31 L 71.71 105.59 L 70.44 106.86 L 69.16 108.13 L 68.87 108.43 L 68.46 108.79 L 68.04 109.16 L 67.61 109.52 L 66.19 108.41 L 64.77 107.31 L 64.12 106.81 L 64.36 107.83 L 65.49 109.24 L 66.61 110.65 L 67.45 111.70 L 66.13 111.17 L 64.86 112.44 L 63.58 113.71 L 62.31 114.99 L 61.04 116.26 L 59.76 117.53 L 58.49 118.80 L 57.22 120.08 L 55.95 121.35 L 55.58 121.76 L 56.75 123.13 L 57.93 124.49 L 59.11 125.85 L 60.28 127.21 L 60.53 127.49 L 59.16 126.32 L 57.80 125.14 L 56.44 123.96 L 55.08 122.79 L 54.78 122.53 L 54.38 122.91 L 53.99 123.31 L 53.60 123.70 L 52.32 124.97 L 51.05 126.24 L 49.78 127.52 L 49.29 128.01 L 48.50 128.79 L 48.11 129.18 L 47.40 129.25 L 46.04 128.07 L 44.67 126.89 L 43.31 125.71 L 41.95 124.54 L 41.59 124.22 L 42.77 125.58 L 43.95 126.93 L 45.14 128.29 L 46.32 129.65 L 46.91 130.33 L 48.08 131.70 L 49.24 133.07 L 50.41 134.44 L 51.34 135.54 L 49.96 134.37 L 48.59 133.21 L 47.22 132.04 L 46.16 131.15 L 45.76 131.53 L 44.49 132.80 L 43.22 134.08 L 41.95 135.35 L 40.67 136.62 L 39.40 137.89 L 38.13 139.17 L 36.85 140.44 L 35.58 141.71 L 34.31 142.99 L 33.04 144.26 L 31.76 145.53 L 30.49 146.80 L 29.22 148.08 L 27.94 149.35 L 26.67 150.62 L 26.03 151.27 L 27.08 152.73 L 27.93 153.91 L 29.21 152.64 L 30.48 151.36 L 31.75 150.09 L 33.02 148.82 L 34.30 147.55 L 35.57 146.27 L 36.84 145.00 L 38.12 143.73 L 39.39 142.45 L 40.66 141.18 L 41.93 139.91 L 43.21 138.64 L 44.48 137.36 L 45.30 136.55 L 45.69 136.15 L 46.08 135.77 L 46.47 135.37 L 47.67 135.79 L 49.07 136.93 L 50.47 138.06 L 51.86 139.20 L 50.65 137.86 L 49.44 136.53 L 48.23 135.20 L 47.02 133.87 L 45.81 132.54 L 44.60 131.20 L 44.06 130.61 L 44.02 129.79 L 45.43 130.91 L 46.83 132.04 L 47.93 132.92 L 48.80 133.00 L 49.21 132.63 L 50.49 131.36 L 51.76 130.08 L 53.03 128.81 L 54.30 127.54 L 55.58 126.27 L 56.85 124.99 L 57.44 124.41 L 57.77 123.96 L 58.21 123.61 L 59.58 124.77 L 60.95 125.94 L 62.32 127.10 L 63.42 128.04 L 62.26 126.66 L 61.09 125.29 L 59.93 123.92 L 59.05 122.88 L 59.51 122.56 L 59.79 122.06 L 60.20 121.69 L 61.38 120.51 L 61.75 120.10 L 63.02 118.82 L 64.29 117.55 L 65.56 116.28 L 66.44 115.40 L 66.95 115.12 L 67.27 114.66 L 68.84 115.55 L 69.10 115.70 L 67.94 114.32 L 66.78 112.94 L 65.62 111.57 L 64.95 110.77 L 64.69 109.72 L 66.09 110.86 L 67.49 111.99 L 68.77 113.03 L 69.95 111.85 L 70.36 111.48 L 71.63 110.21 L 72.91 108.94 L 74.18 107.66 L 75.45 106.39 L 76.72 105.12 L 78.00 103.85 L 79.27 102.57 L 80.54 101.30 L 81.82 100.03 L 83.09 98.75 L 84.36 97.48 L 85.63 96.21 L 86.91 94.94 L 88.18 93.66 L 89.45 92.39 L 90.73 91.12 L 92.00 89.84 L 93.27 88.57 L 94.54 87.30 L 95.82 86.03 L 97.09 84.75 L 98.36 83.48 L 98.95 82.89 L 99.30 82.46 L 99.71 82.09 L 100.49 81.30 L 100.64 80.67 L 101.18 80.42 L 102.53 81.61 L 103.89 82.80 L 105.24 83.98 L 106.60 85.17 L 107.46 85.92 L 106.26 84.57 L 105.06 83.23 L 103.86 81.89 L 102.67 80.54 L 101.47 79.20 L 101.00 78.68 L 99.86 77.29 L 98.72 75.90 L 97.57 74.51 L 97.40 74.29 L 98.78 75.45 L 100.16 76.60 L 101.53 77.76 L 102.24 78.35 L 103.18 78.50 L 103.65 78.19 L 104.39 77.37 L 103.64 75.84 L 105.00 77.02 L 106.36 78.20 L 107.72 79.38 L 109.08 80.56 L 109.62 81.03 L 108.50 79.62 L 107.39 78.21 L 106.64 77.26 L 106.04 75.89 L 106.39 75.45 L 107.66 74.18 L 108.94 72.91 L 110.21 71.63 L 111.48 70.36 L 112.75 69.09 L 114.03 67.82 L 114.62 67.23 L 115.03 66.86 L 115.44 66.49 L 116.97 67.44 L 117.53 67.79 L 116.41 66.38 L 115.29 64.97 L 114.51 63.99 L 113.39 62.59 L 112.26 61.18 L 111.34 60.04 L 112.68 61.25 L 114.01 62.46 L 115.34 63.67 L 116.67 64.88 L 118.00 66.09 L 119.34 67.31 L 119.95 67.86 L 121.49 68.78 L 121.88 69.01 L 120.73 67.63 L 119.58 66.24 L 118.43 64.86 L 118.04 64.39 L 118.14 63.70 L 118.54 63.32 L 118.92 62.92 L 120.20 61.65 L 120.49 61.35 L 120.88 60.97 L 121.21 60.51 L 120.03 59.15 L 118.85 57.79 L 117.67 56.43 L 116.49 55.08 L 116.04 54.56 L 117.38 55.76 L 118.72 56.97 L 120.05 58.17 L 121.39 59.38 L 122.73 60.58 L 123.96 61.69 L 125.10 62.05 L 124.03 60.60 L 122.96 59.15 L 122.86 59.02 L 123.25 58.63 L 123.62 58.22 L 124.41 57.44 L 124.88 57.12 L 125.56 57.03 L 127.15 57.89 L 127.28 57.96 L 126.08 56.62 L 124.87 55.28 L 123.67 53.94 L 122.47 52.60 L 121.26 51.27 L 120.34 50.24 L 121.71 51.41 L 123.08 52.58 L 124.44 53.76 L 125.81 54.92 L 127.21 56.05 L 128.62 57.17 L 129.76 58.09 L 128.66 56.66 L 127.56 55.23 L 127.15 54.70 L 127.58 54.34 L 128.03 54.01 L 128.32 53.52 L 129.59 52.25 L 130.28 51.56 L 130.71 51.21 L 131.06 50.78 L 131.53 50.46 L 131.85 50.00 L 133.12 48.72 L 134.39 47.45 L 135.67 46.18 L 136.94 44.90 L 138.21 43.63 L 139.48 42.36 L 140.76 41.09 L 142.03 39.81 L 143.30 38.54 L 144.57 37.27 L 145.85 36.00 L 147.12 34.72 L 148.39 33.45 L 149.67 32.18 L 150.94 30.90 L 152.21 29.63 L 153.48 28.36 L 153.91 27.93 L 155.33 29.04 L 156.47 29.92 L 155.20 31.19 L 153.92 32.47 L 152.65 33.74 L 151.38 35.01 L 150.11 36.28 L 148.83 37.56 L 147.56 38.83 L 146.29 40.10 L 145.01 41.37 L 143.74 42.65 L 142.47 43.92 L 141.20 45.19 L 139.92 46.47 L 138.65 47.74 L 137.38 49.01 L 136.11 50.28 L 135.29 51.09 L 134.87 51.45 L 133.89 51.26 L 132.47 50.16 L 131.05 49.05 L 130.36 48.51 L 131.50 49.91 L 132.63 51.31 L 133.73 52.66 L 133.30 53.02 L 131.75 52.11 L 131.42 51.92 L 131.70 52.98 L 132.26 54.32 L 131.79 54.64 L 131.38 55.01 L 130.99 55.40 L 130.64 55.83 L 131.11 57.10 L 132.28 58.47 L 133.44 59.84 L 134.61 61.21 L 135.52 62.29 L 134.16 61.11 L 132.80 59.93 L 131.45 58.75 L 130.09 57.57 L 129.56 57.11 L 129.03 57.36 L 128.62 57.73 L 127.44 58.91 L 127.07 59.32 L 125.90 60.49 L 125.49 60.87 L 124.31 62.04 L 123.90 62.41 L 122.52 61.26 L 121.14 60.10 L 119.76 58.95 L 119.08 58.38 L 119.92 59.97 L 119.96 60.04 L 121.17 61.38 L 122.37 62.72 L 123.57 64.06 L 124.78 65.40 L 125.98 66.74 L 126.95 67.82 L 125.57 66.67 L 124.18 65.52 L 122.80 64.37 L 122.37 64.02 L 123.42 65.48 L 124.34 66.77 L 122.97 65.60 L 121.60 64.43 L 120.23 63.26 L 118.98 62.20 L 117.50 61.18 L 116.49 60.49 L 117.70 61.82 L 118.91 63.15 L 120.13 64.48 L 121.34 65.81 L 122.55 67.14 L 123.76 68.47 L 124.50 69.28 L 122.99 68.30 L 122.26 67.82 L 120.75 66.84 L 120.02 66.37 L 119.63 66.76 L 119.24 67.15 L 118.85 67.54 L 118.45 67.93 L 118.06 68.32 L 117.28 69.11 L 116.89 69.50 L 115.62 70.77 L 114.34 72.05 L 113.07 73.32 L 111.80 74.59 L 110.52 75.86 L 109.45 76.94 L 108.66 77.72 L 108.27 78.12 L 107.49 78.90 L 106.97 79.17 L 105.49 78.14 L 104.38 77.36 L 102.95 76.27 L 101.52 75.18 L 101.10 74.86 L 102.31 76.20 L 103.53 77.53 L 104.74 78.86 L 105.95 80.19 L 107.16 81.52 L 108.37 82.85 L 109.04 83.59 L 108.39 83.72 L 106.96 82.63 L 105.52 81.54 L 105.11 81.22 L 104.75 81.64 L 104.36 82.03 L 103.96 82.42 L 103.57 82.81 L 103.17 83.20 L 102.79 83.60 L 101.52 84.87 L 100.24 86.14 L 98.97 87.42 L 97.70 88.69 L 96.43 89.96 L 95.15 91.24 L 93.88 92.51 L 92.61 93.78 L 91.33 95.05 L 90.06 96.33 L 88.79 97.60 L 87.52 98.87 L 86.24 100.15 L 84.97 101.42 L 83.70 102.69 L 82.42 103.96 L 81.15 105.24 L 79.88 106.51 L 78.61 107.78 L 77.33 109.06 L 76.06 110.33 L 74.79 111.60 L 73.51 112.87 L 72.24 114.15 L 70.97 115.42 L 69.89 116.50 L 68.33 115.60 L 68.04 115.43 L 66.65 114.28 L 65.26 113.13 L 63.88 111.98 L 63.51 111.68 L 64.70 113.03 L 65.89 114.38 L 67.08 115.73 L 68.27 117.09 L 69.26 118.22 L 68.33 118.06 L 67.05 119.34 L 65.78 120.61 L 64.51 121.88 L 64.41 121.98 L 64.05 122.40 L 63.63 122.76 L 63.35 123.27 L 64.43 124.71 L 65.51 126.15 L 65.70 126.40 L 66.75 127.86 L 67.76 129.25 L 66.42 128.05 L 65.07 126.86 L 63.73 125.66 L 62.38 124.46 L 61.04 123.27 L 60.69 122.96 L 61.55 124.55 L 61.62 124.68 L 61.28 125.11 L 60.00 126.38 L 58.73 127.66 L 57.46 128.93 L 56.19 130.20 L 54.91 131.48 L 53.64 132.75 L 52.37 134.02 L 51.09 135.29 L 50.70 135.69 L 50.29 136.06 L 49.92 136.47 L 49.53 136.86 L 49.11 137.23 L 47.64 136.19 L 46.43 135.33 L 45.00 134.25 L 43.56 133.16 L 43.21 132.89 L 44.42 134.22 L 45.63 135.55 L 46.85 136.88 L 48.06 138.21 L 49.27 139.54 L 50.48 140.87 L 51.27 141.74 L 49.67 140.92 L 48.19 139.90 L 47.18 139.21 L 45.90 140.48 L 44.63 141.76 L 43.36 143.03 L 42.09 144.30 L 40.81 145.57 L 39.54 146.85 L 38.27 148.12 L 37.00 149.39 L 35.72 150.67 L 34.45 151.94 L 33.18 153.21 L 31.90 154.48 L 30.63 155.76 L 29.92 156.47 L 29.92 156.47 L 31.07 157.85 L 31.99 158.95 L 33.26 157.67 L 34.53 156.40 L 35.81 155.13 L 37.08 153.85 L 38.35 152.58 L 39.63 151.31 L 40.90 150.04 L 42.17 148.76 L 43.44 147.49 L 44.72 146.22 L 45.99 144.95 L 47.26 143.67 L 47.49 143.44 L 47.89 143.05 L 49.35 144.11 L 50.74 145.12 L 51.54 145.14 L 50.40 143.75 L 49.26 142.36 L 48.12 140.96 L 48.01 140.83 L 49.44 141.47 L 49.84 141.09 L 51.12 139.82 L 52.39 138.55 L 53.66 137.27 L 54.93 136.00 L 56.21 134.73 L 57.48 133.46 L 58.75 132.18 L 60.02 130.91 L 61.30 129.64 L 62.57 128.36 L 63.55 127.39 L 63.93 126.98 L 64.72 126.20 L 65.08 125.78 L 65.50 125.42 L 65.88 125.02 L 64.86 123.53 L 64.16 122.51 L 64.84 122.41 L 66.17 123.61 L 67.51 124.81 L 68.85 126.02 L 70.19 127.22 L 71.52 128.43 L 72.73 129.51 L 71.60 128.11 L 70.47 126.71 L 69.53 125.53 L 68.53 124.03 L 67.97 123.19 L 68.25 122.69 L 68.65 122.30 L 69.04 121.91 L 69.44 121.53 L 69.78 121.09 L 68.60 119.73 L 67.42 118.37 L 66.23 117.01 L 65.05 115.66 L 64.48 115.00 L 65.82 116.20 L 67.16 117.41 L 68.50 118.61 L 69.83 119.81 L 71.17 121.02 L 72.22 121.96 L 71.28 120.42 L 71.00 119.96 L 71.38 119.55 L 72.66 118.28 L 73.93 117.01 L 75.20 115.73 L 76.47 114.46 L 77.75 113.19 L 79.02 111.92 L 80.29 110.64 L 81.56 109.37 L 82.84 108.10 L 84.11 106.82 L 85.38 105.55 L 86.66 104.28 L 87.93 103.01 L 89.20 101.73 L 90.47 100.46 L 91.75 99.19 L 93.02 97.92 L 94.29 96.64 L 95.57 95.37 L 96.84 94.10 L 98.11 92.82 L 99.38 91.55 L 100.66 90.28 L 101.93 89.01 L 103.20 87.73 L 104.48 86.46 L 105.75 85.19 L 107.02 83.91 L 108.20 82.74 L 108.59 82.36 L 108.98 81.96 L 109.37 81.56 L 110.69 82.10 L 112.11 83.20 L 113.54 84.30 L 114.11 84.74 L 112.90 83.41 L 111.68 82.08 L 110.47 80.74 L 109.26 79.41 L 108.04 78.08 L 106.83 76.75 L 106.03 75.88 L 107.59 76.78 L 107.89 76.96 L 109.32 78.06 L 110.74 79.16 L 111.39 79.67 L 111.72 79.22 L 112.11 78.82 L 112.50 78.43 L 112.90 78.04 L 114.17 76.77 L 115.44 75.49 L 116.71 74.22 L 117.99 72.95 L 119.26 71.68 L 120.53 70.40 L 121.80 69.13 L 122.29 68.64 L 122.69 68.25 L 123.08 67.86 L 123.47 67.47 L 124.84 68.05 L 126.25 69.17 L 127.66 70.29 L 128.63 71.06 L 127.42 69.73 L 126.21 68.41 L 124.99 67.08 L 123.78 65.75 L 122.57 64.42 L 121.35 63.09 L 120.44 62.09 L 121.88 63.18 L 123.31 64.26 L 123.68 64.54 L 125.25 65.33 L 125.82 65.12 L 127.09 63.84 L 128.36 62.57 L 129.64 61.30 L 130.91 60.02 L 131.69 59.24 L 131.88 58.65 L 131.98 57.97 L 133.42 59.05 L 134.87 60.12 L 135.10 60.30 L 134.07 58.83 L 133.26 57.68 L 134.66 58.80 L 136.07 59.93 L 137.22 60.85 L 136.03 59.50 L 134.84 58.15 L 133.65 56.80 L 132.46 55.45 L 131.34 54.19 L 132.78 55.27 L 134.23 56.35 L 134.43 56.50 L 134.83 56.11 L 135.21 55.71 L 136.48 54.43 L 136.77 54.14 L 136.92 53.50 L 135.78 52.10 L 134.64 50.71 L 133.50 49.32 L 133.43 49.23 L 134.81 50.39 L 136.18 51.55 L 137.56 52.71 L 138.45 53.46 L 138.35 52.58 L 138.74 52.19 L 139.14 51.81 L 139.53 51.41 L 140.80 50.14 L 142.07 48.86 L 143.34 47.59 L 144.62 46.32 L 145.89 45.05 L 147.16 43.77 L 148.44 42.50 L 149.71 41.23 L 150.98 39.95 L 152.25 38.68 L 153.53 37.41 L 154.80 36.14 L 156.07 34.86 L 157.34 33.59 L 158.62 32.32 L 158.95 31.99 L 160.28 33.19 L 161.34 34.14 L 160.07 35.41 L 158.80 36.69 L 157.52 37.96 L 156.25 39.23 L 154.98 40.51 L 153.70 41.78 L 152.43 43.05 L 151.16 44.32 L 149.89 45.60 L 148.61 46.87 L 147.34 48.14 L 146.07 49.42 L 144.79 50.69 L 143.52 51.96 L 142.98 52.51 L 142.58 52.89 L 142.19 53.29 L 141.77 53.65 L 140.20 52.77 L 139.99 52.66 L 138.60 51.51 L 137.21 50.36 L 135.82 49.22 L 135.51 48.96 L 136.70 50.30 L 137.90 51.65 L 139.09 53.00 L 140.29 54.34 L 141.48 55.69 L 141.67 55.90 L 140.23 55.25 L 139.86 55.66 L 139.45 56.03 L 139.06 56.42 L 138.69 56.84 L 137.90 57.62 L 137.51 58.01 L 136.73 58.80 L 136.32 59.17 L 136.03 59.66 L 137.19 61.04 L 138.35 62.42 L 139.51 63.80 L 140.15 64.56 L 138.66 63.55 L 137.71 62.91 L 136.27 61.84 L 134.82 60.77 L 134.71 60.69 L 134.36 61.12 L 133.09 62.40 L 131.81 63.67 L 130.54 64.94 L 129.27 66.22 L 127.99 67.49 L 126.72 68.76 L 126.53 68.96 L 125.11 67.85 L 123.69 66.74 L 122.89 66.11 L 121.33 65.33 L 122.54 66.66 L 123.76 67.99 L 124.97 69.32 L 126.18 70.65 L 127.39 71.98 L 128.61 73.31 L 129.37 74.15 L 127.87 73.16 L 127.08 72.65 L 125.60 71.62 L 124.53 70.88 L 124.17 71.30 L 123.78 71.70 L 122.51 72.97 L 121.24 74.24 L 119.97 75.52 L 118.69 76.79 L 117.42 78.06 L 116.15 79.33 L 115.95 79.53 L 114.69 79.05 L 113.30 77.90 L 111.92 76.74 L 110.54 75.59 L 109.99 75.14 L 111.11 76.55 L 112.22 77.97 L 112.88 78.81 L 114.04 80.18 L 115.21 81.55 L 116.37 82.92 L 117.31 84.02 L 115.88 82.93 L 114.45 81.84 L 113.99 81.49 L 113.64 81.92 L 113.21 82.27 L 111.94 83.54 L 110.67 84.82 L 109.39 86.09 L 108.12 87.36 L 106.85 88.64 L 105.57 89.91 L 104.30 91.18 L 103.03 92.45 L 101.76 93.73 L 100.48 95.00 L 99.21 96.27 L 97.94 97.55 L 96.66 98.82 L 95.39 100.09 L 94.12 101.36 L 92.85 102.64 L 91.57 103.91 L 90.30 105.18 L 89.03 106.45 L 87.76 107.73 L 86.48 109.00 L 85.21 110.27 L 83.94 111.55 L 82.66 112.82 L 81.39 114.09 L 80.12 115.36 L 78.85 116.64 L 77.57 117.91 L 76.30 119.18 L 75.03 120.46 L 73.75 121.73 L 73.66 121.83 L 73.28 122.24 L 72.87 122.61 L 72.48 123.00 L 72.16 123.46 L 73.31 124.84 L 74.46 126.22 L 75.61 127.61 L 76.09 128.18 L 74.76 126.97 L 73.44 125.75 L 72.11 124.54 L 70.78 123.33 L 69.45 122.12 L 68.12 120.90 L 67.18 120.05 L 67.47 121.13 L 68.68 122.47 L 69.88 123.80 L 71.08 125.14 L 72.28 126.48 L 73.49 127.82 L 74.36 128.80 L 72.96 127.66 L 71.57 126.52 L 70.17 125.39 L 70.13 125.35 L 69.84 125.84 L 69.35 126.13 L 68.97 126.54 L 67.80 127.72 L 67.39 128.09 L 66.12 129.37 L 64.84 130.64 L 63.57 131.91 L 62.30 133.18 L 61.03 134.46 L 59.75 135.73 L 58.48 137.00 L 57.21 138.27 L 55.93 139.55 L 54.66 140.82 L 53.39 142.09 L 52.12 143.37 L 51.74 143.77 L 51.33 144.15 L 50.94 144.54 L 50.63 145.01 L 50.21 145.38 L 49.77 145.72 L 50.04 146.77 L 49.42 146.93 L 48.59 146.89 L 47.32 148.16 L 46.05 149.44 L 44.77 150.71 L 43.50 151.98 L 42.23 153.25 L 40.95 154.53 L 39.68 155.80 L 38.41 157.07 L 37.14 158.35 L 35.86 159.62 L 34.59 160.89 L 34.14 161.34 L 35.39 162.64 L 36.38 163.65 L 37.65 162.38 L 38.92 161.11 L 40.19 159.84 L 41.47 158.56 L 42.74 157.29 L 44.01 156.02 L 45.28 154.74 L 46.56 153.47 L 47.83 152.20 L 49.10 150.93 L 50.38 149.65 L 51.65 148.38 L 52.92 147.11 L 54.19 145.84 L 55.47 144.56 L 56.74 143.29 L 58.01 142.02 L 59.29 140.74 L 60.56 139.47 L 61.83 138.20 L 63.10 136.93 L 64.38 135.65 L 65.65 134.38 L 66.92 133.11 L 67.71 132.32 L 68.10 131.93 L 68.49 131.54 L 68.88 131.15 L 69.66 130.37 L 70.06 129.97 L 70.45 129.58 L 70.84 129.19 L 71.23 128.80 L 72.63 129.93 L 74.03 131.06 L 75.24 132.03 L 74.21 130.55 L 73.41 129.41 L 72.21 128.07 L 71.01 126.73 L 69.81 125.39 L 68.61 124.05 L 67.41 122.71 L 66.78 122.00 L 68.19 123.13 L 69.59 124.25 L 70.73 125.17 L 72.22 126.18 L 73.19 126.84 L 74.46 125.57 L 75.73 124.30 L 77.01 123.02 L 78.28 121.75 L 79.55 120.48 L 80.82 119.20 L 82.10 117.93 L 83.37 116.66 L 84.64 115.39 L 85.92 114.11 L 87.19 112.84 L 88.46 111.57 L 89.73 110.29 L 91.01 109.02 L 92.28 107.75 L 93.55 106.48 L 94.83 105.20 L 96.10 103.93 L 97.37 102.66 L 98.64 101.39 L 99.92 100.11 L 101.19 98.84 L 102.46 97.57 L 103.74 96.29 L 105.01 95.02 L 106.28 93.75 L 107.55 92.48 L 108.83 91.20 L 110.10 89.93 L 111.37 88.66 L 112.64 87.38 L 113.92 86.11 L 115.19 84.84 L 115.88 84.15 L 116.25 83.74 L 116.66 83.37 L 117.44 82.59 L 117.81 82.18 L 118.21 81.79 L 117.89 80.69 L 119.25 81.87 L 120.61 83.05 L 121.97 84.23 L 123.33 85.40 L 123.78 85.79 L 122.73 84.33 L 121.75 82.98 L 120.71 81.52 L 119.79 80.24 L 120.18 79.84 L 120.58 79.45 L 121.85 78.18 L 123.12 76.91 L 124.10 75.93 L 124.49 75.54 L 124.88 75.14 L 125.26 74.74 L 124.11 73.36 L 122.95 71.98 L 121.80 70.60 L 121.25 69.94 L 122.63 71.09 L 124.01 72.24 L 125.40 73.39 L 125.88 73.80 L 127.24 74.98 L 128.59 76.17 L 129.94 77.35 L 131.30 78.54 L 132.20 79.33 L 131.02 77.97 L 129.84 76.61 L 128.66 75.25 L 127.48 73.89 L 127.09 73.44 L 127.23 72.80 L 128.51 71.52 L 129.78 70.25 L 131.05 68.98 L 132.32 67.71 L 133.60 66.43 L 134.87 65.16 L 136.14 63.89 L 137.02 63.01 L 137.42 62.62 L 136.24 61.25 L 135.06 59.89 L 133.89 58.53 L 132.71 57.17 L 132.47 56.88 L 133.87 58.00 L 135.28 59.13 L 136.32 59.95 L 137.83 60.93 L 138.55 61.40 L 138.97 61.04 L 139.37 60.66 L 140.65 59.38 L 141.92 58.11 L 143.19 56.84 L 143.68 56.35 L 145.14 57.41 L 146.56 58.45 L 148.10 59.39 L 148.59 59.69 L 147.38 58.36 L 146.16 57.03 L 144.95 55.70 L 143.73 54.37 L 142.52 53.04 L 141.31 51.71 L 140.36 50.68 L 141.74 51.83 L 143.13 52.98 L 144.51 54.13 L 144.98 54.52 L 145.62 54.37 L 146.03 54.00 L 147.30 52.73 L 148.58 51.45 L 149.85 50.18 L 151.12 48.91 L 152.40 47.63 L 153.67 46.36 L 154.94 45.09 L 156.21 43.82 L 157.49 42.54 L 158.76 41.27 L 160.03 40.00 L 161.30 38.72 L 162.58 37.45 L 163.65 36.38 L 164.90 37.67 L 165.89 38.69 L 164.61 39.96 L 163.34 41.24 L 162.07 42.51 L 160.79 43.78 L 159.52 45.05 L 158.25 46.33 L 156.98 47.60 L 155.70 48.87 L 154.43 50.14 L 153.16 51.42 L 151.89 52.69 L 150.61 53.96 L 149.34 55.24 L 148.70 55.88 L 149.87 57.25 L 151.04 58.61 L 152.21 59.98 L 153.36 61.33 L 151.94 60.22 L 150.52 59.12 L 149.85 58.60 L 148.50 57.40 L 147.15 56.21 L 145.80 55.02 L 144.46 53.82 L 143.11 52.63 L 143.00 52.53 L 144.15 53.91 L 145.31 55.28 L 146.47 56.66 L 147.13 57.45 L 145.86 58.72 L 144.58 59.99 L 143.31 61.26 L 142.82 61.75 L 142.39 62.11 L 141.99 62.49 L 141.65 62.93 L 140.17 61.91 L 139.11 61.17 L 140.28 62.54 L 141.45 63.91 L 142.62 65.27 L 143.80 66.64 L 143.83 66.68 L 142.40 65.59 L 140.97 64.50 L 140.57 64.20 L 140.10 64.51 L 139.71 64.91 L 139.30 65.28 L 138.02 66.55 L 136.75 67.82 L 135.48 69.10 L 134.21 70.37 L 132.93 71.64 L 131.66 72.92 L 130.39 74.19 L 129.11 75.46 L 128.72 75.85 L 128.37 76.28 L 127.94 76.64 L 128.17 77.65 L 129.25 79.09 L 130.34 80.52 L 130.57 80.83 L 129.23 79.62 L 127.90 78.42 L 126.56 77.21 L 125.22 76.00 L 123.89 74.80 L 122.55 73.59 L 122.48 73.52 L 123.06 74.89 L 124.25 76.23 L 125.45 77.58 L 126.65 78.92 L 127.84 80.27 L 129.04 81.61 L 129.37 81.98 L 127.96 80.87 L 126.55 79.75 L 125.61 79.00 L 125.32 79.50 L 124.81 79.77 L 124.02 80.55 L 125.09 82.00 L 126.16 83.45 L 126.22 83.53 L 124.80 82.42 L 123.38 81.31 L 122.61 80.71 L 121.61 80.49 L 122.42 82.08 L 122.06 82.51 L 120.79 83.78 L 119.52 85.06 L 118.25 86.33 L 116.97 87.60 L 115.70 88.87 L 114.43 90.15 L 113.16 91.42 L 111.88 92.69 L 110.61 93.97 L 109.34 95.24 L 108.06 96.51 L 106.79 97.78 L 105.52 99.06 L 104.25 100.33 L 102.97 101.60 L 101.70 102.88 L 100.43 104.15 L 99.15 105.42 L 97.88 106.69 L 96.61 107.97 L 95.34 109.24 L 94.06 110.51 L 92.79 111.78 L 91.52 113.06 L 90.25 114.33 L 88.97 115.60 L 87.70 116.88 L 86.43 118.15 L 85.15 119.42 L 83.88 120.69 L 82.61 121.97 L 81.34 123.24 L 80.06 124.51 L 78.79 125.79 L 77.52 127.06 L 76.24 128.33 L 75.46 129.11 L 75.05 129.49 L 73.88 130.66 L 73.50 131.07 L 72.05 130.41 L 70.99 130.12 L 72.12 131.52 L 73.25 132.92 L 74.34 134.26 L 75.42 135.70 L 76.49 137.14 L 76.66 137.36 L 75.29 136.18 L 73.93 135.01 L 72.57 133.83 L 71.21 132.65 L 70.93 132.41 L 69.54 131.27 L 68.14 130.13 L 66.75 128.99 L 66.61 128.88 L 67.73 130.28 L 68.86 131.68 L 69.77 132.82 L 70.90 134.21 L 72.04 135.61 L 73.18 137.00 L 73.27 137.10 L 73.55 138.17 L 72.14 137.04 L 70.74 135.92 L 69.60 135.01 L 68.25 133.82 L 66.89 132.64 L 65.54 131.45 L 64.18 130.27 L 63.40 129.58 L 64.59 130.93 L 65.79 132.27 L 66.99 133.62 L 68.18 134.97 L 69.38 136.31 L 69.66 136.63 L 70.76 138.05 L 71.86 139.48 L 72.28 140.03 L 70.89 138.90 L 69.49 137.76 L 68.10 136.62 L 68.04 136.57 L 67.64 136.95 L 66.85 137.73 L 65.57 139.00 L 64.30 140.28 L 63.03 141.55 L 61.75 142.82 L 60.48 144.09 L 59.21 145.37 L 57.94 146.64 L 56.66 147.91 L 55.39 149.19 L 54.12 150.46 L 52.85 151.73 L 51.57 153.00 L 50.30 154.28 L 49.03 155.55 L 47.75 156.82 L 46.48 158.09 L 45.21 159.37 L 43.94 160.64 L 42.66 161.91 L 41.39 163.19 L 40.12 164.46 L 38.84 165.73 L 38.69 165.89 L 40.04 167.09 L 41.09 168.04 L 42.36 166.76 L 43.63 165.49 L 44.90 164.22 L 46.18 162.95 L 47.45 161.67 L 48.72 160.40 L 49.99 159.13 L 51.27 157.85 L 52.54 156.58 L 53.81 155.31 L 55.09 154.04 L 56.36 152.76 L 57.63 151.49 L 58.90 150.22 L 60.18 148.94 L 61.45 147.67 L 62.72 146.40 L 63.99 145.13 L 65.27 143.85 L 66.54 142.58 L 67.81 141.31 L 67.94 141.18 L 68.34 140.79 L 68.73 140.40 L 70.10 141.57 L 71.46 142.74 L 72.83 143.91 L 74.19 145.08 L 74.23 145.12 L 73.05 143.76 L 71.87 142.40 L 70.69 141.04 L 69.51 139.69 L 68.99 139.09 L 68.79 138.11 L 70.29 138.83 L 70.61 138.37 L 71.08 138.05 L 72.35 136.77 L 73.62 135.50 L 74.90 134.23 L 76.17 132.95 L 77.44 131.68 L 78.71 130.41 L 79.99 129.14 L 81.26 127.86 L 82.53 126.59 L 83.80 125.32 L 85.08 124.04 L 86.35 122.77 L 87.62 121.50 L 88.90 120.23 L 90.17 118.95 L 91.44 117.68 L 92.71 116.41 L 93.99 115.13 L 95.26 113.86 L 96.53 112.59 L 97.81 111.32 L 99.08 110.04 L 100.35 108.77 L 101.62 107.50 L 102.90 106.23 L 104.17 104.95 L 105.44 103.68 L 106.72 102.41 L 107.99 101.13 L 109.26 99.86 L 110.53 98.59 L 111.81 97.32 L 113.08 96.04 L 114.35 94.77 L 115.62 93.50 L 116.90 92.22 L 118.17 90.95 L 119.44 89.68 L 120.72 88.41 L 121.99 87.13 L 123.26 85.86 L 124.53 84.59 L 125.12 84.00 L 125.44 83.54 L 125.90 83.22 L 126.28 82.81 L 125.14 81.42 L 123.99 80.03 L 122.84 78.65 L 122.58 78.33 L 123.92 79.53 L 125.26 80.74 L 126.59 81.94 L 127.93 83.15 L 129.27 84.35 L 130.48 85.45 L 131.55 85.73 L 130.43 84.33 L 129.30 82.93 L 128.35 81.75 L 128.26 80.87 L 128.68 80.51 L 129.04 80.08 L 130.31 78.81 L 131.58 77.54 L 132.86 76.27 L 134.13 74.99 L 135.40 73.72 L 136.67 72.45 L 137.95 71.17 L 139.22 69.90 L 140.49 68.63 L 141.77 67.36 L 143.04 66.08 L 143.14 65.99 L 143.54 65.60 L 143.95 65.24 L 144.44 64.94 L 143.25 63.58 L 142.07 62.23 L 140.88 60.87 L 139.70 59.52 L 138.96 58.68 L 140.32 59.86 L 141.68 61.03 L 143.05 62.21 L 144.41 63.39 L 144.78 63.71 L 145.40 63.55 L 145.88 63.24 L 147.15 61.97 L 148.42 60.70 L 149.70 59.43 L 149.79 59.33 L 150.10 58.85 L 150.46 58.43 L 151.93 59.11 L 153.30 60.27 L 154.68 61.43 L 156.06 62.59 L 156.91 63.31 L 155.73 61.94 L 154.56 60.58 L 153.38 59.22 L 152.21 57.85 L 152.05 57.66 L 152.14 56.98 L 153.42 55.71 L 154.69 54.43 L 155.96 53.16 L 157.24 51.89 L 158.51 50.61 L 159.78 49.34 L 161.05 48.07 L 162.33 46.80 L 163.60 45.52 L 164.87 44.25 L 166.14 42.98 L 167.42 41.70 L 168.08 41.13 L 169.23 42.52 L 170.11 43.56 L 168.83 44.84 L 167.56 46.11 L 166.29 47.38 L 165.02 48.65 L 163.74 49.93 L 162.47 51.20 L 161.20 52.47 L 159.92 53.75 L 158.65 55.02 L 157.38 56.29 L 156.11 57.56 L 154.83 58.84 L 154.81 58.86 L 153.45 57.68 L 152.09 56.50 L 150.74 55.31 L 149.38 54.13 L 148.74 53.58 L 149.93 54.92 L 151.12 56.27 L 152.32 57.62 L 153.51 58.97 L 154.67 60.28 L 153.74 60.14 L 153.31 60.50 L 152.85 60.82 L 151.58 62.09 L 150.31 63.36 L 149.72 63.95 L 149.34 64.36 L 148.95 64.75 L 148.64 65.22 L 149.79 66.60 L 150.95 67.98 L 152.10 69.36 L 152.64 70.01 L 151.26 68.85 L 149.88 67.69 L 148.50 66.54 L 147.78 65.93 L 147.39 66.33 L 146.98 66.69 L 145.70 67.97 L 144.43 69.24 L 143.16 70.51 L 141.89 71.78 L 140.61 73.06 L 139.34 74.33 L 138.07 75.60 L 136.79 76.88 L 135.52 78.15 L 134.25 79.42 L 132.98 80.69 L 131.70 81.97 L 131.32 82.37 L 130.93 82.76 L 130.53 83.14 L 130.15 83.54 L 129.76 83.94 L 129.35 84.32 L 129.03 84.78 L 129.64 86.17 L 128.16 85.14 L 127.08 84.40 L 125.68 83.27 L 124.29 82.13 L 122.99 81.09 L 124.16 82.46 L 125.32 83.83 L 126.49 85.21 L 127.40 86.27 L 127.01 86.68 L 126.61 87.06 L 125.34 88.33 L 124.07 89.60 L 122.79 90.88 L 121.52 92.15 L 120.25 93.42 L 118.98 94.69 L 117.70 95.97 L 116.43 97.24 L 115.16 98.51 L 113.88 99.79 L 112.61 101.06 L 111.34 102.33 L 110.07 103.60 L 108.79 104.88 L 107.52 106.15 L 106.25 107.42 L 104.97 108.70 L 103.70 109.97 L 102.43 111.24 L 101.16 112.51 L 99.88 113.79 L 98.61 115.06 L 97.34 116.33 L 96.07 117.60 L 94.79 118.88 L 93.52 120.15 L 92.25 121.42 L 90.97 122.70 L 89.70 123.97 L 88.43 125.24 L 87.16 126.51 L 85.88 127.79 L 84.61 129.06 L 83.34 130.33 L 82.06 131.61 L 80.79 132.88 L 79.52 134.15 L 78.25 135.42 L 76.97 136.70 L 75.70 137.97 L 74.43 139.24 L 73.15 140.51 L 71.88 141.79 L 71.78 141.89 L 71.43 142.31 L 71.00 142.67 L 71.58 144.03 L 72.74 145.41 L 73.90 146.79 L 75.06 148.16 L 75.75 148.98 L 74.39 147.81 L 73.03 146.63 L 71.67 145.45 L 70.31 144.27 L 69.91 143.92 L 69.43 144.23 L 68.16 145.51 L 66.89 146.78 L 65.62 148.05 L 64.34 149.33 L 63.07 150.60 L 61.80 151.87 L 60.53 153.14 L 59.25 154.42 L 57.98 155.69 L 56.71 156.96 L 55.43 158.24 L 54.16 159.51 L 52.89 160.78 L 51.62 162.05 L 50.34 163.33 L 49.07 164.60 L 47.80 165.87 L 46.52 167.15 L 45.25 168.42 L 43.98 169.69 L 43.98 169.69 L 43.61 170.15 L 45.04 171.25 L 46.12 172.09 L 47.40 170.82 L 48.67 169.55 L 49.94 168.27 L 51.21 167.00 L 52.49 165.73 L 53.76 164.46 L 55.03 163.18 L 56.31 161.91 L 57.58 160.64 L 58.85 159.36 L 60.12 158.09 L 61.40 156.82 L 62.67 155.55 L 63.94 154.27 L 65.22 153.00 L 66.49 151.73 L 67.76 150.46 L 69.03 149.18 L 70.31 147.91 L 70.53 147.68 L 70.96 147.33 L 72.32 148.51 L 73.68 149.69 L 75.04 150.87 L 76.40 152.06 L 76.94 152.53 L 75.79 151.15 L 74.63 149.77 L 73.48 148.39 L 72.90 147.71 L 72.13 146.15 L 72.51 145.74 L 72.88 145.33 L 74.16 144.06 L 75.43 142.79 L 76.70 141.52 L 77.97 140.24 L 79.25 138.97 L 80.52 137.70 L 81.79 136.42 L 83.06 135.15 L 84.34 133.88 L 85.61 132.61 L 86.88 131.33 L 88.16 130.06 L 89.43 128.79 L 90.70 127.51 L 91.97 126.24 L 93.25 124.97 L 94.52 123.70 L 95.79 122.42 L 97.07 121.15 L 98.34 119.88 L 99.61 118.61 L 100.88 117.33 L 102.16 116.06 L 103.43 114.79 L 104.70 113.51 L 105.98 112.24 L 107.25 110.97 L 108.52 109.70 L 109.79 108.42 L 111.07 107.15 L 112.34 105.88 L 113.61 104.60 L 114.88 103.33 L 116.16 102.06 L 117.43 100.79 L 118.70 99.51 L 119.98 98.24 L 121.25 96.97 L 122.52 95.69 L 123.79 94.42 L 125.07 93.15 L 126.34 91.88 L 127.32 90.90 L 127.73 90.52 L 128.10 90.11 L 128.53 89.76 L 129.42 89.87 L 128.23 88.52 L 127.04 87.17 L 125.85 85.82 L 124.66 84.47 L 123.63 83.29 L 125.03 84.43 L 126.43 85.56 L 127.76 86.63 L 129.26 87.63 L 130.06 88.16 L 131.33 86.88 L 132.61 85.61 L 133.88 84.34 L 135.15 83.07 L 136.42 81.79 L 137.70 80.52 L 138.97 79.25 L 140.24 77.97 L 141.52 76.70 L 142.79 75.43 L 144.06 74.16 L 145.33 72.88 L 146.61 71.61 L 147.88 70.34 L 149.15 69.06 L 150.43 67.79 L 150.78 67.37 L 151.23 67.03 L 151.60 66.62 L 151.99 66.22 L 153.26 64.95 L 154.54 63.68 L 155.81 62.41 L 156.30 61.92 L 156.70 61.53 L 157.09 61.14 L 158.48 62.28 L 159.88 63.42 L 161.27 64.56 L 161.36 64.63 L 160.23 63.24 L 159.09 61.84 L 157.95 60.45 L 157.89 60.37 L 158.26 59.96 L 159.53 58.69 L 160.80 57.41 L 162.08 56.14 L 163.35 54.87 L 164.62 53.59 L 165.89 52.32 L 167.17 51.05 L 168.44 49.78 L 169.71 48.50 L 170.99 47.23 L 172.09 46.12 L 173.14 47.58 L 174.00 48.77 L 172.72 50.04 L 171.45 51.31 L 170.18 52.59 L 168.90 53.86 L 167.63 55.13 L 166.36 56.40 L 165.09 57.68 L 163.81 58.95 L 162.54 60.22 L 161.27 61.50 L 159.99 62.77 L 158.72 64.04 L 157.45 65.31 L 156.18 66.59 L 154.90 67.86 L 153.87 68.89 L 153.47 69.27 L 153.09 69.67 L 151.82 70.95 L 150.54 72.22 L 149.27 73.49 L 148.00 74.76 L 146.73 76.04 L 145.45 77.31 L 144.18 78.58 L 142.91 79.86 L 141.63 81.13 L 140.36 82.40 L 139.09 83.67 L 137.82 84.95 L 136.54 86.22 L 135.27 87.49 L 134.00 88.77 L 132.72 90.04 L 132.33 90.43 L 131.93 90.81 L 131.54 91.20 L 131.16 91.60 L 129.75 90.48 L 128.34 89.36 L 127.32 88.55 L 125.89 87.90 L 127.06 89.26 L 128.24 90.63 L 129.42 91.99 L 130.59 93.35 L 130.84 93.64 L 129.70 93.28 L 129.20 93.56 L 127.93 94.83 L 126.66 96.11 L 125.38 97.38 L 124.11 98.65 L 122.84 99.93 L 121.56 101.20 L 120.29 102.47 L 119.02 103.74 L 117.75 105.02 L 116.47 106.29 L 115.20 107.56 L 113.93 108.84 L 112.65 110.11 L 111.38 111.38 L 110.11 112.65 L 108.84 113.93 L 107.56 115.20 L 106.29 116.47 L 105.02 117.75 L 103.74 119.02 L 102.47 120.29 L 101.20 121.56 L 99.93 122.84 L 98.65 124.11 L 97.38 125.38 L 96.11 126.66 L 94.83 127.93 L 93.56 129.20 L 92.29 130.47 L 91.02 131.75 L 89.74 133.02 L 88.47 134.29 L 87.20 135.56 L 85.93 136.84 L 84.65 138.11 L 83.38 139.38 L 82.11 140.66 L 80.83 141.93 L 79.56 143.20 L 78.29 144.47 L 77.02 145.75 L 75.74 147.02 L 74.47 148.29 L 73.98 148.78 L 73.61 149.19 L 73.20 149.57 L 73.70 150.85 L 74.86 152.22 L 76.02 153.59 L 77.18 154.97 L 78.01 155.94 L 76.65 154.76 L 75.29 153.58 L 73.93 152.40 L 72.57 151.22 L 72.02 150.74 L 70.75 152.01 L 69.48 153.28 L 68.20 154.56 L 66.93 155.83 L 65.66 157.10 L 64.39 158.38 L 63.11 159.65 L 61.84 160.92 L 60.57 162.19 L 59.29 163.47 L 58.02 164.74 L 56.75 166.01 L 55.48 167.29 L 54.20 168.56 L 52.93 169.83 L 51.66 171.10 L 50.39 172.38 L 49.11 173.65 L 49.11 173.65 L 48.84 174.04 L 50.34 175.04 L 51.50 175.81 L 52.77 174.54 L 54.04 173.27 L 55.32 171.99 L 56.59 170.72 L 57.86 169.45 L 59.13 168.18 L 60.41 166.90 L 61.68 165.63 L 62.95 164.36 L 64.23 163.08 L 65.50 161.81 L 66.77 160.54 L 68.04 159.27 L 69.32 157.99 L 70.59 156.72 L 71.86 155.45 L 72.34 154.97 L 73.12 154.19 L 74.48 155.37 L 75.84 156.55 L 77.20 157.73 L 78.55 158.92 L 79.15 159.44 L 77.98 158.08 L 76.80 156.72 L 75.62 155.35 L 74.44 153.99 L 74.10 153.61 L 74.32 153.04 L 74.69 152.62 L 75.96 151.35 L 77.23 150.08 L 78.51 148.80 L 79.78 147.53 L 81.05 146.26 L 82.32 144.98 L 83.60 143.71 L 84.87 142.44 L 86.14 141.17 L 87.42 139.89 L 88.69 138.62 L 89.96 137.35 L 91.23 136.08 L 92.51 134.80 L 93.78 133.53 L 95.05 132.26 L 96.32 130.98 L 97.60 129.71 L 98.87 128.44 L 100.14 127.17 L 101.42 125.89 L 102.69 124.62 L 103.96 123.35 L 105.23 122.08 L 106.51 120.80 L 107.78 119.53 L 109.05 118.26 L 110.33 116.98 L 111.60 115.71 L 112.87 114.44 L 114.14 113.17 L 115.42 111.89 L 116.69 110.62 L 117.96 109.35 L 119.24 108.07 L 120.51 106.80 L 121.78 105.53 L 123.05 104.26 L 124.33 102.98 L 125.60 101.71 L 126.87 100.44 L 128.15 99.16 L 129.42 97.89 L 130.69 96.62 L 132.03 97.18 L 130.84 95.83 L 129.64 94.49 L 128.45 93.14 L 127.25 91.79 L 126.05 90.45 L 125.80 90.16 L 127.20 91.30 L 128.60 92.43 L 129.94 93.52 L 131.45 94.50 L 132.18 94.98 L 132.63 94.64 L 133.04 94.27 L 134.31 93.00 L 135.59 91.72 L 136.86 90.45 L 138.13 89.18 L 139.40 87.90 L 140.68 86.63 L 141.95 85.36 L 143.22 84.09 L 144.50 82.81 L 145.77 81.54 L 147.04 80.27 L 148.31 79.00 L 149.59 77.72 L 150.86 76.45 L 152.13 75.18 L 153.40 73.90 L 154.68 72.63 L 155.95 71.36 L 157.22 70.09 L 158.50 68.81 L 159.77 67.54 L 161.04 66.27 L 162.31 64.99 L 163.59 63.72 L 164.86 62.45 L 166.13 61.18 L 167.41 59.90 L 168.68 58.63 L 169.95 57.36 L 171.22 56.08 L 172.50 54.81 L 173.77 53.54 L 175.04 52.27 L 175.81 51.50 L 176.75 53.03 L 177.54 54.31 L 176.27 55.59 L 175.00 56.86 L 173.72 58.13 L 172.45 59.41 L 171.18 60.68 L 169.91 61.95 L 168.63 63.22 L 167.36 64.50 L 166.09 65.77 L 164.81 67.04 L 163.54 68.31 L 162.27 69.59 L 161.00 70.86 L 159.72 72.13 L 158.45 73.41 L 157.18 74.68 L 155.91 75.95 L 154.63 77.22 L 153.36 78.50 L 152.09 79.77 L 150.81 81.04 L 149.54 82.32 L 148.27 83.59 L 147.00 84.86 L 145.72 86.13 L 144.45 87.41 L 143.18 88.68 L 141.90 89.95 L 140.63 91.23 L 139.36 92.50 L 138.09 93.77 L 136.81 95.04 L 135.54 96.32 L 134.53 97.33 L 134.12 97.70 L 133.73 98.09 L 133.36 98.50 L 132.94 98.87 L 131.79 98.50 L 130.41 97.33 L 129.04 96.17 L 127.67 95.01 L 126.62 94.12 L 127.82 95.47 L 129.01 96.82 L 130.20 98.17 L 131.39 99.52 L 132.45 100.73 L 131.60 100.66 L 131.01 100.85 L 129.73 102.12 L 128.46 103.40 L 127.19 104.67 L 125.91 105.94 L 124.64 107.21 L 123.37 108.49 L 122.10 109.76 L 120.82 111.03 L 119.55 112.31 L 118.28 113.58 L 117.01 114.85 L 115.73 116.12 L 114.46 117.40 L 113.19 118.67 L 111.91 119.94 L 110.64 121.22 L 109.37 122.49 L 108.10 123.76 L 106.82 125.03 L 105.55 126.31 L 104.28 127.58 L 103.00 128.85 L 101.73 130.13 L 100.46 131.40 L 99.19 132.67 L 97.91 133.94 L 96.64 135.22 L 95.37 136.49 L 94.09 137.76 L 92.82 139.03 L 91.55 140.31 L 90.28 141.58 L 89.00 142.85 L 87.73 144.13 L 86.46 145.40 L 85.19 146.67 L 83.91 147.94 L 82.64 149.22 L 81.37 150.49 L 80.09 151.76 L 78.82 153.04 L 77.55 154.31 L 77.35 154.50 L 76.98 154.92 L 75.81 156.09 L 75.40 156.46 L 75.14 156.99 L 76.28 158.38 L 77.41 159.78 L 78.55 161.17 L 78.60 161.23 L 77.20 160.10 L 75.80 158.96 L 74.44 157.85 L 73.83 158.03 L 72.56 159.30 L 71.28 160.57 L 70.01 161.85 L 68.74 163.12 L 67.46 164.39 L 66.19 165.67 L 64.92 166.94 L 63.65 168.21 L 62.37 169.48 L 61.10 170.76 L 59.83 172.03 L 58.55 173.30 L 57.28 174.57 L 56.01 175.85 L 54.74 177.12 L 54.31 177.54 L 55.88 178.43 L 57.22 179.18 L 58.49 177.91 L 59.77 176.64 L 61.04 175.36 L 62.31 174.09 L 63.58 172.82 L 64.86 171.55 L 66.13 170.27 L 67.40 169.00 L 68.68 167.73 L 69.95 166.46 L 71.22 165.18 L 72.49 163.91 L 73.77 162.64 L 75.04 161.36 L 76.31 160.09 L 76.49 159.91 L 76.89 159.52 L 78.16 158.25 L 78.84 157.56 L 79.24 157.17 L 79.63 156.78 L 80.90 155.50 L 82.17 154.23 L 83.44 152.96 L 84.72 151.69 L 85.99 150.41 L 87.26 149.14 L 88.54 147.87 L 89.81 146.59 L 91.08 145.32 L 92.35 144.05 L 93.63 142.78 L 94.90 141.50 L 96.17 140.23 L 97.45 138.96 L 98.72 137.68 L 99.99 136.41 L 101.26 135.14 L 102.54 133.87 L 103.81 132.59 L 105.08 131.32 L 106.35 130.05 L 107.63 128.78 L 108.90 127.50 L 110.17 126.23 L 110.57 125.85 L 110.96 125.45 L 111.74 124.66 L 112.13 124.27 L 112.52 123.88 L 113.80 122.61 L 115.07 121.33 L 116.34 120.06 L 117.61 118.79 L 118.89 117.52 L 120.16 116.24 L 121.43 114.97 L 122.71 113.70 L 123.98 112.43 L 125.25 111.15 L 126.52 109.88 L 127.80 108.61 L 128.97 107.43 L 129.37 107.05 L 129.76 106.65 L 130.15 106.26 L 130.54 105.87 L 130.93 105.48 L 131.36 105.12 L 132.78 106.23 L 134.20 107.34 L 134.94 107.92 L 133.96 106.41 L 133.51 105.71 L 132.43 104.26 L 131.35 102.82 L 131.18 102.59 L 132.76 103.45 L 132.89 103.52 L 133.28 103.12 L 133.66 102.72 L 134.05 102.33 L 134.45 101.95 L 135.73 100.68 L 137.00 99.40 L 138.27 98.13 L 139.54 96.86 L 140.82 95.59 L 142.09 94.31 L 143.36 93.04 L 144.64 91.77 L 145.91 90.49 L 147.18 89.22 L 148.45 87.95 L 149.73 86.68 L 151.00 85.40 L 152.27 84.13 L 153.55 82.86 L 154.82 81.58 L 156.09 80.31 L 157.36 79.04 L 158.64 77.77 L 159.91 76.49 L 161.18 75.22 L 162.46 73.95 L 163.73 72.68 L 165.00 71.40 L 166.27 70.13 L 167.55 68.86 L 168.82 67.58 L 170.09 66.31 L 171.36 65.04 L 172.64 63.77 L 173.91 62.49 L 175.18 61.22 L 176.46 59.95 L 177.73 58.67 L 179.00 57.40 L 179.18 57.22 L 180.01 58.82 L 180.73 60.22 L 179.46 61.49 L 178.18 62.76 L 176.91 64.04 L 175.64 65.31 L 174.37 66.58 L 173.09 67.86 L 171.82 69.13 L 170.55 70.40 L 169.28 71.67 L 168.00 72.95 L 166.73 74.22 L 165.46 75.49 L 164.18 76.77 L 162.91 78.04 L 161.64 79.31 L 160.37 80.58 L 159.09 81.86 L 157.82 83.13 L 156.55 84.40 L 155.28 85.67 L 154.00 86.95 L 152.73 88.22 L 151.46 89.49 L 150.18 90.77 L 148.91 92.04 L 147.64 93.31 L 146.37 94.58 L 145.09 95.86 L 143.82 97.13 L 142.55 98.40 L 141.27 99.68 L 140.00 100.95 L 138.73 102.22 L 137.46 103.49 L 136.18 104.77 L 134.91 106.04 L 133.64 107.31 L 132.81 108.14 L 132.43 108.54 L 132.06 108.96 L 132.19 109.86 L 133.31 111.27 L 134.43 112.68 L 135.22 113.68 L 134.20 113.45 L 132.84 112.28 L 131.47 111.10 L 130.10 109.93 L 128.73 108.76 L 129.57 110.36 L 129.59 110.40 L 129.68 111.27 L 129.29 111.66 L 128.87 112.03 L 128.39 112.33 L 128.00 112.72 L 127.67 113.18 L 127.33 113.62 L 126.06 114.89 L 124.78 116.17 L 123.51 117.44 L 122.24 118.71 L 120.96 119.99 L 119.69 121.26 L 118.42 122.53 L 117.15 123.80 L 115.97 124.98 L 115.50 125.29 L 114.02 124.25 L 112.86 123.43 L 111.30 122.53 L 111.01 122.37 L 112.22 123.70 L 113.44 125.02 L 114.65 126.35 L 115.86 127.68 L 117.08 129.01 L 118.29 130.34 L 119.24 131.38 L 117.78 130.34 L 116.55 129.48 L 115.22 128.27 L 113.89 127.06 L 112.55 125.85 L 111.22 124.64 L 109.89 123.43 L 108.55 122.22 L 108.13 121.83 L 109.28 123.21 L 110.43 124.60 L 111.59 125.98 L 112.11 126.60 L 113.30 127.94 L 114.50 129.28 L 115.70 130.62 L 116.90 131.97 L 118.10 133.31 L 118.62 133.90 L 117.27 132.71 L 115.92 131.52 L 114.57 130.33 L 113.22 129.14 L 112.08 128.14 L 110.72 126.97 L 109.36 125.79 L 107.99 124.62 L 106.63 123.45 L 106.48 123.32 L 107.68 124.66 L 108.87 126.00 L 110.07 127.35 L 111.27 128.69 L 112.47 130.03 L 112.94 130.57 L 113.96 132.06 L 114.60 133.01 L 113.17 131.92 L 111.73 130.83 L 111.37 130.56 L 110.50 130.48 L 110.10 130.85 L 109.71 131.25 L 109.32 131.64 L 108.92 132.03 L 108.53 132.42 L 107.26 133.69 L 105.98 134.97 L 104.71 136.24 L 103.44 137.51 L 102.17 138.78 L 100.89 140.06 L 99.62 141.33 L 98.35 142.60 L 97.08 143.87 L 95.80 145.15 L 94.53 146.42 L 93.26 147.69 L 91.98 148.97 L 90.71 150.24 L 89.44 151.51 L 88.17 152.78 L 86.89 154.06 L 85.62 155.33 L 84.35 156.60 L 83.07 157.87 L 81.80 159.15 L 80.53 160.42 L 79.26 161.69 L 77.98 162.97 L 76.71 164.24 L 75.44 165.51 L 74.16 166.78 L 72.89 168.06 L 71.62 169.33 L 70.35 170.60 L 69.07 171.88 L 67.80 173.15 L 66.53 174.42 L 65.26 175.69 L 63.98 176.97 L 62.71 178.24 L 61.44 179.51 L 60.22 180.73 L 61.85 181.50 L 63.31 182.18 L 64.59 180.91 L 65.86 179.64 L 67.13 178.36 L 68.40 177.09 L 69.68 175.82 L 70.95 174.55 L 72.22 173.27 L 73.50 172.00 L 74.77 170.73 L 76.04 169.46 L 77.31 168.18 L 78.59 166.91 L 79.86 165.64 L 81.13 164.36 L 82.40 163.09 L 83.68 161.82 L 84.95 160.55 L 86.22 159.27 L 87.50 158.00 L 88.77 156.73 L 90.04 155.45 L 91.31 154.18 L 92.59 152.91 L 93.86 151.64 L 95.13 150.36 L 96.41 149.09 L 97.68 147.82 L 98.95 146.55 L 100.22 145.27 L 101.50 144.00 L 102.77 142.73 L 104.04 141.45 L 105.31 140.18 L 106.59 138.91 L 107.86 137.63 L 108.06 137.43 L 108.74 137.33 L 110.21 138.38 L 111.50 139.30 L 111.88 138.91 L 110.68 137.57 L 109.47 136.24 L 108.26 134.90 L 107.05 133.57 L 105.85 132.23 L 104.64 130.90 L 104.41 130.65 L 105.83 131.77 L 107.24 132.88 L 108.12 133.58 L 109.46 134.78 L 110.79 135.99 L 112.13 137.19 L 113.47 138.40 L 114.81 139.60 L 116.08 140.76 L 114.96 139.35 L 113.84 137.95 L 112.96 136.85 L 111.89 135.39 L 110.83 133.94 L 110.81 133.92 L 111.21 133.53 L 111.93 133.47 L 112.37 133.13 L 113.54 131.95 L 113.92 131.54 L 114.31 131.15 L 114.71 130.77 L 115.10 130.37 L 115.50 129.99 L 116.68 128.82 L 117.06 128.41 L 117.45 128.02 L 116.29 126.65 L 115.13 125.27 L 113.97 123.90 L 113.20 122.99 L 114.54 124.20 L 115.87 125.41 L 117.20 126.62 L 118.54 127.83 L 119.87 129.04 L 121.20 130.25 L 121.57 130.58 L 122.91 131.13 L 121.69 129.80 L 120.48 128.47 L 119.26 127.14 L 118.05 125.81 L 116.84 124.48 L 115.62 123.16 L 114.67 122.11 L 116.19 122.85 L 117.53 124.05 L 118.87 125.25 L 120.22 126.45 L 121.56 127.65 L 122.90 128.85 L 123.60 129.47 L 123.88 128.97 L 122.72 127.60 L 121.56 126.23 L 120.39 124.85 L 119.54 123.85 L 118.45 122.42 L 117.36 120.99 L 117.05 120.58 L 118.56 121.56 L 119.29 122.03 L 120.68 123.17 L 122.07 124.31 L 123.47 125.45 L 123.62 125.58 L 125.13 126.56 L 125.84 127.02 L 124.84 125.52 L 124.23 124.63 L 123.11 123.22 L 121.99 121.82 L 121.10 120.71 L 120.10 119.21 L 119.53 118.36 L 120.99 119.42 L 122.40 120.44 L 123.78 121.58 L 125.17 122.73 L 126.56 123.87 L 126.86 124.12 L 128.30 124.78 L 127.14 123.41 L 125.98 122.03 L 124.82 120.66 L 123.99 119.68 L 122.86 118.29 L 121.73 116.89 L 120.63 115.54 L 122.02 116.69 L 123.40 117.85 L 124.78 119.00 L 125.32 119.44 L 126.67 120.63 L 128.02 121.82 L 129.38 123.00 L 130.73 124.19 L 131.69 125.03 L 130.50 123.69 L 129.31 122.34 L 128.12 120.99 L 126.92 119.64 L 125.74 118.30 L 124.58 116.93 L 123.41 115.56 L 122.24 114.19 L 121.28 113.05 L 122.61 114.26 L 123.95 115.46 L 125.28 116.67 L 126.62 117.88 L 127.96 119.08 L 129.29 120.29 L 129.35 120.35 L 130.78 121.44 L 132.21 122.53 L 132.68 122.89 L 131.50 121.54 L 130.31 120.18 L 129.13 118.82 L 127.94 117.47 L 127.24 116.66 L 126.22 115.18 L 125.49 114.13 L 126.92 114.78 L 128.52 115.61 L 128.56 115.64 L 129.58 115.87 L 129.99 115.50 L 130.36 115.09 L 130.78 114.72 L 131.13 114.28 L 131.56 113.94 L 131.95 113.54 L 132.32 113.13 L 133.59 111.86 L 133.89 111.57 L 134.30 111.19 L 135.57 109.92 L 136.85 108.65 L 138.12 107.38 L 139.39 106.10 L 140.66 104.83 L 141.94 103.56 L 143.21 102.29 L 144.48 101.01 L 145.76 99.74 L 147.03 98.47 L 148.30 97.19 L 149.57 95.92 L 150.85 94.65 L 152.12 93.38 L 153.39 92.10 L 154.67 90.83 L 155.94 89.56 L 157.21 88.28 L 158.48 87.01 L 159.76 85.74 L 161.03 84.47 L 162.30 83.19 L 163.58 81.92 L 164.85 80.65 L 166.12 79.38 L 167.39 78.10 L 168.67 76.83 L 169.94 75.56 L 171.21 74.28 L 172.48 73.01 L 173.76 71.74 L 175.03 70.47 L 176.30 69.19 L 177.58 67.92 L 178.85 66.65 L 180.12 65.37 L 181.39 64.10 L 182.18 63.31 L 182.88 64.97 L 183.54 66.51 L 182.26 67.78 L 180.99 69.05 L 179.72 70.33 L 178.45 71.60 L 177.17 72.87 L 175.90 74.14 L 174.63 75.42 L 173.35 76.69 L 172.08 77.96 L 170.81 79.24 L 169.53 80.51 L 168.26 81.78 L 166.99 83.05 L 165.72 84.33 L 164.44 85.60 L 163.17 86.87 L 161.90 88.15 L 160.63 89.42 L 159.35 90.69 L 158.08 91.96 L 156.81 93.24 L 155.53 94.51 L 154.26 95.78 L 152.99 97.05 L 151.72 98.33 L 150.44 99.60 L 149.17 100.87 L 147.90 102.15 L 146.63 103.42 L 145.35 104.69 L 144.08 105.96 L 142.81 107.24 L 141.53 108.51 L 140.26 109.78 L 138.99 111.06 L 137.72 112.33 L 136.44 113.60 L 135.17 114.87 L 133.90 116.15 L 132.62 117.42 L 131.35 118.69 L 130.08 119.97 L 128.81 121.24 L 127.96 122.09 L 127.19 122.88 L 126.78 123.26 L 126.40 123.66 L 126.00 124.04 L 125.61 124.43 L 125.23 124.84 L 124.83 125.22 L 124.43 125.61 L 124.05 126.01 L 123.65 126.39 L 123.29 126.81 L 122.88 127.19 L 122.48 127.57 L 121.69 128.35 L 121.30 128.75 L 120.91 129.14 L 120.52 129.53 L 120.13 129.92 L 119.74 130.31 L 119.35 130.70 L 118.95 131.09 L 117.68 132.36 L 116.41 133.64 L 115.13 134.91 L 113.86 136.18 L 112.59 137.46 L 111.90 138.14 L 111.12 138.93 L 110.73 139.32 L 110.34 139.71 L 109.95 140.10 L 109.56 140.49 L 109.17 140.89 L 108.77 141.28 L 108.38 141.67 L 107.10 142.94 L 105.83 144.21 L 104.56 145.48 L 103.29 146.76 L 102.01 148.03 L 100.74 149.30 L 99.47 150.58 L 98.20 151.85 L 96.92 153.12 L 95.65 154.39 L 94.38 155.67 L 93.10 156.94 L 91.83 158.21 L 90.56 159.49 L 89.29 160.76 L 88.01 162.03 L 86.74 163.30 L 85.47 164.58 L 84.19 165.85 L 82.92 167.12 L 81.65 168.39 L 80.38 169.67 L 79.10 170.94 L 77.83 172.21 L 76.56 173.49 L 75.28 174.76 L 74.01 176.03 L 72.74 177.30 L 71.47 178.58 L 70.19 179.85 L 68.92 181.12 L 67.65 182.40 L 66.51 183.54 L 68.19 184.17 L 69.81 184.78 L 71.08 183.51 L 72.35 182.24 L 73.62 180.97 L 74.90 179.69 L 76.17 178.42 L 77.44 177.15 L 78.72 175.87 L 79.99 174.60 L 81.26 173.33 L 82.53 172.06 L 83.81 170.78 L 85.08 169.51 L 86.35 168.24 L 87.63 166.96 L 88.90 165.69 L 90.17 164.42 L 91.44 163.15 L 92.72 161.87 L 93.99 160.60 L 95.26 159.33 L 96.53 158.06 L 97.81 156.78 L 99.08 155.51 L 100.35 154.24 L 101.63 152.96 L 102.90 151.69 L 104.17 150.42 L 105.44 149.15 L 106.72 147.87 L 107.99 146.60 L 109.26 145.33 L 110.54 144.05 L 111.81 142.78 L 113.08 141.51 L 114.35 140.24 L 115.63 138.96 L 116.90 137.69 L 118.17 136.42 L 119.45 135.15 L 120.72 133.87 L 121.99 132.60 L 123.26 131.33 L 124.54 130.05 L 125.81 128.78 L 127.08 127.51 L 128.35 126.24 L 129.63 124.96 L 130.90 123.69 L 132.17 122.42 L 133.45 121.14 L 134.72 119.87 L 135.99 118.60 L 137.26 117.33 L 138.54 116.05 L 139.81 114.78 L 141.08 113.51 L 142.36 112.23 L 143.63 110.96 L 144.90 109.69 L 146.17 108.42 L 147.45 107.14 L 148.72 105.87 L 149.99 104.60 L 151.27 103.33 L 152.54 102.05 L 153.81 100.78 L 155.08 99.51 L 156.36 98.23 L 157.63 96.96 L 158.90 95.69 L 160.17 94.42 L 161.45 93.14 L 162.72 91.87 L 163.99 90.60 L 165.27 89.32 L 166.54 88.05 L 167.81 86.78 L 169.08 85.51 L 170.36 84.23 L 171.63 82.96 L 172.90 81.69 L 174.17 80.41 L 175.45 79.14 L 176.72 77.87 L 177.99 76.60 L 179.27 75.32 L 180.54 74.05 L 181.81 72.78 L 183.09 71.51 L 184.36 70.23 L 184.87 70.05 L 185.44 71.76 L 185.92 73.22 L 184.65 74.49 L 183.38 75.76 L 182.10 77.03 L 180.83 78.31 L 179.56 79.58 L 178.29 80.85 L 177.01 82.12 L 175.74 83.40 L 174.47 84.67 L 173.19 85.94 L 171.92 87.22 L 170.65 88.49 L 169.38 89.76 L 168.10 91.03 L 166.83 92.31 L 165.56 93.58 L 164.28 94.85 L 163.01 96.13 L 161.74 97.40 L 160.47 98.67 L 159.19 99.94 L 157.92 101.22 L 156.65 102.49 L 155.37 103.76 L 154.10 105.03 L 152.83 106.31 L 151.56 107.58 L 150.28 108.85 L 149.01 110.13 L 147.74 111.40 L 146.46 112.67 L 145.19 113.94 L 143.92 115.22 L 142.65 116.49 L 141.37 117.76 L 140.10 119.04 L 138.83 120.31 L 137.56 121.58 L 136.28 122.85 L 135.01 124.13 L 133.74 125.40 L 132.46 126.67 L 131.19 127.94 L 129.92 129.22 L 128.65 130.49 L 127.37 131.76 L 126.10 133.04 L 124.83 134.31 L 123.55 135.58 L 122.28 136.85 L 121.01 138.13 L 119.74 139.40 L 118.46 140.67 L 117.19 141.95 L 115.92 143.22 L 114.65 144.49 L 113.37 145.76 L 112.10 147.04 L 110.83 148.31 L 109.55 149.58 L 108.28 150.86 L 107.01 152.13 L 105.74 153.40 L 104.46 154.67 L 103.19 155.95 L 101.92 157.22 L 100.64 158.49 L 99.37 159.76 L 98.10 161.04 L 96.83 162.31 L 95.55 163.58 L 94.28 164.86 L 93.01 166.13 L 91.73 167.40 L 90.46 168.67 L 89.19 169.95 L 87.92 171.22 L 86.64 172.49 L 85.37 173.77 L 84.10 175.04 L 82.83 176.31 L 81.55 177.58 L 80.28 178.86 L 79.01 180.13 L 77.73 181.40 L 76.46 182.68 L 75.19 183.95 L 73.92 185.22 L 73.66 186.06 L 75.39 186.56 L 76.74 186.94 L 78.01 185.67 L 79.29 184.40 L 80.56 183.12 L 81.83 181.85 L 83.10 180.58 L 84.38 179.31 L 85.65 178.03 L 86.92 176.76 L 88.20 175.49 L 89.47 174.21 L 90.74 172.94 L 92.01 171.67 L 93.29 170.40 L 94.56 169.12 L 95.83 167.85 L 97.10 166.58 L 98.38 165.31 L 99.65 164.03 L 100.92 162.76 L 102.20 161.49 L 103.47 160.21 L 104.74 158.94 L 106.01 157.67 L 107.29 156.40 L 108.56 155.12 L 109.83 153.85 L 111.11 152.58 L 112.38 151.30 L 113.65 150.03 L 114.92 148.76 L 116.20 147.49 L 117.47 146.21 L 118.74 144.94 L 120.02 143.67 L 121.29 142.40 L 122.56 141.12 L 123.83 139.85 L 125.11 138.58 L 126.38 137.30 L 127.65 136.03 L 128.92 134.76 L 130.20 133.49 L 131.47 132.21 L 132.74 130.94 L 134.02 129.67 L 135.29 128.39 L 136.56 127.12 L 137.83 125.85 L 139.11 124.58 L 140.38 123.30 L 141.65 122.03 L 142.93 120.76 L 144.20 119.48 L 145.47 118.21 L 146.74 116.94 L 148.02 115.67 L 149.29 114.39 L 150.56 113.12 L 151.84 111.85 L 153.11 110.57 L 154.38 109.30 L 155.65 108.03 L 156.93 106.76 L 158.20 105.48 L 159.47 104.21 L 160.74 102.94 L 162.02 101.67 L 163.29 100.39 L 164.56 99.12 L 165.84 97.85 L 167.11 96.57 L 168.38 95.30 L 169.65 94.03 L 170.93 92.76 L 172.20 91.48 L 173.47 90.21 L 174.75 88.94 L 176.02 87.66 L 177.29 86.39 L 178.56 85.12 L 179.84 83.85 L 181.11 82.57 L 182.38 81.30 L 183.65 80.03 L 184.93 78.76 L 186.20 77.48 L 186.94 76.74 L 187.37 78.49 L 187.80 80.24 L 187.84 80.39 L 186.57 81.67 L 185.29 82.94 L 184.02 84.21 L 182.75 85.48 L 181.47 86.76 L 180.20 88.03 L 178.93 89.30 L 177.66 90.57 L 176.38 91.85 L 175.11 93.12 L 173.84 94.39 L 172.57 95.67 L 171.29 96.94 L 170.02 98.21 L 168.75 99.48 L 167.47 100.76 L 166.20 102.03 L 164.93 103.30 L 163.66 104.58 L 162.38 105.85 L 161.11 107.12 L 159.84 108.39 L 158.56 109.67 L 157.29 110.94 L 156.02 112.21 L 154.75 113.48 L 153.47 114.76 L 152.20 116.03 L 150.93 117.30 L 149.65 118.58 L 148.38 119.85 L 147.11 121.12 L 145.84 122.39 L 144.56 123.67 L 143.29 124.94 L 142.02 126.21 L 140.75 127.49 L 139.47 128.76 L 138.20 130.03 L 136.93 131.30 L 135.65 132.58 L 134.38 133.85 L 133.11 135.12 L 131.84 136.40 L 130.56 137.67 L 129.29 138.94 L 128.02 140.21 L 126.74 141.49 L 125.47 142.76 L 124.20 144.03 L 122.93 145.30 L 121.65 146.58 L 120.38 147.85 L 119.11 149.12 L 117.83 150.40 L 116.56 151.67 L 115.29 152.94 L 114.02 154.21 L 112.74 155.49 L 111.47 156.76 L 110.20 158.03 L 108.93 159.31 L 107.65 160.58 L 106.38 161.85 L 105.11 163.12 L 103.83 164.40 L 102.56 165.67 L 101.29 166.94 L 100.02 168.21 L 98.74 169.49 L 97.47 170.76 L 96.20 172.03 L 94.92 173.31 L 93.65 174.58 L 92.38 175.85 L 91.11 177.12 L 89.83 178.40 L 88.56 179.67 L 87.29 180.94 L 86.02 182.22 L 84.74 183.49 L 83.47 184.76 L 82.20 186.03 L 80.92 187.31 L 80.79 187.93 L 82.55 188.28 L 84.18 188.60 L 85.45 187.33 L 86.72 186.05 L 88.00 184.78 L 89.27 183.51 L 90.54 182.23 L 91.81 180.96 L 93.09 179.69 L 94.36 178.42 L 95.63 177.14 L 96.91 175.87 L 98.18 174.60 L 99.45 173.32 L 100.72 172.05 L 102.00 170.78 L 103.27 169.51 L 104.54 168.23 L 105.82 166.96 L 107.09 165.69 L 108.36 164.42 L 109.63 163.14 L 110.91 161.87 L 112.18 160.60 L 113.45 159.32 L 114.73 158.05 L 116.00 156.78 L 117.27 155.51 L 118.54 154.23 L 119.82 152.96 L 121.09 151.69 L 122.36 150.41 L 123.63 149.14 L 124.91 147.87 L 126.18 146.60 L 127.45 145.32 L 128.73 144.05 L 130.00 142.78 L 131.27 141.50 L 132.54 140.23 L 133.82 138.96 L 135.09 137.69 L 136.36 136.41 L 137.64 135.14 L 138.91 133.87 L 140.18 132.60 L 141.45 131.32 L 142.73 130.05 L 144.00 128.78 L 145.27 127.50 L 146.55 126.23 L 147.82 124.96 L 149.09 123.69 L 150.36 122.41 L 151.64 121.14 L 152.91 119.87 L 154.18 118.60 L 155.46 117.32 L 156.73 116.05 L 158.00 114.78 L 159.27 113.50 L 160.55 112.23 L 161.82 110.96 L 163.09 109.69 L 164.36 108.41 L 165.64 107.14 L 166.91 105.87 L 168.18 104.59 L 169.46 103.32 L 170.73 102.05 L 172.00 100.78 L 173.27 99.50 L 174.55 98.23 L 175.82 96.96 L 177.09 95.68 L 178.37 94.41 L 179.64 93.14 L 180.91 91.87 L 182.18 90.59 L 183.46 89.32 L 184.73 88.05 L 186.00 86.78 L 187.28 85.50 L 188.55 84.23 L 188.61 84.22 L 188.88 86.00 L 189.16 87.78 L 189.21 88.11 L 187.94 89.39 L 186.67 90.66 L 185.39 91.93 L 184.12 93.20 L 182.85 94.48 L 181.57 95.75 L 180.30 97.02 L 179.03 98.29 L 177.76 99.57 L 176.48 100.84 L 175.21 102.11 L 173.94 103.39 L 172.67 104.66 L 171.39 105.93 L 170.12 107.20 L 168.85 108.48 L 167.57 109.75 L 166.30 111.02 L 165.03 112.30 L 163.76 113.57 L 162.48 114.84 L 161.21 116.11 L 159.94 117.39 L 158.66 118.66 L 157.39 119.93 L 156.12 121.20 L 154.85 122.48 L 153.57 123.75 L 152.30 125.02 L 151.03 126.30 L 149.75 127.57 L 148.48 128.84 L 147.21 130.11 L 145.94 131.39 L 144.66 132.66 L 143.39 133.93 L 142.12 135.21 L 140.85 136.48 L 139.57 137.75 L 138.30 139.02 L 137.03 140.30 L 135.75 141.57 L 134.48 142.84 L 133.21 144.11 L 131.94 145.39 L 130.66 146.66 L 129.39 147.93 L 128.12 149.21 L 126.84 150.48 L 125.57 151.75 L 124.30 153.02 L 123.03 154.30 L 121.75 155.57 L 120.48 156.84 L 119.21 158.12 L 117.93 159.39 L 116.66 160.66 L 115.39 161.93 L 114.12 163.21 L 112.84 164.48 L 111.57 165.75 L 110.30 167.02 L 109.03 168.30 L 107.75 169.57 L 106.48 170.84 L 105.21 172.12 L 103.93 173.39 L 102.66 174.66 L 101.39 175.93 L 100.12 177.21 L 98.84 178.48 L 97.57 179.75 L 96.30 181.03 L 95.02 182.30 L 93.75 183.57 L 92.48 184.84 L 91.21 186.12 L 89.93 187.39 L 88.66 188.66 L 88.11 189.21 L 89.90 189.41 L 91.69 189.60 L 92.21 189.66 L 93.48 188.39 L 94.75 187.12 L 96.03 185.84 L 97.30 184.57 L 98.57 183.30 L 99.84 182.02 L 101.12 180.75 L 102.39 179.48 L 103.66 178.21 L 104.94 176.93 L 106.21 175.66 L 107.48 174.39 L 108.75 173.12 L 110.03 171.84 L 111.30 170.57 L 112.57 169.30 L 113.85 168.02 L 115.12 166.75 L 116.39 165.48 L 117.66 164.21 L 118.94 162.93 L 120.21 161.66 L 121.48 160.39 L 122.75 159.11 L 124.03 157.84 L 125.30 156.57 L 126.57 155.30 L 127.85 154.02 L 129.12 152.75 L 130.39 151.48 L 131.66 150.21 L 132.94 148.93 L 134.21 147.66 L 135.48 146.39 L 136.76 145.11 L 138.03 143.84 L 139.30 142.57 L 140.57 141.30 L 141.85 140.02 L 143.12 138.75 L 144.39 137.48 L 145.67 136.20 L 146.94 134.93 L 148.21 133.66 L 149.48 132.39 L 150.76 131.11 L 152.03 129.84 L 153.30 128.57 L 154.57 127.30 L 155.85 126.02 L 157.12 124.75 L 158.39 123.48 L 159.67 122.20 L 160.94 120.93 L 162.21 119.66 L 163.48 118.39 L 164.76 117.11 L 166.03 115.84 L 167.30 114.57 L 168.58 113.29 L 169.85 112.02 L 171.12 110.75 L 172.39 109.48 L 173.67 108.20 L 174.94 106.93 L 176.21 105.66 L 177.48 104.39 L 178.76 103.11 L 180.03 101.84 L 181.30 100.57 L 182.58 99.29 L 183.85 98.02 L 185.12 96.75 L 186.39 95.48 L 187.67 94.20 L 188.94 92.93 L 189.72 92.87 L 189.82 94.66 L 189.93 96.46 L 189.93 96.49 L 188.66 97.76 L 187.39 99.03 L 186.11 100.30 L 184.84 101.58 L 183.57 102.85 L 182.29 104.12 L 181.02 105.40 L 179.75 106.67 L 178.48 107.94 L 177.20 109.21 L 175.93 110.49 L 174.66 111.76 L 173.39 113.03 L 172.11 114.31 L 170.84 115.58 L 169.57 116.85 L 168.29 118.12 L 167.02 119.40 L 165.75 120.67 L 164.48 121.94 L 163.20 123.21 L 161.93 124.49 L 160.66 125.76 L 159.38 127.03 L 158.11 128.31 L 156.84 129.58 L 155.57 130.85 L 154.29 132.12 L 153.02 133.40 L 151.75 134.67 L 150.47 135.94 L 149.20 137.21 L 147.93 138.49 L 146.66 139.76 L 145.38 141.03 L 144.11 142.31 L 142.84 143.58 L 141.57 144.85 L 140.29 146.12 L 139.02 147.40 L 137.75 148.67 L 136.47 149.94 L 135.20 151.22 L 133.93 152.49 L 132.66 153.76 L 131.38 155.03 L 130.11 156.31 L 128.84 157.58 L 127.56 158.85 L 126.29 160.13 L 125.02 161.40 L 123.75 162.67 L 122.47 163.94 L 121.20 165.22 L 119.93 166.49 L 118.65 167.76 L 117.38 169.04 L 116.11 170.31 L 114.84 171.58 L 113.56 172.85 L 112.29 174.13 L 111.02 175.40 L 109.75 176.67 L 108.47 177.94 L 107.20 179.22 L 105.93 180.49 L 104.65 181.76 L 103.38 183.04 L 102.11 184.31 L 100.84 185.58 L 99.56 186.85 L 98.29 188.13 L 97.02 189.40 L 96.49 189.93 L 98.29 189.96 L 100.08 189.98 L 100.90 190.00 L 100.97 189.99 L 102.24 188.72 L 103.52 187.45 L 104.79 186.18 L 106.06 184.90 L 107.33 183.63 L 108.61 182.36 L 109.88 181.09 L 111.15 179.81 L 112.42 178.54 L 113.70 177.27 L 114.97 175.99 L 116.24 174.72 L 117.52 173.45 L 118.79 172.18 L 120.06 170.90 L 121.33 169.63 L 122.61 168.36 L 123.88 167.08 L 125.15 165.81 L 126.43 164.54 L 127.70 163.27 L 128.97 161.99 L 130.24 160.72 L 131.52 159.45 L 132.79 158.18 L 134.06 156.90 L 135.33 155.63 L 136.61 154.36 L 137.88 153.08 L 139.15 151.81 L 140.43 150.54 L 141.70 149.27 L 142.97 147.99 L 144.24 146.72 L 145.52 145.45 L 146.79 144.17 L 148.06 142.90 L 149.34 141.63 L 150.61 140.36 L 151.88 139.08 L 153.15 137.81 L 154.43 136.54 L 155.70 135.26 L 156.97 133.99 L 158.25 132.72 L 159.52 131.45 L 160.79 130.17 L 162.06 128.90 L 163.34 127.63 L 164.61 126.35 L 165.88 125.08 L 167.15 123.81 L 168.43 122.54 L 169.70 121.26 L 170.97 119.99 L 172.25 118.72 L 173.52 117.45 L 174.79 116.17 L 176.06 114.90 L 177.34 113.63 L 178.61 112.35 L 179.88 111.08 L 181.16 109.81 L 182.43 108.54 L 183.70 107.26 L 184.97 105.99 L 186.25 104.72 L 187.52 103.45 L 188.79 102.17 L 189.99 100.97 L 189.93 102.77 L 189.87 104.57 L 189.84 105.38 L 189.82 105.69 L 188.55 106.96 L 187.27 108.24 L 186.00 109.51 L 184.73 110.78 L 183.46 112.05 L 182.18 113.33 L 180.91 114.60 L 179.64 115.87 L 178.36 117.15 L 177.09 118.42 L 175.82 119.69 L 174.55 120.96 L 173.27 122.24 L 172.00 123.51 L 170.73 124.78 L 169.46 126.06 L 168.18 127.33 L 166.91 128.60 L 165.64 129.87 L 164.36 131.15 L 163.09 132.42 L 161.82 133.69 L 160.55 134.97 L 159.27 136.24 L 158.00 137.51 L 156.73 138.78 L 155.45 140.06 L 154.18 141.33 L 152.91 142.60 L 151.64 143.87 L 150.36 145.15 L 149.09 146.42 L 147.82 147.69 L 146.54 148.97 L 145.27 150.24 L 144.00 151.51 L 142.73 152.78 L 141.45 154.06 L 140.18 155.33 L 138.91 156.60 L 137.63 157.87 L 136.36 159.15 L 135.09 160.42 L 133.82 161.69 L 132.54 162.97 L 131.27 164.24 L 130.00 165.51 L 128.73 166.78 L 127.45 168.06 L 126.18 169.33 L 124.91 170.60 L 123.63 171.88 L 122.36 173.15 L 121.09 174.42 L 119.82 175.69 L 118.54 176.97 L 117.27 178.24 L 116.00 179.51 L 114.72 180.78 L 113.45 182.06 L 112.18 183.33 L 110.91 184.60 L 109.63 185.88 L 108.36 187.15 L 107.09 188.42 L 105.82 189.69 L 105.82 189.81 L 107.61 189.65 L 109.41 189.49 L 110.22 189.42 L 110.69 189.36 L 111.97 188.09 L 113.24 186.82 L 114.51 185.54 L 115.79 184.27 L 117.06 183.00 L 118.33 181.73 L 119.60 180.45 L 120.88 179.18 L 122.15 177.91 L 123.42 176.63 L 124.70 175.36 L 125.97 174.09 L 127.24 172.82 L 128.51 171.54 L 129.79 170.27 L 131.06 169.00 L 132.33 167.72 L 133.60 166.45 L 134.88 165.18 L 136.15 163.91 L 137.42 162.63 L 138.70 161.36 L 139.97 160.09 L 141.24 158.82 L 142.51 157.54 L 143.79 156.27 L 145.06 155.00 L 146.33 153.72 L 147.61 152.45 L 148.88 151.18 L 150.15 149.91 L 151.42 148.63 L 152.70 147.36 L 153.97 146.09 L 155.24 144.81 L 156.52 143.54 L 157.79 142.27 L 159.06 141.00 L 160.33 139.72 L 161.61 138.45 L 162.88 137.18 L 164.15 135.91 L 165.43 134.63 L 166.70 133.36 L 167.97 132.09 L 169.24 130.81 L 170.52 129.54 L 171.79 128.27 L 173.06 127.00 L 174.33 125.72 L 175.61 124.45 L 176.88 123.18 L 178.15 121.90 L 179.43 120.63 L 180.70 119.36 L 181.97 118.09 L 183.24 116.81 L 184.52 115.54 L 185.79 114.27 L 187.06 112.99 L 188.33 111.72 L 189.36 110.69 L 189.10 112.48 L 188.85 114.26 L 188.73 115.07 L 188.56 116.05 L 187.29 117.32 L 186.01 118.59 L 184.74 119.86 L 183.47 121.14 L 182.19 122.41 L 180.92 123.68 L 179.65 124.96 L 178.37 126.23 L 177.10 127.50 L 175.83 128.77 L 174.56 130.05 L 173.28 131.32 L 172.01 132.59 L 170.74 133.86 L 169.47 135.14 L 168.19 136.41 L 166.92 137.68 L 165.65 138.96 L 164.37 140.23 L 163.10 141.50 L 161.83 142.77 L 160.56 144.05 L 159.28 145.32 L 158.01 146.59 L 156.74 147.87 L 155.47 149.14 L 154.19 150.41 L 152.92 151.68 L 151.65 152.96 L 150.37 154.23 L 149.10 155.50 L 147.83 156.77 L 146.56 158.05 L 145.28 159.32 L 144.01 160.59 L 142.74 161.87 L 141.46 163.14 L 140.19 164.41 L 138.92 165.68 L 137.65 166.96 L 136.37 168.23 L 135.10 169.50 L 133.83 170.78 L 132.55 172.05 L 131.28 173.32 L 130.01 174.59 L 128.74 175.87 L 127.46 177.14 L 126.19 178.41 L 124.92 179.69 L 123.65 180.96 L 122.37 182.23 L 121.10 183.50 L 119.83 184.78 L 118.55 186.05 L 117.28 187.32 L 116.05 188.56 L 117.81 188.19 L 119.57 187.83 L 120.37 187.66 L 121.84 187.31 L 123.11 186.04 L 124.39 184.76 L 125.66 183.49 L 126.93 182.22 L 128.20 180.95 L 129.48 179.67 L 130.75 178.40 L 132.02 177.13 L 133.30 175.85 L 134.57 174.58 L 135.84 173.31 L 137.11 172.04 L 138.39 170.76 L 139.66 169.49 L 140.93 168.22 L 142.21 166.94 L 143.48 165.67 L 144.75 164.40 L 146.02 163.13 L 147.30 161.85 L 148.57 160.58 L 149.84 159.31 L 151.12 158.04 L 152.39 156.76 L 153.66 155.49 L 154.93 154.22 L 156.21 152.94 L 157.48 151.67 L 158.75 150.40 L 160.02 149.13 L 161.30 147.85 L 162.57 146.58 L 163.84 145.31 L 165.12 144.04 L 166.39 142.76 L 167.66 141.49 L 168.93 140.22 L 170.21 138.94 L 171.48 137.67 L 172.75 136.40 L 174.03 135.13 L 175.30 133.85 L 176.57 132.58 L 177.84 131.31 L 179.12 130.03 L 180.39 128.76 L 181.66 127.49 L 182.93 126.22 L 184.21 124.94 L 185.48 123.67 L 186.75 122.40 L 187.31 121.84 L 186.83 123.58 L 186.35 125.31 L 186.13 126.10 L 185.59 127.81 L 185.45 128.24 L 184.18 129.52 L 182.91 130.79 L 181.64 132.06 L 180.36 133.34 L 179.09 134.61 L 177.82 135.88 L 176.54 137.15 L 175.27 138.43 L 174.00 139.70 L 172.73 140.97 L 171.93 141.77 L 171.54 142.17 L 171.14 142.55 L 170.36 143.34 L 169.98 143.74 L 169.58 144.12 L 169.19 144.51 L 168.80 144.91 L 168.40 145.30 L 167.62 146.08 L 167.23 146.48 L 166.83 146.86 L 166.44 147.25 L 166.06 147.65 L 165.66 148.04 L 165.28 148.44 L 164.88 148.82 L 164.49 149.22 L 164.09 149.60 L 162.92 150.78 L 162.54 151.18 L 162.14 151.56 L 161.74 151.95 L 160.57 153.13 L 160.18 153.52 L 159.79 153.91 L 159.39 154.30 L 158.12 155.58 L 156.85 156.85 L 155.58 158.12 L 154.30 159.39 L 153.03 160.67 L 151.76 161.94 L 150.48 163.21 L 149.21 164.49 L 147.94 165.76 L 146.67 167.03 L 145.39 168.30 L 144.12 169.58 L 142.85 170.85 L 141.57 172.12 L 140.30 173.40 L 139.03 174.67 L 137.76 175.94 L 136.48 177.21 L 135.21 178.49 L 133.94 179.76 L 132.67 181.03 L 131.39 182.30 L 130.12 183.58 L 128.85 184.85 L 128.97 185.21 L 130.66 184.59 L 132.35 183.97 L 133.12 183.69 L 134.78 183.00 L 135.57 182.67 L 136.84 181.40 L 138.12 180.13 L 139.39 178.85 L 140.66 177.58 L 141.94 176.31 L 143.21 175.03 L 143.26 174.98 L 143.65 174.59 L 145.09 175.67 L 146.53 176.76 L 146.53 176.76 L 146.65 176.96 L 146.78 176.89 L 146.32 175.69 L 146.79 175.38 L 145.89 173.81 L 145.74 173.55 L 144.58 172.17 L 143.43 170.79 L 142.27 169.41 L 141.61 168.63 L 143.11 169.63 L 143.92 170.16 L 145.40 171.17 L 146.39 171.85 L 145.53 170.27 L 145.44 170.12 L 147.03 170.96 L 147.12 171.00 L 148.61 171.72 L 148.66 170.98 L 150.25 171.81 L 150.30 171.84 L 149.49 170.25 L 150.26 170.24 L 149.38 168.67 L 149.24 168.43 L 148.36 166.86 L 148.26 166.67 L 147.84 165.46 L 148.63 165.47 L 150.16 166.41 L 150.68 166.73 L 151.35 166.63 L 152.80 167.70 L 154.24 168.77 L 154.40 168.89 L 153.36 167.41 L 152.53 166.24 L 153.95 167.34 L 155.38 168.44 L 155.97 168.89 L 154.98 167.38 L 154.50 166.64 L 153.60 165.07 L 153.46 164.81 L 152.40 163.36 L 151.41 161.98 L 153.01 162.80 L 153.01 162.80 L 153.48 162.49 L 154.93 163.15 L 153.91 161.66 L 153.24 160.68 L 154.72 161.71 L 155.79 162.45 L 156.12 161.99 L 156.17 161.26 L 157.73 162.17 L 158.05 162.35 L 159.55 163.35 L 160.36 163.89 L 159.36 162.39 L 158.77 161.51 L 159.44 161.40 L 158.39 159.93 L 157.47 158.64 L 158.04 158.44 L 156.95 157.01 L 155.86 155.58 L 155.51 155.12 L 156.94 156.20 L 158.38 157.29 L 158.71 157.53 L 160.08 158.12 L 160.47 157.73 L 160.79 157.27 L 161.27 156.96 L 161.67 156.58 L 162.45 155.79 L 163.80 156.36 L 163.45 155.23 L 164.06 155.06 L 165.53 156.11 L 166.86 157.07 L 165.77 155.63 L 164.68 154.20 L 164.41 153.84 L 164.91 153.56 L 166.48 154.45 L 166.74 154.60 L 165.84 153.04 L 165.65 152.73 L 164.55 151.31 L 163.44 149.88 L 162.93 149.22 L 162.77 148.28 L 164.17 149.41 L 165.58 150.53 L 166.74 151.47 L 168.30 152.35 L 168.55 152.50 L 169.97 153.60 L 171.39 154.70 L 171.39 154.70 L 171.44 154.74 L 171.54 154.60 L 170.39 153.22 L 169.23 151.85 L 168.07 150.47 L 167.98 150.36 L 169.53 151.27 L 169.89 151.49 L 168.73 150.11 L 167.57 148.74 L 166.41 147.36 L 165.61 146.42 L 167.06 147.48 L 168.51 148.54 L 169.38 148.62 L 169.87 148.33 L 168.77 146.91 L 167.66 145.49 L 167.14 144.81 L 168.56 145.91 L 169.99 147.01 L 170.57 147.46 L 170.46 146.57 L 171.85 147.72 L 173.24 148.87 L 174.63 150.01 L 174.75 150.12 L 174.79 150.07 L 173.66 148.66 L 172.54 147.25 L 171.89 146.43 L 173.31 147.54 L 174.72 148.65 L 175.42 149.10 L 175.40 149.14 L 174.32 147.70 L 173.23 146.27 L 173.04 146.02 L 173.03 145.22 L 173.42 144.83 L 172.31 143.41 L 171.20 142.00 L 170.58 141.21 L 172.00 142.32 L 173.41 143.43 L 174.20 144.04 L 175.47 142.77 L 176.74 141.50 L 178.02 140.23 L 179.29 138.95 L 180.56 137.68 L 181.84 136.41 L 182.23 136.58 L 181.46 138.21 L 180.69 139.83 L 180.34 140.57 L 179.48 142.16 L 178.63 143.75 L 178.25 144.47 L 177.01 145.78 L 175.78 147.08 L 175.73 147.14 L 175.30 147.49 L 175.00 147.97 L 174.51 148.28 L 174.16 148.70 L 173.73 149.06 L 172.95 149.84 L 172.62 150.30 L 172.16 150.63 L 171.38 151.41 L 171.11 151.92 L 170.60 152.19 L 170.30 152.68 L 169.82 152.97 L 169.45 153.40 L 169.03 153.76 L 168.64 154.15 L 168.32 154.62 L 167.86 154.93 L 167.46 155.32 L 167.09 155.73 L 166.71 156.14 L 166.29 156.50 L 165.90 156.89 L 165.52 157.30 L 165.22 157.78 L 164.72 158.07 L 164.33 158.46 L 163.97 158.88 L 163.60 159.29 L 163.16 159.63 L 162.77 160.02 L 162.39 160.43 L 161.99 160.82 L 161.69 161.30 L 161.21 161.60 L 160.81 161.98 L 160.05 162.79 L 159.24 163.55 L 158.46 164.33 L 158.13 164.79 L 157.70 165.14 L 157.33 165.56 L 156.90 165.91 L 156.52 166.31 L 156.11 166.68 L 155.73 167.09 L 155.33 167.46 L 154.93 167.86 L 154.55 168.26 L 154.20 168.69 L 153.76 169.03 L 153.40 169.46 L 152.98 169.82 L 152.58 170.21 L 152.20 170.61 L 151.80 170.99 L 151.42 171.40 L 151.02 171.77 L 150.68 172.22 L 150.23 172.56 L 149.89 173.00 L 149.45 173.34 L 149.06 173.73 L 148.72 174.17 L 148.28 174.51 L 147.89 174.91 L 147.49 175.30 L 147.10 175.69" 
          fill="none" 
          stroke="currentColor" 
          stroke-width="0.5"/>
</svg>