<?xml version="1.0" encoding="UTF-8" standalone="no"?>
<svg width="100%" height="100%" viewBox="0 0 200 200" preserveAspectRatio="xMidYMid meet" xmlns="http://www.w3.org/2000/svg">
    <path d="M 100.00 100.00 L 99.99 98.99 L 99.97 97.99 L 99.96 96.99 L 99.95 95.99 L 99.94 94.98 L 99.92 93.98 L 99.91 92.97 L 99.90 91.97 L 99.89 90.96 L 99.84 89.85 L 99.80 88.73 L 99.76 87.62 L 99.72 86.50 L 99.68 85.38 L 99.63 84.26 L 99.59 83.15 L 99.55 82.03 L 99.48 80.94 L 99.41 79.85 L 99.34 78.75 L 99.27 77.66 L 99.20 76.57 L 99.13 75.47 L 99.06 74.38 L 98.99 73.29 L 98.90 72.23 L 98.80 71.17 L 98.71 70.11 L 98.61 69.05 L 98.52 67.99 L 98.42 66.94 L 98.33 65.88 L 98.23 64.82 L 98.11 63.81 L 97.99 62.79 L 97.87 61.78 L 97.75 60.77 L 97.64 59.76 L 97.51 58.75 L 97.40 57.74 L 97.28 56.72 L 97.12 55.63 L 96.95 54.54 L 96.80 53.45 L 96.64 52.36 L 96.48 51.28 L 96.32 50.19 L 96.15 49.09 L 95.97 48.07 L 95.79 47.06 L 95.61 46.04 L 95.43 45.04 L 95.25 44.01 L 95.06 43.00 L 94.88 41.99 L 94.65 40.90 L 94.42 39.82 L 94.19 38.74 L 93.96 37.66 L 93.73 36.58 L 93.50 35.50 L 93.25 34.53 L 93.00 33.56 L 92.75 32.59 L 92.50 31.62 L 92.26 30.65 L 92.01 29.69 L 91.70 28.67 L 91.40 27.65 L 91.09 26.64 L 90.78 25.63 L 90.47 24.61 L 90.16 23.75 L 89.85 22.90 L 89.54 22.04 L 89.23 21.18 L 88.92 20.32 L 88.53 19.46 L 88.14 18.59 L 87.75 17.73 L 87.37 16.87 L 86.87 16.00 L 86.37 15.14 L 85.87 14.27 L 85.17 13.42 L 84.46 12.57 L 83.81 12.17 L 83.17 11.77 L 82.60 11.83 L 82.04 11.88 L 81.57 12.38 L 81.10 12.88 L 80.74 13.84 L 80.39 14.78 L 80.23 15.70 L 80.08 16.62 L 79.93 17.54 L 79.89 18.44 L 79.84 19.33 L 79.79 20.22 L 79.75 21.13 L 79.78 22.21 L 79.81 23.30 L 79.84 24.40 L 79.87 25.50 L 79.96 26.52 L 80.05 27.54 L 80.14 28.56 L 80.22 29.58 L 80.31 30.60 L 80.44 31.56 L 80.57 32.52 L 80.69 33.49 L 80.82 34.45 L 80.95 35.41 L 81.08 36.38 L 81.26 37.44 L 81.45 38.50 L 81.64 39.58 L 81.83 40.64 L 82.01 41.70 L 82.20 42.77 L 82.40 43.76 L 82.61 44.74 L 82.82 45.73 L 83.03 46.72 L 83.24 47.71 L 83.44 48.70 L 83.65 49.69 L 83.91 50.74 L 84.17 51.80 L 84.42 52.85 L 84.68 53.91 L 84.94 54.96 L 85.20 56.02 L 85.45 57.07 L 85.72 58.04 L 85.99 59.01 L 86.25 59.99 L 86.52 60.95 L 86.79 61.93 L 87.05 62.89 L 87.32 63.86 L 87.59 64.83 L 87.90 65.84 L 88.20 66.85 L 88.51 67.85 L 88.81 68.85 L 89.12 69.86 L 89.43 70.87 L 89.74 71.88 L 90.05 72.89 L 90.39 73.91 L 90.74 74.95 L 91.08 75.98 L 91.43 77.01 L 91.77 78.05 L 92.12 79.08 L 92.46 80.11 L 92.81 81.14 L 93.19 82.19 L 93.57 83.24 L 93.95 84.28 L 94.33 85.33 L 94.71 86.38 L 95.09 87.42 L 95.47 88.47 L 95.85 89.51 L 96.21 90.44 L 96.58 91.38 L 96.95 92.31 L 97.31 93.24 L 97.68 94.17 L 98.04 95.11 L 98.41 96.04 L 98.77 96.97 L 99.14 97.91 L 99.53 98.83 L 99.92 99.76 L 100.31 100.69 L 100.70 101.61 L 101.09 102.54 L 101.48 103.46 L 101.87 104.39 L 102.26 105.32 L 102.65 106.24 L 103.12 107.26 L 103.57 108.28 L 104.04 109.30 L 104.50 110.33 L 104.96 111.35 L 105.42 112.37 L 105.89 113.40 L 106.35 114.42 L 106.83 115.41 L 107.30 116.40 L 107.78 117.39 L 108.26 118.39 L 108.74 119.38 L 109.22 120.37 L 109.70 121.36 L 110.18 122.36 L 110.67 123.31 L 111.16 124.26 L 111.65 125.21 L 112.14 126.16 L 112.63 127.12 L 113.12 128.07 L 113.61 129.02 L 114.10 129.98 L 114.60 130.89 L 115.10 131.79 L 115.60 132.69 L 116.09 133.59 L 116.59 134.49 L 117.09 135.39 L 117.58 136.30 L 118.08 137.20 L 118.65 138.17 L 119.22 139.13 L 119.78 140.10 L 120.35 141.06 L 120.92 142.03 L 121.48 142.99 L 122.05 143.95 L 122.61 144.84 L 123.17 145.73 L 123.73 146.62 L 124.29 147.50 L 124.85 148.40 L 125.40 149.29 L 125.96 150.17 L 126.51 150.98 L 127.05 151.78 L 127.59 152.58 L 128.14 153.38 L 128.68 154.19 L 129.22 154.99 L 129.76 155.79 L 130.38 156.63 L 130.98 157.46 L 131.59 158.28 L 132.19 159.11 L 132.80 159.94 L 133.41 160.77 L 134.09 161.62 L 134.78 162.48 L 135.46 163.33 L 136.15 164.19 L 136.83 165.05 L 137.47 165.76 L 138.10 166.47 L 138.73 167.18 L 139.36 167.89 L 139.99 168.60 L 140.71 169.30 L 141.41 170.00 L 142.12 170.70 L 142.83 171.40 L 143.66 172.06 L 144.48 172.75 L 145.30 173.41 L 145.99 173.82 L 146.68 174.23 L 147.37 174.64 L 148.18 174.87 L 148.99 175.08 L 149.55 174.91 L 150.11 174.75 L 150.42 174.19 L 150.73 173.64 L 150.76 172.72 L 150.80 171.80 L 150.64 170.95 L 150.48 170.10 L 150.31 169.25 L 150.05 168.44 L 149.78 167.63 L 149.52 166.83 L 149.25 166.02 L 148.84 165.07 L 148.43 164.11 L 148.02 163.14 L 147.61 162.18 L 147.16 161.30 L 146.72 160.41 L 146.28 159.54 L 145.84 158.65 L 145.39 157.77 L 144.93 156.95 L 144.46 156.13 L 144.01 155.31 L 143.54 154.48 L 143.08 153.66 L 142.61 152.85 L 142.05 151.95 L 141.50 151.05 L 140.94 150.16 L 140.39 149.26 L 139.83 148.37 L 139.27 147.47 L 138.72 146.65 L 138.17 145.82 L 137.61 145.00 L 137.06 144.18 L 136.51 143.36 L 135.96 142.54 L 135.40 141.71 L 134.78 140.85 L 134.16 139.98 L 133.53 139.12 L 132.91 138.25 L 132.28 137.38 L 131.66 136.52 L 131.04 135.65 L 130.43 134.87 L 129.83 134.08 L 129.22 133.28 L 128.62 132.50 L 128.01 131.71 L 127.41 130.92 L 126.80 130.13 L 126.20 129.34 L 125.55 128.54 L 124.89 127.73 L 124.23 126.92 L 123.58 126.11 L 122.92 125.30 L 122.26 124.50 L 121.60 123.68 L 120.94 122.87 L 120.24 122.05 L 119.54 121.24 L 118.84 120.42 L 118.14 119.60 L 117.43 118.78 L 116.73 117.96 L 116.03 117.14 L 115.32 116.32 L 114.58 115.49 L 113.84 114.67 L 113.09 113.85 L 112.35 113.03 L 111.60 112.20 L 110.86 111.38 L 110.12 110.56 L 109.38 109.74 L 108.60 108.92 L 107.83 108.11 L 107.05 107.29 L 106.28 106.48 L 105.50 105.66 L 104.73 104.85 L 103.95 104.03 L 103.17 103.21 L 102.47 102.51 L 101.76 101.80 L 101.05 101.09 L 100.34 100.38 L 99.62 99.66 L 98.91 98.95 L 98.20 98.24 L 97.49 97.53 L 96.79 96.83 L 95.97 96.05 L 95.15 95.27 L 94.34 94.50 L 93.52 93.72 L 92.71 92.95 L 91.89 92.17 L 91.08 91.40 L 90.26 90.62 L 89.44 89.88 L 88.62 89.14 L 87.80 88.40 L 86.97 87.65 L 86.15 86.90 L 85.33 86.16 L 84.51 85.42 L 83.68 84.68 L 82.86 83.97 L 82.04 83.27 L 81.22 82.57 L 80.40 81.86 L 79.58 81.16 L 78.76 80.46 L 77.95 79.76 L 77.13 79.06 L 76.32 78.40 L 75.50 77.74 L 74.70 77.08 L 73.89 76.42 L 73.08 75.77 L 72.27 75.11 L 71.46 74.45 L 70.65 73.80 L 69.87 73.20 L 69.08 72.59 L 68.29 71.99 L 67.51 71.38 L 66.72 70.78 L 65.92 70.17 L 65.14 69.57 L 64.35 68.96 L 63.48 68.34 L 62.62 67.72 L 61.75 67.10 L 60.88 66.47 L 60.01 65.85 L 59.15 65.22 L 58.29 64.60 L 57.46 64.04 L 56.64 63.49 L 55.81 62.94 L 55.00 62.38 L 54.18 61.84 L 53.35 61.28 L 52.53 60.73 L 51.63 60.17 L 50.74 59.61 L 49.84 59.06 L 48.95 58.50 L 48.05 57.95 L 47.15 57.39 L 46.33 56.93 L 45.52 56.46 L 44.69 56.00 L 43.88 55.53 L 43.05 55.07 L 42.23 54.61 L 41.35 54.16 L 40.46 53.72 L 39.59 53.28 L 38.70 52.83 L 37.81 52.39 L 36.86 51.98 L 35.90 51.57 L 34.93 51.16 L 33.98 50.75 L 33.16 50.49 L 32.37 50.22 L 31.56 49.95 L 30.75 49.69 L 29.90 49.53 L 29.05 49.36 L 28.20 49.20 L 27.28 49.24 L 26.36 49.27 L 25.81 49.58 L 25.25 49.89 L 25.08 50.45 L 24.91 51.02 L 25.13 51.82 L 25.36 52.63 L 25.77 53.32 L 26.18 54.00 L 26.59 54.70 L 27.26 55.52 L 27.93 56.35 L 28.60 57.17 L 29.30 57.88 L 30.00 58.59 L 30.70 59.30 L 31.40 60.01 L 32.11 60.64 L 32.82 61.27 L 33.53 61.90 L 34.24 62.54 L 34.95 63.17 L 35.80 63.85 L 36.67 64.54 L 37.52 65.22 L 38.38 65.91 L 39.23 66.60 L 40.06 67.20 L 40.89 67.81 L 41.71 68.41 L 42.54 69.02 L 43.37 69.63 L 44.21 70.23 L 45.01 70.78 L 45.81 71.32 L 46.61 71.87 L 47.42 72.41 L 48.22 72.95 L 49.02 73.49 L 49.83 74.04 L 50.71 74.60 L 51.60 75.15 L 52.49 75.72 L 53.38 76.27 L 54.27 76.83 L 55.16 77.39 L 56.04 77.95 L 57.01 78.52 L 57.97 79.08 L 58.94 79.65 L 59.90 80.22 L 60.87 80.79 L 61.83 81.35 L 62.80 81.92 L 63.71 82.42 L 64.60 82.91 L 65.51 83.41 L 66.41 83.91 L 67.31 84.40 L 68.21 84.90 L 69.12 85.40 L 70.02 85.89 L 70.98 86.39 L 71.93 86.88 L 72.88 87.37 L 73.84 87.86 L 74.79 88.35 L 75.74 88.84 L 76.69 89.33 L 77.64 89.82 L 78.64 90.30 L 79.62 90.78 L 80.62 91.26 L 81.61 91.74 L 82.61 92.22 L 83.60 92.69 L 84.59 93.17 L 85.59 93.65 L 86.60 94.11 L 87.63 94.58 L 88.65 95.04 L 89.67 95.50 L 90.70 95.96 L 91.72 96.43 L 92.74 96.88 L 93.76 97.35 L 94.68 97.74 L 95.61 98.13 L 96.54 98.52 L 97.46 98.91 L 98.39 99.30 L 99.31 99.69 L 100.24 100.08 L 101.17 100.47 L 102.09 100.86 L 103.03 101.23 L 103.96 101.59 L 104.89 101.96 L 105.83 102.32 L 106.76 102.69 L 107.69 103.05 L 108.63 103.42 L 109.55 103.79 L 110.48 104.15 L 111.53 104.53 L 112.58 104.91 L 113.62 105.29 L 114.67 105.67 L 115.72 106.06 L 116.76 106.43 L 117.81 106.81 L 118.86 107.19 L 119.89 107.54 L 120.92 107.88 L 121.95 108.23 L 122.99 108.57 L 124.02 108.92 L 125.05 109.27 L 126.09 109.61 L 127.11 109.95 L 128.12 110.26 L 129.13 110.57 L 130.14 110.88 L 131.15 111.19 L 132.14 111.49 L 133.15 111.80 L 134.16 112.10 L 135.17 112.41 L 136.14 112.68 L 137.11 112.94 L 138.07 113.21 L 139.05 113.48 L 140.01 113.75 L 140.99 114.01 L 141.96 114.28 L 142.93 114.55 L 143.98 114.80 L 145.04 115.06 L 146.09 115.32 L 147.15 115.58 L 148.20 115.83 L 149.26 116.09 L 150.31 116.35 L 151.31 116.55 L 152.29 116.76 L 153.28 116.97 L 154.27 117.18 L 155.26 117.39 L 156.24 117.60 L 157.23 117.81 L 158.30 117.99 L 159.36 118.18 L 160.42 118.36 L 161.50 118.55 L 162.56 118.73 L 163.62 118.92 L 164.59 119.05 L 165.55 119.18 L 166.51 119.31 L 167.48 119.43 L 168.44 119.56 L 169.41 119.69 L 170.42 119.78 L 171.44 119.87 L 172.46 119.95 L 173.48 120.05 L 174.50 120.13 L 175.59 120.16 L 176.69 120.19 L 177.78 120.22 L 178.87 120.25 L 179.78 120.21 L 180.67 120.16 L 181.56 120.12 L 182.46 120.07 L 183.38 119.92 L 184.30 119.77 L 185.22 119.61 L 186.17 119.25 L 187.12 118.90 L 187.62 118.43 L 188.13 117.96 L 188.17 117.40 L 188.23 116.83 L 187.83 116.18 L 187.43 115.54 L 186.58 114.84 L 185.73 114.13 L 184.86 113.63 L 184.00 113.14 L 183.13 112.63 L 182.27 112.24 L 181.41 111.86 L 180.54 111.47 L 179.67 111.08 L 178.82 110.77 L 177.96 110.46 L 177.10 110.14 L 176.25 109.84 L 175.39 109.52 L 174.37 109.22 L 173.36 108.91 L 172.35 108.60 L 171.33 108.29 L 170.31 107.99 L 169.35 107.74 L 168.38 107.49 L 167.41 107.25 L 166.44 107.00 L 165.47 106.76 L 164.50 106.51 L 163.42 106.27 L 162.34 106.04 L 161.26 105.81 L 160.18 105.58 L 159.10 105.35 L 158.01 105.11 L 157.00 104.93 L 155.99 104.75 L 154.96 104.57 L 153.96 104.39 L 152.94 104.21 L 151.93 104.03 L 150.91 103.85 L 149.81 103.68 L 148.72 103.53 L 147.64 103.36 L 146.55 103.20 L 145.46 103.04 L 144.37 102.88 L 143.28 102.72 L 142.26 102.60 L 141.25 102.48 L 140.24 102.37 L 139.23 102.25 L 138.22 102.13 L 137.21 102.01 L 136.19 101.89 L 135.18 101.77 L 134.12 101.67 L 133.06 101.58 L 132.01 101.48 L 130.95 101.39 L 129.89 101.29 L 128.83 101.20 L 127.77 101.10 L 126.71 101.01 L 125.62 100.94 L 124.53 100.87 L 123.43 100.80 L 122.34 100.73 L 121.25 100.66 L 120.15 100.59 L 119.06 100.52 L 117.97 100.45 L 116.85 100.41 L 115.74 100.37 L 114.62 100.32 L 113.50 100.28 L 112.38 100.24 L 111.27 100.20 L 110.15 100.16 L 109.04 100.11 L 108.03 100.10 L 107.03 100.09 L 106.02 100.08 L 105.02 100.06 L 104.01 100.05 L 103.01 100.04 L 102.01 100.03 L 101.01 100.01 L 100.00 100.00 L 98.99 100.01 L 97.99 100.03 L 96.99 100.04 L 95.99 100.05 L 94.98 100.06 L 93.98 100.08 L 92.97 100.09 L 91.97 100.10 L 90.96 100.11 L 89.85 100.16 L 88.73 100.20 L 87.62 100.24 L 86.50 100.28 L 85.38 100.33 L 84.26 100.37 L 83.15 100.41 L 82.03 100.45 L 80.94 100.52 L 79.85 100.59 L 78.75 100.66 L 77.66 100.73 L 76.57 100.80 L 75.47 100.87 L 74.38 100.94 L 73.29 101.01 L 72.23 101.10 L 71.17 101.20 L 70.11 101.29 L 69.05 101.39 L 67.99 101.49 L 66.94 101.58 L 65.88 101.68 L 64.82 101.77 L 63.81 101.89 L 62.79 102.01 L 61.78 102.13 L 60.77 102.25 L 59.76 102.36 L 58.75 102.49 L 57.74 102.61 L 56.72 102.72 L 55.63 102.88 L 54.54 103.04 L 53.45 103.21 L 52.36 103.36 L 51.28 103.52 L 50.19 103.69 L 49.09 103.84 L 48.07 104.03 L 47.06 104.21 L 46.04 104.39 L 45.04 104.57 L 44.01 104.75 L 43.00 104.94 L 41.99 105.12 L 40.90 105.35 L 39.82 105.58 L 38.74 105.81 L 37.66 106.05 L 36.58 106.27 L 35.50 106.51 L 34.53 106.75 L 33.56 107.00 L 32.59 107.25 L 31.62 107.49 L 30.65 107.74 L 29.68 107.98 L 28.67 108.30 L 27.65 108.60 L 26.64 108.91 L 25.63 109.21 L 24.61 109.52 L 23.75 109.83 L 22.90 110.15 L 22.04 110.46 L 21.18 110.78 L 20.33 111.09 L 19.46 111.47 L 18.59 111.86 L 17.73 112.25 L 16.87 112.63 L 16.00 113.13 L 15.14 113.63 L 14.27 114.13 L 13.42 114.83 L 12.57 115.55 L 12.17 116.19 L 11.77 116.83 L 11.83 117.39 L 11.87 117.96 L 12.38 118.43 L 12.88 118.90 L 13.84 119.26 L 14.78 119.61 L 15.70 119.76 L 16.62 119.92 L 17.54 120.07 L 18.44 120.11 L 19.33 120.16 L 20.22 120.21 L 21.13 120.25 L 22.22 120.22 L 23.31 120.19 L 24.41 120.16 L 25.50 120.13 L 26.52 120.04 L 27.54 119.95 L 28.56 119.87 L 29.58 119.78 L 30.60 119.69 L 31.56 119.56 L 32.52 119.43 L 33.49 119.30 L 34.45 119.18 L 35.41 119.05 L 36.38 118.92 L 37.44 118.73 L 38.50 118.55 L 39.57 118.36 L 40.64 118.17 L 41.70 117.99 L 42.77 117.80 L 43.76 117.59 L 44.74 117.39 L 45.73 117.18 L 46.72 116.97 L 47.71 116.76 L 48.70 116.56 L 49.69 116.35 L 50.74 116.09 L 51.80 115.83 L 52.85 115.58 L 53.91 115.32 L 54.96 115.06 L 56.02 114.80 L 57.07 114.55 L 58.04 114.28 L 59.01 114.01 L 59.99 113.74 L 60.95 113.48 L 61.92 113.21 L 62.89 112.95 L 63.87 112.68 L 64.83 112.41 L 65.84 112.11 L 66.85 111.80 L 67.85 111.49 L 68.85 111.18 L 69.86 110.88 L 70.87 110.57 L 71.88 110.26 L 72.89 109.95 L 73.91 109.61 L 74.95 109.27 L 75.98 108.92 L 77.01 108.58 L 78.05 108.23 L 79.08 107.88 L 80.10 107.54 L 81.14 107.20 L 82.19 106.81 L 83.24 106.43 L 84.28 106.05 L 85.33 105.67 L 86.38 105.29 L 87.42 104.91 L 88.47 104.53 L 89.51 104.15 L 90.44 103.79 L 91.37 103.42 L 92.31 103.05 L 93.24 102.69 L 94.17 102.32 L 95.11 101.96 L 96.04 101.59 L 96.97 101.23 L 97.91 100.86 L 98.83 100.47 L 99.76 100.08 L 100.69 99.69 L 101.61 99.30 L 102.54 98.91 L 103.46 98.52 L 104.39 98.13 L 105.32 97.74 L 106.24 97.35 L 107.26 96.88 L 108.28 96.43 L 109.30 95.96 L 110.33 95.50 L 111.35 95.04 L 112.37 94.58 L 113.40 94.11 L 114.42 93.65 L 115.41 93.17 L 116.40 92.70 L 117.39 92.22 L 118.39 91.74 L 119.38 91.26 L 120.37 90.78 L 121.36 90.30 L 122.36 89.82 L 123.31 89.33 L 124.26 88.84 L 125.21 88.35 L 126.17 87.86 L 127.12 87.37 L 128.07 86.88 L 129.02 86.38 L 129.98 85.89 L 130.88 85.39 L 131.78 84.90 L 132.69 84.41 L 133.59 83.91 L 134.50 83.41 L 135.39 82.91 L 136.30 82.42 L 137.20 81.92 L 138.17 81.35 L 139.13 80.78 L 140.10 80.22 L 141.06 79.65 L 142.03 79.09 L 142.99 78.52 L 143.96 77.95 L 144.84 77.39 L 145.73 76.84 L 146.62 76.27 L 147.50 75.72 L 148.40 75.15 L 149.29 74.59 L 150.17 74.03 L 150.98 73.50 L 151.78 72.95 L 152.58 72.41 L 153.38 71.86 L 154.19 71.32 L 154.99 70.78 L 155.79 70.24 L 156.63 69.62 L 157.46 69.02 L 158.28 68.41 L 159.11 67.80 L 159.94 67.20 L 160.77 66.59 L 161.62 65.91 L 162.48 65.23 L 163.33 64.54 L 164.20 63.85 L 165.05 63.16 L 165.76 62.54 L 166.47 61.90 L 167.18 61.27 L 167.89 60.64 L 168.60 60.01 L 169.30 59.30 L 170.00 58.58 L 170.70 57.87 L 171.40 57.17 L 172.07 56.34 L 172.74 55.52 L 173.41 54.69 L 173.82 54.01 L 174.23 53.32 L 174.65 52.63 L 174.86 51.82 L 175.08 51.02 L 174.92 50.45 L 174.74 49.88 L 174.19 49.58 L 173.64 49.27 L 172.72 49.23 L 171.80 49.20 L 170.95 49.36 L 170.10 49.52 L 169.25 49.68 L 168.44 49.95 L 167.64 50.22 L 166.83 50.48 L 166.02 50.75 L 165.07 51.16 L 164.11 51.57 L 163.14 51.98 L 162.18 52.39 L 161.30 52.83 L 160.42 53.28 L 159.54 53.72 L 158.65 54.16 L 157.76 54.61 L 156.95 55.07 L 156.13 55.54 L 155.31 56.00 L 154.48 56.46 L 153.66 56.93 L 152.85 57.39 L 151.94 57.95 L 151.05 58.51 L 150.16 59.06 L 149.26 59.62 L 148.37 60.17 L 147.47 60.73 L 146.65 61.28 L 145.82 61.84 L 145.00 62.39 L 144.19 62.94 L 143.36 63.49 L 142.54 64.04 L 141.71 64.60 L 140.85 65.22 L 139.98 65.84 L 139.12 66.47 L 138.25 67.09 L 137.38 67.72 L 136.52 68.34 L 135.65 68.97 L 134.86 69.57 L 134.08 70.17 L 133.28 70.78 L 132.50 71.39 L 131.71 71.99 L 130.92 72.59 L 130.13 73.20 L 129.34 73.80 L 128.54 74.45 L 127.73 75.11 L 126.92 75.77 L 126.11 76.42 L 125.30 77.08 L 124.50 77.74 L 123.69 78.40 L 122.87 79.05 L 122.05 79.76 L 121.24 80.46 L 120.42 81.16 L 119.60 81.86 L 118.78 82.57 L 117.96 83.27 L 117.14 83.97 L 116.32 84.68 L 115.50 85.42 L 114.67 86.16 L 113.85 86.90 L 113.03 87.65 L 112.20 88.40 L 111.38 89.14 L 110.56 89.88 L 109.74 90.62 L 108.92 91.40 L 108.11 92.17 L 107.29 92.95 L 106.48 93.72 L 105.66 94.50 L 104.85 95.27 L 104.03 96.05 L 103.21 96.83 L 102.51 97.53 L 101.80 98.24 L 101.09 98.95 L 100.38 99.66 L 99.66 100.38 L 98.95 101.09 L 98.24 101.80 L 97.53 102.51 L 96.83 103.21 L 96.05 104.03 L 95.27 104.85 L 94.50 105.66 L 93.72 106.48 L 92.95 107.29 L 92.17 108.11 L 91.40 108.92 L 90.62 109.74 L 89.88 110.56 L 89.14 111.38 L 88.40 112.20 L 87.65 113.03 L 86.90 113.85 L 86.16 114.67 L 85.42 115.50 L 84.68 116.32 L 83.97 117.14 L 83.27 117.96 L 82.57 118.78 L 81.86 119.60 L 81.16 120.42 L 80.46 121.24 L 79.76 122.05 L 79.05 122.87 L 78.40 123.69 L 77.74 124.50 L 77.08 125.30 L 76.43 126.11 L 75.77 126.92 L 75.11 127.73 L 74.45 128.54 L 73.80 129.34 L 73.19 130.13 L 72.59 130.92 L 71.99 131.71 L 71.38 132.49 L 70.78 133.28 L 70.17 134.08 L 69.57 134.86 L 68.97 135.65 L 68.34 136.52 L 67.72 137.38 L 67.10 138.25 L 66.47 139.12 L 65.84 139.98 L 65.22 140.85 L 64.60 141.71 L 64.04 142.54 L 63.49 143.36 L 62.94 144.19 L 62.39 145.01 L 61.84 145.82 L 61.28 146.65 L 60.73 147.47 L 60.17 148.37 L 59.62 149.27 L 59.06 150.16 L 58.50 151.05 L 57.95 151.95 L 57.39 152.85 L 56.93 153.67 L 56.47 154.48 L 56.00 155.31 L 55.54 156.13 L 55.07 156.95 L 54.61 157.77 L 54.16 158.65 L 53.71 159.54 L 53.28 160.42 L 52.83 161.30 L 52.39 162.18 L 51.98 163.14 L 51.57 164.10 L 51.16 165.07 L 50.75 166.03 L 50.48 166.83 L 50.22 167.64 L 49.96 168.44 L 49.68 169.25 L 49.53 170.10 L 49.37 170.95 L 49.20 171.80 L 49.24 172.72 L 49.28 173.65 L 49.58 174.19 L 49.88 174.75 L 50.45 174.92 L 51.02 175.08 L 51.82 174.86 L 52.63 174.65 L 53.32 174.23 L 54.01 173.82 L 54.69 173.41 L 55.52 172.74 L 56.35 172.07 L 57.17 171.40 L 57.88 170.70 L 58.59 170.00 L 59.30 169.30 L 60.01 168.60 L 60.64 167.89 L 61.27 167.18 L 61.90 166.47 L 62.54 165.76 L 63.17 165.05 L 63.85 164.20 L 64.54 163.33 L 65.22 162.48 L 65.91 161.62 L 66.59 160.77 L 67.20 159.94 L 67.80 159.11 L 68.41 158.28 L 69.02 157.46 L 69.62 156.63 L 70.24 155.79 L 70.78 154.99 L 71.32 154.19 L 71.86 153.38 L 72.41 152.58 L 72.95 151.78 L 73.49 150.98 L 74.04 150.17 L 74.59 149.29 L 75.16 148.40 L 75.72 147.51 L 76.28 146.62 L 76.83 145.73 L 77.39 144.84 L 77.95 143.96 L 78.52 142.99 L 79.08 142.03 L 79.65 141.06 L 80.22 140.10 L 80.78 139.13 L 81.35 138.17 L 81.92 137.20 L 82.42 136.29 L 82.91 135.39 L 83.41 134.49 L 83.91 133.59 L 84.40 132.69 L 84.90 131.78 L 85.39 130.88 L 85.89 129.98 L 86.38 129.02 L 86.88 128.07 L 87.37 127.12 L 87.86 126.17 L 88.35 125.21 L 88.84 124.26 L 89.33 123.31 L 89.82 122.36 L 90.30 121.36 L 90.78 120.38 L 91.26 119.38 L 91.74 118.39 L 92.22 117.39 L 92.70 116.40 L 93.17 115.41 L 93.65 114.42 L 94.11 113.40 L 94.58 112.37 L 95.04 111.35 L 95.50 110.33 L 95.96 109.30 L 96.42 108.28 L 96.88 107.26 L 97.35 106.24 L 97.74 105.32 L 98.13 104.39 L 98.52 103.46 L 98.91 102.54 L 99.30 101.61 L 99.69 100.69 L 100.08 99.76 L 100.47 98.83 L 100.86 97.91 L 101.23 96.97 L 101.59 96.04 L 101.96 95.11 L 102.32 94.17 L 102.69 93.24 L 103.05 92.31 L 103.42 91.37 L 103.79 90.45 L 104.15 89.51 L 104.53 88.47 L 104.91 87.42 L 105.29 86.38 L 105.67 85.33 L 106.05 84.28 L 106.43 83.24 L 106.81 82.19 L 107.20 81.14 L 107.54 80.10 L 107.88 79.08 L 108.23 78.05 L 108.57 77.01 L 108.92 75.98 L 109.27 74.95 L 109.61 73.91 L 109.95 72.89 L 110.26 71.88 L 110.57 70.87 L 110.88 69.86 L 111.18 68.85 L 111.49 67.85 L 111.80 66.85 L 112.11 65.84 L 112.41 64.83 L 112.68 63.86 L 112.95 62.89 L 113.21 61.92 L 113.48 60.95 L 113.74 59.99 L 114.01 59.01 L 114.28 58.04 L 114.55 57.07 L 114.80 56.02 L 115.06 54.96 L 115.32 53.91 L 115.57 52.85 L 115.83 51.80 L 116.09 50.74 L 116.35 49.69 L 116.56 48.70 L 116.76 47.71 L 116.97 46.72 L 117.18 45.73 L 117.39 44.74 L 117.60 43.76 L 117.80 42.76 L 117.99 41.70 L 118.18 40.64 L 118.36 39.57 L 118.55 38.50 L 118.73 37.44 L 118.92 36.38 L 119.05 35.41 L 119.18 34.45 L 119.30 33.49 L 119.44 32.53 L 119.57 31.56 L 119.69 30.60 L 119.78 29.58 L 119.87 28.56 L 119.96 27.54 L 120.04 26.52 L 120.13 25.50 L 120.16 24.41 L 120.19 23.31 L 120.22 22.22 L 120.25 21.13 L 120.20 20.22 L 120.16 19.33 L 120.12 18.44 L 120.07 17.54 L 119.91 16.62 L 119.77 15.70 L 119.61 14.78 L 119.25 13.84 L 118.90 12.88 L 118.43 12.38 L 117.96 11.87 L 117.39 11.82 L 116.83 11.77 L 116.19 12.17 L 115.54 12.57 L 114.84 13.42 L 114.13 14.27 L 113.63 15.14 L 113.13 16.00 L 112.63 16.87 L 112.24 17.73 L 111.86 18.59 L 111.47 19.46 L 111.09 20.33 L 110.77 21.18 L 110.46 22.04 L 110.15 22.90 L 109.83 23.75 L 109.52 24.61 L 109.21 25.63 L 108.91 26.64 L 108.60 27.65 L 108.29 28.67 L 107.98 29.68 L 107.74 30.65 L 107.49 31.62 L 107.24 32.59 L 107.00 33.56 L 106.75 34.53 L 106.51 35.50 L 106.28 36.58 L 106.04 37.66 L 105.81 38.74 L 105.58 39.82 L 105.35 40.90 L 105.12 41.99 L 104.93 43.00 L 104.76 44.01 L 104.57 45.04 L 104.39 46.04 L 104.21 47.06 L 104.03 48.07 L 103.85 49.09 L 103.69 50.19 L 103.53 51.28 L 103.37 52.36 L 103.20 53.45 L 103.04 54.54 L 102.88 55.63 L 102.72 56.72 L 102.60 57.74 L 102.48 58.75 L 102.37 59.76 L 102.25 60.77 L 102.13 61.78 L 102.01 62.79 L 101.89 63.81 L 101.77 64.82 L 101.67 65.88 L 101.58 66.94 L 101.48 67.99 L 101.39 69.05 L 101.29 70.11 L 101.20 71.17 L 101.10 72.23 L 101.01 73.29 L 100.94 74.38 L 100.87 75.47 L 100.80 76.57 L 100.73 77.66 L 100.66 78.75 L 100.59 79.85 L 100.52 80.94 L 100.45 82.03 L 100.41 83.15 L 100.37 84.26 L 100.33 85.38 L 100.28 86.50 L 100.24 87.62 L 100.20 88.73 L 100.16 89.85 L 100.11 90.96 L 100.10 91.97 L 100.09 92.97 L 100.08 93.98 L 100.06 94.98 L 100.05 95.99 L 100.04 96.99 L 100.03 97.99 L 100.01 98.99 L 100.00 100.00 L 100.01 101.01 L 100.03 102.01 L 100.04 103.01 L 100.05 104.01 L 100.06 105.02 L 100.08 106.02 L 100.09 107.03 L 100.10 108.03 L 100.11 109.04 L 100.16 110.15 L 100.20 111.27 L 100.24 112.38 L 100.28 113.50 L 100.33 114.62 L 100.37 115.74 L 100.41 116.85 L 100.45 117.97 L 100.52 119.06 L 100.59 120.15 L 100.66 121.25 L 100.73 122.34 L 100.80 123.43 L 100.87 124.53 L 100.94 125.62 L 101.01 126.71 L 101.10 127.77 L 101.20 128.83 L 101.29 129.89 L 101.39 130.95 L 101.48 132.01 L 101.58 133.06 L 101.67 134.12 L 101.77 135.18 L 101.89 136.19 L 102.01 137.21 L 102.13 138.22 L 102.25 139.23 L 102.37 140.24 L 102.48 141.25 L 102.60 142.26 L 102.72 143.28 L 102.88 144.37 L 103.04 145.46 L 103.20 146.55 L 103.37 147.64 L 103.53 148.72 L 103.69 149.81 L 103.85 150.91 L 104.03 151.93 L 104.21 152.94 L 104.39 153.96 L 104.57 154.96 L 104.76 155.99 L 104.93 157.00 L 105.12 158.01 L 105.35 159.10 L 105.58 160.18 L 105.81 161.26 L 106.04 162.34 L 106.28 163.42 L 106.51 164.50 L 106.75 165.47 L 107.00 166.44 L 107.24 167.41 L 107.49 168.38 L 107.74 169.35 L 107.99 170.31 L 108.29 171.33 L 108.60 172.35 L 108.91 173.36 L 109.21 174.37 L 109.52 175.39 L 109.83 176.25 L 110.15 177.10 L 110.46 177.96 L 110.77 178.82 L 111.09 179.67 L 111.47 180.54 L 111.86 181.41 L 112.24 182.27 L 112.64 183.13 L 113.13 184.00 L 113.63 184.86 L 114.13 185.73 L 114.84 186.58 L 115.54 187.43 L 116.19 187.83 L 116.83 188.23 L 117.39 188.18 L 117.96 188.13 L 118.43 187.62 L 118.90 187.12 L 119.25 186.16 L 119.61 185.22 L 119.77 184.30 L 119.91 183.38 L 120.07 182.46 L 120.12 181.56 L 120.16 180.67 L 120.20 179.78 L 120.25 178.87 L 120.22 177.78 L 120.19 176.69 L 120.16 175.59 L 120.13 174.50 L 120.04 173.48 L 119.96 172.46 L 119.87 171.44 L 119.78 170.42 L 119.69 169.40 L 119.56 168.44 L 119.44 167.47 L 119.30 166.51 L 119.18 165.55 L 119.05 164.59 L 118.92 163.62 L 118.73 162.56 L 118.55 161.50 L 118.36 160.43 L 118.18 159.36 L 117.99 158.30 L 117.80 157.24 L 117.60 156.24 L 117.39 155.26 L 117.18 154.27 L 116.97 153.28 L 116.76 152.29 L 116.56 151.30 L 116.35 150.31 L 116.09 149.26 L 115.83 148.20 L 115.57 147.15 L 115.32 146.09 L 115.06 145.04 L 114.80 143.98 L 114.55 142.93 L 114.28 141.96 L 114.01 140.99 L 113.74 140.01 L 113.48 139.05 L 113.21 138.08 L 112.95 137.11 L 112.68 136.14 L 112.41 135.17 L 112.11 134.16 L 111.80 133.15 L 111.49 132.15 L 111.18 131.15 L 110.88 130.14 L 110.57 129.13 L 110.26 128.12 L 109.95 127.11 L 109.61 126.09 L 109.27 125.05 L 108.92 124.02 L 108.57 122.99 L 108.23 121.95 L 107.88 120.92 L 107.54 119.90 L 107.20 118.86 L 106.81 117.81 L 106.43 116.76 L 106.05 115.72 L 105.67 114.67 L 105.29 113.62 L 104.91 112.58 L 104.53 111.53 L 104.15 110.49 L 103.79 109.55 L 103.42 108.63 L 103.05 107.69 L 102.69 106.76 L 102.32 105.83 L 101.96 104.89 L 101.59 103.96 L 101.23 103.03 L 100.86 102.09 L 100.47 101.17 L 100.08 100.24 L 99.69 99.31 L 99.30 98.39 L 98.91 97.46 L 98.52 96.54 L 98.13 95.61 L 97.74 94.68 L 97.35 93.76 L 96.88 92.74 L 96.42 91.72 L 95.96 90.70 L 95.50 89.67 L 95.04 88.65 L 94.58 87.63 L 94.11 86.60 L 93.65 85.59 L 93.17 84.59 L 92.69 83.60 L 92.22 82.61 L 91.74 81.61 L 91.26 80.62 L 90.78 79.62 L 90.30 78.64 L 89.82 77.64 L 89.33 76.69 L 88.84 75.74 L 88.35 74.79 L 87.86 73.83 L 87.37 72.88 L 86.88 71.93 L 86.38 70.98 L 85.89 70.02 L 85.39 69.12 L 84.90 68.22 L 84.40 67.31 L 83.91 66.41 L 83.41 65.51 L 82.91 64.61 L 82.42 63.71 L 81.92 62.80 L 81.35 61.83 L 80.78 60.87 L 80.22 59.90 L 79.65 58.94 L 79.08 57.97 L 78.52 57.01 L 77.95 56.04 L 77.39 55.16 L 76.83 54.27 L 76.28 53.38 L 75.72 52.49 L 75.16 51.60 L 74.59 50.71 L 74.04 49.83 L 73.49 49.02 L 72.95 48.22 L 72.41 47.42 L 71.86 46.62 L 71.32 45.81 L 70.78 45.01 L 70.23 44.21 L 69.63 43.37 L 69.02 42.54 L 68.41 41.72 L 67.80 40.89 L 67.20 40.06 L 66.59 39.23 L 65.91 38.38 L 65.22 37.52 L 64.54 36.67 L 63.85 35.80 L 63.17 34.95 L 62.54 34.24 L 61.90 33.53 L 61.27 32.82 L 60.64 32.11 L 60.01 31.40 L 59.30 30.70 L 58.59 30.00 L 57.88 29.30 L 57.17 28.60 L 56.35 27.93 L 55.52 27.26 L 54.69 26.59 L 54.01 26.18 L 53.32 25.77 L 52.63 25.35 L 51.82 25.14 L 51.02 24.92 L 50.45 25.08 L 49.88 25.25 L 49.58 25.81 L 49.28 26.35 L 49.24 27.28 L 49.20 28.20 L 49.37 29.05 L 49.53 29.90 L 49.68 30.75 L 49.96 31.56 L 50.22 32.36 L 50.48 33.17 L 50.75 33.97 L 51.16 34.93 L 51.57 35.90 L 51.98 36.86 L 52.39 37.82 L 52.83 38.70 L 53.28 39.58 L 53.71 40.46 L 54.16 41.35 L 54.61 42.23 L 55.07 43.05 L 55.53 43.88 L 56.00 44.69 L 56.47 45.52 L 56.93 46.33 L 57.39 47.15 L 57.95 48.05 L 58.50 48.95 L 59.06 49.84 L 59.62 50.73 L 60.17 51.63 L 60.73 52.53 L 61.28 53.35 L 61.84 54.18 L 62.39 54.99 L 62.94 55.81 L 63.49 56.64 L 64.04 57.46 L 64.60 58.29 L 65.22 59.15 L 65.84 60.02 L 66.47 60.88 L 67.10 61.75 L 67.72 62.62 L 68.34 63.48 L 68.97 64.35 L 69.57 65.14 L 70.17 65.92 L 70.78 66.72 L 71.38 67.51 L 71.99 68.29 L 72.59 69.08 L 73.19 69.87 L 73.80 70.66 L 74.45 71.46 L 75.11 72.27 L 75.77 73.08 L 76.42 73.89 L 77.08 74.70 L 77.74 75.50 L 78.39 76.32 L 79.05 77.13 L 79.76 77.95 L 80.46 78.76 L 81.16 79.58 L 81.86 80.40 L 82.57 81.22 L 83.27 82.04 L 83.97 82.86 L 84.68 83.68 L 85.42 84.50 L 86.16 85.33 L 86.90 86.15 L 87.65 86.97 L 88.40 87.80 L 89.14 88.62 L 89.88 89.44 L 90.62 90.26 L 91.40 91.08 L 92.17 91.89 L 92.95 92.71 L 93.72 93.52 L 94.50 94.34 L 95.27 95.15 L 96.05 95.97 L 96.83 96.79 L 97.53 97.49 L 98.24 98.20 L 98.95 98.91 L 99.66 99.62 L 100.38 100.34 L 101.09 101.05 L 101.80 101.76 L 102.51 102.47 L 103.21 103.17 L 104.03 103.95 L 104.85 104.73 L 105.66 105.50 L 106.48 106.28 L 107.29 107.05 L 108.11 107.83 L 108.92 108.60 L 109.74 109.38 L 110.56 110.12 L 111.38 110.86 L 112.20 111.60 L 113.03 112.35 L 113.85 113.10 L 114.67 113.84 L 115.50 114.58 L 116.32 115.32 L 117.14 116.03 L 117.96 116.73 L 118.78 117.43 L 119.60 118.14 L 120.42 118.84 L 121.24 119.54 L 122.05 120.24 L 122.87 120.94 L 123.69 121.60 L 124.50 122.26 L 125.30 122.92 L 126.11 123.58 L 126.92 124.23 L 127.73 124.89 L 128.54 125.55 L 129.34 126.20 L 130.13 126.80 L 130.92 127.41 L 131.71 128.01 L 132.50 128.61 L 133.28 129.22 L 134.08 129.83 L 134.86 130.43 L 135.65 131.03 L 136.52 131.66 L 137.38 132.28 L 138.25 132.91 L 139.12 133.53 L 139.98 134.16 L 140.85 134.78 L 141.71 135.40 L 142.54 135.96 L 143.36 136.51 L 144.19 137.06 L 145.00 137.61 L 145.82 138.16 L 146.65 138.72 L 147.47 139.27 L 148.37 139.83 L 149.26 140.38 L 150.16 140.94 L 151.05 141.49 L 151.95 142.05 L 152.85 142.61 L 153.66 143.08 L 154.48 143.54 L 155.31 144.00 L 156.13 144.46 L 156.95 144.93 L 157.76 145.40 L 158.65 145.84 L 159.54 146.28 L 160.42 146.72 L 161.30 147.17 L 162.18 147.61 L 163.14 148.02 L 164.11 148.43 L 165.07 148.84 L 166.02 149.25 L 166.83 149.52 L 167.64 149.78 L 168.44 150.05 L 169.25 150.32 L 170.10 150.48 L 170.95 150.64 L 171.80 150.80 L 172.72 150.77 L 173.64 150.73 L 174.19 150.42 L 174.74 150.12 L 174.92 149.55 L 175.08 148.98 L 174.87 148.17 L 174.65 147.37 L 174.23 146.68 L 173.82 145.99 L 173.41 145.31 L 172.74 144.48 L 172.07 143.66 L 171.40 142.83 L 170.70 142.13 L 170.00 141.42 L 169.30 140.70 L 168.60 139.99 L 167.89 139.36 L 167.18 138.73 L 166.47 138.10 L 165.76 137.46 L 165.05 136.84 L 164.20 136.15 L 163.33 135.46 L 162.48 134.77 L 161.62 134.09 L 160.77 133.41 L 159.94 132.80 L 159.11 132.20 L 158.28 131.59 L 157.46 130.98 L 156.63 130.38 L 155.79 129.76 L 154.99 129.22 L 154.19 128.68 L 153.38 128.14 L 152.58 127.59 L 151.78 127.05 L 150.98 126.50 L 150.17 125.97 L 149.29 125.41 L 148.40 124.85 L 147.50 124.28 L 146.62 123.73 L 145.73 123.16 L 144.84 122.61 L 143.96 122.05 L 142.99 121.48 L 142.03 120.91 L 141.06 120.35 L 140.10 119.78 L 139.13 119.22 L 138.17 118.65 L 137.20 118.08 L 136.30 117.58 L 135.39 117.09 L 134.50 116.59 L 133.59 116.09 L 132.69 115.59 L 131.79 115.10 L 130.88 114.61 L 129.98 114.11 L 129.02 113.62 L 128.07 113.12 L 127.12 112.63 L 126.17 112.14 L 125.21 111.65 L 124.26 111.16 L 123.31 110.67 L 122.36 110.18 L 121.36 109.70 L 120.37 109.22 L 119.38 108.74 L 118.39 108.26 L 117.39 107.78 L 116.40 107.30 L 115.41 106.83 L 114.42 106.35 L 113.40 105.89 L 112.37 105.42 L 111.35 104.96 L 110.33 104.50 L 109.30 104.04 L 108.28 103.57 L 107.26 103.12 L 106.24 102.65 L 105.32 102.26 L 104.39 101.87 L 103.46 101.48 L 102.54 101.09 L 101.61 100.70 L 100.69 100.31 L 99.76 99.92 L 98.83 99.53 L 97.91 99.14 L 96.97 98.77 L 96.04 98.41 L 95.11 98.04 L 94.17 97.68 L 93.24 97.31 L 92.31 96.95 L 91.37 96.58 L 90.44 96.21 L 89.51 95.85 L 88.47 95.47 L 87.42 95.09 L 86.38 94.71 L 85.33 94.33 L 84.28 93.95 L 83.24 93.57 L 82.19 93.19 L 81.14 92.80 L 80.10 92.46 L 79.08 92.12 L 78.05 91.77 L 77.01 91.42 L 75.98 91.08 L 74.95 90.73 L 73.91 90.39 L 72.89 90.05 L 71.88 89.74 L 70.87 89.43 L 69.86 89.12 L 68.85 88.82 L 67.85 88.51 L 66.85 88.20 L 65.84 87.89 L 64.83 87.59 L 63.87 87.32 L 62.89 87.05 L 61.92 86.79 L 60.95 86.52 L 59.99 86.26 L 59.01 85.99 L 58.04 85.72 L 57.07 85.45 L 56.02 85.20 L 54.96 84.94 L 53.91 84.68 L 52.85 84.42 L 51.80 84.17 L 50.74 83.91 L 49.69 83.65 L 48.70 83.44 L 47.71 83.24 L 46.72 83.03 L 45.73 82.82 L 44.74 82.61 L 43.76 82.41 L 42.77 82.20 L 41.70 82.01 L 40.64 81.83 L 39.57 81.64 L 38.50 81.45 L 37.44 81.27 L 36.38 81.08 L 35.41 80.95 L 34.45 80.82 L 33.49 80.70 L 32.52 80.57 L 31.56 80.44 L 30.60 80.31 L 29.58 80.22 L 28.56 80.13 L 27.54 80.05 L 26.52 79.96 L 25.50 79.87 L 24.41 79.84 L 23.31 79.81 L 22.22 79.78 L 21.13 79.75 L 20.22 79.79 L 19.33 79.84 L 18.44 79.89 L 17.54 79.93 L 16.62 80.08 L 15.70 80.24 L 14.78 80.39 L 13.84 80.74 L 12.88 81.10 L 12.38 81.57 L 11.87 82.04 L 11.83 82.61 L 11.77 83.17 L 12.17 83.81 L 12.57 84.45 L 13.42 85.17 L 14.27 85.87 L 15.14 86.37 L 16.00 86.87 L 16.87 87.37 L 17.73 87.75 L 18.59 88.14 L 19.46 88.53 L 20.33 88.91 L 21.18 89.22 L 22.04 89.54 L 22.90 89.85 L 23.75 90.17 L 24.61 90.48 L 25.63 90.78 L 26.64 91.09 L 27.65 91.40 L 28.67 91.70 L 29.68 92.02 L 30.65 92.26 L 31.62 92.51 L 32.59 92.75 L 33.56 93.00 L 34.53 93.25 L 35.50 93.49 L 36.58 93.73 L 37.66 93.95 L 38.74 94.19 L 39.82 94.42 L 40.90 94.65 L 41.99 94.88 L 43.00 95.06 L 44.01 95.25 L 45.04 95.43 L 46.04 95.61 L 47.06 95.79 L 48.07 95.97 L 49.09 96.16 L 50.19 96.31 L 51.28 96.48 L 52.36 96.64 L 53.45 96.79 L 54.54 96.96 L 55.63 97.12 L 56.72 97.28 L 57.74 97.39 L 58.75 97.51 L 59.76 97.64 L 60.77 97.75 L 61.78 97.87 L 62.79 97.99 L 63.81 98.11 L 64.82 98.23 L 65.88 98.32 L 66.94 98.42 L 67.99 98.51 L 69.05 98.61 L 70.11 98.71 L 71.17 98.80 L 72.23 98.90 L 73.29 98.99 L 74.38 99.06 L 75.47 99.13 L 76.57 99.20 L 77.66 99.27 L 78.75 99.34 L 79.85 99.41 L 80.94 99.48 L 82.03 99.55 L 83.15 99.59 L 84.26 99.63 L 85.38 99.68 L 86.50 99.72 L 87.62 99.76 L 88.73 99.80 L 89.85 99.84 L 90.96 99.89 L 91.97 99.90 L 92.97 99.91 L 93.98 99.92 L 94.98 99.94 L 95.99 99.95 L 96.99 99.96 L 97.99 99.97 L 98.99 99.99 L 100.00 100.00 L 101.01 99.99 L 102.01 99.97 L 103.01 99.96 L 104.01 99.95 L 105.02 99.94 L 106.02 99.92 L 107.03 99.91 L 108.03 99.90 L 109.04 99.89 L 110.15 99.84 L 111.27 99.80 L 112.38 99.76 L 113.50 99.72 L 114.62 99.68 L 115.74 99.63 L 116.85 99.59 L 117.97 99.55 L 119.06 99.48 L 120.15 99.41 L 121.25 99.34 L 122.34 99.27 L 123.43 99.20 L 124.53 99.13 L 125.62 99.06 L 126.71 98.99 L 127.77 98.90 L 128.83 98.80 L 129.89 98.71 L 130.95 98.61 L 132.01 98.52 L 133.06 98.42 L 134.12 98.33 L 135.18 98.23 L 136.19 98.11 L 137.21 97.99 L 138.22 97.87 L 139.23 97.75 L 140.24 97.63 L 141.25 97.52 L 142.26 97.40 L 143.28 97.28 L 144.37 97.12 L 145.46 96.96 L 146.55 96.80 L 147.64 96.64 L 148.72 96.48 L 149.81 96.32 L 150.91 96.15 L 151.93 95.97 L 152.94 95.79 L 153.96 95.61 L 154.96 95.43 L 155.99 95.25 L 157.00 95.07 L 158.01 94.89 L 159.10 94.65 L 160.18 94.42 L 161.26 94.19 L 162.34 93.96 L 163.42 93.73 L 164.50 93.49 L 165.47 93.24 L 166.44 93.00 L 167.41 92.75 L 168.38 92.51 L 169.35 92.26 L 170.31 92.01 L 171.33 91.71 L 172.35 91.40 L 173.36 91.09 L 174.37 90.78 L 175.39 90.48 L 176.25 90.16 L 177.10 89.86 L 177.96 89.54 L 178.82 89.23 L 179.67 88.92 L 180.54 88.53 L 181.41 88.14 L 182.27 87.76 L 183.13 87.37 L 184.00 86.86 L 184.86 86.37 L 185.73 85.87 L 186.58 85.16 L 187.43 84.46 L 187.83 83.82 L 188.23 83.17 L 188.17 82.60 L 188.13 82.04 L 187.62 81.57 L 187.12 81.10 L 186.17 80.75 L 185.22 80.39 L 184.30 80.23 L 183.38 80.08 L 182.46 79.93 L 181.56 79.88 L 180.67 79.84 L 179.78 79.79 L 178.87 79.75 L 177.78 79.78 L 176.69 79.81 L 175.59 79.84 L 174.50 79.87 L 173.48 79.95 L 172.46 80.05 L 171.44 80.13 L 170.42 80.22 L 169.41 80.31 L 168.44 80.44 L 167.48 80.57 L 166.51 80.69 L 165.55 80.82 L 164.59 80.95 L 163.62 81.08 L 162.56 81.27 L 161.50 81.45 L 160.42 81.64 L 159.36 81.82 L 158.30 82.01 L 157.23 82.19 L 156.24 82.40 L 155.26 82.61 L 154.27 82.82 L 153.28 83.03 L 152.29 83.24 L 151.31 83.45 L 150.31 83.65 L 149.26 83.91 L 148.20 84.17 L 147.15 84.42 L 146.09 84.68 L 145.04 84.94 L 143.98 85.20 L 142.93 85.45 L 141.96 85.72 L 140.99 85.99 L 140.01 86.25 L 139.05 86.52 L 138.07 86.79 L 137.11 87.06 L 136.14 87.32 L 135.17 87.59 L 134.16 87.90 L 133.15 88.20 L 132.14 88.51 L 131.15 88.81 L 130.14 89.12 L 129.13 89.43 L 128.12 89.74 L 127.11 90.05 L 126.09 90.39 L 125.05 90.73 L 124.02 91.08 L 122.99 91.43 L 121.95 91.77 L 120.92 92.12 L 119.89 92.46 L 118.86 92.81 L 117.81 93.19 L 116.76 93.57 L 115.72 93.94 L 114.67 94.33 L 113.62 94.71 L 112.58 95.09 L 111.53 95.47 L 110.48 95.85 L 109.56 96.21 L 108.62 96.58 L 107.69 96.95 L 106.76 97.31 L 105.83 97.68 L 104.89 98.04 L 103.96 98.41 L 103.03 98.77 L 102.09 99.14 L 101.17 99.53 L 100.24 99.92 L 99.31 100.31 L 98.39 100.70 L 97.46 101.09 L 96.54 101.48 L 95.61 101.87 L 94.68 102.26 L 93.76 102.65 L 92.74 103.12 L 91.72 103.57 L 90.70 104.04 L 89.67 104.50 L 88.65 104.96 L 87.63 105.42 L 86.60 105.89 L 85.59 106.35 L 84.59 106.83 L 83.60 107.31 L 82.61 107.78 L 81.61 108.26 L 80.62 108.74 L 79.62 109.22 L 78.64 109.70 L 77.64 110.18 L 76.69 110.67 L 75.74 111.16 L 74.79 111.65 L 73.84 112.14 L 72.88 112.63 L 71.93 113.12 L 70.98 113.61 L 70.02 114.11 L 69.12 114.60 L 68.21 115.10 L 67.31 115.60 L 66.41 116.09 L 65.51 116.59 L 64.60 117.09 L 63.71 117.58 L 62.80 118.08 L 61.83 118.65 L 60.87 119.21 L 59.90 119.78 L 58.94 120.35 L 57.97 120.92 L 57.01 121.48 L 56.04 122.05 L 55.16 122.61 L 54.27 123.17 L 53.38 123.73 L 52.49 124.28 L 51.60 124.85 L 50.71 125.40 L 49.83 125.96 L 49.02 126.51 L 48.22 127.05 L 47.42 127.59 L 46.61 128.13 L 45.81 128.68 L 45.01 129.22 L 44.21 129.77 L 43.37 130.37 L 42.54 130.98 L 41.71 131.59 L 40.89 132.19 L 40.06 132.80 L 39.23 133.40 L 38.38 134.09 L 37.52 134.78 L 36.67 135.46 L 35.80 136.15 L 34.95 136.83 L 34.24 137.46 L 33.53 138.10 L 32.82 138.73 L 32.11 139.36 L 31.40 139.99 L 30.70 140.70 L 30.00 141.41 L 29.30 142.12 L 28.60 142.83 L 27.93 143.65 L 27.26 144.48 L 26.59 145.30 L 26.18 145.99 L 25.77 146.68 L 25.36 147.37 L 25.13 148.18 L 24.91 148.98 L 25.08 149.55 L 25.25 150.11 L 25.81 150.42 L 26.36 150.73 L 27.28 150.76 L 28.20 150.80 L 29.05 150.64 L 29.90 150.47 L 30.75 150.31 L 31.56 150.05 L 32.37 149.78 L 33.16 149.51 L 33.98 149.25 L 34.93 148.84 L 35.90 148.43 L 36.86 148.02 L 37.81 147.61 L 38.70 147.17 L 39.59 146.72 L 40.46 146.28 L 41.35 145.84 L 42.23 145.39 L 43.05 144.93 L 43.88 144.47 L 44.69 144.00 L 45.52 143.54 L 46.33 143.07 L 47.15 142.61 L 48.05 142.05 L 48.95 141.50 L 49.84 140.94 L 50.74 140.39 L 51.63 139.83 L 52.53 139.27 L 53.35 138.72 L 54.18 138.16 L 55.00 137.62 L 55.82 137.07 L 56.64 136.51 L 57.46 135.96 L 58.29 135.40 L 59.15 134.78 L 60.01 134.15 L 60.88 133.53 L 61.75 132.90 L 62.62 132.28 L 63.48 131.66 L 64.35 131.04 L 65.14 130.43 L 65.92 129.83 L 66.72 129.22 L 67.51 128.62 L 68.29 128.01 L 69.08 127.41 L 69.87 126.80 L 70.65 126.20 L 71.46 125.55 L 72.27 124.89 L 73.08 124.23 L 73.89 123.58 L 74.70 122.92 L 75.50 122.26 L 76.32 121.60 L 77.13 120.94 L 77.95 120.24 L 78.76 119.54 L 79.58 118.84 L 80.40 118.14 L 81.22 117.43 L 82.04 116.73 L 82.86 116.03 L 83.68 115.32 L 84.51 114.58 L 85.33 113.84 L 86.15 113.10 L 86.97 112.35 L 87.80 111.60 L 88.62 110.86 L 89.44 110.12 L 90.26 109.38 L 91.08 108.60 L 91.89 107.83 L 92.71 107.05 L 93.52 106.28 L 94.34 105.50 L 95.15 104.73 L 95.97 103.95 L 96.79 103.17 L 97.49 102.47 L 98.20 101.76 L 98.91 101.05 L 99.62 100.34 L 100.34 99.62 L 101.05 98.91 L 101.76 98.20 L 102.47 97.49 L 103.17 96.79 L 103.95 95.97 L 104.73 95.15 L 105.50 94.34 L 106.28 93.52 L 107.05 92.71 L 107.83 91.89 L 108.60 91.08 L 109.38 90.26 L 110.12 89.44 L 110.86 88.62 L 111.60 87.80 L 112.35 86.97 L 113.09 86.15 L 113.84 85.33 L 114.58 84.51 L 115.32 83.68 L 116.03 82.86 L 116.73 82.04 L 117.43 81.22 L 118.14 80.40 L 118.84 79.58 L 119.54 78.76 L 120.24 77.95 L 120.94 77.13 L 121.60 76.32 L 122.26 75.50 L 122.92 74.70 L 123.58 73.89 L 124.23 73.08 L 124.89 72.27 L 125.55 71.46 L 126.20 70.66 L 126.80 69.87 L 127.41 69.08 L 128.01 68.29 L 128.62 67.50 L 129.22 66.72 L 129.83 65.92 L 130.43 65.13 L 131.04 64.35 L 131.66 63.48 L 132.28 62.62 L 132.91 61.75 L 133.53 60.88 L 134.16 60.02 L 134.78 59.15 L 135.40 58.29 L 135.96 57.46 L 136.51 56.64 L 137.06 55.82 L 137.61 55.00 L 138.17 54.18 L 138.72 53.35 L 139.27 52.53 L 139.83 51.63 L 140.39 50.74 L 140.94 49.84 L 141.50 48.95 L 142.05 48.05 L 142.61 47.15 L 143.08 46.34 L 143.54 45.52 L 144.01 44.69 L 144.46 43.87 L 144.93 43.05 L 145.39 42.23 L 145.84 41.35 L 146.28 40.46 L 146.72 39.59 L 147.16 38.70 L 147.61 37.82 L 148.02 36.86 L 148.43 35.89 L 148.84 34.93 L 149.25 33.98 L 149.52 33.17 L 149.78 32.37 L 150.05 31.56 L 150.31 30.75 L 150.48 29.90 L 150.64 29.05 L 150.80 28.20 L 150.76 27.28 L 150.73 26.36 L 150.42 25.81 L 150.11 25.25 L 149.55 25.09 L 148.99 24.92 L 148.18 25.13 L 147.37 25.36 L 146.68 25.77 L 145.99 26.18 L 145.30 26.59 L 144.48 27.25 L 143.66 27.94 L 142.83 28.60 L 142.12 29.30 L 141.41 30.00 L 140.71 30.70 L 139.99 31.40 L 139.36 32.11 L 138.73 32.82 L 138.10 33.53 L 137.47 34.24 L 136.83 34.95 L 136.15 35.81 L 135.46 36.67 L 134.78 37.52 L 134.09 38.38 L 133.41 39.23 L 132.80 40.06 L 132.19 40.89 L 131.59 41.72 L 130.98 42.54 L 130.38 43.37 L 129.76 44.21 L 129.22 45.01 L 128.68 45.81 L 128.14 46.62 L 127.59 47.42 L 127.05 48.22 L 126.51 49.02 L 125.96 49.83 L 125.40 50.71 L 124.85 51.60 L 124.29 52.50 L 123.73 53.38 L 123.17 54.27 L 122.61 55.16 L 122.05 56.05 L 121.48 57.01 L 120.92 57.97 L 120.35 58.94 L 119.78 59.90 L 119.21 60.87 L 118.65 61.83 L 118.08 62.80 L 117.58 63.71 L 117.08 64.60 L 116.59 65.51 L 116.09 66.41 L 115.60 67.31 L 115.10 68.21 L 114.60 69.11 L 114.10 70.02 L 113.61 70.98 L 113.12 71.93 L 112.63 72.88 L 112.14 73.84 L 111.65 74.79 L 111.16 75.74 L 110.67 76.69 L 110.18 77.64 L 109.70 78.64 L 109.22 79.63 L 108.74 80.62 L 108.26 81.61 L 107.78 82.61 L 107.30 83.60 L 106.83 84.59 L 106.35 85.58 L 105.89 86.60 L 105.42 87.63 L 104.96 88.65 L 104.50 89.67 L 104.04 90.70 L 103.57 91.72 L 103.12 92.74 L 102.65 93.76 L 102.26 94.68 L 101.87 95.61 L 101.48 96.54 L 101.09 97.46 L 100.70 98.39 L 100.31 99.31 L 99.92 100.24 L 99.53 101.17 L 99.14 102.09 L 98.77 103.03 L 98.41 103.96 L 98.04 104.89 L 97.68 105.83 L 97.31 106.76 L 96.95 107.69 L 96.58 108.62 L 96.21 109.56 L 95.85 110.49 L 95.47 111.53 L 95.09 112.58 L 94.71 113.62 L 94.33 114.67 L 93.95 115.72 L 93.57 116.76 L 93.19 117.81 L 92.81 118.86 L 92.46 119.89 L 92.12 120.92 L 91.77 121.95 L 91.43 122.99 L 91.08 124.02 L 90.74 125.05 L 90.39 126.09 L 90.05 127.11 L 89.74 128.12 L 89.43 129.13 L 89.12 130.14 L 88.81 131.15 L 88.51 132.15 L 88.20 133.15 L 87.90 134.16 L 87.59 135.17 L 87.32 136.14 L 87.05 137.11 L 86.79 138.07 L 86.52 139.05 L 86.25 140.01 L 85.99 140.99 L 85.72 141.96 L 85.45 142.93 L 85.20 143.98 L 84.94 145.04 L 84.68 146.09 L 84.42 147.15 L 84.17 148.20 L 83.91 149.26 L 83.65 150.31 L 83.44 151.30 L 83.24 152.29 L 83.03 153.28 L 82.82 154.27 L 82.61 155.26 L 82.40 156.24 L 82.19 157.23 L 82.01 158.30 L 81.83 159.36 L 81.64 160.42 L 81.45 161.50 L 81.27 162.56 L 81.08 163.62 L 80.95 164.59 L 80.82 165.55 L 80.69 166.51 L 80.57 167.48 L 80.44 168.44 L 80.31 169.40 L 80.22 170.42 L 80.14 171.44 L 80.05 172.46 L 79.96 173.48 L 79.87 174.50 L 79.84 175.60 L 79.81 176.70 L 79.78 177.79 L 79.75 178.87 L 79.79 179.78 L 79.84 180.67 L 79.88 181.56 L 79.93 182.46 L 80.08 183.38 L 80.23 184.30 L 80.39 185.22 L 80.74 186.16 L 81.10 187.12 L 81.57 187.62 L 82.04 188.12 L 82.60 188.17 L 83.17 188.23 L 83.82 187.83 L 84.46 187.43 L 85.17 186.58 L 85.87 185.73 L 86.37 184.86 L 86.87 184.00 L 87.37 183.13 L 87.75 182.27 L 88.14 181.41 L 88.53 180.54 L 88.92 179.68 L 89.23 178.82 L 89.54 177.96 L 89.85 177.10 L 90.16 176.25 L 90.47 175.39 L 90.78 174.37 L 91.09 173.36 L 91.40 172.35 L 91.70 171.33 L 92.01 170.31 L 92.26 169.35 L 92.50 168.38 L 92.75 167.41 L 93.00 166.44 L 93.25 165.47 L 93.50 164.50 L 93.73 163.42 L 93.96 162.34 L 94.19 161.26 L 94.42 160.18 L 94.65 159.10 L 94.88 158.01 L 95.06 157.00 L 95.25 155.99 L 95.43 154.96 L 95.61 153.96 L 95.79 152.94 L 95.97 151.93 L 96.15 150.91 L 96.32 149.81 L 96.48 148.72 L 96.64 147.64 L 96.80 146.55 L 96.95 145.46 L 97.12 144.37 L 97.28 143.28 L 97.40 142.26 L 97.51 141.25 L 97.64 140.24 L 97.75 139.23 L 97.87 138.22 L 97.99 137.21 L 98.11 136.19 L 98.23 135.18 L 98.33 134.12 L 98.42 133.06 L 98.52 132.01 L 98.61 130.95 L 98.71 129.89 L 98.80 128.83 L 98.90 127.77 L 98.99 126.71 L 99.06 125.62 L 99.13 124.53 L 99.20 123.43 L 99.27 122.34 L 99.34 121.25 L 99.41 120.15 L 99.48 119.06 L 99.55 117.97 L 99.59 116.85 L 99.63 115.74 L 99.68 114.62 L 99.72 113.50 L 99.76 112.38 L 99.80 111.27 L 99.84 110.15 L 99.89 109.04 L 99.90 108.03 L 99.91 107.03 L 99.92 106.02 L 99.94 105.02 L 99.95 104.01 L 99.96 103.01 L 99.97 102.01 L 99.99 101.01 L 100.00 100.00" 
          fill="none" 
          stroke="currentColor" 
          stroke-width="0.5"/>
</svg>