<?xml version="1.0" encoding="UTF-8" standalone="no"?>
<svg width="100%" height="100%" viewBox="0 0 200 200" preserveAspectRatio="xMidYMid meet" xmlns="http://www.w3.org/2000/svg">
    <path d="M 100.00 100.00 L 99.45 99.25 L 98.90 98.50 L 98.35 97.75 L 97.80 97.00 L 97.31 96.25 L 96.81 95.50 L 96.32 94.75 L 95.82 94.00 L 95.43 93.25 L 95.04 92.50 L 94.64 91.75 L 94.25 91.00 L 93.91 90.00 L 93.58 89.00 L 93.24 88.00 L 93.13 87.00 L 93.01 86.00 L 92.90 85.00 L 93.01 84.00 L 93.13 83.00 L 93.24 82.00 L 93.58 81.00 L 93.92 80.00 L 94.25 79.00 L 94.64 78.25 L 95.04 77.50 L 95.43 76.75 L 95.82 76.00 L 96.32 75.25 L 96.81 74.50 L 97.31 73.75 L 97.81 73.00 L 98.35 72.25 L 98.90 71.50 L 99.45 70.75 L 100.00 70.00 L 100.55 69.25 L 101.10 68.50 L 101.65 67.75 L 102.19 67.00 L 102.69 66.25 L 103.19 65.50 L 103.68 64.75 L 104.18 64.00 L 104.57 63.25 L 104.96 62.50 L 105.35 61.75 L 105.75 61.00 L 106.09 60.00 L 106.42 59.00 L 106.76 58.00 L 106.87 57.00 L 106.99 56.00 L 107.11 55.00 L 106.99 54.00 L 106.87 53.00 L 106.76 52.00 L 106.42 51.00 L 106.09 50.00 L 105.75 49.00 L 105.35 48.25 L 104.96 47.50 L 104.57 46.75 L 104.18 46.00 L 103.68 45.25 L 103.18 44.50 L 102.69 43.75 L 102.20 43.00 L 101.65 42.25 L 101.10 41.50 L 100.55 40.75 L 100.00 40.00 L 99.45 39.25 L 98.90 38.50 L 98.35 37.75 L 97.81 37.00 L 97.31 36.25 L 96.81 35.50 L 96.32 34.75 L 95.82 34.00 L 95.43 33.25 L 95.04 32.50 L 94.65 31.75 L 94.25 31.00 L 93.92 30.00 L 93.58 29.00 L 93.24 28.00 L 93.13 27.00 L 93.01 26.00 L 92.89 25.00 L 93.01 24.00 L 93.13 23.00 L 93.24 22.00 L 93.58 21.00 L 93.92 20.00 L 94.25 19.00 L 94.65 18.25 L 95.04 17.50 L 95.43 16.75 L 95.82 16.00 L 96.32 15.25 L 96.82 14.50 L 97.31 13.75 L 97.81 13.00 L 98.35 12.25 L 98.90 11.50 L 99.45 10.75 L 100.00 10.00 L 98.93 10.07 L 97.86 10.14 L 96.79 10.21 L 95.73 10.28 L 94.66 10.35 L 93.59 10.42 L 92.53 10.49 L 91.46 10.56 L 90.39 10.63 L 89.32 10.70 L 88.25 10.77 L 88.89 11.44 L 89.54 12.11 L 90.18 12.78 L 90.82 13.46 L 91.41 14.14 L 91.99 14.81 L 92.59 15.49 L 93.18 16.17 L 93.66 16.87 L 94.15 17.56 L 94.64 18.25 L 95.12 18.94 L 95.59 19.89 L 96.05 20.84 L 96.52 21.79 L 96.76 22.76 L 97.01 23.74 L 97.26 24.71 L 97.27 25.72 L 97.29 26.73 L 97.30 27.74 L 97.10 28.77 L 96.90 29.81 L 96.69 30.84 L 96.40 31.63 L 96.11 32.43 L 95.81 33.23 L 95.53 34.02 L 95.14 34.82 L 94.74 35.64 L 94.35 36.44 L 93.95 37.25 L 93.50 38.07 L 93.06 38.89 L 92.61 39.70 L 92.17 40.51 L 91.72 41.33 L 91.27 42.15 L 90.83 42.96 L 90.38 43.77 L 89.99 44.58 L 89.60 45.39 L 89.21 46.20 L 88.81 47.01 L 88.52 47.81 L 88.23 48.60 L 87.94 49.39 L 87.65 50.18 L 87.44 51.22 L 87.24 52.26 L 87.03 53.29 L 87.05 54.30 L 87.07 55.30 L 87.08 56.31 L 87.33 57.29 L 87.57 58.27 L 87.82 59.24 L 88.28 60.19 L 88.74 61.13 L 89.21 62.08 L 89.70 62.78 L 90.18 63.47 L 90.67 64.16 L 91.16 64.85 L 91.75 65.53 L 92.34 66.21 L 92.93 66.89 L 93.52 67.57 L 94.16 68.24 L 94.80 68.91 L 95.44 69.59 L 96.08 70.26 L 96.73 70.92 L 97.37 71.60 L 98.01 72.27 L 98.65 72.94 L 99.24 73.62 L 99.83 74.31 L 100.42 74.98 L 101.01 75.66 L 101.50 76.35 L 101.98 77.05 L 102.47 77.74 L 102.96 78.43 L 103.42 79.37 L 103.89 80.33 L 104.35 81.27 L 104.59 82.25 L 104.84 83.22 L 105.09 84.20 L 105.10 85.20 L 105.12 86.21 L 105.13 87.22 L 104.93 88.26 L 104.73 89.29 L 104.53 90.32 L 104.23 91.12 L 103.94 91.92 L 103.65 92.71 L 103.36 93.51 L 102.96 94.32 L 102.57 95.12 L 102.18 95.93 L 101.78 96.74 L 101.34 97.55 L 100.89 98.37 L 100.45 99.19 L 100.00 100.00 L 100.00 100.00 L 99.28 99.42 L 98.55 98.83 L 97.83 98.25 L 97.10 97.67 L 96.43 97.07 L 95.76 96.48 L 95.09 95.88 L 94.41 95.29 L 93.84 94.66 L 93.27 94.04 L 92.69 93.42 L 92.12 92.79 L 91.53 91.91 L 90.95 91.04 L 90.37 90.16 L 90.00 89.22 L 89.62 88.28 L 89.26 87.35 L 89.11 86.35 L 88.96 85.36 L 88.82 84.36 L 88.88 83.31 L 88.95 82.25 L 89.01 81.20 L 89.20 80.38 L 89.38 79.55 L 89.57 78.72 L 89.75 77.90 L 90.04 77.05 L 90.32 76.20 L 90.61 75.34 L 90.89 74.49 L 91.23 73.62 L 91.56 72.76 L 91.90 71.89 L 92.24 71.03 L 92.57 70.16 L 92.91 69.29 L 93.24 68.42 L 93.58 67.55 L 93.87 66.70 L 94.15 65.85 L 94.43 65.00 L 94.72 64.14 L 94.90 63.32 L 95.09 62.49 L 95.27 61.67 L 95.46 60.84 L 95.53 59.78 L 95.59 58.74 L 95.66 57.68 L 95.51 56.69 L 95.36 55.69 L 95.22 54.69 L 94.85 53.76 L 94.47 52.82 L 94.11 51.89 L 93.52 51.01 L 92.94 50.12 L 92.35 49.25 L 91.78 48.62 L 91.20 48.01 L 90.63 47.39 L 90.06 46.76 L 89.38 46.16 L 88.71 45.57 L 88.04 44.97 L 87.37 44.37 L 86.64 43.79 L 85.92 43.21 L 85.20 42.62 L 84.47 42.04 L 83.75 41.46 L 83.02 40.88 L 82.30 40.30 L 81.58 39.72 L 80.90 39.12 L 80.23 38.53 L 79.55 37.92 L 78.88 37.33 L 78.31 36.71 L 77.74 36.09 L 77.16 35.46 L 76.59 34.84 L 76.01 33.96 L 75.42 33.08 L 74.84 32.20 L 74.47 31.27 L 74.09 30.33 L 73.72 29.39 L 73.58 28.40 L 73.43 27.40 L 73.29 26.41 L 73.35 25.35 L 73.42 24.30 L 73.48 23.25 L 73.67 22.42 L 73.85 21.60 L 74.04 20.77 L 74.22 19.94 L 74.51 19.09 L 74.80 18.23 L 75.08 17.39 L 75.36 16.53 L 75.69 15.66 L 76.03 14.80 L 76.37 13.93 L 76.71 13.07 L 75.69 13.41 L 74.68 13.76 L 73.66 14.10 L 72.65 14.44 L 71.64 14.78 L 70.63 15.13 L 69.62 15.48 L 68.60 15.82 L 67.59 16.16 L 66.57 16.51 L 65.56 16.85 L 66.35 17.33 L 67.15 17.82 L 67.94 18.30 L 68.73 18.78 L 69.48 19.29 L 70.22 19.79 L 70.97 20.29 L 71.71 20.79 L 72.36 21.34 L 73.02 21.88 L 73.66 22.42 L 74.31 22.96 L 75.00 23.76 L 75.70 24.55 L 76.39 25.35 L 76.88 26.23 L 77.37 27.11 L 77.87 27.99 L 78.14 28.96 L 78.42 29.93 L 78.69 30.90 L 78.76 31.95 L 78.83 33.00 L 78.91 34.05 L 78.83 34.89 L 78.76 35.74 L 78.67 36.58 L 78.60 37.43 L 78.43 38.30 L 78.26 39.19 L 78.09 40.07 L 77.92 40.96 L 77.70 41.86 L 77.48 42.77 L 77.26 43.67 L 77.04 44.56 L 76.82 45.47 L 76.60 46.38 L 76.38 47.28 L 76.16 48.18 L 75.99 49.06 L 75.82 49.94 L 75.65 50.83 L 75.48 51.71 L 75.40 52.56 L 75.33 53.40 L 75.25 54.24 L 75.17 55.08 L 75.24 56.13 L 75.32 57.19 L 75.39 58.24 L 75.66 59.21 L 75.94 60.17 L 76.21 61.14 L 76.71 62.02 L 77.20 62.91 L 77.68 63.78 L 78.38 64.58 L 79.07 65.37 L 79.77 66.17 L 80.42 66.71 L 81.06 67.25 L 81.71 67.79 L 82.36 68.34 L 83.11 68.84 L 83.85 69.34 L 84.60 69.85 L 85.34 70.35 L 86.14 70.83 L 86.93 71.32 L 87.72 71.80 L 88.52 72.29 L 89.31 72.76 L 90.11 73.25 L 90.90 73.73 L 91.69 74.21 L 92.44 74.72 L 93.19 75.22 L 93.93 75.73 L 94.67 76.23 L 95.32 76.77 L 95.98 77.31 L 96.62 77.85 L 97.27 78.40 L 97.97 79.19 L 98.66 79.99 L 99.35 80.79 L 99.84 81.67 L 100.33 82.54 L 100.82 83.42 L 101.10 84.39 L 101.38 85.36 L 101.65 86.33 L 101.72 87.38 L 101.79 88.43 L 101.87 89.48 L 101.79 90.33 L 101.71 91.17 L 101.64 92.01 L 101.56 92.86 L 101.39 93.74 L 101.22 94.62 L 101.05 95.50 L 100.88 96.39 L 100.66 97.29 L 100.44 98.19 L 100.22 99.10 L 100.00 100.00 L 100.00 100.00 L 99.15 99.63 L 98.30 99.25 L 97.45 98.87 L 96.60 98.50 L 95.79 98.10 L 94.99 97.69 L 94.19 97.30 L 93.39 96.89 L 92.67 96.44 L 91.95 95.99 L 91.24 95.53 L 90.52 95.08 L 89.73 94.38 L 88.94 93.69 L 88.15 92.99 L 87.55 92.18 L 86.94 91.37 L 86.35 90.56 L 85.95 89.64 L 85.55 88.72 L 85.15 87.79 L 84.94 86.76 L 84.73 85.72 L 84.52 84.69 L 84.49 83.84 L 84.45 83.00 L 84.42 82.15 L 84.38 81.30 L 84.44 80.41 L 84.49 79.51 L 84.54 78.61 L 84.60 77.71 L 84.70 76.79 L 84.80 75.87 L 84.90 74.94 L 85.00 74.02 L 85.10 73.10 L 85.20 72.17 L 85.30 71.25 L 85.40 70.32 L 85.46 69.42 L 85.51 68.53 L 85.56 67.63 L 85.62 66.73 L 85.58 65.89 L 85.55 65.04 L 85.51 64.20 L 85.48 63.35 L 85.27 62.31 L 85.06 61.28 L 84.85 60.25 L 84.45 59.33 L 84.05 58.40 L 83.65 57.48 L 83.05 56.67 L 82.45 55.86 L 81.85 55.05 L 81.06 54.35 L 80.27 53.65 L 79.47 52.96 L 78.76 52.50 L 78.05 52.06 L 77.33 51.60 L 76.62 51.15 L 75.81 50.75 L 75.01 50.34 L 74.21 49.94 L 73.40 49.54 L 72.55 49.17 L 71.70 48.79 L 70.85 48.41 L 70.00 48.04 L 69.15 47.66 L 68.30 47.29 L 67.45 46.91 L 66.60 46.54 L 65.79 46.13 L 64.99 45.74 L 64.18 45.33 L 63.38 44.93 L 62.67 44.48 L 61.95 44.03 L 61.24 43.57 L 60.52 43.12 L 59.73 42.42 L 58.94 41.72 L 58.15 41.03 L 57.55 40.22 L 56.94 39.41 L 56.34 38.60 L 55.95 37.68 L 55.55 36.75 L 55.15 35.83 L 54.94 34.79 L 54.73 33.76 L 54.52 32.73 L 54.49 31.88 L 54.45 31.04 L 54.42 30.19 L 54.38 29.34 L 54.44 28.44 L 54.49 27.54 L 54.54 26.65 L 54.60 25.75 L 54.70 24.83 L 54.80 23.91 L 54.90 22.98 L 55.00 22.06 L 54.11 22.65 L 53.22 23.25 L 52.33 23.84 L 51.44 24.44 L 50.55 25.03 L 49.66 25.62 L 48.77 26.22 L 47.88 26.81 L 47.00 27.41 L 46.10 28.00 L 45.21 28.60 L 46.10 28.86 L 47.00 29.12 L 47.89 29.38 L 48.78 29.64 L 49.63 29.93 L 50.47 30.23 L 51.33 30.52 L 52.18 30.81 L 52.94 31.17 L 53.72 31.53 L 54.48 31.88 L 55.25 32.24 L 56.12 32.82 L 57.00 33.41 L 57.88 34.01 L 58.57 34.73 L 59.28 35.45 L 59.98 36.17 L 60.50 37.03 L 61.01 37.90 L 61.53 38.77 L 61.87 39.76 L 62.21 40.76 L 62.56 41.76 L 62.70 42.59 L 62.85 43.43 L 62.99 44.26 L 63.14 45.10 L 63.20 45.99 L 63.27 46.89 L 63.33 47.78 L 63.39 48.69 L 63.41 49.61 L 63.43 50.55 L 63.45 51.47 L 63.47 52.40 L 63.49 53.33 L 63.52 54.26 L 63.54 55.19 L 63.56 56.12 L 63.62 57.01 L 63.69 57.91 L 63.75 58.80 L 63.81 59.70 L 63.96 60.54 L 64.11 61.37 L 64.25 62.20 L 64.39 63.03 L 64.73 64.03 L 65.08 65.03 L 65.42 66.03 L 65.93 66.89 L 66.45 67.76 L 66.97 68.62 L 67.67 69.35 L 68.37 70.07 L 69.07 70.79 L 69.95 71.38 L 70.82 71.97 L 71.70 72.56 L 72.47 72.92 L 73.23 73.27 L 74.00 73.62 L 74.77 73.98 L 75.62 74.28 L 76.47 74.57 L 77.32 74.86 L 78.17 75.15 L 79.06 75.42 L 79.95 75.68 L 80.85 75.94 L 81.74 76.20 L 82.63 76.46 L 83.52 76.72 L 84.41 76.98 L 85.30 77.24 L 86.15 77.54 L 87.01 77.83 L 87.86 78.12 L 88.70 78.41 L 89.47 78.77 L 90.24 79.13 L 91.01 79.48 L 91.78 79.84 L 92.65 80.43 L 93.53 81.02 L 94.40 81.61 L 95.10 82.33 L 95.80 83.05 L 96.51 83.78 L 97.02 84.64 L 97.54 85.50 L 98.06 86.37 L 98.40 87.37 L 98.74 88.36 L 99.08 89.36 L 99.23 90.19 L 99.37 91.03 L 99.52 91.86 L 99.66 92.70 L 99.72 93.60 L 99.79 94.49 L 99.85 95.39 L 99.92 96.28 L 99.94 97.21 L 99.96 98.14 L 99.98 99.07 L 100.00 100.00 L 100.00 100.00 L 99.08 99.86 L 98.16 99.71 L 97.24 99.57 L 96.33 99.43 L 95.44 99.25 L 94.56 99.07 L 93.69 98.89 L 92.81 98.71 L 91.99 98.46 L 91.19 98.21 L 90.38 97.95 L 89.57 97.70 L 88.62 97.23 L 87.68 96.76 L 86.74 96.29 L 85.95 95.67 L 85.16 95.04 L 84.37 94.42 L 83.74 93.63 L 83.12 92.84 L 82.50 92.05 L 82.03 91.11 L 81.55 90.16 L 81.09 89.22 L 80.83 88.41 L 80.58 87.60 L 80.33 86.79 L 80.07 85.98 L 79.90 85.10 L 79.72 84.22 L 79.53 83.34 L 79.36 82.46 L 79.21 81.54 L 79.07 80.62 L 78.93 79.70 L 78.79 78.79 L 78.64 77.87 L 78.50 76.95 L 78.36 76.03 L 78.22 75.11 L 78.04 74.23 L 77.86 73.35 L 77.68 72.47 L 77.50 71.59 L 77.24 70.78 L 76.99 69.97 L 76.74 69.17 L 76.49 68.36 L 76.02 67.41 L 75.55 66.47 L 75.08 65.52 L 74.46 64.74 L 73.83 63.95 L 73.20 63.16 L 72.41 62.53 L 71.62 61.90 L 70.84 61.28 L 69.89 60.81 L 68.94 60.34 L 68.00 59.87 L 67.19 59.62 L 66.39 59.37 L 65.58 59.12 L 64.77 58.86 L 63.89 58.68 L 63.01 58.50 L 62.13 58.32 L 61.25 58.14 L 60.33 58.00 L 59.41 57.86 L 58.49 57.71 L 57.57 57.57 L 56.66 57.43 L 55.74 57.29 L 54.82 57.15 L 53.90 57.00 L 53.02 56.82 L 52.14 56.65 L 51.25 56.46 L 50.38 56.28 L 49.57 56.03 L 48.76 55.78 L 47.95 55.52 L 47.15 55.27 L 46.20 54.81 L 45.26 54.34 L 44.31 53.87 L 43.52 53.24 L 42.73 52.62 L 41.94 51.99 L 41.32 51.20 L 40.69 50.41 L 40.07 49.62 L 39.60 48.68 L 39.13 47.73 L 38.66 46.78 L 38.41 45.98 L 38.16 45.18 L 37.90 44.36 L 37.65 43.56 L 37.47 42.67 L 37.29 41.79 L 37.11 40.92 L 36.93 40.03 L 36.78 39.12 L 36.65 38.20 L 36.50 37.28 L 36.36 36.36 L 35.65 37.17 L 34.95 37.97 L 34.24 38.78 L 33.54 39.58 L 32.83 40.38 L 32.13 41.19 L 31.42 41.99 L 30.72 42.80 L 30.01 43.60 L 29.30 44.40 L 28.60 45.21 L 29.52 45.24 L 30.46 45.25 L 31.39 45.27 L 32.31 45.30 L 33.21 45.36 L 34.10 45.42 L 35.00 45.48 L 35.90 45.55 L 36.73 45.70 L 37.57 45.84 L 38.40 45.98 L 39.23 46.13 L 40.23 46.47 L 41.23 46.81 L 42.23 47.16 L 43.09 47.67 L 43.96 48.19 L 44.82 48.70 L 45.55 49.40 L 46.27 50.11 L 46.99 50.81 L 47.58 51.68 L 48.17 52.56 L 48.76 53.44 L 49.11 54.20 L 49.47 54.97 L 49.82 55.74 L 50.18 56.51 L 50.47 57.35 L 50.77 58.21 L 51.06 59.05 L 51.36 59.91 L 51.62 60.80 L 51.88 61.69 L 52.14 62.59 L 52.40 63.47 L 52.66 64.37 L 52.92 65.26 L 53.18 66.15 L 53.44 67.04 L 53.74 67.89 L 54.03 68.74 L 54.32 69.59 L 54.62 70.44 L 54.98 71.21 L 55.33 71.98 L 55.68 72.74 L 56.04 73.51 L 56.62 74.39 L 57.22 75.26 L 57.80 76.14 L 58.53 76.84 L 59.25 77.54 L 59.97 78.24 L 60.84 78.76 L 61.71 79.28 L 62.56 79.79 L 63.56 80.14 L 64.56 80.48 L 65.56 80.82 L 66.40 80.97 L 67.23 81.11 L 68.06 81.25 L 68.90 81.40 L 69.79 81.46 L 70.69 81.52 L 71.58 81.59 L 72.48 81.65 L 73.41 81.67 L 74.34 81.69 L 75.27 81.72 L 76.20 81.74 L 77.13 81.75 L 78.06 81.78 L 78.99 81.80 L 79.91 81.82 L 80.81 81.89 L 81.71 81.95 L 82.61 82.01 L 83.50 82.07 L 84.34 82.22 L 85.17 82.37 L 86.00 82.51 L 86.84 82.66 L 87.84 83.00 L 88.84 83.34 L 89.83 83.68 L 90.70 84.20 L 91.56 84.72 L 92.43 85.23 L 93.15 85.93 L 93.87 86.63 L 94.59 87.34 L 95.18 88.21 L 95.77 89.08 L 96.36 89.96 L 96.71 90.73 L 97.07 91.50 L 97.43 92.26 L 97.78 93.04 L 98.08 93.89 L 98.37 94.73 L 98.66 95.58 L 98.96 96.43 L 99.22 97.32 L 99.48 98.21 L 99.74 99.11 L 100.00 100.00 L 100.00 100.00 L 99.08 100.10 L 98.15 100.20 L 97.23 100.30 L 96.30 100.40 L 95.41 100.46 L 94.51 100.51 L 93.62 100.56 L 92.72 100.62 L 91.87 100.58 L 91.03 100.55 L 90.18 100.51 L 89.33 100.48 L 88.29 100.27 L 87.27 100.06 L 86.23 99.85 L 85.30 99.45 L 84.38 99.05 L 83.46 98.65 L 82.65 98.05 L 81.84 97.45 L 81.04 96.85 L 80.34 96.06 L 79.64 95.27 L 78.94 94.48 L 78.49 93.76 L 78.03 93.05 L 77.58 92.33 L 77.12 91.62 L 76.73 90.81 L 76.33 90.01 L 75.92 89.21 L 75.52 88.40 L 75.14 87.55 L 74.77 86.70 L 74.39 85.85 L 74.02 85.00 L 73.65 84.15 L 73.27 83.30 L 72.89 82.45 L 72.52 81.60 L 72.12 80.79 L 71.71 79.99 L 71.31 79.19 L 70.91 78.38 L 70.46 77.67 L 70.01 76.95 L 69.56 76.24 L 69.10 75.52 L 68.40 74.73 L 67.70 73.94 L 67.00 73.15 L 66.20 72.55 L 65.39 71.95 L 64.58 71.35 L 63.66 70.95 L 62.73 70.55 L 61.81 70.15 L 60.78 69.94 L 59.74 69.73 L 58.70 69.52 L 57.86 69.49 L 57.02 69.46 L 56.17 69.42 L 55.32 69.38 L 54.43 69.44 L 53.53 69.49 L 52.63 69.55 L 51.73 69.60 L 50.81 69.70 L 49.89 69.80 L 48.96 69.90 L 48.04 70.00 L 47.12 70.10 L 46.19 70.21 L 45.27 70.30 L 44.35 70.40 L 43.44 70.45 L 42.55 70.51 L 41.65 70.56 L 40.75 70.62 L 39.91 70.58 L 39.06 70.55 L 38.21 70.51 L 37.37 70.48 L 36.34 70.27 L 35.30 70.06 L 34.27 69.85 L 33.34 69.45 L 32.42 69.05 L 31.49 68.66 L 30.69 68.05 L 29.88 67.45 L 29.07 66.85 L 28.37 66.06 L 27.67 65.27 L 26.98 64.47 L 26.52 63.76 L 26.07 63.05 L 25.62 62.33 L 25.16 61.62 L 24.76 60.81 L 24.36 60.00 L 23.96 59.21 L 23.56 58.40 L 23.18 57.55 L 22.81 56.70 L 22.43 55.85 L 22.06 55.00 L 21.58 55.96 L 21.11 56.92 L 20.64 57.88 L 20.16 58.84 L 19.69 59.80 L 19.22 60.76 L 18.75 61.72 L 18.27 62.68 L 17.80 63.64 L 17.32 64.60 L 16.85 65.56 L 17.75 65.34 L 18.66 65.12 L 19.56 64.89 L 20.46 64.68 L 21.35 64.51 L 22.22 64.34 L 23.11 64.17 L 23.99 63.99 L 24.83 63.92 L 25.68 63.84 L 26.52 63.77 L 27.36 63.69 L 28.41 63.76 L 29.47 63.83 L 30.52 63.91 L 31.49 64.18 L 32.46 64.46 L 33.43 64.73 L 34.31 65.22 L 35.19 65.71 L 36.07 66.20 L 36.86 66.90 L 37.66 67.59 L 38.45 68.29 L 38.99 68.93 L 39.54 69.58 L 40.08 70.24 L 40.62 70.88 L 41.12 71.62 L 41.63 72.37 L 42.13 73.12 L 42.64 73.87 L 43.12 74.66 L 43.60 75.45 L 44.09 76.25 L 44.56 77.04 L 45.05 77.83 L 45.53 78.63 L 46.02 79.42 L 46.50 80.22 L 47.00 80.96 L 47.50 81.70 L 48.01 82.45 L 48.51 83.19 L 49.06 83.84 L 49.60 84.49 L 50.14 85.14 L 50.68 85.79 L 51.47 86.49 L 52.27 87.18 L 53.07 87.88 L 53.95 88.36 L 54.82 88.85 L 55.71 89.34 L 56.68 89.62 L 57.65 89.90 L 58.61 90.17 L 59.66 90.24 L 60.71 90.31 L 61.77 90.38 L 62.62 90.31 L 63.46 90.24 L 64.30 90.16 L 65.14 90.08 L 66.02 89.91 L 66.90 89.74 L 67.79 89.57 L 68.67 89.40 L 69.57 89.18 L 70.48 88.96 L 71.38 88.74 L 72.29 88.52 L 73.18 88.30 L 74.09 88.08 L 74.99 87.86 L 75.89 87.64 L 76.78 87.47 L 77.66 87.30 L 78.55 87.13 L 79.42 86.96 L 80.27 86.88 L 81.11 86.80 L 81.95 86.73 L 82.80 86.65 L 83.85 86.72 L 84.91 86.80 L 85.96 86.87 L 86.93 87.15 L 87.89 87.42 L 88.86 87.70 L 89.74 88.18 L 90.62 88.67 L 91.50 89.17 L 92.30 89.86 L 93.09 90.55 L 93.88 91.24 L 94.43 91.89 L 94.97 92.55 L 95.51 93.19 L 96.06 93.85 L 96.56 94.59 L 97.06 95.33 L 97.56 96.08 L 98.07 96.82 L 98.55 97.62 L 99.03 98.41 L 99.52 99.21 L 100.00 100.00 L 100.00 100.00 L 99.14 100.34 L 98.26 100.67 L 97.40 101.01 L 96.53 101.34 L 95.68 101.63 L 94.83 101.91 L 93.98 102.20 L 93.13 102.48 L 92.29 102.67 L 91.47 102.85 L 90.64 103.04 L 89.82 103.22 L 88.76 103.29 L 87.71 103.36 L 86.66 103.42 L 85.66 103.28 L 84.66 103.13 L 83.67 102.98 L 82.74 102.61 L 81.80 102.24 L 80.87 101.87 L 79.99 101.28 L 79.10 100.70 L 78.23 100.12 L 77.60 99.54 L 76.98 98.97 L 76.36 98.40 L 75.73 97.82 L 75.14 97.15 L 74.55 96.48 L 73.95 95.81 L 73.35 95.13 L 72.77 94.41 L 72.19 93.68 L 71.60 92.96 L 71.03 92.24 L 70.44 91.51 L 69.86 90.79 L 69.27 90.06 L 68.69 89.34 L 68.10 88.66 L 67.50 87.99 L 66.90 87.32 L 66.31 86.65 L 65.68 86.07 L 65.06 85.50 L 64.44 84.93 L 63.82 84.36 L 62.93 83.77 L 62.06 83.19 L 61.18 82.60 L 60.25 82.23 L 59.31 81.86 L 58.37 81.49 L 57.37 81.34 L 56.38 81.20 L 55.38 81.05 L 54.33 81.12 L 53.27 81.18 L 52.22 81.25 L 51.40 81.43 L 50.58 81.62 L 49.75 81.81 L 48.92 81.99 L 48.07 82.28 L 47.21 82.56 L 46.36 82.84 L 45.51 83.13 L 44.65 83.46 L 43.78 83.80 L 42.91 84.13 L 42.04 84.47 L 41.18 84.81 L 40.32 85.14 L 39.45 85.48 L 38.58 85.81 L 37.72 86.10 L 36.88 86.39 L 36.02 86.67 L 35.17 86.95 L 34.34 87.13 L 33.52 87.32 L 32.69 87.51 L 31.87 87.69 L 30.81 87.76 L 29.76 87.83 L 28.71 87.89 L 27.71 87.75 L 26.71 87.60 L 25.71 87.45 L 24.78 87.08 L 23.84 86.71 L 22.91 86.34 L 22.03 85.75 L 21.15 85.17 L 20.27 84.58 L 19.65 84.01 L 19.03 83.44 L 18.40 82.86 L 17.78 82.29 L 17.18 81.62 L 16.59 80.94 L 15.99 80.28 L 15.39 79.60 L 14.81 78.88 L 14.23 78.15 L 13.65 77.43 L 13.07 76.71 L 12.86 77.76 L 12.65 78.81 L 12.44 79.86 L 12.23 80.91 L 12.02 81.95 L 11.81 83.00 L 11.61 84.05 L 11.40 85.10 L 11.19 86.15 L 10.98 87.20 L 10.77 88.25 L 11.58 87.81 L 12.40 87.36 L 13.21 86.91 L 14.03 86.47 L 14.84 86.07 L 15.64 85.68 L 16.45 85.29 L 17.26 84.89 L 18.06 84.61 L 18.86 84.31 L 19.65 84.02 L 20.44 83.73 L 21.47 83.53 L 22.51 83.32 L 23.55 83.12 L 24.55 83.14 L 25.56 83.15 L 26.57 83.16 L 27.54 83.41 L 28.52 83.66 L 29.50 83.90 L 30.45 84.37 L 31.39 84.83 L 32.34 85.30 L 33.03 85.78 L 33.73 86.27 L 34.42 86.76 L 35.11 87.24 L 35.79 87.83 L 36.47 88.42 L 37.14 89.01 L 37.83 89.60 L 38.50 90.25 L 39.17 90.89 L 39.84 91.53 L 40.51 92.17 L 41.18 92.81 L 41.86 93.45 L 42.53 94.09 L 43.20 94.74 L 43.88 95.33 L 44.56 95.91 L 45.24 96.50 L 45.92 97.09 L 46.61 97.58 L 47.30 98.07 L 47.99 98.55 L 48.68 99.04 L 49.63 99.51 L 50.58 99.97 L 51.53 100.44 L 52.50 100.68 L 53.48 100.93 L 54.46 101.17 L 55.47 101.18 L 56.47 101.20 L 57.47 101.22 L 58.51 101.02 L 59.54 100.81 L 60.58 100.61 L 61.38 100.32 L 62.17 100.03 L 62.97 99.73 L 63.76 99.44 L 64.57 99.05 L 65.38 98.66 L 66.19 98.26 L 66.99 97.87 L 67.81 97.42 L 68.63 96.98 L 69.44 96.53 L 70.26 96.08 L 71.07 95.64 L 71.89 95.19 L 72.70 94.74 L 73.52 94.30 L 74.33 93.90 L 75.14 93.51 L 75.94 93.12 L 76.75 92.73 L 77.54 92.43 L 78.34 92.14 L 79.13 91.85 L 79.93 91.56 L 80.96 91.36 L 82.00 91.16 L 83.04 90.95 L 84.05 90.97 L 85.05 90.98 L 86.06 91.00 L 87.03 91.24 L 88.01 91.49 L 88.99 91.73 L 89.93 92.20 L 90.88 92.66 L 91.82 93.12 L 92.52 93.61 L 93.21 94.10 L 93.90 94.59 L 94.60 95.08 L 95.28 95.67 L 95.95 96.25 L 96.63 96.84 L 97.31 97.43 L 97.98 98.07 L 98.65 98.71 L 99.33 99.36 L 100.00 100.00 L 100.00 100.00 L 99.25 100.55 L 98.50 101.10 L 97.75 101.65 L 97.00 102.20 L 96.25 102.69 L 95.50 103.19 L 94.75 103.68 L 94.00 104.18 L 93.25 104.57 L 92.50 104.96 L 91.75 105.36 L 91.00 105.75 L 90.00 106.09 L 89.00 106.42 L 88.00 106.76 L 87.00 106.87 L 86.00 106.99 L 85.00 107.10 L 84.00 106.99 L 83.00 106.87 L 82.00 106.76 L 81.00 106.42 L 80.00 106.08 L 79.00 105.75 L 78.25 105.36 L 77.50 104.96 L 76.75 104.57 L 76.00 104.18 L 75.25 103.68 L 74.50 103.19 L 73.75 102.69 L 73.00 102.19 L 72.25 101.65 L 71.50 101.10 L 70.75 100.55 L 70.00 100.00 L 69.25 99.45 L 68.50 98.90 L 67.75 98.35 L 67.00 97.81 L 66.25 97.31 L 65.50 96.81 L 64.75 96.32 L 64.00 95.82 L 63.25 95.43 L 62.50 95.04 L 61.75 94.65 L 61.00 94.25 L 60.00 93.91 L 59.00 93.58 L 58.00 93.24 L 57.00 93.13 L 56.00 93.01 L 55.00 92.89 L 54.00 93.01 L 53.00 93.13 L 52.00 93.24 L 51.00 93.58 L 50.00 93.91 L 49.00 94.25 L 48.25 94.65 L 47.50 95.04 L 46.75 95.43 L 46.00 95.82 L 45.25 96.32 L 44.50 96.82 L 43.75 97.31 L 43.00 97.80 L 42.25 98.35 L 41.50 98.90 L 40.75 99.45 L 40.00 100.00 L 39.25 100.55 L 38.50 101.09 L 37.75 101.64 L 37.00 102.19 L 36.25 102.69 L 35.50 103.19 L 34.75 103.68 L 34.00 104.18 L 33.25 104.57 L 32.50 104.96 L 31.75 105.36 L 31.00 105.75 L 30.00 106.08 L 29.00 106.42 L 28.00 106.76 L 27.00 106.87 L 26.00 106.99 L 25.00 107.11 L 24.00 106.99 L 23.00 106.87 L 22.00 106.76 L 21.00 106.42 L 20.00 106.08 L 19.00 105.74 L 18.25 105.35 L 17.50 104.96 L 16.75 104.57 L 16.00 104.18 L 15.25 103.68 L 14.50 103.18 L 13.75 102.69 L 13.00 102.19 L 12.25 101.65 L 11.50 101.10 L 10.75 100.55 L 10.00 100.00 L 10.07 101.07 L 10.14 102.14 L 10.21 103.21 L 10.28 104.27 L 10.35 105.34 L 10.42 106.41 L 10.49 107.47 L 10.56 108.54 L 10.63 109.61 L 10.70 110.68 L 10.77 111.75 L 11.44 111.10 L 12.11 110.46 L 12.78 109.82 L 13.46 109.18 L 14.14 108.59 L 14.81 108.01 L 15.49 107.41 L 16.17 106.82 L 16.87 106.34 L 17.56 105.85 L 18.25 105.36 L 18.94 104.88 L 19.89 104.41 L 20.84 103.95 L 21.79 103.48 L 22.76 103.24 L 23.74 102.99 L 24.71 102.74 L 25.72 102.73 L 26.73 102.71 L 27.74 102.70 L 28.77 102.90 L 29.81 103.10 L 30.84 103.31 L 31.63 103.60 L 32.43 103.89 L 33.23 104.19 L 34.02 104.47 L 34.82 104.86 L 35.64 105.26 L 36.44 105.65 L 37.25 106.05 L 38.07 106.50 L 38.89 106.94 L 39.70 107.39 L 40.51 107.83 L 41.33 108.28 L 42.15 108.73 L 42.96 109.17 L 43.77 109.62 L 44.58 110.01 L 45.39 110.40 L 46.20 110.79 L 47.01 111.19 L 47.81 111.48 L 48.60 111.77 L 49.39 112.06 L 50.18 112.36 L 51.22 112.56 L 52.26 112.76 L 53.29 112.97 L 54.30 112.95 L 55.30 112.93 L 56.31 112.92 L 57.29 112.67 L 58.27 112.43 L 59.24 112.18 L 60.19 111.72 L 61.13 111.26 L 62.08 110.79 L 62.78 110.30 L 63.47 109.82 L 64.16 109.33 L 64.85 108.84 L 65.53 108.25 L 66.21 107.66 L 66.89 107.07 L 67.57 106.48 L 68.24 105.84 L 68.91 105.20 L 69.59 104.56 L 70.26 103.92 L 70.92 103.27 L 71.60 102.63 L 72.27 101.99 L 72.94 101.35 L 73.62 100.76 L 74.31 100.17 L 74.98 99.58 L 75.66 98.99 L 76.35 98.50 L 77.05 98.02 L 77.74 97.53 L 78.43 97.04 L 79.37 96.58 L 80.33 96.11 L 81.27 95.65 L 82.25 95.41 L 83.22 95.16 L 84.20 94.91 L 85.20 94.90 L 86.21 94.88 L 87.22 94.87 L 88.26 95.07 L 89.29 95.27 L 90.32 95.47 L 91.12 95.77 L 91.92 96.06 L 92.71 96.35 L 93.51 96.64 L 94.32 97.04 L 95.12 97.43 L 95.93 97.82 L 96.74 98.22 L 97.55 98.66 L 98.37 99.11 L 99.19 99.55 L 100.00 100.00 L 100.00 100.00 L 99.42 100.72 L 98.83 101.45 L 98.25 102.17 L 97.67 102.90 L 97.07 103.57 L 96.48 104.24 L 95.88 104.91 L 95.29 105.59 L 94.66 106.16 L 94.04 106.73 L 93.42 107.31 L 92.79 107.88 L 91.91 108.47 L 91.04 109.05 L 90.16 109.63 L 89.22 110.00 L 88.28 110.38 L 87.35 110.74 L 86.35 110.89 L 85.36 111.04 L 84.36 111.18 L 83.31 111.12 L 82.25 111.05 L 81.20 110.99 L 80.38 110.80 L 79.55 110.62 L 78.72 110.43 L 77.90 110.25 L 77.05 109.96 L 76.20 109.68 L 75.34 109.39 L 74.49 109.11 L 73.62 108.77 L 72.76 108.44 L 71.89 108.10 L 71.03 107.76 L 70.16 107.43 L 69.29 107.09 L 68.42 106.76 L 67.55 106.42 L 66.70 106.13 L 65.85 105.85 L 65.00 105.57 L 64.14 105.28 L 63.32 105.10 L 62.49 104.91 L 61.67 104.73 L 60.84 104.54 L 59.78 104.47 L 58.74 104.41 L 57.68 104.34 L 56.69 104.49 L 55.69 104.64 L 54.69 104.78 L 53.76 105.15 L 52.82 105.53 L 51.89 105.89 L 51.01 106.48 L 50.12 107.06 L 49.25 107.65 L 48.62 108.22 L 48.01 108.80 L 47.39 109.37 L 46.76 109.94 L 46.16 110.62 L 45.57 111.29 L 44.97 111.96 L 44.37 112.63 L 43.79 113.36 L 43.21 114.08 L 42.62 114.80 L 42.04 115.53 L 41.46 116.25 L 40.88 116.97 L 40.30 117.70 L 39.72 118.42 L 39.12 119.10 L 38.53 119.77 L 37.92 120.45 L 37.33 121.12 L 36.71 121.69 L 36.09 122.26 L 35.46 122.84 L 34.84 123.41 L 33.96 123.99 L 33.08 124.58 L 32.20 125.16 L 31.27 125.53 L 30.33 125.91 L 29.39 126.28 L 28.40 126.42 L 27.40 126.57 L 26.41 126.71 L 25.35 126.65 L 24.30 126.58 L 23.24 126.51 L 22.42 126.33 L 21.60 126.15 L 20.77 125.96 L 19.94 125.78 L 19.09 125.49 L 18.23 125.20 L 17.39 124.92 L 16.53 124.64 L 15.66 124.31 L 14.80 123.97 L 13.93 123.63 L 13.07 123.29 L 13.41 124.31 L 13.76 125.32 L 14.10 126.34 L 14.44 127.35 L 14.79 128.36 L 15.13 129.37 L 15.48 130.39 L 15.82 131.40 L 16.16 132.41 L 16.51 133.43 L 16.85 134.44 L 17.33 133.64 L 17.82 132.85 L 18.30 132.06 L 18.78 131.27 L 19.29 130.52 L 19.79 129.78 L 20.29 129.03 L 20.79 128.29 L 21.34 127.64 L 21.88 126.98 L 22.42 126.34 L 22.96 125.69 L 23.76 125.00 L 24.55 124.30 L 25.35 123.61 L 26.23 123.12 L 27.11 122.63 L 27.99 122.13 L 28.96 121.86 L 29.93 121.58 L 30.90 121.31 L 31.95 121.24 L 33.00 121.17 L 34.05 121.09 L 34.89 121.17 L 35.74 121.24 L 36.58 121.33 L 37.43 121.40 L 38.30 121.57 L 39.19 121.74 L 40.07 121.91 L 40.96 122.08 L 41.86 122.30 L 42.77 122.52 L 43.67 122.74 L 44.56 122.96 L 45.47 123.18 L 46.38 123.40 L 47.28 123.62 L 48.18 123.84 L 49.06 124.01 L 49.94 124.18 L 50.83 124.35 L 51.71 124.52 L 52.56 124.60 L 53.40 124.67 L 54.24 124.75 L 55.08 124.83 L 56.13 124.76 L 57.19 124.68 L 58.24 124.61 L 59.21 124.34 L 60.17 124.06 L 61.14 123.79 L 62.02 123.29 L 62.91 122.80 L 63.78 122.32 L 64.58 121.62 L 65.37 120.93 L 66.17 120.23 L 66.71 119.58 L 67.25 118.94 L 67.79 118.29 L 68.34 117.64 L 68.84 116.89 L 69.34 116.15 L 69.85 115.40 L 70.35 114.66 L 70.83 113.86 L 71.32 113.07 L 71.80 112.27 L 72.29 111.48 L 72.76 110.69 L 73.25 109.89 L 73.73 109.10 L 74.21 108.31 L 74.72 107.56 L 75.22 106.81 L 75.73 106.07 L 76.23 105.33 L 76.77 104.68 L 77.31 104.03 L 77.85 103.38 L 78.40 102.73 L 79.19 102.03 L 79.99 101.34 L 80.79 100.65 L 81.67 100.16 L 82.54 99.66 L 83.42 99.18 L 84.39 98.90 L 85.36 98.62 L 86.33 98.35 L 87.38 98.28 L 88.43 98.21 L 89.48 98.13 L 90.33 98.21 L 91.17 98.29 L 92.01 98.36 L 92.86 98.44 L 93.74 98.61 L 94.62 98.78 L 95.50 98.95 L 96.39 99.12 L 97.29 99.34 L 98.19 99.56 L 99.10 99.78 L 100.00 100.00 L 100.00 100.00 L 99.63 100.85 L 99.25 101.70 L 98.87 102.55 L 98.50 103.40 L 98.10 104.21 L 97.69 105.01 L 97.30 105.81 L 96.89 106.61 L 96.44 107.33 L 95.99 108.05 L 95.53 108.76 L 95.08 109.48 L 94.38 110.27 L 93.69 111.06 L 92.99 111.85 L 92.18 112.45 L 91.37 113.06 L 90.56 113.65 L 89.64 114.05 L 88.72 114.45 L 87.79 114.85 L 86.76 115.06 L 85.72 115.27 L 84.69 115.48 L 83.84 115.51 L 83.00 115.55 L 82.15 115.58 L 81.30 115.62 L 80.41 115.56 L 79.51 115.51 L 78.61 115.45 L 77.71 115.40 L 76.79 115.30 L 75.87 115.20 L 74.94 115.10 L 74.02 115.00 L 73.10 114.90 L 72.17 114.80 L 71.25 114.70 L 70.32 114.60 L 69.42 114.54 L 68.53 114.49 L 67.63 114.44 L 66.73 114.38 L 65.89 114.42 L 65.04 114.45 L 64.20 114.49 L 63.35 114.52 L 62.31 114.73 L 61.28 114.94 L 60.25 115.15 L 59.33 115.55 L 58.40 115.95 L 57.48 116.35 L 56.67 116.95 L 55.86 117.55 L 55.05 118.15 L 54.35 118.94 L 53.65 119.73 L 52.96 120.53 L 52.50 121.24 L 52.06 121.95 L 51.60 122.67 L 51.15 123.38 L 50.75 124.19 L 50.34 124.99 L 49.94 125.79 L 49.54 126.60 L 49.17 127.45 L 48.79 128.30 L 48.41 129.15 L 48.04 130.00 L 47.66 130.85 L 47.29 131.70 L 46.91 132.55 L 46.54 133.40 L 46.13 134.21 L 45.74 135.01 L 45.33 135.82 L 44.93 136.62 L 44.48 137.33 L 44.03 138.05 L 43.57 138.76 L 43.12 139.48 L 42.42 140.27 L 41.72 141.06 L 41.03 141.85 L 40.22 142.45 L 39.41 143.06 L 38.60 143.66 L 37.68 144.05 L 36.75 144.45 L 35.83 144.85 L 34.79 145.06 L 33.76 145.27 L 32.72 145.48 L 31.88 145.51 L 31.04 145.55 L 30.19 145.58 L 29.34 145.62 L 28.44 145.56 L 27.54 145.51 L 26.65 145.46 L 25.75 145.40 L 24.83 145.31 L 23.91 145.20 L 22.98 145.10 L 22.06 145.00 L 22.65 145.89 L 23.25 146.78 L 23.84 147.67 L 24.44 148.56 L 25.03 149.45 L 25.62 150.34 L 26.22 151.23 L 26.81 152.12 L 27.41 153.00 L 28.00 153.90 L 28.60 154.79 L 28.86 153.89 L 29.12 153.00 L 29.38 152.11 L 29.64 151.22 L 29.93 150.37 L 30.23 149.53 L 30.52 148.68 L 30.81 147.82 L 31.17 147.06 L 31.53 146.28 L 31.88 145.52 L 32.24 144.75 L 32.82 143.88 L 33.41 143.00 L 34.01 142.12 L 34.73 141.43 L 35.45 140.72 L 36.17 140.02 L 37.03 139.50 L 37.90 138.99 L 38.77 138.47 L 39.76 138.13 L 40.76 137.79 L 41.76 137.44 L 42.59 137.30 L 43.43 137.15 L 44.26 137.01 L 45.10 136.86 L 45.99 136.80 L 46.89 136.73 L 47.78 136.67 L 48.69 136.61 L 49.61 136.59 L 50.54 136.56 L 51.47 136.55 L 52.40 136.53 L 53.33 136.51 L 54.26 136.48 L 55.19 136.46 L 56.12 136.44 L 57.01 136.38 L 57.91 136.31 L 58.80 136.25 L 59.70 136.19 L 60.54 136.04 L 61.37 135.89 L 62.20 135.75 L 63.03 135.61 L 64.03 135.27 L 65.03 134.92 L 66.03 134.58 L 66.89 134.07 L 67.76 133.55 L 68.62 133.03 L 69.35 132.33 L 70.07 131.63 L 70.79 130.93 L 71.38 130.05 L 71.97 129.18 L 72.56 128.30 L 72.92 127.53 L 73.27 126.77 L 73.62 126.00 L 73.98 125.23 L 74.28 124.38 L 74.57 123.53 L 74.86 122.68 L 75.15 121.83 L 75.42 120.94 L 75.68 120.05 L 75.94 119.15 L 76.20 118.26 L 76.46 117.37 L 76.72 116.48 L 76.98 115.59 L 77.24 114.70 L 77.54 113.84 L 77.83 112.99 L 78.12 112.14 L 78.41 111.30 L 78.77 110.53 L 79.13 109.76 L 79.48 108.99 L 79.84 108.22 L 80.43 107.35 L 81.02 106.47 L 81.61 105.60 L 82.33 104.90 L 83.05 104.19 L 83.78 103.49 L 84.64 102.98 L 85.50 102.46 L 86.37 101.94 L 87.37 101.60 L 88.36 101.26 L 89.36 100.92 L 90.19 100.77 L 91.03 100.63 L 91.86 100.48 L 92.70 100.34 L 93.60 100.28 L 94.49 100.21 L 95.39 100.15 L 96.28 100.08 L 97.21 100.06 L 98.14 100.04 L 99.07 100.02 L 100.00 100.00 L 100.00 100.00 L 99.86 100.92 L 99.71 101.84 L 99.57 102.76 L 99.43 103.67 L 99.25 104.56 L 99.07 105.44 L 98.89 106.31 L 98.71 107.19 L 98.46 108.01 L 98.21 108.81 L 97.95 109.62 L 97.70 110.43 L 97.23 111.38 L 96.76 112.32 L 96.29 113.26 L 95.67 114.05 L 95.04 114.84 L 94.42 115.63 L 93.63 116.26 L 92.84 116.88 L 92.05 117.50 L 91.11 117.97 L 90.16 118.45 L 89.22 118.91 L 88.41 119.17 L 87.60 119.42 L 86.79 119.67 L 85.98 119.93 L 85.10 120.10 L 84.22 120.28 L 83.34 120.46 L 82.46 120.64 L 81.54 120.79 L 80.62 120.93 L 79.70 121.07 L 78.79 121.21 L 77.87 121.35 L 76.95 121.50 L 76.03 121.64 L 75.11 121.78 L 74.23 121.96 L 73.35 122.14 L 72.47 122.32 L 71.59 122.50 L 70.78 122.76 L 69.97 123.01 L 69.17 123.26 L 68.36 123.51 L 67.41 123.98 L 66.47 124.45 L 65.52 124.92 L 64.74 125.54 L 63.95 126.17 L 63.16 126.80 L 62.53 127.59 L 61.90 128.38 L 61.28 129.16 L 60.81 130.11 L 60.34 131.06 L 59.87 132.00 L 59.62 132.81 L 59.37 133.61 L 59.12 134.42 L 58.86 135.23 L 58.68 136.11 L 58.50 136.99 L 58.32 137.87 L 58.14 138.75 L 58.00 139.67 L 57.86 140.59 L 57.71 141.51 L 57.57 142.43 L 57.43 143.34 L 57.29 144.26 L 57.15 145.18 L 57.00 146.10 L 56.82 146.98 L 56.65 147.86 L 56.46 148.75 L 56.28 149.62 L 56.03 150.43 L 55.78 151.24 L 55.52 152.05 L 55.27 152.85 L 54.81 153.80 L 54.34 154.74 L 53.87 155.69 L 53.24 156.48 L 52.62 157.27 L 51.99 158.06 L 51.20 158.68 L 50.41 159.31 L 49.62 159.93 L 48.68 160.40 L 47.73 160.87 L 46.78 161.34 L 45.98 161.59 L 45.18 161.84 L 44.36 162.10 L 43.56 162.35 L 42.67 162.53 L 41.79 162.71 L 40.92 162.89 L 40.03 163.07 L 39.12 163.22 L 38.20 163.35 L 37.27 163.50 L 36.36 163.64 L 37.17 164.35 L 37.97 165.05 L 38.78 165.76 L 39.58 166.46 L 40.38 167.17 L 41.19 167.87 L 41.99 168.58 L 42.80 169.28 L 43.60 169.99 L 44.40 170.70 L 45.21 171.40 L 45.23 170.47 L 45.25 169.54 L 45.27 168.61 L 45.30 167.69 L 45.36 166.79 L 45.42 165.90 L 45.49 165.00 L 45.55 164.10 L 45.70 163.27 L 45.84 162.43 L 45.98 161.60 L 46.13 160.77 L 46.47 159.77 L 46.81 158.77 L 47.16 157.77 L 47.67 156.91 L 48.19 156.04 L 48.70 155.18 L 49.40 154.45 L 50.11 153.73 L 50.81 153.01 L 51.68 152.42 L 52.56 151.83 L 53.44 151.24 L 54.20 150.89 L 54.97 150.53 L 55.74 150.17 L 56.51 149.82 L 57.35 149.53 L 58.21 149.23 L 59.05 148.94 L 59.91 148.64 L 60.80 148.39 L 61.69 148.12 L 62.59 147.86 L 63.47 147.60 L 64.37 147.34 L 65.26 147.08 L 66.15 146.82 L 67.04 146.56 L 67.89 146.26 L 68.74 145.97 L 69.59 145.68 L 70.44 145.38 L 71.21 145.02 L 71.98 144.67 L 72.74 144.32 L 73.51 143.96 L 74.39 143.38 L 75.26 142.78 L 76.14 142.20 L 76.84 141.47 L 77.54 140.75 L 78.24 140.03 L 78.76 139.16 L 79.28 138.29 L 79.79 137.44 L 80.13 136.43 L 80.48 135.44 L 80.82 134.44 L 80.97 133.60 L 81.11 132.77 L 81.25 131.94 L 81.40 131.10 L 81.46 130.21 L 81.52 129.31 L 81.59 128.42 L 81.65 127.52 L 81.67 126.59 L 81.69 125.66 L 81.72 124.73 L 81.74 123.80 L 81.76 122.87 L 81.78 121.94 L 81.80 121.01 L 81.82 120.09 L 81.88 119.19 L 81.95 118.29 L 82.01 117.39 L 82.07 116.50 L 82.22 115.66 L 82.37 114.83 L 82.51 114.00 L 82.66 113.16 L 83.00 112.16 L 83.34 111.16 L 83.68 110.17 L 84.20 109.30 L 84.71 108.44 L 85.23 107.57 L 85.93 106.85 L 86.63 106.13 L 87.34 105.41 L 88.21 104.82 L 89.08 104.23 L 89.96 103.64 L 90.73 103.29 L 91.50 102.93 L 92.26 102.57 L 93.04 102.22 L 93.89 101.92 L 94.73 101.63 L 95.58 101.34 L 96.43 101.04 L 97.32 100.78 L 98.21 100.52 L 99.11 100.26 L 100.00 100.00 L 100.00 100.00 L 100.10 100.92 L 100.20 101.85 L 100.30 102.77 L 100.40 103.70 L 100.46 104.59 L 100.51 105.49 L 100.56 106.38 L 100.62 107.28 L 100.58 108.13 L 100.55 108.97 L 100.51 109.82 L 100.48 110.67 L 100.27 111.71 L 100.06 112.73 L 99.85 113.77 L 99.45 114.70 L 99.05 115.62 L 98.65 116.54 L 98.05 117.35 L 97.45 118.16 L 96.85 118.96 L 96.06 119.66 L 95.27 120.36 L 94.48 121.06 L 93.76 121.51 L 93.05 121.97 L 92.33 122.42 L 91.62 122.88 L 90.81 123.27 L 90.01 123.67 L 89.20 124.08 L 88.40 124.48 L 87.55 124.86 L 86.70 125.23 L 85.85 125.61 L 85.00 125.98 L 84.15 126.35 L 83.30 126.73 L 82.45 127.11 L 81.60 127.48 L 80.79 127.88 L 79.99 128.29 L 79.19 128.69 L 78.38 129.09 L 77.67 129.54 L 76.95 129.99 L 76.24 130.44 L 75.52 130.90 L 74.73 131.60 L 73.94 132.29 L 73.15 133.00 L 72.55 133.80 L 71.95 134.61 L 71.35 135.42 L 70.95 136.34 L 70.55 137.27 L 70.15 138.19 L 69.94 139.22 L 69.73 140.26 L 69.52 141.30 L 69.49 142.14 L 69.46 142.98 L 69.42 143.83 L 69.38 144.68 L 69.44 145.57 L 69.49 146.47 L 69.55 147.37 L 69.60 148.27 L 69.70 149.19 L 69.80 150.11 L 69.90 151.04 L 70.00 151.96 L 70.10 152.88 L 70.20 153.80 L 70.30 154.73 L 70.40 155.65 L 70.45 156.56 L 70.51 157.45 L 70.56 158.35 L 70.62 159.25 L 70.58 160.09 L 70.55 160.94 L 70.51 161.79 L 70.48 162.63 L 70.27 163.66 L 70.06 164.70 L 69.85 165.73 L 69.45 166.66 L 69.05 167.58 L 68.66 168.51 L 68.05 169.31 L 67.45 170.12 L 66.85 170.93 L 66.06 171.63 L 65.27 172.33 L 64.47 173.02 L 63.76 173.48 L 63.05 173.93 L 62.33 174.38 L 61.62 174.84 L 60.81 175.24 L 60.00 175.64 L 59.21 176.04 L 58.40 176.44 L 57.55 176.82 L 56.70 177.19 L 55.85 177.57 L 55.00 177.94 L 55.96 178.42 L 56.92 178.89 L 57.88 179.36 L 58.84 179.84 L 59.80 180.31 L 60.76 180.78 L 61.72 181.25 L 62.68 181.73 L 63.64 182.20 L 64.60 182.68 L 65.56 183.15 L 65.33 182.25 L 65.12 181.34 L 64.89 180.44 L 64.68 179.54 L 64.51 178.65 L 64.34 177.78 L 64.17 176.89 L 63.99 176.01 L 63.92 175.17 L 63.84 174.32 L 63.77 173.48 L 63.69 172.64 L 63.76 171.59 L 63.83 170.53 L 63.91 169.48 L 64.18 168.51 L 64.46 167.54 L 64.73 166.57 L 65.22 165.69 L 65.71 164.81 L 66.20 163.93 L 66.90 163.14 L 67.59 162.34 L 68.29 161.55 L 68.93 161.01 L 69.58 160.46 L 70.23 159.92 L 70.88 159.38 L 71.62 158.88 L 72.37 158.37 L 73.12 157.87 L 73.87 157.36 L 74.65 156.88 L 75.45 156.39 L 76.25 155.91 L 77.04 155.44 L 77.83 154.95 L 78.63 154.47 L 79.42 153.98 L 80.22 153.50 L 80.96 153.00 L 81.70 152.50 L 82.45 151.99 L 83.19 151.49 L 83.84 150.94 L 84.49 150.40 L 85.14 149.86 L 85.79 149.32 L 86.49 148.53 L 87.18 147.73 L 87.88 146.93 L 88.36 146.05 L 88.85 145.18 L 89.34 144.29 L 89.62 143.32 L 89.90 142.35 L 90.17 141.39 L 90.24 140.34 L 90.31 139.29 L 90.39 138.23 L 90.31 137.38 L 90.24 136.54 L 90.16 135.70 L 90.08 134.86 L 89.91 133.98 L 89.74 133.10 L 89.57 132.21 L 89.40 131.33 L 89.18 130.43 L 88.96 129.52 L 88.74 128.62 L 88.52 127.71 L 88.30 126.82 L 88.08 125.91 L 87.86 125.01 L 87.64 124.11 L 87.47 123.22 L 87.30 122.34 L 87.13 121.45 L 86.96 120.58 L 86.88 119.73 L 86.80 118.89 L 86.73 118.05 L 86.65 117.20 L 86.72 116.15 L 86.80 115.09 L 86.87 114.04 L 87.15 113.07 L 87.42 112.11 L 87.70 111.14 L 88.18 110.26 L 88.67 109.38 L 89.17 108.50 L 89.86 107.70 L 90.55 106.91 L 91.24 106.12 L 91.89 105.57 L 92.55 105.03 L 93.19 104.49 L 93.85 103.94 L 94.59 103.44 L 95.33 102.94 L 96.08 102.44 L 96.82 101.93 L 97.62 101.45 L 98.41 100.97 L 99.21 100.48 L 100.00 100.00 L 100.00 100.00 L 100.34 100.86 L 100.67 101.74 L 101.01 102.60 L 101.34 103.47 L 101.63 104.32 L 101.91 105.17 L 102.20 106.02 L 102.48 106.87 L 102.67 107.71 L 102.85 108.53 L 103.04 109.36 L 103.22 110.18 L 103.29 111.24 L 103.36 112.29 L 103.42 113.34 L 103.28 114.34 L 103.13 115.34 L 102.98 116.33 L 102.61 117.26 L 102.24 118.20 L 101.87 119.13 L 101.28 120.01 L 100.70 120.90 L 100.12 121.77 L 99.54 122.40 L 98.97 123.02 L 98.40 123.64 L 97.82 124.27 L 97.15 124.86 L 96.48 125.45 L 95.80 126.05 L 95.13 126.65 L 94.41 127.23 L 93.68 127.81 L 92.96 128.40 L 92.24 128.97 L 91.51 129.56 L 90.79 130.14 L 90.06 130.73 L 89.34 131.31 L 88.66 131.90 L 87.99 132.50 L 87.32 133.10 L 86.65 133.69 L 86.07 134.32 L 85.50 134.94 L 84.93 135.56 L 84.36 136.18 L 83.77 137.07 L 83.18 137.94 L 82.60 138.82 L 82.23 139.75 L 81.86 140.69 L 81.49 141.63 L 81.34 142.63 L 81.20 143.62 L 81.05 144.62 L 81.12 145.67 L 81.18 146.73 L 81.25 147.78 L 81.43 148.60 L 81.62 149.42 L 81.81 150.25 L 81.99 151.08 L 82.28 151.93 L 82.56 152.79 L 82.84 153.64 L 83.13 154.49 L 83.46 155.35 L 83.80 156.22 L 84.13 157.09 L 84.47 157.96 L 84.81 158.82 L 85.14 159.68 L 85.48 160.55 L 85.81 161.42 L 86.10 162.28 L 86.39 163.12 L 86.67 163.98 L 86.95 164.83 L 87.13 165.66 L 87.32 166.48 L 87.51 167.31 L 87.69 168.13 L 87.76 169.19 L 87.83 170.24 L 87.89 171.29 L 87.75 172.29 L 87.60 173.29 L 87.45 174.29 L 87.08 175.22 L 86.71 176.16 L 86.34 177.09 L 85.76 177.97 L 85.17 178.85 L 84.58 179.73 L 84.01 180.35 L 83.44 180.97 L 82.86 181.60 L 82.30 182.22 L 81.62 182.82 L 80.94 183.41 L 80.28 184.01 L 79.60 184.61 L 78.88 185.19 L 78.16 185.77 L 77.43 186.35 L 76.71 186.93 L 77.76 187.14 L 78.81 187.35 L 79.86 187.56 L 80.91 187.77 L 81.96 187.98 L 83.00 188.19 L 84.05 188.39 L 85.10 188.60 L 86.15 188.81 L 87.20 189.02 L 88.25 189.23 L 87.80 188.42 L 87.36 187.60 L 86.91 186.79 L 86.47 185.97 L 86.07 185.16 L 85.68 184.36 L 85.29 183.55 L 84.89 182.74 L 84.61 181.94 L 84.31 181.14 L 84.02 180.35 L 83.72 179.56 L 83.53 178.53 L 83.32 177.49 L 83.12 176.45 L 83.14 175.45 L 83.15 174.44 L 83.16 173.43 L 83.41 172.46 L 83.66 171.48 L 83.90 170.50 L 84.37 169.55 L 84.83 168.61 L 85.30 167.66 L 85.78 166.97 L 86.27 166.27 L 86.75 165.58 L 87.24 164.89 L 87.83 164.21 L 88.42 163.53 L 89.01 162.86 L 89.60 162.17 L 90.24 161.50 L 90.88 160.83 L 91.53 160.16 L 92.17 159.49 L 92.81 158.82 L 93.46 158.14 L 94.09 157.47 L 94.74 156.80 L 95.33 156.12 L 95.91 155.44 L 96.50 154.76 L 97.09 154.08 L 97.58 153.39 L 98.07 152.70 L 98.55 152.01 L 99.04 151.32 L 99.51 150.37 L 99.97 149.42 L 100.44 148.47 L 100.68 147.50 L 100.93 146.52 L 101.17 145.54 L 101.19 144.53 L 101.20 143.53 L 101.22 142.53 L 101.01 141.49 L 100.81 140.46 L 100.61 139.42 L 100.32 138.62 L 100.03 137.83 L 99.73 137.03 L 99.44 136.24 L 99.05 135.43 L 98.66 134.62 L 98.26 133.81 L 97.87 133.01 L 97.42 132.19 L 96.98 131.37 L 96.53 130.56 L 96.08 129.74 L 95.64 128.93 L 95.19 128.11 L 94.74 127.30 L 94.30 126.48 L 93.90 125.67 L 93.51 124.86 L 93.12 124.06 L 92.73 123.25 L 92.43 122.46 L 92.14 121.66 L 91.85 120.87 L 91.56 120.07 L 91.36 119.04 L 91.16 118.00 L 90.95 116.96 L 90.97 115.95 L 90.98 114.95 L 91.00 113.94 L 91.24 112.97 L 91.49 111.99 L 91.73 111.01 L 92.20 110.07 L 92.66 109.12 L 93.12 108.18 L 93.61 107.48 L 94.10 106.79 L 94.59 106.10 L 95.08 105.40 L 95.67 104.72 L 96.25 104.05 L 96.84 103.37 L 97.43 102.69 L 98.07 102.02 L 98.71 101.35 L 99.36 100.67 L 100.00 100.00 L 100.00 100.00 L 100.55 100.75 L 101.10 101.50 L 101.65 102.25 L 102.20 103.00 L 102.69 103.75 L 103.19 104.50 L 103.68 105.25 L 104.18 106.00 L 104.57 106.75 L 104.96 107.50 L 105.36 108.25 L 105.75 109.00 L 106.09 110.00 L 106.42 111.00 L 106.76 112.00 L 106.87 113.00 L 106.99 114.00 L 107.10 115.00 L 106.99 116.00 L 106.87 117.00 L 106.76 118.00 L 106.42 119.00 L 106.08 120.00 L 105.75 121.00 L 105.36 121.75 L 104.96 122.50 L 104.57 123.25 L 104.18 124.00 L 103.68 124.75 L 103.19 125.50 L 102.69 126.25 L 102.19 127.00 L 101.65 127.75 L 101.10 128.50 L 100.55 129.25 L 100.00 130.00 L 99.45 130.75 L 98.90 131.50 L 98.35 132.25 L 97.81 133.00 L 97.31 133.75 L 96.81 134.50 L 96.32 135.25 L 95.82 136.00 L 95.43 136.75 L 95.04 137.50 L 94.65 138.25 L 94.25 139.00 L 93.91 140.00 L 93.58 141.00 L 93.24 142.00 L 93.13 143.00 L 93.01 144.00 L 92.89 145.00 L 93.01 146.00 L 93.13 147.00 L 93.24 148.00 L 93.58 149.00 L 93.91 150.00 L 94.25 151.00 L 94.65 151.75 L 95.04 152.50 L 95.43 153.25 L 95.82 154.00 L 96.32 154.75 L 96.82 155.50 L 97.31 156.25 L 97.80 157.00 L 98.35 157.75 L 98.90 158.50 L 99.45 159.25 L 100.00 160.00 L 100.55 160.75 L 101.09 161.50 L 101.64 162.25 L 102.19 163.00 L 102.69 163.75 L 103.19 164.50 L 103.68 165.25 L 104.18 166.00 L 104.57 166.75 L 104.96 167.50 L 105.36 168.25 L 105.75 169.00 L 106.08 170.00 L 106.42 171.00 L 106.76 172.00 L 106.88 173.00 L 106.99 174.00 L 107.11 175.00 L 106.99 176.00 L 106.87 177.00 L 106.76 178.00 L 106.42 179.00 L 106.08 180.00 L 105.74 181.00 L 105.35 181.75 L 104.96 182.50 L 104.57 183.25 L 104.18 184.00 L 103.68 184.75 L 103.18 185.50 L 102.69 186.25 L 102.19 187.00 L 101.65 187.75 L 101.10 188.50 L 100.54 189.25 L 100.00 190.00 L 101.07 189.93 L 102.14 189.86 L 103.21 189.79 L 104.27 189.72 L 105.34 189.65 L 106.41 189.58 L 107.47 189.51 L 108.54 189.44 L 109.61 189.37 L 110.68 189.30 L 111.75 189.23 L 111.10 188.56 L 110.46 187.89 L 109.82 187.22 L 109.18 186.54 L 108.59 185.86 L 108.01 185.19 L 107.41 184.51 L 106.82 183.83 L 106.34 183.13 L 105.85 182.44 L 105.36 181.75 L 104.87 181.06 L 104.41 180.11 L 103.95 179.16 L 103.48 178.21 L 103.24 177.24 L 102.99 176.26 L 102.74 175.29 L 102.73 174.28 L 102.71 173.27 L 102.70 172.26 L 102.90 171.23 L 103.10 170.19 L 103.31 169.16 L 103.60 168.37 L 103.89 167.57 L 104.18 166.78 L 104.47 165.98 L 104.86 165.18 L 105.26 164.36 L 105.65 163.56 L 106.05 162.75 L 106.49 161.93 L 106.94 161.11 L 107.39 160.30 L 107.83 159.49 L 108.28 158.67 L 108.73 157.85 L 109.17 157.04 L 109.62 156.23 L 110.01 155.42 L 110.40 154.61 L 110.79 153.80 L 111.19 152.99 L 111.48 152.19 L 111.77 151.40 L 112.06 150.61 L 112.36 149.82 L 112.56 148.78 L 112.76 147.74 L 112.97 146.71 L 112.95 145.70 L 112.93 144.70 L 112.92 143.69 L 112.67 142.71 L 112.43 141.73 L 112.18 140.76 L 111.72 139.81 L 111.26 138.87 L 110.79 137.92 L 110.30 137.22 L 109.82 136.53 L 109.33 135.84 L 108.84 135.15 L 108.25 134.47 L 107.66 133.79 L 107.07 133.11 L 106.48 132.43 L 105.84 131.76 L 105.20 131.09 L 104.56 130.41 L 103.92 129.74 L 103.27 129.08 L 102.63 128.40 L 101.99 127.73 L 101.35 127.06 L 100.76 126.38 L 100.17 125.69 L 99.58 125.02 L 98.99 124.34 L 98.50 123.65 L 98.02 122.95 L 97.53 122.26 L 97.04 121.57 L 96.58 120.63 L 96.11 119.67 L 95.65 118.73 L 95.41 117.75 L 95.16 116.78 L 94.91 115.80 L 94.90 114.80 L 94.88 113.79 L 94.87 112.78 L 95.07 111.74 L 95.27 110.71 L 95.47 109.68 L 95.77 108.88 L 96.06 108.08 L 96.35 107.29 L 96.64 106.49 L 97.04 105.68 L 97.43 104.88 L 97.82 104.07 L 98.22 103.26 L 98.66 102.45 L 99.11 101.63 L 99.55 100.81 L 100.00 100.00 L 100.00 100.00 L 100.72 100.58 L 101.45 101.17 L 102.17 101.75 L 102.90 102.33 L 103.57 102.93 L 104.24 103.52 L 104.91 104.12 L 105.59 104.71 L 106.16 105.34 L 106.73 105.96 L 107.31 106.58 L 107.88 107.21 L 108.47 108.09 L 109.05 108.96 L 109.63 109.84 L 110.00 110.78 L 110.38 111.72 L 110.74 112.65 L 110.89 113.65 L 111.04 114.64 L 111.18 115.64 L 111.12 116.69 L 111.05 117.75 L 110.99 118.80 L 110.80 119.62 L 110.62 120.45 L 110.43 121.28 L 110.25 122.10 L 109.96 122.95 L 109.68 123.80 L 109.39 124.66 L 109.11 125.51 L 108.77 126.38 L 108.44 127.24 L 108.10 128.11 L 107.76 128.97 L 107.43 129.84 L 107.09 130.71 L 106.76 131.58 L 106.42 132.45 L 106.13 133.30 L 105.85 134.15 L 105.57 135.00 L 105.28 135.86 L 105.10 136.68 L 104.91 137.51 L 104.73 138.33 L 104.54 139.16 L 104.47 140.22 L 104.41 141.26 L 104.34 142.32 L 104.49 143.31 L 104.64 144.31 L 104.78 145.31 L 105.15 146.24 L 105.53 147.18 L 105.89 148.11 L 106.48 148.99 L 107.06 149.88 L 107.65 150.75 L 108.22 151.38 L 108.80 151.99 L 109.37 152.61 L 109.94 153.24 L 110.62 153.84 L 111.29 154.43 L 111.96 155.03 L 112.63 155.63 L 113.36 156.21 L 114.08 156.79 L 114.80 157.38 L 115.53 157.96 L 116.25 158.54 L 116.97 159.12 L 117.70 159.70 L 118.42 160.28 L 119.10 160.88 L 119.77 161.47 L 120.45 162.08 L 121.12 162.67 L 121.69 163.29 L 122.26 163.91 L 122.84 164.54 L 123.41 165.16 L 123.99 166.04 L 124.58 166.92 L 125.16 167.80 L 125.53 168.73 L 125.91 169.67 L 126.28 170.61 L 126.42 171.60 L 126.57 172.60 L 126.71 173.59 L 126.65 174.65 L 126.58 175.70 L 126.51 176.76 L 126.33 177.58 L 126.15 178.40 L 125.96 179.23 L 125.78 180.06 L 125.49 180.91 L 125.20 181.77 L 124.92 182.61 L 124.64 183.47 L 124.31 184.34 L 123.97 185.20 L 123.63 186.07 L 123.29 186.93 L 124.31 186.59 L 125.32 186.24 L 126.34 185.90 L 127.35 185.55 L 128.36 185.21 L 129.37 184.87 L 130.39 184.52 L 131.40 184.18 L 132.41 183.84 L 133.43 183.49 L 134.44 183.15 L 133.64 182.67 L 132.85 182.18 L 132.06 181.70 L 131.27 181.22 L 130.52 180.71 L 129.77 180.22 L 129.03 179.71 L 128.29 179.21 L 127.64 178.66 L 126.98 178.12 L 126.34 177.58 L 125.68 177.04 L 125.00 176.24 L 124.30 175.45 L 123.61 174.65 L 123.12 173.77 L 122.63 172.89 L 122.13 172.01 L 121.86 171.04 L 121.58 170.07 L 121.31 169.10 L 121.24 168.05 L 121.17 167.00 L 121.10 165.95 L 121.17 165.11 L 121.25 164.26 L 121.32 163.42 L 121.40 162.57 L 121.57 161.70 L 121.74 160.81 L 121.91 159.93 L 122.08 159.04 L 122.30 158.14 L 122.52 157.24 L 122.74 156.33 L 122.96 155.44 L 123.18 154.53 L 123.40 153.62 L 123.62 152.72 L 123.84 151.82 L 124.01 150.94 L 124.18 150.06 L 124.35 149.17 L 124.52 148.29 L 124.60 147.44 L 124.67 146.60 L 124.75 145.76 L 124.83 144.92 L 124.76 143.87 L 124.68 142.81 L 124.61 141.76 L 124.34 140.79 L 124.06 139.83 L 123.79 138.86 L 123.29 137.98 L 122.80 137.09 L 122.32 136.22 L 121.62 135.42 L 120.93 134.63 L 120.23 133.83 L 119.58 133.29 L 118.94 132.75 L 118.29 132.21 L 117.64 131.66 L 116.89 131.16 L 116.15 130.66 L 115.40 130.15 L 114.66 129.65 L 113.86 129.17 L 113.07 128.68 L 112.27 128.20 L 111.48 127.71 L 110.69 127.24 L 109.89 126.75 L 109.10 126.27 L 108.31 125.79 L 107.56 125.28 L 106.81 124.78 L 106.07 124.27 L 105.33 123.77 L 104.68 123.23 L 104.03 122.69 L 103.38 122.15 L 102.73 121.60 L 102.03 120.81 L 101.34 120.01 L 100.65 119.21 L 100.16 118.33 L 99.66 117.46 L 99.18 116.58 L 98.90 115.61 L 98.62 114.64 L 98.35 113.67 L 98.28 112.62 L 98.21 111.57 L 98.13 110.52 L 98.21 109.67 L 98.29 108.83 L 98.36 107.99 L 98.44 107.14 L 98.61 106.26 L 98.78 105.38 L 98.95 104.50 L 99.12 103.61 L 99.34 102.71 L 99.56 101.81 L 99.78 100.90 L 100.00 100.00 L 100.00 100.00 L 100.85 100.37 L 101.70 100.75 L 102.55 101.13 L 103.40 101.50 L 104.21 101.90 L 105.01 102.31 L 105.81 102.70 L 106.61 103.11 L 107.33 103.56 L 108.05 104.01 L 108.76 104.47 L 109.48 104.92 L 110.27 105.62 L 111.06 106.31 L 111.85 107.01 L 112.45 107.82 L 113.06 108.63 L 113.65 109.44 L 114.05 110.36 L 114.45 111.28 L 114.85 112.21 L 115.06 113.24 L 115.27 114.28 L 115.48 115.31 L 115.51 116.16 L 115.55 117.00 L 115.58 117.85 L 115.62 118.70 L 115.56 119.59 L 115.51 120.49 L 115.45 121.39 L 115.40 122.29 L 115.30 123.21 L 115.20 124.13 L 115.10 125.06 L 115.00 125.98 L 114.90 126.90 L 114.80 127.83 L 114.70 128.75 L 114.60 129.68 L 114.54 130.58 L 114.49 131.47 L 114.44 132.37 L 114.38 133.27 L 114.42 134.11 L 114.45 134.96 L 114.49 135.80 L 114.52 136.65 L 114.73 137.69 L 114.94 138.72 L 115.15 139.75 L 115.55 140.67 L 115.95 141.60 L 116.35 142.52 L 116.95 143.33 L 117.55 144.14 L 118.15 144.95 L 118.94 145.65 L 119.73 146.35 L 120.53 147.04 L 121.24 147.50 L 121.95 147.94 L 122.67 148.40 L 123.38 148.85 L 124.19 149.25 L 124.99 149.66 L 125.79 150.06 L 126.60 150.46 L 127.45 150.83 L 128.30 151.21 L 129.15 151.59 L 130.00 151.96 L 130.85 152.34 L 131.70 152.71 L 132.55 153.09 L 133.40 153.46 L 134.21 153.87 L 135.01 154.26 L 135.82 154.67 L 136.62 155.07 L 137.33 155.52 L 138.05 155.97 L 138.76 156.43 L 139.48 156.88 L 140.27 157.58 L 141.06 158.28 L 141.85 158.97 L 142.45 159.78 L 143.06 160.59 L 143.66 161.40 L 144.05 162.32 L 144.45 163.25 L 144.85 164.17 L 145.06 165.21 L 145.27 166.24 L 145.48 167.28 L 145.51 168.12 L 145.55 168.96 L 145.58 169.81 L 145.62 170.66 L 145.56 171.56 L 145.51 172.46 L 145.46 173.35 L 145.40 174.25 L 145.31 175.17 L 145.20 176.09 L 145.10 177.02 L 145.00 177.94 L 145.89 177.35 L 146.78 176.75 L 147.67 176.16 L 148.56 175.56 L 149.45 174.97 L 150.34 174.38 L 151.23 173.78 L 152.12 173.19 L 153.01 172.59 L 153.90 172.00 L 154.79 171.40 L 153.89 171.14 L 153.00 170.88 L 152.11 170.62 L 151.22 170.36 L 150.37 170.07 L 149.52 169.78 L 148.68 169.48 L 147.82 169.19 L 147.06 168.83 L 146.28 168.47 L 145.52 168.12 L 144.75 167.77 L 143.88 167.17 L 143.00 166.59 L 142.12 165.99 L 141.43 165.27 L 140.72 164.55 L 140.02 163.83 L 139.50 162.97 L 138.99 162.10 L 138.47 161.23 L 138.13 160.24 L 137.79 159.24 L 137.44 158.24 L 137.30 157.41 L 137.15 156.57 L 137.01 155.74 L 136.86 154.90 L 136.80 154.01 L 136.73 153.11 L 136.68 152.22 L 136.61 151.31 L 136.59 150.39 L 136.56 149.46 L 136.55 148.53 L 136.53 147.60 L 136.51 146.67 L 136.48 145.74 L 136.46 144.81 L 136.44 143.88 L 136.38 142.99 L 136.31 142.09 L 136.25 141.20 L 136.19 140.30 L 136.04 139.46 L 135.89 138.63 L 135.75 137.80 L 135.61 136.97 L 135.27 135.97 L 134.92 134.97 L 134.58 133.97 L 134.07 133.11 L 133.55 132.24 L 133.03 131.38 L 132.33 130.65 L 131.63 129.93 L 130.93 129.21 L 130.05 128.62 L 129.18 128.03 L 128.30 127.44 L 127.53 127.08 L 126.77 126.73 L 126.00 126.38 L 125.23 126.02 L 124.38 125.73 L 123.53 125.43 L 122.68 125.14 L 121.83 124.85 L 120.94 124.58 L 120.05 124.32 L 119.15 124.06 L 118.26 123.80 L 117.37 123.54 L 116.48 123.28 L 115.59 123.02 L 114.70 122.76 L 113.84 122.46 L 112.99 122.17 L 112.14 121.87 L 111.30 121.59 L 110.53 121.23 L 109.76 120.87 L 108.99 120.52 L 108.22 120.16 L 107.35 119.57 L 106.47 118.98 L 105.60 118.39 L 104.90 117.67 L 104.19 116.95 L 103.49 116.22 L 102.98 115.36 L 102.46 114.50 L 101.94 113.63 L 101.60 112.63 L 101.26 111.64 L 100.92 110.64 L 100.77 109.81 L 100.63 108.97 L 100.48 108.14 L 100.34 107.30 L 100.28 106.40 L 100.21 105.51 L 100.15 104.61 L 100.08 103.72 L 100.06 102.79 L 100.04 101.86 L 100.02 100.93 L 100.00 100.00 L 100.00 100.00 L 100.92 100.14 L 101.84 100.29 L 102.76 100.43 L 103.67 100.57 L 104.56 100.75 L 105.44 100.93 L 106.31 101.11 L 107.19 101.29 L 108.01 101.54 L 108.81 101.79 L 109.62 102.05 L 110.43 102.30 L 111.38 102.77 L 112.32 103.24 L 113.26 103.71 L 114.05 104.33 L 114.84 104.96 L 115.63 105.58 L 116.26 106.37 L 116.88 107.16 L 117.50 107.95 L 117.97 108.89 L 118.45 109.84 L 118.91 110.78 L 119.17 111.59 L 119.42 112.40 L 119.67 113.21 L 119.93 114.02 L 120.10 114.90 L 120.28 115.78 L 120.46 116.66 L 120.64 117.54 L 120.79 118.46 L 120.93 119.38 L 121.07 120.30 L 121.21 121.21 L 121.35 122.13 L 121.50 123.05 L 121.64 123.97 L 121.78 124.89 L 121.96 125.77 L 122.14 126.65 L 122.32 127.53 L 122.50 128.41 L 122.76 129.22 L 123.01 130.03 L 123.26 130.83 L 123.51 131.64 L 123.98 132.59 L 124.45 133.53 L 124.92 134.48 L 125.54 135.26 L 126.17 136.05 L 126.80 136.84 L 127.59 137.47 L 128.38 138.10 L 129.16 138.72 L 130.11 139.19 L 131.06 139.66 L 132.00 140.13 L 132.81 140.38 L 133.61 140.63 L 134.42 140.88 L 135.23 141.14 L 136.11 141.32 L 136.99 141.50 L 137.87 141.68 L 138.75 141.86 L 139.67 142.00 L 140.59 142.14 L 141.51 142.29 L 142.43 142.43 L 143.34 142.57 L 144.26 142.71 L 145.18 142.85 L 146.10 143.00 L 146.98 143.18 L 147.86 143.36 L 148.75 143.54 L 149.62 143.72 L 150.43 143.97 L 151.24 144.22 L 152.05 144.48 L 152.85 144.72 L 153.80 145.19 L 154.74 145.66 L 155.69 146.13 L 156.48 146.76 L 157.27 147.38 L 158.06 148.01 L 158.68 148.80 L 159.31 149.59 L 159.93 150.38 L 160.40 151.32 L 160.87 152.27 L 161.34 153.22 L 161.59 154.02 L 161.85 154.82 L 162.10 155.64 L 162.35 156.44 L 162.53 157.33 L 162.71 158.21 L 162.89 159.08 L 163.07 159.97 L 163.22 160.88 L 163.35 161.80 L 163.50 162.72 L 163.64 163.64 L 164.35 162.83 L 165.05 162.03 L 165.76 161.22 L 166.46 160.42 L 167.17 159.62 L 167.87 158.81 L 168.58 158.01 L 169.28 157.20 L 169.99 156.40 L 170.70 155.59 L 171.40 154.79 L 170.47 154.77 L 169.54 154.75 L 168.61 154.73 L 167.69 154.70 L 166.79 154.64 L 165.89 154.58 L 165.00 154.51 L 164.10 154.45 L 163.27 154.30 L 162.43 154.16 L 161.60 154.01 L 160.76 153.88 L 159.77 153.53 L 158.77 153.19 L 157.77 152.84 L 156.91 152.33 L 156.04 151.81 L 155.18 151.30 L 154.45 150.60 L 153.73 149.89 L 153.01 149.19 L 152.42 148.32 L 151.83 147.44 L 151.24 146.56 L 150.89 145.80 L 150.53 145.03 L 150.17 144.26 L 149.82 143.49 L 149.53 142.65 L 149.23 141.79 L 148.94 140.95 L 148.64 140.09 L 148.38 139.20 L 148.12 138.31 L 147.86 137.41 L 147.60 136.53 L 147.34 135.63 L 147.08 134.74 L 146.82 133.85 L 146.56 132.96 L 146.26 132.11 L 145.97 131.26 L 145.68 130.41 L 145.38 129.56 L 145.02 128.79 L 144.67 128.02 L 144.32 127.26 L 143.96 126.49 L 143.38 125.61 L 142.78 124.73 L 142.20 123.86 L 141.47 123.16 L 140.75 122.46 L 140.03 121.76 L 139.16 121.24 L 138.30 120.72 L 137.44 120.21 L 136.43 119.87 L 135.44 119.52 L 134.44 119.18 L 133.60 119.03 L 132.77 118.89 L 131.94 118.75 L 131.10 118.60 L 130.21 118.54 L 129.31 118.48 L 128.42 118.41 L 127.52 118.35 L 126.59 118.33 L 125.66 118.31 L 124.73 118.28 L 123.80 118.26 L 122.87 118.24 L 121.94 118.22 L 121.01 118.20 L 120.09 118.18 L 119.19 118.12 L 118.29 118.05 L 117.39 117.99 L 116.50 117.93 L 115.66 117.78 L 114.83 117.63 L 114.00 117.49 L 113.16 117.34 L 112.16 117.00 L 111.16 116.66 L 110.17 116.32 L 109.30 115.80 L 108.44 115.29 L 107.57 114.77 L 106.85 114.07 L 106.13 113.37 L 105.41 112.66 L 104.82 111.79 L 104.23 110.92 L 103.64 110.04 L 103.29 109.27 L 102.93 108.50 L 102.57 107.74 L 102.22 106.96 L 101.92 106.11 L 101.63 105.27 L 101.34 104.42 L 101.04 103.57 L 100.78 102.68 L 100.52 101.79 L 100.26 100.89 L 100.00 100.00 L 100.00 100.00 L 100.92 99.90 L 101.85 99.80 L 102.77 99.70 L 103.70 99.60 L 104.59 99.54 L 105.49 99.49 L 106.38 99.44 L 107.28 99.38 L 108.13 99.42 L 108.97 99.45 L 109.82 99.49 L 110.67 99.52 L 111.71 99.73 L 112.73 99.94 L 113.77 100.15 L 114.70 100.55 L 115.62 100.95 L 116.54 101.35 L 117.35 101.95 L 118.16 102.55 L 118.96 103.15 L 119.66 103.94 L 120.36 104.73 L 121.06 105.52 L 121.51 106.24 L 121.97 106.95 L 122.42 107.67 L 122.88 108.38 L 123.27 109.19 L 123.67 109.99 L 124.08 110.80 L 124.48 111.60 L 124.86 112.45 L 125.23 113.30 L 125.61 114.15 L 125.98 115.00 L 126.35 115.85 L 126.73 116.70 L 127.11 117.55 L 127.48 118.40 L 127.88 119.21 L 128.29 120.01 L 128.69 120.81 L 129.09 121.62 L 129.54 122.33 L 129.99 123.05 L 130.44 123.76 L 130.90 124.48 L 131.60 125.27 L 132.29 126.06 L 133.00 126.85 L 133.80 127.45 L 134.61 128.05 L 135.42 128.65 L 136.34 129.05 L 137.27 129.45 L 138.19 129.85 L 139.22 130.06 L 140.26 130.27 L 141.30 130.48 L 142.14 130.51 L 142.98 130.54 L 143.83 130.58 L 144.68 130.62 L 145.58 130.56 L 146.47 130.51 L 147.37 130.45 L 148.27 130.40 L 149.19 130.30 L 150.11 130.20 L 151.04 130.10 L 151.96 130.00 L 152.88 129.90 L 153.80 129.80 L 154.73 129.70 L 155.65 129.60 L 156.56 129.54 L 157.45 129.49 L 158.35 129.44 L 159.25 129.38 L 160.09 129.42 L 160.94 129.45 L 161.79 129.49 L 162.63 129.52 L 163.66 129.73 L 164.70 129.94 L 165.73 130.15 L 166.66 130.55 L 167.58 130.95 L 168.51 131.35 L 169.31 131.95 L 170.12 132.55 L 170.93 133.15 L 171.63 133.94 L 172.33 134.73 L 173.02 135.53 L 173.48 136.24 L 173.93 136.95 L 174.38 137.67 L 174.84 138.38 L 175.24 139.19 L 175.64 140.00 L 176.04 140.79 L 176.44 141.60 L 176.82 142.45 L 177.19 143.30 L 177.57 144.15 L 177.94 145.00 L 178.42 144.04 L 178.89 143.08 L 179.36 142.12 L 179.84 141.16 L 180.31 140.20 L 180.78 139.24 L 181.25 138.28 L 181.73 137.32 L 182.20 136.36 L 182.68 135.40 L 183.15 134.44 L 182.25 134.67 L 181.34 134.88 L 180.44 135.11 L 179.54 135.32 L 178.65 135.49 L 177.77 135.67 L 176.89 135.83 L 176.01 136.01 L 175.17 136.08 L 174.32 136.16 L 173.48 136.23 L 172.64 136.31 L 171.59 136.24 L 170.53 136.16 L 169.48 136.09 L 168.51 135.82 L 167.54 135.54 L 166.57 135.27 L 165.69 134.78 L 164.81 134.29 L 163.93 133.80 L 163.14 133.10 L 162.34 132.41 L 161.55 131.71 L 161.01 131.07 L 160.46 130.42 L 159.92 129.77 L 159.38 129.12 L 158.88 128.38 L 158.37 127.63 L 157.87 126.88 L 157.36 126.13 L 156.88 125.35 L 156.39 124.55 L 155.91 123.75 L 155.44 122.96 L 154.95 122.17 L 154.47 121.37 L 153.98 120.58 L 153.50 119.78 L 153.00 119.04 L 152.50 118.30 L 151.99 117.55 L 151.49 116.81 L 150.94 116.15 L 150.40 115.51 L 149.86 114.86 L 149.32 114.21 L 148.53 113.51 L 147.73 112.82 L 146.93 112.12 L 146.05 111.64 L 145.18 111.15 L 144.29 110.66 L 143.32 110.38 L 142.35 110.10 L 141.39 109.83 L 140.34 109.76 L 139.29 109.68 L 138.23 109.61 L 137.38 109.69 L 136.54 109.76 L 135.70 109.84 L 134.86 109.92 L 133.98 110.09 L 133.10 110.26 L 132.21 110.43 L 131.33 110.60 L 130.43 110.82 L 129.52 111.04 L 128.62 111.26 L 127.71 111.48 L 126.82 111.70 L 125.91 111.92 L 125.01 112.14 L 124.11 112.36 L 123.22 112.53 L 122.34 112.70 L 121.45 112.87 L 120.58 113.04 L 119.73 113.12 L 118.89 113.19 L 118.05 113.27 L 117.20 113.35 L 116.15 113.28 L 115.09 113.20 L 114.04 113.13 L 113.07 112.85 L 112.11 112.58 L 111.14 112.30 L 110.26 111.82 L 109.38 111.33 L 108.50 110.83 L 107.70 110.14 L 106.91 109.45 L 106.12 108.76 L 105.57 108.11 L 105.03 107.45 L 104.49 106.81 L 103.94 106.15 L 103.44 105.41 L 102.94 104.67 L 102.44 103.92 L 101.93 103.18 L 101.45 102.38 L 100.97 101.59 L 100.48 100.79 L 100.00 100.00 L 100.00 100.00 L 100.86 99.66 L 101.74 99.33 L 102.60 98.99 L 103.47 98.66 L 104.32 98.37 L 105.17 98.09 L 106.02 97.80 L 106.87 97.52 L 107.71 97.33 L 108.53 97.15 L 109.36 96.96 L 110.18 96.78 L 111.24 96.71 L 112.29 96.64 L 113.34 96.58 L 114.34 96.72 L 115.34 96.87 L 116.33 97.02 L 117.26 97.39 L 118.20 97.76 L 119.13 98.13 L 120.01 98.72 L 120.90 99.30 L 121.77 99.88 L 122.40 100.46 L 123.02 101.03 L 123.64 101.60 L 124.27 102.18 L 124.86 102.85 L 125.45 103.52 L 126.05 104.20 L 126.65 104.87 L 127.23 105.59 L 127.81 106.32 L 128.40 107.04 L 128.97 107.76 L 129.56 108.49 L 130.14 109.21 L 130.73 109.94 L 131.31 110.66 L 131.90 111.34 L 132.50 112.01 L 133.10 112.68 L 133.69 113.35 L 134.32 113.93 L 134.94 114.50 L 135.56 115.07 L 136.18 115.64 L 137.07 116.23 L 137.94 116.82 L 138.82 117.40 L 139.75 117.77 L 140.69 118.14 L 141.63 118.51 L 142.63 118.66 L 143.62 118.80 L 144.62 118.95 L 145.67 118.88 L 146.73 118.82 L 147.78 118.75 L 148.60 118.57 L 149.42 118.38 L 150.25 118.19 L 151.08 118.01 L 151.93 117.72 L 152.79 117.44 L 153.64 117.16 L 154.49 116.87 L 155.35 116.54 L 156.22 116.20 L 157.09 115.87 L 157.96 115.53 L 158.82 115.19 L 159.68 114.86 L 160.55 114.52 L 161.42 114.19 L 162.28 113.90 L 163.12 113.62 L 163.98 113.33 L 164.83 113.05 L 165.66 112.87 L 166.48 112.68 L 167.31 112.49 L 168.13 112.31 L 169.19 112.24 L 170.24 112.17 L 171.29 112.11 L 172.29 112.25 L 173.29 112.40 L 174.29 112.55 L 175.22 112.92 L 176.16 113.29 L 177.09 113.66 L 177.97 114.24 L 178.85 114.83 L 179.73 115.42 L 180.35 115.99 L 180.97 116.56 L 181.60 117.14 L 182.22 117.70 L 182.82 118.38 L 183.41 119.06 L 184.01 119.72 L 184.61 120.40 L 185.19 121.12 L 185.77 121.84 L 186.35 122.57 L 186.93 123.29 L 187.14 122.24 L 187.35 121.19 L 187.56 120.14 L 187.77 119.09 L 187.98 118.04 L 188.19 117.00 L 188.39 115.95 L 188.60 114.90 L 188.81 113.85 L 189.02 112.80 L 189.23 111.75 L 188.42 112.20 L 187.60 112.64 L 186.79 113.09 L 185.97 113.53 L 185.16 113.93 L 184.36 114.32 L 183.55 114.71 L 182.74 115.11 L 181.94 115.39 L 181.14 115.69 L 180.35 115.98 L 179.56 116.28 L 178.53 116.47 L 177.49 116.68 L 176.45 116.88 L 175.45 116.86 L 174.44 116.85 L 173.43 116.84 L 172.46 116.59 L 171.48 116.34 L 170.50 116.10 L 169.55 115.63 L 168.61 115.17 L 167.66 114.70 L 166.97 114.22 L 166.27 113.73 L 165.58 113.25 L 164.89 112.76 L 164.22 112.17 L 163.53 111.58 L 162.86 110.99 L 162.17 110.40 L 161.50 109.76 L 160.83 109.12 L 160.16 108.47 L 159.49 107.83 L 158.82 107.19 L 158.14 106.54 L 157.47 105.90 L 156.80 105.26 L 156.12 104.67 L 155.44 104.09 L 154.76 103.50 L 154.08 102.91 L 153.39 102.42 L 152.70 101.93 L 152.01 101.45 L 151.32 100.96 L 150.37 100.49 L 149.42 100.03 L 148.47 99.56 L 147.50 99.32 L 146.52 99.07 L 145.54 98.83 L 144.53 98.81 L 143.53 98.80 L 142.53 98.78 L 141.49 98.99 L 140.46 99.19 L 139.42 99.39 L 138.62 99.68 L 137.83 99.97 L 137.03 100.27 L 136.24 100.56 L 135.43 100.95 L 134.62 101.34 L 133.81 101.74 L 133.01 102.13 L 132.19 102.58 L 131.37 103.02 L 130.56 103.47 L 129.74 103.92 L 128.93 104.36 L 128.11 104.81 L 127.30 105.26 L 126.48 105.70 L 125.67 106.10 L 124.86 106.49 L 124.06 106.88 L 123.25 107.27 L 122.46 107.57 L 121.66 107.86 L 120.87 108.15 L 120.07 108.44 L 119.04 108.64 L 118.00 108.84 L 116.96 109.05 L 115.95 109.03 L 114.95 109.02 L 113.94 109.00 L 112.97 108.76 L 111.99 108.51 L 111.01 108.27 L 110.07 107.80 L 109.12 107.34 L 108.18 106.88 L 107.48 106.39 L 106.79 105.90 L 106.10 105.41 L 105.40 104.92 L 104.72 104.33 L 104.05 103.75 L 103.37 103.16 L 102.69 102.57 L 102.02 101.93 L 101.35 101.29 L 100.67 100.64 L 100.00 100.00 L 100.00 100.00 L 100.75 99.45 L 101.50 98.90 L 102.25 98.35 L 103.00 97.80 L 103.75 97.31 L 104.50 96.81 L 105.25 96.32 L 106.00 95.82 L 106.75 95.43 L 107.50 95.04 L 108.25 94.64 L 109.00 94.25 L 110.00 93.91 L 111.00 93.58 L 112.00 93.24 L 113.00 93.13 L 114.00 93.01 L 115.00 92.89 L 116.00 93.01 L 117.00 93.13 L 118.00 93.24 L 119.00 93.58 L 120.00 93.92 L 121.00 94.25 L 121.75 94.64 L 122.50 95.04 L 123.25 95.43 L 124.00 95.82 L 124.75 96.32 L 125.50 96.81 L 126.25 97.31 L 127.00 97.81 L 127.75 98.35 L 128.50 98.90 L 129.25 99.45 L 130.00 100.00 L 130.75 100.55 L 131.50 101.10 L 132.25 101.65 L 133.00 102.19 L 133.75 102.69 L 134.50 103.19 L 135.25 103.68 L 136.00 104.18 L 136.75 104.57 L 137.50 104.96 L 138.25 105.35 L 139.00 105.75 L 140.00 106.09 L 141.00 106.42 L 142.00 106.76 L 143.00 106.87 L 144.00 106.99 L 145.00 107.10 L 146.00 106.99 L 147.00 106.87 L 148.00 106.76 L 149.00 106.42 L 150.00 106.08 L 151.00 105.75 L 151.75 105.35 L 152.50 104.96 L 153.25 104.57 L 154.00 104.18 L 154.75 103.68 L 155.50 103.18 L 156.25 102.69 L 157.00 102.20 L 157.75 101.65 L 158.50 101.10 L 159.25 100.55 L 160.00 100.00 L 160.75 99.45 L 161.50 98.90 L 162.25 98.36 L 163.00 97.81 L 163.75 97.31 L 164.50 96.82 L 165.25 96.32 L 166.00 95.82 L 166.75 95.43 L 167.50 95.04 L 168.25 94.64 L 169.00 94.25 L 170.00 93.92 L 171.00 93.58 L 172.00 93.24 L 173.00 93.12 L 174.00 93.01 L 175.00 92.90 L 176.00 93.01 L 177.00 93.13 L 178.00 93.24 L 179.00 93.58 L 180.00 93.92 L 181.00 94.25 L 181.75 94.65 L 182.50 95.04 L 183.25 95.43 L 184.00 95.82 L 184.75 96.32 L 185.50 96.82 L 186.25 97.31 L 187.00 97.81 L 187.75 98.35 L 188.50 98.90 L 189.25 99.45 L 190.00 100.00 L 189.93 98.93 L 189.86 97.86 L 189.79 96.79 L 189.72 95.73 L 189.65 94.66 L 189.58 93.59 L 189.51 92.53 L 189.44 91.46 L 189.37 90.39 L 189.30 89.32 L 189.23 88.25 L 188.56 88.90 L 187.89 89.54 L 187.22 90.18 L 186.54 90.82 L 185.86 91.41 L 185.19 92.00 L 184.51 92.59 L 183.83 93.18 L 183.13 93.66 L 182.44 94.15 L 181.75 94.64 L 181.06 95.13 L 180.11 95.59 L 179.16 96.05 L 178.21 96.52 L 177.24 96.76 L 176.26 97.01 L 175.29 97.26 L 174.28 97.27 L 173.27 97.29 L 172.26 97.30 L 171.23 97.10 L 170.19 96.89 L 169.16 96.69 L 168.37 96.40 L 167.57 96.11 L 166.78 95.82 L 165.98 95.53 L 165.18 95.13 L 164.36 94.74 L 163.56 94.35 L 162.75 93.95 L 161.93 93.51 L 161.11 93.06 L 160.30 92.61 L 159.49 92.17 L 158.67 91.72 L 157.85 91.27 L 157.04 90.83 L 156.23 90.38 L 155.42 89.99 L 154.61 89.60 L 153.80 89.21 L 152.99 88.81 L 152.19 88.52 L 151.40 88.23 L 150.61 87.94 L 149.82 87.64 L 148.78 87.44 L 147.74 87.24 L 146.71 87.03 L 145.70 87.05 L 144.70 87.06 L 143.69 87.08 L 142.71 87.33 L 141.73 87.57 L 140.76 87.82 L 139.81 88.28 L 138.87 88.74 L 137.92 89.21 L 137.22 89.70 L 136.53 90.18 L 135.84 90.67 L 135.15 91.16 L 134.47 91.75 L 133.79 92.34 L 133.11 92.93 L 132.43 93.52 L 131.76 94.16 L 131.09 94.80 L 130.41 95.44 L 129.74 96.08 L 129.08 96.73 L 128.40 97.37 L 127.73 98.01 L 127.06 98.65 L 126.38 99.24 L 125.69 99.83 L 125.02 100.42 L 124.34 101.01 L 123.65 101.50 L 122.95 101.98 L 122.26 102.47 L 121.57 102.96 L 120.63 103.42 L 119.67 103.89 L 118.73 104.35 L 117.75 104.59 L 116.78 104.84 L 115.80 105.09 L 114.80 105.10 L 113.79 105.12 L 112.78 105.13 L 111.74 104.93 L 110.71 104.73 L 109.68 104.53 L 108.88 104.23 L 108.08 103.94 L 107.29 103.65 L 106.49 103.36 L 105.68 102.96 L 104.88 102.57 L 104.07 102.18 L 103.26 101.78 L 102.45 101.34 L 101.63 100.89 L 100.81 100.45 L 100.00 100.00 L 100.00 100.00 L 100.58 99.28 L 101.17 98.55 L 101.75 97.83 L 102.33 97.10 L 102.93 96.43 L 103.52 95.76 L 104.12 95.09 L 104.71 94.41 L 105.34 93.84 L 105.96 93.27 L 106.58 92.69 L 107.21 92.12 L 108.09 91.53 L 108.96 90.95 L 109.84 90.37 L 110.78 90.00 L 111.72 89.62 L 112.65 89.26 L 113.65 89.11 L 114.64 88.96 L 115.64 88.82 L 116.69 88.88 L 117.75 88.95 L 118.80 89.01 L 119.62 89.20 L 120.45 89.38 L 121.28 89.57 L 122.10 89.75 L 122.95 90.04 L 123.80 90.32 L 124.66 90.61 L 125.51 90.89 L 126.38 91.23 L 127.24 91.56 L 128.11 91.90 L 128.97 92.24 L 129.84 92.57 L 130.71 92.91 L 131.58 93.24 L 132.45 93.58 L 133.30 93.86 L 134.15 94.15 L 135.00 94.43 L 135.86 94.72 L 136.68 94.90 L 137.51 95.09 L 138.33 95.27 L 139.16 95.46 L 140.22 95.53 L 141.26 95.59 L 142.32 95.66 L 143.31 95.51 L 144.31 95.36 L 145.31 95.22 L 146.24 94.85 L 147.18 94.47 L 148.11 94.11 L 148.99 93.52 L 149.88 92.94 L 150.75 92.35 L 151.38 91.78 L 151.99 91.20 L 152.61 90.63 L 153.24 90.06 L 153.84 89.38 L 154.44 88.72 L 155.03 88.04 L 155.63 87.37 L 156.21 86.64 L 156.79 85.92 L 157.38 85.20 L 157.96 84.47 L 158.54 83.75 L 159.12 83.03 L 159.70 82.30 L 160.28 81.58 L 160.88 80.90 L 161.48 80.23 L 162.08 79.56 L 162.67 78.88 L 163.29 78.31 L 163.91 77.74 L 164.54 77.16 L 165.16 76.59 L 166.04 76.01 L 166.92 75.42 L 167.80 74.84 L 168.73 74.47 L 169.67 74.09 L 170.61 73.73 L 171.60 73.58 L 172.60 73.43 L 173.59 73.29 L 174.65 73.35 L 175.70 73.42 L 176.76 73.49 L 177.58 73.67 L 178.40 73.85 L 179.23 74.04 L 180.06 74.22 L 180.91 74.51 L 181.77 74.80 L 182.61 75.08 L 183.47 75.36 L 184.34 75.69 L 185.20 76.03 L 186.07 76.37 L 186.93 76.71 L 186.59 75.69 L 186.24 74.68 L 185.90 73.66 L 185.55 72.65 L 185.21 71.64 L 184.87 70.63 L 184.52 69.61 L 184.18 68.60 L 183.84 67.59 L 183.49 66.57 L 183.15 65.56 L 182.67 66.36 L 182.18 67.15 L 181.70 67.94 L 181.22 68.73 L 180.71 69.48 L 180.22 70.23 L 179.71 70.97 L 179.21 71.71 L 178.66 72.36 L 178.12 73.02 L 177.58 73.66 L 177.04 74.32 L 176.24 75.00 L 175.45 75.70 L 174.65 76.39 L 173.77 76.88 L 172.89 77.37 L 172.01 77.86 L 171.04 78.14 L 170.07 78.42 L 169.10 78.69 L 168.05 78.76 L 167.00 78.83 L 165.95 78.90 L 165.11 78.83 L 164.26 78.75 L 163.42 78.68 L 162.57 78.60 L 161.70 78.43 L 160.81 78.26 L 159.93 78.09 L 159.04 77.92 L 158.14 77.70 L 157.24 77.48 L 156.33 77.26 L 155.44 77.04 L 154.53 76.82 L 153.62 76.60 L 152.72 76.38 L 151.82 76.16 L 150.94 75.99 L 150.06 75.82 L 149.17 75.65 L 148.29 75.48 L 147.44 75.40 L 146.60 75.33 L 145.76 75.25 L 144.92 75.17 L 143.87 75.24 L 142.81 75.32 L 141.76 75.39 L 140.79 75.66 L 139.83 75.94 L 138.86 76.21 L 137.98 76.71 L 137.09 77.20 L 136.22 77.68 L 135.42 78.38 L 134.63 79.07 L 133.83 79.77 L 133.29 80.42 L 132.75 81.06 L 132.21 81.71 L 131.66 82.36 L 131.16 83.11 L 130.66 83.85 L 130.15 84.60 L 129.65 85.34 L 129.17 86.14 L 128.68 86.93 L 128.20 87.73 L 127.71 88.52 L 127.24 89.31 L 126.75 90.11 L 126.27 90.90 L 125.79 91.69 L 125.28 92.44 L 124.77 93.19 L 124.27 93.93 L 123.77 94.67 L 123.23 95.32 L 122.69 95.97 L 122.15 96.62 L 121.60 97.27 L 120.81 97.97 L 120.01 98.66 L 119.21 99.35 L 118.33 99.84 L 117.46 100.34 L 116.58 100.82 L 115.61 101.10 L 114.64 101.38 L 113.67 101.65 L 112.62 101.72 L 111.57 101.79 L 110.52 101.87 L 109.67 101.79 L 108.83 101.71 L 107.99 101.64 L 107.14 101.56 L 106.26 101.39 L 105.38 101.22 L 104.50 101.05 L 103.61 100.88 L 102.71 100.66 L 101.81 100.44 L 100.90 100.22 L 100.00 100.00 L 100.00 100.00 L 100.37 99.15 L 100.75 98.30 L 101.13 97.45 L 101.50 96.60 L 101.90 95.79 L 102.31 94.99 L 102.70 94.19 L 103.11 93.39 L 103.56 92.67 L 104.01 91.95 L 104.47 91.24 L 104.92 90.52 L 105.62 89.73 L 106.31 88.94 L 107.01 88.15 L 107.82 87.55 L 108.63 86.94 L 109.44 86.35 L 110.36 85.95 L 111.28 85.55 L 112.21 85.15 L 113.24 84.94 L 114.28 84.73 L 115.31 84.52 L 116.16 84.49 L 117.00 84.45 L 117.85 84.42 L 118.70 84.38 L 119.59 84.44 L 120.49 84.49 L 121.39 84.55 L 122.29 84.60 L 123.21 84.70 L 124.13 84.80 L 125.06 84.90 L 125.98 85.00 L 126.90 85.10 L 127.83 85.20 L 128.75 85.30 L 129.68 85.40 L 130.58 85.46 L 131.47 85.51 L 132.37 85.56 L 133.27 85.62 L 134.11 85.58 L 134.96 85.55 L 135.80 85.51 L 136.65 85.48 L 137.69 85.27 L 138.72 85.06 L 139.75 84.85 L 140.67 84.45 L 141.60 84.05 L 142.52 83.65 L 143.33 83.05 L 144.14 82.45 L 144.95 81.85 L 145.65 81.06 L 146.35 80.27 L 147.04 79.47 L 147.50 78.76 L 147.94 78.05 L 148.40 77.33 L 148.85 76.62 L 149.25 75.81 L 149.66 75.01 L 150.06 74.21 L 150.46 73.40 L 150.83 72.55 L 151.21 71.70 L 151.59 70.85 L 151.96 70.00 L 152.34 69.15 L 152.71 68.30 L 153.09 67.45 L 153.46 66.60 L 153.87 65.79 L 154.26 65.00 L 154.67 64.19 L 155.07 63.38 L 155.52 62.67 L 155.97 61.95 L 156.43 61.24 L 156.88 60.52 L 157.58 59.73 L 158.28 58.94 L 158.97 58.15 L 159.78 57.55 L 160.59 56.94 L 161.40 56.35 L 162.32 55.95 L 163.25 55.55 L 164.17 55.15 L 165.21 54.94 L 166.24 54.73 L 167.28 54.52 L 168.12 54.49 L 168.96 54.45 L 169.81 54.42 L 170.66 54.38 L 171.56 54.43 L 172.46 54.49 L 173.35 54.54 L 174.25 54.60 L 175.17 54.69 L 176.09 54.80 L 177.02 54.90 L 177.94 55.00 L 177.35 54.11 L 176.75 53.22 L 176.16 52.33 L 175.56 51.44 L 174.97 50.55 L 174.38 49.66 L 173.78 48.77 L 173.19 47.88 L 172.59 46.99 L 172.00 46.10 L 171.40 45.21 L 171.14 46.11 L 170.88 47.00 L 170.62 47.89 L 170.36 48.78 L 170.06 49.63 L 169.78 50.48 L 169.48 51.32 L 169.19 52.18 L 168.83 52.94 L 168.47 53.72 L 168.12 54.48 L 167.77 55.25 L 167.17 56.12 L 166.59 57.00 L 165.99 57.88 L 165.27 58.57 L 164.55 59.28 L 163.83 59.98 L 162.97 60.50 L 162.10 61.01 L 161.23 61.53 L 160.24 61.87 L 159.24 62.21 L 158.24 62.56 L 157.41 62.70 L 156.57 62.85 L 155.74 62.99 L 154.90 63.13 L 154.01 63.20 L 153.11 63.27 L 152.22 63.32 L 151.31 63.39 L 150.39 63.41 L 149.46 63.44 L 148.53 63.45 L 147.60 63.47 L 146.67 63.49 L 145.74 63.52 L 144.81 63.54 L 143.88 63.56 L 142.99 63.62 L 142.09 63.69 L 141.20 63.75 L 140.30 63.81 L 139.46 63.96 L 138.63 64.11 L 137.80 64.25 L 136.97 64.39 L 135.97 64.73 L 134.97 65.08 L 133.97 65.42 L 133.10 65.93 L 132.24 66.45 L 131.38 66.97 L 130.65 67.67 L 129.93 68.37 L 129.21 69.07 L 128.62 69.95 L 128.03 70.82 L 127.44 71.70 L 127.08 72.47 L 126.73 73.23 L 126.38 74.00 L 126.02 74.77 L 125.73 75.62 L 125.43 76.47 L 125.14 77.32 L 124.85 78.17 L 124.58 79.06 L 124.32 79.95 L 124.06 80.85 L 123.80 81.74 L 123.54 82.63 L 123.28 83.52 L 123.02 84.41 L 122.76 85.31 L 122.46 86.16 L 122.17 87.01 L 121.87 87.86 L 121.58 88.70 L 121.23 89.47 L 120.87 90.24 L 120.52 91.01 L 120.16 91.78 L 119.57 92.65 L 118.98 93.53 L 118.39 94.40 L 117.67 95.10 L 116.95 95.81 L 116.22 96.51 L 115.36 97.02 L 114.50 97.54 L 113.63 98.06 L 112.63 98.40 L 111.64 98.74 L 110.64 99.08 L 109.81 99.23 L 108.97 99.37 L 108.14 99.52 L 107.30 99.66 L 106.40 99.72 L 105.51 99.79 L 104.61 99.85 L 103.72 99.92 L 102.79 99.94 L 101.86 99.96 L 100.93 99.98 L 100.00 100.00 L 100.00 100.00 L 100.14 99.08 L 100.29 98.16 L 100.43 97.24 L 100.57 96.33 L 100.75 95.44 L 100.93 94.56 L 101.11 93.69 L 101.29 92.81 L 101.54 91.99 L 101.79 91.19 L 102.05 90.38 L 102.30 89.57 L 102.77 88.62 L 103.24 87.68 L 103.71 86.74 L 104.33 85.95 L 104.96 85.16 L 105.58 84.37 L 106.37 83.74 L 107.16 83.12 L 107.95 82.50 L 108.89 82.03 L 109.84 81.55 L 110.78 81.09 L 111.59 80.83 L 112.40 80.58 L 113.21 80.33 L 114.02 80.07 L 114.90 79.90 L 115.78 79.72 L 116.66 79.54 L 117.54 79.36 L 118.46 79.21 L 119.38 79.07 L 120.30 78.93 L 121.21 78.79 L 122.13 78.65 L 123.05 78.50 L 123.97 78.36 L 124.89 78.22 L 125.77 78.04 L 126.65 77.86 L 127.53 77.68 L 128.41 77.50 L 129.22 77.24 L 130.03 76.99 L 130.83 76.74 L 131.64 76.49 L 132.59 76.02 L 133.53 75.55 L 134.48 75.08 L 135.26 74.46 L 136.05 73.83 L 136.84 73.20 L 137.47 72.41 L 138.10 71.62 L 138.72 70.84 L 139.19 69.89 L 139.66 68.94 L 140.13 68.00 L 140.38 67.19 L 140.63 66.39 L 140.88 65.58 L 141.14 64.77 L 141.32 63.89 L 141.50 63.01 L 141.68 62.13 L 141.86 61.25 L 142.00 60.33 L 142.14 59.41 L 142.29 58.49 L 142.43 57.57 L 142.57 56.66 L 142.71 55.74 L 142.85 54.82 L 142.99 53.90 L 143.18 53.02 L 143.36 52.14 L 143.54 51.26 L 143.72 50.38 L 143.97 49.57 L 144.22 48.76 L 144.48 47.95 L 144.72 47.15 L 145.19 46.20 L 145.66 45.25 L 146.13 44.31 L 146.76 43.52 L 147.38 42.73 L 148.01 41.94 L 148.80 41.32 L 149.59 40.69 L 150.38 40.07 L 151.32 39.60 L 152.27 39.13 L 153.22 38.66 L 154.02 38.41 L 154.82 38.15 L 155.64 37.90 L 156.44 37.65 L 157.33 37.47 L 158.21 37.29 L 159.08 37.11 L 159.97 36.93 L 160.88 36.78 L 161.80 36.65 L 162.72 36.50 L 163.64 36.36 L 162.83 35.65 L 162.03 34.95 L 161.22 34.24 L 160.42 33.54 L 159.62 32.83 L 158.81 32.12 L 158.01 31.42 L 157.20 30.72 L 156.40 30.01 L 155.59 29.30 L 154.79 28.60 L 154.77 29.53 L 154.74 30.46 L 154.73 31.39 L 154.70 32.31 L 154.64 33.21 L 154.58 34.11 L 154.51 35.00 L 154.45 35.90 L 154.30 36.73 L 154.16 37.57 L 154.01 38.40 L 153.87 39.24 L 153.53 40.23 L 153.19 41.23 L 152.84 42.23 L 152.33 43.09 L 151.81 43.96 L 151.30 44.82 L 150.60 45.55 L 149.89 46.27 L 149.19 46.99 L 148.32 47.58 L 147.44 48.17 L 146.56 48.76 L 145.80 49.11 L 145.03 49.47 L 144.26 49.83 L 143.49 50.18 L 142.65 50.47 L 141.79 50.77 L 140.95 51.06 L 140.09 51.36 L 139.20 51.62 L 138.31 51.88 L 137.41 52.14 L 136.53 52.40 L 135.63 52.66 L 134.74 52.92 L 133.85 53.18 L 132.96 53.44 L 132.11 53.74 L 131.26 54.03 L 130.41 54.32 L 129.56 54.62 L 128.79 54.98 L 128.02 55.33 L 127.26 55.68 L 126.49 56.04 L 125.61 56.62 L 124.73 57.22 L 123.86 57.80 L 123.16 58.53 L 122.46 59.25 L 121.76 59.97 L 121.24 60.84 L 120.72 61.70 L 120.21 62.56 L 119.87 63.57 L 119.52 64.56 L 119.18 65.56 L 119.03 66.40 L 118.89 67.23 L 118.75 68.06 L 118.60 68.90 L 118.54 69.79 L 118.48 70.69 L 118.41 71.58 L 118.35 72.48 L 118.33 73.41 L 118.31 74.34 L 118.28 75.27 L 118.26 76.20 L 118.24 77.13 L 118.22 78.06 L 118.20 78.99 L 118.18 79.92 L 118.12 80.81 L 118.05 81.71 L 117.99 82.61 L 117.93 83.50 L 117.78 84.34 L 117.63 85.17 L 117.49 86.00 L 117.34 86.84 L 117.00 87.84 L 116.66 88.84 L 116.32 89.83 L 115.80 90.70 L 115.29 91.56 L 114.77 92.43 L 114.07 93.15 L 113.37 93.87 L 112.66 94.59 L 111.79 95.18 L 110.92 95.77 L 110.04 96.36 L 109.27 96.71 L 108.50 97.07 L 107.74 97.43 L 106.96 97.78 L 106.11 98.08 L 105.27 98.37 L 104.42 98.66 L 103.57 98.96 L 102.68 99.22 L 101.79 99.48 L 100.89 99.74 L 100.00 100.00 L 100.00 100.00 L 99.90 99.08 L 99.80 98.15 L 99.70 97.23 L 99.60 96.30 L 99.54 95.41 L 99.49 94.51 L 99.44 93.62 L 99.38 92.72 L 99.42 91.87 L 99.45 91.03 L 99.49 90.18 L 99.52 89.33 L 99.73 88.29 L 99.94 87.27 L 100.15 86.23 L 100.55 85.30 L 100.95 84.38 L 101.35 83.46 L 101.95 82.65 L 102.55 81.84 L 103.15 81.04 L 103.94 80.34 L 104.73 79.64 L 105.52 78.94 L 106.24 78.49 L 106.95 78.03 L 107.67 77.58 L 108.38 77.12 L 109.19 76.73 L 109.99 76.33 L 110.79 75.92 L 111.60 75.52 L 112.45 75.14 L 113.30 74.77 L 114.15 74.39 L 115.00 74.02 L 115.85 73.65 L 116.70 73.27 L 117.55 72.89 L 118.40 72.52 L 119.21 72.12 L 120.01 71.71 L 120.81 71.31 L 121.62 70.91 L 122.33 70.46 L 123.05 70.01 L 123.76 69.56 L 124.48 69.10 L 125.27 68.40 L 126.06 67.70 L 126.85 67.00 L 127.45 66.20 L 128.05 65.39 L 128.65 64.58 L 129.05 63.66 L 129.45 62.73 L 129.85 61.81 L 130.06 60.78 L 130.27 59.74 L 130.48 58.70 L 130.51 57.86 L 130.54 57.02 L 130.58 56.17 L 130.62 55.32 L 130.56 54.43 L 130.51 53.53 L 130.45 52.63 L 130.40 51.73 L 130.30 50.81 L 130.20 49.89 L 130.10 48.96 L 130.00 48.04 L 129.90 47.12 L 129.79 46.19 L 129.70 45.27 L 129.60 44.35 L 129.55 43.44 L 129.49 42.55 L 129.44 41.65 L 129.38 40.75 L 129.41 39.91 L 129.45 39.06 L 129.49 38.21 L 129.52 37.37 L 129.73 36.34 L 129.94 35.30 L 130.15 34.27 L 130.55 33.34 L 130.95 32.42 L 131.35 31.49 L 131.95 30.69 L 132.55 29.88 L 133.15 29.07 L 133.94 28.37 L 134.73 27.67 L 135.52 26.97 L 136.24 26.52 L 136.95 26.07 L 137.67 25.62 L 138.38 25.16 L 139.19 24.76 L 139.99 24.36 L 140.79 23.96 L 141.60 23.56 L 142.45 23.18 L 143.30 22.81 L 144.15 22.43 L 145.00 22.06 L 144.04 21.58 L 143.08 21.11 L 142.12 20.64 L 141.16 20.16 L 140.20 19.69 L 139.24 19.22 L 138.28 18.75 L 137.32 18.27 L 136.36 17.80 L 135.40 17.32 L 134.44 16.85 L 134.66 17.75 L 134.88 18.66 L 135.11 19.56 L 135.32 20.46 L 135.49 21.35 L 135.66 22.22 L 135.83 23.11 L 136.01 23.99 L 136.08 24.83 L 136.16 25.68 L 136.23 26.52 L 136.31 27.36 L 136.24 28.41 L 136.17 29.47 L 136.09 30.52 L 135.82 31.49 L 135.54 32.46 L 135.27 33.43 L 134.78 34.31 L 134.29 35.19 L 133.80 36.07 L 133.10 36.86 L 132.41 37.66 L 131.71 38.45 L 131.07 38.99 L 130.42 39.54 L 129.76 40.08 L 129.12 40.62 L 128.38 41.12 L 127.63 41.63 L 126.88 42.13 L 126.13 42.64 L 125.34 43.12 L 124.55 43.60 L 123.75 44.09 L 122.96 44.56 L 122.17 45.05 L 121.37 45.53 L 120.58 46.02 L 119.78 46.50 L 119.04 47.00 L 118.30 47.50 L 117.55 48.01 L 116.81 48.51 L 116.16 49.06 L 115.51 49.60 L 114.86 50.14 L 114.21 50.68 L 113.51 51.47 L 112.82 52.27 L 112.12 53.07 L 111.64 53.95 L 111.15 54.82 L 110.66 55.71 L 110.38 56.68 L 110.10 57.65 L 109.83 58.61 L 109.76 59.66 L 109.69 60.71 L 109.62 61.77 L 109.69 62.62 L 109.76 63.46 L 109.84 64.30 L 109.92 65.14 L 110.09 66.02 L 110.26 66.90 L 110.43 67.79 L 110.60 68.67 L 110.82 69.57 L 111.04 70.48 L 111.26 71.38 L 111.48 72.29 L 111.70 73.18 L 111.92 74.09 L 112.14 74.99 L 112.36 75.89 L 112.53 76.78 L 112.70 77.66 L 112.87 78.54 L 113.04 79.42 L 113.12 80.27 L 113.20 81.11 L 113.27 81.95 L 113.35 82.80 L 113.28 83.85 L 113.20 84.91 L 113.13 85.96 L 112.85 86.93 L 112.58 87.89 L 112.30 88.86 L 111.82 89.74 L 111.33 90.62 L 110.83 91.50 L 110.14 92.30 L 109.45 93.09 L 108.76 93.88 L 108.11 94.43 L 107.45 94.97 L 106.81 95.51 L 106.15 96.06 L 105.41 96.56 L 104.67 97.06 L 103.92 97.56 L 103.18 98.07 L 102.38 98.55 L 101.59 99.03 L 100.79 99.52 L 100.00 100.00 L 100.00 100.00 L 99.66 99.14 L 99.33 98.26 L 98.99 97.40 L 98.66 96.53 L 98.37 95.68 L 98.09 94.83 L 97.80 93.98 L 97.52 93.13 L 97.33 92.29 L 97.15 91.47 L 96.96 90.64 L 96.78 89.82 L 96.71 88.76 L 96.65 87.71 L 96.58 86.66 L 96.72 85.66 L 96.87 84.66 L 97.02 83.67 L 97.39 82.74 L 97.76 81.80 L 98.13 80.87 L 98.72 79.99 L 99.30 79.10 L 99.88 78.23 L 100.46 77.60 L 101.03 76.98 L 101.60 76.36 L 102.18 75.73 L 102.85 75.14 L 103.52 74.55 L 104.19 73.95 L 104.87 73.35 L 105.59 72.77 L 106.32 72.19 L 107.04 71.60 L 107.76 71.03 L 108.49 70.44 L 109.21 69.86 L 109.94 69.28 L 110.66 68.69 L 111.33 68.10 L 112.01 67.50 L 112.68 66.90 L 113.35 66.31 L 113.93 65.68 L 114.50 65.06 L 115.07 64.44 L 115.65 63.82 L 116.23 62.93 L 116.81 62.06 L 117.40 61.18 L 117.77 60.25 L 118.14 59.31 L 118.51 58.37 L 118.66 57.38 L 118.80 56.38 L 118.95 55.38 L 118.89 54.33 L 118.82 53.28 L 118.75 52.22 L 118.57 51.40 L 118.38 50.58 L 118.20 49.75 L 118.01 48.92 L 117.73 48.07 L 117.44 47.21 L 117.16 46.36 L 116.87 45.51 L 116.54 44.65 L 116.20 43.78 L 115.86 42.91 L 115.53 42.04 L 115.19 41.18 L 114.85 40.31 L 114.52 39.45 L 114.18 38.58 L 113.90 37.72 L 113.61 36.88 L 113.33 36.02 L 113.05 35.17 L 112.86 34.34 L 112.68 33.52 L 112.49 32.69 L 112.31 31.87 L 112.24 30.81 L 112.17 29.76 L 112.11 28.71 L 112.25 27.71 L 112.40 26.71 L 112.55 25.71 L 112.92 24.78 L 113.29 23.84 L 113.66 22.91 L 114.25 22.03 L 114.83 21.15 L 115.41 20.27 L 115.99 19.65 L 116.56 19.03 L 117.13 18.40 L 117.71 17.78 L 118.38 17.18 L 119.05 16.58 L 119.72 15.99 L 120.39 15.39 L 121.12 14.81 L 121.85 14.23 L 122.57 13.65 L 123.30 13.07 L 122.24 12.86 L 121.19 12.65 L 120.14 12.44 L 119.09 12.23 L 118.05 12.02 L 117.00 11.81 L 115.95 11.61 L 114.89 11.40 L 113.84 11.19 L 112.80 10.98 L 111.75 10.77 L 112.19 11.58 L 112.64 12.40 L 113.08 13.21 L 113.53 14.03 L 113.93 14.84 L 114.32 15.64 L 114.71 16.45 L 115.11 17.26 L 115.40 18.06 L 115.69 18.86 L 115.98 19.65 L 116.27 20.44 L 116.48 21.47 L 116.68 22.51 L 116.88 23.55 L 116.87 24.55 L 116.85 25.56 L 116.83 26.57 L 116.59 27.54 L 116.35 28.52 L 116.10 29.50 L 115.64 30.45 L 115.17 31.39 L 114.71 32.34 L 114.22 33.03 L 113.73 33.73 L 113.24 34.42 L 112.76 35.11 L 112.16 35.78 L 111.57 36.47 L 110.99 37.14 L 110.40 37.83 L 109.76 38.50 L 109.11 39.17 L 108.47 39.84 L 107.83 40.51 L 107.19 41.18 L 106.55 41.86 L 105.91 42.53 L 105.26 43.20 L 104.68 43.88 L 104.08 44.56 L 103.49 45.24 L 102.91 45.92 L 102.42 46.61 L 101.93 47.30 L 101.45 47.99 L 100.96 48.68 L 100.49 49.63 L 100.03 50.58 L 99.56 51.53 L 99.32 52.50 L 99.07 53.48 L 98.83 54.46 L 98.81 55.47 L 98.80 56.47 L 98.78 57.47 L 98.98 58.51 L 99.19 59.54 L 99.39 60.58 L 99.68 61.38 L 99.97 62.17 L 100.27 62.97 L 100.56 63.76 L 100.95 64.57 L 101.34 65.38 L 101.74 66.19 L 102.13 66.99 L 102.58 67.81 L 103.02 68.63 L 103.47 69.44 L 103.92 70.26 L 104.36 71.07 L 104.81 71.89 L 105.26 72.70 L 105.70 73.52 L 106.09 74.33 L 106.49 75.14 L 106.88 75.94 L 107.27 76.75 L 107.56 77.54 L 107.86 78.34 L 108.15 79.13 L 108.44 79.93 L 108.64 80.96 L 108.84 82.00 L 109.05 83.04 L 109.03 84.05 L 109.02 85.05 L 109.00 86.06 L 108.76 87.03 L 108.51 88.01 L 108.26 88.99 L 107.80 89.93 L 107.34 90.88 L 106.88 91.82 L 106.39 92.52 L 105.90 93.21 L 105.41 93.90 L 104.92 94.60 L 104.33 95.28 L 103.75 95.95 L 103.16 96.63 L 102.57 97.31 L 101.93 97.98 L 101.29 98.65 L 100.64 99.33 L 100.00 100.00 L 100.00 100.00 L 99.45 99.25 L 98.90 98.50 L 98.35 97.75 L 97.80 97.00 L 97.31 96.25 L 96.81 95.50 L 96.32 94.75 L 95.83 94.00 L 95.43 93.25 L 95.04 92.50 L 94.64 91.75 L 94.25 91.00 L 93.91 90.00 L 93.58 89.00 L 93.24 88.00 L 93.13 87.00 L 93.01 86.00 L 92.90 85.00 L 93.01 84.00 L 93.13 83.00 L 93.24 82.00 L 93.58 81.00 L 93.91 80.00 L 94.25 79.00 L 94.64 78.25 L 95.04 77.50 L 95.43 76.75 L 95.82 76.00 L 96.32 75.25 L 96.82 74.50 L 97.31 73.75 L 97.80 73.00 L 98.35 72.25 L 98.90 71.50 L 99.45 70.75 L 100.00 70.00 L 100.55 69.25 L 101.10 68.50 L 101.65 67.75 L 102.20 67.00 L 102.69 66.25 L 103.19 65.50 L 103.68 64.75 L 104.18 64.00 L 104.57 63.25 L 104.96 62.50 L 105.36 61.75 L 105.75 61.00 L 106.08 60.00 L 106.42 59.00 L 106.76 58.00 L 106.87 57.00 L 106.99 56.00 L 107.11 55.00 L 106.99 54.00 L 106.87 53.00 L 106.76 52.00 L 106.42 51.00 L 106.09 50.00 L 105.75 49.00 L 105.36 48.25 L 104.96 47.50 L 104.57 46.75 L 104.18 46.00 L 103.68 45.25 L 103.19 44.50 L 102.69 43.75 L 102.20 43.00 L 101.65 42.25 L 101.10 41.50 L 100.55 40.75 L 100.00 40.00 L 99.45 39.25 L 98.90 38.50 L 98.35 37.75 L 97.80 37.00 L 97.31 36.25 L 96.81 35.50 L 96.32 34.75 L 95.83 34.00 L 95.43 33.25 L 95.04 32.50 L 94.65 31.75 L 94.26 31.00 L 93.92 30.00 L 93.58 29.00 L 93.24 28.00 L 93.13 27.00 L 93.01 26.00 L 92.89 25.00 L 93.01 24.00 L 93.12 23.00 L 93.24 22.00 L 93.58 21.00 L 93.92 20.00 L 94.25 19.00 L 94.65 18.25 L 95.04 17.50 L 95.43 16.75 L 95.82 16.00 L 96.32 15.25 L 96.81 14.50 L 97.31 13.75 L 97.80 13.00 L 98.35 12.25 L 98.91 11.50 L 99.45 10.75 L 100.00 10.00" 
          fill="none" 
          stroke="currentColor" 
          stroke-width="0.5"/>
</svg>