<?xml version="1.0" encoding="UTF-8" standalone="no"?>
<svg width="100%" height="100%" viewBox="0 0 200 200" preserveAspectRatio="xMidYMid meet" xmlns="http://www.w3.org/2000/svg">
    <path d="M 9.54 100.00 L 10.59 99.64 L 11.65 99.28 L 12.71 98.93 L 13.76 98.58 L 13.98 97.49 L 14.20 96.39 L 14.41 95.31 L 14.63 94.21 L 15.69 93.85 L 16.74 93.50 L 17.80 93.15 L 18.85 92.78 L 19.69 93.52 L 20.52 94.26 L 21.36 94.99 L 22.19 95.73 L 21.98 96.82 L 21.75 97.91 L 21.54 99.00 L 21.32 100.09 L 20.26 100.45 L 19.21 100.81 L 18.15 101.16 L 17.10 101.52 L 16.88 102.61 L 16.66 103.70 L 16.45 104.79 L 16.23 105.88 L 17.06 106.62 L 17.90 107.35 L 18.73 108.09 L 19.56 108.83 L 20.62 108.47 L 21.68 108.11 L 22.73 107.76 L 23.79 107.40 L 24.62 108.13 L 25.46 108.87 L 26.29 109.61 L 27.13 110.34 L 26.91 111.44 L 26.69 112.52 L 26.47 113.62 L 26.25 114.71 L 27.09 115.44 L 27.92 116.18 L 28.76 116.91 L 29.59 117.65 L 30.65 117.30 L 31.70 116.94 L 32.76 116.58 L 33.81 116.23 L 34.03 115.13 L 34.25 114.04 L 34.47 112.96 L 34.68 111.87 L 33.85 111.13 L 33.01 110.39 L 32.18 109.65 L 31.35 108.92 L 31.57 107.83 L 31.79 106.73 L 32.00 105.64 L 32.22 104.55 L 33.28 104.20 L 34.33 103.85 L 35.38 103.49 L 36.44 103.13 L 36.66 102.04 L 36.88 100.95 L 37.10 99.86 L 37.32 98.77 L 36.48 98.03 L 35.64 97.30 L 34.81 96.56 L 33.97 95.82 L 32.92 96.18 L 31.87 96.54 L 30.81 96.89 L 29.76 97.24 L 28.92 96.51 L 28.09 95.77 L 27.25 95.04 L 26.41 94.31 L 26.63 93.22 L 26.86 92.12 L 27.07 91.03 L 27.29 89.94 L 28.35 89.58 L 29.40 89.23 L 30.46 88.87 L 31.51 88.52 L 32.35 89.25 L 33.18 89.99 L 34.01 90.72 L 34.85 91.46 L 35.90 91.10 L 36.96 90.74 L 38.02 90.39 L 39.07 90.04 L 39.29 88.95 L 39.51 87.85 L 39.73 86.76 L 39.95 85.67 L 41.01 85.31 L 42.06 84.96 L 43.11 84.60 L 44.17 84.25 L 45.00 84.98 L 45.84 85.72 L 46.68 86.45 L 47.51 87.19 L 47.29 88.28 L 47.07 89.37 L 46.85 90.46 L 46.64 91.55 L 47.47 92.29 L 48.30 93.03 L 49.14 93.76 L 49.97 94.50 L 51.03 94.14 L 52.08 93.78 L 53.14 93.43 L 54.20 93.07 L 54.41 91.98 L 54.64 90.89 L 54.85 89.80 L 55.07 88.71 L 54.23 87.97 L 53.40 87.23 L 52.56 86.50 L 51.73 85.76 L 51.95 84.67 L 52.17 83.58 L 52.38 82.49 L 52.61 81.40 L 53.66 81.04 L 54.72 80.69 L 55.77 80.33 L 56.83 79.97 L 57.66 80.71 L 58.50 81.45 L 59.33 82.18 L 60.16 82.92 L 61.22 82.56 L 62.28 82.21 L 63.33 81.85 L 64.39 81.50 L 64.61 80.40 L 64.83 79.31 L 65.05 78.22 L 65.26 77.13 L 66.32 76.77 L 67.37 76.42 L 68.42 76.06 L 69.48 75.71 L 70.32 76.44 L 71.15 77.18 L 71.99 77.91 L 72.83 78.65 L 72.60 79.74 L 72.39 80.83 L 72.16 81.92 L 71.95 83.01 L 70.89 83.37 L 69.84 83.73 L 68.78 84.08 L 67.73 84.43 L 67.51 85.53 L 67.29 86.62 L 67.07 87.71 L 66.85 88.80 L 67.69 89.53 L 68.52 90.27 L 69.36 91.01 L 70.19 91.74 L 69.97 92.83 L 69.75 93.93 L 69.53 95.02 L 69.31 96.11 L 68.26 96.47 L 67.20 96.82 L 66.15 97.18 L 65.10 97.53 L 64.26 96.80 L 63.43 96.06 L 62.59 95.33 L 61.75 94.59 L 60.70 94.95 L 59.65 95.30 L 58.59 95.66 L 57.54 96.01 L 57.32 97.11 L 57.10 98.20 L 56.88 99.29 L 56.66 100.38 L 57.50 101.11 L 58.34 101.85 L 59.17 102.58 L 60.01 103.32 L 61.05 102.97 L 62.11 102.61 L 63.17 102.25 L 64.22 101.90 L 65.05 102.63 L 65.89 103.37 L 66.73 104.10 L 67.56 104.84 L 67.34 105.93 L 67.13 107.02 L 66.91 108.11 L 66.69 109.20 L 65.63 109.56 L 64.58 109.92 L 63.52 110.27 L 62.47 110.63 L 62.25 111.72 L 62.03 112.81 L 61.81 113.90 L 61.59 114.99 L 62.43 115.73 L 63.26 116.46 L 64.10 117.20 L 64.94 117.93 L 64.72 119.02 L 64.50 120.12 L 64.28 121.21 L 64.06 122.30 L 63.00 122.66 L 61.95 123.01 L 60.89 123.37 L 59.84 123.73 L 59.00 122.99 L 58.17 122.25 L 57.33 121.52 L 56.50 120.78 L 56.71 119.69 L 56.94 118.60 L 57.15 117.51 L 57.37 116.42 L 56.54 115.68 L 55.70 114.95 L 54.86 114.21 L 54.03 113.48 L 52.98 113.83 L 51.92 114.19 L 50.86 114.55 L 49.81 114.90 L 49.59 115.99 L 49.37 117.08 L 49.15 118.18 L 48.94 119.26 L 47.88 119.62 L 46.82 119.98 L 45.77 120.33 L 44.71 120.69 L 43.88 119.95 L 43.04 119.22 L 42.21 118.48 L 41.37 117.74 L 40.32 118.10 L 39.27 118.46 L 38.21 118.82 L 37.15 119.17 L 36.94 120.26 L 36.72 121.35 L 36.49 122.44 L 36.28 123.54 L 37.11 124.27 L 37.95 125.01 L 38.78 125.75 L 39.62 126.48 L 40.68 126.12 L 41.73 125.76 L 42.78 125.41 L 43.84 125.05 L 44.68 125.79 L 45.51 126.53 L 46.35 127.26 L 47.18 128.00 L 46.96 129.08 L 46.74 130.18 L 46.52 131.27 L 46.30 132.36 L 47.14 133.10 L 47.98 133.83 L 48.81 134.56 L 49.65 135.31 L 50.70 134.95 L 51.75 134.59 L 52.81 134.24 L 53.86 133.88 L 54.08 132.79 L 54.30 131.69 L 54.52 130.61 L 54.75 129.51 L 55.79 129.16 L 56.85 128.80 L 57.91 128.45 L 58.96 128.09 L 59.79 128.83 L 60.63 129.56 L 61.47 130.29 L 62.30 131.03 L 62.08 132.13 L 61.87 133.22 L 61.64 134.31 L 61.43 135.40 L 60.37 135.75 L 59.32 136.11 L 58.26 136.47 L 57.20 136.82 L 56.99 137.92 L 56.76 139.01 L 56.55 140.10 L 56.33 141.19 L 57.17 141.92 L 58.00 142.66 L 58.84 143.40 L 59.67 144.13 L 60.73 143.77 L 61.78 143.42 L 62.84 143.06 L 63.89 142.71 L 64.72 143.44 L 65.56 144.18 L 66.40 144.91 L 67.23 145.64 L 67.01 146.74 L 66.80 147.83 L 66.58 148.92 L 66.36 150.01 L 67.19 150.75 L 68.03 151.49 L 68.86 152.22 L 69.70 152.96 L 70.76 152.60 L 71.81 152.24 L 72.86 151.89 L 73.92 151.53 L 74.14 150.44 L 74.36 149.35 L 74.57 148.26 L 74.79 147.17 L 73.96 146.43 L 73.12 145.69 L 72.29 144.96 L 71.45 144.23 L 71.67 143.14 L 71.89 142.04 L 72.11 140.95 L 72.33 139.86 L 73.39 139.50 L 74.44 139.15 L 75.50 138.79 L 76.55 138.44 L 77.38 139.17 L 78.22 139.90 L 79.05 140.64 L 79.89 141.38 L 80.95 141.03 L 82.00 140.66 L 83.06 140.31 L 84.11 139.95 L 84.33 138.86 L 84.55 137.77 L 84.77 136.68 L 84.99 135.59 L 86.04 135.23 L 87.09 134.88 L 88.15 134.52 L 89.21 134.16 L 90.04 134.90 L 90.88 135.63 L 91.71 136.37 L 92.55 137.10 L 92.33 138.20 L 92.11 139.29 L 91.89 140.38 L 91.67 141.47 L 90.62 141.83 L 89.56 142.18 L 88.51 142.54 L 87.45 142.90 L 87.23 143.99 L 87.01 145.07 L 86.79 146.17 L 86.57 147.26 L 87.41 147.99 L 88.24 148.73 L 89.08 149.47 L 89.92 150.20 L 89.70 151.29 L 89.48 152.39 L 89.26 153.48 L 89.04 154.57 L 87.99 154.92 L 86.93 155.28 L 85.88 155.64 L 84.82 155.99 L 83.99 155.25 L 83.15 154.53 L 82.31 153.79 L 81.48 153.05 L 80.43 153.41 L 79.37 153.76 L 78.32 154.12 L 77.26 154.48 L 77.04 155.56 L 76.82 156.66 L 76.61 157.75 L 76.38 158.84 L 77.22 159.58 L 78.05 160.31 L 78.89 161.05 L 79.72 161.78 L 80.78 161.42 L 81.84 161.07 L 82.89 160.72 L 83.94 160.36 L 84.78 161.10 L 85.62 161.83 L 86.45 162.57 L 87.29 163.30 L 87.07 164.39 L 86.85 165.48 L 86.63 166.58 L 86.41 167.66 L 87.25 168.40 L 88.08 169.14 L 88.92 169.88 L 89.76 170.60 L 90.81 170.25 L 91.86 169.90 L 92.92 169.54 L 93.97 169.18 L 94.19 168.09 L 94.41 167.00 L 94.63 165.91 L 94.85 164.82 L 95.90 164.46 L 96.96 164.11 L 98.01 163.75 L 99.07 163.40 L 99.90 164.13 L 100.74 164.87 L 101.57 165.60 L 102.41 166.34 L 102.19 167.43 L 101.97 168.52 L 101.75 169.61 L 101.53 170.71 L 100.48 171.05 L 99.42 171.41 L 98.37 171.77 L 97.32 172.12 L 97.09 173.22 L 96.88 174.31 L 96.66 175.40 L 96.44 176.49 L 97.27 177.23 L 98.11 177.96 L 98.95 178.70 L 99.78 179.43 L 100.84 179.08 L 101.89 178.72 L 102.95 178.36 L 104.00 178.01 L 104.83 178.75 L 105.67 179.48 L 106.50 180.21 L 107.34 180.95 L 107.12 182.04 L 106.90 183.14 L 106.69 184.23 L 106.46 185.32 L 107.30 186.06 L 108.14 186.78 L 108.97 187.53 L 109.81 188.26 L 110.86 187.90 L 111.92 187.55 L 112.97 187.20 L 114.02 186.83 L 114.24 185.75 L 114.46 184.65 L 114.68 183.56 L 114.91 182.47 L 114.06 181.73 L 113.23 181.00 L 112.39 180.26 L 111.56 179.53 L 111.78 178.44 L 112.00 177.35 L 112.22 176.26 L 112.44 175.16 L 113.49 174.81 L 114.55 174.45 L 115.60 174.09 L 116.65 173.74 L 116.87 172.65 L 117.09 171.55 L 117.31 170.46 L 117.53 169.37 L 116.70 168.64 L 115.86 167.90 L 115.03 167.16 L 114.19 166.43 L 113.14 166.79 L 112.08 167.14 L 111.02 167.50 L 109.97 167.85 L 109.14 167.11 L 108.30 166.38 L 107.46 165.65 L 106.63 164.91 L 106.85 163.82 L 107.07 162.73 L 107.29 161.63 L 107.50 160.55 L 108.56 160.19 L 109.61 159.84 L 110.67 159.48 L 111.73 159.12 L 112.56 159.86 L 113.40 160.59 L 114.23 161.33 L 115.06 162.06 L 116.12 161.71 L 117.18 161.35 L 118.23 161.00 L 119.29 160.65 L 119.50 159.55 L 119.72 158.46 L 119.94 157.36 L 120.16 156.28 L 119.33 155.54 L 118.49 154.81 L 117.66 154.07 L 116.82 153.34 L 117.04 152.24 L 117.26 151.15 L 117.48 150.06 L 117.70 148.97 L 118.75 148.61 L 119.81 148.26 L 120.86 147.90 L 121.91 147.55 L 122.14 146.46 L 122.36 145.36 L 122.57 144.28 L 122.79 143.18 L 121.96 142.45 L 121.12 141.71 L 120.29 140.97 L 119.45 140.24 L 118.40 140.59 L 117.34 140.95 L 116.29 141.30 L 115.23 141.66 L 115.01 142.76 L 114.79 143.84 L 114.57 144.94 L 114.35 146.03 L 113.30 146.38 L 112.25 146.74 L 111.19 147.09 L 110.13 147.45 L 109.30 146.71 L 108.47 145.98 L 107.63 145.24 L 106.80 144.51 L 107.01 143.42 L 107.23 142.33 L 107.45 141.24 L 107.67 140.14 L 106.83 139.41 L 106.00 138.67 L 105.16 137.94 L 104.33 137.20 L 103.27 137.56 L 102.22 137.92 L 101.16 138.27 L 100.11 138.63 L 99.27 137.89 L 98.44 137.16 L 97.60 136.42 L 96.77 135.68 L 96.99 134.59 L 97.21 133.50 L 97.42 132.41 L 97.64 131.32 L 98.70 130.96 L 99.75 130.61 L 100.81 130.25 L 101.86 129.89 L 102.70 130.63 L 103.53 131.36 L 104.37 132.10 L 105.20 132.84 L 106.26 132.48 L 107.32 132.13 L 108.37 131.77 L 109.43 131.41 L 109.64 130.32 L 109.86 129.23 L 110.08 128.14 L 110.30 127.05 L 111.35 126.69 L 112.41 126.34 L 113.46 125.98 L 114.52 125.62 L 115.35 126.35 L 116.19 127.09 L 117.02 127.83 L 117.86 128.56 L 117.64 129.66 L 117.42 130.75 L 117.20 131.84 L 116.99 132.93 L 117.82 133.66 L 118.65 134.40 L 119.49 135.14 L 120.32 135.87 L 121.38 135.51 L 122.44 135.16 L 123.49 134.81 L 124.55 134.45 L 124.76 133.36 L 124.98 132.26 L 125.20 131.17 L 125.42 130.08 L 124.59 129.35 L 123.75 128.61 L 122.92 127.88 L 122.08 127.14 L 122.30 126.05 L 122.52 124.96 L 122.74 123.87 L 122.95 122.78 L 124.01 122.42 L 125.07 122.07 L 126.12 121.71 L 127.17 121.35 L 127.40 120.26 L 127.61 119.17 L 127.83 118.08 L 128.05 116.99 L 127.22 116.25 L 126.38 115.52 L 125.54 114.78 L 124.71 114.05 L 123.65 114.40 L 122.60 114.76 L 121.54 115.11 L 120.49 115.47 L 119.65 114.73 L 118.82 114.00 L 117.99 113.26 L 117.15 112.53 L 117.37 111.44 L 117.59 110.34 L 117.81 109.25 L 118.03 108.16 L 119.08 107.81 L 120.14 107.45 L 121.19 107.10 L 122.25 106.74 L 123.08 107.48 L 123.92 108.21 L 124.75 108.94 L 125.59 109.68 L 126.64 109.32 L 127.70 108.97 L 128.75 108.61 L 129.81 108.26 L 130.03 107.17 L 130.25 106.07 L 130.47 104.98 L 130.69 103.89 L 129.85 103.15 L 129.01 102.42 L 128.17 101.68 L 127.34 100.95 L 127.56 99.86 L 127.78 98.77 L 128.00 97.68 L 128.22 96.58 L 129.27 96.23 L 130.33 95.87 L 131.38 95.52 L 132.44 95.16 L 132.66 94.07 L 132.87 92.98 L 133.09 91.89 L 133.31 90.79 L 132.48 90.06 L 131.65 89.32 L 130.81 88.59 L 129.97 87.85 L 128.92 88.21 L 127.86 88.56 L 126.81 88.92 L 125.76 89.27 L 125.53 90.37 L 125.31 91.46 L 125.10 92.55 L 124.88 93.64 L 123.82 94.00 L 122.76 94.35 L 121.71 94.71 L 120.66 95.06 L 119.82 94.33 L 118.98 93.60 L 118.15 92.86 L 117.32 92.12 L 116.26 92.48 L 115.21 92.83 L 114.15 93.19 L 113.09 93.55 L 112.88 94.64 L 112.66 95.73 L 112.43 96.82 L 112.22 97.91 L 113.05 98.65 L 113.89 99.38 L 114.72 100.12 L 115.56 100.85 L 115.34 101.95 L 115.12 103.04 L 114.90 104.13 L 114.69 105.22 L 113.63 105.57 L 112.58 105.93 L 111.52 106.29 L 110.46 106.64 L 109.63 105.91 L 108.80 105.17 L 107.96 104.44 L 107.12 103.70 L 107.34 102.61 L 107.56 101.52 L 107.78 100.43 L 108.00 99.34 L 107.16 98.60 L 106.33 97.87 L 105.50 97.13 L 104.65 96.40 L 103.60 96.75 L 102.55 97.11 L 101.49 97.46 L 100.44 97.82 L 99.60 97.08 L 98.77 96.35 L 97.93 95.61 L 97.10 94.88 L 97.32 93.79 L 97.53 92.69 L 97.75 91.60 L 97.97 90.51 L 99.03 90.16 L 100.08 89.79 L 101.14 89.44 L 102.19 89.08 L 102.41 87.99 L 102.63 86.91 L 102.85 85.81 L 103.07 84.72 L 102.23 83.98 L 101.40 83.25 L 100.56 82.51 L 99.73 81.78 L 98.67 82.13 L 97.62 82.49 L 96.56 82.85 L 95.51 83.20 L 95.29 84.29 L 95.07 85.38 L 94.85 86.48 L 94.63 87.57 L 93.57 87.92 L 92.52 88.28 L 91.47 88.64 L 90.41 88.99 L 89.57 88.25 L 88.74 87.52 L 87.90 86.78 L 87.07 86.05 L 87.29 84.96 L 87.51 83.87 L 87.73 82.78 L 87.95 81.69 L 87.11 80.95 L 86.27 80.21 L 85.44 79.48 L 84.61 78.74 L 83.55 79.09 L 82.50 79.45 L 81.44 79.81 L 80.38 80.16 L 79.55 79.43 L 78.72 78.70 L 77.88 77.96 L 77.04 77.22 L 77.26 76.13 L 77.48 75.04 L 77.70 73.95 L 77.92 72.86 L 78.97 72.50 L 80.03 72.15 L 81.08 71.79 L 82.14 71.44 L 82.97 72.17 L 83.81 72.91 L 84.65 73.65 L 85.48 74.38 L 86.54 74.02 L 87.59 73.66 L 88.65 73.31 L 89.70 72.95 L 89.92 71.86 L 90.14 70.77 L 90.36 69.68 L 90.58 68.59 L 91.63 68.23 L 92.68 67.87 L 93.74 67.52 L 94.79 67.16 L 95.63 67.90 L 96.47 68.64 L 97.30 69.37 L 98.14 70.11 L 97.92 71.19 L 97.70 72.29 L 97.48 73.38 L 97.26 74.47 L 98.10 75.21 L 98.93 75.94 L 99.77 76.68 L 100.60 77.41 L 101.66 77.06 L 102.71 76.70 L 103.77 76.35 L 104.82 75.99 L 105.04 74.90 L 105.26 73.81 L 105.48 72.72 L 105.70 71.62 L 104.86 70.89 L 104.03 70.16 L 103.19 69.42 L 102.36 68.68 L 102.57 67.59 L 102.79 66.50 L 103.01 65.41 L 103.23 64.32 L 104.29 63.96 L 105.34 63.61 L 106.40 63.25 L 107.45 62.90 L 108.29 63.63 L 109.12 64.37 L 109.96 65.10 L 110.79 65.84 L 111.85 65.48 L 112.90 65.12 L 113.96 64.77 L 115.01 64.41 L 115.23 63.32 L 115.45 62.23 L 115.67 61.14 L 115.89 60.05 L 116.94 59.69 L 118.00 59.34 L 119.06 58.98 L 120.11 58.62 L 120.95 59.36 L 121.78 60.10 L 122.62 60.83 L 123.45 61.56 L 123.23 62.65 L 123.01 63.75 L 122.80 64.84 L 122.57 65.93 L 121.52 66.29 L 120.46 66.64 L 119.41 67.00 L 118.35 67.36 L 118.14 68.45 L 117.92 69.54 L 117.70 70.63 L 117.48 71.72 L 118.31 72.46 L 119.15 73.19 L 119.98 73.93 L 120.82 74.66 L 121.87 74.31 L 122.93 73.95 L 123.99 73.59 L 125.04 73.24 L 125.88 73.97 L 126.71 74.71 L 127.55 75.45 L 128.38 76.18 L 128.16 77.27 L 127.94 78.36 L 127.72 79.45 L 127.50 80.55 L 128.34 81.28 L 129.17 82.02 L 130.01 82.75 L 130.85 83.49 L 131.90 83.13 L 132.96 82.77 L 134.01 82.42 L 135.06 82.07 L 135.28 80.98 L 135.50 79.88 L 135.72 78.79 L 135.94 77.70 L 135.11 76.96 L 134.27 76.23 L 133.43 75.49 L 132.60 74.76 L 132.82 73.66 L 133.04 72.57 L 133.26 71.48 L 133.48 70.39 L 134.53 70.04 L 135.59 69.68 L 136.64 69.32 L 137.70 68.97 L 137.92 67.87 L 138.14 66.79 L 138.36 65.69 L 138.57 64.60 L 137.74 63.87 L 136.90 63.13 L 136.06 62.40 L 135.23 61.66 L 134.17 62.02 L 133.12 62.37 L 132.07 62.73 L 131.01 63.08 L 130.17 62.35 L 129.34 61.61 L 128.50 60.88 L 127.67 60.14 L 127.89 59.05 L 128.11 57.96 L 128.33 56.86 L 128.55 55.77 L 129.60 55.42 L 130.66 55.06 L 131.71 54.71 L 132.76 54.36 L 133.60 55.09 L 134.44 55.82 L 135.27 56.56 L 136.11 57.29 L 137.16 56.94 L 138.22 56.58 L 139.27 56.23 L 140.32 55.87" 
          fill="none" 
          stroke="currentColor" 
          stroke-width="0.5"/>
</svg>