<?xml version="1.0" encoding="UTF-8" standalone="no"?>
<svg width="100%" height="100%" viewBox="0 0 200 200" preserveAspectRatio="xMidYMid meet" xmlns="http://www.w3.org/2000/svg">
    <path d="M 10.00 100.00 L 10.72 100.00 L 11.44 100.00 L 12.16 100.00 L 12.88 100.00 L 13.60 100.00 L 14.32 100.00 L 15.04 100.00 L 15.76 100.00 L 16.48 100.00 L 17.20 100.00 L 17.92 100.00 L 18.64 100.00 L 19.36 100.00 L 20.08 100.00 L 20.80 100.00 L 21.52 100.00 L 22.24 100.00 L 22.96 100.00 L 23.68 100.00 L 24.40 100.00 L 25.12 100.00 L 25.84 100.00 L 26.56 100.00 L 26.63 100.00 L 27.11 100.53 L 27.16 100.56 L 27.75 100.96 L 27.91 101.03 L 28.58 101.32 L 28.58 101.32 L 28.90 101.41 L 29.59 101.60 L 30.09 101.72 L 30.51 101.83 L 30.83 101.94 L 31.07 102.05 L 31.37 102.31 L 31.78 102.82 L 31.68 102.47 L 31.38 102.21 L 31.14 102.10 L 30.81 101.99 L 30.40 101.87 L 29.90 101.75 L 29.21 101.56 L 28.88 101.48 L 28.22 101.19 L 28.22 101.19 L 28.06 101.12 L 27.47 100.72 L 27.42 100.69 L 26.94 100.16 L 26.66 99.54 L 26.57 98.83 L 26.63 98.21 L 26.83 97.65 L 27.16 97.14 L 27.63 96.70 L 28.21 96.32 L 28.86 96.04 L 29.57 95.88 L 29.61 95.87 L 30.32 95.82 L 30.43 95.81 L 31.15 95.85 L 31.33 95.86 L 32.04 95.99 L 32.14 96.01 L 32.82 96.26 L 32.85 96.28 L 33.46 96.65 L 33.97 97.09 L 34.33 97.61 L 34.55 98.21 L 34.63 98.87 L 33.91 98.88 L 33.19 98.88 L 32.47 98.89 L 31.75 98.90 L 31.68 98.90 L 31.60 98.39 L 31.37 98.03 L 30.98 97.82 L 30.44 97.75 L 30.02 97.82 L 29.69 98.01 L 29.45 98.32 L 29.37 98.66 L 29.47 99.02 L 29.74 99.31 L 29.97 99.43 L 30.25 99.53 L 30.60 99.62 L 31.00 99.69 L 31.70 99.86 L 31.79 99.88 L 32.48 100.08 L 32.48 100.08 L 32.99 100.27 L 33.43 100.50 L 33.80 100.77 L 34.11 101.08 L 34.35 101.43 L 34.52 101.81 L 34.62 102.23 L 34.66 102.69 L 34.60 103.31 L 34.38 103.87 L 34.03 104.37 L 33.53 104.82 L 32.91 105.19 L 32.24 105.44 L 32.20 105.45 L 31.50 105.60 L 31.40 105.61 L 30.68 105.66 L 30.68 105.66 L 30.51 105.67 L 29.93 105.65 L 29.38 105.58 L 28.85 105.44 L 28.35 105.26 L 27.89 105.01 L 27.48 104.73 L 27.13 104.41 L 26.82 104.05 L 26.60 103.67 L 26.44 103.28 L 26.34 102.88 L 26.31 102.47 L 27.03 102.46 L 27.75 102.46 L 28.47 102.45 L 29.04 102.45 L 29.09 102.76 L 29.18 103.03 L 29.33 103.25 L 29.52 103.41 L 29.99 103.63 L 30.60 103.69 L 31.13 103.63 L 31.50 103.47 L 31.71 103.18 L 31.78 102.82 L 31.71 103.18 L 31.50 103.47 L 31.13 103.63 L 30.60 103.69 L 29.99 103.63 L 29.52 103.41 L 29.33 103.25 L 29.18 103.03 L 29.09 102.76 L 29.04 102.45 L 28.47 102.45 L 27.75 102.46 L 27.03 102.46 L 26.31 102.47 L 26.34 102.88 L 26.44 103.28 L 26.60 103.67 L 26.82 104.05 L 27.13 104.41 L 27.48 104.73 L 27.89 105.01 L 28.35 105.26 L 28.85 105.44 L 29.38 105.58 L 29.93 105.65 L 30.51 105.67 L 30.68 105.66 L 31.40 105.61 L 31.40 105.61 L 31.50 105.60 L 32.20 105.45 L 32.24 105.44 L 32.91 105.19 L 33.53 104.82 L 34.03 104.37 L 34.38 103.87 L 34.60 103.31 L 34.66 102.69 L 35.38 102.76 L 35.60 102.79 L 35.66 102.07 L 35.66 102.06 L 35.88 101.43 L 36.23 100.89 L 36.73 100.44 L 37.36 100.09 L 37.37 100.09 L 38.05 99.86 L 38.13 99.83 L 38.84 99.71 L 38.84 99.71 L 39.02 99.68 L 39.74 99.64 L 39.74 99.64 L 40.04 99.62 L 40.76 99.61 L 40.97 99.61 L 40.97 99.11 L 40.89 98.52 L 40.67 98.11 L 40.31 97.86 L 39.81 97.78 L 39.35 97.85 L 39.02 98.05 L 38.83 98.38 L 38.77 98.84 L 38.05 98.84 L 37.33 98.85 L 36.61 98.86 L 35.89 98.86 L 35.78 98.86 L 35.85 98.21 L 36.07 97.62 L 36.44 97.09 L 36.95 96.62 L 37.57 96.25 L 37.57 96.25 L 37.58 96.24 L 38.25 95.97 L 38.25 95.97 L 38.29 95.96 L 38.99 95.81 L 38.99 95.81 L 39.07 95.79 L 39.79 95.74 L 39.93 95.73 L 40.65 95.77 L 40.65 95.77 L 40.80 95.78 L 41.51 95.93 L 41.57 95.94 L 42.24 96.22 L 42.24 96.22 L 42.82 96.61 L 43.28 97.08 L 43.62 97.64 L 43.83 98.28 L 43.92 98.99 L 43.92 98.99 L 43.92 99.01 L 43.93 99.73 L 43.93 100.45 L 43.94 101.17 L 43.94 101.89 L 43.95 102.61 L 43.96 103.22 L 44.00 103.85 L 44.08 104.39 L 44.20 104.85 L 44.37 105.23 L 44.37 105.38 L 43.65 105.38 L 42.93 105.39 L 42.21 105.40 L 41.49 105.40 L 41.42 105.40 L 41.27 105.04 L 41.12 104.54 L 40.67 105.00 L 40.15 105.33 L 39.54 105.53 L 38.86 105.60 L 38.21 105.56 L 37.60 105.41 L 37.05 105.15 L 36.55 104.80 L 36.14 104.38 L 35.84 103.90 L 35.66 103.37 L 35.60 102.79 L 35.66 102.07 L 35.66 102.06 L 35.88 101.43 L 36.23 100.89 L 36.73 100.44 L 37.36 100.09 L 37.37 100.09 L 38.05 99.86 L 38.19 100.56 L 38.33 101.27 L 38.47 101.98 L 38.59 102.58 L 38.65 102.94 L 38.84 103.23 L 39.16 103.41 L 39.53 103.47 L 40.05 103.42 L 40.46 103.25 L 40.78 102.99 L 41.00 102.71 L 40.99 101.99 L 40.99 101.27 L 40.99 101.27 L 40.99 101.19 L 40.27 101.20 L 40.12 101.20 L 39.76 101.23 L 39.45 101.29 L 39.18 101.40 L 38.96 101.55 L 38.80 101.75 L 38.68 101.98 L 38.61 102.26 L 38.59 102.58 L 38.45 101.88 L 38.31 101.17 L 38.17 100.46 L 38.05 99.86 L 37.37 100.09 L 37.36 100.09 L 36.73 100.44 L 36.23 100.89 L 35.88 101.43 L 35.66 102.06 L 35.66 102.07 L 35.60 102.79 L 35.66 103.37 L 35.84 103.90 L 36.14 104.38 L 36.55 104.80 L 37.05 105.15 L 37.60 105.41 L 38.21 105.56 L 38.86 105.60 L 39.54 105.53 L 40.15 105.33 L 40.67 105.00 L 41.12 104.54 L 41.27 105.04 L 41.42 105.40 L 41.49 105.40 L 42.21 105.40 L 42.93 105.39 L 43.65 105.38 L 44.37 105.38 L 44.37 105.23 L 44.20 104.85 L 44.08 104.39 L 44.00 103.85 L 43.96 103.22 L 43.95 102.61 L 43.94 101.89 L 43.94 101.17 L 43.93 100.45 L 43.93 99.73 L 44.64 99.68 L 45.36 99.62 L 45.51 99.61 L 45.50 98.89 L 45.50 98.17 L 45.49 97.45 L 45.49 96.73 L 45.48 96.01 L 45.48 95.86 L 46.20 95.86 L 46.92 95.85 L 47.64 95.85 L 48.25 95.84 L 48.32 96.56 L 48.32 96.56 L 48.37 96.96 L 48.86 96.43 L 48.90 96.38 L 49.50 95.99 L 49.50 95.99 L 49.52 95.97 L 50.20 95.74 L 50.20 95.74 L 50.24 95.73 L 50.96 95.65 L 51.06 95.64 L 51.76 95.69 L 52.37 95.85 L 52.88 96.13 L 53.30 96.52 L 53.62 97.01 L 53.85 97.61 L 54.00 98.32 L 54.01 98.34 L 54.06 99.05 L 54.06 99.05 L 54.07 99.18 L 54.08 99.90 L 54.09 100.62 L 54.09 101.34 L 54.10 102.06 L 54.10 102.06 L 54.10 102.78 L 54.11 103.50 L 54.12 104.22 L 54.12 104.94 L 54.12 105.30 L 53.40 105.30 L 53.40 105.30 L 52.68 105.31 L 51.96 105.31 L 51.24 105.32 L 51.14 105.32 L 51.13 104.60 L 51.12 103.88 L 51.12 103.16 L 51.11 102.44 L 51.11 101.72 L 51.11 101.72 L 51.10 101.00 L 51.09 100.28 L 51.09 99.56 L 51.09 99.31 L 51.07 98.98 L 51.01 98.69 L 50.92 98.45 L 50.79 98.27 L 50.62 98.11 L 50.38 98.00 L 50.09 97.94 L 49.74 97.92 L 49.34 97.96 L 48.99 98.09 L 48.69 98.31 L 48.45 98.61 L 48.46 99.33 L 48.46 100.05 L 48.47 100.77 L 48.48 101.49 L 48.48 102.21 L 48.49 102.93 L 48.49 103.65 L 48.50 104.37 L 48.51 105.09 L 48.51 105.34 L 47.79 105.35 L 47.07 105.36 L 46.35 105.36 L 45.63 105.37 L 45.56 105.37 L 45.55 104.65 L 45.54 103.93 L 45.54 103.21 L 45.53 102.49 L 45.53 101.77 L 45.53 101.77 L 45.52 101.05 L 45.51 100.33 L 45.51 99.61 L 45.50 98.89 L 45.50 98.17 L 45.49 97.45 L 45.49 96.73 L 45.48 96.01 L 45.48 95.86 L 46.20 95.86 L 46.92 95.85 L 47.64 95.85 L 48.25 95.84 L 48.32 96.56 L 48.32 96.56 L 48.37 96.96 L 48.86 96.43 L 48.90 96.38 L 49.50 95.99 L 49.50 95.99 L 49.52 95.97 L 50.20 95.74 L 50.20 95.74 L 50.24 95.73 L 50.96 95.65 L 51.06 95.64 L 51.76 95.69 L 52.37 95.85 L 52.88 96.13 L 53.30 96.52 L 53.62 97.01 L 53.85 97.61 L 54.00 98.32 L 54.01 98.34 L 54.06 99.05 L 54.06 99.05 L 54.07 99.18 L 54.08 99.90 L 54.79 99.81 L 55.38 99.74 L 55.40 99.39 L 55.53 98.68 L 55.53 98.68 L 55.57 98.44 L 55.81 97.76 L 55.87 97.60 L 56.23 96.98 L 56.23 96.98 L 56.29 96.89 L 56.78 96.36 L 56.82 96.32 L 57.42 95.93 L 57.42 95.93 L 57.45 95.91 L 58.13 95.68 L 58.13 95.68 L 58.18 95.66 L 58.90 95.58 L 59.01 95.57 L 59.62 95.63 L 60.18 95.81 L 60.70 96.12 L 61.18 96.56 L 61.17 95.84 L 61.17 95.12 L 61.16 94.40 L 61.16 93.68 L 61.15 92.96 L 61.14 92.24 L 61.14 91.74 L 61.86 91.73 L 62.58 91.73 L 63.30 91.72 L 64.02 91.71 L 64.09 91.71 L 64.10 92.43 L 64.10 93.15 L 64.11 93.87 L 64.12 94.59 L 64.12 94.59 L 64.12 95.31 L 64.13 96.03 L 64.13 96.75 L 64.14 97.47 L 64.15 98.19 L 64.15 98.91 L 64.16 99.63 L 64.16 100.35 L 64.17 101.07 L 64.18 101.79 L 64.18 101.79 L 64.18 102.51 L 64.19 103.23 L 64.19 103.95 L 64.20 104.67 L 64.20 105.21 L 63.48 105.22 L 62.76 105.22 L 62.04 105.23 L 61.54 105.24 L 61.43 104.52 L 61.43 104.52 L 61.39 104.23 L 60.91 104.75 L 60.36 105.13 L 59.74 105.36 L 59.06 105.44 L 58.34 105.37 L 58.34 105.37 L 58.26 105.36 L 57.57 105.13 L 57.57 105.13 L 57.54 105.12 L 56.94 104.74 L 56.94 104.74 L 56.92 104.72 L 56.42 104.20 L 56.42 104.20 L 56.38 104.16 L 56.00 103.55 L 55.94 103.45 L 55.68 102.77 L 55.61 102.59 L 55.47 101.89 L 55.47 101.89 L 55.42 101.60 L 55.37 100.88 L 55.37 100.88 L 55.34 100.46 L 55.38 99.74 L 55.38 99.74 L 56.09 99.82 L 56.81 99.91 L 57.53 99.99 L 58.24 100.07 L 58.33 100.08 L 58.30 100.62 L 58.33 101.21 L 58.40 101.72 L 58.52 102.15 L 58.68 102.50 L 58.89 102.78 L 59.15 102.97 L 59.45 103.09 L 59.79 103.13 L 60.26 103.07 L 60.66 102.91 L 60.98 102.65 L 61.23 102.29 L 61.22 101.57 L 61.22 100.85 L 61.21 100.13 L 61.20 99.41 L 61.20 98.69 L 60.95 98.31 L 60.63 98.04 L 60.24 97.88 L 59.79 97.83 L 59.46 97.87 L 59.18 97.98 L 58.94 98.15 L 58.74 98.40 L 58.58 98.72 L 58.45 99.10 L 58.37 99.55 L 58.33 100.08 L 57.61 100.00 L 56.90 99.92 L 56.18 99.83 L 55.47 99.75 L 55.38 99.74 L 55.34 100.46 L 55.34 100.46 L 55.37 100.88 L 55.42 101.60 L 55.42 101.60 L 55.47 101.89 L 55.61 102.59 L 55.61 102.59 L 55.68 102.77 L 55.94 103.45 L 56.00 103.55 L 56.38 104.16 L 56.42 104.20 L 56.92 104.72 L 56.92 104.72 L 56.94 104.74 L 57.54 105.12 L 57.54 105.12 L 57.57 105.13 L 58.26 105.36 L 58.26 105.36 L 58.34 105.37 L 59.06 105.44 L 59.06 105.44 L 59.74 105.36 L 60.36 105.13 L 60.91 104.75 L 61.39 104.23 L 61.43 104.52 L 61.54 105.23 L 61.54 105.24 L 62.04 105.23 L 62.76 105.22 L 63.48 105.22 L 64.20 105.21 L 64.20 104.67 L 64.19 103.95 L 64.19 103.23 L 64.18 102.51 L 64.18 101.79 L 64.17 101.07 L 64.17 101.07 L 64.16 100.35 L 64.16 99.63 L 64.87 99.56 L 65.59 99.48 L 65.99 99.44 L 65.99 98.72 L 65.98 98.00 L 65.97 97.28 L 65.97 96.56 L 65.96 95.84 L 65.96 95.69 L 66.68 95.69 L 67.40 95.68 L 68.12 95.68 L 68.84 95.67 L 68.95 95.67 L 68.96 96.39 L 68.96 97.11 L 68.97 97.83 L 68.97 98.55 L 68.98 99.27 L 68.99 99.99 L 68.99 100.71 L 69.00 101.43 L 69.00 102.15 L 69.01 102.87 L 69.01 103.59 L 69.02 104.31 L 69.03 105.03 L 69.03 105.17 L 68.31 105.18 L 67.59 105.18 L 66.87 105.19 L 66.15 105.20 L 66.04 105.20 L 66.03 104.48 L 66.03 103.76 L 66.02 103.04 L 66.02 102.32 L 66.01 101.60 L 66.01 101.60 L 66.00 100.88 L 66.00 100.16 L 65.99 99.44 L 65.99 98.72 L 65.98 98.00 L 65.97 97.28 L 65.97 96.56 L 65.96 95.84 L 65.96 95.69 L 66.68 95.69 L 67.40 95.68 L 67.19 94.99 L 67.08 94.65 L 66.77 94.58 L 66.49 94.46 L 66.24 94.29 L 66.03 94.06 L 65.88 93.81 L 65.79 93.54 L 65.76 93.25 L 65.79 92.94 L 65.87 92.66 L 66.02 92.42 L 66.22 92.20 L 66.47 92.02 L 66.75 91.90 L 67.06 91.82 L 67.40 91.79 L 67.75 91.82 L 68.06 91.89 L 68.34 92.01 L 68.60 92.18 L 68.79 92.39 L 68.92 92.64 L 69.01 92.91 L 69.04 93.22 L 69.01 93.52 L 68.93 93.79 L 68.80 94.04 L 68.61 94.27 L 68.36 94.44 L 68.08 94.57 L 67.77 94.65 L 67.43 94.67 L 67.08 94.65 L 67.30 95.34 L 67.40 95.68 L 68.12 95.68 L 68.84 95.67 L 68.95 95.67 L 69.67 95.66 L 70.03 95.66 L 70.75 95.65 L 71.40 95.65 L 71.39 94.93 L 71.39 94.89 L 71.44 94.17 L 71.44 94.17 L 71.44 94.13 L 71.62 93.45 L 71.92 92.86 L 72.34 92.36 L 72.87 91.97 L 73.50 91.68 L 74.20 91.51 L 74.20 91.51 L 74.22 91.50 L 74.93 91.45 L 74.94 91.45 L 75.03 91.44 L 75.68 91.48 L 76.39 91.61 L 76.39 91.61 L 76.40 91.61 L 76.42 92.33 L 76.42 92.33 L 76.44 93.05 L 76.46 93.77 L 76.46 93.77 L 76.46 93.81 L 76.12 93.73 L 75.70 93.70 L 75.12 93.78 L 74.70 94.01 L 74.46 94.38 L 74.38 94.90 L 74.38 95.62 L 75.10 95.62 L 75.82 95.61 L 76.22 95.61 L 76.23 96.33 L 76.23 97.05 L 76.24 97.66 L 75.52 97.67 L 74.80 97.67 L 74.40 97.68 L 74.41 98.40 L 74.41 99.12 L 74.42 99.84 L 74.43 100.56 L 74.43 101.28 L 74.44 102.00 L 74.44 102.72 L 74.45 103.44 L 74.46 104.16 L 74.46 104.88 L 74.46 105.13 L 73.74 105.13 L 73.02 105.14 L 72.30 105.15 L 71.58 105.15 L 71.48 105.15 L 71.47 104.43 L 71.46 103.71 L 71.46 102.99 L 71.45 102.27 L 71.45 101.55 L 71.45 101.55 L 71.44 100.83 L 71.43 100.11 L 71.43 99.39 L 71.42 98.67 L 71.42 97.95 L 71.41 97.70 L 70.69 97.71 L 70.05 97.71 L 70.04 96.99 L 70.04 96.99 L 70.03 96.27 L 70.03 95.66 L 70.75 95.65 L 71.40 95.65 L 71.39 94.93 L 71.39 94.89 L 71.44 94.17 L 71.44 94.17 L 71.44 94.13 L 71.62 93.45 L 71.92 92.86 L 72.34 92.36 L 72.87 91.97 L 73.50 91.68 L 74.20 91.51 L 74.20 91.51 L 74.22 91.50 L 74.93 91.45 L 74.94 91.45 L 75.03 91.44 L 75.68 91.48 L 76.39 91.61 L 76.39 91.61 L 76.40 91.61 L 76.42 92.33 L 76.42 92.33 L 76.44 93.05 L 76.46 93.77 L 76.46 93.77 L 76.46 93.81 L 76.12 93.73 L 75.70 93.70 L 75.12 93.78 L 74.70 94.01 L 74.46 94.38 L 74.38 94.90 L 74.38 95.62 L 75.10 95.62 L 75.82 95.61 L 76.22 95.61 L 76.40 95.61 L 77.12 95.60 L 77.84 95.59 L 78.56 95.59 L 79.28 95.58 L 79.57 95.58 L 79.77 96.27 L 79.77 96.27 L 79.97 96.96 L 80.17 97.65 L 80.17 97.65 L 80.37 98.35 L 80.57 99.04 L 80.57 99.04 L 80.78 99.73 L 80.78 99.73 L 80.98 100.42 L 81.12 100.93 L 81.32 100.24 L 81.52 99.55 L 81.52 99.55 L 81.72 98.86 L 81.92 98.16 L 81.92 98.16 L 82.12 97.47 L 82.12 97.47 L 82.31 96.78 L 82.31 96.78 L 82.51 96.09 L 82.66 95.55 L 83.38 95.55 L 84.10 95.54 L 84.82 95.54 L 85.54 95.53 L 85.83 95.53 L 85.60 96.21 L 85.37 96.89 L 85.37 96.89 L 85.13 97.57 L 84.90 98.25 L 84.67 98.93 L 84.67 98.94 L 84.44 99.62 L 84.20 100.30 L 83.97 100.98 L 83.97 100.98 L 83.74 101.66 L 83.51 102.34 L 83.27 103.02 L 83.27 103.02 L 83.04 103.70 L 82.81 104.39 L 82.58 105.07 L 82.58 105.07 L 82.34 105.75 L 82.11 106.43 L 82.04 106.65 L 81.90 107.05 L 81.67 107.49 L 81.41 107.87 L 81.11 108.19 L 80.76 108.46 L 80.38 108.67 L 79.96 108.82 L 79.50 108.91 L 79.00 108.94 L 78.40 108.90 L 77.77 108.77 L 77.76 108.05 L 77.76 107.33 L 77.75 106.65 L 78.15 106.64 L 78.69 106.60 L 79.08 106.46 L 79.37 106.20 L 79.58 105.80 L 79.79 105.15 L 79.55 104.48 L 79.31 103.80 L 79.07 103.12 L 78.83 102.44 L 78.83 102.44 L 78.59 101.76 L 78.35 101.08 L 78.10 100.41 L 77.86 99.73 L 77.62 99.05 L 77.38 98.37 L 77.14 97.69 L 77.14 97.69 L 76.90 97.01 L 76.66 96.33 L 76.42 95.66 L 76.40 95.61 L 77.12 95.62 L 77.84 95.63 L 78.56 95.64 L 79.28 95.65 L 79.69 95.65 L 79.90 96.34 L 79.90 96.34 L 80.10 97.03 L 80.30 97.73 L 80.30 97.73 L 80.50 98.42 L 80.70 99.11 L 80.70 99.11 L 80.90 99.80 L 80.90 99.80 L 81.10 100.49 L 81.25 101.00 L 81.45 100.31 L 81.65 99.62 L 81.65 99.62 L 81.85 98.93 L 82.04 98.23 L 82.04 98.23 L 82.24 97.54 L 82.24 97.54 L 82.44 96.85 L 82.44 96.85 L 82.64 96.16 L 82.79 95.63 L 83.51 95.62 L 84.23 95.61 L 84.95 95.61 L 85.67 95.60 L 85.96 95.60 L 85.73 96.28 L 85.49 96.96 L 85.49 96.96 L 85.26 97.64 L 85.03 98.32 L 84.80 99.01 L 84.80 99.01 L 84.56 99.69 L 84.33 100.37 L 83.80 100.14 L 84.16 100.13 L 84.88 100.13 L 85.60 100.12 L 86.32 100.11 L 87.04 100.11 L 87.76 100.10 L 88.48 100.10 L 89.20 100.09 L 89.92 100.08 L 90.64 100.08 L 91.36 100.07 L 92.08 100.07 L 92.80 100.06 L 93.52 100.05 L 94.24 100.05 L 94.96 100.04 L 95.68 100.04 L 96.40 100.03 L 97.12 100.02 L 97.84 100.02 L 98.56 100.01 L 99.28 100.01 L 100.00 100.00" 
          fill="none" 
          stroke="currentColor" 
          stroke-width="0.5"/>
</svg>