<?xml version="1.0" encoding="UTF-8" standalone="no"?>
<svg width="100%" height="100%" viewBox="0 0 200 200" preserveAspectRatio="xMidYMid meet" xmlns="http://www.w3.org/2000/svg">
    <path d="M 10.00 100.00 L 10.04 98.20 L 10.09 96.40 L 10.11 95.58 L 10.24 93.79 L 10.37 91.99 L 10.43 91.18 L 10.65 89.39 L 10.87 87.61 L 10.97 86.79 L 11.28 85.02 L 11.59 83.25 L 11.73 82.44 L 12.43 80.79 L 12.94 79.60 L 12.90 81.40 L 12.87 83.20 L 12.85 84.39 L 11.37 84.36 L 11.10 86.14 L 10.83 87.92 L 10.71 88.73 L 10.53 90.52 L 10.35 92.31 L 10.26 93.12 L 10.15 94.92 L 10.09 95.88 L 11.89 95.92 L 12.63 95.93 L 13.92 94.68 L 15.22 93.44 L 16.07 92.62 L 16.11 90.82 L 16.14 89.02 L 16.16 87.83 L 17.96 87.87 L 19.76 87.90 L 20.95 87.92 L 20.91 89.72 L 20.88 91.52 L 20.86 92.71 L 22.10 94.01 L 23.35 95.30 L 24.17 96.15 L 25.97 96.19 L 27.77 96.22 L 28.96 96.25 L 30.25 95.00 L 31.55 93.75 L 32.40 92.93 L 32.43 91.13 L 32.47 89.33 L 32.49 88.15 L 31.24 86.85 L 30.00 85.55 L 29.18 84.70 L 27.38 84.67 L 25.58 84.63 L 24.39 84.61 L 24.43 82.81 L 24.46 81.01 L 24.48 79.82 L 26.28 79.86 L 28.08 79.89 L 29.27 79.92 L 30.57 78.67 L 31.86 77.42 L 32.71 76.60 L 32.75 74.80 L 32.78 73.00 L 32.80 71.82 L 31.56 70.52 L 30.31 69.22 L 29.49 68.37 L 27.69 68.34 L 25.89 68.30 L 24.70 68.28 L 23.41 69.53 L 22.11 70.78 L 21.26 71.59 L 21.23 73.39 L 21.19 75.19 L 21.17 76.38 L 19.37 76.35 L 17.57 76.31 L 16.38 76.29 L 16.42 74.49 L 16.45 72.69 L 16.48 71.50 L 15.23 70.21 L 15.12 70.09 L 15.75 68.41 L 16.39 66.73 L 16.69 65.96 L 17.41 64.31 L 18.13 62.66 L 18.46 61.91 L 19.26 60.30 L 20.06 58.69 L 20.42 57.96 L 21.28 56.38 L 21.56 55.87 L 21.53 57.67 L 21.49 59.47 L 21.48 60.05 L 22.73 61.35 L 23.98 62.65 L 24.80 63.50 L 26.60 63.53 L 28.40 63.56 L 29.58 63.59 L 30.88 62.34 L 32.18 61.09 L 33.03 60.27 L 33.06 58.47 L 33.10 56.67 L 33.12 55.49 L 31.87 54.19 L 30.62 52.89 L 29.80 52.04 L 28.00 52.01 L 26.20 51.97 L 25.02 51.95 L 25.05 50.17 L 26.08 48.69 L 27.10 47.22 L 27.11 47.20 L 28.91 47.24 L 29.89 47.26 L 31.19 46.01 L 32.49 44.76 L 33.34 43.94 L 33.37 42.14 L 33.41 40.34 L 32.97 39.95 L 33.68 39.16 L 35.48 39.20 L 37.28 39.23 L 38.21 39.25 L 38.18 41.05 L 38.15 42.85 L 38.12 44.03 L 39.37 45.33 L 40.62 46.63 L 41.44 47.48 L 43.24 47.51 L 45.04 47.55 L 46.22 47.57 L 46.19 49.37 L 46.15 51.17 L 46.13 52.36 L 44.33 52.32 L 42.53 52.29 L 41.35 52.26 L 40.05 53.51 L 38.75 54.76 L 37.90 55.58 L 37.87 57.38 L 37.83 59.18 L 37.81 60.36 L 39.06 61.66 L 40.31 62.96 L 41.13 63.81 L 42.93 63.84 L 44.73 63.88 L 45.91 63.90 L 47.21 62.65 L 48.50 61.40 L 49.36 60.58 L 49.39 58.79 L 49.42 56.99 L 49.45 55.80 L 51.25 55.83 L 53.05 55.87 L 54.23 55.89 L 54.20 57.69 L 54.16 59.49 L 54.14 60.68 L 55.39 61.97 L 56.64 63.27 L 57.46 64.12 L 59.25 64.15 L 61.05 64.19 L 62.24 64.21 L 62.21 66.01 L 62.17 67.81 L 62.15 69.00 L 60.35 68.96 L 58.55 68.93 L 57.36 68.91 L 56.07 70.15 L 54.77 71.40 L 53.92 72.22 L 53.88 74.02 L 53.85 75.82 L 53.83 77.01 L 52.03 76.97 L 50.23 76.94 L 49.04 76.91 L 49.08 75.11 L 49.11 73.31 L 49.13 72.13 L 47.89 70.83 L 46.64 69.54 L 45.82 68.69 L 44.02 68.65 L 42.22 68.62 L 41.03 68.59 L 39.74 69.84 L 38.44 71.09 L 37.59 71.91 L 37.56 73.71 L 37.52 75.51 L 37.50 76.69 L 38.75 77.99 L 39.99 79.29 L 40.81 80.14 L 42.61 80.17 L 44.41 80.21 L 45.60 80.23 L 45.56 82.03 L 45.53 83.83 L 45.51 85.01 L 43.71 84.98 L 41.91 84.94 L 40.72 84.92 L 39.42 86.17 L 38.13 87.42 L 37.28 88.24 L 37.24 90.04 L 37.21 91.84 L 37.19 93.02 L 38.43 94.32 L 39.68 95.62 L 40.50 96.47 L 42.30 96.50 L 44.10 96.54 L 45.29 96.56 L 46.58 95.31 L 47.88 94.06 L 48.73 93.24 L 48.76 91.44 L 48.80 89.64 L 48.82 88.46 L 50.62 88.49 L 52.42 88.53 L 53.61 88.55 L 53.57 90.35 L 53.54 92.15 L 53.52 93.34 L 54.76 94.63 L 56.01 95.93 L 56.83 96.78 L 58.63 96.81 L 60.43 96.85 L 61.61 96.87 L 62.91 95.62 L 64.21 94.38 L 65.06 93.56 L 65.09 91.76 L 65.13 89.96 L 65.15 88.77 L 63.90 87.47 L 62.65 86.18 L 61.84 85.33 L 60.04 85.29 L 58.24 85.26 L 57.05 85.24 L 57.09 83.44 L 57.12 81.64 L 57.14 80.45 L 58.94 80.48 L 60.74 80.52 L 61.93 80.54 L 63.22 79.29 L 64.52 78.05 L 65.37 77.23 L 65.41 75.43 L 65.44 73.63 L 65.46 72.44 L 67.26 72.48 L 69.06 72.51 L 70.25 72.53 L 70.21 74.33 L 70.18 76.13 L 70.16 77.32 L 71.41 78.62 L 72.65 79.91 L 73.47 80.76 L 75.27 80.80 L 77.07 80.83 L 78.26 80.85 L 78.22 82.65 L 78.19 84.45 L 78.16 85.64 L 76.37 85.60 L 74.57 85.57 L 73.38 85.55 L 72.08 86.80 L 70.79 88.04 L 69.94 88.86 L 69.90 90.66 L 69.87 92.46 L 69.84 93.65 L 71.09 94.94 L 72.34 96.24 L 73.16 97.09 L 74.96 97.13 L 76.76 97.16 L 77.94 97.18 L 79.24 95.94 L 80.54 94.69 L 81.39 93.87 L 81.42 92.07 L 81.46 90.27 L 81.48 89.08 L 83.28 89.12 L 85.08 89.15 L 86.27 89.18 L 86.23 90.98 L 86.20 92.78 L 86.17 93.96 L 87.42 95.26 L 88.67 96.55 L 89.49 97.41 L 91.29 97.44 L 93.09 97.47 L 94.27 97.50 L 95.57 96.25 L 96.87 95.00 L 97.72 94.18 L 97.75 92.38 L 97.79 90.58 L 97.81 89.40 L 96.56 88.10 L 95.31 86.80 L 94.49 85.95 L 92.69 85.92 L 90.90 85.88 L 89.71 85.86 L 89.74 84.06 L 89.78 82.26 L 89.80 81.08 L 91.60 81.11 L 93.40 81.15 L 94.59 81.17 L 95.88 79.92 L 97.18 78.67 L 98.03 77.85 L 98.07 76.05 L 98.10 74.25 L 98.12 73.07 L 96.87 71.77 L 95.63 70.47 L 94.81 69.62 L 93.01 69.59 L 91.21 69.55 L 90.02 69.53 L 88.73 70.78 L 87.43 72.03 L 86.58 72.85 L 86.54 74.65 L 86.51 76.45 L 86.49 77.63 L 84.69 77.60 L 82.89 77.56 L 81.70 77.54 L 81.74 75.74 L 81.77 73.94 L 81.79 72.75 L 80.55 71.46 L 79.30 70.16 L 78.48 69.31 L 76.68 69.28 L 74.88 69.24 L 73.69 69.22 L 73.73 67.42 L 73.76 65.62 L 73.78 64.43 L 75.58 64.47 L 77.38 64.50 L 78.57 64.53 L 79.87 63.28 L 81.16 62.03 L 82.01 61.21 L 82.05 59.41 L 82.08 57.61 L 82.11 56.43 L 83.91 56.46 L 85.71 56.49 L 86.89 56.52 L 86.86 58.32 L 86.82 60.12 L 86.80 61.30 L 88.05 62.60 L 89.30 63.90 L 90.11 64.75 L 91.91 64.78 L 93.71 64.82 L 94.90 64.84 L 96.20 63.59 L 97.49 62.34 L 98.34 61.52 L 98.38 59.72 L 98.41 57.92 L 98.44 56.74 L 97.19 55.44 L 95.94 54.14 L 95.12 53.29 L 93.32 53.26 L 91.52 53.22 L 90.34 53.20 L 90.37 51.40 L 90.40 49.60 L 90.43 48.42 L 92.23 48.45 L 94.03 48.49 L 95.21 48.51 L 96.51 47.26 L 97.81 46.01 L 98.66 45.19 L 98.69 43.39 L 98.73 41.59 L 98.75 40.41 L 97.50 39.11 L 96.25 37.81 L 95.43 36.96 L 93.63 36.93 L 91.83 36.90 L 90.65 36.87 L 89.35 38.12 L 88.05 39.37 L 87.20 40.19 L 87.17 41.99 L 87.13 43.79 L 87.11 44.97 L 85.31 44.94 L 83.51 44.90 L 82.33 44.88 L 82.36 43.08 L 82.40 41.28 L 82.42 40.10 L 81.17 38.80 L 79.92 37.50 L 79.10 36.65 L 77.30 36.62 L 75.50 36.58 L 74.32 36.56 L 73.02 37.81 L 71.72 39.06 L 70.87 39.87 L 70.84 41.67 L 70.81 43.47 L 70.78 44.66 L 72.03 45.96 L 73.28 47.25 L 74.10 48.10 L 75.90 48.14 L 77.70 48.17 L 78.88 48.20 L 78.85 50.00 L 78.81 51.79 L 78.79 52.98 L 76.99 52.95 L 75.19 52.91 L 74.01 52.89 L 72.71 54.14 L 71.41 55.38 L 70.56 56.20 L 70.53 58.00 L 70.49 59.80 L 70.47 60.99 L 68.67 60.95 L 66.87 60.92 L 65.69 60.90 L 65.72 59.10 L 65.75 57.30 L 65.78 56.11 L 64.53 54.82 L 63.28 53.52 L 62.46 52.67 L 60.66 52.63 L 58.86 52.60 L 57.68 52.58 L 57.71 50.78 L 57.75 48.98 L 57.77 47.79 L 59.57 47.83 L 61.37 47.86 L 62.55 47.88 L 63.85 46.63 L 65.15 45.39 L 66.00 44.57 L 66.03 42.77 L 66.07 40.97 L 66.09 39.78 L 64.84 38.49 L 63.59 37.19 L 62.77 36.34 L 60.98 36.30 L 59.18 36.27 L 57.99 36.25 L 56.69 37.49 L 55.40 38.74 L 54.55 39.56 L 54.51 41.36 L 54.48 43.16 L 54.45 44.35 L 52.65 44.31 L 50.85 44.28 L 49.67 44.25 L 49.70 42.46 L 49.74 40.66 L 49.76 39.47 L 48.51 38.17 L 47.26 36.88 L 46.45 36.03 L 44.65 35.99 L 42.85 35.96 L 41.66 35.93 L 41.69 34.13 L 41.73 32.33 L 41.27 31.80 L 42.03 31.16 L 43.83 31.19 L 45.63 31.22 L 46.54 31.24 L 47.83 29.99 L 49.13 28.74 L 49.98 27.93 L 50.02 26.13 L 50.03 25.14 L 51.55 24.17 L 53.07 23.21 L 53.08 23.20 L 54.86 23.23 L 54.82 25.03 L 54.79 26.83 L 54.77 28.02 L 56.01 29.31 L 57.26 30.61 L 58.08 31.46 L 59.88 31.50 L 61.68 31.53 L 62.87 31.55 L 64.16 30.31 L 65.46 29.06 L 66.31 28.24 L 66.35 26.44 L 66.38 24.64 L 66.40 23.45 L 65.15 22.16 L 63.91 20.86 L 63.09 20.01 L 61.29 19.98 L 59.49 19.94 L 59.36 19.70 L 60.99 18.92 L 62.62 18.15 L 63.35 17.80 L 65.02 17.11 L 66.68 16.41 L 67.43 16.10 L 69.12 15.49 L 70.82 14.88 L 71.59 14.60 L 73.30 14.05 L 73.36 14.03 L 74.61 15.33 L 74.72 15.45 L 76.52 15.48 L 78.32 15.51 L 79.51 15.54 L 79.47 17.34 L 79.44 19.14 L 79.42 20.32 L 77.62 20.29 L 75.82 20.25 L 74.63 20.23 L 73.33 21.48 L 72.04 22.73 L 71.19 23.55 L 71.15 25.35 L 71.12 27.14 L 71.10 28.33 L 72.34 29.63 L 73.59 30.92 L 74.41 31.77 L 76.21 31.81 L 78.01 31.84 L 79.20 31.87 L 80.49 30.62 L 81.79 29.37 L 82.64 28.55 L 82.67 26.75 L 82.71 24.95 L 82.73 23.77 L 84.53 23.80 L 86.33 23.83 L 87.52 23.86 L 87.48 25.66 L 87.45 27.46 L 87.43 28.64 L 88.67 29.94 L 89.92 31.24 L 90.74 32.09 L 92.54 32.12 L 94.34 32.16 L 95.53 32.18 L 96.82 30.93 L 98.12 29.68 L 98.97 28.86 L 99.00 27.06 L 99.04 25.27 L 99.06 24.08 L 97.81 22.78 L 96.56 21.49 L 95.75 20.63 L 93.95 20.60 L 92.15 20.57 L 90.96 20.54 L 91.00 18.74 L 91.03 16.94 L 91.05 15.76 L 92.85 15.79 L 94.65 15.83 L 95.84 15.85 L 97.13 14.60 L 98.43 13.35 L 99.28 12.53 L 99.32 10.74 L 99.33 10.00 L 97.53 10.06 L 95.73 10.12 L 94.92 10.14 L 93.12 10.29 L 91.33 10.44 L 90.51 10.50 L 88.73 10.72 L 87.77 10.84 L 87.74 12.31 L 85.94 12.28 L 84.14 12.25 L 83.99 11.44 L 85.77 11.16 L 87.55 10.88 L 88.36 10.76 L 90.15 10.57 L 91.94 10.38 L 92.75 10.29 L 94.55 10.19 L 96.34 10.09 L 97.16 10.04 L 98.96 10.03 L 100.76 10.02 L 101.58 10.01 L 103.38 10.09 L 105.18 10.17 L 105.99 10.20 L 107.78 10.36 L 109.58 10.53 L 110.39 10.60 L 112.17 10.85 L 113.96 11.10 L 114.76 11.22 L 116.53 11.56 L 118.30 11.90 L 119.10 12.05 L 120.40 12.94 L 118.60 12.90 L 116.80 12.87 L 115.61 12.85 L 115.64 11.37 L 113.86 11.10 L 112.08 10.83 L 111.27 10.71 L 109.48 10.53 L 107.69 10.35 L 106.88 10.26 L 105.08 10.15 L 104.12 10.09 L 104.08 11.89 L 104.07 12.63 L 105.32 13.92 L 106.56 15.22 L 107.38 16.07 L 109.18 16.11 L 110.98 16.14 L 112.17 16.16 L 112.13 17.96 L 112.10 19.76 L 112.08 20.95 L 110.28 20.91 L 108.48 20.88 L 107.29 20.86 L 105.99 22.10 L 104.70 23.35 L 103.85 24.17 L 103.81 25.97 L 103.78 27.77 L 103.75 28.96 L 105.00 30.25 L 106.25 31.55 L 107.07 32.40 L 108.87 32.43 L 110.67 32.47 L 111.85 32.49 L 113.15 31.24 L 114.45 30.00 L 115.30 29.18 L 115.33 27.38 L 115.37 25.58 L 115.39 24.39 L 117.19 24.43 L 118.99 24.46 L 120.18 24.48 L 120.14 26.28 L 120.11 28.08 L 120.08 29.27 L 121.33 30.57 L 122.58 31.86 L 123.40 32.71 L 125.20 32.75 L 127.00 32.78 L 128.18 32.80 L 129.48 31.56 L 130.78 30.31 L 131.63 29.49 L 131.66 27.69 L 131.70 25.89 L 131.72 24.70 L 130.47 23.41 L 129.22 22.11 L 128.41 21.26 L 126.61 21.23 L 124.81 21.19 L 123.62 21.17 L 123.65 19.37 L 123.69 17.57 L 123.71 16.38 L 125.51 16.42 L 127.31 16.45 L 128.50 16.48 L 129.79 15.23 L 129.91 15.12 L 131.59 15.75 L 133.27 16.39 L 134.04 16.68 L 135.69 17.41 L 137.34 18.13 L 138.09 18.46 L 139.70 19.26 L 141.31 20.06 L 142.04 20.42 L 143.62 21.28 L 144.13 21.56 L 142.33 21.53 L 140.53 21.49 L 139.95 21.48 L 138.65 22.73 L 137.36 23.98 L 136.51 24.80 L 136.47 26.60 L 136.44 28.40 L 136.41 29.58 L 137.66 30.88 L 138.91 32.18 L 139.73 33.03 L 141.53 33.06 L 143.33 33.09 L 144.51 33.12 L 145.81 31.87 L 147.11 30.62 L 147.96 29.80 L 147.99 28.00 L 148.03 26.20 L 148.05 25.02 L 149.83 25.05 L 151.31 26.08 L 152.78 27.10 L 152.80 27.11 L 152.76 28.91 L 152.74 29.89 L 153.99 31.19 L 155.24 32.49 L 156.06 33.34 L 157.86 33.37 L 159.66 33.41 L 160.05 32.97 L 160.84 33.68 L 160.80 35.48 L 160.77 37.28 L 160.75 38.22 L 158.95 38.18 L 157.15 38.15 L 155.97 38.12 L 154.67 39.37 L 153.37 40.62 L 152.52 41.44 L 152.49 43.24 L 152.45 45.04 L 152.43 46.22 L 150.63 46.19 L 148.83 46.16 L 147.64 46.13 L 147.68 44.33 L 147.71 42.53 L 147.74 41.35 L 146.49 40.05 L 145.24 38.75 L 144.42 37.90 L 142.62 37.87 L 140.82 37.83 L 139.64 37.81 L 138.34 39.06 L 137.04 40.31 L 136.19 41.13 L 136.16 42.93 L 136.12 44.73 L 136.10 45.91 L 137.35 47.21 L 138.60 48.50 L 139.42 49.36 L 141.22 49.39 L 143.01 49.42 L 144.20 49.45 L 144.17 51.25 L 144.13 53.05 L 144.11 54.23 L 142.31 54.20 L 140.51 54.16 L 139.32 54.14 L 138.03 55.39 L 136.73 56.64 L 135.88 57.46 L 135.84 59.25 L 135.81 61.05 L 135.79 62.24 L 133.99 62.21 L 132.19 62.17 L 131.00 62.15 L 131.04 60.35 L 131.07 58.55 L 131.09 57.36 L 129.85 56.07 L 128.60 54.77 L 127.78 53.92 L 125.98 53.88 L 124.18 53.85 L 122.99 53.83 L 123.03 52.03 L 123.06 50.23 L 123.09 49.04 L 124.89 49.08 L 126.69 49.11 L 127.87 49.13 L 129.17 47.89 L 130.46 46.64 L 131.31 45.82 L 131.35 44.02 L 131.38 42.22 L 131.41 41.03 L 130.16 39.74 L 128.91 38.44 L 128.09 37.59 L 126.29 37.56 L 124.49 37.52 L 123.31 37.50 L 122.01 38.75 L 120.71 39.99 L 119.86 40.81 L 119.83 42.61 L 119.79 44.41 L 119.77 45.60 L 117.97 45.56 L 116.17 45.53 L 114.99 45.51 L 115.02 43.71 L 115.05 41.91 L 115.08 40.72 L 113.83 39.42 L 112.58 38.13 L 111.76 37.28 L 109.96 37.24 L 108.16 37.21 L 106.98 37.19 L 105.68 38.43 L 104.38 39.68 L 103.53 40.50 L 103.50 42.30 L 103.46 44.10 L 103.44 45.29 L 104.69 46.58 L 105.94 47.88 L 106.76 48.73 L 108.56 48.76 L 110.36 48.80 L 111.54 48.82 L 111.51 50.62 L 111.47 52.42 L 111.45 53.61 L 109.65 53.57 L 107.85 53.54 L 106.66 53.52 L 105.37 54.76 L 104.07 56.01 L 103.22 56.83 L 103.19 58.63 L 103.15 60.43 L 103.13 61.61 L 104.38 62.91 L 105.63 64.21 L 106.44 65.06 L 108.24 65.09 L 110.04 65.13 L 111.23 65.15 L 112.53 63.90 L 113.82 62.65 L 114.67 61.84 L 114.71 60.04 L 114.74 58.24 L 114.76 57.05 L 116.56 57.09 L 118.36 57.12 L 119.55 57.14 L 119.52 58.94 L 119.48 60.74 L 119.46 61.93 L 120.71 63.22 L 121.95 64.52 L 122.77 65.37 L 124.57 65.41 L 126.37 65.44 L 127.56 65.46 L 127.52 67.26 L 127.49 69.06 L 127.47 70.25 L 125.67 70.21 L 123.87 70.18 L 122.68 70.16 L 121.38 71.41 L 120.09 72.65 L 119.24 73.47 L 119.20 75.27 L 119.17 77.07 L 119.15 78.26 L 117.35 78.22 L 115.55 78.19 L 114.36 78.17 L 114.39 76.37 L 114.43 74.57 L 114.45 73.38 L 113.20 72.08 L 111.96 70.79 L 111.14 69.94 L 109.34 69.90 L 107.54 69.87 L 106.35 69.84 L 105.06 71.09 L 103.76 72.34 L 102.91 73.16 L 102.87 74.96 L 102.84 76.76 L 102.82 77.94 L 104.06 79.24 L 105.31 80.54 L 106.13 81.39 L 107.93 81.42 L 109.73 81.46 L 110.92 81.48 L 110.88 83.28 L 110.85 85.08 L 110.82 86.27 L 109.02 86.23 L 107.22 86.20 L 106.04 86.17 L 104.74 87.42 L 103.45 88.67 L 102.59 89.49 L 102.56 91.29 L 102.53 93.09 L 102.50 94.27 L 103.75 95.57 L 105.00 96.87 L 105.82 97.72 L 107.62 97.75 L 109.42 97.79 L 110.60 97.81 L 111.90 96.56 L 113.20 95.31 L 114.05 94.49 L 114.08 92.69 L 114.12 90.90 L 114.14 89.71 L 115.94 89.74 L 117.74 89.78 L 118.92 89.80 L 118.89 91.60 L 118.85 93.40 L 118.83 94.59 L 120.08 95.88 L 121.33 97.18 L 122.15 98.03 L 123.95 98.07 L 125.75 98.10 L 126.93 98.12 L 128.23 96.87 L 129.53 95.63 L 130.38 94.81 L 130.41 93.01 L 130.45 91.21 L 130.47 90.02 L 129.22 88.73 L 127.97 87.43 L 127.15 86.58 L 125.35 86.54 L 123.55 86.51 L 122.37 86.49 L 122.40 84.69 L 122.44 82.89 L 122.46 81.70 L 124.26 81.74 L 126.06 81.77 L 127.25 81.79 L 128.54 80.55 L 129.84 79.30 L 130.69 78.48 L 130.72 76.68 L 130.76 74.88 L 130.78 73.69 L 132.58 73.73 L 134.38 73.76 L 135.57 73.78 L 135.53 75.58 L 135.50 77.38 L 135.47 78.57 L 136.72 79.87 L 137.97 81.16 L 138.79 82.01 L 140.59 82.05 L 142.39 82.08 L 143.57 82.11 L 143.54 83.91 L 143.51 85.71 L 143.48 86.89 L 141.68 86.86 L 139.88 86.82 L 138.70 86.80 L 137.40 88.05 L 136.10 89.30 L 135.25 90.11 L 135.22 91.91 L 135.18 93.71 L 135.16 94.90 L 136.41 96.20 L 137.66 97.49 L 138.48 98.34 L 140.28 98.38 L 142.08 98.41 L 143.26 98.44 L 144.56 97.19 L 145.86 95.94 L 146.71 95.12 L 146.74 93.32 L 146.78 91.52 L 146.80 90.34 L 148.60 90.37 L 150.40 90.40 L 151.58 90.43 L 151.55 92.23 L 151.51 94.03 L 151.49 95.21 L 152.74 96.51 L 153.99 97.81 L 154.81 98.66 L 156.61 98.69 L 158.41 98.73 L 159.59 98.75 L 160.89 97.50 L 162.19 96.25 L 163.04 95.43 L 163.07 93.63 L 163.10 91.83 L 163.13 90.65 L 161.88 89.35 L 160.63 88.05 L 159.81 87.20 L 158.01 87.17 L 156.21 87.14 L 155.03 87.11 L 155.06 85.31 L 155.10 83.51 L 155.12 82.33 L 156.92 82.36 L 158.72 82.40 L 159.90 82.42 L 161.20 81.17 L 162.50 79.92 L 163.35 79.10 L 163.38 77.30 L 163.42 75.51 L 163.44 74.32 L 162.19 73.02 L 160.94 71.72 L 160.13 70.87 L 158.33 70.84 L 156.53 70.81 L 155.34 70.78 L 154.04 72.03 L 152.75 73.28 L 151.90 74.10 L 151.86 75.90 L 151.83 77.70 L 151.80 78.88 L 150.00 78.85 L 148.21 78.81 L 147.02 78.79 L 147.05 76.99 L 147.09 75.19 L 147.11 74.01 L 145.86 72.71 L 144.61 71.41 L 143.80 70.56 L 142.00 70.53 L 140.20 70.49 L 139.01 70.47 L 139.05 68.67 L 139.08 66.87 L 139.10 65.68 L 140.90 65.72 L 142.70 65.75 L 143.89 65.78 L 145.18 64.53 L 146.48 63.28 L 147.33 62.46 L 147.37 60.66 L 147.40 58.86 L 147.42 57.68 L 149.22 57.71 L 151.02 57.75 L 152.21 57.77 L 152.17 59.57 L 152.14 61.37 L 152.12 62.55 L 153.37 63.85 L 154.61 65.15 L 155.43 66.00 L 157.23 66.03 L 159.03 66.07 L 160.22 66.09 L 161.51 64.84 L 162.81 63.59 L 163.66 62.77 L 163.70 60.97 L 163.73 59.18 L 163.75 57.99 L 162.51 56.69 L 161.26 55.40 L 160.44 54.54 L 158.64 54.51 L 156.84 54.48 L 155.65 54.45 L 155.69 52.65 L 155.72 50.85 L 155.74 49.67 L 157.54 49.70 L 159.34 49.74 L 160.53 49.76 L 161.83 48.51 L 163.12 47.26 L 163.97 46.45 L 164.01 44.65 L 164.04 42.85 L 164.07 41.66 L 165.87 41.69 L 167.67 41.73 L 168.20 41.27 L 168.85 42.03 L 168.81 43.83 L 168.78 45.63 L 168.76 46.54 L 170.01 47.83 L 171.26 49.13 L 172.07 49.98 L 173.87 50.02 L 174.86 50.03 L 175.83 51.55 L 176.79 53.07 L 176.80 53.08 L 176.77 54.86 L 174.97 54.82 L 173.17 54.79 L 171.98 54.77 L 170.69 56.01 L 169.39 57.26 L 168.54 58.08 L 168.50 59.88 L 168.47 61.68 L 168.45 62.87 L 169.69 64.16 L 170.94 65.46 L 171.76 66.31 L 173.56 66.34 L 175.36 66.38 L 176.55 66.40 L 177.84 65.15 L 179.14 63.91 L 179.99 63.09 L 180.02 61.29 L 180.06 59.49 L 180.30 59.36 L 181.08 60.99 L 181.85 62.62 L 182.20 63.35 L 182.89 65.01 L 183.59 66.68 L 183.90 67.43 L 184.51 69.13 L 185.12 70.82 L 185.40 71.59 L 185.95 73.30 L 185.97 73.36 L 184.67 74.61 L 184.55 74.72 L 184.52 76.52 L 184.49 78.32 L 184.46 79.51 L 182.66 79.47 L 180.86 79.44 L 179.68 79.42 L 179.71 77.62 L 179.75 75.82 L 179.77 74.63 L 178.52 73.33 L 177.27 72.04 L 176.45 71.19 L 174.65 71.15 L 172.86 71.12 L 171.67 71.10 L 170.37 72.34 L 169.08 73.59 L 168.23 74.41 L 168.19 76.21 L 168.16 78.01 L 168.13 79.19 L 169.38 80.49 L 170.63 81.79 L 171.45 82.64 L 173.25 82.67 L 175.05 82.71 L 176.23 82.73 L 176.20 84.53 L 176.17 86.33 L 176.14 87.52 L 174.34 87.48 L 172.54 87.45 L 171.36 87.43 L 170.06 88.67 L 168.76 89.92 L 167.91 90.74 L 167.88 92.54 L 167.84 94.34 L 167.82 95.52 L 169.07 96.82 L 170.32 98.12 L 171.14 98.97 L 172.94 99.00 L 174.73 99.04 L 175.92 99.06 L 177.22 97.81 L 178.51 96.56 L 179.37 95.75 L 179.40 93.95 L 179.43 92.15 L 179.46 90.96 L 181.26 90.99 L 183.06 91.03 L 184.24 91.05 L 184.21 92.85 L 184.17 94.65 L 184.15 95.84 L 185.40 97.13 L 186.65 98.43 L 187.47 99.28 L 189.26 99.32 L 190.00 99.33 L 189.94 97.53 L 189.88 95.73 L 189.86 94.91 L 189.71 93.12 L 189.56 91.33 L 189.50 90.51 L 189.28 88.72 L 189.16 87.77 L 187.69 87.74 L 187.72 85.94 L 187.75 84.14 L 188.56 83.99 L 188.84 85.77 L 189.12 87.55 L 189.24 88.36 L 189.43 90.15 L 189.62 91.94 L 189.71 92.75 L 189.81 94.55 L 189.91 96.34 L 189.96 97.16 L 189.97 98.96 L 189.98 100.76 L 189.99 101.58 L 189.91 103.38 L 189.83 105.17 L 189.80 105.99 L 189.64 107.78 L 189.47 109.58 L 189.40 110.39 L 189.15 112.17 L 188.90 113.96 L 188.78 114.76 L 188.44 116.53 L 188.10 118.30 L 187.95 119.10 L 187.06 120.40 L 187.10 118.60 L 187.13 116.80 L 187.15 115.61 L 188.63 115.64 L 188.90 113.86 L 189.17 112.08 L 189.29 111.27 L 189.47 109.48 L 189.65 107.69 L 189.74 106.88 L 189.85 105.08 L 189.91 104.12 L 188.11 104.08 L 187.37 104.07 L 186.08 105.32 L 184.78 106.56 L 183.93 107.38 L 183.89 109.18 L 183.86 110.98 L 183.84 112.17 L 182.04 112.13 L 180.24 112.10 L 179.05 112.08 L 179.09 110.28 L 179.12 108.48 L 179.14 107.29 L 177.90 105.99 L 176.65 104.70 L 175.83 103.85 L 174.03 103.81 L 172.23 103.78 L 171.04 103.76 L 169.75 105.00 L 168.45 106.25 L 167.60 107.07 L 167.57 108.87 L 167.53 110.67 L 167.51 111.85 L 168.76 113.15 L 170.00 114.45 L 170.82 115.30 L 172.62 115.33 L 174.42 115.37 L 175.61 115.39 L 175.57 117.19 L 175.54 118.99 L 175.52 120.18 L 173.72 120.14 L 171.92 120.11 L 170.73 120.08 L 169.43 121.33 L 168.14 122.58 L 167.29 123.40 L 167.25 125.20 L 167.22 127.00 L 167.20 128.18 L 168.44 129.48 L 169.69 130.78 L 170.51 131.63 L 172.31 131.66 L 174.11 131.70 L 175.30 131.72 L 176.59 130.47 L 177.89 129.22 L 178.74 128.41 L 178.77 126.61 L 178.81 124.81 L 178.83 123.62 L 180.63 123.65 L 182.43 123.69 L 183.62 123.71 L 183.58 125.51 L 183.55 127.31 L 183.52 128.50 L 184.77 129.79 L 184.88 129.91 L 184.24 131.59 L 183.61 133.27 L 183.31 134.04 L 182.59 135.69 L 181.87 137.34 L 181.54 138.09 L 180.74 139.70 L 179.94 141.31 L 179.58 142.04 L 178.72 143.62 L 178.44 144.13 L 178.47 142.33 L 178.51 140.53 L 178.52 139.95 L 177.27 138.65 L 176.02 137.35 L 175.20 136.50 L 173.40 136.47 L 171.60 136.44 L 170.42 136.41 L 169.12 137.66 L 167.82 138.91 L 166.97 139.73 L 166.94 141.53 L 166.91 143.33 L 166.88 144.51 L 168.13 145.81 L 169.38 147.11 L 170.20 147.96 L 172.00 147.99 L 173.80 148.03 L 174.98 148.05 L 174.95 149.83 L 173.92 151.31 L 172.90 152.78 L 172.89 152.80 L 171.09 152.76 L 170.11 152.74 L 168.81 153.99 L 167.51 155.24 L 166.66 156.06 L 166.63 157.86 L 166.59 159.66 L 167.03 160.05 L 166.32 160.84 L 164.52 160.80 L 162.72 160.77 L 161.79 160.75 L 161.82 158.95 L 161.85 157.15 L 161.88 155.97 L 160.63 154.67 L 159.38 153.37 L 158.56 152.52 L 156.76 152.49 L 154.96 152.45 L 153.78 152.43 L 153.81 150.63 L 153.85 148.83 L 153.87 147.64 L 155.67 147.68 L 157.47 147.71 L 158.65 147.74 L 159.95 146.49 L 161.25 145.24 L 162.10 144.42 L 162.13 142.62 L 162.17 140.82 L 162.19 139.64 L 160.94 138.34 L 159.69 137.04 L 158.87 136.19 L 157.07 136.16 L 155.27 136.12 L 154.09 136.10 L 152.79 137.35 L 151.50 138.60 L 150.64 139.42 L 150.61 141.21 L 150.58 143.01 L 150.55 144.20 L 148.75 144.17 L 146.95 144.13 L 145.77 144.11 L 145.80 142.31 L 145.84 140.51 L 145.86 139.32 L 144.61 138.03 L 143.36 136.73 L 142.54 135.88 L 140.75 135.85 L 138.95 135.81 L 137.76 135.79 L 137.79 133.99 L 137.83 132.19 L 137.85 131.00 L 139.65 131.04 L 141.45 131.07 L 142.64 131.09 L 143.93 129.85 L 145.23 128.60 L 146.08 127.78 L 146.12 125.98 L 146.15 124.18 L 146.17 122.99 L 147.97 123.03 L 149.77 123.06 L 150.96 123.09 L 150.92 124.89 L 150.89 126.69 L 150.87 127.87 L 152.11 129.17 L 153.36 130.46 L 154.18 131.31 L 155.98 131.35 L 157.78 131.38 L 158.97 131.41 L 160.26 130.16 L 161.56 128.91 L 162.41 128.09 L 162.44 126.29 L 162.48 124.49 L 162.50 123.31 L 161.25 122.01 L 160.01 120.71 L 159.19 119.86 L 157.39 119.83 L 155.59 119.79 L 154.40 119.77 L 154.44 117.97 L 154.47 116.17 L 154.49 114.99 L 156.29 115.02 L 158.09 115.05 L 159.28 115.08 L 160.58 113.83 L 161.87 112.58 L 162.72 111.76 L 162.76 109.96 L 162.79 108.16 L 162.81 106.98 L 161.57 105.68 L 160.32 104.38 L 159.50 103.53 L 157.70 103.50 L 155.90 103.46 L 154.71 103.44 L 153.42 104.69 L 152.12 105.94 L 151.27 106.76 L 151.24 108.56 L 151.20 110.36 L 151.18 111.54 L 149.38 111.51 L 147.58 111.47 L 146.39 111.45 L 146.43 109.65 L 146.46 107.85 L 146.48 106.66 L 145.24 105.37 L 143.99 104.07 L 143.17 103.22 L 141.37 103.19 L 139.57 103.15 L 138.39 103.13 L 137.09 104.38 L 135.79 105.63 L 134.94 106.44 L 134.91 108.24 L 134.87 110.04 L 134.85 111.23 L 136.10 112.53 L 137.35 113.82 L 138.16 114.67 L 139.96 114.71 L 141.76 114.74 L 142.95 114.76 L 142.91 116.56 L 142.88 118.36 L 142.86 119.55 L 141.06 119.52 L 139.26 119.48 L 138.07 119.46 L 136.78 120.71 L 135.48 121.95 L 134.63 122.77 L 134.59 124.57 L 134.56 126.37 L 134.54 127.56 L 132.74 127.52 L 130.94 127.49 L 129.75 127.47 L 129.79 125.67 L 129.82 123.87 L 129.84 122.68 L 128.59 121.38 L 127.35 120.09 L 126.53 119.24 L 124.73 119.20 L 122.93 119.17 L 121.74 119.15 L 121.78 117.35 L 121.81 115.55 L 121.84 114.36 L 123.63 114.39 L 125.43 114.43 L 126.62 114.45 L 127.92 113.20 L 129.21 111.96 L 130.06 111.14 L 130.10 109.34 L 130.13 107.54 L 130.16 106.35 L 128.91 105.06 L 127.66 103.76 L 126.84 102.91 L 125.04 102.87 L 123.24 102.84 L 122.06 102.82 L 120.76 104.06 L 119.46 105.31 L 118.61 106.13 L 118.58 107.93 L 118.54 109.73 L 118.52 110.92 L 116.72 110.88 L 114.92 110.85 L 113.73 110.82 L 113.77 109.02 L 113.80 107.22 L 113.83 106.04 L 112.58 104.74 L 111.33 103.45 L 110.51 102.59 L 108.71 102.56 L 106.91 102.53 L 105.73 102.50 L 104.43 103.75 L 103.13 105.00 L 102.28 105.82 L 102.25 107.62 L 102.21 109.42 L 102.19 110.60 L 103.44 111.90 L 104.69 113.20 L 105.51 114.05 L 107.31 114.08 L 109.10 114.12 L 110.29 114.14 L 110.26 115.94 L 110.22 117.74 L 110.20 118.92 L 108.40 118.89 L 106.60 118.85 L 105.41 118.83 L 104.12 120.08 L 102.82 121.33 L 101.97 122.15 L 101.93 123.95 L 101.90 125.75 L 101.88 126.93 L 103.13 128.23 L 104.37 129.53 L 105.19 130.38 L 106.99 130.41 L 108.79 130.45 L 109.98 130.47 L 111.27 129.22 L 112.57 127.97 L 113.42 127.15 L 113.46 125.35 L 113.49 123.55 L 113.51 122.37 L 115.31 122.40 L 117.11 122.44 L 118.30 122.46 L 118.26 124.26 L 118.23 126.06 L 118.21 127.25 L 119.46 128.54 L 120.70 129.84 L 121.52 130.69 L 123.32 130.72 L 125.12 130.76 L 126.31 130.78 L 126.27 132.58 L 126.24 134.38 L 126.22 135.57 L 124.42 135.53 L 122.62 135.50 L 121.43 135.47 L 120.13 136.72 L 118.84 137.97 L 117.99 138.79 L 117.95 140.59 L 117.92 142.39 L 117.89 143.57 L 116.09 143.54 L 114.29 143.51 L 113.11 143.48 L 113.14 141.68 L 113.18 139.88 L 113.20 138.70 L 111.95 137.40 L 110.70 136.10 L 109.89 135.25 L 108.09 135.22 L 106.29 135.18 L 105.10 135.16 L 103.80 136.41 L 102.51 137.66 L 101.66 138.48 L 101.62 140.28 L 101.59 142.08 L 101.56 143.26 L 102.81 144.56 L 104.06 145.86 L 104.88 146.71 L 106.68 146.74 L 108.48 146.78 L 109.66 146.80 L 109.63 148.60 L 109.60 150.40 L 109.57 151.58 L 107.77 151.55 L 105.97 151.51 L 104.79 151.49 L 103.49 152.74 L 102.19 153.99 L 101.34 154.81 L 101.31 156.61 L 101.27 158.41 L 101.25 159.59 L 102.50 160.89 L 103.75 162.19 L 104.57 163.04 L 106.37 163.07 L 108.17 163.10 L 109.35 163.13 L 110.65 161.88 L 111.95 160.63 L 112.80 159.81 L 112.83 158.01 L 112.86 156.21 L 112.89 155.03 L 114.69 155.06 L 116.49 155.10 L 117.67 155.12 L 117.64 156.92 L 117.60 158.72 L 117.58 159.90 L 118.83 161.20 L 120.08 162.50 L 120.90 163.35 L 122.70 163.38 L 124.50 163.42 L 125.68 163.44 L 126.98 162.19 L 128.27 160.94 L 129.13 160.13 L 129.16 158.33 L 129.19 156.53 L 129.22 155.34 L 127.97 154.04 L 126.72 152.75 L 125.90 151.90 L 124.10 151.86 L 122.30 151.83 L 121.12 151.80 L 121.15 150.00 L 121.19 148.21 L 121.21 147.02 L 123.01 147.05 L 124.81 147.09 L 125.99 147.11 L 127.29 145.86 L 128.59 144.62 L 129.44 143.80 L 129.47 142.00 L 129.51 140.20 L 129.53 139.01 L 131.33 139.05 L 133.13 139.08 L 134.32 139.10 L 134.28 140.90 L 134.25 142.70 L 134.22 143.89 L 135.47 145.18 L 136.72 146.48 L 137.54 147.33 L 139.34 147.37 L 141.14 147.40 L 142.32 147.42 L 142.29 149.22 L 142.25 151.02 L 142.23 152.21 L 140.43 152.17 L 138.63 152.14 L 137.45 152.12 L 136.15 153.37 L 134.85 154.61 L 134.00 155.43 L 133.97 157.23 L 133.93 159.03 L 133.91 160.22 L 135.16 161.51 L 136.41 162.81 L 137.22 163.66 L 139.02 163.70 L 140.82 163.73 L 142.01 163.75 L 143.31 162.51 L 144.60 161.26 L 145.45 160.44 L 145.49 158.64 L 145.52 156.84 L 145.55 155.65 L 147.35 155.69 L 149.15 155.72 L 150.33 155.74 L 150.30 157.54 L 150.26 159.34 L 150.24 160.53 L 151.49 161.83 L 152.74 163.12 L 153.55 163.97 L 155.35 164.01 L 157.15 164.04 L 158.34 164.07 L 158.31 165.87 L 158.27 167.66 L 158.73 168.20 L 157.97 168.85 L 156.17 168.81 L 154.37 168.78 L 153.46 168.76 L 152.17 170.01 L 150.87 171.26 L 150.02 172.07 L 149.98 173.87 L 149.97 174.86 L 148.45 175.83 L 146.93 176.79 L 146.92 176.80 L 145.14 176.77 L 145.18 174.97 L 145.21 173.17 L 145.23 171.98 L 143.99 170.69 L 142.74 169.39 L 141.92 168.54 L 140.12 168.50 L 138.32 168.47 L 137.13 168.45 L 135.84 169.69 L 134.54 170.94 L 133.69 171.76 L 133.65 173.56 L 133.62 175.36 L 133.60 176.55 L 134.85 177.84 L 136.09 179.14 L 136.91 179.99 L 138.71 180.03 L 140.51 180.06 L 140.64 180.30 L 139.01 181.08 L 137.38 181.85 L 136.65 182.20 L 134.99 182.89 L 133.32 183.59 L 132.57 183.90 L 130.88 184.51 L 129.18 185.12 L 128.41 185.40 L 126.70 185.95 L 126.64 185.97 L 125.39 184.67 L 125.28 184.56 L 123.48 184.52 L 121.68 184.49 L 120.49 184.46 L 120.53 182.66 L 120.56 180.86 L 120.58 179.68 L 122.38 179.71 L 124.18 179.75 L 125.37 179.77 L 126.67 178.52 L 127.96 177.27 L 128.81 176.45 L 128.85 174.65 L 128.88 172.86 L 128.90 171.67 L 127.66 170.37 L 126.41 169.08 L 125.59 168.23 L 123.79 168.19 L 121.99 168.16 L 120.80 168.13 L 119.51 169.38 L 118.21 170.63 L 117.36 171.45 L 117.33 173.25 L 117.29 175.05 L 117.27 176.23 L 115.47 176.20 L 113.67 176.17 L 112.48 176.14 L 112.52 174.34 L 112.55 172.54 L 112.57 171.36 L 111.33 170.06 L 110.08 168.76 L 109.26 167.91 L 107.46 167.88 L 105.66 167.84 L 104.48 167.82 L 103.18 169.07 L 101.88 170.32 L 101.03 171.14 L 101.00 172.94 L 100.96 174.73 L 100.94 175.92 L 102.19 177.22 L 103.44 178.51 L 104.25 179.37 L 106.05 179.40 L 107.85 179.43 L 109.04 179.46 L 109.00 181.26 L 108.97 183.06 L 108.95 184.24 L 107.15 184.21 L 105.35 184.17 L 104.16 184.15 L 102.87 185.40 L 101.57 186.65 L 100.72 187.47 L 100.68 189.26 L 100.67 190.00 L 102.47 189.94 L 104.27 189.88 L 105.08 189.86 L 106.88 189.71 L 108.67 189.56 L 109.49 189.50 L 111.27 189.28 L 112.23 189.16 L 112.26 187.69 L 114.06 187.72 L 115.86 187.75 L 116.01 188.56 L 114.23 188.84 L 112.45 189.12 L 111.64 189.24 L 109.85 189.43 L 108.06 189.62 L 107.25 189.71 L 105.45 189.81 L 103.66 189.91 L 102.84 189.96 L 101.04 189.97 L 99.24 189.98 L 98.42 189.99 L 96.62 189.91 L 94.83 189.83 L 94.01 189.80 L 92.22 189.64 L 90.42 189.47 L 89.61 189.40 L 87.83 189.15 L 86.04 188.89 L 85.24 188.78 L 83.47 188.44 L 81.70 188.10 L 80.90 187.95 L 79.60 187.06 L 81.40 187.10 L 83.20 187.13 L 84.39 187.15 L 84.36 188.63 L 86.14 188.90 L 87.92 189.17 L 88.73 189.29 L 90.52 189.47 L 92.31 189.65 L 93.12 189.74 L 94.92 189.85 L 95.88 189.91 L 95.92 188.11 L 95.93 187.37 L 94.68 186.08 L 93.44 184.78 L 92.62 183.93 L 90.82 183.89 L 89.02 183.86 L 87.83 183.84 L 87.87 182.04 L 87.90 180.24 L 87.92 179.05 L 89.72 179.09 L 91.52 179.12 L 92.71 179.14 L 94.01 177.90 L 95.30 176.65 L 96.15 175.83 L 96.19 174.03 L 96.22 172.23 L 96.25 171.04 L 95.00 169.75 L 93.75 168.45 L 92.93 167.60 L 91.13 167.57 L 89.33 167.53 L 88.15 167.51 L 86.85 168.76 L 85.55 170.00 L 84.70 170.82 L 84.67 172.62 L 84.63 174.42 L 84.61 175.61 L 82.81 175.57 L 81.01 175.54 L 79.82 175.52 L 79.86 173.72 L 79.89 171.92 L 79.92 170.73 L 78.67 169.43 L 77.42 168.14 L 76.60 167.29 L 74.80 167.25 L 73.00 167.22 L 71.82 167.20 L 70.52 168.44 L 69.22 169.69 L 68.37 170.51 L 68.34 172.31 L 68.30 174.11 L 68.28 175.30 L 69.53 176.59 L 70.78 177.89 L 71.59 178.74 L 73.39 178.77 L 75.19 178.81 L 76.38 178.83 L 76.35 180.63 L 76.31 182.43 L 76.29 183.62 L 74.49 183.58 L 72.69 183.55 L 71.50 183.52 L 70.21 184.77 L 70.09 184.88 L 68.41 184.25 L 66.73 183.61 L 65.96 183.31 L 64.31 182.59 L 62.66 181.87 L 61.91 181.54 L 60.30 180.74 L 58.69 179.94 L 57.96 179.58 L 56.38 178.72 L 55.87 178.44 L 57.67 178.47 L 59.47 178.51 L 60.05 178.52 L 61.35 177.27 L 62.65 176.02 L 63.50 175.20 L 63.53 173.40 L 63.56 171.60 L 63.59 170.42 L 62.34 169.12 L 61.09 167.82 L 60.27 166.97 L 58.47 166.94 L 56.67 166.91 L 55.49 166.88 L 54.19 168.13 L 52.89 169.38 L 52.04 170.20 L 52.01 172.00 L 51.97 173.80 L 51.95 174.98 L 50.17 174.95 L 48.69 173.92 L 47.21 172.90 L 47.20 172.89 L 47.24 171.09 L 47.26 170.11 L 46.01 168.81 L 44.76 167.51 L 43.94 166.66 L 42.14 166.63 L 40.34 166.59 L 39.95 167.03 L 39.16 166.32 L 39.20 164.52 L 39.23 162.72 L 39.25 161.79 L 41.05 161.82 L 42.85 161.85 L 44.03 161.88 L 45.33 160.63 L 46.63 159.38 L 47.48 158.56 L 47.51 156.76 L 47.55 154.96 L 47.57 153.78 L 49.37 153.81 L 51.17 153.85 L 52.36 153.87 L 52.32 155.67 L 52.29 157.47 L 52.26 158.65 L 53.51 159.95 L 54.76 161.25 L 55.58 162.10 L 57.38 162.13 L 59.18 162.17 L 60.36 162.19 L 61.66 160.94 L 62.96 159.69 L 63.81 158.87 L 63.84 157.07 L 63.88 155.27 L 63.90 154.09 L 62.65 152.79 L 61.40 151.50 L 60.58 150.64 L 58.78 150.61 L 56.99 150.58 L 55.80 150.55 L 55.83 148.75 L 55.87 146.95 L 55.89 145.77 L 57.69 145.80 L 59.49 145.84 L 60.68 145.86 L 61.97 144.61 L 63.27 143.36 L 64.12 142.54 L 64.16 140.75 L 64.19 138.95 L 64.21 137.76 L 66.01 137.79 L 67.81 137.83 L 69.00 137.85 L 68.96 139.65 L 68.93 141.45 L 68.91 142.64 L 70.15 143.93 L 71.40 145.23 L 72.22 146.08 L 74.02 146.12 L 75.82 146.15 L 77.01 146.17 L 76.97 147.97 L 76.94 149.77 L 76.91 150.96 L 75.11 150.92 L 73.31 150.89 L 72.13 150.87 L 70.83 152.11 L 69.54 153.36 L 68.69 154.18 L 68.65 155.98 L 68.62 157.78 L 68.59 158.97 L 69.84 160.26 L 71.09 161.56 L 71.91 162.41 L 73.71 162.44 L 75.51 162.48 L 76.69 162.50 L 77.99 161.25 L 79.29 160.01 L 80.14 159.19 L 80.17 157.39 L 80.21 155.59 L 80.23 154.40 L 82.03 154.44 L 83.83 154.47 L 85.01 154.49 L 84.98 156.29 L 84.95 158.09 L 84.92 159.28 L 86.17 160.58 L 87.42 161.87 L 88.24 162.72 L 90.04 162.76 L 91.84 162.79 L 93.02 162.81 L 94.32 161.57 L 95.62 160.32 L 96.47 159.50 L 96.50 157.70 L 96.54 155.90 L 96.56 154.71 L 95.31 153.42 L 94.06 152.12 L 93.24 151.27 L 91.44 151.24 L 89.64 151.20 L 88.46 151.18 L 88.49 149.38 L 88.53 147.58 L 88.55 146.39 L 90.35 146.43 L 92.15 146.46 L 93.34 146.48 L 94.63 145.24 L 95.93 143.99 L 96.78 143.17 L 96.81 141.37 L 96.85 139.57 L 96.87 138.39 L 95.62 137.09 L 94.38 135.79 L 93.56 134.94 L 91.76 134.91 L 89.96 134.87 L 88.77 134.85 L 87.47 136.10 L 86.18 137.35 L 85.33 138.16 L 85.29 139.96 L 85.26 141.76 L 85.24 142.95 L 83.44 142.91 L 81.64 142.88 L 80.45 142.86 L 80.48 141.06 L 80.52 139.26 L 80.54 138.07 L 79.29 136.78 L 78.05 135.48 L 77.23 134.63 L 75.43 134.59 L 73.63 134.56 L 72.44 134.54 L 72.48 132.74 L 72.51 130.94 L 72.53 129.75 L 74.33 129.79 L 76.13 129.82 L 77.32 129.84 L 78.62 128.59 L 79.91 127.35 L 80.76 126.53 L 80.80 124.73 L 80.83 122.93 L 80.85 121.74 L 82.65 121.78 L 84.45 121.81 L 85.64 121.84 L 85.60 123.63 L 85.57 125.43 L 85.55 126.62 L 86.80 127.92 L 88.04 129.21 L 88.86 130.06 L 90.66 130.10 L 92.46 130.13 L 93.65 130.16 L 94.94 128.91 L 96.24 127.66 L 97.09 126.84 L 97.13 125.04 L 97.16 123.24 L 97.18 122.06 L 95.94 120.76 L 94.69 119.46 L 93.87 118.61 L 92.07 118.58 L 90.27 118.54 L 89.08 118.52 L 89.12 116.72 L 89.15 114.92 L 89.18 113.73 L 90.98 113.77 L 92.78 113.80 L 93.96 113.83 L 95.26 112.58 L 96.55 111.33 L 97.41 110.51 L 97.44 108.71 L 97.47 106.91 L 97.50 105.73 L 96.25 104.43 L 95.00 103.13 L 94.18 102.28 L 92.38 102.25 L 90.58 102.21 L 89.40 102.19 L 88.10 103.44 L 86.80 104.69 L 85.95 105.51 L 85.92 107.31 L 85.88 109.10 L 85.86 110.29 L 84.06 110.26 L 82.26 110.22 L 81.08 110.20 L 81.11 108.40 L 81.15 106.60 L 81.17 105.41 L 79.92 104.12 L 78.67 102.82 L 77.85 101.97 L 76.05 101.93 L 74.25 101.90 L 73.07 101.88 L 71.77 103.13 L 70.47 104.37 L 69.62 105.19 L 69.59 106.99 L 69.55 108.79 L 69.53 109.98 L 70.78 111.27 L 72.03 112.57 L 72.85 113.42 L 74.65 113.46 L 76.45 113.49 L 77.63 113.51 L 77.60 115.31 L 77.56 117.11 L 77.54 118.30 L 75.74 118.26 L 73.94 118.23 L 72.75 118.21 L 71.46 119.45 L 70.16 120.70 L 69.31 121.52 L 69.28 123.32 L 69.24 125.12 L 69.22 126.31 L 67.42 126.27 L 65.62 126.24 L 64.43 126.22 L 64.47 124.42 L 64.50 122.62 L 64.53 121.43 L 63.28 120.13 L 62.03 118.84 L 61.21 117.99 L 59.41 117.95 L 57.61 117.92 L 56.43 117.89 L 56.46 116.09 L 56.49 114.29 L 56.52 113.11 L 58.32 113.14 L 60.12 113.18 L 61.30 113.20 L 62.60 111.95 L 63.90 110.70 L 64.75 109.89 L 64.78 108.09 L 64.82 106.29 L 64.84 105.10 L 63.59 103.80 L 62.34 102.51 L 61.52 101.66 L 59.72 101.62 L 57.92 101.59 L 56.74 101.56 L 55.44 102.81 L 54.14 104.06 L 53.29 104.88 L 53.26 106.68 L 53.22 108.48 L 53.20 109.66 L 51.40 109.63 L 49.60 109.60 L 48.42 109.57 L 48.45 107.77 L 48.49 105.97 L 48.51 104.79 L 47.26 103.49 L 46.01 102.19 L 45.19 101.34 L 43.39 101.31 L 41.59 101.27 L 40.41 101.25 L 39.11 102.50 L 37.81 103.75 L 36.96 104.57 L 36.93 106.37 L 36.90 108.17 L 36.87 109.35 L 38.12 110.65 L 39.37 111.95 L 40.19 112.80 L 41.99 112.83 L 43.79 112.86 L 44.97 112.89 L 44.94 114.69 L 44.90 116.49 L 44.88 117.67 L 43.08 117.64 L 41.28 117.60 L 40.10 117.58 L 38.80 118.83 L 37.50 120.08 L 36.65 120.90 L 36.62 122.70 L 36.58 124.50 L 36.56 125.68 L 37.81 126.98 L 39.06 128.28 L 39.87 129.13 L 41.67 129.16 L 43.47 129.19 L 44.66 129.22 L 45.96 127.97 L 47.25 126.72 L 48.10 125.90 L 48.14 124.10 L 48.17 122.30 L 48.20 121.12 L 50.00 121.15 L 51.79 121.19 L 52.98 121.21 L 52.95 123.01 L 52.91 124.81 L 52.89 125.99 L 54.14 127.29 L 55.39 128.59 L 56.20 129.44 L 58.00 129.47 L 59.80 129.51 L 60.99 129.53 L 60.95 131.33 L 60.92 133.13 L 60.90 134.31 L 59.10 134.28 L 57.30 134.25 L 56.11 134.22 L 54.82 135.47 L 53.52 136.72 L 52.67 137.54 L 52.63 139.34 L 52.60 141.14 L 52.58 142.32 L 50.78 142.29 L 48.98 142.25 L 47.79 142.23 L 47.83 140.43 L 47.86 138.63 L 47.88 137.45 L 46.63 136.15 L 45.39 134.85 L 44.57 134.00 L 42.77 133.97 L 40.97 133.93 L 39.78 133.91 L 38.49 135.16 L 37.19 136.41 L 36.34 137.23 L 36.30 139.02 L 36.27 140.82 L 36.25 142.01 L 37.49 143.31 L 38.74 144.60 L 39.56 145.46 L 41.36 145.49 L 43.16 145.52 L 44.35 145.55 L 44.31 147.35 L 44.28 149.15 L 44.26 150.33 L 42.46 150.30 L 40.66 150.26 L 39.47 150.24 L 38.17 151.49 L 36.88 152.74 L 36.03 153.55 L 35.99 155.35 L 35.96 157.15 L 35.93 158.34 L 34.13 158.31 L 32.33 158.27 L 31.80 158.73 L 31.15 157.97 L 31.19 156.17 L 31.22 154.37 L 31.24 153.46 L 29.99 152.17 L 28.74 150.87 L 27.93 150.02 L 26.13 149.98 L 25.14 149.97 L 24.17 148.45 L 23.21 146.93 L 23.20 146.92 L 23.23 145.14 L 25.03 145.18 L 26.83 145.21 L 28.02 145.23 L 29.31 143.99 L 30.61 142.74 L 31.46 141.92 L 31.50 140.12 L 31.53 138.32 L 31.55 137.13 L 30.31 135.84 L 29.06 134.54 L 28.24 133.69 L 26.44 133.66 L 24.64 133.62 L 23.45 133.60 L 22.16 134.85 L 20.86 136.09 L 20.01 136.91 L 19.98 138.71 L 19.94 140.51 L 19.70 140.64 L 18.92 139.01 L 18.15 137.38 L 17.80 136.65 L 17.11 134.98 L 16.41 133.32 L 16.10 132.57 L 15.49 130.88 L 14.88 129.18 L 14.60 128.41 L 14.05 126.70 L 14.03 126.64 L 15.33 125.39 L 15.45 125.28 L 15.48 123.48 L 15.51 121.68 L 15.54 120.49 L 17.34 120.53 L 19.14 120.56 L 20.32 120.58 L 20.29 122.38 L 20.25 124.18 L 20.23 125.37 L 21.48 126.67 L 22.73 127.96 L 23.55 128.81 L 25.35 128.85 L 27.14 128.88 L 28.33 128.90 L 29.63 127.66 L 30.92 126.41 L 31.77 125.59 L 31.81 123.79 L 31.84 121.99 L 31.87 120.80 L 30.62 119.51 L 29.37 118.21 L 28.55 117.36 L 26.75 117.33 L 24.95 117.29 L 23.77 117.27 L 23.80 115.47 L 23.83 113.67 L 23.86 112.48 L 25.66 112.52 L 27.46 112.55 L 28.64 112.57 L 29.94 111.33 L 31.24 110.08 L 32.09 109.26 L 32.12 107.46 L 32.16 105.66 L 32.18 104.47 L 30.93 103.18 L 29.68 101.88 L 28.86 101.03 L 27.06 101.00 L 25.27 100.96 L 24.08 100.94 L 22.78 102.19 L 21.49 103.44 L 20.63 104.25 L 20.60 106.05 L 20.57 107.85 L 20.54 109.04 L 18.74 109.00 L 16.94 108.97 L 15.76 108.95 L 15.79 107.15 L 15.83 105.35 L 15.85 104.16 L 14.60 102.87 L 13.35 101.57 L 12.53 100.72 L 10.74 100.68 L 10.00 100.67 L 10.06 102.47 L 10.12 104.27 L 10.14 105.08 L 10.29 106.88 L 10.44 108.67 L 10.50 109.49 L 10.72 111.28 L 10.84 112.23 L 12.31 112.26 L 12.28 114.06 L 12.25 115.86" 
          fill="none" 
          stroke="currentColor" 
          stroke-width="0.5"/>
</svg>