<?xml version="1.0" encoding="UTF-8" standalone="no"?>
<svg width="100%" height="100%" viewBox="0 0 200 200" preserveAspectRatio="xMidYMid meet" xmlns="http://www.w3.org/2000/svg">
    <path d="M 100.00 100.00 L 100.00 100.00 L 94.94 100.00 L 95.78 101.46 L 96.62 102.92 L 97.47 104.38 L 99.58 100.73 L 100.00 100.00 L 99.16 100.00 L 94.94 100.00 L 89.88 100.00 L 91.14 102.19 L 92.41 104.38 L 93.67 102.19 L 94.52 100.73 L 94.94 100.00 L 99.16 100.00 L 100.00 100.00 L 99.58 100.73 L 97.47 104.38 L 95.78 104.38 L 93.25 104.38 L 92.41 104.38 L 93.67 106.58 L 94.94 108.77 L 97.47 104.38 L 99.58 100.73 L 100.00 100.00 L 99.16 100.00 L 89.88 100.00 L 84.81 100.00 L 86.50 102.92 L 87.34 104.38 L 88.61 102.19 L 89.88 100.00 L 84.81 100.00 L 79.75 100.00 L 81.44 102.92 L 82.28 104.38 L 83.97 101.46 L 84.81 100.00 L 89.88 100.00 L 88.61 102.19 L 87.34 104.38 L 82.28 104.38 L 83.97 107.31 L 84.81 108.77 L 86.50 105.85 L 87.34 104.38 L 88.61 102.19 L 89.88 100.00 L 99.16 100.00 L 100.00 100.00 L 99.58 100.73 L 94.94 108.77 L 92.41 108.77 L 89.88 108.77 L 91.56 111.69 L 92.41 113.15 L 94.94 108.77 L 92.41 108.77 L 89.88 108.77 L 86.50 108.77 L 84.81 108.77 L 86.50 111.69 L 87.34 113.15 L 89.88 108.77 L 92.41 108.77 L 94.94 108.77 L 92.41 113.15 L 89.03 113.15 L 87.34 113.15 L 89.03 116.08 L 89.87 117.54 L 92.41 113.15 L 94.94 108.77 L 99.58 100.73 L 100.00 100.00 L 99.12 100.00 L 79.75 100.00 L 74.69 100.00 L 76.80 103.65 L 77.22 104.38 L 79.33 100.73 L 79.75 100.00 L 74.69 100.00 L 69.62 100.00 L 71.73 103.65 L 72.16 104.38 L 74.27 100.73 L 74.69 100.00 L 79.75 100.00 L 77.64 103.65 L 77.22 104.38 L 72.16 104.38 L 74.27 108.04 L 74.69 108.77 L 76.80 105.11 L 77.22 104.38 L 79.33 100.73 L 79.75 100.00 L 69.62 100.00 L 64.56 100.00 L 67.09 104.38 L 69.62 100.00 L 64.56 100.00 L 59.50 100.00 L 62.03 104.38 L 64.56 100.00 L 69.62 100.00 L 67.09 104.38 L 62.03 104.38 L 64.56 108.77 L 67.09 104.38 L 69.62 100.00 L 79.75 100.00 L 77.64 103.65 L 75.53 107.31 L 74.69 108.77 L 69.62 108.77 L 72.16 113.15 L 74.69 108.77 L 69.62 108.77 L 64.56 108.77 L 67.09 113.15 L 69.62 108.77 L 74.69 108.77 L 72.16 113.15 L 67.09 113.15 L 69.63 117.54 L 72.16 113.15 L 74.69 108.77 L 76.80 105.11 L 78.91 101.46 L 79.75 100.00 L 99.12 100.00 L 100.00 100.00 L 99.56 100.76 L 89.87 117.54 L 85.66 117.54 L 84.81 117.54 L 86.92 121.19 L 87.34 121.92 L 89.87 117.54 L 85.66 117.54 L 84.81 117.54 L 80.59 117.54 L 79.75 117.54 L 81.86 121.19 L 82.28 121.92 L 84.81 117.54 L 89.03 117.54 L 89.87 117.54 L 87.34 121.92 L 83.12 121.92 L 82.28 121.92 L 84.39 125.57 L 84.81 126.31 L 87.34 121.92 L 89.87 117.54 L 85.66 117.54 L 81.44 117.54 L 79.75 117.54 L 74.69 117.54 L 77.22 121.92 L 79.75 117.54 L 74.69 117.54 L 69.63 117.54 L 72.16 121.92 L 74.69 117.54 L 79.75 117.54 L 77.22 121.92 L 72.16 121.92 L 74.69 126.31 L 77.22 121.92 L 79.75 117.54 L 83.97 117.54 L 88.19 117.54 L 89.87 117.54 L 84.81 126.31 L 79.75 126.31 L 82.28 130.69 L 84.81 126.31 L 79.75 126.31 L 74.69 126.31 L 77.22 130.69 L 79.75 126.31 L 84.81 126.31 L 82.28 130.69 L 77.22 130.69 L 79.75 135.07 L 82.28 130.69 L 84.81 126.31 L 89.87 117.54 L 99.56 100.76 L 100.00 100.00 L 99.10 100.00 L 59.50 100.00 L 54.44 100.00 L 56.97 104.38 L 59.50 100.00 L 54.44 100.00 L 49.38 100.00 L 51.91 104.38 L 54.44 100.00 L 59.50 100.00 L 56.97 104.38 L 51.91 104.38 L 54.44 108.77 L 56.97 104.38 L 59.50 100.00 L 49.38 100.00 L 44.31 100.00 L 46.84 104.38 L 49.38 100.00 L 44.31 100.00 L 39.25 100.00 L 41.78 104.38 L 44.31 100.00 L 49.38 100.00 L 46.84 104.38 L 41.78 104.38 L 44.31 108.77 L 46.84 104.38 L 49.38 100.00 L 59.50 100.00 L 56.55 105.11 L 54.44 108.77 L 49.38 108.77 L 51.91 113.15 L 54.44 108.77 L 49.38 108.77 L 44.31 108.77 L 46.84 113.15 L 49.38 108.77 L 54.44 108.77 L 51.91 113.15 L 46.84 113.15 L 49.38 117.54 L 51.91 113.15 L 54.44 108.77 L 57.39 103.65 L 59.50 100.00 L 39.25 100.00 L 34.19 100.00 L 36.72 104.38 L 39.25 100.00 L 34.19 100.00 L 29.12 100.00 L 31.66 104.38 L 34.19 100.00 L 39.25 100.00 L 36.72 104.38 L 31.66 104.38 L 34.19 108.77 L 36.72 104.38 L 39.25 100.00 L 29.12 100.00 L 24.06 100.00 L 26.59 104.38 L 29.12 100.00 L 24.06 100.00 L 19.00 100.00 L 21.53 104.38 L 24.06 100.00 L 29.12 100.00 L 26.59 104.38 L 21.53 104.38 L 24.06 108.77 L 26.59 104.38 L 29.12 100.00 L 39.25 100.00 L 35.88 105.85 L 34.19 108.77 L 29.12 108.77 L 31.66 113.15 L 34.19 108.77 L 29.12 108.77 L 24.06 108.77 L 26.59 113.15 L 29.12 108.77 L 34.19 108.77 L 31.66 113.15 L 26.59 113.15 L 29.12 117.54 L 31.66 113.15 L 34.19 108.77 L 37.56 102.92 L 39.25 100.00 L 59.50 100.00 L 56.86 104.57 L 53.78 109.91 L 50.70 115.25 L 49.38 117.54 L 44.31 117.54 L 46.84 121.92 L 49.38 117.54 L 44.31 117.54 L 39.25 117.54 L 41.78 121.92 L 44.31 117.54 L 49.38 117.54 L 46.84 121.92 L 41.78 121.92 L 44.31 126.31 L 46.84 121.92 L 49.38 117.54 L 40.09 117.54 L 39.25 117.54 L 34.19 117.54 L 36.72 121.92 L 39.25 117.54 L 34.19 117.54 L 29.12 117.54 L 31.66 121.92 L 34.19 117.54 L 39.25 117.54 L 36.72 121.92 L 31.66 121.92 L 34.19 126.31 L 36.72 121.92 L 39.25 117.54 L 48.53 117.54 L 49.38 117.54 L 46.00 123.38 L 44.31 126.31 L 39.25 126.31 L 41.78 130.69 L 44.31 126.31 L 39.25 126.31 L 34.19 126.31 L 36.72 130.69 L 39.25 126.31 L 44.31 126.31 L 41.78 130.69 L 36.72 130.69 L 39.25 135.07 L 41.78 130.69 L 44.31 126.31 L 47.69 120.46 L 49.38 117.54 L 52.46 112.20 L 55.54 106.86 L 58.18 102.29 L 59.50 100.00 L 99.10 100.00 L 100.00 100.00 L 99.55 100.78 L 79.75 135.07 L 74.69 135.07 L 77.22 139.46 L 79.75 135.07 L 74.69 135.07 L 69.62 135.07 L 72.16 139.46 L 74.69 135.07 L 79.75 135.07 L 77.22 139.46 L 72.16 139.46 L 74.69 143.84 L 77.22 139.46 L 79.75 135.07 L 73.84 135.07 L 69.62 135.07 L 64.56 135.07 L 67.09 139.46 L 69.62 135.07 L 64.56 135.07 L 59.50 135.07 L 62.03 139.46 L 64.56 135.07 L 69.62 135.07 L 67.09 139.46 L 62.03 139.46 L 64.56 143.84 L 67.09 139.46 L 69.62 135.07 L 75.53 135.07 L 79.75 135.07 L 74.69 143.84 L 69.63 143.84 L 72.16 148.23 L 74.69 143.84 L 69.63 143.84 L 64.56 143.84 L 67.09 148.23 L 69.63 143.84 L 74.69 143.84 L 72.16 148.23 L 67.09 148.23 L 69.62 152.61 L 72.16 148.23 L 74.69 143.84 L 79.75 135.07 L 74.47 135.07 L 68.30 135.07 L 62.14 135.07 L 59.50 135.07 L 54.44 135.07 L 56.97 139.46 L 59.50 135.07 L 54.44 135.07 L 49.38 135.07 L 51.91 139.46 L 54.44 135.07 L 59.50 135.07 L 56.97 139.46 L 51.91 139.46 L 54.44 143.84 L 56.97 139.46 L 59.50 135.07 L 52.75 135.07 L 49.38 135.07 L 44.31 135.07 L 46.84 139.46 L 49.38 135.07 L 44.31 135.07 L 39.25 135.07 L 41.78 139.46 L 44.31 135.07 L 49.38 135.07 L 46.84 139.46 L 41.78 139.46 L 44.31 143.84 L 46.84 139.46 L 49.38 135.07 L 56.12 135.07 L 59.50 135.07 L 54.86 143.11 L 54.44 143.84 L 49.37 143.84 L 51.91 148.23 L 54.44 143.84 L 49.37 143.84 L 44.31 143.84 L 46.84 148.23 L 49.37 143.84 L 54.44 143.84 L 51.91 148.23 L 46.84 148.23 L 49.37 152.61 L 51.91 148.23 L 54.44 143.84 L 59.08 135.80 L 59.50 135.07 L 65.66 135.07 L 71.83 135.07 L 77.11 135.07 L 79.75 135.07 L 69.62 152.61 L 64.56 152.61 L 67.09 157.00 L 69.62 152.61 L 64.56 152.61 L 59.50 152.61 L 62.03 157.00 L 64.56 152.61 L 69.62 152.61 L 67.09 157.00 L 62.03 157.00 L 64.56 161.38 L 67.09 157.00 L 69.62 152.61 L 62.87 152.61 L 59.50 152.61 L 54.44 152.61 L 56.97 157.00 L 59.50 152.61 L 54.44 152.61 L 49.37 152.61 L 51.91 157.00 L 54.44 152.61 L 59.50 152.61 L 56.97 157.00 L 51.91 157.00 L 54.44 161.38 L 56.97 157.00 L 59.50 152.61 L 66.25 152.61 L 69.62 152.61 L 64.56 161.38 L 59.50 161.38 L 62.03 165.76 L 64.56 161.38 L 59.50 161.38 L 54.44 161.38 L 56.97 165.76 L 59.50 161.38 L 64.56 161.38 L 62.03 165.76 L 56.97 165.76 L 59.50 170.15 L 62.03 165.76 L 64.56 161.38 L 69.62 152.61 L 79.75 135.07 L 99.55 100.78 L 100.00 100.00 L 97.47 95.62 L 96.62 97.08 L 95.78 98.54 L 94.94 100.00 L 99.16 100.00 L 100.00 100.00 L 97.47 95.62 L 94.94 91.23 L 93.67 93.42 L 92.41 95.62 L 94.94 95.62 L 96.62 95.62 L 97.47 95.62 L 100.00 100.00 L 99.16 100.00 L 94.94 100.00 L 94.09 98.54 L 92.83 96.35 L 92.41 95.62 L 91.14 97.81 L 89.88 100.00 L 94.94 100.00 L 99.16 100.00 L 100.00 100.00 L 95.78 92.69 L 94.94 91.23 L 92.41 86.85 L 90.72 89.77 L 89.88 91.23 L 92.41 91.23 L 94.94 91.23 L 92.41 86.85 L 89.87 82.46 L 88.19 85.39 L 87.34 86.85 L 90.72 86.85 L 92.41 86.85 L 94.94 91.23 L 92.41 91.23 L 89.88 91.23 L 87.34 86.85 L 85.66 89.77 L 84.81 91.23 L 88.19 91.23 L 89.88 91.23 L 92.41 91.23 L 94.94 91.23 L 99.58 99.27 L 100.00 100.00 L 99.16 100.00 L 89.88 100.00 L 88.61 97.81 L 87.34 95.62 L 85.66 98.54 L 84.81 100.00 L 89.88 100.00 L 88.61 97.81 L 87.34 95.62 L 85.66 92.69 L 84.81 91.23 L 83.12 94.15 L 82.28 95.62 L 87.34 95.62 L 88.61 97.81 L 89.88 100.00 L 84.81 100.00 L 83.12 97.08 L 82.28 95.62 L 80.59 98.54 L 79.75 100.00 L 84.81 100.00 L 89.88 100.00 L 99.16 100.00 L 100.00 100.00 L 98.68 97.71 L 89.87 82.46 L 87.34 78.08 L 85.23 81.73 L 84.81 82.46 L 89.03 82.46 L 89.87 82.46 L 87.34 78.08 L 84.81 73.69 L 82.70 77.35 L 82.28 78.08 L 86.50 78.08 L 87.34 78.08 L 89.87 82.46 L 85.66 82.46 L 84.81 82.46 L 82.28 78.08 L 80.17 81.73 L 79.75 82.46 L 83.97 82.46 L 84.81 82.46 L 89.03 82.46 L 89.87 82.46 L 84.81 73.69 L 82.28 69.31 L 79.75 73.69 L 84.81 73.69 L 82.28 69.31 L 79.75 64.93 L 77.22 69.31 L 82.28 69.31 L 84.81 73.69 L 79.75 73.69 L 77.22 69.31 L 74.69 73.69 L 79.75 73.69 L 84.81 73.69 L 89.87 82.46 L 85.66 82.46 L 81.44 82.46 L 79.75 82.46 L 77.22 78.08 L 74.69 82.46 L 79.75 82.46 L 77.22 78.08 L 74.69 73.69 L 72.16 78.08 L 77.22 78.08 L 79.75 82.46 L 74.69 82.46 L 72.16 78.08 L 69.63 82.46 L 74.69 82.46 L 79.75 82.46 L 83.97 82.46 L 88.19 82.46 L 89.87 82.46 L 99.56 99.24 L 100.00 100.00 L 99.12 100.00 L 79.75 100.00 L 77.64 96.35 L 77.22 95.62 L 75.11 99.27 L 74.69 100.00 L 79.75 100.00 L 77.64 96.35 L 77.22 95.62 L 75.11 91.96 L 74.69 91.23 L 72.58 94.89 L 72.16 95.62 L 77.22 95.62 L 79.33 99.27 L 79.75 100.00 L 74.69 100.00 L 72.58 96.35 L 72.16 95.62 L 70.05 99.27 L 69.62 100.00 L 74.69 100.00 L 79.75 100.00 L 77.64 96.35 L 75.53 92.69 L 74.69 91.23 L 72.16 86.85 L 69.62 91.23 L 74.69 91.23 L 72.16 86.85 L 69.63 82.46 L 67.09 86.85 L 72.16 86.85 L 74.69 91.23 L 69.62 91.23 L 67.09 86.85 L 64.56 91.23 L 69.62 91.23 L 74.69 91.23 L 76.80 94.89 L 78.91 98.54 L 79.75 100.00 L 69.62 100.00 L 67.09 95.62 L 64.56 100.00 L 69.62 100.00 L 67.09 95.62 L 64.56 91.23 L 62.03 95.62 L 67.09 95.62 L 69.62 100.00 L 64.56 100.00 L 62.03 95.62 L 59.50 100.00 L 64.56 100.00 L 69.62 100.00 L 79.75 100.00 L 99.12 100.00 L 100.00 100.00 L 99.55 99.22 L 79.75 64.93 L 77.22 60.54 L 74.69 64.93 L 79.75 64.93 L 77.22 60.54 L 74.69 56.16 L 72.16 60.54 L 77.22 60.54 L 79.75 64.93 L 74.69 64.93 L 72.16 60.54 L 69.62 64.93 L 74.69 64.93 L 79.75 64.93 L 74.69 56.16 L 72.16 51.77 L 69.63 56.16 L 74.69 56.16 L 72.16 51.77 L 69.62 47.39 L 67.09 51.77 L 72.16 51.77 L 74.69 56.16 L 69.63 56.16 L 67.09 51.77 L 64.56 56.16 L 69.63 56.16 L 74.69 56.16 L 79.75 64.93 L 73.84 64.93 L 69.62 64.93 L 67.09 60.54 L 64.56 64.93 L 69.62 64.93 L 67.09 60.54 L 64.56 56.16 L 62.03 60.54 L 67.09 60.54 L 69.62 64.93 L 64.56 64.93 L 62.03 60.54 L 59.50 64.93 L 64.56 64.93 L 69.62 64.93 L 75.53 64.93 L 79.75 64.93 L 69.62 47.39 L 67.09 43.00 L 64.56 47.39 L 69.62 47.39 L 67.09 43.00 L 64.56 38.62 L 62.03 43.00 L 67.09 43.00 L 69.62 47.39 L 64.56 47.39 L 62.03 43.00 L 59.50 47.39 L 64.56 47.39 L 69.62 47.39 L 64.56 38.62 L 62.03 34.24 L 59.50 38.62 L 64.56 38.62 L 62.03 34.24 L 59.50 29.85 L 56.97 34.24 L 62.03 34.24 L 64.56 38.62 L 59.50 38.62 L 56.97 34.24 L 54.44 38.62 L 59.50 38.62 L 64.56 38.62 L 69.62 47.39 L 62.87 47.39 L 59.50 47.39 L 56.97 43.00 L 54.44 47.39 L 59.50 47.39 L 56.97 43.00 L 54.44 38.62 L 51.91 43.00 L 56.97 43.00 L 59.50 47.39 L 54.44 47.39 L 51.91 43.00 L 49.37 47.39 L 54.44 47.39 L 59.50 47.39 L 66.25 47.39 L 69.62 47.39 L 79.75 64.93 L 74.47 64.93 L 68.30 64.93 L 62.14 64.93 L 59.50 64.93 L 56.97 60.54 L 54.44 64.93 L 59.50 64.93 L 56.97 60.54 L 54.44 56.16 L 51.91 60.54 L 56.97 60.54 L 59.50 64.93 L 54.44 64.93 L 51.91 60.54 L 49.38 64.93 L 54.44 64.93 L 59.50 64.93 L 54.86 56.89 L 54.44 56.16 L 51.91 51.77 L 49.37 56.16 L 54.44 56.16 L 51.91 51.77 L 49.37 47.39 L 46.84 51.77 L 51.91 51.77 L 54.44 56.16 L 49.37 56.16 L 46.84 51.77 L 44.31 56.16 L 49.37 56.16 L 54.44 56.16 L 59.08 64.20 L 59.50 64.93 L 52.75 64.93 L 49.38 64.93 L 46.84 60.54 L 44.31 64.93 L 49.38 64.93 L 46.84 60.54 L 44.31 56.16 L 41.78 60.54 L 46.84 60.54 L 49.38 64.93 L 44.31 64.93 L 41.78 60.54 L 39.25 64.93 L 44.31 64.93 L 49.38 64.93 L 56.12 64.93 L 59.50 64.93 L 65.66 64.93 L 71.83 64.93 L 77.11 64.93 L 79.75 64.93 L 99.55 99.22 L 100.00 100.00 L 99.10 100.00 L 59.50 100.00 L 56.97 95.62 L 54.44 100.00 L 59.50 100.00 L 56.97 95.62 L 54.44 91.23 L 51.91 95.62 L 56.97 95.62 L 59.50 100.00 L 54.44 100.00 L 51.91 95.62 L 49.38 100.00 L 54.44 100.00 L 59.50 100.00 L 56.55 94.89 L 54.44 91.23 L 51.91 86.85 L 49.38 91.23 L 54.44 91.23 L 51.91 86.85 L 49.38 82.46 L 46.84 86.85 L 51.91 86.85 L 54.44 91.23 L 49.38 91.23 L 46.84 86.85 L 44.31 91.23 L 49.38 91.23 L 54.44 91.23 L 57.39 96.35 L 59.50 100.00 L 49.38 100.00 L 46.84 95.62 L 44.31 100.00 L 49.38 100.00 L 46.84 95.62 L 44.31 91.23 L 41.78 95.62 L 46.84 95.62 L 49.38 100.00 L 44.31 100.00 L 41.78 95.62 L 39.25 100.00 L 44.31 100.00 L 49.38 100.00 L 59.50 100.00 L 56.86 95.43 L 53.78 90.09 L 50.70 84.75 L 49.38 82.46 L 46.84 78.08 L 44.31 82.46 L 49.38 82.46 L 46.84 78.08 L 44.31 73.69 L 41.78 78.08 L 46.84 78.08 L 49.38 82.46 L 44.31 82.46 L 41.78 78.08 L 39.25 82.46 L 44.31 82.46 L 49.38 82.46 L 46.00 76.62 L 44.31 73.69 L 41.78 69.31 L 39.25 73.69 L 44.31 73.69 L 41.78 69.31 L 39.25 64.93 L 36.72 69.31 L 41.78 69.31 L 44.31 73.69 L 39.25 73.69 L 36.72 69.31 L 34.19 73.69 L 39.25 73.69 L 44.31 73.69 L 47.69 79.54 L 49.38 82.46 L 40.09 82.46 L 39.25 82.46 L 36.72 78.08 L 34.19 82.46 L 39.25 82.46 L 36.72 78.08 L 34.19 73.69 L 31.66 78.08 L 36.72 78.08 L 39.25 82.46 L 34.19 82.46 L 31.66 78.08 L 29.12 82.46 L 34.19 82.46 L 39.25 82.46 L 48.53 82.46 L 49.38 82.46 L 52.46 87.80 L 55.54 93.14 L 58.18 97.71 L 59.50 100.00 L 39.25 100.00 L 36.72 95.62 L 34.19 100.00 L 39.25 100.00 L 36.72 95.62 L 34.19 91.23 L 31.66 95.62 L 36.72 95.62 L 39.25 100.00 L 34.19 100.00 L 31.66 95.62 L 29.12 100.00 L 34.19 100.00 L 39.25 100.00 L 35.88 94.15 L 34.19 91.23 L 31.66 86.85 L 29.12 91.23 L 34.19 91.23 L 31.66 86.85 L 29.12 82.46 L 26.59 86.85 L 31.66 86.85 L 34.19 91.23 L 29.12 91.23 L 26.59 86.85 L 24.06 91.23 L 29.12 91.23 L 34.19 91.23 L 37.56 97.08 L 39.25 100.00 L 29.12 100.00 L 26.59 95.62 L 24.06 100.00 L 29.12 100.00 L 26.59 95.62 L 24.06 91.23 L 21.53 95.62 L 26.59 95.62 L 29.12 100.00 L 24.06 100.00 L 21.53 95.62 L 19.00 100.00 L 24.06 100.00 L 29.12 100.00 L 39.25 100.00 L 59.50 100.00 L 99.10 100.00 L 100.00 100.00 L 100.42 99.27 L 102.53 95.62 L 100.84 95.62 L 99.16 95.62 L 97.47 95.62 L 99.58 99.27 L 100.00 100.00 L 100.42 99.27 L 102.53 95.62 L 105.06 91.23 L 102.53 91.23 L 100.00 91.23 L 101.27 93.42 L 102.11 94.89 L 102.53 95.62 L 100.42 99.27 L 100.00 100.00 L 99.58 99.27 L 97.47 95.62 L 98.31 94.15 L 99.58 91.96 L 100.00 91.23 L 97.47 91.23 L 94.94 91.23 L 97.47 95.62 L 99.58 99.27 L 100.00 100.00 L 100.42 99.27 L 105.06 91.23 L 107.59 86.85 L 104.22 86.85 L 102.53 86.85 L 103.80 89.04 L 105.06 91.23 L 107.59 86.85 L 110.13 82.46 L 106.75 82.46 L 105.06 82.46 L 106.75 85.39 L 107.59 86.85 L 105.06 91.23 L 103.80 89.04 L 102.53 86.85 L 105.06 82.46 L 101.69 82.46 L 100.00 82.46 L 101.69 85.39 L 102.53 86.85 L 103.80 89.04 L 105.06 91.23 L 100.42 99.27 L 100.00 100.00 L 99.58 99.27 L 94.94 91.23 L 96.20 89.04 L 97.47 86.85 L 94.09 86.85 L 92.41 86.85 L 94.94 91.23 L 96.20 89.04 L 97.47 86.85 L 99.16 83.92 L 100.00 82.46 L 96.63 82.46 L 94.94 82.46 L 97.47 86.85 L 96.20 89.04 L 94.94 91.23 L 92.41 86.85 L 94.09 83.92 L 94.94 82.46 L 91.56 82.46 L 89.88 82.46 L 92.41 86.85 L 94.94 91.23 L 99.58 99.27 L 100.00 100.00 L 100.44 99.24 L 110.13 82.46 L 112.66 78.08 L 108.44 78.08 L 107.59 78.08 L 109.70 81.73 L 110.13 82.46 L 112.66 78.08 L 115.19 73.69 L 110.97 73.69 L 110.13 73.69 L 112.23 77.35 L 112.66 78.08 L 110.13 82.46 L 108.02 78.81 L 107.59 78.08 L 110.13 73.69 L 105.91 73.69 L 105.06 73.69 L 107.17 77.35 L 107.59 78.08 L 109.70 81.73 L 110.13 82.46 L 115.19 73.69 L 117.72 69.31 L 112.66 69.31 L 115.19 73.69 L 117.72 69.31 L 120.25 64.93 L 115.19 64.93 L 117.72 69.31 L 115.19 73.69 L 112.66 69.31 L 115.19 64.93 L 110.12 64.93 L 112.66 69.31 L 115.19 73.69 L 110.13 82.46 L 108.02 78.81 L 105.91 75.16 L 105.06 73.69 L 107.59 69.31 L 102.53 69.31 L 105.06 73.69 L 107.59 69.31 L 110.12 64.93 L 105.06 64.93 L 107.59 69.31 L 105.06 73.69 L 102.53 69.31 L 105.06 64.93 L 100.00 64.93 L 102.53 69.31 L 105.06 73.69 L 107.17 77.35 L 109.28 81.00 L 110.13 82.46 L 100.44 99.24 L 100.00 100.00 L 99.56 99.24 L 89.87 82.46 L 91.98 78.81 L 92.41 78.08 L 88.19 78.08 L 87.34 78.08 L 89.87 82.46 L 91.98 78.81 L 92.41 78.08 L 94.52 74.43 L 94.94 73.69 L 90.72 73.69 L 89.87 73.69 L 92.41 78.08 L 90.30 81.73 L 89.87 82.46 L 87.34 78.08 L 89.45 74.43 L 89.87 73.69 L 85.66 73.69 L 84.81 73.69 L 87.34 78.08 L 89.87 82.46 L 91.98 78.81 L 94.09 75.16 L 94.94 73.69 L 97.47 69.31 L 92.41 69.31 L 94.94 73.69 L 97.47 69.31 L 100.00 64.93 L 94.94 64.93 L 97.47 69.31 L 94.94 73.69 L 92.41 69.31 L 94.94 64.93 L 89.88 64.93 L 92.41 69.31 L 94.94 73.69 L 92.83 77.35 L 90.72 81.00 L 89.87 82.46 L 84.81 73.69 L 87.34 69.31 L 82.28 69.31 L 84.81 73.69 L 87.34 69.31 L 89.88 64.93 L 84.81 64.93 L 87.34 69.31 L 84.81 73.69 L 82.28 69.31 L 84.81 64.93 L 79.75 64.93 L 82.28 69.31 L 84.81 73.69 L 89.87 82.46 L 99.56 99.24 L 100.00 100.00 L 100.45 99.22 L 120.25 64.93 L 122.78 60.54 L 117.72 60.54 L 120.25 64.93 L 122.78 60.54 L 125.31 56.16 L 120.25 56.16 L 122.78 60.54 L 120.25 64.93 L 117.72 60.54 L 120.25 56.16 L 115.19 56.16 L 117.72 60.54 L 120.25 64.93 L 125.31 56.16 L 127.84 51.77 L 122.78 51.77 L 125.31 56.16 L 127.84 51.77 L 130.37 47.39 L 125.31 47.39 L 127.84 51.77 L 125.31 56.16 L 122.78 51.77 L 125.31 47.39 L 120.25 47.39 L 122.78 51.77 L 125.31 56.16 L 120.25 64.93 L 117.30 59.81 L 115.19 56.16 L 117.72 51.77 L 112.66 51.77 L 115.19 56.16 L 117.72 51.77 L 120.25 47.39 L 115.19 47.39 L 117.72 51.77 L 115.19 56.16 L 112.66 51.77 L 115.19 47.39 L 110.12 47.39 L 112.66 51.77 L 115.19 56.16 L 118.14 61.27 L 120.25 64.93 L 130.37 47.39 L 132.91 43.00 L 127.84 43.00 L 130.37 47.39 L 132.91 43.00 L 135.44 38.62 L 130.37 38.62 L 132.91 43.00 L 130.37 47.39 L 127.84 43.00 L 130.37 38.62 L 125.31 38.62 L 127.84 43.00 L 130.37 47.39 L 135.44 38.62 L 137.97 34.24 L 132.91 34.24 L 135.44 38.62 L 137.97 34.24 L 140.50 29.85 L 135.44 29.85 L 137.97 34.24 L 135.44 38.62 L 132.91 34.24 L 135.44 29.85 L 130.37 29.85 L 132.91 34.24 L 135.44 38.62 L 130.37 47.39 L 127.00 41.54 L 125.31 38.62 L 127.84 34.24 L 122.78 34.24 L 125.31 38.62 L 127.84 34.24 L 130.37 29.85 L 125.31 29.85 L 127.84 34.24 L 125.31 38.62 L 122.78 34.24 L 125.31 29.85 L 120.25 29.85 L 122.78 34.24 L 125.31 38.62 L 128.69 44.47 L 130.37 47.39 L 120.25 64.93 L 117.61 60.35 L 114.53 55.01 L 111.45 49.68 L 110.12 47.39 L 112.66 43.00 L 107.59 43.00 L 110.12 47.39 L 112.66 43.00 L 115.19 38.62 L 110.12 38.62 L 112.66 43.00 L 110.12 47.39 L 107.59 43.00 L 110.12 38.62 L 105.06 38.62 L 107.59 43.00 L 110.12 47.39 L 114.77 39.35 L 115.19 38.62 L 117.72 34.24 L 112.66 34.24 L 115.19 38.62 L 117.72 34.24 L 120.25 29.85 L 115.19 29.85 L 117.72 34.24 L 115.19 38.62 L 112.66 34.24 L 115.19 29.85 L 110.13 29.85 L 112.66 34.24 L 115.19 38.62 L 110.55 46.66 L 110.12 47.39 L 106.75 41.54 L 105.06 38.62 L 107.59 34.24 L 102.53 34.24 L 105.06 38.62 L 107.59 34.24 L 110.13 29.85 L 105.06 29.85 L 107.59 34.24 L 105.06 38.62 L 102.53 34.24 L 105.06 29.85 L 100.00 29.85 L 102.53 34.24 L 105.06 38.62 L 108.44 44.47 L 110.12 47.39 L 113.21 52.73 L 116.29 58.06 L 118.93 62.64 L 120.25 64.93 L 100.45 99.22 L 100.00 100.00 L 99.55 99.22 L 79.75 64.93 L 82.28 60.54 L 77.22 60.54 L 79.75 64.93 L 82.28 60.54 L 84.81 56.16 L 79.75 56.16 L 82.28 60.54 L 79.75 64.93 L 77.22 60.54 L 79.75 56.16 L 74.69 56.16 L 77.22 60.54 L 79.75 64.93 L 82.70 59.81 L 84.81 56.16 L 87.34 51.77 L 82.28 51.77 L 84.81 56.16 L 87.34 51.77 L 89.87 47.39 L 84.81 47.39 L 87.34 51.77 L 84.81 56.16 L 82.28 51.77 L 84.81 47.39 L 79.75 47.39 L 82.28 51.77 L 84.81 56.16 L 81.86 61.27 L 79.75 64.93 L 74.69 56.16 L 77.22 51.77 L 72.16 51.77 L 74.69 56.16 L 77.22 51.77 L 79.75 47.39 L 74.69 47.39 L 77.22 51.77 L 74.69 56.16 L 72.16 51.77 L 74.69 47.39 L 69.62 47.39 L 72.16 51.77 L 74.69 56.16 L 79.75 64.93 L 82.39 60.35 L 85.47 55.01 L 88.55 49.68 L 89.87 47.39 L 92.41 43.00 L 87.34 43.00 L 89.87 47.39 L 92.41 43.00 L 94.94 38.62 L 89.88 38.62 L 92.41 43.00 L 89.87 47.39 L 87.34 43.00 L 89.88 38.62 L 84.81 38.62 L 87.34 43.00 L 89.87 47.39 L 93.25 41.54 L 94.94 38.62 L 97.47 34.24 L 92.41 34.24 L 94.94 38.62 L 97.47 34.24 L 100.00 29.85 L 94.94 29.85 L 97.47 34.24 L 94.94 38.62 L 92.41 34.24 L 94.94 29.85 L 89.88 29.85 L 92.41 34.24 L 94.94 38.62 L 91.56 44.47 L 89.87 47.39 L 85.23 39.35 L 84.81 38.62 L 87.34 34.24 L 82.28 34.24 L 84.81 38.62 L 87.34 34.24 L 89.88 29.85 L 84.81 29.85 L 87.34 34.24 L 84.81 38.62 L 82.28 34.24 L 84.81 29.85 L 79.75 29.85 L 82.28 34.24 L 84.81 38.62 L 89.45 46.66 L 89.87 47.39 L 86.79 52.73 L 83.71 58.06 L 81.07 62.64 L 79.75 64.93 L 69.62 47.39 L 72.16 43.00 L 67.09 43.00 L 69.62 47.39 L 72.16 43.00 L 74.69 38.62 L 69.62 38.62 L 72.16 43.00 L 69.62 47.39 L 67.09 43.00 L 69.62 38.62 L 64.56 38.62 L 67.09 43.00 L 69.62 47.39 L 73.00 41.54 L 74.69 38.62 L 77.22 34.24 L 72.16 34.24 L 74.69 38.62 L 77.22 34.24 L 79.75 29.85 L 74.69 29.85 L 77.22 34.24 L 74.69 38.62 L 72.16 34.24 L 74.69 29.85 L 69.62 29.85 L 72.16 34.24 L 74.69 38.62 L 71.31 44.47 L 69.62 47.39 L 64.56 38.62 L 67.09 34.24 L 62.03 34.24 L 64.56 38.62 L 67.09 34.24 L 69.62 29.85 L 64.56 29.85 L 67.09 34.24 L 64.56 38.62 L 62.03 34.24 L 64.56 29.85 L 59.50 29.85 L 62.03 34.24 L 64.56 38.62 L 69.62 47.39 L 79.75 64.93 L 99.55 99.22 L 100.00 100.00 L 100.84 100.00 L 105.06 100.00 L 104.22 98.54 L 103.38 97.08 L 102.53 95.62 L 100.42 99.27 L 100.00 100.00 L 100.84 100.00 L 105.06 100.00 L 110.12 100.00 L 108.86 97.81 L 107.59 95.62 L 106.33 97.81 L 105.48 99.27 L 105.06 100.00 L 100.84 100.00 L 100.00 100.00 L 100.42 99.27 L 102.53 95.62 L 104.22 95.62 L 106.75 95.62 L 107.59 95.62 L 106.33 93.42 L 105.06 91.23 L 102.53 95.62 L 100.42 99.27 L 100.00 100.00 L 100.84 100.00 L 110.12 100.00 L 115.19 100.00 L 113.50 97.08 L 112.66 95.62 L 111.39 97.81 L 110.12 100.00 L 115.19 100.00 L 120.25 100.00 L 118.56 97.08 L 117.72 95.62 L 116.03 98.54 L 115.19 100.00 L 110.12 100.00 L 111.39 97.81 L 112.66 95.62 L 117.72 95.62 L 116.03 92.69 L 115.19 91.23 L 113.50 94.15 L 112.66 95.62 L 111.39 97.81 L 110.12 100.00 L 100.84 100.00 L 100.00 100.00 L 100.42 99.27 L 105.06 91.23 L 107.59 91.23 L 110.12 91.23 L 108.44 88.31 L 107.59 86.85 L 105.06 91.23 L 107.59 91.23 L 110.12 91.23 L 113.50 91.23 L 115.19 91.23 L 113.50 88.31 L 112.66 86.85 L 110.12 91.23 L 107.59 91.23 L 105.06 91.23 L 107.59 86.85 L 110.97 86.85 L 112.66 86.85 L 110.97 83.92 L 110.13 82.46 L 107.59 86.85 L 105.06 91.23 L 100.42 99.27 L 100.00 100.00 L 100.88 100.00 L 120.25 100.00 L 125.31 100.00 L 123.20 96.35 L 122.78 95.62 L 120.67 99.27 L 120.25 100.00 L 125.31 100.00 L 130.38 100.00 L 128.27 96.35 L 127.84 95.62 L 125.73 99.27 L 125.31 100.00 L 120.25 100.00 L 122.36 96.35 L 122.78 95.62 L 127.84 95.62 L 125.73 91.96 L 125.31 91.23 L 123.20 94.89 L 122.78 95.62 L 120.67 99.27 L 120.25 100.00 L 130.38 100.00 L 135.44 100.00 L 132.91 95.62 L 130.38 100.00 L 135.44 100.00 L 140.50 100.00 L 137.97 95.62 L 135.44 100.00 L 130.38 100.00 L 132.91 95.62 L 137.97 95.62 L 135.44 91.23 L 132.91 95.62 L 130.38 100.00 L 120.25 100.00 L 122.36 96.35 L 124.47 92.69 L 125.31 91.23 L 130.38 91.23 L 127.84 86.85 L 125.31 91.23 L 130.38 91.23 L 135.44 91.23 L 132.91 86.85 L 130.38 91.23 L 125.31 91.23 L 127.84 86.85 L 132.91 86.85 L 130.37 82.46 L 127.84 86.85 L 125.31 91.23 L 123.20 94.89 L 121.09 98.54 L 120.25 100.00 L 100.88 100.00 L 100.00 100.00 L 100.44 99.24 L 110.13 82.46 L 114.34 82.46 L 115.19 82.46 L 113.08 78.81 L 112.66 78.08 L 110.13 82.46 L 114.34 82.46 L 115.19 82.46 L 119.41 82.46 L 120.25 82.46 L 118.14 78.81 L 117.72 78.08 L 115.19 82.46 L 110.97 82.46 L 110.13 82.46 L 112.66 78.08 L 116.88 78.08 L 117.72 78.08 L 115.61 74.43 L 115.19 73.69 L 112.66 78.08 L 110.13 82.46 L 114.34 82.46 L 118.56 82.46 L 120.25 82.46 L 125.31 82.46 L 122.78 78.08 L 120.25 82.46 L 125.31 82.46 L 130.37 82.46 L 127.84 78.08 L 125.31 82.46 L 120.25 82.46 L 122.78 78.08 L 127.84 78.08 L 125.31 73.69 L 122.78 78.08 L 120.25 82.46 L 116.03 82.46 L 111.81 82.46 L 110.13 82.46 L 115.19 73.69 L 120.25 73.69 L 117.72 69.31 L 115.19 73.69 L 120.25 73.69 L 125.31 73.69 L 122.78 69.31 L 120.25 73.69 L 115.19 73.69 L 117.72 69.31 L 122.78 69.31 L 120.25 64.93 L 117.72 69.31 L 115.19 73.69 L 110.13 82.46 L 100.44 99.24 L 100.00 100.00 L 100.90 100.00 L 140.50 100.00 L 145.56 100.00 L 143.03 95.62 L 140.50 100.00 L 145.56 100.00 L 150.62 100.00 L 148.09 95.62 L 145.56 100.00 L 140.50 100.00 L 143.03 95.62 L 148.09 95.62 L 145.56 91.23 L 143.03 95.62 L 140.50 100.00 L 150.62 100.00 L 155.69 100.00 L 153.16 95.62 L 150.62 100.00 L 155.69 100.00 L 160.75 100.00 L 158.22 95.62 L 155.69 100.00 L 150.62 100.00 L 153.16 95.62 L 158.22 95.62 L 155.69 91.23 L 153.16 95.62 L 150.62 100.00 L 140.50 100.00 L 143.45 94.89 L 145.56 91.23 L 150.62 91.23 L 148.09 86.85 L 145.56 91.23 L 150.62 91.23 L 155.69 91.23 L 153.16 86.85 L 150.62 91.23 L 145.56 91.23 L 148.09 86.85 L 153.16 86.85 L 150.62 82.46 L 148.09 86.85 L 145.56 91.23 L 142.61 96.35 L 140.50 100.00 L 160.75 100.00 L 165.81 100.00 L 163.28 95.62 L 160.75 100.00 L 165.81 100.00 L 170.88 100.00 L 168.34 95.62 L 165.81 100.00 L 160.75 100.00 L 163.28 95.62 L 168.34 95.62 L 165.81 91.23 L 163.28 95.62 L 160.75 100.00 L 170.88 100.00 L 175.94 100.00 L 173.41 95.62 L 170.88 100.00 L 175.94 100.00 L 181.00 100.00 L 178.47 95.62 L 175.94 100.00 L 170.88 100.00 L 173.41 95.62 L 178.47 95.62 L 175.94 91.23 L 173.41 95.62 L 170.88 100.00 L 160.75 100.00 L 164.12 94.15 L 165.81 91.23 L 170.88 91.23 L 168.34 86.85 L 165.81 91.23 L 170.88 91.23 L 175.94 91.23 L 173.41 86.85 L 170.88 91.23 L 165.81 91.23 L 168.34 86.85 L 173.41 86.85 L 170.88 82.46 L 168.34 86.85 L 165.81 91.23 L 162.44 97.08 L 160.75 100.00 L 140.50 100.00 L 143.14 95.43 L 146.22 90.09 L 149.30 84.75 L 150.62 82.46 L 155.69 82.46 L 153.16 78.08 L 150.62 82.46 L 155.69 82.46 L 160.75 82.46 L 158.22 78.08 L 155.69 82.46 L 150.62 82.46 L 153.16 78.08 L 158.22 78.08 L 155.69 73.69 L 153.16 78.08 L 150.62 82.46 L 159.91 82.46 L 160.75 82.46 L 165.81 82.46 L 163.28 78.08 L 160.75 82.46 L 165.81 82.46 L 170.88 82.46 L 168.34 78.08 L 165.81 82.46 L 160.75 82.46 L 163.28 78.08 L 168.34 78.08 L 165.81 73.69 L 163.28 78.08 L 160.75 82.46 L 151.47 82.46 L 150.62 82.46 L 154.00 76.62 L 155.69 73.69 L 160.75 73.69 L 158.22 69.31 L 155.69 73.69 L 160.75 73.69 L 165.81 73.69 L 163.28 69.31 L 160.75 73.69 L 155.69 73.69 L 158.22 69.31 L 163.28 69.31 L 160.75 64.93 L 158.22 69.31 L 155.69 73.69 L 152.31 79.54 L 150.62 82.46 L 147.54 87.80 L 144.46 93.14 L 141.82 97.71 L 140.50 100.00 L 100.90 100.00 L 100.00 100.00 L 100.45 99.22 L 120.25 64.93 L 125.31 64.93 L 122.78 60.54 L 120.25 64.93 L 125.31 64.93 L 130.38 64.93 L 127.84 60.54 L 125.31 64.93 L 120.25 64.93 L 122.78 60.54 L 127.84 60.54 L 125.31 56.16 L 122.78 60.54 L 120.25 64.93 L 126.16 64.93 L 130.38 64.93 L 135.44 64.93 L 132.91 60.54 L 130.38 64.93 L 135.44 64.93 L 140.50 64.93 L 137.97 60.54 L 135.44 64.93 L 130.38 64.93 L 132.91 60.54 L 137.97 60.54 L 135.44 56.16 L 132.91 60.54 L 130.38 64.93 L 124.47 64.93 L 120.25 64.93 L 125.31 56.16 L 130.37 56.16 L 127.84 51.77 L 125.31 56.16 L 130.37 56.16 L 135.44 56.16 L 132.91 51.77 L 130.37 56.16 L 125.31 56.16 L 127.84 51.77 L 132.91 51.77 L 130.38 47.39 L 127.84 51.77 L 125.31 56.16 L 120.25 64.93 L 125.53 64.93 L 131.70 64.93 L 137.86 64.93 L 140.50 64.93 L 145.56 64.93 L 143.03 60.54 L 140.50 64.93 L 145.56 64.93 L 150.62 64.93 L 148.09 60.54 L 145.56 64.93 L 140.50 64.93 L 143.03 60.54 L 148.09 60.54 L 145.56 56.16 L 143.03 60.54 L 140.50 64.93 L 147.25 64.93 L 150.62 64.93 L 155.69 64.93 L 153.16 60.54 L 150.62 64.93 L 155.69 64.93 L 160.75 64.93 L 158.22 60.54 L 155.69 64.93 L 150.62 64.93 L 153.16 60.54 L 158.22 60.54 L 155.69 56.16 L 153.16 60.54 L 150.62 64.93 L 143.88 64.93 L 140.50 64.93 L 145.14 56.89 L 145.56 56.16 L 150.63 56.16 L 148.09 51.77 L 145.56 56.16 L 150.63 56.16 L 155.69 56.16 L 153.16 51.77 L 150.63 56.16 L 145.56 56.16 L 148.09 51.77 L 153.16 51.77 L 150.63 47.39 L 148.09 51.77 L 145.56 56.16 L 140.92 64.20 L 140.50 64.93 L 134.34 64.93 L 128.17 64.93 L 122.89 64.93 L 120.25 64.93 L 130.38 47.39 L 135.44 47.39 L 132.91 43.00 L 130.38 47.39 L 135.44 47.39 L 140.50 47.39 L 137.97 43.00 L 135.44 47.39 L 130.38 47.39 L 132.91 43.00 L 137.97 43.00 L 135.44 38.62 L 132.91 43.00 L 130.38 47.39 L 137.12 47.39 L 140.50 47.39 L 145.56 47.39 L 143.03 43.00 L 140.50 47.39 L 145.56 47.39 L 150.63 47.39 L 148.09 43.00 L 145.56 47.39 L 140.50 47.39 L 143.03 43.00 L 148.09 43.00 L 145.56 38.62 L 143.03 43.00 L 140.50 47.39 L 133.75 47.39 L 130.38 47.39 L 135.44 38.62 L 140.50 38.62 L 137.97 34.24 L 135.44 38.62 L 140.50 38.62 L 145.56 38.62 L 143.03 34.24 L 140.50 38.62 L 135.44 38.62 L 137.97 34.24 L 143.03 34.24 L 140.50 29.85 L 137.97 34.24 L 135.44 38.62 L 130.38 47.39 L 120.25 64.93 L 100.45 99.22 L 100.00 100.00 L 101.27 102.19 L 102.53 104.38 L 103.38 102.92 L 104.22 101.46 L 105.06 100.00 L 100.84 100.00 L 100.00 100.00 L 101.27 102.19 L 102.53 104.38 L 105.06 108.77 L 106.33 106.58 L 107.59 104.38 L 105.06 104.38 L 103.38 104.38 L 102.53 104.38 L 100.42 100.73 L 100.00 100.00 L 100.84 100.00 L 105.06 100.00 L 105.91 101.46 L 107.17 103.65 L 107.59 104.38 L 108.86 102.19 L 110.12 100.00 L 105.06 100.00 L 100.84 100.00 L 100.00 100.00 L 101.27 102.19 L 105.06 108.77 L 107.59 113.15 L 109.28 110.23 L 110.12 108.77 L 107.59 108.77 L 105.06 108.77 L 107.59 113.15 L 110.12 117.54 L 111.81 114.61 L 112.66 113.15 L 109.28 113.15 L 107.59 113.15 L 105.06 108.77 L 107.59 108.77 L 110.12 108.77 L 112.66 113.15 L 114.34 110.23 L 115.19 108.77 L 111.81 108.77 L 110.12 108.77 L 107.59 108.77 L 105.06 108.77 L 100.42 100.73 L 100.00 100.00 L 100.84 100.00 L 110.12 100.00 L 111.39 102.19 L 112.66 104.38 L 114.34 101.46 L 115.19 100.00 L 110.12 100.00 L 111.39 102.19 L 112.66 104.38 L 114.34 107.31 L 115.19 108.77 L 116.88 105.85 L 117.72 104.38 L 112.66 104.38 L 111.39 102.19 L 110.12 100.00 L 115.19 100.00 L 116.88 102.92 L 117.72 104.38 L 119.41 101.46 L 120.25 100.00 L 115.19 100.00 L 110.12 100.00 L 100.84 100.00 L 100.00 100.00 L 101.32 102.29 L 110.12 117.54 L 112.66 121.92 L 114.77 118.27 L 115.19 117.54 L 110.97 117.54 L 110.12 117.54 L 112.66 121.92 L 115.19 126.31 L 117.30 122.65 L 117.72 121.92 L 113.50 121.92 L 112.66 121.92 L 110.12 117.54 L 114.34 117.54 L 115.19 117.54 L 117.72 121.92 L 119.83 118.27 L 120.25 117.54 L 116.03 117.54 L 115.19 117.54 L 110.97 117.54 L 110.12 117.54 L 115.19 126.31 L 117.72 130.69 L 120.25 126.31 L 115.19 126.31 L 117.72 130.69 L 120.25 135.07 L 122.78 130.69 L 117.72 130.69 L 115.19 126.31 L 120.25 126.31 L 122.78 130.69 L 125.31 126.31 L 120.25 126.31 L 115.19 126.31 L 110.12 117.54 L 114.34 117.54 L 118.56 117.54 L 120.25 117.54 L 122.78 121.92 L 125.31 117.54 L 120.25 117.54 L 122.78 121.92 L 125.31 126.31 L 127.84 121.92 L 122.78 121.92 L 120.25 117.54 L 125.31 117.54 L 127.84 121.92 L 130.37 117.54 L 125.31 117.54 L 120.25 117.54 L 116.03 117.54 L 111.81 117.54 L 110.12 117.54 L 100.44 100.76 L 100.00 100.00 L 100.88 100.00 L 120.25 100.00 L 122.36 103.65 L 122.78 104.38 L 124.89 100.73 L 125.31 100.00 L 120.25 100.00 L 122.36 103.65 L 122.78 104.38 L 124.89 108.04 L 125.31 108.77 L 127.42 105.11 L 127.84 104.38 L 122.78 104.38 L 120.67 100.73 L 120.25 100.00 L 125.31 100.00 L 127.42 103.65 L 127.84 104.38 L 129.95 100.73 L 130.38 100.00 L 125.31 100.00 L 120.25 100.00 L 122.36 103.65 L 124.47 107.31 L 125.31 108.77 L 127.84 113.15 L 130.38 108.77 L 125.31 108.77 L 127.84 113.15 L 130.37 117.54 L 132.91 113.15 L 127.84 113.15 L 125.31 108.77 L 130.38 108.77 L 132.91 113.15 L 135.44 108.77 L 130.38 108.77 L 125.31 108.77 L 123.20 105.11 L 121.09 101.46 L 120.25 100.00 L 130.38 100.00 L 132.91 104.38 L 135.44 100.00 L 130.38 100.00 L 132.91 104.38 L 135.44 108.77 L 137.97 104.38 L 132.91 104.38 L 130.38 100.00 L 135.44 100.00 L 137.97 104.38 L 140.50 100.00 L 135.44 100.00 L 130.38 100.00 L 120.25 100.00 L 100.88 100.00 L 100.00 100.00 L 104.95 108.57 L 120.25 135.07 L 122.78 139.46 L 125.31 135.07 L 120.25 135.07 L 122.78 139.46 L 125.31 143.84 L 127.84 139.46 L 122.78 139.46 L 120.25 135.07 L 125.31 135.07 L 127.84 139.46 L 130.38 135.07 L 125.31 135.07 L 120.25 135.07 L 125.31 143.84 L 127.84 148.23 L 130.37 143.84 L 125.31 143.84 L 127.84 148.23 L 130.37 152.61 L 132.91 148.23 L 127.84 148.23 L 125.31 143.84 L 130.37 143.84 L 132.91 148.23 L 135.44 143.84 L 130.37 143.84 L 125.31 143.84 L 120.25 135.07 L 126.16 135.07 L 130.38 135.07 L 132.91 139.46 L 135.44 135.07 L 130.38 135.07 L 132.91 139.46 L 135.44 143.84 L 137.97 139.46 L 132.91 139.46 L 130.38 135.07 L 135.44 135.07 L 137.97 139.46 L 140.50 135.07 L 135.44 135.07 L 130.38 135.07 L 124.47 135.07 L 120.25 135.07 L 130.37 152.61 L 132.91 157.00 L 135.44 152.61 L 130.37 152.61 L 132.91 157.00 L 135.44 161.38 L 137.97 157.00 L 132.91 157.00 L 130.37 152.61 L 135.44 152.61 L 137.97 157.00 L 140.50 152.61 L 135.44 152.61 L 130.37 152.61 L 135.44 161.38 L 137.97 165.76 L 140.50 161.38 L 135.44 161.38 L 137.97 165.76 L 140.50 170.15 L 143.03 165.76 L 137.97 165.76 L 135.44 161.38 L 140.50 161.38 L 143.03 165.76 L 145.56 161.38 L 140.50 161.38 L 135.44 161.38 L 130.37 152.61 L 137.12 152.61 L 140.50 152.61 L 143.03 157.00 L 145.56 152.61 L 140.50 152.61 L 143.03 157.00 L 145.56 161.38 L 148.09 157.00 L 143.03 157.00 L 140.50 152.61 L 145.56 152.61 L 148.09 157.00 L 150.62 152.61 L 145.56 152.61 L 140.50 152.61 L 133.75 152.61 L 130.37 152.61 L 120.25 135.07 L 125.53 135.07 L 131.70 135.07 L 137.86 135.07 L 140.50 135.07 L 143.03 139.46 L 145.56 135.07 L 140.50 135.07 L 143.03 139.46 L 145.56 143.84 L 148.09 139.46 L 143.03 139.46 L 140.50 135.07 L 145.56 135.07 L 148.09 139.46 L 150.62 135.07 L 145.56 135.07 L 140.50 135.07 L 145.14 143.11 L 145.56 143.84 L 148.09 148.23 L 150.63 143.84 L 145.56 143.84 L 148.09 148.23 L 150.62 152.61 L 153.16 148.23 L 148.09 148.23 L 145.56 143.84 L 150.63 143.84 L 153.16 148.23 L 155.69 143.84 L 150.63 143.84 L 145.56 143.84 L 140.92 135.80 L 140.50 135.07 L 147.25 135.07 L 150.62 135.07 L 153.16 139.46 L 155.69 135.07 L 150.62 135.07 L 153.16 139.46 L 155.69 143.84 L 158.22 139.46 L 153.16 139.46 L 150.62 135.07 L 155.69 135.07 L 158.22 139.46 L 160.75 135.07 L 155.69 135.07 L 150.62 135.07 L 143.88 135.07 L 140.50 135.07 L 134.34 135.07 L 128.17 135.07 L 122.89 135.07 L 120.25 135.07 L 100.45 100.78 L 100.00 100.00 L 100.90 100.00 L 140.50 100.00 L 143.03 104.38 L 145.56 100.00 L 140.50 100.00 L 143.03 104.38 L 145.56 108.77 L 148.09 104.38 L 143.03 104.38 L 140.50 100.00 L 145.56 100.00 L 148.09 104.38 L 150.62 100.00 L 145.56 100.00 L 140.50 100.00 L 143.45 105.11 L 145.56 108.77 L 148.09 113.15 L 150.62 108.77 L 145.56 108.77 L 148.09 113.15 L 150.62 117.54 L 153.16 113.15 L 148.09 113.15 L 145.56 108.77 L 150.62 108.77 L 153.16 113.15 L 155.69 108.77 L 150.62 108.77 L 145.56 108.77 L 142.61 103.65 L 140.50 100.00 L 150.62 100.00 L 153.16 104.38 L 155.69 100.00 L 150.62 100.00 L 153.16 104.38 L 155.69 108.77 L 158.22 104.38 L 153.16 104.38 L 150.62 100.00 L 155.69 100.00 L 158.22 104.38 L 160.75 100.00 L 155.69 100.00 L 150.62 100.00 L 140.50 100.00 L 143.14 104.57 L 146.22 109.91 L 149.30 115.25 L 150.62 117.54 L 153.16 121.92 L 155.69 117.54 L 150.62 117.54 L 153.16 121.92 L 155.69 126.31 L 158.22 121.92 L 153.16 121.92 L 150.62 117.54 L 155.69 117.54 L 158.22 121.92 L 160.75 117.54 L 155.69 117.54 L 150.62 117.54 L 154.00 123.38 L 155.69 126.31 L 158.22 130.69 L 160.75 126.31 L 155.69 126.31 L 158.22 130.69 L 160.75 135.07 L 163.28 130.69 L 158.22 130.69 L 155.69 126.31 L 160.75 126.31 L 163.28 130.69 L 165.81 126.31 L 160.75 126.31 L 155.69 126.31 L 152.31 120.46 L 150.62 117.54 L 159.91 117.54 L 160.75 117.54 L 163.28 121.92 L 165.81 117.54 L 160.75 117.54 L 163.28 121.92 L 165.81 126.31 L 168.34 121.92 L 163.28 121.92 L 160.75 117.54 L 165.81 117.54 L 168.34 121.92 L 170.88 117.54 L 165.81 117.54 L 160.75 117.54 L 151.47 117.54 L 150.62 117.54 L 147.54 112.20 L 144.46 106.86 L 141.82 102.29 L 140.50 100.00 L 160.75 100.00 L 163.28 104.38 L 165.81 100.00 L 160.75 100.00 L 163.28 104.38 L 165.81 108.77 L 168.34 104.38 L 163.28 104.38 L 160.75 100.00 L 165.81 100.00 L 168.34 104.38 L 170.88 100.00 L 165.81 100.00 L 160.75 100.00 L 164.12 105.85 L 165.81 108.77 L 168.34 113.15 L 170.88 108.77 L 165.81 108.77 L 168.34 113.15 L 170.88 117.54 L 173.41 113.15 L 168.34 113.15 L 165.81 108.77 L 170.88 108.77 L 173.41 113.15 L 175.94 108.77 L 170.88 108.77 L 165.81 108.77 L 162.44 102.92 L 160.75 100.00 L 170.88 100.00 L 173.41 104.38 L 175.94 100.00 L 170.88 100.00 L 173.41 104.38 L 175.94 108.77 L 178.47 104.38 L 173.41 104.38 L 170.88 100.00 L 175.94 100.00 L 178.47 104.38 L 181.00 100.00 L 175.94 100.00 L 170.88 100.00 L 160.75 100.00 L 140.50 100.00 L 100.90 100.00 L 100.00 100.00 L 99.58 100.73 L 97.47 104.38 L 99.16 104.38 L 100.84 104.38 L 102.53 104.38 L 100.42 100.73 L 100.00 100.00 L 99.58 100.73 L 97.47 104.38 L 94.94 108.77 L 97.47 108.77 L 100.00 108.77 L 98.73 106.58 L 97.89 105.11 L 97.47 104.38 L 99.58 100.73 L 100.00 100.00 L 100.42 100.73 L 102.53 104.38 L 101.69 105.85 L 100.42 108.04 L 100.00 108.77 L 102.53 108.77 L 105.06 108.77 L 102.53 104.38 L 100.42 100.73 L 100.00 100.00 L 99.58 100.73 L 94.94 108.77 L 92.41 113.15 L 95.78 113.15 L 97.47 113.15 L 96.20 110.96 L 94.94 108.77 L 92.41 113.15 L 89.88 117.54 L 93.25 117.54 L 94.94 117.54 L 93.25 114.61 L 92.41 113.15 L 94.94 108.77 L 96.20 110.96 L 97.47 113.15 L 94.94 117.54 L 98.31 117.54 L 100.00 117.54 L 98.31 114.61 L 97.47 113.15 L 96.20 110.96 L 94.94 108.77 L 99.58 100.73 L 100.00 100.00 L 100.42 100.73 L 105.06 108.77 L 103.80 110.96 L 102.53 113.15 L 105.91 113.15 L 107.59 113.15 L 105.06 108.77 L 103.80 110.96 L 102.53 113.15 L 100.84 116.08 L 100.00 117.54 L 103.38 117.54 L 105.06 117.54 L 102.53 113.15 L 103.80 110.96 L 105.06 108.77 L 107.59 113.15 L 105.91 116.08 L 105.06 117.54 L 108.44 117.54 L 110.12 117.54 L 107.59 113.15 L 105.06 108.77 L 100.42 100.73 L 100.00 100.00 L 99.56 100.76 L 89.88 117.54 L 87.34 121.92 L 91.56 121.92 L 92.41 121.92 L 90.30 118.27 L 89.88 117.54 L 87.34 121.92 L 84.81 126.31 L 89.03 126.31 L 89.87 126.31 L 87.77 122.65 L 87.34 121.92 L 89.88 117.54 L 91.98 121.19 L 92.41 121.92 L 89.87 126.31 L 94.09 126.31 L 94.94 126.31 L 92.83 122.65 L 92.41 121.92 L 90.30 118.27 L 89.88 117.54 L 84.81 126.31 L 82.28 130.69 L 87.34 130.69 L 84.81 126.31 L 82.28 130.69 L 79.75 135.07 L 84.81 135.07 L 82.28 130.69 L 84.81 126.31 L 87.34 130.69 L 84.81 135.07 L 89.87 135.07 L 87.34 130.69 L 84.81 126.31 L 89.88 117.54 L 91.98 121.19 L 94.09 124.84 L 94.94 126.31 L 92.41 130.69 L 97.47 130.69 L 94.94 126.31 L 92.41 130.69 L 89.87 135.07 L 94.94 135.07 L 92.41 130.69 L 94.94 126.31 L 97.47 130.69 L 94.94 135.07 L 100.00 135.07 L 97.47 130.69 L 94.94 126.31 L 92.83 122.65 L 90.72 119.00 L 89.88 117.54 L 99.56 100.76 L 100.00 100.00 L 100.44 100.76 L 110.12 117.54 L 108.02 121.19 L 107.59 121.92 L 111.81 121.92 L 112.66 121.92 L 110.12 117.54 L 108.02 121.19 L 107.59 121.92 L 105.48 125.57 L 105.06 126.31 L 109.28 126.31 L 110.13 126.31 L 107.59 121.92 L 109.70 118.27 L 110.12 117.54 L 112.66 121.92 L 110.55 125.57 L 110.13 126.31 L 114.34 126.31 L 115.19 126.31 L 112.66 121.92 L 110.12 117.54 L 108.02 121.19 L 105.91 124.84 L 105.06 126.31 L 102.53 130.69 L 107.59 130.69 L 105.06 126.31 L 102.53 130.69 L 100.00 135.07 L 105.06 135.07 L 102.53 130.69 L 105.06 126.31 L 107.59 130.69 L 105.06 135.07 L 110.13 135.07 L 107.59 130.69 L 105.06 126.31 L 107.17 122.65 L 109.28 119.00 L 110.12 117.54 L 115.19 126.31 L 112.66 130.69 L 117.72 130.69 L 115.19 126.31 L 112.66 130.69 L 110.13 135.07 L 115.19 135.07 L 112.66 130.69 L 115.19 126.31 L 117.72 130.69 L 115.19 135.07 L 120.25 135.07 L 117.72 130.69 L 115.19 126.31 L 110.12 117.54 L 100.44 100.76 L 100.00 100.00 L 99.55 100.78 L 79.75 135.07 L 77.22 139.46 L 82.28 139.46 L 79.75 135.07 L 77.22 139.46 L 74.69 143.84 L 79.75 143.84 L 77.22 139.46 L 79.75 135.07 L 82.28 139.46 L 79.75 143.84 L 84.81 143.84 L 82.28 139.46 L 79.75 135.07 L 74.69 143.84 L 72.16 148.23 L 77.22 148.23 L 74.69 143.84 L 72.16 148.23 L 69.63 152.61 L 74.69 152.61 L 72.16 148.23 L 74.69 143.84 L 77.22 148.23 L 74.69 152.61 L 79.75 152.61 L 77.22 148.23 L 74.69 143.84 L 79.75 135.07 L 82.70 140.19 L 84.81 143.84 L 82.28 148.23 L 87.34 148.23 L 84.81 143.84 L 82.28 148.23 L 79.75 152.61 L 84.81 152.61 L 82.28 148.23 L 84.81 143.84 L 87.34 148.23 L 84.81 152.61 L 89.87 152.61 L 87.34 148.23 L 84.81 143.84 L 81.86 138.73 L 79.75 135.07 L 69.63 152.61 L 67.09 157.00 L 72.16 157.00 L 69.63 152.61 L 67.09 157.00 L 64.56 161.38 L 69.62 161.38 L 67.09 157.00 L 69.63 152.61 L 72.16 157.00 L 69.62 161.38 L 74.69 161.38 L 72.16 157.00 L 69.63 152.61 L 64.56 161.38 L 62.03 165.76 L 67.09 165.76 L 64.56 161.38 L 62.03 165.76 L 59.50 170.15 L 64.56 170.15 L 62.03 165.76 L 64.56 161.38 L 67.09 165.76 L 64.56 170.15 L 69.63 170.15 L 67.09 165.76 L 64.56 161.38 L 69.63 152.61 L 73.00 158.46 L 74.69 161.38 L 72.16 165.76 L 77.22 165.76 L 74.69 161.38 L 72.16 165.76 L 69.63 170.15 L 74.69 170.15 L 72.16 165.76 L 74.69 161.38 L 77.22 165.76 L 74.69 170.15 L 79.75 170.15 L 77.22 165.76 L 74.69 161.38 L 71.31 155.53 L 69.63 152.61 L 79.75 135.07 L 82.39 139.65 L 85.47 144.99 L 88.55 150.32 L 89.87 152.61 L 87.34 157.00 L 92.41 157.00 L 89.87 152.61 L 87.34 157.00 L 84.81 161.38 L 89.87 161.38 L 87.34 157.00 L 89.87 152.61 L 92.41 157.00 L 89.87 161.38 L 94.94 161.38 L 92.41 157.00 L 89.87 152.61 L 85.23 160.65 L 84.81 161.38 L 82.28 165.76 L 87.34 165.76 L 84.81 161.38 L 82.28 165.76 L 79.75 170.15 L 84.81 170.15 L 82.28 165.76 L 84.81 161.38 L 87.34 165.76 L 84.81 170.15 L 89.88 170.15 L 87.34 165.76 L 84.81 161.38 L 89.45 153.34 L 89.87 152.61 L 93.25 158.46 L 94.94 161.38 L 92.41 165.76 L 97.47 165.76 L 94.94 161.38 L 92.41 165.76 L 89.88 170.15 L 94.94 170.15 L 92.41 165.76 L 94.94 161.38 L 97.47 165.76 L 94.94 170.15 L 100.00 170.15 L 97.47 165.76 L 94.94 161.38 L 91.56 155.53 L 89.87 152.61 L 86.79 147.27 L 83.71 141.94 L 81.07 137.36 L 79.75 135.07 L 99.55 100.78 L 100.00 100.00 L 100.45 100.78 L 120.25 135.07 L 117.72 139.46 L 122.78 139.46 L 120.25 135.07 L 117.72 139.46 L 115.19 143.84 L 120.25 143.84 L 117.72 139.46 L 120.25 135.07 L 122.78 139.46 L 120.25 143.84 L 125.31 143.84 L 122.78 139.46 L 120.25 135.07 L 117.30 140.19 L 115.19 143.84 L 112.66 148.23 L 117.72 148.23 L 115.19 143.84 L 112.66 148.23 L 110.13 152.61 L 115.19 152.61 L 112.66 148.23 L 115.19 143.84 L 117.72 148.23 L 115.19 152.61 L 120.25 152.61 L 117.72 148.23 L 115.19 143.84 L 118.14 138.73 L 120.25 135.07 L 125.31 143.84 L 122.78 148.23 L 127.84 148.23 L 125.31 143.84 L 122.78 148.23 L 120.25 152.61 L 125.31 152.61 L 122.78 148.23 L 125.31 143.84 L 127.84 148.23 L 125.31 152.61 L 130.37 152.61 L 127.84 148.23 L 125.31 143.84 L 120.25 135.07 L 117.61 139.65 L 114.53 144.99 L 111.45 150.32 L 110.13 152.61 L 107.59 157.00 L 112.66 157.00 L 110.13 152.61 L 107.59 157.00 L 105.06 161.38 L 110.13 161.38 L 107.59 157.00 L 110.13 152.61 L 112.66 157.00 L 110.13 161.38 L 115.19 161.38 L 112.66 157.00 L 110.13 152.61 L 106.75 158.46 L 105.06 161.38 L 102.53 165.76 L 107.59 165.76 L 105.06 161.38 L 102.53 165.76 L 100.00 170.15 L 105.06 170.15 L 102.53 165.76 L 105.06 161.38 L 107.59 165.76 L 105.06 170.15 L 110.12 170.15 L 107.59 165.76 L 105.06 161.38 L 108.44 155.53 L 110.13 152.61 L 114.77 160.65 L 115.19 161.38 L 112.66 165.76 L 117.72 165.76 L 115.19 161.38 L 112.66 165.76 L 110.12 170.15 L 115.19 170.15 L 112.66 165.76 L 115.19 161.38 L 117.72 165.76 L 115.19 170.15 L 120.25 170.15 L 117.72 165.76 L 115.19 161.38 L 110.55 153.34 L 110.13 152.61 L 113.21 147.27 L 116.29 141.94 L 118.93 137.36 L 120.25 135.07 L 130.37 152.61 L 127.84 157.00 L 132.91 157.00 L 130.37 152.61 L 127.84 157.00 L 125.31 161.38 L 130.38 161.38 L 127.84 157.00 L 130.37 152.61 L 132.91 157.00 L 130.38 161.38 L 135.44 161.38 L 132.91 157.00 L 130.37 152.61 L 127.00 158.46 L 125.31 161.38 L 122.78 165.76 L 127.84 165.76 L 125.31 161.38 L 122.78 165.76 L 120.25 170.15 L 125.31 170.15 L 122.78 165.76 L 125.31 161.38 L 127.84 165.76 L 125.31 170.15 L 130.37 170.15 L 127.84 165.76 L 125.31 161.38 L 128.69 155.53 L 130.37 152.61 L 135.44 161.38 L 132.91 165.76 L 137.97 165.76 L 135.44 161.38 L 132.91 165.76 L 130.37 170.15 L 135.44 170.15 L 132.91 165.76 L 135.44 161.38 L 137.97 165.76 L 135.44 170.15 L 140.50 170.15 L 137.97 165.76 L 135.44 161.38 L 130.37 152.61 L 120.25 135.07 L 100.45 100.78 L 100.00 100.00 L 100.00 100.00 L 100.00 100.00" 
          fill="none" 
          stroke="currentColor" 
          stroke-width="0.5"/>
</svg>