<?xml version="1.0" encoding="UTF-8" standalone="no"?>
<svg width="100%" height="100%" viewBox="0 0 200 200" preserveAspectRatio="xMidYMid meet" xmlns="http://www.w3.org/2000/svg">
    <path d="M 82.00 100.00 L 10.00 100.00 L 28.00 100.00 L 82.00 100.00 L 117.94 98.58 L 171.78 94.32 L 28.90 111.32 L 82.22 102.83 L 117.50 95.78 L 169.99 83.11 L 31.56 122.36 L 82.89 105.59 L 116.62 93.08 L 166.46 72.32 L 35.93 132.84 L 83.98 108.21 L 115.32 90.55 L 161.29 62.21 L 41.88 142.50 L 85.47 110.63 L 113.65 88.26 L 154.58 53.05 L 49.29 151.11 L 87.32 112.78 L 111.63 86.26 L 146.52 45.05 L 57.96 158.45 L 89.49 114.61 L 109.33 84.60 L 137.30 38.42 L 67.67 164.33 L 91.92 116.08 L 106.79 83.33 L 127.16 33.32 L 78.18 168.62 L 94.55 117.15 L 104.08 82.47 L 116.34 29.88 L 89.24 171.19 L 97.31 117.80 L 101.28 82.05 L 105.11 28.18 L 100.57 172.00 L 100.14 118.00 L 98.44 82.07 L 93.76 28.27 L 111.88 171.01 L 102.97 117.75 L 95.64 82.54 L 82.56 30.14 L 122.90 168.26 L 105.72 117.07 L 92.95 83.44 L 71.79 33.76 L 133.34 163.81 L 108.34 115.95 L 90.43 84.75 L 61.73 39.01 L 142.96 157.78 L 110.74 114.44 L 88.15 86.45 L 52.62 45.79 L 151.51 150.31 L 112.88 112.58 L 86.17 88.48 L 44.68 53.91 L 158.78 141.58 L 114.69 110.40 L 84.53 90.80 L 38.13 63.18 L 164.59 131.82 L 116.15 107.96 L 83.28 93.34 L 33.11 73.37 L 168.79 121.27 L 117.20 105.32 L 82.44 96.05 L 29.75 84.22 L 171.27 110.20 L 117.82 102.55 L 82.04 98.86 L 28.14 95.46 L 171.99 98.86 L 118.00 99.72 L 82.08 101.70 L 28.32 106.81 L 170.92 87.56 L 117.73 96.89 L 82.57 104.50 L 30.28 117.99 L 168.08 76.57 L 117.02 94.14 L 83.50 107.18 L 33.98 128.73 L 163.55 66.15 L 115.89 91.54 L 84.83 109.69 L 39.32 138.75 L 157.44 56.58 L 114.36 89.15 L 86.54 111.95 L 46.17 147.81 L 149.90 48.09 L 112.47 87.02 L 88.59 113.92 L 54.35 155.68 L 141.12 40.89 L 110.28 85.22 L 90.92 115.54 L 63.67 162.16 L 131.31 35.17 L 107.83 83.79 L 93.47 116.78 L 73.90 167.10 L 120.73 31.05 L 105.18 82.76 L 96.19 117.59 L 84.77 170.37 L 109.63 28.65 L 102.41 82.16 L 99.01 117.97 L 96.02 171.89 L 98.30 28.02 L 99.57 82.01 L 101.84 117.91 L 107.38 171.62 L 87.00 29.18 L 96.75 82.30 L 104.64 117.39 L 118.54 169.57 L 76.03 32.11 L 94.01 83.03 L 107.31 116.45 L 129.25 165.79 L 65.65 36.72 L 91.41 84.18 L 109.81 115.09 L 139.23 160.37 L 56.13 42.91 L 89.03 85.73 L 112.06 113.36 L 148.23 153.46 L 47.70 50.51 L 86.93 87.63 L 114.01 111.30 L 156.04 145.21 L 40.57 59.35 L 85.14 89.84 L 115.61 108.96 L 162.45 135.84 L 34.92 69.20 L 83.73 92.30 L 116.83 106.39 L 167.31 125.57 L 30.89 79.81 L 82.72 94.95 L 117.62 103.67 L 170.49 114.67 L 28.57 90.93 L 82.14 97.73 L 117.98 100.85 L 171.92 103.41 L 28.04 102.27 L 82.01 100.57 L 117.89 98.01 L 171.56 92.06 L 29.29 113.56 L 82.32 103.39 L 117.36 95.23 L 169.42 80.91 L 32.30 124.51 L 83.07 106.13 L 116.39 92.56 L 165.56 70.23 L 36.99 134.85 L 84.25 108.71 L 115.02 90.07 L 160.06 60.29 L 43.26 144.32 L 85.81 111.08 L 113.27 87.84 L 153.07 51.35 L 50.93 152.69 L 87.73 113.17 L 111.19 85.90 L 144.76 43.61 L 59.82 159.75 L 89.96 114.94 L 108.84 84.32 L 135.34 37.27 L 69.71 165.32 L 92.43 116.33 L 106.26 83.12 L 125.04 32.49 L 80.36 169.27 L 95.09 117.32 L 103.53 82.35 L 114.12 29.40 L 91.49 171.50 L 97.87 117.87 L 100.71 82.01 L 102.84 28.06 L 102.84 171.94 L 100.71 117.99 L 97.87 82.13 L 91.49 28.50 L 114.12 170.60 L 103.53 117.65 L 95.09 82.68 L 80.36 30.73 L 125.04 167.51 L 106.26 116.88 L 92.43 83.67 L 69.71 34.68 L 135.34 162.73 L 108.84 115.68 L 89.96 85.06 L 59.82 40.25 L 144.76 156.39 L 111.19 114.10 L 87.73 86.83 L 50.93 47.31 L 153.07 148.65 L 113.27 112.16 L 85.81 88.92 L 43.26 55.68 L 160.06 139.71 L 115.02 109.93 L 84.25 91.29 L 36.99 65.15 L 165.56 129.77 L 116.39 107.44 L 83.07 93.87 L 32.30 75.49 L 169.42 119.09 L 117.36 104.77 L 82.32 96.61 L 29.29 86.44 L 171.56 107.94 L 117.89 101.99 L 82.01 99.43 L 28.04 97.73 L 171.92 96.59 L 117.98 99.15 L 82.14 102.27 L 28.57 109.07 L 170.49 85.33 L 117.62 96.33 L 82.72 105.05 L 30.89 120.19 L 167.31 74.43 L 116.83 93.61 L 83.73 107.70 L 34.92 130.80 L 162.45 64.16 L 115.61 91.04 L 85.14 110.16 L 40.57 140.65 L 156.04 54.79 L 114.01 88.70 L 86.93 112.37 L 47.70 149.49 L 148.23 46.54 L 112.06 86.64 L 89.03 114.27 L 56.13 157.09 L 139.23 39.63 L 109.81 84.91 L 91.41 115.82 L 65.65 163.28 L 129.25 34.21 L 107.31 83.55 L 94.01 116.97 L 76.03 167.89 L 118.54 30.43 L 104.64 82.61 L 96.75 117.70 L 87.00 170.82 L 107.38 28.38 L 101.84 82.09 L 99.57 117.99 L 98.30 171.98 L 96.02 28.11 L 99.01 82.03 L 102.41 117.84 L 109.63 171.35 L 84.77 29.63 L 96.19 82.41 L 105.18 117.24 L 120.73 168.95 L 73.90 32.90 L 93.47 83.22 L 107.83 116.21 L 131.31 164.83 L 63.67 37.84 L 90.92 84.46 L 110.28 114.78 L 141.12 159.11 L 54.35 44.32 L 88.59 86.08 L 112.47 112.98 L 149.90 151.91 L 46.17 52.19 L 86.54 88.05 L 114.36 110.85 L 157.44 143.42 L 39.32 61.25 L 84.83 90.31 L 115.89 108.46 L 163.55 133.85 L 33.98 71.27 L 83.50 92.82 L 117.02 105.86 L 168.08 123.43 L 30.28 82.01 L 82.57 95.50 L 117.73 103.11 L 170.92 112.44 L 28.32 93.19 L 82.08 98.30 L 118.00 100.28 L 171.99 101.14 L 28.14 104.54 L 82.04 101.14 L 117.82 97.45 L 171.27 89.80 L 29.75 115.78 L 82.44 103.95 L 117.20 94.68 L 168.79 78.73 L 33.11 126.63 L 83.28 106.66 L 116.15 92.04 L 164.59 68.18 L 38.13 136.82 L 84.53 109.20 L 114.69 89.60 L 158.78 58.42 L 44.68 146.09 L 86.17 111.52 L 112.88 87.42 L 151.51 49.69 L 52.62 154.21 L 88.15 113.55 L 110.74 85.56 L 142.96 42.22 L 61.73 160.99 L 90.43 115.25 L 108.34 84.05 L 133.34 36.19 L 71.79 166.24 L 92.95 116.56 L 105.72 82.93 L 122.90 31.74 L 82.56 169.86 L 95.64 117.46 L 102.97 82.25 L 111.88 28.99 L 93.76 171.73 L 98.44 117.93 L 100.14 82.00 L 100.57 28.00 L 105.11 171.82 L 101.28 117.95 L 97.31 82.20 L 89.24 28.81 L 116.34 170.12 L 104.08 117.53 L 94.55 82.85 L 78.18 31.38 L 127.16 166.68 L 106.79 116.67 L 91.92 83.92 L 67.67 35.67 L 137.30 161.58 L 109.33 115.40 L 89.49 85.39 L 57.96 41.55 L 146.52 154.95 L 111.63 113.74 L 87.32 87.22 L 49.29 48.89 L 154.58 146.95 L 113.65 111.74 L 85.47 89.37 L 41.88 57.50 L 161.29 137.79 L 115.32 109.45 L 83.98 91.79 L 35.93 67.16 L 166.46 127.68 L 116.62 106.92 L 82.89 94.41 L 31.56 77.64 L 169.99 116.89 L 117.50 104.22 L 82.22 97.17 L 28.90 88.68 L 171.78 105.68 L 117.94 101.42 L 82.00 100.00 L 100.00 100.00 L 100.00 100.00" 
          fill="none" 
          stroke="currentColor" 
          stroke-width="0.5"/>
</svg>