<?xml version="1.0" encoding="UTF-8" standalone="no"?>
<svg width="100%" height="100%" viewBox="0 0 200 200" preserveAspectRatio="xMidYMid meet" xmlns="http://www.w3.org/2000/svg">
    <path d="M 100.00 100.00 L 100.00 100.00 L 99.10 100.00 L 10.00 100.00 L 10.04 97.17 L 99.10 99.97 L 99.10 99.94 L 90.94 99.13 L 60.68 97.42 L 29.57 95.93 L 11.03 94.45 L 10.18 94.35 L 10.40 91.53 L 27.88 93.57 L 57.16 95.90 L 87.52 98.45 L 98.67 99.85 L 99.10 99.92 L 99.11 99.89 L 94.94 98.94 L 68.77 95.51 L 47.60 93.69 L 28.54 91.79 L 15.36 89.77 L 10.71 88.72 L 11.11 85.92 L 22.09 88.45 L 37.93 90.86 L 57.69 93.18 L 78.98 95.83 L 97.28 99.35 L 99.11 99.86 L 99.12 99.83 L 96.34 98.82 L 67.22 92.93 L 50.33 90.89 L 34.99 88.83 L 22.48 86.44 L 13.42 83.82 L 11.59 83.14 L 12.17 80.37 L 20.91 83.47 L 32.29 86.25 L 46.31 88.70 L 61.98 91.02 L 79.56 94.04 L 96.81 98.86 L 99.12 99.80 L 99.13 99.78 L 97.31 98.83 L 89.54 95.62 L 71.50 91.16 L 57.46 88.92 L 44.51 86.94 L 33.10 84.75 L 23.45 82.12 L 15.57 79.01 L 12.83 77.62 L 13.57 74.89 L 21.10 78.61 L 30.28 81.81 L 40.58 84.37 L 52.38 86.63 L 65.98 89.04 L 81.90 92.68 L 95.93 98.01 L 98.69 99.49 L 99.14 99.75 L 99.14 99.72 L 97.83 98.81 L 93.27 96.10 L 71.19 88.65 L 59.01 86.34 L 47.86 84.37 L 38.02 82.26 L 29.11 79.63 L 21.22 76.30 L 14.84 72.50 L 14.40 72.19 L 15.32 69.51 L 22.05 73.89 L 29.75 77.48 L 38.38 80.35 L 47.86 82.69 L 58.58 84.87 L 70.86 87.49 L 95.18 96.94 L 98.29 99.05 L 99.15 99.70 L 99.16 99.67 L 97.93 98.57 L 94.07 95.60 L 70.15 85.86 L 59.07 83.53 L 49.53 81.62 L 40.67 79.48 L 32.63 76.82 L 25.48 73.46 L 19.24 69.35 L 16.32 66.87 L 17.40 64.26 L 23.31 69.19 L 29.64 73.03 L 36.80 76.18 L 44.74 78.73 L 53.40 80.87 L 63.17 83.03 L 74.85 86.04 L 94.57 95.67 L 97.95 98.48 L 99.17 99.64 L 99.19 99.62 L 98.05 98.34 L 94.91 95.24 L 82.63 87.45 L 69.50 83.06 L 59.38 80.76 L 50.76 78.86 L 42.79 76.71 L 35.59 74.05 L 29.20 70.75 L 23.66 66.76 L 18.57 61.68 L 19.81 59.14 L 25.21 64.81 L 31.09 69.21 L 37.34 72.58 L 44.38 75.32 L 52.12 77.57 L 60.49 79.60 L 70.30 82.09 L 85.28 87.96 L 95.00 95.02 L 98.09 98.26 L 99.20 99.59 L 99.21 99.57 L 98.54 98.59 L 96.82 96.30 L 91.54 90.89 L 71.91 81.05 L 62.64 78.67 L 54.76 76.83 L 47.47 74.87 L 40.89 72.53 L 35.06 69.68 L 29.60 65.98 L 24.61 61.19 L 21.13 56.64 L 22.53 54.19 L 26.99 60.16 L 31.95 64.87 L 37.33 68.54 L 43.05 71.37 L 49.48 73.73 L 56.58 75.76 L 64.70 77.84 L 74.60 80.78 L 93.67 92.38 L 97.58 97.08 L 98.90 99.03 L 99.23 99.54 L 99.24 99.52 L 98.68 98.44 L 97.19 95.91 L 92.85 90.30 L 71.65 78.31 L 63.07 76.01 L 55.39 74.06 L 48.80 72.08 L 42.91 69.77 L 37.35 66.75 L 32.60 63.15 L 28.32 58.57 L 24.29 52.32 L 24.01 51.78 L 25.56 49.41 L 29.39 55.97 L 33.48 60.79 L 38.03 64.63 L 43.37 67.86 L 49.06 70.36 L 55.43 72.49 L 62.41 74.45 L 70.77 76.83 L 82.29 81.49 L 93.45 90.39 L 97.28 95.78 L 98.71 98.39 L 99.26 99.49 L 99.27 99.47 L 98.82 98.31 L 97.62 95.58 L 94.22 89.95 L 85.29 81.64 L 73.22 76.16 L 64.87 73.73 L 57.85 71.81 L 51.43 69.79 L 45.72 67.44 L 40.77 64.67 L 36.25 61.12 L 32.24 56.62 L 28.84 50.99 L 27.19 47.10 L 28.89 44.84 L 31.99 51.86 L 35.54 57.05 L 39.65 61.19 L 44.23 64.46 L 49.59 67.23 L 55.27 69.43 L 61.58 71.41 L 68.86 73.56 L 77.73 76.68 L 92.95 87.62 L 96.98 93.91 L 98.42 97.12 L 99.08 98.85 L 99.29 99.45 L 99.31 99.43 L 99.15 98.80 L 98.63 97.00 L 97.22 93.13 L 93.27 86.30 L 74.18 73.87 L 66.37 71.43 L 59.89 69.52 L 53.99 67.55 L 48.79 65.34 L 43.95 62.56 L 39.92 59.35 L 36.39 55.36 L 33.20 49.95 L 30.65 42.63 L 32.49 40.48 L 34.85 47.94 L 37.87 53.47 L 41.24 57.58 L 45.11 60.90 L 49.77 63.80 L 55.23 66.30 L 60.96 68.36 L 67.71 70.51 L 75.28 73.08 L 93.37 85.60 L 97.18 92.47 L 98.54 96.34 L 99.03 98.15 L 99.18 98.77 L 99.32 99.40 L 99.34 99.38 L 99.25 98.74 L 98.94 96.85 L 97.94 92.80 L 94.98 86.04 L 87.80 78.10 L 76.82 72.26 L 69.16 69.61 L 62.75 67.57 L 56.92 65.51 L 51.79 63.26 L 47.05 60.47 L 43.16 57.30 L 39.82 53.37 L 37.12 48.56 L 35.05 42.13 L 34.39 38.39 L 36.36 36.36 L 37.92 44.12 L 40.36 49.92 L 43.31 54.25 L 46.85 57.78 L 50.86 60.67 L 55.66 63.23 L 61.22 65.53 L 67.42 67.71 L 74.50 70.20 L 83.31 74.14 L 93.83 83.34 L 97.46 90.56 L 98.79 95.58 L 99.20 98.06 L 99.29 98.71 L 99.36 99.36 L 99.38 99.34 L 99.36 98.68 L 99.25 96.75 L 98.69 92.58 L 96.44 85.56 L 91.05 78.09 L 79.14 70.69 L 72.06 67.97 L 65.72 65.76 L 59.93 63.59 L 54.86 61.27 L 50.19 58.47 L 46.41 55.33 L 43.22 51.49 L 40.74 46.81 L 39.09 41.16 L 38.39 34.39 L 40.48 32.49 L 41.22 40.44 L 42.87 45.98 L 45.31 50.58 L 48.45 54.38 L 52.16 57.51 L 56.72 60.32 L 61.67 62.68 L 67.30 64.92 L 73.90 67.39 L 81.55 70.66 L 94.83 81.61 L 98.17 89.24 L 99.18 94.84 L 99.36 97.35 L 99.40 98.65 L 99.40 99.32 L 99.43 99.31 L 99.48 98.63 L 99.56 96.66 L 99.48 92.99 L 98.22 86.13 L 94.35 78.75 L 80.98 69.04 L 73.96 66.10 L 67.65 63.68 L 61.93 61.31 L 56.95 58.81 L 52.79 56.11 L 49.15 52.89 L 46.42 49.38 L 44.33 45.22 L 42.89 39.78 L 42.51 32.65 L 42.63 30.65 L 44.84 28.89 L 44.76 36.96 L 45.85 42.64 L 47.86 47.40 L 50.66 51.38 L 54.12 54.70 L 58.10 57.49 L 62.90 60.08 L 68.44 62.56 L 74.55 65.07 L 81.39 68.09 L 96.43 80.77 L 99.05 87.99 L 99.68 94.13 L 99.61 97.28 L 99.51 98.61 L 99.45 99.29 L 99.47 99.27 L 99.59 98.59 L 99.79 97.27 L 100.12 94.12 L 99.94 87.95 L 97.75 80.65 L 91.06 72.62 L 82.51 67.35 L 75.97 64.37 L 70.16 61.90 L 64.91 59.53 L 59.96 56.90 L 55.85 54.12 L 52.30 50.86 L 49.68 47.37 L 47.76 43.28 L 46.57 37.99 L 46.55 31.11 L 47.10 27.19 L 49.41 25.56 L 48.52 33.66 L 49.06 39.42 L 50.44 43.89 L 52.57 47.73 L 55.64 51.33 L 59.33 54.40 L 63.90 57.28 L 68.86 59.83 L 74.45 62.41 L 80.89 65.39 L 88.48 69.66 L 97.70 79.32 L 100.03 86.37 L 100.33 92.89 L 99.96 96.60 L 99.75 97.91 L 99.63 98.58 L 99.49 99.26 L 99.52 99.24 L 99.70 98.57 L 100.04 97.26 L 100.68 94.13 L 101.12 88.48 L 99.91 81.37 L 95.73 74.32 L 85.79 66.70 L 79.40 63.40 L 73.66 60.69 L 68.43 58.13 L 63.49 55.36 L 59.39 52.52 L 55.85 49.25 L 53.26 45.83 L 51.38 41.88 L 50.34 37.31 L 50.31 31.48 L 51.78 24.01 L 54.19 22.53 L 52.50 30.60 L 52.50 36.40 L 53.49 40.95 L 55.30 44.91 L 57.82 48.35 L 61.26 51.65 L 65.26 54.55 L 70.07 57.38 L 75.57 60.23 L 81.57 63.26 L 88.09 66.97 L 99.24 78.37 L 101.23 85.36 L 101.16 91.73 L 100.42 95.95 L 99.93 97.89 L 99.74 98.55 L 99.54 99.23 L 99.57 99.21 L 99.82 98.56 L 100.28 97.27 L 101.22 94.20 L 102.20 88.60 L 101.75 81.90 L 98.82 75.24 L 88.67 66.08 L 82.44 62.47 L 76.80 59.49 L 71.64 56.70 L 66.75 53.75 L 62.70 50.78 L 59.22 47.46 L 56.70 44.03 L 54.93 40.15 L 54.02 35.72 L 54.18 30.14 L 56.15 22.43 L 56.64 21.13 L 59.14 19.81 L 56.70 27.72 L 56.16 33.48 L 56.74 38.07 L 58.21 42.10 L 60.44 45.67 L 63.64 49.15 L 67.44 52.25 L 72.09 55.33 L 77.05 58.21 L 82.53 61.27 L 88.63 64.93 L 101.21 78.46 L 102.56 85.04 L 101.92 91.85 L 100.78 96.00 L 100.10 97.90 L 99.85 98.54 L 99.59 99.20 L 99.62 99.19 L 99.93 98.55 L 100.52 97.30 L 101.52 94.88 L 103.03 89.84 L 103.52 83.44 L 101.76 76.78 L 91.02 65.32 L 84.91 61.39 L 79.36 58.12 L 74.29 55.08 L 69.51 51.88 L 65.57 48.72 L 62.25 45.24 L 59.91 41.72 L 58.36 37.79 L 57.73 33.39 L 58.16 28.44 L 60.25 21.67 L 61.68 18.57 L 64.26 17.40 L 61.09 25.12 L 60.05 30.81 L 60.24 35.40 L 61.39 39.51 L 63.36 43.19 L 66.31 46.83 L 69.93 50.14 L 74.42 53.47 L 79.26 56.62 L 84.64 59.96 L 90.64 63.92 L 98.18 70.38 L 102.95 78.25 L 103.89 84.80 L 102.81 91.46 L 101.38 95.47 L 100.57 97.29 L 99.97 98.54 L 99.64 99.17 L 99.67 99.16 L 100.04 98.55 L 100.74 97.35 L 101.96 95.02 L 103.92 90.11 L 104.95 83.79 L 103.88 77.46 L 93.39 64.74 L 87.85 60.76 L 82.43 57.19 L 77.46 53.88 L 72.77 50.45 L 68.93 47.12 L 65.71 43.51 L 63.48 39.94 L 62.06 36.02 L 61.59 31.69 L 62.20 26.91 L 64.30 21.03 L 66.87 16.32 L 69.51 15.32 L 65.68 22.77 L 64.15 28.35 L 63.97 32.92 L 64.79 37.06 L 66.48 40.84 L 68.91 44.31 L 72.26 47.84 L 76.15 51.14 L 80.79 54.58 L 86.02 58.21 L 91.55 62.17 L 97.61 67.26 L 104.42 77.41 L 105.28 83.78 L 104.09 90.12 L 102.05 95.02 L 100.79 97.35 L 100.07 98.54 L 99.70 99.15 L 99.72 99.14 L 100.15 98.56 L 100.95 97.42 L 102.37 95.19 L 104.74 90.46 L 106.29 84.26 L 105.72 77.92 L 95.75 64.32 L 90.40 60.05 L 85.14 56.18 L 80.32 52.60 L 75.80 48.91 L 72.11 45.38 L 69.07 41.62 L 67.03 37.96 L 65.82 34.02 L 65.58 29.74 L 66.47 25.08 L 68.92 19.45 L 72.19 14.40 L 74.89 13.57 L 70.43 20.73 L 68.45 26.18 L 67.92 30.71 L 68.44 34.88 L 69.87 38.75 L 72.08 42.35 L 75.22 46.08 L 78.94 49.61 L 83.42 53.32 L 88.10 56.96 L 93.13 60.92 L 98.78 65.98 L 106.20 77.83 L 106.60 84.22 L 104.91 90.44 L 102.46 95.18 L 101.00 97.41 L 100.18 98.56 L 99.75 99.14 L 99.78 99.13 L 100.25 98.58 L 101.15 97.49 L 102.75 95.37 L 105.50 90.83 L 107.54 84.78 L 107.51 78.84 L 103.25 69.77 L 97.27 63.28 L 92.03 58.71 L 87.32 54.85 L 82.69 50.98 L 78.73 47.35 L 75.25 43.59 L 72.44 39.66 L 70.64 35.89 L 69.70 31.89 L 69.73 28.06 L 70.85 23.52 L 73.59 18.13 L 77.62 12.83 L 80.37 12.17 L 75.06 19.45 L 72.81 24.67 L 72.04 29.09 L 72.35 33.23 L 73.58 37.13 L 75.60 40.83 L 78.54 44.71 L 82.07 48.44 L 86.35 52.39 L 90.84 56.29 L 95.64 60.53 L 101.02 65.89 L 107.82 78.06 L 107.89 84.37 L 105.88 90.37 L 103.19 94.87 L 101.62 96.96 L 100.74 98.03 L 100.28 98.58 L 99.80 99.12 L 99.83 99.12 L 100.35 98.60 L 101.33 97.59 L 103.10 95.59 L 106.20 91.26 L 108.69 85.38 L 109.08 79.48 L 105.67 70.56 L 100.17 63.70 L 95.23 58.81 L 90.73 54.67 L 86.28 50.52 L 82.46 46.66 L 79.10 42.72 L 76.40 38.66 L 74.69 34.82 L 73.84 30.82 L 73.94 27.06 L 75.15 22.67 L 78.00 17.56 L 83.14 11.59 L 85.92 11.11 L 80.07 17.99 L 77.44 23.03 L 76.35 27.37 L 76.37 31.50 L 77.34 35.46 L 79.11 39.27 L 81.81 43.31 L 85.11 47.25 L 89.16 51.46 L 93.43 55.63 L 98.01 60.15 L 102.83 65.46 L 109.41 78.72 L 109.13 84.56 L 106.85 90.36 L 103.56 95.11 L 101.84 97.09 L 100.88 98.09 L 100.38 98.60 L 99.86 99.11 L 99.89 99.11 L 100.44 98.63 L 101.49 97.69 L 103.41 95.82 L 106.82 91.73 L 109.72 86.05 L 110.53 80.22 L 108.14 71.90 L 102.98 64.32 L 98.37 59.14 L 94.13 54.72 L 89.89 50.31 L 86.25 46.24 L 83.04 42.11 L 80.47 37.91 L 78.86 34.01 L 78.10 30.00 L 78.27 26.29 L 79.54 22.05 L 82.11 17.64 L 87.63 11.66 L 88.72 10.71 L 91.53 10.40 L 85.19 16.88 L 82.20 21.73 L 80.83 25.99 L 80.58 30.11 L 81.30 34.12 L 82.84 38.04 L 85.30 42.25 L 88.38 46.40 L 92.19 50.87 L 96.23 55.31 L 100.57 60.12 L 105.09 65.73 L 110.87 79.39 L 110.21 85.20 L 107.54 90.84 L 103.91 95.36 L 102.04 97.22 L 101.01 98.16 L 100.47 98.63 L 99.92 99.10 L 99.94 99.10 L 100.53 98.66 L 101.65 97.79 L 103.70 96.05 L 107.39 92.19 L 110.67 86.72 L 111.86 80.96 L 109.98 72.50 L 105.27 64.60 L 100.97 59.12 L 96.98 54.44 L 93.00 49.76 L 89.60 45.46 L 86.63 41.14 L 84.31 36.78 L 82.94 32.77 L 82.43 28.73 L 82.84 25.04 L 84.18 21.30 L 86.91 17.09 L 92.11 11.92 L 94.35 10.18 L 97.17 10.04 L 90.40 16.10 L 87.09 20.75 L 85.45 24.91 L 84.94 28.60 L 85.32 32.65 L 86.54 36.66 L 88.68 41.03 L 91.45 45.37 L 94.97 50.07 L 98.73 54.77 L 102.79 59.85 L 107.02 65.74 L 112.21 80.14 L 111.18 85.89 L 108.14 91.35 L 104.22 95.62 L 102.22 97.35 L 101.13 98.23 L 100.56 98.66 L 99.97 99.10 L 100.00 99.10 L 100.61 98.70 L 101.79 97.90 L 103.95 96.30 L 107.88 92.68 L 111.51 87.43 L 113.06 81.76 L 111.72 73.20 L 107.51 65.01 L 103.54 59.27 L 99.84 54.34 L 96.16 49.42 L 93.02 44.91 L 90.33 40.40 L 88.28 35.90 L 87.16 31.82 L 86.91 27.75 L 87.55 24.10 L 89.12 20.45 L 92.12 16.42 L 97.64 11.60 L 100.00 10.00 L 102.83 10.04 L 95.68 15.66 L 92.09 20.09 L 90.19 24.14 L 89.45 27.79 L 89.57 31.86 L 90.54 35.94 L 92.40 40.44 L 94.90 44.94 L 98.11 49.86 L 101.57 54.78 L 105.31 60.11 L 109.16 66.25 L 113.43 80.94 L 112.05 86.62 L 108.67 91.87 L 104.48 95.90 L 102.38 97.50 L 101.24 98.30 L 100.64 98.70 L 100.03 99.10 L 100.06 99.10 L 100.69 98.74 L 101.92 98.01 L 104.16 96.55 L 108.31 93.18 L 112.25 88.17 L 114.15 82.60 L 113.35 73.97 L 109.67 65.54 L 106.08 59.57 L 102.71 54.43 L 99.35 49.28 L 96.51 44.59 L 94.11 39.92 L 92.36 35.31 L 91.50 31.17 L 91.50 27.09 L 92.37 23.48 L 94.17 19.94 L 97.40 16.10 L 103.21 11.63 L 105.65 10.18 L 108.47 10.40 L 101.02 15.57 L 97.18 19.78 L 95.03 23.71 L 94.02 27.71 L 93.97 31.79 L 94.75 35.92 L 96.38 40.52 L 98.62 45.17 L 101.53 50.27 L 104.67 55.39 L 108.03 60.93 L 111.42 67.29 L 114.54 81.79 L 112.80 87.38 L 109.12 92.41 L 104.71 96.17 L 102.53 97.65 L 101.34 98.38 L 100.72 98.74 L 100.08 99.10 L 100.11 99.11 L 100.77 98.78 L 102.02 98.13 L 104.34 96.80 L 108.66 93.68 L 112.89 88.91 L 115.12 83.46 L 114.87 74.81 L 111.76 66.18 L 108.58 60.01 L 105.57 54.69 L 102.57 49.36 L 100.05 44.51 L 97.97 39.72 L 96.52 35.01 L 95.93 30.82 L 96.19 26.75 L 97.28 23.20 L 99.57 19.41 L 103.15 15.78 L 109.99 11.36 L 111.28 10.71 L 114.08 11.11 L 106.39 15.84 L 102.33 19.82 L 99.96 23.62 L 98.69 27.55 L 98.39 31.61 L 98.90 35.78 L 100.22 40.47 L 102.14 45.23 L 104.69 50.49 L 107.46 55.77 L 110.42 61.49 L 113.37 68.03 L 115.53 82.67 L 113.46 88.14 L 109.49 92.95 L 104.90 96.45 L 102.64 97.80 L 101.42 98.46 L 100.79 98.79 L 100.14 99.11 L 100.17 99.12 L 100.84 98.83 L 102.12 98.24 L 104.51 97.04 L 108.98 94.15 L 113.46 89.60 L 116.00 84.27 L 116.11 74.72 L 113.53 66.31 L 110.72 59.94 L 108.07 54.44 L 105.46 48.94 L 103.33 43.95 L 101.66 39.05 L 100.64 34.28 L 100.46 30.08 L 101.15 26.05 L 102.63 22.59 L 105.37 18.95 L 109.89 15.25 L 116.86 11.59 L 119.63 12.17 L 111.73 16.50 L 107.47 20.27 L 104.89 23.94 L 103.41 27.81 L 102.86 31.87 L 103.11 36.07 L 104.13 40.84 L 105.73 45.71 L 107.92 51.11 L 110.32 56.55 L 112.86 62.44 L 115.45 69.57 L 116.42 83.48 L 113.79 89.22 L 109.42 93.79 L 105.07 96.72 L 102.76 97.94 L 101.51 98.54 L 100.86 98.83 L 100.20 99.12 L 100.22 99.13 L 100.90 98.88 L 102.21 98.36 L 104.64 97.27 L 109.24 94.62 L 113.94 90.29 L 116.78 85.08 L 117.42 75.08 L 115.30 66.50 L 112.90 59.98 L 110.64 54.33 L 108.45 48.70 L 106.73 43.61 L 105.49 38.65 L 104.92 33.85 L 105.15 29.67 L 106.26 25.72 L 108.13 22.38 L 111.30 18.94 L 116.30 15.54 L 122.38 12.83 L 125.11 13.57 L 117.50 17.22 L 112.91 20.77 L 110.04 24.30 L 108.24 28.11 L 107.38 32.14 L 107.31 36.37 L 107.97 41.20 L 109.22 46.17 L 111.01 51.70 L 113.02 57.29 L 115.14 63.32 L 117.20 70.62 L 117.12 84.60 L 114.03 90.21 L 109.27 94.56 L 104.66 97.25 L 102.23 98.35 L 100.93 98.88 L 100.25 99.14 L 100.28 99.14 L 100.96 98.92 L 102.28 98.47 L 104.75 97.50 L 109.44 95.06 L 114.34 90.96 L 117.61 85.50 L 117.54 68.64 L 115.71 62.04 L 113.74 55.82 L 111.94 50.08 L 110.45 44.44 L 109.54 39.42 L 109.29 34.59 L 109.79 30.43 L 111.13 26.53 L 113.46 22.93 L 116.92 19.68 L 122.20 16.56 L 127.81 14.40 L 130.49 15.32 L 122.78 18.62 L 118.05 21.94 L 115.00 25.35 L 112.99 29.06 L 111.89 33.05 L 111.54 37.27 L 111.87 42.13 L 112.76 47.15 L 114.15 52.75 L 115.86 58.89 L 117.60 65.47 L 119.03 73.24 L 117.80 85.41 L 114.41 90.87 L 109.45 95.00 L 104.75 97.47 L 102.30 98.46 L 100.99 98.93 L 100.30 99.15 L 100.33 99.16 L 101.02 98.97 L 102.35 98.57 L 104.84 97.71 L 109.62 95.47 L 114.71 91.57 L 118.26 86.22 L 119.32 69.77 L 118.00 63.08 L 116.49 56.77 L 115.14 50.95 L 114.07 45.24 L 113.55 40.18 L 113.67 35.35 L 114.49 31.22 L 116.14 27.39 L 118.76 23.91 L 122.48 20.84 L 128.03 18.00 L 133.13 16.32 L 135.74 17.40 L 127.95 20.38 L 123.09 23.51 L 119.87 26.80 L 117.67 30.44 L 116.33 34.40 L 115.70 39.05 L 115.76 43.95 L 116.41 49.50 L 117.43 55.18 L 118.67 61.39 L 119.90 68.48 L 120.35 78.39 L 117.87 87.26 L 113.74 92.44 L 108.15 96.20 L 104.25 97.90 L 102.37 98.56 L 101.04 98.98 L 100.36 99.17 L 100.38 99.19 L 101.07 99.02 L 102.41 98.68 L 104.91 97.91 L 109.76 95.86 L 115.00 92.15 L 119.01 86.56 L 121.00 70.98 L 120.13 63.77 L 119.11 57.41 L 118.23 51.56 L 117.64 45.83 L 117.57 40.79 L 118.13 36.01 L 119.35 31.96 L 121.39 28.27 L 124.38 24.97 L 128.47 22.14 L 135.01 19.44 L 138.32 18.57 L 140.86 19.81 L 133.02 22.49 L 128.04 25.44 L 124.68 28.60 L 122.28 32.16 L 120.70 36.07 L 119.77 40.69 L 119.49 45.59 L 119.74 51.16 L 120.32 56.87 L 121.06 63.10 L 121.69 70.19 L 118.14 88.31 L 113.61 93.27 L 107.72 96.76 L 103.69 98.28 L 101.76 98.85 L 101.09 99.03 L 100.41 99.20 L 100.43 99.21 L 101.12 99.07 L 102.46 98.78 L 105.56 97.92 L 110.80 95.75 L 116.22 91.78 L 120.28 85.74 L 122.57 72.26 L 122.28 65.06 L 121.77 58.70 L 121.36 52.85 L 121.23 47.15 L 121.57 42.13 L 122.51 37.41 L 124.06 33.45 L 126.39 29.87 L 129.64 26.74 L 134.44 23.88 L 142.00 21.42 L 143.36 21.13 L 145.81 22.53 L 137.93 24.95 L 132.85 27.74 L 129.34 30.80 L 126.75 34.29 L 124.94 38.15 L 123.71 42.76 L 123.10 47.66 L 122.93 53.24 L 123.08 59.44 L 123.31 66.15 L 123.21 73.64 L 118.59 88.91 L 113.42 94.02 L 107.81 97.03 L 103.75 98.42 L 101.81 98.92 L 101.14 99.08 L 100.46 99.23 L 100.48 99.24 L 101.17 99.12 L 102.50 98.87 L 105.60 98.11 L 110.90 96.11 L 116.82 91.99 L 121.42 85.20 L 124.08 72.96 L 124.34 65.77 L 124.35 59.43 L 124.45 53.61 L 124.85 47.96 L 125.67 43.03 L 127.12 38.44 L 129.11 34.64 L 131.89 31.26 L 135.58 28.38 L 140.84 25.86 L 148.22 24.01 L 150.59 25.56 L 142.73 27.72 L 137.57 30.34 L 133.92 33.27 L 131.14 36.66 L 128.92 40.83 L 127.43 45.40 L 126.43 50.71 L 125.88 56.26 L 125.55 62.41 L 125.14 69.50 L 123.97 78.12 L 118.38 90.25 L 112.68 95.01 L 106.73 97.69 L 103.14 98.71 L 101.85 99.00 L 101.18 99.13 L 100.51 99.26 L 100.53 99.27 L 101.21 99.18 L 102.53 98.96 L 105.63 98.29 L 111.44 96.22 L 117.71 91.88 L 123.28 83.04 L 125.65 73.28 L 126.46 66.13 L 127.01 59.85 L 127.65 54.12 L 128.62 48.60 L 130.00 43.84 L 132.00 39.45 L 134.51 35.88 L 137.80 32.79 L 142.47 30.02 L 149.00 27.88 L 152.90 27.19 L 155.16 28.89 L 147.32 30.82 L 142.09 33.29 L 137.98 36.42 L 134.82 40.12 L 132.47 44.29 L 130.76 48.85 L 129.44 54.14 L 128.42 60.12 L 127.50 66.66 L 126.28 74.04 L 117.74 91.76 L 111.39 96.10 L 105.60 98.23 L 102.53 98.94 L 101.22 99.18 L 100.55 99.29 L 100.57 99.31 L 101.25 99.23 L 103.19 98.95 L 106.79 98.18 L 113.29 95.65 L 119.81 90.47 L 126.85 75.52 L 128.42 68.07 L 129.61 61.42 L 130.87 55.35 L 132.39 49.99 L 134.26 45.40 L 136.75 41.23 L 139.68 37.88 L 143.38 35.05 L 148.45 32.62 L 155.39 30.91 L 157.37 30.65 L 159.52 32.49 L 151.72 34.22 L 146.43 36.55 L 142.17 39.55 L 138.80 43.14 L 136.16 47.21 L 133.94 52.09 L 132.22 57.30 L 130.70 63.16 L 129.08 70.02 L 126.79 78.02 L 117.59 92.56 L 110.44 96.83 L 105.01 98.54 L 102.55 99.03 L 101.26 99.23 L 100.60 99.32 L 100.62 99.34 L 101.28 99.28 L 103.20 99.04 L 107.33 98.22 L 114.19 95.54 L 121.30 89.69 L 127.94 77.34 L 130.21 70.10 L 132.02 63.63 L 133.82 57.73 L 135.82 52.51 L 138.32 47.68 L 141.22 43.71 L 144.85 40.28 L 149.36 37.51 L 154.90 35.52 L 161.61 34.39 L 163.64 36.36 L 155.88 37.92 L 150.08 40.36 L 145.75 43.31 L 142.22 46.85 L 139.33 50.86 L 136.77 55.66 L 134.47 61.22 L 132.29 67.42 L 129.80 74.50 L 125.86 83.31 L 116.66 93.83 L 109.44 97.46 L 104.42 98.79 L 101.94 99.20 L 101.29 99.29 L 100.64 99.36 L 100.66 99.38 L 101.31 99.33 L 103.21 99.14 L 107.31 98.40 L 114.25 95.87 L 122.62 89.20 L 129.14 78.61 L 132.26 71.13 L 134.70 64.86 L 137.13 59.17 L 139.70 54.19 L 142.77 49.64 L 146.19 45.95 L 150.31 42.86 L 155.28 40.48 L 161.84 38.81 L 165.61 38.39 L 167.51 40.48 L 159.82 41.89 L 153.95 44.19 L 149.45 47.02 L 145.67 50.44 L 142.21 54.71 L 139.05 59.81 L 136.28 65.23 L 133.30 71.66 L 129.81 78.85 L 115.12 95.23 L 107.83 98.15 L 103.81 99.01 L 101.96 99.27 L 101.32 99.34 L 100.68 99.40 L 100.69 99.43 L 101.33 99.39 L 103.21 99.22 L 107.27 98.56 L 114.72 95.96 L 130.51 79.53 L 134.36 72.32 L 137.45 66.31 L 140.50 60.89 L 143.65 56.20 L 147.28 51.96 L 151.19 48.61 L 155.77 45.88 L 161.68 43.76 L 169.35 42.63 L 171.11 44.84 L 163.54 46.10 L 157.63 48.25 L 152.60 51.20 L 148.29 54.82 L 144.27 59.33 L 140.74 64.28 L 137.24 69.90 L 133.36 76.42 L 128.12 84.22 L 113.74 96.25 L 106.65 98.58 L 103.18 99.19 L 101.34 99.39 L 100.71 99.45 L 100.73 99.47 L 101.97 99.40 L 104.94 99.10 L 111.35 97.61 L 122.00 91.68 L 130.95 81.90 L 135.84 74.71 L 139.83 68.62 L 143.74 63.14 L 147.74 58.43 L 151.90 54.59 L 156.67 51.38 L 162.19 48.96 L 168.60 47.47 L 172.81 47.10 L 174.44 49.41 L 166.93 50.56 L 160.94 52.58 L 155.70 55.40 L 150.73 59.18 L 146.31 63.54 L 141.98 68.68 L 137.59 74.45 L 132.30 81.35 L 123.73 90.35 L 111.35 97.44 L 104.93 99.03 L 101.97 99.40 L 100.74 99.49 L 100.76 99.52 L 101.98 99.47 L 104.90 99.20 L 111.82 97.66 L 131.69 83.58 L 137.44 76.80 L 142.47 70.68 L 147.06 65.56 L 151.66 61.22 L 156.76 57.47 L 162.04 54.71 L 168.00 52.78 L 175.38 51.80 L 175.99 51.78 L 177.47 54.19 L 170.09 55.21 L 163.57 57.29 L 157.76 60.24 L 152.53 63.89 L 147.36 68.39 L 142.16 73.63 L 136.42 79.74 L 129.08 87.00 L 109.73 98.12 L 103.72 99.28 L 101.38 99.50 L 100.77 99.54 L 100.79 99.57 L 101.97 99.53 L 104.83 99.30 L 112.22 97.74 L 131.05 86.44 L 138.03 79.88 L 143.80 74.21 L 149.37 69.12 L 154.87 64.81 L 160.39 61.41 L 166.45 58.79 L 173.17 57.14 L 178.87 56.64 L 180.19 59.14 L 172.43 60.18 L 165.42 62.34 L 159.01 65.43 L 152.67 69.51 L 146.29 74.45 L 139.73 80.03 L 131.95 86.50 L 118.39 95.17 L 106.97 98.88 L 102.54 99.48 L 100.80 99.59 L 100.81 99.62 L 102.52 99.56 L 106.91 99.11 L 120.74 94.62 L 132.49 87.30 L 140.72 80.97 L 147.68 75.54 L 154.41 70.77 L 161.05 66.91 L 167.66 64.09 L 174.27 62.37 L 181.43 61.68 L 182.60 64.26 L 174.96 65.19 L 167.82 67.17 L 160.63 70.23 L 153.33 74.28 L 145.84 79.13 L 137.58 84.77 L 127.39 91.22 L 106.87 99.01 L 102.51 99.54 L 100.83 99.64 L 100.84 99.67 L 102.49 99.62 L 107.34 99.15 L 131.44 89.88 L 141.11 83.99 L 149.37 78.84 L 157.30 74.34 L 164.98 70.78 L 172.49 68.33 L 179.85 67.06 L 183.68 66.87 L 184.68 69.51 L 176.70 70.43 L 168.48 72.58 L 160.00 75.86 L 151.21 80.10 L 141.56 85.26 L 130.43 91.06 L 105.67 99.28 L 101.93 99.64 L 100.85 99.70 L 100.86 99.72 L 102.45 99.69 L 107.73 99.20 L 129.98 92.25 L 141.19 86.96 L 151.37 82.00 L 160.57 77.92 L 169.33 74.81 L 177.67 72.87 L 185.06 72.19 L 185.60 72.19 L 186.43 74.89 L 178.08 75.78 L 168.61 78.00 L 158.55 81.36 L 147.37 85.78 L 134.59 91.03 L 119.21 96.48 L 104.51 99.50 L 101.38 99.73 L 100.86 99.75 L 100.87 99.78 L 102.92 99.73 L 111.28 98.80 L 129.24 94.02 L 142.62 89.22 L 154.92 84.71 L 165.97 81.14 L 175.70 78.79 L 184.10 77.72 L 187.17 77.62 L 187.83 80.37 L 178.60 81.28 L 167.12 83.61 L 153.39 87.37 L 138.23 91.94 L 121.03 96.70 L 103.38 99.67 L 100.88 99.80 L 100.88 99.83 L 103.84 99.75 L 133.08 94.51 L 149.53 90.19 L 164.56 86.45 L 177.06 84.07 L 186.45 83.17 L 188.41 83.14 L 188.89 85.92 L 177.66 86.91 L 161.85 89.51 L 142.35 93.41 L 121.28 97.47 L 102.79 99.78 L 100.89 99.86 L 100.89 99.89 L 105.16 99.77 L 131.37 96.59 L 152.32 93.08 L 171.25 90.18 L 184.52 88.86 L 189.29 88.72 L 189.60 91.53 L 172.04 92.80 L 142.84 96.00 L 112.55 99.18 L 101.34 99.90 L 100.90 99.92 L 100.90 99.94 L 109.09 99.73 L 139.33 97.64 L 170.39 95.21 L 188.97 94.35 L 189.82 94.35 L 189.96 97.17 L 100.90 99.97 L 100.90 100.00 L 190.00 100.00 L 189.96 102.83 L 172.29 102.62 L 140.26 101.18 L 110.13 100.01 L 101.31 100.02 L 100.90 100.03 L 100.90 100.06 L 109.09 100.27 L 139.33 102.36 L 170.39 104.79 L 188.97 105.65 L 189.82 105.65 L 189.60 108.47 L 179.08 108.18 L 161.85 106.44 L 140.10 103.59 L 118.45 100.97 L 102.24 100.06 L 100.90 100.08 L 100.89 100.11 L 105.16 100.23 L 131.37 103.41 L 152.32 106.92 L 171.25 109.82 L 184.52 111.14 L 189.29 111.28 L 188.89 114.08 L 180.37 113.76 L 168.50 112.11 L 153.76 109.11 L 137.28 105.39 L 120.10 101.91 L 103.27 100.12 L 100.89 100.14 L 100.88 100.17 L 103.84 100.25 L 133.08 105.49 L 149.53 109.81 L 164.56 113.55 L 177.06 115.93 L 186.45 116.83 L 188.41 116.86 L 187.83 119.63 L 180.18 119.30 L 171.02 117.76 L 159.74 114.82 L 146.98 110.78 L 133.58 106.41 L 118.25 102.19 L 103.88 100.20 L 101.37 100.18 L 100.88 100.20 L 100.87 100.22 L 102.92 100.27 L 111.28 101.20 L 129.24 105.98 L 142.62 110.78 L 154.92 115.29 L 165.97 118.86 L 175.70 121.21 L 184.10 122.28 L 187.17 122.38 L 186.43 125.11 L 179.13 124.74 L 171.25 123.22 L 162.26 120.44 L 152.70 116.65 L 142.05 111.97 L 130.34 106.95 L 114.99 101.88 L 104.51 100.30 L 101.38 100.24 L 100.86 100.25 L 100.86 100.28 L 102.45 100.31 L 107.73 100.80 L 129.98 107.75 L 141.19 113.04 L 151.37 118.00 L 160.57 122.08 L 169.33 125.19 L 177.67 127.13 L 185.06 127.81 L 185.60 127.81 L 184.68 130.49 L 177.75 130.10 L 170.51 128.58 L 162.97 125.93 L 155.10 122.25 L 146.86 117.75 L 137.70 112.50 L 127.00 106.85 L 105.67 100.46 L 101.93 100.29 L 100.85 100.30 L 100.84 100.33 L 102.49 100.38 L 107.34 100.85 L 131.44 110.12 L 141.11 116.01 L 149.37 121.16 L 157.30 125.66 L 164.98 129.22 L 172.49 131.67 L 179.85 132.94 L 183.68 133.13 L 182.60 135.74 L 175.48 135.28 L 168.81 133.71 L 162.03 131.03 L 155.12 127.27 L 148.02 122.59 L 140.63 117.26 L 132.32 111.40 L 120.45 104.64 L 106.88 100.68 L 102.51 100.36 L 100.83 100.36 L 100.81 100.38 L 102.52 100.44 L 106.91 100.89 L 120.74 105.38 L 132.49 112.70 L 140.72 119.03 L 147.68 124.46 L 154.41 129.23 L 161.05 133.09 L 167.66 135.91 L 174.27 137.63 L 181.43 138.32 L 180.19 140.86 L 172.95 140.31 L 166.37 138.60 L 160.33 135.92 L 154.31 132.19 L 148.64 127.82 L 142.42 122.38 L 135.87 116.47 L 127.51 109.67 L 108.57 101.05 L 103.67 100.47 L 101.38 100.40 L 100.80 100.41 L 100.79 100.43 L 101.97 100.47 L 104.83 100.70 L 112.22 102.26 L 131.05 113.56 L 138.03 120.12 L 143.80 125.79 L 149.37 130.88 L 154.87 135.19 L 160.39 138.59 L 166.45 141.21 L 173.17 142.86 L 178.87 143.36 L 177.47 145.81 L 170.08 145.18 L 164.03 143.49 L 158.60 140.92 L 153.29 137.32 L 148.42 133.08 L 143.52 128.04 L 138.45 122.38 L 132.30 115.66 L 123.38 107.77 L 109.74 101.42 L 104.30 100.59 L 101.97 100.47 L 100.77 100.46 L 100.76 100.48 L 101.98 100.53 L 104.90 100.80 L 111.82 102.34 L 131.69 116.42 L 137.44 123.20 L 142.47 129.32 L 147.06 134.44 L 151.66 138.78 L 156.76 142.53 L 162.04 145.29 L 168.00 147.22 L 175.38 148.20 L 175.99 148.22 L 174.44 150.59 L 167.46 149.96 L 161.39 148.22 L 156.09 145.55 L 151.43 142.11 L 147.27 138.05 L 143.17 133.17 L 139.04 127.58 L 134.39 121.09 L 128.56 113.76 L 111.86 102.18 L 105.51 100.80 L 102.58 100.55 L 101.36 100.51 L 100.74 100.51 L 100.73 100.53 L 101.97 100.60 L 104.94 100.90 L 111.35 102.39 L 122.00 108.32 L 130.95 118.10 L 135.84 125.29 L 139.83 131.38 L 143.74 136.86 L 147.74 141.57 L 151.90 145.41 L 156.67 148.62 L 162.19 151.04 L 168.60 152.53 L 172.81 152.90 L 171.11 155.16 L 164.06 154.43 L 158.52 152.78 L 153.75 150.32 L 149.62 147.17 L 145.72 143.10 L 142.03 138.13 L 138.70 132.76 L 135.31 126.79 L 131.36 120.03 L 125.18 111.54 L 113.77 103.12 L 106.67 101.08 L 103.19 100.66 L 101.34 100.57 L 100.71 100.55 L 100.69 100.57 L 101.33 100.61 L 103.21 100.78 L 107.27 101.44 L 114.72 104.04 L 130.51 120.47 L 134.36 127.68 L 137.45 133.69 L 140.50 139.11 L 143.65 143.80 L 147.28 148.04 L 151.19 151.39 L 155.77 154.12 L 161.68 156.24 L 169.35 157.37 L 167.51 159.52 L 160.33 158.66 L 154.81 156.88 L 150.17 154.28 L 146.27 150.97 L 142.98 147.08 L 139.93 142.33 L 137.08 136.76 L 134.29 130.51 L 131.31 123.79 L 127.04 115.75 L 115.59 104.32 L 108.39 101.57 L 103.82 100.80 L 101.96 100.65 L 101.32 100.62 L 100.68 100.60 L 100.66 100.62 L 101.31 100.67 L 103.21 100.86 L 107.31 101.60 L 114.25 104.13 L 122.62 110.80 L 129.14 121.39 L 132.26 128.87 L 134.70 135.14 L 137.13 140.83 L 139.70 145.81 L 142.77 150.36 L 146.19 154.05 L 150.31 157.14 L 155.28 159.52 L 161.84 161.19 L 165.61 161.61 L 163.64 163.64 L 156.39 162.65 L 150.92 160.76 L 146.42 158.04 L 142.74 154.62 L 139.76 150.61 L 137.12 145.73 L 134.94 140.45 L 132.89 134.47 L 130.78 127.95 L 128.11 120.71 L 116.33 105.16 L 109.48 102.05 L 104.44 100.98 L 101.94 100.72 L 101.30 100.67 L 100.64 100.64 L 100.62 100.66 L 101.28 100.72 L 103.20 100.96 L 107.33 101.78 L 114.19 104.46 L 121.30 110.31 L 127.94 122.66 L 130.21 129.90 L 132.02 136.37 L 133.82 142.27 L 135.82 147.49 L 138.32 152.32 L 141.22 156.29 L 144.85 159.72 L 149.36 162.49 L 154.90 164.48 L 161.61 165.61 L 159.52 167.51 L 151.68 166.22 L 146.36 164.13 L 142.44 161.53 L 139.27 158.36 L 136.51 154.32 L 134.38 149.80 L 132.57 144.47 L 131.02 138.39 L 129.63 132.18 L 127.93 125.10 L 124.83 116.28 L 117.31 106.36 L 110.50 102.62 L 105.04 101.20 L 102.57 100.85 L 101.26 100.72 L 100.60 100.68 L 100.57 100.69 L 101.25 100.77 L 103.19 101.05 L 106.79 101.82 L 113.29 104.35 L 119.81 109.53 L 126.85 124.48 L 128.42 131.93 L 129.61 138.58 L 130.87 144.65 L 132.39 150.01 L 134.26 154.60 L 136.75 158.77 L 139.68 162.12 L 143.38 164.95 L 148.45 167.38 L 155.39 169.09 L 157.37 169.35 L 155.16 171.11 L 147.27 169.63 L 142.01 167.40 L 138.21 164.70 L 135.23 161.43 L 132.94 157.68 L 131.09 153.11 L 129.66 147.70 L 128.67 142.00 L 127.83 135.67 L 126.90 128.86 L 125.28 120.92 L 117.84 107.43 L 111.47 103.30 L 106.22 101.59 L 103.19 101.02 L 101.89 100.85 L 101.23 100.78 L 100.55 100.71 L 100.53 100.73 L 101.21 100.82 L 102.53 101.04 L 105.63 101.71 L 111.44 103.78 L 117.71 108.12 L 123.28 116.96 L 125.65 126.72 L 126.46 133.87 L 127.01 140.15 L 127.65 145.88 L 128.62 151.40 L 130.00 156.16 L 132.00 160.55 L 134.51 164.12 L 137.80 167.21 L 142.47 169.98 L 149.00 172.12 L 152.90 172.81 L 150.59 174.44 L 142.66 172.74 L 137.47 170.37 L 133.80 167.55 L 131.01 164.20 L 128.97 160.38 L 127.43 155.74 L 126.48 150.74 L 125.90 144.99 L 125.60 139.08 L 125.33 132.64 L 124.74 125.38 L 117.92 108.26 L 112.34 104.09 L 106.79 101.94 L 103.17 101.13 L 101.86 100.92 L 101.19 100.83 L 100.51 100.74 L 100.48 100.76 L 101.17 100.88 L 102.50 101.13 L 105.60 101.89 L 110.90 103.89 L 116.82 108.01 L 121.42 114.80 L 124.08 127.04 L 124.34 134.23 L 124.35 140.57 L 124.45 146.39 L 124.85 152.04 L 125.67 156.97 L 127.12 161.56 L 129.11 165.36 L 131.89 168.74 L 135.58 171.62 L 140.84 174.14 L 148.22 175.99 L 145.81 177.47 L 137.85 175.52 L 132.72 172.98 L 129.19 170.04 L 126.59 166.59 L 124.79 162.69 L 123.58 157.97 L 122.99 152.91 L 122.87 147.10 L 123.05 141.13 L 123.32 134.61 L 123.38 127.72 L 122.23 118.08 L 117.95 109.19 L 112.72 104.75 L 107.34 102.34 L 103.78 101.38 L 101.83 100.99 L 101.15 100.88 L 100.46 100.77 L 100.43 100.79 L 101.12 100.93 L 102.46 101.22 L 105.56 102.08 L 110.80 104.25 L 116.22 108.22 L 120.28 114.26 L 122.57 127.74 L 122.28 134.94 L 121.77 141.30 L 121.36 147.15 L 121.23 152.85 L 121.57 157.87 L 122.51 162.59 L 124.06 166.55 L 126.39 170.13 L 129.64 173.26 L 134.44 176.12 L 142.00 178.58 L 143.36 178.87 L 140.86 180.19 L 132.92 177.98 L 127.89 175.28 L 124.50 172.25 L 122.09 168.73 L 120.52 164.79 L 119.66 160.51 L 119.37 155.48 L 119.58 150.19 L 120.17 144.25 L 120.91 138.24 L 121.61 131.78 L 121.88 124.11 L 118.32 110.80 L 113.76 105.99 L 108.35 103.01 L 104.36 101.68 L 102.45 101.21 L 101.10 100.93 L 100.41 100.80 L 100.38 100.81 L 101.07 100.98 L 102.41 101.32 L 104.91 102.09 L 109.76 104.14 L 115.00 107.85 L 119.01 113.44 L 121.00 129.02 L 120.13 136.23 L 119.11 142.59 L 118.23 148.44 L 117.64 154.17 L 117.57 159.21 L 118.13 163.99 L 119.35 168.04 L 121.39 171.73 L 124.38 175.03 L 128.47 177.86 L 135.01 180.56 L 138.32 181.43 L 135.74 182.60 L 127.83 180.09 L 123.29 177.50 L 119.94 174.39 L 117.62 170.83 L 116.21 166.89 L 115.56 162.61 L 115.54 157.60 L 116.09 152.36 L 117.10 146.45 L 118.31 140.46 L 119.54 134.00 L 120.49 126.76 L 118.09 111.85 L 114.28 107.11 L 108.78 103.57 L 104.31 101.85 L 102.40 101.31 L 101.05 100.98 L 100.36 100.83 L 100.33 100.84 L 101.02 101.03 L 102.35 101.43 L 104.84 102.29 L 109.62 104.53 L 114.71 108.43 L 118.26 113.78 L 119.32 130.23 L 118.00 136.92 L 116.49 143.23 L 115.14 149.05 L 114.07 154.76 L 113.55 159.82 L 113.67 164.65 L 114.49 168.78 L 116.14 172.61 L 118.76 176.09 L 122.48 179.16 L 128.03 182.00 L 133.13 183.68 L 130.49 184.68 L 122.64 181.85 L 118.21 179.08 L 115.01 175.85 L 113.05 172.60 L 111.78 168.65 L 111.32 164.40 L 111.57 159.45 L 112.42 154.26 L 113.82 148.43 L 115.47 142.52 L 117.22 136.11 L 118.74 129.36 L 117.56 112.55 L 114.00 107.68 L 109.14 104.19 L 104.84 102.25 L 102.34 101.42 L 101.00 101.03 L 100.30 100.85 L 100.28 100.86 L 100.96 101.08 L 102.28 101.53 L 104.75 102.50 L 109.44 104.94 L 114.34 109.04 L 117.61 114.50 L 117.54 131.36 L 115.71 137.96 L 113.74 144.18 L 111.94 149.92 L 110.45 155.56 L 109.54 160.58 L 109.29 165.41 L 109.79 169.57 L 111.13 173.47 L 113.46 177.07 L 116.92 180.32 L 122.20 183.44 L 127.81 185.60 L 125.11 186.43 L 117.35 183.24 L 113.03 180.27 L 109.99 176.91 L 108.22 173.57 L 107.18 169.57 L 106.99 165.31 L 107.57 160.37 L 108.79 155.24 L 110.44 149.97 L 112.50 144.13 L 114.59 138.29 L 116.70 131.58 L 118.35 122.42 L 117.14 113.72 L 114.00 108.65 L 108.99 104.61 L 104.75 102.48 L 102.27 101.53 L 100.94 101.08 L 100.25 100.86 L 100.22 100.87 L 100.90 101.12 L 102.21 101.64 L 104.64 102.73 L 109.24 105.38 L 113.94 109.71 L 116.78 114.92 L 117.42 124.92 L 115.30 133.50 L 112.90 140.02 L 110.64 145.67 L 108.45 151.30 L 106.73 156.39 L 105.49 161.35 L 104.92 166.15 L 105.15 170.33 L 106.26 174.28 L 108.13 177.62 L 111.30 181.06 L 116.30 184.46 L 122.38 187.17 L 119.63 187.83 L 112.02 184.29 L 107.85 181.14 L 105.22 178.01 L 103.53 174.65 L 102.68 171.07 L 102.57 166.88 L 103.30 162.06 L 104.73 157.06 L 106.65 151.93 L 109.07 146.26 L 111.59 140.56 L 114.10 134.44 L 116.43 127.10 L 116.67 115.23 L 114.11 109.98 L 109.64 105.64 L 105.19 102.98 L 102.82 101.90 L 101.54 101.38 L 100.88 101.13 L 100.20 100.88 L 100.17 100.88 L 100.84 101.17 L 102.12 101.76 L 104.51 102.96 L 108.98 105.85 L 113.46 110.40 L 116.00 115.73 L 116.11 125.28 L 113.53 133.69 L 110.72 140.06 L 108.07 145.56 L 105.46 151.06 L 103.33 156.05 L 101.66 160.95 L 100.64 165.72 L 100.46 169.92 L 101.15 173.95 L 102.63 177.41 L 105.37 181.05 L 109.89 184.75 L 116.86 188.41 L 114.08 188.89 L 106.64 184.96 L 102.64 181.60 L 100.18 178.35 L 98.68 174.91 L 98.03 171.31 L 98.18 167.14 L 99.08 162.82 L 100.77 157.93 L 102.99 152.94 L 105.78 147.43 L 108.68 141.89 L 111.66 135.92 L 114.45 129.17 L 115.85 116.05 L 113.58 110.69 L 109.35 106.13 L 105.03 103.25 L 102.72 102.04 L 101.46 101.46 L 100.81 101.17 L 100.14 100.89 L 100.11 100.89 L 100.77 101.22 L 102.02 101.87 L 104.34 103.20 L 108.66 106.32 L 112.89 111.09 L 115.12 116.54 L 114.87 125.19 L 111.76 133.82 L 108.58 139.99 L 105.57 145.31 L 102.57 150.64 L 100.05 155.49 L 97.97 160.28 L 96.52 164.99 L 95.93 169.18 L 96.19 173.25 L 97.28 176.80 L 99.57 180.59 L 103.15 184.22 L 109.99 188.64 L 111.28 189.29 L 108.47 189.60 L 101.23 185.25 L 97.41 181.66 L 95.14 178.27 L 93.85 174.76 L 93.43 171.12 L 93.85 166.96 L 95.04 162.70 L 97.05 157.91 L 99.61 153.06 L 102.50 148.15 L 105.78 142.79 L 109.19 137.00 L 112.50 130.40 L 114.93 116.94 L 113.00 111.46 L 109.03 106.66 L 104.86 103.53 L 102.61 102.20 L 101.38 101.54 L 100.74 101.22 L 100.08 100.90 L 100.06 100.90 L 100.69 101.26 L 101.92 101.99 L 104.16 103.45 L 108.31 106.82 L 112.25 111.83 L 114.15 117.40 L 113.35 126.03 L 109.67 134.46 L 106.08 140.43 L 102.71 145.57 L 99.35 150.72 L 96.51 155.41 L 94.11 160.08 L 92.36 164.69 L 91.50 168.83 L 91.50 172.91 L 92.37 176.52 L 94.17 180.06 L 97.40 183.90 L 103.21 188.37 L 105.65 189.82 L 102.83 189.96 L 95.84 185.17 L 92.24 181.36 L 90.17 177.84 L 89.10 174.26 L 88.91 170.60 L 89.59 166.48 L 91.05 162.29 L 93.38 157.64 L 96.25 152.94 L 99.46 148.22 L 103.09 143.06 L 106.60 137.91 L 110.17 131.94 L 113.91 117.81 L 112.31 112.22 L 108.63 107.19 L 104.65 103.82 L 102.47 102.35 L 101.29 101.62 L 100.67 101.26 L 100.03 100.90 L 100.00 100.90 L 100.61 101.30 L 101.78 102.09 L 103.93 103.69 L 107.86 107.29 L 111.49 112.51 L 113.06 118.16 L 111.76 126.68 L 107.61 134.83 L 103.67 140.55 L 100.00 145.45 L 96.33 150.35 L 93.19 154.84 L 90.47 159.33 L 88.39 163.81 L 87.22 167.87 L 86.89 171.93 L 87.45 175.56 L 88.93 179.19 L 91.78 183.21 L 97.11 188.01 L 100.00 190.00 L 97.17 189.96 L 90.50 184.74 L 87.14 180.71 L 85.30 177.07 L 84.46 173.42 L 84.50 169.77 L 85.44 165.69 L 87.16 161.61 L 89.77 157.11 L 92.94 152.60 L 96.43 148.09 L 100.38 143.17 L 104.21 138.25 L 108.15 132.52 L 112.76 118.65 L 111.52 112.97 L 108.16 107.72 L 104.41 104.10 L 102.32 102.50 L 101.18 101.70 L 100.59 101.30 L 99.97 100.90 L 99.94 100.90 L 100.53 101.34 L 101.65 102.21 L 103.70 103.95 L 107.39 107.81 L 110.67 113.28 L 111.86 119.04 L 109.98 127.50 L 105.27 135.40 L 100.97 140.88 L 96.98 145.56 L 93.00 150.24 L 89.60 154.54 L 86.63 158.86 L 84.31 163.22 L 82.94 167.23 L 82.43 171.27 L 82.84 174.96 L 84.18 178.70 L 86.91 182.91 L 92.11 188.08 L 94.35 189.82 L 91.53 189.60 L 85.23 183.97 L 82.15 179.73 L 80.56 175.98 L 79.95 172.28 L 80.22 168.63 L 81.41 164.62 L 83.37 160.66 L 86.25 156.34 L 89.67 152.04 L 93.43 147.77 L 97.66 143.11 L 102.10 138.06 L 106.58 132.20 L 111.50 119.44 L 110.62 113.69 L 107.62 108.24 L 104.12 104.38 L 102.15 102.65 L 101.07 101.77 L 100.50 101.33 L 99.92 100.90 L 99.89 100.89 L 100.44 101.37 L 101.49 102.31 L 103.41 104.18 L 106.82 108.27 L 109.72 113.95 L 110.53 119.78 L 108.14 128.10 L 102.98 135.68 L 98.37 140.86 L 94.13 145.28 L 89.89 149.69 L 86.25 153.76 L 83.04 157.89 L 80.47 162.09 L 78.86 165.99 L 78.10 170.00 L 78.27 173.71 L 79.54 177.95 L 82.11 182.36 L 87.63 188.34 L 88.72 189.29 L 85.92 188.89 L 80.06 182.85 L 77.29 178.42 L 75.96 174.57 L 75.59 170.84 L 76.09 167.21 L 77.52 163.29 L 79.71 159.46 L 82.83 155.34 L 86.48 151.28 L 90.84 146.89 L 95.31 142.52 L 99.99 137.77 L 104.73 132.20 L 110.11 120.16 L 109.62 114.37 L 107.00 108.72 L 103.78 104.64 L 101.95 102.78 L 100.94 101.84 L 100.41 101.37 L 99.86 100.89 L 99.83 100.88 L 100.35 101.40 L 101.33 102.41 L 103.10 104.41 L 106.20 108.74 L 108.69 114.62 L 109.08 120.52 L 105.67 129.44 L 100.17 136.30 L 95.23 141.19 L 90.73 145.33 L 86.28 149.48 L 82.46 153.34 L 79.10 157.28 L 76.40 161.34 L 74.69 165.18 L 73.84 169.18 L 73.94 172.94 L 75.15 177.33 L 78.00 182.44 L 83.14 188.41 L 80.37 187.83 L 74.99 181.39 L 72.56 176.76 L 71.51 172.81 L 71.41 169.05 L 72.16 165.45 L 73.85 161.61 L 76.56 157.56 L 79.98 153.64 L 83.91 149.82 L 88.52 145.72 L 93.21 141.63 L 98.10 137.16 L 103.32 131.51 L 108.60 120.88 L 108.52 115.04 L 106.32 109.21 L 103.43 104.91 L 101.74 102.92 L 100.81 101.90 L 100.31 101.39 L 99.80 100.88 L 99.78 100.87 L 100.25 101.42 L 101.15 102.51 L 102.75 104.63 L 105.50 109.17 L 107.54 115.22 L 107.51 121.16 L 103.25 130.23 L 97.27 136.72 L 92.03 141.29 L 87.32 145.15 L 82.69 149.02 L 78.73 152.65 L 75.25 156.41 L 72.44 160.34 L 70.64 164.11 L 69.70 168.11 L 69.73 171.94 L 70.85 176.48 L 73.59 181.87 L 77.62 187.17 L 74.89 186.43 L 70.04 179.58 L 67.99 174.76 L 67.22 170.29 L 67.52 166.52 L 68.79 162.59 L 70.91 158.89 L 74.04 155.03 L 77.82 151.35 L 82.04 147.78 L 86.91 143.96 L 91.80 140.15 L 97.18 135.61 L 103.48 128.76 L 107.12 120.77 L 107.19 114.81 L 105.12 108.71 L 102.68 104.64 L 101.10 102.51 L 100.22 101.42 L 99.75 100.86 L 99.72 100.86 L 100.15 101.44 L 100.95 102.58 L 102.37 104.81 L 104.74 109.54 L 106.29 115.74 L 105.72 122.08 L 95.75 135.68 L 90.40 139.95 L 85.14 143.82 L 80.32 147.40 L 75.80 151.09 L 72.11 154.62 L 69.07 158.38 L 67.03 162.04 L 65.82 165.98 L 65.58 170.26 L 66.47 174.92 L 68.92 180.55 L 72.19 185.60 L 69.51 184.68 L 65.27 177.50 L 63.62 172.54 L 63.21 168.01 L 63.78 164.26 L 65.32 160.41 L 67.67 156.84 L 71.02 153.18 L 74.99 149.73 L 79.78 146.13 L 84.82 142.62 L 90.25 138.80 L 95.72 134.56 L 105.53 120.86 L 105.89 114.85 L 104.37 109.05 L 102.29 104.82 L 100.90 102.58 L 100.11 101.43 L 99.70 100.85 L 99.67 100.84 L 100.04 101.45 L 100.74 102.65 L 101.96 104.98 L 103.92 109.89 L 104.95 116.21 L 103.88 122.54 L 93.39 135.26 L 87.85 139.24 L 82.43 142.81 L 77.46 146.12 L 72.77 149.55 L 68.93 152.88 L 65.71 156.49 L 63.48 160.06 L 62.06 163.98 L 61.59 168.31 L 62.20 173.09 L 64.30 178.97 L 66.87 183.68 L 64.26 182.60 L 60.67 175.12 L 59.45 170.03 L 59.42 165.46 L 60.43 161.33 L 62.34 157.60 L 65.01 154.20 L 68.65 150.76 L 72.85 147.57 L 77.84 144.26 L 83.03 141.04 L 88.59 137.52 L 94.52 133.26 L 103.75 121.30 L 104.59 115.28 L 103.41 108.84 L 101.60 104.41 L 100.69 102.65 L 100.01 101.44 L 99.64 100.83 L 99.62 100.81 L 99.93 101.45 L 100.52 102.70 L 101.52 105.12 L 103.03 110.16 L 103.52 116.56 L 101.76 123.22 L 91.02 134.68 L 84.91 138.61 L 79.36 141.88 L 74.29 144.92 L 69.51 148.12 L 65.57 151.28 L 62.25 154.76 L 59.91 158.28 L 58.36 162.21 L 57.73 166.61 L 58.16 171.56 L 60.25 178.33 L 61.68 181.43 L 59.14 180.19 L 56.26 172.47 L 55.49 166.81 L 55.95 162.29 L 57.38 158.27 L 59.64 154.69 L 62.60 151.47 L 66.50 148.28 L 70.90 145.34 L 76.05 142.33 L 81.36 139.40 L 86.99 136.16 L 93.35 131.88 L 102.03 121.18 L 103.24 114.66 L 102.47 108.52 L 101.20 104.51 L 100.46 102.69 L 99.89 101.44 L 99.59 100.80 L 99.57 100.79 L 99.82 101.44 L 100.28 102.73 L 101.22 105.80 L 102.20 111.40 L 101.75 118.10 L 98.82 124.76 L 88.67 133.92 L 82.44 137.53 L 76.80 140.51 L 71.64 143.30 L 66.75 146.25 L 62.70 149.22 L 59.22 152.54 L 56.70 155.97 L 54.93 159.85 L 54.02 164.28 L 54.18 169.86 L 56.15 177.57 L 56.64 178.87 L 54.19 177.47 L 52.05 169.55 L 51.81 163.83 L 52.69 159.32 L 54.46 155.38 L 57.01 151.92 L 60.56 148.59 L 64.71 145.64 L 69.74 142.73 L 75.06 140.01 L 80.91 137.11 L 86.97 133.85 L 94.87 128.19 L 100.60 120.16 L 101.97 113.43 L 101.48 107.56 L 100.61 103.98 L 100.01 102.08 L 99.78 101.43 L 99.54 100.77 L 99.52 100.76 L 99.70 101.43 L 100.04 102.74 L 100.68 105.87 L 101.12 111.52 L 99.91 118.63 L 95.73 125.68 L 85.79 133.30 L 79.40 136.60 L 73.66 139.31 L 68.43 141.87 L 63.49 144.64 L 59.39 147.48 L 55.85 150.75 L 53.26 154.17 L 51.38 158.12 L 50.34 162.69 L 50.31 168.52 L 51.78 175.99 L 49.41 174.44 L 48.07 166.44 L 48.37 160.74 L 49.63 156.30 L 51.72 152.47 L 54.52 149.16 L 58.27 146.02 L 62.57 143.30 L 67.70 140.65 L 73.09 138.19 L 78.98 135.57 L 85.51 132.35 L 98.92 119.70 L 100.74 112.98 L 100.70 107.02 L 100.12 103.36 L 99.83 102.07 L 99.67 101.41 L 99.49 100.74 L 99.47 100.73 L 99.59 101.41 L 99.79 102.73 L 100.12 105.88 L 99.94 112.05 L 97.75 119.35 L 91.06 127.38 L 82.51 132.65 L 75.97 135.63 L 70.16 138.10 L 64.91 140.47 L 59.96 143.10 L 55.85 145.88 L 52.30 149.14 L 49.68 152.63 L 47.76 156.72 L 46.57 162.01 L 46.55 168.89 L 47.10 172.81 L 44.84 171.11 L 44.31 163.10 L 45.16 157.45 L 46.84 153.10 L 49.26 149.40 L 52.32 146.25 L 56.29 143.32 L 61.17 140.60 L 66.44 138.21 L 72.37 135.82 L 78.74 133.23 L 86.02 129.69 L 97.24 119.12 L 99.65 111.93 L 100.00 106.42 L 99.80 103.34 L 99.65 102.05 L 99.55 101.38 L 99.45 100.71 L 99.43 100.69 L 99.48 101.37 L 99.56 103.34 L 99.48 107.01 L 98.22 113.87 L 94.35 121.25 L 80.98 130.96 L 73.96 133.90 L 67.65 136.32 L 61.93 138.69 L 56.95 141.19 L 52.79 143.89 L 49.15 147.11 L 46.42 150.62 L 44.33 154.78 L 42.89 160.22 L 42.51 167.35 L 42.63 169.35 L 40.48 167.51 L 40.78 159.57 L 42.19 154.04 L 44.27 149.82 L 47.02 146.28 L 50.69 143.03 L 54.90 140.35 L 59.96 137.89 L 65.80 135.58 L 71.79 133.43 L 78.60 130.85 L 86.96 126.68 L 95.86 117.97 L 98.71 110.74 L 99.44 105.15 L 99.48 102.65 L 99.44 101.34 L 99.40 100.68 L 99.38 100.66 L 99.36 101.32 L 99.25 103.25 L 98.69 107.42 L 96.44 114.44 L 91.05 121.91 L 79.14 129.31 L 72.06 132.03 L 65.72 134.24 L 59.93 136.41 L 54.86 138.73 L 50.19 141.53 L 46.41 144.67 L 43.22 148.51 L 40.74 153.19 L 39.09 158.84 L 38.39 165.61 L 36.36 163.64 L 37.35 156.39 L 39.24 150.92 L 41.96 146.42 L 45.38 142.74 L 49.39 139.76 L 54.27 137.12 L 59.55 134.94 L 65.53 132.89 L 72.05 130.78 L 79.29 128.11 L 94.84 116.33 L 97.95 109.48 L 99.02 104.44 L 99.28 101.94 L 99.33 101.30 L 99.36 100.64 L 99.34 100.62 L 99.25 101.26 L 98.94 103.15 L 97.94 107.20 L 94.98 113.96 L 87.80 121.90 L 76.82 127.74 L 69.16 130.39 L 62.75 132.43 L 56.92 134.49 L 51.79 136.74 L 47.05 139.53 L 43.16 142.70 L 39.82 146.63 L 37.12 151.44 L 35.05 157.87 L 34.39 161.61 L 32.49 159.52 L 34.24 152.50 L 36.69 147.25 L 39.86 142.97 L 43.63 139.51 L 47.90 136.74 L 53.00 134.31 L 58.88 132.18 L 65.44 130.19 L 72.47 128.08 L 80.99 124.85 L 93.76 114.92 L 97.39 108.13 L 98.72 103.69 L 99.11 101.86 L 99.22 101.24 L 99.32 100.60 L 99.31 100.57 L 99.15 101.20 L 98.63 103.00 L 97.22 106.87 L 93.27 113.70 L 74.18 126.13 L 66.37 128.57 L 59.89 130.48 L 53.99 132.45 L 48.79 134.66 L 43.95 137.44 L 39.92 140.65 L 36.39 144.64 L 33.20 150.05 L 30.65 157.37 L 28.89 155.16 L 31.35 148.51 L 34.32 143.56 L 37.89 139.54 L 41.97 136.33 L 46.88 133.57 L 52.62 131.23 L 58.64 129.34 L 65.27 127.54 L 72.80 125.40 L 82.56 121.52 L 93.55 112.56 L 97.30 106.19 L 98.57 102.92 L 99.12 101.16 L 99.29 100.55 L 99.27 100.53 L 98.82 101.69 L 97.62 104.42 L 94.22 110.05 L 85.29 118.36 L 73.22 123.84 L 64.87 126.27 L 57.85 128.19 L 51.43 130.21 L 45.72 132.56 L 40.77 135.33 L 36.25 138.88 L 32.24 143.38 L 28.84 149.01 L 27.19 152.90 L 25.56 150.59 L 28.72 144.33 L 32.57 139.32 L 37.00 135.38 L 41.92 132.32 L 47.22 129.94 L 53.26 127.93 L 59.99 126.14 L 67.73 124.22 L 76.69 121.49 L 93.60 110.23 L 97.23 104.83 L 98.54 102.20 L 99.02 101.08 L 99.26 100.51 L 99.24 100.48 L 98.68 101.56 L 97.19 104.09 L 92.85 109.70 L 71.65 121.69 L 63.07 123.99 L 55.39 125.94 L 48.80 127.92 L 42.91 130.23 L 37.35 133.25 L 32.60 136.85 L 28.32 141.43 L 24.29 147.68 L 24.01 148.22 L 22.53 145.81 L 26.65 139.64 L 31.04 135.15 L 35.91 131.64 L 41.63 128.71 L 47.68 126.49 L 54.46 124.63 L 61.87 122.91 L 70.71 120.76 L 81.93 116.74 L 94.06 107.85 L 97.41 103.49 L 98.64 101.50 L 99.23 100.46 L 99.21 100.43 L 98.54 101.41 L 96.82 103.70 L 91.54 109.11 L 71.91 118.95 L 62.64 121.33 L 54.76 123.17 L 47.47 125.13 L 40.89 127.47 L 35.06 130.32 L 29.60 134.02 L 24.61 138.81 L 21.13 143.36 L 19.81 140.86 L 24.51 135.32 L 29.76 131.00 L 35.48 127.69 L 42.04 125.02 L 48.91 123.00 L 56.96 121.16 L 65.59 119.34 L 76.00 116.57 L 94.12 106.32 L 97.46 102.70 L 98.86 100.88 L 99.20 100.41 L 99.19 100.38 L 98.05 101.66 L 94.91 104.76 L 82.63 112.55 L 69.50 116.94 L 59.38 119.24 L 50.76 121.14 L 42.79 123.29 L 35.59 125.95 L 29.20 129.25 L 23.66 133.24 L 18.57 138.32 L 17.40 135.74 L 22.61 130.88 L 28.32 127.08 L 34.92 123.98 L 42.39 121.52 L 50.66 119.55 L 59.61 117.80 L 69.56 115.75 L 82.62 111.73 L 94.80 104.55 L 98.02 101.59 L 99.17 100.36 L 99.16 100.33 L 97.93 101.43 L 94.07 104.40 L 70.15 114.14 L 59.07 116.47 L 49.53 118.38 L 40.67 120.52 L 32.63 123.18 L 25.48 126.54 L 19.24 130.65 L 16.32 133.13 L 15.32 130.49 L 20.91 126.36 L 27.46 122.92 L 34.96 120.16 L 43.36 117.98 L 52.58 116.19 L 62.99 114.40 L 74.83 111.94 L 95.34 103.26 L 98.33 101.00 L 99.15 100.30 L 99.14 100.28 L 97.83 101.19 L 93.27 103.90 L 71.19 111.35 L 59.01 113.66 L 47.86 115.63 L 38.02 117.74 L 29.11 120.37 L 21.22 123.70 L 14.84 127.50 L 14.40 127.81 L 13.57 125.11 L 19.94 121.51 L 27.40 118.57 L 36.48 116.10 L 46.58 114.18 L 58.09 112.42 L 70.66 110.39 L 86.34 106.45 L 96.04 102.16 L 98.70 100.54 L 99.14 100.25 L 99.13 100.22 L 97.31 101.17 L 89.54 104.38 L 71.50 108.84 L 57.46 111.08 L 44.51 113.06 L 33.10 115.25 L 23.45 117.88 L 15.57 120.99 L 12.83 122.38 L 12.17 119.63 L 19.23 116.68 L 28.18 114.17 L 39.64 112.02 L 52.90 110.25 L 66.88 108.50 L 82.56 105.79 L 96.40 101.47 L 98.68 100.42 L 99.12 100.20 L 99.12 100.17 L 96.34 101.18 L 67.22 107.07 L 50.33 109.11 L 34.99 111.17 L 22.48 113.56 L 13.42 116.18 L 11.59 116.86 L 11.11 114.08 L 19.31 111.75 L 31.11 109.65 L 46.06 107.95 L 62.88 106.40 L 80.29 104.40 L 96.85 100.90 L 99.11 100.14 L 99.11 100.11 L 94.94 101.06 L 68.77 104.49 L 47.60 106.31 L 28.54 108.21 L 15.36 110.23 L 10.71 111.28 L 10.40 108.47 L 20.79 106.78 L 38.04 105.26 L 59.94 103.99 L 81.69 102.50 L 97.79 100.36 L 99.10 100.08 L 99.10 100.06 L 90.94 100.87 L 60.68 102.58 L 29.57 104.07 L 11.03 105.55 L 10.18 105.65 L 10.04 102.83 L 27.69 101.93 L 59.74 101.35 L 89.89 100.62 L 98.69 100.07 L 99.10 100.03 L 99.10 100.00 L 100.00 100.00 L 100.00 100.00" 
          fill="none" 
          stroke="currentColor" 
          stroke-width="0.5"/>
</svg>