<?xml version="1.0" encoding="UTF-8" standalone="no"?>
<svg width="100%" height="100%" viewBox="0 0 200 200" preserveAspectRatio="xMidYMid meet" xmlns="http://www.w3.org/2000/svg">
    <path d="M 100.00 100.00 L 100.00 100.00 L 104.52 100.09 L 103.37 103.05 L 117.92 117.30 L 143.40 141.91 L 160.07 147.65 L 168.83 146.73 L 166.15 148.35 L 163.04 148.67 L 160.07 147.65 L 167.63 143.11 L 164.51 143.44 L 161.83 145.05 L 160.07 147.65 L 156.95 147.98 L 153.84 148.31 L 162.17 151.18 L 159.06 151.51 L 156.09 150.48 L 153.84 148.31 L 162.60 147.39 L 159.64 146.37 L 156.52 146.69 L 153.84 148.31 L 150.87 147.29 L 147.91 146.26 L 154.25 152.39 L 151.28 151.37 L 149.03 149.19 L 147.91 146.26 L 156.24 149.13 L 154.00 146.96 L 151.03 145.94 L 147.91 146.26 L 145.66 144.09 L 143.40 141.91 L 160.93 140.07 L 169.27 142.94 L 166.15 143.27 L 163.19 142.25 L 160.93 140.07 L 169.71 139.15 L 166.74 138.12 L 163.62 138.46 L 160.93 140.07 L 157.97 139.05 L 155.00 138.03 L 163.77 137.11 L 161.09 138.72 L 157.97 139.05 L 155.00 138.03 L 162.57 133.49 L 159.45 133.82 L 156.76 135.43 L 155.00 138.03 L 151.89 138.36 L 148.78 138.68 L 156.33 134.14 L 154.58 136.74 L 151.89 138.36 L 148.78 138.68 L 153.71 131.37 L 151.01 132.99 L 149.27 135.59 L 148.78 138.68 L 146.08 140.30 L 143.40 141.91 L 151.74 144.78 L 148.62 145.11 L 145.66 144.09 L 143.40 141.91 L 152.17 140.99 L 149.21 139.97 L 146.08 140.30 L 143.40 141.91 L 140.44 140.89 L 137.47 139.87 L 145.81 142.74 L 142.69 143.07 L 139.73 142.05 L 137.47 139.87 L 146.24 138.95 L 143.28 137.93 L 140.16 138.26 L 137.47 139.87 L 134.51 138.85 L 131.55 137.83 L 144.23 150.08 L 152.57 152.95 L 149.45 153.27 L 146.48 152.26 L 144.23 150.08 L 152.99 149.15 L 150.03 148.14 L 146.92 148.46 L 144.23 150.08 L 141.27 149.06 L 138.30 148.04 L 144.65 154.16 L 141.68 153.14 L 139.43 150.96 L 138.30 148.04 L 146.64 150.90 L 144.39 148.73 L 141.42 147.71 L 138.30 148.04 L 136.05 145.86 L 133.79 143.68 L 136.95 151.91 L 134.70 149.73 L 133.58 146.81 L 133.79 143.68 L 140.13 149.80 L 139.01 146.87 L 136.76 144.70 L 133.79 143.68 L 132.67 140.76 L 131.55 137.83 L 148.22 143.57 L 154.56 149.70 L 151.59 148.67 L 149.34 146.50 L 148.22 143.57 L 156.55 146.44 L 154.30 144.26 L 151.34 143.24 L 148.22 143.57 L 145.97 141.39 L 143.71 139.22 L 152.04 142.09 L 148.92 142.41 L 145.97 141.39 L 143.71 139.22 L 152.48 138.29 L 149.51 137.27 L 146.39 137.60 L 143.71 139.22 L 140.74 138.19 L 137.78 137.17 L 146.55 136.26 L 143.86 137.87 L 140.74 138.19 L 137.78 137.17 L 145.34 132.64 L 142.22 132.97 L 139.54 134.58 L 137.78 137.17 L 134.66 137.50 L 131.55 137.83 L 137.89 143.96 L 134.92 142.93 L 132.67 140.76 L 131.55 137.83 L 139.88 140.70 L 137.63 138.52 L 134.66 137.50 L 131.55 137.83 L 129.29 135.65 L 127.04 133.47 L 133.38 139.60 L 130.42 138.58 L 128.16 136.40 L 127.04 133.47 L 135.37 136.35 L 133.12 134.17 L 130.16 133.15 L 127.04 133.47 L 124.79 131.30 L 122.53 129.12 L 128.85 145.58 L 135.19 151.70 L 132.22 150.68 L 129.97 148.50 L 128.85 145.58 L 137.18 148.45 L 134.93 146.27 L 131.97 145.25 L 128.85 145.58 L 126.59 143.41 L 124.34 141.22 L 127.49 149.45 L 125.24 147.28 L 124.12 144.36 L 124.34 141.22 L 130.68 147.35 L 129.56 144.43 L 127.30 142.25 L 124.34 141.22 L 123.21 138.30 L 122.09 135.37 L 121.48 144.17 L 120.35 141.24 L 120.57 138.12 L 122.09 135.37 L 125.25 143.61 L 125.47 140.48 L 124.35 137.56 L 122.09 135.37 L 122.31 132.25 L 122.53 129.12 L 135.21 141.37 L 138.37 149.60 L 136.12 147.42 L 134.99 144.50 L 135.21 141.37 L 141.55 147.50 L 140.43 144.57 L 138.17 142.39 L 135.21 141.37 L 134.09 138.45 L 132.97 135.51 L 139.30 141.64 L 136.34 140.62 L 134.09 138.45 L 132.97 135.51 L 141.30 138.38 L 139.05 136.21 L 136.08 135.19 L 132.97 135.51 L 130.71 133.34 L 128.46 131.16 L 136.79 134.04 L 133.67 134.36 L 130.71 133.34 L 128.46 131.16 L 137.22 130.24 L 134.26 129.22 L 131.14 129.55 L 128.46 131.16 L 125.49 130.14 L 122.53 129.12 L 125.69 137.35 L 123.43 135.17 L 122.31 132.25 L 122.53 129.12 L 128.87 135.24 L 127.75 132.32 L 125.49 130.14 L 122.53 129.12 L 121.41 126.20 L 120.28 123.27 L 123.44 131.50 L 121.19 129.33 L 120.07 126.40 L 120.28 123.27 L 126.62 129.39 L 125.50 126.47 L 123.25 124.29 L 120.28 123.27 L 119.16 120.34 L 118.04 117.42 L 151.37 128.90 L 164.06 141.14 L 172.39 144.02 L 169.27 144.34 L 166.31 143.32 L 164.06 141.14 L 172.83 140.22 L 169.86 139.21 L 166.74 139.53 L 164.06 141.14 L 161.09 140.12 L 158.13 139.10 L 164.47 145.22 L 161.50 144.21 L 159.26 142.03 L 158.13 139.10 L 166.46 141.97 L 164.21 139.80 L 161.25 138.78 L 158.13 139.10 L 155.88 136.93 L 153.62 134.75 L 156.78 142.98 L 154.53 140.80 L 153.41 137.88 L 153.62 134.75 L 159.96 140.87 L 158.84 137.95 L 156.58 135.77 L 153.62 134.75 L 152.50 131.82 L 151.37 128.90 L 168.05 134.64 L 174.39 140.76 L 171.43 139.74 L 169.17 137.57 L 168.05 134.64 L 176.38 137.51 L 174.13 135.33 L 171.16 134.31 L 168.05 134.64 L 165.79 132.46 L 163.53 130.28 L 171.87 133.15 L 168.76 133.48 L 165.79 132.46 L 163.53 130.28 L 172.31 129.36 L 169.34 128.34 L 166.22 128.67 L 163.53 130.28 L 160.58 129.26 L 157.61 128.24 L 166.38 127.33 L 163.69 128.93 L 160.58 129.26 L 157.61 128.24 L 165.17 123.70 L 162.05 124.03 L 159.36 125.65 L 157.61 128.24 L 154.49 128.57 L 151.37 128.90 L 157.71 135.02 L 154.75 134.00 L 152.50 131.82 L 151.37 128.90 L 159.71 131.77 L 157.46 129.59 L 154.49 128.57 L 151.37 128.90 L 149.12 126.72 L 146.86 124.54 L 153.21 130.67 L 150.24 129.65 L 147.99 127.47 L 146.86 124.54 L 155.20 127.41 L 152.95 125.24 L 149.98 124.21 L 146.86 124.54 L 144.61 122.37 L 142.36 120.19 L 159.02 125.93 L 167.80 125.01 L 165.11 126.62 L 161.99 126.95 L 159.02 125.93 L 166.59 121.39 L 163.46 121.72 L 160.78 123.33 L 159.02 125.93 L 155.91 126.25 L 152.80 126.59 L 161.13 129.45 L 158.01 129.78 L 155.05 128.76 L 152.80 126.59 L 161.57 125.66 L 158.60 124.64 L 155.48 124.97 L 152.80 126.59 L 149.83 125.56 L 146.86 124.54 L 153.21 130.67 L 150.24 129.65 L 147.99 127.47 L 146.86 124.54 L 155.20 127.41 L 152.95 125.24 L 149.98 124.21 L 146.86 124.54 L 144.61 122.37 L 142.36 120.19 L 159.89 118.34 L 168.23 121.22 L 165.11 121.54 L 162.15 120.53 L 159.89 118.34 L 168.66 117.42 L 165.70 116.41 L 162.58 116.73 L 159.89 118.34 L 156.93 117.32 L 153.97 116.30 L 162.73 115.39 L 160.05 117.00 L 156.93 117.32 L 153.97 116.30 L 161.53 111.76 L 158.40 112.10 L 155.71 113.71 L 153.97 116.30 L 150.85 116.63 L 147.73 116.96 L 155.29 112.42 L 153.54 115.02 L 150.85 116.63 L 147.73 116.96 L 152.66 109.65 L 149.97 111.26 L 148.22 113.87 L 147.73 116.96 L 145.05 118.57 L 142.36 120.19 L 150.69 123.06 L 147.57 123.39 L 144.61 122.37 L 142.36 120.19 L 151.13 119.27 L 148.16 118.24 L 145.05 118.57 L 142.36 120.19 L 139.40 119.17 L 136.43 118.15 L 144.77 121.02 L 141.65 121.35 L 138.69 120.33 L 136.43 118.15 L 145.20 117.22 L 142.23 116.21 L 139.12 116.54 L 136.43 118.15 L 133.47 117.13 L 130.51 116.11 L 148.04 114.26 L 155.60 109.72 L 153.84 112.32 L 151.15 113.94 L 148.04 114.26 L 152.97 106.96 L 150.28 108.57 L 148.53 111.17 L 148.04 114.26 L 145.35 115.88 L 142.67 117.49 L 151.43 116.57 L 148.75 118.19 L 145.63 118.51 L 142.67 117.49 L 150.22 112.95 L 147.11 113.28 L 144.41 114.89 L 142.67 117.49 L 139.55 117.82 L 136.43 118.15 L 144.77 121.02 L 141.65 121.35 L 138.69 120.33 L 136.43 118.15 L 145.20 117.22 L 142.23 116.21 L 139.12 116.54 L 136.43 118.15 L 133.47 117.13 L 130.51 116.11 L 145.61 107.02 L 154.39 106.11 L 151.70 107.72 L 148.58 108.04 L 145.61 107.02 L 153.18 102.49 L 150.06 102.82 L 147.37 104.43 L 145.61 107.02 L 142.50 107.35 L 139.38 107.68 L 146.94 103.14 L 145.19 105.74 L 142.50 107.35 L 139.38 107.68 L 144.31 100.37 L 141.62 101.99 L 139.88 104.59 L 139.38 107.68 L 136.69 109.30 L 134.01 110.91 L 138.94 103.60 L 138.44 106.70 L 136.69 109.30 L 134.01 110.91 L 135.39 102.20 L 133.63 104.80 L 133.15 107.90 L 134.01 110.91 L 132.26 113.51 L 130.51 116.11 L 139.27 115.19 L 136.58 116.80 L 133.47 117.13 L 130.51 116.11 L 138.06 111.57 L 134.94 111.89 L 132.26 113.51 L 130.51 116.11 L 127.39 116.44 L 124.27 116.76 L 133.04 115.84 L 130.35 117.45 L 127.24 117.78 L 124.27 116.76 L 131.83 112.22 L 128.71 112.55 L 126.02 114.16 L 124.27 116.76 L 121.16 117.09 L 118.04 117.42 L 130.72 129.66 L 139.05 132.54 L 135.94 132.86 L 132.97 131.84 L 130.72 129.66 L 139.49 128.74 L 136.52 127.73 L 133.41 128.05 L 130.72 129.66 L 127.76 128.65 L 124.79 127.62 L 131.13 133.75 L 128.17 132.73 L 125.91 130.55 L 124.79 127.62 L 133.13 130.49 L 130.88 128.32 L 127.91 127.30 L 124.79 127.62 L 122.54 125.45 L 120.28 123.27 L 123.44 131.50 L 121.19 129.33 L 120.07 126.40 L 120.28 123.27 L 126.62 129.39 L 125.50 126.47 L 123.25 124.29 L 120.28 123.27 L 119.16 120.34 L 118.04 117.42 L 134.71 123.16 L 141.05 129.28 L 138.08 128.26 L 135.83 126.08 L 134.71 123.16 L 143.04 126.03 L 140.79 123.85 L 137.83 122.83 L 134.71 123.16 L 132.45 120.98 L 130.20 118.80 L 138.53 121.67 L 135.41 122.00 L 132.45 120.98 L 130.20 118.80 L 138.96 117.88 L 136.00 116.86 L 132.89 117.19 L 130.20 118.80 L 127.24 117.78 L 124.27 116.76 L 133.04 115.84 L 130.35 117.45 L 127.24 117.78 L 124.27 116.76 L 131.83 112.22 L 128.71 112.55 L 126.02 114.16 L 124.27 116.76 L 121.16 117.09 L 118.04 117.42 L 124.38 123.54 L 121.41 122.52 L 119.16 120.34 L 118.04 117.42 L 126.37 120.29 L 124.12 118.11 L 121.16 117.09 L 118.04 117.42 L 115.78 115.24 L 113.52 113.06 L 119.87 119.19 L 116.90 118.16 L 114.65 115.99 L 113.52 113.06 L 121.86 115.93 L 119.60 113.76 L 116.65 112.74 L 113.52 113.06 L 111.27 110.88 L 109.02 108.71 L 121.70 120.96 L 130.04 123.83 L 126.92 124.15 L 123.95 123.13 L 121.70 120.96 L 130.47 120.04 L 127.50 119.01 L 124.38 119.34 L 121.70 120.96 L 118.74 119.94 L 115.78 118.92 L 122.12 125.04 L 119.15 124.02 L 116.90 121.84 L 115.78 118.92 L 124.11 121.78 L 121.85 119.61 L 118.89 118.59 L 115.78 118.92 L 113.52 116.74 L 111.26 114.56 L 114.43 122.79 L 112.17 120.62 L 111.05 117.69 L 111.26 114.56 L 117.61 120.68 L 116.48 117.76 L 114.22 115.58 L 111.26 114.56 L 110.14 111.64 L 109.02 108.71 L 125.69 114.45 L 132.03 120.57 L 129.07 119.55 L 126.81 117.38 L 125.69 114.45 L 134.02 117.32 L 131.77 115.14 L 128.80 114.12 L 125.69 114.45 L 123.43 112.27 L 121.18 110.10 L 129.52 112.97 L 126.40 113.29 L 123.43 112.27 L 121.18 110.10 L 129.95 109.17 L 126.98 108.15 L 123.86 108.48 L 121.18 110.10 L 118.21 109.07 L 115.25 108.05 L 124.02 107.13 L 121.33 108.75 L 118.21 109.07 L 115.25 108.05 L 122.81 103.51 L 119.69 103.84 L 117.00 105.45 L 115.25 108.05 L 112.14 108.38 L 109.02 108.71 L 115.36 114.83 L 112.39 113.81 L 110.14 111.64 L 109.02 108.71 L 117.35 111.58 L 115.10 109.40 L 112.14 108.38 L 109.02 108.71 L 106.77 106.53 L 104.51 104.35 L 110.85 110.48 L 107.89 109.46 L 105.63 107.28 L 104.51 104.35 L 112.84 107.22 L 110.59 105.05 L 107.62 104.03 L 104.51 104.35 L 102.86 102.76 L 100.22 104.54 L 100.44 124.91 L 101.06 160.33 L 108.78 176.18 L 115.63 181.71 L 112.59 180.96 L 110.16 178.99 L 108.78 176.18 L 117.34 178.30 L 114.90 176.33 L 111.86 175.57 L 108.78 176.18 L 106.34 174.20 L 103.91 172.23 L 107.77 180.15 L 105.34 178.18 L 103.97 175.36 L 103.91 172.23 L 110.76 177.78 L 109.39 174.96 L 106.95 172.98 L 103.91 172.23 L 102.53 169.41 L 101.16 166.59 L 101.32 175.41 L 99.94 172.58 L 99.89 169.45 L 101.16 166.59 L 105.03 174.51 L 104.98 171.39 L 103.60 168.57 L 101.16 166.59 L 101.11 163.46 L 101.06 160.33 L 114.75 171.42 L 118.62 179.34 L 116.18 177.37 L 114.81 174.56 L 114.75 171.42 L 121.61 176.97 L 120.23 174.15 L 117.79 172.18 L 114.75 171.42 L 113.38 168.60 L 112.00 165.78 L 118.86 171.33 L 115.82 170.57 L 113.38 168.60 L 112.00 165.78 L 120.56 167.92 L 118.12 165.95 L 115.08 165.18 L 112.00 165.78 L 109.57 163.82 L 107.14 161.84 L 115.69 163.98 L 112.61 164.57 L 109.57 163.82 L 107.14 161.84 L 115.79 160.16 L 112.75 159.40 L 109.67 160.00 L 107.14 161.84 L 104.09 161.08 L 101.06 160.33 L 104.91 168.25 L 102.48 166.27 L 101.11 163.46 L 101.06 160.33 L 107.90 165.88 L 106.53 163.06 L 104.09 161.08 L 101.06 160.33 L 99.68 157.51 L 98.30 154.69 L 102.17 162.61 L 99.73 160.64 L 98.36 157.83 L 98.30 154.69 L 105.16 160.24 L 103.78 157.42 L 101.35 155.45 L 98.30 154.69 L 96.93 151.88 L 95.56 149.06 L 95.87 166.69 L 99.73 174.61 L 97.30 172.63 L 95.92 169.82 L 95.87 166.69 L 102.72 172.23 L 101.34 169.41 L 98.91 167.45 L 95.87 166.69 L 94.49 163.87 L 93.11 161.05 L 93.27 169.87 L 91.89 167.05 L 91.84 163.91 L 93.11 161.05 L 96.98 168.97 L 96.93 165.84 L 95.56 163.02 L 93.11 161.05 L 93.06 157.92 L 93.01 154.78 L 89.42 162.84 L 89.37 159.70 L 90.64 156.84 L 93.01 154.78 L 93.16 163.60 L 94.44 160.73 L 94.38 157.60 L 93.01 154.78 L 94.28 151.92 L 95.56 149.06 L 103.29 164.91 L 103.44 173.72 L 102.06 170.90 L 102.01 167.77 L 103.29 164.91 L 107.15 172.83 L 107.10 169.70 L 105.72 166.88 L 103.29 164.91 L 103.23 161.77 L 103.17 158.64 L 107.04 166.56 L 104.61 164.58 L 103.23 161.77 L 103.17 158.64 L 110.03 164.18 L 108.65 161.37 L 106.22 159.39 L 103.17 158.64 L 101.80 155.82 L 100.43 153.00 L 107.28 158.55 L 104.24 157.79 L 101.80 155.82 L 100.43 153.00 L 108.98 155.14 L 106.55 153.17 L 103.51 152.41 L 100.43 153.00 L 97.99 151.03 L 95.56 149.06 L 95.71 157.87 L 94.34 155.05 L 94.28 151.92 L 95.56 149.06 L 99.42 156.98 L 99.37 153.84 L 97.99 151.03 L 95.56 149.06 L 95.50 145.92 L 95.45 142.79 L 95.60 151.61 L 94.23 148.79 L 94.17 145.66 L 95.45 142.79 L 99.31 150.71 L 99.26 147.58 L 97.89 144.76 L 95.45 142.79 L 95.39 139.66 L 95.34 136.52 L 88.17 152.63 L 88.32 161.44 L 86.95 158.62 L 86.90 155.49 L 88.17 152.63 L 92.03 160.55 L 91.98 157.42 L 90.60 154.60 L 88.17 152.63 L 88.11 149.50 L 88.06 146.36 L 84.47 154.41 L 84.42 151.28 L 85.69 148.42 L 88.06 146.36 L 88.21 155.18 L 89.49 152.32 L 89.43 149.18 L 88.06 146.36 L 89.33 143.49 L 90.61 140.64 L 83.95 146.42 L 85.23 143.55 L 87.59 141.50 L 90.61 140.64 L 87.02 148.69 L 89.39 146.63 L 90.66 143.77 L 90.61 140.64 L 92.97 138.58 L 95.34 136.52 L 95.65 154.15 L 92.06 162.21 L 92.01 159.07 L 93.28 156.21 L 95.65 154.15 L 95.80 162.97 L 97.08 160.10 L 97.02 156.96 L 95.65 154.15 L 96.92 151.29 L 98.20 148.42 L 98.35 157.23 L 96.98 154.42 L 96.92 151.29 L 98.20 148.42 L 102.06 156.35 L 102.01 153.22 L 100.63 150.40 L 98.20 148.42 L 98.14 145.29 L 98.08 142.16 L 101.95 150.08 L 99.51 148.10 L 98.14 145.29 L 98.08 142.16 L 104.94 147.71 L 103.56 144.89 L 101.13 142.92 L 98.08 142.16 L 96.71 139.34 L 95.34 136.52 L 91.75 144.58 L 91.70 141.44 L 92.97 138.58 L 95.34 136.52 L 95.49 145.33 L 96.77 142.47 L 96.71 139.34 L 95.34 136.52 L 96.61 133.66 L 97.89 130.80 L 94.30 138.85 L 94.25 135.72 L 95.52 132.85 L 97.89 130.80 L 98.04 139.61 L 99.32 136.75 L 99.26 133.62 L 97.89 130.80 L 99.16 127.93 L 100.44 125.07 L 115.89 156.76 L 116.20 174.39 L 120.06 182.32 L 117.63 180.34 L 116.26 177.52 L 116.20 174.39 L 123.05 179.94 L 121.68 177.12 L 119.24 175.15 L 116.20 174.39 L 114.83 171.57 L 113.46 168.75 L 113.61 177.57 L 112.23 174.75 L 112.18 171.62 L 113.46 168.75 L 117.31 176.68 L 117.27 173.55 L 115.89 170.73 L 113.46 168.75 L 113.40 165.62 L 113.34 162.49 L 109.76 170.54 L 109.70 167.41 L 110.98 164.55 L 113.34 162.49 L 113.50 171.30 L 114.77 168.43 L 114.72 165.30 L 113.34 162.49 L 114.62 159.62 L 115.89 156.76 L 123.63 172.61 L 123.78 181.42 L 122.41 178.61 L 122.35 175.47 L 123.63 172.61 L 127.48 180.53 L 127.43 177.40 L 126.06 174.58 L 123.63 172.61 L 123.57 169.47 L 123.51 166.34 L 127.38 174.26 L 124.95 172.29 L 123.57 169.47 L 123.51 166.34 L 130.37 171.89 L 128.99 169.07 L 126.56 167.10 L 123.51 166.34 L 122.14 163.53 L 120.77 160.71 L 127.62 166.26 L 124.58 165.50 L 122.14 163.53 L 120.77 160.71 L 129.32 162.84 L 126.88 160.87 L 123.84 160.11 L 120.77 160.71 L 118.33 158.73 L 115.89 156.76 L 116.05 165.57 L 114.67 162.76 L 114.62 159.62 L 115.89 156.76 L 119.76 164.68 L 119.70 161.55 L 118.33 158.73 L 115.89 156.76 L 115.84 153.63 L 115.78 150.49 L 115.94 159.31 L 114.57 156.49 L 114.51 153.36 L 115.78 150.49 L 119.65 158.42 L 119.59 155.28 L 118.22 152.46 L 115.78 150.49 L 115.73 147.36 L 115.68 144.23 L 123.40 160.07 L 130.25 165.62 L 127.22 164.87 L 124.78 162.89 L 123.40 160.07 L 131.96 162.21 L 129.52 160.23 L 126.48 159.48 L 123.40 160.07 L 120.97 158.10 L 118.53 156.13 L 122.40 164.05 L 119.96 162.08 L 118.59 159.26 L 118.53 156.13 L 125.39 161.68 L 124.01 158.86 L 121.57 156.89 L 118.53 156.13 L 117.16 153.31 L 115.78 150.49 L 115.94 159.31 L 114.57 156.49 L 114.51 153.36 L 115.78 150.49 L 119.65 158.42 L 119.59 155.28 L 118.22 152.46 L 115.78 150.49 L 115.73 147.36 L 115.68 144.23 L 129.38 155.32 L 133.24 163.25 L 130.81 161.27 L 129.44 158.46 L 129.38 155.32 L 136.23 160.87 L 134.86 158.06 L 132.42 156.08 L 129.38 155.32 L 128.01 152.51 L 126.63 149.69 L 133.48 155.24 L 130.44 154.48 L 128.01 152.51 L 126.63 149.69 L 135.19 151.82 L 132.75 149.85 L 129.70 149.09 L 126.63 149.69 L 124.19 147.71 L 121.76 145.74 L 130.31 147.88 L 127.24 148.47 L 124.19 147.71 L 121.76 145.74 L 130.41 144.07 L 127.37 143.30 L 124.29 143.90 L 121.76 145.74 L 118.72 144.99 L 115.68 144.23 L 119.54 152.15 L 117.10 150.18 L 115.73 147.36 L 115.68 144.23 L 122.53 149.78 L 121.15 146.95 L 118.72 144.99 L 115.68 144.23 L 114.30 141.41 L 112.93 138.59 L 116.79 146.52 L 114.36 144.54 L 112.99 141.73 L 112.93 138.59 L 119.78 144.14 L 118.40 141.32 L 115.97 139.35 L 112.93 138.59 L 111.55 135.77 L 110.18 132.96 L 123.88 144.05 L 132.44 146.19 L 129.36 146.79 L 126.32 146.03 L 123.88 144.05 L 132.53 142.37 L 129.49 141.61 L 126.42 142.21 L 123.88 144.05 L 120.84 143.30 L 117.80 142.54 L 124.65 148.09 L 121.61 147.33 L 119.17 145.35 L 117.80 142.54 L 126.35 144.67 L 123.92 142.70 L 120.88 141.94 L 117.80 142.54 L 115.37 140.57 L 112.93 138.59 L 116.79 146.52 L 114.36 144.54 L 112.99 141.73 L 112.93 138.59 L 119.78 144.14 L 118.40 141.32 L 115.97 139.35 L 112.93 138.59 L 111.55 135.77 L 110.18 132.96 L 127.29 137.22 L 134.14 142.78 L 131.10 142.01 L 128.66 140.04 L 127.29 137.22 L 135.84 139.36 L 133.41 137.39 L 130.36 136.62 L 127.29 137.22 L 124.85 135.25 L 122.42 133.28 L 130.97 135.41 L 127.89 136.01 L 124.85 135.25 L 122.42 133.28 L 131.07 131.60 L 128.03 130.84 L 124.95 131.44 L 122.42 133.28 L 119.37 132.52 L 116.34 131.77 L 124.99 130.08 L 122.45 131.92 L 119.37 132.52 L 116.34 131.77 L 123.47 126.58 L 120.39 127.18 L 117.85 129.02 L 116.34 131.77 L 113.26 132.36 L 110.18 132.96 L 117.03 138.50 L 113.99 137.75 L 111.55 135.77 L 110.18 132.96 L 118.74 135.09 L 116.30 133.12 L 113.26 132.36 L 110.18 132.96 L 107.74 130.99 L 105.31 129.01 L 112.16 134.56 L 109.12 133.80 L 106.68 131.83 L 105.31 129.01 L 113.86 131.15 L 111.43 129.17 L 108.39 128.42 L 105.31 129.01 L 102.87 127.05 L 100.44 125.07 L 100.75 142.70 L 104.61 150.62 L 102.18 148.65 L 100.80 145.83 L 100.75 142.70 L 107.60 148.25 L 106.22 145.43 L 103.79 143.46 L 100.75 142.70 L 99.37 139.88 L 98.00 137.06 L 98.15 145.88 L 96.78 143.06 L 96.72 139.92 L 98.00 137.06 L 101.86 144.99 L 101.81 141.86 L 100.43 139.04 L 98.00 137.06 L 97.94 133.93 L 97.89 130.80 L 94.30 138.85 L 94.25 135.72 L 95.52 132.85 L 97.89 130.80 L 98.04 139.61 L 99.32 136.75 L 99.26 133.62 L 97.89 130.80 L 99.16 127.93 L 100.44 125.07 L 108.17 140.92 L 108.32 149.73 L 106.95 146.91 L 106.89 143.78 L 108.17 140.92 L 112.03 148.84 L 111.98 145.71 L 110.60 142.89 L 108.17 140.92 L 108.11 137.78 L 108.06 134.65 L 111.92 142.57 L 109.48 140.60 L 108.11 137.78 L 108.06 134.65 L 114.91 140.19 L 113.53 137.38 L 111.10 135.41 L 108.06 134.65 L 106.68 131.83 L 105.31 129.01 L 112.16 134.56 L 109.12 133.80 L 106.68 131.83 L 105.31 129.01 L 113.86 131.15 L 111.43 129.17 L 108.39 128.42 L 105.31 129.01 L 102.87 127.05 L 100.44 125.07 L 100.59 133.88 L 99.22 131.07 L 99.16 127.93 L 100.44 125.07 L 104.30 132.99 L 104.25 129.86 L 102.87 127.05 L 100.44 125.07 L 100.38 121.94 L 100.33 118.80 L 100.48 127.62 L 99.11 124.80 L 99.05 121.67 L 100.33 118.80 L 104.19 126.73 L 104.14 123.59 L 102.76 120.78 L 100.33 118.80 L 100.27 115.67 L 100.22 112.54 L 100.53 130.16 L 104.39 138.09 L 101.96 136.11 L 100.58 133.29 L 100.53 130.16 L 107.38 135.71 L 106.00 132.89 L 103.57 130.92 L 100.53 130.16 L 99.15 127.35 L 97.78 124.53 L 97.93 133.34 L 96.56 130.52 L 96.51 127.39 L 97.78 124.53 L 101.64 132.45 L 101.59 129.32 L 100.21 126.50 L 97.78 124.53 L 97.72 121.40 L 97.67 118.26 L 94.08 126.32 L 94.03 123.18 L 95.30 120.32 L 97.67 118.26 L 97.82 127.07 L 99.10 124.21 L 99.04 121.07 L 97.67 118.26 L 98.94 115.40 L 100.22 112.54 L 107.95 128.38 L 108.10 137.20 L 106.73 134.38 L 106.67 131.25 L 107.95 128.38 L 111.81 136.30 L 111.75 133.17 L 110.38 130.35 L 107.95 128.38 L 107.89 125.25 L 107.84 122.12 L 111.70 130.04 L 109.27 128.07 L 107.89 125.25 L 107.84 122.12 L 114.69 127.66 L 113.32 124.84 L 110.88 122.87 L 107.84 122.12 L 106.46 119.29 L 105.09 116.48 L 111.94 122.03 L 108.90 121.27 L 106.46 119.29 L 105.09 116.48 L 113.64 118.61 L 111.21 116.64 L 108.17 115.88 L 105.09 116.48 L 102.66 114.51 L 100.22 112.54 L 100.37 121.34 L 99.00 118.53 L 98.94 115.40 L 100.22 112.54 L 104.08 120.46 L 104.03 117.32 L 102.66 114.51 L 100.22 112.54 L 100.16 109.40 L 100.11 106.26 L 100.26 115.08 L 98.89 112.26 L 98.83 109.13 L 100.11 106.26 L 103.97 114.19 L 103.92 111.05 L 102.54 108.24 L 100.11 106.26 L 100.07 103.97 L 96.95 103.37 L 82.70 117.92 L 58.09 143.40 L 52.35 160.07 L 53.27 168.83 L 51.65 166.15 L 51.33 163.04 L 52.35 160.07 L 56.89 167.63 L 56.56 164.51 L 54.95 161.83 L 52.35 160.07 L 52.02 156.95 L 51.69 153.84 L 48.82 162.17 L 48.49 159.06 L 49.52 156.09 L 51.69 153.84 L 52.61 162.60 L 53.63 159.64 L 53.31 156.52 L 51.69 153.84 L 52.71 150.87 L 53.74 147.91 L 47.61 154.25 L 48.63 151.28 L 50.81 149.03 L 53.74 147.91 L 50.87 156.24 L 53.04 154.00 L 54.06 151.03 L 53.74 147.91 L 55.91 145.66 L 58.09 143.40 L 59.93 160.93 L 57.06 169.27 L 56.73 166.15 L 57.75 163.19 L 59.93 160.93 L 60.85 169.71 L 61.88 166.74 L 61.54 163.62 L 59.93 160.93 L 60.95 157.97 L 61.97 155.00 L 62.90 163.77 L 61.28 161.09 L 60.95 157.97 L 61.97 155.00 L 66.51 162.57 L 66.18 159.45 L 64.57 156.76 L 61.97 155.00 L 61.64 151.89 L 61.32 148.78 L 65.86 156.33 L 63.26 154.58 L 61.64 151.89 L 61.32 148.78 L 68.63 153.71 L 67.01 151.01 L 64.41 149.27 L 61.32 148.78 L 59.70 146.08 L 58.09 143.40 L 55.22 151.74 L 54.89 148.62 L 55.91 145.66 L 58.09 143.40 L 59.01 152.17 L 60.03 149.21 L 59.70 146.08 L 58.09 143.40 L 59.11 140.44 L 60.13 137.47 L 57.26 145.80 L 56.93 142.69 L 57.95 139.73 L 60.13 137.47 L 61.05 146.24 L 62.07 143.28 L 61.74 140.16 L 60.13 137.47 L 61.15 134.51 L 62.17 131.55 L 49.92 144.23 L 47.05 152.57 L 46.73 149.45 L 47.74 146.48 L 49.92 144.23 L 50.85 152.99 L 51.86 150.03 L 51.54 146.92 L 49.92 144.23 L 50.94 141.27 L 51.96 138.30 L 45.84 144.65 L 46.86 141.68 L 49.04 139.43 L 51.96 138.30 L 49.10 146.64 L 51.27 144.39 L 52.29 141.42 L 51.96 138.30 L 54.14 136.05 L 56.32 133.79 L 48.09 136.95 L 50.27 134.70 L 53.19 133.58 L 56.32 133.79 L 50.20 140.13 L 53.13 139.01 L 55.30 136.76 L 56.32 133.79 L 59.24 132.67 L 62.17 131.55 L 56.43 148.22 L 50.30 154.56 L 51.33 151.59 L 53.50 149.34 L 56.43 148.22 L 53.56 156.55 L 55.74 154.30 L 56.76 151.34 L 56.43 148.22 L 58.61 145.97 L 60.78 143.71 L 57.91 152.04 L 57.59 148.92 L 58.61 145.97 L 60.78 143.71 L 61.71 152.48 L 62.73 149.51 L 62.40 146.39 L 60.78 143.71 L 61.81 140.74 L 62.83 137.78 L 63.74 146.55 L 62.13 143.86 L 61.81 140.74 L 62.83 137.78 L 67.36 145.34 L 67.03 142.22 L 65.42 139.54 L 62.83 137.78 L 62.50 134.66 L 62.17 131.55 L 56.04 137.89 L 57.07 134.92 L 59.24 132.67 L 62.17 131.55 L 59.30 139.88 L 61.48 137.63 L 62.50 134.66 L 62.17 131.55 L 64.35 129.29 L 66.53 127.04 L 60.40 133.38 L 61.42 130.42 L 63.60 128.16 L 66.53 127.04 L 63.66 135.37 L 65.83 133.12 L 66.85 130.16 L 66.53 127.04 L 68.70 124.79 L 70.88 122.53 L 54.42 128.85 L 48.30 135.19 L 49.32 132.22 L 51.50 129.97 L 54.42 128.85 L 51.55 137.18 L 53.73 134.93 L 54.75 131.97 L 54.42 128.85 L 56.59 126.59 L 58.78 124.34 L 50.55 127.49 L 52.72 125.24 L 55.64 124.12 L 58.78 124.34 L 52.65 130.68 L 55.57 129.56 L 57.75 127.30 L 58.78 124.34 L 61.70 123.21 L 64.63 122.09 L 55.83 121.48 L 58.76 120.35 L 61.88 120.57 L 64.63 122.09 L 56.39 125.25 L 59.52 125.47 L 62.44 124.35 L 64.63 122.09 L 67.75 122.31 L 70.88 122.53 L 58.63 135.21 L 50.40 138.37 L 52.58 136.12 L 55.50 134.99 L 58.63 135.21 L 52.50 141.55 L 55.43 140.43 L 57.62 138.17 L 58.63 135.21 L 61.55 134.09 L 64.49 132.97 L 58.36 139.30 L 59.38 136.34 L 61.55 134.09 L 64.49 132.97 L 61.61 141.30 L 63.79 139.05 L 64.81 136.08 L 64.49 132.97 L 66.66 130.71 L 68.84 128.46 L 65.96 136.79 L 65.64 133.67 L 66.66 130.71 L 68.84 128.46 L 69.76 137.22 L 70.78 134.26 L 70.45 131.14 L 68.84 128.46 L 69.86 125.49 L 70.88 122.53 L 62.65 125.69 L 64.83 123.43 L 67.75 122.31 L 70.88 122.53 L 64.76 128.87 L 67.68 127.75 L 69.86 125.49 L 70.88 122.53 L 73.80 121.41 L 76.73 120.28 L 68.50 123.44 L 70.67 121.19 L 73.60 120.07 L 76.73 120.28 L 70.61 126.62 L 73.53 125.50 L 75.71 123.25 L 76.73 120.28 L 79.66 119.16 L 82.58 118.04 L 71.10 151.37 L 58.86 164.06 L 55.98 172.39 L 55.66 169.27 L 56.68 166.31 L 58.86 164.06 L 59.78 172.83 L 60.80 169.86 L 60.47 166.74 L 58.86 164.06 L 59.88 161.09 L 60.90 158.13 L 54.78 164.47 L 55.79 161.50 L 57.97 159.26 L 60.90 158.13 L 58.03 166.46 L 60.20 164.21 L 61.22 161.25 L 60.90 158.13 L 63.07 155.88 L 65.25 153.62 L 57.02 156.78 L 59.20 154.53 L 62.12 153.41 L 65.25 153.62 L 59.13 159.96 L 62.05 158.84 L 64.23 156.58 L 65.25 153.62 L 68.18 152.50 L 71.10 151.37 L 65.36 168.05 L 59.24 174.39 L 60.26 171.43 L 62.43 169.17 L 65.36 168.05 L 62.49 176.38 L 64.67 174.13 L 65.69 171.16 L 65.36 168.05 L 67.54 165.79 L 69.72 163.53 L 66.85 171.87 L 66.52 168.76 L 67.54 165.79 L 69.72 163.53 L 70.64 172.31 L 71.66 169.34 L 71.33 166.22 L 69.72 163.53 L 70.74 160.58 L 71.76 157.61 L 72.67 166.38 L 71.07 163.69 L 70.74 160.58 L 71.76 157.61 L 76.30 165.17 L 75.97 162.05 L 74.35 159.36 L 71.76 157.61 L 71.43 154.49 L 71.10 151.37 L 64.98 157.71 L 66.00 154.75 L 68.18 152.50 L 71.10 151.37 L 68.23 159.71 L 70.41 157.46 L 71.43 154.49 L 71.10 151.37 L 73.28 149.12 L 75.46 146.86 L 69.33 153.21 L 70.36 150.25 L 72.53 147.99 L 75.46 146.86 L 72.59 155.20 L 74.76 152.95 L 75.79 149.98 L 75.46 146.86 L 77.63 144.61 L 79.81 142.36 L 74.07 159.02 L 74.99 167.80 L 73.38 165.11 L 73.05 161.99 L 74.07 159.02 L 78.61 166.59 L 78.28 163.46 L 76.67 160.78 L 74.07 159.02 L 73.75 155.91 L 73.41 152.80 L 70.55 161.13 L 70.22 158.01 L 71.24 155.05 L 73.41 152.80 L 74.34 161.57 L 75.36 158.60 L 75.03 155.48 L 73.41 152.80 L 74.44 149.83 L 75.46 146.86 L 69.33 153.21 L 70.36 150.25 L 72.53 147.99 L 75.46 146.86 L 72.59 155.20 L 74.76 152.95 L 75.79 149.98 L 75.46 146.86 L 77.63 144.61 L 79.81 142.36 L 81.66 159.89 L 78.78 168.23 L 78.46 165.11 L 79.48 162.15 L 81.66 159.89 L 82.58 168.66 L 83.59 165.70 L 83.27 162.58 L 81.66 159.89 L 82.68 156.93 L 83.69 153.97 L 84.61 162.73 L 83.00 160.05 L 82.68 156.93 L 83.69 153.97 L 88.24 161.53 L 87.91 158.40 L 86.29 155.71 L 83.69 153.97 L 83.37 150.85 L 83.04 147.73 L 87.58 155.29 L 84.98 153.54 L 83.37 150.85 L 83.04 147.73 L 90.35 152.66 L 88.74 149.97 L 86.13 148.22 L 83.04 147.73 L 81.42 145.05 L 79.81 142.36 L 76.94 150.69 L 76.61 147.57 L 77.63 144.61 L 79.81 142.36 L 80.73 151.13 L 81.76 148.16 L 81.42 145.05 L 79.81 142.36 L 80.83 139.40 L 81.86 136.43 L 78.98 144.77 L 78.65 141.65 L 79.67 138.69 L 81.86 136.43 L 82.78 145.20 L 83.79 142.23 L 83.46 139.12 L 81.86 136.43 L 82.87 133.47 L 83.89 130.51 L 85.74 148.04 L 90.28 155.60 L 87.68 153.84 L 86.06 151.15 L 85.74 148.04 L 93.04 152.97 L 91.43 150.28 L 88.83 148.53 L 85.74 148.04 L 84.12 145.35 L 82.51 142.67 L 83.43 151.43 L 81.81 148.75 L 81.49 145.63 L 82.51 142.67 L 87.05 150.22 L 86.72 147.11 L 85.11 144.41 L 82.51 142.67 L 82.18 139.55 L 81.86 136.43 L 78.98 144.77 L 78.65 141.65 L 79.67 138.69 L 81.86 136.43 L 82.78 145.20 L 83.79 142.23 L 83.46 139.12 L 81.86 136.43 L 82.87 133.47 L 83.89 130.51 L 92.97 145.61 L 93.89 154.39 L 92.28 151.70 L 91.96 148.58 L 92.97 145.61 L 97.51 153.18 L 97.19 150.06 L 95.57 147.37 L 92.97 145.61 L 92.65 142.50 L 92.32 139.38 L 96.86 146.94 L 94.26 145.19 L 92.65 142.50 L 92.32 139.38 L 99.63 144.31 L 98.01 141.62 L 95.41 139.88 L 92.32 139.38 L 90.70 136.69 L 89.09 134.01 L 96.40 138.94 L 93.30 138.44 L 90.70 136.69 L 89.09 134.01 L 97.80 135.39 L 95.20 133.63 L 92.10 133.15 L 89.09 134.01 L 86.49 132.26 L 83.89 130.51 L 84.81 139.27 L 83.20 136.58 L 82.87 133.47 L 83.89 130.51 L 88.43 138.06 L 88.11 134.94 L 86.49 132.26 L 83.89 130.51 L 83.56 127.39 L 83.24 124.27 L 84.16 133.04 L 82.55 130.35 L 82.22 127.24 L 83.24 124.27 L 87.78 131.83 L 87.45 128.71 L 85.84 126.02 L 83.24 124.27 L 82.91 121.16 L 82.58 118.04 L 70.34 130.72 L 67.46 139.05 L 67.14 135.94 L 68.16 132.97 L 70.34 130.72 L 71.26 139.49 L 72.27 136.52 L 71.95 133.41 L 70.34 130.72 L 71.36 127.76 L 72.38 124.79 L 66.25 131.13 L 67.27 128.17 L 69.45 125.91 L 72.38 124.79 L 69.51 133.13 L 71.68 130.88 L 72.70 127.91 L 72.38 124.79 L 74.55 122.54 L 76.73 120.28 L 68.50 123.44 L 70.67 121.19 L 73.60 120.07 L 76.73 120.28 L 70.61 126.62 L 73.53 125.50 L 75.71 123.25 L 76.73 120.28 L 79.66 119.16 L 82.58 118.04 L 76.84 134.71 L 70.72 141.05 L 71.74 138.08 L 73.92 135.83 L 76.84 134.71 L 73.97 143.04 L 76.15 140.79 L 77.17 137.83 L 76.84 134.71 L 79.02 132.45 L 81.20 130.20 L 78.33 138.53 L 78.00 135.41 L 79.02 132.45 L 81.20 130.20 L 82.12 138.96 L 83.14 136.00 L 82.81 132.89 L 81.20 130.20 L 82.22 127.24 L 83.24 124.27 L 84.16 133.04 L 82.55 130.35 L 82.22 127.24 L 83.24 124.27 L 87.78 131.83 L 87.45 128.71 L 85.84 126.02 L 83.24 124.27 L 82.91 121.16 L 82.58 118.04 L 76.46 124.38 L 77.48 121.41 L 79.66 119.16 L 82.58 118.04 L 79.71 126.37 L 81.89 124.12 L 82.91 121.16 L 82.58 118.04 L 84.76 115.78 L 86.94 113.52 L 80.81 119.87 L 81.84 116.90 L 84.01 114.65 L 86.94 113.52 L 84.07 121.86 L 86.24 119.60 L 87.26 116.65 L 86.94 113.52 L 89.12 111.27 L 91.29 109.02 L 79.04 121.70 L 76.17 130.04 L 75.85 126.92 L 76.87 123.95 L 79.04 121.70 L 79.96 130.47 L 80.99 127.50 L 80.66 124.38 L 79.04 121.70 L 80.06 118.74 L 81.08 115.78 L 74.96 122.12 L 75.98 119.15 L 78.16 116.90 L 81.08 115.78 L 78.22 124.11 L 80.39 121.85 L 81.41 118.89 L 81.08 115.78 L 83.26 113.52 L 85.44 111.26 L 77.21 114.43 L 79.38 112.17 L 82.31 111.05 L 85.44 111.26 L 79.32 117.61 L 82.24 116.48 L 84.42 114.22 L 85.44 111.26 L 88.36 110.14 L 91.29 109.02 L 85.55 125.69 L 79.43 132.03 L 80.45 129.06 L 82.62 126.81 L 85.55 125.69 L 82.68 134.02 L 84.86 131.77 L 85.88 128.80 L 85.55 125.69 L 87.73 123.43 L 89.90 121.18 L 87.03 129.52 L 86.71 126.40 L 87.73 123.43 L 89.90 121.18 L 90.83 129.95 L 91.85 126.98 L 91.52 123.86 L 89.90 121.18 L 90.93 118.21 L 91.95 115.25 L 92.87 124.02 L 91.25 121.33 L 90.93 118.21 L 91.95 115.25 L 96.49 122.81 L 96.16 119.69 L 94.55 117.00 L 91.95 115.25 L 91.62 112.14 L 91.29 109.02 L 85.17 115.36 L 86.19 112.39 L 88.36 110.14 L 91.29 109.02 L 88.42 117.35 L 90.60 115.10 L 91.62 112.14 L 91.29 109.02 L 93.47 106.77 L 95.65 104.51 L 89.52 110.85 L 90.54 107.89 L 92.72 105.63 L 95.65 104.51 L 92.78 112.84 L 94.95 110.59 L 95.97 107.62 L 95.65 104.51 L 97.24 102.86 L 95.46 100.22 L 75.09 100.44 L 39.67 101.05 L 23.82 108.78 L 18.29 115.63 L 19.04 112.59 L 21.01 110.16 L 23.82 108.78 L 21.70 117.34 L 23.67 114.90 L 24.43 111.86 L 23.82 108.78 L 25.80 106.34 L 27.77 103.91 L 19.85 107.77 L 21.82 105.34 L 24.64 103.97 L 27.77 103.91 L 22.22 110.76 L 25.04 109.39 L 27.02 106.95 L 27.77 103.91 L 30.59 102.53 L 33.41 101.16 L 24.59 101.32 L 27.42 99.94 L 30.55 99.89 L 33.41 101.16 L 25.49 105.03 L 28.61 104.98 L 31.43 103.60 L 33.41 101.16 L 36.54 101.11 L 39.67 101.05 L 28.58 114.75 L 20.66 118.62 L 22.63 116.18 L 25.44 114.81 L 28.58 114.75 L 23.03 121.61 L 25.85 120.23 L 27.82 117.79 L 28.58 114.75 L 31.40 113.38 L 34.22 112.00 L 28.67 118.86 L 29.43 115.82 L 31.40 113.38 L 34.22 112.00 L 32.08 120.56 L 34.05 118.12 L 34.82 115.08 L 34.22 112.00 L 36.18 109.57 L 38.16 107.14 L 36.02 115.69 L 35.43 112.61 L 36.18 109.57 L 38.16 107.14 L 39.84 115.79 L 40.60 112.75 L 40.00 109.67 L 38.16 107.14 L 38.92 104.09 L 39.67 101.05 L 31.75 104.91 L 33.73 102.48 L 36.54 101.11 L 39.67 101.05 L 34.12 107.90 L 36.94 106.53 L 38.92 104.09 L 39.67 101.05 L 42.49 99.68 L 45.31 98.30 L 37.39 102.17 L 39.36 99.73 L 42.17 98.36 L 45.31 98.30 L 39.76 105.16 L 42.58 103.78 L 44.55 101.35 L 45.31 98.30 L 48.12 96.93 L 50.94 95.56 L 33.31 95.87 L 25.39 99.73 L 27.37 97.30 L 30.18 95.92 L 33.31 95.87 L 27.77 102.72 L 30.59 101.34 L 32.55 98.91 L 33.31 95.87 L 36.13 94.49 L 38.95 93.11 L 30.13 93.27 L 32.95 91.89 L 36.09 91.84 L 38.95 93.11 L 31.03 96.98 L 34.16 96.93 L 36.98 95.55 L 38.95 93.11 L 42.08 93.06 L 45.22 93.01 L 37.16 89.42 L 40.30 89.37 L 43.16 90.64 L 45.22 93.01 L 36.40 93.16 L 39.27 94.44 L 42.40 94.38 L 45.22 93.01 L 48.08 94.28 L 50.94 95.56 L 35.09 103.29 L 26.28 103.44 L 29.10 102.06 L 32.23 102.01 L 35.09 103.29 L 27.17 107.15 L 30.30 107.10 L 33.12 105.72 L 35.09 103.29 L 38.23 103.23 L 41.36 103.17 L 33.44 107.04 L 35.42 104.61 L 38.23 103.23 L 41.36 103.17 L 35.82 110.03 L 38.63 108.65 L 40.61 106.22 L 41.36 103.17 L 44.18 101.80 L 47.00 100.43 L 41.45 107.28 L 42.21 104.24 L 44.18 101.80 L 47.00 100.43 L 44.86 108.98 L 46.83 106.54 L 47.59 103.51 L 47.00 100.43 L 48.97 97.99 L 50.94 95.56 L 42.13 95.71 L 44.95 94.34 L 48.08 94.28 L 50.94 95.56 L 43.02 99.42 L 46.16 99.37 L 48.97 97.99 L 50.94 95.56 L 54.08 95.50 L 57.21 95.45 L 48.39 95.60 L 51.21 94.23 L 54.34 94.17 L 57.21 95.45 L 49.29 99.31 L 52.42 99.26 L 55.24 97.89 L 57.21 95.45 L 60.34 95.39 L 63.48 95.34 L 47.37 88.17 L 38.56 88.32 L 41.38 86.95 L 44.51 86.90 L 47.37 88.17 L 39.45 92.03 L 42.58 91.98 L 45.40 90.60 L 47.37 88.17 L 50.50 88.11 L 53.64 88.06 L 45.59 84.47 L 48.72 84.42 L 51.58 85.69 L 53.64 88.06 L 44.82 88.21 L 47.68 89.49 L 50.82 89.43 L 53.64 88.06 L 56.51 89.33 L 59.37 90.61 L 53.58 83.95 L 56.45 85.23 L 58.50 87.59 L 59.37 90.61 L 51.31 87.02 L 53.37 89.38 L 56.23 90.66 L 59.37 90.61 L 61.42 92.97 L 63.48 95.34 L 45.85 95.65 L 37.79 92.06 L 40.93 92.01 L 43.79 93.28 L 45.85 95.65 L 37.03 95.80 L 39.90 97.08 L 43.04 97.02 L 45.85 95.65 L 48.71 96.92 L 51.58 98.20 L 42.77 98.35 L 45.58 96.98 L 48.71 96.92 L 51.58 98.20 L 43.65 102.06 L 46.78 102.01 L 49.60 100.63 L 51.58 98.20 L 54.71 98.14 L 57.84 98.09 L 49.92 101.95 L 51.90 99.51 L 54.71 98.14 L 57.84 98.09 L 52.29 104.94 L 55.11 103.56 L 57.08 101.13 L 57.84 98.09 L 60.66 96.71 L 63.48 95.34 L 55.42 91.75 L 58.56 91.70 L 61.42 92.97 L 63.48 95.34 L 54.67 95.49 L 57.53 96.77 L 60.66 96.71 L 63.48 95.34 L 66.34 96.61 L 69.20 97.89 L 61.15 94.30 L 64.28 94.25 L 67.15 95.52 L 69.20 97.89 L 60.39 98.04 L 63.25 99.32 L 66.38 99.26 L 69.20 97.89 L 72.07 99.16 L 74.93 100.44 L 43.24 115.90 L 25.61 116.20 L 17.68 120.06 L 19.66 117.63 L 22.48 116.26 L 25.61 116.20 L 20.06 123.05 L 22.88 121.68 L 24.85 119.24 L 25.61 116.20 L 28.43 114.83 L 31.25 113.46 L 22.43 113.61 L 25.25 112.23 L 28.38 112.18 L 31.25 113.46 L 23.33 117.32 L 26.45 117.27 L 29.27 115.89 L 31.25 113.46 L 34.38 113.40 L 37.51 113.34 L 29.46 109.76 L 32.59 109.70 L 35.45 110.98 L 37.51 113.34 L 28.70 113.50 L 31.57 114.77 L 34.70 114.72 L 37.51 113.34 L 40.38 114.62 L 43.24 115.90 L 27.39 123.63 L 18.57 123.77 L 21.39 122.41 L 24.53 122.35 L 27.39 123.63 L 19.47 127.48 L 22.60 127.43 L 25.42 126.06 L 27.39 123.63 L 30.53 123.57 L 33.66 123.51 L 25.74 127.38 L 27.71 124.95 L 30.53 123.57 L 33.66 123.51 L 28.11 130.37 L 30.93 128.99 L 32.90 126.56 L 33.66 123.51 L 36.47 122.14 L 39.29 120.77 L 33.74 127.62 L 34.50 124.58 L 36.47 122.14 L 39.29 120.77 L 37.16 129.32 L 39.13 126.88 L 39.89 123.84 L 39.29 120.77 L 41.27 118.33 L 43.24 115.90 L 34.43 116.05 L 37.24 114.67 L 40.38 114.62 L 43.24 115.90 L 35.32 119.76 L 38.45 119.70 L 41.27 118.33 L 43.24 115.90 L 46.37 115.84 L 49.51 115.78 L 40.69 115.94 L 43.51 114.57 L 46.64 114.51 L 49.51 115.78 L 41.58 119.65 L 44.72 119.59 L 47.54 118.22 L 49.51 115.78 L 52.64 115.73 L 55.77 115.68 L 39.93 123.40 L 34.38 130.25 L 35.13 127.22 L 37.11 124.78 L 39.93 123.40 L 37.79 131.96 L 39.77 129.52 L 40.52 126.48 L 39.93 123.40 L 41.90 120.97 L 43.87 118.53 L 35.95 122.40 L 37.92 119.96 L 40.74 118.59 L 43.87 118.53 L 38.32 125.39 L 41.14 124.01 L 43.11 121.57 L 43.87 118.53 L 46.69 117.16 L 49.51 115.78 L 40.69 115.94 L 43.51 114.57 L 46.64 114.51 L 49.51 115.78 L 41.58 119.65 L 44.72 119.59 L 47.54 118.22 L 49.51 115.78 L 52.64 115.73 L 55.77 115.68 L 44.68 129.38 L 36.75 133.24 L 38.73 130.81 L 41.54 129.44 L 44.68 129.38 L 39.13 136.23 L 41.94 134.86 L 43.92 132.42 L 44.68 129.38 L 47.49 128.01 L 50.31 126.63 L 44.76 133.48 L 45.52 130.44 L 47.49 128.01 L 50.31 126.63 L 48.18 135.19 L 50.15 132.75 L 50.91 129.70 L 50.31 126.63 L 52.29 124.19 L 54.26 121.76 L 52.12 130.31 L 51.52 127.24 L 52.29 124.19 L 54.26 121.76 L 55.93 130.41 L 56.70 127.37 L 56.10 124.29 L 54.26 121.76 L 55.01 118.72 L 55.77 115.68 L 47.85 119.54 L 49.82 117.10 L 52.64 115.73 L 55.77 115.68 L 50.22 122.53 L 53.05 121.15 L 55.01 118.72 L 55.77 115.68 L 58.59 114.30 L 61.41 112.93 L 53.48 116.79 L 55.46 114.36 L 58.27 112.99 L 61.41 112.93 L 55.86 119.78 L 58.68 118.40 L 60.65 115.97 L 61.41 112.93 L 64.23 111.55 L 67.04 110.18 L 55.95 123.88 L 53.81 132.44 L 53.21 129.36 L 53.97 126.32 L 55.95 123.88 L 57.63 132.53 L 58.39 129.49 L 57.79 126.42 L 55.95 123.88 L 56.70 120.84 L 57.46 117.80 L 51.91 124.65 L 52.67 121.61 L 54.65 119.17 L 57.46 117.80 L 55.33 126.35 L 57.30 123.92 L 58.06 120.88 L 57.46 117.80 L 59.43 115.37 L 61.41 112.93 L 53.48 116.79 L 55.46 114.36 L 58.27 112.99 L 61.41 112.93 L 55.86 119.78 L 58.68 118.40 L 60.65 115.97 L 61.41 112.93 L 64.23 111.55 L 67.04 110.18 L 62.78 127.29 L 57.22 134.14 L 57.99 131.10 L 59.96 128.66 L 62.78 127.29 L 60.64 135.84 L 62.61 133.41 L 63.38 130.36 L 62.78 127.29 L 64.75 124.85 L 66.72 122.42 L 64.59 130.97 L 63.99 127.89 L 64.75 124.85 L 66.72 122.42 L 68.40 131.07 L 69.16 128.03 L 68.56 124.95 L 66.72 122.42 L 67.48 119.37 L 68.23 116.34 L 69.92 124.99 L 68.08 122.45 L 67.48 119.37 L 68.23 116.34 L 73.42 123.47 L 72.82 120.39 L 70.98 117.85 L 68.23 116.34 L 67.64 113.26 L 67.04 110.18 L 61.50 117.03 L 62.25 113.99 L 64.23 111.55 L 67.04 110.18 L 64.91 118.74 L 66.88 116.30 L 67.64 113.26 L 67.04 110.18 L 69.01 107.74 L 70.99 105.31 L 65.44 112.16 L 66.20 109.12 L 68.17 106.68 L 70.99 105.31 L 68.85 113.86 L 70.83 111.42 L 71.58 108.39 L 70.99 105.31 L 72.95 102.87 L 74.93 100.44 L 57.30 100.75 L 49.38 104.61 L 51.35 102.18 L 54.17 100.80 L 57.30 100.75 L 51.75 107.60 L 54.57 106.22 L 56.54 103.79 L 57.30 100.75 L 60.12 99.37 L 62.94 98.00 L 54.12 98.15 L 56.94 96.78 L 60.08 96.72 L 62.94 98.00 L 55.01 101.86 L 58.14 101.81 L 60.96 100.43 L 62.94 98.00 L 66.07 97.94 L 69.20 97.89 L 61.15 94.30 L 64.28 94.25 L 67.15 95.52 L 69.20 97.89 L 60.39 98.04 L 63.25 99.32 L 66.38 99.26 L 69.20 97.89 L 72.07 99.16 L 74.93 100.44 L 59.08 108.17 L 50.27 108.32 L 53.09 106.95 L 56.22 106.89 L 59.08 108.17 L 51.16 112.03 L 54.29 111.98 L 57.11 110.60 L 59.08 108.17 L 62.22 108.11 L 65.35 108.06 L 57.43 111.92 L 59.40 109.48 L 62.22 108.11 L 65.35 108.06 L 59.81 114.91 L 62.62 113.53 L 64.59 111.10 L 65.35 108.06 L 68.17 106.68 L 70.99 105.31 L 65.44 112.16 L 66.20 109.12 L 68.17 106.68 L 70.99 105.31 L 68.85 113.86 L 70.83 111.42 L 71.58 108.39 L 70.99 105.31 L 72.95 102.87 L 74.93 100.44 L 66.12 100.59 L 68.93 99.22 L 72.07 99.16 L 74.93 100.44 L 67.01 104.30 L 70.14 104.25 L 72.95 102.87 L 74.93 100.44 L 78.06 100.38 L 81.20 100.33 L 72.38 100.48 L 75.20 99.11 L 78.33 99.05 L 81.20 100.33 L 73.27 104.19 L 76.41 104.14 L 79.22 102.76 L 81.20 100.33 L 84.33 100.27 L 87.46 100.22 L 69.84 100.53 L 61.91 104.39 L 63.89 101.95 L 66.71 100.58 L 69.84 100.53 L 64.29 107.38 L 67.11 106.00 L 69.08 103.57 L 69.84 100.53 L 72.65 99.15 L 75.47 97.78 L 66.66 97.93 L 69.48 96.56 L 72.61 96.51 L 75.47 97.78 L 67.55 101.64 L 70.68 101.59 L 73.50 100.21 L 75.47 97.78 L 78.60 97.72 L 81.74 97.67 L 73.68 94.08 L 76.82 94.03 L 79.68 95.30 L 81.74 97.67 L 72.93 97.82 L 75.79 99.10 L 78.93 99.04 L 81.74 97.67 L 84.60 98.94 L 87.46 100.22 L 71.62 107.95 L 62.80 108.10 L 65.62 106.73 L 68.75 106.67 L 71.62 107.95 L 63.70 111.81 L 66.83 111.75 L 69.65 110.38 L 71.62 107.95 L 74.75 107.89 L 77.88 107.84 L 69.96 111.70 L 71.93 109.27 L 74.75 107.89 L 77.88 107.84 L 72.34 114.69 L 75.16 113.32 L 77.13 110.88 L 77.88 107.84 L 80.71 106.46 L 83.52 105.09 L 77.97 111.94 L 78.73 108.90 L 80.71 106.46 L 83.52 105.09 L 81.39 113.64 L 83.36 111.21 L 84.12 108.17 L 83.52 105.09 L 85.49 102.66 L 87.46 100.22 L 78.66 100.37 L 81.47 99.00 L 84.60 98.94 L 87.46 100.22 L 79.54 104.08 L 82.68 104.03 L 85.49 102.66 L 87.46 100.22 L 90.60 100.16 L 93.74 100.11 L 84.92 100.26 L 87.74 98.89 L 90.87 98.83 L 93.74 100.11 L 85.81 103.97 L 88.95 103.92 L 91.76 102.54 L 93.74 100.11 L 96.03 100.07 L 96.63 96.95 L 82.08 82.70 L 56.60 58.09 L 39.93 52.35 L 31.17 53.27 L 33.85 51.65 L 36.96 51.33 L 39.93 52.35 L 32.37 56.89 L 35.49 56.56 L 38.17 54.95 L 39.93 52.35 L 43.05 52.02 L 46.16 51.69 L 37.83 48.82 L 40.94 48.49 L 43.91 49.52 L 46.16 51.69 L 37.40 52.61 L 40.36 53.63 L 43.48 53.31 L 46.16 51.69 L 49.13 52.71 L 52.09 53.74 L 45.75 47.61 L 48.72 48.63 L 50.97 50.81 L 52.09 53.74 L 43.76 50.87 L 46.00 53.04 L 48.97 54.06 L 52.09 53.74 L 54.34 55.91 L 56.60 58.09 L 39.07 59.93 L 30.73 57.06 L 33.85 56.73 L 36.81 57.75 L 39.07 59.93 L 30.29 60.85 L 33.26 61.88 L 36.38 61.54 L 39.07 59.93 L 42.03 60.95 L 45.00 61.97 L 36.23 62.90 L 38.91 61.28 L 42.03 60.95 L 45.00 61.97 L 37.43 66.51 L 40.55 66.18 L 43.24 64.57 L 45.00 61.97 L 48.11 61.64 L 51.22 61.32 L 43.67 65.86 L 45.42 63.26 L 48.11 61.64 L 51.22 61.32 L 46.29 68.63 L 48.99 67.01 L 50.73 64.41 L 51.22 61.32 L 53.92 59.70 L 56.60 58.09 L 48.26 55.21 L 51.38 54.89 L 54.34 55.91 L 56.60 58.09 L 47.83 59.01 L 50.79 60.03 L 53.92 59.70 L 56.60 58.09 L 59.56 59.11 L 62.53 60.13 L 54.19 57.26 L 57.31 56.93 L 60.27 57.95 L 62.53 60.13 L 53.76 61.05 L 56.72 62.07 L 59.84 61.74 L 62.53 60.13 L 65.49 61.15 L 68.45 62.17 L 55.77 49.92 L 47.43 47.05 L 50.55 46.73 L 53.52 47.74 L 55.77 49.92 L 47.01 50.85 L 49.97 51.86 L 53.08 51.53 L 55.77 49.92 L 58.73 50.94 L 61.70 51.97 L 55.35 45.84 L 58.32 46.86 L 60.57 49.04 L 61.70 51.97 L 53.36 49.10 L 55.61 51.27 L 58.58 52.29 L 61.70 51.97 L 63.95 54.14 L 66.21 56.32 L 63.05 48.09 L 65.30 50.27 L 66.42 53.19 L 66.21 56.32 L 59.87 50.20 L 60.99 53.13 L 63.24 55.30 L 66.21 56.32 L 67.33 59.24 L 68.45 62.17 L 51.78 56.43 L 45.44 50.30 L 48.41 51.33 L 50.66 53.50 L 51.78 56.43 L 43.45 53.56 L 45.70 55.74 L 48.66 56.76 L 51.78 56.43 L 54.03 58.61 L 56.29 60.78 L 47.96 57.91 L 51.08 57.59 L 54.03 58.61 L 56.29 60.78 L 47.52 61.71 L 50.49 62.73 L 53.61 62.40 L 56.29 60.78 L 59.26 61.81 L 62.22 62.83 L 53.45 63.74 L 56.14 62.13 L 59.26 61.81 L 62.22 62.83 L 54.66 67.36 L 57.78 67.03 L 60.46 65.42 L 62.22 62.83 L 65.34 62.50 L 68.45 62.17 L 62.11 56.04 L 65.08 57.07 L 67.33 59.24 L 68.45 62.17 L 60.12 59.30 L 62.37 61.48 L 65.34 62.50 L 68.45 62.17 L 70.71 64.35 L 72.96 66.53 L 66.62 60.40 L 69.58 61.42 L 71.84 63.60 L 72.96 66.53 L 64.63 63.66 L 66.88 65.83 L 69.84 66.85 L 72.96 66.53 L 75.21 68.70 L 77.47 70.88 L 71.15 54.42 L 64.81 48.30 L 67.78 49.32 L 70.03 51.50 L 71.15 54.42 L 62.82 51.55 L 65.07 53.72 L 68.04 54.75 L 71.15 54.42 L 73.41 56.59 L 75.66 58.78 L 72.51 50.55 L 74.76 52.72 L 75.88 55.64 L 75.66 58.78 L 69.32 52.65 L 70.44 55.57 L 72.70 57.75 L 75.66 58.78 L 76.79 61.70 L 77.91 64.63 L 78.52 55.83 L 79.65 58.76 L 79.43 61.88 L 77.91 64.63 L 74.75 56.39 L 74.53 59.52 L 75.65 62.44 L 77.91 64.63 L 77.69 67.75 L 77.47 70.88 L 64.79 58.63 L 61.63 50.40 L 63.88 52.58 L 65.01 55.50 L 64.79 58.63 L 58.45 52.50 L 59.57 55.43 L 61.83 57.62 L 64.79 58.63 L 65.91 61.56 L 67.04 64.49 L 60.70 58.36 L 63.66 59.38 L 65.91 61.56 L 67.04 64.49 L 58.70 61.61 L 60.95 63.79 L 63.92 64.81 L 67.04 64.49 L 69.29 66.66 L 71.54 68.84 L 63.21 65.96 L 66.33 65.64 L 69.29 66.66 L 71.54 68.84 L 62.78 69.76 L 65.74 70.78 L 68.86 70.45 L 71.54 68.84 L 74.51 69.86 L 77.47 70.88 L 74.31 62.65 L 76.57 64.83 L 77.69 67.75 L 77.47 70.88 L 71.13 64.76 L 72.25 67.68 L 74.51 69.86 L 77.47 70.88 L 78.59 73.80 L 79.72 76.73 L 76.56 68.50 L 78.81 70.67 L 79.93 73.60 L 79.72 76.73 L 73.38 70.61 L 74.50 73.53 L 76.75 75.71 L 79.72 76.73 L 80.84 79.66 L 81.96 82.58 L 48.63 71.11 L 35.94 58.86 L 27.61 55.98 L 30.73 55.66 L 33.69 56.68 L 35.94 58.86 L 27.17 59.78 L 30.14 60.80 L 33.26 60.47 L 35.94 58.86 L 38.91 59.88 L 41.87 60.90 L 35.53 54.78 L 38.50 55.79 L 40.74 57.97 L 41.87 60.90 L 33.54 58.03 L 35.79 60.20 L 38.75 61.22 L 41.87 60.90 L 44.12 63.07 L 46.38 65.25 L 43.22 57.02 L 45.47 59.20 L 46.59 62.12 L 46.38 65.25 L 40.04 59.13 L 41.16 62.05 L 43.42 64.23 L 46.38 65.25 L 47.50 68.18 L 48.63 71.11 L 31.95 65.36 L 25.61 59.23 L 28.57 60.26 L 30.83 62.43 L 31.95 65.36 L 23.62 62.50 L 25.87 64.67 L 28.84 65.69 L 31.95 65.36 L 34.21 67.54 L 36.47 69.72 L 28.13 66.85 L 31.24 66.52 L 34.21 67.54 L 36.47 69.72 L 27.69 70.64 L 30.66 71.66 L 33.78 71.33 L 36.47 69.72 L 39.42 70.74 L 42.39 71.76 L 33.62 72.68 L 36.31 71.07 L 39.42 70.74 L 42.39 71.76 L 34.83 76.30 L 37.95 75.97 L 40.64 74.35 L 42.39 71.76 L 45.51 71.43 L 48.63 71.11 L 42.29 64.98 L 45.25 66.00 L 47.50 68.18 L 48.63 71.11 L 40.29 68.23 L 42.54 70.41 L 45.51 71.43 L 48.63 71.11 L 50.88 73.28 L 53.14 75.46 L 46.79 69.33 L 49.75 70.36 L 52.01 72.53 L 53.14 75.46 L 44.80 72.59 L 47.05 74.76 L 50.02 75.79 L 53.14 75.46 L 55.39 77.63 L 57.64 79.81 L 40.98 74.07 L 32.20 74.99 L 34.89 73.38 L 38.01 73.05 L 40.98 74.07 L 33.41 78.61 L 36.54 78.28 L 39.22 76.67 L 40.98 74.07 L 44.09 73.75 L 47.20 73.41 L 38.87 70.55 L 41.99 70.22 L 44.95 71.24 L 47.20 73.41 L 38.43 74.34 L 41.40 75.36 L 44.52 75.03 L 47.20 73.41 L 50.17 74.43 L 53.14 75.46 L 46.79 69.33 L 49.75 70.36 L 52.01 72.53 L 53.14 75.46 L 44.80 72.59 L 47.05 74.76 L 50.02 75.79 L 53.14 75.46 L 55.39 77.63 L 57.64 79.81 L 40.11 81.66 L 31.77 78.78 L 34.89 78.46 L 37.85 79.48 L 40.11 81.66 L 31.34 82.58 L 34.30 83.59 L 37.42 83.27 L 40.11 81.66 L 43.07 82.68 L 46.03 83.69 L 37.27 84.61 L 39.95 83.00 L 43.07 82.68 L 46.03 83.69 L 38.47 88.24 L 41.60 87.91 L 44.29 86.29 L 46.03 83.69 L 49.15 83.37 L 52.27 83.04 L 44.71 87.58 L 46.46 84.98 L 49.15 83.37 L 52.27 83.04 L 47.34 90.35 L 50.03 88.73 L 51.78 86.13 L 52.27 83.04 L 54.95 81.42 L 57.64 79.81 L 49.31 76.94 L 52.43 76.61 L 55.39 77.63 L 57.64 79.81 L 48.87 80.73 L 51.84 81.76 L 54.95 81.42 L 57.64 79.81 L 60.60 80.83 L 63.57 81.86 L 55.23 78.98 L 58.35 78.65 L 61.31 79.67 L 63.57 81.86 L 54.80 82.78 L 57.77 83.79 L 60.88 83.46 L 63.57 81.86 L 66.53 82.87 L 69.49 83.89 L 51.96 85.74 L 44.40 90.28 L 46.16 87.68 L 48.85 86.06 L 51.96 85.74 L 47.03 93.04 L 49.72 91.43 L 51.47 88.83 L 51.96 85.74 L 54.65 84.12 L 57.33 82.50 L 48.57 83.43 L 51.25 81.81 L 54.37 81.49 L 57.33 82.50 L 49.78 87.05 L 52.89 86.72 L 55.59 85.11 L 57.33 82.50 L 60.45 82.18 L 63.57 81.86 L 55.23 78.98 L 58.35 78.65 L 61.31 79.67 L 63.57 81.86 L 54.80 82.78 L 57.77 83.79 L 60.88 83.46 L 63.57 81.86 L 66.53 82.87 L 69.49 83.89 L 54.39 92.97 L 45.61 93.89 L 48.30 92.28 L 51.42 91.96 L 54.39 92.97 L 46.82 97.51 L 49.94 97.19 L 52.63 95.57 L 54.39 92.97 L 57.50 92.65 L 60.62 92.32 L 53.06 96.86 L 54.81 94.26 L 57.50 92.65 L 60.62 92.32 L 55.69 99.63 L 58.38 98.01 L 60.12 95.41 L 60.62 92.32 L 63.31 90.70 L 65.99 89.09 L 61.06 96.40 L 61.56 93.30 L 63.31 90.70 L 65.99 89.09 L 64.61 97.80 L 66.37 95.20 L 66.85 92.10 L 65.99 89.09 L 67.74 86.49 L 69.49 83.89 L 60.73 84.81 L 63.42 83.20 L 66.53 82.87 L 69.49 83.89 L 61.94 88.43 L 65.06 88.11 L 67.74 86.49 L 69.49 83.89 L 72.61 83.56 L 75.73 83.24 L 66.96 84.16 L 69.65 82.55 L 72.76 82.22 L 75.73 83.24 L 68.17 87.78 L 71.29 87.45 L 73.98 85.84 L 75.73 83.24 L 78.84 82.91 L 81.96 82.58 L 69.28 70.34 L 60.95 67.46 L 64.06 67.14 L 67.03 68.16 L 69.28 70.34 L 60.51 71.26 L 63.48 72.27 L 66.59 71.95 L 69.28 70.34 L 72.24 71.36 L 75.21 72.38 L 68.87 66.25 L 71.83 67.27 L 74.09 69.45 L 75.21 72.38 L 66.87 69.51 L 69.12 71.68 L 72.09 72.70 L 75.21 72.38 L 77.46 74.55 L 79.72 76.73 L 76.56 68.50 L 78.81 70.67 L 79.93 73.60 L 79.72 76.73 L 73.38 70.61 L 74.50 73.53 L 76.75 75.71 L 79.72 76.73 L 80.84 79.66 L 81.96 82.58 L 65.29 76.84 L 58.95 70.72 L 61.92 71.74 L 64.17 73.92 L 65.29 76.84 L 56.96 73.97 L 59.21 76.15 L 62.17 77.17 L 65.29 76.84 L 67.55 79.02 L 69.80 81.20 L 61.47 78.33 L 64.59 78.00 L 67.55 79.02 L 69.80 81.20 L 61.04 82.12 L 64.00 83.14 L 67.11 82.81 L 69.80 81.20 L 72.76 82.22 L 75.73 83.24 L 66.96 84.16 L 69.65 82.55 L 72.76 82.22 L 75.73 83.24 L 68.17 87.78 L 71.29 87.45 L 73.98 85.84 L 75.73 83.24 L 78.84 82.91 L 81.96 82.58 L 75.62 76.46 L 78.59 77.48 L 80.84 79.66 L 81.96 82.58 L 73.63 79.71 L 75.88 81.89 L 78.84 82.91 L 81.96 82.58 L 84.22 84.76 L 86.48 86.94 L 80.13 80.81 L 83.10 81.84 L 85.35 84.01 L 86.48 86.94 L 78.14 84.07 L 80.40 86.24 L 83.35 87.26 L 86.48 86.94 L 88.73 89.12 L 90.98 91.29 L 78.30 79.04 L 69.96 76.17 L 73.08 75.85 L 76.05 76.87 L 78.30 79.04 L 69.53 79.96 L 72.50 80.99 L 75.62 80.66 L 78.30 79.04 L 81.26 80.06 L 84.22 81.08 L 77.88 74.96 L 80.85 75.98 L 83.10 78.16 L 84.22 81.08 L 75.89 78.22 L 78.15 80.39 L 81.11 81.41 L 84.22 81.08 L 86.48 83.26 L 88.74 85.44 L 85.57 77.21 L 87.83 79.38 L 88.95 82.31 L 88.74 85.44 L 82.39 79.32 L 83.52 82.24 L 85.77 84.42 L 88.74 85.44 L 89.86 88.36 L 90.98 91.29 L 74.31 85.55 L 67.97 79.43 L 70.94 80.45 L 73.19 82.62 L 74.31 85.55 L 65.98 82.68 L 68.23 84.86 L 71.20 85.88 L 74.31 85.55 L 76.57 87.73 L 78.82 89.90 L 70.48 87.03 L 73.60 86.71 L 76.57 87.73 L 78.82 89.90 L 70.05 90.83 L 73.02 91.85 L 76.14 91.52 L 78.82 89.90 L 81.79 90.93 L 84.75 91.95 L 75.98 92.87 L 78.67 91.25 L 81.79 90.93 L 84.75 91.95 L 77.19 96.49 L 80.31 96.16 L 83.00 94.55 L 84.75 91.95 L 87.86 91.62 L 90.98 91.29 L 84.64 85.17 L 87.61 86.19 L 89.86 88.36 L 90.98 91.29 L 82.65 88.42 L 84.90 90.60 L 87.86 91.62 L 90.98 91.29 L 93.23 93.47 L 95.49 95.65 L 89.15 89.52 L 92.11 90.54 L 94.37 92.72 L 95.49 95.65 L 87.16 92.78 L 89.41 94.95 L 92.38 95.97 L 95.49 95.65 L 97.14 97.24 L 99.78 95.46 L 99.56 75.09 L 98.95 39.67 L 91.22 23.82 L 84.37 18.29 L 87.41 19.04 L 89.84 21.01 L 91.22 23.82 L 82.66 21.70 L 85.10 23.67 L 88.14 24.43 L 91.22 23.82 L 93.66 25.80 L 96.09 27.77 L 92.23 19.85 L 94.66 21.82 L 96.03 24.64 L 96.09 27.77 L 89.24 22.22 L 90.61 25.04 L 93.05 27.02 L 96.09 27.77 L 97.47 30.59 L 98.84 33.41 L 98.68 24.59 L 100.06 27.42 L 100.11 30.55 L 98.84 33.41 L 94.97 25.49 L 95.02 28.61 L 96.41 31.43 L 98.84 33.41 L 98.89 36.54 L 98.95 39.67 L 85.25 28.58 L 81.38 20.66 L 83.82 22.63 L 85.19 25.44 L 85.25 28.58 L 78.39 23.03 L 79.77 25.85 L 82.21 27.82 L 85.25 28.58 L 86.62 31.40 L 88.00 34.22 L 81.14 28.67 L 84.18 29.43 L 86.62 31.40 L 88.00 34.22 L 79.44 32.08 L 81.88 34.05 L 84.92 34.82 L 88.00 34.22 L 90.43 36.18 L 92.86 38.16 L 84.31 36.02 L 87.39 35.43 L 90.43 36.18 L 92.86 38.16 L 84.21 39.84 L 87.25 40.60 L 90.33 40.00 L 92.86 38.16 L 95.91 38.92 L 98.95 39.67 L 95.09 31.75 L 97.52 33.73 L 98.89 36.54 L 98.95 39.67 L 92.10 34.12 L 93.47 36.94 L 95.91 38.92 L 98.95 39.67 L 100.32 42.49 L 101.70 45.31 L 97.83 37.39 L 100.27 39.36 L 101.64 42.17 L 101.70 45.31 L 94.84 39.76 L 96.22 42.58 L 98.65 44.55 L 101.70 45.31 L 103.07 48.12 L 104.44 50.94 L 104.13 33.31 L 100.27 25.39 L 102.70 27.37 L 104.08 30.18 L 104.13 33.31 L 97.28 27.77 L 98.66 30.59 L 101.09 32.55 L 104.13 33.31 L 105.51 36.13 L 106.88 38.95 L 106.73 30.13 L 108.11 32.95 L 108.16 36.09 L 106.88 38.95 L 103.02 31.03 L 103.07 34.16 L 104.45 36.98 L 106.88 38.95 L 106.94 42.09 L 106.99 45.22 L 110.58 37.16 L 110.63 40.30 L 109.36 43.16 L 106.99 45.22 L 106.84 36.40 L 105.56 39.27 L 105.62 42.40 L 106.99 45.22 L 105.72 48.08 L 104.44 50.94 L 96.71 35.09 L 96.56 26.28 L 97.94 29.10 L 97.99 32.23 L 96.71 35.09 L 92.85 27.17 L 92.90 30.30 L 94.28 33.12 L 96.71 35.09 L 96.77 38.23 L 96.83 41.36 L 92.96 33.44 L 95.40 35.42 L 96.77 38.23 L 96.83 41.36 L 89.97 35.82 L 91.35 38.63 L 93.78 40.61 L 96.83 41.36 L 98.20 44.18 L 99.57 47.00 L 92.72 41.45 L 95.76 42.21 L 98.20 44.18 L 99.57 47.00 L 91.02 44.86 L 93.46 46.83 L 96.49 47.59 L 99.57 47.00 L 102.01 48.97 L 104.44 50.94 L 104.29 42.13 L 105.66 44.95 L 105.72 48.08 L 104.44 50.94 L 100.58 43.02 L 100.63 46.16 L 102.01 48.97 L 104.44 50.94 L 104.50 54.08 L 104.55 57.21 L 104.40 48.39 L 105.77 51.21 L 105.83 54.34 L 104.55 57.21 L 100.69 49.29 L 100.74 52.42 L 102.12 55.24 L 104.55 57.21 L 104.61 60.34 L 104.66 63.48 L 111.83 47.37 L 111.68 38.56 L 113.05 41.38 L 113.10 44.51 L 111.83 47.37 L 107.97 39.45 L 108.02 42.58 L 109.40 45.40 L 111.83 47.37 L 111.89 50.50 L 111.94 53.64 L 115.52 45.59 L 115.58 48.72 L 114.31 51.58 L 111.94 53.64 L 111.79 44.82 L 110.51 47.68 L 110.57 50.82 L 111.94 53.64 L 110.67 56.51 L 109.39 59.37 L 116.05 53.58 L 114.77 56.45 L 112.41 58.50 L 109.39 59.37 L 112.98 51.31 L 110.61 53.37 L 109.34 56.23 L 109.39 59.37 L 107.03 61.42 L 104.66 63.48 L 104.35 45.85 L 107.94 37.79 L 107.99 40.93 L 106.72 43.79 L 104.35 45.85 L 104.20 37.03 L 102.92 39.90 L 102.98 43.04 L 104.35 45.85 L 103.08 48.71 L 101.80 51.58 L 101.65 42.77 L 103.02 45.58 L 103.08 48.71 L 101.80 51.58 L 97.94 43.65 L 97.99 46.78 L 99.37 49.60 L 101.80 51.58 L 101.86 54.71 L 101.91 57.84 L 98.05 49.92 L 100.49 51.90 L 101.86 54.71 L 101.91 57.84 L 95.06 52.29 L 96.44 55.11 L 98.87 57.08 L 101.91 57.84 L 103.29 60.66 L 104.66 63.48 L 108.25 55.42 L 108.30 58.56 L 107.03 61.42 L 104.66 63.48 L 104.51 54.67 L 103.24 57.53 L 103.29 60.66 L 104.66 63.48 L 103.39 66.34 L 102.11 69.20 L 105.70 61.15 L 105.75 64.28 L 104.48 67.15 L 102.11 69.20 L 101.96 60.39 L 100.68 63.25 L 100.74 66.38 L 102.11 69.20 L 100.84 72.07 L 99.56 74.93 L 84.10 43.24 L 83.80 25.61 L 79.94 17.68 L 82.37 19.66 L 83.75 22.48 L 83.80 25.61 L 76.95 20.06 L 78.32 22.88 L 80.76 24.85 L 83.80 25.61 L 85.17 28.43 L 86.54 31.25 L 86.39 22.43 L 87.77 25.25 L 87.82 28.38 L 86.54 31.25 L 82.68 23.33 L 82.73 26.45 L 84.11 29.27 L 86.54 31.25 L 86.60 34.38 L 86.66 37.51 L 90.24 29.45 L 90.30 32.59 L 89.02 35.45 L 86.66 37.51 L 86.50 28.70 L 85.23 31.56 L 85.28 34.70 L 86.66 37.51 L 85.38 40.38 L 84.10 43.24 L 76.37 27.39 L 76.23 18.57 L 77.59 21.39 L 77.65 24.53 L 76.37 27.39 L 72.51 19.47 L 72.57 22.60 L 73.94 25.42 L 76.37 27.39 L 76.43 30.53 L 76.49 33.66 L 72.62 25.74 L 75.05 27.71 L 76.43 30.53 L 76.49 33.66 L 69.63 28.11 L 71.01 30.93 L 73.44 32.90 L 76.49 33.66 L 77.86 36.47 L 79.23 39.29 L 72.38 33.74 L 75.42 34.50 L 77.86 36.47 L 79.23 39.29 L 70.68 37.16 L 73.12 39.13 L 76.16 39.89 L 79.23 39.29 L 81.67 41.27 L 84.10 43.24 L 83.95 34.43 L 85.33 37.24 L 85.38 40.38 L 84.10 43.24 L 80.24 35.32 L 80.30 38.45 L 81.67 41.27 L 84.10 43.24 L 84.16 46.37 L 84.22 49.51 L 84.06 40.69 L 85.43 43.51 L 85.49 46.64 L 84.22 49.51 L 80.35 41.58 L 80.41 44.72 L 81.78 47.54 L 84.22 49.51 L 84.27 52.64 L 84.33 55.77 L 76.60 39.93 L 69.75 34.38 L 72.78 35.13 L 75.22 37.11 L 76.60 39.93 L 68.04 37.79 L 70.48 39.77 L 73.52 40.52 L 76.60 39.93 L 79.03 41.90 L 81.47 43.87 L 77.60 35.95 L 80.04 37.92 L 81.41 40.74 L 81.47 43.87 L 74.61 38.32 L 75.99 41.14 L 78.43 43.11 L 81.47 43.87 L 82.84 46.69 L 84.22 49.51 L 84.06 40.69 L 85.43 43.51 L 85.49 46.64 L 84.22 49.51 L 80.35 41.58 L 80.41 44.72 L 81.78 47.54 L 84.22 49.51 L 84.27 52.64 L 84.33 55.77 L 70.62 44.68 L 66.76 36.75 L 69.19 38.73 L 70.56 41.54 L 70.62 44.68 L 63.77 39.13 L 65.15 41.94 L 67.58 43.92 L 70.62 44.68 L 71.99 47.49 L 73.37 50.31 L 66.52 44.76 L 69.56 45.52 L 71.99 47.49 L 73.37 50.31 L 64.81 48.18 L 67.25 50.15 L 70.30 50.91 L 73.37 50.31 L 75.81 52.29 L 78.24 54.26 L 69.69 52.12 L 72.77 51.52 L 75.81 52.29 L 78.24 54.26 L 69.59 55.93 L 72.63 56.70 L 75.71 56.10 L 78.24 54.26 L 81.28 55.01 L 84.33 55.77 L 80.46 47.85 L 82.90 49.82 L 84.27 52.64 L 84.33 55.77 L 77.47 50.22 L 78.85 53.05 L 81.28 55.01 L 84.33 55.77 L 85.70 58.59 L 87.07 61.41 L 83.21 53.48 L 85.64 55.46 L 87.01 58.27 L 87.07 61.41 L 80.22 55.86 L 81.60 58.68 L 84.03 60.65 L 87.07 61.41 L 88.45 64.23 L 89.82 67.04 L 76.12 55.95 L 67.56 53.81 L 70.64 53.21 L 73.68 53.97 L 76.12 55.95 L 67.47 57.63 L 70.51 58.39 L 73.58 57.79 L 76.12 55.95 L 79.16 56.70 L 82.20 57.46 L 75.35 51.91 L 78.39 52.67 L 80.83 54.65 L 82.20 57.46 L 73.65 55.33 L 76.08 57.30 L 79.12 58.06 L 82.20 57.46 L 84.63 59.43 L 87.07 61.41 L 83.21 53.48 L 85.64 55.46 L 87.01 58.27 L 87.07 61.41 L 80.22 55.86 L 81.60 58.68 L 84.03 60.65 L 87.07 61.41 L 88.45 64.23 L 89.82 67.04 L 72.71 62.78 L 65.86 57.22 L 68.90 57.99 L 71.34 59.96 L 72.71 62.78 L 64.16 60.64 L 66.59 62.61 L 69.64 63.37 L 72.71 62.78 L 75.15 64.75 L 77.59 66.72 L 69.03 64.59 L 72.11 63.99 L 75.15 64.75 L 77.59 66.72 L 68.93 68.40 L 71.97 69.16 L 75.05 68.56 L 77.59 66.72 L 80.63 67.48 L 83.66 68.23 L 75.01 69.92 L 77.55 68.08 L 80.63 67.48 L 83.66 68.23 L 76.53 73.42 L 79.61 72.82 L 82.15 70.98 L 83.66 68.23 L 86.74 67.64 L 89.82 67.04 L 82.97 61.50 L 86.01 62.25 L 88.45 64.23 L 89.82 67.04 L 81.27 64.91 L 83.70 66.88 L 86.74 67.64 L 89.82 67.04 L 92.26 69.01 L 94.69 70.99 L 87.84 65.44 L 90.88 66.20 L 93.32 68.17 L 94.69 70.99 L 86.14 68.85 L 88.58 70.83 L 91.61 71.58 L 94.69 70.99 L 97.13 72.95 L 99.56 74.93 L 99.25 57.30 L 95.39 49.38 L 97.82 51.35 L 99.20 54.17 L 99.25 57.30 L 92.40 51.75 L 93.78 54.57 L 96.21 56.54 L 99.25 57.30 L 100.63 60.12 L 102.00 62.94 L 101.85 54.12 L 103.22 56.94 L 103.28 60.08 L 102.00 62.94 L 98.14 55.01 L 98.19 58.14 L 99.57 60.96 L 102.00 62.94 L 102.06 66.07 L 102.11 69.20 L 105.70 61.15 L 105.75 64.28 L 104.48 67.15 L 102.11 69.20 L 101.96 60.39 L 100.68 63.25 L 100.74 66.38 L 102.11 69.20 L 100.84 72.07 L 99.56 74.93 L 91.83 59.08 L 91.68 50.27 L 93.06 53.09 L 93.11 56.22 L 91.83 59.08 L 87.97 51.16 L 88.02 54.29 L 89.40 57.11 L 91.83 59.08 L 91.89 62.21 L 91.94 65.35 L 88.08 57.43 L 90.52 59.40 L 91.89 62.21 L 91.94 65.35 L 85.09 59.81 L 86.47 62.62 L 88.90 64.59 L 91.94 65.35 L 93.32 68.17 L 94.69 70.99 L 87.84 65.44 L 90.88 66.20 L 93.32 68.17 L 94.69 70.99 L 86.14 68.85 L 88.58 70.83 L 91.61 71.58 L 94.69 70.99 L 97.13 72.95 L 99.56 74.93 L 99.41 66.12 L 100.78 68.93 L 100.84 72.07 L 99.56 74.93 L 95.70 67.01 L 95.75 70.14 L 97.13 72.95 L 99.56 74.93 L 99.62 78.06 L 99.67 81.20 L 99.52 72.38 L 100.89 75.20 L 100.95 78.33 L 99.67 81.20 L 95.81 73.27 L 95.86 76.41 L 97.24 79.22 L 99.67 81.20 L 99.73 84.33 L 99.78 87.46 L 99.47 69.84 L 95.61 61.91 L 98.05 63.89 L 99.42 66.71 L 99.47 69.84 L 92.62 64.29 L 94.00 67.11 L 96.43 69.08 L 99.47 69.84 L 100.85 72.65 L 102.22 75.47 L 102.07 66.66 L 103.44 69.48 L 103.50 72.61 L 102.22 75.47 L 98.36 67.55 L 98.41 70.68 L 99.79 73.50 L 102.22 75.47 L 102.28 78.60 L 102.33 81.74 L 105.92 73.68 L 105.97 76.82 L 104.70 79.68 L 102.33 81.74 L 102.18 72.93 L 100.90 75.79 L 100.96 78.93 L 102.33 81.74 L 101.06 84.60 L 99.78 87.46 L 92.05 71.62 L 91.90 62.80 L 93.27 65.62 L 93.33 68.75 L 92.05 71.62 L 88.19 63.70 L 88.25 66.83 L 89.62 69.65 L 92.05 71.62 L 92.11 74.75 L 92.16 77.88 L 88.30 69.96 L 90.73 71.93 L 92.11 74.75 L 92.16 77.88 L 85.31 72.34 L 86.68 75.16 L 89.12 77.13 L 92.16 77.88 L 93.54 80.71 L 94.91 83.52 L 88.06 77.97 L 91.10 78.73 L 93.54 80.71 L 94.91 83.52 L 86.36 81.39 L 88.79 83.36 L 91.83 84.12 L 94.91 83.52 L 97.34 85.49 L 99.78 87.46 L 99.63 78.66 L 101.00 81.47 L 101.06 84.60 L 99.78 87.46 L 95.92 79.54 L 95.97 82.68 L 97.34 85.49 L 99.78 87.46 L 99.84 90.60 L 99.89 93.74 L 99.74 84.92 L 101.11 87.74 L 101.17 90.87 L 99.89 93.74 L 96.03 85.81 L 96.08 88.95 L 97.46 91.76 L 99.89 93.74 L 99.93 96.03 L 103.05 96.63 L 117.30 82.08 L 141.91 56.60 L 147.65 39.93 L 146.73 31.17 L 148.35 33.85 L 148.67 36.96 L 147.65 39.93 L 143.11 32.37 L 143.44 35.49 L 145.05 38.17 L 147.65 39.93 L 147.98 43.05 L 148.31 46.16 L 151.18 37.83 L 151.51 40.94 L 150.48 43.91 L 148.31 46.16 L 147.39 37.40 L 146.37 40.36 L 146.69 43.48 L 148.31 46.16 L 147.29 49.13 L 146.26 52.09 L 152.39 45.75 L 151.37 48.72 L 149.19 50.97 L 146.26 52.09 L 149.13 43.76 L 146.96 46.00 L 145.94 48.97 L 146.26 52.09 L 144.09 54.34 L 141.91 56.60 L 140.07 39.07 L 142.94 30.73 L 143.27 33.85 L 142.25 36.81 L 140.07 39.07 L 139.15 30.29 L 138.12 33.26 L 138.46 36.38 L 140.07 39.07 L 139.05 42.03 L 138.03 45.00 L 137.10 36.23 L 138.72 38.91 L 139.05 42.03 L 138.03 45.00 L 133.49 37.43 L 133.82 40.55 L 135.43 43.24 L 138.03 45.00 L 138.36 48.11 L 138.68 51.22 L 134.14 43.67 L 136.74 45.42 L 138.36 48.11 L 138.68 51.22 L 131.37 46.29 L 132.99 48.99 L 135.59 50.73 L 138.68 51.22 L 140.30 53.92 L 141.91 56.60 L 144.79 48.26 L 145.11 51.38 L 144.09 54.34 L 141.91 56.60 L 140.99 47.83 L 139.97 50.79 L 140.30 53.92 L 141.91 56.60 L 140.89 59.56 L 139.87 62.53 L 142.74 54.19 L 143.07 57.31 L 142.05 60.27 L 139.87 62.53 L 138.95 53.76 L 137.93 56.72 L 138.26 59.84 L 139.87 62.53 L 138.85 65.49 L 137.83 68.45 L 150.08 55.77 L 152.95 47.43 L 153.27 50.55 L 152.26 53.52 L 150.08 55.77 L 149.15 47.01 L 148.14 49.97 L 148.47 53.08 L 150.08 55.77 L 149.06 58.73 L 148.03 61.70 L 154.16 55.35 L 153.14 58.32 L 150.96 60.57 L 148.03 61.70 L 150.90 53.36 L 148.73 55.61 L 147.71 58.58 L 148.03 61.70 L 145.86 63.95 L 143.68 66.21 L 151.91 63.05 L 149.73 65.30 L 146.81 66.42 L 143.68 66.21 L 149.81 59.87 L 146.87 60.99 L 144.70 63.24 L 143.68 66.21 L 140.76 67.33 L 137.83 68.45 L 143.57 51.78 L 149.70 45.44 L 148.67 48.41 L 146.50 50.66 L 143.57 51.78 L 146.44 43.45 L 144.26 45.70 L 143.24 48.66 L 143.57 51.78 L 141.39 54.03 L 139.22 56.29 L 142.09 47.96 L 142.41 51.08 L 141.39 54.03 L 139.22 56.29 L 138.29 47.52 L 137.27 50.49 L 137.60 53.61 L 139.22 56.29 L 138.19 59.26 L 137.17 62.22 L 136.26 53.45 L 137.87 56.14 L 138.19 59.26 L 137.17 62.22 L 132.64 54.66 L 132.97 57.78 L 134.58 60.46 L 137.17 62.22 L 137.50 65.34 L 137.83 68.45 L 143.96 62.11 L 142.93 65.08 L 140.76 67.33 L 137.83 68.45 L 140.70 60.12 L 138.52 62.37 L 137.50 65.34 L 137.83 68.45 L 135.65 70.71 L 133.48 72.96 L 139.60 66.62 L 138.58 69.58 L 136.40 71.84 L 133.48 72.96 L 136.34 64.63 L 134.17 66.88 L 133.15 69.84 L 133.48 72.96 L 131.30 75.21 L 129.12 77.47 L 145.58 71.15 L 151.70 64.81 L 150.68 67.77 L 148.50 70.03 L 145.58 71.15 L 148.45 62.82 L 146.28 65.07 L 145.25 68.04 L 145.58 71.15 L 143.41 73.41 L 141.22 75.66 L 149.45 72.50 L 147.28 74.76 L 144.36 75.88 L 141.22 75.66 L 147.35 69.32 L 144.43 70.44 L 142.25 72.70 L 141.22 75.66 L 138.30 76.79 L 135.37 77.91 L 144.17 78.52 L 141.24 79.65 L 138.12 79.43 L 135.37 77.91 L 143.61 74.75 L 140.48 74.53 L 137.56 75.65 L 135.37 77.91 L 132.25 77.69 L 129.12 77.47 L 141.37 64.79 L 149.60 61.63 L 147.42 63.89 L 144.50 65.01 L 141.37 64.79 L 147.50 58.45 L 144.57 59.57 L 142.39 61.83 L 141.37 64.79 L 138.44 65.91 L 135.51 67.04 L 141.64 60.70 L 140.62 63.66 L 138.44 65.91 L 135.51 67.04 L 138.39 58.70 L 136.21 60.95 L 135.19 63.92 L 135.51 67.04 L 133.34 69.29 L 131.16 71.54 L 134.03 63.20 L 134.36 66.33 L 133.34 69.29 L 131.16 71.54 L 130.24 62.78 L 129.22 65.74 L 129.55 68.86 L 131.16 71.54 L 130.14 74.51 L 129.12 77.47 L 137.35 74.31 L 135.17 76.57 L 132.25 77.69 L 129.12 77.47 L 135.24 71.13 L 132.32 72.25 L 130.14 74.51 L 129.12 77.47 L 126.20 78.59 L 123.27 79.72 L 131.50 76.56 L 129.33 78.81 L 126.40 79.94 L 123.27 79.72 L 129.39 73.38 L 126.47 74.50 L 124.29 76.75 L 123.27 79.72 L 120.34 80.84 L 117.42 81.96 L 128.89 48.63 L 141.14 35.94 L 144.02 27.61 L 144.34 30.72 L 143.32 33.69 L 141.14 35.94 L 140.22 27.17 L 139.20 30.14 L 139.53 33.26 L 141.14 35.94 L 140.12 38.91 L 139.10 41.87 L 145.22 35.53 L 144.20 38.49 L 142.03 40.74 L 139.10 41.87 L 141.97 33.54 L 139.80 35.79 L 138.78 38.75 L 139.10 41.87 L 136.92 44.12 L 134.75 46.38 L 142.98 43.22 L 140.80 45.47 L 137.88 46.59 L 134.75 46.38 L 140.87 40.04 L 137.95 41.16 L 135.77 43.42 L 134.75 46.38 L 131.82 47.50 L 128.89 48.63 L 134.64 31.95 L 140.77 25.61 L 139.74 28.57 L 137.57 30.83 L 134.64 31.95 L 137.50 23.62 L 135.33 25.87 L 134.31 28.84 L 134.64 31.95 L 132.46 34.21 L 130.28 36.47 L 133.15 28.13 L 133.48 31.24 L 132.46 34.21 L 130.28 36.47 L 129.36 27.69 L 128.34 30.66 L 128.67 33.78 L 130.28 36.47 L 129.26 39.42 L 128.24 42.39 L 127.32 33.62 L 128.94 36.31 L 129.26 39.42 L 128.24 42.39 L 123.70 34.83 L 124.03 37.95 L 125.65 40.64 L 128.24 42.39 L 128.57 45.51 L 128.89 48.63 L 135.02 42.29 L 134.00 45.25 L 131.82 47.50 L 128.89 48.63 L 131.77 40.29 L 129.59 42.54 L 128.57 45.51 L 128.89 48.63 L 126.72 50.88 L 124.54 53.14 L 130.67 46.79 L 129.64 49.75 L 127.47 52.01 L 124.54 53.14 L 127.41 44.80 L 125.23 47.05 L 124.21 50.02 L 124.54 53.14 L 122.37 55.39 L 120.19 57.64 L 125.93 40.98 L 125.01 32.21 L 126.62 34.89 L 126.95 38.01 L 125.93 40.98 L 121.39 33.41 L 121.72 36.54 L 123.33 39.22 L 125.93 40.98 L 126.25 44.09 L 126.59 47.20 L 129.45 38.87 L 129.78 41.99 L 128.76 44.95 L 126.59 47.20 L 125.66 38.43 L 124.64 41.40 L 124.97 44.52 L 126.59 47.20 L 125.57 50.17 L 124.54 53.14 L 130.67 46.79 L 129.64 49.75 L 127.47 52.01 L 124.54 53.14 L 127.41 44.80 L 125.23 47.05 L 124.21 50.02 L 124.54 53.14 L 122.37 55.39 L 120.19 57.64 L 118.34 40.11 L 121.22 31.77 L 121.54 34.89 L 120.52 37.85 L 118.34 40.11 L 117.42 31.34 L 116.41 34.30 L 116.73 37.42 L 118.34 40.11 L 117.33 43.07 L 116.31 46.03 L 115.39 37.27 L 117.00 39.95 L 117.33 43.07 L 116.31 46.03 L 111.76 38.47 L 112.09 41.60 L 113.71 44.29 L 116.31 46.03 L 116.63 49.15 L 116.96 52.27 L 112.42 44.71 L 115.02 46.46 L 116.63 49.15 L 116.96 52.27 L 109.65 47.34 L 111.27 50.03 L 113.86 51.78 L 116.96 52.27 L 118.58 54.95 L 120.19 57.64 L 123.06 49.31 L 123.38 52.43 L 122.37 55.39 L 120.19 57.64 L 119.27 48.87 L 118.24 51.84 L 118.58 54.95 L 120.19 57.64 L 119.17 60.60 L 118.15 63.57 L 121.02 55.23 L 121.35 58.35 L 120.33 61.31 L 118.15 63.57 L 117.22 54.80 L 116.21 57.77 L 116.54 60.88 L 118.15 63.57 L 117.13 66.53 L 116.11 69.49 L 114.26 51.96 L 109.72 44.40 L 112.32 46.16 L 113.94 48.85 L 114.26 51.96 L 106.96 47.03 L 108.57 49.72 L 111.17 51.47 L 114.26 51.96 L 115.88 54.65 L 117.50 57.33 L 116.57 48.57 L 118.19 51.25 L 118.51 54.37 L 117.50 57.33 L 112.95 49.78 L 113.28 52.89 L 114.89 55.59 L 117.50 57.33 L 117.82 60.45 L 118.15 63.57 L 121.02 55.23 L 121.35 58.35 L 120.33 61.31 L 118.15 63.57 L 117.22 54.80 L 116.21 57.77 L 116.54 60.88 L 118.15 63.57 L 117.13 66.53 L 116.11 69.49 L 107.03 54.39 L 106.11 45.61 L 107.72 48.30 L 108.04 51.42 L 107.03 54.39 L 102.49 46.82 L 102.81 49.94 L 104.43 52.63 L 107.03 54.39 L 107.35 57.50 L 107.68 60.62 L 103.14 53.06 L 105.74 54.81 L 107.35 57.50 L 107.68 60.62 L 100.37 55.69 L 101.99 58.38 L 104.59 60.12 L 107.68 60.62 L 109.30 63.31 L 110.91 65.99 L 103.60 61.06 L 106.70 61.56 L 109.30 63.31 L 110.91 65.99 L 102.20 64.61 L 104.80 66.37 L 107.90 66.85 L 110.91 65.99 L 113.51 67.74 L 116.11 69.49 L 115.19 60.73 L 116.80 63.42 L 117.13 66.53 L 116.11 69.49 L 111.57 61.94 L 111.89 65.06 L 113.51 67.74 L 116.11 69.49 L 116.44 72.61 L 116.76 75.73 L 115.84 66.96 L 117.45 69.65 L 117.78 72.77 L 116.76 75.73 L 112.22 68.17 L 112.55 71.29 L 114.16 73.98 L 116.76 75.73 L 117.09 78.84 L 117.42 81.96 L 129.66 69.28 L 132.54 60.95 L 132.86 64.06 L 131.84 67.03 L 129.66 69.28 L 128.74 60.51 L 127.73 63.48 L 128.05 66.59 L 129.66 69.28 L 128.64 72.24 L 127.62 75.21 L 133.75 68.87 L 132.73 71.83 L 130.55 74.09 L 127.62 75.21 L 130.49 66.87 L 128.32 69.12 L 127.30 72.09 L 127.62 75.21 L 125.45 77.46 L 123.27 79.72 L 131.50 76.56 L 129.33 78.81 L 126.40 79.94 L 123.27 79.72 L 129.39 73.38 L 126.47 74.50 L 124.29 76.75 L 123.27 79.72 L 120.34 80.84 L 117.42 81.96 L 123.16 65.29 L 129.28 58.95 L 128.26 61.92 L 126.08 64.17 L 123.16 65.29 L 126.03 56.96 L 123.85 59.21 L 122.83 62.17 L 123.16 65.29 L 120.98 67.55 L 118.81 69.80 L 121.67 61.47 L 122.00 64.59 L 120.98 67.55 L 118.81 69.80 L 117.88 61.04 L 116.86 64.00 L 117.19 67.11 L 118.81 69.80 L 117.78 72.77 L 116.76 75.73 L 115.84 66.96 L 117.45 69.65 L 117.78 72.77 L 116.76 75.73 L 112.22 68.17 L 112.55 71.29 L 114.16 73.98 L 116.76 75.73 L 117.09 78.84 L 117.42 81.96 L 123.54 75.62 L 122.52 78.59 L 120.34 80.84 L 117.42 81.96 L 120.29 73.63 L 118.11 75.88 L 117.09 78.84 L 117.42 81.96 L 115.24 84.22 L 113.06 86.48 L 119.19 80.13 L 118.16 83.10 L 115.99 85.35 L 113.06 86.48 L 115.93 78.14 L 113.76 80.40 L 112.74 83.35 L 113.06 86.48 L 110.88 88.73 L 108.71 90.98 L 120.96 78.30 L 123.83 69.96 L 124.15 73.08 L 123.13 76.05 L 120.96 78.30 L 120.04 69.53 L 119.01 72.50 L 119.34 75.62 L 120.96 78.30 L 119.94 81.26 L 118.92 84.22 L 125.04 77.88 L 124.02 80.85 L 121.84 83.10 L 118.92 84.22 L 121.78 75.89 L 119.61 78.15 L 118.59 81.11 L 118.92 84.22 L 116.74 86.48 L 114.56 88.74 L 122.79 85.57 L 120.62 87.83 L 117.69 88.95 L 114.56 88.74 L 120.68 82.39 L 117.76 83.52 L 115.58 85.77 L 114.56 88.74 L 111.64 89.86 L 108.71 90.98 L 114.45 74.31 L 120.57 67.97 L 119.55 70.94 L 117.38 73.19 L 114.45 74.31 L 117.32 65.98 L 115.14 68.23 L 114.12 71.20 L 114.45 74.31 L 112.27 76.57 L 110.09 78.82 L 112.97 70.48 L 113.29 73.60 L 112.27 76.57 L 110.09 78.82 L 109.17 70.05 L 108.15 73.02 L 108.48 76.14 L 110.09 78.82 L 109.07 81.79 L 108.05 84.75 L 107.13 75.98 L 108.75 78.67 L 109.07 81.79 L 108.05 84.75 L 103.51 77.19 L 103.84 80.31 L 105.45 83.00 L 108.05 84.75 L 108.38 87.86 L 108.71 90.98 L 114.83 84.64 L 113.81 87.61 L 111.64 89.86 L 108.71 90.98 L 111.58 82.65 L 109.40 84.90 L 108.38 87.86 L 108.71 90.98 L 106.53 93.23 L 104.35 95.49 L 110.48 89.15 L 109.46 92.11 L 107.28 94.37 L 104.35 95.49 L 107.22 87.16 L 105.04 89.41 L 104.03 92.38 L 104.35 95.49 L 102.76 97.14 L 104.54 99.78 L 124.91 99.56 L 160.33 98.95 L 176.18 91.22 L 181.71 84.37 L 180.96 87.41 L 178.99 89.84 L 176.18 91.22 L 178.30 82.66 L 176.33 85.10 L 175.57 88.14 L 176.18 91.22 L 174.20 93.66 L 172.23 96.09 L 180.15 92.23 L 178.18 94.66 L 175.36 96.03 L 172.23 96.09 L 177.78 89.24 L 174.96 90.61 L 172.98 93.05 L 172.23 96.09 L 169.41 97.47 L 166.59 98.84 L 175.41 98.68 L 172.58 100.06 L 169.45 100.11 L 166.59 98.84 L 174.51 94.97 L 171.39 95.03 L 168.57 96.40 L 166.59 98.84 L 163.46 98.89 L 160.33 98.95 L 171.42 85.25 L 179.34 81.38 L 177.37 83.82 L 174.56 85.19 L 171.42 85.25 L 176.97 78.39 L 174.15 79.77 L 172.18 82.21 L 171.42 85.25 L 168.60 86.62 L 165.78 88.00 L 171.33 81.14 L 170.57 84.18 L 168.60 86.62 L 165.78 88.00 L 167.92 79.44 L 165.95 81.88 L 165.18 84.92 L 165.78 88.00 L 163.82 90.43 L 161.84 92.86 L 163.98 84.31 L 164.57 87.39 L 163.82 90.43 L 161.84 92.86 L 160.16 84.21 L 159.40 87.25 L 160.00 90.33 L 161.84 92.86 L 161.08 95.91 L 160.33 98.95 L 168.25 95.09 L 166.27 97.52 L 163.46 98.89 L 160.33 98.95 L 165.88 92.10 L 163.06 93.47 L 161.08 95.91 L 160.33 98.95 L 157.51 100.32 L 154.69 101.70 L 162.61 97.83 L 160.64 100.27 L 157.83 101.64 L 154.69 101.70 L 160.24 94.84 L 157.42 96.22 L 155.45 98.65 L 154.69 101.70 L 151.88 103.07 L 149.06 104.44 L 166.69 104.13 L 174.61 100.27 L 172.63 102.70 L 169.82 104.08 L 166.69 104.13 L 172.23 97.28 L 169.41 98.66 L 167.45 101.09 L 166.69 104.13 L 163.87 105.51 L 161.05 106.88 L 169.87 106.73 L 167.05 108.10 L 163.91 108.16 L 161.05 106.88 L 168.97 103.02 L 165.84 103.07 L 163.02 104.45 L 161.05 106.88 L 157.91 106.94 L 154.78 106.99 L 162.84 110.58 L 159.70 110.63 L 156.84 109.36 L 154.78 106.99 L 163.60 106.84 L 160.73 105.56 L 157.60 105.62 L 154.78 106.99 L 151.92 105.72 L 149.06 104.44 L 164.91 96.71 L 173.72 96.56 L 170.90 97.93 L 167.77 97.99 L 164.91 96.71 L 172.83 92.85 L 169.70 92.90 L 166.88 94.28 L 164.91 96.71 L 161.77 96.77 L 158.64 96.83 L 166.56 92.96 L 164.58 95.40 L 161.77 96.77 L 158.64 96.83 L 164.18 89.97 L 161.37 91.35 L 159.39 93.78 L 158.64 96.83 L 155.82 98.20 L 153.00 99.57 L 158.55 92.72 L 157.79 95.76 L 155.82 98.20 L 153.00 99.57 L 155.14 91.02 L 153.17 93.46 L 152.41 96.50 L 153.00 99.57 L 151.03 102.01 L 149.06 104.44 L 157.87 104.29 L 155.05 105.66 L 151.92 105.72 L 149.06 104.44 L 156.98 100.58 L 153.84 100.63 L 151.03 102.01 L 149.06 104.44 L 145.92 104.50 L 142.79 104.55 L 151.61 104.40 L 148.79 105.77 L 145.66 105.83 L 142.79 104.55 L 150.71 100.69 L 147.58 100.74 L 144.76 102.12 L 142.79 104.55 L 139.66 104.61 L 136.52 104.66 L 152.63 111.83 L 161.44 111.68 L 158.62 113.05 L 155.49 113.10 L 152.63 111.83 L 160.55 107.97 L 157.42 108.02 L 154.60 109.40 L 152.63 111.83 L 149.50 111.89 L 146.36 111.94 L 154.41 115.52 L 151.28 115.58 L 148.42 114.31 L 146.36 111.94 L 155.18 111.79 L 152.32 110.51 L 149.18 110.57 L 146.36 111.94 L 143.49 110.67 L 140.63 109.39 L 146.42 116.05 L 143.55 114.77 L 141.50 112.41 L 140.63 109.39 L 148.69 112.98 L 146.63 110.61 L 143.77 109.34 L 140.63 109.39 L 138.58 107.02 L 136.52 104.66 L 154.15 104.35 L 162.21 107.94 L 159.07 107.99 L 156.21 106.72 L 154.15 104.35 L 162.97 104.20 L 160.10 102.92 L 156.96 102.98 L 154.15 104.35 L 151.29 103.08 L 148.42 101.80 L 157.23 101.65 L 154.42 103.02 L 151.29 103.08 L 148.42 101.80 L 156.35 97.94 L 153.22 97.99 L 150.40 99.37 L 148.42 101.80 L 145.29 101.86 L 142.16 101.91 L 150.08 98.05 L 148.10 100.49 L 145.29 101.86 L 142.16 101.91 L 147.71 95.07 L 144.89 96.44 L 142.92 98.87 L 142.16 101.91 L 139.34 103.29 L 136.52 104.66 L 144.58 108.25 L 141.44 108.30 L 138.58 107.02 L 136.52 104.66 L 145.33 104.51 L 142.47 103.23 L 139.34 103.29 L 136.52 104.66 L 133.66 103.39 L 130.80 102.11 L 138.85 105.70 L 135.72 105.75 L 132.85 104.48 L 130.80 102.11 L 139.61 101.96 L 136.75 100.68 L 133.62 100.74 L 130.80 102.11 L 127.93 100.84 L 125.07 99.56 L 156.76 84.10 L 174.39 83.80 L 182.32 79.94 L 180.34 82.37 L 177.52 83.75 L 174.39 83.80 L 179.94 76.95 L 177.12 78.32 L 175.15 80.76 L 174.39 83.80 L 171.57 85.17 L 168.75 86.54 L 177.57 86.39 L 174.75 87.76 L 171.62 87.82 L 168.75 86.54 L 176.67 82.68 L 173.55 82.73 L 170.73 84.11 L 168.75 86.54 L 165.62 86.60 L 162.49 86.66 L 170.55 90.24 L 167.41 90.30 L 164.55 89.02 L 162.49 86.66 L 171.30 86.50 L 168.44 85.23 L 165.30 85.28 L 162.49 86.66 L 159.62 85.38 L 156.76 84.10 L 172.61 76.37 L 181.43 76.23 L 178.61 77.59 L 175.47 77.65 L 172.61 76.37 L 180.53 72.51 L 177.40 72.56 L 174.58 73.94 L 172.61 76.37 L 169.47 76.43 L 166.34 76.48 L 174.26 72.62 L 172.29 75.05 L 169.47 76.43 L 166.34 76.48 L 171.89 69.63 L 169.07 71.01 L 167.10 73.44 L 166.34 76.48 L 163.53 77.86 L 160.71 79.23 L 166.26 72.38 L 165.50 75.42 L 163.53 77.86 L 160.71 79.23 L 162.84 70.68 L 160.87 73.12 L 160.11 76.16 L 160.71 79.23 L 158.73 81.67 L 156.76 84.10 L 165.57 83.95 L 162.76 85.33 L 159.62 85.38 L 156.76 84.10 L 164.68 80.24 L 161.55 80.30 L 158.73 81.67 L 156.76 84.10 L 153.63 84.16 L 150.49 84.22 L 159.31 84.06 L 156.49 85.43 L 153.36 85.49 L 150.49 84.22 L 158.42 80.35 L 155.28 80.40 L 152.46 81.78 L 150.49 84.22 L 147.36 84.27 L 144.23 84.32 L 160.07 76.60 L 165.62 69.75 L 164.87 72.78 L 162.89 75.22 L 160.07 76.60 L 162.21 68.04 L 160.23 70.48 L 159.48 73.52 L 160.07 76.60 L 158.10 79.03 L 156.13 81.47 L 164.05 77.60 L 162.08 80.04 L 159.26 81.41 L 156.13 81.47 L 161.68 74.61 L 158.86 75.99 L 156.89 78.43 L 156.13 81.47 L 153.31 82.84 L 150.49 84.22 L 159.31 84.06 L 156.49 85.43 L 153.36 85.49 L 150.49 84.22 L 158.42 80.35 L 155.28 80.40 L 152.46 81.78 L 150.49 84.22 L 147.36 84.27 L 144.23 84.32 L 155.32 70.62 L 163.25 66.76 L 161.27 69.19 L 158.46 70.57 L 155.32 70.62 L 160.87 63.77 L 158.06 65.15 L 156.08 67.58 L 155.32 70.62 L 152.51 72.00 L 149.69 73.37 L 155.24 66.52 L 154.48 69.56 L 152.51 72.00 L 149.69 73.37 L 151.82 64.81 L 149.85 67.25 L 149.09 70.30 L 149.69 73.37 L 147.71 75.81 L 145.74 78.24 L 147.88 69.69 L 148.48 72.77 L 147.71 75.81 L 145.74 78.24 L 144.07 69.59 L 143.30 72.63 L 143.90 75.70 L 145.74 78.24 L 144.99 81.28 L 144.23 84.32 L 152.15 80.46 L 150.17 82.89 L 147.36 84.27 L 144.23 84.32 L 149.78 77.47 L 146.95 78.85 L 144.99 81.28 L 144.23 84.32 L 141.41 85.70 L 138.59 87.07 L 146.52 83.21 L 144.54 85.64 L 141.73 87.01 L 138.59 87.07 L 144.14 80.22 L 141.32 81.60 L 139.35 84.03 L 138.59 87.07 L 135.77 88.45 L 132.96 89.82 L 144.05 76.12 L 146.19 67.56 L 146.79 70.64 L 146.03 73.68 L 144.05 76.12 L 142.38 67.47 L 141.61 70.51 L 142.21 73.58 L 144.05 76.12 L 143.30 79.16 L 142.54 82.20 L 148.09 75.35 L 147.33 78.39 L 145.35 80.83 L 142.54 82.20 L 144.67 73.65 L 142.70 76.08 L 141.94 79.12 L 142.54 82.20 L 140.57 84.63 L 138.59 87.07 L 146.52 83.21 L 144.54 85.64 L 141.73 87.01 L 138.59 87.07 L 144.14 80.22 L 141.32 81.60 L 139.35 84.03 L 138.59 87.07 L 135.77 88.45 L 132.96 89.82 L 137.22 72.71 L 142.78 65.86 L 142.02 68.90 L 140.04 71.34 L 137.22 72.71 L 139.36 64.16 L 137.39 66.59 L 136.63 69.64 L 137.22 72.71 L 135.25 75.15 L 133.28 77.59 L 135.41 69.03 L 136.01 72.11 L 135.25 75.15 L 133.28 77.59 L 131.60 68.93 L 130.84 71.97 L 131.44 75.05 L 133.28 77.59 L 132.52 80.63 L 131.77 83.66 L 130.08 75.01 L 131.92 77.55 L 132.52 80.63 L 131.77 83.66 L 126.58 76.53 L 127.18 79.61 L 129.02 82.15 L 131.77 83.66 L 132.36 86.74 L 132.96 89.82 L 138.50 82.97 L 137.75 86.01 L 135.77 88.45 L 132.96 89.82 L 135.09 81.27 L 133.12 83.70 L 132.36 86.74 L 132.96 89.82 L 130.99 92.26 L 129.01 94.69 L 134.56 87.84 L 133.80 90.88 L 131.83 93.32 L 129.01 94.69 L 131.15 86.14 L 129.17 88.58 L 128.42 91.61 L 129.01 94.69 L 127.05 97.13 L 125.07 99.56 L 142.70 99.25 L 150.62 95.39 L 148.65 97.82 L 145.83 99.20 L 142.70 99.25 L 148.25 92.40 L 145.43 93.78 L 143.46 96.21 L 142.70 99.25 L 139.88 100.63 L 137.06 102.00 L 145.88 101.85 L 143.06 103.22 L 139.92 103.28 L 137.06 102.00 L 144.99 98.14 L 141.86 98.19 L 139.04 99.57 L 137.06 102.00 L 133.93 102.06 L 130.80 102.11 L 138.85 105.70 L 135.72 105.75 L 132.85 104.48 L 130.80 102.11 L 139.61 101.96 L 136.75 100.68 L 133.62 100.74 L 130.80 102.11 L 127.93 100.84 L 125.07 99.56 L 140.92 91.83 L 149.73 91.68 L 146.91 93.06 L 143.78 93.11 L 140.92 91.83 L 148.84 87.97 L 145.71 88.02 L 142.89 89.40 L 140.92 91.83 L 137.79 91.89 L 134.65 91.94 L 142.57 88.08 L 140.60 90.52 L 137.79 91.89 L 134.65 91.94 L 140.19 85.09 L 137.38 86.47 L 135.41 88.90 L 134.65 91.94 L 131.83 93.32 L 129.01 94.69 L 134.56 87.84 L 133.80 90.88 L 131.83 93.32 L 129.01 94.69 L 131.15 86.14 L 129.17 88.58 L 128.42 91.61 L 129.01 94.69 L 127.05 97.13 L 125.07 99.56 L 133.88 99.41 L 131.07 100.78 L 127.93 100.84 L 125.07 99.56 L 132.99 95.70 L 129.86 95.75 L 127.05 97.13 L 125.07 99.56 L 121.94 99.62 L 118.80 99.67 L 127.62 99.52 L 124.80 100.89 L 121.67 100.95 L 118.80 99.67 L 126.73 95.81 L 123.59 95.86 L 120.78 97.24 L 118.80 99.67 L 115.67 99.73 L 112.54 99.78 L 130.16 99.47 L 138.09 95.61 L 136.11 98.05 L 133.29 99.42 L 130.16 99.47 L 135.71 92.62 L 132.89 94.00 L 130.92 96.43 L 130.16 99.47 L 127.35 100.85 L 124.53 102.22 L 133.34 102.07 L 130.52 103.44 L 127.39 103.50 L 124.53 102.22 L 132.45 98.36 L 129.32 98.41 L 126.50 99.79 L 124.53 102.22 L 121.40 102.28 L 118.26 102.33 L 126.32 105.92 L 123.18 105.97 L 120.32 104.70 L 118.26 102.33 L 127.07 102.18 L 124.21 100.90 L 121.07 100.96 L 118.26 102.33 L 115.40 101.06 L 112.54 99.78 L 128.38 92.05 L 137.20 91.90 L 134.38 93.27 L 131.25 93.33 L 128.38 92.05 L 136.30 88.19 L 133.17 88.24 L 130.35 89.62 L 128.38 92.05 L 125.25 92.11 L 122.11 92.16 L 130.04 88.30 L 128.07 90.73 L 125.25 92.11 L 122.11 92.16 L 127.66 85.31 L 124.84 86.68 L 122.87 89.12 L 122.11 92.16 L 119.29 93.54 L 116.48 94.91 L 122.03 88.06 L 121.27 91.10 L 119.29 93.54 L 116.48 94.91 L 118.61 86.36 L 116.64 88.79 L 115.88 91.83 L 116.48 94.91 L 114.51 97.34 L 112.54 99.78 L 121.34 99.63 L 118.53 101.00 L 115.40 101.06 L 112.54 99.78 L 120.46 95.92 L 117.32 95.97 L 114.51 97.34 L 112.54 99.78 L 109.40 99.84 L 106.26 99.89 L 115.08 99.74 L 112.26 101.11 L 109.13 101.17 L 106.26 99.89 L 114.19 96.03 L 111.05 96.08 L 108.24 97.46 L 106.26 99.89 L 103.97 99.93 L 100.00 100.00" 
          fill="none" 
          stroke="currentColor" 
          stroke-width="0.5"/>
</svg>