<?xml version="1.0" encoding="UTF-8" standalone="no"?>
<svg width="100%" height="100%" viewBox="0 0 200 200" preserveAspectRatio="xMidYMid meet" xmlns="http://www.w3.org/2000/svg">
    <path d="M 100.00 100.00 L 98.73 98.73 L 97.45 97.45 L 96.18 96.18 L 94.91 94.91 L 93.64 93.64 L 92.36 92.36 L 91.09 91.09 L 89.82 89.82 L 88.54 88.54 L 87.27 87.27 L 86.00 86.00 L 84.73 84.73 L 83.45 83.45 L 82.18 82.18 L 80.91 80.91 L 79.64 79.64 L 78.36 78.36 L 77.09 77.09 L 75.82 75.82 L 74.54 74.54 L 73.27 73.27 L 72.00 72.00 L 70.73 70.73 L 69.45 69.45 L 68.18 68.18 L 66.91 66.91 L 65.63 65.63 L 64.36 64.36 L 63.09 63.09 L 61.82 61.82 L 60.54 60.54 L 59.27 59.27 L 58.00 58.00 L 56.73 56.72 L 55.45 55.45 L 54.18 54.18 L 52.91 52.91 L 51.63 51.63 L 50.36 50.36 L 49.09 49.09 L 47.82 47.82 L 46.54 46.54 L 45.27 45.27 L 44.00 44.00 L 42.72 42.72 L 41.45 41.45 L 40.18 40.18 L 38.91 38.91 L 37.63 37.63 L 37.45 37.45 L 37.45 39.25 L 37.45 41.05 L 37.45 42.85 L 37.45 44.65 L 37.45 46.45 L 37.45 48.25 L 37.45 50.05 L 37.45 51.85 L 37.45 53.65 L 37.45 55.45 L 37.45 57.25 L 37.45 59.05 L 37.45 60.85 L 37.45 62.65 L 37.45 64.45 L 37.45 66.25 L 37.45 68.05 L 37.45 69.85 L 37.45 71.65 L 37.45 73.45 L 37.45 75.25 L 37.45 77.05 L 37.45 78.85 L 37.45 80.65 L 37.45 82.45 L 37.45 84.25 L 37.45 86.05 L 37.45 87.85 L 37.45 89.65 L 37.45 91.45 L 37.45 93.25 L 37.45 95.05 L 37.45 96.85 L 37.45 98.65 L 37.45 100.45 L 37.45 102.25 L 37.45 104.05 L 37.45 105.85 L 37.45 107.65 L 37.45 109.45 L 37.45 111.25 L 37.45 113.05 L 37.45 114.85 L 37.45 116.65 L 37.45 118.45 L 37.45 120.25 L 37.45 122.05 L 37.45 123.85 L 37.45 125.65 L 37.45 127.45 L 37.45 129.25 L 37.45 131.05 L 37.45 132.85 L 37.45 134.65 L 37.45 136.45 L 37.45 138.25 L 37.45 140.05 L 37.45 141.85 L 37.45 143.65 L 37.45 145.45 L 37.45 147.25 L 37.45 149.05 L 37.45 150.85 L 37.45 152.65 L 37.45 154.45 L 37.45 156.25 L 37.45 158.05 L 37.45 159.85 L 37.45 161.65 L 37.45 162.55 L 39.25 162.55 L 41.05 162.55 L 42.85 162.55 L 44.65 162.55 L 46.45 162.55 L 48.25 162.55 L 50.05 162.55 L 51.85 162.55 L 53.65 162.55 L 55.45 162.55 L 57.25 162.55 L 59.05 162.55 L 60.85 162.55 L 62.65 162.55 L 64.45 162.55 L 66.25 162.55 L 68.05 162.55 L 69.85 162.55 L 71.65 162.55 L 73.45 162.55 L 75.25 162.55 L 77.05 162.55 L 78.85 162.55 L 80.65 162.55 L 82.45 162.55 L 84.25 162.55 L 86.05 162.55 L 87.85 162.55 L 89.65 162.55 L 91.45 162.55 L 93.25 162.55 L 95.05 162.55 L 96.85 162.55 L 98.65 162.55 L 100.45 162.55 L 102.25 162.55 L 104.05 162.55 L 105.85 162.55 L 107.65 162.55 L 109.45 162.55 L 111.25 162.55 L 113.05 162.55 L 114.85 162.55 L 116.65 162.55 L 118.45 162.55 L 120.25 162.55 L 122.05 162.55 L 123.85 162.55 L 125.65 162.55 L 127.45 162.55 L 129.25 162.55 L 131.05 162.55 L 132.85 162.55 L 134.65 162.55 L 136.45 162.55 L 138.25 162.55 L 140.05 162.55 L 141.85 162.55 L 143.65 162.55 L 145.45 162.55 L 147.25 162.55 L 149.05 162.55 L 150.85 162.55 L 152.65 162.55 L 154.45 162.55 L 156.25 162.55 L 158.05 162.55 L 159.85 162.55 L 161.65 162.55 L 162.55 162.55 L 162.55 160.75 L 162.55 158.95 L 162.55 157.15 L 162.55 155.35 L 162.55 153.55 L 162.55 151.75 L 162.55 149.95 L 162.55 148.15 L 162.55 146.35 L 162.55 144.55 L 162.55 142.75 L 162.55 140.95 L 162.55 139.15 L 162.55 137.35 L 162.55 135.55 L 162.55 133.75 L 162.55 131.95 L 162.55 130.15 L 162.55 128.35 L 162.55 126.55 L 162.55 124.75 L 162.55 122.95 L 162.55 121.15 L 162.55 119.35 L 162.55 117.55 L 162.55 115.75 L 162.55 113.95 L 162.55 112.15 L 162.55 110.35 L 162.55 108.55 L 162.55 106.75 L 162.55 104.95 L 162.55 103.15 L 162.55 101.35 L 162.55 99.55 L 162.55 97.75 L 162.55 95.95 L 162.55 94.15 L 162.55 92.35 L 162.55 90.55 L 162.55 88.75 L 162.55 86.95 L 162.55 85.15 L 162.55 83.35 L 162.55 81.55 L 162.55 79.75 L 162.55 77.95 L 162.55 76.15 L 162.55 74.35 L 162.55 72.55 L 162.55 70.75 L 162.55 68.95 L 162.55 67.15 L 162.55 65.35 L 162.55 63.55 L 162.55 61.75 L 162.55 59.95 L 162.55 58.15 L 162.55 56.35 L 162.55 54.55 L 162.55 52.75 L 162.55 50.95 L 162.55 49.15 L 162.55 47.35 L 162.55 45.55 L 162.55 43.75 L 162.55 41.95 L 162.55 40.15 L 162.55 38.35 L 162.55 37.45 L 160.75 37.45 L 158.95 37.45 L 157.15 37.45 L 155.35 37.45 L 153.55 37.45 L 151.75 37.45 L 149.95 37.45 L 148.15 37.45 L 146.35 37.45 L 144.55 37.45 L 142.75 37.45 L 140.95 37.45 L 139.15 37.45 L 137.35 37.45 L 135.55 37.45 L 133.75 37.45 L 131.95 37.45 L 130.15 37.45 L 128.35 37.45 L 126.55 37.45 L 124.75 37.45 L 122.95 37.45 L 121.15 37.45 L 119.35 37.45 L 117.55 37.45 L 115.75 37.45 L 113.95 37.45 L 112.15 37.45 L 110.35 37.45 L 108.55 37.45 L 106.75 37.45 L 104.95 37.45 L 103.15 37.45 L 101.35 37.45 L 99.55 37.45 L 97.75 37.45 L 95.95 37.45 L 94.15 37.45 L 92.35 37.45 L 90.55 37.45 L 88.75 37.45 L 86.95 37.45 L 85.15 37.45 L 83.35 37.45 L 81.55 37.45 L 79.75 37.45 L 77.95 37.45 L 76.15 37.45 L 74.35 37.45 L 72.55 37.45 L 70.75 37.45 L 68.95 37.45 L 67.15 37.45 L 65.35 37.45 L 63.55 37.45 L 61.75 37.45 L 59.95 37.45 L 58.15 37.45 L 56.35 37.45 L 54.55 37.45 L 52.75 37.45 L 50.95 37.45 L 49.15 37.45 L 47.35 37.45 L 45.55 37.45 L 43.75 37.45 L 41.95 37.45 L 40.15 37.45 L 38.35 37.45 L 37.45 37.45 L 38.72 38.72 L 40.00 40.00 L 41.27 41.27 L 42.54 42.54 L 43.70 43.71 L 43.71 45.51 L 43.70 47.31 L 43.71 49.10 L 43.71 50.91 L 43.70 52.70 L 43.70 54.50 L 43.70 56.30 L 43.70 58.10 L 43.71 59.91 L 43.70 61.70 L 43.70 63.51 L 43.71 65.31 L 43.70 67.11 L 43.70 68.90 L 43.71 70.70 L 43.70 72.50 L 43.70 74.30 L 43.71 76.11 L 43.71 77.90 L 43.70 79.71 L 43.71 81.51 L 43.70 83.30 L 43.71 85.10 L 43.70 86.91 L 43.70 88.70 L 43.71 90.50 L 43.70 92.31 L 43.71 94.11 L 43.71 95.90 L 43.70 97.70 L 43.71 99.50 L 43.70 101.30 L 43.71 103.11 L 43.71 104.91 L 43.71 106.70 L 43.70 108.50 L 43.71 110.30 L 43.70 112.11 L 43.70 113.90 L 43.71 115.70 L 43.71 117.51 L 43.70 119.30 L 43.71 121.11 L 43.71 122.90 L 43.71 124.71 L 43.71 126.50 L 43.71 128.30 L 43.71 130.10 L 43.70 131.90 L 43.70 133.70 L 43.71 135.50 L 43.71 137.31 L 43.71 139.10 L 43.70 140.90 L 43.70 142.70 L 43.70 144.51 L 43.71 146.30 L 43.71 148.11 L 43.70 149.91 L 43.71 151.70 L 43.70 153.51 L 43.70 155.31 L 43.70 156.29 L 45.51 156.29 L 47.31 156.29 L 49.11 156.29 L 50.91 156.30 L 52.70 156.30 L 54.50 156.30 L 56.31 156.30 L 58.10 156.30 L 59.90 156.29 L 61.70 156.30 L 63.51 156.30 L 65.31 156.29 L 67.10 156.30 L 68.90 156.30 L 70.71 156.29 L 72.50 156.30 L 74.30 156.30 L 76.11 156.29 L 77.91 156.29 L 79.70 156.30 L 81.50 156.29 L 83.30 156.30 L 85.11 156.29 L 86.90 156.29 L 88.70 156.30 L 90.51 156.29 L 92.30 156.30 L 94.11 156.30 L 95.91 156.29 L 97.71 156.30 L 99.51 156.29 L 101.31 156.30 L 103.10 156.29 L 104.90 156.30 L 106.71 156.29 L 108.51 156.30 L 110.30 156.29 L 112.10 156.30 L 113.91 156.30 L 115.70 156.29 L 117.50 156.29 L 119.31 156.30 L 121.10 156.29 L 122.90 156.29 L 124.70 156.29 L 126.51 156.29 L 128.30 156.29 L 130.10 156.29 L 131.90 156.29 L 133.70 156.29 L 135.51 156.29 L 137.30 156.29 L 139.10 156.29 L 140.91 156.30 L 142.70 156.29 L 144.50 156.30 L 146.30 156.29 L 148.10 156.29 L 149.91 156.30 L 151.71 156.29 L 153.51 156.29 L 155.31 156.30 L 156.29 156.29 L 156.30 154.49 L 156.29 152.69 L 156.30 150.89 L 156.29 149.09 L 156.30 147.30 L 156.30 145.49 L 156.30 143.70 L 156.30 141.90 L 156.29 140.09 L 156.30 138.30 L 156.29 136.50 L 156.29 134.70 L 156.30 132.89 L 156.30 131.09 L 156.29 129.29 L 156.30 127.49 L 156.30 125.69 L 156.29 123.90 L 156.29 122.09 L 156.30 120.30 L 156.29 118.49 L 156.30 116.69 L 156.29 114.89 L 156.30 113.09 L 156.30 111.29 L 156.29 109.49 L 156.30 107.69 L 156.29 105.90 L 156.29 104.10 L 156.30 102.30 L 156.29 100.49 L 156.30 98.69 L 156.29 96.89 L 156.30 95.09 L 156.29 93.30 L 156.30 91.50 L 156.29 89.69 L 156.30 87.89 L 156.30 86.10 L 156.29 84.29 L 156.29 82.50 L 156.30 80.69 L 156.29 78.90 L 156.29 77.09 L 156.29 75.30 L 156.29 73.50 L 156.29 71.70 L 156.29 69.90 L 156.29 68.09 L 156.29 66.29 L 156.29 64.50 L 156.29 62.70 L 156.29 60.90 L 156.29 59.09 L 156.29 57.29 L 156.30 55.49 L 156.29 53.70 L 156.29 51.90 L 156.30 50.09 L 156.29 48.30 L 156.30 46.50 L 156.29 44.69 L 156.29 43.70 L 154.49 43.71 L 152.70 43.71 L 150.89 43.71 L 149.09 43.71 L 147.30 43.70 L 145.50 43.70 L 143.69 43.70 L 141.90 43.70 L 140.09 43.71 L 138.30 43.70 L 136.49 43.70 L 134.69 43.71 L 132.90 43.71 L 131.10 43.70 L 129.29 43.71 L 127.50 43.70 L 125.70 43.70 L 123.89 43.71 L 122.10 43.71 L 120.29 43.70 L 118.49 43.71 L 116.70 43.70 L 114.90 43.71 L 113.10 43.71 L 111.30 43.70 L 109.50 43.71 L 107.69 43.70 L 105.89 43.70 L 104.10 43.71 L 102.29 43.70 L 100.50 43.71 L 98.70 43.70 L 96.90 43.71 L 95.09 43.71 L 93.30 43.71 L 91.49 43.70 L 89.70 43.71 L 87.89 43.70 L 86.09 43.70 L 84.30 43.71 L 82.49 43.71 L 80.70 43.70 L 78.89 43.71 L 77.10 43.71 L 75.29 43.71 L 73.50 43.71 L 71.70 43.71 L 69.90 43.71 L 68.10 43.71 L 66.30 43.70 L 64.50 43.71 L 62.70 43.71 L 60.90 43.71 L 59.10 43.70 L 57.30 43.71 L 55.49 43.71 L 53.70 43.71 L 51.90 43.71 L 50.09 43.70 L 48.30 43.71 L 46.49 43.71 L 44.69 43.70 L 43.71 43.70 L 44.98 44.98 L 46.25 46.25 L 47.52 47.52 L 48.80 48.80 L 49.96 49.96 L 49.96 51.76 L 49.96 53.56 L 49.96 55.36 L 49.96 57.16 L 49.96 58.96 L 49.96 60.76 L 49.96 62.56 L 49.96 64.36 L 49.96 66.16 L 49.96 67.96 L 49.96 69.76 L 49.96 71.56 L 49.96 73.36 L 49.96 75.16 L 49.96 76.96 L 49.96 78.76 L 49.96 80.56 L 49.96 82.36 L 49.96 84.16 L 49.96 85.96 L 49.96 87.76 L 49.96 89.56 L 49.96 91.36 L 49.96 93.16 L 49.96 94.96 L 49.96 96.76 L 49.96 98.56 L 49.96 100.36 L 49.96 102.16 L 49.96 103.96 L 49.96 105.76 L 49.96 107.56 L 49.96 109.36 L 49.96 111.16 L 49.96 112.96 L 49.96 114.76 L 49.96 116.56 L 49.96 118.36 L 49.96 120.16 L 49.96 121.96 L 49.96 123.76 L 49.96 125.56 L 49.96 127.36 L 49.96 129.16 L 49.96 130.96 L 49.96 132.76 L 49.96 134.56 L 49.96 136.36 L 49.96 138.16 L 49.96 139.96 L 49.96 141.76 L 49.96 143.56 L 49.96 145.36 L 49.96 147.16 L 49.96 148.96 L 49.96 150.04 L 51.76 150.04 L 53.56 150.04 L 55.36 150.04 L 57.16 150.04 L 58.96 150.04 L 60.76 150.04 L 62.56 150.04 L 64.36 150.04 L 66.16 150.04 L 67.96 150.04 L 69.76 150.04 L 71.56 150.04 L 73.36 150.04 L 75.16 150.04 L 76.96 150.04 L 78.76 150.04 L 80.56 150.04 L 82.36 150.04 L 84.16 150.04 L 85.96 150.04 L 87.76 150.04 L 89.56 150.04 L 91.36 150.04 L 93.16 150.04 L 94.96 150.04 L 96.76 150.04 L 98.56 150.04 L 100.36 150.04 L 102.16 150.04 L 103.96 150.04 L 105.76 150.04 L 107.56 150.04 L 109.36 150.04 L 111.16 150.04 L 112.96 150.04 L 114.76 150.04 L 116.56 150.04 L 118.36 150.04 L 120.16 150.04 L 121.96 150.04 L 123.76 150.04 L 125.56 150.04 L 127.36 150.04 L 129.16 150.04 L 130.96 150.04 L 132.76 150.04 L 134.56 150.04 L 136.36 150.04 L 138.16 150.04 L 139.96 150.04 L 141.76 150.04 L 143.56 150.04 L 145.36 150.04 L 147.16 150.04 L 148.96 150.04 L 150.04 150.04 L 150.04 148.24 L 150.04 146.44 L 150.04 144.64 L 150.04 142.84 L 150.04 141.04 L 150.04 139.24 L 150.04 137.44 L 150.04 135.64 L 150.04 133.84 L 150.04 132.04 L 150.04 130.24 L 150.04 128.44 L 150.04 126.64 L 150.04 124.84 L 150.04 123.04 L 150.04 121.24 L 150.04 119.44 L 150.04 117.64 L 150.04 115.84 L 150.04 114.04 L 150.04 112.24 L 150.04 110.44 L 150.04 108.64 L 150.04 106.84 L 150.04 105.04 L 150.04 103.24 L 150.04 101.44 L 150.04 99.64 L 150.04 97.84 L 150.04 96.04 L 150.04 94.24 L 150.04 92.44 L 150.04 90.64 L 150.04 88.84 L 150.04 87.04 L 150.04 85.24 L 150.04 83.44 L 150.04 81.64 L 150.04 79.84 L 150.04 78.04 L 150.04 76.24 L 150.04 74.44 L 150.04 72.64 L 150.04 70.84 L 150.04 69.04 L 150.04 67.24 L 150.04 65.44 L 150.04 63.64 L 150.04 61.84 L 150.04 60.04 L 150.04 58.24 L 150.04 56.44 L 150.04 54.64 L 150.04 52.84 L 150.04 51.04 L 150.04 49.96 L 148.24 49.96 L 146.44 49.96 L 144.64 49.96 L 142.84 49.96 L 141.04 49.96 L 139.24 49.96 L 137.44 49.96 L 135.64 49.96 L 133.84 49.96 L 132.04 49.96 L 130.24 49.96 L 128.44 49.96 L 126.64 49.96 L 124.84 49.96 L 123.04 49.96 L 121.24 49.96 L 119.44 49.96 L 117.64 49.96 L 115.84 49.96 L 114.04 49.96 L 112.24 49.96 L 110.44 49.96 L 108.64 49.96 L 106.84 49.96 L 105.04 49.96 L 103.24 49.96 L 101.44 49.96 L 99.64 49.96 L 97.84 49.96 L 96.04 49.96 L 94.24 49.96 L 92.44 49.96 L 90.64 49.96 L 88.84 49.96 L 87.04 49.96 L 85.24 49.96 L 83.44 49.96 L 81.64 49.96 L 79.84 49.96 L 78.04 49.96 L 76.24 49.96 L 74.44 49.96 L 72.64 49.96 L 70.84 49.96 L 69.04 49.96 L 67.24 49.96 L 65.44 49.96 L 63.64 49.96 L 61.84 49.96 L 60.04 49.96 L 58.24 49.96 L 56.44 49.96 L 54.64 49.96 L 52.84 49.96 L 51.04 49.96 L 49.96 49.96 L 51.23 51.23 L 52.51 52.51 L 53.78 53.78 L 55.05 55.05 L 56.22 56.22 L 56.22 58.02 L 56.21 59.81 L 56.22 61.62 L 56.21 63.41 L 56.22 65.22 L 56.22 67.02 L 56.22 68.82 L 56.22 70.62 L 56.22 72.41 L 56.22 74.22 L 56.22 76.02 L 56.22 77.82 L 56.22 79.62 L 56.22 81.41 L 56.22 83.21 L 56.22 85.02 L 56.21 86.81 L 56.21 88.62 L 56.22 90.41 L 56.22 92.21 L 56.22 94.02 L 56.21 95.81 L 56.22 97.62 L 56.22 99.42 L 56.21 101.22 L 56.22 103.02 L 56.22 104.81 L 56.22 106.61 L 56.22 108.41 L 56.22 110.22 L 56.22 112.01 L 56.22 113.82 L 56.22 115.61 L 56.21 117.41 L 56.21 119.22 L 56.22 121.01 L 56.22 122.81 L 56.21 124.62 L 56.21 126.42 L 56.21 128.21 L 56.22 130.01 L 56.21 131.81 L 56.22 133.62 L 56.21 135.41 L 56.21 137.22 L 56.21 139.02 L 56.21 140.81 L 56.22 142.61 L 56.22 143.78 L 58.02 143.79 L 59.81 143.79 L 61.62 143.79 L 63.41 143.79 L 65.21 143.78 L 67.02 143.79 L 68.82 143.79 L 70.62 143.78 L 72.42 143.79 L 74.21 143.78 L 76.02 143.78 L 77.81 143.78 L 79.62 143.78 L 81.42 143.78 L 83.22 143.78 L 85.02 143.78 L 86.82 143.79 L 88.61 143.79 L 90.41 143.78 L 92.21 143.78 L 94.01 143.78 L 95.81 143.79 L 97.62 143.78 L 99.41 143.78 L 101.21 143.79 L 103.01 143.78 L 104.81 143.78 L 106.62 143.78 L 108.42 143.78 L 110.21 143.78 L 112.01 143.78 L 113.82 143.78 L 115.61 143.78 L 117.42 143.79 L 119.21 143.79 L 121.01 143.78 L 122.81 143.78 L 124.62 143.79 L 126.42 143.79 L 128.21 143.78 L 130.01 143.78 L 131.82 143.79 L 133.61 143.79 L 135.42 143.79 L 137.22 143.79 L 139.02 143.79 L 140.82 143.78 L 142.61 143.78 L 143.78 143.78 L 143.78 141.99 L 143.79 140.19 L 143.78 138.39 L 143.79 136.59 L 143.78 134.78 L 143.78 132.99 L 143.78 131.19 L 143.78 129.38 L 143.78 127.59 L 143.78 125.78 L 143.78 123.99 L 143.78 122.18 L 143.78 120.39 L 143.78 118.58 L 143.78 116.78 L 143.78 114.99 L 143.79 113.19 L 143.79 111.39 L 143.78 109.58 L 143.79 107.78 L 143.78 105.98 L 143.79 104.18 L 143.78 102.39 L 143.78 100.58 L 143.79 98.79 L 143.78 96.98 L 143.78 95.18 L 143.78 93.39 L 143.78 91.59 L 143.78 89.79 L 143.78 87.98 L 143.78 86.19 L 143.78 84.38 L 143.79 82.59 L 143.79 80.78 L 143.78 78.98 L 143.78 77.19 L 143.79 75.39 L 143.79 73.58 L 143.78 71.78 L 143.78 69.99 L 143.78 68.18 L 143.79 66.38 L 143.78 64.58 L 143.79 62.78 L 143.79 60.98 L 143.79 59.19 L 143.78 57.39 L 143.78 56.22 L 141.98 56.22 L 140.19 56.21 L 138.38 56.22 L 136.59 56.21 L 134.78 56.21 L 132.98 56.22 L 131.18 56.21 L 129.38 56.22 L 127.59 56.21 L 125.78 56.22 L 123.98 56.22 L 122.18 56.22 L 120.38 56.22 L 118.59 56.22 L 116.79 56.22 L 114.98 56.22 L 113.19 56.21 L 111.38 56.21 L 109.59 56.22 L 107.79 56.22 L 105.98 56.22 L 104.19 56.21 L 102.38 56.22 L 100.59 56.22 L 98.78 56.21 L 96.98 56.22 L 95.19 56.22 L 93.39 56.22 L 91.59 56.22 L 89.79 56.22 L 87.99 56.22 L 86.18 56.22 L 84.39 56.22 L 82.58 56.21 L 80.78 56.21 L 78.99 56.22 L 77.18 56.22 L 75.38 56.21 L 73.58 56.21 L 71.79 56.22 L 69.99 56.22 L 68.19 56.21 L 66.38 56.22 L 64.59 56.21 L 62.78 56.21 L 60.98 56.21 L 59.19 56.21 L 57.39 56.22 L 56.22 56.22 L 57.49 57.49 L 58.76 58.76 L 60.03 60.03 L 61.31 61.31 L 62.47 62.47 L 62.47 64.27 L 62.47 66.07 L 62.47 67.87 L 62.47 69.67 L 62.47 71.47 L 62.47 73.27 L 62.47 75.07 L 62.47 76.87 L 62.47 78.67 L 62.47 80.47 L 62.47 82.27 L 62.47 84.07 L 62.47 85.87 L 62.47 87.67 L 62.47 89.47 L 62.47 91.27 L 62.47 93.07 L 62.47 94.87 L 62.47 96.67 L 62.47 98.47 L 62.47 100.27 L 62.47 102.07 L 62.47 103.87 L 62.47 105.67 L 62.47 107.47 L 62.47 109.27 L 62.47 111.07 L 62.47 112.87 L 62.47 114.67 L 62.47 116.47 L 62.47 118.27 L 62.47 120.07 L 62.47 121.87 L 62.47 123.67 L 62.47 125.47 L 62.47 127.27 L 62.47 129.07 L 62.47 130.87 L 62.47 132.67 L 62.47 134.47 L 62.47 136.27 L 62.47 137.53 L 64.27 137.53 L 66.07 137.53 L 67.87 137.53 L 69.67 137.53 L 71.47 137.53 L 73.27 137.53 L 75.07 137.53 L 76.87 137.53 L 78.67 137.53 L 80.47 137.53 L 82.27 137.53 L 84.07 137.53 L 85.87 137.53 L 87.67 137.53 L 89.47 137.53 L 91.27 137.53 L 93.07 137.53 L 94.87 137.53 L 96.67 137.53 L 98.47 137.53 L 100.27 137.53 L 102.07 137.53 L 103.87 137.53 L 105.67 137.53 L 107.47 137.53 L 109.27 137.53 L 111.07 137.53 L 112.87 137.53 L 114.67 137.53 L 116.47 137.53 L 118.27 137.53 L 120.07 137.53 L 121.87 137.53 L 123.67 137.53 L 125.47 137.53 L 127.27 137.53 L 129.07 137.53 L 130.87 137.53 L 132.67 137.53 L 134.47 137.53 L 136.27 137.53 L 137.53 137.53 L 137.53 135.73 L 137.53 133.93 L 137.53 132.13 L 137.53 130.33 L 137.53 128.53 L 137.53 126.73 L 137.53 124.93 L 137.53 123.13 L 137.53 121.33 L 137.53 119.53 L 137.53 117.73 L 137.53 115.93 L 137.53 114.13 L 137.53 112.33 L 137.53 110.53 L 137.53 108.73 L 137.53 106.93 L 137.53 105.13 L 137.53 103.33 L 137.53 101.53 L 137.53 99.73 L 137.53 97.93 L 137.53 96.13 L 137.53 94.33 L 137.53 92.53 L 137.53 90.73 L 137.53 88.93 L 137.53 87.13 L 137.53 85.33 L 137.53 83.53 L 137.53 81.73 L 137.53 79.93 L 137.53 78.13 L 137.53 76.33 L 137.53 74.53 L 137.53 72.73 L 137.53 70.93 L 137.53 69.13 L 137.53 67.33 L 137.53 65.53 L 137.53 63.73 L 137.53 62.47 L 135.73 62.47 L 133.93 62.47 L 132.13 62.47 L 130.33 62.47 L 128.53 62.47 L 126.73 62.47 L 124.93 62.47 L 123.13 62.47 L 121.33 62.47 L 119.53 62.47 L 117.73 62.47 L 115.93 62.47 L 114.13 62.47 L 112.33 62.47 L 110.53 62.47 L 108.73 62.47 L 106.93 62.47 L 105.13 62.47 L 103.33 62.47 L 101.53 62.47 L 99.73 62.47 L 97.93 62.47 L 96.13 62.47 L 94.33 62.47 L 92.53 62.47 L 90.73 62.47 L 88.93 62.47 L 87.13 62.47 L 85.33 62.47 L 83.53 62.47 L 81.73 62.47 L 79.93 62.47 L 78.13 62.47 L 76.33 62.47 L 74.53 62.47 L 72.73 62.47 L 70.93 62.47 L 69.13 62.47 L 67.33 62.47 L 65.53 62.47 L 63.73 62.47 L 62.47 62.47 L 63.74 63.74 L 65.02 65.02 L 66.29 66.29 L 67.56 67.56 L 68.72 68.73 L 68.72 70.52 L 68.72 72.32 L 68.73 74.13 L 68.73 75.93 L 68.72 77.72 L 68.72 79.52 L 68.72 81.33 L 68.72 83.12 L 68.73 84.93 L 68.72 86.72 L 68.73 88.53 L 68.72 90.32 L 68.72 92.13 L 68.72 93.92 L 68.73 95.73 L 68.72 97.52 L 68.73 99.33 L 68.73 101.12 L 68.72 102.93 L 68.73 104.72 L 68.73 106.52 L 68.73 108.32 L 68.72 110.13 L 68.73 111.92 L 68.73 113.73 L 68.72 115.52 L 68.72 117.33 L 68.73 119.12 L 68.72 120.93 L 68.72 122.72 L 68.73 124.52 L 68.72 126.33 L 68.72 128.13 L 68.72 129.93 L 68.72 131.27 L 70.52 131.28 L 72.32 131.28 L 74.13 131.27 L 75.93 131.27 L 77.73 131.28 L 79.52 131.28 L 81.32 131.28 L 83.12 131.28 L 84.93 131.27 L 86.72 131.28 L 88.53 131.27 L 90.33 131.28 L 92.12 131.28 L 93.92 131.28 L 95.72 131.27 L 97.52 131.28 L 99.32 131.27 L 101.13 131.27 L 102.93 131.28 L 104.73 131.27 L 106.53 131.27 L 108.33 131.27 L 110.13 131.28 L 111.92 131.27 L 113.72 131.28 L 115.53 131.28 L 117.33 131.28 L 119.12 131.27 L 120.93 131.28 L 122.73 131.28 L 124.52 131.27 L 126.33 131.28 L 128.13 131.28 L 129.93 131.27 L 131.28 131.28 L 131.28 129.48 L 131.28 127.68 L 131.27 125.87 L 131.27 124.07 L 131.28 122.28 L 131.28 120.48 L 131.28 118.68 L 131.28 116.88 L 131.27 115.08 L 131.28 113.27 L 131.27 111.48 L 131.28 109.68 L 131.28 107.88 L 131.28 106.08 L 131.27 104.27 L 131.28 102.47 L 131.27 100.67 L 131.27 98.88 L 131.28 97.08 L 131.27 95.28 L 131.27 93.48 L 131.27 91.68 L 131.28 89.87 L 131.27 88.08 L 131.28 86.28 L 131.28 84.48 L 131.28 82.67 L 131.27 80.88 L 131.28 79.07 L 131.28 77.27 L 131.27 75.48 L 131.28 73.67 L 131.28 71.87 L 131.28 70.08 L 131.27 68.72 L 129.48 68.72 L 127.68 68.72 L 125.87 68.73 L 124.07 68.73 L 122.27 68.72 L 120.48 68.72 L 118.68 68.72 L 116.87 68.72 L 115.07 68.73 L 113.28 68.72 L 111.47 68.73 L 109.68 68.72 L 107.88 68.72 L 106.08 68.72 L 104.27 68.73 L 102.48 68.72 L 100.67 68.73 L 98.88 68.73 L 97.07 68.72 L 95.28 68.73 L 93.47 68.73 L 91.68 68.73 L 89.87 68.72 L 88.08 68.73 L 86.27 68.73 L 84.48 68.72 L 82.67 68.72 L 80.88 68.73 L 79.07 68.72 L 77.28 68.72 L 75.48 68.73 L 73.67 68.72 L 71.87 68.72 L 70.07 68.73 L 68.73 68.72 L 70.00 70.00 L 71.27 71.27 L 72.54 72.54 L 73.82 73.82 L 74.98 74.98 L 74.98 76.78 L 74.98 78.58 L 74.98 80.38 L 74.98 82.18 L 74.98 83.98 L 74.98 85.78 L 74.98 87.58 L 74.98 89.38 L 74.98 91.18 L 74.98 92.98 L 74.98 94.78 L 74.98 96.58 L 74.98 98.38 L 74.98 100.18 L 74.98 101.98 L 74.98 103.78 L 74.98 105.58 L 74.98 107.38 L 74.98 109.18 L 74.98 110.98 L 74.98 112.78 L 74.98 114.58 L 74.98 116.38 L 74.98 118.18 L 74.98 119.98 L 74.98 121.78 L 74.98 123.58 L 74.98 125.02 L 76.78 125.02 L 78.58 125.02 L 80.38 125.02 L 82.18 125.02 L 83.98 125.02 L 85.78 125.02 L 87.58 125.02 L 89.38 125.02 L 91.18 125.02 L 92.98 125.02 L 94.78 125.02 L 96.58 125.02 L 98.38 125.02 L 100.18 125.02 L 101.98 125.02 L 103.78 125.02 L 105.58 125.02 L 107.38 125.02 L 109.18 125.02 L 110.98 125.02 L 112.78 125.02 L 114.58 125.02 L 116.38 125.02 L 118.18 125.02 L 119.98 125.02 L 121.78 125.02 L 123.58 125.02 L 125.02 125.02 L 125.02 123.22 L 125.02 121.42 L 125.02 119.62 L 125.02 117.82 L 125.02 116.02 L 125.02 114.22 L 125.02 112.42 L 125.02 110.62 L 125.02 108.82 L 125.02 107.02 L 125.02 105.22 L 125.02 103.42 L 125.02 101.62 L 125.02 99.82 L 125.02 98.02 L 125.02 96.22 L 125.02 94.42 L 125.02 92.62 L 125.02 90.82 L 125.02 89.02 L 125.02 87.22 L 125.02 85.42 L 125.02 83.62 L 125.02 81.82 L 125.02 80.02 L 125.02 78.22 L 125.02 76.42 L 125.02 74.98 L 123.22 74.98 L 121.42 74.98 L 119.62 74.98 L 117.82 74.98 L 116.02 74.98 L 114.22 74.98 L 112.42 74.98 L 110.62 74.98 L 108.82 74.98 L 107.02 74.98 L 105.22 74.98 L 103.42 74.98 L 101.62 74.98 L 99.82 74.98 L 98.02 74.98 L 96.22 74.98 L 94.42 74.98 L 92.62 74.98 L 90.82 74.98 L 89.02 74.98 L 87.22 74.98 L 85.42 74.98 L 83.62 74.98 L 81.82 74.98 L 80.02 74.98 L 78.22 74.98 L 76.42 74.98 L 74.98 74.98 L 76.25 76.25 L 77.53 77.53 L 78.80 78.80 L 80.07 80.07 L 81.24 81.24 L 81.23 83.03 L 81.23 84.83 L 81.23 86.63 L 81.23 88.43 L 81.24 90.24 L 81.24 92.04 L 81.24 93.84 L 81.23 95.63 L 81.23 97.44 L 81.24 99.23 L 81.23 101.04 L 81.23 102.84 L 81.23 104.64 L 81.23 106.44 L 81.24 108.23 L 81.24 110.03 L 81.24 111.83 L 81.24 113.64 L 81.24 115.43 L 81.23 117.24 L 81.24 118.76 L 83.03 118.77 L 84.83 118.77 L 86.63 118.77 L 88.43 118.77 L 90.24 118.76 L 92.04 118.76 L 93.84 118.76 L 95.63 118.77 L 97.43 118.77 L 99.24 118.76 L 101.03 118.77 L 102.84 118.77 L 104.64 118.77 L 106.43 118.77 L 108.23 118.76 L 110.03 118.76 L 111.83 118.76 L 113.63 118.77 L 115.43 118.76 L 117.24 118.77 L 118.76 118.76 L 118.77 116.97 L 118.77 115.17 L 118.77 113.37 L 118.77 111.57 L 118.76 109.76 L 118.76 107.96 L 118.76 106.16 L 118.77 104.37 L 118.77 102.57 L 118.76 100.77 L 118.77 98.96 L 118.77 97.17 L 118.77 95.36 L 118.77 93.56 L 118.76 91.77 L 118.76 89.96 L 118.76 88.17 L 118.77 86.36 L 118.76 84.56 L 118.77 82.76 L 118.76 81.24 L 116.97 81.23 L 115.17 81.23 L 113.37 81.23 L 111.57 81.23 L 109.77 81.24 L 107.96 81.24 L 106.16 81.24 L 104.37 81.23 L 102.56 81.23 L 100.77 81.24 L 98.96 81.23 L 97.16 81.23 L 95.36 81.23 L 93.57 81.23 L 91.77 81.24 L 89.97 81.24 L 88.17 81.24 L 86.37 81.23 L 84.57 81.24 L 82.76 81.23 L 81.24 81.24 L 82.51 82.51 L 83.78 83.78 L 85.05 85.05 L 86.33 86.33 L 87.49 87.49 L 87.49 89.29 L 87.49 91.09 L 87.49 92.89 L 87.49 94.69 L 87.49 96.49 L 87.49 98.29 L 87.49 100.09 L 87.49 101.89 L 87.49 103.69 L 87.49 105.49 L 87.49 107.29 L 87.49 109.09 L 87.49 110.89 L 87.49 112.51 L 89.29 112.51 L 91.09 112.51 L 92.89 112.51 L 94.69 112.51 L 96.49 112.51 L 98.29 112.51 L 100.09 112.51 L 101.89 112.51 L 103.69 112.51 L 105.49 112.51 L 107.29 112.51 L 109.09 112.51 L 110.89 112.51 L 112.51 112.51 L 112.51 110.71 L 112.51 108.91 L 112.51 107.11 L 112.51 105.31 L 112.51 103.51 L 112.51 101.71 L 112.51 99.91 L 112.51 98.11 L 112.51 96.31 L 112.51 94.51 L 112.51 92.71 L 112.51 90.91 L 112.51 89.11 L 112.51 87.49 L 110.71 87.49 L 108.91 87.49 L 107.11 87.49 L 105.31 87.49 L 103.51 87.49 L 101.71 87.49 L 99.91 87.49 L 98.11 87.49 L 96.31 87.49 L 94.51 87.49 L 92.71 87.49 L 90.91 87.49 L 89.11 87.49 L 87.49 87.49 L 88.76 88.76 L 90.04 90.04 L 91.31 91.31 L 92.58 92.58 L 93.74 93.74 L 93.74 95.54 L 93.75 97.35 L 93.74 99.14 L 93.74 100.94 L 93.74 102.75 L 93.75 104.55 L 93.74 106.26 L 95.54 106.26 L 97.35 106.25 L 99.14 106.26 L 100.95 106.26 L 102.75 106.26 L 104.54 106.26 L 106.26 106.26 L 106.26 104.46 L 106.25 102.65 L 106.26 100.86 L 106.26 99.05 L 106.26 97.25 L 106.26 95.45 L 106.26 93.74 L 104.46 93.74 L 102.65 93.75 L 100.86 93.74 L 99.05 93.74 L 97.25 93.74 L 95.45 93.75 L 93.74 93.74" 
          fill="none" 
          stroke="currentColor" 
          stroke-width="0.5"/>
</svg>