<?xml version="1.0" encoding="UTF-8" standalone="no"?>
<svg width="100%" height="100%" viewBox="0 0 200 200" preserveAspectRatio="xMidYMid meet" xmlns="http://www.w3.org/2000/svg">
    <path d="M 100.00 100.00 L 98.73 98.73 L 97.45 97.45 L 96.90 96.90 L 96.90 98.70 L 96.89 100.50 L 96.90 102.29 L 96.90 103.10 L 98.70 103.10 L 100.50 103.11 L 102.29 103.10 L 103.10 103.10 L 103.10 101.30 L 103.11 99.50 L 103.10 97.71 L 103.10 96.90 L 101.30 96.90 L 99.50 96.89 L 97.71 96.90 L 96.90 96.90 L 95.46 95.81 L 94.02 94.73 L 93.80 94.57 L 93.92 96.37 L 94.04 98.16 L 94.15 99.96 L 94.27 101.75 L 94.39 103.55 L 94.51 105.35 L 94.57 106.20 L 96.37 106.08 L 98.16 105.96 L 99.96 105.85 L 101.75 105.73 L 103.55 105.61 L 105.35 105.49 L 106.20 105.43 L 106.08 103.63 L 105.96 101.84 L 105.85 100.04 L 105.73 98.25 L 105.61 96.45 L 105.49 94.65 L 105.43 93.80 L 103.63 93.92 L 101.84 94.04 L 100.04 94.15 L 98.25 94.27 L 96.45 94.39 L 94.65 94.51 L 93.80 94.57 L 92.19 93.76 L 91.14 93.22 L 91.38 95.01 L 91.61 96.79 L 91.85 98.58 L 92.09 100.36 L 92.33 102.15 L 92.57 103.93 L 92.80 105.71 L 93.04 107.50 L 93.22 108.86 L 95.01 108.62 L 96.79 108.39 L 98.58 108.15 L 100.36 107.91 L 102.15 107.67 L 103.93 107.43 L 105.71 107.20 L 107.50 106.96 L 108.86 106.78 L 108.62 104.99 L 108.39 103.21 L 108.15 101.42 L 107.91 99.64 L 107.67 97.85 L 107.43 96.07 L 107.20 94.29 L 106.96 92.50 L 106.78 91.14 L 104.99 91.38 L 103.21 91.61 L 101.42 91.85 L 99.64 92.09 L 97.85 92.33 L 96.07 92.57 L 94.29 92.80 L 92.50 93.04 L 91.14 93.22 L 89.41 92.72 L 88.77 92.54 L 89.13 94.30 L 89.48 96.07 L 89.84 97.83 L 90.19 99.60 L 90.55 101.36 L 90.90 103.13 L 91.26 104.89 L 91.61 106.65 L 91.97 108.42 L 92.33 110.18 L 92.54 111.23 L 94.30 110.87 L 96.07 110.52 L 97.83 110.16 L 99.60 109.81 L 101.36 109.45 L 103.13 109.10 L 104.89 108.74 L 106.65 108.39 L 108.42 108.03 L 110.18 107.67 L 111.23 107.46 L 110.87 105.70 L 110.52 103.93 L 110.16 102.17 L 109.81 100.40 L 109.45 98.64 L 109.10 96.87 L 108.74 95.11 L 108.39 93.35 L 108.03 91.58 L 107.67 89.82 L 107.46 88.77 L 105.70 89.13 L 103.93 89.48 L 102.17 89.84 L 100.40 90.19 L 98.64 90.55 L 96.87 90.90 L 95.11 91.26 L 93.35 91.61 L 91.58 91.97 L 89.82 92.33 L 88.77 92.54 L 86.99 92.27 L 86.34 92.18 L 86.82 93.92 L 87.29 95.65 L 87.76 97.39 L 88.23 99.13 L 88.70 100.86 L 89.18 102.60 L 89.65 104.34 L 90.12 106.08 L 90.59 107.81 L 91.06 109.55 L 91.53 111.29 L 92.01 113.02 L 92.18 113.66 L 93.92 113.18 L 95.65 112.71 L 97.39 112.24 L 99.13 111.77 L 100.86 111.30 L 102.60 110.82 L 104.34 110.35 L 106.08 109.88 L 107.81 109.41 L 109.55 108.94 L 111.29 108.47 L 113.02 107.99 L 113.66 107.82 L 113.18 106.08 L 112.71 104.35 L 112.24 102.61 L 111.77 100.87 L 111.30 99.14 L 110.82 97.40 L 110.35 95.66 L 109.88 93.92 L 109.41 92.19 L 108.94 90.45 L 108.47 88.71 L 107.99 86.98 L 107.82 86.34 L 106.08 86.82 L 104.35 87.29 L 102.61 87.76 L 100.87 88.23 L 99.14 88.70 L 97.40 89.18 L 95.66 89.65 L 93.92 90.12 L 92.19 90.59 L 90.45 91.06 L 88.71 91.53 L 86.98 92.01 L 86.34 92.18 L 84.55 92.02 L 83.43 91.92 L 84.01 93.62 L 84.60 95.32 L 85.19 97.02 L 85.77 98.72 L 86.36 100.43 L 86.94 102.13 L 87.53 103.83 L 88.12 105.53 L 88.70 107.23 L 89.29 108.94 L 89.87 110.64 L 90.46 112.34 L 91.05 114.04 L 91.63 115.74 L 91.92 116.57 L 93.62 115.99 L 95.32 115.40 L 97.02 114.81 L 98.72 114.23 L 100.43 113.64 L 102.13 113.06 L 103.83 112.47 L 105.53 111.88 L 107.23 111.30 L 108.94 110.71 L 110.64 110.13 L 112.34 109.54 L 114.04 108.95 L 115.74 108.37 L 116.57 108.08 L 115.99 106.38 L 115.40 104.68 L 114.81 102.98 L 114.23 101.28 L 113.64 99.57 L 113.06 97.87 L 112.47 96.17 L 111.88 94.47 L 111.30 92.77 L 110.71 91.06 L 110.13 89.36 L 109.54 87.66 L 108.95 85.96 L 108.37 84.26 L 108.08 83.43 L 106.38 84.01 L 104.68 84.60 L 102.98 85.19 L 101.28 85.77 L 99.57 86.36 L 97.87 86.94 L 96.17 87.53 L 94.47 88.12 L 92.77 88.70 L 91.06 89.29 L 89.36 89.87 L 87.66 90.46 L 85.96 91.05 L 84.26 91.63 L 83.43 91.92 L 81.63 91.81 L 79.84 91.70 L 79.63 91.69 L 80.33 93.35 L 81.03 95.01 L 81.72 96.67 L 82.42 98.32 L 83.12 99.98 L 83.82 101.64 L 84.51 103.30 L 85.21 104.96 L 85.91 106.62 L 86.61 108.28 L 87.30 109.94 L 88.00 111.60 L 88.70 113.26 L 89.40 114.92 L 90.09 116.58 L 90.79 118.24 L 91.49 119.90 L 91.69 120.37 L 93.35 119.67 L 95.01 118.97 L 96.67 118.28 L 98.33 117.58 L 99.98 116.88 L 101.64 116.18 L 103.30 115.49 L 104.96 114.79 L 106.62 114.09 L 108.28 113.39 L 109.94 112.70 L 111.60 112.00 L 113.26 111.30 L 114.92 110.60 L 116.58 109.91 L 118.24 109.21 L 119.90 108.51 L 120.37 108.31 L 119.67 106.65 L 118.97 104.99 L 118.28 103.33 L 117.58 101.67 L 116.88 100.02 L 116.18 98.36 L 115.49 96.70 L 114.79 95.04 L 114.09 93.38 L 113.39 91.72 L 112.70 90.06 L 112.00 88.40 L 111.30 86.74 L 110.60 85.08 L 109.91 83.42 L 109.21 81.76 L 108.51 80.10 L 108.31 79.63 L 106.65 80.33 L 104.99 81.03 L 103.33 81.72 L 101.68 82.42 L 100.02 83.12 L 98.36 83.82 L 96.70 84.51 L 95.04 85.21 L 93.38 85.91 L 91.72 86.61 L 90.06 87.30 L 88.40 88.00 L 86.74 88.70 L 85.08 89.40 L 83.42 90.09 L 81.76 90.79 L 80.10 91.49 L 79.63 91.69 L 77.83 91.65 L 76.03 91.62 L 74.74 91.60 L 75.54 93.21 L 76.35 94.81 L 77.15 96.42 L 77.96 98.03 L 78.76 99.64 L 79.57 101.25 L 80.38 102.86 L 81.18 104.47 L 81.99 106.08 L 82.79 107.69 L 83.60 109.30 L 84.41 110.91 L 85.21 112.52 L 86.02 114.13 L 86.83 115.74 L 87.63 117.35 L 88.44 118.96 L 89.24 120.57 L 90.05 122.18 L 90.85 123.79 L 91.60 125.26 L 93.21 124.46 L 94.81 123.65 L 96.42 122.85 L 98.03 122.04 L 99.64 121.24 L 101.25 120.43 L 102.86 119.62 L 104.47 118.82 L 106.08 118.01 L 107.69 117.21 L 109.30 116.40 L 110.91 115.59 L 112.52 114.79 L 114.13 113.98 L 115.74 113.17 L 117.35 112.37 L 118.96 111.56 L 120.57 110.76 L 122.18 109.95 L 123.79 109.15 L 125.26 108.40 L 124.46 106.79 L 123.65 105.19 L 122.85 103.58 L 122.04 101.97 L 121.24 100.36 L 120.43 98.75 L 119.62 97.14 L 118.82 95.53 L 118.01 93.92 L 117.21 92.31 L 116.40 90.70 L 115.59 89.09 L 114.79 87.48 L 113.98 85.87 L 113.18 84.26 L 112.37 82.65 L 111.56 81.04 L 110.76 79.43 L 109.95 77.82 L 109.15 76.21 L 108.40 74.74 L 106.79 75.54 L 105.19 76.35 L 103.58 77.15 L 101.97 77.96 L 100.36 78.76 L 98.75 79.57 L 97.14 80.38 L 95.53 81.18 L 93.92 81.99 L 92.31 82.79 L 90.70 83.60 L 89.09 84.41 L 87.48 85.21 L 85.87 86.02 L 84.26 86.83 L 82.65 87.63 L 81.04 88.44 L 79.43 89.24 L 77.82 90.05 L 76.21 90.85 L 74.74 91.60 L 72.94 91.68 L 71.14 91.76 L 69.34 91.84 L 68.78 91.87 L 69.69 93.42 L 70.60 94.97 L 71.52 96.53 L 72.43 98.08 L 73.34 99.63 L 74.25 101.18 L 75.16 102.74 L 76.07 104.29 L 76.98 105.84 L 77.89 107.39 L 78.80 108.95 L 79.71 110.50 L 80.62 112.05 L 81.53 113.60 L 82.45 115.16 L 83.36 116.71 L 84.27 118.26 L 85.18 119.81 L 86.09 121.37 L 87.00 122.92 L 87.91 124.47 L 88.82 126.02 L 89.73 127.58 L 90.64 129.13 L 91.55 130.68 L 91.87 131.22 L 93.42 130.31 L 94.97 129.40 L 96.53 128.48 L 98.08 127.57 L 99.63 126.66 L 101.18 125.75 L 102.74 124.84 L 104.29 123.93 L 105.84 123.02 L 107.39 122.11 L 108.95 121.20 L 110.50 120.29 L 112.05 119.38 L 113.60 118.47 L 115.16 117.55 L 116.71 116.64 L 118.26 115.73 L 119.81 114.82 L 121.37 113.91 L 122.92 113.00 L 124.47 112.09 L 126.02 111.18 L 127.58 110.27 L 129.13 109.36 L 130.68 108.45 L 131.22 108.13 L 130.31 106.58 L 129.40 105.03 L 128.48 103.47 L 127.57 101.92 L 126.66 100.37 L 125.75 98.82 L 124.84 97.26 L 123.93 95.71 L 123.02 94.16 L 122.11 92.61 L 121.20 91.05 L 120.29 89.50 L 119.38 87.95 L 118.47 86.40 L 117.55 84.84 L 116.64 83.29 L 115.73 81.74 L 114.82 80.19 L 113.91 78.63 L 113.00 77.08 L 112.09 75.53 L 111.18 73.98 L 110.27 72.42 L 109.36 70.87 L 108.45 69.32 L 108.13 68.78 L 106.58 69.69 L 105.03 70.60 L 103.47 71.52 L 101.92 72.43 L 100.37 73.34 L 98.82 74.25 L 97.26 75.16 L 95.71 76.07 L 94.16 76.98 L 92.61 77.89 L 91.05 78.80 L 89.50 79.71 L 87.95 80.62 L 86.40 81.53 L 84.84 82.45 L 83.29 83.36 L 81.74 84.27 L 80.19 85.18 L 78.63 86.09 L 77.08 87.00 L 75.53 87.91 L 73.98 88.82 L 72.42 89.73 L 70.87 90.64 L 69.32 91.55 L 68.78 91.87 L 67.00 92.11 L 65.21 92.35 L 63.43 92.59 L 62.09 92.77 L 63.10 94.26 L 64.11 95.75 L 65.12 97.23 L 66.14 98.72 L 67.15 100.21 L 68.16 101.70 L 69.17 103.19 L 70.18 104.68 L 71.19 106.17 L 72.21 107.66 L 73.22 109.14 L 74.23 110.63 L 75.24 112.12 L 76.25 113.61 L 77.27 115.10 L 78.28 116.59 L 79.29 118.08 L 80.30 119.57 L 81.31 121.05 L 82.32 122.54 L 83.34 124.03 L 84.35 125.52 L 85.36 127.01 L 86.37 128.50 L 87.38 129.99 L 88.40 131.48 L 89.41 132.96 L 90.42 134.45 L 91.43 135.94 L 92.44 137.43 L 92.77 137.91 L 94.26 136.90 L 95.75 135.89 L 97.23 134.88 L 98.72 133.86 L 100.21 132.85 L 101.70 131.84 L 103.19 130.83 L 104.68 129.82 L 106.17 128.81 L 107.66 127.79 L 109.14 126.78 L 110.63 125.77 L 112.12 124.76 L 113.61 123.75 L 115.10 122.73 L 116.59 121.72 L 118.08 120.71 L 119.57 119.70 L 121.05 118.69 L 122.54 117.68 L 124.03 116.66 L 125.52 115.65 L 127.01 114.64 L 128.50 113.63 L 129.99 112.62 L 131.48 111.60 L 132.96 110.59 L 134.45 109.58 L 135.94 108.57 L 137.43 107.56 L 137.91 107.23 L 136.90 105.74 L 135.89 104.25 L 134.88 102.77 L 133.86 101.28 L 132.85 99.79 L 131.84 98.30 L 130.83 96.81 L 129.82 95.32 L 128.81 93.83 L 127.79 92.34 L 126.78 90.86 L 125.77 89.37 L 124.76 87.88 L 123.75 86.39 L 122.73 84.90 L 121.72 83.41 L 120.71 81.92 L 119.70 80.43 L 118.69 78.95 L 117.68 77.46 L 116.66 75.97 L 115.65 74.48 L 114.64 72.99 L 113.63 71.50 L 112.62 70.01 L 111.60 68.52 L 110.59 67.04 L 109.58 65.55 L 108.57 64.06 L 107.56 62.57 L 107.23 62.09 L 105.74 63.10 L 104.25 64.11 L 102.77 65.12 L 101.28 66.14 L 99.79 67.15 L 98.30 68.16 L 96.81 69.17 L 95.32 70.18 L 93.83 71.19 L 92.34 72.21 L 90.86 73.22 L 89.37 74.23 L 87.88 75.24 L 86.39 76.25 L 84.90 77.27 L 83.41 78.28 L 81.92 79.29 L 80.43 80.30 L 78.95 81.31 L 77.46 82.32 L 75.97 83.34 L 74.48 84.35 L 72.99 85.36 L 71.50 86.37 L 70.01 87.38 L 68.52 88.40 L 67.04 89.41 L 65.55 90.42 L 64.06 91.43 L 62.57 92.44 L 62.09 92.77 L 60.34 93.21 L 58.60 93.64 L 56.85 94.08 L 55.18 94.50 L 56.29 95.91 L 57.40 97.33 L 58.50 98.75 L 59.61 100.17 L 60.72 101.59 L 61.83 103.01 L 62.94 104.43 L 64.05 105.84 L 65.15 107.26 L 66.26 108.68 L 67.37 110.10 L 68.48 111.52 L 69.59 112.94 L 70.69 114.35 L 71.80 115.77 L 72.91 117.19 L 74.02 118.61 L 75.13 120.03 L 76.24 121.45 L 77.34 122.86 L 78.45 124.28 L 79.56 125.70 L 80.67 127.12 L 81.78 128.54 L 82.88 129.96 L 83.99 131.38 L 85.10 132.79 L 86.21 134.21 L 87.32 135.63 L 88.43 137.05 L 89.53 138.47 L 90.64 139.89 L 91.75 141.30 L 92.86 142.72 L 93.97 144.14 L 94.50 144.82 L 95.92 143.71 L 97.33 142.60 L 98.75 141.50 L 100.17 140.39 L 101.59 139.28 L 103.01 138.17 L 104.43 137.06 L 105.84 135.95 L 107.26 134.85 L 108.68 133.74 L 110.10 132.63 L 111.52 131.52 L 112.94 130.41 L 114.35 129.31 L 115.77 128.20 L 117.19 127.09 L 118.61 125.98 L 120.03 124.87 L 121.45 123.76 L 122.86 122.66 L 124.28 121.55 L 125.70 120.44 L 127.12 119.33 L 128.54 118.22 L 129.96 117.12 L 131.38 116.01 L 132.79 114.90 L 134.21 113.79 L 135.63 112.68 L 137.05 111.57 L 138.47 110.47 L 139.89 109.36 L 141.30 108.25 L 142.72 107.14 L 144.14 106.03 L 144.82 105.50 L 143.71 104.09 L 142.60 102.67 L 141.50 101.25 L 140.39 99.83 L 139.28 98.41 L 138.17 96.99 L 137.06 95.57 L 135.95 94.16 L 134.85 92.74 L 133.74 91.32 L 132.63 89.90 L 131.52 88.48 L 130.41 87.06 L 129.31 85.65 L 128.20 84.23 L 127.09 82.81 L 125.98 81.39 L 124.87 79.97 L 123.76 78.55 L 122.66 77.14 L 121.55 75.72 L 120.44 74.30 L 119.33 72.88 L 118.22 71.46 L 117.12 70.04 L 116.01 68.62 L 114.90 67.21 L 113.79 65.79 L 112.68 64.37 L 111.57 62.95 L 110.47 61.53 L 109.36 60.11 L 108.25 58.70 L 107.14 57.28 L 106.03 55.86 L 105.50 55.18 L 104.08 56.29 L 102.67 57.40 L 101.25 58.50 L 99.83 59.61 L 98.41 60.72 L 96.99 61.83 L 95.57 62.94 L 94.16 64.05 L 92.74 65.15 L 91.32 66.26 L 89.90 67.37 L 88.48 68.48 L 87.06 69.59 L 85.65 70.69 L 84.23 71.80 L 82.81 72.91 L 81.39 74.02 L 79.97 75.13 L 78.55 76.24 L 77.14 77.34 L 75.72 78.45 L 74.30 79.56 L 72.88 80.67 L 71.46 81.78 L 70.04 82.88 L 68.62 83.99 L 67.21 85.10 L 65.79 86.21 L 64.37 87.32 L 62.95 88.43 L 61.53 89.53 L 60.11 90.64 L 58.70 91.75 L 57.28 92.86 L 55.86 93.97 L 55.18 94.50 L 53.51 95.17 L 51.84 95.85 L 50.17 96.52 L 48.67 97.13 L 49.87 98.47 L 51.07 99.81 L 52.27 101.16 L 53.46 102.50 L 54.66 103.84 L 55.86 105.18 L 57.06 106.52 L 58.26 107.86 L 59.46 109.21 L 60.66 110.55 L 61.86 111.89 L 63.06 113.23 L 64.26 114.57 L 65.46 115.92 L 66.66 117.26 L 67.86 118.60 L 69.06 119.94 L 70.26 121.28 L 71.46 122.63 L 72.66 123.97 L 73.86 125.31 L 75.06 126.65 L 76.26 127.99 L 77.46 129.33 L 78.66 130.68 L 79.86 132.02 L 81.06 133.36 L 82.26 134.70 L 83.46 136.04 L 84.66 137.39 L 85.86 138.73 L 87.06 140.07 L 88.26 141.41 L 89.46 142.75 L 90.66 144.09 L 91.86 145.44 L 93.06 146.78 L 94.26 148.12 L 95.46 149.46 L 96.66 150.80 L 97.13 151.33 L 98.47 150.13 L 99.81 148.93 L 101.16 147.73 L 102.50 146.54 L 103.84 145.34 L 105.18 144.14 L 106.52 142.94 L 107.86 141.74 L 109.21 140.54 L 110.55 139.34 L 111.89 138.14 L 113.23 136.94 L 114.57 135.74 L 115.92 134.54 L 117.26 133.34 L 118.60 132.14 L 119.94 130.94 L 121.28 129.74 L 122.63 128.54 L 123.97 127.34 L 125.31 126.14 L 126.65 124.94 L 127.99 123.74 L 129.33 122.54 L 130.68 121.34 L 132.02 120.14 L 133.36 118.94 L 134.70 117.74 L 136.04 116.54 L 137.39 115.34 L 138.73 114.14 L 140.07 112.94 L 141.41 111.74 L 142.75 110.54 L 144.09 109.34 L 145.44 108.14 L 146.78 106.94 L 148.12 105.74 L 149.46 104.54 L 150.80 103.34 L 151.33 102.87 L 150.13 101.53 L 148.93 100.19 L 147.73 98.84 L 146.54 97.50 L 145.34 96.16 L 144.14 94.82 L 142.94 93.48 L 141.74 92.14 L 140.54 90.79 L 139.34 89.45 L 138.14 88.11 L 136.94 86.77 L 135.74 85.43 L 134.54 84.08 L 133.34 82.74 L 132.14 81.40 L 130.94 80.06 L 129.74 78.72 L 128.54 77.37 L 127.34 76.03 L 126.14 74.69 L 124.94 73.35 L 123.74 72.01 L 122.54 70.67 L 121.34 69.32 L 120.14 67.98 L 118.94 66.64 L 117.74 65.30 L 116.54 63.96 L 115.34 62.61 L 114.14 61.27 L 112.94 59.93 L 111.74 58.59 L 110.54 57.25 L 109.34 55.91 L 108.14 54.56 L 106.94 53.22 L 105.74 51.88 L 104.54 50.54 L 103.34 49.20 L 102.87 48.67 L 101.53 49.87 L 100.19 51.07 L 98.84 52.27 L 97.50 53.46 L 96.16 54.66 L 94.82 55.86 L 93.48 57.06 L 92.14 58.26 L 90.79 59.46 L 89.45 60.66 L 88.11 61.86 L 86.77 63.06 L 85.43 64.26 L 84.08 65.46 L 82.74 66.66 L 81.40 67.86 L 80.06 69.06 L 78.72 70.26 L 77.37 71.46 L 76.03 72.66 L 74.69 73.86 L 73.35 75.06 L 72.01 76.26 L 70.67 77.46 L 69.32 78.66 L 67.98 79.86 L 66.64 81.06 L 65.30 82.26 L 63.96 83.46 L 62.61 84.66 L 61.27 85.86 L 59.93 87.06 L 58.59 88.26 L 57.25 89.46 L 55.91 90.66 L 54.56 91.86 L 53.22 93.06 L 51.88 94.26 L 50.54 95.46 L 49.20 96.66 L 48.67 97.13 L 47.14 98.08 L 45.61 99.03 L 44.08 99.98 L 43.09 100.60 L 44.38 101.86 L 45.67 103.11 L 46.95 104.37 L 48.24 105.63 L 49.52 106.89 L 50.81 108.15 L 52.10 109.41 L 53.38 110.67 L 54.67 111.93 L 55.95 113.19 L 57.24 114.45 L 58.53 115.71 L 59.81 116.97 L 61.10 118.23 L 62.38 119.49 L 63.67 120.75 L 64.96 122.01 L 66.24 123.27 L 67.53 124.52 L 68.81 125.78 L 70.10 127.04 L 71.39 128.30 L 72.67 129.56 L 73.96 130.82 L 75.24 132.08 L 76.53 133.34 L 77.82 134.60 L 79.10 135.86 L 80.39 137.12 L 81.67 138.38 L 82.96 139.64 L 84.25 140.90 L 85.53 142.16 L 86.82 143.42 L 88.10 144.67 L 89.39 145.93 L 90.68 147.19 L 91.96 148.45 L 93.25 149.71 L 94.53 150.97 L 95.82 152.23 L 97.11 153.49 L 98.39 154.75 L 99.68 156.01 L 100.60 156.91 L 101.86 155.62 L 103.11 154.33 L 104.37 153.05 L 105.63 151.76 L 106.89 150.48 L 108.15 149.19 L 109.41 147.90 L 110.67 146.62 L 111.93 145.33 L 113.19 144.05 L 114.45 142.76 L 115.71 141.47 L 116.97 140.19 L 118.23 138.90 L 119.49 137.62 L 120.75 136.33 L 122.01 135.04 L 123.27 133.76 L 124.52 132.47 L 125.78 131.19 L 127.04 129.90 L 128.30 128.61 L 129.56 127.33 L 130.82 126.04 L 132.08 124.76 L 133.34 123.47 L 134.60 122.18 L 135.86 120.90 L 137.12 119.61 L 138.38 118.33 L 139.64 117.04 L 140.90 115.75 L 142.16 114.47 L 143.42 113.18 L 144.67 111.90 L 145.93 110.61 L 147.19 109.32 L 148.45 108.04 L 149.71 106.75 L 150.97 105.46 L 152.23 104.18 L 153.49 102.89 L 154.75 101.61 L 156.01 100.32 L 156.91 99.40 L 155.62 98.14 L 154.33 96.89 L 153.05 95.63 L 151.76 94.37 L 150.48 93.11 L 149.19 91.85 L 147.90 90.59 L 146.62 89.33 L 145.33 88.07 L 144.05 86.81 L 142.76 85.55 L 141.47 84.29 L 140.19 83.03 L 138.90 81.77 L 137.62 80.51 L 136.33 79.25 L 135.04 77.99 L 133.76 76.74 L 132.47 75.48 L 131.19 74.22 L 129.90 72.96 L 128.61 71.70 L 127.33 70.44 L 126.04 69.18 L 124.76 67.92 L 123.47 66.66 L 122.18 65.40 L 120.90 64.14 L 119.61 62.88 L 118.33 61.62 L 117.04 60.36 L 115.75 59.10 L 114.47 57.84 L 113.18 56.58 L 111.90 55.33 L 110.61 54.07 L 109.32 52.81 L 108.04 51.55 L 106.75 50.29 L 105.47 49.03 L 104.18 47.77 L 102.89 46.51 L 101.61 45.25 L 100.32 43.99 L 99.40 43.09 L 98.15 44.38 L 96.89 45.67 L 95.63 46.95 L 94.37 48.24 L 93.11 49.52 L 91.85 50.81 L 90.59 52.10 L 89.33 53.38 L 88.07 54.67 L 86.81 55.95 L 85.55 57.24 L 84.29 58.53 L 83.03 59.81 L 81.77 61.10 L 80.51 62.38 L 79.25 63.67 L 77.99 64.96 L 76.73 66.24 L 75.48 67.53 L 74.22 68.81 L 72.96 70.10 L 71.70 71.39 L 70.44 72.67 L 69.18 73.96 L 67.92 75.24 L 66.66 76.53 L 65.40 77.82 L 64.14 79.10 L 62.88 80.39 L 61.62 81.67 L 60.36 82.96 L 59.10 84.25 L 57.84 85.53 L 56.58 86.82 L 55.33 88.10 L 54.07 89.39 L 52.81 90.68 L 51.55 91.96 L 50.29 93.25 L 49.03 94.53 L 47.77 95.82 L 46.51 97.11 L 45.25 98.39 L 43.99 99.68 L 43.09 100.60 L 41.79 101.84 L 40.50 103.09 L 39.20 104.34 L 38.81 104.71 L 40.17 105.88 L 41.54 107.05 L 42.91 108.22 L 44.28 109.39 L 45.64 110.57 L 47.01 111.74 L 48.38 112.91 L 49.74 114.08 L 51.11 115.25 L 52.48 116.42 L 53.84 117.59 L 55.21 118.77 L 56.58 119.94 L 57.94 121.11 L 59.31 122.28 L 60.67 123.45 L 62.04 124.62 L 63.41 125.79 L 64.78 126.97 L 66.14 128.14 L 67.51 129.31 L 68.88 130.48 L 70.24 131.65 L 71.61 132.82 L 72.98 133.99 L 74.34 135.16 L 75.71 136.34 L 77.08 137.51 L 78.44 138.68 L 79.81 139.85 L 81.18 141.02 L 82.54 142.19 L 83.91 143.36 L 85.28 144.54 L 86.64 145.71 L 88.01 146.88 L 89.38 148.05 L 90.74 149.22 L 92.11 150.39 L 93.48 151.56 L 94.84 152.74 L 96.21 153.91 L 97.58 155.08 L 98.94 156.25 L 100.31 157.42 L 101.68 158.59 L 103.04 159.76 L 104.41 160.94 L 104.71 161.19 L 105.88 159.83 L 107.05 158.46 L 108.22 157.09 L 109.39 155.72 L 110.57 154.36 L 111.74 152.99 L 112.91 151.62 L 114.08 150.26 L 115.25 148.89 L 116.42 147.52 L 117.59 146.16 L 118.77 144.79 L 119.94 143.42 L 121.11 142.06 L 122.28 140.69 L 123.45 139.33 L 124.62 137.96 L 125.79 136.59 L 126.96 135.22 L 128.14 133.86 L 129.31 132.49 L 130.48 131.12 L 131.65 129.76 L 132.82 128.39 L 133.99 127.02 L 135.16 125.66 L 136.34 124.29 L 137.51 122.92 L 138.68 121.56 L 139.85 120.19 L 141.02 118.82 L 142.19 117.46 L 143.36 116.09 L 144.54 114.72 L 145.71 113.36 L 146.88 111.99 L 148.05 110.62 L 149.22 109.26 L 150.39 107.89 L 151.56 106.52 L 152.74 105.16 L 153.91 103.79 L 155.08 102.42 L 156.25 101.06 L 157.42 99.69 L 158.59 98.32 L 159.76 96.96 L 160.94 95.59 L 161.19 95.29 L 159.83 94.12 L 158.46 92.95 L 157.09 91.78 L 155.72 90.61 L 154.36 89.43 L 152.99 88.26 L 151.62 87.09 L 150.26 85.92 L 148.89 84.75 L 147.52 83.58 L 146.16 82.41 L 144.79 81.23 L 143.42 80.06 L 142.06 78.89 L 140.69 77.72 L 139.32 76.55 L 137.96 75.38 L 136.59 74.21 L 135.22 73.03 L 133.86 71.86 L 132.49 70.69 L 131.12 69.52 L 129.76 68.35 L 128.39 67.18 L 127.02 66.01 L 125.66 64.84 L 124.29 63.66 L 122.92 62.49 L 121.56 61.32 L 120.19 60.15 L 118.82 58.98 L 117.46 57.81 L 116.09 56.64 L 114.72 55.46 L 113.36 54.29 L 111.99 53.12 L 110.62 51.95 L 109.26 50.78 L 107.89 49.61 L 106.52 48.44 L 105.16 47.26 L 103.79 46.09 L 102.42 44.92 L 101.06 43.75 L 99.69 42.58 L 98.32 41.41 L 96.96 40.24 L 95.59 39.06 L 95.29 38.81 L 94.12 40.17 L 92.95 41.54 L 91.78 42.91 L 90.61 44.28 L 89.43 45.64 L 88.26 47.01 L 87.09 48.38 L 85.92 49.74 L 84.75 51.11 L 83.58 52.48 L 82.41 53.84 L 81.23 55.21 L 80.06 56.58 L 78.89 57.94 L 77.72 59.31 L 76.55 60.67 L 75.38 62.04 L 74.21 63.41 L 73.03 64.78 L 71.86 66.14 L 70.69 67.51 L 69.52 68.88 L 68.35 70.24 L 67.18 71.61 L 66.01 72.98 L 64.84 74.34 L 63.66 75.71 L 62.49 77.08 L 61.32 78.44 L 60.15 79.81 L 58.98 81.18 L 57.81 82.54 L 56.64 83.91 L 55.46 85.28 L 54.29 86.64 L 53.12 88.01 L 51.95 89.38 L 50.78 90.74 L 49.61 92.11 L 48.44 93.48 L 47.26 94.84 L 46.09 96.21 L 44.92 97.58 L 43.75 98.94 L 42.58 100.31 L 41.41 101.68 L 40.24 103.04 L 39.06 104.41 L 38.81 104.71 L 37.83 106.22 L 36.85 107.73 L 35.88 109.24 L 37.32 110.32 L 38.76 111.40 L 40.20 112.48 L 41.64 113.55 L 43.08 114.63 L 44.52 115.71 L 45.96 116.79 L 47.41 117.87 L 48.85 118.94 L 50.29 120.02 L 51.73 121.10 L 53.17 122.18 L 54.61 123.26 L 56.05 124.34 L 57.50 125.41 L 58.94 126.49 L 60.38 127.57 L 61.82 128.65 L 63.26 129.73 L 64.70 130.80 L 66.14 131.88 L 67.58 132.96 L 69.03 134.04 L 70.47 135.12 L 71.91 136.20 L 73.35 137.27 L 74.79 138.35 L 76.23 139.43 L 77.67 140.51 L 79.12 141.59 L 80.56 142.67 L 82.00 143.74 L 83.44 144.82 L 84.88 145.90 L 86.32 146.98 L 87.76 148.06 L 89.20 149.14 L 90.65 150.21 L 92.09 151.29 L 93.53 152.37 L 94.97 153.45 L 96.41 154.53 L 97.85 155.60 L 99.29 156.68 L 100.74 157.76 L 102.18 158.84 L 103.62 159.92 L 105.06 161.00 L 106.50 162.07 L 107.94 163.15 L 109.24 164.12 L 110.32 162.68 L 111.40 161.24 L 112.47 159.80 L 113.55 158.36 L 114.63 156.92 L 115.71 155.48 L 116.79 154.04 L 117.87 152.59 L 118.94 151.15 L 120.02 149.71 L 121.10 148.27 L 122.18 146.83 L 123.26 145.39 L 124.34 143.95 L 125.41 142.50 L 126.49 141.06 L 127.57 139.62 L 128.65 138.18 L 129.73 136.74 L 130.81 135.30 L 131.88 133.86 L 132.96 132.42 L 134.04 130.97 L 135.12 129.53 L 136.20 128.09 L 137.27 126.65 L 138.35 125.21 L 139.43 123.77 L 140.51 122.33 L 141.59 120.88 L 142.67 119.44 L 143.74 118.00 L 144.82 116.56 L 145.90 115.12 L 146.98 113.68 L 148.06 112.24 L 149.14 110.80 L 150.21 109.35 L 151.29 107.91 L 152.37 106.47 L 153.45 105.03 L 154.53 103.59 L 155.60 102.15 L 156.68 100.71 L 157.76 99.27 L 158.84 97.82 L 159.92 96.38 L 161.00 94.94 L 162.07 93.50 L 163.15 92.06 L 164.12 90.76 L 162.68 89.68 L 161.24 88.60 L 159.80 87.52 L 158.36 86.45 L 156.92 85.37 L 155.48 84.29 L 154.04 83.21 L 152.59 82.13 L 151.15 81.06 L 149.71 79.98 L 148.27 78.90 L 146.83 77.82 L 145.39 76.74 L 143.95 75.66 L 142.50 74.59 L 141.06 73.51 L 139.62 72.43 L 138.18 71.35 L 136.74 70.27 L 135.30 69.19 L 133.86 68.12 L 132.42 67.04 L 130.97 65.96 L 129.53 64.88 L 128.09 63.80 L 126.65 62.73 L 125.21 61.65 L 123.77 60.57 L 122.33 59.49 L 120.88 58.41 L 119.44 57.33 L 118.00 56.26 L 116.56 55.18 L 115.12 54.10 L 113.68 53.02 L 112.24 51.94 L 110.80 50.86 L 109.35 49.79 L 107.91 48.71 L 106.47 47.63 L 105.03 46.55 L 103.59 45.47 L 102.15 44.40 L 100.71 43.32 L 99.26 42.24 L 97.82 41.16 L 96.38 40.08 L 94.94 39.00 L 93.50 37.93 L 92.06 36.85 L 90.76 35.88 L 89.68 37.32 L 88.60 38.76 L 87.52 40.20 L 86.45 41.64 L 85.37 43.08 L 84.29 44.52 L 83.21 45.96 L 82.13 47.41 L 81.06 48.85 L 79.98 50.29 L 78.90 51.73 L 77.82 53.17 L 76.74 54.61 L 75.66 56.05 L 74.59 57.50 L 73.51 58.94 L 72.43 60.38 L 71.35 61.82 L 70.27 63.26 L 69.20 64.70 L 68.12 66.14 L 67.04 67.58 L 65.96 69.03 L 64.88 70.47 L 63.80 71.91 L 62.73 73.35 L 61.65 74.79 L 60.57 76.23 L 59.49 77.67 L 58.41 79.12 L 57.33 80.56 L 56.26 82.00 L 55.18 83.44 L 54.10 84.88 L 53.02 86.32 L 51.94 87.76 L 50.86 89.20 L 49.79 90.65 L 48.71 92.09 L 47.63 93.53 L 46.55 94.97 L 45.47 96.41 L 44.40 97.85 L 43.32 99.29 L 42.24 100.73 L 41.16 102.18 L 40.08 103.62 L 39.00 105.06 L 37.93 106.50 L 36.85 107.94 L 35.88 109.24 L 35.24 110.93 L 34.61 112.61 L 34.08 114.01 L 35.59 114.99 L 37.10 115.97 L 38.61 116.95 L 40.12 117.93 L 41.63 118.91 L 43.14 119.89 L 44.65 120.87 L 46.16 121.85 L 47.67 122.83 L 49.18 123.81 L 50.69 124.80 L 52.20 125.78 L 53.71 126.76 L 55.22 127.74 L 56.73 128.72 L 58.24 129.70 L 59.75 130.68 L 61.26 131.66 L 62.77 132.64 L 64.28 133.62 L 65.78 134.60 L 67.29 135.58 L 68.80 136.56 L 70.31 137.54 L 71.82 138.52 L 73.33 139.50 L 74.84 140.48 L 76.35 141.46 L 77.86 142.44 L 79.37 143.42 L 80.88 144.40 L 82.39 145.38 L 83.90 146.36 L 85.41 147.34 L 86.92 148.32 L 88.43 149.30 L 89.94 150.28 L 91.45 151.26 L 92.96 152.25 L 94.47 153.23 L 95.98 154.21 L 97.49 155.19 L 99.00 156.17 L 100.51 157.15 L 102.02 158.13 L 103.52 159.11 L 105.03 160.09 L 106.54 161.07 L 108.05 162.05 L 109.56 163.03 L 111.07 164.01 L 112.58 164.99 L 114.01 165.92 L 114.99 164.41 L 115.97 162.90 L 116.95 161.39 L 117.93 159.88 L 118.91 158.37 L 119.89 156.86 L 120.87 155.35 L 121.85 153.84 L 122.83 152.33 L 123.81 150.82 L 124.79 149.31 L 125.78 147.80 L 126.76 146.29 L 127.74 144.78 L 128.72 143.27 L 129.70 141.76 L 130.68 140.25 L 131.66 138.74 L 132.64 137.23 L 133.62 135.72 L 134.60 134.22 L 135.58 132.71 L 136.56 131.20 L 137.54 129.69 L 138.52 128.18 L 139.50 126.67 L 140.48 125.16 L 141.46 123.65 L 142.44 122.14 L 143.42 120.63 L 144.40 119.12 L 145.38 117.61 L 146.36 116.10 L 147.34 114.59 L 148.32 113.08 L 149.30 111.57 L 150.28 110.06 L 151.26 108.55 L 152.25 107.04 L 153.23 105.53 L 154.21 104.02 L 155.19 102.51 L 156.17 101.00 L 157.15 99.49 L 158.13 97.98 L 159.11 96.47 L 160.09 94.97 L 161.07 93.46 L 162.05 91.95 L 163.03 90.44 L 164.01 88.93 L 164.99 87.42 L 165.92 85.99 L 164.41 85.01 L 162.90 84.03 L 161.39 83.05 L 159.88 82.07 L 158.37 81.09 L 156.86 80.11 L 155.35 79.13 L 153.84 78.15 L 152.33 77.17 L 150.82 76.19 L 149.31 75.20 L 147.80 74.22 L 146.29 73.24 L 144.78 72.26 L 143.27 71.28 L 141.76 70.30 L 140.25 69.32 L 138.74 68.34 L 137.23 67.36 L 135.72 66.38 L 134.22 65.40 L 132.71 64.42 L 131.20 63.44 L 129.69 62.46 L 128.18 61.48 L 126.67 60.50 L 125.16 59.52 L 123.65 58.54 L 122.14 57.56 L 120.63 56.58 L 119.12 55.60 L 117.61 54.62 L 116.10 53.64 L 114.59 52.66 L 113.08 51.68 L 111.57 50.70 L 110.06 49.72 L 108.55 48.74 L 107.04 47.76 L 105.53 46.77 L 104.02 45.79 L 102.51 44.81 L 101.00 43.83 L 99.49 42.85 L 97.98 41.87 L 96.47 40.89 L 94.97 39.91 L 93.46 38.93 L 91.95 37.95 L 90.44 36.97 L 88.93 35.99 L 87.42 35.01 L 85.99 34.08 L 85.01 35.59 L 84.03 37.10 L 83.05 38.61 L 82.07 40.12 L 81.09 41.63 L 80.11 43.14 L 79.13 44.65 L 78.15 46.16 L 77.17 47.67 L 76.19 49.18 L 75.20 50.69 L 74.22 52.20 L 73.24 53.71 L 72.26 55.22 L 71.28 56.73 L 70.30 58.24 L 69.32 59.75 L 68.34 61.26 L 67.36 62.77 L 66.38 64.28 L 65.40 65.78 L 64.42 67.29 L 63.44 68.80 L 62.46 70.31 L 61.48 71.82 L 60.50 73.33 L 59.52 74.84 L 58.54 76.35 L 57.56 77.86 L 56.58 79.37 L 55.60 80.88 L 54.62 82.39 L 53.64 83.90 L 52.66 85.41 L 51.68 86.92 L 50.70 88.43 L 49.72 89.94 L 48.74 91.45 L 47.75 92.96 L 46.77 94.47 L 45.79 95.98 L 44.81 97.49 L 43.83 99.00 L 42.85 100.51 L 41.87 102.02 L 40.89 103.52 L 39.91 105.03 L 38.93 106.54 L 37.95 108.05 L 36.97 109.56 L 35.99 111.07 L 35.01 112.58 L 34.08 114.01 L 33.70 115.77 L 33.32 117.53 L 33.01 118.96 L 34.58 119.83 L 36.15 120.71 L 37.72 121.59 L 39.30 122.47 L 40.87 123.35 L 42.44 124.22 L 44.01 125.10 L 45.58 125.98 L 47.15 126.86 L 48.72 127.74 L 50.30 128.62 L 51.87 129.49 L 53.44 130.37 L 55.01 131.25 L 56.58 132.13 L 58.15 133.01 L 59.72 133.88 L 61.29 134.76 L 62.86 135.64 L 64.44 136.52 L 66.01 137.40 L 67.58 138.27 L 69.15 139.15 L 70.72 140.03 L 72.29 140.91 L 73.86 141.79 L 75.44 142.67 L 77.01 143.54 L 78.58 144.42 L 80.15 145.30 L 81.72 146.18 L 83.29 147.06 L 84.86 147.93 L 86.43 148.81 L 88.01 149.69 L 89.58 150.57 L 91.15 151.45 L 92.72 152.33 L 94.29 153.20 L 95.86 154.08 L 97.43 154.96 L 99.00 155.84 L 100.58 156.72 L 102.15 157.59 L 103.72 158.47 L 105.29 159.35 L 106.86 160.23 L 108.43 161.11 L 110.00 161.98 L 111.57 162.86 L 113.15 163.74 L 114.72 164.62 L 116.29 165.50 L 117.86 166.38 L 118.96 166.99 L 119.83 165.42 L 120.71 163.85 L 121.59 162.27 L 122.47 160.70 L 123.35 159.13 L 124.22 157.56 L 125.10 155.99 L 125.98 154.42 L 126.86 152.85 L 127.74 151.28 L 128.62 149.70 L 129.49 148.13 L 130.37 146.56 L 131.25 144.99 L 132.13 143.42 L 133.01 141.85 L 133.88 140.28 L 134.76 138.71 L 135.64 137.13 L 136.52 135.56 L 137.40 133.99 L 138.28 132.42 L 139.15 130.85 L 140.03 129.28 L 140.91 127.71 L 141.79 126.14 L 142.67 124.56 L 143.54 122.99 L 144.42 121.42 L 145.30 119.85 L 146.18 118.28 L 147.06 116.71 L 147.93 115.14 L 148.81 113.57 L 149.69 111.99 L 150.57 110.42 L 151.45 108.85 L 152.33 107.28 L 153.20 105.71 L 154.08 104.14 L 154.96 102.57 L 155.84 101.00 L 156.72 99.42 L 157.59 97.85 L 158.47 96.28 L 159.35 94.71 L 160.23 93.14 L 161.11 91.57 L 161.98 90.00 L 162.86 88.43 L 163.74 86.85 L 164.62 85.28 L 165.50 83.71 L 166.38 82.14 L 166.99 81.04 L 165.42 80.17 L 163.85 79.29 L 162.28 78.41 L 160.70 77.53 L 159.13 76.65 L 157.56 75.78 L 155.99 74.90 L 154.42 74.02 L 152.85 73.14 L 151.28 72.26 L 149.70 71.38 L 148.13 70.51 L 146.56 69.63 L 144.99 68.75 L 143.42 67.87 L 141.85 66.99 L 140.28 66.12 L 138.71 65.24 L 137.13 64.36 L 135.56 63.48 L 133.99 62.60 L 132.42 61.73 L 130.85 60.85 L 129.28 59.97 L 127.71 59.09 L 126.14 58.21 L 124.56 57.33 L 122.99 56.46 L 121.42 55.58 L 119.85 54.70 L 118.28 53.82 L 116.71 52.94 L 115.14 52.07 L 113.57 51.19 L 111.99 50.31 L 110.42 49.43 L 108.85 48.55 L 107.28 47.67 L 105.71 46.80 L 104.14 45.92 L 102.57 45.04 L 101.00 44.16 L 99.42 43.28 L 97.85 42.41 L 96.28 41.53 L 94.71 40.65 L 93.14 39.77 L 91.57 38.89 L 90.00 38.02 L 88.43 37.14 L 86.85 36.26 L 85.28 35.38 L 83.71 34.50 L 82.14 33.62 L 81.04 33.01 L 80.17 34.58 L 79.29 36.15 L 78.41 37.72 L 77.53 39.30 L 76.65 40.87 L 75.78 42.44 L 74.90 44.01 L 74.02 45.58 L 73.14 47.15 L 72.26 48.72 L 71.38 50.30 L 70.51 51.87 L 69.63 53.44 L 68.75 55.01 L 67.87 56.58 L 66.99 58.15 L 66.12 59.72 L 65.24 61.29 L 64.36 62.86 L 63.48 64.44 L 62.60 66.01 L 61.73 67.58 L 60.85 69.15 L 59.97 70.72 L 59.09 72.29 L 58.21 73.86 L 57.33 75.44 L 56.46 77.01 L 55.58 78.58 L 54.70 80.15 L 53.82 81.72 L 52.94 83.29 L 52.07 84.86 L 51.19 86.43 L 50.31 88.01 L 49.43 89.58 L 48.55 91.15 L 47.67 92.72 L 46.80 94.29 L 45.92 95.86 L 45.04 97.43 L 44.16 99.00 L 43.28 100.58 L 42.41 102.15 L 41.53 103.72 L 40.65 105.29 L 39.77 106.86 L 38.89 108.43 L 38.02 110.00 L 37.14 111.57 L 36.26 113.15 L 35.38 114.72 L 34.50 116.29 L 33.62 117.86 L 33.01 118.96 L 32.72 120.73 L 32.43 122.51 L 32.17 124.15 L 33.79 124.93 L 35.42 125.70 L 37.04 126.47 L 38.67 127.24 L 40.30 128.01 L 41.92 128.79 L 43.55 129.56 L 45.17 130.33 L 46.80 131.10 L 48.43 131.88 L 50.05 132.65 L 51.68 133.42 L 53.30 134.19 L 54.93 134.96 L 56.56 135.74 L 58.18 136.51 L 59.81 137.28 L 61.43 138.05 L 63.06 138.82 L 64.69 139.60 L 66.31 140.37 L 67.94 141.14 L 69.56 141.91 L 71.19 142.68 L 72.82 143.46 L 74.44 144.23 L 76.07 145.00 L 77.69 145.77 L 79.32 146.54 L 80.95 147.32 L 82.57 148.09 L 84.20 148.86 L 85.82 149.63 L 87.45 150.41 L 89.08 151.18 L 90.70 151.95 L 92.33 152.72 L 93.95 153.49 L 95.58 154.27 L 97.21 155.04 L 98.83 155.81 L 100.46 156.58 L 102.08 157.35 L 103.71 158.13 L 105.34 158.90 L 106.96 159.67 L 108.59 160.44 L 110.21 161.22 L 111.84 161.99 L 113.47 162.76 L 115.09 163.53 L 116.72 164.30 L 118.34 165.07 L 119.97 165.85 L 121.60 166.62 L 123.22 167.39 L 124.15 167.83 L 124.93 166.21 L 125.70 164.58 L 126.47 162.96 L 127.24 161.33 L 128.01 159.70 L 128.79 158.08 L 129.56 156.45 L 130.33 154.83 L 131.10 153.20 L 131.88 151.57 L 132.65 149.95 L 133.42 148.32 L 134.19 146.70 L 134.96 145.07 L 135.74 143.44 L 136.51 141.82 L 137.28 140.19 L 138.05 138.57 L 138.82 136.94 L 139.60 135.31 L 140.37 133.69 L 141.14 132.06 L 141.91 130.44 L 142.68 128.81 L 143.46 127.18 L 144.23 125.56 L 145.00 123.93 L 145.77 122.31 L 146.54 120.68 L 147.32 119.05 L 148.09 117.43 L 148.86 115.80 L 149.63 114.18 L 150.41 112.55 L 151.18 110.92 L 151.95 109.30 L 152.72 107.67 L 153.49 106.05 L 154.27 104.42 L 155.04 102.79 L 155.81 101.17 L 156.58 99.54 L 157.35 97.92 L 158.13 96.29 L 158.90 94.66 L 159.67 93.04 L 160.44 91.41 L 161.21 89.79 L 161.99 88.16 L 162.76 86.53 L 163.53 84.91 L 164.30 83.28 L 165.07 81.66 L 165.85 80.03 L 166.62 78.40 L 167.39 76.78 L 167.83 75.85 L 166.21 75.07 L 164.58 74.30 L 162.96 73.53 L 161.33 72.76 L 159.70 71.99 L 158.08 71.21 L 156.45 70.44 L 154.83 69.67 L 153.20 68.90 L 151.57 68.12 L 149.95 67.35 L 148.32 66.58 L 146.70 65.81 L 145.07 65.04 L 143.44 64.26 L 141.82 63.49 L 140.19 62.72 L 138.57 61.95 L 136.94 61.18 L 135.31 60.40 L 133.69 59.63 L 132.06 58.86 L 130.44 58.09 L 128.81 57.32 L 127.18 56.54 L 125.56 55.77 L 123.93 55.00 L 122.31 54.23 L 120.68 53.46 L 119.05 52.68 L 117.43 51.91 L 115.80 51.14 L 114.18 50.37 L 112.55 49.59 L 110.92 48.82 L 109.30 48.05 L 107.67 47.28 L 106.05 46.51 L 104.42 45.73 L 102.79 44.96 L 101.17 44.19 L 99.54 43.42 L 97.92 42.65 L 96.29 41.87 L 94.66 41.10 L 93.04 40.33 L 91.41 39.56 L 89.79 38.78 L 88.16 38.01 L 86.53 37.24 L 84.91 36.47 L 83.28 35.70 L 81.66 34.93 L 80.03 34.15 L 78.40 33.38 L 76.78 32.61 L 75.85 32.17 L 75.07 33.79 L 74.30 35.42 L 73.53 37.04 L 72.76 38.67 L 71.98 40.30 L 71.21 41.92 L 70.44 43.55 L 69.67 45.17 L 68.90 46.80 L 68.12 48.43 L 67.35 50.05 L 66.58 51.68 L 65.81 53.30 L 65.04 54.93 L 64.26 56.56 L 63.49 58.18 L 62.72 59.81 L 61.95 61.43 L 61.18 63.06 L 60.40 64.69 L 59.63 66.31 L 58.86 67.94 L 58.09 69.56 L 57.32 71.19 L 56.54 72.82 L 55.77 74.44 L 55.00 76.07 L 54.23 77.69 L 53.46 79.32 L 52.68 80.95 L 51.91 82.57 L 51.14 84.20 L 50.37 85.82 L 49.59 87.45 L 48.82 89.08 L 48.05 90.70 L 47.28 92.33 L 46.51 93.95 L 45.73 95.58 L 44.96 97.21 L 44.19 98.83 L 43.42 100.46 L 42.65 102.08 L 41.87 103.71 L 41.10 105.34 L 40.33 106.96 L 39.56 108.59 L 38.79 110.21 L 38.01 111.84 L 37.24 113.47 L 36.47 115.09 L 35.70 116.72 L 34.93 118.34 L 34.15 119.97 L 33.38 121.60 L 32.61 123.22 L 32.17 124.15 L 31.84 125.92 L 31.52 127.70 L 31.19 129.47 L 31.13 129.80 L 32.81 130.46 L 34.48 131.13 L 36.15 131.79 L 37.83 132.45 L 39.50 133.11 L 41.17 133.78 L 42.85 134.44 L 44.52 135.10 L 46.19 135.77 L 47.87 136.43 L 49.54 137.09 L 51.22 137.75 L 52.89 138.42 L 54.56 139.08 L 56.24 139.74 L 57.91 140.40 L 59.58 141.07 L 61.26 141.73 L 62.93 142.39 L 64.60 143.05 L 66.28 143.72 L 67.95 144.38 L 69.62 145.04 L 71.30 145.70 L 72.97 146.37 L 74.65 147.03 L 76.32 147.69 L 77.99 148.36 L 79.67 149.02 L 81.34 149.68 L 83.01 150.34 L 84.69 151.01 L 86.36 151.67 L 88.03 152.33 L 89.71 152.99 L 91.38 153.66 L 93.06 154.32 L 94.73 154.98 L 96.40 155.64 L 98.08 156.31 L 99.75 156.97 L 101.42 157.63 L 103.10 158.29 L 104.77 158.96 L 106.44 159.62 L 108.12 160.28 L 109.79 160.95 L 111.46 161.61 L 113.14 162.27 L 114.81 162.93 L 116.49 163.60 L 118.16 164.26 L 119.83 164.92 L 121.51 165.58 L 123.18 166.25 L 124.85 166.91 L 126.53 167.57 L 128.20 168.23 L 129.80 168.87 L 130.46 167.19 L 131.13 165.52 L 131.79 163.85 L 132.45 162.17 L 133.11 160.50 L 133.78 158.83 L 134.44 157.15 L 135.10 155.48 L 135.77 153.81 L 136.43 152.13 L 137.09 150.46 L 137.75 148.78 L 138.42 147.11 L 139.08 145.44 L 139.74 143.76 L 140.40 142.09 L 141.07 140.42 L 141.73 138.74 L 142.39 137.07 L 143.05 135.40 L 143.72 133.72 L 144.38 132.05 L 145.04 130.38 L 145.70 128.70 L 146.37 127.03 L 147.03 125.35 L 147.69 123.68 L 148.36 122.01 L 149.02 120.33 L 149.68 118.66 L 150.34 116.99 L 151.01 115.31 L 151.67 113.64 L 152.33 111.97 L 152.99 110.29 L 153.66 108.62 L 154.32 106.95 L 154.98 105.27 L 155.64 103.60 L 156.31 101.92 L 156.97 100.25 L 157.63 98.58 L 158.29 96.90 L 158.96 95.23 L 159.62 93.56 L 160.28 91.88 L 160.95 90.21 L 161.61 88.54 L 162.27 86.86 L 162.93 85.19 L 163.60 83.51 L 164.26 81.84 L 164.92 80.17 L 165.58 78.49 L 166.25 76.82 L 166.91 75.15 L 167.57 73.47 L 168.23 71.80 L 168.87 70.20 L 167.19 69.54 L 165.52 68.87 L 163.85 68.21 L 162.17 67.55 L 160.50 66.89 L 158.83 66.22 L 157.15 65.56 L 155.48 64.90 L 153.81 64.23 L 152.13 63.57 L 150.46 62.91 L 148.79 62.25 L 147.11 61.58 L 145.44 60.92 L 143.76 60.26 L 142.09 59.60 L 140.42 58.93 L 138.74 58.27 L 137.07 57.61 L 135.40 56.95 L 133.72 56.28 L 132.05 55.62 L 130.38 54.96 L 128.70 54.30 L 127.03 53.63 L 125.35 52.97 L 123.68 52.31 L 122.01 51.64 L 120.33 50.98 L 118.66 50.32 L 116.99 49.66 L 115.31 48.99 L 113.64 48.33 L 111.97 47.67 L 110.29 47.01 L 108.62 46.34 L 106.94 45.68 L 105.27 45.02 L 103.60 44.36 L 101.92 43.69 L 100.25 43.03 L 98.58 42.37 L 96.90 41.71 L 95.23 41.04 L 93.56 40.38 L 91.88 39.72 L 90.21 39.06 L 88.54 38.39 L 86.86 37.73 L 85.19 37.07 L 83.51 36.40 L 81.84 35.74 L 80.17 35.08 L 78.49 34.42 L 76.82 33.75 L 75.15 33.09 L 73.47 32.43 L 71.80 31.77 L 70.20 31.13 L 69.54 32.81 L 68.87 34.48 L 68.21 36.15 L 67.55 37.83 L 66.89 39.50 L 66.22 41.17 L 65.56 42.85 L 64.90 44.52 L 64.23 46.19 L 63.57 47.87 L 62.91 49.54 L 62.25 51.22 L 61.58 52.89 L 60.92 54.56 L 60.26 56.24 L 59.60 57.91 L 58.93 59.58 L 58.27 61.26 L 57.61 62.93 L 56.95 64.60 L 56.28 66.28 L 55.62 67.95 L 54.96 69.62 L 54.30 71.30 L 53.63 72.97 L 52.97 74.65 L 52.31 76.32 L 51.64 77.99 L 50.98 79.67 L 50.32 81.34 L 49.66 83.01 L 48.99 84.69 L 48.33 86.36 L 47.67 88.03 L 47.01 89.71 L 46.34 91.38 L 45.68 93.06 L 45.02 94.73 L 44.36 96.40 L 43.69 98.08 L 43.03 99.75 L 42.37 101.42 L 41.71 103.10 L 41.04 104.77 L 40.38 106.44 L 39.72 108.12 L 39.05 109.79 L 38.39 111.46 L 37.73 113.14 L 37.07 114.81 L 36.40 116.49 L 35.74 118.16 L 35.08 119.83 L 34.42 121.51 L 33.75 123.18 L 33.09 124.85 L 32.43 126.53 L 31.77 128.20 L 31.13 129.80 L 30.73 131.56 L 30.33 133.31 L 29.93 135.07 L 29.69 136.13 L 31.40 136.69 L 33.12 137.24 L 34.83 137.79 L 36.54 138.34 L 38.26 138.89 L 39.97 139.44 L 41.69 139.99 L 43.40 140.54 L 45.11 141.09 L 46.83 141.64 L 48.54 142.19 L 50.26 142.74 L 51.97 143.29 L 53.68 143.84 L 55.40 144.39 L 57.11 144.94 L 58.82 145.49 L 60.54 146.04 L 62.25 146.59 L 63.97 147.14 L 65.68 147.69 L 67.39 148.24 L 69.11 148.79 L 70.82 149.34 L 72.54 149.89 L 74.25 150.44 L 75.96 150.99 L 77.68 151.54 L 79.39 152.09 L 81.10 152.64 L 82.82 153.19 L 84.53 153.74 L 86.25 154.29 L 87.96 154.84 L 89.67 155.39 L 91.39 155.94 L 93.10 156.49 L 94.81 157.04 L 96.53 157.59 L 98.24 158.14 L 99.96 158.70 L 101.67 159.25 L 103.38 159.80 L 105.10 160.35 L 106.81 160.90 L 108.53 161.45 L 110.24 162.00 L 111.95 162.55 L 113.67 163.10 L 115.38 163.65 L 117.09 164.20 L 118.81 164.75 L 120.52 165.30 L 122.24 165.85 L 123.95 166.40 L 125.66 166.95 L 127.38 167.50 L 129.09 168.05 L 130.81 168.60 L 132.52 169.15 L 134.23 169.70 L 135.95 170.25 L 136.13 170.31 L 136.69 168.60 L 137.24 166.88 L 137.79 165.17 L 138.34 163.46 L 138.89 161.74 L 139.44 160.03 L 139.99 158.31 L 140.54 156.60 L 141.09 154.89 L 141.64 153.17 L 142.19 151.46 L 142.74 149.74 L 143.29 148.03 L 143.84 146.32 L 144.39 144.60 L 144.94 142.89 L 145.49 141.18 L 146.04 139.46 L 146.59 137.75 L 147.14 136.03 L 147.69 134.32 L 148.24 132.61 L 148.79 130.89 L 149.34 129.18 L 149.89 127.46 L 150.44 125.75 L 150.99 124.04 L 151.54 122.32 L 152.09 120.61 L 152.64 118.90 L 153.19 117.18 L 153.74 115.47 L 154.29 113.75 L 154.84 112.04 L 155.39 110.33 L 155.94 108.61 L 156.49 106.90 L 157.04 105.18 L 157.59 103.47 L 158.14 101.76 L 158.70 100.04 L 159.25 98.33 L 159.80 96.62 L 160.35 94.90 L 160.90 93.19 L 161.45 91.47 L 162.00 89.76 L 162.55 88.05 L 163.10 86.33 L 163.65 84.62 L 164.20 82.91 L 164.75 81.19 L 165.30 79.48 L 165.85 77.76 L 166.40 76.05 L 166.95 74.34 L 167.50 72.62 L 168.05 70.91 L 168.60 69.19 L 169.15 67.48 L 169.70 65.77 L 170.25 64.05 L 170.31 63.86 L 168.60 63.31 L 166.88 62.76 L 165.17 62.21 L 163.46 61.66 L 161.74 61.11 L 160.03 60.56 L 158.31 60.01 L 156.60 59.46 L 154.89 58.91 L 153.17 58.36 L 151.46 57.81 L 149.74 57.26 L 148.03 56.71 L 146.32 56.16 L 144.60 55.61 L 142.89 55.06 L 141.18 54.51 L 139.46 53.96 L 137.75 53.41 L 136.03 52.86 L 134.32 52.31 L 132.61 51.76 L 130.89 51.21 L 129.18 50.66 L 127.46 50.11 L 125.75 49.56 L 124.04 49.01 L 122.32 48.46 L 120.61 47.91 L 118.90 47.36 L 117.18 46.81 L 115.47 46.26 L 113.75 45.71 L 112.04 45.16 L 110.33 44.61 L 108.61 44.06 L 106.90 43.51 L 105.19 42.96 L 103.47 42.41 L 101.76 41.86 L 100.04 41.30 L 98.33 40.75 L 96.62 40.20 L 94.90 39.65 L 93.19 39.10 L 91.47 38.55 L 89.76 38.00 L 88.05 37.45 L 86.33 36.90 L 84.62 36.35 L 82.90 35.80 L 81.19 35.25 L 79.48 34.70 L 77.76 34.15 L 76.05 33.60 L 74.34 33.05 L 72.62 32.50 L 70.91 31.95 L 69.19 31.40 L 67.48 30.85 L 65.77 30.30 L 64.05 29.75 L 63.87 29.69 L 63.31 31.40 L 62.76 33.12 L 62.21 34.83 L 61.66 36.54 L 61.11 38.26 L 60.56 39.97 L 60.01 41.69 L 59.46 43.40 L 58.91 45.11 L 58.36 46.83 L 57.81 48.54 L 57.26 50.26 L 56.71 51.97 L 56.16 53.68 L 55.61 55.40 L 55.06 57.11 L 54.51 58.82 L 53.96 60.54 L 53.41 62.25 L 52.86 63.97 L 52.31 65.68 L 51.76 67.39 L 51.21 69.11 L 50.66 70.82 L 50.11 72.54 L 49.56 74.25 L 49.01 75.96 L 48.46 77.68 L 47.91 79.39 L 47.36 81.10 L 46.81 82.82 L 46.26 84.53 L 45.71 86.25 L 45.16 87.96 L 44.61 89.67 L 44.06 91.39 L 43.51 93.10 L 42.96 94.81 L 42.41 96.53 L 41.86 98.24 L 41.30 99.96 L 40.75 101.67 L 40.20 103.38 L 39.65 105.10 L 39.10 106.81 L 38.55 108.53 L 38.00 110.24 L 37.45 111.95 L 36.90 113.67 L 36.35 115.38 L 35.80 117.09 L 35.25 118.81 L 34.70 120.52 L 34.15 122.24 L 33.60 123.95 L 33.05 125.66 L 32.50 127.38 L 31.95 129.09 L 31.40 130.81 L 30.85 132.52 L 30.30 134.23 L 29.75 135.95 L 29.69 136.13 L 29.25 137.88 L 28.81 139.63 L 28.37 141.37 L 27.93 143.12 L 27.88 143.33 L 29.63 143.77 L 31.37 144.20 L 33.12 144.64 L 34.87 145.08 L 36.61 145.51 L 38.36 145.95 L 40.11 146.38 L 41.85 146.82 L 43.60 147.25 L 45.34 147.69 L 47.09 148.12 L 48.84 148.56 L 50.58 149.00 L 52.33 149.43 L 54.08 149.87 L 55.82 150.30 L 57.57 150.74 L 59.32 151.17 L 61.06 151.61 L 62.81 152.04 L 64.56 152.48 L 66.30 152.91 L 68.05 153.35 L 69.80 153.79 L 71.54 154.22 L 73.29 154.66 L 75.04 155.09 L 76.78 155.53 L 78.53 155.96 L 80.28 156.40 L 82.02 156.83 L 83.77 157.27 L 85.51 157.70 L 87.26 158.14 L 89.01 158.58 L 90.75 159.01 L 92.50 159.45 L 94.25 159.88 L 95.99 160.32 L 97.74 160.75 L 99.49 161.19 L 101.23 161.62 L 102.98 162.06 L 104.73 162.49 L 106.47 162.93 L 108.22 163.37 L 109.97 163.80 L 111.71 164.24 L 113.46 164.67 L 115.21 165.11 L 116.95 165.54 L 118.70 165.98 L 120.45 166.41 L 122.19 166.85 L 123.94 167.28 L 125.68 167.72 L 127.43 168.16 L 129.18 168.59 L 130.92 169.03 L 132.67 169.46 L 134.42 169.90 L 136.16 170.33 L 137.91 170.77 L 139.66 171.20 L 141.40 171.64 L 143.15 172.07 L 143.33 172.12 L 143.77 170.37 L 144.20 168.63 L 144.64 166.88 L 145.08 165.13 L 145.51 163.39 L 145.95 161.64 L 146.38 159.89 L 146.82 158.15 L 147.25 156.40 L 147.69 154.65 L 148.12 152.91 L 148.56 151.16 L 149.00 149.42 L 149.43 147.67 L 149.87 145.92 L 150.30 144.18 L 150.74 142.43 L 151.17 140.68 L 151.61 138.94 L 152.04 137.19 L 152.48 135.44 L 152.91 133.70 L 153.35 131.95 L 153.79 130.20 L 154.22 128.46 L 154.66 126.71 L 155.09 124.96 L 155.53 123.22 L 155.96 121.47 L 156.40 119.72 L 156.83 117.98 L 157.27 116.23 L 157.70 114.48 L 158.14 112.74 L 158.58 110.99 L 159.01 109.25 L 159.45 107.50 L 159.88 105.75 L 160.32 104.01 L 160.75 102.26 L 161.19 100.51 L 161.62 98.77 L 162.06 97.02 L 162.49 95.27 L 162.93 93.53 L 163.37 91.78 L 163.80 90.03 L 164.24 88.29 L 164.67 86.54 L 165.11 84.79 L 165.54 83.05 L 165.98 81.30 L 166.41 79.55 L 166.85 77.81 L 167.28 76.06 L 167.72 74.31 L 168.16 72.57 L 168.59 70.82 L 169.03 69.08 L 169.46 67.33 L 169.90 65.58 L 170.33 63.84 L 170.77 62.09 L 171.20 60.34 L 171.64 58.60 L 172.07 56.85 L 172.12 56.67 L 170.37 56.23 L 168.63 55.79 L 166.88 55.36 L 165.13 54.92 L 163.39 54.49 L 161.64 54.05 L 159.89 53.62 L 158.15 53.18 L 156.40 52.75 L 154.66 52.31 L 152.91 51.88 L 151.16 51.44 L 149.42 51.00 L 147.67 50.57 L 145.92 50.13 L 144.18 49.70 L 142.43 49.26 L 140.68 48.83 L 138.94 48.39 L 137.19 47.96 L 135.44 47.52 L 133.70 47.09 L 131.95 46.65 L 130.20 46.21 L 128.46 45.78 L 126.71 45.34 L 124.96 44.91 L 123.22 44.47 L 121.47 44.04 L 119.72 43.60 L 117.98 43.17 L 116.23 42.73 L 114.49 42.30 L 112.74 41.86 L 110.99 41.42 L 109.25 40.99 L 107.50 40.55 L 105.75 40.12 L 104.01 39.68 L 102.26 39.25 L 100.51 38.81 L 98.77 38.38 L 97.02 37.94 L 95.27 37.51 L 93.53 37.07 L 91.78 36.63 L 90.03 36.20 L 88.29 35.76 L 86.54 35.33 L 84.79 34.89 L 83.05 34.46 L 81.30 34.02 L 79.55 33.59 L 77.81 33.15 L 76.06 32.72 L 74.31 32.28 L 72.57 31.84 L 70.82 31.41 L 69.08 30.97 L 67.33 30.54 L 65.58 30.10 L 63.84 29.67 L 62.09 29.23 L 60.34 28.80 L 58.60 28.36 L 56.85 27.93 L 56.67 27.88 L 56.23 29.63 L 55.80 31.37 L 55.36 33.12 L 54.92 34.87 L 54.49 36.61 L 54.05 38.36 L 53.62 40.11 L 53.18 41.85 L 52.75 43.60 L 52.31 45.34 L 51.88 47.09 L 51.44 48.84 L 51.00 50.58 L 50.57 52.33 L 50.13 54.08 L 49.70 55.82 L 49.26 57.57 L 48.83 59.32 L 48.39 61.06 L 47.96 62.81 L 47.52 64.56 L 47.09 66.30 L 46.65 68.05 L 46.21 69.80 L 45.78 71.54 L 45.34 73.29 L 44.91 75.04 L 44.47 76.78 L 44.04 78.53 L 43.60 80.28 L 43.17 82.02 L 42.73 83.77 L 42.30 85.51 L 41.86 87.26 L 41.42 89.01 L 40.99 90.75 L 40.55 92.50 L 40.12 94.25 L 39.68 95.99 L 39.25 97.74 L 38.81 99.49 L 38.38 101.23 L 37.94 102.98 L 37.51 104.73 L 37.07 106.47 L 36.63 108.22 L 36.20 109.97 L 35.76 111.71 L 35.33 113.46 L 34.89 115.21 L 34.46 116.95 L 34.02 118.70 L 33.59 120.45 L 33.15 122.19 L 32.72 123.94 L 32.28 125.68 L 31.84 127.43 L 31.41 129.18 L 30.97 130.92 L 30.54 132.67 L 30.10 134.42 L 29.67 136.16 L 29.23 137.91 L 28.80 139.66 L 28.36 141.40 L 27.93 143.15 L 27.88 143.33 L 27.47 145.09 L 27.06 146.84 L 26.65 148.59 L 26.25 150.35 L 26.25 150.35 L 25.67 150.74 L 26.17 151.47 L 27.94 151.79 L 29.71 152.10 L 31.48 152.42 L 33.25 152.74 L 35.03 153.06 L 36.80 153.38 L 38.57 153.70 L 40.34 154.02 L 42.11 154.34 L 43.88 154.65 L 45.66 154.97 L 47.43 155.29 L 49.20 155.61 L 50.97 155.93 L 52.74 156.25 L 54.51 156.57 L 56.28 156.89 L 58.06 157.21 L 59.83 157.52 L 61.60 157.84 L 63.37 158.16 L 65.14 158.48 L 66.91 158.80 L 68.69 159.12 L 70.46 159.44 L 72.23 159.76 L 74.00 160.07 L 75.77 160.39 L 77.54 160.71 L 79.32 161.03 L 81.09 161.35 L 82.86 161.67 L 84.63 161.99 L 86.40 162.31 L 88.17 162.62 L 89.94 162.94 L 91.72 163.26 L 93.49 163.58 L 95.26 163.90 L 97.03 164.22 L 98.80 164.54 L 100.57 164.86 L 102.35 165.17 L 104.12 165.49 L 105.89 165.81 L 107.66 166.13 L 109.43 166.45 L 111.20 166.77 L 112.97 167.09 L 114.75 167.41 L 116.52 167.72 L 118.29 168.04 L 120.06 168.36 L 121.83 168.68 L 123.60 169.00 L 125.38 169.32 L 127.15 169.64 L 128.92 169.96 L 130.69 170.27 L 132.46 170.59 L 134.23 170.91 L 136.00 171.23 L 137.78 171.55 L 139.55 171.87 L 141.32 172.19 L 143.09 172.51 L 144.86 172.82 L 146.63 173.14 L 148.41 173.46 L 150.18 173.78 L 150.61 174.42 L 151.47 173.83 L 151.79 172.06 L 152.11 170.29 L 152.42 168.52 L 152.74 166.75 L 153.06 164.97 L 153.38 163.20 L 153.70 161.43 L 154.02 159.66 L 154.34 157.89 L 154.65 156.12 L 154.97 154.34 L 155.29 152.57 L 155.61 150.80 L 155.93 149.03 L 156.25 147.26 L 156.57 145.49 L 156.89 143.71 L 157.20 141.94 L 157.52 140.17 L 157.84 138.40 L 158.16 136.63 L 158.48 134.86 L 158.80 133.09 L 159.12 131.31 L 159.44 129.54 L 159.75 127.77 L 160.07 126.00 L 160.39 124.23 L 160.71 122.46 L 161.03 120.69 L 161.35 118.91 L 161.67 117.14 L 161.99 115.37 L 162.30 113.60 L 162.62 111.83 L 162.94 110.06 L 163.26 108.28 L 163.58 106.51 L 163.90 104.74 L 164.22 102.97 L 164.54 101.20 L 164.85 99.43 L 165.17 97.65 L 165.49 95.88 L 165.81 94.11 L 166.13 92.34 L 166.45 90.57 L 166.77 88.80 L 167.09 87.03 L 167.40 85.25 L 167.72 83.48 L 168.04 81.71 L 168.36 79.94 L 168.68 78.17 L 169.00 76.40 L 169.32 74.62 L 169.64 72.85 L 169.95 71.08 L 170.27 69.31 L 170.59 67.54 L 170.91 65.77 L 171.23 64.00 L 171.55 62.22 L 171.87 60.45 L 172.19 58.68 L 172.50 56.91 L 172.82 55.14 L 173.14 53.37 L 173.46 51.59 L 173.78 49.82 L 174.42 49.39 L 173.83 48.53 L 172.06 48.21 L 170.29 47.90 L 168.52 47.58 L 166.75 47.26 L 164.97 46.94 L 163.20 46.62 L 161.43 46.30 L 159.66 45.98 L 157.89 45.66 L 156.12 45.35 L 154.34 45.03 L 152.57 44.71 L 150.80 44.39 L 149.03 44.07 L 147.26 43.75 L 145.49 43.43 L 143.72 43.11 L 141.94 42.79 L 140.17 42.48 L 138.40 42.16 L 136.63 41.84 L 134.86 41.52 L 133.09 41.20 L 131.31 40.88 L 129.54 40.56 L 127.77 40.25 L 126.00 39.93 L 124.23 39.61 L 122.46 39.29 L 120.68 38.97 L 118.91 38.65 L 117.14 38.33 L 115.37 38.01 L 113.60 37.70 L 111.83 37.38 L 110.06 37.06 L 108.28 36.74 L 106.51 36.42 L 104.74 36.10 L 102.97 35.78 L 101.20 35.46 L 99.43 35.15 L 97.65 34.83 L 95.88 34.51 L 94.11 34.19 L 92.34 33.87 L 90.57 33.55 L 88.80 33.23 L 87.03 32.91 L 85.25 32.60 L 83.48 32.28 L 81.71 31.96 L 79.94 31.64 L 78.17 31.32 L 76.40 31.00 L 74.62 30.68 L 72.85 30.36 L 71.08 30.05 L 69.31 29.73 L 67.54 29.41 L 65.77 29.09 L 64.00 28.77 L 62.22 28.45 L 60.45 28.13 L 58.68 27.81 L 56.91 27.50 L 55.14 27.18 L 53.37 26.86 L 51.59 26.54 L 49.82 26.22 L 49.39 25.58 L 48.53 26.17 L 48.21 27.94 L 47.90 29.71 L 47.58 31.48 L 47.26 33.25 L 46.94 35.03 L 46.62 36.80 L 46.30 38.57 L 45.98 40.34 L 45.66 42.11 L 45.35 43.88 L 45.03 45.66 L 44.71 47.43 L 44.39 49.20 L 44.07 50.97 L 43.75 52.74 L 43.43 54.51 L 43.11 56.29 L 42.80 58.06 L 42.48 59.83 L 42.16 61.60 L 41.84 63.37 L 41.52 65.14 L 41.20 66.91 L 40.88 68.69 L 40.56 70.46 L 40.24 72.23 L 39.93 74.00 L 39.61 75.77 L 39.29 77.54 L 38.97 79.32 L 38.65 81.09 L 38.33 82.86 L 38.01 84.63 L 37.69 86.40 L 37.38 88.17 L 37.06 89.94 L 36.74 91.72 L 36.42 93.49 L 36.10 95.26 L 35.78 97.03 L 35.46 98.80 L 35.14 100.57 L 34.83 102.35 L 34.51 104.12 L 34.19 105.89 L 33.87 107.66 L 33.55 109.43 L 33.23 111.20 L 32.91 112.97 L 32.59 114.75 L 32.28 116.52 L 31.96 118.29 L 31.64 120.06 L 31.32 121.83 L 31.00 123.60 L 30.68 125.38 L 30.36 127.15 L 30.04 128.92 L 29.73 130.69 L 29.41 132.46 L 29.09 134.23 L 28.77 136.00 L 28.45 137.78 L 28.13 139.55 L 27.81 141.32 L 27.50 143.09 L 27.18 144.86 L 26.86 146.63 L 26.54 148.41 L 26.22 150.18 L 25.58 150.61 L 26.63 152.08 L 27.68 153.54 L 28.15 154.20 L 29.27 155.61 L 30.39 157.02 L 30.90 157.66 L 32.09 159.02 L 33.27 160.37 L 33.81 160.98 L 34.17 161.37 L 35.96 161.57 L 37.74 161.77 L 39.53 161.97 L 41.32 162.17 L 43.11 162.37 L 44.90 162.57 L 46.69 162.77 L 48.48 162.97 L 50.27 163.17 L 52.05 163.37 L 53.84 163.58 L 55.63 163.78 L 57.42 163.98 L 59.21 164.18 L 61.00 164.38 L 62.79 164.58 L 64.58 164.78 L 66.37 164.98 L 68.15 165.18 L 69.94 165.38 L 71.73 165.58 L 73.52 165.78 L 75.31 165.98 L 77.10 166.18 L 78.89 166.38 L 80.67 166.58 L 82.46 166.79 L 84.25 166.99 L 86.04 167.19 L 87.83 167.39 L 89.62 167.59 L 91.41 167.79 L 93.20 167.99 L 94.99 168.19 L 96.77 168.39 L 98.56 168.59 L 100.35 168.79 L 102.14 168.99 L 103.93 169.19 L 105.72 169.39 L 107.51 169.59 L 109.30 169.80 L 111.08 170.00 L 112.87 170.20 L 114.66 170.40 L 116.45 170.60 L 118.24 170.80 L 120.03 171.00 L 121.82 171.20 L 123.61 171.40 L 125.39 171.60 L 127.18 171.80 L 128.97 172.00 L 130.76 172.20 L 132.55 172.40 L 134.34 172.60 L 136.13 172.80 L 137.92 173.01 L 139.70 173.21 L 141.49 173.41 L 143.28 173.61 L 145.07 173.81 L 146.86 174.01 L 148.65 174.21 L 150.44 174.41 L 150.60 174.43 L 152.06 173.38 L 153.53 172.33 L 154.19 171.86 L 155.60 170.74 L 157.01 169.62 L 157.65 169.11 L 159.01 167.92 L 160.36 166.74 L 160.97 166.20 L 161.37 165.83 L 161.57 164.04 L 161.77 162.26 L 161.97 160.47 L 162.17 158.68 L 162.37 156.89 L 162.57 155.10 L 162.77 153.31 L 162.97 151.52 L 163.17 149.73 L 163.37 147.94 L 163.58 146.16 L 163.78 144.37 L 163.98 142.58 L 164.18 140.79 L 164.38 139.00 L 164.58 137.21 L 164.78 135.42 L 164.98 133.64 L 165.18 131.85 L 165.38 130.06 L 165.58 128.27 L 165.78 126.48 L 165.98 124.69 L 166.18 122.90 L 166.38 121.11 L 166.58 119.32 L 166.79 117.54 L 166.99 115.75 L 167.19 113.96 L 167.39 112.17 L 167.59 110.38 L 167.79 108.59 L 167.99 106.80 L 168.19 105.01 L 168.39 103.23 L 168.59 101.44 L 168.79 99.65 L 168.99 97.86 L 169.19 96.07 L 169.39 94.28 L 169.59 92.49 L 169.80 90.70 L 170.00 88.92 L 170.20 87.13 L 170.40 85.34 L 170.60 83.55 L 170.80 81.76 L 171.00 79.97 L 171.20 78.18 L 171.40 76.39 L 171.60 74.61 L 171.80 72.82 L 172.00 71.03 L 172.20 69.24 L 172.40 67.45 L 172.60 65.66 L 172.80 63.87 L 173.01 62.08 L 173.21 60.29 L 173.41 58.51 L 173.61 56.72 L 173.81 54.93 L 174.01 53.14 L 174.21 51.35 L 174.41 49.56 L 174.43 49.40 L 173.38 47.94 L 172.33 46.47 L 171.86 45.81 L 170.74 44.40 L 169.62 42.99 L 169.11 42.35 L 167.92 40.99 L 166.74 39.64 L 166.20 39.03 L 165.83 38.63 L 164.04 38.43 L 162.26 38.23 L 160.47 38.03 L 158.68 37.83 L 156.89 37.63 L 155.10 37.43 L 153.31 37.23 L 151.52 37.03 L 149.73 36.83 L 147.95 36.63 L 146.16 36.42 L 144.37 36.22 L 142.58 36.02 L 140.79 35.82 L 139.00 35.62 L 137.21 35.42 L 135.42 35.22 L 133.64 35.02 L 131.85 34.82 L 130.06 34.62 L 128.27 34.42 L 126.48 34.22 L 124.69 34.02 L 122.90 33.82 L 121.11 33.62 L 119.32 33.42 L 117.54 33.21 L 115.75 33.01 L 113.96 32.81 L 112.17 32.61 L 110.38 32.41 L 108.59 32.21 L 106.80 32.01 L 105.01 31.81 L 103.23 31.61 L 101.44 31.41 L 99.65 31.21 L 97.86 31.01 L 96.07 30.81 L 94.28 30.61 L 92.49 30.41 L 90.70 30.20 L 88.92 30.00 L 87.13 29.80 L 85.34 29.60 L 83.55 29.40 L 81.76 29.20 L 79.97 29.00 L 78.18 28.80 L 76.39 28.60 L 74.61 28.40 L 72.82 28.20 L 71.03 28.00 L 69.24 27.80 L 67.45 27.60 L 65.66 27.40 L 63.87 27.20 L 62.08 26.99 L 60.30 26.79 L 58.51 26.59 L 56.72 26.39 L 54.93 26.19 L 53.14 25.99 L 51.35 25.79 L 49.56 25.59 L 49.40 25.57 L 47.94 26.62 L 46.47 27.67 L 45.81 28.14 L 44.40 29.26 L 42.99 30.38 L 42.35 30.89 L 40.99 32.08 L 39.64 33.26 L 39.03 33.80 L 38.63 34.17 L 38.43 35.96 L 38.23 37.74 L 38.03 39.53 L 37.83 41.32 L 37.63 43.11 L 37.43 44.90 L 37.23 46.69 L 37.03 48.48 L 36.83 50.27 L 36.63 52.05 L 36.42 53.84 L 36.22 55.63 L 36.02 57.42 L 35.82 59.21 L 35.62 61.00 L 35.42 62.79 L 35.22 64.58 L 35.02 66.36 L 34.82 68.15 L 34.62 69.94 L 34.42 71.73 L 34.22 73.52 L 34.02 75.31 L 33.82 77.10 L 33.62 78.89 L 33.42 80.67 L 33.21 82.46 L 33.01 84.25 L 32.81 86.04 L 32.61 87.83 L 32.41 89.62 L 32.21 91.41 L 32.01 93.20 L 31.81 94.99 L 31.61 96.77 L 31.41 98.56 L 31.21 100.35 L 31.01 102.14 L 30.81 103.93 L 30.61 105.72 L 30.41 107.51 L 30.20 109.30 L 30.00 111.08 L 29.80 112.87 L 29.60 114.66 L 29.40 116.45 L 29.20 118.24 L 29.00 120.03 L 28.80 121.82 L 28.60 123.61 L 28.40 125.39 L 28.20 127.18 L 28.00 128.97 L 27.80 130.76 L 27.60 132.55 L 27.40 134.34 L 27.20 136.13 L 26.99 137.92 L 26.79 139.71 L 26.59 141.49 L 26.39 143.28 L 26.19 145.07 L 25.99 146.86 L 25.79 148.65 L 25.59 150.44 L 25.57 150.60 L 26.62 152.06 L 27.67 153.53 L 28.14 154.19 L 29.26 155.60 L 30.38 157.01 L 30.89 157.65 L 32.08 159.01 L 33.26 160.36 L 33.80 160.97 L 35.05 162.27 L 36.31 163.56 L 36.87 164.15 L 38.19 165.38 L 39.50 166.61 L 40.10 167.17 L 41.47 168.33 L 42.84 169.50 L 43.47 170.03 L 43.99 170.45 L 45.79 170.53 L 47.59 170.61 L 49.38 170.69 L 51.18 170.77 L 52.98 170.86 L 54.78 170.94 L 56.58 171.02 L 58.37 171.10 L 60.17 171.18 L 61.97 171.26 L 63.77 171.35 L 65.57 171.43 L 67.37 171.51 L 69.16 171.59 L 70.96 171.67 L 72.76 171.75 L 74.56 171.84 L 76.36 171.92 L 78.15 172.00 L 79.95 172.08 L 81.75 172.16 L 83.55 172.24 L 85.35 172.33 L 87.14 172.41 L 88.94 172.49 L 90.74 172.57 L 92.54 172.65 L 94.34 172.73 L 96.14 172.82 L 97.93 172.90 L 99.73 172.98 L 101.53 173.06 L 103.33 173.14 L 105.13 173.22 L 106.92 173.31 L 108.72 173.39 L 110.52 173.47 L 112.32 173.55 L 114.12 173.63 L 115.92 173.71 L 117.71 173.80 L 119.51 173.88 L 121.31 173.96 L 123.11 174.04 L 124.91 174.12 L 126.70 174.20 L 128.50 174.29 L 130.30 174.37 L 132.10 174.45 L 133.90 174.53 L 135.69 174.61 L 137.49 174.69 L 139.29 174.77 L 141.09 174.86 L 142.89 174.94 L 144.69 175.02 L 146.48 175.10 L 148.28 175.18 L 148.28 175.18 L 148.63 175.73 L 150.12 174.72 L 151.61 173.71 L 152.29 173.25 L 153.73 172.17 L 155.17 171.09 L 155.82 170.60 L 157.21 169.45 L 158.59 168.30 L 159.22 167.77 L 160.54 166.56 L 161.87 165.34 L 162.47 164.79 L 163.74 163.51 L 165.00 162.23 L 165.58 161.64 L 166.78 160.30 L 167.98 158.96 L 168.52 158.35 L 169.66 156.96 L 170.45 156.01 L 170.53 154.21 L 170.61 152.41 L 170.69 150.62 L 170.77 148.82 L 170.86 147.02 L 170.94 145.22 L 171.02 143.42 L 171.10 141.63 L 171.18 139.83 L 171.26 138.03 L 171.35 136.23 L 171.43 134.43 L 171.51 132.64 L 171.59 130.84 L 171.67 129.04 L 171.75 127.24 L 171.84 125.44 L 171.92 123.64 L 172.00 121.85 L 172.08 120.05 L 172.16 118.25 L 172.24 116.45 L 172.33 114.65 L 172.41 112.85 L 172.49 111.06 L 172.57 109.26 L 172.65 107.46 L 172.73 105.66 L 172.82 103.86 L 172.90 102.07 L 172.98 100.27 L 173.06 98.47 L 173.14 96.67 L 173.22 94.87 L 173.31 93.08 L 173.39 91.28 L 173.47 89.48 L 173.55 87.68 L 173.63 85.88 L 173.71 84.08 L 173.80 82.29 L 173.88 80.49 L 173.96 78.69 L 174.04 76.89 L 174.12 75.09 L 174.20 73.30 L 174.29 71.50 L 174.37 69.70 L 174.45 67.90 L 174.53 66.10 L 174.61 64.30 L 174.69 62.51 L 174.78 60.71 L 174.86 58.91 L 174.94 57.11 L 175.02 55.31 L 175.10 53.52 L 175.18 51.72 L 175.18 51.72 L 175.73 51.37 L 174.72 49.88 L 173.71 48.39 L 173.25 47.71 L 172.17 46.27 L 171.09 44.83 L 170.60 44.18 L 169.45 42.80 L 168.30 41.41 L 167.77 40.78 L 166.56 39.46 L 165.34 38.13 L 164.79 37.53 L 163.51 36.26 L 162.22 35.00 L 161.64 34.42 L 160.30 33.22 L 158.96 32.02 L 158.35 31.48 L 156.96 30.33 L 156.01 29.55 L 154.21 29.47 L 152.41 29.39 L 150.62 29.31 L 148.82 29.23 L 147.02 29.14 L 145.22 29.06 L 143.42 28.98 L 141.63 28.90 L 139.83 28.82 L 138.03 28.74 L 136.23 28.65 L 134.43 28.57 L 132.63 28.49 L 130.84 28.41 L 129.04 28.33 L 127.24 28.25 L 125.44 28.16 L 123.64 28.08 L 121.85 28.00 L 120.05 27.92 L 118.25 27.84 L 116.45 27.76 L 114.65 27.67 L 112.86 27.59 L 111.06 27.51 L 109.26 27.43 L 107.46 27.35 L 105.66 27.27 L 103.86 27.18 L 102.07 27.10 L 100.27 27.02 L 98.47 26.94 L 96.67 26.86 L 94.87 26.78 L 93.08 26.69 L 91.28 26.61 L 89.48 26.53 L 87.68 26.45 L 85.88 26.37 L 84.09 26.29 L 82.29 26.20 L 80.49 26.12 L 78.69 26.04 L 76.89 25.96 L 75.09 25.88 L 73.30 25.80 L 71.50 25.72 L 69.70 25.63 L 67.90 25.55 L 66.10 25.47 L 64.30 25.39 L 62.51 25.31 L 60.71 25.23 L 58.91 25.14 L 57.11 25.06 L 55.31 24.98 L 53.52 24.90 L 51.72 24.82 L 51.72 24.82 L 51.37 24.27 L 49.88 25.28 L 48.39 26.29 L 47.71 26.75 L 46.27 27.83 L 44.83 28.91 L 44.18 29.40 L 42.79 30.55 L 41.41 31.70 L 40.78 32.23 L 39.46 33.44 L 38.13 34.66 L 37.53 35.21 L 36.26 36.49 L 35.00 37.78 L 34.42 38.36 L 33.22 39.70 L 32.02 41.04 L 31.48 41.65 L 30.33 43.04 L 29.55 43.99 L 29.47 45.79 L 29.39 47.59 L 29.31 49.38 L 29.23 51.18 L 29.14 52.98 L 29.06 54.78 L 28.98 56.58 L 28.90 58.37 L 28.82 60.17 L 28.74 61.97 L 28.65 63.77 L 28.57 65.57 L 28.49 67.37 L 28.41 69.16 L 28.33 70.96 L 28.25 72.76 L 28.16 74.56 L 28.08 76.36 L 28.00 78.15 L 27.92 79.95 L 27.84 81.75 L 27.76 83.55 L 27.67 85.35 L 27.59 87.15 L 27.51 88.94 L 27.43 90.74 L 27.35 92.54 L 27.27 94.34 L 27.18 96.14 L 27.10 97.93 L 27.02 99.73 L 26.94 101.53 L 26.86 103.33 L 26.78 105.13 L 26.69 106.92 L 26.61 108.72 L 26.53 110.52 L 26.45 112.32 L 26.37 114.12 L 26.29 115.92 L 26.20 117.71 L 26.12 119.51 L 26.04 121.31 L 25.96 123.11 L 25.88 124.91 L 25.80 126.70 L 25.71 128.50 L 25.63 130.30 L 25.55 132.10 L 25.47 133.90 L 25.39 135.69 L 25.31 137.49 L 25.22 139.29 L 25.14 141.09 L 25.06 142.89 L 24.98 144.69 L 24.90 146.48 L 24.82 148.28 L 24.82 148.28 L 24.27 148.63 L 25.28 150.12 L 26.29 151.61 L 26.75 152.29 L 27.83 153.73 L 28.91 155.17 L 29.40 155.82 L 30.55 157.20 L 31.70 158.59 L 32.23 159.22 L 33.44 160.54 L 34.66 161.87 L 35.21 162.47 L 36.49 163.74 L 37.77 165.00 L 38.36 165.58 L 39.70 166.78 L 41.04 167.98 L 41.65 168.52 L 43.05 169.65 L 44.45 170.79 L 45.08 171.30 L 46.53 172.37 L 47.99 173.43 L 48.65 173.91 L 50.15 174.90 L 51.65 175.89 L 52.33 176.34 L 53.88 177.27 L 55.26 178.09 L 57.06 178.06 L 58.86 178.02 L 60.66 177.98 L 62.46 177.94 L 64.26 177.91 L 66.06 177.87 L 67.86 177.83 L 69.66 177.79 L 71.46 177.75 L 73.26 177.72 L 75.06 177.68 L 76.86 177.64 L 78.66 177.60 L 80.46 177.57 L 82.26 177.53 L 84.06 177.49 L 85.86 177.45 L 87.66 177.42 L 89.46 177.38 L 91.26 177.34 L 93.06 177.30 L 94.85 177.26 L 96.65 177.23 L 98.45 177.19 L 100.25 177.15 L 102.05 177.11 L 103.85 177.08 L 105.65 177.04 L 107.45 177.00 L 109.25 176.96 L 111.05 176.93 L 112.85 176.89 L 114.65 176.85 L 116.45 176.81 L 118.25 176.77 L 120.05 176.74 L 121.85 176.70 L 123.65 176.66 L 125.45 176.62 L 127.25 176.59 L 129.05 176.55 L 130.85 176.51 L 132.65 176.47 L 134.45 176.44 L 136.25 176.40 L 138.05 176.36 L 139.84 176.32 L 141.64 176.29 L 143.44 176.25 L 145.24 176.21 L 147.04 176.17 L 147.97 176.15 L 149.47 175.16 L 150.96 174.16 L 151.65 173.71 L 153.09 172.64 L 154.54 171.57 L 155.20 171.08 L 156.59 169.95 L 157.99 168.81 L 158.62 168.29 L 159.96 167.08 L 161.29 165.88 L 161.90 165.33 L 163.18 164.06 L 164.45 162.79 L 165.03 162.22 L 166.24 160.88 L 167.46 159.55 L 168.01 158.95 L 169.15 157.56 L 170.30 156.17 L 170.82 155.54 L 171.89 154.10 L 172.97 152.65 L 173.46 152.00 L 174.46 150.50 L 175.47 149.01 L 175.92 148.33 L 176.85 146.79 L 177.78 145.25 L 178.09 144.74 L 178.06 142.94 L 178.02 141.14 L 177.98 139.34 L 177.94 137.54 L 177.91 135.74 L 177.87 133.94 L 177.83 132.14 L 177.79 130.34 L 177.75 128.54 L 177.72 126.74 L 177.68 124.94 L 177.64 123.14 L 177.60 121.34 L 177.57 119.54 L 177.53 117.74 L 177.49 115.94 L 177.45 114.14 L 177.42 112.34 L 177.38 110.54 L 177.34 108.74 L 177.30 106.94 L 177.26 105.14 L 177.23 103.35 L 177.19 101.55 L 177.15 99.75 L 177.11 97.95 L 177.08 96.15 L 177.04 94.35 L 177.00 92.55 L 176.96 90.75 L 176.93 88.95 L 176.89 87.15 L 176.85 85.35 L 176.81 83.55 L 176.77 81.75 L 176.74 79.95 L 176.70 78.15 L 176.66 76.35 L 176.62 74.55 L 176.59 72.75 L 176.55 70.95 L 176.51 69.15 L 176.47 67.35 L 176.44 65.55 L 176.40 63.75 L 176.36 61.95 L 176.32 60.15 L 176.29 58.36 L 176.25 56.56 L 176.21 54.76 L 176.17 52.96 L 176.15 52.03 L 175.16 50.53 L 174.16 49.03 L 173.71 48.35 L 172.64 46.91 L 171.57 45.46 L 171.08 44.80 L 169.95 43.41 L 168.81 42.01 L 168.29 41.38 L 167.08 40.04 L 165.88 38.71 L 165.33 38.10 L 164.06 36.82 L 162.79 35.55 L 162.22 34.97 L 160.88 33.76 L 159.55 32.54 L 158.95 31.99 L 157.56 30.85 L 156.17 29.70 L 155.54 29.18 L 154.10 28.11 L 152.65 27.03 L 152.00 26.54 L 150.51 25.54 L 149.01 24.53 L 148.33 24.08 L 146.79 23.15 L 145.25 22.22 L 144.74 21.91 L 142.94 21.94 L 141.14 21.98 L 139.34 22.02 L 137.54 22.06 L 135.74 22.09 L 133.94 22.13 L 132.14 22.17 L 130.34 22.21 L 128.54 22.25 L 126.74 22.28 L 124.94 22.32 L 123.14 22.36 L 121.34 22.40 L 119.54 22.43 L 117.74 22.47 L 115.94 22.51 L 114.14 22.55 L 112.34 22.58 L 110.54 22.62 L 108.74 22.66 L 106.94 22.70 L 105.14 22.74 L 103.35 22.77 L 101.55 22.81 L 99.75 22.85 L 97.95 22.89 L 96.15 22.92 L 94.35 22.96 L 92.55 23.00 L 90.75 23.04 L 88.95 23.07 L 87.15 23.11 L 85.35 23.15 L 83.55 23.19 L 81.75 23.23 L 79.95 23.26 L 78.15 23.30 L 76.35 23.34 L 74.55 23.38 L 72.75 23.41 L 70.95 23.45 L 69.15 23.49 L 67.35 23.53 L 65.55 23.56 L 63.75 23.60 L 61.95 23.64 L 60.15 23.68 L 58.36 23.71 L 56.56 23.75 L 54.76 23.79 L 52.96 23.83 L 52.03 23.85 L 50.53 24.84 L 49.03 25.84 L 48.35 26.29 L 46.91 27.36 L 45.46 28.43 L 44.80 28.92 L 43.41 30.05 L 42.01 31.19 L 41.38 31.71 L 40.04 32.92 L 38.71 34.12 L 38.10 34.67 L 36.82 35.94 L 35.55 37.21 L 34.97 37.79 L 33.75 39.12 L 32.54 40.45 L 31.99 41.05 L 30.85 42.44 L 29.70 43.83 L 29.18 44.46 L 28.11 45.90 L 27.03 47.35 L 26.54 48.00 L 25.54 49.49 L 24.53 50.99 L 24.08 51.67 L 23.15 53.21 L 22.22 54.75 L 21.91 55.26 L 21.94 57.06 L 21.98 58.86 L 22.02 60.66 L 22.06 62.46 L 22.09 64.26 L 22.13 66.06 L 22.17 67.86 L 22.21 69.66 L 22.25 71.46 L 22.28 73.26 L 22.32 75.06 L 22.36 76.86 L 22.40 78.66 L 22.43 80.46 L 22.47 82.26 L 22.51 84.06 L 22.55 85.86 L 22.58 87.66 L 22.62 89.46 L 22.66 91.26 L 22.70 93.06 L 22.74 94.85 L 22.77 96.65 L 22.81 98.45 L 22.85 100.25 L 22.89 102.05 L 22.92 103.85 L 22.96 105.65 L 23.00 107.45 L 23.04 109.25 L 23.07 111.05 L 23.11 112.85 L 23.15 114.65 L 23.19 116.45 L 23.23 118.25 L 23.26 120.05 L 23.30 121.85 L 23.34 123.65 L 23.38 125.45 L 23.41 127.25 L 23.45 129.05 L 23.49 130.85 L 23.53 132.65 L 23.56 134.45 L 23.60 136.25 L 23.64 138.05 L 23.68 139.84 L 23.71 141.64 L 23.75 143.44 L 23.79 145.24 L 23.83 147.04 L 23.85 147.97 L 24.84 149.47 L 25.84 150.97 L 26.29 151.65 L 27.36 153.09 L 28.43 154.54 L 28.92 155.20 L 30.06 156.60 L 31.19 157.99 L 31.71 158.62 L 32.92 159.96 L 34.12 161.29 L 34.67 161.90 L 35.94 163.18 L 37.21 164.45 L 37.78 165.03 L 39.12 166.24 L 40.45 167.46 L 41.05 168.01 L 42.44 169.15 L 43.83 170.30 L 44.46 170.82 L 45.90 171.89 L 47.35 172.97 L 48.00 173.46 L 49.50 174.46 L 50.99 175.47 L 51.67 175.92 L 53.21 176.85 L 54.75 177.78 L 55.45 178.20 L 57.04 179.05 L 58.62 179.91 L 59.34 180.29 L 60.97 181.07 L 62.59 181.84 L 63.33 182.19 L 64.99 182.88 L 66.65 183.58 L 67.39 183.88 L 69.18 183.73 L 70.98 183.57 L 72.77 183.41 L 74.56 183.26 L 76.36 183.10 L 78.15 182.94 L 79.94 182.79 L 81.74 182.63 L 83.53 182.47 L 85.32 182.32 L 87.12 182.16 L 88.91 182.00 L 90.70 181.85 L 92.49 181.69 L 94.29 181.53 L 96.08 181.37 L 97.87 181.22 L 99.67 181.06 L 101.46 180.90 L 103.25 180.75 L 105.05 180.59 L 106.84 180.43 L 108.63 180.28 L 110.43 180.12 L 112.22 179.96 L 114.01 179.81 L 115.81 179.65 L 117.60 179.49 L 119.39 179.33 L 121.18 179.18 L 122.98 179.02 L 124.77 178.86 L 126.56 178.71 L 128.36 178.55 L 130.15 178.39 L 131.94 178.24 L 133.74 178.08 L 135.53 177.92 L 137.32 177.77 L 139.12 177.61 L 140.91 177.45 L 142.70 177.30 L 144.50 177.14 L 146.29 176.98 L 146.38 177.13 L 147.90 176.16 L 149.42 175.20 L 150.11 174.76 L 151.58 173.72 L 153.05 172.68 L 153.71 172.21 L 155.13 171.10 L 156.55 169.99 L 157.19 169.49 L 158.55 168.31 L 159.92 167.13 L 160.53 166.60 L 161.84 165.36 L 163.14 164.11 L 163.73 163.55 L 164.97 162.24 L 166.21 160.94 L 166.77 160.35 L 167.94 158.98 L 169.12 157.62 L 169.65 157.00 L 170.76 155.58 L 171.86 154.16 L 172.36 153.51 L 173.40 152.04 L 174.43 150.56 L 174.90 149.90 L 175.86 148.37 L 176.82 146.85 L 177.26 146.16 L 178.15 144.59 L 179.03 143.03 L 179.43 142.31 L 180.24 140.70 L 181.05 139.10 L 181.41 138.37 L 182.14 136.72 L 182.87 135.07 L 183.20 134.32 L 183.87 132.65 L 183.88 132.61 L 183.73 130.82 L 183.57 129.02 L 183.41 127.23 L 183.26 125.44 L 183.10 123.64 L 182.94 121.85 L 182.79 120.06 L 182.63 118.26 L 182.47 116.47 L 182.32 114.68 L 182.16 112.89 L 182.00 111.09 L 181.85 109.30 L 181.69 107.51 L 181.53 105.71 L 181.37 103.92 L 181.22 102.13 L 181.06 100.33 L 180.90 98.54 L 180.75 96.75 L 180.59 94.95 L 180.43 93.16 L 180.28 91.37 L 180.12 89.57 L 179.96 87.78 L 179.81 85.99 L 179.65 84.19 L 179.49 82.40 L 179.34 80.61 L 179.18 78.82 L 179.02 77.02 L 178.86 75.23 L 178.71 73.44 L 178.55 71.64 L 178.39 69.85 L 178.24 68.06 L 178.08 66.26 L 177.92 64.47 L 177.77 62.68 L 177.61 60.88 L 177.45 59.09 L 177.30 57.30 L 177.14 55.50 L 176.98 53.71 L 177.13 53.62 L 176.16 52.10 L 175.20 50.58 L 174.76 49.89 L 173.72 48.42 L 172.68 46.95 L 172.21 46.29 L 171.10 44.87 L 169.99 43.45 L 169.49 42.81 L 168.31 41.45 L 167.13 40.08 L 166.60 39.47 L 165.36 38.16 L 164.11 36.86 L 163.55 36.27 L 162.24 35.03 L 160.94 33.79 L 160.35 33.23 L 158.98 32.05 L 157.62 30.88 L 157.00 30.35 L 155.58 29.24 L 154.16 28.14 L 153.51 27.64 L 152.04 26.60 L 150.56 25.57 L 149.90 25.10 L 148.37 24.14 L 146.85 23.18 L 146.16 22.74 L 144.59 21.85 L 143.03 20.97 L 142.31 20.57 L 140.70 19.76 L 139.10 18.95 L 138.37 18.59 L 136.72 17.86 L 135.07 17.13 L 134.32 16.80 L 132.65 16.13 L 132.61 16.12 L 130.82 16.27 L 129.02 16.43 L 127.23 16.59 L 125.44 16.74 L 123.64 16.90 L 121.85 17.06 L 120.06 17.21 L 118.26 17.37 L 116.47 17.53 L 114.68 17.68 L 112.88 17.84 L 111.09 18.00 L 109.30 18.15 L 107.51 18.31 L 105.71 18.47 L 103.92 18.63 L 102.13 18.78 L 100.33 18.94 L 98.54 19.10 L 96.75 19.25 L 94.95 19.41 L 93.16 19.57 L 91.37 19.72 L 89.57 19.88 L 87.78 20.04 L 85.99 20.19 L 84.19 20.35 L 82.40 20.51 L 80.61 20.67 L 78.82 20.82 L 77.02 20.98 L 75.23 21.14 L 73.44 21.29 L 71.64 21.45 L 69.85 21.61 L 68.06 21.76 L 66.26 21.92 L 64.47 22.08 L 62.68 22.23 L 60.88 22.39 L 59.09 22.55 L 57.30 22.70 L 55.50 22.86 L 53.71 23.02 L 53.62 22.87 L 52.10 23.84 L 50.58 24.80 L 49.89 25.24 L 48.42 26.28 L 46.95 27.32 L 46.29 27.79 L 44.87 28.90 L 43.45 30.01 L 42.81 30.51 L 41.45 31.69 L 40.08 32.87 L 39.47 33.40 L 38.16 34.64 L 36.86 35.89 L 36.27 36.45 L 35.03 37.76 L 33.79 39.06 L 33.23 39.65 L 32.06 41.02 L 30.88 42.38 L 30.35 43.00 L 29.24 44.42 L 28.14 45.84 L 27.64 46.49 L 26.60 47.96 L 25.57 49.44 L 25.10 50.10 L 24.14 51.63 L 23.18 53.15 L 22.74 53.84 L 21.85 55.41 L 20.97 56.97 L 20.57 57.69 L 19.76 59.30 L 18.95 60.90 L 18.59 61.63 L 17.86 63.28 L 17.13 64.93 L 16.80 65.68 L 16.13 67.35 L 16.12 67.39 L 16.27 69.18 L 16.43 70.98 L 16.59 72.77 L 16.74 74.56 L 16.90 76.36 L 17.06 78.15 L 17.21 79.94 L 17.37 81.74 L 17.53 83.53 L 17.68 85.32 L 17.84 87.11 L 18.00 88.91 L 18.15 90.70 L 18.31 92.49 L 18.47 94.29 L 18.63 96.08 L 18.78 97.87 L 18.94 99.67 L 19.10 101.46 L 19.25 103.25 L 19.41 105.05 L 19.57 106.84 L 19.72 108.63 L 19.88 110.43 L 20.04 112.22 L 20.19 114.01 L 20.35 115.81 L 20.51 117.60 L 20.67 119.39 L 20.82 121.18 L 20.98 122.98 L 21.14 124.77 L 21.29 126.56 L 21.45 128.36 L 21.61 130.15 L 21.76 131.94 L 21.92 133.74 L 22.08 135.53 L 22.23 137.32 L 22.39 139.12 L 22.55 140.91 L 22.70 142.70 L 22.86 144.50 L 23.02 146.29 L 22.87 146.38 L 23.84 147.90 L 24.80 149.42 L 25.24 150.11 L 26.28 151.58 L 27.32 153.05 L 27.79 153.71 L 28.90 155.13 L 30.01 156.55 L 30.51 157.19 L 31.69 158.55 L 32.87 159.92 L 33.40 160.53 L 34.64 161.84 L 35.89 163.14 L 36.45 163.73 L 37.76 164.97 L 39.06 166.21 L 39.65 166.77 L 41.02 167.94 L 42.38 169.12 L 43.00 169.65 L 44.42 170.76 L 45.84 171.86 L 46.49 172.36 L 47.96 173.40 L 49.44 174.43 L 50.10 174.90 L 51.63 175.86 L 53.15 176.82 L 53.84 177.26 L 55.41 178.15 L 56.97 179.03 L 57.69 179.43 L 59.30 180.24 L 60.90 181.05 L 61.63 181.41 L 63.28 182.14 L 64.93 182.87 L 65.68 183.20 L 67.36 183.84 L 69.04 184.49 L 69.80 184.78 L 71.51 185.34 L 73.22 185.91 L 74.00 186.16 L 75.73 186.64 L 77.47 187.12 L 78.26 187.33 L 79.71 187.68 L 81.49 187.41 L 83.27 187.13 L 85.05 186.86 L 86.83 186.58 L 88.61 186.31 L 90.39 186.03 L 92.16 185.76 L 93.94 185.48 L 95.72 185.21 L 97.50 184.93 L 99.28 184.65 L 101.06 184.38 L 102.84 184.10 L 104.62 183.83 L 106.39 183.55 L 108.17 183.28 L 109.95 183.00 L 111.73 182.73 L 113.51 182.45 L 115.29 182.18 L 117.07 181.90 L 118.85 181.63 L 120.62 181.35 L 122.40 181.08 L 124.18 180.80 L 125.96 180.52 L 127.74 180.25 L 129.52 179.97 L 131.30 179.70 L 133.08 179.42 L 134.86 179.15 L 136.63 178.87 L 138.41 178.60 L 140.19 178.32 L 141.97 178.05 L 143.75 177.77 L 143.75 177.77 L 144.13 178.44 L 145.67 177.52 L 147.22 176.60 L 147.92 176.18 L 149.42 175.18 L 150.92 174.19 L 151.60 173.74 L 153.05 172.67 L 154.50 171.60 L 155.16 171.12 L 156.55 169.98 L 157.95 168.84 L 158.58 168.32 L 159.92 167.12 L 161.26 165.92 L 161.86 165.37 L 163.14 164.10 L 164.42 162.83 L 165.00 162.25 L 166.21 160.92 L 167.42 159.59 L 167.97 158.99 L 169.12 157.60 L 170.26 156.21 L 170.79 155.58 L 171.86 154.14 L 172.94 152.70 L 173.43 152.04 L 174.43 150.55 L 175.44 149.06 L 175.89 148.38 L 176.82 146.84 L 177.75 145.29 L 178.17 144.60 L 179.03 143.01 L 179.88 141.42 L 180.27 140.70 L 181.04 139.08 L 181.82 137.46 L 182.17 136.72 L 182.86 135.06 L 183.56 133.40 L 183.87 132.64 L 184.48 130.95 L 185.09 129.26 L 185.37 128.49 L 185.90 126.77 L 186.43 125.04 L 186.67 124.26 L 187.11 122.52 L 187.56 120.78 L 187.68 120.29 L 187.41 118.51 L 187.13 116.73 L 186.86 114.95 L 186.58 113.17 L 186.31 111.39 L 186.03 109.62 L 185.76 107.84 L 185.48 106.06 L 185.21 104.28 L 184.93 102.50 L 184.65 100.72 L 184.38 98.94 L 184.10 97.16 L 183.83 95.38 L 183.55 93.61 L 183.28 91.83 L 183.00 90.05 L 182.73 88.27 L 182.45 86.49 L 182.18 84.71 L 181.90 82.93 L 181.63 81.15 L 181.35 79.38 L 181.08 77.60 L 180.80 75.82 L 180.52 74.04 L 180.25 72.26 L 179.97 70.48 L 179.70 68.70 L 179.42 66.92 L 179.15 65.14 L 178.87 63.37 L 178.60 61.59 L 178.32 59.81 L 178.05 58.03 L 177.77 56.25 L 177.77 56.25 L 178.44 55.87 L 177.52 54.33 L 176.60 52.78 L 176.18 52.08 L 175.18 50.58 L 174.19 49.08 L 173.74 48.40 L 172.67 46.95 L 171.60 45.50 L 171.12 44.84 L 169.98 43.45 L 168.84 42.05 L 168.32 41.42 L 167.12 40.08 L 165.91 38.74 L 165.37 38.14 L 164.10 36.86 L 162.83 35.58 L 162.25 35.00 L 160.92 33.79 L 159.59 32.58 L 158.99 32.03 L 157.60 30.88 L 156.21 29.74 L 155.58 29.22 L 154.14 28.14 L 152.70 27.06 L 152.04 26.57 L 150.55 25.57 L 149.06 24.56 L 148.38 24.11 L 146.84 23.18 L 145.29 22.25 L 144.59 21.83 L 143.01 20.97 L 141.43 20.12 L 140.71 19.73 L 139.08 18.96 L 137.46 18.18 L 136.72 17.83 L 135.06 17.14 L 133.40 16.44 L 132.64 16.13 L 130.95 15.52 L 129.26 14.91 L 128.49 14.63 L 126.77 14.10 L 125.04 13.57 L 124.26 13.33 L 122.52 12.89 L 120.78 12.44 L 120.29 12.32 L 118.51 12.59 L 116.73 12.87 L 114.95 13.14 L 113.17 13.42 L 111.39 13.69 L 109.61 13.97 L 107.84 14.24 L 106.06 14.52 L 104.28 14.79 L 102.50 15.07 L 100.72 15.35 L 98.94 15.62 L 97.16 15.90 L 95.38 16.17 L 93.61 16.45 L 91.83 16.72 L 90.05 17.00 L 88.27 17.27 L 86.49 17.55 L 84.71 17.82 L 82.93 18.10 L 81.15 18.37 L 79.37 18.65 L 77.60 18.92 L 75.82 19.20 L 74.04 19.48 L 72.26 19.75 L 70.48 20.03 L 68.70 20.30 L 66.92 20.58 L 65.14 20.85 L 63.37 21.13 L 61.59 21.40 L 59.81 21.68 L 58.03 21.95 L 56.25 22.23 L 56.25 22.23 L 55.87 21.56 L 54.33 22.48 L 52.78 23.40 L 52.08 23.82 L 50.58 24.81 L 49.08 25.81 L 48.40 26.26 L 46.95 27.33 L 45.50 28.40 L 44.84 28.88 L 43.45 30.02 L 42.05 31.16 L 41.42 31.68 L 40.08 32.88 L 38.74 34.08 L 38.14 34.63 L 36.86 35.90 L 35.58 37.17 L 35.00 37.75 L 33.79 39.08 L 32.58 40.41 L 32.03 41.01 L 30.88 42.40 L 29.74 43.79 L 29.21 44.42 L 28.14 45.86 L 27.06 47.30 L 26.57 47.96 L 25.57 49.45 L 24.56 50.94 L 24.11 51.62 L 23.18 53.16 L 22.25 54.71 L 21.83 55.40 L 20.97 56.99 L 20.12 58.58 L 19.73 59.29 L 18.96 60.92 L 18.18 62.54 L 17.83 63.28 L 17.14 64.94 L 16.44 66.60 L 16.13 67.36 L 15.52 69.05 L 14.90 70.74 L 14.63 71.51 L 14.10 73.23 L 13.57 74.95 L 13.33 75.74 L 12.89 77.48 L 12.44 79.22 L 12.32 79.71 L 12.59 81.49 L 12.87 83.27 L 13.14 85.05 L 13.42 86.83 L 13.69 88.61 L 13.97 90.38 L 14.24 92.16 L 14.52 93.94 L 14.79 95.72 L 15.07 97.50 L 15.35 99.28 L 15.62 101.06 L 15.90 102.84 L 16.17 104.62 L 16.45 106.39 L 16.72 108.17 L 17.00 109.95 L 17.27 111.73 L 17.55 113.51 L 17.82 115.29 L 18.10 117.07 L 18.37 118.85 L 18.65 120.62 L 18.92 122.40 L 19.20 124.18 L 19.48 125.96 L 19.75 127.74 L 20.03 129.52 L 20.30 131.30 L 20.58 133.08 L 20.85 134.86 L 21.13 136.63 L 21.40 138.41 L 21.68 140.19 L 21.95 141.97 L 22.23 143.75 L 22.23 143.75 L 21.56 144.13 L 22.48 145.67 L 23.40 147.22 L 23.82 147.92 L 24.82 149.42 L 25.81 150.92 L 26.26 151.60 L 27.33 153.05 L 28.40 154.50 L 28.88 155.16 L 30.02 156.55 L 31.16 157.95 L 31.68 158.58 L 32.88 159.92 L 34.08 161.26 L 34.63 161.86 L 35.90 163.14 L 37.17 164.42 L 37.75 165.00 L 39.08 166.21 L 40.41 167.42 L 41.01 167.97 L 42.40 169.12 L 43.79 170.26 L 44.42 170.78 L 45.86 171.86 L 47.30 172.94 L 47.96 173.43 L 49.45 174.43 L 50.94 175.44 L 51.62 175.89 L 53.16 176.82 L 54.71 177.75 L 55.41 178.17 L 56.99 179.03 L 58.58 179.88 L 59.30 180.27 L 60.92 181.04 L 62.54 181.82 L 63.28 182.17 L 64.94 182.86 L 66.60 183.56 L 67.36 183.87 L 69.05 184.48 L 70.74 185.09 L 71.51 185.37 L 73.23 185.90 L 74.96 186.43 L 75.74 186.67 L 77.48 187.11 L 79.23 187.55 L 80.02 187.75 L 81.78 188.11 L 83.55 188.47 L 84.35 188.63 L 86.13 188.90 L 87.91 189.17 L 88.72 189.29 L 90.51 189.48 L 91.81 189.63 L 93.57 189.23 L 95.33 188.84 L 97.08 188.45 L 98.84 188.06 L 100.60 187.66 L 102.35 187.27 L 104.11 186.88 L 105.87 186.49 L 107.62 186.09 L 109.38 185.70 L 111.14 185.31 L 112.89 184.91 L 114.65 184.52 L 116.41 184.13 L 118.16 183.74 L 119.92 183.34 L 121.68 182.95 L 123.43 182.56 L 125.19 182.17 L 126.95 181.77 L 128.70 181.38 L 130.46 180.99 L 132.22 180.60 L 133.97 180.20 L 135.73 179.81 L 137.49 179.42 L 139.24 179.03 L 141.00 178.63 L 142.76 178.24 L 144.51 177.85 L 144.67 178.13 L 146.21 177.20 L 147.75 176.27 L 148.45 175.84 L 149.95 174.84 L 151.44 173.83 L 152.12 173.37 L 153.56 172.30 L 155.00 171.22 L 155.65 170.73 L 157.04 169.58 L 158.43 168.43 L 159.06 167.91 L 160.39 166.70 L 161.72 165.48 L 162.32 164.93 L 163.59 163.66 L 164.85 162.38 L 165.43 161.80 L 166.63 160.46 L 167.84 159.12 L 168.38 158.51 L 169.52 157.12 L 170.66 155.72 L 171.17 155.09 L 172.24 153.64 L 173.31 152.19 L 173.79 151.53 L 174.78 150.03 L 175.78 148.53 L 176.23 147.84 L 177.15 146.30 L 178.07 144.75 L 178.48 144.05 L 179.33 142.46 L 180.17 140.87 L 180.55 140.14 L 181.31 138.51 L 182.08 136.88 L 182.42 136.14 L 183.11 134.48 L 183.79 132.81 L 184.10 132.05 L 184.70 130.36 L 185.30 128.66 L 185.57 127.89 L 186.09 126.16 L 186.60 124.44 L 186.84 123.66 L 187.27 121.91 L 187.70 120.16 L 187.89 119.37 L 188.24 117.60 L 188.58 115.83 L 188.74 115.03 L 188.99 113.25 L 189.25 111.47 L 189.37 110.66 L 189.55 108.87 L 189.63 108.19 L 189.23 106.43 L 188.84 104.67 L 188.45 102.92 L 188.06 101.16 L 187.66 99.40 L 187.27 97.65 L 186.88 95.89 L 186.49 94.13 L 186.09 92.38 L 185.70 90.62 L 185.31 88.86 L 184.91 87.11 L 184.52 85.35 L 184.13 83.59 L 183.74 81.84 L 183.34 80.08 L 182.95 78.32 L 182.56 76.57 L 182.17 74.81 L 181.77 73.05 L 181.38 71.30 L 180.99 69.54 L 180.60 67.78 L 180.20 66.03 L 179.81 64.27 L 179.42 62.51 L 179.03 60.76 L 178.63 59.00 L 178.24 57.24 L 177.85 55.49 L 178.13 55.33 L 177.20 53.79 L 176.27 52.25 L 175.84 51.55 L 174.84 50.05 L 173.83 48.56 L 173.37 47.88 L 172.30 46.44 L 171.22 45.00 L 170.73 44.35 L 169.58 42.96 L 168.43 41.57 L 167.91 40.94 L 166.70 39.61 L 165.48 38.28 L 164.93 37.68 L 163.66 36.41 L 162.38 35.15 L 161.80 34.57 L 160.46 33.37 L 159.12 32.16 L 158.51 31.62 L 157.12 30.48 L 155.72 29.34 L 155.09 28.83 L 153.64 27.76 L 152.19 26.69 L 151.53 26.21 L 150.03 25.22 L 148.53 24.22 L 147.85 23.77 L 146.30 22.85 L 144.75 21.93 L 144.05 21.52 L 142.46 20.67 L 140.87 19.83 L 140.14 19.45 L 138.51 18.69 L 136.88 17.92 L 136.14 17.58 L 134.48 16.89 L 132.81 16.21 L 132.05 15.90 L 130.36 15.30 L 128.66 14.70 L 127.89 14.43 L 126.16 13.91 L 124.44 13.40 L 123.66 13.16 L 121.91 12.73 L 120.16 12.30 L 119.37 12.11 L 117.60 11.76 L 115.83 11.42 L 115.03 11.26 L 113.25 11.01 L 111.47 10.75 L 110.66 10.63 L 108.87 10.45 L 108.19 10.37 L 106.43 10.77 L 104.67 11.16 L 102.92 11.55 L 101.16 11.94 L 99.40 12.34 L 97.65 12.73 L 95.89 13.12 L 94.13 13.51 L 92.38 13.91 L 90.62 14.30 L 88.86 14.69 L 87.11 15.09 L 85.35 15.48 L 83.59 15.87 L 81.84 16.26 L 80.08 16.66 L 78.32 17.05 L 76.57 17.44 L 74.81 17.83 L 73.05 18.23 L 71.30 18.62 L 69.54 19.01 L 67.78 19.40 L 66.03 19.80 L 64.27 20.19 L 62.51 20.58 L 60.76 20.97 L 59.00 21.37 L 57.24 21.76 L 55.49 22.15 L 55.33 21.87 L 53.79 22.80 L 52.25 23.73 L 51.55 24.16 L 50.05 25.16 L 48.56 26.17 L 47.88 26.63 L 46.44 27.70 L 45.00 28.78 L 44.35 29.27 L 42.96 30.42 L 41.57 31.57 L 40.94 32.09 L 39.61 33.30 L 38.28 34.52 L 37.68 35.07 L 36.41 36.34 L 35.15 37.62 L 34.57 38.20 L 33.37 39.54 L 32.16 40.88 L 31.62 41.49 L 30.48 42.88 L 29.34 44.28 L 28.83 44.91 L 27.76 46.36 L 26.69 47.81 L 26.21 48.47 L 25.22 49.97 L 24.22 51.47 L 23.77 52.16 L 22.85 53.70 L 21.93 55.25 L 21.52 55.95 L 20.67 57.54 L 19.83 59.13 L 19.45 59.86 L 18.69 61.49 L 17.92 63.12 L 17.58 63.86 L 16.89 65.52 L 16.21 67.19 L 15.90 67.95 L 15.30 69.64 L 14.70 71.34 L 14.43 72.11 L 13.91 73.84 L 13.40 75.56 L 13.16 76.34 L 12.73 78.09 L 12.30 79.84 L 12.11 80.63 L 11.76 82.40 L 11.42 84.17 L 11.26 84.97 L 11.01 86.75 L 10.75 88.53 L 10.63 89.34 L 10.45 91.13 L 10.37 91.81 L 10.77 93.57 L 11.16 95.33 L 11.55 97.08 L 11.94 98.84 L 12.34 100.60 L 12.73 102.35 L 13.12 104.11 L 13.51 105.87 L 13.91 107.62 L 14.30 109.38 L 14.69 111.14 L 15.09 112.89 L 15.48 114.65 L 15.87 116.41 L 16.26 118.16 L 16.66 119.92 L 17.05 121.68 L 17.44 123.43 L 17.83 125.19 L 18.23 126.95 L 18.62 128.70 L 19.01 130.46 L 19.40 132.22 L 19.80 133.97 L 20.19 135.73 L 20.58 137.49 L 20.97 139.24 L 21.37 141.00 L 21.76 142.76 L 22.15 144.51 L 21.87 144.67 L 22.80 146.21 L 23.73 147.75 L 24.16 148.45 L 25.16 149.95 L 26.17 151.44 L 26.63 152.12 L 27.70 153.56 L 28.78 155.00 L 29.27 155.65 L 30.42 157.04 L 31.57 158.43 L 32.09 159.06 L 33.30 160.39 L 34.51 161.72 L 35.07 162.32 L 36.34 163.59 L 37.62 164.85 L 38.20 165.43 L 39.54 166.63 L 40.88 167.84 L 41.49 168.38 L 42.88 169.52 L 44.28 170.66 L 44.91 171.17 L 46.36 172.24 L 47.81 173.31 L 48.47 173.79 L 49.97 174.78 L 51.47 175.78 L 52.16 176.23 L 53.70 177.15 L 55.25 178.07 L 55.95 178.48 L 57.54 179.33 L 59.13 180.17 L 59.86 180.55 L 61.49 181.31 L 63.12 182.08 L 63.86 182.42 L 65.52 183.11 L 67.19 183.79 L 67.95 184.10 L 69.64 184.70 L 71.34 185.30 L 72.11 185.57 L 73.84 186.09 L 75.56 186.60 L 76.34 186.84 L 78.09 187.27 L 79.84 187.70 L 80.63 187.89 L 82.40 188.24 L 84.17 188.58 L 84.97 188.74 L 86.75 188.99 L 88.53 189.25 L 89.34 189.37 L 91.13 189.54 L 92.92 189.71 L 93.74 189.78 L 95.54 189.86 L 97.33 189.94 L 98.15 189.98 L 99.95 189.97 L 101.75 189.97 L 102.57 189.96 L 104.37 189.87 L 106.16 189.77 L 106.98 189.73 L 107.38 188.90 L 109.11 188.39 L 110.83 187.88 L 112.56 187.37 L 114.29 186.87 L 116.01 186.36 L 117.74 185.85 L 119.47 185.34 L 121.19 184.83 L 122.92 184.32 L 124.65 183.82 L 126.37 183.31 L 128.10 182.80 L 129.83 182.29 L 131.55 181.78 L 133.28 181.27 L 135.01 180.77 L 136.73 180.26 L 138.46 179.75 L 140.19 179.24 L 141.91 178.73 L 141.91 178.73 L 142.29 179.44 L 143.86 178.56 L 145.43 177.67 L 146.14 177.27 L 147.66 176.31 L 149.18 175.35 L 149.88 174.92 L 151.35 173.88 L 152.82 172.85 L 153.49 172.38 L 154.91 171.27 L 156.33 170.17 L 156.98 169.67 L 158.34 168.49 L 159.71 167.32 L 160.33 166.79 L 161.63 165.55 L 162.94 164.31 L 163.53 163.75 L 164.78 162.44 L 166.02 161.14 L 166.58 160.55 L 167.76 159.19 L 168.94 157.83 L 169.48 157.21 L 170.58 155.80 L 171.69 154.38 L 172.20 153.73 L 173.24 152.26 L 174.28 150.79 L 174.75 150.13 L 175.71 148.61 L 176.68 147.09 L 177.12 146.40 L 178.01 144.83 L 178.90 143.27 L 179.30 142.56 L 180.11 140.95 L 180.93 139.35 L 181.29 138.62 L 182.03 136.97 L 182.76 135.33 L 183.09 134.58 L 183.74 132.90 L 184.39 131.22 L 184.69 130.46 L 185.26 128.75 L 185.82 127.05 L 186.08 126.27 L 186.56 124.54 L 187.05 122.80 L 187.27 122.02 L 187.66 120.26 L 188.06 118.50 L 188.24 117.71 L 188.55 115.93 L 188.86 114.16 L 189.00 113.36 L 189.23 111.57 L 189.45 109.78 L 189.55 108.97 L 189.69 107.18 L 189.82 105.38 L 189.88 104.57 L 189.93 102.77 L 189.98 100.97 L 190.00 100.15 L 189.96 98.35 L 189.92 96.55 L 189.90 95.73 L 189.35 94.02 L 188.90 92.62 L 188.39 90.89 L 187.88 89.17 L 187.37 87.44 L 186.87 85.71 L 186.36 83.99 L 185.85 82.26 L 185.34 80.53 L 184.83 78.81 L 184.32 77.08 L 183.82 75.35 L 183.31 73.63 L 182.80 71.90 L 182.29 70.17 L 181.78 68.45 L 181.27 66.72 L 180.77 64.99 L 180.26 63.27 L 179.75 61.54 L 179.24 59.81 L 178.73 58.09 L 178.73 58.09 L 179.44 57.71 L 178.56 56.14 L 177.67 54.57 L 177.27 53.86 L 176.31 52.34 L 175.35 50.82 L 174.92 50.12 L 173.88 48.65 L 172.85 47.18 L 172.38 46.51 L 171.27 45.09 L 170.17 43.67 L 169.67 43.02 L 168.49 41.66 L 167.32 40.29 L 166.79 39.67 L 165.55 38.37 L 164.31 37.06 L 163.75 36.47 L 162.44 35.22 L 161.14 33.98 L 160.55 33.42 L 159.19 32.24 L 157.83 31.06 L 157.21 30.52 L 155.79 29.41 L 154.38 28.31 L 153.73 27.80 L 152.26 26.76 L 150.79 25.72 L 150.13 25.25 L 148.61 24.29 L 147.09 23.32 L 146.40 22.88 L 144.83 21.99 L 143.27 21.10 L 142.56 20.70 L 140.95 19.89 L 139.35 19.07 L 138.62 18.71 L 136.97 17.97 L 135.33 17.24 L 134.58 16.91 L 132.90 16.26 L 131.22 15.61 L 130.46 15.31 L 128.75 14.74 L 127.05 14.18 L 126.27 13.92 L 124.54 13.44 L 122.80 12.95 L 122.01 12.73 L 120.26 12.34 L 118.50 11.94 L 117.71 11.76 L 115.93 11.45 L 114.16 11.14 L 113.35 11.00 L 111.57 10.77 L 109.78 10.55 L 108.97 10.45 L 107.18 10.31 L 105.38 10.18 L 104.57 10.12 L 102.77 10.07 L 100.97 10.02 L 100.15 10.00 L 98.35 10.04 L 96.55 10.08 L 95.73 10.10 L 94.02 10.65 L 92.62 11.10 L 90.89 11.61 L 89.17 12.12 L 87.44 12.63 L 85.71 13.13 L 83.99 13.64 L 82.26 14.15 L 80.53 14.66 L 78.81 15.17 L 77.08 15.68 L 75.35 16.18 L 73.63 16.69 L 71.90 17.20 L 70.17 17.71 L 68.45 18.22 L 66.72 18.73 L 64.99 19.23 L 63.27 19.74 L 61.54 20.25 L 59.81 20.76 L 58.09 21.27 L 58.09 21.27 L 57.71 20.56 L 56.14 21.44 L 54.57 22.33 L 53.86 22.73 L 52.34 23.69 L 50.82 24.65 L 50.12 25.08 L 48.65 26.12 L 47.18 27.15 L 46.51 27.62 L 45.09 28.73 L 43.67 29.83 L 43.02 30.33 L 41.66 31.51 L 40.29 32.68 L 39.67 33.21 L 38.37 34.45 L 37.06 35.69 L 36.47 36.25 L 35.22 37.56 L 33.98 38.86 L 33.42 39.45 L 32.24 40.81 L 31.06 42.17 L 30.52 42.79 L 29.41 44.21 L 28.31 45.62 L 27.80 46.27 L 26.76 47.74 L 25.72 49.21 L 25.25 49.87 L 24.29 51.39 L 23.32 52.91 L 22.88 53.60 L 21.99 55.17 L 21.10 56.73 L 20.70 57.44 L 19.89 59.05 L 19.07 60.65 L 18.71 61.38 L 17.97 63.03 L 17.24 64.67 L 16.91 65.42 L 16.26 67.10 L 15.61 68.78 L 15.31 69.54 L 14.74 71.25 L 14.18 72.95 L 13.92 73.73 L 13.44 75.46 L 12.95 77.20 L 12.73 77.99 L 12.34 79.74 L 11.94 81.50 L 11.76 82.29 L 11.45 84.07 L 11.14 85.84 L 11.00 86.64 L 10.77 88.43 L 10.55 90.22 L 10.45 91.03 L 10.31 92.82 L 10.18 94.62 L 10.12 95.43 L 10.07 97.23 L 10.02 99.03 L 10.00 99.85 L 10.04 101.65 L 10.08 103.45 L 10.10 104.26 L 10.65 105.98 L 11.10 107.38 L 11.61 109.11 L 12.12 110.83 L 12.63 112.56 L 13.13 114.29 L 13.64 116.01 L 14.15 117.74 L 14.66 119.47 L 15.17 121.19 L 15.68 122.92 L 16.18 124.65 L 16.69 126.37 L 17.20 128.10 L 17.71 129.83 L 18.22 131.55 L 18.73 133.28 L 19.23 135.01 L 19.74 136.73 L 20.25 138.46 L 20.76 140.19 L 21.27 141.91 L 21.27 141.91 L 20.56 142.29 L 21.44 143.86 L 22.33 145.43 L 22.73 146.14 L 23.69 147.66 L 24.65 149.18 L 25.08 149.88 L 26.12 151.35 L 27.15 152.82 L 27.62 153.49 L 28.73 154.91 L 29.83 156.33 L 30.33 156.98 L 31.51 158.34 L 32.68 159.71 L 33.21 160.33 L 34.45 161.63 L 35.69 162.94 L 36.25 163.53 L 37.56 164.78 L 38.86 166.02 L 39.45 166.58 L 40.81 167.76 L 42.17 168.94 L 42.79 169.48 L 44.21 170.58 L 45.62 171.70 L 46.27 172.20 L 47.74 173.24 L 49.21 174.28 L 49.87 174.75 L 51.39 175.71 L 52.91 176.68 L 53.60 177.12 L 55.17 178.01 L 56.73 178.90 L 57.44 179.30 L 59.05 180.11 L 60.65 180.93 L 61.38 181.29 L 63.03 182.03 L 64.67 182.76 L 65.42 183.09 L 67.10 183.74 L 68.78 184.39 L 69.54 184.69 L 71.25 185.26 L 72.95 185.82 L 73.73 186.08 L 75.46 186.56 L 77.20 187.05 L 77.98 187.27 L 79.74 187.66 L 81.50 188.06 L 82.29 188.24 L 84.07 188.55 L 85.84 188.86 L 86.64 189.00 L 88.43 189.23 L 90.22 189.45 L 91.03 189.55 L 92.82 189.69 L 94.62 189.82 L 95.43 189.88 L 97.23 189.93 L 99.03 189.98 L 99.85 190.00 L 101.65 189.96 L 103.45 189.92 L 104.27 189.90 L 106.06 189.77 L 107.86 189.64 L 108.67 189.58 L 110.46 189.36 L 112.25 189.15 L 113.06 189.05 L 114.83 188.74 L 116.60 188.44 L 117.41 188.30 L 119.17 187.91 L 120.92 187.52 L 121.72 187.34 L 123.29 186.45 L 124.56 185.73 L 126.25 185.11 L 127.94 184.49 L 129.63 183.87 L 131.32 183.25 L 133.01 182.63 L 134.70 182.01 L 136.39 181.38 L 138.08 180.76 L 138.08 180.76 L 138.38 181.41 L 139.99 180.60 L 141.60 179.79 L 142.33 179.43 L 143.89 178.54 L 145.46 177.65 L 146.17 177.25 L 147.70 176.29 L 149.22 175.33 L 149.91 174.89 L 151.38 173.86 L 152.85 172.82 L 153.52 172.35 L 154.94 171.25 L 156.36 170.14 L 157.01 169.64 L 158.37 168.47 L 159.74 167.29 L 160.36 166.76 L 161.66 165.52 L 162.97 164.28 L 163.56 163.72 L 164.80 162.42 L 166.05 161.11 L 166.61 160.52 L 167.79 159.16 L 168.97 157.80 L 169.50 157.18 L 170.61 155.76 L 171.72 154.35 L 172.22 153.70 L 173.26 152.23 L 174.30 150.76 L 174.77 150.09 L 175.74 148.57 L 176.70 147.06 L 177.14 146.36 L 178.03 144.80 L 178.92 143.23 L 179.32 142.52 L 180.13 140.92 L 180.94 139.31 L 181.31 138.58 L 182.04 136.94 L 182.77 135.29 L 183.11 134.54 L 183.76 132.87 L 184.41 131.19 L 184.70 130.42 L 185.27 128.72 L 185.84 127.01 L 186.09 126.23 L 186.57 124.50 L 187.06 122.76 L 187.28 121.98 L 187.67 120.22 L 188.07 118.46 L 188.25 117.67 L 188.56 115.89 L 188.87 114.12 L 189.01 113.32 L 189.23 111.53 L 189.45 109.74 L 189.56 108.93 L 189.69 107.14 L 189.82 105.34 L 189.89 104.53 L 189.93 102.73 L 189.98 100.93 L 190.00 100.11 L 189.96 98.31 L 189.92 96.51 L 189.90 95.70 L 189.77 93.90 L 189.64 92.10 L 189.58 91.29 L 189.36 89.50 L 189.14 87.72 L 189.04 86.90 L 188.74 85.13 L 188.43 83.36 L 188.29 82.55 L 187.90 80.79 L 187.51 79.04 L 187.33 78.24 L 186.44 76.68 L 185.73 75.44 L 185.11 73.75 L 184.49 72.06 L 183.87 70.37 L 183.25 68.68 L 182.63 66.99 L 182.01 65.30 L 181.38 63.61 L 180.76 61.92 L 180.76 61.92 L 181.41 61.62 L 180.60 60.01 L 179.79 58.40 L 179.43 57.67 L 178.54 56.10 L 177.65 54.54 L 177.25 53.83 L 176.29 52.30 L 175.33 50.78 L 174.89 50.09 L 173.86 48.62 L 172.82 47.14 L 172.35 46.48 L 171.25 45.06 L 170.14 43.64 L 169.64 42.99 L 168.47 41.63 L 167.29 40.26 L 166.76 39.64 L 165.52 38.34 L 164.28 37.03 L 163.72 36.44 L 162.42 35.20 L 161.11 33.95 L 160.52 33.39 L 159.16 32.21 L 157.80 31.03 L 157.18 30.50 L 155.76 29.39 L 154.35 28.28 L 153.70 27.78 L 152.23 26.74 L 150.76 25.70 L 150.09 25.23 L 148.57 24.26 L 147.06 23.30 L 146.36 22.86 L 144.80 21.97 L 143.23 21.08 L 142.52 20.68 L 140.92 19.87 L 139.31 19.06 L 138.58 18.69 L 136.94 17.96 L 135.29 17.23 L 134.54 16.89 L 132.86 16.24 L 131.19 15.59 L 130.42 15.30 L 128.72 14.73 L 127.01 14.16 L 126.23 13.91 L 124.50 13.43 L 122.76 12.94 L 121.98 12.72 L 120.22 12.33 L 118.47 11.93 L 117.67 11.75 L 115.89 11.44 L 114.12 11.13 L 113.32 10.99 L 111.53 10.77 L 109.74 10.55 L 108.93 10.44 L 107.14 10.31 L 105.34 10.18 L 104.53 10.11 L 102.73 10.07 L 100.93 10.02 L 100.11 10.00 L 98.31 10.04 L 96.51 10.08 L 95.70 10.10 L 93.90 10.23 L 92.10 10.36 L 91.29 10.42 L 89.50 10.64 L 87.72 10.86 L 86.90 10.96 L 85.13 11.26 L 83.36 11.57 L 82.55 11.71 L 80.79 12.10 L 79.04 12.49 L 78.24 12.67 L 76.68 13.56 L 75.44 14.27 L 73.75 14.89 L 72.06 15.51 L 70.37 16.13 L 68.68 16.75 L 66.99 17.37 L 65.30 17.99 L 63.61 18.62 L 61.92 19.24 L 61.92 19.24 L 61.62 18.59 L 60.01 19.40 L 58.40 20.21 L 57.67 20.58 L 56.10 21.46 L 54.54 22.35 L 53.83 22.75 L 52.30 23.71 L 50.78 24.67 L 50.09 25.11 L 48.62 26.14 L 47.15 27.18 L 46.48 27.65 L 45.06 28.75 L 43.64 29.86 L 42.99 30.36 L 41.63 31.53 L 40.26 32.71 L 39.64 33.24 L 38.34 34.48 L 37.03 35.72 L 36.44 36.28 L 35.20 37.58 L 33.95 38.89 L 33.39 39.48 L 32.21 40.84 L 31.03 42.20 L 30.50 42.82 L 29.39 44.24 L 28.28 45.65 L 27.78 46.30 L 26.74 47.77 L 25.70 49.24 L 25.23 49.91 L 24.26 51.43 L 23.30 52.95 L 22.86 53.64 L 21.97 55.20 L 21.08 56.77 L 20.68 57.48 L 19.87 59.08 L 19.06 60.69 L 18.69 61.42 L 17.96 63.06 L 17.23 64.71 L 16.89 65.46 L 16.24 67.13 L 15.59 68.81 L 15.30 69.58 L 14.73 71.28 L 14.16 72.99 L 13.91 73.77 L 13.43 75.50 L 12.94 77.24 L 12.72 78.02 L 12.33 79.78 L 11.93 81.54 L 11.75 82.33 L 11.44 84.11 L 11.13 85.88 L 10.99 86.68 L 10.77 88.47 L 10.55 90.26 L 10.44 91.07 L 10.31 92.86 L 10.18 94.66 L 10.11 95.47 L 10.07 97.27 L 10.02 99.07 L 10.00 99.89 L 10.04 101.69 L 10.08 103.49 L 10.10 104.30 L 10.23 106.10 L 10.36 107.89 L 10.42 108.71 L 10.64 110.50 L 10.86 112.28 L 10.96 113.10 L 11.26 114.87 L 11.57 116.64 L 11.71 117.45 L 12.10 119.21 L 12.49 120.96 L 12.67 121.76 L 13.56 123.32 L 14.27 124.56 L 14.89 126.25 L 15.51 127.94 L 16.13 129.63 L 16.75 131.32 L 17.37 133.01 L 17.99 134.70 L 18.62 136.39 L 19.24 138.08 L 19.24 138.08" 
          fill="none" 
          stroke="currentColor" 
          stroke-width="0.5"/>
</svg>