<?xml version="1.0" encoding="UTF-8" standalone="no"?>
<svg width="100%" height="100%" viewBox="0 0 200 200" preserveAspectRatio="xMidYMid meet" xmlns="http://www.w3.org/2000/svg">
    <path d="M 100.00 100.00 L 94.81 99.93 L 92.56 99.77 L 90.52 99.87 L 88.91 99.61 L 89.87 99.76 L 90.10 97.36 L 89.40 96.18 L 87.36 97.19 L 86.24 98.91 L 86.24 100.84 L 87.31 102.18 L 88.59 102.50 L 90.36 102.45 L 91.43 102.18 L 92.56 99.77 L 93.52 99.39 L 93.52 96.98 L 92.29 95.64 L 90.73 94.19 L 89.13 94.20 L 87.30 94.25 L 84.78 95.32 L 83.98 96.93 L 83.28 98.70 L 82.86 101.43 L 84.20 103.41 L 87.26 104.69 L 89.88 104.96 L 93.04 104.54 L 95.24 103.46 L 95.99 101.00 L 96.26 97.89 L 95.67 95.59 L 94.81 94.14 L 92.83 92.54 L 90.90 92.16 L 89.02 91.35 L 86.66 91.46 L 83.88 92.16 L 82.16 93.39 L 80.71 95.64 L 79.53 99.18 L 79.74 102.02 L 80.98 103.89 L 82.59 105.23 L 85.21 106.79 L 87.09 107.96 L 90.26 107.80 L 94.12 107.37 L 96.26 106.25 L 97.98 103.67 L 98.73 101.80 L 99.16 98.91 L 98.83 96.23 L 98.13 94.25 L 96.15 91.57 L 93.95 90.17 L 90.58 89.27 L 86.08 89.48 L 83.93 89.53 L 81.40 90.60 L 79.43 92.48 L 76.85 95.16 L 76.75 98.80 L 77.55 102.07 L 78.73 104.85 L 80.39 106.84 L 81.95 108.50 L 83.88 109.30 L 85.81 110.64 L 88.32 111.07 L 92.13 110.86 L 94.38 110.26 L 96.47 109.04 L 98.51 107.16 L 99.90 105.28 L 101.08 102.66 L 102.00 99.98 L 102.21 97.62 L 102.43 94.84 L 101.62 92.69 L 100.60 91.35 L 98.78 89.96 L 96.74 88.41 L 94.54 87.60 L 92.02 87.34 L 89.83 87.07 L 85.00 87.39 L 82.64 87.60 L 79.96 88.94 L 77.87 90.44 L 74.97 92.59 L 73.80 95.96 L 72.83 98.21 L 73.48 102.18 L 75.51 104.64 L 76.47 107.48 L 78.03 109.03 L 79.86 110.96 L 81.51 112.41 L 84.41 112.95 L 86.34 113.64 L 89.93 113.27 L 92.67 113.11 L 94.97 112.41 L 98.35 110.70 L 100.49 109.30 L 102.64 107.00 L 103.66 103.62 L 105.53 100.84 L 106.07 98.37 L 106.18 95.80 L 105.43 93.50 L 104.73 90.93 L 102.85 88.89 L 101.30 87.77 L 99.53 86.74 L 96.79 85.83 L 94.01 85.46 L 92.29 85.24 L 94.01 83.70 L 94.81 81.82 L 95.40 79.89 L 95.40 78.50 L 95.72 79.56 L 97.44 81.71 L 97.33 82.78 L 96.10 83.85 L 98.89 84.06 L 100.33 85.19 L 102.75 85.99 L 103.76 87.12 L 105.64 88.24 L 106.98 89.64 L 107.63 91.78 L 108.70 94.14 L 109.56 96.66 L 109.18 98.75 L 108.27 101.70 L 107.35 104.00 L 106.66 104.75 L 108.75 104.91 L 110.63 104.32 L 111.49 102.61 L 112.08 99.55 L 112.13 96.82 L 111.97 94.03 L 111.32 92.16 L 110.42 90.17 L 109.02 88.25 L 107.79 86.85 L 110.73 87.71 L 112.72 88.73 L 113.63 91.36 L 114.70 93.98 L 115.72 95.59 L 115.67 98.80 L 115.34 100.57 L 114.87 102.50 L 114.59 104.00 L 113.84 105.28 L 116.25 104.37 L 116.90 103.78 L 119.04 102.44 L 119.58 100.62 L 119.10 97.52 L 117.94 94.28 L 116.99 92.25 L 116.09 90.43 L 115.34 88.84 L 114.17 87.71 L 116.69 89.21 L 119.10 91.78 L 120.21 93.95 L 121.26 95.77 L 122.26 97.84 L 123.12 99.34 L 124.68 99.71 L 127.26 100.38 L 129.92 100.08 L 130.06 98.69 L 127.26 98.39 L 126.29 97.21 L 125.60 96.33 L 124.83 95.25 L 124.09 94.18 L 124.19 92.80 L 123.77 91.76 L 123.94 89.08 L 124.90 86.56 L 125.68 84.48 L 126.54 83.27 L 130.62 82.32 L 136.25 81.62 L 141.28 82.24 L 143.97 84.74 L 144.74 86.91 L 143.36 89.16 L 142.67 89.51 L 143.45 89.51 L 144.57 88.21 L 144.48 86.91 L 143.18 86.48 L 141.63 87.25 L 140.59 88.47 L 139.98 90.63 L 140.76 91.76 L 143.10 91.76 L 145.52 91.67 L 146.74 90.20 L 147.09 88.12 L 146.82 86.65 L 146.13 85.53 L 144.48 85.00 L 141.71 84.05 L 139.20 84.92 L 137.81 85.96 L 136.68 88.82 L 136.78 90.81 L 137.72 92.80 L 139.72 93.84 L 142.75 94.44 L 146.39 93.75 L 149.34 92.71 L 150.38 90.20 L 150.46 87.52 L 149.95 84.31 L 148.65 82.41 L 146.04 81.37 L 143.02 81.45 L 141.45 81.19 L 135.90 83.27 L 135.56 84.14 L 134.08 86.65 L 134.00 89.77 L 134.09 92.80 L 135.82 95.14 L 139.20 96.87 L 144.40 97.39 L 148.04 96.70 L 151.25 95.31 L 152.28 93.58 L 153.76 89.51 L 153.68 86.30 L 153.07 83.01 L 151.42 80.50 L 149.34 78.34 L 144.14 78.42 L 138.51 78.60 L 137.38 78.68 L 134.43 80.15 L 131.40 82.32 L 131.14 84.05 L 130.44 85.27 L 129.76 89.07 L 129.92 90.63 L 130.19 92.54 L 133.82 96.35 L 136.08 99.12 L 137.20 99.12 L 141.02 99.73 L 143.36 99.82 L 144.92 99.99 L 146.57 99.73 L 140.94 101.81 L 136.77 102.76 L 134.69 101.20 L 132.18 98.86 L 129.66 96.27 L 128.10 93.23 L 127.50 89.94 L 127.15 86.56 L 128.11 84.23 L 129.32 80.85 L 130.62 79.63 L 132.96 77.47 L 137.47 76.77 L 140.15 76.86 L 142.58 76.87 L 135.30 77.56 L 132.01 78.07 L 127.76 79.90 L 124.73 82.14 L 122.75 84.77 L 121.43 87.17 L 120.84 88.43 L 119.89 90.04 L 119.16 88.32 L 118.45 87.16 L 118.02 86.98 L 117.07 86.45 L 116.19 86.35 L 114.85 86.04 L 111.64 85.95 L 111.90 85.70 L 114.24 85.26 L 117.88 85.00 L 120.13 84.05 L 120.92 82.77 L 121.95 81.80 L 122.59 80.27 L 122.33 77.47 L 118.22 74.49 L 113.67 73.53 L 109.90 72.05 L 107.10 69.15 L 108.85 69.68 L 109.37 70.29 L 109.37 71.69 L 108.50 72.75 L 107.01 72.74 L 104.99 72.57 L 104.38 70.55 L 105.08 68.37 L 106.40 67.40 L 108.41 67.41 L 111.65 68.19 L 112.35 69.85 L 112.26 72.40 L 110.07 74.93 L 108.58 75.81 L 105.52 75.63 L 102.89 75.02 L 102.19 72.92 L 101.49 71.26 L 101.49 68.81 L 102.54 66.53 L 104.47 64.78 L 108.93 64.34 L 110.42 64.60 L 112.96 65.48 L 114.01 67.14 L 114.98 69.24 L 115.85 71.96 L 114.98 73.97 L 113.66 77.12 L 111.65 78.52 L 107.45 79.83 L 102.45 79.92 L 101.05 77.90 L 99.30 75.63 L 98.86 72.83 L 98.60 68.72 L 99.48 64.96 L 101.66 63.73 L 105.17 61.80 L 107.97 61.19 L 111.65 61.54 L 113.84 62.33 L 115.42 63.47 L 116.29 65.74 L 117.25 68.11 L 118.22 70.91 L 117.60 73.27 L 117.52 76.77 L 115.41 79.40 L 113.23 80.88 L 110.07 82.20 L 105.87 82.98 L 102.19 82.63 L 99.65 80.54 L 98.60 78.52 L 96.94 76.07 L 95.80 72.48 L 95.97 68.63 L 96.15 64.96 L 97.81 62.59 L 99.83 60.75 L 102.72 59.09 L 106.31 58.47 L 108.67 58.56 L 111.39 59.00 L 113.93 59.44 L 116.55 61.10 L 118.65 62.77 L 119.88 65.04 L 120.06 67.58 L 121.02 69.68 L 121.54 71.87 L 121.28 74.24 L 120.14 77.91 L 119.01 80.09 L 116.56 81.93 L 113.58 83.86 L 110.86 84.73 L 107.01 85.43 L 105.17 85.17 L 102.02 84.21 L 98.08 82.19 L 95.53 80.62 L 94.49 78.26 L 93.17 75.81 L 93.35 74.14 L 93.17 71.17 L 93.17 68.46 L 94.13 65.57 L 94.86 64.38 L 92.31 66.83 L 90.20 69.21 L 88.27 71.05 L 85.72 73.60 L 80.88 76.41 L 82.82 76.94 L 83.96 77.47 L 83.35 78.52 L 82.47 78.87 L 80.36 78.78 L 79.48 77.81 L 79.39 76.58 L 79.92 75.27 L 80.89 74.39 L 82.47 74.57 L 84.22 75.53 L 85.81 76.76 L 86.07 78.08 L 85.19 79.57 L 83.61 80.89 L 80.44 81.76 L 79.39 81.50 L 77.28 80.36 L 76.40 77.90 L 77.54 75.18 L 79.39 72.46 L 81.94 71.58 L 86.07 70.97 L 86.95 72.54 L 88.97 74.39 L 88.62 76.93 L 88.27 78.86 L 86.51 81.41 L 83.96 82.91 L 80.27 84.49 L 76.67 83.61 L 75.09 82.73 L 74.65 80.10 L 74.56 78.17 L 74.82 75.00 L 75.79 72.45 L 79.92 70.17 L 83.17 69.38 L 86.86 69.12 L 88.97 70.70 L 90.64 73.86 L 91.43 77.38 L 90.64 79.48 L 88.53 82.29 L 85.98 83.70 L 81.06 85.71 L 78.60 86.42 L 75.00 85.54 L 72.89 84.23 L 72.53 82.29 L 72.45 80.10 L 72.10 76.59 L 72.62 73.60 L 74.91 69.73 L 76.49 68.86 L 80.53 67.53 L 85.02 66.92 L 88.62 68.42 L 90.73 69.82 L 93.01 72.64 L 93.10 76.76 L 92.75 80.01 L 91.70 82.91 L 90.47 84.75 L 87.48 86.25 L 82.99 87.12 L 78.95 88.62 L 76.23 89.23 L 74.47 88.88 L 72.36 89.23 L 71.84 87.83 L 70.87 85.11 L 70.60 82.82 L 70.52 81.07 L 70.52 79.22 L 70.87 76.50 L 71.31 76.06 L 73.50 73.51 L 77.37 72.37 L 78.51 71.76 L 82.20 69.65 L 84.49 69.30 L 86.60 68.33 L 90.55 65.61 L 92.13 63.67 L 95.74 61.48 L 99.60 58.67 L 101.27 57.35 L 101.45 57.09 L 104.08 55.77 L 109.97 55.16 L 112.70 56.21 L 114.80 56.56 L 117.58 57.75 L 120.27 60.32 L 122.34 63.66 L 123.85 67.78 L 123.77 69.91 L 123.77 71.58 L 123.16 74.65 L 123.07 77.20 L 123.77 77.99 L 125.35 76.14 L 126.40 72.99 L 126.58 71.32 L 127.37 68.41 L 127.55 66.40 L 127.28 62.71 L 125.74 59.47 L 124.56 57.61 L 122.22 55.54 L 119.92 53.68 L 117.44 52.45 L 114.52 50.86 L 110.28 50.41 L 106.91 49.70 L 103.55 50.32 L 99.57 51.20 L 95.77 51.91 L 92.67 53.33 L 89.48 55.36 L 87.36 57.13 L 85.23 58.46 L 81.74 60.74 L 79.93 62.61 L 76.03 64.73 L 72.76 66.15 L 67.36 67.56 L 64.98 68.10 L 62.32 68.45 L 59.66 68.80 L 59.40 70.75 L 60.82 71.72 L 62.85 71.01 L 64.35 71.01 L 66.83 71.02 L 68.95 70.83 L 70.73 70.02 L 73.30 69.11 L 75.77 67.83 L 78.87 66.95 L 82.23 64.91 L 83.91 62.88 L 86.39 60.85 L 88.42 59.78 L 89.40 58.55 L 92.76 56.69 L 95.68 55.62 L 97.53 54.83 L 97.80 54.66 L 100.54 53.59 L 103.64 53.41 L 107.36 52.71 L 110.37 52.79 L 114.31 52.89 L 116.94 53.78 L 119.33 55.06 L 121.58 56.88 L 123.05 58.70 L 124.83 61.87 L 125.92 63.91 L 126.46 66.60 L 126.32 69.78 L 125.62 70.22 L 125.31 67.21 L 124.50 64.92 L 122.43 61.77 L 121.24 59.86 L 118.86 57.79 L 116.51 55.81 L 113.47 54.93 L 110.23 54.15 L 105.78 54.36 L 102.58 54.85 L 99.04 56.33 L 94.38 57.81 L 91.33 59.95 L 88.86 62.17 L 87.01 63.58 L 85.68 64.74 L 82.40 66.94 L 81.07 68.27 L 78.60 70.04 L 75.68 71.28 L 70.99 74.20 L 69.75 74.55 L 66.56 74.73 L 64.70 74.20 L 63.20 73.66 L 60.81 74.99 L 57.06 78.81 L 53.83 81.74 L 51.11 85.18 L 49.28 87.98 L 47.96 91.20 L 46.56 93.11 L 46.94 92.60 L 48.26 93.91 L 47.74 95.53 L 45.24 95.97 L 44.36 94.06 L 44.81 92.30 L 45.98 91.27 L 47.96 91.20 L 49.87 92.15 L 50.09 94.28 L 50.16 96.56 L 48.92 97.66 L 45.68 98.32 L 42.82 96.63 L 41.79 94.43 L 42.45 91.28 L 44.07 89.37 L 46.35 88.41 L 49.72 89.15 L 51.26 90.84 L 52.22 92.81 L 52.51 96.11 L 51.34 97.95 L 49.42 100.59 L 47.89 101.54 L 44.59 100.95 L 40.62 99.27 L 40.03 96.33 L 39.74 92.96 L 40.18 89.37 L 42.08 87.68 L 44.66 86.29 L 47.59 85.99 L 50.20 86.58 L 51.56 87.97 L 52.87 90.17 L 54.05 93.62 L 53.46 97.00 L 51.99 99.93 L 49.57 102.35 L 47.45 104.11 L 44.65 104.18 L 41.50 103.30 L 39.89 101.69 L 38.27 99.27 L 37.83 96.41 L 37.24 93.62 L 37.61 91.35 L 38.71 88.49 L 40.70 85.55 L 43.04 83.86 L 46.71 83.06 L 50.02 83.72 L 52.36 85.55 L 54.12 87.83 L 55.00 92.37 L 55.22 96.33 L 54.27 99.56 L 52.44 102.35 L 49.72 104.99 L 47.52 106.75 L 45.17 107.48 L 42.38 107.19 L 39.45 105.80 L 37.90 103.38 L 36.14 101.03 L 35.33 97.65 L 35.48 94.58 L 35.84 92.89 L 36.07 91.20 L 34.31 91.49 L 33.87 93.25 L 33.28 95.82 L 33.50 99.71 L 34.45 102.64 L 35.56 104.40 L 37.39 106.68 L 38.93 109.24 L 40.10 110.42 L 43.34 110.93 L 45.76 111.59 L 45.97 112.91 L 44.58 115.40 L 43.12 114.53 L 41.14 114.01 L 39.08 112.76 L 36.80 111.22 L 34.31 108.44 L 32.69 106.24 L 31.81 102.79 L 31.30 99.49 L 31.37 96.04 L 31.74 93.48 L 32.32 91.93 L 30.49 91.64 L 29.75 93.84 L 29.02 96.48 L 28.15 98.75 L 28.07 101.91 L 28.66 102.86 L 29.47 106.09 L 29.32 109.10 L 27.85 108.88 L 26.52 106.31 L 26.45 103.96 L 25.87 100.74 L 25.87 96.92 L 27.19 94.14 L 28.15 91.94 L 26.01 90.17 L 24.62 93.11 L 23.59 96.48 L 22.93 100.23 L 23.60 105.57 L 24.33 108.36 L 26.16 110.93 L 27.70 111.15 L 29.10 111.23 L 32.17 109.70 L 31.05 105.68 L 30.53 103.76 L 29.88 101.10 L 30.06 97.96 L 31.00 95.05 L 31.05 93.14 L 31.89 90.70 L 32.22 89.20 L 32.02 84.08 L 31.06 83.47 L 32.04 82.49 L 32.86 82.60 L 33.09 83.30 L 32.48 84.35 L 32.05 84.68 L 30.85 84.65 L 29.95 84.00 L 29.69 82.80 L 29.79 81.60 L 30.69 80.73 L 32.46 80.33 L 33.48 80.79 L 34.35 81.62 L 34.59 83.45 L 34.81 84.04 L 34.42 85.52 L 33.41 86.53 L 32.12 86.64 L 29.73 86.68 L 28.58 85.70 L 27.70 84.72 L 27.46 83.19 L 27.48 81.44 L 28.83 79.48 L 31.06 78.71 L 33.24 78.72 L 34.94 79.33 L 36.31 80.23 L 36.83 81.93 L 36.79 84.53 L 36.50 86.47 L 34.56 87.61 L 31.63 88.79 L 28.84 88.88 L 26.80 88.22 L 26.23 84.96 L 26.13 81.98 L 26.05 78.58 L 29.78 77.11 L 31.81 76.68 L 35.13 76.87 L 37.64 78.10 L 38.68 79.90 L 38.96 83.25 L 39.01 85.33 L 37.68 88.31 L 35.70 89.74 L 33.37 90.49 L 30.30 90.58 L 26.01 90.17 L 25.11 88.52 L 23.80 86.73 L 23.38 84.91 L 23.11 81.39 L 23.49 78.50 L 24.78 76.59 L 26.08 74.99 L 27.91 75.00 L 27.91 75.00 L 30.05 75.10 L 32.87 74.53 L 34.31 74.62 L 37.99 74.91 L 39.37 75.52 L 40.76 77.82 L 41.24 79.02 L 41.85 81.02 L 42.09 81.55 L 44.87 80.16 L 46.21 80.64 L 49.89 80.45 L 51.70 81.36 L 53.00 81.64 L 54.67 81.98 L 54.66 80.98 L 54.00 78.97 L 51.66 78.68 L 49.93 78.82 L 47.69 78.92 L 43.05 79.78 L 42.14 79.59 L 42.14 78.20 L 46.16 78.01 L 48.12 77.96 L 52.28 77.87 L 53.14 77.34 L 50.17 77.05 L 47.26 77.01 L 43.77 76.49 L 39.69 76.07 L 36.60 75.29 L 34.02 73.95 L 30.91 72.52 L 28.14 70.89 L 25.70 69.56 L 23.28 68.52 L 20.58 66.98 L 19.76 65.38 L 18.94 63.74 L 19.75 63.16 L 22.07 64.08 L 24.87 66.25 L 27.05 67.32 L 31.00 68.62 L 32.36 70.16 L 34.83 71.47 L 36.66 72.24 L 40.14 73.21 L 42.70 74.41 L 46.32 75.14 L 49.31 74.75 L 53.03 75.19 L 56.51 74.70 L 56.42 73.73 L 54.19 72.91 L 51.00 72.87 L 47.96 72.86 L 45.93 72.58 L 42.79 71.27 L 39.32 70.50 L 37.58 69.35 L 34.53 67.56 L 31.15 66.59 L 29.02 65.67 L 26.08 64.37 L 24.87 63.41 L 22.89 62.34 L 22.41 61.67 L 22.13 59.90 L 23.53 60.34 L 25.67 61.94 L 27.17 62.66 L 29.98 63.82 L 31.39 64.50 L 34.68 65.42 L 36.52 66.44 L 38.90 67.12 L 41.13 69.11 L 43.17 70.13 L 45.01 70.65 L 48.69 71.43 L 50.82 71.19 L 54.32 71.38 L 55.96 70.56 L 57.18 70.03 L 56.84 69.01 L 55.38 68.62 L 52.18 69.10 L 48.35 68.57 L 45.44 67.41 L 42.63 66.49 L 40.06 65.72 L 38.32 64.16 L 35.90 63.15 L 32.50 61.64 L 31.05 60.96 L 28.38 59.75 L 26.15 58.30 L 23.63 57.04 L 23.15 56.27 L 26.21 55.64 L 27.65 56.70 L 28.62 57.43 L 31.97 58.83 L 34.10 60.39 L 36.19 62.13 L 39.87 63.63 L 42.10 64.36 L 44.09 65.14 L 49.08 67.07 L 50.97 67.51 L 55.38 67.60 L 56.30 66.88 L 54.46 66.29 L 46.08 64.73 L 40.71 62.56 L 37.28 60.23 L 34.56 58.43 L 31.60 56.26 L 29.11 53.39 L 26.85 51.90 L 27.48 49.65 L 28.56 48.48 L 28.80 50.66 L 31.60 53.00 L 33.71 55.17 L 36.04 56.96 L 38.68 58.75 L 41.57 61.08 L 46.00 62.48 L 47.33 63.49 L 50.82 63.50 L 53.39 63.57 L 56.43 63.49 L 59.39 63.26 L 65.15 62.41 L 67.40 61.55 L 69.66 59.99 L 70.44 58.98 L 71.29 60.03 L 71.11 60.64 L 70.19 61.59 L 68.53 60.77 L 67.95 60.09 L 68.02 58.69 L 68.54 57.55 L 69.91 56.66 L 71.63 56.66 L 72.67 57.89 L 72.98 58.84 L 73.44 60.37 L 73.10 62.35 L 72.15 63.24 L 70.23 63.58 L 68.39 63.55 L 67.13 62.84 L 66.27 61.98 L 65.66 60.83 L 65.32 59.54 L 65.42 57.67 L 66.12 56.42 L 67.16 55.41 L 69.12 54.55 L 70.87 54.49 L 72.52 54.86 L 73.62 55.56 L 74.54 56.69 L 75.12 58.10 L 75.27 59.39 L 75.18 61.65 L 74.87 62.51 L 74.39 63.43 L 73.92 63.94 L 72.46 64.80 L 71.11 65.23 L 69.21 65.57 L 67.28 65.69 L 65.50 65.10 L 64.47 64.50 L 63.58 63.34 L 62.69 61.62 L 62.32 59.91 L 62.45 57.12 L 63.46 54.95 L 64.62 53.76 L 65.88 52.72 L 66.92 52.05 L 69.27 51.43 L 70.53 51.52 L 72.09 51.59 L 74.48 52.11 L 75.27 53.17 L 76.41 53.94 L 77.35 55.56 L 77.78 57.35 L 77.90 59.03 L 78.03 60.50 L 77.93 61.75 L 77.90 62.16 L 78.99 61.38 L 79.97 60.85 L 81.11 59.92 L 81.91 59.03 L 81.41 57.32 L 81.13 55.46 L 80.55 53.87 L 79.66 52.66 L 78.38 51.41 L 76.40 50.55 L 74.94 49.47 L 73.21 48.80 L 70.60 48.39 L 67.66 49.12 L 63.99 50.77 L 62.59 51.89 L 59.85 55.21 L 59.21 57.02 L 59.55 60.21 L 60.00 62.67 L 60.99 64.33 L 62.88 66.34 L 63.39 66.69 L 61.11 66.90 L 59.32 66.34 L 58.76 63.98 L 58.30 60.76 L 57.74 57.18 L 57.94 54.20 L 59.17 51.80 L 61.22 50.01 L 63.47 48.42 L 65.17 47.19 L 67.77 46.42 L 70.85 46.01 L 75.31 46.89 L 77.25 47.35 L 78.95 48.37 L 80.99 50.67 L 81.65 53.23 L 82.78 55.64 L 83.22 58.35 L 83.22 58.35 L 84.42 57.38 L 85.75 56.25 L 87.08 55.45 L 86.52 52.62 L 85.96 50.57 L 84.37 48.01 L 82.68 46.02 L 80.22 44.12 L 77.45 43.05 L 73.20 43.04 L 67.93 43.56 L 65.16 44.53 L 61.99 46.06 L 58.65 48.42 L 56.97 49.90 L 54.97 52.93 L 54.51 55.95 L 55.02 58.56 L 55.68 60.71 L 56.20 62.25 L 55.79 62.86 L 53.39 63.57 L 52.56 61.58 L 51.84 59.79 L 51.44 57.38 L 51.38 55.13 L 51.95 52.67 L 52.81 50.93 L 54.25 48.78 L 56.86 46.53 L 59.73 44.33 L 63.11 43.41 L 66.49 42.28 L 70.95 41.51 L 74.95 41.30 L 79.04 41.61 L 82.53 42.84 L 84.99 44.22 L 86.11 46.11 L 88.01 48.62 L 88.52 50.98 L 88.72 53.38 L 88.87 53.79 L 88.98 54.36 L 90.67 53.34 L 92.16 52.21 L 91.85 49.95 L 91.80 47.15 L 90.98 44.17 L 87.24 41.61 L 83.60 40.38 L 80.84 39.62 L 75.81 39.20 L 69.36 39.46 L 66.08 40.49 L 62.71 41.36 L 59.32 42.59 L 55.12 43.15 L 51.90 46.68 L 49.90 48.93 L 48.87 52.11 L 47.95 54.46 L 47.79 57.13 L 47.74 59.38 L 48.62 61.17 L 49.03 62.70 L 47.23 62.35 L 45.80 61.73 L 44.98 60.91 L 45.03 58.25 L 45.13 55.23 L 45.29 53.18 L 46.21 50.88 L 47.23 48.27 L 49.48 45.66 L 51.89 43.10 L 54.82 41.51 L 57.53 41.20 L 63.01 39.51 L 67.78 38.70 L 71.92 38.08 L 75.77 37.93 L 79.76 38.02 L 82.12 38.13 L 86.78 39.10 L 90.06 40.49 L 92.21 42.28 L 93.69 44.89 L 94.51 46.73 L 94.21 49.24 L 93.90 51.09 L 94.03 51.39 L 95.46 50.90 L 97.72 50.15 L 97.69 48.01 L 97.69 45.50 L 96.00 42.68 L 94.56 40.70 L 91.03 37.47 L 84.17 36.41 L 81.40 36.41 L 77.04 35.62 L 73.77 35.88 L 69.52 36.41 L 65.27 36.41 L 60.40 38.08 L 58.20 38.65 L 55.12 39.87 L 50.51 41.20 L 48.72 42.74 L 46.67 44.33 L 44.57 46.43 L 43.24 49.44 L 42.37 51.44 L 41.30 53.85 L 40.93 56.56 L 41.24 58.72 L 41.28 60.85 L 39.60 58.35 L 37.14 56.92 L 36.02 55.59 L 37.24 52.31 L 37.81 49.85 L 38.84 47.96 L 41.03 45.71 L 43.04 43.15 L 45.14 41.81 L 46.93 40.44 L 50.67 38.85 L 55.28 37.73 L 58.81 36.41 L 62.55 36.41 L 64.96 35.21 L 67.98 34.75 L 70.95 34.40 L 74.43 34.55 L 78.38 34.14 L 81.04 34.95 L 84.84 35.47 L 89.24 34.60 L 91.90 35.83 L 94.00 37.01 L 95.64 37.93 L 96.72 39.66 L 97.89 42.38 L 99.33 45.40 L 99.33 47.35 L 98.97 49.65 L 100.25 49.65 L 101.43 48.67 L 101.43 47.14 L 101.79 43.72 L 101.17 41.25 L 99.79 39.15 L 95.73 35.01 L 93.26 33.69 L 90.38 32.95 L 86.19 32.71 L 81.50 32.95 L 77.06 32.38 L 72.94 32.46 L 70.39 32.62 L 66.37 32.87 L 63.24 33.77 L 59.79 34.59 L 56.75 34.84 L 54.36 35.17 L 50.83 36.16 L 46.63 37.39 L 44.24 38.79 L 40.29 40.84 L 35.36 43.72 L 35.03 46.43 L 32.24 50.38 L 30.10 49.80 L 30.68 47.83 L 31.91 45.20 L 36.02 40.92 L 39.23 37.88 L 43.92 36.48 L 46.87 34.68 L 52.38 32.62 L 55.92 32.04 L 60.45 30.33 L 64.39 30.65 L 68.75 29.26 L 72.78 29.83 L 78.13 29.17 L 82.32 29.17 L 86.35 29.66 L 91.12 29.75 L 96.06 32.05 L 100.25 34.52 L 102.55 36.98 L 103.62 39.45 L 104.20 41.67 L 104.12 45.04 L 103.86 48.62 L 105.23 48.52 L 106.88 48.49 L 108.17 48.53 L 108.56 46.02 L 109.22 44.37 L 108.06 40.84 L 106.99 35.91 L 105.68 34.10 L 101.57 31.80 L 100.50 30.98 L 99.23 29.83 L 95.50 29.09 L 93.93 27.84 L 89.79 27.26 L 84.91 25.94 L 79.86 26.77 L 76.71 26.10 L 74.06 26.52 L 68.76 26.61 L 64.70 27.43 L 60.06 28.01 L 56.33 28.59 L 49.71 30.08 L 46.90 31.48 L 43.91 32.81 L 45.91 30.91 L 49.71 27.93 L 55.76 25.86 L 59.24 24.78 L 73.44 23.21 L 75.56 23.34 L 79.53 23.35 L 85.37 22.42 L 92.92 24.67 L 97.82 25.59 L 105.90 27.84 L 107.76 28.77 L 109.21 31.95 L 110.40 34.60 L 110.84 36.65 L 111.42 39.15 L 111.31 41.71 L 111.36 44.15 L 111.00 45.87 L 110.64 47.50 L 110.44 48.48 L 111.41 48.57 L 112.05 48.95 L 112.26 48.95 L 113.06 47.27 L 113.81 45.19 L 114.44 42.85 L 114.33 40.76 L 113.31 34.10 L 112.31 32.05 L 110.89 29.27 L 108.74 27.07 L 105.54 25.39 L 100.80 23.86 L 97.77 22.52 L 92.88 21.26 L 87.99 19.90 L 81.76 20.07 L 76.03 19.99 L 69.37 20.16 L 65.42 21.26 L 71.40 17.39 L 73.58 16.88 L 78.98 16.79 L 81.08 16.71 L 84.71 16.54 L 88.33 16.37 L 91.03 16.96 L 96.92 17.13 L 101.22 18.81 L 105.35 19.99 L 108.81 21.25 L 111.50 23.61 L 113.19 24.87 L 115.29 27.65 L 116.89 31.36 L 117.40 34.14 L 117.56 38.94 L 117.06 42.39 L 116.14 47.27 L 114.87 48.54 L 114.87 48.96 L 116.47 49.89 L 117.56 50.14 L 118.83 48.62 L 119.84 46.26 L 120.35 43.99 L 120.43 39.86 L 121.61 34.22 L 120.77 28.92 L 119.92 26.81 L 117.73 23.95 L 115.71 22.35 L 113.44 20.67 L 108.72 17.97 L 102.15 15.36 L 98.02 14.60 L 90.86 14.18 L 88.10 13.81 L 94.95 12.72 L 101.20 12.80 L 105.59 12.97 L 109.40 13.40 L 114.22 14.91 L 116.42 16.86 L 119.63 19.81 L 121.41 22.43 L 122.42 25.05 L 123.86 29.19 L 124.28 33.34 L 124.36 35.70 L 123.33 39.75 L 122.79 44.69 L 122.52 46.79 L 121.34 49.25 L 120.87 50.23 L 120.43 51.36 L 119.97 52.10 L 120.69 52.75 L 122.08 52.47 L 122.70 51.38 L 126.57 49.22 L 129.78 47.44 L 133.24 43.05 L 133.41 41.95 L 134.08 39.59 L 132.57 38.66 L 131.38 40.85 L 130.79 42.80 L 132.40 44.57 L 133.24 44.31 L 135.18 43.13 L 135.87 40.18 L 135.44 36.46 L 133.15 35.96 L 131.72 37.22 L 129.10 41.19 L 128.76 42.97 L 129.61 44.99 L 131.55 46.01 L 134.09 45.59 L 137.38 44.74 L 137.98 42.62 L 138.40 39.50 L 137.89 34.68 L 135.02 34.18 L 130.71 34.43 L 130.37 34.60 L 128.42 37.81 L 126.57 41.36 L 126.73 44.24 L 127.58 45.92 L 129.86 47.36 L 132.57 47.61 L 137.56 47.52 L 139.41 44.82 L 140.09 42.63 L 140.85 35.95 L 140.69 33.08 L 137.56 31.90 L 133.84 31.22 L 130.53 32.15 L 127.15 34.35 L 125.89 37.81 L 125.63 38.15 L 125.04 40.77 L 124.45 45.76 L 125.63 48.80 L 128.42 50.57 L 130.88 51.16 L 135.78 50.90 L 137.30 50.57 L 140.34 48.97 L 141.62 47.87 L 142.96 44.15 L 143.72 41.61 L 143.98 38.40 L 143.98 33.51 L 143.05 30.89 L 140.43 29.02 L 135.52 28.94 L 130.96 29.28 L 129.10 29.95 L 125.72 31.31 L 124.96 28.35 L 124.71 26.57 L 126.99 26.07 L 129.69 26.07 L 134.08 25.82 L 138.23 25.56 L 140.26 25.82 L 142.62 26.24 L 145.25 28.77 L 145.75 30.80 L 146.26 34.52 L 146.52 39.00 L 145.93 43.39 L 145.00 46.60 L 143.39 49.56 L 141.86 51.16 L 139.92 52.68 L 136.62 53.53 L 134.51 53.78 L 130.45 53.36 L 127.50 53.36 L 125.97 52.93 L 124.37 52.35 L 122.92 53.87 L 123.35 54.03 L 125.38 55.05 L 126.65 55.97 L 128.25 56.83 L 128.45 58.76 L 129.41 59.96 L 129.75 62.52 L 129.83 64.92 L 130.18 66.53 L 132.23 67.56 L 133.51 67.21 L 135.39 66.19 L 136.75 66.19 L 137.52 66.70 L 137.27 67.90 L 135.73 68.41 L 133.94 67.47 L 133.42 65.51 L 134.19 64.14 L 135.48 63.54 L 137.95 63.38 L 140.60 65.08 L 140.00 66.79 L 139.06 69.35 L 136.33 71.23 L 132.31 70.46 L 131.97 69.18 L 129.92 67.81 L 130.94 65.34 L 131.46 63.71 L 133.85 62.52 L 136.07 60.98 L 139.40 62.01 L 141.02 63.72 L 141.96 64.91 L 142.13 66.96 L 141.62 69.18 L 140.79 71.12 L 138.47 73.02 L 136.06 72.93 L 133.39 72.59 L 129.78 70.87 L 129.18 70.26 L 128.75 72.84 L 127.63 75.25 L 126.34 76.88 L 125.91 78.26 L 127.88 77.57 L 129.70 77.14 L 130.38 77.06 L 130.04 76.45 L 129.86 74.99 L 130.13 73.79 L 130.29 73.71 L 132.36 75.68 L 132.53 76.03 L 133.31 76.37 L 133.39 75.25 L 133.31 74.65 L 135.28 75.51 L 138.21 75.68 L 138.38 75.68 L 141.56 75.16 L 142.17 74.73 L 143.11 72.93 L 144.32 70.87 L 145.52 67.95 L 144.92 64.85 L 143.97 62.35 L 143.28 60.55 L 141.74 59.18 L 139.58 58.40 L 137.01 58.40 L 134.85 58.58 L 131.42 59.95 L 130.64 60.63 L 130.30 59.52 L 130.04 58.23 L 129.87 57.54 L 132.19 56.34 L 136.15 55.31 L 138.47 55.31 L 140.96 55.74 L 143.45 56.85 L 144.75 57.88 L 145.18 60.55 L 146.55 62.53 L 147.30 65.32 L 147.25 68.40 L 146.59 70.77 L 148.43 69.01 L 149.26 70.07 L 150.35 70.59 L 152.64 72.06 L 154.61 73.11 L 156.33 73.97 L 158.14 74.19 L 160.51 74.71 L 157.88 77.29 L 157.16 77.74 L 156.23 77.96 L 155.62 76.87 L 154.94 75.37 L 153.22 73.79 L 152.01 72.85 L 149.94 72.29 L 148.20 71.83 L 146.31 71.71 L 145.95 72.94 L 150.71 74.40 L 152.23 76.62 L 153.94 78.67 L 154.59 81.01 L 155.58 81.28 L 158.13 78.89 L 160.20 76.60 L 163.21 75.45 L 164.46 72.03 L 165.55 66.14 L 167.29 59.93 L 169.47 52.63 L 171.09 53.42 L 170.38 54.79 L 168.57 55.33 L 166.87 54.35 L 165.93 52.98 L 166.49 51.44 L 167.75 50.45 L 170.33 49.68 L 173.29 50.51 L 173.67 51.89 L 173.95 55.39 L 173.29 56.44 L 171.04 58.19 L 167.53 58.19 L 165.77 58.14 L 162.92 56.17 L 162.70 52.82 L 162.97 49.52 L 164.62 48.59 L 168.46 47.22 L 170.72 46.98 L 169.24 44.15 L 168.79 43.70 L 165.92 44.95 L 164.13 46.32 L 162.88 47.29 L 161.26 49.47 L 160.64 51.67 L 160.23 54.05 L 160.57 56.51 L 161.12 57.64 L 163.02 59.51 L 164.13 60.51 L 166.20 60.86 L 169.34 61.13 L 171.45 60.69 L 174.32 59.13 L 175.80 57.58 L 176.76 55.68 L 178.18 56.02 L 178.95 57.92 L 179.19 59.61 L 178.43 61.31 L 174.18 64.73 L 171.80 65.67 L 169.69 66.17 L 165.81 66.39 L 163.10 65.56 L 160.93 64.35 L 158.83 62.96 L 157.38 60.91 L 156.33 56.69 L 156.77 52.43 L 157.55 50.54 L 158.77 48.33 L 160.16 46.50 L 163.21 44.39 L 166.03 42.51 L 166.48 41.79 L 166.32 41.62 L 162.76 43.34 L 158.61 45.23 L 156.49 48.22 L 154.67 51.20 L 153.06 54.92 L 152.73 59.74 L 153.06 62.46 L 154.56 64.95 L 158.21 66.23 L 161.26 67.67 L 164.82 68.44 L 167.31 68.39 L 169.81 67.67 L 174.52 66.45 L 178.01 65.28 L 179.18 64.01 L 180.45 63.07 L 178.84 66.95 L 177.07 69.00 L 173.35 70.67 L 168.70 71.49 L 165.04 71.88 L 162.15 71.83 L 159.27 71.71 L 155.88 70.28 L 153.22 68.72 L 151.11 66.67 L 149.51 63.90 L 149.40 59.30 L 149.56 54.20 L 151.01 52.37 L 152.83 48.99 L 154.95 46.00 L 157.10 44.28 L 161.93 40.74 L 163.22 40.04 L 163.74 38.40 L 163.26 37.53 L 161.55 36.90 L 160.50 37.57 L 157.63 39.94 L 156.45 41.05 L 154.22 42.76 L 152.79 44.06 L 151.82 45.00 L 149.89 46.94 L 148.83 48.41 L 147.96 50.02 L 146.76 52.70 L 146.20 54.84 L 145.84 56.88 L 145.74 57.61 L 144.86 55.86 L 143.92 55.26 L 142.51 54.88 L 144.23 52.66 L 145.39 51.61 L 146.16 50.31 L 147.15 48.32 L 148.71 46.45 L 149.83 43.77 L 151.56 42.22 L 153.71 39.75 L 154.81 38.82 L 156.18 37.77 L 156.98 36.69 L 157.42 36.06 L 157.87 35.33 L 157.91 34.18 L 157.85 32.87 L 156.82 33.27 L 154.83 34.58 L 153.61 35.93 L 151.61 38.64 L 149.74 40.85 L 148.75 42.23 L 147.06 44.49 L 147.11 44.45 L 147.57 42.60 L 148.46 40.12 L 148.52 37.62 L 148.63 34.80 L 148.35 28.04 L 145.84 25.19 L 141.44 23.72 L 137.04 23.25 L 131.99 23.48 L 128.77 23.06 L 125.18 21.59 L 119.56 16.51 L 127.30 18.45 L 136.14 20.62 L 145.84 25.19 L 150.55 29.09 L 157.85 32.87 L 160.83 36.41 L 164.87 37.62 L 171.21 44.96 L 173.36 49.53 L 178.09 55.26 L 181.26 64.04 L 181.95 66.82 L 180.09 69.70 L 176.58 72.18 L 173.16 74.44 L 167.88 76.07 L 162.82 77.54 L 159.40 80.03 L 156.60 83.45 L 155.43 86.32 L 155.39 89.53 L 155.08 92.08 L 154.15 95.39 L 152.72 97.40 L 149.81 99.57 L 147.20 100.90 L 144.24 101.98 L 139.36 104.11 L 136.50 104.14 L 134.46 103.64 L 132.88 102.78 L 130.46 102.56 L 128.41 102.44 L 125.46 102.03 L 123.01 102.31 L 120.75 102.81 L 118.95 103.58 L 116.38 105.97 L 112.53 106.90 L 109.76 106.31 L 106.98 106.18 L 104.96 106.74 L 103.44 108.40 L 100.98 110.26 L 96.37 113.06 L 91.83 115.45 L 85.46 115.74 L 82.07 115.00 L 70.96 115.14 L 63.86 114.50 L 56.75 113.69 L 52.39 115.33 L 49.17 116.41 L 46.01 117.94 L 43.78 118.10 L 42.21 117.72 L 40.37 117.12 L 38.42 116.00 L 36.76 114.95 L 35.84 113.70 L 35.49 112.62 L 34.82 111.23 L 33.91 110.39 L 33.64 109.52 L 32.51 109.00 L 30.65 108.52 L 28.82 108.46 L 27.64 108.46 L 26.77 108.48 L 26.39 109.46 L 26.67 110.19 L 27.82 110.26 L 29.28 110.23 L 30.64 110.46 L 31.25 110.86 L 32.37 112.45 L 32.80 113.25 L 33.07 115.04 L 33.48 116.06 L 34.62 116.90 L 36.43 117.45 L 37.29 117.62 L 37.61 117.83 L 35.96 117.88 L 34.15 118.05 L 33.31 118.11 L 31.63 117.58 L 30.52 116.16 L 30.26 115.05 L 29.42 113.39 L 28.89 112.67 L 27.46 112.13 L 26.35 112.11 L 26.01 112.19 L 24.22 112.29 L 23.19 111.65 L 22.43 110.73 L 21.76 108.02 L 21.49 104.54 L 21.09 101.75 L 21.04 99.28 L 21.31 94.87 L 22.80 91.70 L 23.77 90.03 L 21.57 86.59 L 20.96 82.46 L 21.22 78.41 L 23.86 73.31 L 27.38 72.69 L 23.59 71.48 L 21.59 70.99 L 19.76 70.22 L 18.55 68.28 L 18.55 68.28 L 16.28 73.16 L 15.39 77.58 L 14.90 79.52 L 14.17 83.17 L 12.45 93.52 L 11.92 100.79 L 12.01 106.29 L 13.07 111.07 L 13.78 114.97 L 14.76 116.74 L 15.91 114.17 L 16.18 110.53 L 16.27 105.13 L 16.00 101.85 L 15.82 95.48 L 16.26 92.55 L 17.42 86.00 L 17.41 82.80 L 17.82 78.24 L 19.76 71.86 L 21.36 73.56 L 19.76 75.97 L 19.76 79.80 L 19.26 86.24 L 19.17 90.21 L 18.79 96.06 L 18.71 101.38 L 18.36 104.20 L 18.78 106.70 L 19.00 111.89 L 20.41 114.81 L 22.21 114.92 L 25.75 115.04 L 27.54 115.93 L 28.21 117.73 L 29.79 118.85 L 32.49 119.25 L 38.06 121.75 L 41.86 121.21 L 43.03 121.21 L 43.60 122.93 L 44.29 125.68 L 44.14 127.66 L 43.75 129.27 L 42.92 131.25 L 41.31 133.70 L 40.85 134.61 L 40.70 135.83 L 42.15 135.61 L 42.61 136.83 L 42.07 138.12 L 40.39 138.50 L 38.49 137.97 L 37.72 136.52 L 37.64 134.46 L 38.48 133.08 L 39.93 132.78 L 41.62 132.62 L 43.47 132.72 L 44.22 133.30 L 44.98 133.88 L 45.37 135.27 L 45.50 136.75 L 45.37 138.29 L 44.26 140.19 L 43.25 141.65 L 41.62 141.95 L 39.78 141.77 L 38.20 141.34 L 36.75 140.77 L 35.54 139.77 L 34.96 138.81 L 34.84 137.45 L 34.63 136.36 L 34.88 134.12 L 35.75 132.88 L 36.81 131.46 L 37.60 131.13 L 38.75 130.58 L 39.99 130.31 L 41.23 129.94 L 42.32 129.83 L 43.33 130.26 L 44.61 130.73 L 45.37 131.43 L 46.77 132.36 L 48.31 133.69 L 48.18 135.36 L 48.58 137.26 L 48.36 138.81 L 47.52 140.93 L 46.88 141.84 L 45.49 143.15 L 43.91 144.21 L 42.30 144.73 L 40.33 144.97 L 38.17 144.79 L 36.59 144.24 L 35.23 143.78 L 34.05 143.00 L 33.04 142.09 L 32.10 140.75 L 31.76 139.05 L 31.34 136.96 L 31.68 135.10 L 31.92 133.46 L 32.77 132.03 L 33.47 130.50 L 35.21 129.35 L 36.70 128.59 L 39.40 127.84 L 41.73 127.35 L 44.15 127.54 L 45.93 127.84 L 47.48 129.06 L 49.97 131.84 L 51.38 134.61 L 51.14 137.24 L 50.60 140.07 L 49.59 142.02 L 46.71 144.89 L 43.29 146.25 L 38.96 147.43 L 35.64 146.94 L 31.79 146.11 L 29.79 144.50 L 28.43 140.94 L 28.09 138.37 L 28.38 134.23 L 29.85 130.67 L 32.33 128.33 L 33.94 127.16 L 37.20 125.07 L 39.50 124.57 L 41.88 123.75 L 43.69 123.30 L 45.54 123.17 L 44.03 122.14 L 41.86 121.21 L 38.06 121.75 L 33.89 123.26 L 29.90 125.75 L 28.62 126.97 L 26.29 130.62 L 24.78 135.98 L 25.02 140.07 L 25.50 142.51 L 26.77 145.48 L 26.92 146.99 L 24.77 147.43 L 23.99 145.18 L 23.31 141.96 L 22.77 137.83 L 22.73 135.49 L 23.22 133.30 L 24.39 129.69 L 26.14 127.55 L 28.29 124.38 L 31.06 122.05 L 32.27 121.28 L 28.12 120.74 L 26.35 119.08 L 24.70 117.42 L 21.76 116.59 L 18.53 116.24 L 17.21 115.46 L 15.45 119.42 L 13.88 118.93 L 14.92 122.15 L 18.33 118.99 L 22.00 119.08 L 23.91 120.64 L 26.65 121.82 L 27.14 122.99 L 22.49 121.96 L 20.49 121.48 L 17.80 123.09 L 15.30 126.02 L 18.48 126.41 L 19.76 124.95 L 21.81 124.21 L 23.37 124.45 L 25.48 125.29 L 23.23 126.85 L 19.75 127.93 L 17.95 129.19 L 17.40 130.42 L 18.58 131.00 L 22.44 129.88 L 22.98 129.78 L 21.17 133.35 L 19.75 135.21 L 19.76 137.60 L 20.83 139.17 L 25.32 145.41 L 27.48 149.79 L 28.62 147.92 L 31.87 147.62 L 34.77 148.56 L 37.09 149.45 L 40.78 149.29 L 44.82 148.16 L 48.86 146.04 L 45.81 149.24 L 42.90 150.08 L 37.68 151.31 L 33.00 151.12 L 30.19 150.73 L 28.32 151.90 L 28.32 151.90 L 30.84 155.50 L 31.72 156.33 L 34.33 157.07 L 33.39 153.38 L 38.27 154.07 L 41.98 153.09 L 45.07 151.60 L 46.87 150.48 L 49.17 148.81 L 50.82 146.56 L 52.25 143.93 L 52.25 140.50 L 52.61 138.58 L 52.92 137.04 L 53.10 135.43 L 52.95 134.18 L 52.27 132.95 L 51.30 131.68 L 50.38 131.00 L 49.47 129.47 L 48.35 127.97 L 47.56 126.88 L 46.00 125.71 L 46.57 124.21 L 46.13 122.71 L 46.03 119.90 L 45.94 116.95 L 46.34 114.94 L 47.29 110.79 L 48.49 108.59 L 49.94 106.24 L 51.48 103.27 L 51.87 100.05 L 53.06 96.62 L 53.19 94.72 L 53.24 92.81 L 53.12 91.24 L 52.96 89.44 L 52.74 87.74 L 52.30 86.26 L 51.85 84.41 L 51.47 83.64 L 51.25 82.33 L 50.93 81.79 L 51.53 83.49 L 52.08 85.29 L 52.60 87.55 L 53.17 88.90 L 53.13 91.16 L 53.30 92.91 L 53.16 95.09 L 53.16 97.30 L 52.70 99.36 L 53.98 97.36 L 55.73 96.02 L 56.55 93.61 L 56.65 91.87 L 56.44 89.15 L 56.19 87.51 L 55.72 85.76 L 55.68 84.40 L 56.19 82.33 L 55.88 79.51 L 55.57 77.15 L 54.70 75.19 L 53.78 73.55 L 52.85 72.68 L 54.34 75.09 L 55.16 78.12 L 55.98 79.87 L 56.24 83.25 L 56.70 87.05 L 56.60 90.12 L 56.54 94.02 L 56.50 95.46 L 57.88 92.07 L 58.19 90.02 L 58.75 87.97 L 59.01 85.35 L 58.85 82.33 L 58.50 80.22 L 58.19 78.79 L 56.90 76.73 L 58.03 78.68 L 58.24 80.79 L 59.16 83.66 L 59.42 85.40 L 58.86 88.69 L 58.70 91.05 L 58.19 93.30 L 59.57 92.54 L 60.40 89.10 L 60.96 86.43 L 60.81 84.38 L 60.70 80.07 L 60.29 77.81 L 59.42 75.10 L 58.50 71.64 L 58.19 69.28 L 58.14 66.35 L 58.24 62.50 L 59.82 58.40 L 61.01 54.48 L 61.63 51.48 L 62.67 48.06 L 62.52 45.21 L 62.72 42.98 L 62.68 48.06 L 61.95 50.86 L 61.25 53.67 L 60.44 55.99 L 59.68 58.79 L 58.06 65.65 L 58.06 71.49 L 59.22 73.69 L 60.27 77.32 L 60.58 78.74 L 62.07 80.16 L 62.73 83.67 L 62.30 85.89 L 62.02 87.66 L 61.21 91.36 L 60.03 93.77 L 59.22 95.88 L 56.77 97.63 L 55.60 99.47 L 55.03 101.38 L 53.63 103.10 L 52.45 105.33 L 50.99 107.60 L 50.04 109.94 L 49.22 112.11 L 48.29 114.81 L 47.91 116.99 L 47.91 119.87 L 48.32 124.16 L 48.92 126.35 L 50.46 127.94 L 51.99 129.91 L 53.42 131.34 L 54.90 132.93 L 55.55 134.73 L 55.55 138.58 L 53.79 145.07 L 52.21 147.26 L 49.50 151.02 L 47.13 152.78 L 42.92 155.32 L 39.24 156.46 L 34.58 159.27 L 36.17 160.58 L 39.24 159.97 L 43.44 158.21 L 45.99 156.38 L 48.97 154.09 L 52.48 151.64 L 53.53 149.02 L 55.55 143.31 L 58.18 139.46 L 57.65 135.08 L 56.51 132.36 L 54.75 130.43 L 52.56 127.02 L 51.16 123.68 L 50.37 120.44 L 49.44 117.63 L 49.76 113.86 L 51.03 111.44 L 52.50 109.13 L 54.63 105.38 L 56.48 101.76 L 58.07 99.30 L 59.66 97.09 L 61.95 93.65 L 59.12 99.03 L 57.01 101.94 L 54.62 105.29 L 53.13 108.39 L 52.33 111.38 L 51.18 115.00 L 51.35 117.12 L 52.94 120.74 L 52.86 118.53 L 52.86 113.94 L 53.57 111.65 L 56.22 107.68 L 56.92 105.30 L 58.86 102.47 L 60.45 99.65 L 61.16 96.73 L 63.27 91.44 L 63.81 87.29 L 64.04 82.00 L 64.04 79.06 L 63.04 77.29 L 61.66 75.80 L 60.77 73.92 L 59.56 71.54 L 59.37 66.45 L 59.36 64.68 L 59.74 62.63 L 60.13 61.11 L 59.47 64.72 L 59.64 67.32 L 59.95 68.78 L 60.37 70.37 L 61.17 71.97 L 61.62 72.84 L 62.73 74.40 L 63.26 75.30 L 64.15 76.76 L 65.27 78.91 L 66.45 80.79 L 66.40 80.51 L 66.01 84.57 L 65.01 88.90 L 64.73 92.12 L 64.12 94.06 L 63.17 96.84 L 62.56 98.90 L 62.66 99.06 L 63.25 97.88 L 64.52 96.31 L 64.96 95.63 L 65.37 94.84 L 65.83 93.34 L 66.20 91.40 L 66.35 90.17 L 66.71 89.95 L 66.77 87.63 L 66.86 86.12 L 67.27 84.79 L 67.60 82.82 L 67.60 81.18 L 67.12 78.73 L 66.29 77.44 L 65.70 76.54 L 65.00 75.32 L 64.18 72.69 L 64.81 74.47 L 65.48 76.01 L 66.99 77.14 L 67.44 79.13 L 68.25 80.75 L 68.49 82.60 L 68.67 85.17 L 68.67 87.62 L 68.08 90.88 L 67.48 92.81 L 66.49 95.63 L 64.98 98.72 L 63.79 100.12 L 64.58 101.08 L 66.38 97.88 L 68.73 94.12 L 69.86 91.26 L 70.54 86.54 L 70.31 83.40 L 69.86 81.10 L 68.74 77.06 L 67.61 75.77 L 68.96 77.85 L 69.80 80.32 L 70.48 83.12 L 70.64 88.51 L 70.65 90.64 L 69.92 94.06 L 69.14 95.30 L 68.34 97.20 L 66.66 100.40 L 63.24 104.51 L 59.57 108.83 L 57.89 112.82 L 58.28 117.14 L 59.44 120.75 L 59.68 122.18 L 62.67 132.39 L 63.91 135.99 L 62.67 142.80 L 59.56 147.40 L 58.54 150.90 L 57.06 153.78 L 55.52 156.34 L 51.75 159.57 L 49.69 156.21 L 50.96 154.80 L 52.81 153.77 L 54.22 151.72 L 55.59 149.73 L 56.82 147.47 L 58.55 144.55 L 59.58 141.77 L 60.31 137.23 L 59.89 134.34 L 58.34 130.84 L 56.38 128.16 L 54.42 125.28 L 52.10 122.25 L 50.69 117.98 L 51.49 119.68 L 52.80 121.60 L 53.89 122.65 L 55.40 124.57 L 55.40 121.86 L 54.89 118.43 L 54.95 116.56 L 55.66 112.29 L 56.63 109.45 L 58.83 106.48 L 60.32 102.77 L 62.13 100.44 L 64.39 97.99 L 67.36 94.30 L 67.50 91.27 L 68.01 88.42 L 66.72 93.33 L 65.30 97.34 L 62.58 100.45 L 61.09 103.35 L 60.57 105.36 L 58.64 108.98 L 57.34 112.54 L 56.57 117.51 L 56.76 120.48 L 57.35 123.07 L 59.02 129.02 L 59.61 130.31 L 61.68 133.80 L 61.80 133.80 L 61.16 129.21 L 59.28 127.27 L 59.02 121.78 L 59.80 119.19 L 60.83 113.25 L 61.68 109.50 L 63.75 106.78 L 65.17 105.16 L 66.79 103.42 L 68.28 101.16 L 69.64 98.89 L 69.95 97.60 L 70.54 95.66 L 71.83 93.20 L 72.09 90.68 L 71.70 88.29 L 72.02 91.91 L 72.09 93.34 L 72.28 96.96 L 71.51 100.90 L 69.57 103.61 L 67.49 105.55 L 66.46 106.91 L 65.81 109.88 L 66.52 110.79 L 67.56 109.11 L 67.76 108.40 L 69.70 105.55 L 72.09 103.68 L 73.13 100.32 L 73.19 98.12 L 73.19 101.29 L 73.70 106.59 L 74.54 109.11 L 75.85 111.82 L 76.81 113.37 L 78.30 115.25 L 78.75 115.77 L 80.88 117.32 L 81.21 119.00 L 81.79 120.68 L 79.27 118.93 L 77.13 116.22 L 75.19 114.73 L 72.47 109.63 L 72.09 107.24 L 72.02 105.55 L 69.31 109.37 L 68.79 112.47 L 70.54 116.02 L 72.48 117.38 L 75.61 120.54 L 77.05 122.11 L 79.00 123.94 L 79.38 128.80 L 79.21 132.90 L 78.04 134.38 L 77.76 135.72 L 77.50 137.14 L 77.35 138.59 L 77.12 142.47 L 77.50 144.63 L 77.17 147.26 L 77.94 150.17 L 77.73 152.06 L 77.43 154.30 L 74.78 155.01 L 72.53 154.01 L 72.49 150.83 L 73.30 148.07 L 72.62 144.60 L 73.31 143.04 L 72.83 139.82 L 74.00 135.30 L 75.11 133.47 L 76.53 131.27 L 76.15 125.11 L 74.71 122.52 L 69.65 119.01 L 68.68 117.84 L 67.96 114.73 L 67.83 112.14 L 68.16 111.03 L 68.49 109.15 L 69.26 107.86 L 70.11 106.69 L 70.82 105.39 L 71.21 104.81 L 69.14 106.04 L 65.83 108.44 L 64.46 109.87 L 62.13 113.89 L 61.48 119.59 L 61.15 122.06 L 62.84 126.34 L 63.55 128.68 L 64.40 130.88 L 65.63 132.70 L 66.48 133.41 L 67.19 134.77 L 67.71 137.75 L 67.51 141.07 L 66.02 143.72 L 63.49 147.04 L 61.56 148.06 L 60.26 149.58 L 59.96 152.29 L 58.82 154.13 L 58.82 157.06 L 57.98 159.34 L 59.87 160.06 L 60.71 159.02 L 61.76 155.57 L 63.06 152.57 L 65.47 149.19 L 65.62 147.08 L 67.69 143.27 L 68.85 139.85 L 69.37 134.42 L 67.81 131.75 L 65.41 128.75 L 62.52 122.26 L 62.58 118.95 L 62.92 116.07 L 64.16 111.42 L 64.93 108.43 L 66.60 105.78 L 69.45 101.83 L 66.67 114.12 L 66.56 117.14 L 67.61 121.00 L 70.42 122.46 L 72.30 124.22 L 73.54 125.17 L 73.75 132.25 L 71.98 136.09 L 70.13 142.30 L 68.65 148.91 L 68.54 154.01 L 69.27 156.93 L 70.84 160.25 L 68.75 160.57 L 65.84 156.40 L 66.67 151.93 L 67.43 146.64 L 69.70 138.57 L 71.98 130.16 L 69.80 124.64 L 67.08 121.83 L 64.79 118.50 L 65.79 111.47 L 65.08 112.84 L 64.26 119.47 L 65.21 128.28 L 65.37 130.85 L 64.91 133.71 L 65.99 135.34 L 65.10 142.69 L 63.25 149.27 L 63.44 156.88 L 65.67 158.45 L 69.04 159.05 L 72.18 159.05 L 73.96 160.36 L 75.32 160.67 L 80.21 160.05 L 81.05 157.96 L 81.05 152.14 L 79.69 146.10 L 79.28 141.20 L 79.90 137.86 L 81.72 130.17 L 81.78 126.19 L 80.89 122.88 L 78.03 119.54 L 74.38 116.21 L 72.50 113.60 L 71.25 110.06 L 72.04 112.82 L 74.17 115.89 L 76.88 118.70 L 79.07 120.58 L 81.98 122.14 L 84.07 128.08 L 83.76 136.93 L 82.09 140.78 L 80.73 144.43 L 81.78 148.80 L 82.82 154.95 L 82.09 157.76 L 82.30 158.80 L 83.34 155.88 L 83.44 146.51 L 83.96 143.39 L 85.63 138.29 L 86.57 131.10 L 85.43 124.43 L 83.55 120.16 L 82.50 117.35 L 81.57 115.48 L 83.34 117.04 L 85.32 119.01 L 85.63 122.14 L 86.57 124.54 L 87.11 127.45 L 93.03 127.59 L 93.45 128.56 L 92.27 128.47 L 90.79 128.62 L 88.02 128.65 L 88.26 130.47 L 89.03 131.07 L 89.88 131.03 L 91.18 130.99 L 92.27 131.15 L 92.11 132.08 L 91.42 132.37 L 90.45 132.16 L 89.03 132.25 L 88.26 132.21 L 88.98 133.87 L 89.24 133.88 L 90.17 134.08 L 91.37 134.07 L 91.89 135.68 L 91.37 135.62 L 90.08 135.43 L 88.65 135.75 L 89.17 136.98 L 90.01 137.04 L 92.21 137.04 L 92.60 138.08 L 92.41 139.11 L 90.41 139.14 L 88.20 139.31 L 87.29 141.41 L 86.47 143.39 L 85.63 147.03 L 85.63 151.19 L 85.95 156.41 L 85.64 158.91 L 81.34 161.14 L 70.58 155.86 L 71.23 144.83 L 71.11 139.71 L 68.74 132.48 L 67.79 129.38 L 66.92 127.86 L 66.26 126.39 L 65.82 124.58 L 65.70 122.86 L 65.27 121.31 L 67.55 124.25 L 68.86 125.81 L 69.58 127.03 L 70.13 128.64 L 70.64 130.80 L 70.97 131.90 L 71.44 133.16 L 71.99 133.92 L 73.00 135.91 L 75.18 140.22 L 74.98 144.92 L 74.98 148.26 L 74.70 151.59 L 75.70 153.25 L 76.59 155.99 L 80.13 154.82 L 79.68 157.54 L 81.53 159.70 L 87.49 159.74 L 86.02 161.52 L 78.17 161.68 L 72.30 159.91 L 66.04 159.88 L 58.40 158.21 L 51.99 158.40 L 46.07 158.22 L 39.24 159.97 L 35.06 162.31 L 37.80 162.89 L 43.47 162.40 L 53.14 162.29 L 63.76 162.96 L 70.40 162.72 L 74.73 163.61 L 81.54 164.58 L 86.81 162.78 L 90.83 162.17 L 100.21 160.25 L 111.34 160.17 L 118.15 160.72 L 127.28 160.88 L 136.30 162.64 L 145.51 162.72 L 151.68 162.88 L 159.77 164.57 L 157.37 166.24 L 153.12 167.20 L 150.24 165.84 L 145.43 165.68 L 141.98 165.44 L 136.46 164.58 L 133.89 164.57 L 131.41 164.58 L 125.96 162.96 L 123.00 162.32 L 120.36 162.32 L 114.99 162.32 L 110.90 162.24 L 106.42 162.88 L 97.60 162.72 L 93.84 163.60 L 88.63 165.76 L 74.25 168.44 L 65.28 168.44 L 58.10 167.55 L 49.00 167.93 L 45.02 167.93 L 48.10 170.61 L 54.52 170.75 L 56.18 170.75 L 66.56 170.62 L 70.28 170.75 L 78.61 171.00 L 82.46 170.36 L 87.33 168.57 L 91.04 167.41 L 94.76 166.52 L 102.07 166.26 L 107.58 166.52 L 109.50 166.52 L 116.42 166.26 L 126.29 164.58 L 134.37 167.80 L 142.05 168.92 L 149.23 168.92 L 150.68 169.33 L 151.65 170.21 L 150.44 171.83 L 145.84 171.91 L 140.36 171.91 L 137.05 171.26 L 133.02 169.73 L 129.46 169.08 L 126.24 168.93 L 123.02 169.33 L 116.48 170.22 L 111.96 170.38 L 105.91 170.13 L 103.33 169.90 L 100.27 170.22 L 92.68 171.18 L 90.10 172.07 L 76.10 173.03 L 74.16 174.07 L 66.55 174.58 L 62.54 174.71 L 57.13 175.09 L 57.13 175.09 L 61.13 177.94 L 63.70 178.96 L 69.12 178.58 L 75.58 177.03 L 79.58 176.00 L 92.62 175.48 L 96.75 175.22 L 101.01 174.06 L 106.81 173.29 L 120.63 173.55 L 130.17 173.55 L 133.02 173.55 L 135.21 174.07 L 138.70 174.84 L 141.67 174.84 L 144.76 174.71 L 144.76 174.71 L 134.44 178.71 L 130.95 179.22 L 121.78 177.68 L 117.53 177.94 L 111.46 177.93 L 107.20 177.93 L 103.20 178.06 L 98.16 179.22 L 79.06 180.26 L 74.80 180.77 L 71.97 181.42 L 71.97 181.42 L 71.19 183.35 L 78.16 184.12 L 80.48 184.51 L 83.20 184.77 L 91.20 184.77 L 94.55 185.42 L 98.56 183.48 L 105.14 181.41 L 113.27 180.38 L 115.72 180.13 L 120.88 180.25 L 126.69 181.29 L 129.27 182.58 L 121.01 184.25 L 115.33 184.38 L 107.97 185.03 L 102.43 186.32 L 99.84 187.09 L 95.97 187.60 L 108.50 189.60 L 111.33 186.96 L 115.72 186.45 L 122.24 187.21 L 129.50 185.03 L 133.99 183.33 L 137.14 179.61 L 138.82 178.57 L 142.58 179.29 L 148.39 175.88 L 150.44 171.83 L 156.35 170.17 L 158.57 165.41 L 161.83 162.23 L 161.83 162.23 L 161.77 150.00 L 162.60 150.81 L 162.97 151.44 L 162.36 152.83 L 161.78 152.83 L 160.34 153.07 L 159.46 152.90 L 158.17 152.29 L 157.84 151.11 L 157.70 149.79 L 158.08 148.34 L 158.58 147.67 L 160.53 146.89 L 163.00 147.23 L 163.89 147.30 L 164.52 147.74 L 165.33 148.64 L 166.11 149.96 L 166.18 151.07 L 165.88 152.46 L 165.09 153.57 L 163.71 155.83 L 162.30 156.44 L 160.36 156.84 L 159.56 156.74 L 157.40 156.00 L 156.45 155.77 L 155.58 155.40 L 154.73 153.67 L 154.43 152.96 L 154.19 152.02 L 154.02 150.13 L 154.02 148.95 L 154.12 147.73 L 154.83 146.48 L 155.37 145.88 L 155.74 145.30 L 157.23 144.42 L 158.78 144.02 L 160.13 143.65 L 161.24 143.58 L 162.23 143.62 L 163.41 143.79 L 164.01 144.25 L 165.64 144.80 L 166.78 145.40 L 167.70 146.28 L 168.34 147.16 L 168.95 148.44 L 169.72 150.06 L 169.96 151.65 L 170.14 153.45 L 168.42 155.18 L 166.69 157.56 L 165.23 158.80 L 163.23 159.99 L 158.91 160.74 L 157.67 160.80 L 154.86 159.34 L 153.45 158.26 L 152.27 156.69 L 151.78 154.64 L 151.35 152.59 L 150.97 149.84 L 150.91 147.57 L 151.89 145.52 L 152.26 144.60 L 152.26 144.60 L 153.78 142.71 L 154.69 142.28 L 157.02 141.58 L 158.48 141.15 L 161.02 141.09 L 162.64 141.20 L 163.88 141.47 L 164.64 141.74 L 166.25 142.06 L 168.74 143.35 L 169.99 144.28 L 170.58 145.14 L 171.39 148.11 L 171.71 148.98 L 171.93 149.83 L 172.20 150.80 L 173.24 149.63 L 173.93 148.20 L 173.50 147.25 L 172.55 145.01 L 171.77 143.19 L 170.99 142.16 L 169.35 140.77 L 166.76 139.82 L 163.13 139.31 L 159.06 139.31 L 155.70 139.74 L 153.88 140.16 L 151.98 141.12 L 148.78 147.60 L 148.78 150.02 L 148.95 150.88 L 149.90 156.57 L 149.90 156.57 L 152.23 160.12 L 152.75 162.02 L 148.17 161.33 L 148.17 161.33 L 130.29 158.94 L 121.97 158.36 L 114.66 158.43 L 107.93 158.94 L 102.72 158.68 L 96.02 159.73 L 89.45 160.43 L 89.50 159.07 L 88.72 158.03 L 91.24 158.36 L 94.67 157.26 L 98.68 156.36 L 102.88 156.36 L 107.14 155.97 L 109.92 156.04 L 113.48 156.04 L 116.32 156.35 L 119.74 156.42 L 122.85 156.68 L 125.76 157.00 L 128.99 157.01 L 132.03 157.07 L 136.75 157.52 L 138.56 158.04 L 140.88 158.11 L 140.88 158.11 L 140.24 156.49 L 138.55 156.23 L 137.59 156.42 L 132.03 157.07 L 128.99 157.01 L 127.18 155.71 L 127.18 155.71 L 124.59 154.74 L 122.14 154.67 L 118.52 154.94 L 116.90 155.26 L 113.86 155.06 L 111.80 155.13 L 110.83 155.20 L 108.17 154.74 L 105.40 155.32 L 103.52 155.00 L 101.19 155.00 L 98.41 155.26 L 94.86 155.78 L 92.79 155.97 L 88.39 155.71 L 87.56 155.00 L 87.30 154.16 L 87.17 152.74 L 86.46 150.61 L 87.10 150.35 L 88.40 152.22 L 89.69 153.19 L 91.57 153.26 L 94.08 153.32 L 96.02 153.38 L 97.25 153.39 L 98.48 153.20 L 100.03 153.06 L 101.33 153.19 L 106.24 153.84 L 106.88 153.97 L 112.51 153.58 L 116.97 153.97 L 118.46 153.96 L 121.23 153.64 L 124.46 153.90 L 127.37 154.42 L 129.83 155.13 L 133.13 156.16 L 135.52 156.55 L 135.13 155.97 L 131.64 155.26 L 129.57 154.16 L 128.02 153.58 L 126.66 153.06 L 122.33 152.94 L 119.36 152.87 L 116.90 153.00 L 114.64 153.06 L 112.32 152.81 L 110.63 152.87 L 109.15 152.74 L 105.85 152.80 L 101.45 152.55 L 98.67 152.48 L 94.86 152.68 L 91.63 152.61 L 89.75 151.13 L 88.33 150.09 L 87.75 148.99 L 87.69 147.77 L 88.07 145.77 L 88.20 144.86 L 88.30 140.42 L 88.57 136.94 L 88.57 133.88 L 88.42 130.60 L 88.49 127.49 L 87.91 124.71 L 87.82 121.49 L 86.69 119.07 L 85.39 117.00 L 87.94 117.30 L 91.71 116.39 L 95.34 115.05 L 99.28 113.10 L 102.52 111.37 L 104.82 109.55 L 106.51 107.73 L 109.94 107.08 L 111.98 107.94 L 114.32 109.42 L 116.15 109.77 L 117.49 108.99 L 118.58 107.47 L 119.14 106.64 L 121.09 104.82 L 123.35 103.70 L 126.78 103.70 L 128.30 104.09 L 130.64 104.56 L 133.07 105.82 L 134.59 106.52 L 138.15 106.21 L 138.89 105.91 L 140.67 105.35 L 144.52 104.47 L 147.66 103.20 L 151.03 101.76 L 153.69 100.19 L 156.05 98.88 L 157.72 96.61 L 158.69 92.42 L 160.10 88.86 L 159.65 85.80 L 161.41 83.48 L 162.60 80.48 L 166.78 78.78 L 170.19 77.85 L 174.01 76.66 L 177.49 75.87 L 179.34 74.45 L 181.25 72.76 L 183.52 71.48 L 185.85 72.99 L 184.65 74.60 L 183.37 76.16 L 179.41 78.14 L 176.49 79.06 L 168.56 80.34 L 167.14 81.11 L 164.16 83.95 L 163.24 86.64 L 162.74 89.62 L 162.60 90.90 L 162.81 94.08 L 162.60 96.14 L 160.76 98.97 L 158.56 100.67 L 155.51 102.44 L 152.04 104.64 L 146.15 106.70 L 142.75 107.05 L 139.49 108.40 L 135.02 108.68 L 131.20 108.75 L 128.57 108.47 L 125.09 106.91 L 121.55 107.55 L 118.51 110.88 L 116.73 112.57 L 110.70 113.64 L 109.50 112.93 L 108.79 111.09 L 106.66 111.09 L 103.61 112.79 L 102.55 114.06 L 100.80 115.93 L 95.73 117.86 L 93.35 118.30 L 90.56 118.49 L 87.77 118.62 L 87.28 119.03 L 87.52 120.85 L 88.99 120.87 L 91.55 120.46 L 93.26 119.74 L 94.51 119.43 L 96.87 119.79 L 99.28 120.95 L 99.28 120.95 L 101.22 122.56 L 103.19 124.19 L 103.90 126.16 L 102.08 126.62 L 99.28 126.89 L 97.52 127.07 L 95.22 127.11 L 95.22 127.11 L 93.55 127.02 L 91.84 126.76 L 90.85 126.66 L 89.99 126.39 L 89.54 125.99 L 89.13 125.40 L 88.73 124.72 L 88.50 123.87 L 88.55 122.34 L 90.67 121.98 L 91.30 121.85 L 94.05 121.48 L 95.45 121.35 L 97.25 121.80 L 98.78 122.57 L 99.73 123.61 L 100.36 124.55 L 100.95 125.36 L 100.95 125.86 L 99.19 126.39 L 98.33 126.53 L 97.79 125.99 L 96.75 125.04 L 95.76 123.92 L 93.96 123.69 L 92.74 123.69 L 91.53 123.91 L 91.03 124.14 L 90.62 125.27 L 90.62 125.27 L 91.62 125.58 L 92.74 125.22 L 93.24 125.18 L 94.77 125.58 L 94.77 125.58 L 95.67 126.62 L 96.37 127.09 L 97.52 127.07 L 97.52 127.07 L 99.28 126.89 L 101.49 127.16 L 102.99 126.39 L 103.90 126.16 L 104.96 124.91 L 104.69 123.28 L 103.88 122.12 L 103.07 121.57 L 101.85 120.94 L 100.18 120.04 L 98.78 119.55 L 97.25 119.24 L 95.69 119.61 L 99.96 117.88 L 103.07 118.47 L 104.51 120.27 L 105.59 122.56 L 106.36 122.79 L 107.12 123.24 L 106.74 123.02 L 105.82 120.27 L 104.69 117.47 L 103.20 116.98 L 101.67 117.07 L 101.67 117.07 L 103.38 115.94 L 105.82 116.08 L 107.21 117.25 L 107.53 118.96 L 107.48 122.07 L 108.40 123.25 L 109.76 122.97 L 112.71 121.84 L 111.86 120.76 L 109.15 119.68 L 108.61 117.12 L 107.62 115.31 L 105.86 114.64 L 104.91 114.63 L 104.06 114.82 L 104.49 114.72 L 106.00 113.38 L 108.16 112.57 L 108.52 113.29 L 109.60 115.22 L 109.78 116.08 L 110.86 117.61 L 111.45 117.88 L 112.04 118.56 L 113.25 119.63 L 113.80 120.89 L 114.11 121.67 L 114.58 124.56 L 114.58 124.56 L 115.18 125.61 L 117.40 125.27 L 116.37 123.56 L 115.78 121.13 L 114.92 119.50 L 114.02 118.06 L 112.90 117.07 L 112.90 117.07 L 114.97 115.81 L 115.47 115.04 L 117.40 114.09 L 118.13 113.74 L 118.89 113.19 L 119.39 112.52 L 120.70 111.03 L 121.82 109.99 L 123.71 109.32 L 126.64 109.18 L 128.23 110.00 L 130.02 110.58 L 132.51 110.53 L 134.67 110.04 L 135.30 109.91 L 139.58 109.62 L 143.33 109.98 L 145.93 109.12 L 149.03 108.11 L 152.35 107.24 L 155.23 106.81 L 157.32 105.29 L 159.56 103.78 L 161.72 101.83 L 163.03 100.11 L 163.75 98.88 L 164.83 96.64 L 165.40 92.39 L 165.35 90.82 L 167.08 89.38 L 169.69 88.22 L 172.87 86.92 L 174.25 84.31 L 177.14 82.43 L 179.46 82.00 L 181.48 81.71 L 184.31 80.63 L 187.29 78.07 L 186.33 82.22 L 185.69 84.46 L 181.48 84.75 L 180.69 84.82 L 177.58 88.30 L 174.54 89.81 L 172.94 90.03 L 171.20 90.46 L 168.89 92.78 L 168.02 95.89 L 167.45 98.42 L 166.07 101.46 L 165.05 103.05 L 163.61 105.22 L 158.50 110.59 L 150.26 111.52 L 150.26 111.52 L 143.33 109.98 L 142.24 111.29 L 135.38 112.91 L 135.38 112.91 L 130.85 113.96 L 126.90 113.26 L 123.99 112.79 L 122.48 112.68 L 117.25 118.48 L 115.78 121.13 L 117.08 122.53 L 116.29 125.43 L 117.40 125.27 L 117.40 125.27 L 121.79 123.71 L 122.39 119.41 L 124.42 117.80 L 126.78 116.28 L 128.87 117.79 L 134.22 117.67 L 136.66 117.67 L 142.47 116.39 L 145.49 113.26 L 151.42 113.37 L 155.49 113.95 L 158.16 113.03 L 161.99 110.70 L 166.41 107.57 L 168.51 105.13 L 169.78 100.37 L 171.44 98.35 L 172.58 97.19 L 172.72 95.31 L 174.70 93.96 L 175.75 91.51 L 180.64 90.46 L 180.64 90.46 L 183.44 86.96 L 187.17 87.20 L 187.40 89.99 L 186.82 93.14 L 184.02 96.05 L 179.71 94.89 L 179.71 94.89 L 176.48 97.75 L 173.32 102.65 L 171.05 106.47 L 168.16 107.94 L 165.49 113.53 L 162.68 115.05 L 158.95 116.33 L 155.22 117.50 L 148.57 117.61 L 145.42 119.83 L 137.49 122.51 L 132.37 123.33 L 130.61 123.32 L 127.93 122.39 L 125.14 123.44 L 123.04 126.00 L 120.94 127.87 L 119.54 129.15 L 118.86 132.33 L 120.82 132.42 L 122.34 130.55 L 123.96 128.57 L 130.16 128.54 L 132.53 126.47 L 142.51 125.31 L 143.91 124.72 L 147.29 124.02 L 150.20 122.04 L 152.31 121.46 L 153.59 121.34 L 159.07 120.53 L 160.23 119.71 L 164.55 117.96 L 165.83 116.33 L 169.80 112.61 L 170.97 110.97 L 174.23 108.87 L 177.85 105.50 L 181.69 99.66 L 185.65 98.85 L 187.76 99.20 L 187.87 102.93 L 184.61 103.63 L 180.18 108.87 L 179.13 110.85 L 176.45 112.84 L 172.01 118.31 L 167.12 120.64 L 165.60 121.46 L 158.48 124.37 L 156.38 124.84 L 146.83 127.87 L 146.83 127.87 L 143.35 127.91 L 139.40 128.36 L 137.90 128.42 L 136.22 128.54 L 134.40 128.42 L 134.89 131.33 L 135.55 133.11 L 138.78 132.65 L 145.19 131.71 L 147.87 130.66 L 151.26 130.09 L 154.52 129.27 L 159.77 127.75 L 162.80 126.36 L 170.03 122.97 L 172.95 121.35 L 176.33 119.48 L 180.53 116.57 L 182.75 113.18 L 185.08 109.92 L 186.47 112.37 L 185.89 115.17 L 184.37 118.31 L 180.76 121.58 L 171.66 127.98 L 169.92 128.45 L 163.73 128.92 L 159.77 130.20 L 155.69 132.99 L 151.38 134.52 L 148.11 135.21 L 143.92 135.29 L 141.31 135.14 L 139.64 135.33 L 136.60 136.38 L 137.56 140.62 L 143.56 140.69 L 146.94 139.52 L 148.93 137.89 L 151.72 136.49 L 162.57 134.28 L 165.02 132.88 L 169.80 130.55 L 174.00 130.20 L 176.21 129.27 L 180.65 126.36 L 183.33 124.49 L 183.33 124.49 L 186.35 125.38 L 182.04 129.50 L 178.19 131.95 L 172.48 134.74 L 168.17 135.33 L 162.57 136.26 L 158.60 138.01 L 150.81 139.70 L 145.42 141.85 L 140.85 142.46 L 140.14 145.57 L 144.06 144.93 L 147.07 146.79 L 148.36 143.87 L 151.31 140.76 L 154.71 138.86 L 163.90 138.04 L 167.81 137.31 L 170.32 135.04 L 176.91 135.22 L 180.06 135.21 L 182.38 136.24 L 182.38 136.24 L 182.38 136.24 L 175.87 137.66 L 173.18 138.48 L 172.02 139.64 L 173.88 140.68 L 175.05 141.27 L 174.81 143.72 L 174.81 143.72 L 173.93 148.20 L 170.05 152.55 L 167.56 156.37 L 165.23 158.80 L 161.82 161.12 L 164.23 159.39 L 157.53 162.61 L 152.97 163.15 L 147.70 162.78 L 144.59 162.71 L 143.77 159.70 L 148.73 159.31 L 147.83 156.08 L 147.68 154.13 L 146.93 150.75 L 146.78 149.39 L 143.70 147.66 L 142.82 147.28 L 140.24 146.84 L 139.94 148.34 L 140.39 153.00 L 140.39 153.00 L 140.76 154.80 L 143.32 157.13 L 143.32 157.13 L 144.00 158.78 L 146.85 158.03 L 146.85 155.10 L 145.65 151.35 L 144.67 149.31 L 142.49 150.22 L 142.19 153.07 L 143.54 153.68 L 144.98 156.45 L 145.89 152.10 L 142.33 151.72 L 140.46 155.81 L 139.72 158.07 L 136.71 159.79 L 128.39 158.81 L 111.29 158.68 L 92.79 155.97 L 88.39 155.71 L 87.75 151.29 L 87.72 148.38 L 89.12 144.33 L 88.22 143.29 L 88.31 142.16 L 88.74 141.15 L 89.30 140.72 L 89.82 141.52 L 89.30 145.50 L 89.39 148.90 L 89.54 150.23 L 90.86 151.17 L 91.05 150.18 L 90.96 146.49 L 90.96 144.17 L 91.19 140.39 L 91.91 140.44 L 91.90 142.65 L 91.86 146.92 L 92.04 150.04 L 92.85 151.41 L 94.93 151.56 L 97.59 151.65 L 99.43 151.37 L 99.59 150.12 L 98.03 150.12 L 95.74 150.00 L 94.12 150.06 L 94.12 148.83 L 97.81 149.16 L 100.10 149.00 L 100.66 147.66 L 99.77 146.93 L 97.92 147.21 L 96.02 146.87 L 94.51 146.88 L 94.51 146.88 L 93.45 145.59 L 93.95 144.92 L 93.95 144.92 L 96.47 144.64 L 97.42 144.75 L 98.76 144.92 L 99.48 144.92 L 99.88 143.91 L 99.65 143.24 L 98.59 143.08 L 98.59 143.08 L 96.08 142.97 L 95.07 142.96 L 94.17 143.08 L 94.17 143.08 L 93.22 141.68 L 93.22 141.68 L 94.00 140.90 L 96.58 141.12 L 96.58 141.12 L 98.76 141.00 L 99.43 141.12 L 99.43 139.50 L 98.53 139.00 L 97.70 138.83 L 96.41 138.99 L 94.68 139.22 L 94.01 139.00 L 94.01 139.00 L 93.89 137.93 L 93.84 136.48 L 95.63 136.59 L 97.59 136.93 L 98.37 136.98 L 98.37 136.98 L 99.04 136.99 L 98.65 135.42 L 98.65 135.42 L 95.12 135.25 L 93.45 135.14 L 92.83 134.47 L 95.01 131.62 L 96.02 129.10 L 96.58 128.38 L 97.70 128.37 L 96.80 130.50 L 96.19 131.45 L 94.62 133.75 L 94.62 133.75 L 93.45 135.14 L 95.12 135.25 L 95.12 135.25 L 96.80 132.74 L 96.80 132.74 L 99.04 129.72 L 99.09 128.21 L 100.94 127.88 L 101.33 129.27 L 99.54 131.12 L 98.42 132.57 L 96.89 135.33 L 96.89 135.33 L 97.92 135.38 L 98.65 135.42 L 100.77 131.90 L 101.33 131.28 L 103.23 129.05 L 103.46 127.88 L 104.74 126.75 L 106.64 124.86 L 108.04 123.51 L 108.04 123.51 L 109.44 126.87 L 107.37 126.31 L 106.53 126.37 L 104.74 126.75 L 105.41 127.61 L 107.48 127.60 L 108.88 127.77 L 109.33 128.94 L 107.15 129.27 L 104.20 128.72 L 104.20 128.72 L 103.09 130.21 L 105.60 130.12 L 109.27 130.11 L 109.27 130.11 L 110.61 131.12 L 110.61 131.12 L 108.65 131.78 L 105.83 131.22 L 103.01 131.06 L 101.33 131.28 L 102.00 132.12 L 105.83 132.42 L 107.93 132.51 L 109.94 132.63 L 111.23 132.85 L 111.11 133.80 L 108.88 133.65 L 105.90 133.39 L 103.38 133.15 L 101.21 132.95 L 100.71 134.13 L 100.71 134.13 L 103.88 134.47 L 106.53 134.97 L 111.68 135.36 L 111.68 135.36 L 111.78 136.52 L 105.97 136.37 L 103.29 135.98 L 101.50 135.75 L 101.50 135.75 L 99.77 136.14 L 102.39 136.88 L 103.85 137.21 L 107.46 137.40 L 110.35 137.59 L 112.18 137.88 L 111.23 138.66 L 106.48 138.27 L 103.62 138.49 L 101.72 138.54 L 100.32 138.32 L 100.32 138.32 L 100.37 139.74 L 102.63 139.71 L 106.98 139.67 L 109.38 139.89 L 110.89 140.05 L 112.23 140.00 L 111.89 141.36 L 111.04 141.64 L 109.41 141.43 L 108.78 141.33 L 107.30 141.33 L 106.17 141.44 L 104.75 141.30 L 103.94 141.16 L 103.09 141.01 L 101.61 140.84 L 100.55 140.66 L 100.20 140.73 L 100.34 141.61 L 100.39 142.30 L 100.39 142.30 L 101.72 142.27 L 102.57 142.36 L 103.32 142.36 L 103.17 143.66 L 100.79 143.48 L 100.79 143.48 L 100.98 144.02 L 100.97 144.86 L 100.82 145.20 L 102.14 145.32 L 103.08 145.21 L 103.08 145.21 L 103.13 146.14 L 101.00 146.12 L 101.00 146.12 L 101.07 146.90 L 103.24 147.12 L 103.24 147.12 L 103.98 147.33 L 103.94 147.72 L 103.66 148.11 L 102.49 147.79 L 101.10 147.95 L 101.10 147.95 L 101.24 148.66 L 103.24 148.95 L 104.01 149.13 L 103.87 149.63 L 101.86 149.69 L 101.00 149.89 L 100.97 150.35 L 100.97 150.35 L 102.81 150.61 L 103.83 150.61 L 105.25 150.58 L 106.13 150.54 L 107.33 151.28 L 108.14 151.71 L 108.57 151.81 L 109.13 151.74 L 109.13 151.74 L 112.74 151.46 L 112.74 151.46 L 111.43 151.03 L 109.34 150.82 L 108.74 150.47 L 108.74 150.47 L 108.99 149.94 L 111.78 149.66 L 111.78 149.66 L 111.33 149.34 L 109.01 149.00 L 109.01 149.00 L 109.15 148.40 L 111.14 148.12 L 112.01 147.96 L 111.70 147.32 L 109.59 147.08 L 109.10 147.12 L 109.10 145.99 L 109.10 145.99 L 110.55 146.20 L 111.68 146.09 L 111.68 146.09 L 111.46 145.28 L 109.35 145.04 L 108.99 144.83 L 109.06 144.09 L 111.15 144.47 L 111.60 144.44 L 111.60 144.44 L 111.43 143.55 L 109.45 143.06 L 109.45 143.06 L 109.31 142.67 L 111.04 142.53 L 111.04 142.53 L 112.13 142.74 L 112.17 142.18 L 112.06 140.68 L 112.13 139.14 L 113.05 137.48 L 112.69 138.15 L 113.02 142.04 L 112.77 144.26 L 112.67 145.39 L 112.66 147.55 L 112.77 149.34 L 112.84 150.05 L 112.74 151.46 L 113.05 152.66 L 113.97 152.06 L 113.97 152.06 L 113.34 147.65 L 113.55 145.63 L 113.73 144.12 L 113.72 141.12 L 113.83 139.21 L 114.11 138.36 L 114.11 138.36 L 114.64 141.02 L 114.57 142.60 L 114.36 146.03 L 114.43 147.61 L 114.43 150.18 L 114.50 151.39 L 114.89 152.52 L 114.89 152.52 L 115.10 150.30 L 115.07 147.44 L 115.03 143.52 L 115.17 140.94 L 115.14 139.25 L 116.16 138.29 L 116.41 140.21 L 116.30 142.04 L 115.95 145.71 L 115.95 149.49 L 116.06 151.77 L 115.88 152.87 L 116.48 153.40 L 116.94 152.80 L 117.25 149.66 L 117.22 146.80 L 117.43 143.34 L 117.50 139.99 L 117.71 138.36 L 118.42 138.83 L 118.74 140.34 L 118.20 144.63 L 117.98 146.73 L 117.75 149.55 L 117.79 150.26 L 117.79 151.39 L 117.85 152.34 L 117.85 152.34 L 119.27 152.59 L 119.15 151.84 L 119.09 149.89 L 119.09 147.79 L 119.17 146.10 L 119.20 144.08 L 119.27 141.83 L 119.34 139.42 L 119.98 139.00 L 120.61 139.60 L 120.29 142.35 L 120.19 144.12 L 120.22 147.16 L 120.33 149.59 L 120.03 151.01 L 119.80 152.77 L 120.47 152.38 L 120.82 150.54 L 120.95 147.74 L 120.89 144.46 L 120.99 142.17 L 120.94 141.21 L 121.02 140.28 L 120.96 139.49 L 120.96 138.83 L 121.02 137.42 L 121.07 136.78 L 121.03 136.17 L 119.94 134.38 L 118.86 132.33 L 117.89 130.58 L 116.75 128.35 L 115.78 126.67 L 114.58 124.56 L 113.67 122.69 L 112.89 122.62 L 113.79 124.61 L 114.52 125.94 L 115.42 127.75 L 116.38 130.04 L 117.41 131.43 L 118.56 133.24 L 119.53 135.29 L 120.19 136.55 L 120.99 138.13 L 120.04 138.34 L 119.39 137.49 L 118.73 135.76 L 117.95 134.50 L 117.00 132.95 L 115.93 131.44 L 115.36 130.16 L 115.00 129.26 L 113.83 127.30 L 113.37 125.17 L 112.61 124.26 L 112.12 122.89 L 111.47 122.74 L 112.27 125.63 L 113.03 126.73 L 113.64 128.43 L 114.59 130.17 L 115.08 131.51 L 115.65 133.06 L 116.37 133.97 L 116.87 135.15 L 117.70 136.90 L 118.50 138.07 L 117.28 138.06 L 116.95 137.35 L 116.30 136.08 L 115.64 134.99 L 115.37 134.01 L 114.73 132.54 L 114.26 131.49 L 114.26 131.49 L 113.45 129.76 L 113.02 128.73 L 112.49 127.42 L 111.95 126.51 L 111.47 124.90 L 111.10 124.21 L 110.74 123.46 L 110.52 122.92 L 109.76 122.97 L 110.95 125.26 L 111.17 126.33 L 111.79 128.02 L 112.44 129.08 L 112.94 130.82 L 113.70 132.69 L 114.42 134.04 L 115.24 135.50 L 115.78 136.96 L 116.16 138.29 L 114.89 138.01 L 114.41 136.53 L 113.89 135.26 L 112.95 133.51 L 112.16 132.02 L 111.77 130.32 L 111.34 129.24 L 111.13 128.50 L 110.58 127.11 L 110.41 126.36 L 109.83 125.43 L 109.54 124.25 L 108.99 123.27 L 108.40 123.25 L 109.28 125.14 L 109.64 126.51 L 109.90 127.90 L 110.55 129.34 L 110.79 130.13 L 111.18 131.49 L 111.78 132.84 L 112.11 134.70 L 112.40 135.95 L 113.05 137.48 L 113.31 138.27 L 115.23 138.37 L 118.34 138.39 L 120.51 138.23 L 122.23 137.91 L 123.69 135.30 L 124.63 133.14 L 125.32 131.49 L 125.66 130.06 L 125.99 128.73 L 126.26 127.30 L 126.85 125.10 L 127.15 121.60 L 127.75 117.85 L 129.31 112.47 L 129.88 108.61 L 130.70 104.57 L 131.47 101.42 L 131.87 97.45 L 132.11 93.51 L 132.28 87.33 L 132.39 84.88 L 132.28 93.83 L 132.02 99.43 L 131.97 102.21 L 131.67 106.12 L 131.92 108.21 L 132.04 111.48 L 132.61 116.18 L 133.97 119.25 L 134.99 120.63 L 134.95 124.40 L 134.85 127.16 L 132.97 127.03 L 132.94 125.36 L 133.01 122.16 L 132.86 119.58 L 131.75 116.41 L 131.47 114.27 L 131.26 109.77 L 131.13 107.59 L 131.19 105.48 L 130.58 112.11 L 129.69 115.87 L 128.96 119.57 L 132.13 119.71 L 134.48 119.94 L 126.67 120.13 L 126.81 127.27 L 134.85 127.16 L 132.78 127.14 L 131.01 126.96 L 128.95 127.15 L 126.88 127.19 L 127.21 127.25 L 126.64 129.21 L 126.45 131.32 L 125.95 133.05 L 125.15 134.56 L 124.41 136.36 L 123.89 137.41 L 122.85 138.59 L 123.57 138.83 L 124.65 138.58 L 125.37 137.56 L 125.83 136.60 L 126.35 134.82 L 126.64 133.91 L 127.12 132.62 L 127.51 130.99 L 127.70 129.70 L 127.67 128.69 L 127.76 127.73 L 127.84 126.99 L 128.99 127.01 L 129.30 127.22 L 128.68 128.90 L 128.48 130.27 L 128.10 131.69 L 127.91 132.62 L 127.64 134.25 L 127.24 135.42 L 126.95 136.38 L 126.26 137.75 L 126.02 138.25 L 125.73 138.87 L 126.13 139.28 L 126.76 139.20 L 126.76 139.20 L 127.48 138.35 L 128.17 136.43 L 128.66 134.92 L 129.02 133.44 L 129.23 131.69 L 129.40 129.60 L 129.54 128.54 L 129.69 127.71 L 129.90 126.73 L 130.89 126.75 L 130.16 128.54 L 130.11 129.69 L 129.95 131.32 L 129.81 132.48 L 129.51 134.05 L 129.11 136.58 L 128.87 137.46 L 128.25 138.83 L 128.06 139.23 L 128.25 139.49 L 129.20 139.39 L 129.37 138.55 L 129.73 137.35 L 130.14 135.75 L 130.33 134.71 L 130.45 133.63 L 130.69 132.35 L 130.81 131.29 L 131.18 128.78 L 131.30 127.90 L 131.47 126.94 L 131.51 126.74 L 132.13 126.75 L 131.96 130.14 L 131.65 131.80 L 131.49 134.15 L 131.34 136.55 L 130.72 138.28 L 130.06 139.36 L 131.35 139.57 L 131.35 139.57 L 132.07 137.24 L 132.07 137.24 L 132.30 135.88 L 132.42 134.71 L 132.46 133.65 L 132.42 132.28 L 132.45 131.41 L 132.57 130.57 L 132.57 129.05 L 132.70 128.27 L 132.35 127.18 L 133.37 127.27 L 133.51 128.89 L 133.69 130.83 L 133.49 133.40 L 133.41 135.66 L 133.26 137.40 L 133.16 138.75 L 132.83 139.76 L 133.80 139.75 L 134.21 138.30 L 134.38 136.47 L 134.40 135.02 L 134.35 130.25 L 134.45 127.50 L 135.36 134.39 L 135.37 136.64 L 135.19 138.75 L 135.13 139.72 L 136.26 139.19 L 136.03 134.99 L 136.82 140.09 L 130.58 140.83 L 128.64 140.79 L 128.72 141.99 L 133.96 142.26 L 136.12 142.37 L 137.22 142.34 L 137.63 143.88 L 133.58 143.50 L 131.31 143.77 L 129.26 143.50 L 129.26 143.50 L 128.99 144.80 L 130.07 145.12 L 132.07 145.17 L 133.57 145.06 L 136.17 145.39 L 137.47 145.34 L 137.52 146.57 L 135.57 146.52 L 133.58 146.47 L 130.93 146.15 L 130.12 145.88 L 129.21 145.88 L 129.31 147.23 L 131.53 147.87 L 132.88 147.93 L 135.20 147.92 L 136.33 148.03 L 137.47 148.04 L 137.68 149.33 L 134.93 149.44 L 134.01 149.01 L 131.64 148.63 L 129.26 148.41 L 129.58 150.25 L 131.58 150.51 L 133.36 150.67 L 135.14 150.62 L 136.71 150.89 L 137.68 150.78 L 137.68 152.19 L 135.47 152.35 L 132.98 151.81 L 131.09 151.92 L 129.74 151.32 L 128.89 151.33 L 129.31 152.67 L 131.91 153.48 L 132.82 153.86 L 135.14 154.13 L 136.38 154.02 L 137.46 154.29 L 137.46 155.10 L 135.09 155.27 L 131.09 154.97 L 129.57 154.16 L 128.61 153.00 L 128.24 152.76 L 127.73 152.18 L 125.05 152.05 L 123.26 152.01 L 121.70 151.92 L 121.16 151.91 L 121.43 151.10 L 123.49 151.24 L 125.09 151.37 L 126.88 151.31 L 127.97 151.55 L 128.07 150.66 L 126.44 150.36 L 124.38 150.29 L 122.75 150.19 L 121.60 150.19 L 121.60 148.87 L 123.56 149.38 L 125.26 149.58 L 127.42 149.58 L 128.41 149.68 L 128.17 148.64 L 126.10 148.30 L 123.36 148.03 L 122.04 147.82 L 121.64 147.35 L 121.94 146.53 L 123.94 147.25 L 125.39 147.01 L 126.61 147.48 L 127.87 147.69 L 127.97 146.57 L 126.61 146.47 L 124.17 145.96 L 122.82 146.00 L 121.60 145.79 L 121.70 144.91 L 125.12 145.31 L 126.34 145.35 L 127.66 145.56 L 127.93 144.84 L 126.64 144.16 L 124.08 144.24 L 122.45 144.27 L 121.53 143.83 L 121.63 142.74 L 123.09 143.26 L 124.78 143.25 L 126.58 143.29 L 127.53 143.52 L 127.66 142.65 L 125.49 142.47 L 123.77 142.27 L 122.75 142.24 L 121.90 141.97 L 121.81 140.92 L 123.57 141.22 L 125.90 141.29 L 126.88 141.43 L 127.59 141.46 L 127.83 140.41 L 126.20 140.61 L 124.17 140.48 L 122.35 140.28 L 121.60 139.73 L 121.83 139.90 L 125.46 139.93 L 128.25 139.49 L 131.73 140.31 L 135.19 140.93 L 137.55 140.85 L 137.50 141.47 L 137.62 142.45 L 137.83 144.39 L 137.85 147.31 L 138.04 149.80 L 137.99 153.24 L 138.03 155.30 L 138.23 156.97 L 141.02 157.21 L 138.26 157.46 L 140.40 158.59 L 146.33 160.47 L 150.03 160.72 L 154.01 161.94 L 158.38 163.50 L 162.55 161.74" 
          fill="none" 
          stroke="currentColor" 
          stroke-width="0.5"/>
</svg>