<?xml version="1.0" encoding="UTF-8" standalone="no"?>
<svg width="100%" height="100%" viewBox="0 0 200 200" preserveAspectRatio="xMidYMid meet" xmlns="http://www.w3.org/2000/svg">
    <path d="M 71.82 100.00 L 70.99 101.59 L 70.15 103.19 L 69.31 104.78 L 68.47 106.37 L 67.64 107.97 L 66.80 109.56 L 65.96 111.15 L 65.12 112.75 L 64.29 114.34 L 63.45 115.93 L 62.61 117.53 L 61.77 119.12 L 60.93 120.71 L 60.10 122.31 L 59.26 123.90 L 58.42 125.49 L 57.58 127.09 L 57.20 127.81 L 58.98 127.51 L 60.75 127.20 L 62.52 126.90 L 64.30 126.60 L 66.07 126.29 L 67.85 125.99 L 69.62 125.68 L 71.40 125.38 L 73.17 125.07 L 74.94 124.77 L 76.72 124.46 L 78.49 124.16 L 80.27 123.86 L 82.04 123.55 L 83.81 123.25 L 85.59 122.94 L 87.36 122.64 L 88.17 122.50 L 89.43 123.79 L 90.68 125.08 L 91.94 126.37 L 93.20 127.66 L 94.45 128.94 L 95.71 130.23 L 96.97 131.52 L 98.22 132.81 L 99.48 134.10 L 100.74 135.39 L 101.99 136.68 L 103.25 137.97 L 104.50 139.26 L 105.76 140.55 L 107.02 141.83 L 108.27 143.12 L 109.53 144.41 L 110.10 145.00 L 110.36 143.22 L 110.62 141.44 L 110.88 139.66 L 111.14 137.87 L 111.40 136.09 L 111.66 134.31 L 111.92 132.53 L 112.17 130.75 L 112.43 128.97 L 112.69 127.19 L 112.95 125.41 L 113.21 123.62 L 113.47 121.84 L 113.73 120.06 L 113.99 118.28 L 114.24 116.50 L 114.50 114.72 L 114.62 113.91 L 116.24 113.11 L 117.85 112.31 L 119.46 111.52 L 121.08 110.72 L 122.69 109.92 L 124.31 109.13 L 125.92 108.33 L 127.53 107.53 L 129.15 106.74 L 130.76 105.94 L 132.38 105.14 L 133.99 104.35 L 135.60 103.55 L 137.22 102.75 L 138.83 101.96 L 140.45 101.16 L 142.06 100.36 L 142.80 100.00 L 141.18 99.20 L 139.57 98.41 L 137.96 97.61 L 136.34 96.81 L 134.73 96.02 L 133.11 95.22 L 131.50 94.42 L 129.88 93.63 L 128.27 92.83 L 126.66 92.03 L 125.04 91.24 L 123.43 90.44 L 121.81 89.64 L 120.20 88.85 L 118.59 88.05 L 116.97 87.25 L 115.36 86.46 L 114.62 86.09 L 114.36 84.31 L 114.10 82.53 L 113.84 80.75 L 113.59 78.97 L 113.33 77.19 L 113.07 75.41 L 112.81 73.62 L 112.55 71.84 L 112.29 70.06 L 112.03 68.28 L 111.77 66.50 L 111.52 64.72 L 111.26 62.94 L 111.00 61.16 L 110.74 59.37 L 110.48 57.59 L 110.22 55.81 L 110.10 55.00 L 108.85 56.29 L 107.59 57.58 L 106.33 58.87 L 105.08 60.16 L 103.82 61.44 L 102.56 62.73 L 101.31 64.02 L 100.05 65.31 L 98.80 66.60 L 97.54 67.89 L 96.28 69.18 L 95.03 70.47 L 93.77 71.76 L 92.51 73.05 L 91.26 74.33 L 90.00 75.62 L 88.74 76.91 L 88.17 77.50 L 86.40 77.20 L 84.62 76.89 L 82.85 76.59 L 81.07 76.28 L 79.30 75.98 L 77.53 75.67 L 75.75 75.37 L 73.98 75.07 L 72.20 74.76 L 70.43 74.46 L 68.66 74.15 L 66.88 73.85 L 65.11 73.54 L 63.33 73.24 L 61.56 72.94 L 59.79 72.63 L 58.01 72.33 L 57.20 72.19 L 58.04 73.78 L 58.88 75.37 L 59.72 76.97 L 60.55 78.56 L 61.39 80.15 L 62.23 81.75 L 63.07 83.34 L 63.90 84.93 L 64.74 86.53 L 65.58 88.12 L 66.42 89.71 L 67.25 91.31 L 68.09 92.90 L 68.93 94.49 L 69.77 96.09 L 70.60 97.68 L 71.44 99.27 L 71.82 100.00" 
          fill="none" 
          stroke="currentColor" 
          stroke-width="0.5"/>
</svg>