<?xml version="1.0" encoding="UTF-8" standalone="no"?>
<svg width="100%" height="100%" viewBox="0 0 200 200" preserveAspectRatio="xMidYMid meet" xmlns="http://www.w3.org/2000/svg">
    <path d="M 100.00 100.00 L 99.64 99.82 L 98.93 99.72 L 98.53 99.67 L 97.81 99.61 L 97.40 99.58 L 96.68 99.56 L 96.26 99.54 L 95.54 99.55 L 95.11 99.56 L 94.39 99.61 L 93.96 99.64 L 93.24 99.73 L 92.80 99.78 L 92.09 99.90 L 91.65 99.98 L 90.94 100.13 L 90.49 100.23 L 89.80 100.42 L 89.34 100.55 L 88.66 100.78 L 88.20 100.93 L 87.53 101.19 L 87.08 101.36 L 86.42 101.66 L 85.97 101.86 L 85.33 102.18 L 84.87 102.41 L 84.25 102.77 L 83.80 103.03 L 83.20 103.41 L 82.76 103.70 L 82.17 104.11 L 81.74 104.42 L 81.18 104.87 L 80.75 105.20 L 80.21 105.68 L 79.80 106.04 L 79.28 106.54 L 78.89 106.93 L 78.39 107.45 L 78.01 107.87 L 77.54 108.42 L 77.17 108.85 L 76.74 109.43 L 76.39 109.89 L 75.98 110.48 L 75.65 110.97 L 75.27 111.58 L 74.96 112.10 L 74.61 112.73 L 74.32 113.26 L 74.00 113.91 L 73.74 114.46 L 73.45 115.12 L 73.21 115.70 L 72.96 116.38 L 72.74 116.97 L 72.53 117.66 L 72.34 118.27 L 72.16 118.97 L 72.00 119.60 L 71.86 120.30 L 71.72 120.95 L 71.62 121.66 L 71.51 122.32 L 71.44 123.04 L 71.37 123.71 L 71.34 124.43 L 71.30 125.11 L 71.30 125.83 L 71.30 126.52 L 71.33 127.24 L 71.37 127.94 L 71.44 128.66 L 71.51 129.37 L 71.61 130.08 L 71.72 130.79 L 71.86 131.50 L 72.00 132.20 L 72.00 132.21 L 72.18 132.91 L 72.35 133.61 L 72.36 133.62 L 72.57 134.31 L 72.78 135.00 L 72.78 135.02 L 73.03 135.70 L 73.27 136.38 L 73.29 136.41 L 73.56 137.07 L 73.84 137.74 L 73.86 137.77 L 74.17 138.42 L 74.48 139.07 L 74.50 139.12 L 74.84 139.75 L 75.19 140.38 L 75.21 140.44 L 75.59 141.05 L 75.96 141.67 L 76.00 141.72 L 76.40 142.32 L 76.80 142.92 L 76.85 142.98 L 77.28 143.55 L 77.71 144.13 L 77.76 144.20 L 78.22 144.75 L 78.69 145.30 L 78.75 145.37 L 79.23 145.90 L 79.72 146.43 L 79.79 146.51 L 80.30 147.01 L 80.82 147.52 L 80.90 147.59 L 81.43 148.07 L 81.97 148.55 L 82.06 148.63 L 82.62 149.08 L 83.18 149.53 L 83.28 149.61 L 83.87 150.03 L 84.45 150.45 L 84.56 150.53 L 85.16 150.93 L 85.77 151.32 L 85.89 151.40 L 86.51 151.76 L 87.13 152.13 L 87.26 152.20 L 87.90 152.53 L 88.54 152.86 L 88.68 152.94 L 89.34 153.24 L 89.99 153.54 L 90.15 153.61 L 90.82 153.87 L 91.49 154.14 L 91.65 154.21 L 92.33 154.44 L 93.02 154.67 L 93.19 154.73 L 93.88 154.93 L 94.58 155.13 L 94.77 155.18 L 95.47 155.35 L 96.17 155.51 L 96.37 155.56 L 97.08 155.69 L 97.78 155.82 L 97.99 155.85 L 98.71 155.95 L 99.42 156.04 L 99.64 156.07 L 100.36 156.13 L 101.08 156.19 L 101.30 156.21 L 102.02 156.23 L 102.74 156.25 L 102.98 156.26 L 103.70 156.24 L 104.42 156.23 L 104.67 156.23 L 105.39 156.18 L 106.11 156.13 L 106.36 156.11 L 107.08 156.03 L 107.79 155.94 L 108.05 155.91 L 108.76 155.79 L 109.47 155.67 L 109.74 155.63 L 110.45 155.47 L 111.15 155.32 L 111.42 155.26 L 112.12 155.07 L 112.81 154.88 L 113.09 154.80 L 113.78 154.58 L 114.46 154.35 L 114.75 154.26 L 115.42 154.00 L 116.09 153.75 L 116.38 153.63 L 117.04 153.34 L 117.70 153.05 L 117.98 152.93 L 118.63 152.60 L 119.27 152.28 L 119.56 152.14 L 120.19 151.78 L 120.82 151.43 L 121.11 151.26 L 121.71 150.88 L 122.32 150.49 L 122.61 150.31 L 123.20 149.90 L 123.79 149.48 L 124.08 149.28 L 124.64 148.84 L 125.21 148.39 L 125.49 148.17 L 126.04 147.70 L 126.58 147.23 L 126.86 146.99 L 127.38 146.49 L 127.90 146.00 L 128.17 145.74 L 128.67 145.22 L 129.17 144.69 L 129.43 144.41 L 129.90 143.87 L 130.37 143.32 L 130.62 143.02 L 131.07 142.45 L 131.51 141.89 L 131.75 141.57 L 132.17 140.98 L 132.58 140.39 L 132.82 140.05 L 133.20 139.44 L 133.58 138.83 L 133.80 138.48 L 134.16 137.85 L 134.51 137.22 L 134.72 136.85 L 135.04 136.21 L 135.36 135.56 L 135.55 135.17 L 135.84 134.51 L 136.13 133.85 L 136.31 133.44 L 136.57 132.77 L 136.82 132.10 L 136.98 131.67 L 137.20 130.99 L 137.43 130.30 L 137.57 129.86 L 137.76 129.17 L 137.94 128.47 L 138.07 128.02 L 138.22 127.32 L 138.37 126.61 L 138.48 126.15 L 138.59 125.43 L 138.71 124.72 L 138.79 124.24 L 138.88 123.53 L 138.96 122.81 L 139.02 122.32 L 139.06 121.60 L 139.11 120.88 L 139.14 120.38 L 139.15 119.66 L 139.17 118.94 L 139.18 118.43 L 139.15 117.71 L 139.13 116.99 L 139.11 116.46 L 139.05 115.75 L 138.99 115.03 L 138.95 114.50 L 138.85 113.79 L 138.76 113.07 L 138.69 112.54 L 138.56 111.83 L 138.43 111.12 L 138.33 110.58 L 138.16 109.88 L 138.00 109.18 L 137.87 108.64 L 137.67 107.95 L 137.47 107.26 L 137.32 106.71 L 137.08 106.03 L 136.85 105.35 L 136.66 104.81 L 136.40 104.14 L 136.13 103.47 L 135.92 102.93 L 135.62 102.28 L 135.32 101.62 L 135.07 101.08 L 134.74 100.44 L 134.41 99.80 L 134.13 99.27 L 133.77 98.65 L 133.41 98.03 L 133.10 97.50 L 132.71 96.90 L 132.32 96.30 L 131.98 95.78 L 131.56 95.20 L 131.14 94.61 L 130.77 94.11 L 130.32 93.54 L 129.87 92.98 L 129.47 92.49 L 128.99 91.95 L 128.52 91.41 L 128.09 90.93 L 127.59 90.42 L 127.08 89.90 L 126.63 89.44 L 126.10 88.95 L 125.57 88.46 L 125.09 88.01 L 124.53 87.55 L 123.98 87.09 L 123.47 86.66 L 122.89 86.22 L 122.32 85.79 L 121.78 85.38 L 121.19 84.98 L 120.59 84.57 L 120.02 84.18 L 119.41 83.81 L 118.80 83.43 L 118.20 83.07 L 117.57 82.73 L 116.94 82.38 L 116.32 82.04 L 115.67 81.73 L 115.03 81.42 L 114.39 81.11 L 113.72 80.83 L 113.06 80.55 L 112.40 80.27 L 111.72 80.02 L 111.04 79.77 L 110.37 79.52 L 110.36 79.52 L 109.67 79.31 L 108.99 79.09 L 108.30 78.88 L 108.28 78.87 L 107.58 78.69 L 106.89 78.51 L 106.19 78.34 L 106.17 78.33 L 105.46 78.18 L 104.75 78.04 L 104.05 77.89 L 104.02 77.89 L 103.30 77.78 L 102.59 77.67 L 101.88 77.56 L 101.84 77.55 L 101.12 77.47 L 100.41 77.40 L 99.69 77.33 L 99.64 77.32 L 98.92 77.28 L 98.20 77.24 L 97.48 77.20 L 97.42 77.20 L 96.70 77.20 L 95.98 77.19 L 95.26 77.19 L 95.19 77.19 L 94.48 77.22 L 93.76 77.25 L 93.04 77.28 L 92.96 77.29 L 92.24 77.35 L 91.53 77.42 L 90.81 77.49 L 90.72 77.50 L 90.01 77.60 L 89.30 77.70 L 88.59 77.80 L 88.49 77.82 L 87.79 77.95 L 87.08 78.09 L 86.37 78.23 L 86.27 78.25 L 85.57 78.42 L 84.87 78.59 L 84.17 78.77 L 84.07 78.79 L 83.38 79.00 L 82.69 79.20 L 82.00 79.41 L 81.88 79.45 L 81.20 79.69 L 80.52 79.93 L 79.85 80.17 L 79.72 80.21 L 79.06 80.48 L 78.39 80.76 L 77.73 81.03 L 77.60 81.08 L 76.95 81.39 L 76.30 81.70 L 75.64 82.00 L 75.51 82.06 L 74.88 82.40 L 74.24 82.74 L 73.60 83.08 L 73.47 83.15 L 72.85 83.52 L 72.23 83.89 L 71.61 84.26 L 71.47 84.34 L 70.87 84.74 L 70.27 85.14 L 69.67 85.54 L 69.53 85.63 L 68.95 86.06 L 68.37 86.49 L 67.79 86.92 L 67.65 87.02 L 67.09 87.48 L 66.53 87.94 L 65.98 88.39 L 65.83 88.51 L 65.30 88.99 L 64.76 89.48 L 64.23 89.96 L 64.08 90.09 L 63.57 90.60 L 63.06 91.11 L 62.55 91.62 L 62.41 91.76 L 61.93 92.30 L 61.44 92.83 L 60.96 93.36 L 60.81 93.52 L 60.36 94.08 L 59.90 94.64 L 59.44 95.19 L 59.30 95.37 L 58.87 95.94 L 58.44 96.52 L 58.01 97.10 L 57.88 97.29 L 57.48 97.89 L 57.08 98.49 L 56.68 99.08 L 56.54 99.28 L 56.17 99.90 L 55.80 100.52 L 55.43 101.14 L 55.31 101.35 L 54.97 101.99 L 54.63 102.62 L 54.29 103.26 L 54.17 103.48 L 53.86 104.14 L 53.55 104.79 L 53.25 105.44 L 53.13 105.68 L 52.86 106.34 L 52.58 107.01 L 52.31 107.68 L 52.20 107.93 L 51.96 108.61 L 51.72 109.29 L 51.48 109.97 L 51.39 110.23 L 51.18 110.92 L 50.97 111.61 L 50.76 112.30 L 50.68 112.58 L 50.50 113.28 L 50.33 113.98 L 50.16 114.68 L 50.08 114.97 L 49.95 115.68 L 49.81 116.38 L 49.67 117.09 L 49.61 117.39 L 49.50 118.10 L 49.40 118.82 L 49.30 119.53 L 49.25 119.84 L 49.18 120.56 L 49.12 121.28 L 49.05 121.99 L 49.01 122.32 L 48.98 123.04 L 48.95 123.76 L 48.92 124.48 L 48.90 124.81 L 48.90 125.53 L 48.91 126.25 L 48.91 126.97 L 48.91 127.32 L 48.95 128.04 L 48.98 128.75 L 49.02 129.47 L 49.04 129.83 L 49.11 130.54 L 49.19 131.26 L 49.26 131.97 L 49.30 132.33 L 49.41 133.05 L 49.52 133.76 L 49.62 134.47 L 49.68 134.83 L 49.82 135.54 L 49.97 136.25 L 50.11 136.95 L 50.19 137.32 L 50.36 138.02 L 50.54 138.72 L 50.72 139.41 L 50.82 139.79 L 51.03 140.48 L 51.24 141.17 L 51.45 141.85 L 51.57 142.23 L 51.82 142.91 L 52.06 143.58 L 52.31 144.26 L 52.45 144.64 L 52.72 145.31 L 53.00 145.97 L 53.28 146.63 L 53.44 147.01 L 53.75 147.66 L 54.07 148.31 L 54.38 148.96 L 54.56 149.34 L 54.90 149.97 L 55.25 150.61 L 55.59 151.24 L 55.79 151.62 L 56.17 152.23 L 56.54 152.85 L 56.91 153.46 L 57.14 153.84 L 57.55 154.43 L 57.95 155.03 L 58.35 155.63 L 58.60 156.00 L 59.04 156.57 L 59.47 157.15 L 59.90 157.72 L 60.18 158.09 L 60.64 158.64 L 61.10 159.20 L 61.56 159.75 L 61.85 160.11 L 62.34 160.64 L 62.83 161.17 L 63.32 161.70 L 63.64 162.05 L 64.15 162.55 L 64.66 163.06 L 65.17 163.56 L 65.52 163.90 L 66.05 164.38 L 66.59 164.86 L 67.13 165.34 L 67.49 165.67 L 68.05 166.12 L 68.61 166.57 L 69.17 167.02 L 69.56 167.34 L 70.14 167.76 L 70.72 168.18 L 71.31 168.61 L 71.72 168.91 L 72.32 169.30 L 72.92 169.70 L 73.52 170.10 L 73.95 170.38 L 74.57 170.74 L 75.19 171.11 L 75.81 171.47 L 76.27 171.74 L 76.90 172.07 L 77.54 172.41 L 78.18 172.74 L 78.65 172.99 L 79.31 173.29 L 79.96 173.59 L 80.61 173.90 L 81.10 174.12 L 81.77 174.39 L 82.44 174.66 L 83.11 174.93 L 83.62 175.14 L 84.30 175.37 L 84.98 175.61 L 85.66 175.85 L 86.19 176.03 L 86.88 176.23 L 87.57 176.44 L 88.26 176.64 L 88.80 176.80 L 89.50 176.97 L 90.20 177.14 L 90.90 177.30 L 91.46 177.44 L 92.17 177.57 L 92.88 177.71 L 93.59 177.84 L 94.16 177.95 L 94.87 178.05 L 95.59 178.15 L 96.30 178.25 L 96.89 178.33 L 97.61 178.39 L 98.32 178.45 L 99.04 178.52 L 99.64 178.57 L 100.36 178.60 L 101.08 178.63 L 101.80 178.65 L 102.41 178.68 L 103.13 178.67 L 103.85 178.66 L 104.57 178.66 L 105.19 178.65 L 105.91 178.61 L 106.63 178.56 L 107.34 178.52 L 107.97 178.48 L 108.69 178.40 L 109.40 178.33 L 110.12 178.25 L 110.75 178.18 L 111.46 178.07 L 112.17 177.95 L 112.88 177.84 L 113.52 177.74 L 114.23 177.59 L 114.93 177.44 L 115.63 177.29 L 116.27 177.16 L 116.97 176.97 L 117.67 176.79 L 118.36 176.61 L 119.00 176.44 L 119.69 176.22 L 120.38 176.01 L 121.06 175.79 L 121.70 175.59 L 122.38 175.34 L 123.05 175.09 L 123.73 174.84 L 124.37 174.60 L 125.03 174.32 L 125.69 174.03 L 126.35 173.75 L 126.98 173.48 L 127.63 173.16 L 128.28 172.85 L 128.93 172.53 L 129.55 172.23 L 130.18 171.88 L 130.81 171.53 L 131.44 171.18 L 132.06 170.84 L 132.68 170.47 L 133.29 170.09 L 133.90 169.71 L 134.51 169.34 L 135.10 168.93 L 135.70 168.52 L 136.29 168.11 L 136.88 167.71 L 136.89 167.70 L 137.46 167.27 L 138.03 166.83 L 138.60 166.40 L 139.18 165.96 L 139.19 165.95 L 139.74 165.49 L 140.29 165.02 L 140.84 164.56 L 141.39 164.10 L 141.40 164.08 L 141.93 163.59 L 142.46 163.10 L 142.99 162.61 L 143.51 162.12 L 143.53 162.10 L 144.03 161.59 L 144.54 161.07 L 145.04 160.55 L 145.54 160.04 L 145.57 160.01 L 146.04 159.47 L 146.52 158.93 L 147.00 158.39 L 147.47 157.85 L 147.50 157.82 L 147.95 157.26 L 148.40 156.69 L 148.85 156.13 L 149.30 155.57 L 149.33 155.52 L 149.75 154.94 L 150.18 154.36 L 150.60 153.77 L 151.02 153.19 L 151.05 153.14 L 151.44 152.53 L 151.84 151.93 L 152.23 151.32 L 152.62 150.72 L 152.66 150.66 L 153.02 150.04 L 153.38 149.41 L 153.74 148.79 L 154.10 148.17 L 154.14 148.10 L 154.47 147.46 L 154.80 146.82 L 155.13 146.18 L 155.47 145.54 L 155.51 145.46 L 155.80 144.81 L 156.10 144.15 L 156.40 143.49 L 156.70 142.84 L 156.74 142.75 L 157.01 142.08 L 157.27 141.41 L 157.54 140.74 L 157.80 140.07 L 157.84 139.97 L 158.07 139.29 L 158.31 138.61 L 158.54 137.93 L 158.77 137.25 L 158.81 137.14 L 159.01 136.45 L 159.21 135.76 L 159.40 135.06 L 159.60 134.37 L 159.64 134.25 L 159.80 133.55 L 159.97 132.85 L 160.13 132.15 L 160.29 131.45 L 160.32 131.32 L 160.45 130.61 L 160.58 129.90 L 160.71 129.20 L 160.84 128.49 L 160.87 128.35 L 160.96 127.64 L 161.06 126.92 L 161.15 126.21 L 161.25 125.49 L 161.26 125.35 L 161.32 124.63 L 161.38 123.91 L 161.44 123.20 L 161.50 122.48 L 161.51 122.32 L 161.54 121.60 L 161.56 120.88 L 161.59 120.16 L 161.61 119.44 L 161.62 119.28 L 161.60 118.56 L 161.59 117.84 L 161.58 117.12 L 161.57 116.40 L 161.57 116.22 L 161.52 115.50 L 161.47 114.78 L 161.43 114.07 L 161.38 113.35 L 161.37 113.16 L 161.28 112.45 L 161.20 111.73 L 161.12 111.02 L 161.04 110.30 L 161.02 110.11 L 160.90 109.40 L 160.78 108.69 L 160.66 107.98 L 160.55 107.27 L 160.51 107.07 L 160.36 106.37 L 160.21 105.66 L 160.06 104.96 L 159.90 104.26 L 159.86 104.05 L 159.67 103.36 L 159.49 102.66 L 159.30 101.97 L 159.11 101.27 L 159.06 101.06 L 158.84 100.38 L 158.62 99.69 L 158.39 99.00 L 158.17 98.32 L 158.10 98.10 L 157.85 97.43 L 157.60 96.76 L 157.34 96.08 L 157.09 95.41 L 157.00 95.19 L 156.72 94.53 L 156.43 93.87 L 156.14 93.21 L 155.86 92.55 L 155.76 92.32 L 155.44 91.68 L 155.12 91.03 L 154.80 90.39 L 154.48 89.74 L 154.37 89.52 L 154.02 88.89 L 153.67 88.26 L 153.32 87.63 L 152.97 87.00 L 152.84 86.77 L 152.46 86.16 L 152.08 85.55 L 151.70 84.94 L 151.32 84.33 L 151.17 84.10 L 150.76 83.51 L 150.35 82.92 L 149.94 82.33 L 149.53 81.73 L 149.37 81.51 L 148.93 80.93 L 148.49 80.37 L 148.05 79.79 L 147.62 79.22 L 147.44 79.00 L 146.97 78.45 L 146.51 77.90 L 146.04 77.35 L 145.57 76.80 L 145.38 76.58 L 144.89 76.05 L 144.39 75.53 L 143.90 75.01 L 143.41 74.48 L 143.20 74.26 L 142.68 73.76 L 142.16 73.26 L 141.64 72.76 L 141.13 72.26 L 140.90 72.04 L 140.36 71.57 L 139.82 71.10 L 139.27 70.62 L 138.73 70.15 L 138.49 69.94 L 137.92 69.49 L 137.36 69.05 L 136.79 68.60 L 136.23 68.15 L 135.97 67.95 L 135.38 67.53 L 134.80 67.11 L 134.21 66.70 L 133.62 66.28 L 133.35 66.08 L 132.74 65.69 L 132.14 65.30 L 131.53 64.92 L 130.92 64.53 L 130.63 64.34 L 130.01 63.98 L 129.38 63.62 L 128.76 63.27 L 128.13 62.91 L 127.82 62.73 L 127.18 62.40 L 126.54 62.08 L 125.90 61.75 L 125.26 61.42 L 124.93 61.26 L 124.28 60.96 L 123.62 60.67 L 122.96 60.37 L 122.31 60.08 L 121.97 59.92 L 121.29 59.66 L 120.62 59.40 L 119.95 59.14 L 119.28 58.87 L 118.93 58.74 L 118.25 58.51 L 117.56 58.28 L 116.88 58.05 L 116.20 57.82 L 115.83 57.70 L 115.13 57.50 L 114.44 57.31 L 113.75 57.11 L 113.06 56.91 L 112.67 56.81 L 111.97 56.65 L 111.27 56.48 L 110.57 56.32 L 109.86 56.16 L 109.47 56.07 L 108.76 55.95 L 108.05 55.82 L 107.34 55.69 L 106.63 55.57 L 106.22 55.49 L 105.51 55.40 L 104.79 55.31 L 104.08 55.22 L 103.36 55.13 L 102.94 55.08 L 102.23 55.02 L 101.51 54.96 L 100.79 54.91 L 100.07 54.85 L 99.64 54.82 L 98.92 54.80 L 98.20 54.78 L 97.48 54.76 L 96.76 54.74 L 96.32 54.73 L 95.60 54.74 L 94.88 54.76 L 94.16 54.77 L 93.44 54.79 L 92.99 54.80 L 92.27 54.85 L 91.55 54.90 L 90.83 54.95 L 90.12 55.00 L 89.66 55.03 L 88.94 55.11 L 88.23 55.20 L 87.51 55.29 L 86.80 55.37 L 86.33 55.43 L 85.62 55.55 L 84.91 55.67 L 84.20 55.79 L 83.50 55.91 L 83.03 55.99 L 82.32 56.15 L 81.62 56.30 L 80.92 56.46 L 80.21 56.61 L 79.74 56.72 L 79.05 56.91 L 78.35 57.10 L 77.66 57.29 L 76.96 57.48 L 76.49 57.61 L 75.80 57.83 L 75.12 58.06 L 74.43 58.28 L 73.75 58.50 L 73.27 58.66 L 72.60 58.92 L 71.93 59.17 L 71.25 59.43 L 70.58 59.69 L 70.10 59.87 L 69.44 60.16 L 68.79 60.45 L 68.13 60.74 L 67.47 61.03 L 66.99 61.24 L 66.35 61.56 L 65.70 61.88 L 65.06 62.21 L 64.42 62.53 L 63.94 62.76 L 63.32 63.12 L 62.69 63.47 L 62.06 63.83 L 61.44 64.18 L 60.97 64.44 L 60.36 64.83 L 59.75 65.21 L 59.14 65.59 L 58.53 65.98 L 58.07 66.27 L 57.48 66.68 L 56.89 67.09 L 56.30 67.51 L 55.71 67.92 L 55.26 68.24 L 54.69 68.68 L 54.12 69.12 L 53.55 69.56 L 52.98 70.01 L 52.54 70.35 L 51.99 70.82 L 51.45 71.29 L 50.90 71.76 L 50.35 72.23 L 49.92 72.60 L 49.40 73.10 L 48.88 73.59 L 48.35 74.09 L 47.83 74.58 L 47.41 74.98 L 46.91 75.50 L 46.42 76.02 L 45.92 76.55 L 45.42 77.07 L 45.02 77.49 L 44.54 78.04 L 44.07 78.58 L 43.60 79.12 L 43.13 79.67 L 42.74 80.12 L 42.30 80.69 L 41.85 81.25 L 41.41 81.82 L 40.97 82.39 L 40.59 82.87 L 40.18 83.45 L 39.76 84.04 L 39.35 84.63 L 38.93 85.22 L 38.58 85.72 L 38.19 86.33 L 37.81 86.94 L 37.42 87.54 L 37.03 88.15 L 36.70 88.68 L 36.34 89.30 L 35.99 89.93 L 35.63 90.56 L 35.28 91.18 L 34.97 91.73 L 34.64 92.37 L 34.32 93.02 L 33.99 93.66 L 33.67 94.30 L 33.38 94.87 L 33.09 95.53 L 32.80 96.19 L 32.50 96.85 L 32.21 97.51 L 31.95 98.10 L 31.69 98.77 L 31.43 99.44 L 31.17 100.11 L 30.91 100.79 L 30.67 101.40 L 30.45 102.08 L 30.22 102.77 L 29.99 103.45 L 29.77 104.13 L 29.56 104.77 L 29.37 105.46 L 29.17 106.15 L 28.98 106.85 L 28.79 107.54 L 28.61 108.19 L 28.45 108.89 L 28.29 109.60 L 28.14 110.30 L 27.98 111.00 L 27.83 111.67 L 27.71 112.38 L 27.58 113.09 L 27.46 113.80 L 27.34 114.51 L 27.22 115.19 L 27.13 115.90 L 27.04 116.62 L 26.95 117.33 L 26.86 118.05 L 26.78 118.74 L 26.73 119.46 L 26.67 120.18 L 26.62 120.89 L 26.57 121.61 L 26.52 122.32 L 26.50 123.04 L 26.48 123.76 L 26.46 124.48 L 26.44 125.20 L 26.43 125.92 L 26.45 126.64 L 26.46 127.36 L 26.48 128.08 L 26.50 128.80 L 26.52 129.52 L 26.52 129.52 L 26.57 130.24 L 26.62 130.96 L 26.68 131.68 L 26.73 132.39 L 26.78 133.11 L 26.78 133.13 L 26.87 133.84 L 26.96 134.56 L 27.05 135.27 L 27.14 135.99 L 27.23 136.70 L 27.23 136.72 L 27.35 137.43 L 27.48 138.14 L 27.60 138.85 L 27.72 139.56 L 27.85 140.27 L 27.85 140.30 L 28.01 141.00 L 28.17 141.71 L 28.33 142.41 L 28.49 143.11 L 28.65 143.81 L 28.65 143.85 L 28.85 144.55 L 29.04 145.24 L 29.23 145.93 L 29.43 146.63 L 29.62 147.32 L 29.63 147.37 L 29.86 148.05 L 30.08 148.74 L 30.31 149.42 L 30.54 150.10 L 30.76 150.79 L 30.78 150.84 L 31.04 151.51 L 31.30 152.18 L 31.56 152.86 L 31.82 153.53 L 32.08 154.20 L 32.11 154.26 L 32.40 154.92 L 32.69 155.58 L 32.98 156.24 L 33.28 156.89 L 33.57 157.55 L 33.60 157.62 L 33.92 158.26 L 34.25 158.90 L 34.57 159.55 L 34.90 160.19 L 35.22 160.83 L 35.26 160.91 L 35.62 161.53 L 35.97 162.16 L 36.33 162.79 L 36.68 163.41 L 37.04 164.04 L 37.09 164.12 L 37.47 164.73 L 37.48 164.74 L 38.01 165.23 L 38.54 165.72 L 39.07 166.20 L 39.60 166.69 L 40.13 167.18 L 40.66 167.66 L 40.73 167.73 L 41.29 168.19 L 41.84 168.65 L 42.39 169.11 L 42.94 169.57 L 43.50 170.03 L 44.05 170.49 L 44.13 170.56 L 44.70 170.99 L 45.28 171.42 L 45.85 171.86 L 46.43 172.29 L 47.00 172.72 L 47.58 173.15 L 47.66 173.21 L 48.25 173.62 L 48.85 174.02 L 49.44 174.43 L 50.04 174.83 L 50.64 175.23 L 51.23 175.64 L 51.31 175.69 L 51.93 176.07 L 52.54 176.44 L 53.16 176.82 L 53.77 177.19 L 54.39 177.57 L 55.00 177.94 L 55.08 177.99 L 55.72 178.34 L 56.35 178.68 L 56.98 179.02 L 57.61 179.37 L 58.25 179.71 L 58.88 180.06 L 58.97 180.10 L 59.61 180.41 L 60.26 180.73 L 60.91 181.04 L 61.56 181.35 L 62.21 181.66 L 62.86 181.98 L 62.95 182.02 L 63.61 182.30 L 64.27 182.58 L 64.93 182.86 L 65.60 183.14 L 66.26 183.42 L 66.92 183.70 L 67.01 183.74 L 67.69 183.98 L 68.37 184.23 L 69.04 184.48 L 69.72 184.73 L 70.40 184.97 L 71.07 185.22 L 71.16 185.25 L 71.85 185.47 L 72.54 185.68 L 73.22 185.90 L 73.91 186.11 L 74.60 186.32 L 75.29 186.54 L 75.38 186.57 L 76.08 186.75 L 76.78 186.93 L 77.47 187.11 L 78.17 187.29 L 78.87 187.47 L 79.56 187.65 L 79.66 187.67 L 80.36 187.82 L 81.07 187.96 L 81.77 188.11 L 82.48 188.25 L 83.18 188.40 L 83.89 188.54 L 83.98 188.56 L 84.70 188.67 L 85.41 188.79 L 86.12 188.90 L 86.83 189.01 L 87.54 189.12 L 88.25 189.23 L 88.35 189.24 L 89.07 189.32 L 89.78 189.39 L 90.50 189.47 L 91.21 189.55 L 91.93 189.62 L 92.65 189.70 L 92.74 189.71 L 93.46 189.75 L 94.18 189.79 L 94.90 189.83 L 95.62 189.87 L 96.34 189.91 L 97.06 189.95 L 97.15 189.95 L 97.87 189.96 L 98.59 189.97 L 99.31 189.97 L 100.03 189.98 L 100.75 189.98 L 101.47 189.99 L 101.57 189.99 L 102.29 189.96 L 103.01 189.93 L 103.73 189.90 L 104.45 189.87 L 105.17 189.84 L 105.89 189.80 L 105.98 189.80 L 106.70 189.74 L 107.42 189.67 L 108.13 189.60 L 108.85 189.54 L 109.57 189.47 L 110.29 189.41 L 110.38 189.40 L 111.10 189.30 L 111.81 189.20 L 112.52 189.10 L 113.23 189.00 L 113.95 188.90 L 114.66 188.80 L 114.76 188.78 L 115.46 188.65 L 116.17 188.51 L 116.88 188.38 L 117.59 188.24 L 118.29 188.10 L 119.00 187.97 L 119.10 187.95 L 119.79 187.78 L 120.49 187.61 L 121.19 187.44 L 121.89 187.27 L 122.59 187.10 L 123.29 186.93 L 123.39 186.91 L 124.08 186.70 L 124.77 186.50 L 125.46 186.30 L 126.15 186.09 L 126.84 185.89 L 127.53 185.68 L 127.62 185.66 L 128.30 185.42 L 128.98 185.18 L 129.66 184.94 L 130.34 184.71 L 131.02 184.47 L 131.70 184.23 L 131.79 184.20 L 132.46 183.93 L 133.13 183.66 L 133.80 183.38 L 134.46 183.11 L 135.13 182.84 L 135.80 182.57 L 135.89 182.54 L 136.54 182.23 L 137.19 181.93 L 137.85 181.63 L 138.50 181.32 L 139.15 181.02 L 139.80 180.72 L 139.89 180.68 L 140.53 180.34 L 141.17 180.01 L 141.81 179.67 L 142.44 179.34 L 143.08 179.00 L 143.72 178.67 L 143.80 178.62 L 144.42 178.25 L 145.04 177.89 L 145.66 177.52 L 146.28 177.16 L 146.90 176.79 L 147.52 176.43 L 147.61 176.38 L 148.21 175.98 L 148.81 175.59 L 149.41 175.19 L 150.02 174.79 L 150.62 174.40 L 151.22 174.00 L 151.30 173.95 L 151.88 173.52 L 152.46 173.10 L 153.04 172.67 L 153.62 172.25 L 154.21 171.82 L 154.79 171.40 L 154.87 171.34 L 155.43 170.89 L 155.99 170.44 L 156.55 169.98 L 157.10 169.53 L 157.67 169.08 L 158.22 168.63 L 158.30 168.56 L 158.84 168.09 L 159.37 167.61 L 159.91 167.13 L 160.45 166.65 L 160.98 166.17 L 161.52 165.69 L 161.59 165.62 L 162.11 165.12 L 162.62 164.61 L 163.13 164.10 L 163.65 163.60 L 164.16 163.09 L 164.67 162.59 L 164.74 162.52 L 165.23 161.99 L 165.71 161.46 L 166.20 160.93 L 166.69 160.40 L 167.18 159.87 L 167.66 159.34 L 167.73 159.27 L 168.19 158.71 L 168.65 158.16 L 169.11 157.61 L 169.57 157.05 L 170.03 156.50 L 170.49 155.95 L 170.56 155.87 L 170.99 155.30 L 171.42 154.72 L 171.86 154.15 L 172.29 153.57 L 172.72 153.00 L 173.15 152.42 L 173.21 152.34 L 173.62 151.75 L 174.02 151.15 L 174.43 150.56 L 174.83 149.96 L 175.23 149.36 L 175.64 148.77 L 175.69 148.69 L 176.07 148.07 L 176.44 147.46 L 176.82 146.84 L 177.19 146.23 L 177.57 145.61 L 177.94 145.00 L 177.99 144.92 L 178.34 144.28 L 178.68 143.65 L 179.02 143.02 L 179.37 142.39 L 179.71 141.75 L 180.06 141.12 L 180.10 141.03 L 180.41 140.39 L 180.73 139.74 L 181.04 139.09 L 181.35 138.44 L 181.66 137.79 L 181.98 137.14 L 182.02 137.06 L 182.08 136.92 L 182.23 136.21 L 182.39 135.51 L 182.54 134.81 L 182.58 134.62 L 182.70 133.91 L 182.82 133.20 L 182.94 132.49 L 183.05 131.78 L 183.17 131.07 L 183.26 130.56 L 183.34 129.84 L 183.43 129.13 L 183.51 128.41 L 183.59 127.70 L 183.68 126.98 L 183.74 126.45 L 183.79 125.73 L 183.83 125.01 L 183.88 124.30 L 183.93 123.58 L 183.98 122.86 L 184.01 122.32 L 184.03 121.60 L 184.04 120.88 L 184.05 120.16 L 184.07 119.44 L 184.08 118.72 L 184.09 118.17 L 184.07 117.45 L 184.04 116.73 L 184.02 116.01 L 184.00 115.29 L 183.98 114.57 L 183.96 114.02 L 183.90 113.30 L 183.84 112.58 L 183.79 111.86 L 183.73 111.14 L 183.67 110.43 L 183.62 109.86 L 183.53 109.15 L 183.44 108.43 L 183.34 107.72 L 183.25 107.01 L 183.16 106.29 L 183.08 105.72 L 182.96 105.01 L 182.83 104.31 L 182.70 103.60 L 182.57 102.89 L 182.44 102.18 L 182.34 101.61 L 182.18 100.90 L 182.01 100.20 L 181.85 99.50 L 181.69 98.80 L 181.53 98.10 L 181.39 97.52 L 181.19 96.83 L 181.00 96.14 L 180.80 95.44 L 180.60 94.75 L 180.41 94.06 L 180.24 93.48 L 180.01 92.80 L 179.78 92.12 L 179.55 91.43 L 179.32 90.75 L 179.09 90.07 L 178.89 89.49 L 178.63 88.82 L 178.36 88.15 L 178.10 87.48 L 177.84 86.81 L 177.57 86.14 L 177.34 85.57 L 177.05 84.91 L 176.75 84.26 L 176.45 83.60 L 176.16 82.94 L 175.86 82.29 L 175.60 81.72 L 175.27 81.08 L 174.95 80.44 L 174.62 79.80 L 174.29 79.15 L 173.96 78.51 L 173.67 77.95 L 173.31 77.32 L 172.95 76.70 L 172.59 76.08 L 172.23 75.45 L 171.87 74.83 L 171.55 74.27 L 171.16 73.67 L 170.77 73.06 L 170.38 72.46 L 169.99 71.85 L 169.60 71.25 L 169.25 70.70 L 168.83 70.11 L 168.41 69.53 L 167.99 68.94 L 167.57 68.35 L 167.15 67.77 L 166.77 67.23 L 166.32 66.67 L 165.87 66.10 L 165.42 65.54 L 164.97 64.98 L 164.53 64.41 L 164.11 63.89 L 163.64 63.35 L 163.16 62.80 L 162.69 62.26 L 162.21 61.72 L 161.74 61.18 L 161.29 60.67 L 160.79 60.15 L 160.29 59.63 L 159.79 59.12 L 159.29 58.60 L 158.79 58.08 L 158.31 57.59 L 157.78 57.10 L 157.26 56.60 L 156.73 56.11 L 156.21 55.62 L 155.68 55.13 L 155.17 54.65 L 154.63 54.19 L 154.08 53.72 L 153.53 53.25 L 152.98 52.79 L 152.43 52.32 L 151.89 51.87 L 151.32 51.43 L 150.75 50.99 L 150.18 50.55 L 149.61 50.11 L 149.04 49.68 L 148.47 49.24 L 147.88 48.83 L 147.28 48.42 L 146.69 48.01 L 146.10 47.60 L 145.51 47.19 L 144.92 46.78 L 144.91 46.78 L 144.30 46.40 L 143.69 46.02 L 143.08 45.64 L 142.47 45.26 L 141.86 44.88 L 141.25 44.50 L 141.24 44.50 L 140.61 44.15 L 139.98 43.80 L 139.35 43.45 L 138.72 43.10 L 138.09 42.75 L 137.46 42.40 L 137.44 42.39 L 136.80 42.07 L 136.15 41.75 L 135.51 41.44 L 134.86 41.12 L 134.21 40.80 L 133.57 40.48 L 133.54 40.47 L 132.88 40.18 L 132.22 39.90 L 131.56 39.61 L 130.90 39.33 L 130.24 39.04 L 129.58 38.75 L 129.55 38.74 L 128.87 38.49 L 128.20 38.23 L 127.52 37.98 L 126.85 37.73 L 126.18 37.47 L 125.50 37.22 L 125.46 37.20 L 124.77 36.98 L 124.09 36.77 L 123.40 36.54 L 122.72 36.33 L 122.03 36.11 L 121.35 35.89 L 121.29 35.87 L 120.60 35.68 L 119.90 35.50 L 119.21 35.31 L 118.51 35.13 L 117.82 34.94 L 117.12 34.75 L 117.06 34.74 L 116.36 34.59 L 115.65 34.44 L 114.95 34.29 L 114.25 34.13 L 113.54 33.98 L 112.84 33.83 L 112.77 33.82 L 112.06 33.70 L 111.35 33.58 L 110.64 33.47 L 109.93 33.35 L 109.22 33.23 L 108.51 33.12 L 108.43 33.10 L 107.71 33.02 L 107.00 32.94 L 106.28 32.86 L 105.57 32.78 L 104.85 32.70 L 104.14 32.61 L 104.05 32.60 L 103.33 32.56 L 102.61 32.51 L 101.89 32.47 L 101.17 32.42 L 100.46 32.37 L 99.74 32.33 L 99.64 32.32 L 98.92 32.31 L 98.20 32.30 L 97.48 32.29 L 96.76 32.28 L 96.04 32.27 L 95.32 32.25 L 95.22 32.25 L 94.50 32.28 L 93.78 32.30 L 93.06 32.33 L 92.34 32.35 L 91.62 32.37 L 90.90 32.40 L 90.78 32.40 L 90.07 32.46 L 89.35 32.52 L 88.63 32.58 L 87.91 32.64 L 87.20 32.70 L 86.48 32.76 L 86.36 32.77 L 85.64 32.87 L 84.93 32.96 L 84.22 33.06 L 83.50 33.15 L 82.79 33.25 L 82.07 33.34 L 81.94 33.36 L 81.24 33.49 L 80.53 33.62 L 79.82 33.75 L 79.11 33.88 L 78.40 34.01 L 77.70 34.14 L 77.56 34.16 L 76.86 34.33 L 76.16 34.49 L 75.46 34.66 L 74.75 34.82 L 74.05 34.99 L 73.35 35.15 L 73.21 35.19 L 72.52 35.38 L 71.82 35.58 L 71.13 35.78 L 70.44 35.98 L 69.75 36.18 L 69.06 36.38 L 68.91 36.42 L 68.22 36.66 L 67.54 36.89 L 66.86 37.12 L 66.18 37.35 L 65.50 37.59 L 64.82 37.82 L 64.66 37.87 L 63.99 38.14 L 63.32 38.40 L 62.65 38.67 L 61.98 38.94 L 61.31 39.20 L 60.65 39.47 L 60.48 39.53 L 59.83 39.83 L 59.17 40.13 L 58.52 40.43 L 57.86 40.72 L 57.21 41.02 L 56.55 41.32 L 56.39 41.40 L 55.75 41.73 L 55.11 42.06 L 54.47 42.39 L 53.83 42.72 L 53.19 43.05 L 52.55 43.38 L 52.38 43.47 L 51.75 43.83 L 51.13 44.19 L 50.51 44.55 L 49.89 44.91 L 49.26 45.27 L 48.64 45.63 L 48.47 45.73 L 47.86 46.13 L 47.26 46.52 L 46.65 46.91 L 46.05 47.30 L 45.44 47.69 L 44.84 48.08 L 44.67 48.20 L 44.08 48.62 L 43.50 49.04 L 42.91 49.46 L 42.33 49.88 L 41.74 50.30 L 41.16 50.72 L 40.98 50.85 L 40.42 51.30 L 39.86 51.74 L 39.29 52.19 L 38.73 52.64 L 38.17 53.09 L 37.61 53.54 L 37.43 53.68 L 36.89 54.16 L 36.35 54.63 L 35.81 55.11 L 35.27 55.58 L 34.73 56.06 L 34.19 56.54 L 34.01 56.69 L 33.50 57.19 L 32.98 57.70 L 32.46 58.20 L 31.95 58.70 L 31.43 59.20 L 30.91 59.70 L 30.74 59.87 L 30.25 60.40 L 29.76 60.93 L 29.27 61.45 L 28.78 61.98 L 28.29 62.51 L 27.79 63.03 L 27.62 63.22 L 27.16 63.77 L 26.69 64.32 L 26.23 64.87 L 25.77 65.42 L 25.30 65.97 L 24.84 66.52 L 24.67 66.72 L 24.23 67.29 L 23.79 67.86 L 23.36 68.43 L 22.92 69.01 L 22.48 69.58 L 22.05 70.15 L 21.88 70.37 L 21.48 70.96 L 21.07 71.55 L 20.66 72.14 L 20.25 72.74 L 19.84 73.33 L 19.44 73.92 L 19.28 74.15 L 18.90 74.77 L 18.52 75.38 L 18.14 75.99 L 17.76 76.60 L 17.39 77.22 L 17.01 77.83 L 16.86 78.07 L 16.51 78.70 L 16.16 79.33 L 15.81 79.96 L 15.46 80.59 L 15.12 81.22 L 14.77 81.85 L 14.63 82.11 L 14.31 82.76 L 13.99 83.41 L 13.68 84.05 L 13.36 84.70 L 13.04 85.34 L 12.73 85.99 L 12.59 86.26 L 12.31 86.93 L 12.02 87.59 L 11.74 88.25 L 11.46 88.91 L 11.17 89.57 L 10.89 90.23 L 10.76 90.52 L 10.51 91.19 L 10.40 91.48 L 10.49 90.77 L 10.57 90.05 L 10.66 89.34 L 10.75 88.62 L 10.83 87.91 L 10.92 87.19 L 10.93 87.10 L 11.05 86.39 L 11.17 85.68 L 11.29 84.97 L 11.41 84.26 L 11.53 83.55 L 11.65 82.84 L 11.67 82.74 L 11.83 82.04 L 11.98 81.34 L 12.14 80.63 L 12.29 79.93 L 12.45 79.23 L 12.60 78.52 L 12.62 78.43 L 12.81 77.73 L 13.00 77.04 L 13.19 76.35 L 13.38 75.65 L 13.57 74.96 L 13.76 74.26 L 13.79 74.17 L 14.01 73.48 L 14.23 72.80 L 14.46 72.11 L 14.68 71.43 L 14.90 70.75 L 15.13 70.06 L 15.16 69.97 L 15.41 69.30 L 15.67 68.62 L 15.93 67.95 L 16.19 67.28 L 16.44 66.61 L 16.70 65.93 L 16.73 65.84 L 17.02 65.18 L 17.31 64.52 L 17.60 63.86 L 17.89 63.21 L 18.18 62.55 L 18.47 61.89 L 18.51 61.80 L 18.83 61.15 L 19.15 60.51 L 19.47 59.86 L 19.80 59.22 L 20.12 58.58 L 20.44 57.93 L 20.48 57.85 L 20.84 57.22 L 21.19 56.59 L 21.54 55.96 L 21.89 55.33 L 22.25 54.71 L 22.60 54.08 L 22.65 53.99 L 23.03 53.38 L 23.41 52.77 L 23.80 52.17 L 24.18 51.56 L 24.56 50.95 L 24.95 50.34 L 25.00 50.25 L 25.41 49.66 L 25.82 49.07 L 26.24 48.48 L 26.65 47.89 L 27.06 47.30 L 27.47 46.71 L 27.53 46.63 L 27.97 46.06 L 28.41 45.50 L 28.85 44.93 L 29.29 44.36 L 29.73 43.79 L 30.18 43.22 L 30.23 43.14 L 30.70 42.59 L 31.17 42.05 L 31.64 41.50 L 32.11 40.95 L 32.58 40.41 L 33.05 39.86 L 33.11 39.79 L 33.60 39.26 L 34.10 38.74 L 34.59 38.22 L 35.09 37.69 L 35.58 37.17 L 36.08 36.65 L 36.14 36.58 L 36.66 36.08 L 37.18 35.58 L 37.70 35.08 L 38.22 34.58 L 38.74 34.09 L 39.26 33.59 L 39.33 33.52 L 39.88 33.05 L 40.42 32.58 L 40.96 32.10 L 41.51 31.63 L 42.05 31.16 L 42.59 30.69 L 42.67 30.62 L 43.23 30.18 L 43.80 29.73 L 44.37 29.29 L 44.93 28.84 L 45.50 28.40 L 46.06 27.96 L 46.14 27.89 L 46.73 27.48 L 47.32 27.06 L 47.90 26.64 L 48.49 26.23 L 49.08 25.81 L 49.66 25.40 L 49.74 25.34 L 50.35 24.95 L 50.96 24.56 L 51.57 24.18 L 52.17 23.79 L 52.78 23.40 L 53.39 23.02 L 53.47 22.96 L 54.09 22.61 L 54.72 22.25 L 55.34 21.89 L 55.97 21.53 L 56.59 21.18 L 57.22 20.82 L 57.30 20.77 L 57.95 20.45 L 58.59 20.12 L 59.23 19.79 L 59.87 19.47 L 60.51 19.14 L 61.16 18.82 L 61.24 18.77 L 61.90 18.48 L 62.56 18.18 L 63.21 17.89 L 63.87 17.60 L 64.53 17.30 L 65.19 17.01 L 65.28 16.97 L 65.95 16.71 L 66.62 16.45 L 67.29 16.18 L 67.96 15.92 L 68.63 15.66 L 69.30 15.40 L 69.39 15.36 L 70.07 15.14 L 70.76 14.91 L 71.44 14.68 L 72.12 14.45 L 72.81 14.22 L 73.49 14.00 L 73.58 13.96 L 74.27 13.77 L 74.97 13.58 L 75.66 13.38 L 76.35 13.19 L 77.05 12.99 L 77.74 12.80 L 77.83 12.77 L 78.54 12.61 L 79.24 12.45 L 79.94 12.29 L 80.64 12.13 L 81.34 11.97 L 82.05 11.81 L 82.14 11.79 L 82.85 11.66 L 83.56 11.54 L 84.27 11.41 L 84.98 11.29 L 85.69 11.16 L 86.40 11.04 L 86.49 11.02 L 87.21 10.93 L 87.92 10.84 L 88.63 10.75 L 89.35 10.66 L 90.06 10.57 L 90.78 10.48 L 90.87 10.46 L 91.59 10.41 L 92.31 10.35 L 93.03 10.30 L 93.74 10.24 L 94.46 10.19 L 95.18 10.13 L 95.28 10.12 L 96.00 10.10 L 96.72 10.08 L 97.44 10.06 L 98.16 10.04 L 98.88 10.02 L 99.60 10.00 L 99.69 10.00 L 100.41 10.02 L 101.13 10.03 L 101.85 10.05 L 102.57 10.06 L 103.29 10.08 L 104.01 10.09 L 104.11 10.09 L 104.83 10.14 L 105.55 10.20 L 106.26 10.25 L 106.98 10.30 L 107.70 10.35 L 108.42 10.40 L 108.52 10.40 L 109.23 10.49 L 109.95 10.57 L 110.66 10.66 L 111.38 10.75 L 112.09 10.83 L 112.81 10.92 L 112.90 10.93 L 113.61 11.05 L 114.32 11.17 L 115.03 11.29 L 115.74 11.41 L 116.45 11.53 L 117.16 11.65 L 117.26 11.67 L 117.96 11.82 L 118.66 11.98 L 119.37 12.14 L 120.07 12.29 L 120.77 12.45 L 121.48 12.60 L 121.57 12.62 L 122.27 12.81 L 122.96 13.00 L 123.66 13.19 L 124.35 13.38 L 125.04 13.57 L 125.74 13.76 L 125.83 13.79 L 126.22 13.90 L 125.52 13.72 L 124.83 13.54 L 124.13 13.36 L 123.43 13.18 L 122.73 13.00 L 122.04 12.82 L 121.45 12.67 L 120.75 12.53 L 120.04 12.38 L 119.34 12.23 L 118.63 12.09 L 117.93 11.94 L 117.22 11.80 L 116.52 11.65 L 116.07 11.56 L 115.36 11.45 L 114.65 11.34 L 113.94 11.23 L 113.22 11.12 L 112.51 11.00 L 111.80 10.89 L 111.09 10.78 L 110.63 10.71 L 109.92 10.64 L 109.20 10.56 L 108.48 10.48 L 107.77 10.41 L 107.05 10.33 L 106.34 10.26 L 105.62 10.18 L 105.50 10.17" 
          fill="none" 
          stroke="currentColor" 
          stroke-width="0.5"/>
</svg>