<?xml version="1.0" encoding="UTF-8" standalone="no"?>
<svg width="100%" height="100%" viewBox="0 0 200 200" preserveAspectRatio="xMidYMid meet" xmlns="http://www.w3.org/2000/svg">
    <path d="M 91.00 100.00 L 72.84 98.94 L 56.62 95.48 L 46.36 91.17 L 39.42 86.45 L 34.61 81.36 L 31.59 76.13 L 30.00 70.75 L 29.72 65.38 L 30.70 59.98 L 32.93 54.77 L 36.26 50.19 L 40.52 46.46 L 45.36 43.86 L 50.55 42.46 L 56.16 42.31 L 62.07 43.57 L 68.40 46.57 L 75.03 51.71 L 82.30 60.14 L 90.59 74.50 L 97.22 91.44 L 90.59 74.59 L 82.53 60.79 L 75.25 52.52 L 68.62 47.58 L 62.55 44.88 L 56.91 43.81 L 51.34 44.10 L 46.20 45.64 L 41.45 48.41 L 37.33 52.31 L 34.20 57.04 L 32.28 62.16 L 31.57 67.63 L 32.17 73.02 L 34.05 78.16 L 37.48 83.32 L 42.79 88.27 L 50.70 92.92 L 62.34 96.93 L 80.04 99.62 L 91.00 100.00 L 73.52 98.94 L 58.37 95.64 L 48.60 91.42 L 42.09 86.83 L 37.66 81.89 L 34.94 76.84 L 33.60 71.66 L 33.55 66.29 L 34.81 60.93 L 37.25 56.03 L 40.72 51.80 L 45.06 48.45 L 49.90 46.27 L 55.04 45.29 L 60.54 45.59 L 66.28 47.32 L 72.39 50.84 L 79.00 56.83 L 86.38 66.88 L 94.33 83.32 L 97.22 91.44 L 91.05 75.73 L 83.49 62.77 L 76.48 54.83 L 70.12 50.15 L 64.32 47.65 L 58.70 46.71 L 53.40 47.14 L 48.33 48.87 L 43.88 51.72 L 40.07 55.64 L 37.25 60.34 L 35.59 65.57 L 35.23 70.89 L 36.17 76.07 L 38.49 81.16 L 42.31 85.99 L 48.04 90.55 L 56.80 94.86 L 70.11 98.38 L 87.84 99.97 L 91.00 100.00 L 74.20 98.95 L 60.09 95.80 L 50.80 91.70 L 44.69 87.24 L 40.60 82.47 L 38.15 77.61 L 37.01 72.40 L 37.19 67.26 L 38.62 62.16 L 41.31 57.36 L 45.04 53.32 L 49.45 50.38 L 54.29 48.63 L 59.59 48.10 L 64.97 48.92 L 70.78 51.34 L 76.90 55.77 L 83.68 63.34 L 91.26 76.26 L 97.22 91.44 L 91.26 76.35 L 83.91 63.97 L 77.39 56.77 L 71.27 52.42 L 65.72 50.19 L 60.36 49.45 L 55.31 50.04 L 50.50 51.87 L 46.15 54.91 L 42.64 58.87 L 40.13 63.53 L 38.79 68.67 L 38.76 73.84 L 40.00 78.81 L 42.62 83.65 L 46.97 88.36 L 53.41 92.70 L 63.18 96.59 L 78.53 99.43 L 91.00 100.00 L 75.39 99.04 L 61.80 95.98 L 52.96 92.00 L 47.23 87.70 L 43.43 83.09 L 41.16 78.20 L 40.27 73.21 L 40.67 68.08 L 42.38 63.05 L 45.24 58.57 L 49.08 54.90 L 53.51 52.35 L 58.30 51.00 L 63.49 50.89 L 68.95 52.22 L 74.80 55.33 L 80.89 60.69 L 87.77 69.98 L 94.97 85.06 L 97.22 91.44 L 91.47 76.96 L 84.59 65.49 L 78.31 58.66 L 72.43 54.63 L 66.89 52.57 L 61.79 52.06 L 56.79 52.88 L 52.09 54.99 L 48.08 58.17 L 44.82 62.38 L 42.67 67.26 L 41.84 72.34 L 42.31 77.34 L 44.04 82.07 L 47.17 86.58 L 52.06 90.89 L 59.44 94.88 L 71.01 98.27 L 87.25 99.95 L 91.00 100.00 L 76.07 99.05 L 63.10 96.05 L 54.79 92.16 L 49.49 87.99 L 46.04 83.56 L 44.04 78.87 L 43.36 74.09 L 43.91 69.19 L 45.72 64.41 L 48.77 60.03 L 52.62 56.66 L 57.00 54.43 L 61.91 53.36 L 66.95 53.62 L 72.21 55.30 L 77.81 58.80 L 83.86 64.87 L 90.57 75.27 L 96.62 89.65 L 97.22 91.44 L 91.71 77.63 L 85.09 66.75 L 79.08 60.38 L 73.49 56.69 L 68.22 54.88 L 63.17 54.55 L 58.46 55.51 L 54.05 57.70 L 50.17 61.04 L 47.23 65.23 L 45.40 70.02 L 44.85 74.92 L 45.57 79.70 L 47.65 84.38 L 51.22 88.78 L 56.71 92.87 L 65.32 96.62 L 78.76 99.36 L 91.00 100.00 L 76.70 99.07 L 64.31 96.10 L 56.50 92.29 L 51.62 88.24 L 48.39 83.75 L 46.72 79.23 L 46.31 74.43 L 47.19 69.56 L 49.37 64.88 L 52.65 60.90 L 56.63 57.98 L 61.04 56.22 L 65.91 55.67 L 70.83 56.46 L 76.16 58.85 L 81.77 63.30 L 87.95 71.05 L 94.55 84.07 L 97.22 91.44 L 92.14 78.66 L 85.74 68.16 L 79.96 62.12 L 74.60 58.69 L 69.57 57.08 L 64.75 56.88 L 60.05 58.00 L 55.71 60.41 L 51.99 64.01 L 49.31 68.43 L 47.91 73.18 L 47.79 77.96 L 48.94 82.53 L 51.45 86.93 L 55.70 91.17 L 62.08 94.97 L 72.43 98.27 L 86.68 99.92 L 91.00 100.00 L 77.39 99.10 L 65.99 96.34 L 58.57 92.70 L 53.79 88.64 L 50.84 84.34 L 49.33 79.81 L 49.12 75.02 L 50.26 70.20 L 52.60 65.84 L 55.94 62.19 L 60.11 59.52 L 64.68 58.11 L 69.43 58.02 L 74.41 59.34 L 79.75 62.46 L 85.52 68.17 L 91.70 77.88 L 97.02 90.84 L 97.22 91.44 L 92.37 79.29 L 86.22 69.32 L 80.70 63.70 L 75.61 60.57 L 70.60 59.12 L 65.82 59.15 L 61.42 60.44 L 57.38 62.94 L 53.97 66.56 L 51.59 70.92 L 50.46 75.54 L 50.59 80.12 L 52.04 84.67 L 54.96 88.98 L 59.51 92.86 L 66.57 96.37 L 77.94 99.14 L 91.00 100.00 L 78.04 99.12 L 67.21 96.44 L 60.25 92.90 L 55.82 89.00 L 53.15 84.88 L 51.83 80.56 L 51.76 75.98 L 52.97 71.38 L 55.44 67.07 L 58.96 63.54 L 63.09 61.18 L 67.55 60.08 L 72.13 60.26 L 76.90 61.84 L 81.98 65.21 L 87.70 71.53 L 93.71 82.21 L 97.22 91.44 L 92.58 79.87 L 86.66 70.41 L 81.38 65.18 L 76.28 62.24 L 71.53 61.07 L 67.02 61.29 L 62.68 62.80 L 58.77 65.55 L 55.58 69.42 L 53.60 73.78 L 52.88 78.29 L 53.39 82.67 L 55.22 86.96 L 58.50 90.96 L 63.70 94.62 L 72.09 97.85 L 84.43 99.78 L 91.00 100.00 L 78.64 99.14 L 68.34 96.51 L 61.82 93.08 L 57.74 89.32 L 55.23 85.15 L 54.15 80.77 L 54.37 76.18 L 55.92 71.65 L 58.62 67.67 L 62.27 64.55 L 66.42 62.63 L 70.83 61.97 L 75.52 62.67 L 80.35 64.94 L 85.41 69.25 L 90.98 76.97 L 96.23 88.54 L 97.22 91.44 L 92.81 80.47 L 87.13 71.51 L 81.85 66.45 L 77.01 63.86 L 72.52 62.94 L 68.05 63.36 L 63.79 65.11 L 60.04 68.13 L 57.23 72.05 L 55.59 76.57 L 55.30 81.17 L 56.35 85.55 L 58.69 89.51 L 62.74 93.29 L 69.29 96.70 L 79.70 99.27 L 91.00 100.00 L 79.26 99.17 L 69.49 96.61 L 63.38 93.30 L 59.62 89.70 L 57.34 85.71 L 56.41 81.54 L 56.72 77.16 L 58.30 72.84 L 61.12 68.90 L 64.71 66.01 L 68.75 64.30 L 72.99 63.84 L 77.47 64.69 L 82.06 67.06 L 87.10 71.73 L 92.58 80.09 L 97.02 90.85 L 97.22 91.44 L 92.82 80.64 L 87.62 72.61 L 82.61 67.90 L 78.04 65.53 L 73.57 64.72 L 69.36 65.24 L 65.36 67.02 L 61.84 69.99 L 59.12 74.00 L 57.69 78.38 L 57.57 82.77 L 58.73 86.91 L 61.29 90.82 L 65.68 94.47 L 72.76 97.63 L 83.46 99.67 L 91.00 100.00 L 79.90 99.20 L 70.65 96.74 L 64.94 93.57 L 61.30 89.93 L 59.30 86.14 L 58.53 81.95 L 59.06 77.58 L 60.90 73.32 L 64.00 69.56 L 67.84 66.97 L 71.85 65.73 L 76.21 65.75 L 80.50 67.14 L 85.08 70.26 L 90.01 75.98 L 95.20 85.90 L 97.22 91.44 L 93.04 81.22 L 87.84 73.35 L 83.07 69.09 L 78.75 67.02 L 74.54 66.41 L 70.36 67.11 L 66.44 69.10 L 63.07 72.31 L 60.72 76.32 L 59.63 80.58 L 59.83 84.78 L 61.25 88.67 L 64.04 92.28 L 68.62 95.58 L 75.90 98.34 L 86.83 99.90 L 91.00 100.00 L 80.49 99.23 L 71.74 96.85 L 66.41 93.82 L 63.04 90.35 L 61.14 86.51 L 60.56 82.52 L 61.26 78.14 L 63.32 73.93 L 66.49 70.48 L 70.31 68.21 L 74.44 67.24 L 78.64 67.62 L 82.97 69.47 L 87.53 73.26 L 92.56 80.40 L 96.83 90.27 L 97.22 91.44 L 93.25 81.76 L 88.51 74.61 L 83.98 70.54 L 79.65 68.51 L 75.43 68.01 L 71.49 68.82 L 67.61 71.00 L 64.37 74.41 L 62.25 78.61 L 61.53 82.76 L 62.05 86.75 L 63.91 90.60 L 67.27 94.06 L 72.65 97.07 L 81.54 99.37 L 91.00 100.00 L 81.11 99.27 L 72.85 96.99 L 67.64 93.92 L 64.46 90.40 L 62.87 86.75 L 62.49 82.74 L 63.38 78.61 L 65.68 74.48 L 68.90 71.36 L 72.66 69.42 L 76.65 68.76 L 80.65 69.39 L 84.98 71.62 L 89.49 75.99 L 94.14 83.60 L 97.22 91.44 L 93.47 82.33 L 88.74 75.32 L 84.45 71.66 L 80.38 69.89 L 76.41 69.55 L 72.50 70.50 L 68.87 72.72 L 65.87 76.09 L 63.97 80.17 L 63.40 84.38 L 64.18 88.38 L 66.23 91.94 L 70.00 95.27 L 75.96 98.02 L 85.23 99.76 L 91.00 100.00 L 81.24 99.23 L 73.60 96.98 L 68.85 94.02 L 66.01 90.66 L 64.58 86.97 L 64.43 82.94 L 65.60 78.83 L 68.06 75.02 L 71.52 72.12 L 75.25 70.59 L 79.11 70.32 L 83.15 71.41 L 87.22 74.09 L 91.63 79.28 L 96.04 88.10 L 97.22 91.44 L 93.70 82.89 L 89.21 76.32 L 84.92 72.79 L 80.85 71.23 L 76.91 71.15 L 73.07 72.41 L 69.61 74.96 L 66.90 78.62 L 65.48 82.68 L 65.39 86.72 L 66.60 90.45 L 69.24 93.87 L 73.81 96.90 L 81.31 99.21 L 90.39 100.00 L 91.00 100.00 L 81.85 99.27 L 74.69 97.12 L 70.30 94.31 L 67.69 91.14 L 66.41 87.66 L 66.31 83.83 L 67.57 79.71 L 70.17 75.94 L 73.58 73.29 L 77.40 71.94 L 81.08 71.92 L 84.90 73.22 L 88.94 76.30 L 93.24 82.15 L 96.84 90.30 L 97.22 91.44 L 93.92 83.46 L 89.67 77.32 L 85.64 74.08 L 81.82 72.69 L 78.13 72.68 L 74.51 73.93 L 71.06 76.57 L 68.45 80.37 L 67.22 84.52 L 67.39 88.36 L 68.80 91.82 L 71.59 94.94 L 76.25 97.63 L 83.84 99.55 L 91.00 100.00 L 82.46 99.30 L 75.78 97.26 L 71.74 94.60 L 69.26 91.39 L 68.16 87.86 L 68.32 84.02 L 69.90 79.94 L 72.66 76.52 L 76.09 74.26 L 79.82 73.31 L 83.58 73.71 L 87.40 75.61 L 91.37 79.54 L 95.43 86.68 L 97.22 91.44 L 93.92 83.62 L 89.89 78.06 L 86.11 75.24 L 82.54 74.12 L 78.87 74.31 L 75.31 75.83 L 72.03 78.76 L 69.82 82.59 L 69.01 86.63 L 69.53 90.23 L 71.23 93.40 L 74.54 96.33 L 79.96 98.67 L 88.10 99.93 L 91.00 100.00 L 83.07 99.34 L 76.88 97.39 L 72.99 94.68 L 70.84 91.63 L 69.96 88.06 L 70.40 84.20 L 72.32 80.20 L 75.42 77.01 L 78.89 75.25 L 82.53 74.81 L 86.09 75.71 L 89.88 78.33 L 93.70 83.31 L 97.03 90.87 L 97.22 91.44 L 94.14 84.19 L 90.36 79.07 L 86.83 76.54 L 83.27 75.57 L 79.85 75.92 L 76.34 77.65 L 73.20 80.84 L 71.36 84.64 L 70.89 88.52 L 71.69 91.87 L 73.82 94.93 L 77.43 97.46 L 83.61 99.40 L 91.00 100.00 L 83.69 99.38 L 77.98 97.53 L 74.45 94.97 L 72.54 92.10 L 71.81 88.73 L 72.39 84.84 L 74.38 81.08 L 77.46 78.14 L 80.81 76.60 L 84.26 76.35 L 87.57 77.38 L 91.09 80.08 L 94.59 85.09 L 97.22 91.44 L 94.37 84.77 L 90.83 80.09 L 87.55 77.85 L 84.24 77.05 L 80.83 77.56 L 77.37 79.52 L 74.55 82.77 L 72.95 86.73 L 72.86 90.42 L 73.97 93.49 L 76.36 96.20 L 80.55 98.47 L 87.12 99.83 L 91.00 100.00 L 84.30 99.41 L 79.09 97.66 L 75.91 95.25 L 74.16 92.34 L 73.67 88.91 L 74.60 85.01 L 76.98 81.37 L 80.18 78.90 L 83.48 77.85 L 86.76 78.10 L 90.07 79.76 L 93.46 83.42 L 96.46 89.31 L 97.22 91.44 L 94.59 85.34 L 91.30 81.11 L 88.02 79.06 L 84.71 78.55 L 81.35 79.43 L 78.05 81.81 L 75.58 85.44 L 74.62 89.12 L 74.95 92.33 L 76.38 95.07 L 79.35 97.57 L 84.39 99.39 L 91.00 100.00 L 84.49 99.36 L 79.91 97.63 L 77.21 95.32 L 75.81 92.56 L 75.58 89.32 L 76.80 85.41 L 79.52 81.90 L 82.76 79.88 L 85.95 79.29 L 89.02 79.98 L 92.03 82.08 L 95.03 86.22 L 97.22 91.44 L 94.82 85.92 L 91.77 82.14 L 88.74 80.39 L 85.68 80.08 L 82.56 81.05 L 79.31 83.66 L 77.04 87.52 L 76.45 91.04 L 77.09 93.99 L 78.99 96.59 L 82.33 98.62 L 87.78 99.85 L 91.00 100.00 L 85.12 99.39 L 81.03 97.76 L 78.70 95.59 L 77.51 92.76 L 77.57 89.46 L 79.23 85.57 L 82.17 82.49 L 85.42 80.98 L 88.46 80.91 L 91.26 82.09 L 94.15 85.01 L 96.67 89.88 L 97.22 91.44 L 95.05 86.51 L 92.24 83.17 L 89.46 81.74 L 86.65 81.61 L 83.54 82.82 L 80.42 85.77 L 78.58 89.65 L 78.39 92.99 L 79.38 95.62 L 81.60 97.82 L 85.64 99.46 L 91.00 100.00 L 85.75 99.43 L 82.17 97.88 L 80.20 95.86 L 79.28 93.21 L 79.60 89.84 L 81.64 85.97 L 84.71 83.31 L 87.64 82.31 L 90.46 82.60 L 93.21 84.32 L 95.69 87.74 L 97.22 91.44 L 95.27 87.10 L 92.71 84.22 L 90.18 83.11 L 87.37 83.24 L 84.31 84.83 L 81.43 88.24 L 80.21 91.86 L 80.40 94.69 L 81.67 96.98 L 84.14 98.76 L 88.44 99.87 L 91.00 100.00 L 86.39 99.46 L 83.32 98.00 L 81.61 95.89 L 81.07 93.12 L 82.04 89.42 L 84.80 85.80 L 87.85 84.04 L 90.41 83.78 L 92.95 84.76 L 95.28 87.22 L 97.22 91.44 L 95.50 87.69 L 93.43 85.46 L 91.16 84.53 L 88.59 84.76 L 85.51 86.60 L 82.78 90.36 L 81.98 93.85 L 82.55 96.37 L 84.14 98.24 L 86.90 99.53 L 91.00 100.00 L 87.04 99.49 L 84.50 98.12 L 83.18 96.14 L 82.95 93.52 L 84.33 89.73 L 87.58 86.33 L 90.35 85.24 L 92.67 85.48 L 94.85 87.00 L 96.70 90.04 L 97.22 91.44 L 95.73 88.29 L 93.90 86.52 L 91.87 85.92 L 89.29 86.51 L 86.10 89.13 L 83.96 93.43 L 83.95 96.13 L 84.90 97.97 L 86.88 99.32 L 90.02 99.97 L 91.00 100.00 L 87.71 99.52 L 85.70 98.22 L 84.80 96.36 L 84.96 93.60 L 87.62 89.05 L 90.80 86.91 L 93.14 86.71 L 95.08 87.73 L 96.72 90.14 L 97.22 91.44 L 92.62 73.84 L 90.89 57.35 L 91.82 46.26 L 94.16 38.20 L 97.52 32.05 L 101.56 27.56 L 106.19 24.39 L 111.21 22.46 L 116.65 21.72 L 122.29 22.24 L 127.67 23.99 L 132.54 26.88 L 136.51 30.68 L 139.44 35.19 L 141.32 40.48 L 141.94 46.49 L 141.05 53.43 L 138.21 61.33 L 132.44 70.85 L 121.35 83.17 L 107.28 94.71 L 121.26 83.20 L 131.89 71.26 L 137.51 61.79 L 140.16 53.96 L 140.85 47.35 L 140.13 41.66 L 138.13 36.44 L 135.07 32.04 L 130.98 28.38 L 125.99 25.66 L 120.53 24.15 L 115.07 23.90 L 109.64 24.92 L 104.70 27.16 L 100.39 30.53 L 96.55 35.38 L 93.47 41.97 L 91.49 50.93 L 91.28 63.24 L 94.19 80.90 L 97.22 91.44 L 92.82 74.49 L 91.29 59.06 L 92.27 48.47 L 94.63 40.86 L 97.96 35.11 L 101.92 30.97 L 106.43 28.10 L 111.53 26.39 L 117.01 25.93 L 122.42 26.73 L 127.52 28.72 L 132.05 31.82 L 135.62 35.75 L 138.14 40.34 L 139.55 45.66 L 139.68 51.65 L 138.22 58.55 L 134.57 66.69 L 127.29 76.82 L 114.11 89.45 L 107.28 94.71 L 120.31 83.99 L 130.31 72.79 L 135.70 63.68 L 138.18 56.18 L 138.76 49.89 L 137.92 44.26 L 135.87 39.34 L 132.66 35.06 L 128.58 31.71 L 123.66 29.30 L 118.33 28.06 L 112.84 28.10 L 107.68 29.41 L 103.03 31.90 L 98.91 35.68 L 95.50 40.81 L 92.93 47.67 L 91.54 57.32 L 92.31 71.08 L 96.27 88.43 L 97.22 91.44 L 93.02 75.14 L 91.66 60.75 L 92.69 50.64 L 95.04 43.46 L 98.32 38.08 L 102.19 34.26 L 106.78 31.57 L 111.73 30.15 L 117.02 29.93 L 122.42 31.00 L 127.41 33.31 L 131.57 36.59 L 134.74 40.65 L 136.87 45.53 L 137.75 50.90 L 137.24 57.17 L 134.92 64.36 L 129.82 73.15 L 119.88 84.35 L 107.28 94.71 L 119.80 84.38 L 129.29 73.56 L 134.13 65.13 L 136.37 57.97 L 136.78 52.00 L 135.82 46.68 L 133.71 42.05 L 130.48 38.05 L 126.24 34.85 L 121.39 32.73 L 116.18 31.79 L 110.88 32.11 L 105.96 33.67 L 101.61 36.39 L 97.82 40.38 L 94.68 45.96 L 92.55 53.43 L 91.86 63.92 L 93.91 79.40 L 97.22 91.44 L 93.31 76.30 L 92.01 62.43 L 93.07 52.79 L 95.39 46.01 L 98.60 40.98 L 102.55 37.30 L 107.02 34.91 L 112.02 33.71 L 117.34 33.78 L 122.48 35.12 L 127.16 37.63 L 130.95 41.06 L 133.72 45.20 L 135.42 50.10 L 135.85 55.70 L 134.69 62.23 L 131.48 69.68 L 124.77 79.09 L 112.65 90.60 L 107.28 94.71 L 119.28 84.77 L 128.06 74.68 L 132.61 66.59 L 134.63 59.76 L 134.88 53.85 L 133.78 48.85 L 131.46 44.34 L 128.00 40.52 L 123.74 37.69 L 118.73 35.89 L 113.42 35.36 L 108.34 36.13 L 103.73 38.13 L 99.76 41.24 L 96.44 45.60 L 93.85 51.59 L 92.34 59.85 L 92.69 71.90 L 96.11 87.85 L 97.22 91.44 L 93.50 76.95 L 92.35 63.69 L 93.48 54.58 L 95.81 48.25 L 98.96 43.61 L 102.81 40.25 L 107.14 38.13 L 111.97 37.14 L 117.08 37.38 L 122.18 38.92 L 126.57 41.55 L 130.06 45.02 L 132.59 49.36 L 133.90 54.24 L 133.92 59.76 L 132.33 66.17 L 128.42 73.79 L 120.61 83.39 L 108.80 93.59 L 107.28 94.71 L 118.71 85.21 L 127.02 75.54 L 131.22 67.86 L 133.00 61.40 L 133.10 55.84 L 131.85 50.92 L 129.48 46.74 L 126.03 43.22 L 121.65 40.57 L 116.76 39.07 L 111.64 38.80 L 106.81 39.80 L 102.49 41.96 L 98.68 45.39 L 95.60 50.14 L 93.40 56.63 L 92.50 65.97 L 94.05 79.60 L 97.22 91.44 L 93.68 77.55 L 92.68 64.86 L 93.89 56.25 L 96.23 50.35 L 99.51 45.89 L 103.29 42.91 L 107.73 41.03 L 112.64 40.37 L 117.75 41.00 L 122.55 42.88 L 126.56 45.77 L 129.60 49.42 L 131.62 53.88 L 132.40 58.81 L 131.77 64.61 L 129.27 71.32 L 123.81 79.59 L 113.47 89.89 L 107.28 94.71 L 117.87 85.93 L 125.88 76.60 L 129.83 69.23 L 131.44 63.08 L 131.42 57.79 L 130.11 53.15 L 127.60 49.03 L 123.97 45.65 L 119.40 43.22 L 114.36 42.04 L 109.41 42.17 L 104.83 43.54 L 100.84 46.04 L 97.42 49.79 L 94.70 55.14 L 93.07 62.38 L 93.13 73.24 L 95.96 87.31 L 97.22 91.44 L 93.87 78.22 L 92.97 66.53 L 94.14 58.34 L 96.52 52.54 L 99.70 48.41 L 103.54 45.57 L 108.04 43.89 L 112.97 43.49 L 117.84 44.36 L 122.34 46.41 L 126.17 49.55 L 128.92 53.47 L 130.48 57.95 L 130.76 63.10 L 129.45 69.14 L 125.80 76.39 L 118.48 85.27 L 107.79 94.34 L 107.28 94.71 L 117.34 86.34 L 124.92 77.41 L 128.56 70.43 L 129.96 64.62 L 129.79 59.40 L 128.29 54.87 L 125.70 51.09 L 122.08 48.02 L 117.58 45.89 L 112.70 44.97 L 107.96 45.32 L 103.64 46.86 L 99.76 49.65 L 96.56 53.76 L 94.28 59.29 L 93.12 67.08 L 94.00 78.76 L 97.22 91.44 L 94.05 78.84 L 93.26 67.71 L 94.46 60.00 L 96.81 54.59 L 99.90 50.77 L 103.61 48.18 L 107.94 46.70 L 112.68 46.43 L 117.55 47.45 L 121.99 49.70 L 125.51 52.90 L 127.94 56.80 L 129.18 61.22 L 129.15 66.24 L 127.52 72.11 L 123.28 79.50 L 114.98 88.52 L 107.28 94.71 L 116.85 86.73 L 124.02 78.17 L 127.36 71.53 L 128.59 65.77 L 128.23 60.90 L 126.62 56.67 L 123.85 53.01 L 120.02 50.14 L 115.36 48.30 L 110.60 47.77 L 106.09 48.47 L 102.08 50.32 L 98.56 53.38 L 95.78 57.74 L 93.90 63.81 L 93.42 72.79 L 95.39 85.12 L 97.22 91.44 L 94.21 79.42 L 93.53 68.81 L 94.78 61.55 L 97.10 56.51 L 100.29 52.83 L 104.12 50.45 L 108.55 49.25 L 113.35 49.32 L 117.96 50.66 L 122.05 53.16 L 125.17 56.52 L 127.15 60.50 L 127.94 65.18 L 127.27 70.48 L 124.73 76.62 L 119.12 84.31 L 109.73 92.87 L 107.28 94.71 L 116.35 87.12 L 123.12 78.95 L 126.29 72.37 L 127.26 66.97 L 126.76 62.41 L 124.97 58.29 L 121.99 54.79 L 117.96 52.15 L 113.37 50.69 L 108.56 50.52 L 104.10 51.66 L 100.26 54.02 L 97.21 57.48 L 94.87 62.49 L 93.64 69.77 L 94.43 80.47 L 97.22 91.44 L 94.38 80.02 L 93.79 69.93 L 95.05 63.11 L 97.32 58.41 L 100.41 55.02 L 104.08 52.84 L 108.34 51.78 L 112.95 51.94 L 117.56 53.41 L 121.42 55.93 L 124.29 59.25 L 126.05 63.13 L 126.62 67.66 L 125.78 72.76 L 122.90 79.00 L 116.64 86.79 L 107.78 94.34 L 107.28 94.71 L 116.19 87.19 L 122.23 79.77 L 125.15 73.54 L 125.99 68.46 L 125.39 63.96 L 123.59 60.12 L 120.66 56.87 L 116.75 54.43 L 112.09 53.09 L 107.49 53.08 L 103.28 54.32 L 99.70 56.71 L 96.77 60.35 L 94.66 65.65 L 93.84 73.36 L 95.21 84.17 L 97.22 91.44 L 94.54 80.63 L 94.03 71.08 L 95.28 64.67 L 97.62 60.09 L 100.61 57.01 L 104.36 54.98 L 108.68 54.14 L 113.29 54.57 L 117.83 56.36 L 121.47 59.21 L 123.89 62.64 L 125.22 66.79 L 125.23 71.30 L 123.68 76.62 L 119.75 83.08 L 111.92 91.08 L 107.28 94.71 L 115.71 87.58 L 121.58 80.20 L 124.17 74.35 L 124.80 69.60 L 124.08 65.41 L 122.13 61.65 L 119.01 58.53 L 114.93 56.32 L 110.39 55.32 L 105.99 55.61 L 102.06 57.09 L 98.80 59.65 L 96.23 63.41 L 94.51 68.79 L 94.13 76.57 L 96.03 87.44 L 97.22 91.44 L 94.70 81.21 L 94.26 72.15 L 95.50 66.14 L 97.76 61.87 L 100.82 58.88 L 104.43 57.09 L 108.82 56.40 L 113.46 57.06 L 117.72 59.01 L 121.06 61.94 L 123.25 65.57 L 124.19 69.68 L 123.78 74.37 L 121.58 79.88 L 116.34 86.87 L 108.27 93.98 L 107.28 94.71 L 115.26 87.94 L 120.60 81.23 L 123.07 75.66 L 123.66 70.92 L 122.83 66.75 L 120.84 63.25 L 117.58 60.23 L 113.33 58.21 L 108.68 57.49 L 104.51 58.08 L 100.87 59.82 L 97.79 62.77 L 95.53 67.04 L 94.34 73.08 L 94.90 82.25 L 97.22 91.44 L 94.85 81.81 L 94.47 73.25 L 95.78 67.34 L 98.15 63.24 L 101.13 60.59 L 104.82 58.99 L 109.03 58.56 L 113.67 59.47 L 117.63 61.57 L 120.64 64.55 L 122.50 68.14 L 123.13 72.14 L 122.35 76.95 L 119.59 82.58 L 113.78 89.36 L 107.28 94.71 L 114.79 88.33 L 119.99 81.66 L 122.15 76.46 L 122.57 72.03 L 121.67 68.16 L 119.56 64.73 L 116.33 61.97 L 112.19 60.15 L 107.72 59.60 L 103.55 60.37 L 99.98 62.34 L 97.23 65.40 L 95.23 70.01 L 94.46 76.53 L 95.66 85.88 L 97.22 91.44 L 94.94 81.92 L 94.71 73.96 L 96.06 68.53 L 98.38 64.79 L 101.45 62.29 L 105.24 60.90 L 109.50 60.74 L 113.89 61.91 L 117.72 64.30 L 120.32 67.37 L 121.77 70.96 L 121.98 75.15 L 120.69 79.84 L 117.12 85.64 L 110.09 92.56 L 107.28 94.71 L 114.32 88.72 L 119.19 82.42 L 121.22 77.25 L 121.44 72.90 L 120.30 69.13 L 117.92 65.86 L 114.43 63.36 L 110.10 61.92 L 105.81 61.82 L 101.94 62.98 L 98.76 65.29 L 96.33 68.86 L 94.86 74.14 L 94.98 81.98 L 97.03 90.86 L 97.22 91.44 L 95.09 82.51 L 94.92 75.04 L 96.23 69.99 L 98.45 66.54 L 101.36 64.24 L 104.96 62.97 L 109.27 62.88 L 113.67 64.19 L 117.24 66.62 L 119.71 69.83 L 120.86 73.33 L 120.80 77.36 L 119.12 82.16 L 114.89 88.06 L 108.25 93.99 L 107.28 94.71 L 113.85 89.11 L 118.38 83.17 L 120.22 78.33 L 120.35 74.27 L 119.22 70.76 L 116.91 67.70 L 113.34 65.24 L 108.92 63.92 L 104.59 64.04 L 101.00 65.39 L 98.14 67.80 L 96.03 71.41 L 94.92 76.68 L 95.43 84.49 L 97.22 91.44 L 95.24 83.11 L 95.13 76.12 L 96.41 71.46 L 98.69 68.10 L 101.71 65.97 L 105.41 64.93 L 109.77 65.17 L 113.88 66.74 L 117.09 69.31 L 119.15 72.56 L 119.93 76.26 L 119.31 80.48 L 116.79 85.47 L 111.26 91.54 L 107.28 94.71 L 113.70 89.15 L 117.74 83.61 L 119.26 79.14 L 119.22 75.40 L 117.90 71.97 L 115.36 69.05 L 111.55 66.84 L 107.23 65.92 L 103.14 66.39 L 99.87 68.00 L 97.39 70.60 L 95.62 74.65 L 95.07 80.53 L 96.39 88.66 L 97.22 91.44 L 95.40 83.70 L 95.34 77.21 L 96.71 72.67 L 98.95 69.68 L 102.07 67.74 L 105.88 66.96 L 110.28 67.56 L 114.27 69.52 L 117.02 72.27 L 118.56 75.60 L 118.80 79.26 L 117.49 83.68 L 113.93 88.85 L 107.76 94.36 L 107.28 94.71 L 113.23 89.55 L 116.92 84.37 L 118.24 80.22 L 118.06 76.54 L 116.67 73.39 L 113.95 70.59 L 109.94 68.59 L 105.76 68.01 L 101.92 68.76 L 98.99 70.57 L 96.73 73.53 L 95.44 77.75 L 95.50 84.23 L 97.22 91.44 L 95.55 84.29 L 95.55 78.30 L 96.89 74.14 L 99.03 71.45 L 102.00 69.70 L 105.88 69.06 L 110.08 69.79 L 113.83 71.81 L 116.32 74.52 L 117.62 77.72 L 117.67 81.19 L 116.19 85.37 L 112.51 90.24 L 107.28 94.71 L 112.75 89.94 L 116.10 85.13 L 117.22 81.32 L 116.95 77.92 L 115.42 74.83 L 112.49 72.15 L 108.52 70.47 L 104.26 70.18 L 100.72 71.23 L 98.15 73.23 L 96.31 76.34 L 95.45 81.03 L 96.18 87.70 L 97.22 91.44 L 95.71 84.89 L 95.76 79.39 L 97.07 75.62 L 99.31 73.06 L 102.41 71.53 L 106.41 71.21 L 110.60 72.35 L 113.94 74.63 L 115.96 77.44 L 116.74 80.64 L 116.18 84.30 L 113.75 88.66 L 109.08 93.33 L 107.28 94.71 L 112.27 90.33 L 115.28 85.89 L 116.21 82.13 L 115.67 78.83 L 113.80 75.90 L 110.51 73.51 L 106.30 72.28 L 102.51 72.50 L 99.56 73.80 L 97.39 76.02 L 95.93 79.60 L 95.76 84.97 L 97.22 91.44 L 95.82 85.05 L 96.04 80.16 L 97.41 76.88 L 99.60 74.70 L 102.61 73.47 L 106.71 73.42 L 110.88 74.93 L 113.81 77.39 L 115.35 80.24 L 115.65 83.37 L 114.58 86.88 L 111.57 91.02 L 107.28 94.71 L 111.79 90.72 L 114.45 86.65 L 115.17 83.23 L 114.52 80.23 L 112.64 77.55 L 109.15 75.27 L 104.78 74.31 L 101.24 74.83 L 98.64 76.36 L 96.75 78.97 L 95.86 82.77 L 96.37 88.33 L 97.22 91.44 L 95.98 85.66 L 96.27 81.27 L 97.61 78.38 L 99.93 76.37 L 103.09 75.41 L 107.30 75.79 L 111.14 77.63 L 113.59 80.26 L 114.59 83.12 L 114.33 86.15 L 112.45 89.80 L 108.59 93.71 L 107.28 94.71 L 111.30 91.12 L 113.60 87.42 L 114.11 84.33 L 113.36 81.62 L 111.25 79.04 L 107.48 76.98 L 103.22 76.43 L 99.99 77.28 L 97.80 79.03 L 96.39 81.83 L 96.08 86.17 L 97.22 91.44 L 96.14 86.27 L 96.50 82.39 L 97.82 79.89 L 100.06 78.19 L 103.36 77.45 L 107.67 78.20 L 111.15 80.30 L 113.00 82.78 L 113.60 85.55 L 112.81 88.70 L 110.33 92.11 L 107.28 94.71 L 110.81 91.52 L 112.75 88.19 L 113.03 85.44 L 112.04 82.81 L 109.57 80.39 L 105.44 78.70 L 101.63 78.66 L 99.00 79.72 L 97.21 81.63 L 96.28 84.53 L 96.55 88.96 L 97.22 91.44 L 96.31 86.89 L 96.75 83.52 L 98.22 81.24 L 100.70 79.87 L 104.51 79.64 L 108.81 81.16 L 111.43 83.51 L 112.46 85.87 L 112.32 88.58 L 110.69 91.56 L 107.28 94.71 L 110.32 91.92 L 111.80 89.26 L 111.98 86.81 L 110.96 84.44 L 108.26 82.08 L 103.85 80.64 L 100.28 80.96 L 98.06 82.28 L 96.77 84.37 L 96.40 87.40 L 97.22 91.44 L 96.48 87.52 L 97.00 84.67 L 98.48 82.81 L 100.90 81.78 L 104.92 81.93 L 109.17 83.97 L 111.05 86.26 L 111.54 88.54 L 110.77 91.08 L 108.45 93.79 L 107.28 94.71 L 109.81 92.32 L 110.93 90.03 L 110.88 87.92 L 109.52 85.65 L 106.04 83.42 L 101.30 82.72 L 98.72 83.54 L 97.26 85.02 L 96.59 87.31 L 96.94 90.50 L 97.22 91.44 L 96.66 88.16 L 97.27 85.85 L 98.76 84.42 L 101.44 83.72 L 106.59 84.84 L 109.61 87.20 L 110.52 89.37 L 110.15 91.53 L 108.37 93.83 L 107.28 94.71 L 122.60 84.90 L 137.75 78.15 L 148.59 75.61 L 156.97 75.35 L 163.86 76.65 L 169.37 79.10 L 173.82 82.52 L 177.21 86.70 L 179.59 91.64 L 180.85 97.17 L 180.85 102.83 L 179.59 108.36 L 177.21 113.30 L 173.82 117.48 L 169.37 120.90 L 163.86 123.35 L 156.97 124.65 L 148.59 124.39 L 137.75 121.85 L 122.60 115.10 L 107.28 105.29 L 122.55 115.03 L 137.18 121.45 L 147.93 123.86 L 156.20 123.97 L 162.69 122.58 L 167.89 120.14 L 172.23 116.62 L 175.48 112.35 L 177.69 107.33 L 178.73 101.75 L 178.48 96.08 L 177.03 90.81 L 174.39 85.97 L 170.73 81.96 L 166.19 78.90 L 160.39 76.75 L 153.17 75.86 L 144.04 76.75 L 132.27 80.34 L 116.37 88.58 L 107.28 94.71 L 122.05 85.29 L 136.25 79.06 L 146.62 76.73 L 154.59 76.62 L 161.08 78.01 L 166.25 80.49 L 170.37 83.90 L 173.57 88.21 L 175.70 93.29 L 176.61 98.68 L 176.29 104.15 L 174.75 109.41 L 172.11 114.03 L 168.53 117.83 L 163.91 120.82 L 158.25 122.80 L 151.23 123.54 L 142.36 122.58 L 130.48 118.79 L 114.39 110.16 L 107.28 105.29 L 121.51 114.37 L 135.24 120.41 L 145.58 122.72 L 153.48 122.77 L 159.64 121.38 L 164.73 118.84 L 168.77 115.37 L 171.85 110.99 L 173.78 106.08 L 174.56 100.66 L 174.08 95.21 L 172.35 90.00 L 169.51 85.49 L 165.70 81.84 L 160.83 79.08 L 154.91 77.43 L 147.59 77.10 L 137.97 78.76 L 125.13 83.75 L 109.85 92.88 L 107.28 94.71 L 121.49 85.68 L 134.75 79.94 L 144.68 77.80 L 152.24 77.81 L 158.37 79.27 L 163.20 81.76 L 167.18 85.30 L 170.06 89.57 L 171.90 94.54 L 172.55 100.00 L 171.90 105.46 L 170.06 110.43 L 167.18 114.70 L 163.20 118.24 L 158.37 120.73 L 152.24 122.19 L 144.68 122.20 L 134.75 120.06 L 121.03 114.07 L 107.28 105.29 L 120.98 114.00 L 134.20 119.69 L 143.71 121.68 L 151.21 121.60 L 157.01 120.14 L 161.78 117.59 L 165.53 114.15 L 168.34 109.84 L 170.07 104.83 L 170.58 99.56 L 169.87 94.31 L 167.93 89.37 L 164.92 85.17 L 160.99 81.87 L 156.03 79.50 L 149.75 78.24 L 141.99 78.52 L 131.80 81.11 L 117.71 87.84 L 107.28 94.71 L 120.48 86.31 L 133.27 80.79 L 142.76 78.82 L 149.93 78.93 L 155.70 80.43 L 160.41 83.05 L 164.07 86.56 L 166.76 90.95 L 168.34 96.03 L 168.65 101.33 L 167.71 106.56 L 165.62 111.22 L 162.54 115.13 L 158.40 118.27 L 153.21 120.40 L 146.64 121.32 L 138.56 120.57 L 127.54 117.09 L 112.85 109.13 L 107.28 105.29 L 120.45 113.63 L 132.76 118.86 L 141.85 120.69 L 148.97 120.51 L 154.67 118.91 L 159.09 116.32 L 162.66 112.73 L 165.22 108.25 L 166.59 103.33 L 166.76 98.00 L 165.62 92.79 L 163.32 88.19 L 160.00 84.42 L 155.81 81.62 L 150.63 79.80 L 144.14 79.19 L 135.82 80.30 L 124.47 84.36 L 110.35 92.54 L 107.28 94.71 L 119.92 86.70 L 132.17 81.51 L 141.18 79.77 L 147.92 80.02 L 153.31 81.58 L 157.69 84.21 L 161.05 87.67 L 163.48 91.96 L 164.83 96.89 L 164.94 102.22 L 163.81 107.21 L 161.58 111.60 L 158.23 115.35 L 154.00 118.10 L 148.75 119.83 L 142.17 120.29 L 133.71 118.93 L 122.17 114.46 L 108.82 106.39 L 107.28 105.29 L 119.85 113.23 L 131.61 118.14 L 140.21 119.76 L 146.91 119.46 L 152.23 117.83 L 156.51 115.12 L 159.76 111.58 L 162.04 107.21 L 163.21 102.23 L 163.13 97.11 L 161.80 92.16 L 159.36 87.87 L 155.97 84.43 L 151.53 81.87 L 146.06 80.41 L 139.21 80.32 L 130.04 82.35 L 117.56 88.03 L 107.28 94.71 L 119.40 87.05 L 131.16 82.18 L 139.72 80.67 L 146.05 81.07 L 151.31 82.81 L 155.32 85.49 L 158.47 89.13 L 160.62 93.59 L 161.60 98.65 L 161.29 103.80 L 159.79 108.50 L 157.25 112.52 L 153.63 115.82 L 149.19 118.08 L 143.47 119.28 L 136.32 118.98 L 126.77 116.34 L 113.77 109.69 L 107.28 105.29 L 118.91 112.64 L 130.26 117.38 L 138.48 118.87 L 144.83 118.49 L 149.85 116.84 L 153.87 114.16 L 157.00 110.50 L 159.10 106.00 L 159.99 100.90 L 159.56 95.75 L 157.91 91.08 L 155.19 87.15 L 151.58 84.12 L 146.96 82.03 L 141.03 81.10 L 133.63 81.78 L 123.32 85.19 L 110.82 92.24 L 107.28 94.71 L 118.82 87.44 L 129.66 82.97 L 137.81 81.56 L 144.06 82.02 L 148.97 83.77 L 152.86 86.55 L 155.84 90.31 L 157.76 94.87 L 158.43 99.77 L 157.87 104.69 L 156.07 109.30 L 153.19 113.13 L 149.41 115.99 L 144.60 117.85 L 138.45 118.47 L 130.42 117.24 L 119.72 113.02 L 107.79 105.66 L 107.28 105.29 L 118.35 112.27 L 129.18 116.72 L 136.95 118.02 L 142.91 117.56 L 147.82 115.79 L 151.67 112.96 L 154.46 109.33 L 156.26 104.93 L 156.90 100.00 L 156.26 95.07 L 154.46 90.67 L 151.67 87.04 L 147.82 84.21 L 142.91 82.44 L 136.95 81.98 L 129.18 83.28 L 118.35 87.73 L 107.28 94.71 L 118.28 87.80 L 128.62 83.61 L 136.33 82.38 L 142.20 82.93 L 146.79 84.69 L 150.40 87.42 L 153.14 91.08 L 154.87 95.50 L 155.40 100.45 L 154.63 105.37 L 152.68 109.71 L 149.72 113.22 L 145.90 115.77 L 141.12 117.29 L 135.03 117.55 L 126.69 115.80 L 115.55 110.69 L 107.28 105.29 L 117.83 111.92 L 128.18 116.10 L 135.53 117.23 L 141.38 116.61 L 145.91 114.76 L 149.44 111.93 L 152.06 108.16 L 153.61 103.63 L 153.92 98.63 L 152.95 93.94 L 150.89 89.87 L 147.89 86.62 L 143.89 84.22 L 138.89 82.93 L 132.53 83.02 L 123.84 85.33 L 112.72 91.02 L 107.28 94.71 L 117.78 88.14 L 127.66 84.21 L 134.96 83.15 L 140.47 83.80 L 144.95 85.70 L 148.40 88.60 L 150.91 92.45 L 152.32 97.03 L 152.47 101.83 L 151.36 106.50 L 149.13 110.50 L 145.96 113.62 L 141.75 115.81 L 136.51 116.81 L 129.87 116.30 L 120.83 113.33 L 109.79 107.06 L 107.28 105.29 L 117.30 111.57 L 127.16 115.49 L 134.40 116.47 L 139.84 115.72 L 144.01 113.83 L 147.39 110.86 L 149.80 106.94 L 151.06 102.30 L 151.03 97.48 L 149.70 92.85 L 147.24 88.96 L 143.81 86.03 L 139.58 84.21 L 134.09 83.53 L 126.78 84.61 L 116.85 88.66 L 107.28 94.71 L 117.27 88.48 L 126.68 84.81 L 133.56 83.90 L 138.72 84.60 L 142.91 86.49 L 146.11 89.31 L 148.44 93.03 L 149.71 97.46 L 149.74 102.31 L 148.53 106.75 L 146.26 110.51 L 143.11 113.38 L 138.98 115.33 L 133.87 116.10 L 127.05 115.29 L 117.71 111.74 L 107.79 105.66 L 107.28 105.29 L 117.19 111.44 L 126.11 114.89 L 132.94 115.75 L 138.02 114.98 L 142.12 113.01 L 145.22 110.11 L 147.41 106.32 L 148.51 101.85 L 148.35 97.01 L 146.94 92.63 L 144.46 89.00 L 141.08 86.34 L 136.71 84.68 L 131.02 84.31 L 123.43 85.90 L 113.57 90.55 L 107.28 94.71 L 116.73 88.83 L 125.66 85.39 L 132.14 84.60 L 137.22 85.40 L 141.08 87.29 L 144.16 90.23 L 146.30 94.08 L 147.31 98.60 L 147.01 103.47 L 145.43 107.82 L 142.92 111.18 L 139.38 113.72 L 135.09 115.13 L 129.55 115.29 L 122.20 113.56 L 112.17 108.58 L 107.28 105.29 L 116.67 111.10 L 125.50 114.41 L 131.87 115.05 L 136.57 114.19 L 140.34 112.22 L 143.31 109.19 L 145.31 105.27 L 146.15 100.70 L 145.70 96.07 L 144.07 91.98 L 141.45 88.70 L 138.01 86.39 L 133.63 85.11 L 127.98 85.13 L 120.47 87.18 L 110.71 92.34 L 107.28 94.71 L 116.23 89.15 L 124.72 85.93 L 130.81 85.26 L 135.57 86.09 L 139.36 88.07 L 142.18 90.95 L 144.19 94.91 L 144.99 99.53 L 144.46 104.19 L 142.71 108.27 L 139.93 111.48 L 136.31 113.64 L 131.72 114.69 L 125.81 114.30 L 117.53 111.48 L 108.28 106.00 L 107.28 105.29 L 116.18 110.79 L 124.22 113.79 L 130.27 114.42 L 134.97 113.52 L 138.68 111.44 L 141.39 108.47 L 143.25 104.43 L 143.87 99.76 L 143.11 95.12 L 141.26 91.34 L 138.49 88.41 L 134.72 86.39 L 129.97 85.57 L 123.85 86.30 L 115.31 89.66 L 107.28 94.71 L 115.71 89.49 L 123.73 86.47 L 129.75 85.89 L 134.39 86.88 L 137.83 88.89 L 140.49 91.91 L 142.20 95.78 L 142.76 100.47 L 142.00 104.89 L 140.09 108.67 L 137.25 111.55 L 133.65 113.39 L 128.83 114.13 L 122.62 113.25 L 114.38 109.82 L 107.28 105.29 L 115.67 110.46 L 123.62 113.34 L 129.24 113.79 L 133.57 112.82 L 136.98 110.77 L 139.59 107.70 L 141.22 103.77 L 141.66 99.28 L 140.81 94.86 L 138.79 91.13 L 135.81 88.35 L 132.05 86.67 L 127.05 86.19 L 120.61 87.48 L 112.09 91.51 L 107.28 94.71 L 115.63 89.60 L 123.13 86.92 L 128.72 86.53 L 132.99 87.58 L 136.31 89.72 L 138.81 92.90 L 140.27 96.91 L 140.52 101.44 L 139.43 105.82 L 137.32 109.25 L 134.35 111.73 L 130.43 113.22 L 125.56 113.45 L 118.95 111.84 L 110.20 107.30 L 107.28 105.29 L 115.16 110.13 L 122.65 112.81 L 128.19 113.15 L 132.40 112.01 L 135.64 109.77 L 138.00 106.49 L 139.30 102.40 L 139.34 97.84 L 138.11 93.72 L 135.81 90.40 L 132.63 88.10 L 128.49 86.88 L 123.01 87.12 L 115.58 89.66 L 107.77 94.35 L 107.28 94.71 L 115.11 89.93 L 122.17 87.45 L 127.38 87.14 L 131.35 88.18 L 134.43 90.24 L 136.75 93.28 L 138.17 97.35 L 138.28 101.93 L 137.08 106.08 L 134.78 109.42 L 131.81 111.60 L 127.96 112.79 L 122.88 112.68 L 115.96 110.47 L 108.26 105.99 L 107.28 105.29 L 114.64 109.81 L 121.69 112.28 L 126.85 112.53 L 130.76 111.41 L 133.75 109.24 L 135.95 106.10 L 137.18 101.94 L 137.07 97.34 L 135.61 93.26 L 133.23 90.25 L 130.05 88.28 L 125.96 87.39 L 120.60 87.96 L 113.34 90.86 L 107.28 94.71 L 114.60 90.25 L 121.20 87.99 L 126.04 87.76 L 129.93 88.90 L 132.89 91.11 L 135.02 94.31 L 136.14 98.53 L 135.92 102.92 L 134.47 106.77 L 132.01 109.73 L 128.74 111.61 L 124.53 112.33 L 119.01 111.48 L 111.53 108.09 L 107.28 105.29 L 114.55 109.68 L 121.07 111.81 L 125.79 111.87 L 129.33 110.68 L 132.19 108.36 L 134.18 105.05 L 135.11 100.74 L 134.64 96.35 L 132.93 92.60 L 130.39 89.99 L 127.15 88.43 L 122.75 88.00 L 116.99 89.29 L 109.67 93.07 L 107.28 94.71 L 114.08 90.58 L 120.24 88.52 L 124.98 88.42 L 128.51 89.63 L 131.33 92.00 L 133.24 95.39 L 134.03 99.75 L 133.40 104.15 L 131.63 107.62 L 128.94 110.11 L 125.54 111.47 L 120.93 111.59 L 114.91 109.80 L 107.77 105.64 L 107.28 105.29 L 114.03 109.35 L 120.10 111.27 L 124.44 111.24 L 127.90 109.93 L 130.46 107.63 L 132.28 104.17 L 132.94 99.75 L 132.20 95.59 L 130.30 92.18 L 127.68 89.94 L 124.16 88.71 L 119.75 88.79 L 113.61 90.85 L 107.28 94.71 L 113.56 90.92 L 119.27 89.06 L 123.63 89.05 L 126.85 90.25 L 129.43 92.54 L 131.25 96.03 L 131.85 100.25 L 131.09 104.44 L 129.28 107.65 L 126.63 109.88 L 123.35 111.00 L 118.92 110.88 L 113.14 108.88 L 107.28 105.29 L 113.51 109.01 L 119.12 110.72 L 123.09 110.61 L 126.24 109.30 L 128.70 106.89 L 130.35 103.27 L 130.72 98.98 L 129.68 94.84 L 127.59 91.80 L 124.89 89.97 L 121.36 89.18 L 116.64 89.81 L 110.52 92.57 L 107.28 94.71 L 113.04 91.25 L 118.29 89.60 L 122.28 89.68 L 125.41 91.01 L 127.82 93.50 L 129.36 97.20 L 129.57 101.54 L 128.44 105.42 L 126.38 108.21 L 123.58 109.94 L 119.93 110.54 L 115.03 109.57 L 109.15 106.57 L 107.28 105.29 L 112.99 108.68 L 118.14 110.17 L 122.00 109.90 L 124.98 108.36 L 127.18 105.68 L 128.44 101.81 L 128.31 97.42 L 126.93 93.89 L 124.78 91.48 L 122.00 90.10 L 118.14 89.83 L 112.99 91.32 L 107.28 94.71 L 112.93 91.40 L 117.65 90.11 L 121.19 90.39 L 123.94 91.81 L 126.04 94.28 L 127.35 98.17 L 127.21 102.60 L 125.77 106.15 L 123.54 108.50 L 120.65 109.74 L 116.98 109.81 L 112.12 108.23 L 107.28 105.29 L 112.46 108.34 L 117.16 109.61 L 120.63 109.24 L 123.29 107.70 L 125.25 105.08 L 126.34 101.06 L 125.91 96.61 L 124.32 93.41 L 122.07 91.40 L 119.00 90.41 L 115.11 90.73 L 109.98 92.94 L 107.28 94.71 L 112.40 91.74 L 116.66 90.67 L 119.82 91.05 L 122.45 92.63 L 124.34 95.34 L 125.29 99.46 L 124.72 103.68 L 122.98 106.82 L 120.56 108.66 L 117.60 109.35 L 113.54 108.69 L 108.64 106.23 L 107.28 105.29 L 111.94 108.00 L 116.17 109.05 L 119.26 108.58 L 121.61 107.03 L 123.41 104.22 L 124.21 100.00 L 123.41 95.78 L 121.61 92.97 L 119.26 91.42 L 116.17 90.95 L 111.94 92.00 L 107.28 94.71 L 111.87 92.09 L 115.67 91.23 L 118.45 91.71 L 120.76 93.31 L 122.48 96.23 L 123.10 100.56 L 122.18 104.52 L 120.40 107.05 L 117.94 108.47 L 114.71 108.69 L 110.69 107.39 L 107.28 105.29 L 111.41 107.66 L 115.17 108.48 L 117.88 107.90 L 120.07 106.14 L 121.61 103.05 L 121.94 98.59 L 120.80 94.95 L 118.98 92.78 L 116.61 91.67 L 113.56 91.68 L 109.43 93.31 L 107.28 94.71 L 111.33 92.44 L 114.67 91.81 L 117.29 92.51 L 119.36 94.44 L 120.75 98.00 L 120.64 102.55 L 119.21 105.77 L 117.29 107.49 L 114.67 108.19 L 111.33 107.56 L 107.28 105.29 L 110.88 107.31 L 113.86 107.90 L 116.25 107.32 L 118.19 105.62 L 119.60 102.32 L 119.60 97.68 L 118.19 94.38 L 116.25 92.68 L 113.86 92.10 L 110.88 92.69 L 107.28 94.71 L 110.78 92.80 L 113.65 92.41 L 115.88 93.24 L 117.61 95.22 L 118.71 99.10 L 118.08 103.76 L 116.48 106.26 L 114.46 107.43 L 111.81 107.49 L 108.52 106.12 L 107.28 105.29 L 110.33 106.96 L 112.86 107.32 L 114.85 106.61 L 116.59 104.62 L 117.64 100.62 L 116.84 95.89 L 115.26 93.70 L 113.40 92.77 L 111.01 92.84 L 108.09 94.16 L 107.28 94.71 L 110.23 93.17 L 112.61 93.03 L 114.44 94.01 L 115.93 96.34 L 116.45 101.58 L 115.14 105.18 L 113.36 106.72 L 111.19 107.03 L 108.45 106.05 L 107.28 105.29 L 121.35 116.83 L 132.44 129.15 L 138.21 138.67 L 141.05 146.57 L 141.94 153.51 L 141.32 159.52 L 139.44 164.81 L 136.51 169.32 L 132.54 173.12 L 127.67 176.01 L 122.29 177.76 L 116.65 178.28 L 111.21 177.54 L 106.19 175.61 L 101.56 172.44 L 97.52 167.95 L 94.16 161.80 L 91.82 153.74 L 90.89 142.65 L 92.62 126.16 L 97.22 108.56 L 92.67 126.09 L 91.09 141.99 L 92.11 152.96 L 94.57 160.86 L 97.90 166.60 L 101.83 170.79 L 106.51 173.83 L 111.58 175.60 L 117.04 176.15 L 122.67 175.42 L 127.98 173.43 L 132.54 170.42 L 136.33 166.41 L 139.02 161.69 L 140.52 156.43 L 140.78 150.25 L 139.39 143.11 L 135.73 134.70 L 128.67 124.62 L 115.92 112.04 L 107.28 105.29 L 120.80 116.42 L 131.12 128.00 L 136.54 137.15 L 139.11 144.69 L 139.79 151.30 L 139.02 156.98 L 137.06 161.95 L 133.94 166.33 L 129.78 169.92 L 124.92 172.45 L 119.63 173.84 L 114.15 174.00 L 108.94 172.92 L 104.22 170.68 L 99.94 167.21 L 96.32 162.44 L 93.44 156.00 L 91.62 147.27 L 91.55 134.80 L 94.78 116.83 L 97.22 108.56 L 92.98 124.89 L 91.47 139.83 L 92.47 150.37 L 94.87 157.89 L 98.10 163.32 L 102.09 167.39 L 106.63 170.16 L 111.75 171.73 L 117.02 172.05 L 122.41 171.11 L 127.45 168.97 L 131.87 165.72 L 135.28 161.62 L 137.57 156.88 L 138.69 151.39 L 138.44 145.24 L 136.48 138.18 L 131.93 129.55 L 123.22 118.88 L 109.82 107.17 L 107.28 105.29 L 120.26 116.01 L 129.82 126.85 L 134.92 135.64 L 137.24 142.83 L 137.75 149.10 L 136.87 154.47 L 134.74 159.35 L 131.57 163.41 L 127.41 166.69 L 122.42 169.00 L 117.02 170.07 L 111.73 169.85 L 106.78 168.43 L 102.19 165.74 L 98.32 161.92 L 95.04 156.54 L 92.69 149.36 L 91.66 139.25 L 93.12 124.35 L 97.22 108.56 L 93.17 124.28 L 91.84 138.61 L 92.88 148.27 L 95.28 155.38 L 98.46 160.45 L 102.36 164.19 L 106.79 166.69 L 111.76 168.03 L 117.06 168.14 L 122.23 166.99 L 127.00 164.69 L 131.10 161.32 L 134.17 157.16 L 136.09 152.41 L 136.81 146.96 L 136.06 140.59 L 133.40 133.30 L 127.79 124.40 L 117.03 113.09 L 107.28 105.29 L 119.34 115.24 L 128.55 125.70 L 133.36 134.12 L 135.46 140.97 L 135.83 146.93 L 134.79 152.22 L 132.58 156.78 L 129.24 160.70 L 124.89 163.76 L 119.95 165.70 L 114.69 166.42 L 109.60 165.87 L 104.93 164.15 L 100.67 161.19 L 97.04 156.91 L 94.14 150.95 L 92.36 143.03 L 92.25 131.48 L 95.29 115.04 L 97.22 108.56 L 93.36 123.66 L 92.19 136.98 L 93.25 146.19 L 95.63 152.91 L 98.91 157.84 L 102.74 161.24 L 107.26 163.52 L 112.30 164.58 L 117.41 164.36 L 122.53 162.87 L 127.14 160.18 L 130.79 156.57 L 133.35 152.25 L 134.73 147.40 L 134.86 141.91 L 133.43 135.55 L 129.80 127.98 L 122.43 118.44 L 110.29 107.54 L 107.28 105.29 L 118.80 114.83 L 127.53 124.88 L 131.97 132.91 L 133.81 139.40 L 133.99 145.01 L 132.85 149.99 L 130.59 154.25 L 127.27 157.89 L 122.99 160.70 L 117.95 162.45 L 112.86 162.91 L 108.00 162.15 L 103.40 160.12 L 99.47 156.95 L 96.21 152.49 L 93.73 146.37 L 92.41 137.91 L 93.09 125.55 L 96.65 110.36 L 97.22 108.56 L 93.56 122.97 L 92.52 135.67 L 93.63 144.35 L 95.99 150.62 L 99.18 155.18 L 103.08 158.42 L 107.45 160.41 L 112.31 161.24 L 117.41 160.80 L 122.26 159.14 L 126.55 156.35 L 129.88 152.71 L 132.10 148.42 L 133.17 143.41 L 132.86 137.75 L 130.83 131.21 L 126.07 123.12 L 116.81 113.00 L 107.28 105.29 L 118.31 114.45 L 126.58 124.13 L 130.66 131.80 L 132.23 137.95 L 132.20 143.49 L 130.89 148.12 L 128.41 152.25 L 124.83 155.67 L 120.32 158.17 L 115.33 159.47 L 110.39 159.49 L 105.78 158.32 L 101.52 155.90 L 98.00 152.37 L 95.10 147.30 L 93.18 140.41 L 92.73 130.51 L 95.04 116.09 L 97.22 108.56 L 93.82 121.89 L 92.82 134.14 L 93.95 142.43 L 96.27 148.35 L 99.39 152.61 L 103.18 155.61 L 107.63 157.45 L 112.56 158.06 L 117.68 157.34 L 122.45 155.33 L 126.38 152.31 L 129.28 148.52 L 131.04 144.15 L 131.60 139.11 L 130.66 133.18 L 127.72 126.36 L 121.29 117.61 L 110.73 107.89 L 107.28 105.29 L 117.76 114.02 L 125.36 122.95 L 129.22 130.26 L 130.71 136.35 L 130.57 141.56 L 129.13 146.12 L 126.48 150.11 L 122.72 153.35 L 118.27 155.50 L 113.42 156.49 L 108.48 156.20 L 103.95 154.65 L 100.06 151.93 L 96.80 147.94 L 94.32 142.28 L 93.00 134.26 L 93.71 122.77 L 97.03 109.16 L 97.22 108.56 L 94.00 121.24 L 93.12 132.92 L 94.28 140.71 L 96.56 146.24 L 99.76 150.35 L 103.64 153.14 L 107.96 154.68 L 112.70 155.03 L 117.58 154.11 L 122.08 151.98 L 125.70 148.91 L 128.29 145.13 L 129.79 140.60 L 129.96 135.38 L 128.56 129.57 L 124.92 122.59 L 117.34 113.66 L 107.28 105.29 L 117.25 113.62 L 124.43 122.16 L 127.99 129.11 L 129.27 134.86 L 129.02 139.77 L 127.54 144.04 L 124.91 147.79 L 121.23 150.80 L 116.69 152.83 L 111.77 153.62 L 107.05 153.10 L 102.79 151.37 L 99.19 148.53 L 96.26 144.45 L 94.13 138.74 L 93.22 130.27 L 94.63 118.09 L 97.22 108.56 L 94.17 120.64 L 93.40 131.78 L 94.59 139.11 L 96.99 144.49 L 100.15 148.23 L 103.93 150.70 L 108.33 152.03 L 113.11 152.11 L 117.96 150.85 L 122.12 148.49 L 125.36 145.27 L 127.52 141.41 L 128.57 136.87 L 128.26 131.71 L 126.21 125.69 L 121.32 118.14 L 112.47 109.33 L 107.28 105.29 L 116.78 113.25 L 123.56 121.43 L 126.82 128.04 L 127.91 133.48 L 127.49 138.33 L 125.79 142.51 L 122.92 146.09 L 118.99 148.85 L 114.47 150.47 L 109.69 150.86 L 105.20 149.97 L 101.25 147.92 L 97.87 144.59 L 95.29 139.91 L 93.73 133.45 L 93.76 123.94 L 96.32 111.49 L 97.22 108.56 L 94.34 120.03 L 93.66 130.62 L 94.97 137.81 L 97.36 142.75 L 100.44 146.14 L 104.31 148.43 L 108.79 149.50 L 113.59 149.27 L 118.17 147.75 L 122.16 145.06 L 125.10 141.51 L 126.82 137.35 L 127.25 132.76 L 126.20 127.33 L 122.91 120.72 L 115.99 112.52 L 107.28 105.29 L 116.29 112.86 L 122.69 120.68 L 125.69 126.94 L 126.61 132.07 L 126.11 136.63 L 124.42 140.55 L 121.59 143.91 L 117.77 146.49 L 113.17 148.02 L 108.57 148.24 L 104.30 147.25 L 100.60 145.14 L 97.47 141.81 L 95.15 137.19 L 93.82 130.45 L 94.30 120.47 L 97.03 109.15 L 97.22 108.56 L 94.43 119.88 L 93.91 129.43 L 95.20 136.19 L 97.51 140.79 L 100.64 144.08 L 104.36 146.13 L 108.64 147.04 L 113.23 146.71 L 117.79 145.06 L 121.52 142.36 L 124.19 138.88 L 125.69 134.85 L 125.92 130.18 L 124.51 124.65 L 120.65 117.93 L 113.18 109.99 L 107.28 105.29 L 115.80 112.46 L 121.83 119.89 L 124.58 125.81 L 125.39 130.89 L 124.78 135.14 L 122.94 138.98 L 119.94 142.20 L 115.95 144.57 L 111.23 145.78 L 106.60 145.62 L 102.63 144.27 L 99.12 141.69 L 96.46 138.05 L 94.59 132.83 L 93.96 125.30 L 95.59 114.22 L 97.22 108.56 L 94.59 119.28 L 94.18 128.70 L 95.53 134.96 L 97.81 139.17 L 100.85 142.14 L 104.64 144.03 L 108.99 144.72 L 113.60 144.11 L 117.86 142.25 L 121.24 139.44 L 123.56 135.93 L 124.69 131.94 L 124.56 127.39 L 122.78 122.02 L 118.52 115.51 L 110.59 107.82 L 107.28 105.29 L 115.33 112.09 L 121.01 119.16 L 123.54 124.75 L 124.23 129.53 L 123.51 133.75 L 121.64 137.32 L 118.49 140.45 L 114.35 142.65 L 109.75 143.58 L 105.34 143.17 L 101.42 141.52 L 98.25 138.75 L 95.83 134.71 L 94.37 128.96 L 94.50 120.23 L 96.85 109.73 L 97.22 108.56 L 94.74 118.73 L 94.37 127.29 L 95.64 133.25 L 97.95 137.44 L 101.07 140.32 L 104.74 141.98 L 109.15 142.50 L 113.78 141.65 L 117.96 139.50 L 120.99 136.56 L 122.92 133.02 L 123.67 128.82 L 122.99 124.04 L 120.40 118.45 L 114.56 111.36 L 107.28 105.29 L 114.85 111.69 L 120.20 118.39 L 122.61 123.94 L 123.11 128.65 L 122.25 132.54 L 120.20 136.01 L 117.05 138.83 L 112.76 140.82 L 108.32 141.45 L 104.14 140.81 L 100.52 139.00 L 97.66 136.14 L 95.47 131.79 L 94.39 125.61 L 95.11 116.71 L 97.22 108.56 L 94.89 118.14 L 94.61 126.58 L 95.92 132.07 L 98.18 135.89 L 101.18 138.50 L 104.91 140.03 L 109.15 140.37 L 113.56 139.40 L 117.50 137.22 L 120.42 134.15 L 122.15 130.46 L 122.58 126.37 L 121.49 121.46 L 118.28 115.73 L 111.81 108.87 L 107.28 105.29 L 114.72 111.65 L 119.59 117.96 L 121.69 123.15 L 122.01 127.54 L 121.00 131.36 L 118.75 134.71 L 115.39 137.35 L 111.16 138.98 L 106.65 139.30 L 102.74 138.35 L 99.46 136.29 L 96.83 133.03 L 95.11 128.47 L 94.59 121.68 L 96.21 111.95 L 97.22 108.56 L 95.05 117.55 L 94.81 125.50 L 96.21 130.88 L 98.59 134.53 L 101.72 136.91 L 105.57 138.15 L 109.86 138.12 L 114.21 136.75 L 117.74 134.30 L 120.19 131.09 L 121.41 127.36 L 121.28 123.04 L 119.36 117.90 L 114.65 111.63 L 107.77 105.65 L 107.28 105.29 L 114.25 111.26 L 118.78 117.21 L 120.69 122.06 L 120.93 126.16 L 119.92 129.73 L 117.75 132.88 L 114.31 135.48 L 109.99 137.00 L 105.67 137.14 L 101.79 135.99 L 98.80 133.84 L 96.48 130.54 L 95.01 125.67 L 94.97 118.41 L 96.86 109.71 L 97.22 108.56 L 95.20 116.95 L 95.02 124.42 L 96.38 129.41 L 98.66 132.78 L 101.64 134.96 L 105.30 136.07 L 109.64 135.96 L 113.99 134.43 L 117.42 131.79 L 119.54 128.59 L 120.43 124.95 L 120.01 120.80 L 117.82 115.87 L 112.81 109.86 L 107.28 105.29 L 113.78 110.87 L 117.98 116.45 L 119.68 120.98 L 119.81 125.04 L 118.62 128.54 L 116.23 131.55 L 112.57 133.92 L 108.32 135.06 L 104.22 134.87 L 100.64 133.45 L 97.84 130.92 L 95.85 127.14 L 94.96 121.63 L 95.86 113.46 L 97.22 108.56 L 95.29 116.83 L 95.28 123.69 L 96.68 128.20 L 98.91 131.20 L 102.00 133.20 L 105.76 134.07 L 110.14 133.62 L 114.18 131.82 L 117.21 129.03 L 118.91 125.81 L 119.39 122.25 L 118.44 117.93 L 115.43 112.85 L 109.58 107.05 L 107.28 105.29 L 113.31 110.48 L 117.17 115.70 L 118.73 120.18 L 118.67 123.91 L 117.29 127.32 L 114.66 130.18 L 110.75 132.29 L 106.37 133.04 L 102.53 132.43 L 99.33 130.65 L 96.98 127.83 L 95.45 123.48 L 95.29 117.21 L 97.04 109.13 L 97.22 108.56 L 95.44 116.23 L 95.50 122.59 L 96.87 126.72 L 99.18 129.60 L 102.15 131.32 L 106.01 131.99 L 110.42 131.25 L 114.14 129.26 L 116.80 126.40 L 118.12 123.22 L 118.20 119.49 L 116.76 115.32 L 112.91 110.12 L 107.28 105.29 L 112.83 110.09 L 116.36 114.94 L 117.71 119.09 L 117.57 122.53 L 116.19 125.69 L 113.43 128.49 L 109.60 130.37 L 105.39 130.94 L 101.77 130.21 L 98.84 128.38 L 96.76 125.60 L 95.50 121.36 L 95.61 115.25 L 97.22 108.56 L 95.60 115.63 L 95.71 121.50 L 97.05 125.24 L 99.26 127.83 L 102.32 129.43 L 106.27 129.87 L 110.46 128.90 L 114.08 126.63 L 116.33 123.70 L 117.23 120.57 L 116.89 116.97 L 114.84 112.67 L 110.32 107.70 L 107.28 105.29 L 112.36 109.70 L 115.54 114.18 L 116.70 118.00 L 116.40 121.39 L 114.78 124.45 L 111.74 127.06 L 107.67 128.60 L 103.63 128.72 L 100.35 127.63 L 97.84 125.50 L 96.14 122.21 L 95.54 117.26 L 96.57 110.73 L 97.22 108.56 L 95.76 115.03 L 95.93 120.40 L 97.39 123.98 L 99.76 126.34 L 103.00 127.61 L 107.07 127.61 L 111.20 126.13 L 114.14 123.72 L 115.76 120.93 L 116.21 117.87 L 115.28 114.11 L 112.27 109.67 L 107.28 105.29 L 112.17 109.64 L 114.86 113.73 L 115.69 117.18 L 115.19 120.24 L 113.48 123.00 L 110.19 125.44 L 105.93 126.68 L 102.12 126.41 L 99.19 125.01 L 97.12 122.65 L 95.92 119.18 L 95.92 114.07 L 97.22 108.56 L 95.92 114.43 L 96.16 119.29 L 97.59 122.48 L 99.87 124.54 L 102.97 125.59 L 107.13 125.38 L 111.23 123.59 L 113.79 121.09 L 115.00 118.33 L 114.99 115.10 L 113.48 111.51 L 109.80 107.30 L 107.28 105.29 L 111.68 109.24 L 114.03 112.96 L 114.64 116.08 L 113.95 119.08 L 111.95 121.71 L 108.33 123.88 L 104.14 124.65 L 100.61 123.96 L 98.12 122.23 L 96.55 119.62 L 95.92 115.57 L 96.75 110.14 L 97.22 108.56 L 96.08 113.83 L 96.39 118.17 L 97.80 120.97 L 99.99 122.72 L 103.22 123.57 L 107.48 123.02 L 111.25 120.96 L 113.36 118.38 L 114.11 115.67 L 113.60 112.58 L 111.30 108.88 L 107.28 105.29 L 111.19 108.84 L 113.18 112.19 L 113.58 114.98 L 112.77 117.68 L 110.54 120.21 L 106.61 122.14 L 102.56 122.49 L 99.60 121.58 L 97.49 119.68 L 96.28 116.67 L 96.28 112.45 L 97.22 108.56 L 96.24 113.22 L 96.62 117.05 L 98.01 119.44 L 100.37 120.99 L 103.78 121.49 L 108.12 120.43 L 111.23 118.22 L 112.73 115.82 L 113.05 113.22 L 112.10 110.33 L 109.28 106.90 L 107.28 105.29 L 110.69 108.44 L 112.32 111.42 L 112.46 114.13 L 111.27 116.70 L 108.31 119.12 L 103.95 120.42 L 100.45 120.05 L 98.22 118.76 L 96.75 116.48 L 96.31 113.11 L 97.22 108.56 L 96.40 112.60 L 96.77 115.63 L 98.06 117.72 L 100.28 119.04 L 103.85 119.36 L 108.26 117.92 L 110.96 115.56 L 111.98 113.19 L 111.80 110.74 L 110.32 108.08 L 107.28 105.29 L 110.18 108.03 L 111.44 110.64 L 111.34 113.01 L 109.98 115.27 L 106.64 117.51 L 102.01 118.36 L 99.13 117.61 L 97.40 116.05 L 96.53 113.55 L 96.82 109.99 L 97.22 108.56 L 96.57 111.98 L 97.01 114.49 L 98.30 116.16 L 100.74 117.20 L 104.86 116.96 L 109.11 114.75 L 110.71 112.57 L 111.02 110.51 L 110.22 108.26 L 108.06 105.89 L 107.28 105.29 L 109.66 107.62 L 110.52 109.84 L 110.16 111.88 L 108.40 114.02 L 103.58 116.13 L 99.75 116.00 L 97.74 114.78 L 96.77 112.81 L 96.86 109.91 L 97.22 108.56 L 90.59 125.50 L 82.30 139.86 L 75.03 148.29 L 68.40 153.43 L 62.07 156.43 L 56.16 157.69 L 50.55 157.54 L 45.36 156.14 L 40.52 153.54 L 36.26 149.81 L 32.93 145.23 L 30.70 140.02 L 29.72 134.62 L 30.00 129.25 L 31.59 123.87 L 34.61 118.64 L 39.42 113.55 L 46.36 108.83 L 56.62 104.52 L 72.84 101.06 L 91.00 100.00 L 72.93 101.09 L 57.31 104.50 L 47.20 108.87 L 40.44 113.64 L 36.01 118.58 L 33.24 123.61 L 31.79 129.01 L 31.68 134.37 L 32.84 139.74 L 35.28 144.86 L 38.81 149.30 L 43.08 152.71 L 48.07 155.07 L 53.38 156.17 L 58.85 155.98 L 64.81 154.31 L 71.17 150.78 L 78.04 144.70 L 85.45 134.87 L 93.47 118.86 L 97.22 108.56 L 90.81 124.86 L 82.98 138.25 L 75.96 146.23 L 69.58 151.00 L 63.51 153.70 L 57.87 154.72 L 52.53 154.39 L 47.41 152.78 L 42.70 149.93 L 38.79 146.09 L 35.84 141.49 L 34.00 136.32 L 33.42 131.04 L 34.08 125.85 L 36.06 120.72 L 39.48 115.79 L 44.71 111.07 L 52.45 106.63 L 64.29 102.72 L 82.38 100.24 L 91.00 100.00 L 74.15 101.01 L 59.49 104.20 L 49.77 108.41 L 43.35 113.01 L 39.19 117.76 L 36.55 122.81 L 35.33 127.99 L 35.41 133.34 L 36.74 138.45 L 39.30 143.29 L 42.89 147.42 L 47.35 150.62 L 52.30 152.60 L 57.52 153.31 L 63.08 152.68 L 68.85 150.54 L 74.96 146.49 L 81.76 139.50 L 89.22 127.92 L 96.21 111.55 L 97.22 108.56 L 91.03 124.22 L 83.68 136.66 L 76.90 144.23 L 70.78 148.66 L 64.97 151.08 L 59.59 151.90 L 54.29 151.37 L 49.45 149.62 L 45.04 146.68 L 41.31 142.64 L 38.62 137.84 L 37.19 132.74 L 37.01 127.60 L 38.15 122.39 L 40.60 117.53 L 44.69 112.76 L 50.80 108.30 L 60.09 104.20 L 74.72 100.98 L 91.00 100.00 L 74.80 101.01 L 60.76 104.17 L 51.90 108.15 L 45.87 112.62 L 42.04 117.21 L 39.68 122.08 L 38.67 127.07 L 38.93 132.21 L 40.47 137.28 L 43.16 141.85 L 46.82 145.67 L 51.29 148.53 L 56.20 150.16 L 61.31 150.51 L 66.72 149.52 L 72.54 146.84 L 78.66 142.06 L 85.38 133.97 L 92.82 120.24 L 97.22 108.56 L 91.48 123.11 L 84.38 135.09 L 77.86 142.27 L 71.99 146.39 L 66.44 148.57 L 61.09 149.23 L 56.06 148.53 L 51.31 146.56 L 47.05 143.38 L 43.68 139.28 L 41.37 134.49 L 40.32 129.49 L 40.51 124.52 L 42.01 119.55 L 44.96 114.77 L 49.73 110.17 L 56.71 106.03 L 67.67 102.36 L 84.24 100.17 L 91.00 100.00 L 75.45 100.99 L 62.41 104.00 L 53.98 107.86 L 48.33 112.19 L 44.66 116.83 L 42.60 121.53 L 41.83 126.53 L 42.38 131.66 L 44.17 136.45 L 47.17 140.86 L 51.15 144.41 L 55.72 146.77 L 60.62 147.87 L 65.65 147.68 L 70.91 146.10 L 76.52 142.78 L 82.60 136.99 L 89.40 127.03 L 96.01 112.11 L 97.22 108.56 L 91.71 122.47 L 84.84 133.87 L 78.58 140.57 L 72.97 144.33 L 67.69 146.24 L 62.61 146.69 L 57.86 145.86 L 53.37 143.82 L 49.38 140.62 L 46.15 136.37 L 44.14 131.67 L 43.37 126.81 L 43.87 121.81 L 45.67 117.10 L 48.90 112.62 L 53.96 108.37 L 61.60 104.50 L 73.57 101.33 L 89.11 100.01 L 91.00 100.00 L 76.16 100.97 L 63.77 103.90 L 55.85 107.65 L 50.61 111.83 L 47.27 116.28 L 45.39 120.98 L 44.85 125.76 L 45.57 130.63 L 47.55 135.35 L 50.63 139.45 L 54.61 142.67 L 59.11 144.70 L 63.87 145.49 L 68.97 144.96 L 74.25 142.92 L 79.84 138.97 L 86.07 131.94 L 92.83 120.00 L 97.22 108.56 L 91.91 121.88 L 85.27 132.74 L 79.23 138.98 L 73.87 142.38 L 68.59 144.06 L 63.78 144.25 L 59.09 143.16 L 54.73 140.82 L 50.96 137.30 L 48.18 132.95 L 46.63 128.26 L 46.33 123.52 L 47.31 118.72 L 49.58 114.28 L 53.50 109.95 L 59.46 106.00 L 68.74 102.52 L 83.16 100.26 L 91.00 100.00 L 77.27 100.88 L 65.31 103.72 L 57.78 107.36 L 52.86 111.39 L 49.77 115.68 L 48.10 120.20 L 47.72 125.01 L 48.66 129.89 L 50.93 134.53 L 54.31 138.45 L 58.40 141.25 L 62.91 142.84 L 67.61 143.16 L 72.57 142.14 L 77.92 139.41 L 83.50 134.51 L 89.83 125.69 L 95.81 112.64 L 97.22 108.56 L 92.16 121.22 L 86.01 131.21 L 80.26 137.14 L 74.92 140.44 L 69.92 141.91 L 65.14 141.95 L 60.52 140.67 L 56.29 138.09 L 52.86 134.53 L 50.43 130.22 L 49.17 125.43 L 49.25 120.65 L 50.63 116.10 L 53.42 111.77 L 58.04 107.66 L 65.25 103.93 L 76.40 101.05 L 90.37 100.00 L 91.00 100.00 L 77.94 100.86 L 66.57 103.63 L 59.51 107.14 L 54.96 111.02 L 52.04 115.33 L 50.59 119.88 L 50.46 124.46 L 51.59 129.08 L 53.97 133.44 L 57.38 137.06 L 61.42 139.56 L 65.82 140.85 L 70.60 140.88 L 75.61 139.43 L 80.70 136.30 L 86.22 130.68 L 92.37 120.71 L 97.22 108.56 L 92.38 120.61 L 86.48 130.08 L 80.97 135.61 L 75.89 138.61 L 71.15 139.88 L 66.62 139.80 L 62.25 138.46 L 58.25 135.89 L 54.91 132.20 L 52.64 127.77 L 51.67 123.11 L 52.00 118.52 L 53.60 114.23 L 56.57 110.18 L 61.35 106.39 L 69.12 102.90 L 81.13 100.49 L 91.00 100.00 L 78.57 100.83 L 67.74 103.54 L 61.13 106.95 L 56.76 110.89 L 54.18 115.04 L 52.99 119.41 L 53.09 124.00 L 54.49 128.57 L 57.19 132.80 L 60.72 136.02 L 64.79 138.11 L 69.12 138.98 L 73.76 138.56 L 78.58 136.67 L 83.67 132.86 L 89.33 125.88 L 94.98 114.74 L 97.22 108.56 L 92.58 120.05 L 86.90 129.03 L 81.62 134.17 L 76.78 136.89 L 72.04 137.99 L 67.54 137.67 L 63.25 136.04 L 59.41 133.16 L 56.47 129.36 L 54.63 124.93 L 54.08 120.39 L 54.82 115.99 L 56.93 111.75 L 60.58 107.86 L 66.25 104.37 L 75.31 101.46 L 87.93 100.05 L 91.00 100.00 L 79.20 100.81 L 68.92 103.44 L 62.49 106.90 L 58.53 110.70 L 56.26 114.68 L 55.28 119.07 L 55.63 123.65 L 57.34 128.15 L 60.20 132.04 L 63.99 135.00 L 68.27 136.70 L 72.77 137.05 L 77.26 136.04 L 82.10 133.36 L 87.38 128.19 L 93.03 119.08 L 97.22 108.56 L 92.80 119.47 L 87.35 127.97 L 82.31 132.76 L 77.72 135.22 L 73.23 136.15 L 68.98 135.75 L 64.91 134.11 L 61.28 131.27 L 58.40 127.37 L 56.77 123.06 L 56.39 118.69 L 57.26 114.52 L 59.46 110.51 L 63.13 106.88 L 69.13 103.53 L 78.77 100.91 L 90.38 100.00 L 91.00 100.00 L 79.37 100.85 L 70.12 103.30 L 64.10 106.62 L 60.43 110.23 L 58.28 114.23 L 57.48 118.40 L 57.93 122.75 L 59.67 127.02 L 62.64 130.84 L 66.36 133.55 L 70.50 135.03 L 74.80 135.20 L 79.31 133.97 L 84.13 130.93 L 89.33 125.18 L 94.57 115.62 L 97.22 108.56 L 93.03 118.87 L 87.83 126.91 L 83.05 131.35 L 78.47 133.69 L 74.24 134.43 L 70.02 133.86 L 66.02 132.00 L 62.54 128.94 L 59.93 124.83 L 58.65 120.38 L 58.71 116.18 L 60.08 112.04 L 62.72 108.39 L 67.10 105.00 L 74.07 102.08 L 85.11 100.21 L 91.00 100.00 L 79.99 100.81 L 70.90 103.33 L 65.37 106.55 L 62.07 110.02 L 60.18 113.83 L 59.56 118.02 L 60.25 122.37 L 62.25 126.56 L 65.34 130.04 L 69.06 132.39 L 73.11 133.51 L 77.25 133.35 L 81.54 131.82 L 86.10 128.47 L 90.97 122.40 L 95.83 112.49 L 97.22 108.56 L 93.24 118.32 L 88.27 125.91 L 83.74 130.04 L 79.40 132.16 L 75.17 132.79 L 71.19 132.11 L 67.24 130.09 L 63.88 126.83 L 61.57 122.74 L 60.59 118.41 L 60.95 114.19 L 62.61 110.31 L 65.70 106.76 L 70.71 103.60 L 79.06 101.02 L 89.77 100.01 L 91.00 100.00 L 80.57 100.79 L 72.30 103.08 L 67.03 106.13 L 63.76 109.62 L 61.98 113.48 L 61.54 117.48 L 62.41 121.84 L 64.65 125.98 L 67.99 129.29 L 71.71 131.26 L 75.68 132.00 L 79.91 131.42 L 84.24 129.29 L 88.76 125.10 L 93.69 117.36 L 97.22 108.56 L 93.47 117.74 L 88.75 124.90 L 84.22 128.90 L 79.89 130.83 L 75.93 131.22 L 71.99 130.34 L 68.34 128.22 L 65.12 124.75 L 63.15 120.72 L 62.47 116.55 L 63.07 112.55 L 64.91 108.94 L 68.37 105.51 L 73.91 102.58 L 82.59 100.51 L 91.00 100.00 L 81.17 100.75 L 73.05 103.09 L 68.24 106.03 L 65.30 109.36 L 63.75 113.02 L 63.44 117.04 L 64.44 121.17 L 66.71 125.07 L 70.01 128.14 L 73.83 129.98 L 77.88 130.48 L 81.90 129.62 L 86.23 127.07 L 90.69 122.25 L 95.21 113.97 L 97.22 108.56 L 93.47 117.60 L 88.97 124.18 L 84.69 127.78 L 80.61 129.44 L 76.66 129.66 L 72.78 128.55 L 69.24 126.17 L 66.37 122.66 L 64.68 118.47 L 64.38 114.45 L 65.32 110.70 L 67.61 107.19 L 71.41 104.14 L 77.71 101.56 L 87.46 100.09 L 91.00 100.00 L 81.78 100.71 L 74.14 102.95 L 69.46 105.93 L 66.72 109.33 L 65.43 113.04 L 65.44 117.09 L 66.79 121.16 L 69.44 124.87 L 72.86 127.48 L 76.67 128.81 L 80.60 128.81 L 84.66 127.36 L 88.96 123.95 L 93.47 117.53 L 97.03 109.14 L 97.22 108.56 L 93.70 117.03 L 89.44 123.18 L 85.41 126.49 L 81.59 127.99 L 77.88 128.13 L 74.22 127.04 L 70.68 124.58 L 67.90 120.94 L 66.43 116.87 L 66.33 112.82 L 67.45 109.31 L 69.87 106.09 L 74.04 103.19 L 80.93 100.91 L 89.80 100.01 L 91.00 100.00 L 82.39 100.67 L 75.24 102.81 L 70.91 105.65 L 68.41 108.85 L 67.26 112.36 L 67.33 116.19 L 68.78 120.28 L 71.58 123.94 L 75.15 126.39 L 78.85 127.41 L 82.58 127.15 L 86.41 125.46 L 90.41 121.85 L 94.58 115.23 L 97.22 108.56 L 93.92 116.46 L 89.91 122.18 L 86.13 125.20 L 82.31 126.57 L 78.62 126.53 L 75.01 125.19 L 71.62 122.43 L 69.22 118.75 L 68.14 114.79 L 68.38 110.94 L 69.92 107.50 L 72.91 104.44 L 77.88 101.89 L 85.92 100.23 L 91.00 100.00 L 82.54 100.72 L 76.01 102.83 L 72.16 105.56 L 69.99 108.60 L 69.04 112.16 L 69.38 116.01 L 71.16 120.04 L 74.12 123.32 L 77.71 125.34 L 81.29 125.96 L 84.83 125.32 L 88.65 123.08 L 92.55 118.65 L 96.25 111.29 L 97.22 108.56 L 94.14 115.89 L 90.38 121.18 L 86.60 124.05 L 83.03 125.14 L 79.36 124.88 L 75.82 123.27 L 72.61 120.21 L 70.54 116.27 L 69.94 112.43 L 70.64 108.83 L 72.60 105.73 L 76.26 102.93 L 82.18 100.84 L 90.40 100.00 L 91.00 100.00 L 83.15 100.68 L 77.12 102.70 L 73.62 105.28 L 71.59 108.36 L 70.87 111.73 L 71.43 115.60 L 73.50 119.56 L 76.54 122.50 L 80.08 124.14 L 83.52 124.41 L 87.09 123.33 L 90.61 120.68 L 94.37 115.40 L 97.22 108.56 L 94.37 115.32 L 90.84 120.18 L 87.32 122.75 L 84.01 123.67 L 80.57 123.33 L 77.05 121.57 L 74.09 118.52 L 72.24 114.68 L 71.82 111.02 L 72.65 107.66 L 74.65 104.83 L 78.30 102.32 L 84.14 100.54 L 91.00 100.00 L 83.77 100.65 L 78.23 102.57 L 75.08 104.99 L 73.31 107.90 L 72.73 111.30 L 73.53 115.19 L 75.75 118.88 L 79.02 121.62 L 82.50 122.85 L 85.76 122.75 L 89.08 121.31 L 92.53 118.03 L 95.86 112.19 L 97.22 108.56 L 94.59 114.75 L 91.31 119.17 L 88.04 121.44 L 84.73 122.20 L 81.32 121.61 L 77.89 119.52 L 75.17 116.14 L 73.81 112.33 L 73.83 108.87 L 75.08 105.82 L 77.69 103.19 L 82.21 101.09 L 88.74 100.06 L 91.00 100.00 L 84.39 100.61 L 79.35 102.43 L 76.38 104.93 L 74.88 107.91 L 74.67 111.38 L 75.92 115.25 L 78.61 118.72 L 81.81 120.78 L 84.96 121.46 L 88.02 120.94 L 91.30 118.89 L 94.59 114.66 L 97.22 108.56 L 94.60 114.56 L 91.54 118.38 L 88.51 120.23 L 85.45 120.70 L 82.30 119.93 L 78.95 117.56 L 76.46 113.89 L 75.53 110.18 L 75.96 106.96 L 77.56 104.26 L 80.49 102.04 L 85.36 100.46 L 91.00 100.00 L 85.01 100.58 L 80.47 102.31 L 77.87 104.65 L 76.63 107.46 L 76.58 110.73 L 78.06 114.63 L 81.03 117.97 L 84.20 119.63 L 87.20 119.93 L 90.27 118.93 L 93.22 116.38 L 96.08 111.58 L 97.22 108.56 L 94.82 113.97 L 92.01 117.35 L 89.23 118.90 L 86.17 119.16 L 83.05 118.07 L 79.86 115.30 L 77.84 111.55 L 77.40 107.99 L 78.28 105.08 L 80.27 102.78 L 83.93 100.93 L 89.35 100.04 L 91.00 100.00 L 85.64 100.54 L 81.60 102.18 L 79.38 104.38 L 78.39 107.01 L 78.58 110.35 L 80.42 114.23 L 83.54 117.18 L 86.65 118.39 L 89.46 118.26 L 92.24 116.83 L 95.05 113.49 L 97.22 108.56 L 95.05 113.38 L 92.48 116.30 L 89.95 117.55 L 87.14 117.61 L 84.03 116.27 L 80.99 113.13 L 79.40 109.38 L 79.36 106.29 L 80.51 103.70 L 82.99 101.62 L 87.01 100.31 L 91.00 100.00 L 86.27 100.51 L 82.74 102.06 L 80.90 104.12 L 80.15 106.83 L 80.73 110.24 L 83.08 114.03 L 86.14 116.31 L 88.89 116.99 L 91.46 116.50 L 93.92 114.70 L 96.30 110.95 L 97.22 108.56 L 95.28 112.78 L 92.95 115.24 L 90.41 116.22 L 87.60 115.88 L 84.38 113.82 L 81.80 110.07 L 81.07 106.62 L 81.61 104.11 L 83.32 102.00 L 86.39 100.54 L 91.00 100.00 L 86.90 100.47 L 84.14 101.76 L 82.55 103.63 L 81.98 106.15 L 82.78 109.64 L 85.51 113.40 L 88.59 115.24 L 91.16 115.47 L 93.43 114.54 L 95.50 112.31 L 97.22 108.56 L 95.51 112.17 L 93.42 114.16 L 91.13 114.80 L 88.56 114.21 L 85.39 111.73 L 83.16 107.58 L 82.99 104.62 L 83.93 102.49 L 86.05 100.89 L 89.51 100.06 L 91.00 100.00 L 87.55 100.44 L 85.30 101.64 L 84.10 103.38 L 83.86 106.02 L 85.37 109.87 L 88.79 113.22 L 91.36 114.07 L 93.41 113.73 L 95.30 112.27 L 96.89 109.49 L 97.22 108.56 L 95.74 111.54 L 93.89 113.05 L 91.84 113.33 L 89.27 112.33 L 85.76 108.39 L 84.71 104.71 L 85.24 102.42 L 86.82 100.89 L 89.60 100.07 L 91.00 100.00 L 88.75 100.00 L 99.92 99.93 L 100.00 100.00 L 100.00 100.00 L 100.00 100.00" 
          fill="none" 
          stroke="currentColor" 
          stroke-width="0.5"/>
</svg>