<?xml version="1.0" encoding="UTF-8" standalone="no"?>
<svg width="100%" height="100%" viewBox="0 0 200 200" preserveAspectRatio="xMidYMid meet" xmlns="http://www.w3.org/2000/svg">
    <path d="M 10.00 100.00 L 11.80 100.00 L 13.60 100.00 L 15.40 100.00 L 17.20 100.00 L 19.00 100.00 L 20.80 100.00 L 22.60 100.00 L 24.40 100.00 L 26.20 100.00 L 28.00 100.00 L 29.80 100.00 L 31.60 100.00 L 32.50 100.00 L 31.60 98.44 L 30.70 96.88 L 29.80 95.32 L 28.90 93.76 L 28.00 92.21 L 27.10 90.65 L 26.20 89.09 L 25.30 87.53 L 24.40 85.97 L 23.50 84.41 L 22.60 82.85 L 21.70 81.29 L 21.25 80.51 L 23.05 80.51 L 24.85 80.51 L 26.65 80.51 L 28.45 80.51 L 30.25 80.51 L 32.05 80.51 L 33.85 80.51 L 35.65 80.51 L 37.45 80.51 L 39.25 80.51 L 41.05 80.51 L 42.85 80.51 L 44.65 80.51 L 46.45 80.51 L 48.25 80.51 L 50.05 80.51 L 51.85 80.51 L 53.65 80.51 L 55.45 80.51 L 57.25 80.51 L 59.05 80.51 L 60.85 80.51 L 62.65 80.51 L 64.45 80.51 L 66.25 80.51 L 65.35 78.96 L 64.45 77.40 L 63.55 75.84 L 62.65 74.28 L 61.75 72.72 L 60.85 71.16 L 59.95 69.60 L 59.05 68.04 L 58.15 66.48 L 57.25 64.93 L 56.35 63.37 L 55.45 61.81 L 55.00 61.03 L 54.10 62.59 L 53.20 64.15 L 52.30 65.71 L 51.40 67.26 L 50.50 68.82 L 49.60 70.38 L 48.70 71.94 L 47.80 73.50 L 46.90 75.06 L 46.00 76.62 L 45.10 78.18 L 44.20 79.74 L 43.75 80.51 L 42.85 78.96 L 41.95 77.40 L 41.05 75.84 L 40.15 74.28 L 39.25 72.72 L 38.35 71.16 L 37.45 69.60 L 36.55 68.04 L 35.65 66.48 L 34.75 64.93 L 33.85 63.37 L 32.95 61.81 L 32.50 61.03 L 34.30 61.03 L 36.10 61.03 L 37.90 61.03 L 39.70 61.03 L 41.50 61.03 L 43.30 61.03 L 45.10 61.03 L 46.90 61.03 L 48.70 61.03 L 50.50 61.03 L 52.30 61.03 L 54.10 61.03 L 55.90 61.03 L 57.70 61.03 L 59.50 61.03 L 61.30 61.03 L 63.10 61.03 L 64.90 61.03 L 66.70 61.03 L 68.50 61.03 L 70.30 61.03 L 72.10 61.03 L 73.90 61.03 L 75.70 61.03 L 77.50 61.03 L 78.40 59.47 L 79.30 57.91 L 80.20 56.35 L 81.10 54.79 L 82.00 53.23 L 82.90 51.68 L 83.80 50.12 L 84.70 48.56 L 85.60 47.00 L 86.50 45.44 L 87.40 43.88 L 88.30 42.32 L 88.75 41.54 L 89.65 43.10 L 90.55 44.66 L 91.45 46.22 L 92.35 47.78 L 93.25 49.34 L 94.15 50.90 L 95.05 52.46 L 95.95 54.01 L 96.85 55.57 L 97.75 57.13 L 98.65 58.69 L 99.55 60.25 L 100.00 61.03 L 100.90 59.47 L 101.80 57.91 L 102.70 56.35 L 103.60 54.79 L 104.50 53.23 L 105.40 51.68 L 106.30 50.12 L 107.20 48.56 L 108.10 47.00 L 109.00 45.44 L 109.90 43.88 L 110.80 42.32 L 111.25 41.54 L 109.45 41.54 L 107.65 41.54 L 105.85 41.54 L 104.05 41.54 L 102.25 41.54 L 100.45 41.54 L 98.65 41.54 L 96.85 41.54 L 95.05 41.54 L 93.25 41.54 L 91.45 41.54 L 89.65 41.54 L 88.75 41.54 L 89.65 39.98 L 90.55 38.43 L 91.45 36.87 L 92.35 35.31 L 93.25 33.75 L 94.15 32.19 L 95.05 30.63 L 95.95 29.07 L 96.85 27.51 L 97.75 25.95 L 98.65 24.40 L 99.55 22.84 L 100.00 22.06 L 100.90 23.62 L 101.80 25.18 L 102.70 26.73 L 103.60 28.29 L 104.50 29.85 L 105.40 31.41 L 106.30 32.97 L 107.20 34.53 L 108.10 36.09 L 109.00 37.65 L 109.90 39.20 L 110.80 40.76 L 111.70 42.32 L 112.60 43.88 L 113.50 45.44 L 114.40 47.00 L 115.30 48.56 L 116.20 50.12 L 117.10 51.68 L 118.00 53.24 L 118.90 54.79 L 119.80 56.35 L 120.70 57.91 L 121.60 59.47 L 122.50 61.03 L 124.30 61.03 L 126.10 61.03 L 127.90 61.03 L 129.70 61.03 L 131.50 61.03 L 133.30 61.03 L 135.10 61.03 L 136.90 61.03 L 138.70 61.03 L 140.50 61.03 L 142.30 61.03 L 144.10 61.03 L 145.00 61.03 L 144.10 62.59 L 143.20 64.15 L 142.30 65.71 L 141.40 67.26 L 140.50 68.82 L 139.60 70.38 L 138.70 71.94 L 137.80 73.50 L 136.90 75.06 L 136.00 76.62 L 135.10 78.18 L 134.20 79.74 L 133.75 80.51 L 135.55 80.51 L 137.35 80.51 L 139.15 80.51 L 140.95 80.51 L 142.75 80.51 L 144.55 80.51 L 146.35 80.51 L 148.15 80.51 L 149.95 80.51 L 151.75 80.51 L 153.55 80.51 L 155.35 80.51 L 156.25 80.51 L 155.35 78.96 L 154.45 77.40 L 153.55 75.84 L 152.65 74.28 L 151.75 72.72 L 150.85 71.16 L 149.95 69.60 L 149.05 68.04 L 148.15 66.49 L 147.25 64.93 L 146.35 63.37 L 145.45 61.81 L 145.00 61.03 L 146.80 61.03 L 148.60 61.03 L 150.40 61.03 L 152.20 61.03 L 154.00 61.03 L 155.80 61.03 L 157.60 61.03 L 159.40 61.03 L 161.20 61.03 L 163.00 61.03 L 164.80 61.03 L 166.60 61.03 L 167.50 61.03 L 166.60 62.59 L 165.70 64.15 L 164.80 65.71 L 163.90 67.26 L 163.00 68.82 L 162.10 70.38 L 161.20 71.94 L 160.30 73.50 L 159.40 75.06 L 158.50 76.62 L 157.60 78.18 L 156.70 79.74 L 155.80 81.29 L 154.90 82.85 L 154.00 84.41 L 153.10 85.97 L 152.20 87.53 L 151.30 89.09 L 150.40 90.65 L 149.50 92.21 L 148.60 93.76 L 147.70 95.32 L 146.80 96.88 L 145.90 98.44 L 145.00 100.00 L 145.00 100.00 L 145.90 101.56 L 146.80 103.12 L 147.70 104.68 L 148.60 106.24 L 149.50 107.79 L 150.40 109.35 L 151.30 110.91 L 152.20 112.47 L 153.10 114.03 L 154.00 115.59 L 154.90 117.15 L 155.80 118.71 L 156.25 119.49 L 154.45 119.49 L 152.65 119.49 L 150.85 119.49 L 149.05 119.49 L 147.25 119.49 L 145.45 119.49 L 143.65 119.49 L 141.85 119.49 L 140.05 119.49 L 138.25 119.49 L 136.45 119.49 L 134.65 119.49 L 133.75 119.49 L 134.65 121.04 L 135.55 122.60 L 136.45 124.16 L 137.35 125.72 L 138.25 127.28 L 139.15 128.84 L 140.05 130.40 L 140.95 131.96 L 141.85 133.52 L 142.75 135.07 L 143.65 136.63 L 144.55 138.19 L 145.00 138.97 L 145.90 137.41 L 146.80 135.85 L 147.70 134.29 L 148.60 132.74 L 149.50 131.18 L 150.40 129.62 L 151.30 128.06 L 152.20 126.50 L 153.10 124.94 L 154.00 123.38 L 154.90 121.82 L 155.80 120.26 L 156.25 119.49 L 157.15 121.04 L 158.05 122.60 L 158.95 124.16 L 159.85 125.72 L 160.75 127.28 L 161.65 128.84 L 162.55 130.40 L 163.45 131.96 L 164.35 133.52 L 165.25 135.07 L 166.15 136.63 L 167.05 138.19 L 167.50 138.97 L 165.70 138.97 L 163.90 138.97 L 162.10 138.97 L 160.30 138.97 L 158.50 138.97 L 156.70 138.97 L 154.90 138.97 L 153.10 138.97 L 151.30 138.97 L 149.50 138.97 L 147.70 138.97 L 145.90 138.97 L 144.10 138.97 L 142.30 138.97 L 140.50 138.97 L 138.70 138.97 L 136.90 138.97 L 135.10 138.97 L 133.30 138.97 L 131.50 138.97 L 129.70 138.97 L 127.90 138.97 L 126.10 138.97 L 124.30 138.97 L 122.50 138.97 L 121.60 140.53 L 120.70 142.09 L 119.80 143.65 L 118.90 145.21 L 118.00 146.77 L 117.10 148.32 L 116.20 149.88 L 115.30 151.44 L 114.40 153.00 L 113.50 154.56 L 112.60 156.12 L 111.70 157.68 L 111.25 158.46 L 110.35 156.90 L 109.45 155.34 L 108.55 153.78 L 107.65 152.22 L 106.75 150.66 L 105.85 149.10 L 104.95 147.54 L 104.05 145.99 L 103.15 144.43 L 102.25 142.87 L 101.35 141.31 L 100.45 139.75 L 100.00 138.97 L 100.90 137.41 L 101.80 135.85 L 102.70 134.29 L 103.60 132.74 L 104.50 131.18 L 105.40 129.62 L 106.30 128.06 L 107.20 126.50 L 108.10 124.94 L 109.00 123.38 L 109.90 121.82 L 110.80 120.27 L 111.25 119.49 L 110.35 121.04 L 109.45 122.60 L 108.55 124.16 L 107.65 125.72 L 106.75 127.28 L 105.85 128.84 L 104.95 130.40 L 104.05 131.96 L 103.15 133.52 L 102.25 135.07 L 101.35 136.63 L 100.45 138.19 L 100.00 138.97 L 101.80 138.97 L 103.60 138.97 L 105.40 138.97 L 107.20 138.97 L 109.00 138.97 L 110.80 138.97 L 112.60 138.97 L 114.40 138.97 L 116.20 138.97 L 118.00 138.97 L 119.80 138.97 L 121.60 138.97 L 122.50 138.97 L 123.40 140.53 L 124.30 142.09 L 125.20 143.65 L 126.10 145.21 L 127.00 146.77 L 127.90 148.32 L 128.80 149.88 L 129.70 151.44 L 130.60 153.00 L 131.50 154.56 L 132.40 156.12 L 133.30 157.68 L 133.75 158.46 L 132.85 160.02 L 131.95 161.57 L 131.05 163.13 L 130.15 164.69 L 129.25 166.25 L 128.35 167.81 L 127.45 169.37 L 126.55 170.93 L 125.65 172.49 L 124.75 174.05 L 123.85 175.60 L 122.95 177.16 L 122.50 177.94 L 121.60 176.38 L 120.70 174.82 L 119.80 173.27 L 118.90 171.71 L 118.00 170.15 L 117.10 168.59 L 116.20 167.03 L 115.30 165.47 L 114.40 163.91 L 113.50 162.35 L 112.60 160.80 L 111.70 159.24 L 111.25 158.46 L 109.45 158.46 L 107.65 158.46 L 105.85 158.46 L 104.05 158.46 L 102.25 158.46 L 100.45 158.46 L 98.65 158.46 L 96.85 158.46 L 95.05 158.46 L 93.25 158.46 L 91.45 158.46 L 89.65 158.46 L 88.75 158.46 L 89.65 160.02 L 90.55 161.57 L 91.45 163.13 L 92.35 164.69 L 93.25 166.25 L 94.15 167.81 L 95.05 169.37 L 95.95 170.93 L 96.85 172.49 L 97.75 174.04 L 98.65 175.60 L 99.55 177.16 L 100.00 177.94 L 100.90 176.38 L 101.80 174.82 L 102.70 173.27 L 103.60 171.71 L 104.50 170.15 L 105.40 168.59 L 106.30 167.03 L 107.20 165.47 L 108.10 163.91 L 109.00 162.35 L 109.90 160.79 L 110.80 159.24 L 111.25 158.46 L 113.05 158.46 L 114.85 158.46 L 116.65 158.46 L 118.45 158.46 L 120.25 158.46 L 122.05 158.46 L 123.85 158.46 L 125.65 158.46 L 127.45 158.46 L 129.25 158.46 L 131.05 158.46 L 132.85 158.46 L 133.75 158.46 L 134.65 160.02 L 135.55 161.57 L 136.45 163.13 L 137.35 164.69 L 138.25 166.25 L 139.15 167.81 L 140.05 169.37 L 140.95 170.93 L 141.85 172.49 L 142.75 174.05 L 143.65 175.60 L 144.55 177.16 L 145.00 177.94 L 143.20 177.94 L 141.40 177.94 L 139.60 177.94 L 137.80 177.94 L 136.00 177.94 L 134.20 177.94 L 132.40 177.94 L 130.60 177.94 L 128.80 177.94 L 127.00 177.94 L 125.20 177.94 L 123.40 177.94 L 121.60 177.94 L 119.80 177.94 L 118.00 177.94 L 116.20 177.94 L 114.40 177.94 L 112.60 177.94 L 110.80 177.94 L 109.00 177.94 L 107.20 177.94 L 105.40 177.94 L 103.60 177.94 L 101.80 177.94 L 100.00 177.94 L 98.20 177.94 L 96.40 177.94 L 94.60 177.94 L 92.80 177.94 L 91.00 177.94 L 89.20 177.94 L 87.40 177.94 L 85.60 177.94 L 83.80 177.94 L 82.00 177.94 L 80.20 177.94 L 78.40 177.94 L 76.60 177.94 L 74.80 177.94 L 73.00 177.94 L 71.20 177.94 L 69.40 177.94 L 67.60 177.94 L 65.80 177.94 L 64.00 177.94 L 62.20 177.94 L 60.40 177.94 L 58.60 177.94 L 56.80 177.94 L 55.90 177.94 L 55.68 178.33 L 55.00 177.94 L 56.80 177.94 L 58.60 177.94 L 60.40 177.94 L 62.20 177.94 L 64.00 177.94 L 65.80 177.94 L 67.60 177.94 L 69.40 177.94 L 71.20 177.94 L 73.00 177.94 L 74.80 177.94 L 76.60 177.94 L 77.50 177.94 L 76.60 176.38 L 75.70 174.82 L 74.80 173.27 L 73.90 171.71 L 73.00 170.15 L 72.10 168.59 L 71.20 167.03 L 70.30 165.47 L 69.40 163.91 L 68.50 162.35 L 67.60 160.79 L 66.70 159.24 L 66.25 158.46 L 68.05 158.46 L 69.85 158.46 L 71.65 158.46 L 73.45 158.46 L 75.25 158.46 L 77.05 158.46 L 78.85 158.46 L 80.65 158.46 L 82.45 158.46 L 84.25 158.46 L 86.05 158.46 L 87.85 158.46 L 88.75 158.46 L 87.85 156.90 L 86.95 155.34 L 86.05 153.78 L 85.15 152.22 L 84.25 150.66 L 83.35 149.10 L 82.45 147.54 L 81.55 145.99 L 80.65 144.43 L 79.75 142.87 L 78.85 141.31 L 77.95 139.75 L 77.50 138.97 L 79.30 138.97 L 81.10 138.97 L 82.90 138.97 L 84.70 138.97 L 86.50 138.97 L 88.30 138.97 L 90.10 138.97 L 91.90 138.97 L 93.70 138.97 L 95.50 138.97 L 97.30 138.97 L 99.10 138.97 L 100.00 138.97 L 99.10 137.41 L 98.20 135.85 L 97.30 134.29 L 96.40 132.74 L 95.50 131.18 L 94.60 129.62 L 93.70 128.06 L 92.80 126.50 L 91.90 124.94 L 91.00 123.38 L 90.10 121.82 L 89.20 120.27 L 88.75 119.49 L 90.55 119.49 L 92.35 119.49 L 94.15 119.49 L 95.95 119.49 L 97.75 119.49 L 99.55 119.49 L 101.35 119.49 L 103.15 119.49 L 104.95 119.49 L 106.75 119.49 L 108.55 119.49 L 110.35 119.49 L 111.25 119.49 L 112.15 121.04 L 113.05 122.60 L 113.95 124.16 L 114.85 125.72 L 115.75 127.28 L 116.65 128.84 L 117.55 130.40 L 118.45 131.96 L 119.35 133.52 L 120.25 135.07 L 121.15 136.63 L 122.05 138.19 L 122.50 138.97 L 123.40 137.41 L 124.30 135.85 L 125.20 134.29 L 126.10 132.74 L 127.00 131.18 L 127.90 129.62 L 128.80 128.06 L 129.70 126.50 L 130.60 124.94 L 131.50 123.38 L 132.40 121.82 L 133.30 120.27 L 134.20 118.71 L 135.10 117.15 L 136.00 115.59 L 136.90 114.03 L 137.80 112.47 L 138.70 110.91 L 139.60 109.35 L 140.50 107.79 L 141.40 106.24 L 142.30 104.68 L 143.20 103.12 L 144.10 101.56 L 145.00 100.00 L 146.80 100.00 L 148.60 100.00 L 150.40 100.00 L 152.20 100.00 L 154.00 100.00 L 155.80 100.00 L 157.60 100.00 L 159.40 100.00 L 161.20 100.00 L 163.00 100.00 L 164.80 100.00 L 166.60 100.00 L 167.50 100.00 L 168.40 101.56 L 169.30 103.12 L 170.20 104.68 L 171.10 106.24 L 172.00 107.79 L 172.90 109.35 L 173.80 110.91 L 174.70 112.47 L 175.60 114.03 L 176.50 115.59 L 177.40 117.15 L 178.30 118.71 L 178.75 119.49 L 176.95 119.49 L 175.15 119.49 L 173.35 119.49 L 171.55 119.49 L 169.75 119.49 L 167.95 119.49 L 166.15 119.49 L 164.35 119.49 L 162.55 119.49 L 160.75 119.49 L 158.95 119.49 L 157.15 119.49 L 156.25 119.49 L 157.15 117.93 L 158.05 116.37 L 158.95 114.81 L 159.85 113.25 L 160.75 111.69 L 161.65 110.13 L 162.55 108.57 L 163.45 107.02 L 164.35 105.46 L 165.25 103.90 L 166.15 102.34 L 167.05 100.78 L 167.50 100.00 L 169.30 100.00 L 171.10 100.00 L 172.90 100.00 L 174.70 100.00 L 176.50 100.00 L 178.30 100.00 L 180.10 100.00 L 181.90 100.00 L 183.70 100.00 L 185.50 100.00 L 187.30 100.00 L 189.10 100.00 L 190.00 100.00 L 189.10 101.56 L 188.20 103.12 L 187.30 104.68 L 186.40 106.24 L 185.50 107.79 L 184.60 109.35 L 183.70 110.91 L 182.80 112.47 L 181.90 114.03 L 181.00 115.59 L 180.10 117.15 L 179.20 118.71 L 178.30 120.27 L 177.40 121.82 L 176.50 123.38 L 175.60 124.94 L 174.70 126.50 L 173.80 128.06 L 172.90 129.62 L 172.00 131.18 L 171.10 132.74 L 170.20 134.29 L 169.30 135.85 L 168.40 137.41 L 167.50 138.97 L 166.60 140.53 L 165.70 142.09 L 164.80 143.65 L 163.90 145.21 L 163.00 146.77 L 162.10 148.32 L 161.20 149.88 L 160.30 151.44 L 159.40 153.00 L 158.50 154.56 L 157.60 156.12 L 156.70 157.68 L 156.25 158.46 L 154.45 158.46 L 152.65 158.46 L 150.85 158.46 L 149.05 158.46 L 147.25 158.46 L 145.45 158.46 L 143.65 158.46 L 141.85 158.46 L 140.05 158.46 L 138.25 158.46 L 136.45 158.46 L 134.65 158.46 L 133.75 158.46 L 134.65 156.90 L 135.55 155.34 L 136.45 153.78 L 137.35 152.22 L 138.25 150.66 L 139.15 149.10 L 140.05 147.55 L 140.95 145.99 L 141.85 144.43 L 142.75 142.87 L 143.65 141.31 L 144.55 139.75 L 145.00 138.97 L 145.90 140.53 L 146.80 142.09 L 147.70 143.65 L 148.60 145.21 L 149.50 146.77 L 150.40 148.32 L 151.30 149.88 L 152.20 151.44 L 153.10 153.00 L 154.00 154.56 L 154.90 156.12 L 155.80 157.68 L 156.25 158.46 L 155.35 160.02 L 154.45 161.57 L 153.55 163.13 L 152.65 164.69 L 151.75 166.25 L 150.85 167.81 L 149.95 169.37 L 149.05 170.93 L 148.15 172.49 L 147.25 174.05 L 146.35 175.60 L 145.45 177.16 L 145.45 177.16 L 145.68 177.55 L 145.00 177.94 L 143.20 177.94 L 141.40 177.94 L 139.60 177.94 L 137.80 177.94 L 136.00 177.94 L 134.20 177.94 L 132.40 177.94 L 130.60 177.94 L 128.80 177.94 L 127.00 177.94 L 125.20 177.94 L 123.40 177.94 L 122.50 177.94 L 123.40 176.38 L 124.30 174.82 L 125.20 173.27 L 126.10 171.71 L 127.00 170.15 L 127.90 168.59 L 128.80 167.03 L 129.70 165.47 L 130.60 163.91 L 131.50 162.35 L 132.40 160.80 L 133.30 159.24 L 133.75 158.46 L 131.95 158.46 L 130.15 158.46 L 128.35 158.46 L 126.55 158.46 L 124.75 158.46 L 122.95 158.46 L 121.15 158.46 L 119.35 158.46 L 117.55 158.46 L 115.75 158.46 L 113.95 158.46 L 112.15 158.46 L 111.25 158.46 L 110.35 156.90 L 109.45 155.34 L 108.55 153.78 L 107.65 152.22 L 106.75 150.66 L 105.85 149.10 L 104.95 147.54 L 104.05 145.99 L 103.15 144.43 L 102.25 142.87 L 101.35 141.31 L 100.45 139.75 L 100.00 138.97 L 99.10 140.53 L 98.20 142.09 L 97.30 143.65 L 96.40 145.21 L 95.50 146.77 L 94.60 148.32 L 93.70 149.88 L 92.80 151.44 L 91.90 153.00 L 91.00 154.56 L 90.10 156.12 L 89.20 157.68 L 88.75 158.46 L 90.55 158.46 L 92.35 158.46 L 94.15 158.46 L 95.95 158.46 L 97.75 158.46 L 99.55 158.46 L 101.35 158.46 L 103.15 158.46 L 104.95 158.46 L 106.75 158.46 L 108.55 158.46 L 110.35 158.46 L 111.25 158.46 L 110.35 160.02 L 109.45 161.57 L 108.55 163.13 L 107.65 164.69 L 106.75 166.25 L 105.85 167.81 L 104.95 169.37 L 104.05 170.93 L 103.15 172.49 L 102.25 174.05 L 101.35 175.60 L 100.45 177.16 L 100.00 177.94 L 99.10 176.38 L 98.20 174.82 L 97.30 173.27 L 96.40 171.71 L 95.50 170.15 L 94.60 168.59 L 93.70 167.03 L 92.80 165.47 L 91.90 163.91 L 91.00 162.35 L 90.10 160.80 L 89.20 159.24 L 88.30 157.68 L 87.40 156.12 L 86.50 154.56 L 85.60 153.00 L 84.70 151.44 L 83.80 149.88 L 82.90 148.32 L 82.00 146.76 L 81.10 145.21 L 80.20 143.65 L 79.30 142.09 L 78.40 140.53 L 77.50 138.97 L 79.30 138.97 L 81.10 138.97 L 82.90 138.97 L 84.70 138.97 L 86.50 138.97 L 88.30 138.97 L 90.10 138.97 L 91.90 138.97 L 93.70 138.97 L 95.50 138.97 L 97.30 138.97 L 99.10 138.97 L 100.90 138.97 L 102.70 138.97 L 104.50 138.97 L 106.30 138.97 L 108.10 138.97 L 109.90 138.97 L 111.70 138.97 L 113.50 138.97 L 115.30 138.97 L 117.10 138.97 L 118.90 138.97 L 120.70 138.97 L 122.50 138.97 L 121.60 140.53 L 120.70 142.09 L 119.80 143.65 L 118.90 145.21 L 118.00 146.77 L 117.10 148.32 L 116.20 149.88 L 115.30 151.44 L 114.40 153.00 L 113.50 154.56 L 112.60 156.12 L 111.70 157.68 L 111.25 158.46 L 112.15 160.02 L 113.05 161.57 L 113.95 163.13 L 114.85 164.69 L 115.75 166.25 L 116.65 167.81 L 117.55 169.37 L 118.45 170.93 L 119.35 172.49 L 120.25 174.05 L 121.15 175.60 L 122.05 177.16 L 122.50 177.94 L 120.70 177.94 L 118.90 177.94 L 117.10 177.94 L 115.30 177.94 L 113.50 177.94 L 111.70 177.94 L 109.90 177.94 L 108.10 177.94 L 106.30 177.94 L 104.50 177.94 L 102.70 177.94 L 100.90 177.94 L 99.10 177.94 L 97.30 177.94 L 95.50 177.94 L 93.70 177.94 L 91.90 177.94 L 90.10 177.94 L 88.30 177.94 L 86.50 177.94 L 84.70 177.94 L 82.90 177.94 L 81.10 177.94 L 79.30 177.94 L 77.50 177.94 L 76.60 176.38 L 75.70 174.82 L 74.80 173.27 L 73.90 171.71 L 73.00 170.15 L 72.10 168.59 L 71.20 167.03 L 70.30 165.47 L 69.40 163.91 L 68.50 162.35 L 67.60 160.79 L 66.70 159.24 L 66.25 158.46 L 68.05 158.46 L 69.85 158.46 L 71.65 158.46 L 73.45 158.46 L 75.25 158.46 L 77.05 158.46 L 78.85 158.46 L 80.65 158.46 L 82.45 158.46 L 84.25 158.46 L 86.05 158.46 L 87.85 158.46 L 88.75 158.46 L 87.85 160.02 L 86.95 161.57 L 86.05 163.13 L 85.15 164.69 L 84.25 166.25 L 83.35 167.81 L 82.45 169.37 L 81.55 170.93 L 80.65 172.49 L 79.75 174.04 L 78.85 175.60 L 77.95 177.16 L 77.50 177.94 L 75.70 177.94 L 73.90 177.94 L 72.10 177.94 L 70.30 177.94 L 68.50 177.94 L 66.70 177.94 L 64.90 177.94 L 63.10 177.94 L 61.30 177.94 L 59.50 177.94 L 57.70 177.94 L 55.90 177.94 L 55.90 177.94 L 55.68 178.33 L 55.00 177.94 L 55.90 176.38 L 56.80 174.82 L 57.70 173.27 L 58.60 171.71 L 59.50 170.15 L 60.40 168.59 L 61.30 167.03 L 62.20 165.47 L 63.10 163.91 L 64.00 162.35 L 64.90 160.79 L 65.80 159.24 L 66.70 157.68 L 67.60 156.12 L 68.50 154.56 L 69.40 153.00 L 70.30 151.44 L 71.20 149.88 L 72.10 148.32 L 73.00 146.77 L 73.90 145.21 L 74.80 143.65 L 75.70 142.09 L 76.60 140.53 L 77.50 138.97 L 78.40 137.41 L 79.30 135.85 L 80.20 134.29 L 81.10 132.74 L 82.00 131.18 L 82.90 129.62 L 83.80 128.06 L 84.70 126.50 L 85.60 124.94 L 86.50 123.38 L 87.40 121.82 L 88.30 120.26 L 88.75 119.49 L 90.55 119.49 L 92.35 119.49 L 94.15 119.49 L 95.95 119.49 L 97.75 119.49 L 99.55 119.49 L 101.35 119.49 L 103.15 119.49 L 104.95 119.49 L 106.75 119.49 L 108.55 119.49 L 110.35 119.49 L 111.25 119.49 L 110.35 117.93 L 109.45 116.37 L 108.55 114.81 L 107.65 113.25 L 106.75 111.69 L 105.85 110.13 L 104.95 108.57 L 104.05 107.01 L 103.15 105.46 L 102.25 103.90 L 101.35 102.34 L 100.45 100.78 L 100.00 100.00 L 98.20 100.00 L 96.40 100.00 L 94.60 100.00 L 92.80 100.00 L 91.00 100.00 L 89.20 100.00 L 87.40 100.00 L 85.60 100.00 L 83.80 100.00 L 82.00 100.00 L 80.20 100.00 L 78.40 100.00 L 77.50 100.00 L 79.30 100.00 L 81.10 100.00 L 82.90 100.00 L 84.70 100.00 L 86.50 100.00 L 88.30 100.00 L 90.10 100.00 L 91.90 100.00 L 93.70 100.00 L 95.50 100.00 L 97.30 100.00 L 99.10 100.00 L 100.00 100.00 L 99.10 101.56 L 98.20 103.12 L 97.30 104.68 L 96.40 106.24 L 95.50 107.79 L 94.60 109.35 L 93.70 110.91 L 92.80 112.47 L 91.90 114.03 L 91.00 115.59 L 90.10 117.15 L 89.20 118.71 L 88.30 120.26 L 87.40 121.82 L 86.50 123.38 L 85.60 124.94 L 84.70 126.50 L 83.80 128.06 L 82.90 129.62 L 82.00 131.18 L 81.10 132.74 L 80.20 134.29 L 79.30 135.85 L 78.40 137.41 L 77.50 138.97 L 76.60 140.53 L 75.70 142.09 L 74.80 143.65 L 73.90 145.21 L 73.00 146.77 L 72.10 148.32 L 71.20 149.88 L 70.30 151.44 L 69.40 153.00 L 68.50 154.56 L 67.60 156.12 L 66.70 157.68 L 65.80 159.24 L 64.90 160.79 L 64.00 162.35 L 63.10 163.91 L 62.20 165.47 L 61.30 167.03 L 60.40 168.59 L 59.50 170.15 L 58.60 171.71 L 57.70 173.27 L 56.80 174.82 L 55.90 176.38 L 55.00 177.94 L 55.00 177.94 L 54.10 176.38 L 53.20 174.82 L 52.30 173.27 L 51.40 171.71 L 50.50 170.15 L 49.60 168.59 L 48.70 167.03 L 47.80 165.47 L 46.90 163.91 L 46.00 162.35 L 45.10 160.79 L 44.20 159.24 L 43.75 158.46 L 45.55 158.46 L 47.35 158.46 L 49.15 158.46 L 50.95 158.46 L 52.75 158.46 L 54.55 158.46 L 56.35 158.46 L 58.15 158.46 L 59.95 158.46 L 61.75 158.46 L 63.55 158.46 L 65.35 158.46 L 66.25 158.46 L 65.35 156.90 L 64.45 155.34 L 63.55 153.78 L 62.65 152.22 L 61.75 150.66 L 60.85 149.10 L 59.95 147.54 L 59.05 145.99 L 58.15 144.43 L 57.25 142.87 L 56.35 141.31 L 55.45 139.75 L 55.00 138.97 L 55.90 137.41 L 56.80 135.85 L 57.70 134.29 L 58.60 132.74 L 59.50 131.18 L 60.40 129.62 L 61.30 128.06 L 62.20 126.50 L 63.10 124.94 L 64.00 123.38 L 64.90 121.82 L 65.80 120.26 L 66.25 119.49 L 64.45 119.49 L 62.65 119.49 L 60.85 119.49 L 59.05 119.49 L 57.25 119.49 L 55.45 119.49 L 53.65 119.49 L 51.85 119.49 L 50.05 119.49 L 48.25 119.49 L 46.45 119.48 L 44.65 119.48 L 43.75 119.49 L 44.65 121.04 L 45.55 122.60 L 46.45 124.16 L 47.35 125.72 L 48.25 127.28 L 49.15 128.84 L 50.05 130.40 L 50.95 131.96 L 51.85 133.51 L 52.75 135.07 L 53.65 136.63 L 54.55 138.19 L 55.00 138.97 L 53.20 138.97 L 51.40 138.97 L 49.60 138.97 L 47.80 138.97 L 46.00 138.97 L 44.20 138.97 L 42.40 138.97 L 40.60 138.97 L 38.80 138.97 L 37.00 138.97 L 35.20 138.97 L 33.40 138.97 L 32.50 138.97 L 33.40 137.41 L 34.30 135.85 L 35.20 134.29 L 36.10 132.74 L 37.00 131.18 L 37.90 129.62 L 38.80 128.06 L 39.70 126.50 L 40.60 124.94 L 41.50 123.38 L 42.40 121.82 L 43.30 120.26 L 44.20 118.71 L 45.10 117.15 L 46.00 115.59 L 46.90 114.03 L 47.80 112.47 L 48.70 110.91 L 49.60 109.35 L 50.50 107.79 L 51.40 106.24 L 52.30 104.68 L 53.20 103.12 L 54.10 101.56 L 55.00 100.00 L 55.00 100.00 L 54.10 98.44 L 53.20 96.88 L 52.30 95.32 L 51.40 93.76 L 50.50 92.21 L 49.60 90.65 L 48.70 89.09 L 47.80 87.53 L 46.90 85.97 L 46.00 84.41 L 45.10 82.85 L 44.20 81.29 L 43.75 80.51 L 42.85 82.07 L 41.95 83.63 L 41.05 85.19 L 40.15 86.75 L 39.25 88.31 L 38.35 89.87 L 37.45 91.43 L 36.55 92.98 L 35.65 94.54 L 34.75 96.10 L 33.85 97.66 L 32.95 99.22 L 32.50 100.00 L 34.30 100.00 L 36.10 100.00 L 37.90 100.00 L 39.70 100.00 L 41.50 100.00 L 43.30 100.00 L 45.10 100.00 L 46.90 100.00 L 48.70 100.00 L 50.50 100.00 L 52.30 100.00 L 54.10 100.00 L 55.00 100.00 L 55.90 98.44 L 56.80 96.88 L 57.70 95.32 L 58.60 93.76 L 59.50 92.21 L 60.40 90.65 L 61.30 89.09 L 62.20 87.53 L 63.10 85.97 L 64.00 84.41 L 64.90 82.85 L 65.80 81.29 L 66.70 79.73 L 67.60 78.18 L 68.50 76.62 L 69.40 75.06 L 70.30 73.50 L 71.20 71.94 L 72.10 70.38 L 73.00 68.82 L 73.90 67.26 L 74.80 65.71 L 75.70 64.15 L 76.60 62.59 L 77.50 61.03 L 79.30 61.03 L 81.10 61.03 L 82.90 61.03 L 84.70 61.03 L 86.50 61.03 L 88.30 61.03 L 90.10 61.03 L 91.90 61.03 L 93.70 61.03 L 95.50 61.03 L 97.30 61.03 L 99.10 61.03 L 100.90 61.03 L 102.70 61.03 L 104.50 61.03 L 106.30 61.03 L 108.10 61.03 L 109.90 61.03 L 111.70 61.03 L 113.50 61.03 L 115.30 61.03 L 117.10 61.03 L 118.90 61.03 L 120.70 61.03 L 122.50 61.03 L 123.40 62.59 L 124.30 64.15 L 125.20 65.71 L 126.10 67.26 L 127.00 68.82 L 127.90 70.38 L 128.80 71.94 L 129.70 73.50 L 130.60 75.06 L 131.50 76.62 L 132.40 78.18 L 133.30 79.73 L 134.20 81.29 L 135.10 82.85 L 136.00 84.41 L 136.90 85.97 L 137.80 87.53 L 138.70 89.09 L 139.60 90.65 L 140.50 92.21 L 141.40 93.77 L 142.30 95.32 L 143.20 96.88 L 144.10 98.44 L 145.00 100.00 L 143.20 100.00 L 141.40 100.00 L 139.60 100.00 L 137.80 100.00 L 136.00 100.00 L 134.20 100.00 L 132.40 100.00 L 130.60 100.00 L 128.80 100.00 L 127.00 100.00 L 125.20 100.00 L 123.40 100.00 L 122.50 100.00 L 121.60 101.56 L 120.70 103.12 L 119.80 104.68 L 118.90 106.24 L 118.00 107.79 L 117.10 109.35 L 116.20 110.91 L 115.30 112.47 L 114.40 114.03 L 113.50 115.59 L 112.60 117.15 L 111.70 118.71 L 111.25 119.49 L 113.05 119.49 L 114.85 119.49 L 116.65 119.49 L 118.45 119.49 L 120.25 119.49 L 122.05 119.49 L 123.85 119.49 L 125.65 119.49 L 127.45 119.49 L 129.25 119.49 L 131.05 119.49 L 132.85 119.49 L 133.75 119.49 L 132.85 117.93 L 131.95 116.37 L 131.05 114.81 L 130.15 113.25 L 129.25 111.69 L 128.35 110.13 L 127.45 108.57 L 126.55 107.01 L 125.65 105.46 L 124.75 103.90 L 123.85 102.34 L 122.95 100.78 L 122.50 100.00 L 120.70 100.00 L 118.90 100.00 L 117.10 100.00 L 115.30 100.00 L 113.50 100.00 L 111.70 100.00 L 109.90 100.00 L 108.10 100.00 L 106.30 100.00 L 104.50 100.00 L 102.70 100.00 L 100.90 100.00 L 100.00 100.00 L 100.90 98.44 L 101.80 96.88 L 102.70 95.32 L 103.60 93.76 L 104.50 92.21 L 105.40 90.65 L 106.30 89.09 L 107.20 87.53 L 108.10 85.97 L 109.00 84.41 L 109.90 82.85 L 110.80 81.29 L 111.25 80.51 L 112.15 82.07 L 113.05 83.63 L 113.95 85.19 L 114.85 86.75 L 115.75 88.31 L 116.65 89.87 L 117.55 91.43 L 118.45 92.99 L 119.35 94.54 L 120.25 96.10 L 121.15 97.66 L 122.05 99.22 L 122.50 100.00 L 123.40 98.44 L 124.30 96.88 L 125.20 95.32 L 126.10 93.76 L 127.00 92.21 L 127.90 90.65 L 128.80 89.09 L 129.70 87.53 L 130.60 85.97 L 131.50 84.41 L 132.40 82.85 L 133.30 81.29 L 133.75 80.51 L 131.95 80.51 L 130.15 80.51 L 128.35 80.51 L 126.55 80.51 L 124.75 80.51 L 122.95 80.51 L 121.15 80.51 L 119.35 80.51 L 117.55 80.51 L 115.75 80.51 L 113.95 80.51 L 112.15 80.51 L 111.25 80.51 L 112.15 78.96 L 113.05 77.40 L 113.95 75.84 L 114.85 74.28 L 115.75 72.72 L 116.65 71.16 L 117.55 69.60 L 118.45 68.04 L 119.35 66.49 L 120.25 64.93 L 121.15 63.37 L 122.05 61.81 L 122.95 60.25 L 123.85 58.69 L 124.75 57.13 L 125.65 55.57 L 126.55 54.01 L 127.45 52.46 L 128.35 50.90 L 129.25 49.34 L 130.15 47.78 L 131.05 46.22 L 131.95 44.66 L 132.85 43.10 L 133.75 41.54 L 135.55 41.54 L 137.35 41.54 L 139.15 41.54 L 140.95 41.54 L 142.75 41.54 L 144.55 41.54 L 146.35 41.54 L 148.15 41.54 L 149.95 41.54 L 151.75 41.54 L 153.55 41.54 L 155.35 41.54 L 156.25 41.54 L 155.35 39.98 L 154.45 38.43 L 153.55 36.87 L 152.65 35.31 L 151.75 33.75 L 150.85 32.19 L 149.95 30.63 L 149.05 29.07 L 148.15 27.51 L 147.25 25.95 L 146.35 24.40 L 145.45 22.84 L 145.68 22.45 L 145.00 22.06 L 145.90 23.62 L 146.80 25.18 L 147.70 26.73 L 148.60 28.29 L 149.50 29.85 L 150.40 31.41 L 151.30 32.97 L 152.20 34.53 L 153.10 36.09 L 154.00 37.65 L 154.90 39.21 L 155.80 40.76 L 156.25 41.54 L 155.35 43.10 L 154.45 44.66 L 153.55 46.22 L 152.65 47.78 L 151.75 49.34 L 150.85 50.90 L 149.95 52.46 L 149.05 54.01 L 148.15 55.57 L 147.25 57.13 L 146.35 58.69 L 145.45 60.25 L 145.00 61.03 L 144.10 59.47 L 143.20 57.91 L 142.30 56.35 L 141.40 54.79 L 140.50 53.23 L 139.60 51.68 L 138.70 50.12 L 137.80 48.56 L 136.90 47.00 L 136.00 45.44 L 135.10 43.88 L 134.20 42.32 L 133.75 41.54 L 134.65 39.98 L 135.55 38.43 L 136.45 36.87 L 137.35 35.31 L 138.25 33.75 L 139.15 32.19 L 140.05 30.63 L 140.95 29.07 L 141.85 27.51 L 142.75 25.96 L 143.65 24.40 L 144.55 22.84 L 145.00 22.06 L 143.20 22.06 L 141.40 22.06 L 139.60 22.06 L 137.80 22.06 L 136.00 22.06 L 134.20 22.06 L 132.40 22.06 L 130.60 22.06 L 128.80 22.06 L 127.00 22.06 L 125.20 22.06 L 123.40 22.06 L 122.50 22.06 L 123.40 23.62 L 124.30 25.18 L 125.20 26.73 L 126.10 28.29 L 127.00 29.85 L 127.90 31.41 L 128.80 32.97 L 129.70 34.53 L 130.60 36.09 L 131.50 37.65 L 132.40 39.21 L 133.30 40.76 L 133.75 41.54 L 131.95 41.54 L 130.15 41.54 L 128.35 41.54 L 126.55 41.54 L 124.75 41.54 L 122.95 41.54 L 121.15 41.54 L 119.35 41.54 L 117.55 41.54 L 115.75 41.54 L 113.95 41.54 L 112.15 41.54 L 111.25 41.54 L 112.15 39.98 L 113.05 38.43 L 113.95 36.87 L 114.85 35.31 L 115.75 33.75 L 116.65 32.19 L 117.55 30.63 L 118.45 29.07 L 119.35 27.51 L 120.25 25.96 L 121.15 24.40 L 122.05 22.84 L 122.50 22.06 L 120.70 22.06 L 118.90 22.06 L 117.10 22.06 L 115.30 22.06 L 113.50 22.06 L 111.70 22.06 L 109.90 22.06 L 108.10 22.06 L 106.30 22.06 L 104.50 22.06 L 102.70 22.06 L 100.90 22.06 L 99.10 22.06 L 97.30 22.06 L 95.50 22.06 L 93.70 22.06 L 91.90 22.06 L 90.10 22.06 L 88.30 22.06 L 86.50 22.06 L 84.70 22.06 L 82.90 22.06 L 81.10 22.06 L 79.30 22.06 L 77.50 22.06 L 76.60 23.62 L 75.70 25.17 L 74.80 26.73 L 73.90 28.29 L 73.00 29.85 L 72.10 31.41 L 71.20 32.97 L 70.30 34.53 L 69.40 36.09 L 68.50 37.65 L 67.60 39.20 L 66.70 40.76 L 66.25 41.54 L 68.05 41.54 L 69.85 41.54 L 71.65 41.54 L 73.45 41.54 L 75.25 41.54 L 77.05 41.54 L 78.85 41.54 L 80.65 41.54 L 82.45 41.54 L 84.25 41.54 L 86.05 41.54 L 87.85 41.54 L 88.75 41.54 L 87.85 39.98 L 86.95 38.43 L 86.05 36.87 L 85.15 35.31 L 84.25 33.75 L 83.35 32.19 L 82.45 30.63 L 81.55 29.07 L 80.65 27.51 L 79.75 25.95 L 78.85 24.40 L 77.95 22.84 L 77.50 22.06 L 75.70 22.06 L 73.90 22.06 L 72.10 22.06 L 70.30 22.06 L 68.50 22.06 L 66.70 22.06 L 64.90 22.06 L 63.10 22.06 L 61.30 22.06 L 59.50 22.06 L 57.70 22.06 L 55.90 22.06 L 55.90 22.06 L 55.68 21.67 L 55.00 22.06 L 55.90 23.62 L 56.80 25.18 L 57.70 26.73 L 58.60 28.29 L 59.50 29.85 L 60.40 31.41 L 61.30 32.97 L 62.20 34.53 L 63.10 36.09 L 64.00 37.65 L 64.90 39.20 L 65.80 40.76 L 66.70 42.32 L 67.60 43.88 L 68.50 45.44 L 69.40 47.00 L 70.30 48.56 L 71.20 50.12 L 72.10 51.68 L 73.00 53.23 L 73.90 54.79 L 74.80 56.35 L 75.70 57.91 L 76.60 59.47 L 77.50 61.03 L 78.40 62.59 L 79.30 64.15 L 80.20 65.71 L 81.10 67.26 L 82.00 68.82 L 82.90 70.38 L 83.80 71.94 L 84.70 73.50 L 85.60 75.06 L 86.50 76.62 L 87.40 78.18 L 88.30 79.73 L 88.75 80.51 L 90.55 80.51 L 92.35 80.51 L 94.15 80.51 L 95.95 80.51 L 97.75 80.51 L 99.55 80.51 L 101.35 80.51 L 103.15 80.51 L 104.95 80.51 L 106.75 80.51 L 108.55 80.51 L 110.35 80.51 L 111.25 80.51 L 110.35 78.96 L 109.45 77.40 L 108.55 75.84 L 107.65 74.28 L 106.75 72.72 L 105.85 71.16 L 104.95 69.60 L 104.05 68.04 L 103.15 66.49 L 102.25 64.93 L 101.35 63.37 L 100.45 61.81 L 100.00 61.03 L 99.10 62.59 L 98.20 64.15 L 97.30 65.71 L 96.40 67.26 L 95.50 68.82 L 94.60 70.38 L 93.70 71.94 L 92.80 73.50 L 91.90 75.06 L 91.00 76.62 L 90.10 78.18 L 89.20 79.73 L 88.75 80.51 L 89.65 82.07 L 90.55 83.63 L 91.45 85.19 L 92.35 86.75 L 93.25 88.31 L 94.15 89.87 L 95.05 91.43 L 95.95 92.99 L 96.85 94.54 L 97.75 96.10 L 98.65 97.66 L 99.55 99.22 L 100.00 100.00 L 99.10 101.56 L 98.20 103.12 L 97.30 104.68 L 96.40 106.24 L 95.50 107.79 L 94.60 109.35 L 93.70 110.91 L 92.80 112.47 L 91.90 114.03 L 91.00 115.59 L 90.10 117.15 L 89.20 118.71 L 88.75 119.49 L 89.65 121.04 L 90.55 122.60 L 91.45 124.16 L 92.35 125.72 L 93.25 127.28 L 94.15 128.84 L 95.05 130.40 L 95.95 131.96 L 96.85 133.51 L 97.75 135.07 L 98.65 136.63 L 99.55 138.19 L 100.00 138.97 L 100.90 137.41 L 101.80 135.85 L 102.70 134.29 L 103.60 132.74 L 104.50 131.18 L 105.40 129.62 L 106.30 128.06 L 107.20 126.50 L 108.10 124.94 L 109.00 123.38 L 109.90 121.82 L 110.80 120.27 L 111.25 119.49 L 109.45 119.49 L 107.65 119.49 L 105.85 119.49 L 104.05 119.49 L 102.25 119.49 L 100.45 119.49 L 98.65 119.49 L 96.85 119.49 L 95.05 119.49 L 93.25 119.49 L 91.45 119.49 L 89.65 119.49 L 88.75 119.49 L 87.85 117.93 L 86.95 116.37 L 86.05 114.81 L 85.15 113.25 L 84.25 111.69 L 83.35 110.13 L 82.45 108.57 L 81.55 107.01 L 80.65 105.46 L 79.75 103.90 L 78.85 102.34 L 77.95 100.78 L 77.50 100.00 L 78.40 98.44 L 79.30 96.88 L 80.20 95.32 L 81.10 93.76 L 82.00 92.21 L 82.90 90.65 L 83.80 89.09 L 84.70 87.53 L 85.60 85.97 L 86.50 84.41 L 87.40 82.85 L 88.30 81.29 L 88.75 80.51 L 86.95 80.51 L 85.15 80.51 L 83.35 80.51 L 81.55 80.51 L 79.75 80.51 L 77.95 80.51 L 76.15 80.51 L 74.35 80.51 L 72.55 80.51 L 70.75 80.51 L 68.95 80.51 L 67.15 80.51 L 66.25 80.51 L 67.15 82.07 L 68.05 83.63 L 68.95 85.19 L 69.85 86.75 L 70.75 88.31 L 71.65 89.87 L 72.55 91.43 L 73.45 92.99 L 74.35 94.54 L 75.25 96.10 L 76.15 97.66 L 77.05 99.22 L 77.50 100.00 L 75.70 100.00 L 73.90 100.00 L 72.10 100.00 L 70.30 100.00 L 68.50 100.00 L 66.70 100.00 L 64.90 100.00 L 63.10 100.00 L 61.30 100.00 L 59.50 100.00 L 57.70 100.00 L 55.90 100.00 L 55.00 100.00 L 55.90 101.56 L 56.80 103.12 L 57.70 104.68 L 58.60 106.24 L 59.50 107.79 L 60.40 109.35 L 61.30 110.91 L 62.20 112.47 L 63.10 114.03 L 64.00 115.59 L 64.90 117.15 L 65.80 118.71 L 66.25 119.49 L 67.15 117.93 L 68.05 116.37 L 68.95 114.81 L 69.85 113.25 L 70.75 111.69 L 71.65 110.13 L 72.55 108.57 L 73.45 107.01 L 74.35 105.46 L 75.25 103.90 L 76.15 102.34 L 77.05 100.78 L 77.50 100.00 L 78.40 101.56 L 79.30 103.12 L 80.20 104.68 L 81.10 106.24 L 82.00 107.79 L 82.90 109.35 L 83.80 110.91 L 84.70 112.47 L 85.60 114.03 L 86.50 115.59 L 87.40 117.15 L 88.30 118.71 L 88.75 119.49 L 86.95 119.49 L 85.15 119.49 L 83.35 119.49 L 81.55 119.49 L 79.75 119.49 L 77.95 119.49 L 76.15 119.49 L 74.35 119.49 L 72.55 119.49 L 70.75 119.48 L 68.95 119.49 L 67.15 119.48 L 66.25 119.49 L 67.15 121.04 L 68.05 122.60 L 68.95 124.16 L 69.85 125.72 L 70.75 127.28 L 71.65 128.84 L 72.55 130.40 L 73.45 131.96 L 74.35 133.51 L 75.25 135.07 L 76.15 136.63 L 77.05 138.19 L 77.50 138.97 L 75.70 138.97 L 73.90 138.97 L 72.10 138.97 L 70.30 138.97 L 68.50 138.97 L 66.70 138.97 L 64.90 138.97 L 63.10 138.97 L 61.30 138.97 L 59.50 138.97 L 57.70 138.97 L 55.90 138.97 L 55.00 138.97 L 54.10 140.53 L 53.20 142.09 L 52.30 143.65 L 51.40 145.21 L 50.50 146.77 L 49.60 148.32 L 48.70 149.88 L 47.80 151.44 L 46.90 153.00 L 46.00 154.56 L 45.10 156.12 L 44.20 157.68 L 43.75 158.46 L 42.85 156.90 L 41.95 155.34 L 41.05 153.78 L 40.15 152.22 L 39.25 150.66 L 38.35 149.10 L 37.45 147.54 L 36.55 145.99 L 35.65 144.43 L 34.75 142.87 L 33.85 141.31 L 32.95 139.75 L 32.05 138.19 L 31.15 136.63 L 30.25 135.07 L 29.35 133.52 L 28.45 131.96 L 27.55 130.40 L 26.65 128.84 L 25.75 127.28 L 24.85 125.72 L 23.95 124.16 L 23.05 122.60 L 22.15 121.04 L 21.25 119.48 L 22.15 117.93 L 23.05 116.37 L 23.95 114.81 L 24.85 113.25 L 25.75 111.69 L 26.65 110.13 L 27.55 108.57 L 28.45 107.01 L 29.35 105.46 L 30.25 103.90 L 31.15 102.34 L 32.05 100.78 L 32.50 100.00 L 33.40 101.56 L 34.30 103.12 L 35.20 104.68 L 36.10 106.23 L 37.00 107.79 L 37.90 109.35 L 38.80 110.91 L 39.70 112.47 L 40.60 114.03 L 41.50 115.59 L 42.40 117.15 L 43.30 118.71 L 43.75 119.49 L 41.95 119.49 L 40.15 119.49 L 38.35 119.49 L 36.55 119.49 L 34.75 119.49 L 32.95 119.49 L 31.15 119.49 L 29.35 119.49 L 27.55 119.49 L 25.75 119.49 L 23.95 119.49 L 22.15 119.49 L 21.25 119.48 L 20.35 117.93 L 19.45 116.37 L 18.55 114.81 L 17.65 113.25 L 16.75 111.69 L 15.85 110.13 L 14.95 108.57 L 14.05 107.01 L 13.15 105.46 L 12.25 103.90 L 11.35 102.34 L 10.45 100.78 L 10.00 100.78 L 10.00 100.00 L 10.90 98.44 L 11.80 96.88 L 12.70 95.32 L 13.60 93.76 L 14.50 92.21 L 15.40 90.65 L 16.30 89.09 L 17.20 87.53 L 18.10 85.97 L 19.00 84.41 L 19.90 82.85 L 20.80 81.29 L 21.70 79.73 L 22.60 78.18 L 23.50 76.62 L 24.40 75.06 L 25.30 73.50 L 26.20 71.94 L 27.10 70.38 L 28.00 68.82 L 28.90 67.26 L 29.80 65.71 L 30.70 64.15 L 31.60 62.59 L 32.50 61.03 L 33.40 59.47 L 34.30 57.91 L 35.20 56.35 L 36.10 54.79 L 37.00 53.23 L 37.90 51.68 L 38.80 50.12 L 39.70 48.56 L 40.60 47.00 L 41.50 45.44 L 42.40 43.88 L 43.30 42.32 L 43.75 41.54 L 45.55 41.54 L 47.35 41.54 L 49.15 41.54 L 50.95 41.54 L 52.75 41.54 L 54.55 41.54 L 56.35 41.54 L 58.15 41.54 L 59.95 41.54 L 61.75 41.54 L 63.55 41.54 L 65.35 41.54 L 66.25 41.54 L 65.35 43.10 L 64.45 44.66 L 63.55 46.22 L 62.65 47.78 L 61.75 49.34 L 60.85 50.90 L 59.95 52.45 L 59.05 54.01 L 58.15 55.57 L 57.25 57.13 L 56.35 58.69 L 55.45 60.25 L 55.00 61.03 L 54.10 59.47 L 53.20 57.91 L 52.30 56.35 L 51.40 54.79 L 50.50 53.23 L 49.60 51.68 L 48.70 50.12 L 47.80 48.56 L 46.90 47.00 L 46.00 45.44 L 45.10 43.88 L 44.20 42.32 L 43.75 41.54 L 44.65 39.98 L 45.55 38.43 L 46.45 36.87 L 47.35 35.31 L 48.25 33.75 L 49.15 32.19 L 50.05 30.63 L 50.95 29.07 L 51.85 27.51 L 52.75 25.95 L 53.65 24.40 L 54.55 22.84 L 54.55 22.84 L 54.32 22.45 L 55.00 22.06 L 55.90 23.62 L 56.80 25.18 L 57.70 26.73 L 58.60 28.29 L 59.50 29.85 L 60.40 31.41 L 61.30 32.97 L 62.20 34.53 L 63.10 36.09 L 64.00 37.65 L 64.90 39.20 L 65.80 40.76 L 66.25 41.54 L 68.05 41.54 L 69.85 41.54 L 71.65 41.54 L 73.45 41.54 L 75.25 41.54 L 77.05 41.54 L 78.85 41.54 L 80.65 41.54 L 82.45 41.54 L 84.25 41.54 L 86.05 41.54 L 87.85 41.54 L 89.65 41.54 L 91.45 41.54 L 93.25 41.54 L 95.05 41.54 L 96.85 41.54 L 98.65 41.54 L 100.45 41.54 L 102.25 41.54 L 104.05 41.54 L 105.85 41.54 L 107.65 41.54 L 109.45 41.54 L 111.25 41.54 L 113.05 41.54 L 114.85 41.54 L 116.65 41.54 L 118.45 41.54 L 120.25 41.54 L 122.05 41.54 L 123.85 41.54 L 125.65 41.54 L 127.45 41.54 L 129.25 41.54 L 131.05 41.54 L 132.85 41.54 L 134.65 41.54 L 136.45 41.54 L 138.25 41.54 L 140.05 41.54 L 141.85 41.54 L 143.65 41.54 L 145.45 41.54 L 147.25 41.54 L 149.05 41.54 L 150.85 41.54 L 152.65 41.54 L 154.45 41.54 L 156.25 41.54 L 156.25 41.54 L 157.15 43.10 L 158.05 44.66 L 158.95 46.22 L 159.85 47.78 L 160.75 49.34 L 161.65 50.90 L 162.55 52.45 L 163.45 54.01 L 164.35 55.57 L 165.25 57.13 L 166.15 58.69 L 167.05 60.25 L 167.95 61.81 L 168.85 63.37 L 169.75 64.93 L 170.65 66.49 L 171.55 68.04 L 172.45 69.60 L 173.35 71.16 L 174.25 72.72 L 175.15 74.28 L 176.05 75.84 L 176.95 77.40 L 177.85 78.96 L 178.75 80.51 L 177.85 82.07 L 176.95 83.63 L 176.05 85.19 L 175.15 86.75 L 174.25 88.31 L 173.35 89.87 L 172.45 91.43 L 171.55 92.99 L 170.65 94.54 L 169.75 96.10 L 168.85 97.66 L 167.95 99.22 L 167.50 100.00 L 166.60 98.44 L 165.70 96.88 L 164.80 95.32 L 163.90 93.76 L 163.00 92.21 L 162.10 90.65 L 161.20 89.09 L 160.30 87.53 L 159.40 85.97 L 158.50 84.41 L 157.60 82.85 L 156.70 81.29 L 156.25 80.51 L 158.05 80.51 L 159.85 80.51 L 161.65 80.51 L 163.45 80.51 L 165.25 80.51 L 167.05 80.51 L 168.85 80.51 L 170.65 80.51 L 172.45 80.51 L 174.25 80.51 L 176.05 80.51 L 177.85 80.51 L 178.75 80.51 L 179.65 82.07 L 180.55 83.63 L 181.45 85.19 L 182.35 86.75 L 183.25 88.31 L 184.15 89.87 L 185.05 91.43 L 185.95 92.99 L 186.85 94.54 L 187.75 96.10 L 188.65 97.66 L 189.55 99.22 L 190.00 99.22 L 190.00 100.00 L 188.20 100.00 L 186.40 100.00 L 184.60 100.00 L 182.80 100.00 L 181.00 100.00 L 179.20 100.00 L 177.40 100.00 L 175.60 100.00 L 173.80 100.00 L 172.00 100.00 L 170.20 100.00 L 168.40 100.00 L 167.50 100.00 L 166.60 101.56 L 165.70 103.12 L 164.80 104.68 L 163.90 106.24 L 163.00 107.79 L 162.10 109.35 L 161.20 110.91 L 160.30 112.47 L 159.40 114.03 L 158.50 115.59 L 157.60 117.15 L 156.70 118.71 L 156.25 119.49 L 154.45 119.49 L 152.65 119.49 L 150.85 119.49 L 149.05 119.49 L 147.25 119.49 L 145.45 119.49 L 143.65 119.49 L 141.85 119.49 L 140.05 119.49 L 138.25 119.49 L 136.45 119.49 L 134.65 119.49 L 133.75 119.49 L 132.85 121.04 L 131.95 122.60 L 131.05 124.16 L 130.15 125.72 L 129.25 127.28 L 128.35 128.84 L 127.45 130.40 L 126.55 131.96 L 125.65 133.51 L 124.75 135.07 L 123.85 136.63 L 122.95 138.19 L 122.05 139.75 L 121.15 141.31 L 120.25 142.87 L 119.35 144.43 L 118.45 145.99 L 117.55 147.54 L 116.65 149.10 L 115.75 150.66 L 114.85 152.22 L 113.95 153.78 L 113.05 155.34 L 112.15 156.90 L 111.25 158.46 L 111.25 158.46 L 109.45 158.46 L 107.65 158.46 L 105.85 158.46 L 104.05 158.46 L 102.25 158.46 L 100.45 158.46 L 98.65 158.46 L 96.85 158.46 L 95.05 158.46 L 93.25 158.46 L 91.45 158.46 L 89.65 158.46 L 88.75 158.46 L 87.85 160.02 L 86.95 161.57 L 86.05 163.13 L 85.15 164.69 L 84.25 166.25 L 83.35 167.81 L 82.45 169.37 L 81.55 170.93 L 80.65 172.49 L 79.75 174.04 L 78.85 175.60 L 77.95 177.16 L 77.50 177.94 L 78.40 176.38 L 79.30 174.82 L 80.20 173.27 L 81.10 171.71 L 82.00 170.15 L 82.90 168.59 L 83.80 167.03 L 84.70 165.47 L 85.60 163.91 L 86.50 162.35 L 87.40 160.80 L 88.30 159.24 L 89.20 157.68 L 90.10 156.12 L 91.00 154.56 L 91.90 153.00 L 92.80 151.44 L 93.70 149.88 L 94.60 148.32 L 95.50 146.77 L 96.40 145.21 L 97.30 143.65 L 98.20 142.09 L 99.10 140.53 L 100.00 138.97" 
          fill="none" 
          stroke="currentColor" 
          stroke-width="0.5"/>
</svg>