<?xml version="1.0" encoding="UTF-8" standalone="no"?>
<svg width="100%" height="100%" viewBox="0 0 200 200" preserveAspectRatio="xMidYMid meet" xmlns="http://www.w3.org/2000/svg">
    <path d="M 10.00 100.00 L 10.26 100.00 L 10.00 100.00 L 10.38 99.35 L 11.35 98.91 L 11.79 98.72 L 12.36 99.05 L 13.06 98.73 L 13.64 99.07 L 14.60 98.63 L 15.39 98.27 L 15.96 98.61 L 16.93 98.17 L 17.89 97.74 L 18.77 97.34 L 18.90 96.69 L 19.86 96.25 L 19.95 96.22 L 20.08 95.57 L 21.04 95.13 L 21.13 95.09 L 21.26 94.44 L 21.61 94.28 L 21.74 93.63 L 22.09 93.47 L 22.22 92.82 L 22.57 92.66 L 22.70 92.01 L 23.05 91.85 L 23.18 91.20 L 23.53 91.05 L 23.66 90.39 L 24.01 90.24 L 24.14 89.59 L 24.84 89.27 L 24.97 88.62 L 25.67 88.30 L 25.80 87.65 L 26.76 87.22 L 27.73 86.78 L 27.90 86.70 L 28.48 87.03 L 28.83 86.88 L 29.40 87.21 L 29.97 87.54 L 30.89 88.08 L 31.80 88.61 L 32.26 88.88 L 32.84 89.21 L 33.75 89.75 L 33.98 89.88 L 34.56 90.21 L 35.26 89.90 L 35.39 89.25 L 35.59 88.21 L 35.64 87.95 L 35.21 86.98 L 35.20 86.96 L 35.33 86.31 L 34.89 85.35 L 34.88 85.33 L 35.01 84.68 L 34.79 84.18 L 34.92 83.53 L 34.70 83.04 L 34.90 82.00 L 35.08 81.09 L 35.21 80.44 L 35.34 79.79 L 35.69 79.63 L 35.82 78.98 L 36.78 78.54 L 37.75 78.11 L 38.71 77.67 L 39.68 77.24 L 40.64 76.80 L 40.73 76.76 L 40.86 76.11 L 41.82 75.67 L 41.91 75.64 L 42.04 74.98 L 42.39 74.83 L 42.52 74.18 L 42.87 74.02 L 43.00 73.37 L 43.35 73.21 L 43.48 72.56 L 43.83 72.40 L 43.96 71.75 L 44.16 70.71 L 44.21 70.45 L 45.18 70.01 L 45.27 69.97 L 45.84 70.31 L 46.28 71.27 L 46.51 71.78 L 47.08 72.12 L 47.52 73.08 L 47.95 74.05 L 48.19 74.58 L 48.06 75.23 L 48.50 76.19 L 48.93 77.16 L 48.95 77.20 L 48.82 77.85 L 49.26 78.81 L 49.27 78.83 L 49.14 79.48 L 49.57 80.45 L 49.58 80.47 L 49.45 81.12 L 49.68 81.61 L 49.55 82.26 L 49.77 82.75 L 49.64 83.40 L 49.44 84.44 L 49.39 84.71 L 49.26 85.36 L 49.05 86.39 L 48.87 87.31 L 48.74 87.96 L 48.39 88.12 L 48.19 89.16 L 48.13 89.42 L 47.78 89.58 L 47.65 90.23 L 47.30 90.39 L 47.18 91.04 L 46.82 91.19 L 46.70 91.84 L 45.99 92.16 L 45.79 93.20 L 45.74 93.46 L 45.61 94.11 L 45.48 94.76 L 45.70 95.26 L 45.57 95.91 L 45.80 96.40 L 45.67 97.05 L 46.10 98.01 L 46.54 98.98 L 46.78 99.51 L 47.35 99.84 L 47.79 100.81 L 47.80 100.83 L 48.37 101.16 L 48.59 101.66 L 49.16 101.99 L 49.39 102.48 L 50.30 103.01 L 50.53 103.15 L 50.75 103.64 L 51.33 103.98 L 51.90 104.31 L 52.82 104.84 L 53.73 105.38 L 54.65 105.91 L 55.56 106.44 L 55.91 106.65 L 56.49 106.98 L 57.40 107.51 L 58.31 108.05 L 58.78 108.32 L 59.13 108.16 L 59.70 108.49 L 60.27 108.82 L 60.63 108.67 L 61.20 109.00 L 61.77 109.33 L 62.12 109.18 L 62.70 109.51 L 63.05 109.35 L 63.62 109.68 L 63.97 109.53 L 64.54 109.86 L 65.24 109.54 L 65.82 109.88 L 66.52 109.56 L 67.09 109.89 L 67.79 109.58 L 68.37 109.91 L 69.33 109.48 L 69.42 109.44 L 69.99 109.77 L 70.69 109.45 L 71.27 109.79 L 72.23 109.35 L 72.32 109.31 L 72.89 109.65 L 73.86 109.21 L 74.82 108.77 L 75.00 108.70 L 75.20 107.66 L 75.38 106.74 L 75.51 106.09 L 75.08 105.13 L 74.64 104.16 L 74.20 103.20 L 73.96 102.65 L 74.16 101.61 L 74.34 100.70 L 74.47 100.04 L 75.44 99.61 L 75.52 99.57 L 76.10 99.90 L 76.45 99.75 L 77.02 100.08 L 77.37 99.92 L 77.94 100.25 L 78.29 100.10 L 78.87 100.43 L 79.57 100.11 L 80.14 100.45 L 80.49 100.29 L 81.07 100.62 L 81.77 100.31 L 82.34 100.64 L 83.31 100.20 L 84.10 99.85 L 84.67 100.18 L 85.63 99.75 L 86.60 99.31 L 87.12 99.07 L 87.25 98.42 L 88.22 97.99 L 89.18 97.55 L 89.36 97.47 L 89.49 96.82 L 90.45 96.39 L 91.42 95.95 L 91.59 95.87 L 91.72 95.22 L 92.68 94.78 L 93.47 94.43 L 93.60 93.78 L 94.57 93.34 L 95.36 92.99 L 95.49 92.34 L 96.45 91.90 L 97.42 91.46 L 97.59 91.38 L 97.72 90.73 L 98.68 90.30 L 99.65 89.86 L 99.82 89.78 L 99.95 89.13 L 100.92 88.70 L 101.71 88.34 L 101.83 87.69 L 102.80 87.25 L 103.59 86.90 L 103.72 86.25 L 104.68 85.81 L 105.65 85.38 L 105.82 85.30 L 105.95 84.65 L 106.92 84.21 L 107.71 83.86 L 107.83 83.20 L 108.80 82.77 L 109.59 82.41 L 109.72 81.76 L 110.68 81.33 L 111.12 81.13 L 111.25 80.48 L 112.21 80.04 L 113.00 79.69 L 113.13 79.04 L 114.10 78.60 L 114.89 78.24 L 115.01 77.59 L 115.98 77.16 L 116.77 76.80 L 116.90 76.15 L 117.86 75.71 L 118.65 75.36 L 118.78 74.71 L 119.74 74.27 L 120.71 73.84 L 120.88 73.76 L 121.01 73.11 L 121.98 72.67 L 122.42 72.47 L 122.54 71.82 L 123.51 71.39 L 124.30 71.03 L 124.43 70.38 L 125.39 69.94 L 126.18 69.59 L 126.31 68.94 L 127.27 68.50 L 128.06 68.15 L 128.19 67.49 L 129.16 67.06 L 130.12 66.62 L 130.65 66.39 L 130.78 65.74 L 131.74 65.30 L 132.71 64.86 L 132.88 64.79 L 133.01 64.14 L 133.98 63.70 L 134.94 63.26 L 135.91 62.83 L 136.52 62.55 L 136.65 61.90 L 137.61 61.46 L 138.58 61.03 L 139.54 60.59 L 140.51 60.16 L 141.47 59.72 L 142.44 59.29 L 143.40 58.85 L 144.37 58.42 L 145.33 57.98 L 146.30 57.54 L 147.26 57.11 L 148.23 56.67 L 149.19 56.24 L 150.16 55.80 L 151.12 55.37 L 151.73 55.09 L 152.31 55.42 L 153.27 54.99 L 154.24 54.55 L 154.76 54.31 L 155.33 54.65 L 156.30 54.21 L 157.26 53.78 L 157.79 53.54 L 158.36 53.87 L 159.33 53.44 L 159.77 53.24 L 160.34 53.57 L 161.31 53.14 L 161.74 52.94 L 162.32 53.27 L 163.28 52.84 L 163.37 52.80 L 163.94 53.13 L 164.91 52.70 L 164.99 52.66 L 165.57 52.99 L 166.27 52.68 L 166.84 53.01 L 167.19 52.85 L 167.77 53.18 L 168.47 52.87 L 169.04 53.20 L 169.39 53.04 L 169.96 53.38 L 170.32 53.22 L 170.89 53.55 L 171.24 53.39 L 171.81 53.73 L 172.16 53.57 L 172.74 53.90 L 173.31 54.24 L 174.22 54.77 L 175.14 55.30 L 175.60 55.57 L 176.17 55.91 L 176.75 56.24 L 177.32 56.57 L 177.89 56.91 L 178.12 57.40 L 178.69 57.73 L 178.91 58.23 L 179.48 58.56 L 179.80 58.39 L 180.08 59.42 L 180.35 60.44 L 180.37 60.53 L 179.67 60.85 L 179.47 61.88 L 179.29 62.80 L 179.16 63.45 L 178.81 63.61 L 178.68 64.26 L 178.55 64.91 L 178.42 65.56 L 178.07 65.72 L 177.86 66.76 L 177.66 67.79 L 177.56 68.32 L 177.20 68.48 L 177.08 69.13 L 176.95 69.78 L 176.60 69.94 L 176.47 70.59 L 176.34 71.24 L 175.99 71.40 L 175.78 72.44 L 175.73 72.70 L 175.38 72.86 L 175.17 73.90 L 175.12 74.16 L 174.77 74.32 L 174.64 74.97 L 174.29 75.12 L 174.16 75.78 L 174.04 76.43 L 173.69 76.58 L 173.56 77.24 L 173.21 77.39 L 173.08 78.04 L 172.73 78.20 L 172.52 79.24 L 172.47 79.50 L 172.12 79.66 L 171.99 80.31 L 171.64 80.47 L 171.51 81.12 L 171.16 81.28 L 171.03 81.93 L 170.68 82.09 L 170.55 82.74 L 169.85 83.06 L 169.72 83.71 L 169.37 83.87 L 169.24 84.52 L 168.89 84.67 L 168.76 85.32 L 168.06 85.64 L 167.93 86.29 L 167.58 86.45 L 167.45 87.10 L 166.75 87.42 L 166.62 88.07 L 165.92 88.39 L 165.79 89.04 L 164.83 89.47 L 164.74 89.51 L 164.61 90.16 L 163.91 90.48 L 163.78 91.13 L 162.82 91.57 L 162.73 91.60 L 162.60 92.26 L 161.90 92.57 L 161.77 93.22 L 160.80 93.66 L 160.37 93.86 L 160.24 94.51 L 159.27 94.94 L 158.83 95.14 L 158.71 95.79 L 157.74 96.23 L 156.95 96.58 L 156.82 97.23 L 155.86 97.67 L 154.89 98.11 L 154.37 98.34 L 154.24 98.99 L 153.27 99.43 L 152.31 99.86 L 151.34 100.30 L 150.38 100.74 L 149.41 101.17 L 148.45 101.61 L 147.48 102.04 L 146.52 102.48 L 145.55 102.91 L 144.59 103.35 L 143.62 103.79 L 142.66 104.22 L 141.69 104.66 L 140.91 105.01 L 140.33 104.68 L 139.37 105.11 L 138.40 105.55 L 137.88 105.79 L 137.31 105.45 L 136.34 105.89 L 135.38 106.32 L 135.20 106.40 L 134.63 106.07 L 133.66 106.50 L 133.22 106.70 L 132.65 106.37 L 131.69 106.80 L 131.60 106.84 L 131.03 106.51 L 130.32 106.83 L 129.75 106.49 L 128.79 106.93 L 128.70 106.97 L 128.26 106.00 L 128.25 105.98 L 128.38 105.33 L 128.51 104.68 L 128.29 104.19 L 128.42 103.54 L 128.19 103.05 L 128.32 102.40 L 127.89 101.43 L 127.45 100.47 L 127.02 99.50 L 126.58 98.54 L 126.55 98.46 L 125.63 97.93 L 125.40 97.79 L 124.83 97.46 L 124.25 97.12 L 123.90 97.28 L 123.33 96.95 L 122.36 97.38 L 121.40 97.82 L 121.22 97.90 L 121.02 98.94 L 120.97 99.20 L 120.84 99.85 L 120.71 100.50 L 120.93 100.99 L 120.80 101.64 L 121.03 102.14 L 120.90 102.79 L 121.33 103.75 L 121.34 103.77 L 121.92 104.11 L 122.14 104.60 L 123.05 105.13 L 123.97 105.66 L 124.43 105.93 L 124.78 105.77 L 125.35 106.11 L 125.70 105.95 L 126.28 106.28 L 126.63 106.13 L 127.54 106.66 L 127.77 106.79 L 128.21 107.76 L 128.44 108.27 L 128.31 108.92 L 128.54 109.41 L 128.33 110.45 L 128.15 111.36 L 128.02 112.02 L 128.24 112.51 L 128.04 113.55 L 127.99 113.81 L 127.86 114.46 L 127.73 115.11 L 127.95 115.60 L 127.74 116.64 L 127.56 117.55 L 127.79 118.05 L 127.66 118.70 L 127.88 119.19 L 127.75 119.84 L 127.97 120.33 L 127.85 120.98 L 128.28 121.95 L 128.51 122.46 L 128.38 123.11 L 128.82 124.08 L 129.26 125.04 L 129.69 126.00 L 129.72 126.06 L 130.29 126.40 L 130.51 126.89 L 131.09 127.22 L 131.31 127.71 L 132.22 128.25 L 133.03 128.72 L 133.60 129.05 L 134.51 129.58 L 135.32 130.05 L 135.67 129.89 L 136.24 130.23 L 136.82 130.56 L 137.17 130.40 L 137.74 130.74 L 138.09 130.58 L 138.66 130.91 L 139.01 130.75 L 139.59 131.09 L 139.94 130.93 L 140.51 131.26 L 141.21 130.95 L 142.13 131.48 L 142.36 131.61 L 142.71 131.46 L 143.28 131.79 L 143.86 132.12 L 144.43 132.46 L 145.00 132.79 L 145.58 133.13 L 145.80 133.62 L 146.37 133.95 L 146.59 134.44 L 147.17 134.78 L 147.60 135.74 L 148.04 136.71 L 148.47 137.67 L 148.72 138.22 L 148.59 138.87 L 149.03 139.84 L 149.04 139.86 L 148.91 140.51 L 149.13 141.00 L 148.93 142.04 L 148.75 142.95 L 148.62 143.60 L 148.49 144.25 L 148.36 144.90 L 148.15 145.94 L 147.95 146.98 L 147.84 147.51 L 147.49 147.67 L 147.29 148.70 L 147.24 148.97 L 147.11 149.62 L 146.76 149.78 L 146.63 150.43 L 146.28 150.58 L 146.15 151.23 L 146.02 151.89 L 145.67 152.04 L 145.54 152.69 L 145.19 152.85 L 145.06 153.50 L 144.71 153.66 L 144.58 154.31 L 143.88 154.63 L 143.75 155.28 L 143.40 155.44 L 143.27 156.09 L 142.31 156.53 L 141.87 156.72 L 141.74 157.37 L 140.78 157.81 L 140.69 157.85 L 140.56 158.50 L 139.59 158.93 L 138.63 159.37 L 137.66 159.81 L 136.70 160.24 L 136.00 160.56 L 135.43 160.22 L 134.46 160.66 L 133.50 161.10 L 133.32 161.17 L 132.75 160.84 L 131.78 161.28 L 131.70 161.32 L 131.12 160.98 L 130.16 161.42 L 130.07 161.46 L 129.50 161.12 L 128.80 161.44 L 128.22 161.11 L 127.52 161.42 L 126.95 161.09 L 126.25 161.41 L 125.67 161.07 L 125.32 161.23 L 124.75 160.90 L 124.40 161.06 L 123.83 160.72 L 123.47 160.88 L 122.90 160.55 L 122.55 160.70 L 121.98 160.37 L 121.40 160.04 L 120.97 159.07 L 120.96 159.05 L 121.17 158.01 L 121.22 157.75 L 122.18 157.32 L 122.27 157.28 L 122.40 156.63 L 123.36 156.19 L 124.33 155.75 L 125.29 155.32 L 126.26 154.88 L 126.39 154.23 L 127.35 153.80 L 128.14 153.44 L 128.27 152.79 L 129.23 152.35 L 129.32 152.31 L 129.45 151.66 L 130.15 151.35 L 130.28 150.70 L 130.98 150.38 L 131.11 149.73 L 131.46 149.57 L 131.59 148.92 L 131.94 148.76 L 132.07 148.11 L 132.42 147.95 L 132.55 147.30 L 132.90 147.14 L 133.03 146.49 L 133.16 145.84 L 133.51 145.68 L 133.71 144.65 L 133.92 143.61 L 134.12 142.57 L 134.15 142.43 L 134.28 141.78 L 134.48 140.74 L 134.66 139.83 L 134.79 139.18 L 134.92 138.53 L 134.49 137.56 L 134.26 137.05 L 133.68 136.72 L 133.11 136.38 L 132.54 136.05 L 131.57 136.48 L 131.48 136.52 L 131.36 137.17 L 130.39 137.61 L 129.42 138.05 L 128.90 138.28 L 128.77 138.93 L 127.81 139.37 L 126.84 139.80 L 126.31 140.04 L 126.19 140.69 L 125.22 141.13 L 124.26 141.56 L 123.29 142.00 L 122.33 142.44 L 121.36 142.87 L 120.40 143.31 L 119.43 143.74 L 118.47 144.18 L 117.50 144.61 L 117.06 144.81 L 116.49 144.48 L 115.53 144.91 L 114.56 145.35 L 113.69 145.74 L 113.11 145.41 L 112.15 145.85 L 111.36 146.20 L 110.78 145.87 L 109.82 146.30 L 109.38 146.50 L 108.81 146.17 L 107.84 146.60 L 107.76 146.64 L 107.18 146.31 L 106.22 146.75 L 106.13 146.79 L 105.56 146.45 L 104.59 146.89 L 104.51 146.93 L 103.93 146.59 L 103.23 146.91 L 102.66 146.57 L 101.96 146.89 L 101.38 146.56 L 100.68 146.88 L 100.11 146.54 L 99.41 146.86 L 98.83 146.52 L 98.13 146.84 L 97.56 146.51 L 97.21 146.67 L 96.64 146.33 L 95.93 146.65 L 95.36 146.31 L 95.01 146.47 L 94.44 146.14 L 94.09 146.30 L 93.51 145.96 L 93.16 146.12 L 92.59 145.79 L 91.89 146.11 L 90.97 145.57 L 90.74 145.44 L 90.39 145.60 L 89.82 145.26 L 89.47 145.42 L 88.89 145.09 L 88.54 145.24 L 87.97 144.91 L 87.62 145.07 L 87.05 144.74 L 86.69 144.89 L 85.78 144.36 L 85.55 144.23 L 85.20 144.38 L 84.28 143.85 L 84.05 143.72 L 83.70 143.88 L 82.79 143.34 L 82.55 143.21 L 82.20 143.37 L 81.63 143.03 L 81.06 142.70 L 80.14 142.17 L 79.91 142.03 L 79.56 142.19 L 78.65 141.66 L 77.84 141.19 L 77.27 140.85 L 76.35 140.32 L 75.44 139.79 L 74.52 139.25 L 73.83 138.85 L 73.26 138.52 L 72.34 137.98 L 71.43 137.45 L 70.51 136.92 L 69.60 136.38 L 69.25 136.18 L 68.67 135.85 L 67.76 135.31 L 66.95 134.84 L 66.73 134.35 L 65.82 133.82 L 65.59 133.68 L 65.01 133.35 L 64.79 132.86 L 64.22 132.52 L 63.64 132.19 L 63.42 131.70 L 62.51 131.17 L 62.28 131.03 L 62.05 130.54 L 61.48 130.20 L 60.91 129.87 L 60.68 129.38 L 60.11 129.04 L 59.76 129.20 L 59.33 128.24 L 58.89 127.27 L 58.45 126.31 L 58.21 125.76 L 58.33 125.11 L 57.90 124.14 L 57.46 123.18 L 57.03 122.21 L 56.59 121.25 L 56.16 120.28 L 56.11 120.18 L 55.54 119.85 L 55.10 118.89 L 54.87 118.37 L 54.30 118.04 L 53.86 117.08 L 53.85 117.06 L 53.28 116.72 L 52.85 115.76 L 52.84 115.74 L 52.26 115.40 L 52.04 114.91 L 51.47 114.58 L 51.25 114.09 L 50.67 113.75 L 50.45 113.26 L 49.88 112.93 L 49.30 112.59 L 49.08 112.10 L 48.17 111.57 L 47.94 111.43 L 47.71 110.94 L 47.14 110.61 L 46.23 110.07 L 45.31 109.54 L 44.40 109.01 L 44.28 108.94 L 43.93 109.10 L 43.80 109.75 L 44.23 110.71 L 44.67 111.68 L 44.69 111.71 L 45.26 112.05 L 45.69 113.01 L 45.70 113.03 L 46.28 113.37 L 46.71 114.33 L 46.94 114.84 L 47.52 115.18 L 47.95 116.14 L 47.96 116.16 L 48.53 116.50 L 48.76 116.99 L 49.33 117.32 L 49.76 118.29 L 49.77 118.31 L 50.35 118.64 L 50.57 119.13 L 51.14 119.47 L 51.36 119.96 L 51.94 120.29 L 52.16 120.78 L 52.73 121.12 L 53.17 122.08 L 53.18 122.10 L 53.75 122.44 L 53.97 122.93 L 54.55 123.26 L 54.77 123.75 L 55.34 124.09 L 55.56 124.58 L 56.48 125.11 L 56.71 125.25 L 56.93 125.74 L 57.50 126.07 L 57.73 126.57 L 58.30 126.90 L 58.65 126.74 L 58.30 126.90 L 57.73 126.57 L 57.50 126.07 L 56.93 125.74 L 56.71 125.25 L 55.79 124.72 L 55.56 124.58 L 55.34 124.09 L 54.77 123.75 L 54.55 123.26 L 53.97 122.93 L 53.75 122.44 L 53.18 122.10 L 52.74 121.14 L 52.73 121.12 L 52.16 120.78 L 51.94 120.29 L 51.36 119.96 L 51.14 119.47 L 50.57 119.13 L 50.35 118.64 L 49.77 118.31 L 49.34 117.34 L 49.33 117.32 L 48.76 116.99 L 48.53 116.50 L 47.96 116.16 L 47.53 115.20 L 47.52 115.18 L 46.94 114.84 L 46.51 113.88 L 46.28 113.37 L 45.70 113.03 L 45.27 112.07 L 45.26 112.05 L 44.69 111.71 L 44.25 110.75 L 43.81 109.78 L 43.80 109.75 L 43.93 109.10 L 44.28 108.94 L 45.19 109.47 L 46.11 110.00 L 47.02 110.54 L 47.14 110.61 L 47.71 110.94 L 47.94 111.43 L 48.85 111.97 L 49.08 112.10 L 49.30 112.59 L 49.88 112.93 L 50.45 113.26 L 50.67 113.75 L 51.25 114.09 L 51.47 114.58 L 52.04 114.91 L 52.26 115.40 L 52.84 115.74 L 53.27 116.70 L 53.28 116.72 L 53.85 117.06 L 54.29 118.02 L 54.30 118.04 L 54.87 118.37 L 55.31 119.34 L 55.54 119.85 L 56.11 120.18 L 56.55 121.15 L 56.98 122.12 L 57.42 123.08 L 57.85 124.05 L 58.29 125.01 L 58.33 125.11 L 58.21 125.76 L 58.64 126.72 L 59.08 127.69 L 59.51 128.65 L 59.76 129.20 L 59.41 129.36 L 59.28 130.01 L 59.50 130.50 L 59.38 131.15 L 59.81 132.12 L 59.82 132.14 L 59.38 131.17 L 59.38 131.15 L 59.50 130.50 L 59.28 130.01 L 59.41 129.36 L 60.11 129.04 L 60.68 129.38 L 60.91 129.87 L 61.48 130.20 L 62.05 130.54 L 62.28 131.03 L 63.19 131.56 L 63.42 131.70 L 63.64 132.19 L 64.22 132.52 L 64.79 132.86 L 65.01 133.35 L 65.59 133.68 L 66.50 134.22 L 66.73 134.35 L 66.95 134.84 L 67.87 135.38 L 68.67 135.85 L 69.25 136.18 L 70.16 136.71 L 71.08 137.25 L 71.99 137.78 L 72.91 138.31 L 73.26 138.52 L 73.83 138.85 L 74.75 139.38 L 75.66 139.92 L 76.58 140.45 L 77.27 140.85 L 77.84 141.19 L 78.76 141.72 L 79.56 142.19 L 79.91 142.03 L 80.83 142.56 L 81.06 142.70 L 81.63 143.03 L 82.20 143.37 L 82.55 143.21 L 83.47 143.74 L 83.70 143.88 L 84.05 143.72 L 84.97 144.25 L 85.20 144.38 L 85.55 144.23 L 86.46 144.76 L 86.69 144.89 L 87.05 144.74 L 87.62 145.07 L 87.97 144.91 L 88.54 145.24 L 88.89 145.09 L 89.47 145.42 L 89.82 145.26 L 90.39 145.60 L 90.74 145.44 L 91.66 145.97 L 91.89 146.11 L 92.59 145.79 L 93.16 146.12 L 93.51 145.96 L 94.09 146.30 L 94.44 146.14 L 95.01 146.47 L 95.36 146.31 L 95.93 146.65 L 96.64 146.33 L 97.21 146.67 L 97.56 146.51 L 98.13 146.84 L 98.83 146.52 L 99.41 146.86 L 100.11 146.54 L 100.68 146.88 L 101.38 146.56 L 101.96 146.89 L 102.66 146.57 L 103.23 146.91 L 103.93 146.59 L 104.51 146.93 L 105.47 146.49 L 105.56 146.45 L 106.13 146.79 L 107.10 146.35 L 107.18 146.31 L 107.76 146.64 L 108.72 146.21 L 108.81 146.17 L 109.38 146.50 L 110.35 146.07 L 110.78 145.87 L 111.36 146.20 L 112.32 145.77 L 113.11 145.41 L 113.69 145.74 L 114.65 145.31 L 115.62 144.87 L 116.49 144.48 L 117.06 144.81 L 118.03 144.38 L 118.99 143.94 L 119.96 143.50 L 120.92 143.07 L 121.89 142.63 L 122.85 142.20 L 123.82 141.76 L 124.79 141.33 L 125.75 140.89 L 126.19 140.69 L 126.31 140.04 L 127.28 139.61 L 128.24 139.17 L 128.77 138.93 L 128.90 138.28 L 129.86 137.85 L 130.83 137.41 L 131.36 137.17 L 131.48 136.52 L 132.45 136.09 L 132.54 136.05 L 133.11 136.38 L 133.68 136.72 L 134.26 137.05 L 134.69 138.02 L 134.92 138.53 L 134.79 139.18 L 134.66 139.83 L 134.46 140.87 L 134.28 141.78 L 134.15 142.43 L 133.94 143.47 L 133.74 144.51 L 133.53 145.55 L 133.51 145.68 L 133.16 145.84 L 133.03 146.49 L 132.90 147.14 L 132.55 147.30 L 132.42 147.95 L 132.07 148.11 L 131.94 148.76 L 131.59 148.92 L 131.46 149.57 L 131.11 149.73 L 130.98 150.38 L 130.28 150.70 L 130.15 151.35 L 129.45 151.66 L 129.32 152.31 L 128.36 152.75 L 128.27 152.79 L 128.14 153.44 L 127.17 153.88 L 126.39 154.23 L 126.26 154.88 L 125.29 155.32 L 124.33 155.75 L 123.36 156.19 L 122.40 156.63 L 122.27 157.28 L 121.30 157.71 L 121.22 157.75 L 121.01 158.79 L 120.83 159.70 L 120.96 159.05 L 121.18 159.54 L 120.83 159.70 L 121.18 159.54 L 121.40 160.04 L 121.98 160.37 L 122.55 160.70 L 122.90 160.55 L 123.47 160.88 L 123.83 160.72 L 124.40 161.06 L 124.75 160.90 L 125.32 161.23 L 125.67 161.07 L 126.25 161.41 L 126.95 161.09 L 127.52 161.42 L 128.22 161.11 L 128.80 161.44 L 129.50 161.12 L 130.07 161.46 L 131.04 161.02 L 131.12 160.98 L 131.70 161.32 L 132.66 160.88 L 132.75 160.84 L 133.32 161.17 L 134.29 160.74 L 135.25 160.30 L 135.43 160.22 L 136.00 160.56 L 136.96 160.12 L 137.93 159.69 L 138.89 159.25 L 139.86 158.82 L 140.56 158.50 L 140.69 157.85 L 141.65 157.41 L 141.74 157.37 L 141.87 156.72 L 142.83 156.29 L 143.27 156.09 L 143.40 155.44 L 143.75 155.28 L 143.88 154.63 L 144.58 154.31 L 144.71 153.66 L 145.06 153.50 L 145.19 152.85 L 145.54 152.69 L 145.67 152.04 L 146.02 151.89 L 146.15 151.23 L 146.28 150.58 L 146.63 150.43 L 146.76 149.78 L 147.11 149.62 L 147.24 148.97 L 147.44 147.93 L 147.49 147.67 L 147.84 147.51 L 148.05 146.47 L 148.26 145.43 L 148.36 144.90 L 148.49 144.25 L 148.62 143.60 L 148.75 142.95 L 148.95 141.91 L 149.13 141.00 L 148.91 140.51 L 149.04 139.86 L 148.60 138.89 L 148.59 138.87 L 148.72 138.22 L 148.29 137.26 L 147.85 136.29 L 147.41 135.33 L 147.17 134.78 L 146.59 134.44 L 146.37 133.95 L 145.80 133.62 L 145.58 133.13 L 145.00 132.79 L 144.43 132.46 L 143.86 132.12 L 143.28 131.79 L 142.71 131.46 L 142.36 131.61 L 141.44 131.08 L 141.21 130.95 L 140.51 131.26 L 139.94 130.93 L 139.59 131.09 L 139.01 130.75 L 138.66 130.91 L 138.09 130.58 L 137.74 130.74 L 137.17 130.40 L 136.82 130.56 L 136.24 130.23 L 135.67 129.89 L 135.32 130.05 L 134.40 129.52 L 133.60 129.05 L 133.03 128.72 L 132.11 128.18 L 131.31 127.71 L 131.09 127.22 L 130.51 126.89 L 130.29 126.40 L 129.72 126.06 L 129.28 125.10 L 128.85 124.13 L 128.41 123.17 L 128.38 123.11 L 128.51 122.46 L 128.08 121.49 L 127.85 120.98 L 127.97 120.33 L 127.75 119.84 L 127.88 119.19 L 127.66 118.70 L 127.79 118.05 L 127.56 117.55 L 127.77 116.52 L 127.95 115.60 L 127.73 115.11 L 127.86 114.46 L 127.99 113.81 L 128.19 112.77 L 128.24 112.51 L 128.02 112.02 L 128.15 111.36 L 128.35 110.33 L 128.54 109.41 L 128.31 108.92 L 128.44 108.27 L 128.01 107.30 L 128.00 107.29 L 128.35 107.13 L 128.00 107.29 L 127.77 106.79 L 126.86 106.26 L 126.63 106.13 L 126.28 106.28 L 125.70 105.95 L 125.35 106.11 L 124.78 105.77 L 124.43 105.93 L 123.51 105.40 L 122.60 104.87 L 122.14 104.60 L 121.92 104.11 L 121.34 103.77 L 120.91 102.81 L 120.90 102.79 L 121.03 102.14 L 120.80 101.64 L 120.93 100.99 L 120.71 100.50 L 120.84 99.85 L 120.97 99.20 L 121.17 98.16 L 121.22 97.90 L 122.19 97.46 L 123.16 97.03 L 123.33 96.95 L 123.90 97.28 L 124.25 97.12 L 124.83 97.46 L 125.40 97.79 L 126.31 98.32 L 126.55 98.46 L 126.98 99.42 L 127.42 100.39 L 127.85 101.35 L 128.29 102.32 L 128.32 102.40 L 128.19 103.05 L 128.42 103.54 L 128.29 104.19 L 128.51 104.68 L 128.38 105.33 L 128.25 105.98 L 128.48 106.48 L 127.77 106.79 L 128.48 106.48 L 128.70 106.97 L 128.13 106.63 L 128.70 106.97 L 129.66 106.53 L 129.75 106.49 L 130.32 106.83 L 131.03 106.51 L 131.60 106.84 L 132.56 106.41 L 132.65 106.37 L 133.22 106.70 L 134.19 106.27 L 134.63 106.07 L 135.20 106.40 L 136.17 105.97 L 137.13 105.53 L 137.31 105.45 L 137.88 105.79 L 138.84 105.35 L 139.81 104.92 L 140.33 104.68 L 140.91 105.01 L 141.87 104.58 L 142.84 104.14 L 143.80 103.70 L 144.77 103.27 L 145.73 102.83 L 146.70 102.40 L 147.66 101.96 L 148.63 101.53 L 149.59 101.09 L 150.56 100.66 L 151.52 100.22 L 152.49 99.78 L 153.45 99.35 L 154.24 98.99 L 154.37 98.34 L 155.33 97.91 L 156.30 97.47 L 156.82 97.23 L 156.95 96.58 L 157.92 96.15 L 158.71 95.79 L 158.83 95.14 L 159.80 94.70 L 160.24 94.51 L 160.37 93.86 L 161.33 93.42 L 161.77 93.22 L 161.90 92.57 L 162.60 92.26 L 162.73 91.60 L 163.69 91.17 L 163.78 91.13 L 163.91 90.48 L 164.61 90.16 L 164.74 89.51 L 165.70 89.08 L 165.79 89.04 L 165.92 88.39 L 166.62 88.07 L 166.75 87.42 L 167.45 87.10 L 167.58 86.45 L 167.93 86.29 L 168.06 85.64 L 168.76 85.32 L 168.89 84.67 L 169.24 84.52 L 169.37 83.87 L 169.72 83.71 L 169.85 83.06 L 170.55 82.74 L 170.68 82.09 L 171.03 81.93 L 171.16 81.28 L 171.51 81.12 L 171.64 80.47 L 171.99 80.31 L 172.12 79.66 L 172.47 79.50 L 172.67 78.47 L 172.73 78.20 L 173.08 78.04 L 173.21 77.39 L 173.56 77.24 L 173.69 76.58 L 174.04 76.43 L 174.16 75.78 L 174.29 75.12 L 174.64 74.97 L 174.77 74.32 L 175.12 74.16 L 175.33 73.12 L 175.38 72.86 L 175.73 72.70 L 175.94 71.66 L 175.99 71.40 L 176.34 71.24 L 176.47 70.59 L 176.60 69.94 L 176.95 69.78 L 177.08 69.13 L 177.20 68.48 L 177.56 68.32 L 177.76 67.28 L 177.97 66.24 L 178.07 65.72 L 178.42 65.56 L 178.55 64.91 L 178.68 64.26 L 178.81 63.61 L 179.16 63.45 L 179.29 62.80 L 179.49 61.76 L 179.67 60.85 L 180.37 60.53 L 180.78 60.33 L 181.23 61.29 L 181.67 62.25 L 182.11 63.21 L 182.56 64.17 L 182.63 64.34 L 182.83 65.38 L 183.04 66.42 L 183.04 66.44 L 182.91 67.09 L 183.35 68.05 L 183.36 68.07 L 183.23 68.72 L 183.45 69.21 L 183.32 69.86 L 183.76 70.83 L 183.76 70.85 L 183.64 71.50 L 183.86 71.99 L 183.73 72.64 L 183.95 73.13 L 183.82 73.79 L 183.70 74.44 L 183.92 74.93 L 183.79 75.58 L 184.01 76.07 L 183.81 77.11 L 183.75 77.37 L 183.98 77.86 L 183.77 78.90 L 183.59 79.82 L 183.81 80.31 L 183.61 81.35 L 183.40 82.39 L 183.30 82.91 L 183.52 83.40 L 183.39 84.05 L 183.26 84.70 L 183.13 85.35 L 182.93 86.39 L 182.72 87.43 L 182.52 88.47 L 182.36 89.26 L 182.23 89.91 L 182.03 90.95 L 181.82 91.99 L 181.62 93.03 L 181.59 93.16 L 181.24 93.32 L 181.11 93.97 L 180.98 94.62 L 180.78 95.66 L 180.73 95.92 L 180.38 96.08 L 180.17 97.12 L 180.12 97.38 L 179.77 97.54 L 179.56 98.58 L 179.51 98.84 L 179.16 99.00 L 179.03 99.65 L 178.90 100.30 L 178.55 100.46 L 178.42 101.11 L 178.07 101.27 L 177.94 101.92 L 177.59 102.08 L 177.46 102.73 L 177.11 102.89 L 176.98 103.54 L 176.63 103.70 L 176.51 104.35 L 176.15 104.51 L 176.03 105.16 L 175.67 105.31 L 175.55 105.97 L 175.20 106.12 L 175.07 106.77 L 174.72 106.93 L 174.59 107.58 L 173.89 107.90 L 173.76 108.55 L 173.41 108.71 L 173.28 109.36 L 172.58 109.68 L 172.45 110.33 L 171.75 110.64 L 171.62 111.29 L 170.92 111.61 L 170.79 112.26 L 170.09 112.58 L 169.96 113.23 L 168.99 113.67 L 168.90 113.70 L 168.78 114.35 L 167.81 114.79 L 167.72 114.83 L 167.59 115.48 L 166.63 115.92 L 166.54 115.96 L 166.41 116.61 L 165.45 117.04 L 165.36 117.08 L 165.23 117.73 L 164.27 118.17 L 163.48 118.52 L 163.35 119.17 L 162.38 119.61 L 161.60 119.97 L 161.47 120.62 L 160.50 121.05 L 159.54 121.49 L 159.36 121.57 L 159.23 122.22 L 158.27 122.65 L 157.30 123.09 L 156.34 123.53 L 155.37 123.96 L 155.25 124.61 L 154.28 125.05 L 153.32 125.48 L 152.35 125.92 L 151.39 126.35 L 150.42 126.79 L 149.98 126.99 L 149.41 126.65 L 149.98 126.99 L 150.95 126.55 L 151.91 126.12 L 152.88 125.68 L 153.84 125.24 L 154.81 124.81 L 155.25 124.61 L 155.37 123.96 L 156.34 123.52 L 157.30 123.09 L 158.27 122.65 L 159.23 122.22 L 159.36 121.57 L 160.33 121.13 L 161.29 120.70 L 161.47 120.62 L 161.60 119.97 L 162.56 119.53 L 163.35 119.17 L 163.48 118.52 L 164.44 118.09 L 165.23 117.73 L 165.36 117.08 L 166.33 116.65 L 166.41 116.61 L 166.54 115.96 L 167.51 115.52 L 167.59 115.48 L 167.72 114.83 L 168.69 114.39 L 168.78 114.35 L 168.90 113.70 L 169.87 113.27 L 169.96 113.23 L 170.09 112.58 L 170.79 112.26 L 170.92 111.61 L 171.62 111.29 L 171.75 110.64 L 172.45 110.33 L 172.58 109.68 L 173.28 109.36 L 173.41 108.71 L 173.76 108.55 L 173.89 107.90 L 174.59 107.58 L 174.72 106.93 L 175.07 106.77 L 175.20 106.12 L 175.55 105.97 L 175.67 105.31 L 176.03 105.16 L 176.15 104.51 L 176.51 104.35 L 176.63 103.70 L 176.98 103.54 L 177.11 102.89 L 177.46 102.73 L 177.59 102.08 L 177.94 101.92 L 178.07 101.27 L 178.42 101.11 L 178.55 100.46 L 178.90 100.30 L 179.03 99.65 L 179.16 99.00 L 179.51 98.84 L 179.72 97.80 L 179.77 97.54 L 180.12 97.38 L 180.32 96.34 L 180.38 96.08 L 180.73 95.92 L 180.93 94.88 L 180.98 94.62 L 181.11 93.97 L 181.24 93.32 L 181.59 93.16 L 181.80 92.12 L 182.00 91.08 L 182.21 90.05 L 182.23 89.91 L 182.36 89.26 L 182.57 88.22 L 182.77 87.18 L 182.98 86.14 L 183.13 85.35 L 183.26 84.70 L 183.39 84.05 L 183.52 83.40 L 183.30 82.91 L 183.50 81.87 L 183.71 80.83 L 183.81 80.31 L 183.59 79.82 L 183.80 78.78 L 183.98 77.86 L 183.75 77.37 L 183.96 76.33 L 184.01 76.07 L 183.79 75.58 L 183.92 74.93 L 183.70 74.44 L 183.82 73.79 L 183.95 73.13 L 183.73 72.64 L 183.86 71.99 L 183.64 71.50 L 183.76 70.85 L 183.33 69.88 L 183.32 69.86 L 183.45 69.21 L 183.23 68.72 L 183.36 68.07 L 182.92 67.11 L 182.91 67.09 L 183.04 66.44 L 183.44 66.27 L 182.83 65.41 L 182.21 64.55 L 182.15 64.47 L 181.45 64.78 L 181.24 65.82 L 181.06 66.74 L 180.93 67.39 L 180.81 68.04 L 180.60 69.08 L 180.39 70.11 L 180.19 71.15 L 179.98 72.19 L 179.91 72.59 L 179.78 73.24 L 179.57 74.28 L 179.37 75.32 L 179.26 75.84 L 179.13 76.49 L 179.01 77.15 L 178.88 77.80 L 178.75 78.45 L 178.40 78.61 L 178.19 79.64 L 177.99 80.68 L 177.78 81.72 L 177.76 81.86 L 177.40 82.02 L 177.28 82.67 L 177.15 83.32 L 176.94 84.36 L 176.89 84.62 L 176.54 84.78 L 176.33 85.82 L 176.15 86.73 L 175.80 86.89 L 175.67 87.54 L 175.55 88.19 L 175.34 89.23 L 175.29 89.49 L 174.94 89.65 L 174.73 90.69 L 174.68 90.95 L 174.33 91.11 L 174.20 91.76 L 174.07 92.41 L 173.72 92.57 L 173.59 93.22 L 173.46 93.87 L 173.11 94.03 L 172.91 95.07 L 172.86 95.33 L 172.50 95.49 L 172.38 96.14 L 172.03 96.30 L 171.82 97.33 L 171.77 97.60 L 171.42 97.76 L 171.29 98.41 L 170.94 98.56 L 170.81 99.22 L 170.46 99.37 L 170.25 100.41 L 170.20 100.68 L 169.85 100.83 L 169.72 101.48 L 169.37 101.64 L 169.24 102.29 L 168.89 102.45 L 168.76 103.10 L 168.41 103.26 L 168.28 103.91 L 167.93 104.07 L 167.80 104.72 L 167.45 104.88 L 167.32 105.53 L 166.97 105.69 L 166.85 106.34 L 166.49 106.50 L 166.37 107.15 L 166.02 107.30 L 165.89 107.96 L 165.54 108.11 L 165.41 108.76 L 164.71 109.08 L 164.58 109.73 L 164.23 109.89 L 164.10 110.54 L 163.75 110.70 L 163.62 111.35 L 162.92 111.67 L 162.79 112.32 L 162.44 112.48 L 162.31 113.13 L 161.61 113.44 L 161.48 114.09 L 161.13 114.25 L 161.00 114.90 L 160.30 115.22 L 160.17 115.87 L 159.47 116.19 L 159.34 116.84 L 158.64 117.15 L 158.51 117.81 L 157.54 118.24 L 157.46 118.28 L 157.33 118.93 L 156.63 119.25 L 156.50 119.90 L 155.53 120.33 L 155.44 120.37 L 155.32 121.02 L 154.35 121.46 L 153.91 121.66 L 153.78 122.31 L 152.82 122.74 L 152.38 122.94 L 152.25 123.59 L 151.29 124.03 L 150.50 124.38 L 150.37 125.03 L 149.40 125.47 L 149.32 125.51 L 149.19 126.16 L 149.41 126.65 L 148.45 127.09 L 147.48 127.52 L 146.95 127.76 L 147.92 127.33 L 148.88 126.89 L 149.41 126.65 L 149.19 126.16 L 149.32 125.51 L 150.28 125.07 L 150.37 125.03 L 150.50 124.38 L 151.46 123.95 L 152.25 123.59 L 152.38 122.94 L 153.35 122.51 L 153.78 122.31 L 153.91 121.66 L 154.88 121.22 L 155.32 121.02 L 155.44 120.37 L 156.41 119.94 L 156.50 119.90 L 156.63 119.25 L 157.33 118.93 L 157.46 118.28 L 158.42 117.84 L 158.51 117.81 L 158.64 117.15 L 159.34 116.84 L 159.47 116.19 L 160.17 115.87 L 160.30 115.22 L 161.00 114.90 L 161.13 114.25 L 161.48 114.09 L 161.61 113.44 L 162.31 113.13 L 162.44 112.48 L 162.79 112.32 L 162.92 111.67 L 163.62 111.35 L 163.75 110.70 L 164.10 110.54 L 164.23 109.89 L 164.58 109.73 L 164.71 109.08 L 165.41 108.76 L 165.54 108.11 L 165.89 107.96 L 166.02 107.30 L 166.37 107.15 L 166.49 106.50 L 166.85 106.34 L 166.97 105.69 L 167.32 105.53 L 167.45 104.88 L 167.80 104.72 L 167.93 104.07 L 168.28 103.91 L 168.41 103.26 L 168.76 103.10 L 168.89 102.45 L 169.24 102.29 L 169.37 101.64 L 169.72 101.48 L 169.85 100.83 L 170.20 100.68 L 170.41 99.64 L 170.46 99.37 L 170.81 99.22 L 170.94 98.56 L 171.29 98.41 L 171.42 97.76 L 171.77 97.60 L 171.97 96.56 L 172.03 96.30 L 172.38 96.14 L 172.50 95.49 L 172.86 95.33 L 173.06 94.29 L 173.11 94.03 L 173.46 93.87 L 173.59 93.22 L 173.72 92.57 L 174.07 92.41 L 174.20 91.76 L 174.33 91.11 L 174.68 90.95 L 174.89 89.91 L 174.94 89.65 L 175.29 89.49 L 175.49 88.45 L 175.55 88.19 L 175.67 87.54 L 175.80 86.89 L 176.15 86.73 L 176.36 85.69 L 176.54 84.78 L 176.89 84.62 L 177.10 83.58 L 177.15 83.32 L 177.28 82.67 L 177.40 82.02 L 177.76 81.86 L 177.96 80.82 L 178.17 79.78 L 178.37 78.74 L 178.40 78.61 L 178.75 78.45 L 178.88 77.80 L 179.01 77.15 L 179.13 76.49 L 179.26 75.84 L 179.47 74.81 L 179.67 73.77 L 179.78 73.24 L 179.91 72.59 L 180.11 71.55 L 180.32 70.51 L 180.52 69.47 L 180.73 68.44 L 180.81 68.04 L 180.93 67.39 L 181.06 66.74 L 181.27 65.70 L 181.45 64.78 L 182.15 64.47 L 182.60 64.27 L 182.16 63.31 L 181.72 62.35 L 181.27 61.39 L 180.83 60.43 L 180.75 60.26 L 180.12 59.41 L 179.49 58.56 L 179.48 58.56 L 178.91 58.23 L 178.69 57.73 L 178.12 57.40 L 177.89 56.91 L 177.32 56.57 L 176.75 56.24 L 176.17 55.91 L 175.60 55.57 L 174.69 55.04 L 173.77 54.51 L 173.31 54.24 L 172.74 53.90 L 172.16 53.57 L 171.81 53.73 L 171.24 53.39 L 170.89 53.55 L 170.32 53.22 L 169.96 53.38 L 169.39 53.04 L 169.04 53.20 L 168.47 52.87 L 167.77 53.18 L 167.19 52.85 L 166.84 53.01 L 166.27 52.68 L 165.57 52.99 L 164.99 52.66 L 164.03 53.09 L 163.94 53.13 L 163.37 52.80 L 162.40 53.23 L 162.32 53.27 L 161.74 52.94 L 160.78 53.38 L 160.34 53.57 L 159.77 53.24 L 158.80 53.68 L 158.36 53.87 L 157.79 53.54 L 156.83 53.98 L 155.86 54.41 L 155.33 54.65 L 154.76 54.31 L 153.80 54.75 L 152.83 55.19 L 152.31 55.42 L 151.73 55.09 L 150.77 55.53 L 149.80 55.96 L 148.84 56.40 L 147.87 56.83 L 146.91 57.27 L 145.94 57.70 L 144.98 58.14 L 144.01 58.58 L 143.05 59.01 L 142.08 59.45 L 141.12 59.88 L 140.15 60.32 L 139.19 60.75 L 138.22 61.19 L 137.26 61.62 L 136.65 61.90 L 136.52 62.55 L 135.55 62.99 L 134.59 63.42 L 133.62 63.86 L 133.01 64.14 L 132.88 64.79 L 131.92 65.22 L 130.95 65.66 L 130.78 65.74 L 130.65 66.39 L 129.68 66.82 L 128.72 67.26 L 128.19 67.49 L 128.06 68.15 L 127.10 68.58 L 126.31 68.94 L 126.18 69.59 L 125.22 70.02 L 124.43 70.38 L 124.30 71.03 L 123.33 71.47 L 122.54 71.82 L 122.42 72.47 L 121.45 72.91 L 121.01 73.11 L 120.88 73.76 L 119.92 74.19 L 118.95 74.63 L 118.78 74.71 L 118.65 75.36 L 117.69 75.79 L 116.90 76.15 L 116.77 76.80 L 115.80 77.24 L 115.01 77.59 L 114.89 78.24 L 113.92 78.68 L 113.13 79.04 L 113.00 79.69 L 112.04 80.12 L 111.25 80.48 L 111.12 81.13 L 110.15 81.56 L 109.72 81.76 L 109.59 82.41 L 108.62 82.85 L 107.83 83.20 L 107.71 83.86 L 106.74 84.29 L 105.95 84.65 L 105.82 85.30 L 104.86 85.73 L 103.89 86.17 L 103.72 86.25 L 103.59 86.90 L 102.62 87.34 L 101.83 87.69 L 101.71 88.34 L 100.74 88.78 L 99.95 89.13 L 99.82 89.78 L 98.86 90.22 L 97.89 90.65 L 97.72 90.73 L 97.59 91.38 L 96.62 91.82 L 95.66 92.26 L 95.49 92.34 L 95.36 92.99 L 94.39 93.42 L 93.60 93.78 L 93.47 94.43 L 92.51 94.86 L 91.72 95.22 L 91.59 95.87 L 90.63 96.31 L 89.66 96.74 L 89.49 96.82 L 89.36 97.47 L 88.39 97.91 L 87.43 98.34 L 87.25 98.42 L 87.12 99.07 L 86.16 99.51 L 85.19 99.94 L 84.67 100.18 L 84.10 99.85 L 83.13 100.28 L 82.34 100.64 L 81.77 100.31 L 81.07 100.62 L 80.49 100.29 L 80.14 100.45 L 79.57 100.11 L 78.87 100.43 L 78.29 100.10 L 77.94 100.25 L 77.37 99.92 L 77.02 100.08 L 76.45 99.75 L 76.10 99.90 L 75.52 99.57 L 74.56 100.01 L 74.47 100.04 L 74.34 100.70 L 74.14 101.73 L 73.96 102.65 L 74.39 103.61 L 74.83 104.58 L 75.26 105.54 L 75.51 106.09 L 75.38 106.74 L 75.18 107.78 L 75.00 108.70 L 74.03 109.13 L 73.07 109.57 L 72.89 109.65 L 72.32 109.31 L 71.36 109.75 L 71.27 109.79 L 70.69 109.45 L 69.99 109.77 L 69.42 109.44 L 68.45 109.87 L 68.37 109.91 L 67.79 109.58 L 67.09 109.89 L 66.52 109.56 L 65.82 109.88 L 65.24 109.54 L 64.54 109.86 L 63.97 109.53 L 63.62 109.68 L 63.05 109.35 L 62.70 109.51 L 62.12 109.18 L 61.77 109.33 L 61.20 109.00 L 60.63 108.67 L 60.27 108.82 L 59.70 108.49 L 59.13 108.16 L 58.78 108.32 L 57.86 107.78 L 56.95 107.25 L 56.49 106.98 L 55.91 106.65 L 55.00 106.11 L 54.08 105.58 L 53.17 105.05 L 52.25 104.51 L 51.90 104.31 L 51.33 103.98 L 50.75 103.64 L 50.53 103.15 L 49.62 102.62 L 49.39 102.48 L 49.16 101.99 L 48.59 101.66 L 48.37 101.16 L 47.80 100.83 L 47.36 99.86 L 47.35 99.84 L 46.78 99.51 L 46.34 98.55 L 45.91 97.58 L 45.67 97.05 L 45.80 96.40 L 45.57 95.91 L 45.70 95.26 L 45.48 94.76 L 45.61 94.11 L 45.74 93.46 L 45.94 92.42 L 45.99 92.16 L 46.70 91.84 L 46.82 91.19 L 47.18 91.04 L 47.30 90.39 L 47.65 90.23 L 47.78 89.58 L 48.13 89.42 L 48.34 88.38 L 48.39 88.12 L 48.74 87.96 L 48.87 87.31 L 49.08 86.27 L 49.26 85.36 L 49.39 84.71 L 49.59 83.67 L 49.64 83.40 L 49.77 82.75 L 49.55 82.26 L 49.68 81.61 L 49.45 81.12 L 49.58 80.47 L 49.15 79.50 L 49.14 79.48 L 49.27 78.83 L 48.83 77.87 L 48.82 77.85 L 48.95 77.20 L 48.52 76.23 L 48.08 75.27 L 48.06 75.23 L 48.19 74.58 L 47.76 73.61 L 47.32 72.65 L 47.08 72.12 L 46.51 71.78 L 46.07 70.82 L 45.84 70.31 L 45.27 69.97 L 44.30 70.41 L 44.21 70.45 L 44.01 71.49 L 43.96 71.75 L 43.83 72.40 L 43.48 72.56 L 43.35 73.21 L 43.00 73.37 L 42.87 74.02 L 42.52 74.18 L 42.39 74.83 L 42.04 74.98 L 41.91 75.64 L 40.95 76.07 L 40.86 76.11 L 40.73 76.76 L 39.77 77.20 L 38.80 77.63 L 37.84 78.07 L 36.87 78.50 L 35.91 78.94 L 35.82 78.98 L 35.69 79.63 L 35.34 79.79 L 35.21 80.44 L 35.08 81.09 L 34.88 82.13 L 34.70 83.04 L 34.92 83.53 L 34.79 84.18 L 35.01 84.68 L 34.88 85.33 L 35.32 86.29 L 35.33 86.31 L 35.20 86.96 L 35.64 87.93 L 35.64 87.95 L 35.44 88.98 L 35.39 89.25 L 35.26 89.90 L 34.56 90.21 L 33.98 89.88 L 33.07 89.35 L 32.84 89.21 L 32.26 88.88 L 31.35 88.35 L 30.43 87.81 L 29.97 87.54 L 29.40 87.21 L 28.83 86.88 L 28.48 87.03 L 27.90 86.70 L 26.94 87.14 L 25.97 87.57 L 25.80 87.65 L 25.67 88.30 L 24.97 88.62 L 24.84 89.27 L 24.14 89.59 L 24.01 90.24 L 23.66 90.39 L 23.53 91.05 L 23.18 91.20 L 23.05 91.85 L 22.70 92.01 L 22.57 92.66 L 22.22 92.82 L 22.09 93.47 L 21.74 93.63 L 21.61 94.28 L 21.26 94.44 L 21.13 95.09 L 20.17 95.53 L 20.08 95.57 L 19.95 96.22 L 18.99 96.65 L 18.90 96.69 L 18.77 97.34 L 17.81 97.78 L 16.84 98.21 L 15.96 98.61 L 15.39 98.27 L 14.43 98.71 L 13.64 99.07 L 13.06 98.73 L 12.36 99.05 L 11.79 98.72 L 10.82 99.15 L 10.38 99.35 L 10.00 99.35 L 10.41 100.32 L 10.48 100.49 L 10.91 101.46 L 10.92 101.48 L 11.50 101.81 L 11.72 102.30 L 12.29 102.64 L 12.51 103.13 L 13.09 103.46 L 13.31 103.96 L 14.22 104.49 L 15.14 105.02 L 15.60 105.29 L 16.17 105.62 L 17.09 106.16 L 17.32 106.29 L 17.89 106.63 L 18.81 107.16 L 19.61 107.63 L 19.96 107.47 L 20.88 108.00 L 21.11 108.14 L 21.46 107.98 L 22.03 108.31 L 22.38 108.15 L 22.96 108.49 L 23.31 108.33 L 23.88 108.66 L 24.58 108.35 L 25.16 108.68 L 26.12 108.24 L 26.56 108.05 L 27.13 108.38 L 28.10 107.94 L 29.06 107.51 L 29.24 107.43 L 29.37 106.78 L 30.33 106.34 L 31.12 105.99 L 31.25 105.34 L 32.21 104.90 L 33.00 104.55 L 33.13 103.89 L 34.10 103.46 L 34.18 103.42 L 34.76 103.75 L 35.72 103.32 L 35.81 103.28 L 36.38 103.61 L 36.73 103.45 L 37.31 103.79 L 37.66 103.63 L 38.57 104.16 L 38.80 104.30 L 37.89 103.76 L 37.66 103.63 L 37.31 103.79 L 36.73 103.45 L 36.38 103.61 L 35.81 103.28 L 34.84 103.71 L 34.76 103.75 L 34.18 103.42 L 33.22 103.85 L 33.13 103.89 L 33.00 104.55 L 32.04 104.98 L 31.25 105.34 L 31.12 105.99 L 30.16 106.42 L 29.37 106.78 L 29.24 107.43 L 28.27 107.87 L 27.31 108.30 L 27.13 108.38 L 26.56 108.05 L 25.59 108.48 L 25.16 108.68 L 24.58 108.35 L 23.88 108.66 L 23.31 108.33 L 22.96 108.49 L 22.38 108.15 L 22.03 108.31 L 21.46 107.98 L 21.11 108.14 L 20.19 107.60 L 19.96 107.47 L 19.61 107.63 L 18.70 107.09 L 17.89 106.63 L 17.32 106.29 L 16.41 105.76 L 16.17 105.62 L 15.60 105.29 L 14.69 104.76 L 13.77 104.22 L 13.31 103.96 L 13.09 103.46 L 12.51 103.13 L 12.29 102.64 L 11.72 102.30 L 11.50 101.81 L 10.92 101.48 L 10.49 100.51 L 10.48 100.49 L 10.00 100.49 L 10.34 99.49 L 10.38 99.35 L 11.35 98.91 L 11.79 98.72 L 12.36 99.05 L 13.06 98.73 L 13.64 99.07 L 14.60 98.63 L 15.39 98.27 L 15.96 98.61 L 16.93 98.17 L 17.89 97.74 L 18.77 97.34 L 18.90 96.69 L 19.86 96.25 L 19.95 96.22 L 20.08 95.57 L 21.04 95.13 L 21.13 95.09 L 21.26 94.44 L 21.61 94.28 L 21.74 93.63 L 22.09 93.47 L 22.22 92.82 L 22.57 92.66 L 22.70 92.01 L 23.05 91.85 L 23.18 91.20 L 23.53 91.05 L 23.66 90.39 L 24.01 90.24 L 24.14 89.59 L 24.84 89.27 L 24.97 88.62 L 25.67 88.30 L 25.80 87.65 L 26.76 87.22 L 27.73 86.78 L 27.90 86.70 L 28.48 87.03 L 28.83 86.88 L 29.40 87.21 L 29.97 87.54 L 30.89 88.08 L 31.80 88.61 L 32.26 88.88 L 32.84 89.21 L 33.75 89.75 L 33.98 89.88 L 34.56 90.21 L 35.26 89.90 L 35.39 89.25 L 35.59 88.21 L 35.64 87.95 L 35.21 86.98 L 35.20 86.96 L 35.33 86.31 L 34.89 85.35 L 34.88 85.33 L 35.01 84.68 L 34.79 84.18 L 34.92 83.53 L 34.70 83.04 L 34.90 82.00 L 35.08 81.09 L 35.21 80.44 L 35.34 79.79 L 35.69 79.63 L 35.82 78.98 L 36.78 78.54 L 37.75 78.11 L 38.71 77.67 L 39.68 77.24 L 40.64 76.80 L 40.73 76.76 L 40.86 76.11 L 41.82 75.67 L 41.91 75.64 L 42.04 74.98 L 42.39 74.83 L 42.52 74.18 L 42.87 74.02 L 43.00 73.37 L 43.35 73.21 L 43.48 72.56 L 43.83 72.40 L 43.96 71.75 L 44.16 70.71 L 44.21 70.45 L 45.18 70.01 L 45.27 69.97 L 45.84 70.31 L 46.28 71.27 L 46.51 71.78 L 47.08 72.12 L 47.52 73.08 L 47.95 74.05 L 48.19 74.58 L 48.06 75.23 L 48.50 76.19 L 48.93 77.16 L 48.95 77.20 L 48.82 77.85 L 49.26 78.81 L 49.27 78.83 L 49.14 79.48 L 49.57 80.45 L 49.58 80.47 L 49.45 81.12 L 49.68 81.61 L 49.55 82.26 L 49.77 82.75 L 49.64 83.40 L 49.44 84.44 L 49.39 84.71 L 49.26 85.36 L 49.05 86.39 L 48.87 87.31 L 48.74 87.96 L 48.39 88.12 L 48.19 89.16 L 48.13 89.42 L 47.78 89.58 L 47.65 90.23 L 47.30 90.39 L 47.18 91.04 L 46.82 91.19 L 46.70 91.84 L 45.99 92.16 L 45.79 93.20 L 45.74 93.46 L 45.61 94.11 L 45.48 94.76 L 45.70 95.26 L 45.57 95.91 L 45.80 96.40 L 45.67 97.05 L 46.10 98.01 L 46.54 98.98 L 46.78 99.51 L 47.35 99.84 L 47.79 100.81 L 47.80 100.83 L 48.37 101.16 L 48.59 101.66 L 49.16 101.99 L 49.39 102.48 L 50.30 103.01 L 50.53 103.15 L 50.75 103.64 L 51.33 103.98 L 51.90 104.31 L 52.82 104.84 L 53.73 105.38 L 54.65 105.91 L 55.56 106.44 L 55.91 106.65 L 56.49 106.98 L 57.40 107.51 L 58.31 108.05 L 58.78 108.32 L 59.13 108.16 L 59.70 108.49 L 60.27 108.82 L 60.63 108.67 L 61.20 109.00 L 61.77 109.33 L 62.12 109.18 L 62.70 109.51 L 63.05 109.35 L 63.62 109.68 L 63.97 109.53 L 64.54 109.86 L 65.24 109.54 L 65.82 109.88 L 66.52 109.56 L 67.09 109.89 L 67.79 109.58 L 68.37 109.91 L 69.33 109.48 L 69.42 109.44 L 69.99 109.77 L 70.69 109.45 L 71.27 109.79 L 72.23 109.35 L 72.32 109.31 L 72.89 109.65 L 73.86 109.21 L 74.82 108.77 L 75.00 108.70 L 75.20 107.66 L 75.38 106.74 L 75.51 106.09 L 75.08 105.13 L 74.64 104.16 L 74.20 103.20 L 73.96 102.65 L 74.16 101.61 L 74.34 100.70 L 74.47 100.04 L 75.44 99.61 L 75.52 99.57 L 76.10 99.90 L 76.45 99.75 L 77.02 100.08 L 77.37 99.92 L 77.94 100.25 L 78.29 100.10 L 78.87 100.43 L 79.57 100.11 L 80.14 100.45 L 80.49 100.29 L 81.07 100.62 L 81.77 100.31 L 82.34 100.64 L 83.31 100.20 L 84.10 99.85 L 84.67 100.18 L 85.63 99.75 L 86.60 99.31 L 87.12 99.07 L 87.25 98.42 L 88.22 97.99 L 89.18 97.55 L 89.36 97.47 L 89.49 96.82 L 90.45 96.39 L 91.42 95.95 L 91.59 95.87 L 91.72 95.22 L 92.68 94.78 L 93.47 94.43 L 93.60 93.78 L 94.57 93.34 L 95.36 92.99 L 95.49 92.34 L 96.45 91.90 L 97.42 91.46 L 97.59 91.38 L 97.72 90.73 L 98.68 90.30 L 99.65 89.86 L 99.82 89.78 L 99.95 89.13 L 100.92 88.70 L 101.71 88.34 L 101.83 87.69 L 102.80 87.25 L 103.59 86.90 L 103.72 86.25 L 104.68 85.81 L 105.65 85.38 L 105.82 85.30 L 105.95 84.65 L 106.92 84.21 L 107.71 83.86 L 107.83 83.20 L 108.80 82.77 L 109.59 82.41 L 109.72 81.76 L 110.68 81.33 L 111.12 81.13 L 111.25 80.48 L 112.21 80.04 L 113.00 79.69 L 113.13 79.04 L 114.10 78.60 L 114.89 78.24 L 115.01 77.59 L 115.98 77.16 L 116.77 76.80 L 116.90 76.15 L 117.86 75.71 L 118.65 75.36 L 118.78 74.71 L 119.74 74.27 L 120.71 73.84 L 120.88 73.76 L 121.01 73.11 L 121.98 72.67 L 122.42 72.47 L 122.54 71.82 L 123.51 71.39 L 124.30 71.03 L 124.43 70.38 L 125.39 69.94 L 126.18 69.59 L 126.31 68.94 L 127.27 68.50 L 128.06 68.15 L 128.19 67.49 L 129.16 67.06 L 130.12 66.62 L 130.65 66.39 L 130.78 65.74 L 131.74 65.30 L 132.71 64.86 L 132.88 64.79 L 133.01 64.14 L 133.98 63.70 L 134.94 63.26 L 135.91 62.83 L 136.52 62.55 L 136.65 61.90 L 137.61 61.46 L 138.58 61.03 L 139.54 60.59 L 140.51 60.16 L 141.47 59.72 L 142.44 59.29 L 143.40 58.85 L 144.37 58.42 L 145.33 57.98 L 146.30 57.54 L 147.26 57.11 L 148.23 56.67 L 149.19 56.24 L 150.16 55.80 L 151.12 55.37 L 151.73 55.09 L 152.31 55.42 L 153.27 54.99 L 154.24 54.55 L 154.76 54.31 L 155.33 54.65 L 156.30 54.21 L 157.26 53.78 L 157.79 53.54 L 158.36 53.87 L 159.33 53.44 L 159.77 53.24 L 160.34 53.57 L 161.31 53.14 L 161.74 52.94 L 162.32 53.27 L 163.28 52.84 L 163.37 52.80 L 163.94 53.13 L 164.91 52.70 L 164.99 52.66 L 165.57 52.99 L 166.27 52.68 L 166.84 53.01 L 167.19 52.85 L 167.77 53.18 L 168.47 52.87 L 169.04 53.20 L 169.39 53.04 L 169.96 53.38 L 170.32 53.22 L 170.89 53.55 L 171.24 53.39 L 171.81 53.73 L 172.16 53.57 L 172.74 53.90 L 173.31 54.24 L 174.22 54.77 L 175.14 55.30 L 175.60 55.57 L 176.17 55.91 L 176.75 56.24 L 177.32 56.57 L 177.89 56.91 L 178.12 57.40 L 178.69 57.73 L 178.91 58.23 L 179.48 58.56 L 178.91 58.23 L 178.69 57.73 L 178.12 57.40 L 177.89 56.91 L 177.32 56.57 L 176.75 56.24 L 176.17 55.91 L 175.60 55.57 L 174.69 55.04 L 173.77 54.51 L 173.31 54.24 L 172.74 53.90 L 172.16 53.57 L 171.81 53.73 L 171.24 53.39 L 170.89 53.55 L 170.32 53.22 L 169.96 53.38 L 169.39 53.04 L 169.04 53.20 L 168.47 52.87 L 167.77 53.18 L 167.19 52.85 L 166.84 53.01 L 166.27 52.68 L 165.57 52.99 L 164.99 52.66 L 164.03 53.09 L 163.94 53.13 L 163.37 52.80 L 162.40 53.23 L 162.32 53.27 L 161.74 52.94 L 160.78 53.38 L 160.34 53.57 L 159.77 53.24 L 158.80 53.68 L 158.36 53.87 L 157.79 53.54 L 156.83 53.98 L 155.86 54.41 L 155.33 54.65 L 154.76 54.31 L 153.80 54.75 L 152.83 55.19 L 152.31 55.42 L 151.73 55.09 L 150.77 55.53 L 149.80 55.96 L 148.84 56.40 L 147.87 56.83 L 146.91 57.27 L 145.94 57.70 L 144.98 58.14 L 144.01 58.58 L 143.05 59.01 L 142.08 59.45 L 141.12 59.88 L 140.15 60.32 L 139.19 60.75 L 138.22 61.19 L 137.26 61.62 L 136.65 61.90 L 136.52 62.55 L 135.55 62.99 L 134.59 63.42 L 133.62 63.86 L 133.01 64.14 L 132.88 64.79 L 131.92 65.22 L 130.95 65.66 L 130.78 65.74 L 130.65 66.39 L 129.68 66.82 L 128.72 67.26 L 128.19 67.49 L 128.06 68.15 L 127.10 68.58 L 126.31 68.94 L 126.18 69.59 L 125.22 70.02 L 124.43 70.38 L 124.30 71.03 L 123.33 71.47 L 122.54 71.82 L 122.42 72.47 L 121.45 72.91 L 121.01 73.11 L 120.88 73.76 L 119.92 74.19 L 118.95 74.63 L 118.78 74.71 L 118.65 75.36 L 117.69 75.79 L 116.90 76.15 L 116.77 76.80 L 115.80 77.24 L 115.01 77.59 L 114.89 78.24 L 113.92 78.68 L 113.13 79.04 L 113.00 79.69 L 112.04 80.12 L 111.25 80.48 L 111.12 81.13 L 110.15 81.56 L 109.72 81.76 L 109.59 82.41 L 108.62 82.85 L 107.83 83.20 L 107.71 83.86 L 106.74 84.29 L 105.95 84.65 L 105.82 85.30 L 104.86 85.73 L 103.89 86.17 L 103.72 86.25 L 103.59 86.90 L 102.62 87.34 L 101.83 87.69 L 101.71 88.34 L 100.74 88.78 L 99.95 89.13 L 99.82 89.78 L 98.86 90.22 L 97.89 90.65 L 97.72 90.73 L 97.59 91.38 L 96.62 91.82 L 95.66 92.26 L 95.49 92.34 L 95.36 92.99 L 94.39 93.42 L 93.60 93.78 L 93.47 94.43 L 92.51 94.86 L 91.72 95.22 L 91.59 95.87 L 90.63 96.31 L 89.66 96.74 L 89.49 96.82 L 89.36 97.47 L 88.39 97.91 L 87.43 98.34 L 87.25 98.42 L 87.12 99.07 L 86.16 99.51 L 85.19 99.94 L 84.67 100.18 L 84.10 99.85 L 83.13 100.28 L 82.34 100.64 L 81.77 100.31 L 81.07 100.62 L 80.49 100.29 L 80.14 100.45 L 79.57 100.11 L 78.87 100.43 L 78.29 100.10 L 77.94 100.25 L 77.37 99.92 L 77.02 100.08 L 76.45 99.75 L 76.10 99.90 L 75.52 99.57 L 74.56 100.01 L 74.47 100.04 L 74.34 100.70 L 74.14 101.73 L 73.96 102.65 L 74.39 103.61 L 74.83 104.58 L 75.26 105.54 L 75.51 106.09 L 75.38 106.74 L 75.18 107.78 L 75.00 108.70 L 74.03 109.13 L 73.07 109.57 L 72.89 109.65 L 72.32 109.31 L 71.36 109.75 L 71.27 109.79 L 70.69 109.45 L 69.99 109.77 L 69.42 109.44 L 68.45 109.87 L 68.37 109.91 L 67.79 109.58 L 67.09 109.89 L 66.52 109.56 L 65.82 109.88 L 65.24 109.54 L 64.54 109.86 L 63.97 109.53 L 63.62 109.68 L 63.05 109.35 L 62.70 109.51 L 62.12 109.18 L 61.77 109.33 L 61.20 109.00 L 60.63 108.67 L 60.27 108.82 L 59.70 108.49 L 59.13 108.16 L 58.78 108.32 L 57.86 107.78 L 56.95 107.25 L 56.49 106.98 L 55.91 106.65 L 55.00 106.11 L 54.08 105.58 L 53.17 105.05 L 52.25 104.51 L 51.90 104.31 L 51.33 103.98 L 50.75 103.64 L 50.53 103.15 L 49.62 102.62 L 49.39 102.48 L 49.16 101.99 L 48.59 101.66 L 48.37 101.16 L 47.80 100.83 L 47.36 99.86 L 47.35 99.84 L 46.78 99.51 L 46.34 98.55 L 45.91 97.58 L 45.67 97.05 L 45.80 96.40 L 45.57 95.91 L 45.70 95.26 L 45.48 94.76 L 45.61 94.11 L 45.74 93.46 L 45.94 92.42 L 45.99 92.16 L 46.70 91.84 L 46.82 91.19 L 47.18 91.04 L 47.30 90.39 L 47.65 90.23 L 47.78 89.58 L 48.13 89.42 L 48.34 88.38 L 48.39 88.12 L 48.74 87.96 L 48.87 87.31 L 49.08 86.27 L 49.26 85.36 L 49.39 84.71 L 49.59 83.67 L 49.64 83.40 L 49.77 82.75 L 49.55 82.26 L 49.68 81.61 L 49.45 81.12 L 49.58 80.47 L 49.15 79.50 L 49.14 79.48 L 49.27 78.83 L 48.83 77.87 L 48.82 77.85 L 48.95 77.20 L 48.52 76.23 L 48.08 75.27 L 48.06 75.23 L 48.19 74.58 L 47.76 73.61 L 47.32 72.65 L 47.08 72.12 L 46.51 71.78 L 46.07 70.82 L 45.84 70.31 L 45.27 69.97 L 44.30 70.41 L 44.21 70.45 L 44.01 71.49 L 43.96 71.75 L 43.83 72.40 L 43.48 72.56 L 43.35 73.21 L 43.00 73.37 L 42.87 74.02 L 42.52 74.18 L 42.39 74.83 L 42.04 74.98 L 41.91 75.64 L 40.95 76.07 L 40.86 76.11 L 40.73 76.76 L 39.77 77.20 L 38.80 77.63 L 37.84 78.07 L 36.87 78.50 L 35.91 78.94 L 35.82 78.98 L 35.69 79.63 L 35.34 79.79 L 35.21 80.44 L 35.08 81.09 L 34.88 82.13 L 34.70 83.04 L 34.92 83.53 L 34.79 84.18 L 35.01 84.68 L 34.88 85.33 L 35.32 86.29 L 35.33 86.31 L 35.20 86.96 L 35.64 87.93 L 35.64 87.95 L 35.44 88.98 L 35.39 89.25 L 35.26 89.90 L 34.56 90.21 L 33.98 89.88 L 33.07 89.35 L 32.84 89.21 L 32.26 88.88 L 31.35 88.35 L 30.43 87.81 L 29.97 87.54 L 29.40 87.21 L 28.83 86.88 L 28.48 87.03 L 27.90 86.70 L 26.94 87.14 L 25.97 87.57 L 25.80 87.65 L 25.67 88.30 L 24.97 88.62 L 24.84 89.27 L 24.14 89.59 L 24.01 90.24 L 23.66 90.39 L 23.53 91.05 L 23.18 91.20 L 23.05 91.85 L 22.70 92.01 L 22.57 92.66 L 22.22 92.82 L 22.09 93.47 L 21.74 93.63 L 21.61 94.28 L 21.26 94.44 L 21.13 95.09 L 20.17 95.53 L 20.08 95.57 L 19.95 96.22 L 18.99 96.65 L 18.90 96.69 L 18.77 97.34 L 17.81 97.78 L 16.84 98.21 L 15.96 98.61 L 15.39 98.27 L 14.43 98.71 L 13.64 99.07 L 13.06 98.73 L 12.36 99.05 L 11.79 98.72 L 10.82 99.15 L 10.38 99.35" 
          fill="none" 
          stroke="currentColor" 
          stroke-width="0.5"/>
</svg>