<?xml version="1.0" encoding="UTF-8" standalone="no"?>
<svg width="100%" height="100%" viewBox="0 0 200 200" preserveAspectRatio="xMidYMid meet" xmlns="http://www.w3.org/2000/svg">
    <path d="M 100.00 100.00 L 73.75 100.00 L 74.06 104.04 L 73.75 100.00 L 58.75 100.00 L 59.52 107.94 L 58.75 100.00 L 43.75 100.00 L 45.01 111.82 L 43.75 100.00 L 36.25 100.00 L 37.76 113.77 L 36.25 100.00 L 14.50 100.00 L 14.50 100.00 L 10.00 100.00 L 10.00 100.00 L 28.75 100.00 L 30.50 84.29 L 28.75 100.00 L 51.25 100.00 L 52.26 90.12 L 51.25 100.00 L 66.25 100.00 L 66.79 94.01 L 66.25 100.00 L 73.75 100.00 L 74.06 95.96 L 73.75 100.00 L 83.11 100.00 L 83.26 102.29 L 83.11 100.00 L 88.75 100.00 L 90.26 94.37 L 57.78 75.62 L 53.71 84.69 L 57.78 75.62 L 51.29 71.87 L 46.46 82.74 L 51.29 71.87 L 44.79 68.13 L 39.21 80.80 L 44.79 68.13 L 38.29 64.37 L 31.96 78.85 L 38.29 64.37 L 31.80 60.62 L 64.28 79.38 L 68.91 72.89 L 64.28 79.38 L 70.77 83.12 L 74.23 78.21 L 70.77 83.12 L 77.26 86.87 L 79.55 83.53 L 77.26 86.87 L 85.39 91.56 L 84.36 93.61 L 85.39 91.56 L 90.26 94.37 L 94.38 90.26 L 79.38 64.28 L 72.89 68.91 L 79.38 64.28 L 71.88 51.29 L 62.26 58.29 L 71.88 51.29 L 68.13 44.79 L 56.96 52.98 L 68.13 44.79 L 60.63 31.80 L 64.37 38.29 L 78.86 31.96 L 64.37 38.29 L 75.62 57.78 L 84.69 53.71 L 75.62 57.78 L 83.13 70.77 L 88.58 68.24 L 83.13 70.77 L 86.87 77.26 L 90.53 75.52 L 86.87 77.26 L 91.56 85.39 L 89.65 86.65 L 91.56 85.39 L 94.38 90.26 L 100.00 88.75 L 100.00 83.13 L 97.71 83.26 L 100.00 83.13 L 100.00 73.75 L 95.96 74.06 L 100.00 73.75 L 100.00 58.75 L 92.06 59.52 L 100.00 58.75 L 100.00 43.75 L 88.18 45.01 L 100.00 43.75 L 100.00 36.25 L 86.23 37.76 L 100.00 36.25 L 100.00 28.75 L 100.00 21.25 L 100.00 28.75 L 115.71 30.50 L 100.00 28.75 L 100.00 51.25 L 109.88 52.26 L 100.00 51.25 L 100.00 66.25 L 105.99 66.79 L 100.00 66.25 L 100.00 88.75 L 105.63 90.26 L 108.44 85.39 L 106.39 84.36 L 108.44 85.39 L 113.13 77.26 L 109.47 75.52 L 113.13 77.26 L 124.38 57.78 L 115.31 53.71 L 124.38 57.78 L 128.13 51.29 L 117.26 46.46 L 128.13 51.29 L 131.80 44.75 L 119.20 39.21 L 131.87 44.79 L 139.38 31.80 L 135.63 38.29 L 148.35 47.67 L 135.63 38.29 L 120.62 64.28 L 127.11 68.91 L 120.62 64.28 L 116.88 70.77 L 121.79 74.23 L 116.88 70.77 L 105.63 90.26 L 109.74 94.38 L 114.61 91.56 L 113.35 89.65 L 114.61 91.56 L 122.74 86.87 L 120.45 83.53 L 122.74 86.87 L 129.23 83.13 L 125.77 78.21 L 129.23 83.13 L 155.21 68.13 L 147.02 56.96 L 155.21 68.13 L 168.20 60.63 L 161.71 64.37 L 168.04 78.86 L 161.71 64.37 L 148.71 71.88 L 153.54 82.74 L 148.71 71.88 L 142.22 75.62 L 146.29 84.69 L 142.22 75.62 L 135.72 79.38 L 139.02 86.63 L 135.72 79.38 L 129.23 83.13 L 131.76 88.58 L 129.23 83.13 L 109.74 94.38 L 111.25 100.00 L 116.87 100.00 L 116.74 97.71 L 116.87 100.00 L 126.25 100.00 L 126.25 100.00 L 125.94 95.96 L 126.25 100.00 L 148.75 100.00 L 147.74 90.12 L 148.75 100.00 L 156.25 100.00 L 154.99 88.18 L 156.25 100.00 L 163.75 100.00 L 162.24 86.23 L 163.75 100.00 L 171.25 100.00 L 169.50 84.29 L 171.25 100.00 L 178.75 100.00 L 141.25 100.00 L 140.48 107.94 L 141.25 100.00 L 133.75 100.00 L 133.21 105.99 L 133.75 100.00 L 111.25 100.00 L 109.74 105.63 L 135.72 120.62 L 139.02 113.37 L 135.72 120.62 L 142.22 124.38 L 146.29 115.31 L 142.22 124.38 L 155.21 131.87 L 160.79 119.20 L 155.21 131.87 L 168.20 139.38 L 161.71 135.63 L 152.33 148.36 L 161.71 135.63 L 148.71 128.13 L 141.71 137.74 L 148.71 128.13 L 129.23 116.88 L 125.77 121.79 L 129.23 116.88 L 122.74 113.13 L 120.45 116.47 L 122.74 113.13 L 114.61 108.44 L 115.64 106.39 L 114.61 108.44 L 109.74 105.63 L 105.62 109.74 L 116.87 129.23 L 121.79 125.77 L 116.87 129.23 L 135.63 161.71 L 148.35 152.33 L 135.63 161.71 L 139.37 168.20 L 131.87 155.21 L 119.20 160.79 L 131.87 155.21 L 128.12 148.71 L 117.26 153.54 L 128.12 148.71 L 124.38 142.22 L 115.31 146.29 L 124.38 142.22 L 120.62 135.72 L 113.37 139.02 L 120.62 135.72 L 113.13 122.74 L 109.47 124.48 L 113.13 122.74 L 108.44 114.61 L 110.35 113.35 L 108.44 114.61 L 105.62 109.74 L 100.00 111.25 L 100.00 116.87 L 102.29 116.74 L 100.00 116.87 L 100.00 126.25 L 104.04 125.94 L 100.00 126.25 L 100.00 141.25 L 107.94 140.48 L 100.00 141.25 L 100.00 156.25 L 111.82 154.99 L 100.00 156.25 L 100.00 163.75 L 113.77 162.24 L 100.00 163.75 L 100.00 171.25 L 115.71 169.50 L 100.00 171.25 L 100.00 178.75 L 100.00 148.75 L 90.12 147.74 L 100.00 148.75 L 100.00 133.75 L 94.01 133.21 L 100.00 133.75 L 100.00 111.25 L 94.37 109.74 L 79.38 135.72 L 86.63 139.02 L 79.38 135.72 L 71.87 148.71 L 82.74 153.54 L 71.87 148.71 L 68.13 155.21 L 80.80 160.79 L 68.13 155.21 L 60.62 168.20 L 75.62 142.22 L 67.57 136.40 L 75.62 142.22 L 83.12 129.23 L 78.21 125.77 L 83.12 129.23 L 86.87 122.74 L 83.53 120.45 L 86.87 122.74 L 91.55 114.63 L 93.61 115.64 L 91.55 114.63 L 94.37 109.74 L 91.75 107.12 L 90.26 105.62 L 64.28 120.62 L 68.91 127.11 L 64.28 120.62 L 51.29 128.12 L 58.29 137.74 L 51.29 128.12 L 44.79 131.87 L 52.98 143.04 L 44.79 131.87 L 31.80 139.37 L 38.29 135.63 L 31.96 121.14 L 38.29 135.63 L 57.78 124.38 L 53.71 115.31 L 57.78 124.38 L 70.77 116.87 L 68.24 111.42 L 70.77 116.87 L 77.26 113.13 L 75.52 109.47 L 77.26 113.13 L 85.37 108.45 L 86.65 110.36 L 85.37 108.45 L 90.26 105.62 L 90.21 105.48 L 88.78 100.03 L 90.26 94.37 L 94.38 90.26 L 100.00 88.75 L 105.63 90.26 L 109.74 94.38 L 111.25 100.00 L 109.74 105.63 L 105.62 109.74 L 100.00 111.25 L 94.37 109.74 L 90.26 105.62 L 88.75 100.00 L 89.24 99.92 L 89.43 99.88 L 100.00 89.42 L 110.69 100.00 L 99.98 110.59 L 90.14 100.00 L 100.00 90.14 L 109.86 100.00 L 100.00 109.86 L 91.04 100.00 L 100.00 91.04 L 108.96 100.00 L 100.00 108.96 L 91.94 100.00 L 100.00 91.94 L 108.06 100.00 L 100.00 108.06 L 92.84 100.00 L 100.00 92.84 L 107.16 100.00 L 100.00 107.16 L 93.74 100.00 L 100.00 93.74 L 106.26 100.00 L 100.00 106.26 L 94.64 100.00 L 100.00 94.64 L 105.36 100.00 L 100.00 105.36 L 95.54 100.00 L 100.00 95.54 L 104.46 100.00 L 100.00 104.46 L 96.44 100.00 L 100.00 96.44 L 103.56 100.00 L 100.00 103.56 L 97.34 100.00 L 100.00 97.34 L 102.66 100.00 L 100.00 102.66 L 98.24 100.00 L 100.00 98.24 L 101.76 100.00 L 100.00 101.76 L 99.14 100.00 L 100.00 99.14 L 100.86 100.00 L 100.00 100.86" 
          fill="none" 
          stroke="currentColor" 
          stroke-width="0.5"/>
</svg>