<?xml version="1.0" encoding="UTF-8" standalone="no"?>
<svg width="100%" height="100%" viewBox="0 0 200 200" preserveAspectRatio="xMidYMid meet" xmlns="http://www.w3.org/2000/svg">
    <path d="M 100.00 100.00 L 99.74 100.00 L 24.84 100.00 L 24.83 100.02 L 24.82 100.04 L 24.81 100.06 L 24.82 100.09 L 24.83 100.11 L 24.85 100.14 L 24.88 100.16 L 24.91 100.17 L 24.96 100.17 L 25.00 100.17 L 25.05 100.16 L 25.08 100.13 L 25.13 100.10 L 25.17 100.07 L 25.19 100.01 L 25.21 99.95 L 25.22 99.88 L 25.21 99.81 L 25.19 99.74 L 25.17 99.66 L 25.12 99.60 L 25.06 99.54 L 24.99 99.48 L 24.91 99.44 L 24.81 99.42 L 24.71 99.41 L 24.60 99.43 L 24.49 99.46 L 24.39 99.51 L 24.30 99.57 L 24.21 99.65 L 24.14 99.75 L 24.09 99.86 L 24.06 99.99 L 24.05 100.13 L 24.06 100.27 L 24.10 100.41 L 24.16 100.54 L 24.23 100.67 L 24.34 100.78 L 24.46 100.88 L 24.60 100.95 L 24.77 100.99 L 24.94 101.01 L 25.11 101.01 L 25.29 100.97 L 25.45 100.91 L 25.61 100.81 L 25.75 100.69 L 25.88 100.54 L 25.97 100.37 L 26.04 100.18 L 26.07 99.98 L 26.07 99.77 L 26.05 99.56 L 25.98 99.36 L 25.87 99.16 L 25.74 98.99 L 25.56 98.84 L 25.37 98.71 L 25.15 98.62 L 24.92 98.56 L 24.68 98.54 L 24.43 98.56 L 24.20 98.64 L 23.97 98.75 L 23.75 98.89 L 23.57 99.08 L 23.40 99.30 L 23.29 99.53 L 23.20 99.79 L 23.17 100.07 L 23.19 100.35 L 23.25 100.63 L 23.36 100.90 L 23.51 101.15 L 23.70 101.37 L 23.93 101.57 L 24.19 101.72 L 24.49 101.83 L 24.79 101.88 L 25.11 101.88 L 25.42 101.83 L 25.73 101.74 L 26.02 101.59 L 26.29 101.39 L 26.51 101.15 L 26.70 100.86 L 26.83 100.54 L 26.92 100.20 L 26.95 99.85 L 26.92 99.50 L 26.84 99.16 L 26.70 98.83 L 26.48 98.52 L 26.23 98.26 L 25.93 98.03 L 25.59 97.86 L 25.24 97.73 L 24.85 97.67 L 24.46 97.68 L 24.08 97.75 L 23.71 97.89 L 23.36 98.09 L 23.04 98.35 L 22.77 98.66 L 22.56 99.01 L 22.40 99.39 L 22.32 99.81 L 22.30 100.23 L 22.35 100.66 L 22.47 101.08 L 22.66 101.47 L 22.92 101.83 L 23.23 102.13 L 23.60 102.39 L 24.01 102.58 L 24.45 102.71 L 24.90 102.77 L 25.37 102.75 L 25.82 102.64 L 26.26 102.46 L 26.66 102.21 L 27.02 101.90 L 27.32 101.52 L 27.57 101.10 L 27.73 100.64 L 27.82 100.15 L 27.82 99.65 L 27.74 99.15 L 27.59 98.67 L 27.36 98.22 L 27.04 97.82 L 26.66 97.47 L 26.22 97.18 L 25.74 96.97 L 25.23 96.84 L 24.70 96.79 L 24.17 96.84 L 23.64 96.97 L 23.15 97.20 L 22.69 97.50 L 22.28 97.88 L 21.94 98.31 L 21.68 98.82 L 21.51 99.35 L 21.43 99.91 L 21.44 100.49 L 21.55 101.05 L 21.73 101.60 L 22.03 102.11 L 22.40 102.55 L 22.85 102.94 L 23.35 103.25 L 23.91 103.48 L 24.50 103.62 L 25.10 103.65 L 25.71 103.58 L 26.30 103.40 L 26.85 103.13 L 27.36 102.77 L 27.81 102.33 L 28.18 101.82 L 28.45 101.25 L 28.62 100.64 L 28.70 100.00 L 28.68 99.36 L 28.54 98.72 L 28.30 98.11 L 27.96 97.56 L 27.52 97.06 L 27.01 96.64 L 26.43 96.30 L 25.80 96.06 L 25.13 95.93 L 24.46 95.92 L 23.78 96.03 L 23.12 96.24 L 22.51 96.56 L 21.95 96.97 L 21.47 97.48 L 21.08 98.06 L 20.79 98.71 L 20.61 99.40 L 20.55 100.11 L 20.60 100.83 L 20.76 101.53 L 21.06 102.20 L 21.45 102.81 L 21.96 103.34 L 22.54 103.79 L 23.19 104.15 L 23.90 104.40 L 24.63 104.51 L 25.39 104.50 L 26.13 104.37 L 26.86 104.12 L 27.52 103.74 L 28.13 103.27 L 28.65 102.70 L 29.06 102.04 L 29.35 101.31 L 29.53 100.55 L 29.58 99.76 L 29.51 98.98 L 29.30 98.20 L 28.95 97.48 L 28.49 96.82 L 27.93 96.25 L 27.28 95.76 L 26.55 95.40 L 25.76 95.15 L 24.95 95.04 L 24.13 95.07 L 23.31 95.24 L 22.53 95.54 L 21.80 95.96 L 21.16 96.50 L 20.62 97.16 L 20.18 97.88 L 19.87 98.69 L 19.69 99.53 L 19.67 100.39 L 19.78 101.24 L 20.04 102.08 L 20.43 102.86 L 20.94 103.57 L 21.58 104.18 L 22.31 104.69 L 23.11 105.07 L 23.97 105.31 L 24.86 105.40 L 25.76 105.35 L 26.65 105.14 L 27.48 104.79 L 28.25 104.30 L 28.94 103.70 L 29.52 102.98 L 29.97 102.17 L 30.28 101.30 L 30.44 100.38 L 30.45 99.44 L 30.31 98.51 L 30.00 97.61 L 29.56 96.79 L 28.97 96.03 L 28.27 95.38 L 27.47 94.85 L 26.59 94.47 L 25.65 94.23 L 24.68 94.16 L 23.71 94.24 L 22.76 94.49 L 21.86 94.89 L 21.04 95.44 L 20.32 96.12 L 19.72 96.92 L 19.26 97.80 L 18.94 98.75 L 18.79 99.75 L 18.81 100.76 L 19.00 101.75 L 19.35 102.71 L 19.85 103.60 L 20.51 104.39 L 21.29 105.06 L 22.16 105.61 L 23.12 106.00 L 24.14 106.23 L 25.19 106.28 L 26.22 106.15 L 27.24 105.86 L 28.18 105.40 L 29.05 104.80 L 29.81 104.05 L 30.43 103.17 L 30.90 102.21 L 31.21 101.18 L 31.35 100.11 L 31.30 99.03 L 31.06 97.97 L 30.66 96.95 L 30.09 96.02 L 29.38 95.18 L 28.53 94.47 L 27.57 93.92 L 26.53 93.54 L 25.44 93.32 L 24.32 93.29 L 23.20 93.44 L 22.14 93.79 L 21.13 94.31 L 20.22 94.99 L 19.43 95.81 L 18.79 96.75 L 18.31 97.79 L 18.02 98.91 L 17.91 100.06 L 17.99 101.21 L 18.26 102.34 L 18.72 103.41 L 19.35 104.39 L 20.14 105.25 L 21.07 105.99 L 22.10 106.56 L 23.22 106.94 L 24.39 107.14 L 25.59 107.13 L 26.77 106.93 L 27.90 106.54 L 28.96 105.97 L 29.90 105.22 L 30.72 104.31 L 31.37 103.29 L 31.85 102.17 L 32.15 100.98 L 32.22 99.76 L 32.10 98.53 L 31.78 97.34 L 31.26 96.22 L 30.57 95.18 L 29.71 94.29 L 28.70 93.54 L 27.58 92.98 L 26.38 92.59 L 25.14 92.41 L 23.86 92.45 L 22.62 92.70 L 21.43 93.15 L 20.32 93.79 L 19.33 94.60 L 18.50 95.58 L 17.84 96.68 L 17.36 97.88 L 17.10 99.15 L 17.03 100.46 L 17.19 101.75 L 17.57 103.00 L 18.15 104.18 L 18.92 105.25 L 19.85 106.18 L 20.93 106.94 L 22.13 107.51 L 23.42 107.88 L 24.75 108.03 L 26.08 107.96 L 27.39 107.67 L 28.64 107.16 L 29.78 106.45 L 30.81 105.55 L 31.67 104.50 L 32.35 103.32 L 32.81 102.04 L 33.05 100.69 L 33.08 99.32 L 32.88 97.95 L 32.46 96.63 L 31.81 95.41 L 30.96 94.31 L 29.94 93.35 L 28.78 92.57 L 27.50 91.99 L 26.15 91.64 L 24.74 91.53 L 23.33 91.64 L 21.96 91.98 L 20.65 92.54 L 19.47 93.32 L 18.42 94.30 L 17.54 95.44 L 16.86 96.70 L 16.39 98.06 L 16.17 99.49 L 16.19 100.94 L 16.44 102.37 L 16.92 103.74 L 17.63 105.01 L 18.68 106.27 L 19.82 107.20 L 20.93 107.87 L 22.72 108.52 L 24.15 108.75 L 25.81 108.73 L 27.29 108.44 L 28.40 108.03 L 29.65 107.36 L 30.66 106.59 L 31.37 105.87 L 32.03 105.05 L 32.72 103.89 L 33.17 102.81 L 33.46 101.74 L 33.59 100.91 L 33.63 100.00 L 48.32 100.00 L 48.31 99.85 L 48.31 99.68 L 48.31 99.58 L 48.29 99.44 L 49.16 99.44 L 50.29 99.44 L 51.41 99.44 L 52.53 99.44 L 53.65 99.44 L 54.78 99.44 L 55.90 99.44 L 57.03 99.44 L 58.15 99.44 L 59.27 99.44 L 60.39 99.44 L 61.52 99.44 L 62.65 99.44 L 63.77 99.44 L 64.90 99.44 L 66.01 99.44 L 67.14 99.44 L 68.26 99.44 L 68.50 99.44 L 67.64 99.23 L 66.55 98.94 L 66.35 98.88 L 65.44 98.88 L 64.31 98.88 L 63.19 98.87 L 62.06 98.88 L 60.95 98.87 L 59.82 98.87 L 58.70 98.88 L 57.57 98.88 L 56.45 98.88 L 55.33 98.87 L 54.20 98.87 L 53.08 98.87 L 51.95 98.88 L 50.83 98.87 L 49.71 98.87 L 48.59 98.87 L 48.30 98.87 L 48.31 98.31 L 48.59 98.31 L 49.71 98.31 L 50.83 98.31 L 51.96 98.31 L 53.09 98.31 L 54.20 98.31 L 55.33 98.31 L 56.45 98.31 L 57.58 98.31 L 58.70 98.31 L 59.82 98.31 L 60.95 98.31 L 62.08 98.31 L 63.19 98.31 L 64.32 98.31 L 64.69 98.31 L 63.98 98.04 L 63.29 97.75 L 62.92 97.75 L 61.79 97.75 L 60.67 97.75 L 59.54 97.75 L 58.42 97.75 L 57.30 97.75 L 56.17 97.75 L 55.05 97.75 L 53.93 97.75 L 52.80 97.75 L 51.68 97.75 L 50.55 97.75 L 49.43 97.75 L 48.33 97.75 L 48.34 97.72 L 48.36 97.19 L 48.95 97.19 L 50.08 97.19 L 51.20 97.19 L 52.32 97.19 L 53.45 97.19 L 54.56 97.19 L 55.69 97.19 L 56.82 97.19 L 57.94 97.19 L 59.07 97.19 L 60.18 97.19 L 61.31 97.19 L 62.08 97.19 L 61.77 97.03 L 61.00 96.63 L 60.75 96.62 L 59.62 96.62 L 58.50 96.63 L 57.37 96.63 L 56.26 96.62 L 55.13 96.62 L 54.01 96.63 L 52.88 96.63 L 51.76 96.63 L 50.63 96.62 L 49.51 96.63 L 48.40 96.63 L 48.40 96.62 L 48.44 96.06 L 49.00 96.06 L 50.12 96.06 L 51.25 96.06 L 52.37 96.06 L 53.50 96.06 L 54.62 96.06 L 55.74 96.06 L 56.87 96.06 L 57.99 96.06 L 59.11 96.06 L 60.03 96.06 L 59.84 95.95 L 59.14 95.50 L 58.85 95.50 L 57.72 95.50 L 56.60 95.50 L 55.48 95.50 L 54.36 95.50 L 53.24 95.50 L 52.11 95.50 L 50.99 95.50 L 49.86 95.50 L 48.74 95.50 L 48.48 95.50 L 48.53 94.93 L 48.84 94.94 L 49.96 94.94 L 51.09 94.94 L 52.21 94.94 L 53.33 94.94 L 54.45 94.94 L 55.58 94.94 L 56.70 94.94 L 57.82 94.94 L 58.30 94.94 L 57.78 94.56 L 57.54 94.38 L 56.72 94.38 L 55.60 94.38 L 54.47 94.38 L 53.35 94.37 L 52.23 94.37 L 51.10 94.38 L 49.98 94.37 L 48.86 94.38 L 48.59 94.37 L 48.66 93.81 L 48.96 93.81 L 50.08 93.81 L 51.21 93.81 L 52.32 93.81 L 53.45 93.81 L 54.57 93.81 L 55.70 93.81 L 56.82 93.81 L 56.82 93.81 L 56.15 93.25 L 55.90 93.25 L 54.78 93.25 L 53.65 93.25 L 52.53 93.25 L 51.41 93.25 L 50.28 93.25 L 49.16 93.25 L 48.73 93.25 L 48.81 92.69 L 48.93 92.69 L 50.05 92.69 L 51.18 92.69 L 52.30 92.69 L 53.43 92.69 L 54.55 92.69 L 55.52 92.69 L 55.41 92.58 L 54.92 92.12 L 54.46 92.13 L 53.34 92.12 L 52.22 92.13 L 51.09 92.13 L 49.96 92.13 L 48.89 92.12 L 48.90 92.08 L 48.98 91.56 L 49.58 91.56 L 50.70 91.56 L 51.83 91.56 L 52.95 91.56 L 54.08 91.56 L 54.36 91.56 L 53.83 91.00 L 53.76 91.00 L 52.64 91.00 L 51.52 91.00 L 50.39 91.00 L 49.27 91.00 L 49.07 91.00 L 49.18 90.44 L 49.54 90.44 L 50.66 90.44 L 51.78 90.44 L 52.91 90.44 L 53.32 90.44 L 52.87 89.90 L 52.85 89.88 L 51.76 89.87 L 50.64 89.88 L 49.52 89.88 L 49.29 89.87 L 49.40 89.31 L 49.72 89.31 L 50.85 89.31 L 51.97 89.31 L 52.40 89.31 L 51.97 88.75 L 51.97 88.75 L 50.85 88.75 L 49.73 88.75 L 49.52 88.75 L 49.65 88.19 L 50.00 88.19 L 51.12 88.19 L 51.58 88.19 L 51.20 87.64 L 51.19 87.62 L 50.08 87.63 L 49.79 87.63 L 49.93 87.06 L 50.18 87.06 L 50.91 87.06 L 50.78 86.69 L 50.73 86.50 L 50.08 86.50 L 50.15 86.24 L 50.23 85.94 L 50.63 85.94 L 50.60 85.52 L 50.71 84.41 L 51.10 83.35 L 51.73 82.43 L 51.79 82.36 L 51.47 82.13 L 51.68 81.58 L 51.72 81.61 L 52.21 81.96 L 52.63 81.65 L 52.68 81.61 L 51.89 81.03 L 51.92 80.97 L 52.10 80.50 L 52.61 80.86 L 53.24 81.32 L 53.56 81.21 L 53.88 81.10 L 53.25 80.63 L 52.34 79.97 L 52.33 79.96 L 52.55 79.43 L 52.98 79.74 L 53.89 80.41 L 54.53 80.87 L 54.85 80.77 L 55.21 80.66 L 54.60 80.23 L 53.69 79.56 L 52.78 78.90 L 52.78 78.90 L 53.02 78.38 L 53.47 78.70 L 54.37 79.37 L 55.28 80.02 L 55.91 80.48 L 56.25 80.39 L 56.62 80.30 L 56.01 79.86 L 55.11 79.21 L 54.20 78.54 L 53.29 77.89 L 53.26 77.87 L 53.51 77.35 L 53.93 77.66 L 54.84 78.31 L 55.75 78.97 L 56.66 79.63 L 57.35 80.14 L 57.62 80.09 L 58.12 80.00 L 57.62 79.64 L 56.72 78.98 L 55.81 78.32 L 54.90 77.66 L 53.98 77.00 L 53.76 76.84 L 54.02 76.33 L 54.24 76.49 L 55.16 77.15 L 56.06 77.81 L 56.97 78.47 L 57.88 79.13 L 58.79 79.79 L 58.90 79.87 L 59.71 79.77 L 59.58 79.67 L 58.67 79.01 L 57.76 78.35 L 56.85 77.69 L 55.94 77.03 L 55.04 76.37 L 54.28 75.83 L 54.38 75.65 L 54.55 75.33 L 55.16 75.77 L 56.07 76.43 L 56.98 77.09 L 57.89 77.75 L 58.80 78.41 L 59.71 79.07 L 60.55 79.68 L 60.63 79.68 L 61.43 79.62 L 61.17 79.44 L 60.26 78.78 L 59.35 78.11 L 58.44 77.45 L 57.53 76.79 L 56.62 76.13 L 55.71 75.47 L 54.83 74.83 L 54.84 74.80 L 55.10 74.34 L 55.58 74.68 L 56.49 75.34 L 57.40 76.00 L 58.31 76.66 L 59.22 77.32 L 60.13 77.98 L 61.03 78.64 L 61.94 79.30 L 62.34 79.59 L 62.97 79.59 L 63.29 79.59 L 62.65 79.12 L 61.74 78.46 L 60.83 77.80 L 59.92 77.14 L 59.00 76.47 L 58.10 75.81 L 57.19 75.15 L 56.28 74.49 L 55.39 73.84 L 55.40 73.83 L 55.68 73.36 L 56.14 73.70 L 57.06 74.36 L 57.97 75.02 L 58.87 75.68 L 59.78 76.34 L 60.69 77.01 L 61.60 77.66 L 62.51 78.32 L 63.42 78.98 L 64.30 79.62 L 64.34 79.62 L 65.35 79.69 L 65.26 79.63 L 64.35 78.96 L 63.44 78.30 L 62.53 77.64 L 61.62 76.99 L 60.71 76.32 L 59.80 75.66 L 58.89 75.00 L 57.99 74.34 L 57.08 73.68 L 56.17 73.02 L 55.97 72.88 L 56.27 72.40 L 56.52 72.58 L 57.43 73.25 L 58.34 73.90 L 59.25 74.57 L 60.16 75.23 L 61.07 75.89 L 61.98 76.55 L 62.89 77.21 L 63.79 77.87 L 64.71 78.53 L 65.61 79.19 L 66.47 79.81 L 66.54 79.82 L 67.65 79.99 L 67.67 79.99 L 66.79 79.34 L 65.87 78.68 L 64.97 78.02 L 64.06 77.36 L 63.15 76.70 L 62.24 76.04 L 61.33 75.38 L 60.42 74.72 L 59.51 74.06 L 58.61 73.40 L 57.69 72.74 L 56.78 72.08 L 56.57 71.92 L 56.88 71.45 L 57.12 71.63 L 58.03 72.29 L 58.93 72.95 L 59.85 73.61 L 60.76 74.27 L 61.66 74.93 L 62.57 75.59 L 63.48 76.25 L 64.39 76.91 L 65.30 77.57 L 66.21 78.23 L 67.11 78.89 L 68.03 79.55 L 68.94 80.21 L 68.98 80.25 L 70.02 80.50 L 70.44 80.61 L 69.88 80.20 L 68.97 79.54 L 68.06 78.88 L 67.15 78.22 L 66.24 77.56 L 65.33 76.90 L 64.43 76.24 L 63.52 75.58 L 62.61 74.92 L 61.69 74.26 L 60.79 73.60 L 59.88 72.94 L 58.97 72.28 L 58.06 71.61 L 57.19 70.98 L 57.22 70.95 L 57.51 70.52 L 58.01 70.88 L 58.92 71.54 L 59.82 72.20 L 60.73 72.86 L 61.64 73.52 L 62.55 74.18 L 63.46 74.84 L 64.36 75.50 L 65.27 76.16 L 66.19 76.82 L 67.10 77.48 L 68.01 78.15 L 68.91 78.80 L 69.82 79.46 L 70.73 80.13 L 71.64 80.79 L 72.12 81.13 L 72.62 81.31 L 73.67 81.72 L 74.18 81.94 L 73.73 81.61 L 72.82 80.95 L 71.91 80.29 L 71.01 79.63 L 70.10 78.97 L 69.19 78.31 L 68.28 77.65 L 67.37 76.99 L 66.46 76.32 L 65.55 75.67 L 64.64 75.01 L 63.73 74.34 L 62.82 73.68 L 61.91 73.02 L 61.00 72.36 L 60.10 71.71 L 59.19 71.04 L 58.28 70.38 L 57.83 70.06 L 58.15 69.62 L 58.17 69.63 L 71.23 79.11 L 72.34 77.65 L 73.45 76.35 L 74.77 74.94 L 75.62 74.12 L 76.36 73.44 L 75.15 72.56 L 74.05 71.76 L 73.04 71.02 L 71.69 70.05 L 70.60 69.25 L 69.71 68.61 L 71.69 70.05 L 73.54 71.39 L 75.15 72.56 L 76.36 73.44 L 77.34 72.60 L 78.00 72.06 L 79.05 71.27 L 80.03 72.55 L 81.19 74.05 L 82.04 75.17 L 83.45 76.99 L 84.32 78.12 L 85.04 79.07 L 83.88 77.56 L 82.99 76.39 L 81.62 74.61 L 80.81 73.55 L 80.03 72.55 L 79.05 71.27 L 80.24 70.43 L 81.60 69.57 L 82.76 68.90 L 84.23 68.13 L 85.59 67.49 L 86.94 66.93 L 89.01 66.18 L 84.02 50.82 L 94.35 82.62 L 93.72 82.84 L 92.59 83.29 L 91.45 83.84 L 90.10 84.64 L 88.83 85.53 L 87.63 86.54 L 86.32 87.88 L 85.43 88.96 L 85.23 89.24 L 84.84 88.99 L 85.37 88.29 L 86.32 87.19 L 87.50 86.04 L 89.30 84.62 L 90.35 83.94 L 92.13 82.99 L 93.31 82.50 L 94.21 82.18 L 94.04 81.65 L 93.03 82.00 L 91.82 82.52 L 90.36 83.29 L 89.08 84.09 L 87.90 84.97 L 86.84 85.89 L 85.64 87.11 L 84.76 88.16 L 84.38 88.67 L 83.93 88.33 L 84.01 88.22 L 84.97 87.02 L 85.96 85.95 L 87.00 84.98 L 88.18 84.03 L 89.37 83.22 L 90.38 82.62 L 91.39 82.10 L 92.41 81.64 L 93.26 81.32 L 93.86 81.11 L 84.02 50.82 L 81.56 51.69 L 79.01 52.74 L 76.53 53.92 L 77.51 56.93 L 78.85 61.06 L 77.12 55.73 L 76.53 53.92 L 73.72 55.46 L 70.98 57.19 L 68.09 59.30 L 65.92 61.10 L 63.75 63.12 L 61.61 65.36 L 59.61 67.71 L 58.16 69.60 L 62.87 73.04 L 66.10 75.39 L 69.09 77.56 L 71.23 79.11 L 73.32 80.63 L 77.18 83.43 L 80.95 86.17 L 83.93 88.33 L 86.26 90.03 L 87.03 90.58 L 86.03 92.13 L 85.18 93.89 L 84.46 96.07 L 84.12 97.83 L 83.97 100.00 L 81.15 99.90 L 78.63 99.91 L 73.31 99.81 L 68.50 99.44 L 64.69 98.31 L 62.08 97.19 L 60.03 96.06 L 58.30 94.94 L 56.82 93.81 L 55.52 92.69 L 54.36 91.56 L 53.32 90.44 L 52.40 89.31 L 51.58 88.19 L 50.91 87.06 L 50.63 85.94 L 50.62 84.96 L 50.80 84.09 L 51.02 83.39 L 51.79 82.36 L 52.68 81.61 L 53.88 81.10 L 55.21 80.66 L 56.62 80.30 L 58.12 80.00 L 59.71 79.77 L 61.43 79.62 L 63.29 79.59 L 65.35 79.69 L 67.67 79.99 L 70.44 80.61 L 74.18 81.94 L 75.14 82.33 L 77.37 83.81 L 80.39 85.97 L 83.13 87.92 L 99.71 99.78 L 99.91 99.73 L 99.89 99.66 L 76.77 28.52 L 76.75 28.52 L 76.73 28.51 L 76.71 28.51 L 76.68 28.53 L 76.66 28.55 L 76.65 28.57 L 76.63 28.60 L 76.64 28.64 L 76.64 28.69 L 76.67 28.73 L 76.69 28.77 L 76.72 28.79 L 76.76 28.83 L 76.82 28.85 L 76.87 28.86 L 76.94 28.86 L 77.00 28.84 L 77.07 28.81 L 77.14 28.77 L 77.19 28.73 L 77.24 28.66 L 77.28 28.58 L 77.31 28.50 L 77.32 28.41 L 77.31 28.31 L 77.29 28.21 L 77.24 28.11 L 77.18 28.02 L 77.11 27.94 L 77.02 27.87 L 76.91 27.81 L 76.79 27.78 L 76.67 27.76 L 76.54 27.77 L 76.40 27.81 L 76.28 27.86 L 76.16 27.94 L 76.05 28.04 L 75.95 28.15 L 75.88 28.29 L 75.83 28.43 L 75.80 28.59 L 75.80 28.76 L 75.84 28.93 L 75.90 29.09 L 75.99 29.25 L 76.10 29.38 L 76.24 29.50 L 76.40 29.60 L 76.58 29.67 L 76.77 29.70 L 76.97 29.71 L 77.18 29.68 L 77.38 29.62 L 77.57 29.53 L 77.74 29.40 L 77.89 29.24 L 78.02 29.06 L 78.11 28.84 L 78.16 28.62 L 78.18 28.39 L 78.17 28.15 L 78.11 27.92 L 78.01 27.69 L 77.87 27.49 L 77.70 27.30 L 77.49 27.14 L 77.26 27.02 L 77.01 26.93 L 76.74 26.90 L 76.46 26.90 L 76.19 26.95 L 75.93 27.05 L 75.68 27.20 L 75.46 27.39 L 75.27 27.61 L 75.11 27.86 L 75.00 28.14 L 74.94 28.44 L 74.93 28.74 L 74.98 29.05 L 75.07 29.36 L 75.21 29.64 L 75.40 29.90 L 75.63 30.13 L 75.90 30.32 L 76.21 30.46 L 76.53 30.55 L 76.87 30.58 L 77.22 30.56 L 77.56 30.48 L 77.89 30.35 L 78.20 30.16 L 78.47 29.92 L 78.69 29.63 L 78.86 29.30 L 78.98 28.95 L 79.04 28.57 L 79.05 28.20 L 78.99 27.81 L 78.87 27.44 L 78.68 27.10 L 78.43 26.79 L 78.13 26.52 L 77.79 26.30 L 77.41 26.14 L 77.01 26.05 L 76.59 26.02 L 76.18 26.06 L 75.77 26.18 L 75.37 26.36 L 75.02 26.60 L 74.71 26.90 L 74.45 27.25 L 74.24 27.65 L 74.11 28.08 L 74.06 28.53 L 74.07 28.99 L 74.15 29.43 L 74.32 29.87 L 74.56 30.27 L 74.87 30.63 L 75.23 30.93 L 75.65 31.17 L 76.09 31.35 L 76.57 31.45 L 77.06 31.47 L 77.56 31.40 L 78.03 31.25 L 78.47 31.02 L 78.89 30.72 L 79.24 30.36 L 79.53 29.94 L 79.75 29.46 L 79.88 28.96 L 79.94 28.44 L 79.91 27.91 L 79.79 27.39 L 79.57 26.90 L 79.28 26.44 L 78.92 26.04 L 78.48 25.70 L 78.00 25.43 L 77.48 25.24 L 76.93 25.15 L 76.36 25.15 L 75.80 25.25 L 75.26 25.44 L 74.75 25.71 L 74.29 26.06 L 73.91 26.49 L 73.59 26.99 L 73.36 27.53 L 73.22 28.11 L 73.18 28.71 L 73.23 29.31 L 73.39 29.89 L 73.65 30.45 L 73.99 30.95 L 74.42 31.40 L 74.92 31.77 L 75.47 32.07 L 76.07 32.25 L 76.70 32.34 L 77.34 32.31 L 77.97 32.19 L 78.58 31.97 L 79.13 31.65 L 79.64 31.23 L 80.07 30.73 L 80.40 30.16 L 80.64 29.54 L 80.78 28.89 L 80.81 28.22 L 80.73 27.54 L 80.54 26.89 L 80.23 26.28 L 79.82 25.72 L 79.33 25.24 L 78.76 24.83 L 78.14 24.53 L 77.46 24.34 L 76.76 24.27 L 76.05 24.31 L 75.35 24.47 L 74.68 24.74 L 74.06 25.11 L 73.52 25.60 L 73.06 26.16 L 72.71 26.81 L 72.46 27.50 L 72.32 28.23 L 72.31 28.98 L 72.42 29.72 L 72.66 30.44 L 73.01 31.10 L 73.49 31.71 L 74.04 32.23 L 74.68 32.66 L 75.39 32.97 L 76.14 33.16 L 76.92 33.22 L 77.70 33.15 L 78.47 32.96 L 79.19 32.64 L 79.86 32.21 L 80.44 31.65 L 80.92 31.01 L 81.30 30.29 L 81.55 29.53 L 81.69 28.72 L 81.67 27.90 L 81.52 27.09 L 81.24 26.32 L 80.83 25.59 L 80.31 24.94 L 79.67 24.38 L 78.96 23.94 L 78.18 23.62 L 77.34 23.43 L 76.49 23.39 L 75.64 23.48 L 74.81 23.72 L 74.03 24.09 L 73.32 24.59 L 72.69 25.21 L 72.17 25.92 L 71.78 26.71 L 71.54 27.56 L 71.43 28.44 L 71.46 29.33 L 71.64 30.21 L 71.97 31.05 L 72.44 31.83 L 73.04 32.51 L 73.73 33.10 L 74.53 33.56 L 75.39 33.89 L 76.29 34.07 L 77.23 34.09 L 78.15 33.96 L 79.04 33.68 L 79.88 33.26 L 80.64 32.69 L 81.29 32.01 L 81.83 31.22 L 82.23 30.35 L 82.48 29.43 L 82.58 28.47 L 82.51 27.51 L 82.28 26.56 L 81.90 25.66 L 81.38 24.84 L 80.72 24.10 L 79.93 23.50 L 79.07 23.02 L 78.12 22.69 L 77.14 22.53 L 76.14 22.52 L 75.15 22.69 L 74.19 23.02 L 73.30 23.51 L 72.50 24.13 L 71.81 24.89 L 71.26 25.75 L 70.86 26.70 L 70.61 27.71 L 70.54 28.74 L 70.63 29.78 L 70.91 30.79 L 71.35 31.74 L 71.94 32.61 L 72.67 33.37 L 73.51 34.01 L 74.46 34.50 L 75.48 34.82 L 76.54 34.96 L 77.62 34.94 L 78.68 34.74 L 79.70 34.36 L 80.63 33.81 L 81.47 33.11 L 82.19 32.28 L 82.76 31.35 L 83.17 30.32 L 83.39 29.24 L 83.44 28.13 L 83.31 27.02 L 83.00 25.95 L 82.50 24.94 L 81.84 24.03 L 81.04 23.23 L 80.11 22.57 L 79.09 22.08 L 77.99 21.76 L 76.85 21.63 L 75.71 21.69 L 74.58 21.94 L 73.51 22.38 L 72.51 22.98 L 71.64 23.75 L 70.91 24.66 L 70.32 25.68 L 69.91 26.79 L 69.69 27.94 L 69.67 29.12 L 69.85 30.30 L 70.22 31.43 L 70.78 32.50 L 71.49 33.45 L 72.38 34.28 L 73.38 34.95 L 74.49 35.44 L 75.66 35.75 L 76.88 35.86 L 78.10 35.77 L 79.28 35.46 L 80.41 34.97 L 81.45 34.30 L 82.36 33.46 L 83.13 32.48 L 83.71 31.38 L 84.10 30.19 L 84.31 28.96 L 84.30 27.70 L 84.09 26.45 L 83.65 25.26 L 83.04 24.15 L 82.24 23.16 L 81.29 22.30 L 80.21 21.61 L 79.03 21.12 L 77.77 20.84 L 76.47 20.75 L 75.18 20.89 L 73.93 21.23 L 72.75 21.79 L 71.68 22.53 L 70.74 23.45 L 69.95 24.51 L 69.36 25.68 L 68.96 26.95 L 68.80 28.26 L 68.84 29.60 L 69.11 30.91 L 69.58 32.16 L 70.26 33.31 L 71.14 34.34 L 72.17 35.21 L 73.33 35.91 L 74.60 36.40 L 75.94 36.68 L 77.30 36.73 L 78.65 36.54 L 79.97 36.14 L 81.20 35.54 L 82.33 34.72 L 83.29 33.73 L 84.08 32.58 L 84.67 31.32 L 85.05 29.97 L 85.21 28.58 L 85.13 27.18 L 84.81 25.80 L 84.26 24.50 L 83.51 23.30 L 82.57 22.23 L 81.46 21.34 L 80.21 20.65 L 78.86 20.17 L 77.45 19.91 L 76.01 19.89 L 74.58 20.11 L 73.21 20.58 L 71.93 21.26 L 70.77 22.15 L 69.78 23.21 L 68.92 24.60 L 68.37 25.97 L 68.09 27.23 L 68.01 29.13 L 68.23 30.57 L 68.77 32.14 L 69.51 33.46 L 70.24 34.39 L 71.27 35.37 L 72.31 36.09 L 73.20 36.55 L 74.19 36.92 L 75.50 37.22 L 76.68 37.31 L 77.78 37.25 L 78.61 37.12 L 79.49 36.88 L 84.03 50.85 L 84.17 50.80 L 84.33 50.75 L 84.43 50.71 L 84.55 50.65 L 84.83 51.48 L 85.18 52.55 L 85.52 53.62 L 85.87 54.68 L 86.21 55.75 L 86.56 56.82 L 86.91 57.89 L 87.26 58.96 L 87.60 60.03 L 87.95 61.09 L 88.29 62.16 L 88.65 63.23 L 88.99 64.30 L 89.34 65.37 L 89.69 66.44 L 90.03 67.50 L 90.38 68.57 L 90.73 69.64 L 90.80 69.86 L 90.73 68.98 L 90.68 67.86 L 90.67 67.65 L 90.39 66.78 L 90.04 65.71 L 89.70 64.64 L 89.35 63.57 L 89.00 62.51 L 88.65 61.44 L 88.31 60.37 L 87.96 59.30 L 87.61 58.23 L 87.27 57.17 L 86.92 56.10 L 86.57 55.03 L 86.22 53.96 L 85.87 52.89 L 85.53 51.83 L 85.18 50.76 L 85.09 50.48 L 85.63 50.32 L 85.72 50.59 L 86.07 51.65 L 86.41 52.72 L 86.76 53.79 L 87.11 54.86 L 87.45 55.92 L 87.80 56.99 L 88.15 58.06 L 88.50 59.14 L 88.84 60.20 L 89.19 61.27 L 89.54 62.34 L 89.89 63.41 L 90.23 64.47 L 90.58 65.54 L 90.69 65.90 L 90.74 65.14 L 90.80 64.40 L 90.68 64.04 L 90.33 62.96 L 89.99 61.90 L 89.64 60.83 L 89.29 59.76 L 88.95 58.69 L 88.60 57.62 L 88.25 56.55 L 87.90 55.49 L 87.56 54.42 L 87.21 53.35 L 86.86 52.28 L 86.51 51.21 L 86.18 50.17 L 86.20 50.16 L 86.72 50.02 L 86.90 50.58 L 87.25 51.65 L 87.60 52.72 L 87.94 53.78 L 88.29 54.86 L 88.64 55.92 L 88.98 56.99 L 89.33 58.06 L 89.68 59.13 L 90.02 60.20 L 90.37 61.26 L 90.72 62.34 L 90.96 63.07 L 91.01 62.72 L 91.16 61.87 L 91.08 61.63 L 90.73 60.56 L 90.39 59.49 L 90.04 58.42 L 89.69 57.35 L 89.34 56.28 L 89.00 55.22 L 88.65 54.14 L 88.30 53.08 L 87.95 52.01 L 87.61 50.94 L 87.26 49.88 L 87.27 49.88 L 87.81 49.74 L 87.99 50.28 L 88.33 51.35 L 88.68 52.42 L 89.03 53.49 L 89.38 54.56 L 89.72 55.63 L 90.07 56.69 L 90.42 57.77 L 90.76 58.83 L 91.11 59.90 L 91.39 60.77 L 91.44 60.55 L 91.65 59.74 L 91.57 59.48 L 91.22 58.40 L 90.87 57.33 L 90.52 56.27 L 90.17 55.20 L 89.83 54.13 L 89.48 53.06 L 89.13 51.99 L 88.78 50.93 L 88.44 49.85 L 88.36 49.61 L 88.91 49.49 L 89.01 49.78 L 89.35 50.85 L 89.70 51.91 L 90.05 52.98 L 90.39 54.05 L 90.74 55.12 L 91.09 56.19 L 91.43 57.25 L 91.78 58.32 L 91.93 58.78 L 92.13 58.16 L 92.23 57.88 L 91.98 57.10 L 91.63 56.03 L 91.28 54.96 L 90.93 53.89 L 90.58 52.83 L 90.24 51.76 L 89.89 50.69 L 89.55 49.62 L 89.46 49.37 L 90.02 49.26 L 90.11 49.54 L 90.46 50.61 L 90.81 51.68 L 91.15 52.74 L 91.50 53.81 L 91.85 54.88 L 92.19 55.96 L 92.54 57.02 L 92.54 57.02 L 92.87 56.21 L 92.79 55.97 L 92.45 54.91 L 92.10 53.84 L 91.75 52.76 L 91.41 51.70 L 91.06 50.63 L 90.71 49.56 L 90.57 49.15 L 91.13 49.05 L 91.18 49.17 L 91.52 50.24 L 91.87 51.31 L 92.22 52.37 L 92.56 53.45 L 92.91 54.51 L 93.21 55.43 L 93.28 55.30 L 93.56 54.69 L 93.42 54.26 L 93.07 53.19 L 92.72 52.12 L 92.38 51.05 L 92.03 49.98 L 91.69 48.96 L 91.74 48.95 L 92.26 48.87 L 92.44 49.44 L 92.79 50.51 L 93.14 51.58 L 93.49 52.65 L 93.83 53.72 L 93.92 53.99 L 94.29 53.30 L 94.27 53.24 L 93.92 52.18 L 93.58 51.11 L 93.23 50.04 L 92.88 48.97 L 92.82 48.79 L 93.39 48.71 L 93.50 49.05 L 93.85 50.12 L 94.19 51.19 L 94.54 52.26 L 94.67 52.65 L 95.04 52.06 L 95.06 52.03 L 94.72 50.99 L 94.37 49.92 L 94.03 48.86 L 93.96 48.64 L 94.53 48.58 L 94.63 48.88 L 94.97 49.95 L 95.32 51.02 L 95.45 51.42 L 95.85 50.85 L 95.86 50.85 L 95.51 49.78 L 95.16 48.71 L 95.10 48.52 L 95.68 48.47 L 95.78 48.79 L 96.13 49.86 L 96.27 50.30 L 96.68 49.77 L 96.68 49.75 L 96.35 48.70 L 96.25 48.42 L 96.83 48.38 L 96.91 48.62 L 97.13 49.31 L 97.45 49.08 L 97.62 48.97 L 97.42 48.35 L 97.68 48.34 L 97.99 48.32 L 98.12 48.70 L 98.51 48.54 L 99.60 48.31 L 100.72 48.34 L 101.80 48.66 L 101.88 48.70 L 102.01 48.32 L 102.58 48.35 L 102.57 48.40 L 102.38 48.97 L 102.81 49.27 L 102.87 49.31 L 103.17 48.38 L 103.25 48.39 L 103.75 48.42 L 103.55 49.01 L 103.32 49.75 L 103.52 50.03 L 103.73 50.30 L 103.97 49.55 L 104.32 48.48 L 104.32 48.47 L 104.90 48.52 L 104.73 49.02 L 104.39 50.09 L 104.14 50.85 L 104.33 51.11 L 104.55 51.42 L 104.78 50.71 L 105.12 49.64 L 105.47 48.58 L 105.47 48.58 L 106.04 48.64 L 105.87 49.16 L 105.52 50.23 L 105.18 51.30 L 104.94 52.03 L 105.13 52.33 L 105.33 52.65 L 105.56 51.95 L 105.91 50.88 L 106.25 49.81 L 106.60 48.75 L 106.61 48.71 L 107.18 48.79 L 107.02 49.28 L 106.67 50.35 L 106.32 51.41 L 105.98 52.49 L 105.71 53.30 L 105.83 53.54 L 106.08 53.99 L 106.27 53.40 L 106.61 52.34 L 106.96 51.27 L 107.31 50.21 L 107.66 49.13 L 107.74 48.87 L 108.31 48.96 L 108.22 49.22 L 107.87 50.29 L 107.53 51.36 L 107.18 52.42 L 106.83 53.49 L 106.48 54.56 L 106.44 54.69 L 106.79 55.43 L 106.84 55.28 L 107.19 54.21 L 107.54 53.14 L 107.88 52.07 L 108.23 51.00 L 108.58 49.93 L 108.87 49.05 L 109.06 49.09 L 109.43 49.15 L 109.19 49.87 L 108.84 50.94 L 108.50 52.00 L 108.15 53.07 L 107.80 54.15 L 107.45 55.21 L 107.13 56.21 L 107.16 56.28 L 107.46 57.02 L 107.56 56.72 L 107.91 55.65 L 108.25 54.57 L 108.60 53.51 L 108.95 52.44 L 109.30 51.37 L 109.64 50.30 L 109.98 49.26 L 110.01 49.26 L 110.54 49.37 L 110.35 49.93 L 110.01 51.00 L 109.66 52.07 L 109.31 53.14 L 108.96 54.20 L 108.62 55.27 L 108.27 56.33 L 107.93 57.41 L 107.77 57.88 L 107.97 58.48 L 108.07 58.78 L 108.32 58.02 L 108.66 56.95 L 109.01 55.88 L 109.36 54.82 L 109.71 53.74 L 110.05 52.67 L 110.40 51.61 L 110.75 50.54 L 111.09 49.49 L 111.11 49.49 L 111.64 49.61 L 111.46 50.16 L 111.11 51.24 L 110.77 52.30 L 110.42 53.37 L 110.07 54.44 L 109.72 55.51 L 109.38 56.58 L 109.03 57.64 L 108.68 58.71 L 108.35 59.74 L 108.36 59.78 L 108.61 60.77 L 108.64 60.66 L 108.99 59.60 L 109.34 58.52 L 109.68 57.46 L 110.03 56.39 L 110.38 55.32 L 110.73 54.25 L 111.07 53.18 L 111.42 52.11 L 111.77 51.05 L 112.11 49.98 L 112.19 49.74 L 112.73 49.88 L 112.64 50.18 L 112.29 51.25 L 111.94 52.31 L 111.59 53.39 L 111.25 54.45 L 110.90 55.52 L 110.55 56.59 L 110.21 57.66 L 109.86 58.73 L 109.51 59.80 L 109.17 60.87 L 108.84 61.87 L 108.85 61.94 L 109.04 63.05 L 109.04 63.07 L 109.38 62.03 L 109.73 60.95 L 110.08 59.89 L 110.42 58.82 L 110.77 57.76 L 111.12 56.68 L 111.46 55.62 L 111.81 54.55 L 112.16 53.48 L 112.51 52.41 L 112.85 51.34 L 113.20 50.27 L 113.28 50.02 L 113.82 50.17 L 113.73 50.45 L 113.39 51.52 L 113.04 52.58 L 112.69 53.66 L 112.34 54.73 L 112.00 55.79 L 111.65 56.86 L 111.30 57.93 L 110.96 58.99 L 110.61 60.07 L 110.26 61.14 L 109.91 62.20 L 109.57 63.27 L 109.22 64.34 L 109.20 64.40 L 109.28 65.46 L 109.31 65.90 L 109.52 65.24 L 109.87 64.16 L 110.22 63.10 L 110.56 62.03 L 110.91 60.96 L 111.26 59.89 L 111.60 58.83 L 111.95 57.76 L 112.30 56.69 L 112.65 55.61 L 112.99 54.55 L 113.34 53.48 L 113.69 52.41 L 114.03 51.34 L 114.37 50.32 L 114.42 50.34 L 114.91 50.48 L 114.72 51.06 L 114.37 52.13 L 114.02 53.19 L 113.68 54.27 L 113.33 55.34 L 112.98 56.41 L 112.63 57.48 L 112.29 58.54 L 111.94 59.61 L 111.59 60.68 L 111.24 61.75 L 110.90 62.82 L 110.55 63.88 L 110.20 64.95 L 109.86 66.02 L 109.51 67.09 L 109.33 67.65 L 109.31 68.19 L 109.25 69.31 L 109.20 69.86 L 109.37 69.33 L 109.72 68.26 L 110.07 67.19 L 110.41 66.13 L 110.76 65.06 L 111.11 63.99 L 111.46 62.92 L 111.80 61.85 L 112.15 60.78 L 112.50 59.72 L 112.85 58.65 L 113.19 57.58 L 113.54 56.51 L 113.89 55.44 L 114.24 54.37 L 114.58 53.31 L 114.93 52.24 L 115.28 51.17 L 115.45 50.65 L 115.97 50.81 L 115.96 50.84 L 110.98 66.18 L 112.71 66.79 L 114.29 67.44 L 116.04 68.26 L 117.08 68.81 L 117.96 69.31 L 118.42 67.88 L 118.84 66.59 L 119.23 65.40 L 119.74 63.82 L 120.16 62.54 L 120.50 61.49 L 119.74 63.82 L 119.03 65.99 L 118.42 67.88 L 117.96 69.31 L 119.06 69.98 L 119.77 70.44 L 120.85 71.20 L 119.94 72.53 L 118.86 74.09 L 118.07 75.25 L 116.76 77.15 L 115.96 78.32 L 115.29 79.30 L 116.36 77.73 L 117.19 76.52 L 118.47 74.67 L 119.22 73.57 L 119.94 72.53 L 120.85 71.20 L 122.01 72.07 L 123.25 73.10 L 124.25 74.00 L 125.43 75.15 L 126.46 76.25 L 127.42 77.36 L 128.77 79.10 L 141.84 69.60 L 114.79 89.26 L 114.38 88.72 L 113.60 87.79 L 112.72 86.88 L 111.55 85.83 L 110.31 84.90 L 108.97 84.08 L 107.30 83.24 L 106.00 82.73 L 105.67 82.63 L 105.79 82.18 L 106.61 82.47 L 107.96 83.03 L 109.42 83.80 L 111.32 85.07 L 112.30 85.86 L 113.74 87.26 L 114.58 88.23 L 115.16 88.99 L 115.61 88.66 L 114.96 87.82 L 114.10 86.82 L 112.91 85.66 L 111.76 84.70 L 110.56 83.85 L 109.35 83.12 L 107.82 82.36 L 106.55 81.85 L 105.95 81.65 L 106.13 81.11 L 106.26 81.15 L 107.70 81.69 L 109.03 82.31 L 110.27 83.00 L 111.53 83.83 L 112.67 84.70 L 113.56 85.48 L 114.36 86.28 L 115.11 87.11 L 115.69 87.82 L 116.07 88.33 L 141.84 69.60 L 140.25 67.53 L 138.47 65.44 L 136.57 63.44 L 134.02 65.30 L 130.50 67.85 L 135.03 64.56 L 136.57 63.44 L 134.24 61.24 L 131.74 59.18 L 128.84 57.08 L 126.46 55.57 L 123.88 54.13 L 121.08 52.78 L 118.23 51.60 L 115.98 50.82 L 114.17 56.36 L 112.94 60.15 L 111.79 63.67 L 110.98 66.18 L 110.18 68.64 L 108.71 73.18 L 107.27 77.61 L 106.13 81.11 L 105.24 83.86 L 104.95 84.75 L 103.17 84.29 L 101.23 84.02 L 98.93 84.01 L 97.16 84.22 L 95.05 84.76 L 94.27 82.04 L 93.48 79.65 L 91.94 74.55 L 90.80 69.86 L 90.69 65.90 L 90.96 63.07 L 91.39 60.77 L 91.93 58.78 L 92.54 57.02 L 93.21 55.43 L 93.92 53.99 L 94.67 52.65 L 95.45 51.42 L 96.27 50.30 L 97.13 49.31 L 98.12 48.70 L 99.05 48.39 L 99.93 48.29 L 100.66 48.29 L 101.88 48.70 L 102.87 49.31 L 103.73 50.30 L 104.55 51.42 L 105.33 52.65 L 106.08 53.99 L 106.79 55.43 L 107.46 57.02 L 108.07 58.78 L 108.61 60.77 L 109.04 63.07 L 109.31 65.90 L 109.20 69.86 L 109.12 70.89 L 108.40 73.48 L 107.28 77.01 L 106.28 80.22 L 100.12 99.66 L 100.23 99.83 L 100.33 99.76 L 160.81 55.82 L 160.80 55.81 L 160.80 55.78 L 160.79 55.75 L 160.77 55.74 L 160.74 55.72 L 160.71 55.71 L 160.68 55.72 L 160.65 55.73 L 160.61 55.75 L 160.57 55.78 L 160.55 55.82 L 160.53 55.85 L 160.51 55.91 L 160.50 55.96 L 160.51 56.02 L 160.53 56.08 L 160.57 56.14 L 160.62 56.19 L 160.68 56.24 L 160.74 56.29 L 160.82 56.32 L 160.90 56.33 L 160.99 56.33 L 161.08 56.31 L 161.17 56.27 L 161.25 56.22 L 161.34 56.15 L 161.40 56.05 L 161.46 55.96 L 161.50 55.86 L 161.52 55.74 L 161.52 55.61 L 161.49 55.48 L 161.44 55.37 L 161.37 55.25 L 161.28 55.14 L 161.17 55.05 L 161.04 54.98 L 160.91 54.93 L 160.75 54.90 L 160.60 54.89 L 160.44 54.92 L 160.28 54.97 L 160.13 55.06 L 160.00 55.16 L 159.87 55.30 L 159.78 55.45 L 159.70 55.61 L 159.66 55.80 L 159.65 56.00 L 159.68 56.19 L 159.73 56.38 L 159.82 56.57 L 159.94 56.73 L 160.09 56.89 L 160.26 57.01 L 160.46 57.11 L 160.67 57.17 L 160.91 57.19 L 161.14 57.17 L 161.37 57.12 L 161.59 57.03 L 161.79 56.91 L 161.98 56.74 L 162.13 56.55 L 162.24 56.32 L 162.33 56.07 L 162.37 55.82 L 162.38 55.55 L 162.34 55.29 L 162.25 55.03 L 162.12 54.78 L 161.94 54.57 L 161.72 54.38 L 161.48 54.23 L 161.21 54.11 L 160.92 54.04 L 160.62 54.02 L 160.32 54.05 L 160.02 54.14 L 159.74 54.27 L 159.49 54.46 L 159.26 54.68 L 159.06 54.94 L 158.92 55.23 L 158.82 55.55 L 158.78 55.88 L 158.80 56.22 L 158.88 56.56 L 159.00 56.88 L 159.18 57.17 L 159.41 57.45 L 159.68 57.68 L 160.00 57.86 L 160.34 57.99 L 160.71 58.05 L 161.08 58.05 L 161.46 58.00 L 161.82 57.89 L 162.16 57.71 L 162.48 57.48 L 162.74 57.20 L 162.96 56.86 L 163.12 56.49 L 163.23 56.10 L 163.26 55.69 L 163.23 55.29 L 163.13 54.88 L 162.95 54.49 L 162.72 54.14 L 162.43 53.83 L 162.09 53.56 L 161.71 53.35 L 161.29 53.22 L 160.85 53.15 L 160.40 53.16 L 159.95 53.24 L 159.52 53.39 L 159.13 53.62 L 158.76 53.91 L 158.46 54.26 L 158.21 54.66 L 158.04 55.10 L 157.93 55.57 L 157.90 56.05 L 157.95 56.54 L 158.09 57.01 L 158.31 57.45 L 158.60 57.86 L 158.95 58.21 L 159.36 58.51 L 159.81 58.74 L 160.31 58.88 L 160.82 58.94 L 161.35 58.91 L 161.86 58.81 L 162.35 58.61 L 162.80 58.34 L 163.21 57.99 L 163.56 57.57 L 163.82 57.09 L 164.02 56.58 L 164.13 56.03 L 164.14 55.48 L 164.06 54.92 L 163.88 54.39 L 163.62 53.89 L 163.27 53.43 L 162.85 53.04 L 162.38 52.71 L 161.85 52.47 L 161.28 52.32 L 160.69 52.27 L 160.09 52.31 L 159.51 52.46 L 158.96 52.69 L 158.45 53.02 L 158.00 53.44 L 157.63 53.93 L 157.34 54.47 L 157.14 55.06 L 157.03 55.68 L 157.04 56.31 L 157.15 56.93 L 157.37 57.53 L 157.68 58.09 L 158.08 58.60 L 158.56 59.03 L 159.11 59.39 L 159.72 59.63 L 160.37 59.77 L 161.03 59.82 L 161.69 59.75 L 162.34 59.57 L 162.96 59.29 L 163.51 58.90 L 164.00 58.42 L 164.41 57.86 L 164.71 57.24 L 164.93 56.58 L 165.02 55.88 L 164.99 55.18 L 164.84 54.49 L 164.58 53.83 L 164.21 53.21 L 163.75 52.66 L 163.21 52.19 L 162.58 51.82 L 161.90 51.56 L 161.17 51.43 L 160.43 51.40 L 159.70 51.49 L 158.99 51.71 L 158.32 52.05 L 157.71 52.50 L 157.19 53.05 L 156.76 53.68 L 156.43 54.37 L 156.22 55.11 L 156.14 55.88 L 156.20 56.65 L 156.38 57.41 L 156.69 58.14 L 157.11 58.80 L 157.63 59.40 L 158.25 59.89 L 158.96 60.28 L 159.72 60.54 L 160.51 60.67 L 161.32 60.68 L 162.13 60.55 L 162.91 60.29 L 163.63 59.90 L 164.28 59.39 L 164.85 58.77 L 165.30 58.07 L 165.64 57.31 L 165.84 56.49 L 165.89 55.64 L 165.82 54.79 L 165.60 53.97 L 165.25 53.18 L 164.77 52.47 L 164.16 51.84 L 163.47 51.32 L 162.70 50.92 L 161.86 50.64 L 160.98 50.52 L 160.10 50.54 L 159.23 50.71 L 158.39 51.02 L 157.61 51.47 L 156.91 52.03 L 156.32 52.73 L 155.85 53.50 L 155.52 54.35 L 155.31 55.24 L 155.27 56.16 L 155.38 57.08 L 155.64 57.97 L 156.06 58.81 L 156.60 59.57 L 157.25 60.24 L 158.03 60.78 L 158.88 61.20 L 159.80 61.46 L 160.75 61.57 L 161.70 61.53 L 162.64 61.33 L 163.54 60.96 L 164.37 60.45 L 165.11 59.81 L 165.73 59.06 L 166.22 58.20 L 166.56 57.28 L 166.74 56.30 L 166.77 55.31 L 166.62 54.32 L 166.32 53.36 L 165.85 52.47 L 165.24 51.67 L 164.50 50.98 L 163.65 50.40 L 162.72 49.98 L 161.73 49.72 L 160.70 49.63 L 159.68 49.71 L 158.67 49.96 L 157.71 50.38 L 156.83 50.94 L 156.07 51.65 L 155.42 52.49 L 154.92 53.41 L 154.57 54.41 L 154.41 55.47 L 154.41 56.54 L 154.61 57.59 L 154.96 58.61 L 155.48 59.56 L 156.15 60.40 L 156.97 61.13 L 157.89 61.71 L 158.90 62.13 L 159.97 62.39 L 161.07 62.46 L 162.17 62.34 L 163.24 62.04 L 164.25 61.58 L 165.17 60.94 L 165.98 60.16 L 166.64 59.26 L 167.15 58.25 L 167.49 57.16 L 167.64 56.03 L 167.61 54.89 L 167.39 53.77 L 166.97 52.70 L 166.38 51.70 L 165.63 50.82 L 164.76 50.06 L 163.75 49.46 L 162.66 49.05 L 161.51 48.81 L 160.34 48.77 L 159.17 48.91 L 158.04 49.25 L 156.97 49.79 L 156.01 50.50 L 155.17 51.35 L 154.49 52.33 L 153.97 53.42 L 153.64 54.58 L 153.52 55.79 L 153.59 57.00 L 153.86 58.18 L 154.32 59.32 L 154.97 60.35 L 155.79 61.28 L 156.75 62.05 L 157.83 62.66 L 159.00 63.08 L 160.23 63.31 L 161.48 63.31 L 162.72 63.12 L 163.91 62.72 L 165.03 62.14 L 166.04 61.36 L 166.90 60.43 L 167.59 59.36 L 168.11 58.19 L 168.43 56.95 L 168.54 55.67 L 168.41 54.39 L 168.10 53.13 L 167.57 51.96 L 166.86 50.86 L 165.97 49.91 L 164.92 49.12 L 163.76 48.51 L 162.52 48.10 L 161.21 47.89 L 159.89 47.91 L 158.58 48.15 L 157.33 48.61 L 156.16 49.27 L 155.12 50.10 L 154.24 51.11 L 153.52 52.26 L 153.02 53.51 L 152.72 54.84 L 152.63 56.19 L 152.78 57.55 L 153.16 58.86 L 153.76 60.09 L 154.54 61.22 L 155.50 62.21 L 156.62 63.02 L 157.87 63.63 L 159.20 64.02 L 160.58 64.20 L 161.98 64.15 L 163.35 63.86 L 164.66 63.36 L 165.87 62.62 L 166.94 61.70 L 167.85 60.61 L 168.57 59.39 L 169.08 58.07 L 169.35 56.66 L 169.39 55.23 L 169.20 53.80 L 168.78 52.42 L 168.12 51.14 L 167.25 49.98 L 166.21 48.97 L 165.01 48.14 L 163.69 47.52 L 162.11 47.14 L 160.64 47.04 L 159.34 47.16 L 157.51 47.68 L 156.22 48.33 L 154.89 49.33 L 153.86 50.43 L 153.20 51.42 L 152.59 52.70 L 152.23 53.92 L 152.07 54.91 L 152.02 55.96 L 152.14 57.31 L 152.42 58.45 L 152.81 59.48 L 153.20 60.23 L 153.69 60.99 L 141.81 69.63 L 141.90 69.74 L 142.00 69.88 L 142.06 69.96 L 142.17 70.06 L 141.46 70.57 L 140.55 71.24 L 139.64 71.89 L 138.74 72.55 L 137.83 73.21 L 136.92 73.87 L 136.00 74.53 L 135.10 75.20 L 134.18 75.86 L 133.28 76.52 L 132.37 77.18 L 131.46 77.84 L 130.55 78.50 L 129.64 79.16 L 128.73 79.82 L 127.83 80.48 L 126.92 81.14 L 126.01 81.80 L 125.82 81.94 L 126.63 81.60 L 127.68 81.20 L 127.88 81.13 L 128.62 80.60 L 129.53 79.94 L 130.44 79.27 L 131.35 78.61 L 132.26 77.96 L 133.17 77.30 L 134.08 76.63 L 134.99 75.97 L 135.90 75.31 L 136.80 74.66 L 137.71 73.99 L 138.62 73.33 L 139.53 72.67 L 140.44 72.01 L 141.34 71.35 L 142.26 70.69 L 142.49 70.52 L 142.81 70.98 L 142.58 71.15 L 141.68 71.80 L 140.77 72.47 L 139.86 73.13 L 138.95 73.79 L 138.04 74.45 L 137.13 75.11 L 136.22 75.77 L 135.31 76.43 L 134.41 77.09 L 133.50 77.75 L 132.59 78.41 L 131.67 79.07 L 130.77 79.73 L 129.86 80.39 L 129.56 80.61 L 130.29 80.42 L 131.02 80.25 L 131.32 80.02 L 132.24 79.36 L 133.14 78.70 L 134.05 78.04 L 134.96 77.38 L 135.87 76.72 L 136.78 76.06 L 137.69 75.40 L 138.59 74.74 L 139.50 74.08 L 140.42 73.42 L 141.33 72.75 L 142.23 72.10 L 143.12 71.45 L 143.13 71.47 L 143.43 71.92 L 142.95 72.27 L 142.04 72.93 L 141.13 73.59 L 140.23 74.25 L 139.32 74.91 L 138.41 75.57 L 137.50 76.23 L 136.59 76.89 L 135.68 77.55 L 134.77 78.22 L 133.86 78.87 L 132.95 79.53 L 132.33 79.99 L 132.68 79.93 L 133.53 79.81 L 133.74 79.66 L 134.65 79.00 L 135.55 78.34 L 136.47 77.68 L 137.37 77.02 L 138.29 76.35 L 139.19 75.70 L 140.11 75.03 L 141.01 74.38 L 141.92 73.71 L 142.83 73.05 L 143.73 72.40 L 143.74 72.40 L 144.03 72.88 L 143.57 73.21 L 142.67 73.87 L 141.75 74.53 L 140.85 75.19 L 139.93 75.85 L 139.03 76.51 L 138.12 77.17 L 137.21 77.83 L 136.30 78.49 L 135.39 79.15 L 134.65 79.69 L 134.87 79.67 L 135.70 79.62 L 135.93 79.46 L 136.85 78.79 L 137.76 78.13 L 138.66 77.47 L 139.57 76.81 L 140.48 76.15 L 141.39 75.49 L 142.30 74.83 L 143.21 74.17 L 144.12 73.51 L 144.32 73.36 L 144.61 73.84 L 144.36 74.03 L 143.46 74.68 L 142.55 75.34 L 141.64 76.00 L 140.73 76.66 L 139.83 77.32 L 138.92 77.99 L 138.01 78.65 L 137.10 79.30 L 136.71 79.59 L 137.36 79.59 L 137.66 79.59 L 138.32 79.11 L 139.23 78.45 L 140.14 77.79 L 141.05 77.13 L 141.96 76.47 L 142.87 75.81 L 143.78 75.15 L 144.68 74.49 L 144.90 74.34 L 145.17 74.83 L 144.93 75.00 L 144.02 75.66 L 143.11 76.32 L 142.21 76.98 L 141.30 77.64 L 140.39 78.30 L 139.48 78.96 L 138.57 79.62 L 138.57 79.62 L 139.45 79.68 L 139.65 79.54 L 140.55 78.88 L 141.46 78.22 L 142.38 77.56 L 143.28 76.90 L 144.19 76.24 L 145.10 75.58 L 145.45 75.33 L 145.72 75.83 L 145.61 75.90 L 144.71 76.56 L 143.80 77.22 L 142.89 77.88 L 141.97 78.54 L 141.07 79.20 L 140.29 79.77 L 140.44 79.79 L 141.10 79.87 L 141.47 79.60 L 142.38 78.95 L 143.29 78.28 L 144.19 77.62 L 145.11 76.96 L 145.98 76.33 L 146.00 76.37 L 146.24 76.84 L 145.75 77.19 L 144.84 77.85 L 143.93 78.51 L 143.02 79.17 L 142.11 79.83 L 141.88 80.00 L 142.65 80.14 L 142.70 80.10 L 143.60 79.45 L 144.51 78.78 L 145.43 78.12 L 146.34 77.46 L 146.49 77.35 L 146.74 77.87 L 146.45 78.07 L 145.54 78.74 L 144.63 79.40 L 143.72 80.06 L 143.38 80.30 L 144.06 80.47 L 144.09 80.48 L 144.98 79.84 L 145.89 79.18 L 146.79 78.52 L 146.98 78.38 L 147.22 78.90 L 146.96 79.09 L 146.05 79.76 L 145.14 80.41 L 144.79 80.66 L 145.47 80.86 L 145.47 80.87 L 146.37 80.21 L 147.28 79.55 L 147.45 79.43 L 147.67 79.96 L 147.40 80.16 L 146.49 80.82 L 146.12 81.10 L 146.74 81.32 L 146.76 81.32 L 147.66 80.67 L 147.90 80.50 L 148.11 81.03 L 147.91 81.18 L 147.32 81.61 L 147.64 81.83 L 147.79 81.96 L 148.32 81.58 L 148.42 81.83 L 148.53 82.13 L 148.21 82.36 L 148.48 82.68 L 149.04 83.65 L 149.35 84.72 L 149.38 85.84 L 149.37 85.94 L 149.77 85.94 L 149.92 86.50 L 149.86 86.50 L 149.27 86.50 L 149.11 87.00 L 149.09 87.06 L 150.07 87.06 L 150.09 87.14 L 150.21 87.62 L 149.59 87.63 L 148.81 87.63 L 148.61 87.91 L 148.42 88.19 L 149.21 88.19 L 150.33 88.19 L 150.35 88.19 L 150.48 88.75 L 149.95 88.75 L 148.82 88.75 L 148.03 88.75 L 147.83 89.02 L 147.60 89.31 L 148.35 89.31 L 149.47 89.31 L 150.60 89.31 L 150.60 89.31 L 150.71 89.87 L 150.16 89.87 L 149.04 89.88 L 147.92 89.87 L 147.15 89.88 L 146.92 90.15 L 146.68 90.44 L 147.42 90.44 L 148.54 90.44 L 149.67 90.44 L 150.79 90.44 L 150.82 90.44 L 150.93 91.00 L 150.40 91.00 L 149.28 91.00 L 148.16 91.00 L 147.04 91.00 L 146.17 91.00 L 145.99 91.19 L 145.64 91.56 L 146.25 91.56 L 147.37 91.56 L 148.49 91.56 L 149.62 91.57 L 150.75 91.56 L 151.02 91.56 L 151.11 92.12 L 150.84 92.12 L 149.71 92.13 L 148.59 92.12 L 147.47 92.13 L 146.34 92.13 L 145.22 92.13 L 145.08 92.12 L 144.48 92.69 L 144.65 92.69 L 145.77 92.69 L 146.90 92.69 L 148.02 92.69 L 149.15 92.69 L 150.27 92.69 L 151.19 92.69 L 151.22 92.88 L 151.27 93.25 L 150.52 93.25 L 149.39 93.25 L 148.27 93.25 L 147.15 93.25 L 146.02 93.25 L 144.90 93.25 L 143.85 93.25 L 143.80 93.30 L 143.18 93.81 L 143.50 93.81 L 144.63 93.81 L 145.75 93.81 L 146.87 93.82 L 148.00 93.81 L 149.12 93.81 L 150.25 93.81 L 151.34 93.81 L 151.35 93.84 L 151.41 94.37 L 150.82 94.38 L 149.70 94.38 L 148.57 94.38 L 147.45 94.38 L 146.32 94.38 L 145.20 94.38 L 144.08 94.38 L 142.96 94.38 L 142.46 94.38 L 141.95 94.75 L 141.70 94.94 L 142.49 94.94 L 143.62 94.94 L 144.74 94.94 L 145.86 94.94 L 147.00 94.94 L 148.12 94.94 L 149.24 94.94 L 150.36 94.94 L 151.47 94.94 L 151.47 94.96 L 151.52 95.50 L 150.94 95.50 L 149.81 95.50 L 148.69 95.50 L 147.57 95.50 L 146.45 95.50 L 145.32 95.50 L 144.20 95.50 L 143.07 95.50 L 141.95 95.50 L 140.86 95.50 L 140.83 95.52 L 139.97 96.06 L 140.08 96.06 L 141.20 96.06 L 142.33 96.06 L 143.45 96.06 L 144.57 96.06 L 145.70 96.06 L 146.82 96.06 L 147.95 96.06 L 149.07 96.06 L 150.19 96.06 L 151.32 96.06 L 151.56 96.06 L 151.60 96.63 L 151.29 96.63 L 150.16 96.62 L 149.04 96.63 L 147.91 96.63 L 146.80 96.63 L 145.67 96.62 L 144.55 96.63 L 143.42 96.62 L 142.30 96.63 L 141.17 96.62 L 140.05 96.62 L 139.00 96.63 L 138.93 96.66 L 137.94 97.18 L 137.92 97.19 L 139.01 97.19 L 140.14 97.19 L 141.26 97.19 L 142.39 97.19 L 143.51 97.19 L 144.63 97.19 L 145.75 97.19 L 146.88 97.19 L 148.00 97.19 L 149.12 97.19 L 150.25 97.19 L 151.38 97.19 L 151.64 97.19 L 151.67 97.75 L 151.37 97.75 L 150.24 97.75 L 149.12 97.75 L 148.00 97.75 L 146.87 97.75 L 145.75 97.75 L 144.63 97.75 L 143.50 97.75 L 142.38 97.75 L 141.26 97.75 L 140.13 97.75 L 139.01 97.75 L 137.89 97.75 L 136.76 97.75 L 136.71 97.75 L 135.72 98.16 L 135.31 98.31 L 136.01 98.31 L 137.13 98.31 L 138.25 98.31 L 139.37 98.31 L 140.50 98.31 L 141.63 98.31 L 142.74 98.31 L 143.87 98.31 L 145.00 98.31 L 146.12 98.31 L 147.24 98.31 L 148.36 98.31 L 149.49 98.31 L 150.61 98.31 L 151.69 98.31 L 151.69 98.36 L 151.70 98.87 L 151.09 98.88 L 149.96 98.88 L 148.85 98.88 L 147.72 98.87 L 146.60 98.88 L 145.47 98.88 L 144.35 98.87 L 143.23 98.88 L 142.10 98.88 L 140.98 98.87 L 139.85 98.88 L 138.73 98.88 L 137.61 98.88 L 136.49 98.88 L 135.36 98.88 L 134.24 98.87 L 133.65 98.88 L 133.13 99.03 L 132.05 99.31 L 131.50 99.44 L 132.06 99.44 L 133.19 99.44 L 134.31 99.44 L 135.43 99.44 L 136.55 99.44 L 137.68 99.44 L 138.80 99.44 L 139.93 99.44 L 141.05 99.44 L 142.17 99.44 L 143.30 99.44 L 144.42 99.44 L 145.55 99.44 L 146.67 99.44 L 147.80 99.44 L 148.91 99.44 L 150.04 99.44 L 151.16 99.44 L 151.71 99.44 L 151.71 99.98 L 151.69 99.98 L 135.56 99.99 L 135.51 101.82 L 135.38 103.53 L 135.14 105.44 L 134.94 106.61 L 134.74 107.59 L 136.24 107.60 L 137.60 107.59 L 138.85 107.59 L 140.51 107.59 L 141.86 107.60 L 142.96 107.60 L 140.51 107.59 L 138.22 107.59 L 136.24 107.60 L 134.74 107.59 L 134.44 108.85 L 134.22 109.67 L 133.84 110.93 L 132.29 110.47 L 130.47 109.94 L 129.12 109.54 L 126.91 108.88 L 125.55 108.48 L 124.41 108.14 L 126.23 108.68 L 127.64 109.10 L 129.80 109.74 L 131.08 110.11 L 132.29 110.47 L 133.84 110.93 L 133.36 112.30 L 132.77 113.80 L 132.23 115.03 L 131.49 116.51 L 130.77 117.83 L 130.01 119.08 L 128.77 120.90 L 141.84 130.40 L 114.79 110.74 L 115.17 110.19 L 115.82 109.16 L 116.41 108.05 L 117.04 106.61 L 117.54 105.14 L 117.92 103.61 L 118.19 101.77 L 118.28 100.37 L 118.27 100.02 L 118.74 99.99 L 118.72 100.87 L 118.59 102.33 L 118.32 103.95 L 117.70 106.15 L 117.25 107.32 L 116.36 109.13 L 115.70 110.23 L 115.16 111.01 L 115.61 111.34 L 116.21 110.46 L 116.89 109.33 L 117.63 107.85 L 118.18 106.46 L 118.62 105.05 L 118.94 103.67 L 119.19 101.98 L 119.29 100.62 L 119.30 99.99 L 119.86 99.99 L 119.86 100.13 L 119.79 101.66 L 119.62 103.12 L 119.34 104.51 L 118.95 105.97 L 118.46 107.33 L 118.00 108.40 L 117.49 109.42 L 116.93 110.39 L 116.43 111.15 L 116.07 111.67 L 141.84 130.40 L 143.32 128.24 L 144.76 125.90 L 146.07 123.49 L 143.51 121.63 L 140.00 119.08 L 144.53 122.37 L 146.07 123.49 L 147.44 120.58 L 148.64 117.58 L 149.74 114.17 L 150.43 111.44 L 151.00 108.54 L 151.42 105.46 L 151.66 102.38 L 151.71 100.00 L 145.88 99.99 L 141.89 99.99 L 138.20 99.99 L 135.56 99.99 L 132.98 99.99 L 128.20 99.99 L 123.54 99.99 L 119.86 99.99 L 116.97 100.00 L 116.03 100.00 L 115.92 98.16 L 115.58 96.23 L 114.88 94.04 L 114.13 92.42 L 112.97 90.58 L 115.31 89.00 L 117.34 87.51 L 121.71 84.47 L 125.82 81.94 L 129.56 80.61 L 132.33 79.99 L 134.65 79.69 L 136.71 79.59 L 138.57 79.62 L 140.29 79.77 L 141.88 80.00 L 143.38 80.30 L 144.79 80.66 L 146.12 81.10 L 147.32 81.61 L 148.21 82.36 L 148.78 83.14 L 149.16 83.95 L 149.38 84.65 L 149.37 85.94 L 149.09 87.06 L 148.42 88.19 L 147.60 89.31 L 146.68 90.44 L 145.64 91.56 L 144.48 92.69 L 143.18 93.81 L 141.70 94.94 L 139.97 96.06 L 137.92 97.19 L 135.31 98.31 L 131.50 99.44 L 130.50 99.68 L 127.82 99.80 L 124.11 99.82 L 120.75 99.86 L 100.36 100.01 L 100.23 100.17 L 100.33 100.24 L 160.81 144.18 L 160.82 144.17 L 160.84 144.16 L 160.86 144.14 L 160.87 144.11 L 160.88 144.09 L 160.88 144.06 L 160.87 144.03 L 160.85 143.99 L 160.81 143.97 L 160.78 143.94 L 160.73 143.93 L 160.69 143.92 L 160.63 143.92 L 160.58 143.94 L 160.53 143.96 L 160.48 144.00 L 160.43 144.05 L 160.39 144.12 L 160.37 144.18 L 160.34 144.26 L 160.34 144.34 L 160.36 144.42 L 160.38 144.51 L 160.43 144.59 L 160.49 144.66 L 160.57 144.73 L 160.66 144.78 L 160.77 144.82 L 160.87 144.84 L 160.99 144.84 L 161.11 144.83 L 161.23 144.79 L 161.34 144.73 L 161.43 144.64 L 161.52 144.54 L 161.59 144.42 L 161.65 144.28 L 161.67 144.14 L 161.69 144.00 L 161.67 143.84 L 161.63 143.69 L 161.56 143.55 L 161.45 143.42 L 161.32 143.30 L 161.18 143.21 L 161.01 143.13 L 160.85 143.08 L 160.66 143.07 L 160.47 143.08 L 160.28 143.13 L 160.11 143.22 L 159.94 143.33 L 159.79 143.47 L 159.67 143.64 L 159.57 143.83 L 159.51 144.03 L 159.48 144.25 L 159.49 144.47 L 159.54 144.69 L 159.62 144.91 L 159.74 145.11 L 159.90 145.30 L 160.07 145.45 L 160.29 145.58 L 160.52 145.66 L 160.77 145.70 L 161.04 145.71 L 161.30 145.67 L 161.55 145.59 L 161.79 145.47 L 162.01 145.31 L 162.20 145.10 L 162.35 144.87 L 162.46 144.60 L 162.53 144.32 L 162.56 144.03 L 162.53 143.74 L 162.46 143.44 L 162.34 143.16 L 162.16 142.91 L 161.95 142.68 L 161.69 142.50 L 161.41 142.35 L 161.10 142.25 L 160.79 142.20 L 160.46 142.20 L 160.13 142.27 L 159.81 142.39 L 159.51 142.57 L 159.24 142.79 L 159.02 143.06 L 158.83 143.36 L 158.69 143.68 L 158.62 144.04 L 158.61 144.41 L 158.66 144.77 L 158.77 145.13 L 158.94 145.47 L 159.15 145.78 L 159.43 146.06 L 159.74 146.28 L 160.10 146.44 L 160.48 146.55 L 160.88 146.59 L 161.29 146.57 L 161.69 146.48 L 162.07 146.32 L 162.42 146.10 L 162.73 145.81 L 163.00 145.48 L 163.21 145.11 L 163.36 144.70 L 163.43 144.27 L 163.43 143.83 L 163.36 143.39 L 163.22 142.97 L 163.00 142.57 L 162.72 142.21 L 162.39 141.90 L 161.99 141.64 L 161.56 141.46 L 161.10 141.36 L 160.63 141.32 L 160.16 141.37 L 159.69 141.49 L 159.25 141.68 L 158.84 141.96 L 158.48 142.30 L 158.19 142.71 L 157.96 143.15 L 157.80 143.63 L 157.72 144.14 L 157.74 144.65 L 157.85 145.16 L 158.03 145.65 L 158.30 146.10 L 158.63 146.51 L 159.03 146.85 L 159.49 147.13 L 160.00 147.33 L 160.53 147.44 L 161.08 147.46 L 161.63 147.40 L 162.16 147.24 L 162.66 147.00 L 163.11 146.66 L 163.51 146.25 L 163.84 145.78 L 164.09 145.26 L 164.26 144.71 L 164.32 144.13 L 164.28 143.55 L 164.15 142.97 L 163.92 142.42 L 163.60 141.91 L 163.21 141.45 L 162.74 141.07 L 162.20 140.77 L 161.63 140.57 L 161.02 140.47 L 160.40 140.46 L 159.77 140.54 L 159.18 140.74 L 158.62 141.04 L 158.12 141.44 L 157.68 141.91 L 157.32 142.45 L 157.06 143.04 L 156.90 143.67 L 156.85 144.32 L 156.91 144.98 L 157.08 145.62 L 157.35 146.23 L 157.72 146.80 L 158.18 147.30 L 158.72 147.71 L 159.32 148.01 L 159.98 148.23 L 160.66 148.33 L 161.37 148.33 L 162.05 148.20 L 162.71 147.96 L 163.32 147.61 L 163.87 147.15 L 164.34 146.62 L 164.72 146.00 L 165.01 145.34 L 165.16 144.63 L 165.20 143.90 L 165.10 143.17 L 164.90 142.46 L 164.58 141.79 L 164.15 141.18 L 163.63 140.65 L 163.01 140.21 L 162.33 139.88 L 161.59 139.66 L 160.84 139.57 L 160.07 139.60 L 159.31 139.76 L 158.59 140.05 L 157.93 140.46 L 157.33 140.97 L 156.83 141.58 L 156.42 142.26 L 156.14 143.01 L 156.00 143.79 L 155.98 144.60 L 156.10 145.40 L 156.34 146.17 L 156.72 146.90 L 157.20 147.56 L 157.80 148.13 L 158.48 148.59 L 159.25 148.93 L 160.05 149.15 L 160.89 149.23 L 161.73 149.17 L 162.55 148.96 L 163.33 148.63 L 164.05 148.16 L 164.69 147.59 L 165.22 146.91 L 165.63 146.14 L 165.92 145.32 L 166.06 144.46 L 166.06 143.58 L 165.90 142.71 L 165.61 141.87 L 165.18 141.10 L 164.63 140.39 L 163.96 139.79 L 163.20 139.31 L 162.36 138.95 L 161.49 138.75 L 160.57 138.69 L 159.66 138.78 L 158.77 139.02 L 157.93 139.41 L 157.17 139.93 L 156.50 140.58 L 155.94 141.34 L 155.50 142.17 L 155.23 143.07 L 155.10 144.01 L 155.14 144.96 L 155.32 145.90 L 155.65 146.80 L 156.14 147.63 L 156.76 148.37 L 157.50 149.00 L 158.34 149.50 L 159.25 149.86 L 160.22 150.06 L 161.20 150.10 L 162.19 149.97 L 163.14 149.68 L 164.03 149.24 L 164.85 148.66 L 165.55 147.94 L 166.12 147.11 L 166.56 146.19 L 166.84 145.21 L 166.95 144.20 L 166.89 143.17 L 166.66 142.17 L 166.27 141.22 L 165.72 140.33 L 165.03 139.55 L 164.22 138.90 L 163.30 138.39 L 162.31 138.03 L 161.28 137.84 L 160.22 137.82 L 159.17 137.98 L 158.15 138.32 L 157.21 138.83 L 156.35 139.48 L 155.61 140.26 L 155.01 141.17 L 154.58 142.17 L 154.31 143.22 L 154.21 144.32 L 154.30 145.41 L 154.57 146.48 L 155.03 147.49 L 155.64 148.42 L 156.40 149.23 L 157.29 149.91 L 158.27 150.45 L 159.34 150.79 L 160.46 150.96 L 161.60 150.95 L 162.72 150.75 L 163.79 150.37 L 164.79 149.80 L 165.69 149.07 L 166.45 148.20 L 167.06 147.23 L 167.50 146.15 L 167.76 145.02 L 167.83 143.85 L 167.69 142.69 L 167.37 141.55 L 166.88 140.48 L 166.20 139.51 L 165.36 138.67 L 164.39 137.97 L 163.32 137.43 L 162.18 137.09 L 160.98 136.93 L 159.77 136.99 L 158.59 137.23 L 157.45 137.68 L 156.41 138.30 L 155.47 139.09 L 154.69 140.04 L 154.07 141.10 L 153.63 142.25 L 153.38 143.47 L 153.34 144.71 L 153.51 145.94 L 153.89 147.13 L 154.46 148.25 L 155.20 149.26 L 156.10 150.15 L 157.15 150.86 L 158.31 151.39 L 159.54 151.72 L 160.81 151.86 L 162.09 151.78 L 163.34 151.48 L 164.51 150.98 L 165.61 150.28 L 166.57 149.41 L 167.39 148.40 L 168.02 147.26 L 168.45 146.02 L 168.67 144.73 L 168.68 143.41 L 168.47 142.11 L 168.05 140.86 L 167.41 139.69 L 166.59 138.64 L 165.60 137.74 L 164.48 137.01 L 163.26 136.47 L 161.94 136.15 L 160.60 136.05 L 159.24 136.18 L 157.93 136.52 L 156.69 137.07 L 155.56 137.85 L 154.57 138.79 L 153.74 139.89 L 153.10 141.11 L 152.66 142.42 L 152.47 143.79 L 152.51 145.19 L 152.77 146.56 L 153.25 147.87 L 153.94 149.09 L 154.83 150.17 L 155.91 151.09 L 157.11 151.83 L 158.42 152.36 L 159.81 152.67 L 161.23 152.74 L 162.65 152.57 L 164.03 152.16 L 165.32 151.54 L 166.50 150.71 L 167.52 149.69 L 168.36 148.50 L 168.99 147.20 L 169.41 145.80 L 169.59 144.36 L 169.47 142.73 L 169.10 141.30 L 168.59 140.12 L 167.53 138.53 L 166.51 137.50 L 165.15 136.54 L 163.78 135.91 L 162.64 135.59 L 161.24 135.40 L 159.97 135.43 L 158.97 135.58 L 157.96 135.86 L 156.72 136.40 L 155.72 137.01 L 154.85 137.71 L 154.27 138.30 L 153.69 139.01 L 141.81 130.38 L 141.73 130.50 L 141.63 130.63 L 141.57 130.72 L 141.50 130.85 L 140.80 130.34 L 139.89 129.67 L 138.98 129.01 L 138.07 128.36 L 137.17 127.70 L 136.26 127.03 L 135.34 126.38 L 134.43 125.71 L 133.52 125.05 L 132.62 124.39 L 131.71 123.73 L 130.80 123.07 L 129.89 122.41 L 128.98 121.75 L 128.07 121.09 L 127.17 120.43 L 126.26 119.77 L 125.35 119.11 L 125.16 118.97 L 125.73 119.64 L 126.43 120.52 L 126.56 120.69 L 127.30 121.22 L 128.21 121.88 L 129.12 122.55 L 130.03 123.21 L 130.93 123.86 L 131.84 124.53 L 132.76 125.19 L 133.67 125.85 L 134.58 126.51 L 135.48 127.17 L 136.39 127.83 L 137.30 128.49 L 138.21 129.15 L 139.12 129.81 L 140.02 130.47 L 140.93 131.13 L 141.17 131.30 L 140.82 131.74 L 140.60 131.58 L 139.69 130.93 L 138.78 130.26 L 137.87 129.60 L 136.96 128.94 L 136.06 128.28 L 135.15 127.62 L 134.24 126.96 L 133.33 126.30 L 132.42 125.64 L 131.51 124.98 L 130.60 124.32 L 129.69 123.66 L 128.79 123.00 L 127.87 122.34 L 127.58 122.12 L 127.99 122.76 L 128.37 123.39 L 128.68 123.62 L 129.59 124.28 L 130.49 124.94 L 131.41 125.60 L 132.32 126.26 L 133.22 126.92 L 134.13 127.58 L 135.05 128.24 L 135.95 128.90 L 136.86 129.56 L 137.77 130.22 L 138.68 130.89 L 139.59 131.54 L 140.48 132.19 L 140.46 132.21 L 140.12 132.63 L 139.65 132.28 L 138.74 131.62 L 137.82 130.96 L 136.92 130.30 L 136.01 129.64 L 135.11 128.98 L 134.19 128.32 L 133.28 127.65 L 132.38 127.00 L 131.46 126.34 L 130.56 125.68 L 129.65 125.02 L 129.02 124.57 L 129.19 124.88 L 129.57 125.65 L 129.77 125.80 L 130.68 126.46 L 131.59 127.12 L 132.50 127.78 L 133.41 128.44 L 134.32 129.11 L 135.22 129.77 L 136.14 130.43 L 137.04 131.09 L 137.95 131.75 L 138.86 132.41 L 139.77 133.06 L 139.76 133.07 L 139.40 133.49 L 138.94 133.16 L 138.04 132.50 L 137.12 131.84 L 136.22 131.18 L 135.30 130.52 L 134.40 129.86 L 133.49 129.20 L 132.58 128.54 L 131.67 127.88 L 130.76 127.22 L 130.02 126.68 L 130.11 126.88 L 130.42 127.66 L 130.64 127.82 L 131.56 128.49 L 132.47 129.15 L 133.37 129.81 L 134.28 130.47 L 135.19 131.13 L 136.10 131.79 L 137.01 132.45 L 137.92 133.11 L 138.83 133.77 L 139.04 133.92 L 138.66 134.35 L 138.41 134.16 L 137.51 133.50 L 136.60 132.85 L 135.69 132.19 L 134.78 131.53 L 133.87 130.87 L 132.96 130.21 L 132.06 129.55 L 131.15 128.89 L 130.76 128.60 L 130.96 129.22 L 131.05 129.51 L 131.70 129.99 L 132.62 130.65 L 133.53 131.31 L 134.44 131.97 L 135.34 132.63 L 136.25 133.29 L 137.16 133.95 L 138.07 134.61 L 138.28 134.77 L 137.90 135.18 L 137.66 135.01 L 136.75 134.35 L 135.84 133.68 L 134.93 133.03 L 134.02 132.37 L 133.11 131.71 L 132.20 131.05 L 131.30 130.39 L 131.30 130.39 L 131.51 131.24 L 131.71 131.38 L 132.62 132.04 L 133.53 132.70 L 134.44 133.37 L 135.35 134.02 L 136.25 134.69 L 137.17 135.35 L 137.51 135.60 L 137.12 136.01 L 137.02 135.93 L 136.11 135.28 L 135.20 134.61 L 134.29 133.95 L 133.38 133.29 L 132.47 132.63 L 131.69 132.06 L 131.72 132.21 L 131.84 132.87 L 132.21 133.14 L 133.12 133.80 L 134.03 134.46 L 134.94 135.12 L 135.85 135.78 L 136.72 136.41 L 136.69 136.45 L 136.32 136.82 L 135.83 136.46 L 134.92 135.80 L 134.01 135.14 L 133.10 134.48 L 132.19 133.82 L 131.96 133.65 L 132.07 134.42 L 132.12 134.46 L 133.02 135.12 L 133.93 135.78 L 134.84 136.44 L 135.75 137.10 L 135.91 137.21 L 135.50 137.61 L 135.21 137.40 L 134.30 136.73 L 133.39 136.08 L 132.48 135.41 L 132.14 135.17 L 132.19 135.87 L 132.19 135.90 L 133.08 136.55 L 133.99 137.21 L 134.89 137.86 L 135.08 138.00 L 134.65 138.39 L 134.39 138.20 L 133.48 137.54 L 132.57 136.88 L 132.23 136.63 L 132.25 137.33 L 132.24 137.33 L 133.15 137.99 L 134.06 138.65 L 134.22 138.77 L 133.79 139.15 L 133.51 138.95 L 132.61 138.29 L 132.23 138.02 L 132.22 138.68 L 132.22 138.70 L 133.11 139.35 L 133.35 139.53 L 132.90 139.90 L 132.70 139.75 L 132.11 139.32 L 132.00 139.70 L 131.92 139.88 L 132.45 140.26 L 132.24 140.44 L 132.00 140.63 L 131.68 140.40 L 131.46 140.75 L 130.71 141.59 L 129.78 142.21 L 128.73 142.59 L 128.63 142.61 L 128.75 142.98 L 128.27 143.31 L 128.25 143.25 L 128.06 142.69 L 127.54 142.69 L 127.48 142.69 L 127.78 143.62 L 127.71 143.66 L 127.29 143.93 L 127.09 143.34 L 126.85 142.60 L 126.52 142.50 L 126.20 142.40 L 126.44 143.15 L 126.79 144.21 L 126.79 144.23 L 126.30 144.53 L 126.13 144.03 L 125.79 142.96 L 125.54 142.20 L 125.23 142.10 L 124.87 141.97 L 125.11 142.68 L 125.45 143.75 L 125.80 144.82 L 125.80 144.82 L 125.30 145.10 L 125.13 144.58 L 124.79 143.51 L 124.44 142.45 L 124.20 141.71 L 123.87 141.58 L 123.52 141.44 L 123.75 142.14 L 124.09 143.21 L 124.44 144.28 L 124.79 145.34 L 124.80 145.38 L 124.30 145.65 L 124.14 145.15 L 123.79 144.09 L 123.44 143.02 L 123.09 141.95 L 122.83 141.13 L 122.59 141.02 L 122.13 140.80 L 122.32 141.38 L 122.66 142.44 L 123.01 143.51 L 123.36 144.58 L 123.71 145.66 L 123.79 145.92 L 123.28 146.18 L 123.20 145.91 L 122.85 144.84 L 122.51 143.77 L 122.16 142.71 L 121.81 141.64 L 121.46 140.57 L 121.42 140.44 L 120.70 140.05 L 120.75 140.20 L 121.10 141.27 L 121.45 142.35 L 121.79 143.41 L 122.14 144.48 L 122.49 145.55 L 122.77 146.43 L 122.60 146.52 L 122.26 146.68 L 122.03 145.96 L 121.68 144.89 L 121.34 143.83 L 120.99 142.75 L 120.64 141.68 L 120.30 140.62 L 119.97 139.62 L 119.91 139.58 L 119.23 139.16 L 119.33 139.46 L 119.67 140.53 L 120.02 141.60 L 120.37 142.66 L 120.72 143.73 L 121.06 144.80 L 121.41 145.87 L 121.75 146.92 L 121.73 146.93 L 121.24 147.15 L 121.05 146.59 L 120.71 145.52 L 120.36 144.46 L 120.01 143.39 L 119.66 142.32 L 119.32 141.25 L 118.97 140.19 L 118.63 139.12 L 118.47 138.64 L 117.96 138.28 L 117.70 138.09 L 117.94 138.85 L 118.29 139.92 L 118.64 140.99 L 118.99 142.06 L 119.34 143.13 L 119.68 144.20 L 120.03 145.27 L 120.38 146.33 L 120.72 147.38 L 120.70 147.39 L 120.20 147.61 L 120.02 147.06 L 119.67 145.98 L 119.32 144.92 L 118.98 143.85 L 118.63 142.78 L 118.28 141.71 L 117.94 140.64 L 117.59 139.57 L 117.24 138.51 L 116.91 137.48 L 116.88 137.45 L 116.10 136.80 L 116.13 136.90 L 116.48 137.97 L 116.83 139.04 L 117.17 140.11 L 117.52 141.18 L 117.87 142.25 L 118.22 143.31 L 118.56 144.39 L 118.91 145.45 L 119.26 146.52 L 119.60 147.59 L 119.68 147.82 L 119.16 148.03 L 119.06 147.73 L 118.71 146.66 L 118.37 145.60 L 118.02 144.53 L 117.67 143.46 L 117.32 142.39 L 116.98 141.32 L 116.63 140.25 L 116.28 139.19 L 115.93 138.11 L 115.59 137.05 L 115.26 136.04 L 115.21 136.00 L 114.41 135.21 L 114.39 135.20 L 114.73 136.23 L 115.08 137.31 L 115.42 138.37 L 115.77 139.44 L 116.12 140.51 L 116.47 141.58 L 116.81 142.64 L 117.16 143.71 L 117.51 144.79 L 117.86 145.85 L 118.20 146.92 L 118.55 147.99 L 118.63 148.24 L 118.11 148.44 L 118.01 148.16 L 117.66 147.09 L 117.32 146.03 L 116.97 144.95 L 116.62 143.88 L 116.28 142.82 L 115.93 141.75 L 115.58 140.68 L 115.24 139.61 L 114.89 138.54 L 114.54 137.47 L 114.20 136.41 L 113.85 135.34 L 113.50 134.26 L 113.48 134.21 L 112.79 133.40 L 112.52 133.06 L 112.73 133.72 L 113.08 134.79 L 113.43 135.85 L 113.77 136.93 L 114.12 138.00 L 114.47 139.07 L 114.81 140.13 L 115.16 141.20 L 115.51 142.27 L 115.86 143.34 L 116.20 144.40 L 116.55 145.48 L 116.90 146.54 L 117.25 147.62 L 117.58 148.64 L 117.53 148.65 L 117.05 148.82 L 116.86 148.24 L 116.51 147.17 L 116.16 146.11 L 115.82 145.04 L 115.47 143.97 L 115.12 142.90 L 114.77 141.83 L 114.43 140.77 L 114.08 139.70 L 113.73 138.63 L 113.39 137.56 L 113.04 136.49 L 112.69 135.42 L 112.35 134.35 L 112.00 133.28 L 111.65 132.21 L 111.47 131.66 L 111.16 131.21 L 110.56 130.27 L 110.27 129.79 L 110.44 130.32 L 110.79 131.39 L 111.14 132.46 L 111.48 133.52 L 111.83 134.59 L 112.18 135.66 L 112.53 136.73 L 112.88 137.80 L 113.22 138.87 L 113.57 139.93 L 113.92 141.00 L 114.26 142.07 L 114.61 143.14 L 114.96 144.21 L 115.30 145.28 L 115.65 146.34 L 116.00 147.41 L 116.35 148.48 L 116.51 149.01 L 116.00 149.18 L 115.99 149.15 L 111.00 133.81 L 109.24 134.34 L 107.58 134.74 L 105.68 135.10 L 104.51 135.27 L 103.51 135.38 L 103.98 136.81 L 104.40 138.11 L 104.78 139.29 L 105.29 140.87 L 105.71 142.16 L 106.05 143.20 L 105.29 140.87 L 104.59 138.70 L 103.98 136.81 L 103.51 135.38 L 102.22 135.49 L 101.38 135.53 L 100.06 135.56 L 100.02 133.95 L 99.97 132.05 L 99.93 130.64 L 99.87 128.34 L 99.83 126.92 L 99.80 125.73 L 99.85 127.63 L 99.89 129.10 L 99.95 131.35 L 99.98 132.68 L 100.02 133.95 L 100.06 135.56 L 98.61 135.53 L 97.00 135.43 L 95.66 135.29 L 94.03 135.05 L 92.55 134.77 L 91.13 134.43 L 89.01 133.82 L 84.02 149.18 L 94.35 117.38 L 95.00 117.58 L 96.18 117.87 L 97.42 118.10 L 98.98 118.25 L 100.53 118.27 L 102.10 118.16 L 103.94 117.85 L 105.30 117.49 L 105.63 117.38 L 105.80 117.82 L 104.96 118.07 L 103.53 118.40 L 101.90 118.64 L 99.62 118.73 L 98.36 118.67 L 96.37 118.38 L 95.12 118.09 L 94.21 117.82 L 94.04 118.35 L 95.06 118.65 L 96.34 118.95 L 97.98 119.19 L 99.48 119.29 L 100.95 119.27 L 102.36 119.15 L 104.04 118.87 L 105.37 118.53 L 105.97 118.35 L 106.14 118.89 L 106.02 118.93 L 104.53 119.34 L 103.10 119.62 L 101.69 119.79 L 100.18 119.86 L 98.74 119.82 L 97.57 119.71 L 96.44 119.54 L 95.35 119.31 L 94.47 119.08 L 93.86 118.89 L 84.02 149.18 L 86.52 149.93 L 89.20 150.57 L 91.90 151.08 L 92.88 148.07 L 94.22 143.94 L 92.49 149.26 L 91.90 151.08 L 95.08 151.48 L 98.31 151.69 L 101.89 151.68 L 104.71 151.50 L 107.65 151.15 L 110.70 150.60 L 113.70 149.87 L 115.98 149.18 L 114.19 143.63 L 112.96 139.84 L 111.82 136.32 L 111.00 133.81 L 110.20 131.36 L 108.72 126.81 L 107.28 122.39 L 106.14 118.89 L 105.25 116.14 L 104.96 115.24 L 106.67 114.57 L 108.40 113.65 L 110.26 112.31 L 111.57 111.09 L 112.97 109.42 L 115.19 111.16 L 117.23 112.63 L 121.48 115.85 L 125.16 118.97 L 127.58 122.12 L 129.02 124.57 L 130.02 126.68 L 130.76 128.60 L 131.30 130.39 L 131.69 132.06 L 131.96 133.65 L 132.14 135.17 L 132.23 136.63 L 132.23 138.02 L 132.11 139.32 L 131.68 140.40 L 131.11 141.19 L 130.45 141.80 L 129.86 142.22 L 128.63 142.61 L 127.48 142.69 L 126.20 142.40 L 124.87 141.97 L 123.52 141.44 L 122.13 140.80 L 120.70 140.05 L 119.23 139.16 L 117.70 138.09 L 116.10 136.80 L 114.39 135.20 L 112.52 133.06 L 110.27 129.79 L 109.73 128.91 L 108.79 126.39 L 107.62 122.88 L 106.55 119.69 L 100.11 100.34 L 99.91 100.27 L 99.87 100.41 L 76.78 171.48 L 76.79 171.49 L 76.81 171.51 L 76.83 171.53 L 76.85 171.52 L 76.88 171.52 L 76.91 171.51 L 76.94 171.50 L 76.96 171.46 L 76.98 171.42 L 76.99 171.38 L 76.99 171.33 L 76.98 171.29 L 76.97 171.24 L 76.94 171.19 L 76.89 171.15 L 76.84 171.11 L 76.78 171.09 L 76.71 171.07 L 76.63 171.06 L 76.56 171.07 L 76.48 171.09 L 76.40 171.13 L 76.33 171.18 L 76.26 171.25 L 76.22 171.33 L 76.18 171.43 L 76.16 171.53 L 76.15 171.65 L 76.16 171.75 L 76.20 171.86 L 76.25 171.97 L 76.32 172.07 L 76.41 172.16 L 76.53 172.22 L 76.66 172.27 L 76.79 172.31 L 76.93 172.32 L 77.08 172.30 L 77.22 172.27 L 77.36 172.20 L 77.49 172.11 L 77.60 172.00 L 77.70 171.86 L 77.77 171.70 L 77.82 171.54 L 77.84 171.36 L 77.82 171.18 L 77.79 171.00 L 77.72 170.83 L 77.61 170.66 L 77.47 170.52 L 77.32 170.40 L 77.13 170.30 L 76.93 170.24 L 76.73 170.20 L 76.51 170.20 L 76.30 170.24 L 76.09 170.31 L 75.89 170.44 L 75.71 170.58 L 75.56 170.76 L 75.43 170.96 L 75.34 171.18 L 75.29 171.43 L 75.28 171.67 L 75.32 171.92 L 75.39 172.18 L 75.51 172.41 L 75.66 172.63 L 75.85 172.82 L 76.07 172.98 L 76.32 173.09 L 76.60 173.16 L 76.88 173.19 L 77.17 173.17 L 77.46 173.10 L 77.73 172.99 L 77.99 172.83 L 78.21 172.63 L 78.40 172.38 L 78.54 172.11 L 78.65 171.81 L 78.70 171.49 L 78.70 171.17 L 78.65 170.85 L 78.54 170.54 L 78.38 170.24 L 78.17 169.98 L 77.91 169.76 L 77.62 169.57 L 77.29 169.43 L 76.95 169.35 L 76.59 169.31 L 76.23 169.35 L 75.88 169.46 L 75.54 169.62 L 75.24 169.84 L 74.96 170.10 L 74.74 170.41 L 74.56 170.75 L 74.45 171.12 L 74.41 171.51 L 74.42 171.90 L 74.51 172.30 L 74.65 172.68 L 74.86 173.03 L 75.13 173.34 L 75.45 173.61 L 75.81 173.82 L 76.22 173.97 L 76.64 174.05 L 77.06 174.06 L 77.49 174.01 L 77.91 173.87 L 78.31 173.67 L 78.67 173.40 L 78.98 173.07 L 79.24 172.69 L 79.43 172.28 L 79.55 171.83 L 79.59 171.36 L 79.55 170.89 L 79.44 170.44 L 79.25 170.00 L 78.99 169.59 L 78.66 169.23 L 78.28 168.93 L 77.84 168.69 L 77.36 168.54 L 76.86 168.46 L 76.36 168.46 L 75.86 168.54 L 75.38 168.71 L 74.92 168.97 L 74.52 169.30 L 74.17 169.69 L 73.88 170.13 L 73.68 170.62 L 73.55 171.14 L 73.53 171.69 L 73.59 172.23 L 73.74 172.76 L 73.96 173.26 L 74.28 173.72 L 74.67 174.12 L 75.13 174.44 L 75.64 174.70 L 76.18 174.86 L 76.76 174.94 L 77.34 174.93 L 77.90 174.81 L 78.45 174.59 L 78.96 174.29 L 79.41 173.90 L 79.80 173.44 L 80.11 172.93 L 80.32 172.36 L 80.44 171.76 L 80.45 171.15 L 80.37 170.53 L 80.19 169.94 L 79.91 169.38 L 79.54 168.87 L 79.08 168.43 L 78.55 168.08 L 77.97 167.81 L 77.35 167.63 L 76.70 167.56 L 76.05 167.60 L 75.41 167.76 L 74.81 168.02 L 74.24 168.38 L 73.75 168.83 L 73.32 169.35 L 73.00 169.95 L 72.78 170.59 L 72.66 171.26 L 72.67 171.95 L 72.78 172.63 L 73.00 173.30 L 73.33 173.91 L 73.77 174.46 L 74.29 174.93 L 74.89 175.31 L 75.55 175.60 L 76.24 175.77 L 76.96 175.83 L 77.69 175.76 L 78.39 175.57 L 79.06 175.25 L 79.67 174.84 L 80.21 174.33 L 80.66 173.74 L 81.01 173.07 L 81.23 172.35 L 81.33 171.60 L 81.31 170.84 L 81.17 170.09 L 80.90 169.36 L 80.51 168.70 L 80.02 168.10 L 79.42 167.60 L 78.75 167.19 L 78.02 166.90 L 77.24 166.72 L 76.45 166.69 L 75.65 166.79 L 74.89 167.03 L 74.16 167.39 L 73.50 167.86 L 72.92 168.43 L 72.45 169.10 L 72.09 169.84 L 71.87 170.64 L 71.77 171.47 L 71.82 172.30 L 71.99 173.12 L 72.32 173.91 L 72.76 174.62 L 73.33 175.26 L 73.99 175.80 L 74.73 176.23 L 75.55 176.52 L 76.40 176.68 L 77.26 176.69 L 78.13 176.56 L 78.97 176.29 L 79.75 175.88 L 80.45 175.34 L 81.05 174.69 L 81.55 173.95 L 81.92 173.13 L 82.15 172.26 L 82.23 171.35 L 82.15 170.45 L 81.92 169.56 L 81.56 168.72 L 81.05 167.95 L 80.42 167.27 L 79.69 166.71 L 78.86 166.27 L 77.98 165.97 L 77.05 165.82 L 76.10 165.83 L 75.17 166.00 L 74.27 166.33 L 73.44 166.79 L 72.69 167.39 L 72.05 168.11 L 71.54 168.93 L 71.17 169.83 L 70.95 170.78 L 70.89 171.76 L 70.99 172.74 L 71.27 173.69 L 71.69 174.58 L 72.25 175.40 L 72.96 176.11 L 73.76 176.71 L 74.66 177.15 L 75.63 177.44 L 76.64 177.58 L 77.65 177.54 L 78.65 177.33 L 79.61 176.96 L 80.49 176.43 L 81.27 175.76 L 81.95 174.97 L 82.48 174.07 L 82.85 173.09 L 83.06 172.07 L 83.09 171.01 L 82.95 169.97 L 82.64 168.96 L 82.16 168.01 L 81.52 167.15 L 80.75 166.40 L 79.86 165.79 L 78.89 165.33 L 77.85 165.04 L 76.77 164.94 L 75.67 165.00 L 74.61 165.25 L 73.59 165.67 L 72.66 166.27 L 71.84 167.01 L 71.15 167.88 L 70.61 168.85 L 70.23 169.90 L 70.03 171.01 L 70.04 172.13 L 70.21 173.25 L 70.58 174.33 L 71.12 175.33 L 71.82 176.24 L 72.66 177.01 L 73.62 177.63 L 74.68 178.09 L 75.81 178.37 L 76.97 178.46 L 78.13 178.36 L 79.25 178.06 L 80.32 177.57 L 81.30 176.91 L 82.16 176.11 L 82.87 175.17 L 83.42 174.11 L 83.79 172.97 L 83.96 171.79 L 83.95 170.59 L 83.72 169.41 L 83.30 168.28 L 82.69 167.22 L 81.92 166.29 L 81.01 165.48 L 79.96 164.83 L 78.83 164.39 L 77.63 164.12 L 76.39 164.06 L 75.16 164.20 L 73.96 164.54 L 72.85 165.09 L 71.83 165.82 L 70.94 166.70 L 70.20 167.72 L 69.65 168.86 L 69.28 170.07 L 69.14 171.33 L 69.20 172.60 L 69.47 173.86 L 69.94 175.05 L 70.61 176.14 L 71.46 177.11 L 72.45 177.94 L 73.58 178.59 L 74.79 179.05 L 76.08 179.30 L 77.38 179.32 L 78.68 179.13 L 79.94 178.74 L 81.11 178.14 L 82.17 177.34 L 83.08 176.38 L 83.82 175.27 L 84.38 174.05 L 84.73 172.76 L 84.86 171.43 L 84.76 170.08 L 84.43 168.77 L 83.90 167.52 L 83.17 166.38 L 82.25 165.37 L 81.18 164.53 L 79.97 163.88 L 78.67 163.43 L 77.31 163.20 L 75.93 163.20 L 74.56 163.43 L 73.25 163.90 L 72.03 164.57 L 70.93 165.44 L 69.99 166.47 L 69.23 167.65 L 68.68 168.96 L 68.36 170.33 L 68.26 171.75 L 68.39 173.16 L 68.77 174.53 L 69.37 175.83 L 70.18 177.01 L 71.17 178.05 L 72.32 178.92 L 73.61 179.57 L 74.99 180.00 L 76.43 180.20 L 77.89 180.17 L 79.32 179.89 L 80.83 179.27 L 82.08 178.48 L 83.05 177.63 L 84.22 176.13 L 84.89 174.85 L 85.38 173.26 L 85.56 171.76 L 85.52 170.57 L 85.25 169.18 L 84.83 167.98 L 84.38 167.08 L 83.80 166.20 L 82.92 165.19 L 82.02 164.43 L 81.09 163.82 L 80.35 163.45 L 79.49 163.12 L 84.03 149.15 L 83.89 149.11 L 83.73 149.06 L 83.62 149.02 L 83.49 149.01 L 83.76 148.18 L 84.10 147.11 L 84.45 146.04 L 84.80 144.97 L 85.14 143.90 L 85.49 142.83 L 85.84 141.76 L 86.19 140.69 L 86.53 139.62 L 86.88 138.56 L 87.22 137.49 L 87.57 136.42 L 87.92 135.35 L 88.27 134.28 L 88.62 133.21 L 88.96 132.15 L 89.31 131.08 L 89.66 130.01 L 89.73 129.79 L 89.27 130.54 L 88.65 131.48 L 88.53 131.66 L 88.25 132.52 L 87.90 133.59 L 87.55 134.66 L 87.21 135.73 L 86.86 136.79 L 86.52 137.86 L 86.17 138.93 L 85.82 140.00 L 85.47 141.07 L 85.13 142.14 L 84.78 143.21 L 84.43 144.28 L 84.08 145.35 L 83.74 146.42 L 83.39 147.48 L 83.04 148.55 L 82.95 148.82 L 82.42 148.64 L 82.51 148.37 L 82.85 147.31 L 83.20 146.24 L 83.55 145.17 L 83.90 144.10 L 84.24 143.03 L 84.59 141.96 L 84.94 140.89 L 85.29 139.82 L 85.63 138.76 L 85.98 137.69 L 86.33 136.62 L 86.68 135.55 L 87.02 134.48 L 87.37 133.41 L 87.48 133.06 L 87.00 133.65 L 86.52 134.21 L 86.40 134.57 L 86.05 135.64 L 85.71 136.71 L 85.36 137.78 L 85.01 138.85 L 84.66 139.91 L 84.32 140.99 L 83.97 142.06 L 83.63 143.12 L 83.27 144.19 L 82.93 145.26 L 82.58 146.33 L 82.24 147.40 L 81.89 148.44 L 81.87 148.43 L 81.37 148.24 L 81.55 147.68 L 81.90 146.61 L 82.25 145.54 L 82.59 144.48 L 82.94 143.41 L 83.28 142.34 L 83.63 141.27 L 83.98 140.20 L 84.33 139.13 L 84.68 138.06 L 85.02 137.00 L 85.37 135.93 L 85.61 135.20 L 85.36 135.44 L 84.74 136.04 L 84.66 136.28 L 84.31 137.36 L 83.97 138.42 L 83.62 139.50 L 83.27 140.56 L 82.92 141.63 L 82.58 142.70 L 82.23 143.77 L 81.88 144.84 L 81.54 145.91 L 81.19 146.97 L 80.84 148.03 L 80.84 148.03 L 80.32 147.82 L 80.50 147.28 L 80.84 146.22 L 81.19 145.15 L 81.54 144.08 L 81.89 143.01 L 82.23 141.94 L 82.58 140.87 L 82.93 139.80 L 83.27 138.74 L 83.62 137.67 L 83.90 136.80 L 83.74 136.94 L 83.09 137.47 L 83.00 137.74 L 82.66 138.82 L 82.31 139.88 L 81.96 140.95 L 81.62 142.02 L 81.27 143.08 L 80.92 144.16 L 80.57 145.23 L 80.23 146.29 L 79.88 147.37 L 79.80 147.61 L 79.28 147.38 L 79.38 147.09 L 79.72 146.02 L 80.07 144.96 L 80.42 143.89 L 80.76 142.82 L 81.11 141.75 L 81.46 140.69 L 81.81 139.62 L 82.15 138.55 L 82.30 138.09 L 81.78 138.47 L 81.53 138.64 L 81.28 139.42 L 80.93 140.49 L 80.58 141.56 L 80.24 142.63 L 79.89 143.70 L 79.54 144.77 L 79.19 145.84 L 78.85 146.90 L 78.77 147.15 L 78.25 146.92 L 78.34 146.63 L 78.69 145.56 L 79.04 144.49 L 79.38 143.43 L 79.73 142.36 L 80.08 141.29 L 80.43 140.22 L 80.77 139.16 L 80.77 139.16 L 80.03 139.62 L 79.95 139.86 L 79.61 140.92 L 79.26 141.99 L 78.91 143.06 L 78.56 144.13 L 78.22 145.20 L 77.87 146.27 L 77.74 146.68 L 77.23 146.43 L 77.26 146.31 L 77.61 145.24 L 77.96 144.17 L 78.30 143.11 L 78.65 142.03 L 79.00 140.97 L 79.30 140.05 L 79.16 140.12 L 78.58 140.44 L 78.44 140.88 L 78.09 141.95 L 77.74 143.01 L 77.40 144.08 L 77.05 145.15 L 76.72 146.18 L 76.68 146.16 L 76.21 145.92 L 76.39 145.34 L 76.74 144.28 L 77.09 143.21 L 77.44 142.14 L 77.79 141.07 L 77.87 140.80 L 77.17 141.13 L 77.15 141.19 L 76.81 142.26 L 76.46 143.33 L 76.11 144.40 L 75.76 145.47 L 75.70 145.65 L 75.20 145.38 L 75.31 145.04 L 75.66 143.97 L 76.01 142.90 L 76.35 141.83 L 76.48 141.44 L 75.84 141.70 L 75.80 141.71 L 75.46 142.75 L 75.11 143.82 L 74.77 144.88 L 74.70 145.10 L 74.20 144.82 L 74.30 144.51 L 74.64 143.44 L 74.99 142.38 L 75.12 141.97 L 74.46 142.21 L 74.46 142.20 L 74.11 143.26 L 73.77 144.34 L 73.70 144.53 L 73.21 144.23 L 73.31 143.91 L 73.66 142.84 L 73.80 142.40 L 73.17 142.59 L 73.15 142.60 L 72.80 143.65 L 72.71 143.93 L 72.22 143.62 L 72.30 143.38 L 72.53 142.69 L 72.14 142.70 L 71.94 142.68 L 71.73 143.30 L 71.51 143.16 L 71.25 142.99 L 71.37 142.61 L 70.96 142.51 L 69.94 142.06 L 69.05 141.36 L 68.37 140.48 L 68.32 140.40 L 68.00 140.63 L 67.55 140.26 L 67.59 140.23 L 68.08 139.88 L 67.91 139.39 L 67.89 139.32 L 67.10 139.90 L 67.04 139.85 L 66.65 139.53 L 67.16 139.16 L 67.78 138.70 L 67.78 138.36 L 67.77 138.02 L 67.13 138.48 L 66.23 139.14 L 66.21 139.15 L 65.78 138.77 L 66.20 138.46 L 67.11 137.80 L 67.76 137.33 L 67.76 137.00 L 67.77 136.63 L 67.17 137.07 L 66.26 137.73 L 65.35 138.39 L 65.35 138.39 L 64.92 138.00 L 65.37 137.68 L 66.27 137.02 L 67.18 136.36 L 67.81 135.90 L 67.83 135.55 L 67.86 135.17 L 67.26 135.61 L 66.35 136.27 L 65.44 136.93 L 64.53 137.59 L 64.50 137.61 L 64.09 137.22 L 64.51 136.91 L 65.42 136.25 L 66.33 135.59 L 67.24 134.93 L 67.93 134.42 L 67.97 134.16 L 68.03 133.65 L 67.54 134.01 L 66.64 134.67 L 65.73 135.33 L 64.82 135.99 L 63.90 136.65 L 63.68 136.81 L 63.28 136.41 L 63.50 136.25 L 64.41 135.59 L 65.32 134.93 L 66.23 134.27 L 67.14 133.61 L 68.05 132.95 L 68.16 132.87 L 68.31 132.06 L 68.18 132.16 L 67.27 132.82 L 66.36 133.48 L 65.45 134.14 L 64.54 134.80 L 63.63 135.46 L 62.88 136.01 L 62.74 135.87 L 62.49 135.60 L 63.10 135.16 L 64.01 134.49 L 64.91 133.84 L 65.82 133.17 L 66.74 132.51 L 67.64 131.85 L 68.49 131.24 L 68.51 131.17 L 68.70 130.39 L 68.44 130.57 L 67.53 131.24 L 66.62 131.90 L 65.72 132.56 L 64.81 133.22 L 63.90 133.88 L 62.99 134.54 L 62.10 135.19 L 62.08 135.16 L 61.72 134.77 L 62.19 134.42 L 63.10 133.76 L 64.01 133.10 L 64.92 132.44 L 65.83 131.78 L 66.74 131.12 L 67.64 130.46 L 68.55 129.80 L 68.95 129.51 L 69.14 128.91 L 69.24 128.61 L 68.60 129.07 L 67.69 129.73 L 66.78 130.39 L 65.87 131.06 L 64.96 131.72 L 64.05 132.38 L 63.14 133.04 L 62.23 133.70 L 61.34 134.35 L 61.33 134.33 L 60.97 133.92 L 61.43 133.58 L 62.35 132.92 L 63.25 132.26 L 64.16 131.60 L 65.07 130.94 L 65.98 130.28 L 66.89 129.62 L 67.80 128.96 L 68.71 128.30 L 69.58 127.66 L 69.60 127.62 L 69.97 126.68 L 69.89 126.75 L 68.98 127.40 L 68.07 128.07 L 67.16 128.73 L 66.25 129.38 L 65.34 130.05 L 64.43 130.71 L 63.52 131.37 L 62.61 132.03 L 61.71 132.69 L 60.80 133.35 L 60.60 133.49 L 60.23 133.06 L 60.49 132.88 L 61.40 132.21 L 62.31 131.55 L 63.22 130.90 L 64.12 130.23 L 65.04 129.57 L 65.94 128.92 L 66.86 128.25 L 67.76 127.60 L 68.67 126.93 L 69.58 126.27 L 70.44 125.65 L 70.47 125.59 L 70.97 124.58 L 70.98 124.57 L 70.09 125.21 L 69.18 125.87 L 68.27 126.53 L 67.36 127.19 L 66.46 127.85 L 65.55 128.51 L 64.64 129.17 L 63.73 129.83 L 62.82 130.49 L 61.91 131.15 L 61.00 131.81 L 60.09 132.47 L 59.88 132.63 L 59.53 132.19 L 59.76 132.01 L 60.68 131.35 L 61.58 130.69 L 62.49 130.03 L 63.40 129.37 L 64.31 128.72 L 65.22 128.05 L 66.13 127.39 L 67.03 126.73 L 67.94 126.07 L 68.85 125.41 L 69.76 124.75 L 70.67 124.09 L 71.58 123.43 L 71.63 123.40 L 72.19 122.49 L 72.42 122.12 L 71.86 122.53 L 70.95 123.19 L 70.05 123.85 L 69.14 124.51 L 68.23 125.17 L 67.32 125.83 L 66.41 126.49 L 65.50 127.15 L 64.59 127.81 L 63.68 128.47 L 62.77 129.13 L 61.86 129.79 L 60.95 130.45 L 60.04 131.12 L 59.18 131.75 L 59.15 131.71 L 58.83 131.30 L 59.33 130.94 L 60.24 130.28 L 61.14 129.62 L 62.05 128.96 L 62.96 128.30 L 63.87 127.64 L 64.78 126.98 L 65.69 126.32 L 66.60 125.66 L 67.51 125.00 L 68.42 124.34 L 69.33 123.68 L 70.23 123.02 L 71.14 122.36 L 72.05 121.69 L 72.96 121.03 L 73.44 120.69 L 73.77 120.26 L 74.47 119.40 L 74.84 118.97 L 74.39 119.30 L 73.48 119.96 L 72.57 120.62 L 71.67 121.28 L 70.76 121.94 L 69.85 122.60 L 68.94 123.26 L 68.03 123.92 L 67.12 124.58 L 66.21 125.24 L 65.30 125.90 L 64.39 126.56 L 63.48 127.23 L 62.57 127.89 L 61.66 128.55 L 60.76 129.20 L 59.85 129.87 L 58.94 130.53 L 58.50 130.85 L 58.17 130.41 L 58.19 130.39 L 71.24 120.91 L 70.20 119.40 L 69.30 117.95 L 68.37 116.25 L 67.85 115.19 L 67.43 114.27 L 66.22 115.16 L 65.12 115.96 L 64.11 116.69 L 62.77 117.66 L 61.67 118.46 L 60.78 119.11 L 62.77 117.66 L 64.61 116.32 L 66.22 115.16 L 67.43 114.27 L 66.94 113.08 L 66.63 112.29 L 66.20 111.05 L 67.72 110.51 L 69.51 109.87 L 70.83 109.40 L 73.01 108.63 L 74.35 108.16 L 75.47 107.76 L 73.68 108.39 L 72.29 108.89 L 70.17 109.64 L 68.92 110.08 L 67.72 110.51 L 66.20 111.05 L 65.78 109.66 L 65.37 108.10 L 65.09 106.78 L 64.82 105.16 L 64.63 103.66 L 64.51 102.20 L 64.44 100.00 L 48.29 100.00 L 81.72 100.00 L 81.73 100.67 L 81.82 101.89 L 81.99 103.14 L 82.33 104.67 L 82.79 106.15 L 83.38 107.61 L 84.24 109.27 L 85.00 110.44 L 85.21 110.72 L 84.84 111.02 L 84.35 110.30 L 83.59 109.05 L 82.86 107.57 L 82.06 105.42 L 81.74 104.21 L 81.39 102.23 L 81.29 100.95 L 81.26 100.00 L 80.70 100.00 L 80.73 101.06 L 80.85 102.38 L 81.13 104.01 L 81.49 105.47 L 81.96 106.86 L 82.51 108.16 L 83.31 109.68 L 84.03 110.83 L 84.39 111.35 L 83.93 111.68 L 83.86 111.57 L 83.01 110.29 L 82.30 109.01 L 81.70 107.72 L 81.16 106.31 L 80.76 104.93 L 80.50 103.78 L 80.32 102.66 L 80.20 101.55 L 80.15 100.64 L 80.14 100.00 L 48.29 100.00 L 48.35 102.61 L 48.56 105.35 L 48.92 108.08 L 52.08 108.08 L 56.43 108.08 L 50.83 108.08 L 48.92 108.08 L 49.52 111.23 L 50.32 114.37 L 51.44 117.77 L 52.48 120.39 L 53.72 123.07 L 55.19 125.81 L 56.81 128.44 L 58.16 130.40 L 62.89 126.98 L 66.11 124.63 L 69.10 122.46 L 71.24 120.91 L 73.33 119.39 L 77.19 116.58 L 80.96 113.84 L 83.93 111.68 L 86.27 109.98 L 87.03 109.43 L 88.20 110.85 L 89.61 112.21 L 91.46 113.57 L 93.03 114.43 L 95.05 115.24 L 94.08 117.90 L 93.31 120.29 L 91.56 125.33 L 89.73 129.79 L 87.48 133.06 L 85.61 135.20 L 83.90 136.80 L 82.30 138.09 L 80.77 139.16 L 79.30 140.05 L 77.87 140.80 L 76.48 141.44 L 75.12 141.97 L 73.80 142.40 L 72.53 142.69 L 71.37 142.61 L 70.44 142.31 L 69.66 141.88 L 69.07 141.45 L 68.32 140.40 L 67.89 139.32 L 67.77 138.02 L 67.77 136.63 L 67.86 135.17 L 68.03 133.65 L 68.31 132.06 L 68.70 130.39 L 69.24 128.61 L 69.97 126.68 L 70.98 124.57 L 72.42 122.12 L 74.84 118.97 L 75.52 118.19 L 77.62 116.52 L 80.60 114.31 L 83.29 112.31 L 99.71 100.21 L 99.81 100.41 L 99.89 100.66 L 100.11 100.90 L 100.45 101.06 L 100.90 101.08 L 101.40 100.91 L 101.79 100.57 L 102.10 100.09 L 102.28 99.02 L 101.99 98.02 L 101.43 97.30 L 100.62 96.73 L 99.77 96.48 L 99.03 96.43 L 98.37 96.53 L 97.31 96.92 L 96.67 97.38 L 96.09 97.98 L 95.58 98.80 L 95.23 99.90 L 95.13 100.88 L 95.30 102.15 L 95.62 103.01 L 97.10 104.86 L 99.92 106.14 L 103.70 105.51 L 106.08 103.55 L 107.39 100.55 L 107.37 97.70 L 105.89 94.46 L 103.02 92.07 L 101.20 91.39 L 97.87 91.27 L 94.61 92.37 L 92.39 94.17 L 90.76 96.61 L 90.06 98.75 L 89.96 102.35 L 90.97 105.58 L 92.85 108.21 L 94.81 109.73 L 97.89 111.08 L 102.18 111.44 L 104.75 110.79 L 108.64 108.53 L 110.79 106.03 L 112.34 102.56 L 112.78 100.32 L 112.68 97.41 L 112.00 94.54 L 111.14 92.73 L 109.32 90.32 L 107.03 88.27 L 104.81 87.05 L 102.98 86.37 L 99.11 85.84 L 96.96 86.02 L 94.18 86.77 L 90.91 88.43 L 88.76 90.31 L 87.05 92.46 L 85.46 95.47 L 84.62 99.22 L 84.57 102.02 L 84.69 102.99 L 85.29 105.60 L 85.70 106.86 L 86.83 109.07 L 88.20 110.85 L 90.15 112.60 L 92.56 114.17 L 94.04 114.84 L 96.30 115.60 L 99.76 116.08 L 103.03 115.55 L 105.05 115.20 L 108.85 113.32 L 110.92 111.70 L 112.97 109.42 L 114.35 106.97 L 115.39 104.05 L 115.87 101.35 L 116.03 100.00 L 115.82 97.61 L 115.04 94.53 L 113.55 91.50 L 112.97 90.58 L 110.08 87.78 L 107.69 86.28 L 105.57 85.04 L 104.83 84.80 L 103.17 84.29 L 100.08 84.02 L 98.05 84.12 L 95.74 84.58 L 93.51 85.34 L 90.73 86.92 L 88.25 89.32 L 87.03 90.58 L 85.61 93.02 L 84.82 94.98 L 84.12 97.83 L 84.04 98.91 L 84.01 100.00 L 84.16 101.38 L 84.57 103.68 L 85.43 106.17 L 86.69 108.67 L 87.12 109.36 L 88.55 111.03 L 90.20 112.48 L 92.03 113.69 L 94.01 114.62 L 96.09 115.27 L 98.24 115.63 L 100.41 115.71 L 102.57 115.48 L 104.67 114.95 L 106.67 114.13 L 108.53 113.04 L 110.24 111.72 L 111.74 110.19 L 113.01 108.46 L 114.02 106.57 L 114.76 104.56 L 115.22 102.48 L 115.39 100.35 L 115.27 98.23 L 114.84 96.15 L 114.15 94.15 L 113.17 92.27 L 111.96 90.55 L 110.52 89.01 L 108.89 87.68 L 107.10 86.60 L 105.17 85.78 L 103.15 85.24 L 101.08 84.96 L 99.00 84.99 L 96.95 85.29 L 94.96 85.89 L 93.08 86.75 L 91.33 87.85 L 89.75 89.18 L 88.38 90.71 L 87.24 92.42 L 86.35 94.27 L 85.72 96.21 L 85.36 98.22 L 85.28 100.26 L 85.48 102.28 L 85.97 104.25 L 86.71 106.13 L 87.71 107.89 L 88.94 109.49 L 90.37 110.91 L 91.98 112.10 L 93.74 113.06 L 95.61 113.77 L 97.56 114.23 L 99.55 114.40 L 101.53 114.29 L 103.48 113.92 L 105.35 113.27 L 107.12 112.38 L 108.74 111.26 L 110.20 109.94 L 111.44 108.41 L 112.46 106.74 L 113.25 104.94 L 113.78 103.06 L 114.04 101.13 L 114.03 99.19 L 113.75 97.27 L 113.21 95.41 L 112.43 93.64 L 111.42 92.00 L 110.19 90.52 L 108.76 89.24 L 107.17 88.16 L 105.46 87.31 L 103.65 86.70 L 101.78 86.35 L 99.88 86.27 L 97.99 86.45 L 96.15 86.88 L 94.39 87.56 L 92.74 88.48 L 91.24 89.61 L 89.92 90.94 L 88.79 92.43 L 87.87 94.06 L 87.20 95.80 L 86.77 97.61 L 86.60 99.46 L 86.68 101.31 L 87.02 103.13 L 87.61 104.88 L 88.41 106.53 L 89.44 108.05 L 90.68 109.40 L 92.09 110.57 L 93.63 111.54 L 95.30 112.28 L 97.04 112.79 L 98.83 113.04 L 100.64 113.04 L 102.43 112.80 L 104.16 112.32 L 105.81 111.60 L 107.34 110.67 L 108.72 109.53 L 109.92 108.21 L 110.93 106.75 L 111.75 105.17 L 112.32 103.50 L 112.65 101.76 L 112.73 100.00 L 112.59 98.25 L 112.20 96.53 L 111.59 94.89 L 110.74 93.36 L 109.70 91.97 L 108.48 90.73 L 107.10 89.67 L 105.60 88.81 L 103.99 88.17 L 102.32 87.77 L 100.61 87.59 L 98.89 87.66 L 97.21 87.95 L 95.58 88.48 L 94.05 89.22 L 92.64 90.17 L 91.38 91.31 L 90.29 92.60 L 89.37 94.02 L 88.68 95.55 L 88.21 97.16 L 87.96 98.82 L 87.94 100.49 L 88.15 102.14 L 88.58 103.75 L 89.23 105.27 L 90.09 106.69 L 91.13 107.97 L 92.33 109.10 L 93.68 110.05 L 95.13 110.80 L 96.68 111.33 L 98.28 111.65 L 99.90 111.74 L 101.52 111.63 L 103.10 111.28 L 104.61 110.71 L 106.03 109.94 L 107.32 109.00 L 108.47 107.88 L 109.47 106.63 L 110.26 105.24 L 110.85 103.77 L 111.24 102.23 L 111.41 100.66 L 111.37 99.08 L 111.10 97.53 L 110.63 96.03 L 109.95 94.62 L 109.09 93.31 L 108.06 92.14 L 106.89 91.13 L 105.58 90.29 L 104.18 89.64 L 102.70 89.20 L 101.18 88.96 L 99.65 88.92 L 98.13 89.10 L 96.65 89.50 L 95.25 90.09 L 93.94 90.86 L 92.76 91.81 L 91.72 92.90 L 90.84 94.12 L 90.15 95.46 L 89.65 96.87 L 89.34 98.33 L 89.24 99.82 L 89.34 101.30 L 89.66 102.74 L 90.16 104.14 L 90.85 105.43 L 91.71 106.63 L 92.72 107.69 L 93.87 108.59 L 95.13 109.33 L 96.47 109.88 L 97.87 110.25 L 99.31 110.43 L 100.75 110.39 L 102.17 110.16 L 103.54 109.73 L 104.83 109.12 L 106.03 108.35 L 107.10 107.42 L 108.04 106.35 L 108.80 105.16 L 109.41 103.89 L 109.83 102.55 L 110.06 101.16 L 110.10 99.77 L 109.93 98.38 L 109.58 97.04 L 109.05 95.76 L 108.37 94.56 L 107.52 93.47 L 106.52 92.53 L 105.41 91.73 L 104.21 91.09 L 102.93 90.62 L 101.60 90.33 L 100.25 90.23 L 98.91 90.32 L 97.59 90.59 L 96.33 91.04 L 95.14 91.66 L 94.05 92.43 L 93.09 93.34 L 92.26 94.38 L 91.59 95.52 L 91.07 96.72 L 90.73 97.99 L 90.58 99.29 L 90.60 100.60 L 90.80 101.88 L 91.18 103.12 L 91.72 104.30 L 92.41 105.38 L 93.24 106.36 L 94.21 107.20 L 95.27 107.91 L 96.42 108.46 L 97.63 108.85 L 98.87 109.06 L 100.13 109.10 L 101.38 108.97 L 102.60 108.66 L 103.76 108.20 L 104.84 107.58 L 105.81 106.81 L 106.68 105.93 L 107.40 104.93 L 107.99 103.86 L 108.42 102.71 L 108.68 101.52 L 108.77 100.30 L 108.70 99.09 L 108.47 97.91 L 108.07 96.77 L 107.53 95.70 L 106.83 94.73 L 106.02 93.85 L 105.10 93.10 L 104.09 92.49 L 103.00 92.02 L 101.87 91.72 L 100.71 91.57 L 99.54 91.58 L 98.39 91.75 L 97.27 92.08 L 96.22 92.56 L 95.25 93.17 L 94.38 93.92 L 93.61 94.77 L 92.98 95.72 L 92.48 96.74 L 92.13 97.81 L 91.94 98.92 L 91.89 100.05 L 92.00 101.16 L 92.26 102.25 L 92.67 103.28 L 93.23 104.24 L 93.90 105.12 L 94.68 105.89 L 95.56 106.54 L 96.51 107.07 L 97.53 107.45 L 98.59 107.69 L 99.66 107.78 L 100.74 107.73 L 101.79 107.53 L 102.80 107.18 L 103.75 106.70 L 104.62 106.09 L 105.39 105.38 L 106.06 104.56 L 106.61 103.67 L 107.03 102.72 L 107.30 101.71 L 107.44 100.69 L 107.44 99.66 L 107.29 98.64 L 107.01 97.66 L 106.58 96.73 L 106.05 95.87 L 105.40 95.09 L 104.65 94.41 L 103.82 93.85 L 102.93 93.41 L 101.98 93.11 L 101.01 92.93 L 100.02 92.88 L 99.04 92.97 L 98.09 93.20 L 97.18 93.56 L 96.34 94.03 L 95.57 94.62 L 94.89 95.30 L 94.31 96.06 L 93.85 96.90 L 93.51 97.79 L 93.29 98.71 L 93.21 99.65 L 93.25 100.59 L 93.43 101.50 L 93.72 102.38 L 94.14 103.21 L 94.67 103.97 L 95.28 104.66 L 95.99 105.24 L 96.76 105.71 L 97.59 106.07 L 98.46 106.32 L 99.35 106.45 L 100.24 106.45 L 101.12 106.33 L 101.97 106.08 L 102.78 105.72 L 103.53 105.26 L 104.20 104.70 L 104.79 104.06 L 105.28 103.34 L 105.66 102.57 L 105.94 101.76 L 106.10 100.92 L 106.13 100.07 L 106.05 99.23 L 105.86 98.41 L 105.55 97.63 L 105.15 96.90 L 104.65 96.24 L 104.07 95.65 L 103.41 95.16 L 102.70 94.76 L 101.94 94.46 L 101.15 94.27 L 100.35 94.20 L 99.55 94.24 L 98.77 94.38 L 98.01 94.63 L 97.30 94.98 L 96.65 95.42 L 96.08 95.95 L 95.58 96.55 L 95.17 97.21 L 94.86 97.91 L 94.65 98.65 L 94.54 99.40 L 94.54 100.16 L 94.65 100.90 L 94.85 101.62 L 95.15 102.31 L 95.54 102.94 L 96.00 103.51 L 96.55 104.00 L 97.15 104.41 L 97.80 104.74 L 98.48 104.97 L 99.18 105.11 L 99.90 105.14 L 100.60 105.08 L 101.29 104.92 L 101.95 104.67 L 102.55 104.32 L 103.11 103.91 L 103.59 103.42 L 104.00 102.87 L 104.33 102.28 L 104.58 101.65 L 104.75 101.00 L 104.81 100.33 L 104.78 99.67 L 104.66 99.02 L 104.45 98.40 L 104.16 97.81 L 103.79 97.28 L 103.36 96.80 L 102.87 96.39 L 102.33 96.05 L 101.75 95.80 L 101.15 95.63 L 100.53 95.54 L 99.91 95.54 L 99.30 95.62 L 98.71 95.78 L 98.15 96.03 L 97.64 96.34 L 97.18 96.73 L 96.78 97.17 L 96.44 97.66 L 96.18 98.18 L 95.98 98.73 L 95.87 99.30 L 95.85 99.88 L 95.91 100.45 L 96.04 101.00 L 96.25 101.52 L 96.51 102.02 L 96.84 102.47 L 97.23 102.86 L 97.67 103.19 L 98.15 103.45 L 98.65 103.64 L 99.17 103.76 L 99.70 103.81 L 100.23 103.79 L 100.75 103.70 L 101.24 103.53 L 101.70 103.30 L 102.12 103.01 L 102.49 102.66 L 102.81 102.28 L 103.08 101.85 L 103.28 101.40 L 103.41 100.93 L 103.48 100.44 L 103.47 99.96 L 103.41 99.49 L 103.27 99.03 L 103.08 98.60 L 102.84 98.20 L 102.55 97.84 L 102.20 97.54 L 101.83 97.28 L 101.42 97.09 L 100.99 96.94 L 100.56 96.86 L 100.12 96.84 L 99.68 96.88 L 99.26 96.98 L 98.87 97.15 L 98.50 97.35 L 98.17 97.61 L 97.88 97.91 L 97.63 98.24 L 97.43 98.59 L 97.29 98.97 L 97.20 99.36 L 97.18 99.75 L 97.20 100.14 L 97.28 100.52 L 97.40 100.89 L 97.56 101.23 L 97.79 101.53 L 98.04 101.80 L 98.32 102.03 L 98.64 102.22 L 98.97 102.36 L 99.31 102.45 L 99.66 102.50 L 100.01 102.49 L 100.35 102.44 L 100.67 102.34 L 100.97 102.20 L 101.25 102.01 L 101.50 101.80 L 101.71 101.56 L 101.89 101.29 L 102.02 101.01 L 102.11 100.71 L 102.16 100.40 L 102.17 100.10 L 102.12 99.80 L 102.05 99.52 L 101.94 99.25 L 101.79 99.00 L 101.62 98.78 L 101.41 98.60 L 101.19 98.44 L 100.95 98.31 L 100.69 98.22 L 100.44 98.17 L 100.18 98.15 L 99.92 98.18 L 99.68 98.24 L 99.45 98.33 L 99.24 98.45 L 99.05 98.59 L 98.88 98.76 L 98.74 98.94 L 98.63 99.14 L 98.55 99.35 L 98.51 99.56 L 98.49 99.78 L 98.51 99.99 L 98.55 100.19 L 98.61 100.39 L 98.70 100.56 L 98.82 100.72 L 98.95 100.85 L 99.10 100.97 L 99.26 101.06 L 99.42 101.13 L 99.60 101.17 L 99.77 101.18 L 99.93 101.18 L 100.09 101.15 L 100.24 101.09 L 100.37 101.01 L 100.50 100.93 L 100.60 100.83 L 100.70 100.72 L 100.77 100.60 L 100.82 100.47 L 100.85 100.34 L 100.86 100.21 L 100.85 100.09 L 100.83 99.98 L 100.78 99.87 L 100.73 99.77 L 100.67 99.69 L 100.59 99.61 L 100.51 99.55 L 100.43 99.50 L 100.34 99.47 L 100.25 99.46 L 100.16 99.46 L 100.09 99.47 L 100.01 99.50 L 99.95 99.53 L 99.89 99.56 L 99.84 99.62 L 99.81 99.67 L 99.78 99.72 L 99.76 99.77 L 99.75 99.82 L 99.75 99.87 L 99.76 99.91 L 99.79 99.95 L 99.81 99.98 L 99.84 100.01 L 99.88 100.02 L 99.91 100.03 L 99.94 100.03 L 99.96 100.03" 
          fill="none" 
          stroke="currentColor" 
          stroke-width="0.5"/>
</svg>