<?xml version="1.0" encoding="UTF-8" standalone="no"?>
<svg width="100%" height="100%" viewBox="0 0 200 200" preserveAspectRatio="xMidYMid meet" xmlns="http://www.w3.org/2000/svg">
    <path d="M 100.00 100.00 L 99.84 99.60 L 100.36 99.11 L 100.89 98.61 L 101.41 98.12 L 101.94 97.63 L 102.46 97.14 L 102.99 96.64 L 103.51 96.15 L 104.04 95.66 L 104.56 95.16 L 105.09 94.67 L 105.61 94.18 L 106.14 93.69 L 106.66 93.19 L 107.19 92.70 L 107.71 92.21 L 108.24 91.72 L 108.76 91.22 L 109.00 91.00 L 108.64 91.00 L 109.16 91.50 L 109.68 92.00 L 110.20 92.50 L 110.72 93.00 L 111.24 93.49 L 111.75 93.99 L 112.27 94.49 L 112.79 94.99 L 113.31 95.49 L 113.83 95.99 L 114.35 96.49 L 114.87 96.99 L 115.39 97.49 L 115.91 97.99 L 116.42 98.49 L 116.94 98.98 L 117.46 99.48 L 117.98 99.98 L 118.00 100.00 L 117.64 100.00 L 118.16 99.50 L 118.68 99.00 L 119.20 98.50 L 119.72 98.00 L 120.24 97.50 L 120.75 97.01 L 121.27 96.51 L 121.79 96.01 L 122.31 95.51 L 122.83 95.01 L 123.35 94.51 L 123.87 94.01 L 124.39 93.51 L 124.91 93.01 L 125.43 92.51 L 125.94 92.02 L 126.46 91.52 L 126.98 91.02 L 127.00 91.00 L 126.64 91.00 L 127.16 91.50 L 127.68 92.00 L 128.20 92.50 L 128.72 93.00 L 129.24 93.50 L 129.75 93.99 L 130.27 94.49 L 130.79 94.99 L 131.31 95.49 L 131.83 95.99 L 132.35 96.49 L 132.87 96.99 L 133.39 97.49 L 133.91 97.99 L 134.43 98.49 L 134.94 98.98 L 135.46 99.48 L 135.98 99.98 L 136.00 100.00 L 135.64 100.00 L 136.16 99.50 L 136.68 99.00 L 137.20 98.50 L 137.72 98.00 L 138.24 97.50 L 138.75 97.01 L 139.27 96.51 L 139.79 96.01 L 140.31 95.51 L 140.83 95.01 L 141.35 94.51 L 141.87 94.01 L 142.39 93.51 L 142.91 93.01 L 143.43 92.51 L 143.94 92.02 L 144.46 91.52 L 144.98 91.02 L 145.00 91.00 L 144.64 91.00 L 145.16 91.50 L 145.68 92.00 L 146.20 92.50 L 146.72 93.00 L 147.24 93.50 L 147.75 93.99 L 148.27 94.49 L 148.79 94.99 L 149.31 95.49 L 149.83 95.99 L 150.35 96.49 L 150.87 96.99 L 151.39 97.49 L 151.91 97.99 L 152.42 98.49 L 152.94 98.98 L 153.46 99.48 L 153.98 99.98 L 154.00 100.00 L 153.64 100.00 L 154.16 99.50 L 154.68 99.00 L 155.20 98.50 L 155.72 98.00 L 156.24 97.50 L 156.75 97.01 L 157.27 96.51 L 157.79 96.01 L 158.31 95.51 L 158.83 95.01 L 159.35 94.51 L 159.87 94.01 L 160.39 93.51 L 160.91 93.01 L 161.43 92.51 L 161.94 92.02 L 162.46 91.52 L 162.98 91.02 L 163.00 91.00 L 162.64 91.00 L 163.16 91.50 L 163.68 92.00 L 164.20 92.50 L 164.72 93.00 L 165.24 93.50 L 165.75 93.99 L 166.27 94.49 L 166.79 94.99 L 167.31 95.49 L 167.83 95.99 L 168.35 96.49 L 168.87 96.99 L 169.39 97.49 L 169.91 97.99 L 170.42 98.49 L 170.94 98.98 L 171.46 99.48 L 171.98 99.98 L 172.00 100.00 L 171.64 100.00 L 172.16 99.50 L 172.68 99.00 L 173.20 98.50 L 173.72 98.00 L 174.24 97.50 L 174.75 97.01 L 175.27 96.51 L 175.79 96.01 L 176.31 95.51 L 176.83 95.01 L 177.35 94.51 L 177.87 94.01 L 178.39 93.51 L 178.91 93.01 L 179.42 92.51 L 179.94 92.02 L 180.46 91.52 L 180.98 91.02 L 181.00 91.00 L 180.64 91.00 L 181.16 91.50 L 181.68 92.00 L 182.20 92.50 L 182.72 93.00 L 183.23 93.50 L 183.75 93.99 L 184.27 94.49 L 184.79 94.99 L 185.31 95.49 L 185.83 95.99 L 186.35 96.49 L 186.87 96.99 L 187.39 97.49 L 187.91 97.99 L 188.42 98.49 L 188.94 98.98 L 189.46 99.48 L 189.98 99.98 L 190.00 100.00 L 189.64 100.00 L 190.00 100.00" 
          fill="none" 
          stroke="currentColor" 
          stroke-width="0.5"/>
</svg>